<svg width="89" height="16" viewBox="0 0 89 16" fill="none" xmlns="http://www.w3.org/2000/svg">
<path d="M2.79055 11.5658C2.54923 11.8553 2.25159 12 1.89764 12C1.57586 12 1.30236 11.8874 1.07712 11.6623C0.851877 11.4371 0.739258 11.1637 0.739258 10.8421C0.739258 10.5526 0.819701 10.3194 0.980587 10.1425L7.85042 2.25439C8.12393 1.8845 8.48592 1.58699 8.93641 1.36184C9.38689 1.12061 9.86954 1 10.3844 1C10.867 1 11.3256 1.10453 11.76 1.3136C12.1943 1.52266 12.5483 1.81214 12.8218 2.18202L19.6916 10.0219C19.7882 10.1345 19.8686 10.2632 19.933 10.4079C19.9973 10.5366 20.0295 10.6813 20.0295 10.8421C20.0295 11.1637 19.9169 11.4371 19.6916 11.6623C19.4664 11.8874 19.1929 12 18.8711 12C18.485 12 18.1793 11.8472 17.9541 11.5417L11.3256 4.03947C11.2129 3.91082 11.0681 3.77412 10.8912 3.62939C10.7303 3.46857 10.5614 3.38816 10.3844 3.38816C10.2074 3.38816 10.0304 3.46857 9.85346 3.62939C9.69257 3.77412 9.56386 3.91082 9.46733 4.03947L2.79055 11.5658Z" fill="#110D3E"/>
<path d="M21.4471 2.64035C21.4471 2.31871 21.5597 2.04532 21.7849 1.82018C22.0102 1.59503 22.2837 1.48246 22.6054 1.48246H39.7157C40.0375 1.48246 40.311 1.59503 40.5362 1.82018C40.7614 2.04532 40.8741 2.31871 40.8741 2.64035C40.8741 2.96199 40.7614 3.23538 40.5362 3.46053C40.311 3.68567 40.0375 3.79825 39.7157 3.79825H22.6054C22.2837 3.79825 22.0102 3.68567 21.7849 3.46053C21.5597 3.23538 21.4471 2.96199 21.4471 2.64035ZM24.3913 12C24.0373 12 23.6834 11.9276 23.3294 11.7829C22.9755 11.6221 22.6618 11.405 22.3882 11.1316C22.1147 10.8582 21.8895 10.5285 21.7125 10.1425C21.5355 9.75658 21.4471 9.32237 21.4471 8.83991V6.66886C21.4471 6.23465 21.5677 5.94518 21.8091 5.80044C22.0665 5.6557 22.4606 5.58333 22.9916 5.58333H39.1848C39.5065 5.58333 39.78 5.69591 40.0053 5.92105C40.2305 6.1462 40.3431 6.41959 40.3431 6.74123C40.3431 7.06287 40.2305 7.33626 40.0053 7.5614C39.78 7.78655 39.5065 7.89912 39.1848 7.89912H23.7638V9.08114C23.7638 9.24196 23.8282 9.3867 23.9569 9.51535C24.1017 9.62792 24.2867 9.68421 24.5119 9.68421H39.7157C40.0375 9.68421 40.311 9.79678 40.5362 10.0219C40.7614 10.2471 40.8741 10.5205 40.8741 10.8421C40.8741 11.1637 40.7614 11.4371 40.5362 11.6623C40.311 11.8874 40.0375 12 39.7157 12H24.3913Z" fill="#110D3E"/>
<path d="M58.8114 7.89912C59.2458 8.17251 59.6882 8.47003 60.1387 8.79167C60.5892 9.09722 61.0477 9.43494 61.5143 9.80483C61.6913 9.93348 61.8441 10.0863 61.9728 10.2632C62.1015 10.424 62.1659 10.617 62.1659 10.8421C62.1659 11.1637 62.0533 11.4371 61.828 11.6623C61.6028 11.8874 61.3293 12 61.0075 12C60.734 12 60.4605 11.8874 60.187 11.6623C59.5274 11.1798 58.8516 10.7135 58.1598 10.2632C57.468 9.81287 56.744 9.41082 55.9879 9.05702C55.2478 8.70322 54.4755 8.42178 53.6711 8.21272C52.8667 8.00366 52.0301 7.89912 51.1613 7.89912H46.3588C46.1497 7.93129 45.9727 8.02778 45.8279 8.1886C45.6831 8.34942 45.6107 8.55044 45.6107 8.79167V10.8421C45.6107 11.1637 45.49 11.4371 45.2487 11.6623C45.0235 11.8874 44.758 12 44.4523 12C44.1306 12 43.8571 11.8874 43.6318 11.6623C43.4066 11.4371 43.2939 11.1637 43.2939 10.8421V8.52632C43.2939 8.12427 43.3663 7.74635 43.5111 7.39254C43.672 7.02266 43.8812 6.70907 44.1386 6.45176C44.396 6.17836 44.7017 5.9693 45.0557 5.82456C45.4096 5.66374 45.7957 5.58333 46.214 5.58333H59.0045C59.2458 5.58333 59.455 5.50292 59.6319 5.34211C59.825 5.16521 59.9215 4.9481 59.9215 4.69079C59.9215 4.44956 59.825 4.2405 59.6319 4.0636C59.455 3.8867 59.2458 3.79825 59.0045 3.79825H44.4523C44.1306 3.79825 43.8571 3.68567 43.6318 3.46053C43.4066 3.23538 43.2939 2.96199 43.2939 2.64035C43.2939 2.31871 43.4066 2.04532 43.6318 1.82018C43.8571 1.59503 44.1306 1.48246 44.4523 1.48246H58.9079C59.3584 1.48246 59.7767 1.57091 60.1629 1.74781C60.5651 1.90863 60.911 2.13377 61.2006 2.42325C61.5063 2.71272 61.7395 3.05044 61.9004 3.4364C62.0774 3.82237 62.1659 4.2405 62.1659 4.69079C62.1659 5.14108 62.0774 5.55921 61.9004 5.94518C61.7395 6.33114 61.5063 6.66886 61.2006 6.95833C60.911 7.24781 60.5651 7.48099 60.1629 7.6579C59.7767 7.81871 59.3584 7.89912 58.9079 7.89912H58.8114Z" fill="#110D3E"/>
<path d="M66.892 10.8421C66.892 11.1637 66.7794 11.4371 66.5541 11.6623C66.3289 11.8874 66.0554 12 65.7336 12C65.4118 12 65.1383 11.8874 64.9131 11.6623C64.6878 11.4371 64.5752 11.1637 64.5752 10.8421V2.64035C64.5752 2.31871 64.6878 2.04532 64.9131 1.82018C65.1383 1.59503 65.4118 1.48246 65.7336 1.48246C66.0554 1.48246 66.3289 1.59503 66.5541 1.82018C66.7794 2.04532 66.892 2.31871 66.892 2.64035V10.8421Z" fill="#110D3E"/>
<path d="M69.3123 2.64035C69.3123 2.31871 69.4249 2.04532 69.6501 1.82018C69.8754 1.59503 70.1489 1.48246 70.4706 1.48246H87.5809C87.9026 1.48246 88.1761 1.59503 88.4014 1.82018C88.6266 2.04532 88.7393 2.31871 88.7393 2.64035C88.7393 2.96199 88.6266 3.23538 88.4014 3.46053C88.1761 3.68567 87.9026 3.79825 87.5809 3.79825H70.4706C70.1489 3.79825 69.8754 3.68567 69.6501 3.46053C69.4249 3.23538 69.3123 2.96199 69.3123 2.64035ZM72.2565 12C71.9025 12 71.5486 11.9276 71.1946 11.7829C70.8407 11.6221 70.5269 11.405 70.2534 11.1316C69.9799 10.8582 69.7547 10.5285 69.5777 10.1425C69.4007 9.75658 69.3123 9.32237 69.3123 8.83991V6.66886C69.3123 6.23465 69.4329 5.94518 69.6742 5.80044C69.9317 5.6557 70.3258 5.58333 70.8568 5.58333H87.0499C87.3717 5.58333 87.6452 5.69591 87.8705 5.92105C88.0957 6.1462 88.2083 6.41959 88.2083 6.74123C88.2083 7.06287 88.0957 7.33626 87.8705 7.5614C87.6452 7.78655 87.3717 7.89912 87.0499 7.89912H71.629V9.08114C71.629 9.24196 71.6934 9.3867 71.8221 9.51535C71.9669 9.62792 72.1519 9.68421 72.3771 9.68421H87.5809C87.9026 9.68421 88.1761 9.79678 88.4014 10.0219C88.6266 10.2471 88.7393 10.5205 88.7393 10.8421C88.7393 11.1637 88.6266 11.4371 88.4014 11.6623C88.1761 11.8874 87.9026 12 87.5809 12H72.2565Z" fill="#110D3E"/>
<path d="M10.205 6.63363C10.2855 6.41597 10.5934 6.41597 10.6739 6.63363L11.3357 8.42211C11.5383 8.96955 11.9699 9.40117 12.5173 9.60374L14.3058 10.2655C14.5235 10.3461 14.5235 10.6539 14.3058 10.7345L12.5173 11.3963C11.9699 11.5988 11.5383 12.0305 11.3357 12.5779L10.6739 14.3664C10.5934 14.584 10.2855 14.584 10.205 14.3664L9.54319 12.5779C9.34062 12.0305 8.909 11.5988 8.36156 11.3963L6.57308 10.7345C6.35542 10.6539 6.35542 10.3461 6.57308 10.2655L8.36156 9.60374C8.909 9.40117 9.34062 8.96955 9.54319 8.42211L10.205 6.63363Z" fill="#F2994A"/>
</svg>
