<?xml version="1.0" encoding="utf-8" standalone="no"?>
<!DOCTYPE svg PUBLIC "-//W3C//DTD SVG 1.1//EN"
  "http://www.w3.org/Graphics/SVG/1.1/DTD/svg11.dtd">
<svg xmlns:xlink="http://www.w3.org/1999/xlink" width="504pt" height="360pt" viewBox="0 0 504 360" xmlns="http://www.w3.org/2000/svg" version="1.1">
 <metadata>
  <rdf:RDF xmlns:dc="http://purl.org/dc/elements/1.1/" xmlns:cc="http://creativecommons.org/ns#" xmlns:rdf="http://www.w3.org/1999/02/22-rdf-syntax-ns#">
   <cc:Work>
    <dc:type rdf:resource="http://purl.org/dc/dcmitype/StillImage"/>
    <dc:date>2026-06-28T22:14:30.444869</dc:date>
    <dc:format>image/svg+xml</dc:format>
    <dc:creator>
     <cc:Agent>
      <dc:title>Matplotlib v3.10.9, https://matplotlib.org/</dc:title>
     </cc:Agent>
    </dc:creator>
   </cc:Work>
  </rdf:RDF>
 </metadata>
 <defs>
  <style type="text/css">*{stroke-linejoin: round; stroke-linecap: butt}</style>
 </defs>
 <g id="figure_1">
  <g id="patch_1">
   <path d="M 0 360 
L 504 360 
L 504 0 
L 0 0 
z
" style="fill: #ffffff"/>
  </g>
  <g id="axes_1">
   <g id="patch_2">
    <path d="M 63.56 313.649 
L 493.2 313.649 
L 493.2 41.856 
L 63.56 41.856 
z
" style="fill: #ffffff"/>
   </g>
   <g id="patch_3">
    <path d="M 83.089091 313.649 
L 92.853636 313.649 
L 92.853636 307.766035 
L 83.089091 307.766035 
z
" clip-path="url(#p1fca4d98aa)" style="fill: #aa0000; opacity: 0.6"/>
   </g>
   <g id="patch_4">
    <path d="M 92.853636 313.649 
L 102.618182 313.649 
L 102.618182 313.649 
L 92.853636 313.649 
z
" clip-path="url(#p1fca4d98aa)" style="fill: #aa0000; opacity: 0.6"/>
   </g>
   <g id="patch_5">
    <path d="M 102.618182 313.649 
L 112.382727 313.649 
L 112.382727 307.766035 
L 102.618182 307.766035 
z
" clip-path="url(#p1fca4d98aa)" style="fill: #aa0000; opacity: 0.6"/>
   </g>
   <g id="patch_6">
    <path d="M 112.382727 313.649 
L 122.147273 313.649 
L 122.147273 313.649 
L 112.382727 313.649 
z
" clip-path="url(#p1fca4d98aa)" style="fill: #aa0000; opacity: 0.6"/>
   </g>
   <g id="patch_7">
    <path d="M 122.147273 313.649 
L 131.911818 313.649 
L 131.911818 301.883069 
L 122.147273 301.883069 
z
" clip-path="url(#p1fca4d98aa)" style="fill: #aa0000; opacity: 0.6"/>
   </g>
   <g id="patch_8">
    <path d="M 131.911818 313.649 
L 141.676364 313.649 
L 141.676364 301.883069 
L 131.911818 301.883069 
z
" clip-path="url(#p1fca4d98aa)" style="fill: #aa0000; opacity: 0.6"/>
   </g>
   <g id="patch_9">
    <path d="M 141.676364 313.649 
L 151.440909 313.649 
L 151.440909 296.000104 
L 141.676364 296.000104 
z
" clip-path="url(#p1fca4d98aa)" style="fill: #aa0000; opacity: 0.6"/>
   </g>
   <g id="patch_10">
    <path d="M 151.440909 313.649 
L 161.205455 313.649 
L 161.205455 307.766035 
L 151.440909 307.766035 
z
" clip-path="url(#p1fca4d98aa)" style="fill: #aa0000; opacity: 0.6"/>
   </g>
   <g id="patch_11">
    <path d="M 161.205455 313.649 
L 170.97 313.649 
L 170.97 284.234173 
L 161.205455 284.234173 
z
" clip-path="url(#p1fca4d98aa)" style="fill: #aa0000; opacity: 0.6"/>
   </g>
   <g id="patch_12">
    <path d="M 170.97 313.649 
L 180.734545 313.649 
L 180.734545 296.000104 
L 170.97 296.000104 
z
" clip-path="url(#p1fca4d98aa)" style="fill: #aa0000; opacity: 0.6"/>
   </g>
   <g id="patch_13">
    <path d="M 180.734545 313.649 
L 190.499091 313.649 
L 190.499091 260.702312 
L 180.734545 260.702312 
z
" clip-path="url(#p1fca4d98aa)" style="fill: #aa0000; opacity: 0.6"/>
   </g>
   <g id="patch_14">
    <path d="M 190.499091 313.649 
L 200.263636 313.649 
L 200.263636 284.234173 
L 190.499091 284.234173 
z
" clip-path="url(#p1fca4d98aa)" style="fill: #aa0000; opacity: 0.6"/>
   </g>
   <g id="patch_15">
    <path d="M 200.263636 313.649 
L 210.028182 313.649 
L 210.028182 207.755623 
L 200.263636 207.755623 
z
" clip-path="url(#p1fca4d98aa)" style="fill: #aa0000; opacity: 0.6"/>
   </g>
   <g id="patch_16">
    <path d="M 210.028182 313.649 
L 219.792727 313.649 
L 219.792727 231.287485 
L 210.028182 231.287485 
z
" clip-path="url(#p1fca4d98aa)" style="fill: #aa0000; opacity: 0.6"/>
   </g>
   <g id="patch_17">
    <path d="M 219.792727 313.649 
L 229.557273 313.649 
L 229.557273 195.989693 
L 219.792727 195.989693 
z
" clip-path="url(#p1fca4d98aa)" style="fill: #aa0000; opacity: 0.6"/>
   </g>
   <g id="patch_18">
    <path d="M 229.557273 313.649 
L 239.321818 313.649 
L 239.321818 178.340797 
L 229.557273 178.340797 
z
" clip-path="url(#p1fca4d98aa)" style="fill: #aa0000; opacity: 0.6"/>
   </g>
   <g id="patch_19">
    <path d="M 239.321818 313.649 
L 249.086364 313.649 
L 249.086364 160.6919 
L 239.321818 160.6919 
z
" clip-path="url(#p1fca4d98aa)" style="fill: #aa0000; opacity: 0.6"/>
   </g>
   <g id="patch_20">
    <path d="M 249.086364 313.649 
L 258.850909 313.649 
L 258.850909 154.808935 
L 249.086364 154.808935 
z
" clip-path="url(#p1fca4d98aa)" style="fill: #aa0000; opacity: 0.6"/>
   </g>
   <g id="patch_21">
    <path d="M 258.850909 313.649 
L 268.615455 313.649 
L 268.615455 119.511143 
L 258.850909 119.511143 
z
" clip-path="url(#p1fca4d98aa)" style="fill: #aa0000; opacity: 0.6"/>
   </g>
   <g id="patch_22">
    <path d="M 268.615455 313.649 
L 278.38 313.649 
L 278.38 166.574866 
L 268.615455 166.574866 
z
" clip-path="url(#p1fca4d98aa)" style="fill: #aa0000; opacity: 0.6"/>
   </g>
   <g id="patch_23">
    <path d="M 278.38 313.649 
L 288.144545 313.649 
L 288.144545 113.628177 
L 278.38 113.628177 
z
" clip-path="url(#p1fca4d98aa)" style="fill: #aa0000; opacity: 0.6"/>
   </g>
   <g id="patch_24">
    <path d="M 288.144545 313.649 
L 297.909091 313.649 
L 297.909091 101.862247 
L 288.144545 101.862247 
z
" clip-path="url(#p1fca4d98aa)" style="fill: #aa0000; opacity: 0.6"/>
   </g>
   <g id="patch_25">
    <path d="M 297.909091 313.649 
L 307.673636 313.649 
L 307.673636 143.043004 
L 297.909091 143.043004 
z
" clip-path="url(#p1fca4d98aa)" style="fill: #aa0000; opacity: 0.6"/>
   </g>
   <g id="patch_26">
    <path d="M 307.673636 313.649 
L 317.438182 313.649 
L 317.438182 143.043004 
L 307.673636 143.043004 
z
" clip-path="url(#p1fca4d98aa)" style="fill: #aa0000; opacity: 0.6"/>
   </g>
   <g id="patch_27">
    <path d="M 317.438182 313.649 
L 327.202727 313.649 
L 327.202727 54.798524 
L 317.438182 54.798524 
z
" clip-path="url(#p1fca4d98aa)" style="fill: #aa0000; opacity: 0.6"/>
   </g>
   <g id="patch_28">
    <path d="M 327.202727 313.649 
L 336.967273 313.649 
L 336.967273 113.628177 
L 327.202727 113.628177 
z
" clip-path="url(#p1fca4d98aa)" style="fill: #aa0000; opacity: 0.6"/>
   </g>
   <g id="patch_29">
    <path d="M 336.967273 313.649 
L 346.731818 313.649 
L 346.731818 119.511143 
L 336.967273 119.511143 
z
" clip-path="url(#p1fca4d98aa)" style="fill: #aa0000; opacity: 0.6"/>
   </g>
   <g id="patch_30">
    <path d="M 346.731818 313.649 
L 356.496364 313.649 
L 356.496364 137.160039 
L 346.731818 137.160039 
z
" clip-path="url(#p1fca4d98aa)" style="fill: #aa0000; opacity: 0.6"/>
   </g>
   <g id="patch_31">
    <path d="M 356.496364 313.649 
L 366.260909 313.649 
L 366.260909 154.808935 
L 356.496364 154.808935 
z
" clip-path="url(#p1fca4d98aa)" style="fill: #aa0000; opacity: 0.6"/>
   </g>
   <g id="patch_32">
    <path d="M 366.260909 313.649 
L 376.025455 313.649 
L 376.025455 207.755623 
L 366.260909 207.755623 
z
" clip-path="url(#p1fca4d98aa)" style="fill: #aa0000; opacity: 0.6"/>
   </g>
   <g id="patch_33">
    <path d="M 376.025455 313.649 
L 385.79 313.649 
L 385.79 207.755623 
L 376.025455 207.755623 
z
" clip-path="url(#p1fca4d98aa)" style="fill: #aa0000; opacity: 0.6"/>
   </g>
   <g id="patch_34">
    <path d="M 385.79 313.649 
L 395.554545 313.649 
L 395.554545 260.702312 
L 385.79 260.702312 
z
" clip-path="url(#p1fca4d98aa)" style="fill: #aa0000; opacity: 0.6"/>
   </g>
   <g id="patch_35">
    <path d="M 395.554545 313.649 
L 405.319091 313.649 
L 405.319091 219.521554 
L 395.554545 219.521554 
z
" clip-path="url(#p1fca4d98aa)" style="fill: #aa0000; opacity: 0.6"/>
   </g>
   <g id="patch_36">
    <path d="M 405.319091 313.649 
L 415.083636 313.649 
L 415.083636 272.468242 
L 405.319091 272.468242 
z
" clip-path="url(#p1fca4d98aa)" style="fill: #aa0000; opacity: 0.6"/>
   </g>
   <g id="patch_37">
    <path d="M 415.083636 313.649 
L 424.848182 313.649 
L 424.848182 272.468242 
L 415.083636 272.468242 
z
" clip-path="url(#p1fca4d98aa)" style="fill: #aa0000; opacity: 0.6"/>
   </g>
   <g id="patch_38">
    <path d="M 424.848182 313.649 
L 434.612727 313.649 
L 434.612727 301.883069 
L 424.848182 301.883069 
z
" clip-path="url(#p1fca4d98aa)" style="fill: #aa0000; opacity: 0.6"/>
   </g>
   <g id="patch_39">
    <path d="M 434.612727 313.649 
L 444.377273 313.649 
L 444.377273 301.883069 
L 434.612727 301.883069 
z
" clip-path="url(#p1fca4d98aa)" style="fill: #aa0000; opacity: 0.6"/>
   </g>
   <g id="patch_40">
    <path d="M 444.377273 313.649 
L 454.141818 313.649 
L 454.141818 296.000104 
L 444.377273 296.000104 
z
" clip-path="url(#p1fca4d98aa)" style="fill: #aa0000; opacity: 0.6"/>
   </g>
   <g id="patch_41">
    <path d="M 454.141818 313.649 
L 463.906364 313.649 
L 463.906364 307.766035 
L 454.141818 307.766035 
z
" clip-path="url(#p1fca4d98aa)" style="fill: #aa0000; opacity: 0.6"/>
   </g>
   <g id="patch_42">
    <path d="M 463.906364 313.649 
L 473.670909 313.649 
L 473.670909 296.000104 
L 463.906364 296.000104 
z
" clip-path="url(#p1fca4d98aa)" style="fill: #aa0000; opacity: 0.6"/>
   </g>
   <g id="matplotlib.axis_1">
    <g id="xtick_1">
     <g id="line2d_1">
      <defs>
       <path id="m667e7efcb5" d="M 0 0 
L 0 3.5 
" style="stroke: #000000; stroke-width: 0.8"/>
      </defs>
      <g>
       <use xlink:href="#m667e7efcb5" x="124.99874" y="313.649" style="stroke: #000000; stroke-width: 0.8"/>
      </g>
     </g>
     <g id="text_1">
      <!-- −400 -->
      <g transform="translate(112.638506 327.487594) scale(0.09 -0.09)">
       <defs>
        <path id="DejaVuSans-2212" d="M 678 2272 
L 4684 2272 
L 4684 1741 
L 678 1741 
L 678 2272 
z
" transform="scale(0.015625)"/>
        <path id="DejaVuSans-34" d="M 2419 4116 
L 825 1625 
L 2419 1625 
L 2419 4116 
z
M 2253 4666 
L 3047 4666 
L 3047 1625 
L 3713 1625 
L 3713 1100 
L 3047 1100 
L 3047 0 
L 2419 0 
L 2419 1100 
L 313 1100 
L 313 1709 
L 2253 4666 
z
" transform="scale(0.015625)"/>
        <path id="DejaVuSans-30" d="M 2034 4250 
Q 1547 4250 1301 3770 
Q 1056 3291 1056 2328 
Q 1056 1369 1301 889 
Q 1547 409 2034 409 
Q 2525 409 2770 889 
Q 3016 1369 3016 2328 
Q 3016 3291 2770 3770 
Q 2525 4250 2034 4250 
z
M 2034 4750 
Q 2819 4750 3233 4129 
Q 3647 3509 3647 2328 
Q 3647 1150 3233 529 
Q 2819 -91 2034 -91 
Q 1250 -91 836 529 
Q 422 1150 422 2328 
Q 422 3509 836 4129 
Q 1250 4750 2034 4750 
z
" transform="scale(0.015625)"/>
       </defs>
       <use xlink:href="#DejaVuSans-2212"/>
       <use xlink:href="#DejaVuSans-34" transform="translate(83.789062 0)"/>
       <use xlink:href="#DejaVuSans-30" transform="translate(147.412109 0)"/>
       <use xlink:href="#DejaVuSans-30" transform="translate(211.035156 0)"/>
      </g>
     </g>
    </g>
    <g id="xtick_2">
     <g id="line2d_2">
      <g>
       <use xlink:href="#m667e7efcb5" x="212.496739" y="313.649" style="stroke: #000000; stroke-width: 0.8"/>
      </g>
     </g>
     <g id="text_2">
      <!-- −200 -->
      <g transform="translate(200.136505 327.487594) scale(0.09 -0.09)">
       <defs>
        <path id="DejaVuSans-32" d="M 1228 531 
L 3431 531 
L 3431 0 
L 469 0 
L 469 531 
Q 828 903 1448 1529 
Q 2069 2156 2228 2338 
Q 2531 2678 2651 2914 
Q 2772 3150 2772 3378 
Q 2772 3750 2511 3984 
Q 2250 4219 1831 4219 
Q 1534 4219 1204 4116 
Q 875 4013 500 3803 
L 500 4441 
Q 881 4594 1212 4672 
Q 1544 4750 1819 4750 
Q 2544 4750 2975 4387 
Q 3406 4025 3406 3419 
Q 3406 3131 3298 2873 
Q 3191 2616 2906 2266 
Q 2828 2175 2409 1742 
Q 1991 1309 1228 531 
z
" transform="scale(0.015625)"/>
       </defs>
       <use xlink:href="#DejaVuSans-2212"/>
       <use xlink:href="#DejaVuSans-32" transform="translate(83.789062 0)"/>
       <use xlink:href="#DejaVuSans-30" transform="translate(147.412109 0)"/>
       <use xlink:href="#DejaVuSans-30" transform="translate(211.035156 0)"/>
      </g>
     </g>
    </g>
    <g id="xtick_3">
     <g id="line2d_3">
      <g>
       <use xlink:href="#m667e7efcb5" x="299.994739" y="313.649" style="stroke: #000000; stroke-width: 0.8"/>
      </g>
     </g>
     <g id="text_3">
      <!-- 0 -->
      <g transform="translate(297.131614 327.487594) scale(0.09 -0.09)">
       <use xlink:href="#DejaVuSans-30"/>
      </g>
     </g>
    </g>
    <g id="xtick_4">
     <g id="line2d_4">
      <g>
       <use xlink:href="#m667e7efcb5" x="387.492738" y="313.649" style="stroke: #000000; stroke-width: 0.8"/>
      </g>
     </g>
     <g id="text_4">
      <!-- 200 -->
      <g transform="translate(378.903363 327.487594) scale(0.09 -0.09)">
       <use xlink:href="#DejaVuSans-32"/>
       <use xlink:href="#DejaVuSans-30" transform="translate(63.623047 0)"/>
       <use xlink:href="#DejaVuSans-30" transform="translate(127.246094 0)"/>
      </g>
     </g>
    </g>
    <g id="xtick_5">
     <g id="line2d_5">
      <g>
       <use xlink:href="#m667e7efcb5" x="474.990737" y="313.649" style="stroke: #000000; stroke-width: 0.8"/>
      </g>
     </g>
     <g id="text_5">
      <!-- 400 -->
      <g transform="translate(466.401362 327.487594) scale(0.09 -0.09)">
       <use xlink:href="#DejaVuSans-34"/>
       <use xlink:href="#DejaVuSans-30" transform="translate(63.623047 0)"/>
       <use xlink:href="#DejaVuSans-30" transform="translate(127.246094 0)"/>
      </g>
     </g>
    </g>
    <g id="text_6">
     <!-- $a(t_f) - \overline{a(t_f)}$ [m] -->
     <g transform="translate(241.28 343.079625) scale(0.1 -0.1)">
      <defs>
       <path id="DejaVuSans-Oblique-61" d="M 3438 1997 
L 3047 0 
L 2472 0 
L 2578 531 
Q 2325 219 2001 64 
Q 1678 -91 1281 -91 
Q 834 -91 548 182 
Q 263 456 263 884 
Q 263 1497 752 1853 
Q 1241 2209 2100 2209 
L 2900 2209 
L 2931 2363 
Q 2938 2388 2941 2417 
Q 2944 2447 2944 2509 
Q 2944 2788 2717 2942 
Q 2491 3097 2081 3097 
Q 1800 3097 1504 3025 
Q 1209 2953 897 2809 
L 997 3341 
Q 1322 3463 1633 3523 
Q 1944 3584 2234 3584 
Q 2853 3584 3176 3315 
Q 3500 3047 3500 2534 
Q 3500 2431 3484 2292 
Q 3469 2153 3438 1997 
z
M 2816 1759 
L 2241 1759 
Q 1534 1759 1195 1570 
Q 856 1381 856 984 
Q 856 709 1029 553 
Q 1203 397 1509 397 
Q 1978 397 2328 733 
Q 2678 1069 2791 1631 
L 2816 1759 
z
" transform="scale(0.015625)"/>
       <path id="DejaVuSans-28" d="M 1984 4856 
Q 1566 4138 1362 3434 
Q 1159 2731 1159 2009 
Q 1159 1288 1364 580 
Q 1569 -128 1984 -844 
L 1484 -844 
Q 1016 -109 783 600 
Q 550 1309 550 2009 
Q 550 2706 781 3412 
Q 1013 4119 1484 4856 
L 1984 4856 
z
" transform="scale(0.015625)"/>
       <path id="DejaVuSans-Oblique-74" d="M 2706 3500 
L 2619 3053 
L 1472 3053 
L 1100 1153 
Q 1081 1047 1072 975 
Q 1063 903 1063 863 
Q 1063 663 1183 572 
Q 1303 481 1569 481 
L 2150 481 
L 2053 0 
L 1503 0 
Q 991 0 739 200 
Q 488 400 488 806 
Q 488 878 497 964 
Q 506 1050 525 1153 
L 897 3053 
L 409 3053 
L 500 3500 
L 978 3500 
L 1172 4494 
L 1747 4494 
L 1556 3500 
L 2706 3500 
z
" transform="scale(0.015625)"/>
       <path id="DejaVuSans-Oblique-66" d="M 3059 4863 
L 2969 4384 
L 2419 4384 
Q 2106 4384 1964 4261 
Q 1822 4138 1753 3809 
L 1691 3500 
L 2638 3500 
L 2553 3053 
L 1606 3053 
L 1013 0 
L 434 0 
L 1031 3053 
L 481 3053 
L 563 3500 
L 1113 3500 
L 1159 3744 
Q 1278 4363 1576 4613 
Q 1875 4863 2516 4863 
L 3059 4863 
z
" transform="scale(0.015625)"/>
       <path id="DejaVuSans-29" d="M 513 4856 
L 1013 4856 
Q 1481 4119 1714 3412 
Q 1947 2706 1947 2009 
Q 1947 1309 1714 600 
Q 1481 -109 1013 -844 
L 513 -844 
Q 928 -128 1133 580 
Q 1338 1288 1338 2009 
Q 1338 2731 1133 3434 
Q 928 4138 513 4856 
z
" transform="scale(0.015625)"/>
       <path id="DejaVuSans-20" transform="scale(0.015625)"/>
       <path id="DejaVuSans-5b" d="M 550 4863 
L 1875 4863 
L 1875 4416 
L 1125 4416 
L 1125 -397 
L 1875 -397 
L 1875 -844 
L 550 -844 
L 550 4863 
z
" transform="scale(0.015625)"/>
       <path id="DejaVuSans-6d" d="M 3328 2828 
Q 3544 3216 3844 3400 
Q 4144 3584 4550 3584 
Q 5097 3584 5394 3201 
Q 5691 2819 5691 2113 
L 5691 0 
L 5113 0 
L 5113 2094 
Q 5113 2597 4934 2840 
Q 4756 3084 4391 3084 
Q 3944 3084 3684 2787 
Q 3425 2491 3425 1978 
L 3425 0 
L 2847 0 
L 2847 2094 
Q 2847 2600 2669 2842 
Q 2491 3084 2119 3084 
Q 1678 3084 1418 2786 
Q 1159 2488 1159 1978 
L 1159 0 
L 581 0 
L 581 3500 
L 1159 3500 
L 1159 2956 
Q 1356 3278 1631 3431 
Q 1906 3584 2284 3584 
Q 2666 3584 2933 3390 
Q 3200 3197 3328 2828 
z
" transform="scale(0.015625)"/>
       <path id="DejaVuSans-5d" d="M 1947 4863 
L 1947 -844 
L 622 -844 
L 622 -397 
L 1369 -397 
L 1369 4416 
L 622 4416 
L 622 4863 
L 1947 4863 
z
" transform="scale(0.015625)"/>
      </defs>
      <use xlink:href="#DejaVuSans-Oblique-61" transform="translate(0 0.375)"/>
      <use xlink:href="#DejaVuSans-28" transform="translate(61.279297 0.375)"/>
      <use xlink:href="#DejaVuSans-Oblique-74" transform="translate(100.292969 0.375)"/>
      <use xlink:href="#DejaVuSans-Oblique-66" transform="translate(139.501953 -16.03125) scale(0.7)"/>
      <use xlink:href="#DejaVuSans-29" transform="translate(166.879883 0.375)"/>
      <use xlink:href="#DejaVuSans-2212" transform="translate(225.375977 0.375)"/>
      <use xlink:href="#DejaVuSans-Oblique-61" transform="translate(328.647461 0.875)"/>
      <use xlink:href="#DejaVuSans-28" transform="translate(389.926758 0.875)"/>
      <use xlink:href="#DejaVuSans-Oblique-74" transform="translate(428.94043 0.875)"/>
      <use xlink:href="#DejaVuSans-Oblique-66" transform="translate(468.149414 -15.53125) scale(0.7)"/>
      <use xlink:href="#DejaVuSans-29" transform="translate(495.527344 0.875)"/>
      <use xlink:href="#DejaVuSans-20" transform="translate(534.541016 0.375)"/>
      <use xlink:href="#DejaVuSans-5b" transform="translate(566.328125 0.375)"/>
      <use xlink:href="#DejaVuSans-6d" transform="translate(605.341797 0.375)"/>
      <use xlink:href="#DejaVuSans-5d" transform="translate(702.753906 0.375)"/>
      <path d="M 328.647461 88.5 
L 328.647461 94.75 
L 534.541016 94.75 
L 534.541016 88.5 
L 328.647461 88.5 
z
"/>
     </g>
    </g>
   </g>
   <g id="matplotlib.axis_2">
    <g id="ytick_1">
     <g id="line2d_6">
      <defs>
       <path id="m48fe25b903" d="M 0 0 
L -3.5 0 
" style="stroke: #000000; stroke-width: 0.8"/>
      </defs>
      <g>
       <use xlink:href="#m48fe25b903" x="63.56" y="313.649" style="stroke: #000000; stroke-width: 0.8"/>
      </g>
     </g>
     <g id="text_7">
      <!-- 0.0000 -->
      <g transform="translate(25.068438 317.068297) scale(0.09 -0.09)">
       <defs>
        <path id="DejaVuSans-2e" d="M 684 794 
L 1344 794 
L 1344 0 
L 684 0 
L 684 794 
z
" transform="scale(0.015625)"/>
       </defs>
       <use xlink:href="#DejaVuSans-30"/>
       <use xlink:href="#DejaVuSans-2e" transform="translate(63.623047 0)"/>
       <use xlink:href="#DejaVuSans-30" transform="translate(95.410156 0)"/>
       <use xlink:href="#DejaVuSans-30" transform="translate(159.033203 0)"/>
       <use xlink:href="#DejaVuSans-30" transform="translate(222.65625 0)"/>
       <use xlink:href="#DejaVuSans-30" transform="translate(286.279297 0)"/>
      </g>
     </g>
    </g>
    <g id="ytick_2">
     <g id="line2d_7">
      <g>
       <use xlink:href="#m48fe25b903" x="63.56" y="274.257597" style="stroke: #000000; stroke-width: 0.8"/>
      </g>
     </g>
     <g id="text_8">
      <!-- 0.0005 -->
      <g transform="translate(25.068438 277.676894) scale(0.09 -0.09)">
       <defs>
        <path id="DejaVuSans-35" d="M 691 4666 
L 3169 4666 
L 3169 4134 
L 1269 4134 
L 1269 2991 
Q 1406 3038 1543 3061 
Q 1681 3084 1819 3084 
Q 2600 3084 3056 2656 
Q 3513 2228 3513 1497 
Q 3513 744 3044 326 
Q 2575 -91 1722 -91 
Q 1428 -91 1123 -41 
Q 819 9 494 109 
L 494 744 
Q 775 591 1075 516 
Q 1375 441 1709 441 
Q 2250 441 2565 725 
Q 2881 1009 2881 1497 
Q 2881 1984 2565 2268 
Q 2250 2553 1709 2553 
Q 1456 2553 1204 2497 
Q 953 2441 691 2322 
L 691 4666 
z
" transform="scale(0.015625)"/>
       </defs>
       <use xlink:href="#DejaVuSans-30"/>
       <use xlink:href="#DejaVuSans-2e" transform="translate(63.623047 0)"/>
       <use xlink:href="#DejaVuSans-30" transform="translate(95.410156 0)"/>
       <use xlink:href="#DejaVuSans-30" transform="translate(159.033203 0)"/>
       <use xlink:href="#DejaVuSans-30" transform="translate(222.65625 0)"/>
       <use xlink:href="#DejaVuSans-35" transform="translate(286.279297 0)"/>
      </g>
     </g>
    </g>
    <g id="ytick_3">
     <g id="line2d_8">
      <g>
       <use xlink:href="#m48fe25b903" x="63.56" y="234.866194" style="stroke: #000000; stroke-width: 0.8"/>
      </g>
     </g>
     <g id="text_9">
      <!-- 0.0010 -->
      <g transform="translate(25.068438 238.285491) scale(0.09 -0.09)">
       <defs>
        <path id="DejaVuSans-31" d="M 794 531 
L 1825 531 
L 1825 4091 
L 703 3866 
L 703 4441 
L 1819 4666 
L 2450 4666 
L 2450 531 
L 3481 531 
L 3481 0 
L 794 0 
L 794 531 
z
" transform="scale(0.015625)"/>
       </defs>
       <use xlink:href="#DejaVuSans-30"/>
       <use xlink:href="#DejaVuSans-2e" transform="translate(63.623047 0)"/>
       <use xlink:href="#DejaVuSans-30" transform="translate(95.410156 0)"/>
       <use xlink:href="#DejaVuSans-30" transform="translate(159.033203 0)"/>
       <use xlink:href="#DejaVuSans-31" transform="translate(222.65625 0)"/>
       <use xlink:href="#DejaVuSans-30" transform="translate(286.279297 0)"/>
      </g>
     </g>
    </g>
    <g id="ytick_4">
     <g id="line2d_9">
      <g>
       <use xlink:href="#m48fe25b903" x="63.56" y="195.474791" style="stroke: #000000; stroke-width: 0.8"/>
      </g>
     </g>
     <g id="text_10">
      <!-- 0.0015 -->
      <g transform="translate(25.068438 198.894088) scale(0.09 -0.09)">
       <use xlink:href="#DejaVuSans-30"/>
       <use xlink:href="#DejaVuSans-2e" transform="translate(63.623047 0)"/>
       <use xlink:href="#DejaVuSans-30" transform="translate(95.410156 0)"/>
       <use xlink:href="#DejaVuSans-30" transform="translate(159.033203 0)"/>
       <use xlink:href="#DejaVuSans-31" transform="translate(222.65625 0)"/>
       <use xlink:href="#DejaVuSans-35" transform="translate(286.279297 0)"/>
      </g>
     </g>
    </g>
    <g id="ytick_5">
     <g id="line2d_10">
      <g>
       <use xlink:href="#m48fe25b903" x="63.56" y="156.083388" style="stroke: #000000; stroke-width: 0.8"/>
      </g>
     </g>
     <g id="text_11">
      <!-- 0.0020 -->
      <g transform="translate(25.068438 159.502684) scale(0.09 -0.09)">
       <use xlink:href="#DejaVuSans-30"/>
       <use xlink:href="#DejaVuSans-2e" transform="translate(63.623047 0)"/>
       <use xlink:href="#DejaVuSans-30" transform="translate(95.410156 0)"/>
       <use xlink:href="#DejaVuSans-30" transform="translate(159.033203 0)"/>
       <use xlink:href="#DejaVuSans-32" transform="translate(222.65625 0)"/>
       <use xlink:href="#DejaVuSans-30" transform="translate(286.279297 0)"/>
      </g>
     </g>
    </g>
    <g id="ytick_6">
     <g id="line2d_11">
      <g>
       <use xlink:href="#m48fe25b903" x="63.56" y="116.691984" style="stroke: #000000; stroke-width: 0.8"/>
      </g>
     </g>
     <g id="text_12">
      <!-- 0.0025 -->
      <g transform="translate(25.068438 120.111281) scale(0.09 -0.09)">
       <use xlink:href="#DejaVuSans-30"/>
       <use xlink:href="#DejaVuSans-2e" transform="translate(63.623047 0)"/>
       <use xlink:href="#DejaVuSans-30" transform="translate(95.410156 0)"/>
       <use xlink:href="#DejaVuSans-30" transform="translate(159.033203 0)"/>
       <use xlink:href="#DejaVuSans-32" transform="translate(222.65625 0)"/>
       <use xlink:href="#DejaVuSans-35" transform="translate(286.279297 0)"/>
      </g>
     </g>
    </g>
    <g id="ytick_7">
     <g id="line2d_12">
      <g>
       <use xlink:href="#m48fe25b903" x="63.56" y="77.300581" style="stroke: #000000; stroke-width: 0.8"/>
      </g>
     </g>
     <g id="text_13">
      <!-- 0.0030 -->
      <g transform="translate(25.068438 80.719878) scale(0.09 -0.09)">
       <defs>
        <path id="DejaVuSans-33" d="M 2597 2516 
Q 3050 2419 3304 2112 
Q 3559 1806 3559 1356 
Q 3559 666 3084 287 
Q 2609 -91 1734 -91 
Q 1441 -91 1130 -33 
Q 819 25 488 141 
L 488 750 
Q 750 597 1062 519 
Q 1375 441 1716 441 
Q 2309 441 2620 675 
Q 2931 909 2931 1356 
Q 2931 1769 2642 2001 
Q 2353 2234 1838 2234 
L 1294 2234 
L 1294 2753 
L 1863 2753 
Q 2328 2753 2575 2939 
Q 2822 3125 2822 3475 
Q 2822 3834 2567 4026 
Q 2313 4219 1838 4219 
Q 1578 4219 1281 4162 
Q 984 4106 628 3988 
L 628 4550 
Q 988 4650 1302 4700 
Q 1616 4750 1894 4750 
Q 2613 4750 3031 4423 
Q 3450 4097 3450 3541 
Q 3450 3153 3228 2886 
Q 3006 2619 2597 2516 
z
" transform="scale(0.015625)"/>
       </defs>
       <use xlink:href="#DejaVuSans-30"/>
       <use xlink:href="#DejaVuSans-2e" transform="translate(63.623047 0)"/>
       <use xlink:href="#DejaVuSans-30" transform="translate(95.410156 0)"/>
       <use xlink:href="#DejaVuSans-30" transform="translate(159.033203 0)"/>
       <use xlink:href="#DejaVuSans-33" transform="translate(222.65625 0)"/>
       <use xlink:href="#DejaVuSans-30" transform="translate(286.279297 0)"/>
      </g>
     </g>
    </g>
    <g id="text_14">
     <!-- density -->
     <g transform="translate(18.98875 196.085312) rotate(-90) scale(0.1 -0.1)">
      <defs>
       <path id="DejaVuSans-64" d="M 2906 2969 
L 2906 4863 
L 3481 4863 
L 3481 0 
L 2906 0 
L 2906 525 
Q 2725 213 2448 61 
Q 2172 -91 1784 -91 
Q 1150 -91 751 415 
Q 353 922 353 1747 
Q 353 2572 751 3078 
Q 1150 3584 1784 3584 
Q 2172 3584 2448 3432 
Q 2725 3281 2906 2969 
z
M 947 1747 
Q 947 1113 1208 752 
Q 1469 391 1925 391 
Q 2381 391 2643 752 
Q 2906 1113 2906 1747 
Q 2906 2381 2643 2742 
Q 2381 3103 1925 3103 
Q 1469 3103 1208 2742 
Q 947 2381 947 1747 
z
" transform="scale(0.015625)"/>
       <path id="DejaVuSans-65" d="M 3597 1894 
L 3597 1613 
L 953 1613 
Q 991 1019 1311 708 
Q 1631 397 2203 397 
Q 2534 397 2845 478 
Q 3156 559 3463 722 
L 3463 178 
Q 3153 47 2828 -22 
Q 2503 -91 2169 -91 
Q 1331 -91 842 396 
Q 353 884 353 1716 
Q 353 2575 817 3079 
Q 1281 3584 2069 3584 
Q 2775 3584 3186 3129 
Q 3597 2675 3597 1894 
z
M 3022 2063 
Q 3016 2534 2758 2815 
Q 2500 3097 2075 3097 
Q 1594 3097 1305 2825 
Q 1016 2553 972 2059 
L 3022 2063 
z
" transform="scale(0.015625)"/>
       <path id="DejaVuSans-6e" d="M 3513 2113 
L 3513 0 
L 2938 0 
L 2938 2094 
Q 2938 2591 2744 2837 
Q 2550 3084 2163 3084 
Q 1697 3084 1428 2787 
Q 1159 2491 1159 1978 
L 1159 0 
L 581 0 
L 581 3500 
L 1159 3500 
L 1159 2956 
Q 1366 3272 1645 3428 
Q 1925 3584 2291 3584 
Q 2894 3584 3203 3211 
Q 3513 2838 3513 2113 
z
" transform="scale(0.015625)"/>
       <path id="DejaVuSans-73" d="M 2834 3397 
L 2834 2853 
Q 2591 2978 2328 3040 
Q 2066 3103 1784 3103 
Q 1356 3103 1142 2972 
Q 928 2841 928 2578 
Q 928 2378 1081 2264 
Q 1234 2150 1697 2047 
L 1894 2003 
Q 2506 1872 2764 1633 
Q 3022 1394 3022 966 
Q 3022 478 2636 193 
Q 2250 -91 1575 -91 
Q 1294 -91 989 -36 
Q 684 19 347 128 
L 347 722 
Q 666 556 975 473 
Q 1284 391 1588 391 
Q 1994 391 2212 530 
Q 2431 669 2431 922 
Q 2431 1156 2273 1281 
Q 2116 1406 1581 1522 
L 1381 1569 
Q 847 1681 609 1914 
Q 372 2147 372 2553 
Q 372 3047 722 3315 
Q 1072 3584 1716 3584 
Q 2034 3584 2315 3537 
Q 2597 3491 2834 3397 
z
" transform="scale(0.015625)"/>
       <path id="DejaVuSans-69" d="M 603 3500 
L 1178 3500 
L 1178 0 
L 603 0 
L 603 3500 
z
M 603 4863 
L 1178 4863 
L 1178 4134 
L 603 4134 
L 603 4863 
z
" transform="scale(0.015625)"/>
       <path id="DejaVuSans-74" d="M 1172 4494 
L 1172 3500 
L 2356 3500 
L 2356 3053 
L 1172 3053 
L 1172 1153 
Q 1172 725 1289 603 
Q 1406 481 1766 481 
L 2356 481 
L 2356 0 
L 1766 0 
Q 1100 0 847 248 
Q 594 497 594 1153 
L 594 3053 
L 172 3053 
L 172 3500 
L 594 3500 
L 594 4494 
L 1172 4494 
z
" transform="scale(0.015625)"/>
       <path id="DejaVuSans-79" d="M 2059 -325 
Q 1816 -950 1584 -1140 
Q 1353 -1331 966 -1331 
L 506 -1331 
L 506 -850 
L 844 -850 
Q 1081 -850 1212 -737 
Q 1344 -625 1503 -206 
L 1606 56 
L 191 3500 
L 800 3500 
L 1894 763 
L 2988 3500 
L 3597 3500 
L 2059 -325 
z
" transform="scale(0.015625)"/>
      </defs>
      <use xlink:href="#DejaVuSans-64"/>
      <use xlink:href="#DejaVuSans-65" transform="translate(63.476562 0)"/>
      <use xlink:href="#DejaVuSans-6e" transform="translate(125 0)"/>
      <use xlink:href="#DejaVuSans-73" transform="translate(188.378906 0)"/>
      <use xlink:href="#DejaVuSans-69" transform="translate(240.478516 0)"/>
      <use xlink:href="#DejaVuSans-74" transform="translate(268.261719 0)"/>
      <use xlink:href="#DejaVuSans-79" transform="translate(307.470703 0)"/>
     </g>
    </g>
   </g>
   <g id="line2d_13">
    <path d="M 299.994739 313.649 
L 299.994739 41.856 
" clip-path="url(#p1fca4d98aa)" style="fill: none; stroke: #000000; stroke-linecap: square"/>
   </g>
   <g id="line2d_14">
    <path d="M 363.9725 313.649 
L 363.9725 41.856 
" clip-path="url(#p1fca4d98aa)" style="fill: none; stroke-dasharray: 3.7,1.6; stroke-dashoffset: 0; stroke: #808080"/>
   </g>
   <g id="line2d_15">
    <path d="M 236.016977 313.649 
L 236.016977 41.856 
" clip-path="url(#p1fca4d98aa)" style="fill: none; stroke-dasharray: 3.7,1.6; stroke-dashoffset: 0; stroke: #808080"/>
   </g>
   <g id="line2d_16">
    <path d="M 427.950262 313.649 
L 427.950262 41.856 
" clip-path="url(#p1fca4d98aa)" style="fill: none; stroke-dasharray: 3.7,1.6; stroke-dashoffset: 0; stroke: #808080"/>
   </g>
   <g id="line2d_17">
    <path d="M 172.039216 313.649 
L 172.039216 41.856 
" clip-path="url(#p1fca4d98aa)" style="fill: none; stroke-dasharray: 3.7,1.6; stroke-dashoffset: 0; stroke: #808080"/>
   </g>
   <g id="patch_43">
    <path d="M 63.56 313.649 
L 63.56 41.856 
" style="fill: none; stroke: #000000; stroke-width: 0.8; stroke-linejoin: miter; stroke-linecap: square"/>
   </g>
   <g id="patch_44">
    <path d="M 493.2 313.649 
L 493.2 41.856 
" style="fill: none; stroke: #000000; stroke-width: 0.8; stroke-linejoin: miter; stroke-linecap: square"/>
   </g>
   <g id="patch_45">
    <path d="M 63.56 313.649 
L 493.2 313.649 
" style="fill: none; stroke: #000000; stroke-width: 0.8; stroke-linejoin: miter; stroke-linecap: square"/>
   </g>
   <g id="patch_46">
    <path d="M 63.56 41.856 
L 493.2 41.856 
" style="fill: none; stroke: #000000; stroke-width: 0.8; stroke-linejoin: miter; stroke-linecap: square"/>
   </g>
   <g id="text_15">
    <!-- Figure of merit spread: std = 146.2 m (146 m SMA) -->
    <g transform="translate(124.317813 22.418625) scale(0.12 -0.12)">
     <defs>
      <path id="DejaVuSans-46" d="M 628 4666 
L 3309 4666 
L 3309 4134 
L 1259 4134 
L 1259 2759 
L 3109 2759 
L 3109 2228 
L 1259 2228 
L 1259 0 
L 628 0 
L 628 4666 
z
" transform="scale(0.015625)"/>
      <path id="DejaVuSans-67" d="M 2906 1791 
Q 2906 2416 2648 2759 
Q 2391 3103 1925 3103 
Q 1463 3103 1205 2759 
Q 947 2416 947 1791 
Q 947 1169 1205 825 
Q 1463 481 1925 481 
Q 2391 481 2648 825 
Q 2906 1169 2906 1791 
z
M 3481 434 
Q 3481 -459 3084 -895 
Q 2688 -1331 1869 -1331 
Q 1566 -1331 1297 -1286 
Q 1028 -1241 775 -1147 
L 775 -588 
Q 1028 -725 1275 -790 
Q 1522 -856 1778 -856 
Q 2344 -856 2625 -561 
Q 2906 -266 2906 331 
L 2906 616 
Q 2728 306 2450 153 
Q 2172 0 1784 0 
Q 1141 0 747 490 
Q 353 981 353 1791 
Q 353 2603 747 3093 
Q 1141 3584 1784 3584 
Q 2172 3584 2450 3431 
Q 2728 3278 2906 2969 
L 2906 3500 
L 3481 3500 
L 3481 434 
z
" transform="scale(0.015625)"/>
      <path id="DejaVuSans-75" d="M 544 1381 
L 544 3500 
L 1119 3500 
L 1119 1403 
Q 1119 906 1312 657 
Q 1506 409 1894 409 
Q 2359 409 2629 706 
Q 2900 1003 2900 1516 
L 2900 3500 
L 3475 3500 
L 3475 0 
L 2900 0 
L 2900 538 
Q 2691 219 2414 64 
Q 2138 -91 1772 -91 
Q 1169 -91 856 284 
Q 544 659 544 1381 
z
M 1991 3584 
L 1991 3584 
z
" transform="scale(0.015625)"/>
      <path id="DejaVuSans-72" d="M 2631 2963 
Q 2534 3019 2420 3045 
Q 2306 3072 2169 3072 
Q 1681 3072 1420 2755 
Q 1159 2438 1159 1844 
L 1159 0 
L 581 0 
L 581 3500 
L 1159 3500 
L 1159 2956 
Q 1341 3275 1631 3429 
Q 1922 3584 2338 3584 
Q 2397 3584 2469 3576 
Q 2541 3569 2628 3553 
L 2631 2963 
z
" transform="scale(0.015625)"/>
      <path id="DejaVuSans-6f" d="M 1959 3097 
Q 1497 3097 1228 2736 
Q 959 2375 959 1747 
Q 959 1119 1226 758 
Q 1494 397 1959 397 
Q 2419 397 2687 759 
Q 2956 1122 2956 1747 
Q 2956 2369 2687 2733 
Q 2419 3097 1959 3097 
z
M 1959 3584 
Q 2709 3584 3137 3096 
Q 3566 2609 3566 1747 
Q 3566 888 3137 398 
Q 2709 -91 1959 -91 
Q 1206 -91 779 398 
Q 353 888 353 1747 
Q 353 2609 779 3096 
Q 1206 3584 1959 3584 
z
" transform="scale(0.015625)"/>
      <path id="DejaVuSans-66" d="M 2375 4863 
L 2375 4384 
L 1825 4384 
Q 1516 4384 1395 4259 
Q 1275 4134 1275 3809 
L 1275 3500 
L 2222 3500 
L 2222 3053 
L 1275 3053 
L 1275 0 
L 697 0 
L 697 3053 
L 147 3053 
L 147 3500 
L 697 3500 
L 697 3744 
Q 697 4328 969 4595 
Q 1241 4863 1831 4863 
L 2375 4863 
z
" transform="scale(0.015625)"/>
      <path id="DejaVuSans-70" d="M 1159 525 
L 1159 -1331 
L 581 -1331 
L 581 3500 
L 1159 3500 
L 1159 2969 
Q 1341 3281 1617 3432 
Q 1894 3584 2278 3584 
Q 2916 3584 3314 3078 
Q 3713 2572 3713 1747 
Q 3713 922 3314 415 
Q 2916 -91 2278 -91 
Q 1894 -91 1617 61 
Q 1341 213 1159 525 
z
M 3116 1747 
Q 3116 2381 2855 2742 
Q 2594 3103 2138 3103 
Q 1681 3103 1420 2742 
Q 1159 2381 1159 1747 
Q 1159 1113 1420 752 
Q 1681 391 2138 391 
Q 2594 391 2855 752 
Q 3116 1113 3116 1747 
z
" transform="scale(0.015625)"/>
      <path id="DejaVuSans-61" d="M 2194 1759 
Q 1497 1759 1228 1600 
Q 959 1441 959 1056 
Q 959 750 1161 570 
Q 1363 391 1709 391 
Q 2188 391 2477 730 
Q 2766 1069 2766 1631 
L 2766 1759 
L 2194 1759 
z
M 3341 1997 
L 3341 0 
L 2766 0 
L 2766 531 
Q 2569 213 2275 61 
Q 1981 -91 1556 -91 
Q 1019 -91 701 211 
Q 384 513 384 1019 
Q 384 1609 779 1909 
Q 1175 2209 1959 2209 
L 2766 2209 
L 2766 2266 
Q 2766 2663 2505 2880 
Q 2244 3097 1772 3097 
Q 1472 3097 1187 3025 
Q 903 2953 641 2809 
L 641 3341 
Q 956 3463 1253 3523 
Q 1550 3584 1831 3584 
Q 2591 3584 2966 3190 
Q 3341 2797 3341 1997 
z
" transform="scale(0.015625)"/>
      <path id="DejaVuSans-3a" d="M 750 794 
L 1409 794 
L 1409 0 
L 750 0 
L 750 794 
z
M 750 3309 
L 1409 3309 
L 1409 2516 
L 750 2516 
L 750 3309 
z
" transform="scale(0.015625)"/>
      <path id="DejaVuSans-3d" d="M 678 2906 
L 4684 2906 
L 4684 2381 
L 678 2381 
L 678 2906 
z
M 678 1631 
L 4684 1631 
L 4684 1100 
L 678 1100 
L 678 1631 
z
" transform="scale(0.015625)"/>
      <path id="DejaVuSans-36" d="M 2113 2584 
Q 1688 2584 1439 2293 
Q 1191 2003 1191 1497 
Q 1191 994 1439 701 
Q 1688 409 2113 409 
Q 2538 409 2786 701 
Q 3034 994 3034 1497 
Q 3034 2003 2786 2293 
Q 2538 2584 2113 2584 
z
M 3366 4563 
L 3366 3988 
Q 3128 4100 2886 4159 
Q 2644 4219 2406 4219 
Q 1781 4219 1451 3797 
Q 1122 3375 1075 2522 
Q 1259 2794 1537 2939 
Q 1816 3084 2150 3084 
Q 2853 3084 3261 2657 
Q 3669 2231 3669 1497 
Q 3669 778 3244 343 
Q 2819 -91 2113 -91 
Q 1303 -91 875 529 
Q 447 1150 447 2328 
Q 447 3434 972 4092 
Q 1497 4750 2381 4750 
Q 2619 4750 2861 4703 
Q 3103 4656 3366 4563 
z
" transform="scale(0.015625)"/>
      <path id="DejaVuSans-53" d="M 3425 4513 
L 3425 3897 
Q 3066 4069 2747 4153 
Q 2428 4238 2131 4238 
Q 1616 4238 1336 4038 
Q 1056 3838 1056 3469 
Q 1056 3159 1242 3001 
Q 1428 2844 1947 2747 
L 2328 2669 
Q 3034 2534 3370 2195 
Q 3706 1856 3706 1288 
Q 3706 609 3251 259 
Q 2797 -91 1919 -91 
Q 1588 -91 1214 -16 
Q 841 59 441 206 
L 441 856 
Q 825 641 1194 531 
Q 1563 422 1919 422 
Q 2459 422 2753 634 
Q 3047 847 3047 1241 
Q 3047 1584 2836 1778 
Q 2625 1972 2144 2069 
L 1759 2144 
Q 1053 2284 737 2584 
Q 422 2884 422 3419 
Q 422 4038 858 4394 
Q 1294 4750 2059 4750 
Q 2388 4750 2728 4690 
Q 3069 4631 3425 4513 
z
" transform="scale(0.015625)"/>
      <path id="DejaVuSans-4d" d="M 628 4666 
L 1569 4666 
L 2759 1491 
L 3956 4666 
L 4897 4666 
L 4897 0 
L 4281 0 
L 4281 4097 
L 3078 897 
L 2444 897 
L 1241 4097 
L 1241 0 
L 628 0 
L 628 4666 
z
" transform="scale(0.015625)"/>
      <path id="DejaVuSans-41" d="M 2188 4044 
L 1331 1722 
L 3047 1722 
L 2188 4044 
z
M 1831 4666 
L 2547 4666 
L 4325 0 
L 3669 0 
L 3244 1197 
L 1141 1197 
L 716 0 
L 50 0 
L 1831 4666 
z
" transform="scale(0.015625)"/>
     </defs>
     <use xlink:href="#DejaVuSans-46"/>
     <use xlink:href="#DejaVuSans-69" transform="translate(50.269531 0)"/>
     <use xlink:href="#DejaVuSans-67" transform="translate(78.052734 0)"/>
     <use xlink:href="#DejaVuSans-75" transform="translate(141.529297 0)"/>
     <use xlink:href="#DejaVuSans-72" transform="translate(204.908203 0)"/>
     <use xlink:href="#DejaVuSans-65" transform="translate(243.771484 0)"/>
     <use xlink:href="#DejaVuSans-20" transform="translate(305.294922 0)"/>
     <use xlink:href="#DejaVuSans-6f" transform="translate(337.082031 0)"/>
     <use xlink:href="#DejaVuSans-66" transform="translate(398.263672 0)"/>
     <use xlink:href="#DejaVuSans-20" transform="translate(433.46875 0)"/>
     <use xlink:href="#DejaVuSans-6d" transform="translate(465.255859 0)"/>
     <use xlink:href="#DejaVuSans-65" transform="translate(562.667969 0)"/>
     <use xlink:href="#DejaVuSans-72" transform="translate(624.191406 0)"/>
     <use xlink:href="#DejaVuSans-69" transform="translate(665.304688 0)"/>
     <use xlink:href="#DejaVuSans-74" transform="translate(693.087891 0)"/>
     <use xlink:href="#DejaVuSans-20" transform="translate(732.296875 0)"/>
     <use xlink:href="#DejaVuSans-73" transform="translate(764.083984 0)"/>
     <use xlink:href="#DejaVuSans-70" transform="translate(816.183594 0)"/>
     <use xlink:href="#DejaVuSans-72" transform="translate(879.660156 0)"/>
     <use xlink:href="#DejaVuSans-65" transform="translate(918.523438 0)"/>
     <use xlink:href="#DejaVuSans-61" transform="translate(980.046875 0)"/>
     <use xlink:href="#DejaVuSans-64" transform="translate(1041.326172 0)"/>
     <use xlink:href="#DejaVuSans-3a" transform="translate(1104.802734 0)"/>
     <use xlink:href="#DejaVuSans-20" transform="translate(1138.494141 0)"/>
     <use xlink:href="#DejaVuSans-73" transform="translate(1170.28125 0)"/>
     <use xlink:href="#DejaVuSans-74" transform="translate(1222.380859 0)"/>
     <use xlink:href="#DejaVuSans-64" transform="translate(1261.589844 0)"/>
     <use xlink:href="#DejaVuSans-20" transform="translate(1325.066406 0)"/>
     <use xlink:href="#DejaVuSans-3d" transform="translate(1356.853516 0)"/>
     <use xlink:href="#DejaVuSans-20" transform="translate(1440.642578 0)"/>
     <use xlink:href="#DejaVuSans-31" transform="translate(1472.429688 0)"/>
     <use xlink:href="#DejaVuSans-34" transform="translate(1536.052734 0)"/>
     <use xlink:href="#DejaVuSans-36" transform="translate(1599.675781 0)"/>
     <use xlink:href="#DejaVuSans-2e" transform="translate(1663.298828 0)"/>
     <use xlink:href="#DejaVuSans-32" transform="translate(1695.085938 0)"/>
     <use xlink:href="#DejaVuSans-20" transform="translate(1758.708984 0)"/>
     <use xlink:href="#DejaVuSans-6d" transform="translate(1790.496094 0)"/>
     <use xlink:href="#DejaVuSans-20" transform="translate(1887.908203 0)"/>
     <use xlink:href="#DejaVuSans-28" transform="translate(1919.695312 0)"/>
     <use xlink:href="#DejaVuSans-31" transform="translate(1958.708984 0)"/>
     <use xlink:href="#DejaVuSans-34" transform="translate(2022.332031 0)"/>
     <use xlink:href="#DejaVuSans-36" transform="translate(2085.955078 0)"/>
     <use xlink:href="#DejaVuSans-20" transform="translate(2149.578125 0)"/>
     <use xlink:href="#DejaVuSans-6d" transform="translate(2181.365234 0)"/>
     <use xlink:href="#DejaVuSans-20" transform="translate(2278.777344 0)"/>
     <use xlink:href="#DejaVuSans-53" transform="translate(2310.564453 0)"/>
     <use xlink:href="#DejaVuSans-4d" transform="translate(2374.041016 0)"/>
     <use xlink:href="#DejaVuSans-41" transform="translate(2460.320312 0)"/>
     <use xlink:href="#DejaVuSans-29" transform="translate(2528.728516 0)"/>
    </g>
    <!-- cached reference, N=600 -->
    <g transform="translate(201.4675 35.856) scale(0.12 -0.12)">
     <defs>
      <path id="DejaVuSans-63" d="M 3122 3366 
L 3122 2828 
Q 2878 2963 2633 3030 
Q 2388 3097 2138 3097 
Q 1578 3097 1268 2742 
Q 959 2388 959 1747 
Q 959 1106 1268 751 
Q 1578 397 2138 397 
Q 2388 397 2633 464 
Q 2878 531 3122 666 
L 3122 134 
Q 2881 22 2623 -34 
Q 2366 -91 2075 -91 
Q 1284 -91 818 406 
Q 353 903 353 1747 
Q 353 2603 823 3093 
Q 1294 3584 2113 3584 
Q 2378 3584 2631 3529 
Q 2884 3475 3122 3366 
z
" transform="scale(0.015625)"/>
      <path id="DejaVuSans-68" d="M 3513 2113 
L 3513 0 
L 2938 0 
L 2938 2094 
Q 2938 2591 2744 2837 
Q 2550 3084 2163 3084 
Q 1697 3084 1428 2787 
Q 1159 2491 1159 1978 
L 1159 0 
L 581 0 
L 581 4863 
L 1159 4863 
L 1159 2956 
Q 1366 3272 1645 3428 
Q 1925 3584 2291 3584 
Q 2894 3584 3203 3211 
Q 3513 2838 3513 2113 
z
" transform="scale(0.015625)"/>
      <path id="DejaVuSans-2c" d="M 750 794 
L 1409 794 
L 1409 256 
L 897 -744 
L 494 -744 
L 750 256 
L 750 794 
z
" transform="scale(0.015625)"/>
      <path id="DejaVuSans-4e" d="M 628 4666 
L 1478 4666 
L 3547 763 
L 3547 4666 
L 4159 4666 
L 4159 0 
L 3309 0 
L 1241 3903 
L 1241 0 
L 628 0 
L 628 4666 
z
" transform="scale(0.015625)"/>
     </defs>
     <use xlink:href="#DejaVuSans-63"/>
     <use xlink:href="#DejaVuSans-61" transform="translate(54.980469 0)"/>
     <use xlink:href="#DejaVuSans-63" transform="translate(116.259766 0)"/>
     <use xlink:href="#DejaVuSans-68" transform="translate(171.240234 0)"/>
     <use xlink:href="#DejaVuSans-65" transform="translate(234.619141 0)"/>
     <use xlink:href="#DejaVuSans-64" transform="translate(296.142578 0)"/>
     <use xlink:href="#DejaVuSans-20" transform="translate(359.619141 0)"/>
     <use xlink:href="#DejaVuSans-72" transform="translate(391.40625 0)"/>
     <use xlink:href="#DejaVuSans-65" transform="translate(430.269531 0)"/>
     <use xlink:href="#DejaVuSans-66" transform="translate(491.792969 0)"/>
     <use xlink:href="#DejaVuSans-65" transform="translate(526.998047 0)"/>
     <use xlink:href="#DejaVuSans-72" transform="translate(588.521484 0)"/>
     <use xlink:href="#DejaVuSans-65" transform="translate(627.384766 0)"/>
     <use xlink:href="#DejaVuSans-6e" transform="translate(688.908203 0)"/>
     <use xlink:href="#DejaVuSans-63" transform="translate(752.287109 0)"/>
     <use xlink:href="#DejaVuSans-65" transform="translate(807.267578 0)"/>
     <use xlink:href="#DejaVuSans-2c" transform="translate(868.791016 0)"/>
     <use xlink:href="#DejaVuSans-20" transform="translate(900.578125 0)"/>
     <use xlink:href="#DejaVuSans-4e" transform="translate(932.365234 0)"/>
     <use xlink:href="#DejaVuSans-3d" transform="translate(1007.169922 0)"/>
     <use xlink:href="#DejaVuSans-36" transform="translate(1090.958984 0)"/>
     <use xlink:href="#DejaVuSans-30" transform="translate(1154.582031 0)"/>
     <use xlink:href="#DejaVuSans-30" transform="translate(1218.205078 0)"/>
    </g>
   </g>
  </g>
 </g>
 <defs>
  <clipPath id="p1fca4d98aa">
   <rect x="63.56" y="41.856" width="429.64" height="271.793"/>
  </clipPath>
 </defs>
</svg>
