<?xml version="1.0" encoding="UTF-8" standalone="no"?>
<!DOCTYPE svg PUBLIC "-//W3C//DTD SVG 1.1//EN"
 "http://www.w3.org/Graphics/SVG/1.1/DTD/svg11.dtd">
<!-- Generated by graphviz version 15.0.0 (20260523.1842)
 -->
<!-- Title: attTrackingErrorIO Pages: 1 -->
<svg width="336pt" height="98pt"
 viewBox="0.00 0.00 336.00 98.00" xmlns="http://www.w3.org/2000/svg" xmlns:xlink="http://www.w3.org/1999/xlink">
<g id="graph0" class="graph" transform="scale(1 1) rotate(0) translate(4 94)">
<title>attTrackingErrorIO</title>
<!-- module -->
<g id="node1" class="node">
<title>module</title>
<path fill="#8a7f73" stroke="#555555" stroke-width="2" d="M198,-63C198,-63 128,-63 128,-63 122,-63 116,-57 116,-51 116,-51 116,-39 116,-39 116,-33 122,-27 128,-27 128,-27 198,-27 198,-27 204,-27 210,-33 210,-39 210,-39 210,-51 210,-51 210,-57 204,-63 198,-63"/>
<text xml:space="preserve" text-anchor="middle" x="163" y="-40.36" font-family="Helvetica,sans-Serif" font-size="11.20" fill="white">attTrackingError</text>
</g>
<!-- msg_0 -->
<g id="node2" class="node">
<title>msg_0</title>
<path fill="white" stroke="#555555" d="M315.5,-63C315.5,-63 258,-63 258,-63 252,-63 246,-57 246,-51 246,-51 246,-39 246,-39 246,-33 252,-27 258,-27 258,-27 315.5,-27 315.5,-27 321.5,-27 327.5,-33 327.5,-39 327.5,-39 327.5,-51 327.5,-51 327.5,-57 321.5,-63 315.5,-63"/>
<text xml:space="preserve" text-anchor="start" x="256" y="-48.5" font-family="Helvetica,sans-Serif" font-size="9.00">attGuidOutMsg</text>
<text xml:space="preserve" text-anchor="start" x="256" y="-36.6" font-family="Helvetica,sans-Serif" font-style="italic" font-size="7.00">AttGuidMsgPayload</text>
</g>
<!-- module&#45;&gt;msg_0 -->
<g id="edge1" class="edge">
<title>module&#45;&gt;msg_0</title>
<path fill="none" stroke="#555555" d="M210.38,-45C218.23,-45 226.43,-45 234.4,-45"/>
<polygon fill="#555555" stroke="#555555" points="234.35,-48.5 244.35,-45 234.35,-41.5 234.35,-48.5"/>
</g>
<!-- msg_1 -->
<g id="node3" class="node">
<title>msg_1</title>
<path fill="white" stroke="#555555" d="M68,-90C68,-90 12,-90 12,-90 6,-90 0,-84 0,-78 0,-78 0,-66 0,-66 0,-60 6,-54 12,-54 12,-54 68,-54 68,-54 74,-54 80,-60 80,-66 80,-66 80,-78 80,-78 80,-84 74,-90 68,-90"/>
<text xml:space="preserve" text-anchor="start" x="10" y="-75.5" font-family="Helvetica,sans-Serif" font-size="9.00">attNavInMsg</text>
<text xml:space="preserve" text-anchor="start" x="10" y="-63.6" font-family="Helvetica,sans-Serif" font-style="italic" font-size="7.00">NavAttMsgPayload</text>
</g>
<!-- msg_1&#45;&gt;module -->
<g id="edge2" class="edge">
<title>msg_1&#45;&gt;module</title>
<path fill="none" stroke="#555555" d="M80.29,-63.23C88.07,-61.5 96.38,-59.64 104.62,-57.8"/>
<polygon fill="#555555" stroke="#555555" points="105.28,-61.24 114.27,-55.65 103.75,-54.41 105.28,-61.24"/>
</g>
<!-- msg_2 -->
<g id="node4" class="node">
<title>msg_2</title>
<path fill="white" stroke="#555555" d="M67.25,-36C67.25,-36 12.75,-36 12.75,-36 6.75,-36 0.75,-30 0.75,-24 0.75,-24 0.75,-12 0.75,-12 0.75,-6 6.75,0 12.75,0 12.75,0 67.25,0 67.25,0 73.25,0 79.25,-6 79.25,-12 79.25,-12 79.25,-24 79.25,-24 79.25,-30 73.25,-36 67.25,-36"/>
<text xml:space="preserve" text-anchor="start" x="10.75" y="-21.5" font-family="Helvetica,sans-Serif" font-size="9.00">attRefInMsg</text>
<text xml:space="preserve" text-anchor="start" x="10.75" y="-9.6" font-family="Helvetica,sans-Serif" font-style="italic" font-size="7.00">AttRefMsgPayload</text>
</g>
<!-- msg_2&#45;&gt;module -->
<g id="edge3" class="edge">
<title>msg_2&#45;&gt;module</title>
<path fill="none" stroke="#555555" d="M79.62,-26.62C87.6,-28.4 96.17,-30.31 104.66,-32.2"/>
<polygon fill="#555555" stroke="#555555" points="103.71,-35.58 114.23,-34.34 105.24,-28.75 103.71,-35.58"/>
</g>
</g>
</svg>
