<?xml version="1.0" encoding="UTF-8" standalone="no"?>
<!DOCTYPE svg PUBLIC "-//W3C//DTD SVG 1.1//EN"
 "http://www.w3.org/Graphics/SVG/1.1/DTD/svg11.dtd">
<!-- Generated by graphviz version 15.0.0 (20260523.1842)
 -->
<!-- Title: spacecraftChargingEquilibriumIO Pages: 1 -->
<svg width="480pt" height="206pt"
 viewBox="0.00 0.00 480.00 206.00" xmlns="http://www.w3.org/2000/svg" xmlns:xlink="http://www.w3.org/1999/xlink">
<g id="graph0" class="graph" transform="scale(1 1) rotate(0) translate(4 202)">
<title>spacecraftChargingEquilibriumIO</title>
<!-- module -->
<g id="node1" class="node">
<title>module</title>
<path fill="#5a9fcd" stroke="#555555" stroke-width="2" d="M303,-117C303,-117 164,-117 164,-117 158,-117 152,-111 152,-105 152,-105 152,-93 152,-93 152,-87 158,-81 164,-81 164,-81 303,-81 303,-81 309,-81 315,-87 315,-93 315,-93 315,-105 315,-105 315,-111 309,-117 303,-117"/>
<text xml:space="preserve" text-anchor="middle" x="233.5" y="-94.36" font-family="Helvetica,sans-Serif" font-size="11.20" fill="white">spacecraftChargingEquilibrium</text>
</g>
<!-- msg_3 -->
<g id="node5" class="node">
<title>msg_3</title>
<path fill="white" stroke="#555555" d="M434.75,-144C434.75,-144 388.5,-144 388.5,-144 382.5,-144 376.5,-138 376.5,-132 376.5,-132 376.5,-120 376.5,-120 376.5,-114 382.5,-108 388.5,-108 388.5,-108 434.75,-108 434.75,-108 440.75,-108 446.75,-114 446.75,-120 446.75,-120 446.75,-132 446.75,-132 446.75,-138 440.75,-144 434.75,-144"/>
<text xml:space="preserve" text-anchor="start" x="386.5" y="-129.5" font-family="Helvetica,sans-Serif" font-size="9.00">voltOutMsgs</text>
<text xml:space="preserve" text-anchor="start" x="386.5" y="-117.6" font-family="Helvetica,sans-Serif" font-style="italic" font-size="7.00">VoltMsgPayload</text>
</g>
<!-- module&#45;&gt;msg_3 -->
<g id="edge4" class="edge">
<title>module&#45;&gt;msg_3</title>
<path fill="none" stroke="#555555" d="M315.35,-111.39C332.35,-114 349.72,-116.66 364.89,-118.99"/>
<polygon fill="#555555" stroke="#555555" points="364.11,-122.41 374.52,-120.47 365.17,-115.49 364.11,-122.41"/>
</g>
<!-- msg_4 -->
<g id="node6" class="node">
<title>msg_4</title>
<path fill="white" stroke="#555555" d="M460.25,-90C460.25,-90 363,-90 363,-90 357,-90 351,-84 351,-78 351,-78 351,-66 351,-66 351,-60 357,-54 363,-54 363,-54 460.25,-54 460.25,-54 466.25,-54 472.25,-60 472.25,-66 472.25,-66 472.25,-78 472.25,-78 472.25,-84 466.25,-90 460.25,-90"/>
<text xml:space="preserve" text-anchor="start" x="361" y="-75.5" font-family="Helvetica,sans-Serif" font-size="9.00">currentsOutMsgs</text>
<text xml:space="preserve" text-anchor="start" x="361" y="-63.6" font-family="Helvetica,sans-Serif" font-style="italic" font-size="7.00">ScChargingCurrentsMsgPayload</text>
</g>
<!-- module&#45;&gt;msg_4 -->
<g id="edge5" class="edge">
<title>module&#45;&gt;msg_4</title>
<path fill="none" stroke="#555555" d="M315.35,-86.61C323.31,-85.39 331.34,-84.15 339.2,-82.95"/>
<polygon fill="#555555" stroke="#555555" points="339.7,-86.41 349.05,-81.44 338.63,-79.5 339.7,-86.41"/>
</g>
<!-- msg_0 -->
<g id="node2" class="node">
<title>msg_0</title>
<path fill="white" stroke="#555555" d="M93.5,-198C93.5,-198 22.5,-198 22.5,-198 16.5,-198 10.5,-192 10.5,-186 10.5,-186 10.5,-174 10.5,-174 10.5,-168 16.5,-162 22.5,-162 22.5,-162 93.5,-162 93.5,-162 99.5,-162 105.5,-168 105.5,-174 105.5,-174 105.5,-186 105.5,-186 105.5,-192 99.5,-198 93.5,-198"/>
<text xml:space="preserve" text-anchor="start" x="20.5" y="-183.5" font-family="Helvetica,sans-Serif" font-size="9.00">plasmaFluxInMsg</text>
<text xml:space="preserve" text-anchor="start" x="20.5" y="-171.6" font-family="Helvetica,sans-Serif" font-style="italic" font-size="7.00">PlasmaFluxMsgPayload</text>
</g>
<!-- msg_0&#45;&gt;module -->
<g id="edge1" class="edge">
<title>msg_0&#45;&gt;module</title>
<path fill="none" stroke="#555555" d="M98.37,-161.62C123.35,-149.96 155.89,-134.77 182.66,-122.27"/>
<polygon fill="#555555" stroke="#555555" points="184.03,-125.49 191.61,-118.09 181.07,-119.15 184.03,-125.49"/>
</g>
<!-- msg_1 -->
<g id="node3" class="node">
<title>msg_1</title>
<path fill="white" stroke="#555555" d="M90.12,-144C90.12,-144 25.87,-144 25.87,-144 19.87,-144 13.88,-138 13.88,-132 13.88,-132 13.88,-120 13.88,-120 13.88,-114 19.88,-108 25.88,-108 25.88,-108 90.12,-108 90.12,-108 96.12,-108 102.12,-114 102.12,-120 102.12,-120 102.12,-132 102.12,-132 102.12,-138 96.12,-144 90.12,-144"/>
<text xml:space="preserve" text-anchor="start" x="23.88" y="-129.5" font-family="Helvetica,sans-Serif" font-size="9.00">scStateInMsgs</text>
<text xml:space="preserve" text-anchor="start" x="23.88" y="-117.6" font-family="Helvetica,sans-Serif" font-style="italic" font-size="7.00">SCStatesMsgPayload</text>
</g>
<!-- msg_1&#45;&gt;module -->
<g id="edge2" class="edge">
<title>msg_1&#45;&gt;module</title>
<path fill="none" stroke="#555555" d="M102.33,-119.26C114.02,-117.44 127.12,-115.4 140.38,-113.34"/>
<polygon fill="#555555" stroke="#555555" points="140.7,-116.83 150.05,-111.83 139.63,-109.91 140.7,-116.83"/>
</g>
<!-- msg_2 -->
<g id="node4" class="node">
<title>msg_2</title>
<path fill="white" stroke="#555555" d="M96.88,-90C96.88,-90 19.12,-90 19.12,-90 13.13,-90 7.13,-84 7.13,-78 7.13,-78 7.13,-66 7.13,-66 7.13,-60 13.13,-54 19.13,-54 19.13,-54 96.88,-54 96.88,-54 102.88,-54 108.88,-60 108.88,-66 108.88,-66 108.88,-78 108.88,-78 108.88,-84 102.88,-90 96.88,-90"/>
<text xml:space="preserve" text-anchor="start" x="17.12" y="-75.5" font-family="Helvetica,sans-Serif" font-size="9.00">eBeamInMsgs</text>
<text xml:space="preserve" text-anchor="start" x="17.12" y="-63.6" font-family="Helvetica,sans-Serif" font-style="italic" font-size="7.00">ElectronBeamMsgPayload</text>
</g>
<!-- msg_2&#45;&gt;module -->
<g id="edge3" class="edge">
<title>msg_2&#45;&gt;module</title>
<path fill="none" stroke="#555555" d="M109.18,-79.81C119.06,-81.35 129.72,-83 140.48,-84.68"/>
<polygon fill="#555555" stroke="#555555" points="139.79,-88.11 150.21,-86.19 140.87,-81.2 139.79,-88.11"/>
</g>
<!-- msg_5 -->
<g id="node7" class="node">
<title>msg_5</title>
<path fill="white" stroke="#555555" d="M104,-36C104,-36 12,-36 12,-36 6,-36 0,-30 0,-24 0,-24 0,-12 0,-12 0,-6 6,0 12,0 12,0 104,0 104,0 110,0 116,-6 116,-12 116,-12 116,-24 116,-24 116,-30 110,-36 104,-36"/>
<text xml:space="preserve" text-anchor="start" x="10" y="-21.5" font-family="Helvetica,sans-Serif" font-size="9.00">scSunlitAreaInMsgs</text>
<text xml:space="preserve" text-anchor="start" x="10" y="-9.6" font-family="Helvetica,sans-Serif" font-style="italic" font-size="7.00">ScSunlitFacetAreaMsgPayload</text>
</g>
<!-- msg_5&#45;&gt;module -->
<g id="edge6" class="edge">
<title>msg_5&#45;&gt;module</title>
<path fill="none" stroke="#555555" d="M98.37,-36.38C123.35,-48.04 155.89,-63.23 182.66,-75.73"/>
<polygon fill="#555555" stroke="#555555" points="181.07,-78.85 191.61,-79.91 184.03,-72.51 181.07,-78.85"/>
</g>
</g>
</svg>
