<?xml version="1.0" encoding="UTF-8" standalone="no"?>
<!DOCTYPE svg PUBLIC "-//W3C//DTD SVG 1.1//EN"
 "http://www.w3.org/Graphics/SVG/1.1/DTD/svg11.dtd">
<!-- Generated by graphviz version 15.0.0 (20260523.1842)
 -->
<!-- Title: locationPointingIO Pages: 1 -->
<svg width="351pt" height="314pt"
 viewBox="0.00 0.00 351.00 314.00" xmlns="http://www.w3.org/2000/svg" xmlns:xlink="http://www.w3.org/1999/xlink">
<g id="graph0" class="graph" transform="scale(1 1) rotate(0) translate(4 310)">
<title>locationPointingIO</title>
<!-- module -->
<g id="node1" class="node">
<title>module</title>
<path fill="#8a7f73" stroke="#555555" stroke-width="2" d="M213,-171C213,-171 145.25,-171 145.25,-171 139.25,-171 133.25,-165 133.25,-159 133.25,-159 133.25,-147 133.25,-147 133.25,-141 139.25,-135 145.25,-135 145.25,-135 213,-135 213,-135 219,-135 225,-141 225,-147 225,-147 225,-159 225,-159 225,-165 219,-171 213,-171"/>
<text xml:space="preserve" text-anchor="middle" x="179.12" y="-148.36" font-family="Helvetica,sans-Serif" font-size="11.20" fill="white">locationPointing</text>
</g>
<!-- msg_6 -->
<g id="node8" class="node">
<title>msg_6</title>
<path fill="white" stroke="#555555" d="M330.5,-198C330.5,-198 273,-198 273,-198 267,-198 261,-192 261,-186 261,-186 261,-174 261,-174 261,-168 267,-162 273,-162 273,-162 330.5,-162 330.5,-162 336.5,-162 342.5,-168 342.5,-174 342.5,-174 342.5,-186 342.5,-186 342.5,-192 336.5,-198 330.5,-198"/>
<text xml:space="preserve" text-anchor="start" x="271" y="-183.5" font-family="Helvetica,sans-Serif" font-size="9.00">attGuidOutMsg</text>
<text xml:space="preserve" text-anchor="start" x="271" y="-171.6" font-family="Helvetica,sans-Serif" font-style="italic" font-size="7.00">AttGuidMsgPayload</text>
</g>
<!-- module&#45;&gt;msg_6 -->
<g id="edge7" class="edge">
<title>module&#45;&gt;msg_6</title>
<path fill="none" stroke="#555555" d="M225.38,-163.13C233.29,-164.9 241.57,-166.75 249.62,-168.55"/>
<polygon fill="#555555" stroke="#555555" points="248.79,-171.96 259.31,-170.72 250.32,-165.12 248.79,-171.96"/>
</g>
<!-- msg_7 -->
<g id="node9" class="node">
<title>msg_7</title>
<path fill="white" stroke="#555555" d="M329,-144C329,-144 274.5,-144 274.5,-144 268.5,-144 262.5,-138 262.5,-132 262.5,-132 262.5,-120 262.5,-120 262.5,-114 268.5,-108 274.5,-108 274.5,-108 329,-108 329,-108 335,-108 341,-114 341,-120 341,-120 341,-132 341,-132 341,-138 335,-144 329,-144"/>
<text xml:space="preserve" text-anchor="start" x="272.5" y="-129.5" font-family="Helvetica,sans-Serif" font-size="9.00">attRefOutMsg</text>
<text xml:space="preserve" text-anchor="start" x="272.5" y="-117.6" font-family="Helvetica,sans-Serif" font-style="italic" font-size="7.00">AttRefMsgPayload</text>
</g>
<!-- module&#45;&gt;msg_7 -->
<g id="edge8" class="edge">
<title>module&#45;&gt;msg_7</title>
<path fill="none" stroke="#555555" d="M225.38,-142.87C233.84,-140.98 242.73,-138.99 251.3,-137.07"/>
<polygon fill="#555555" stroke="#555555" points="251.88,-140.53 260.87,-134.93 250.35,-133.7 251.88,-140.53"/>
</g>
<!-- msg_0 -->
<g id="node2" class="node">
<title>msg_0</title>
<path fill="white" stroke="#555555" d="M76.62,-306C76.62,-306 20.62,-306 20.62,-306 14.62,-306 8.62,-300 8.62,-294 8.62,-294 8.62,-282 8.62,-282 8.62,-276 14.62,-270 20.62,-270 20.62,-270 76.62,-270 76.62,-270 82.62,-270 88.62,-276 88.62,-282 88.62,-282 88.62,-294 88.62,-294 88.62,-300 82.62,-306 76.62,-306"/>
<text xml:space="preserve" text-anchor="start" x="18.62" y="-291.5" font-family="Helvetica,sans-Serif" font-size="9.00">scAttInMsg</text>
<text xml:space="preserve" text-anchor="start" x="18.62" y="-279.6" font-family="Helvetica,sans-Serif" font-style="italic" font-size="7.00">NavAttMsgPayload</text>
</g>
<!-- msg_0&#45;&gt;module -->
<g id="edge1" class="edge">
<title>msg_0&#45;&gt;module</title>
<path fill="none" stroke="#555555" d="M85.58,-269.79C89.69,-267.08 93.68,-264.14 97.25,-261 123.75,-237.67 147.07,-204.38 161.78,-180.95"/>
<polygon fill="#555555" stroke="#555555" points="164.69,-182.9 166.93,-172.54 158.72,-179.24 164.69,-182.9"/>
</g>
<!-- msg_1 -->
<g id="node3" class="node">
<title>msg_1</title>
<path fill="white" stroke="#555555" d="M81.12,-252C81.12,-252 16.12,-252 16.12,-252 10.12,-252 4.12,-246 4.12,-240 4.12,-240 4.12,-228 4.12,-228 4.12,-222 10.12,-216 16.12,-216 16.12,-216 81.12,-216 81.12,-216 87.12,-216 93.12,-222 93.12,-228 93.12,-228 93.12,-240 93.12,-240 93.12,-246 87.12,-252 81.12,-252"/>
<text xml:space="preserve" text-anchor="start" x="14.12" y="-237.5" font-family="Helvetica,sans-Serif" font-size="9.00">scTransInMsg</text>
<text xml:space="preserve" text-anchor="start" x="14.12" y="-225.6" font-family="Helvetica,sans-Serif" font-style="italic" font-size="7.00">NavTransMsgPayload</text>
</g>
<!-- msg_1&#45;&gt;module -->
<g id="edge2" class="edge">
<title>msg_1&#45;&gt;module</title>
<path fill="none" stroke="#555555" d="M82.86,-215.57C87.72,-212.76 92.64,-209.84 97.25,-207 112.2,-197.79 128.35,-187.15 142.26,-177.76"/>
<polygon fill="#555555" stroke="#555555" points="143.93,-180.86 150.23,-172.35 139.99,-175.07 143.93,-180.86"/>
</g>
<!-- msg_2 -->
<g id="node4" class="node">
<title>msg_2</title>
<path fill="white" stroke="#555555" d="M85.25,-198C85.25,-198 12,-198 12,-198 6,-198 0,-192 0,-186 0,-186 0,-174 0,-174 0,-168 6,-162 12,-162 12,-162 85.25,-162 85.25,-162 91.25,-162 97.25,-168 97.25,-174 97.25,-174 97.25,-186 97.25,-186 97.25,-192 91.25,-198 85.25,-198"/>
<text xml:space="preserve" text-anchor="start" x="10" y="-183.5" font-family="Helvetica,sans-Serif" font-size="9.00">locationInMsg</text>
<text xml:space="preserve" text-anchor="start" x="10" y="-171.6" font-family="Helvetica,sans-Serif" font-style="italic" font-size="7.00">GroundStateMsgPayload</text>
</g>
<!-- msg_2&#45;&gt;module -->
<g id="edge3" class="edge">
<title>msg_2&#45;&gt;module</title>
<path fill="none" stroke="#555555" d="M97.47,-169.95C105.33,-168.3 113.54,-166.57 121.58,-164.88"/>
<polygon fill="#555555" stroke="#555555" points="122.24,-168.32 131.31,-162.84 120.81,-161.47 122.24,-168.32"/>
</g>
<!-- msg_3 -->
<g id="node5" class="node">
<title>msg_3</title>
<path fill="white" stroke="#555555" d="M83.75,-144C83.75,-144 13.5,-144 13.5,-144 7.5,-144 1.5,-138 1.5,-132 1.5,-132 1.5,-120 1.5,-120 1.5,-114 7.5,-108 13.5,-108 13.5,-108 83.75,-108 83.75,-108 89.75,-108 95.75,-114 95.75,-120 95.75,-120 95.75,-132 95.75,-132 95.75,-138 89.75,-144 83.75,-144"/>
<text xml:space="preserve" text-anchor="start" x="11.5" y="-129.5" font-family="Helvetica,sans-Serif" font-size="9.00">locationstripInMsg</text>
<text xml:space="preserve" text-anchor="start" x="11.5" y="-117.6" font-family="Helvetica,sans-Serif" font-style="italic" font-size="7.00">StripStateMsgPayload</text>
</g>
<!-- msg_3&#45;&gt;module -->
<g id="edge4" class="edge">
<title>msg_3&#45;&gt;module</title>
<path fill="none" stroke="#555555" d="M96.02,-135.75C104.41,-137.51 113.25,-139.37 121.9,-141.19"/>
<polygon fill="#555555" stroke="#555555" points="121.1,-144.6 131.61,-143.23 122.54,-137.74 121.1,-144.6"/>
</g>
<!-- msg_4 -->
<g id="node6" class="node">
<title>msg_4</title>
<path fill="white" stroke="#555555" d="M82.25,-90C82.25,-90 15,-90 15,-90 9,-90 3,-84 3,-78 3,-78 3,-66 3,-66 3,-60 9,-54 15,-54 15,-54 82.25,-54 82.25,-54 88.25,-54 94.25,-60 94.25,-66 94.25,-66 94.25,-78 94.25,-78 94.25,-84 88.25,-90 82.25,-90"/>
<text xml:space="preserve" text-anchor="start" x="13" y="-75.5" font-family="Helvetica,sans-Serif" font-size="9.00">celBodyInMsg</text>
<text xml:space="preserve" text-anchor="start" x="13" y="-63.6" font-family="Helvetica,sans-Serif" font-style="italic" font-size="7.00">EphemerisMsgPayload</text>
</g>
<!-- msg_4&#45;&gt;module -->
<g id="edge5" class="edge">
<title>msg_4&#45;&gt;module</title>
<path fill="none" stroke="#555555" d="M82.86,-90.43C87.72,-93.24 92.64,-96.16 97.25,-99 112.2,-108.21 128.35,-118.85 142.26,-128.24"/>
<polygon fill="#555555" stroke="#555555" points="139.99,-130.93 150.23,-133.65 143.93,-125.14 139.99,-130.93"/>
</g>
<!-- msg_5 -->
<g id="node7" class="node">
<title>msg_5</title>
<path fill="white" stroke="#555555" d="M81.12,-36C81.12,-36 16.12,-36 16.12,-36 10.12,-36 4.12,-30 4.12,-24 4.12,-24 4.12,-12 4.12,-12 4.12,-6 10.12,0 16.12,0 16.12,0 81.12,0 81.12,0 87.12,0 93.12,-6 93.12,-12 93.12,-12 93.12,-24 93.12,-24 93.12,-30 87.12,-36 81.12,-36"/>
<text xml:space="preserve" text-anchor="start" x="14.12" y="-21.5" font-family="Helvetica,sans-Serif" font-size="9.00">scTargetInMsg</text>
<text xml:space="preserve" text-anchor="start" x="14.12" y="-9.6" font-family="Helvetica,sans-Serif" font-style="italic" font-size="7.00">NavTransMsgPayload</text>
</g>
<!-- msg_5&#45;&gt;module -->
<g id="edge6" class="edge">
<title>msg_5&#45;&gt;module</title>
<path fill="none" stroke="#555555" d="M85.58,-36.21C89.69,-38.92 93.68,-41.86 97.25,-45 123.75,-68.33 147.07,-101.62 161.78,-125.05"/>
<polygon fill="#555555" stroke="#555555" points="158.72,-126.76 166.93,-133.46 164.69,-123.1 158.72,-126.76"/>
</g>
</g>
</svg>
