<?xml version="1.0" encoding="UTF-8" standalone="no"?>
<!DOCTYPE svg PUBLIC "-//W3C//DTD SVG 1.1//EN"
 "http://www.w3.org/Graphics/SVG/1.1/DTD/svg11.dtd">
<!-- Generated by graphviz version 15.0.0 (20260523.1842)
 -->
<!-- Title: thrFiringRemainderIO Pages: 1 -->
<svg width="441pt" height="98pt"
 viewBox="0.00 0.00 441.00 98.00" xmlns="http://www.w3.org/2000/svg" xmlns:xlink="http://www.w3.org/1999/xlink">
<g id="graph0" class="graph" transform="scale(1 1) rotate(0) translate(4 94)">
<title>thrFiringRemainderIO</title>
<!-- module -->
<g id="node1" class="node">
<title>module</title>
<path fill="#8a7f73" stroke="#555555" stroke-width="2" d="M255.75,-63C255.75,-63 170.75,-63 170.75,-63 164.75,-63 158.75,-57 158.75,-51 158.75,-51 158.75,-39 158.75,-39 158.75,-33 164.75,-27 170.75,-27 170.75,-27 255.75,-27 255.75,-27 261.75,-27 267.75,-33 267.75,-39 267.75,-39 267.75,-51 267.75,-51 267.75,-57 261.75,-63 255.75,-63"/>
<text xml:space="preserve" text-anchor="middle" x="213.25" y="-40.36" font-family="Helvetica,sans-Serif" font-size="11.20" fill="white">thrFiringRemainder</text>
</g>
<!-- msg_1 -->
<g id="node3" class="node">
<title>msg_1</title>
<path fill="white" stroke="#555555" d="M421.25,-63C421.25,-63 315.75,-63 315.75,-63 309.75,-63 303.75,-57 303.75,-51 303.75,-51 303.75,-39 303.75,-39 303.75,-33 309.75,-27 315.75,-27 315.75,-27 421.25,-27 421.25,-27 427.25,-27 433.25,-33 433.25,-39 433.25,-39 433.25,-51 433.25,-51 433.25,-57 427.25,-63 421.25,-63"/>
<text xml:space="preserve" text-anchor="start" x="313.75" y="-48.5" font-family="Helvetica,sans-Serif" font-size="9.00">onTimeOutMsg</text>
<text xml:space="preserve" text-anchor="start" x="313.75" y="-36.6" font-family="Helvetica,sans-Serif" font-style="italic" font-size="7.00">THRArrayOnTimeCmdMsgPayload</text>
</g>
<!-- module&#45;&gt;msg_1 -->
<g id="edge2" class="edge">
<title>module&#45;&gt;msg_1</title>
<path fill="none" stroke="#555555" d="M267.85,-45C275.65,-45 283.81,-45 291.94,-45"/>
<polygon fill="#555555" stroke="#555555" points="291.89,-48.5 301.89,-45 291.89,-41.5 291.89,-48.5"/>
</g>
<!-- msg_0 -->
<g id="node2" class="node">
<title>msg_0</title>
<path fill="white" stroke="#555555" d="M110.75,-90C110.75,-90 12,-90 12,-90 6,-90 0,-84 0,-78 0,-78 0,-66 0,-66 0,-60 6,-54 12,-54 12,-54 110.75,-54 110.75,-54 116.75,-54 122.75,-60 122.75,-66 122.75,-66 122.75,-78 122.75,-78 122.75,-84 116.75,-90 110.75,-90"/>
<text xml:space="preserve" text-anchor="start" x="10" y="-75.5" font-family="Helvetica,sans-Serif" font-size="9.00">thrForceInMsg</text>
<text xml:space="preserve" text-anchor="start" x="10" y="-63.6" font-family="Helvetica,sans-Serif" font-style="italic" font-size="7.00">THRArrayCmdForceMsgPayload</text>
</g>
<!-- msg_0&#45;&gt;module -->
<g id="edge1" class="edge">
<title>msg_0&#45;&gt;module</title>
<path fill="none" stroke="#555555" d="M122.9,-61.1C130.85,-59.66 139.03,-58.19 147.06,-56.74"/>
<polygon fill="#555555" stroke="#555555" points="147.55,-60.21 156.77,-54.99 146.31,-53.32 147.55,-60.21"/>
</g>
<!-- msg_2 -->
<g id="node4" class="node">
<title>msg_2</title>
<path fill="white" stroke="#555555" d="M104.38,-36C104.38,-36 18.38,-36 18.38,-36 12.38,-36 6.38,-30 6.38,-24 6.38,-24 6.38,-12 6.38,-12 6.38,-6 12.38,0 18.38,0 18.38,0 104.38,0 104.38,0 110.38,0 116.38,-6 116.38,-12 116.38,-12 116.38,-24 116.38,-24 116.38,-30 110.38,-36 104.38,-36"/>
<text xml:space="preserve" text-anchor="start" x="16.38" y="-21.5" font-family="Helvetica,sans-Serif" font-size="9.00">thrConfInMsg</text>
<text xml:space="preserve" text-anchor="start" x="16.38" y="-9.6" font-family="Helvetica,sans-Serif" font-style="italic" font-size="7.00">THRArrayConfigMsgPayload</text>
</g>
<!-- msg_2&#45;&gt;module -->
<g id="edge3" class="edge">
<title>msg_2&#45;&gt;module</title>
<path fill="none" stroke="#555555" d="M116.48,-27.75C126.52,-29.56 137.1,-31.46 147.42,-33.32"/>
<polygon fill="#555555" stroke="#555555" points="146.52,-36.72 156.98,-35.04 147.76,-29.83 146.52,-36.72"/>
</g>
</g>
</svg>
