<?xml version="1.0" encoding="UTF-8" standalone="no"?>
<!DOCTYPE svg PUBLIC "-//W3C//DTD SVG 1.1//EN"
 "http://www.w3.org/Graphics/SVG/1.1/DTD/svg11.dtd">
<!-- Generated by graphviz version 15.0.0 (20260523.1842)
 -->
<!-- Title: spacecraftLocationIO Pages: 1 -->
<svg width="382pt" height="260pt"
 viewBox="0.00 0.00 382.00 260.00" xmlns="http://www.w3.org/2000/svg" xmlns:xlink="http://www.w3.org/1999/xlink">
<g id="graph0" class="graph" transform="scale(1 1) rotate(0) translate(4 256)">
<title>spacecraftLocationIO</title>
<!-- module -->
<g id="node1" class="node">
<title>module</title>
<path fill="#5a9fcd" stroke="#555555" stroke-width="2" d="M241.5,-144C241.5,-144 159.5,-144 159.5,-144 153.5,-144 147.5,-138 147.5,-132 147.5,-132 147.5,-120 147.5,-120 147.5,-114 153.5,-108 159.5,-108 159.5,-108 241.5,-108 241.5,-108 247.5,-108 253.5,-114 253.5,-120 253.5,-120 253.5,-132 253.5,-132 253.5,-138 247.5,-144 241.5,-144"/>
<text xml:space="preserve" text-anchor="middle" x="200.5" y="-121.36" font-family="Helvetica,sans-Serif" font-size="11.20" fill="white">spacecraftLocation</text>
</g>
<!-- msg_5 -->
<g id="node7" class="node">
<title>msg_5</title>
<path fill="white" stroke="#555555" d="M362,-144C362,-144 301.5,-144 301.5,-144 295.5,-144 289.5,-138 289.5,-132 289.5,-132 289.5,-120 289.5,-120 289.5,-114 295.5,-108 301.5,-108 301.5,-108 362,-108 362,-108 368,-108 374,-114 374,-120 374,-120 374,-132 374,-132 374,-138 368,-144 362,-144"/>
<text xml:space="preserve" text-anchor="start" x="299.5" y="-129.5" font-family="Helvetica,sans-Serif" font-size="9.00">accessOutMsgs</text>
<text xml:space="preserve" text-anchor="start" x="299.5" y="-117.6" font-family="Helvetica,sans-Serif" font-style="italic" font-size="7.00">AccessMsgPayload</text>
</g>
<!-- module&#45;&gt;msg_5 -->
<g id="edge6" class="edge">
<title>module&#45;&gt;msg_5</title>
<path fill="none" stroke="#555555" d="M253.7,-126C261.61,-126 269.77,-126 277.7,-126"/>
<polygon fill="#555555" stroke="#555555" points="277.57,-129.5 287.57,-126 277.57,-122.5 277.57,-129.5"/>
</g>
<!-- msg_0 -->
<g id="node2" class="node">
<title>msg_0</title>
<path fill="white" stroke="#555555" d="M99.5,-252C99.5,-252 12,-252 12,-252 6,-252 0,-246 0,-240 0,-240 0,-228 0,-228 0,-222 6,-216 12,-216 12,-216 99.5,-216 99.5,-216 105.5,-216 111.5,-222 111.5,-228 111.5,-228 111.5,-240 111.5,-240 111.5,-246 105.5,-252 99.5,-252"/>
<text xml:space="preserve" text-anchor="start" x="10" y="-237.5" font-family="Helvetica,sans-Serif" font-size="9.00">planetInMsg</text>
<text xml:space="preserve" text-anchor="start" x="10" y="-225.6" font-family="Helvetica,sans-Serif" font-style="italic" font-size="7.00">SpicePlanetStateMsgPayload</text>
</g>
<!-- msg_0&#45;&gt;module -->
<g id="edge1" class="edge">
<title>msg_0&#45;&gt;module</title>
<path fill="none" stroke="#555555" d="M97.56,-215.51C102.38,-212.85 107.13,-210 111.5,-207 134.75,-191.06 158.1,-169.24 174.89,-152.26"/>
<polygon fill="#555555" stroke="#555555" points="177.06,-155.06 181.53,-145.45 172.04,-150.17 177.06,-155.06"/>
</g>
<!-- msg_1 -->
<g id="node3" class="node">
<title>msg_1</title>
<path fill="white" stroke="#555555" d="M97.25,-198C97.25,-198 14.25,-198 14.25,-198 8.25,-198 2.25,-192 2.25,-186 2.25,-186 2.25,-174 2.25,-174 2.25,-168 8.25,-162 14.25,-162 14.25,-162 97.25,-162 97.25,-162 103.25,-162 109.25,-168 109.25,-174 109.25,-174 109.25,-186 109.25,-186 109.25,-192 103.25,-198 97.25,-198"/>
<text xml:space="preserve" text-anchor="start" x="12.25" y="-183.5" font-family="Helvetica,sans-Serif" font-size="9.00">primaryScStateInMsg</text>
<text xml:space="preserve" text-anchor="start" x="12.25" y="-171.6" font-family="Helvetica,sans-Serif" font-style="italic" font-size="7.00">SCStatesMsgPayload</text>
</g>
<!-- msg_1&#45;&gt;module -->
<g id="edge2" class="edge">
<title>msg_1&#45;&gt;module</title>
<path fill="none" stroke="#555555" d="M105.48,-161.57C116.73,-157.31 128.82,-152.74 140.47,-148.33"/>
<polygon fill="#555555" stroke="#555555" points="141.46,-151.7 149.58,-144.89 138.99,-145.15 141.46,-151.7"/>
</g>
<!-- msg_2 -->
<g id="node4" class="node">
<title>msg_2</title>
<path fill="white" stroke="#555555" d="M87.88,-144C87.88,-144 23.62,-144 23.62,-144 17.62,-144 11.62,-138 11.62,-132 11.62,-132 11.62,-120 11.62,-120 11.62,-114 17.62,-108 23.62,-108 23.62,-108 87.88,-108 87.88,-108 93.88,-108 99.88,-114 99.88,-120 99.88,-120 99.88,-132 99.88,-132 99.88,-138 93.88,-144 87.88,-144"/>
<text xml:space="preserve" text-anchor="start" x="21.62" y="-129.5" font-family="Helvetica,sans-Serif" font-size="9.00">scStateInMsgs</text>
<text xml:space="preserve" text-anchor="start" x="21.62" y="-117.6" font-family="Helvetica,sans-Serif" font-style="italic" font-size="7.00">SCStatesMsgPayload</text>
</g>
<!-- msg_2&#45;&gt;module -->
<g id="edge3" class="edge">
<title>msg_2&#45;&gt;module</title>
<path fill="none" stroke="#555555" d="M100.36,-126C111.54,-126 123.8,-126 135.77,-126"/>
<polygon fill="#555555" stroke="#555555" points="135.6,-129.5 145.6,-126 135.6,-122.5 135.6,-129.5"/>
</g>
<!-- msg_3 -->
<g id="node5" class="node">
<title>msg_3</title>
<path fill="white" stroke="#555555" d="M99.5,-90C99.5,-90 12,-90 12,-90 6,-90 0,-84 0,-78 0,-78 0,-66 0,-66 0,-60 6,-54 12,-54 12,-54 99.5,-54 99.5,-54 105.5,-54 111.5,-60 111.5,-66 111.5,-66 111.5,-78 111.5,-78 111.5,-84 105.5,-90 99.5,-90"/>
<text xml:space="preserve" text-anchor="start" x="10" y="-75.5" font-family="Helvetica,sans-Serif" font-size="9.00">sunInMsg</text>
<text xml:space="preserve" text-anchor="start" x="10" y="-63.6" font-family="Helvetica,sans-Serif" font-style="italic" font-size="7.00">SpicePlanetStateMsgPayload</text>
</g>
<!-- msg_3&#45;&gt;module -->
<g id="edge4" class="edge">
<title>msg_3&#45;&gt;module</title>
<path fill="none" stroke="#555555" d="M105.48,-90.43C116.73,-94.69 128.82,-99.26 140.47,-103.67"/>
<polygon fill="#555555" stroke="#555555" points="138.99,-106.85 149.58,-107.11 141.46,-100.3 138.99,-106.85"/>
</g>
<!-- msg_4 -->
<g id="node6" class="node">
<title>msg_4</title>
<path fill="white" stroke="#555555" d="M84.12,-36C84.12,-36 27.37,-36 27.37,-36 21.37,-36 15.38,-30 15.38,-24 15.38,-24 15.38,-12 15.38,-12 15.38,-6 21.38,0 27.38,0 27.38,0 84.12,0 84.12,0 90.12,0 96.12,-6 96.12,-12 96.12,-12 96.12,-24 96.12,-24 96.12,-30 90.12,-36 84.12,-36"/>
<text xml:space="preserve" text-anchor="start" x="25.38" y="-21.5" font-family="Helvetica,sans-Serif" font-size="9.00">eclipseInMsg</text>
<text xml:space="preserve" text-anchor="start" x="25.38" y="-9.6" font-family="Helvetica,sans-Serif" font-style="italic" font-size="7.00">EclipseMsgPayload</text>
</g>
<!-- msg_4&#45;&gt;module -->
<g id="edge5" class="edge">
<title>msg_4&#45;&gt;module</title>
<path fill="none" stroke="#555555" d="M96.4,-35.86C101.62,-38.69 106.78,-41.76 111.5,-45 134.75,-60.94 158.1,-82.76 174.89,-99.74"/>
<polygon fill="#555555" stroke="#555555" points="172.04,-101.83 181.53,-106.55 177.06,-96.94 172.04,-101.83"/>
</g>
</g>
</svg>
