<?xml version="1.0" encoding="UTF-8" standalone="no"?>
<!DOCTYPE svg PUBLIC "-//W3C//DTD SVG 1.1//EN"
 "http://www.w3.org/Graphics/SVG/1.1/DTD/svg11.dtd">
<!-- Generated by graphviz version 15.0.0 (20260523.1842)
 -->
<!-- Title: hingedJointArrayMotorIO Pages: 1 -->
<svg width="429pt" height="260pt"
 viewBox="0.00 0.00 429.00 260.00" xmlns="http://www.w3.org/2000/svg" xmlns:xlink="http://www.w3.org/1999/xlink">
<g id="graph0" class="graph" transform="scale(1 1) rotate(0) translate(4 256)">
<title>hingedJointArrayMotorIO</title>
<!-- module -->
<g id="node1" class="node">
<title>module</title>
<path fill="#5a9fcd" stroke="#555555" stroke-width="2" d="M265.5,-144C265.5,-144 164.75,-144 164.75,-144 158.75,-144 152.75,-138 152.75,-132 152.75,-132 152.75,-120 152.75,-120 152.75,-114 158.75,-108 164.75,-108 164.75,-108 265.5,-108 265.5,-108 271.5,-108 277.5,-114 277.5,-120 277.5,-120 277.5,-132 277.5,-132 277.5,-138 271.5,-144 265.5,-144"/>
<text xml:space="preserve" text-anchor="middle" x="215.12" y="-121.36" font-family="Helvetica,sans-Serif" font-size="11.20" fill="white">hingedJointArrayMotor</text>
</g>
<!-- msg_5 -->
<g id="node7" class="node">
<title>msg_5</title>
<path fill="white" stroke="#555555" d="M409.25,-144C409.25,-144 325.5,-144 325.5,-144 319.5,-144 313.5,-138 313.5,-132 313.5,-132 313.5,-120 313.5,-120 313.5,-114 319.5,-108 325.5,-108 325.5,-108 409.25,-108 409.25,-108 415.25,-108 421.25,-114 421.25,-120 421.25,-120 421.25,-132 421.25,-132 421.25,-138 415.25,-144 409.25,-144"/>
<text xml:space="preserve" text-anchor="start" x="323.5" y="-129.5" font-family="Helvetica,sans-Serif" font-size="9.00">motorTorquesOutMsg</text>
<text xml:space="preserve" text-anchor="start" x="323.5" y="-117.6" font-family="Helvetica,sans-Serif" font-style="italic" font-size="7.00">SingleActuatorMsgPayload</text>
</g>
<!-- module&#45;&gt;msg_5 -->
<g id="edge6" class="edge">
<title>module&#45;&gt;msg_5</title>
<path fill="none" stroke="#555555" d="M277.67,-126C285.71,-126 293.97,-126 302.06,-126"/>
<polygon fill="#555555" stroke="#555555" points="301.82,-129.5 311.82,-126 301.82,-122.5 301.82,-129.5"/>
</g>
<!-- msg_0 -->
<g id="node2" class="node">
<title>msg_0</title>
<path fill="white" stroke="#555555" d="M104.75,-252C104.75,-252 12,-252 12,-252 6,-252 0,-246 0,-240 0,-240 0,-228 0,-228 0,-222 6,-216 12,-216 12,-216 104.75,-216 104.75,-216 110.75,-216 116.75,-222 116.75,-228 116.75,-228 116.75,-240 116.75,-240 116.75,-246 110.75,-252 104.75,-252"/>
<text xml:space="preserve" text-anchor="start" x="10" y="-237.5" font-family="Helvetica,sans-Serif" font-size="9.00">massMatrixInMsg</text>
<text xml:space="preserve" text-anchor="start" x="10" y="-225.6" font-family="Helvetica,sans-Serif" font-style="italic" font-size="7.00">MJSysMassMatrixMsgPayload</text>
</g>
<!-- msg_0&#45;&gt;module -->
<g id="edge1" class="edge">
<title>msg_0&#45;&gt;module</title>
<path fill="none" stroke="#555555" d="M101.71,-215.59C106.89,-212.9 112.01,-210.01 116.75,-207 142.05,-190.89 168.04,-168.96 186.79,-151.97"/>
<polygon fill="#555555" stroke="#555555" points="189.01,-154.69 194.01,-145.34 184.28,-149.53 189.01,-154.69"/>
</g>
<!-- msg_1 -->
<g id="node3" class="node">
<title>msg_1</title>
<path fill="white" stroke="#555555" d="M103.62,-198C103.62,-198 13.13,-198 13.13,-198 7.13,-198 1.13,-192 1.13,-186 1.13,-186 1.13,-174 1.13,-174 1.13,-168 7.13,-162 13.13,-162 13.13,-162 103.62,-162 103.62,-162 109.62,-162 115.62,-168 115.62,-174 115.62,-174 115.62,-186 115.62,-186 115.62,-192 109.62,-198 103.62,-198"/>
<text xml:space="preserve" text-anchor="start" x="11.12" y="-183.5" font-family="Helvetica,sans-Serif" font-size="9.00">reactionForcesInMsg</text>
<text xml:space="preserve" text-anchor="start" x="11.12" y="-171.6" font-family="Helvetica,sans-Serif" font-style="italic" font-size="7.00">MJJointReactionsMsgPayload</text>
</g>
<!-- msg_1&#45;&gt;module -->
<g id="edge2" class="edge">
<title>msg_1&#45;&gt;module</title>
<path fill="none" stroke="#555555" d="M112.2,-161.57C124.58,-157.25 137.9,-152.6 150.69,-148.14"/>
<polygon fill="#555555" stroke="#555555" points="151.56,-151.54 159.85,-144.94 149.25,-144.93 151.56,-151.54"/>
</g>
<!-- msg_2 -->
<g id="node4" class="node">
<title>msg_2</title>
<path fill="white" stroke="#555555" d="M99.5,-144C99.5,-144 17.25,-144 17.25,-144 11.25,-144 5.25,-138 5.25,-132 5.25,-132 5.25,-120 5.25,-120 5.25,-114 11.25,-108 17.25,-108 17.25,-108 99.5,-108 99.5,-108 105.5,-108 111.5,-114 111.5,-120 111.5,-120 111.5,-132 111.5,-132 111.5,-138 105.5,-144 99.5,-144"/>
<text xml:space="preserve" text-anchor="start" x="15.25" y="-129.5" font-family="Helvetica,sans-Serif" font-size="9.00">desJointStatesInMsg</text>
<text xml:space="preserve" text-anchor="start" x="15.25" y="-117.6" font-family="Helvetica,sans-Serif" font-style="italic" font-size="7.00">JointArrayStateMsgPayload</text>
</g>
<!-- msg_2&#45;&gt;module -->
<g id="edge3" class="edge">
<title>msg_2&#45;&gt;module</title>
<path fill="none" stroke="#555555" d="M111.77,-126C121.16,-126 131.1,-126 140.95,-126"/>
<polygon fill="#555555" stroke="#555555" points="140.92,-129.5 150.92,-126 140.92,-122.5 140.92,-129.5"/>
</g>
<!-- msg_3 -->
<g id="node5" class="node">
<title>msg_3</title>
<path fill="white" stroke="#555555" d="M101,-90C101,-90 15.75,-90 15.75,-90 9.75,-90 3.75,-84 3.75,-78 3.75,-78 3.75,-66 3.75,-66 3.75,-60 9.75,-54 15.75,-54 15.75,-54 101,-54 101,-54 107,-54 113,-60 113,-66 113,-66 113,-78 113,-78 113,-84 107,-90 101,-90"/>
<text xml:space="preserve" text-anchor="start" x="13.75" y="-75.5" font-family="Helvetica,sans-Serif" font-size="9.00">jointStatesInMsg</text>
<text xml:space="preserve" text-anchor="start" x="13.75" y="-63.6" font-family="Helvetica,sans-Serif" font-style="italic" font-size="7.00">ScalarJointStateMsgPayload</text>
</g>
<!-- msg_3&#45;&gt;module -->
<g id="edge4" class="edge">
<title>msg_3&#45;&gt;module</title>
<path fill="none" stroke="#555555" d="M112.2,-90.43C124.58,-94.75 137.9,-99.4 150.69,-103.86"/>
<polygon fill="#555555" stroke="#555555" points="149.25,-107.07 159.85,-107.06 151.56,-100.46 149.25,-107.07"/>
</g>
<!-- msg_4 -->
<g id="node6" class="node">
<title>msg_4</title>
<path fill="white" stroke="#555555" d="M101,-36C101,-36 15.75,-36 15.75,-36 9.75,-36 3.75,-30 3.75,-24 3.75,-24 3.75,-12 3.75,-12 3.75,-6 9.75,0 15.75,0 15.75,0 101,0 101,0 107,0 113,-6 113,-12 113,-12 113,-24 113,-24 113,-30 107,-36 101,-36"/>
<text xml:space="preserve" text-anchor="start" x="13.75" y="-21.5" font-family="Helvetica,sans-Serif" font-size="9.00">jointStateDotsInMsg</text>
<text xml:space="preserve" text-anchor="start" x="13.75" y="-9.6" font-family="Helvetica,sans-Serif" font-style="italic" font-size="7.00">ScalarJointStateMsgPayload</text>
</g>
<!-- msg_4&#45;&gt;module -->
<g id="edge5" class="edge">
<title>msg_4&#45;&gt;module</title>
<path fill="none" stroke="#555555" d="M101.71,-36.41C106.89,-39.1 112.01,-41.99 116.75,-45 142.05,-61.11 168.04,-83.04 186.79,-100.03"/>
<polygon fill="#555555" stroke="#555555" points="184.28,-102.47 194.01,-106.66 189.01,-97.31 184.28,-102.47"/>
</g>
</g>
</svg>
