<?xml version="1.0" encoding="UTF-8" standalone="no"?>
<!DOCTYPE svg PUBLIC "-//W3C//DTD SVG 1.1//EN"
 "http://www.w3.org/Graphics/SVG/1.1/DTD/svg11.dtd">
<!-- Generated by graphviz version 15.0.0 (20260523.1842)
 -->
<!-- Title: orbitalElementControlIO Pages: 1 -->
<svg width="423pt" height="98pt"
 viewBox="0.00 0.00 423.00 98.00" xmlns="http://www.w3.org/2000/svg" xmlns:xlink="http://www.w3.org/1999/xlink">
<g id="graph0" class="graph" transform="scale(1 1) rotate(0) translate(4 94)">
<title>orbitalElementControlIO</title>
<!-- module -->
<g id="node1" class="node">
<title>module</title>
<path fill="#7faf8c" stroke="#555555" stroke-width="2" d="M255,-63C255,-63 158.75,-63 158.75,-63 152.75,-63 146.75,-57 146.75,-51 146.75,-51 146.75,-39 146.75,-39 146.75,-33 152.75,-27 158.75,-27 158.75,-27 255,-27 255,-27 261,-27 267,-33 267,-39 267,-39 267,-51 267,-51 267,-57 261,-63 255,-63"/>
<text xml:space="preserve" text-anchor="middle" x="206.88" y="-40.36" font-family="Helvetica,sans-Serif" font-size="11.20" fill="white">orbitalElementControl</text>
</g>
<!-- msg_2 -->
<g id="node4" class="node">
<title>msg_2</title>
<path fill="white" stroke="#555555" d="M403.25,-63C403.25,-63 315,-63 315,-63 309,-63 303,-57 303,-51 303,-51 303,-39 303,-39 303,-33 309,-27 315,-27 315,-27 403.25,-27 403.25,-27 409.25,-27 415.25,-33 415.25,-39 415.25,-39 415.25,-51 415.25,-51 415.25,-57 409.25,-63 403.25,-63"/>
<text xml:space="preserve" text-anchor="start" x="313" y="-48.5" font-family="Helvetica,sans-Serif" font-size="9.00">forceOutMsg</text>
<text xml:space="preserve" text-anchor="start" x="313" y="-36.6" font-family="Helvetica,sans-Serif" font-style="italic" font-size="7.00">CmdForceInertialMsgPayload</text>
</g>
<!-- module&#45;&gt;msg_2 -->
<g id="edge3" class="edge">
<title>module&#45;&gt;msg_2</title>
<path fill="none" stroke="#555555" d="M267.26,-45C275.08,-45 283.15,-45 291.09,-45"/>
<polygon fill="#555555" stroke="#555555" points="291.08,-48.5 301.08,-45 291.08,-41.5 291.08,-48.5"/>
</g>
<!-- msg_0 -->
<g id="node2" class="node">
<title>msg_0</title>
<path fill="white" stroke="#555555" d="M98.75,-90C98.75,-90 12,-90 12,-90 6,-90 0,-84 0,-78 0,-78 0,-66 0,-66 0,-60 6,-54 12,-54 12,-54 98.75,-54 98.75,-54 104.75,-54 110.75,-60 110.75,-66 110.75,-66 110.75,-78 110.75,-78 110.75,-84 104.75,-90 98.75,-90"/>
<text xml:space="preserve" text-anchor="start" x="10" y="-75.5" font-family="Helvetica,sans-Serif" font-size="9.00">targetOEInMsg</text>
<text xml:space="preserve" text-anchor="start" x="10" y="-63.6" font-family="Helvetica,sans-Serif" font-style="italic" font-size="7.00">ClassicElementsMsgPayload</text>
</g>
<!-- msg_0&#45;&gt;module -->
<g id="edge1" class="edge">
<title>msg_0&#45;&gt;module</title>
<path fill="none" stroke="#555555" d="M111.19,-62.1C118.95,-60.7 127.02,-59.24 135.03,-57.79"/>
<polygon fill="#555555" stroke="#555555" points="135.57,-61.25 144.79,-56.03 134.32,-54.37 135.57,-61.25"/>
</g>
<!-- msg_1 -->
<g id="node3" class="node">
<title>msg_1</title>
<path fill="white" stroke="#555555" d="M98.75,-36C98.75,-36 12,-36 12,-36 6,-36 0,-30 0,-24 0,-24 0,-12 0,-12 0,-6 6,0 12,0 12,0 98.75,0 98.75,0 104.75,0 110.75,-6 110.75,-12 110.75,-12 110.75,-24 110.75,-24 110.75,-30 104.75,-36 98.75,-36"/>
<text xml:space="preserve" text-anchor="start" x="10" y="-21.5" font-family="Helvetica,sans-Serif" font-size="9.00">currentOEInMsg</text>
<text xml:space="preserve" text-anchor="start" x="10" y="-9.6" font-family="Helvetica,sans-Serif" font-style="italic" font-size="7.00">ClassicElementsMsgPayload</text>
</g>
<!-- msg_1&#45;&gt;module -->
<g id="edge2" class="edge">
<title>msg_1&#45;&gt;module</title>
<path fill="none" stroke="#555555" d="M111.19,-27.9C118.95,-29.3 127.02,-30.76 135.03,-32.21"/>
<polygon fill="#555555" stroke="#555555" points="134.32,-35.63 144.79,-33.97 135.57,-28.75 134.32,-35.63"/>
</g>
</g>
</svg>
