<?xml version="1.0" encoding="UTF-8" standalone="no"?>
<!DOCTYPE svg PUBLIC "-//W3C//DTD SVG 1.1//EN"
 "http://www.w3.org/Graphics/SVG/1.1/DTD/svg11.dtd">
<!-- Generated by graphviz version 15.0.0 (20260523.1842)
 -->
<!-- Title: spacecraftIO Pages: 1 -->
<svg width="336pt" height="98pt"
 viewBox="0.00 0.00 336.00 98.00" xmlns="http://www.w3.org/2000/svg" xmlns:xlink="http://www.w3.org/1999/xlink">
<g id="graph0" class="graph" transform="scale(1 1) rotate(0) translate(4 94)">
<title>spacecraftIO</title>
<!-- module -->
<g id="node1" class="node">
<title>module</title>
<path fill="#5a9fcd" stroke="#555555" stroke-width="2" d="M177,-63C177,-63 135.5,-63 135.5,-63 129.5,-63 123.5,-57 123.5,-51 123.5,-51 123.5,-39 123.5,-39 123.5,-33 129.5,-27 135.5,-27 135.5,-27 177,-27 177,-27 183,-27 189,-33 189,-39 189,-39 189,-51 189,-51 189,-57 183,-63 177,-63"/>
<text xml:space="preserve" text-anchor="middle" x="156.25" y="-40.36" font-family="Helvetica,sans-Serif" font-size="11.20" fill="white">spacecraft</text>
</g>
<!-- msg_0 -->
<g id="node2" class="node">
<title>msg_0</title>
<path fill="white" stroke="#555555" d="M308.75,-90C308.75,-90 244.5,-90 244.5,-90 238.5,-90 232.5,-84 232.5,-78 232.5,-78 232.5,-66 232.5,-66 232.5,-60 238.5,-54 244.5,-54 244.5,-54 308.75,-54 308.75,-54 314.75,-54 320.75,-60 320.75,-66 320.75,-66 320.75,-78 320.75,-78 320.75,-84 314.75,-90 308.75,-90"/>
<text xml:space="preserve" text-anchor="start" x="242.5" y="-75.5" font-family="Helvetica,sans-Serif" font-size="9.00">scStateOutMsg</text>
<text xml:space="preserve" text-anchor="start" x="242.5" y="-63.6" font-family="Helvetica,sans-Serif" font-style="italic" font-size="7.00">SCStatesMsgPayload</text>
</g>
<!-- module&#45;&gt;msg_0 -->
<g id="edge1" class="edge">
<title>module&#45;&gt;msg_0</title>
<path fill="none" stroke="#555555" d="M189.28,-52.31C199.04,-54.53 210.06,-57.04 220.87,-59.51"/>
<polygon fill="#555555" stroke="#555555" points="220.01,-62.9 230.53,-61.72 221.56,-56.08 220.01,-62.9"/>
</g>
<!-- msg_1 -->
<g id="node3" class="node">
<title>msg_1</title>
<path fill="white" stroke="#555555" d="M316.25,-36C316.25,-36 237,-36 237,-36 231,-36 225,-30 225,-24 225,-24 225,-12 225,-12 225,-6 231,0 237,0 237,0 316.25,0 316.25,0 322.25,0 328.25,-6 328.25,-12 328.25,-12 328.25,-24 328.25,-24 328.25,-30 322.25,-36 316.25,-36"/>
<text xml:space="preserve" text-anchor="start" x="235" y="-21.5" font-family="Helvetica,sans-Serif" font-size="9.00">scMassStateOutMsg</text>
<text xml:space="preserve" text-anchor="start" x="235" y="-9.6" font-family="Helvetica,sans-Serif" font-style="italic" font-size="7.00">SCMassPropsMsgPayload</text>
</g>
<!-- module&#45;&gt;msg_1 -->
<g id="edge2" class="edge">
<title>module&#45;&gt;msg_1</title>
<path fill="none" stroke="#555555" d="M189.28,-37.69C196.9,-35.96 205.28,-34.04 213.74,-32.11"/>
<polygon fill="#555555" stroke="#555555" points="214.4,-35.56 223.37,-29.92 212.84,-28.73 214.4,-35.56"/>
</g>
<!-- msg_2 -->
<g id="node4" class="node">
<title>msg_2</title>
<path fill="white" stroke="#555555" d="M71,-90C71,-90 16.5,-90 16.5,-90 10.5,-90 4.5,-84 4.5,-78 4.5,-78 4.5,-66 4.5,-66 4.5,-60 10.5,-54 16.5,-54 16.5,-54 71,-54 71,-54 77,-54 83,-60 83,-66 83,-66 83,-78 83,-78 83,-84 77,-90 71,-90"/>
<text xml:space="preserve" text-anchor="start" x="14.5" y="-75.5" font-family="Helvetica,sans-Serif" font-size="9.00">attRefInMsg</text>
<text xml:space="preserve" text-anchor="start" x="14.5" y="-63.6" font-family="Helvetica,sans-Serif" font-style="italic" font-size="7.00">AttRefMsgPayload</text>
</g>
<!-- msg_2&#45;&gt;module -->
<g id="edge3" class="edge">
<title>msg_2&#45;&gt;module</title>
<path fill="none" stroke="#555555" d="M83.4,-62.56C92.6,-60.31 102.48,-57.89 111.88,-55.6"/>
<polygon fill="#555555" stroke="#555555" points="112.68,-59.01 121.56,-53.23 111.01,-52.21 112.68,-59.01"/>
</g>
<!-- msg_3 -->
<g id="node5" class="node">
<title>msg_3</title>
<path fill="white" stroke="#555555" d="M75.5,-36C75.5,-36 12,-36 12,-36 6,-36 0,-30 0,-24 0,-24 0,-12 0,-12 0,-6 6,0 12,0 12,0 75.5,0 75.5,0 81.5,0 87.5,-6 87.5,-12 87.5,-12 87.5,-24 87.5,-24 87.5,-30 81.5,-36 75.5,-36"/>
<text xml:space="preserve" text-anchor="start" x="10" y="-21.5" font-family="Helvetica,sans-Serif" font-size="9.00">transRefInMsg</text>
<text xml:space="preserve" text-anchor="start" x="10" y="-9.6" font-family="Helvetica,sans-Serif" font-style="italic" font-size="7.00">TransRefMsgPayload</text>
</g>
<!-- msg_3&#45;&gt;module -->
<g id="edge4" class="edge">
<title>msg_3&#45;&gt;module</title>
<path fill="none" stroke="#555555" d="M87.79,-28.52C95.78,-30.47 104.13,-32.51 112.12,-34.46"/>
<polygon fill="#555555" stroke="#555555" points="111.09,-37.81 121.64,-36.79 112.76,-31.01 111.09,-37.81"/>
</g>
</g>
</svg>
