<?xml version="1.0" encoding="UTF-8" standalone="no"?>
<!DOCTYPE svg PUBLIC "-//W3C//DTD SVG 1.1//EN"
 "http://www.w3.org/Graphics/SVG/1.1/DTD/svg11.dtd">
<!-- Generated by graphviz version 15.0.0 (20260523.1842)
 -->
<!-- Title: mrpRotationIO Pages: 1 -->
<svg width="320pt" height="98pt"
 viewBox="0.00 0.00 320.00 98.00" xmlns="http://www.w3.org/2000/svg" xmlns:xlink="http://www.w3.org/1999/xlink">
<g id="graph0" class="graph" transform="scale(1 1) rotate(0) translate(4 94)">
<title>mrpRotationIO</title>
<!-- module -->
<g id="node1" class="node">
<title>module</title>
<path fill="#8a7f73" stroke="#555555" stroke-width="2" d="M185.25,-63C185.25,-63 134,-63 134,-63 128,-63 122,-57 122,-51 122,-51 122,-39 122,-39 122,-33 128,-27 134,-27 134,-27 185.25,-27 185.25,-27 191.25,-27 197.25,-33 197.25,-39 197.25,-39 197.25,-51 197.25,-51 197.25,-57 191.25,-63 185.25,-63"/>
<text xml:space="preserve" text-anchor="middle" x="159.62" y="-40.36" font-family="Helvetica,sans-Serif" font-size="11.20" fill="white">mrpRotation</text>
</g>
<!-- msg_0 -->
<g id="node2" class="node">
<title>msg_0</title>
<path fill="white" stroke="#555555" d="M299.75,-63C299.75,-63 245.25,-63 245.25,-63 239.25,-63 233.25,-57 233.25,-51 233.25,-51 233.25,-39 233.25,-39 233.25,-33 239.25,-27 245.25,-27 245.25,-27 299.75,-27 299.75,-27 305.75,-27 311.75,-33 311.75,-39 311.75,-39 311.75,-51 311.75,-51 311.75,-57 305.75,-63 299.75,-63"/>
<text xml:space="preserve" text-anchor="start" x="243.25" y="-48.5" font-family="Helvetica,sans-Serif" font-size="9.00">attRefOutMsg</text>
<text xml:space="preserve" text-anchor="start" x="243.25" y="-36.6" font-family="Helvetica,sans-Serif" font-style="italic" font-size="7.00">AttRefMsgPayload</text>
</g>
<!-- module&#45;&gt;msg_0 -->
<g id="edge1" class="edge">
<title>module&#45;&gt;msg_0</title>
<path fill="none" stroke="#555555" d="M197.54,-45C205.25,-45 213.5,-45 221.59,-45"/>
<polygon fill="#555555" stroke="#555555" points="221.33,-48.5 231.33,-45 221.33,-41.5 221.33,-48.5"/>
</g>
<!-- msg_1 -->
<g id="node3" class="node">
<title>msg_1</title>
<path fill="white" stroke="#555555" d="M70.25,-90C70.25,-90 15.75,-90 15.75,-90 9.75,-90 3.75,-84 3.75,-78 3.75,-78 3.75,-66 3.75,-66 3.75,-60 9.75,-54 15.75,-54 15.75,-54 70.25,-54 70.25,-54 76.25,-54 82.25,-60 82.25,-66 82.25,-66 82.25,-78 82.25,-78 82.25,-84 76.25,-90 70.25,-90"/>
<text xml:space="preserve" text-anchor="start" x="13.75" y="-75.5" font-family="Helvetica,sans-Serif" font-size="9.00">attRefInMsg</text>
<text xml:space="preserve" text-anchor="start" x="13.75" y="-63.6" font-family="Helvetica,sans-Serif" font-style="italic" font-size="7.00">AttRefMsgPayload</text>
</g>
<!-- msg_1&#45;&gt;module -->
<g id="edge2" class="edge">
<title>msg_1&#45;&gt;module</title>
<path fill="none" stroke="#555555" d="M82.49,-62.93C91.46,-60.82 101.12,-58.55 110.45,-56.35"/>
<polygon fill="#555555" stroke="#555555" points="111.19,-59.77 120.13,-54.07 109.59,-52.95 111.19,-59.77"/>
</g>
<!-- msg_2 -->
<g id="node4" class="node">
<title>msg_2</title>
<path fill="white" stroke="#555555" d="M74,-36C74,-36 12,-36 12,-36 6,-36 0,-30 0,-24 0,-24 0,-12 0,-12 0,-6 6,0 12,0 12,0 74,0 74,0 80,0 86,-6 86,-12 86,-12 86,-24 86,-24 86,-30 80,-36 74,-36"/>
<text xml:space="preserve" text-anchor="start" x="10" y="-21.5" font-family="Helvetica,sans-Serif" font-size="9.00">desiredAttInMsg</text>
<text xml:space="preserve" text-anchor="start" x="10" y="-9.6" font-family="Helvetica,sans-Serif" font-style="italic" font-size="7.00">AttStateMsgPayload</text>
</g>
<!-- msg_2&#45;&gt;module -->
<g id="edge3" class="edge">
<title>msg_2&#45;&gt;module</title>
<path fill="none" stroke="#555555" d="M86.36,-27.98C94.25,-29.84 102.54,-31.79 110.59,-33.68"/>
<polygon fill="#555555" stroke="#555555" points="109.72,-37.08 120.25,-35.96 111.32,-30.26 109.72,-37.08"/>
</g>
</g>
</svg>
