<?xml version="1.0" encoding="utf-8" standalone="no"?>
<!DOCTYPE svg PUBLIC "-//W3C//DTD SVG 1.1//EN"
  "http://www.w3.org/Graphics/SVG/1.1/DTD/svg11.dtd">
<svg xmlns:xlink="http://www.w3.org/1999/xlink" width="414pt" height="288pt" viewBox="0 0 414 288" xmlns="http://www.w3.org/2000/svg" version="1.1">
 <metadata>
  <rdf:RDF xmlns:dc="http://purl.org/dc/elements/1.1/" xmlns:cc="http://creativecommons.org/ns#" xmlns:rdf="http://www.w3.org/1999/02/22-rdf-syntax-ns#">
   <cc:Work>
    <dc:type rdf:resource="http://purl.org/dc/dcmitype/StillImage"/>
    <dc:date>2025-04-24T17:22:40.078635</dc:date>
    <dc:format>image/svg+xml</dc:format>
    <dc:creator>
     <cc:Agent>
      <dc:title>Matplotlib v3.10.1, https://matplotlib.org/</dc:title>
     </cc:Agent>
    </dc:creator>
   </cc:Work>
  </rdf:RDF>
 </metadata>
 <defs>
  <style type="text/css">*{stroke-linejoin: round; stroke-linecap: butt}</style>
 </defs>
 <g id="figure_1">
  <g id="patch_1">
   <path d="M 0 288 
L 414 288 
L 414 0 
L 0 0 
L 0 288 
z
" style="fill: none"/>
  </g>
  <g id="axes_1">
   <g id="patch_2">
    <path d="M 85.605625 241.036875 
L 403.2 241.036875 
L 403.2 10.8 
L 85.605625 10.8 
L 85.605625 241.036875 
z
" style="fill: none"/>
   </g>
   <g id="matplotlib.axis_1">
    <g id="xtick_1">
     <g id="line2d_1">
      <defs>
       <path id="m6653077a11" d="M 0 0 
L 0 3.5 
" style="stroke: #000000; stroke-width: 0.8"/>
      </defs>
      <g>
       <use xlink:href="#m6653077a11" x="100.025692" y="241.036875" style="stroke: #000000; stroke-width: 0.8"/>
      </g>
     </g>
     <g id="text_1">
      <!-- 0 -->
      <g transform="translate(94.935692 260.194375) scale(0.16 -0.16)">
       <defs>
        <path id="DejaVuSans-30" d="M 2034 4250 
Q 1547 4250 1301 3770 
Q 1056 3291 1056 2328 
Q 1056 1369 1301 889 
Q 1547 409 2034 409 
Q 2525 409 2770 889 
Q 3016 1369 3016 2328 
Q 3016 3291 2770 3770 
Q 2525 4250 2034 4250 
z
M 2034 4750 
Q 2819 4750 3233 4129 
Q 3647 3509 3647 2328 
Q 3647 1150 3233 529 
Q 2819 -91 2034 -91 
Q 1250 -91 836 529 
Q 422 1150 422 2328 
Q 422 3509 836 4129 
Q 1250 4750 2034 4750 
z
" transform="scale(0.015625)"/>
       </defs>
       <use xlink:href="#DejaVuSans-30"/>
      </g>
     </g>
    </g>
    <g id="xtick_2">
     <g id="line2d_2">
      <g>
       <use xlink:href="#m6653077a11" x="196.271759" y="241.036875" style="stroke: #000000; stroke-width: 0.8"/>
      </g>
     </g>
     <g id="text_2">
      <!-- 10 -->
      <g transform="translate(186.091759 260.194375) scale(0.16 -0.16)">
       <defs>
        <path id="DejaVuSans-31" d="M 794 531 
L 1825 531 
L 1825 4091 
L 703 3866 
L 703 4441 
L 1819 4666 
L 2450 4666 
L 2450 531 
L 3481 531 
L 3481 0 
L 794 0 
L 794 531 
z
" transform="scale(0.015625)"/>
       </defs>
       <use xlink:href="#DejaVuSans-31"/>
       <use xlink:href="#DejaVuSans-30" transform="translate(63.623047 0)"/>
      </g>
     </g>
    </g>
    <g id="xtick_3">
     <g id="line2d_3">
      <g>
       <use xlink:href="#m6653077a11" x="292.517825" y="241.036875" style="stroke: #000000; stroke-width: 0.8"/>
      </g>
     </g>
     <g id="text_3">
      <!-- 20 -->
      <g transform="translate(282.337825 260.194375) scale(0.16 -0.16)">
       <defs>
        <path id="DejaVuSans-32" d="M 1228 531 
L 3431 531 
L 3431 0 
L 469 0 
L 469 531 
Q 828 903 1448 1529 
Q 2069 2156 2228 2338 
Q 2531 2678 2651 2914 
Q 2772 3150 2772 3378 
Q 2772 3750 2511 3984 
Q 2250 4219 1831 4219 
Q 1534 4219 1204 4116 
Q 875 4013 500 3803 
L 500 4441 
Q 881 4594 1212 4672 
Q 1544 4750 1819 4750 
Q 2544 4750 2975 4387 
Q 3406 4025 3406 3419 
Q 3406 3131 3298 2873 
Q 3191 2616 2906 2266 
Q 2828 2175 2409 1742 
Q 1991 1309 1228 531 
z
" transform="scale(0.015625)"/>
       </defs>
       <use xlink:href="#DejaVuSans-32"/>
       <use xlink:href="#DejaVuSans-30" transform="translate(63.623047 0)"/>
      </g>
     </g>
    </g>
    <g id="xtick_4">
     <g id="line2d_4">
      <g>
       <use xlink:href="#m6653077a11" x="388.763892" y="241.036875" style="stroke: #000000; stroke-width: 0.8"/>
      </g>
     </g>
     <g id="text_4">
      <!-- 30 -->
      <g transform="translate(378.583892 260.194375) scale(0.16 -0.16)">
       <defs>
        <path id="DejaVuSans-33" d="M 2597 2516 
Q 3050 2419 3304 2112 
Q 3559 1806 3559 1356 
Q 3559 666 3084 287 
Q 2609 -91 1734 -91 
Q 1441 -91 1130 -33 
Q 819 25 488 141 
L 488 750 
Q 750 597 1062 519 
Q 1375 441 1716 441 
Q 2309 441 2620 675 
Q 2931 909 2931 1356 
Q 2931 1769 2642 2001 
Q 2353 2234 1838 2234 
L 1294 2234 
L 1294 2753 
L 1863 2753 
Q 2328 2753 2575 2939 
Q 2822 3125 2822 3475 
Q 2822 3834 2567 4026 
Q 2313 4219 1838 4219 
Q 1578 4219 1281 4162 
Q 984 4106 628 3988 
L 628 4550 
Q 988 4650 1302 4700 
Q 1616 4750 1894 4750 
Q 2613 4750 3031 4423 
Q 3450 4097 3450 3541 
Q 3450 3153 3228 2886 
Q 3006 2619 2597 2516 
z
" transform="scale(0.015625)"/>
       </defs>
       <use xlink:href="#DejaVuSans-33"/>
       <use xlink:href="#DejaVuSans-30" transform="translate(63.623047 0)"/>
      </g>
     </g>
    </g>
    <g id="text_5">
     <!-- Time [min] -->
     <g transform="translate(217.250469 275.120313) scale(0.1 -0.1)">
      <defs>
       <path id="DejaVuSans-54" d="M -19 4666 
L 3928 4666 
L 3928 4134 
L 2272 4134 
L 2272 0 
L 1638 0 
L 1638 4134 
L -19 4134 
L -19 4666 
z
" transform="scale(0.015625)"/>
       <path id="DejaVuSans-69" d="M 603 3500 
L 1178 3500 
L 1178 0 
L 603 0 
L 603 3500 
z
M 603 4863 
L 1178 4863 
L 1178 4134 
L 603 4134 
L 603 4863 
z
" transform="scale(0.015625)"/>
       <path id="DejaVuSans-6d" d="M 3328 2828 
Q 3544 3216 3844 3400 
Q 4144 3584 4550 3584 
Q 5097 3584 5394 3201 
Q 5691 2819 5691 2113 
L 5691 0 
L 5113 0 
L 5113 2094 
Q 5113 2597 4934 2840 
Q 4756 3084 4391 3084 
Q 3944 3084 3684 2787 
Q 3425 2491 3425 1978 
L 3425 0 
L 2847 0 
L 2847 2094 
Q 2847 2600 2669 2842 
Q 2491 3084 2119 3084 
Q 1678 3084 1418 2786 
Q 1159 2488 1159 1978 
L 1159 0 
L 581 0 
L 581 3500 
L 1159 3500 
L 1159 2956 
Q 1356 3278 1631 3431 
Q 1906 3584 2284 3584 
Q 2666 3584 2933 3390 
Q 3200 3197 3328 2828 
z
" transform="scale(0.015625)"/>
       <path id="DejaVuSans-65" d="M 3597 1894 
L 3597 1613 
L 953 1613 
Q 991 1019 1311 708 
Q 1631 397 2203 397 
Q 2534 397 2845 478 
Q 3156 559 3463 722 
L 3463 178 
Q 3153 47 2828 -22 
Q 2503 -91 2169 -91 
Q 1331 -91 842 396 
Q 353 884 353 1716 
Q 353 2575 817 3079 
Q 1281 3584 2069 3584 
Q 2775 3584 3186 3129 
Q 3597 2675 3597 1894 
z
M 3022 2063 
Q 3016 2534 2758 2815 
Q 2500 3097 2075 3097 
Q 1594 3097 1305 2825 
Q 1016 2553 972 2059 
L 3022 2063 
z
" transform="scale(0.015625)"/>
       <path id="DejaVuSans-20" transform="scale(0.015625)"/>
       <path id="DejaVuSans-5b" d="M 550 4863 
L 1875 4863 
L 1875 4416 
L 1125 4416 
L 1125 -397 
L 1875 -397 
L 1875 -844 
L 550 -844 
L 550 4863 
z
" transform="scale(0.015625)"/>
       <path id="DejaVuSans-6e" d="M 3513 2113 
L 3513 0 
L 2938 0 
L 2938 2094 
Q 2938 2591 2744 2837 
Q 2550 3084 2163 3084 
Q 1697 3084 1428 2787 
Q 1159 2491 1159 1978 
L 1159 0 
L 581 0 
L 581 3500 
L 1159 3500 
L 1159 2956 
Q 1366 3272 1645 3428 
Q 1925 3584 2291 3584 
Q 2894 3584 3203 3211 
Q 3513 2838 3513 2113 
z
" transform="scale(0.015625)"/>
       <path id="DejaVuSans-5d" d="M 1947 4863 
L 1947 -844 
L 622 -844 
L 622 -397 
L 1369 -397 
L 1369 4416 
L 622 4416 
L 622 4863 
L 1947 4863 
z
" transform="scale(0.015625)"/>
      </defs>
      <use xlink:href="#DejaVuSans-54"/>
      <use xlink:href="#DejaVuSans-69" transform="translate(57.958984 0)"/>
      <use xlink:href="#DejaVuSans-6d" transform="translate(85.742188 0)"/>
      <use xlink:href="#DejaVuSans-65" transform="translate(183.154297 0)"/>
      <use xlink:href="#DejaVuSans-20" transform="translate(244.677734 0)"/>
      <use xlink:href="#DejaVuSans-5b" transform="translate(276.464844 0)"/>
      <use xlink:href="#DejaVuSans-6d" transform="translate(315.478516 0)"/>
      <use xlink:href="#DejaVuSans-69" transform="translate(412.890625 0)"/>
      <use xlink:href="#DejaVuSans-6e" transform="translate(440.673828 0)"/>
      <use xlink:href="#DejaVuSans-5d" transform="translate(504.052734 0)"/>
     </g>
    </g>
   </g>
   <g id="matplotlib.axis_2">
    <g id="ytick_1">
     <g id="line2d_5">
      <defs>
       <path id="madfd95595f" d="M 0 0 
L -3.5 0 
" style="stroke: #000000; stroke-width: 0.8"/>
      </defs>
      <g>
       <use xlink:href="#madfd95595f" x="85.605625" y="233.46104" style="stroke: #000000; stroke-width: 0.8"/>
      </g>
     </g>
     <g id="text_6">
      <!-- −2000 -->
      <g transform="translate(24.478125 239.53979) scale(0.16 -0.16)">
       <defs>
        <path id="DejaVuSans-2212" d="M 678 2272 
L 4684 2272 
L 4684 1741 
L 678 1741 
L 678 2272 
z
" transform="scale(0.015625)"/>
       </defs>
       <use xlink:href="#DejaVuSans-2212"/>
       <use xlink:href="#DejaVuSans-32" transform="translate(83.789062 0)"/>
       <use xlink:href="#DejaVuSans-30" transform="translate(147.412109 0)"/>
       <use xlink:href="#DejaVuSans-30" transform="translate(211.035156 0)"/>
       <use xlink:href="#DejaVuSans-30" transform="translate(274.658203 0)"/>
      </g>
     </g>
    </g>
    <g id="ytick_2">
     <g id="line2d_6">
      <g>
       <use xlink:href="#madfd95595f" x="85.605625" y="187.998969" style="stroke: #000000; stroke-width: 0.8"/>
      </g>
     </g>
     <g id="text_7">
      <!-- −1000 -->
      <g transform="translate(24.478125 194.077719) scale(0.16 -0.16)">
       <use xlink:href="#DejaVuSans-2212"/>
       <use xlink:href="#DejaVuSans-31" transform="translate(83.789062 0)"/>
       <use xlink:href="#DejaVuSans-30" transform="translate(147.412109 0)"/>
       <use xlink:href="#DejaVuSans-30" transform="translate(211.035156 0)"/>
       <use xlink:href="#DejaVuSans-30" transform="translate(274.658203 0)"/>
      </g>
     </g>
    </g>
    <g id="ytick_3">
     <g id="line2d_7">
      <g>
       <use xlink:href="#madfd95595f" x="85.605625" y="142.536899" style="stroke: #000000; stroke-width: 0.8"/>
      </g>
     </g>
     <g id="text_8">
      <!-- 0 -->
      <g transform="translate(68.425625 148.615649) scale(0.16 -0.16)">
       <use xlink:href="#DejaVuSans-30"/>
      </g>
     </g>
    </g>
    <g id="ytick_4">
     <g id="line2d_8">
      <g>
       <use xlink:href="#madfd95595f" x="85.605625" y="97.074828" style="stroke: #000000; stroke-width: 0.8"/>
      </g>
     </g>
     <g id="text_9">
      <!-- 1000 -->
      <g transform="translate(37.885625 103.153578) scale(0.16 -0.16)">
       <use xlink:href="#DejaVuSans-31"/>
       <use xlink:href="#DejaVuSans-30" transform="translate(63.623047 0)"/>
       <use xlink:href="#DejaVuSans-30" transform="translate(127.246094 0)"/>
       <use xlink:href="#DejaVuSans-30" transform="translate(190.869141 0)"/>
      </g>
     </g>
    </g>
    <g id="ytick_5">
     <g id="line2d_9">
      <g>
       <use xlink:href="#madfd95595f" x="85.605625" y="51.612757" style="stroke: #000000; stroke-width: 0.8"/>
      </g>
     </g>
     <g id="text_10">
      <!-- 2000 -->
      <g transform="translate(37.885625 57.691507) scale(0.16 -0.16)">
       <use xlink:href="#DejaVuSans-32"/>
       <use xlink:href="#DejaVuSans-30" transform="translate(63.623047 0)"/>
       <use xlink:href="#DejaVuSans-30" transform="translate(127.246094 0)"/>
       <use xlink:href="#DejaVuSans-30" transform="translate(190.869141 0)"/>
      </g>
     </g>
    </g>
    <g id="text_11">
     <!-- RW Speed (RPM)  -->
     <g transform="translate(18.398438 169.284062) rotate(-90) scale(0.1 -0.1)">
      <defs>
       <path id="DejaVuSans-52" d="M 2841 2188 
Q 3044 2119 3236 1894 
Q 3428 1669 3622 1275 
L 4263 0 
L 3584 0 
L 2988 1197 
Q 2756 1666 2539 1819 
Q 2322 1972 1947 1972 
L 1259 1972 
L 1259 0 
L 628 0 
L 628 4666 
L 2053 4666 
Q 2853 4666 3247 4331 
Q 3641 3997 3641 3322 
Q 3641 2881 3436 2590 
Q 3231 2300 2841 2188 
z
M 1259 4147 
L 1259 2491 
L 2053 2491 
Q 2509 2491 2742 2702 
Q 2975 2913 2975 3322 
Q 2975 3731 2742 3939 
Q 2509 4147 2053 4147 
L 1259 4147 
z
" transform="scale(0.015625)"/>
       <path id="DejaVuSans-57" d="M 213 4666 
L 850 4666 
L 1831 722 
L 2809 4666 
L 3519 4666 
L 4500 722 
L 5478 4666 
L 6119 4666 
L 4947 0 
L 4153 0 
L 3169 4050 
L 2175 0 
L 1381 0 
L 213 4666 
z
" transform="scale(0.015625)"/>
       <path id="DejaVuSans-53" d="M 3425 4513 
L 3425 3897 
Q 3066 4069 2747 4153 
Q 2428 4238 2131 4238 
Q 1616 4238 1336 4038 
Q 1056 3838 1056 3469 
Q 1056 3159 1242 3001 
Q 1428 2844 1947 2747 
L 2328 2669 
Q 3034 2534 3370 2195 
Q 3706 1856 3706 1288 
Q 3706 609 3251 259 
Q 2797 -91 1919 -91 
Q 1588 -91 1214 -16 
Q 841 59 441 206 
L 441 856 
Q 825 641 1194 531 
Q 1563 422 1919 422 
Q 2459 422 2753 634 
Q 3047 847 3047 1241 
Q 3047 1584 2836 1778 
Q 2625 1972 2144 2069 
L 1759 2144 
Q 1053 2284 737 2584 
Q 422 2884 422 3419 
Q 422 4038 858 4394 
Q 1294 4750 2059 4750 
Q 2388 4750 2728 4690 
Q 3069 4631 3425 4513 
z
" transform="scale(0.015625)"/>
       <path id="DejaVuSans-70" d="M 1159 525 
L 1159 -1331 
L 581 -1331 
L 581 3500 
L 1159 3500 
L 1159 2969 
Q 1341 3281 1617 3432 
Q 1894 3584 2278 3584 
Q 2916 3584 3314 3078 
Q 3713 2572 3713 1747 
Q 3713 922 3314 415 
Q 2916 -91 2278 -91 
Q 1894 -91 1617 61 
Q 1341 213 1159 525 
z
M 3116 1747 
Q 3116 2381 2855 2742 
Q 2594 3103 2138 3103 
Q 1681 3103 1420 2742 
Q 1159 2381 1159 1747 
Q 1159 1113 1420 752 
Q 1681 391 2138 391 
Q 2594 391 2855 752 
Q 3116 1113 3116 1747 
z
" transform="scale(0.015625)"/>
       <path id="DejaVuSans-64" d="M 2906 2969 
L 2906 4863 
L 3481 4863 
L 3481 0 
L 2906 0 
L 2906 525 
Q 2725 213 2448 61 
Q 2172 -91 1784 -91 
Q 1150 -91 751 415 
Q 353 922 353 1747 
Q 353 2572 751 3078 
Q 1150 3584 1784 3584 
Q 2172 3584 2448 3432 
Q 2725 3281 2906 2969 
z
M 947 1747 
Q 947 1113 1208 752 
Q 1469 391 1925 391 
Q 2381 391 2643 752 
Q 2906 1113 2906 1747 
Q 2906 2381 2643 2742 
Q 2381 3103 1925 3103 
Q 1469 3103 1208 2742 
Q 947 2381 947 1747 
z
" transform="scale(0.015625)"/>
       <path id="DejaVuSans-28" d="M 1984 4856 
Q 1566 4138 1362 3434 
Q 1159 2731 1159 2009 
Q 1159 1288 1364 580 
Q 1569 -128 1984 -844 
L 1484 -844 
Q 1016 -109 783 600 
Q 550 1309 550 2009 
Q 550 2706 781 3412 
Q 1013 4119 1484 4856 
L 1984 4856 
z
" transform="scale(0.015625)"/>
       <path id="DejaVuSans-50" d="M 1259 4147 
L 1259 2394 
L 2053 2394 
Q 2494 2394 2734 2622 
Q 2975 2850 2975 3272 
Q 2975 3691 2734 3919 
Q 2494 4147 2053 4147 
L 1259 4147 
z
M 628 4666 
L 2053 4666 
Q 2838 4666 3239 4311 
Q 3641 3956 3641 3272 
Q 3641 2581 3239 2228 
Q 2838 1875 2053 1875 
L 1259 1875 
L 1259 0 
L 628 0 
L 628 4666 
z
" transform="scale(0.015625)"/>
       <path id="DejaVuSans-4d" d="M 628 4666 
L 1569 4666 
L 2759 1491 
L 3956 4666 
L 4897 4666 
L 4897 0 
L 4281 0 
L 4281 4097 
L 3078 897 
L 2444 897 
L 1241 4097 
L 1241 0 
L 628 0 
L 628 4666 
z
" transform="scale(0.015625)"/>
       <path id="DejaVuSans-29" d="M 513 4856 
L 1013 4856 
Q 1481 4119 1714 3412 
Q 1947 2706 1947 2009 
Q 1947 1309 1714 600 
Q 1481 -109 1013 -844 
L 513 -844 
Q 928 -128 1133 580 
Q 1338 1288 1338 2009 
Q 1338 2731 1133 3434 
Q 928 4138 513 4856 
z
" transform="scale(0.015625)"/>
      </defs>
      <use xlink:href="#DejaVuSans-52"/>
      <use xlink:href="#DejaVuSans-57" transform="translate(65.482422 0)"/>
      <use xlink:href="#DejaVuSans-20" transform="translate(164.359375 0)"/>
      <use xlink:href="#DejaVuSans-53" transform="translate(196.146484 0)"/>
      <use xlink:href="#DejaVuSans-70" transform="translate(259.623047 0)"/>
      <use xlink:href="#DejaVuSans-65" transform="translate(323.099609 0)"/>
      <use xlink:href="#DejaVuSans-65" transform="translate(384.623047 0)"/>
      <use xlink:href="#DejaVuSans-64" transform="translate(446.146484 0)"/>
      <use xlink:href="#DejaVuSans-20" transform="translate(509.623047 0)"/>
      <use xlink:href="#DejaVuSans-28" transform="translate(541.410156 0)"/>
      <use xlink:href="#DejaVuSans-52" transform="translate(580.423828 0)"/>
      <use xlink:href="#DejaVuSans-50" transform="translate(649.90625 0)"/>
      <use xlink:href="#DejaVuSans-4d" transform="translate(710.208984 0)"/>
      <use xlink:href="#DejaVuSans-29" transform="translate(796.488281 0)"/>
      <use xlink:href="#DejaVuSans-20" transform="translate(835.501953 0)"/>
     </g>
    </g>
   </g>
   <g id="line2d_10">
    <path d="M 100.041733 142.427764 
L 100.747537 137.625856 
L 100.79566 137.953251 
L 107.244147 181.061791 
L 107.965992 185.138971 
L 108.367018 186.21285 
L 108.655756 186.459698 
L 108.864289 186.377352 
L 109.120945 185.989112 
L 109.457806 185.022926 
L 109.906955 182.983696 
L 110.516513 179.045429 
L 118.039747 127.366663 
L 128.947635 55.734687 
L 129.605316 53.191563 
L 130.198834 51.711062 
L 130.712146 50.962762 
L 131.161295 50.655498 
L 131.578361 50.621021 
L 132.027509 50.816476 
L 132.556862 51.307983 
L 133.230585 52.261769 
L 134.128882 53.951853 
L 135.476327 57.016814 
L 139.66303 66.815055 
L 141.219008 69.759811 
L 142.678741 72.057843 
L 144.10639 73.896132 
L 145.550081 75.398708 
L 147.090019 76.6816 
L 148.790366 77.807349 
L 150.76341 78.842446 
L 153.089357 79.806976 
L 154.613253 80.483753 
L 156.618379 81.268049 
L 158.703711 81.843573 
L 160.885288 82.214363 
L 163.227276 82.384242 
L 165.809879 82.343381 
L 168.809548 82.065109 
L 172.787718 81.455477 
L 183.503114 79.711208 
L 188.058761 79.267163 
L 193.095638 79.00764 
L 196.319882 79.012769 
L 197.506917 80.780334 
L 198.661869 82.114853 
L 199.832863 83.133906 
L 201.05198 83.901642 
L 202.383384 84.476651 
L 203.971444 84.912065 
L 206.201145 85.270284 
L 212.296729 86.154138 
L 213.74042 86.560095 
L 230.070169 93.10289 
L 237.834018 96.638802 
L 252.126559 103.434836 
L 255.15831 105.228368 
L 259.056276 107.257072 
L 279.89355 117.729769 
L 286.88743 121.524593 
L 288.106547 122.488236 
L 290.480617 124.215816 
L 293.400081 126.052314 
L 298.61341 129.01405 
L 305.511044 133.014738 
L 313.082402 137.699805 
L 320.926456 142.52707 
L 321.359563 142.522965 
L 321.536014 142.536251 
L 321.648302 142.504432 
L 321.664343 142.516712 
L 321.856835 142.535103 
L 321.969122 142.522698 
L 322.145573 142.535896 
L 322.273901 142.527031 
L 324.086535 142.52624 
L 324.519643 142.529385 
L 324.63193 142.503224 
L 324.647971 142.522564 
L 324.984832 142.529766 
L 325.129201 142.509216 
L 325.257529 142.529425 
L 325.385857 142.508561 
L 325.530226 142.526591 
L 325.658554 142.505263 
L 325.802923 142.529694 
L 325.947293 142.513695 
L 326.075621 142.536274 
L 326.21999 142.512072 
L 326.348318 142.525801 
L 326.492687 142.522714 
L 326.70122 142.533918 
L 326.86163 142.50602 
L 326.989958 142.533359 
L 327.134327 142.516358 
L 327.326819 142.535211 
L 327.471189 142.517031 
L 327.64764 142.533901 
L 327.824091 142.509435 
L 328.000542 142.53303 
L 328.144911 142.51808 
L 328.305321 142.522696 
L 328.44969 142.515134 
L 328.6101 142.527806 
L 328.77051 142.513683 
L 328.930921 142.534744 
L 329.107372 142.516283 
L 329.251741 142.52746 
L 329.428192 142.518129 
L 329.572561 142.536697 
L 329.781094 142.514301 
L 329.909422 142.520677 
L 330.117955 142.509654 
L 330.246283 142.522893 
L 330.470858 142.51347 
L 330.615227 142.524793 
L 330.82376 142.536543 
L 331.048334 142.516217 
L 331.192703 142.540303 
L 331.4654 142.511984 
L 331.593728 142.520677 
L 331.850385 142.514563 
L 331.978713 142.539033 
L 332.347656 142.513461 
L 332.475984 142.538795 
L 332.957214 142.515204 
L 333.085542 142.520479 
L 333.646978 142.527778 
L 334.529233 142.539354 
L 388.763892 142.518675 
L 388.763892 142.518675 
" clip-path="url(#pf16dc34bf2)" style="fill: none; stroke: #225e7c; stroke-width: 1.5; stroke-linecap: square"/>
   </g>
   <g id="line2d_11">
    <path d="M 100.041733 142.427767 
L 100.747537 137.625961 
L 100.79566 137.953361 
L 106.18544 173.860824 
L 106.490219 174.485981 
L 106.682712 174.517565 
L 106.875204 174.2822 
L 107.147901 173.514847 
L 107.516844 171.72074 
L 108.463264 165.342679 
L 127.167083 38.876365 
L 127.808723 36.394437 
L 128.338077 35.134528 
L 128.787225 34.582296 
L 129.156168 34.450397 
L 129.493029 34.561108 
L 129.878014 34.934618 
L 130.359244 35.735868 
L 130.968802 37.218087 
L 131.754812 39.77256 
L 132.765396 43.875561 
L 134.209087 50.76255 
L 138.652447 72.548696 
L 140.048015 77.991792 
L 141.251091 81.833546 
L 142.341879 84.60483 
L 143.336422 86.552194 
L 144.25076 87.881322 
L 145.116974 88.764732 
L 145.935066 89.295467 
L 146.753157 89.564397 
L 147.58729 89.604215 
L 148.501628 89.418601 
L 149.544293 88.971827 
L 150.843615 88.157909 
L 152.688331 86.712847 
L 158.318726 82.159054 
L 160.323853 80.906618 
L 162.216692 79.983292 
L 164.109531 79.305645 
L 166.082576 78.835703 
L 168.21603 78.558034 
L 170.638223 78.472359 
L 173.557687 78.600418 
L 177.632104 79.021352 
L 190.352626 80.464895 
L 196.351964 80.83384 
L 197.635245 80.767692 
L 199.062895 80.466335 
L 200.715119 79.882294 
L 202.752327 78.912413 
L 205.735955 77.215613 
L 211.350309 74.007481 
L 214.494347 72.506443 
L 218.632928 70.778489 
L 225.466399 68.220005 
L 233.968135 64.950308 
L 243.448372 61.036568 
L 256.345345 55.480053 
L 280.567272 44.391354 
L 289.58232 40.299567 
L 293.881311 37.985267 
L 309.280682 29.502185 
L 322.25786 22.850665 
L 324.311109 22.076549 
L 326.284154 21.570023 
L 328.160952 21.313583 
L 330.03775 21.277282 
L 331.978713 21.460584 
L 334.048003 21.878874 
L 336.438114 22.598125 
L 339.357578 23.728037 
L 344.025512 25.812944 
L 349.559661 28.214107 
L 353.072642 29.495824 
L 356.36105 30.461935 
L 359.649457 31.19322 
L 363.098274 31.727466 
L 367.108527 32.108534 
L 372.08124 32.350996 
L 384.432819 32.876604 
L 388.763892 33.284785 
L 388.763892 33.284785 
" clip-path="url(#pf16dc34bf2)" style="fill: none; stroke: #3e915b; stroke-width: 1.5; stroke-linecap: square"/>
   </g>
   <g id="line2d_12">
    <path d="M 100.041733 142.427767 
L 100.747537 137.625978 
L 100.79566 137.953379 
L 104.068027 159.457908 
L 104.388847 160.134979 
L 104.59738 160.17862 
L 104.789872 159.959915 
L 105.062569 159.255048 
L 105.447554 157.548746 
L 106.057112 153.605475 
L 113.452018 104.054421 
L 114.157823 101.120753 
L 114.767381 99.441783 
L 115.280694 98.603847 
L 115.713801 98.280283 
L 116.082744 98.265076 
L 116.451687 98.476336 
L 116.884795 98.995097 
L 117.430189 100.031522 
L 118.103911 101.83913 
L 118.938044 104.7665 
L 119.996751 109.351254 
L 121.456483 116.749746 
L 126.65377 143.975237 
L 127.856846 148.785873 
L 128.771184 151.600082 
L 129.557193 153.3449 
L 130.246957 154.369606 
L 130.856515 154.909739 
L 131.433992 155.138066 
L 132.011468 155.125814 
L 132.637068 154.883216 
L 133.390995 154.336965 
L 134.369497 153.32757 
L 135.797147 151.498387 
L 143.384545 141.315547 
L 147.202306 136.754178 
L 149.833031 133.931802 
L 151.87024 132.06018 
L 153.61871 130.744759 
L 155.174688 129.842272 
L 156.63442 129.249918 
L 158.06207 128.910816 
L 159.505761 128.798507 
L 161.013616 128.906074 
L 162.66584 129.250589 
L 164.574721 129.883338 
L 166.980872 130.929525 
L 171.07133 132.995752 
L 175.915716 135.367721 
L 179.284328 136.764626 
L 182.540653 137.874293 
L 185.989471 138.811671 
L 189.999723 139.662962 
L 195.598036 140.602263 
L 198.084393 141.097826 
L 199.640371 141.667368 
L 201.244472 142.499184 
L 203.073147 143.710952 
L 205.463258 145.583614 
L 215.6493 153.864432 
L 222.370484 158.770141 
L 228.097125 162.691382 
L 234.272914 166.636014 
L 259.521465 182.465127 
L 279.171704 195.761301 
L 292.309292 204.523901 
L 298.084056 208.87304 
L 308.382385 216.604018 
L 319.290273 224.464263 
L 323.557182 227.361723 
L 325.802923 228.594435 
L 327.824091 229.456378 
L 329.797135 230.056219 
L 331.754139 230.419101 
L 333.791347 230.567755 
L 335.940842 230.500039 
L 338.330953 230.196778 
L 341.122089 229.607755 
L 344.827563 228.579051 
L 353.66616 226.045636 
L 357.050813 225.362846 
L 360.162769 224.960728 
L 363.242643 224.786456 
L 366.466887 224.828108 
L 370.044032 225.09918 
L 374.471351 225.667973 
L 388.763892 227.731675 
L 388.763892 227.731675 
" clip-path="url(#pf16dc34bf2)" style="fill: none; stroke: #8eac56; stroke-width: 1.5; stroke-linecap: square"/>
   </g>
   <g id="line2d_13">
    <path d="M 100.041733 142.427764 
L 100.747537 137.625873 
L 100.79566 137.953269 
L 105.303185 167.864928 
L 106.02503 170.794017 
L 106.682712 172.620978 
L 107.260188 173.639663 
L 107.7735 174.134 
L 108.270772 174.314323 
L 108.864289 174.278074 
L 110.179652 173.878486 
L 110.997744 173.791025 
L 111.719589 173.936833 
L 112.409353 174.308848 
L 113.099116 174.943754 
L 113.885126 175.988607 
L 114.815504 177.618899 
L 115.954416 180.092673 
L 117.622681 184.311628 
L 120.686514 192.104346 
L 121.905631 194.569174 
L 122.884133 196.081663 
L 123.718265 196.983738 
L 124.440111 197.450542 
L 125.081751 197.609767 
L 125.69131 197.533614 
L 126.316909 197.224311 
L 127.006673 196.617463 
L 127.808723 195.595006 
L 128.755143 194.005215 
L 129.717604 191.941889 
L 130.744228 189.184317 
L 131.915222 185.356944 
L 133.390995 179.704946 
L 139.438456 155.588449 
L 140.866106 151.27682 
L 142.165428 148.036708 
L 143.368504 145.611536 
L 144.507416 143.797817 
L 145.598205 142.465408 
L 146.656911 141.513724 
L 147.699577 140.868001 
L 148.758284 140.470191 
L 149.865113 140.291072 
L 151.068189 140.323255 
L 152.447716 140.589072 
L 154.148063 141.157087 
L 156.810871 142.309305 
L 162.489389 144.810124 
L 164.975746 145.627432 
L 167.237529 146.139109 
L 169.435147 146.407952 
L 171.664848 146.45539 
L 174.038917 146.279786 
L 176.685684 145.855477 
L 179.893886 145.105346 
L 184.642026 143.739748 
L 194.170386 140.979472 
L 198.03627 139.848405 
L 200.330134 138.790192 
L 213.692297 132.054247 
L 216.643843 130.189171 
L 220.686178 127.348078 
L 230.727851 119.912289 
L 240.833688 112.583428 
L 267.221151 93.703103 
L 279.235868 84.670211 
L 290.480617 75.993912 
L 304.003189 64.774441 
L 316.563301 54.123442 
L 323.140116 48.649986 
L 325.59439 46.976981 
L 328.096788 45.535591 
L 330.631268 44.326066 
L 333.229912 43.332218 
L 335.860637 42.566815 
L 338.523445 42.02266 
L 341.362704 41.670032 
L 344.63507 41.497832 
L 348.741569 41.515289 
L 360.098605 41.661091 
L 364.205104 41.408647 
L 368.231398 40.931548 
L 372.482266 40.192501 
L 377.519143 39.072865 
L 386.069002 36.902302 
L 388.763892 36.226605 
L 388.763892 36.226605 
" clip-path="url(#pf16dc34bf2)" style="fill: none; stroke: #c4a46f; stroke-width: 1.5; stroke-linecap: square"/>
   </g>
   <g id="patch_3">
    <path d="M 85.605625 241.036875 
L 85.605625 10.8 
" style="fill: none; stroke: #000000; stroke-width: 0.8; stroke-linejoin: miter; stroke-linecap: square"/>
   </g>
   <g id="patch_4">
    <path d="M 403.2 241.036875 
L 403.2 10.8 
" style="fill: none; stroke: #000000; stroke-width: 0.8; stroke-linejoin: miter; stroke-linecap: square"/>
   </g>
   <g id="patch_5">
    <path d="M 85.605625 241.036875 
L 403.2 241.036875 
" style="fill: none; stroke: #000000; stroke-width: 0.8; stroke-linejoin: miter; stroke-linecap: square"/>
   </g>
   <g id="patch_6">
    <path d="M 85.605625 10.8 
L 403.2 10.8 
" style="fill: none; stroke: #000000; stroke-width: 0.8; stroke-linejoin: miter; stroke-linecap: square"/>
   </g>
   <g id="legend_1">
    <g id="patch_7">
     <path d="M 356.85 70.84125 
L 396.9 70.84125 
Q 398.7 70.84125 398.7 69.04125 
L 398.7 17.1 
Q 398.7 15.3 396.9 15.3 
L 356.85 15.3 
Q 355.05 15.3 355.05 17.1 
L 355.05 69.04125 
Q 355.05 70.84125 356.85 70.84125 
z
" style="fill: #ffffff; opacity: 0.8; stroke: #cccccc; stroke-linejoin: miter"/>
    </g>
    <g id="line2d_14">
     <path d="M 358.65 22.588594 
L 367.65 22.588594 
L 376.65 22.588594 
" style="fill: none; stroke: #225e7c; stroke-width: 1.5; stroke-linecap: square"/>
    </g>
    <g id="text_12">
     <!-- $\Omega_{0}$ -->
     <g transform="translate(383.85 25.738594) scale(0.09 -0.09)">
      <defs>
       <path id="DejaVuSans-3a9" d="M 4647 556 
L 4647 0 
L 2772 0 
L 2772 556 
Q 3325 859 3634 1378 
Q 3944 1897 3944 2528 
Q 3944 3278 3531 3731 
Q 3119 4184 2444 4184 
Q 1769 4184 1355 3729 
Q 941 3275 941 2528 
Q 941 1897 1250 1378 
Q 1563 859 2119 556 
L 2119 0 
L 244 0 
L 244 556 
L 1241 556 
Q 747 991 519 1456 
Q 294 1922 294 2497 
Q 294 3491 894 4106 
Q 1491 4722 2444 4722 
Q 3391 4722 3994 4106 
Q 4594 3494 4594 2528 
Q 4594 1922 4372 1459 
Q 4150 997 3647 556 
L 4647 556 
z
" transform="scale(0.015625)"/>
      </defs>
      <use xlink:href="#DejaVuSans-3a9" transform="translate(0 0.21875)"/>
      <use xlink:href="#DejaVuSans-30" transform="translate(77.373047 -16.1875) scale(0.7)"/>
     </g>
    </g>
    <g id="line2d_15">
     <path d="M 358.65 35.798906 
L 367.65 35.798906 
L 376.65 35.798906 
" style="fill: none; stroke: #3e915b; stroke-width: 1.5; stroke-linecap: square"/>
    </g>
    <g id="text_13">
     <!-- $\Omega_{1}$ -->
     <g transform="translate(383.85 38.948906) scale(0.09 -0.09)">
      <use xlink:href="#DejaVuSans-3a9" transform="translate(0 0.21875)"/>
      <use xlink:href="#DejaVuSans-31" transform="translate(77.373047 -16.1875) scale(0.7)"/>
     </g>
    </g>
    <g id="line2d_16">
     <path d="M 358.65 49.009219 
L 367.65 49.009219 
L 376.65 49.009219 
" style="fill: none; stroke: #8eac56; stroke-width: 1.5; stroke-linecap: square"/>
    </g>
    <g id="text_14">
     <!-- $\Omega_{2}$ -->
     <g transform="translate(383.85 52.159219) scale(0.09 -0.09)">
      <use xlink:href="#DejaVuSans-3a9" transform="translate(0 0.21875)"/>
      <use xlink:href="#DejaVuSans-32" transform="translate(77.373047 -16.1875) scale(0.7)"/>
     </g>
    </g>
    <g id="line2d_17">
     <path d="M 358.65 62.219531 
L 367.65 62.219531 
L 376.65 62.219531 
" style="fill: none; stroke: #c4a46f; stroke-width: 1.5; stroke-linecap: square"/>
    </g>
    <g id="text_15">
     <!-- $\Omega_{3}$ -->
     <g transform="translate(383.85 65.369531) scale(0.09 -0.09)">
      <use xlink:href="#DejaVuSans-3a9" transform="translate(0 0.21875)"/>
      <use xlink:href="#DejaVuSans-33" transform="translate(77.373047 -16.1875) scale(0.7)"/>
     </g>
    </g>
   </g>
  </g>
 </g>
 <defs>
  <clipPath id="pf16dc34bf2">
   <rect x="85.605625" y="10.8" width="317.594375" height="230.236875"/>
  </clipPath>
 </defs>
</svg>
