<?xml version="1.0" encoding="utf-8" standalone="no"?>
<!DOCTYPE svg PUBLIC "-//W3C//DTD SVG 1.1//EN"
  "http://www.w3.org/Graphics/SVG/1.1/DTD/svg11.dtd">
<svg xmlns:xlink="http://www.w3.org/1999/xlink" width="414pt" height="180pt" viewBox="0 0 414 180" xmlns="http://www.w3.org/2000/svg" version="1.1">
 <metadata>
  <rdf:RDF xmlns:dc="http://purl.org/dc/elements/1.1/" xmlns:cc="http://creativecommons.org/ns#" xmlns:rdf="http://www.w3.org/1999/02/22-rdf-syntax-ns#">
   <cc:Work>
    <dc:type rdf:resource="http://purl.org/dc/dcmitype/StillImage"/>
    <dc:date>2026-04-02T23:00:06.076765</dc:date>
    <dc:format>image/svg+xml</dc:format>
    <dc:creator>
     <cc:Agent>
      <dc:title>Matplotlib v3.10.7, https://matplotlib.org/</dc:title>
     </cc:Agent>
    </dc:creator>
   </cc:Work>
  </rdf:RDF>
 </metadata>
 <defs>
  <style type="text/css">*{stroke-linejoin: round; stroke-linecap: butt}</style>
 </defs>
 <g id="figure_1">
  <g id="patch_1">
   <path d="M 0 180 
L 414 180 
L 414 0 
L 0 0 
L 0 180 
z
" style="fill: none"/>
  </g>
  <g id="axes_1">
   <g id="patch_2">
    <path d="M 57.243438 139.811563 
L 403.2 139.811563 
L 403.2 10.8 
L 57.243438 10.8 
L 57.243438 139.811563 
z
" style="fill: none"/>
   </g>
   <g id="matplotlib.axis_1">
    <g id="xtick_1">
     <g id="line2d_1">
      <defs>
       <path id="m8be3528839" d="M 0 0 
L 0 3.5 
" style="stroke: #000000; stroke-width: 0.8"/>
      </defs>
      <g>
       <use xlink:href="#m8be3528839" x="72.968736" y="139.811563" style="stroke: #000000; stroke-width: 0.8"/>
      </g>
     </g>
     <g id="text_1">
      <!-- 0 -->
      <g transform="translate(70.105611 153.650156) scale(0.09 -0.09)">
       <defs>
        <path id="DejaVuSans-30" d="M 2034 4250 
Q 1547 4250 1301 3770 
Q 1056 3291 1056 2328 
Q 1056 1369 1301 889 
Q 1547 409 2034 409 
Q 2525 409 2770 889 
Q 3016 1369 3016 2328 
Q 3016 3291 2770 3770 
Q 2525 4250 2034 4250 
z
M 2034 4750 
Q 2819 4750 3233 4129 
Q 3647 3509 3647 2328 
Q 3647 1150 3233 529 
Q 2819 -91 2034 -91 
Q 1250 -91 836 529 
Q 422 1150 422 2328 
Q 422 3509 836 4129 
Q 1250 4750 2034 4750 
z
" transform="scale(0.015625)"/>
       </defs>
       <use xlink:href="#DejaVuSans-30"/>
      </g>
     </g>
    </g>
    <g id="xtick_2">
     <g id="line2d_2">
      <g>
       <use xlink:href="#m8be3528839" x="112.281982" y="139.811563" style="stroke: #000000; stroke-width: 0.8"/>
      </g>
     </g>
     <g id="text_2">
      <!-- 250 -->
      <g transform="translate(103.692607 153.650156) scale(0.09 -0.09)">
       <defs>
        <path id="DejaVuSans-32" d="M 1228 531 
L 3431 531 
L 3431 0 
L 469 0 
L 469 531 
Q 828 903 1448 1529 
Q 2069 2156 2228 2338 
Q 2531 2678 2651 2914 
Q 2772 3150 2772 3378 
Q 2772 3750 2511 3984 
Q 2250 4219 1831 4219 
Q 1534 4219 1204 4116 
Q 875 4013 500 3803 
L 500 4441 
Q 881 4594 1212 4672 
Q 1544 4750 1819 4750 
Q 2544 4750 2975 4387 
Q 3406 4025 3406 3419 
Q 3406 3131 3298 2873 
Q 3191 2616 2906 2266 
Q 2828 2175 2409 1742 
Q 1991 1309 1228 531 
z
" transform="scale(0.015625)"/>
        <path id="DejaVuSans-35" d="M 691 4666 
L 3169 4666 
L 3169 4134 
L 1269 4134 
L 1269 2991 
Q 1406 3038 1543 3061 
Q 1681 3084 1819 3084 
Q 2600 3084 3056 2656 
Q 3513 2228 3513 1497 
Q 3513 744 3044 326 
Q 2575 -91 1722 -91 
Q 1428 -91 1123 -41 
Q 819 9 494 109 
L 494 744 
Q 775 591 1075 516 
Q 1375 441 1709 441 
Q 2250 441 2565 725 
Q 2881 1009 2881 1497 
Q 2881 1984 2565 2268 
Q 2250 2553 1709 2553 
Q 1456 2553 1204 2497 
Q 953 2441 691 2322 
L 691 4666 
z
" transform="scale(0.015625)"/>
       </defs>
       <use xlink:href="#DejaVuSans-32"/>
       <use xlink:href="#DejaVuSans-35" transform="translate(63.623047 0)"/>
       <use xlink:href="#DejaVuSans-30" transform="translate(127.246094 0)"/>
      </g>
     </g>
    </g>
    <g id="xtick_3">
     <g id="line2d_3">
      <g>
       <use xlink:href="#m8be3528839" x="151.595227" y="139.811563" style="stroke: #000000; stroke-width: 0.8"/>
      </g>
     </g>
     <g id="text_3">
      <!-- 500 -->
      <g transform="translate(143.005852 153.650156) scale(0.09 -0.09)">
       <use xlink:href="#DejaVuSans-35"/>
       <use xlink:href="#DejaVuSans-30" transform="translate(63.623047 0)"/>
       <use xlink:href="#DejaVuSans-30" transform="translate(127.246094 0)"/>
      </g>
     </g>
    </g>
    <g id="xtick_4">
     <g id="line2d_4">
      <g>
       <use xlink:href="#m8be3528839" x="190.908473" y="139.811563" style="stroke: #000000; stroke-width: 0.8"/>
      </g>
     </g>
     <g id="text_4">
      <!-- 750 -->
      <g transform="translate(182.319098 153.650156) scale(0.09 -0.09)">
       <defs>
        <path id="DejaVuSans-37" d="M 525 4666 
L 3525 4666 
L 3525 4397 
L 1831 0 
L 1172 0 
L 2766 4134 
L 525 4134 
L 525 4666 
z
" transform="scale(0.015625)"/>
       </defs>
       <use xlink:href="#DejaVuSans-37"/>
       <use xlink:href="#DejaVuSans-35" transform="translate(63.623047 0)"/>
       <use xlink:href="#DejaVuSans-30" transform="translate(127.246094 0)"/>
      </g>
     </g>
    </g>
    <g id="xtick_5">
     <g id="line2d_5">
      <g>
       <use xlink:href="#m8be3528839" x="230.221719" y="139.811563" style="stroke: #000000; stroke-width: 0.8"/>
      </g>
     </g>
     <g id="text_5">
      <!-- 1000 -->
      <g transform="translate(218.769219 153.650156) scale(0.09 -0.09)">
       <defs>
        <path id="DejaVuSans-31" d="M 794 531 
L 1825 531 
L 1825 4091 
L 703 3866 
L 703 4441 
L 1819 4666 
L 2450 4666 
L 2450 531 
L 3481 531 
L 3481 0 
L 794 0 
L 794 531 
z
" transform="scale(0.015625)"/>
       </defs>
       <use xlink:href="#DejaVuSans-31"/>
       <use xlink:href="#DejaVuSans-30" transform="translate(63.623047 0)"/>
       <use xlink:href="#DejaVuSans-30" transform="translate(127.246094 0)"/>
       <use xlink:href="#DejaVuSans-30" transform="translate(190.869141 0)"/>
      </g>
     </g>
    </g>
    <g id="xtick_6">
     <g id="line2d_6">
      <g>
       <use xlink:href="#m8be3528839" x="269.534964" y="139.811563" style="stroke: #000000; stroke-width: 0.8"/>
      </g>
     </g>
     <g id="text_6">
      <!-- 1250 -->
      <g transform="translate(258.082464 153.650156) scale(0.09 -0.09)">
       <use xlink:href="#DejaVuSans-31"/>
       <use xlink:href="#DejaVuSans-32" transform="translate(63.623047 0)"/>
       <use xlink:href="#DejaVuSans-35" transform="translate(127.246094 0)"/>
       <use xlink:href="#DejaVuSans-30" transform="translate(190.869141 0)"/>
      </g>
     </g>
    </g>
    <g id="xtick_7">
     <g id="line2d_7">
      <g>
       <use xlink:href="#m8be3528839" x="308.84821" y="139.811563" style="stroke: #000000; stroke-width: 0.8"/>
      </g>
     </g>
     <g id="text_7">
      <!-- 1500 -->
      <g transform="translate(297.39571 153.650156) scale(0.09 -0.09)">
       <use xlink:href="#DejaVuSans-31"/>
       <use xlink:href="#DejaVuSans-35" transform="translate(63.623047 0)"/>
       <use xlink:href="#DejaVuSans-30" transform="translate(127.246094 0)"/>
       <use xlink:href="#DejaVuSans-30" transform="translate(190.869141 0)"/>
      </g>
     </g>
    </g>
    <g id="xtick_8">
     <g id="line2d_8">
      <g>
       <use xlink:href="#m8be3528839" x="348.161456" y="139.811563" style="stroke: #000000; stroke-width: 0.8"/>
      </g>
     </g>
     <g id="text_8">
      <!-- 1750 -->
      <g transform="translate(336.708956 153.650156) scale(0.09 -0.09)">
       <use xlink:href="#DejaVuSans-31"/>
       <use xlink:href="#DejaVuSans-37" transform="translate(63.623047 0)"/>
       <use xlink:href="#DejaVuSans-35" transform="translate(127.246094 0)"/>
       <use xlink:href="#DejaVuSans-30" transform="translate(190.869141 0)"/>
      </g>
     </g>
    </g>
    <g id="xtick_9">
     <g id="line2d_9">
      <g>
       <use xlink:href="#m8be3528839" x="387.474702" y="139.811563" style="stroke: #000000; stroke-width: 0.8"/>
      </g>
     </g>
     <g id="text_9">
      <!-- 2000 -->
      <g transform="translate(376.022202 153.650156) scale(0.09 -0.09)">
       <use xlink:href="#DejaVuSans-32"/>
       <use xlink:href="#DejaVuSans-30" transform="translate(63.623047 0)"/>
       <use xlink:href="#DejaVuSans-30" transform="translate(127.246094 0)"/>
       <use xlink:href="#DejaVuSans-30" transform="translate(190.869141 0)"/>
      </g>
     </g>
    </g>
    <g id="text_10">
     <!-- Time [s] -->
     <g transform="translate(209.892812 167.120313) scale(0.1 -0.1)">
      <defs>
       <path id="DejaVuSans-54" d="M -19 4666 
L 3928 4666 
L 3928 4134 
L 2272 4134 
L 2272 0 
L 1638 0 
L 1638 4134 
L -19 4134 
L -19 4666 
z
" transform="scale(0.015625)"/>
       <path id="DejaVuSans-69" d="M 603 3500 
L 1178 3500 
L 1178 0 
L 603 0 
L 603 3500 
z
M 603 4863 
L 1178 4863 
L 1178 4134 
L 603 4134 
L 603 4863 
z
" transform="scale(0.015625)"/>
       <path id="DejaVuSans-6d" d="M 3328 2828 
Q 3544 3216 3844 3400 
Q 4144 3584 4550 3584 
Q 5097 3584 5394 3201 
Q 5691 2819 5691 2113 
L 5691 0 
L 5113 0 
L 5113 2094 
Q 5113 2597 4934 2840 
Q 4756 3084 4391 3084 
Q 3944 3084 3684 2787 
Q 3425 2491 3425 1978 
L 3425 0 
L 2847 0 
L 2847 2094 
Q 2847 2600 2669 2842 
Q 2491 3084 2119 3084 
Q 1678 3084 1418 2786 
Q 1159 2488 1159 1978 
L 1159 0 
L 581 0 
L 581 3500 
L 1159 3500 
L 1159 2956 
Q 1356 3278 1631 3431 
Q 1906 3584 2284 3584 
Q 2666 3584 2933 3390 
Q 3200 3197 3328 2828 
z
" transform="scale(0.015625)"/>
       <path id="DejaVuSans-65" d="M 3597 1894 
L 3597 1613 
L 953 1613 
Q 991 1019 1311 708 
Q 1631 397 2203 397 
Q 2534 397 2845 478 
Q 3156 559 3463 722 
L 3463 178 
Q 3153 47 2828 -22 
Q 2503 -91 2169 -91 
Q 1331 -91 842 396 
Q 353 884 353 1716 
Q 353 2575 817 3079 
Q 1281 3584 2069 3584 
Q 2775 3584 3186 3129 
Q 3597 2675 3597 1894 
z
M 3022 2063 
Q 3016 2534 2758 2815 
Q 2500 3097 2075 3097 
Q 1594 3097 1305 2825 
Q 1016 2553 972 2059 
L 3022 2063 
z
" transform="scale(0.015625)"/>
       <path id="DejaVuSans-20" transform="scale(0.015625)"/>
       <path id="DejaVuSans-5b" d="M 550 4863 
L 1875 4863 
L 1875 4416 
L 1125 4416 
L 1125 -397 
L 1875 -397 
L 1875 -844 
L 550 -844 
L 550 4863 
z
" transform="scale(0.015625)"/>
       <path id="DejaVuSans-73" d="M 2834 3397 
L 2834 2853 
Q 2591 2978 2328 3040 
Q 2066 3103 1784 3103 
Q 1356 3103 1142 2972 
Q 928 2841 928 2578 
Q 928 2378 1081 2264 
Q 1234 2150 1697 2047 
L 1894 2003 
Q 2506 1872 2764 1633 
Q 3022 1394 3022 966 
Q 3022 478 2636 193 
Q 2250 -91 1575 -91 
Q 1294 -91 989 -36 
Q 684 19 347 128 
L 347 722 
Q 666 556 975 473 
Q 1284 391 1588 391 
Q 1994 391 2212 530 
Q 2431 669 2431 922 
Q 2431 1156 2273 1281 
Q 2116 1406 1581 1522 
L 1381 1569 
Q 847 1681 609 1914 
Q 372 2147 372 2553 
Q 372 3047 722 3315 
Q 1072 3584 1716 3584 
Q 2034 3584 2315 3537 
Q 2597 3491 2834 3397 
z
" transform="scale(0.015625)"/>
       <path id="DejaVuSans-5d" d="M 1947 4863 
L 1947 -844 
L 622 -844 
L 622 -397 
L 1369 -397 
L 1369 4416 
L 622 4416 
L 622 4863 
L 1947 4863 
z
" transform="scale(0.015625)"/>
      </defs>
      <use xlink:href="#DejaVuSans-54"/>
      <use xlink:href="#DejaVuSans-69" transform="translate(57.958984 0)"/>
      <use xlink:href="#DejaVuSans-6d" transform="translate(85.742188 0)"/>
      <use xlink:href="#DejaVuSans-65" transform="translate(183.154297 0)"/>
      <use xlink:href="#DejaVuSans-20" transform="translate(244.677734 0)"/>
      <use xlink:href="#DejaVuSans-5b" transform="translate(276.464844 0)"/>
      <use xlink:href="#DejaVuSans-73" transform="translate(315.478516 0)"/>
      <use xlink:href="#DejaVuSans-5d" transform="translate(367.578125 0)"/>
     </g>
    </g>
   </g>
   <g id="matplotlib.axis_2">
    <g id="ytick_1">
     <g id="line2d_10">
      <defs>
       <path id="mfc65cd88ac" d="M 0 0 
L -3.5 0 
" style="stroke: #000000; stroke-width: 0.8"/>
      </defs>
      <g>
       <use xlink:href="#mfc65cd88ac" x="57.243438" y="133.947401" style="stroke: #000000; stroke-width: 0.8"/>
      </g>
     </g>
     <g id="text_11">
      <!-- 0.000 -->
      <g transform="translate(24.478125 137.366697) scale(0.09 -0.09)">
       <defs>
        <path id="DejaVuSans-2e" d="M 684 794 
L 1344 794 
L 1344 0 
L 684 0 
L 684 794 
z
" transform="scale(0.015625)"/>
       </defs>
       <use xlink:href="#DejaVuSans-30"/>
       <use xlink:href="#DejaVuSans-2e" transform="translate(63.623047 0)"/>
       <use xlink:href="#DejaVuSans-30" transform="translate(95.410156 0)"/>
       <use xlink:href="#DejaVuSans-30" transform="translate(159.033203 0)"/>
       <use xlink:href="#DejaVuSans-30" transform="translate(222.65625 0)"/>
      </g>
     </g>
    </g>
    <g id="ytick_2">
     <g id="line2d_11">
      <g>
       <use xlink:href="#mfc65cd88ac" x="57.243438" y="100.560711" style="stroke: #000000; stroke-width: 0.8"/>
      </g>
     </g>
     <g id="text_12">
      <!-- 0.005 -->
      <g transform="translate(24.478125 103.980008) scale(0.09 -0.09)">
       <use xlink:href="#DejaVuSans-30"/>
       <use xlink:href="#DejaVuSans-2e" transform="translate(63.623047 0)"/>
       <use xlink:href="#DejaVuSans-30" transform="translate(95.410156 0)"/>
       <use xlink:href="#DejaVuSans-30" transform="translate(159.033203 0)"/>
       <use xlink:href="#DejaVuSans-35" transform="translate(222.65625 0)"/>
      </g>
     </g>
    </g>
    <g id="ytick_3">
     <g id="line2d_12">
      <g>
       <use xlink:href="#mfc65cd88ac" x="57.243438" y="67.174021" style="stroke: #000000; stroke-width: 0.8"/>
      </g>
     </g>
     <g id="text_13">
      <!-- 0.010 -->
      <g transform="translate(24.478125 70.593318) scale(0.09 -0.09)">
       <use xlink:href="#DejaVuSans-30"/>
       <use xlink:href="#DejaVuSans-2e" transform="translate(63.623047 0)"/>
       <use xlink:href="#DejaVuSans-30" transform="translate(95.410156 0)"/>
       <use xlink:href="#DejaVuSans-31" transform="translate(159.033203 0)"/>
       <use xlink:href="#DejaVuSans-30" transform="translate(222.65625 0)"/>
      </g>
     </g>
    </g>
    <g id="ytick_4">
     <g id="line2d_13">
      <g>
       <use xlink:href="#mfc65cd88ac" x="57.243438" y="33.787331" style="stroke: #000000; stroke-width: 0.8"/>
      </g>
     </g>
     <g id="text_14">
      <!-- 0.015 -->
      <g transform="translate(24.478125 37.206628) scale(0.09 -0.09)">
       <use xlink:href="#DejaVuSans-30"/>
       <use xlink:href="#DejaVuSans-2e" transform="translate(63.623047 0)"/>
       <use xlink:href="#DejaVuSans-30" transform="translate(95.410156 0)"/>
       <use xlink:href="#DejaVuSans-31" transform="translate(159.033203 0)"/>
       <use xlink:href="#DejaVuSans-35" transform="translate(222.65625 0)"/>
      </g>
     </g>
    </g>
    <g id="text_15">
     <!-- Instrument's signal -->
     <g transform="translate(18.398438 123.172188) rotate(-90) scale(0.1 -0.1)">
      <defs>
       <path id="DejaVuSans-49" d="M 628 4666 
L 1259 4666 
L 1259 0 
L 628 0 
L 628 4666 
z
" transform="scale(0.015625)"/>
       <path id="DejaVuSans-6e" d="M 3513 2113 
L 3513 0 
L 2938 0 
L 2938 2094 
Q 2938 2591 2744 2837 
Q 2550 3084 2163 3084 
Q 1697 3084 1428 2787 
Q 1159 2491 1159 1978 
L 1159 0 
L 581 0 
L 581 3500 
L 1159 3500 
L 1159 2956 
Q 1366 3272 1645 3428 
Q 1925 3584 2291 3584 
Q 2894 3584 3203 3211 
Q 3513 2838 3513 2113 
z
" transform="scale(0.015625)"/>
       <path id="DejaVuSans-74" d="M 1172 4494 
L 1172 3500 
L 2356 3500 
L 2356 3053 
L 1172 3053 
L 1172 1153 
Q 1172 725 1289 603 
Q 1406 481 1766 481 
L 2356 481 
L 2356 0 
L 1766 0 
Q 1100 0 847 248 
Q 594 497 594 1153 
L 594 3053 
L 172 3053 
L 172 3500 
L 594 3500 
L 594 4494 
L 1172 4494 
z
" transform="scale(0.015625)"/>
       <path id="DejaVuSans-72" d="M 2631 2963 
Q 2534 3019 2420 3045 
Q 2306 3072 2169 3072 
Q 1681 3072 1420 2755 
Q 1159 2438 1159 1844 
L 1159 0 
L 581 0 
L 581 3500 
L 1159 3500 
L 1159 2956 
Q 1341 3275 1631 3429 
Q 1922 3584 2338 3584 
Q 2397 3584 2469 3576 
Q 2541 3569 2628 3553 
L 2631 2963 
z
" transform="scale(0.015625)"/>
       <path id="DejaVuSans-75" d="M 544 1381 
L 544 3500 
L 1119 3500 
L 1119 1403 
Q 1119 906 1312 657 
Q 1506 409 1894 409 
Q 2359 409 2629 706 
Q 2900 1003 2900 1516 
L 2900 3500 
L 3475 3500 
L 3475 0 
L 2900 0 
L 2900 538 
Q 2691 219 2414 64 
Q 2138 -91 1772 -91 
Q 1169 -91 856 284 
Q 544 659 544 1381 
z
M 1991 3584 
L 1991 3584 
z
" transform="scale(0.015625)"/>
       <path id="DejaVuSans-27" d="M 1147 4666 
L 1147 2931 
L 616 2931 
L 616 4666 
L 1147 4666 
z
" transform="scale(0.015625)"/>
       <path id="DejaVuSans-67" d="M 2906 1791 
Q 2906 2416 2648 2759 
Q 2391 3103 1925 3103 
Q 1463 3103 1205 2759 
Q 947 2416 947 1791 
Q 947 1169 1205 825 
Q 1463 481 1925 481 
Q 2391 481 2648 825 
Q 2906 1169 2906 1791 
z
M 3481 434 
Q 3481 -459 3084 -895 
Q 2688 -1331 1869 -1331 
Q 1566 -1331 1297 -1286 
Q 1028 -1241 775 -1147 
L 775 -588 
Q 1028 -725 1275 -790 
Q 1522 -856 1778 -856 
Q 2344 -856 2625 -561 
Q 2906 -266 2906 331 
L 2906 616 
Q 2728 306 2450 153 
Q 2172 0 1784 0 
Q 1141 0 747 490 
Q 353 981 353 1791 
Q 353 2603 747 3093 
Q 1141 3584 1784 3584 
Q 2172 3584 2450 3431 
Q 2728 3278 2906 2969 
L 2906 3500 
L 3481 3500 
L 3481 434 
z
" transform="scale(0.015625)"/>
       <path id="DejaVuSans-61" d="M 2194 1759 
Q 1497 1759 1228 1600 
Q 959 1441 959 1056 
Q 959 750 1161 570 
Q 1363 391 1709 391 
Q 2188 391 2477 730 
Q 2766 1069 2766 1631 
L 2766 1759 
L 2194 1759 
z
M 3341 1997 
L 3341 0 
L 2766 0 
L 2766 531 
Q 2569 213 2275 61 
Q 1981 -91 1556 -91 
Q 1019 -91 701 211 
Q 384 513 384 1019 
Q 384 1609 779 1909 
Q 1175 2209 1959 2209 
L 2766 2209 
L 2766 2266 
Q 2766 2663 2505 2880 
Q 2244 3097 1772 3097 
Q 1472 3097 1187 3025 
Q 903 2953 641 2809 
L 641 3341 
Q 956 3463 1253 3523 
Q 1550 3584 1831 3584 
Q 2591 3584 2966 3190 
Q 3341 2797 3341 1997 
z
" transform="scale(0.015625)"/>
       <path id="DejaVuSans-6c" d="M 603 4863 
L 1178 4863 
L 1178 0 
L 603 0 
L 603 4863 
z
" transform="scale(0.015625)"/>
      </defs>
      <use xlink:href="#DejaVuSans-49"/>
      <use xlink:href="#DejaVuSans-6e" transform="translate(29.492188 0)"/>
      <use xlink:href="#DejaVuSans-73" transform="translate(92.871094 0)"/>
      <use xlink:href="#DejaVuSans-74" transform="translate(144.970703 0)"/>
      <use xlink:href="#DejaVuSans-72" transform="translate(184.179688 0)"/>
      <use xlink:href="#DejaVuSans-75" transform="translate(225.292969 0)"/>
      <use xlink:href="#DejaVuSans-6d" transform="translate(288.671875 0)"/>
      <use xlink:href="#DejaVuSans-65" transform="translate(386.083984 0)"/>
      <use xlink:href="#DejaVuSans-6e" transform="translate(447.607422 0)"/>
      <use xlink:href="#DejaVuSans-74" transform="translate(510.986328 0)"/>
      <use xlink:href="#DejaVuSans-27" transform="translate(550.195312 0)"/>
      <use xlink:href="#DejaVuSans-73" transform="translate(577.685547 0)"/>
      <use xlink:href="#DejaVuSans-20" transform="translate(629.785156 0)"/>
      <use xlink:href="#DejaVuSans-73" transform="translate(661.572266 0)"/>
      <use xlink:href="#DejaVuSans-69" transform="translate(713.671875 0)"/>
      <use xlink:href="#DejaVuSans-67" transform="translate(741.455078 0)"/>
      <use xlink:href="#DejaVuSans-6e" transform="translate(804.931641 0)"/>
      <use xlink:href="#DejaVuSans-61" transform="translate(868.310547 0)"/>
      <use xlink:href="#DejaVuSans-6c" transform="translate(929.589844 0)"/>
     </g>
    </g>
   </g>
   <g id="line2d_14">
    <path d="M 72.968736 133.947401 
L 76.90006 133.945848 
L 80.831385 133.944576 
L 84.76271 133.943833 
L 88.694034 133.943759 
L 92.625359 132.339654 
L 96.556683 97.934694 
L 100.488008 56.691779 
L 104.419332 26.02004 
L 108.350657 16.664162 
L 112.281982 29.288893 
L 116.213306 61.525058 
L 120.144631 109.770495 
L 124.075955 130.138589 
L 128.00728 133.947401 
L 131.938604 133.946454 
L 135.869929 133.945032 
L 139.801254 133.944055 
L 143.732578 133.943704 
L 147.663903 133.944046 
L 151.595227 114.279929 
L 155.526552 133.946384 
L 159.457876 122.185568 
L 163.389201 120.252085 
L 167.320526 121.921665 
L 171.25185 124.741226 
L 175.183175 127.750284 
L 179.114499 130.490624 
L 183.045824 132.731317 
L 186.977148 133.947401 
L 190.908473 133.944151 
L 194.839798 133.941687 
L 198.771122 133.940023 
L 202.702447 133.939611 
L 206.633771 133.940728 
L 210.565096 133.9434 
L 214.49642 133.947401 
L 218.427745 133.498515 
L 222.35907 133.238607 
L 226.290394 133.150928 
L 230.221719 133.217517 
L 234.153043 133.39963 
L 238.084368 133.647019 
L 242.015692 133.947401 
L 245.947017 133.93981 
L 249.878342 133.929385 
L 253.809666 133.919871 
L 257.740991 133.913541 
L 261.672315 133.912829 
L 265.60364 133.920034 
L 269.534964 133.93697 
L 273.466289 133.860758 
L 277.397614 133.751378 
L 281.328938 133.689389 
L 285.260263 133.680262 
L 289.191587 133.719776 
L 293.122912 133.79578 
L 297.054237 133.89109 
L 300.985561 133.947401 
L 304.916886 132.169588 
L 308.84821 115.018332 
L 312.779535 100.459992 
L 316.710859 92.392461 
L 320.642184 92.111688 
L 324.573509 99.670303 
L 328.504833 114.12621 
L 332.436158 129.925264 
L 336.367482 133.786923 
L 340.298807 133.755459 
L 344.230131 133.759963 
L 348.161456 133.799589 
L 352.092781 133.866913 
L 356.024105 133.947401 
L 359.95543 133.098379 
L 363.886754 123.221439 
L 367.818079 105.572503 
L 371.749403 94.738752 
L 375.680728 91.252095 
L 379.612053 95.765894 
L 383.543377 107.569066 
L 387.474702 124.202513 
" clip-path="url(#p0a1d855184)" style="fill: none; stroke: #2b737e; stroke-opacity: 0.7; stroke-width: 2; stroke-linecap: square"/>
   </g>
   <g id="line2d_15">
    <path d="M 72.968736 49.24768 
L 76.90006 22.413265 
L 80.831385 17.447809 
L 84.76271 34.312534 
L 88.694034 69.847293 
L 92.625359 114.59834 
L 96.556683 130.969215 
L 100.488008 133.947401 
L 104.419332 133.946146 
L 108.350657 133.944794 
L 112.281982 133.943931 
L 116.213306 133.943718 
L 120.144631 133.944195 
L 124.075955 107.358654 
L 128.00728 63.971426 
L 131.938604 30.471649 
L 135.869929 16.773041 
L 139.801254 25.061322 
L 143.732578 53.753153 
L 147.663903 101.239934 
L 151.595227 129.411647 
L 155.526552 133.049717 
L 159.457876 133.947401 
L 163.389201 133.944936 
L 167.320526 133.943462 
L 171.25185 133.942603 
L 175.183175 133.9426 
L 179.114499 133.94356 
L 183.045824 133.945414 
L 186.977148 133.947401 
L 190.908473 132.498443 
L 194.839798 132.030478 
L 198.771122 132.020161 
L 202.702447 132.340094 
L 206.633771 132.85435 
L 210.565096 133.434865 
L 214.49642 133.947401 
L 218.427745 133.942773 
L 222.35907 133.938188 
L 226.290394 133.934633 
L 230.221719 133.933036 
L 234.153043 133.934141 
L 238.084368 133.938341 
L 242.015692 133.947401 
L 245.947017 133.760086 
L 249.878342 133.599344 
L 253.809666 133.522831 
L 257.740991 133.531742 
L 261.672315 133.612885 
L 265.60364 133.742739 
L 269.534964 133.947401 
L 273.466289 133.930204 
L 277.397614 133.89219 
L 281.328938 133.845854 
L 285.260263 133.795854 
L 289.191587 133.751383 
L 293.122912 133.73172 
L 297.054237 133.78623 
L 300.985561 133.907861 
L 304.916886 133.828453 
L 308.84821 133.777945 
L 312.779535 133.75341 
L 316.710859 133.765226 
L 320.642184 133.811178 
L 324.573509 133.882657 
L 328.504833 133.947401 
L 332.436158 132.079606 
L 336.367482 119.334254 
L 340.298807 102.897952 
L 344.230131 93.411293 
L 348.161456 91.520482 
L 352.092781 97.579807 
L 356.024105 110.766736 
L 359.95543 127.216265 
L 363.886754 133.797123 
L 367.818079 133.75897 
L 371.749403 133.756126 
L 375.680728 133.789123 
L 379.612053 133.85178 
L 383.543377 133.947401 
L 387.474702 133.578729 
" clip-path="url(#p0a1d855184)" style="fill: none; stroke: #5ea04b; stroke-opacity: 0.7; stroke-width: 2; stroke-linecap: square"/>
   </g>
   <g id="line2d_16">
    <path d="M 72.968736 53.752799 
L 76.90006 101.239633 
L 80.831385 129.411598 
L 84.76271 133.947401 
L 88.694034 133.947401 
L 92.625359 133.945289 
L 96.556683 133.944205 
L 100.488008 133.943719 
L 104.419332 133.943924 
L 108.350657 121.391169 
L 112.281982 82.192751 
L 116.213306 41.904934 
L 120.144631 19.658436 
L 124.075955 19.118271 
L 128.00728 40.095259 
L 131.938604 80.571662 
L 135.869929 120.853412 
L 139.801254 131.957051 
L 143.732578 133.947401 
L 147.663903 133.945848 
L 151.595227 133.944576 
L 155.526552 133.943649 
L 159.457876 133.943368 
L 163.389201 133.943859 
L 167.320526 133.945111 
L 171.25185 133.947401 
L 175.183175 131.261863 
L 179.114499 130.110617 
L 183.045824 130.057733 
L 186.977148 130.67673 
L 190.908473 131.641526 
L 194.839798 132.700666 
L 198.771122 133.947401 
L 202.702447 133.945347 
L 206.633771 133.941848 
L 210.565096 133.938916 
L 214.49642 133.937232 
L 218.427745 133.937355 
L 222.35907 133.939594 
L 226.290394 133.94391 
L 230.221719 133.804093 
L 234.153043 133.548585 
L 238.084368 133.405258 
L 242.015692 133.379705 
L 245.947017 133.457613 
L 249.878342 133.610024 
L 253.809666 133.800042 
L 257.740991 133.947401 
L 261.672315 133.927848 
L 265.60364 133.909112 
L 269.534964 133.891716 
L 273.466289 133.880059 
L 277.397614 133.879809 
L 281.328938 133.898175 
L 285.260263 133.947401 
L 289.191587 133.83813 
L 293.122912 133.762645 
L 297.054237 133.72794 
L 300.985561 133.735987 
L 304.916886 133.781125 
L 308.84821 133.851778 
L 312.779535 133.947401 
L 316.710859 133.578743 
L 320.642184 126.39821 
L 324.573509 108.46316 
L 328.504833 96.364693 
L 332.436158 91.308657 
L 336.367482 94.242558 
L 340.298807 104.637309 
L 344.230131 120.963927 
L 348.161456 133.629864 
L 352.092781 133.770255 
L 356.024105 133.752837 
L 359.95543 133.771876 
L 363.886754 133.823806 
L 367.818079 133.898896 
L 371.749403 133.947401 
L 375.680728 130.65503 
L 379.612053 115.018013 
L 383.543377 100.459738 
L 387.474702 92.392366 
" clip-path="url(#p0a1d855184)" style="fill: none; stroke: #bdab62; stroke-opacity: 0.7; stroke-width: 2; stroke-linecap: square"/>
   </g>
   <g id="patch_3">
    <path d="M 57.243438 139.811563 
L 57.243438 10.8 
" style="fill: none; stroke: #000000; stroke-width: 0.8; stroke-linejoin: miter; stroke-linecap: square"/>
   </g>
   <g id="patch_4">
    <path d="M 403.2 139.811563 
L 403.2 10.8 
" style="fill: none; stroke: #000000; stroke-width: 0.8; stroke-linejoin: miter; stroke-linecap: square"/>
   </g>
   <g id="patch_5">
    <path d="M 57.243438 139.811563 
L 403.2 139.811563 
" style="fill: none; stroke: #000000; stroke-width: 0.8; stroke-linejoin: miter; stroke-linecap: square"/>
   </g>
   <g id="patch_6">
    <path d="M 57.243438 10.8 
L 403.2 10.8 
" style="fill: none; stroke: #000000; stroke-width: 0.8; stroke-linejoin: miter; stroke-linecap: square"/>
   </g>
   <g id="legend_1">
    <g id="patch_7">
     <path d="M 198.046719 57.630938 
L 262.396719 57.630938 
Q 264.196719 57.630938 264.196719 55.830938 
L 264.196719 17.1 
Q 264.196719 15.3 262.396719 15.3 
L 198.046719 15.3 
Q 196.246719 15.3 196.246719 17.1 
L 196.246719 55.830938 
Q 196.246719 57.630938 198.046719 57.630938 
z
" style="fill: #ffffff; opacity: 0.8; stroke: #cccccc; stroke-linejoin: miter"/>
    </g>
    <g id="line2d_17">
     <path d="M 199.846719 22.588594 
L 208.846719 22.588594 
L 217.846719 22.588594 
" style="fill: none; stroke: #2b737e; stroke-opacity: 0.7; stroke-width: 2; stroke-linecap: square"/>
    </g>
    <g id="text_16">
     <!-- Albedo$_{0}$ -->
     <g transform="translate(225.046719 25.738594) scale(0.09 -0.09)">
      <defs>
       <path id="DejaVuSans-41" d="M 2188 4044 
L 1331 1722 
L 3047 1722 
L 2188 4044 
z
M 1831 4666 
L 2547 4666 
L 4325 0 
L 3669 0 
L 3244 1197 
L 1141 1197 
L 716 0 
L 50 0 
L 1831 4666 
z
" transform="scale(0.015625)"/>
       <path id="DejaVuSans-62" d="M 3116 1747 
Q 3116 2381 2855 2742 
Q 2594 3103 2138 3103 
Q 1681 3103 1420 2742 
Q 1159 2381 1159 1747 
Q 1159 1113 1420 752 
Q 1681 391 2138 391 
Q 2594 391 2855 752 
Q 3116 1113 3116 1747 
z
M 1159 2969 
Q 1341 3281 1617 3432 
Q 1894 3584 2278 3584 
Q 2916 3584 3314 3078 
Q 3713 2572 3713 1747 
Q 3713 922 3314 415 
Q 2916 -91 2278 -91 
Q 1894 -91 1617 61 
Q 1341 213 1159 525 
L 1159 0 
L 581 0 
L 581 4863 
L 1159 4863 
L 1159 2969 
z
" transform="scale(0.015625)"/>
       <path id="DejaVuSans-64" d="M 2906 2969 
L 2906 4863 
L 3481 4863 
L 3481 0 
L 2906 0 
L 2906 525 
Q 2725 213 2448 61 
Q 2172 -91 1784 -91 
Q 1150 -91 751 415 
Q 353 922 353 1747 
Q 353 2572 751 3078 
Q 1150 3584 1784 3584 
Q 2172 3584 2448 3432 
Q 2725 3281 2906 2969 
z
M 947 1747 
Q 947 1113 1208 752 
Q 1469 391 1925 391 
Q 2381 391 2643 752 
Q 2906 1113 2906 1747 
Q 2906 2381 2643 2742 
Q 2381 3103 1925 3103 
Q 1469 3103 1208 2742 
Q 947 2381 947 1747 
z
" transform="scale(0.015625)"/>
       <path id="DejaVuSans-6f" d="M 1959 3097 
Q 1497 3097 1228 2736 
Q 959 2375 959 1747 
Q 959 1119 1226 758 
Q 1494 397 1959 397 
Q 2419 397 2687 759 
Q 2956 1122 2956 1747 
Q 2956 2369 2687 2733 
Q 2419 3097 1959 3097 
z
M 1959 3584 
Q 2709 3584 3137 3096 
Q 3566 2609 3566 1747 
Q 3566 888 3137 398 
Q 2709 -91 1959 -91 
Q 1206 -91 779 398 
Q 353 888 353 1747 
Q 353 2609 779 3096 
Q 1206 3584 1959 3584 
z
" transform="scale(0.015625)"/>
      </defs>
      <use xlink:href="#DejaVuSans-41" transform="translate(0 0.015625)"/>
      <use xlink:href="#DejaVuSans-6c" transform="translate(68.408203 0.015625)"/>
      <use xlink:href="#DejaVuSans-62" transform="translate(96.191406 0.015625)"/>
      <use xlink:href="#DejaVuSans-65" transform="translate(159.667969 0.015625)"/>
      <use xlink:href="#DejaVuSans-64" transform="translate(221.191406 0.015625)"/>
      <use xlink:href="#DejaVuSans-6f" transform="translate(284.667969 0.015625)"/>
      <use xlink:href="#DejaVuSans-30" transform="translate(346.806641 -16.390625) scale(0.7)"/>
     </g>
    </g>
    <g id="line2d_18">
     <path d="M 199.846719 35.798906 
L 208.846719 35.798906 
L 217.846719 35.798906 
" style="fill: none; stroke: #5ea04b; stroke-opacity: 0.7; stroke-width: 2; stroke-linecap: square"/>
    </g>
    <g id="text_17">
     <!-- Albedo$_{1}$ -->
     <g transform="translate(225.046719 38.948906) scale(0.09 -0.09)">
      <use xlink:href="#DejaVuSans-41" transform="translate(0 0.015625)"/>
      <use xlink:href="#DejaVuSans-6c" transform="translate(68.408203 0.015625)"/>
      <use xlink:href="#DejaVuSans-62" transform="translate(96.191406 0.015625)"/>
      <use xlink:href="#DejaVuSans-65" transform="translate(159.667969 0.015625)"/>
      <use xlink:href="#DejaVuSans-64" transform="translate(221.191406 0.015625)"/>
      <use xlink:href="#DejaVuSans-6f" transform="translate(284.667969 0.015625)"/>
      <use xlink:href="#DejaVuSans-31" transform="translate(346.806641 -16.390625) scale(0.7)"/>
     </g>
    </g>
    <g id="line2d_19">
     <path d="M 199.846719 49.009219 
L 208.846719 49.009219 
L 217.846719 49.009219 
" style="fill: none; stroke: #bdab62; stroke-opacity: 0.7; stroke-width: 2; stroke-linecap: square"/>
    </g>
    <g id="text_18">
     <!-- Albedo$_{2}$ -->
     <g transform="translate(225.046719 52.159219) scale(0.09 -0.09)">
      <use xlink:href="#DejaVuSans-41" transform="translate(0 0.015625)"/>
      <use xlink:href="#DejaVuSans-6c" transform="translate(68.408203 0.015625)"/>
      <use xlink:href="#DejaVuSans-62" transform="translate(96.191406 0.015625)"/>
      <use xlink:href="#DejaVuSans-65" transform="translate(159.667969 0.015625)"/>
      <use xlink:href="#DejaVuSans-64" transform="translate(221.191406 0.015625)"/>
      <use xlink:href="#DejaVuSans-6f" transform="translate(284.667969 0.015625)"/>
      <use xlink:href="#DejaVuSans-32" transform="translate(346.806641 -16.390625) scale(0.7)"/>
     </g>
    </g>
   </g>
  </g>
 </g>
 <defs>
  <clipPath id="p0a1d855184">
   <rect x="57.243438" y="10.8" width="345.956562" height="129.011562"/>
  </clipPath>
 </defs>
</svg>
