<?xml version="1.0" encoding="utf-8" standalone="no"?>
<!DOCTYPE svg PUBLIC "-//W3C//DTD SVG 1.1//EN"
  "http://www.w3.org/Graphics/SVG/1.1/DTD/svg11.dtd">
<svg xmlns:xlink="http://www.w3.org/1999/xlink" width="414pt" height="180pt" viewBox="0 0 414 180" xmlns="http://www.w3.org/2000/svg" version="1.1">
 <metadata>
  <rdf:RDF xmlns:dc="http://purl.org/dc/elements/1.1/" xmlns:cc="http://creativecommons.org/ns#" xmlns:rdf="http://www.w3.org/1999/02/22-rdf-syntax-ns#">
   <cc:Work>
    <dc:type rdf:resource="http://purl.org/dc/dcmitype/StillImage"/>
    <dc:date>2026-04-02T22:58:34.602989</dc:date>
    <dc:format>image/svg+xml</dc:format>
    <dc:creator>
     <cc:Agent>
      <dc:title>Matplotlib v3.10.7, https://matplotlib.org/</dc:title>
     </cc:Agent>
    </dc:creator>
   </cc:Work>
  </rdf:RDF>
 </metadata>
 <defs>
  <style type="text/css">*{stroke-linejoin: round; stroke-linecap: butt}</style>
 </defs>
 <g id="figure_1">
  <g id="patch_1">
   <path d="M 0 180 
L 414 180 
L 414 0 
L 0 0 
L 0 180 
z
" style="fill: none"/>
  </g>
  <g id="axes_1">
   <g id="patch_2">
    <path d="M 59.058906 139.811563 
L 403.2 139.811563 
L 403.2 10.8 
L 59.058906 10.8 
L 59.058906 139.811563 
z
" style="fill: none"/>
   </g>
   <g id="matplotlib.axis_1">
    <g id="xtick_1">
     <g id="line2d_1">
      <defs>
       <path id="m29212ce24a" d="M 0 0 
L 0 3.5 
" style="stroke: #000000; stroke-width: 0.8"/>
      </defs>
      <g>
       <use xlink:href="#m29212ce24a" x="74.684301" y="139.811563" style="stroke: #000000; stroke-width: 0.8"/>
      </g>
     </g>
     <g id="text_1">
      <!-- 0 -->
      <g transform="translate(71.821176 153.650156) scale(0.09 -0.09)">
       <defs>
        <path id="DejaVuSans-30" d="M 2034 4250 
Q 1547 4250 1301 3770 
Q 1056 3291 1056 2328 
Q 1056 1369 1301 889 
Q 1547 409 2034 409 
Q 2525 409 2770 889 
Q 3016 1369 3016 2328 
Q 3016 3291 2770 3770 
Q 2525 4250 2034 4250 
z
M 2034 4750 
Q 2819 4750 3233 4129 
Q 3647 3509 3647 2328 
Q 3647 1150 3233 529 
Q 2819 -91 2034 -91 
Q 1250 -91 836 529 
Q 422 1150 422 2328 
Q 422 3509 836 4129 
Q 1250 4750 2034 4750 
z
" transform="scale(0.015625)"/>
       </defs>
       <use xlink:href="#DejaVuSans-30"/>
      </g>
     </g>
    </g>
    <g id="xtick_2">
     <g id="line2d_2">
      <g>
       <use xlink:href="#m29212ce24a" x="126.829788" y="139.811563" style="stroke: #000000; stroke-width: 0.8"/>
      </g>
     </g>
     <g id="text_2">
      <!-- 5 -->
      <g transform="translate(123.966663 153.650156) scale(0.09 -0.09)">
       <defs>
        <path id="DejaVuSans-35" d="M 691 4666 
L 3169 4666 
L 3169 4134 
L 1269 4134 
L 1269 2991 
Q 1406 3038 1543 3061 
Q 1681 3084 1819 3084 
Q 2600 3084 3056 2656 
Q 3513 2228 3513 1497 
Q 3513 744 3044 326 
Q 2575 -91 1722 -91 
Q 1428 -91 1123 -41 
Q 819 9 494 109 
L 494 744 
Q 775 591 1075 516 
Q 1375 441 1709 441 
Q 2250 441 2565 725 
Q 2881 1009 2881 1497 
Q 2881 1984 2565 2268 
Q 2250 2553 1709 2553 
Q 1456 2553 1204 2497 
Q 953 2441 691 2322 
L 691 4666 
z
" transform="scale(0.015625)"/>
       </defs>
       <use xlink:href="#DejaVuSans-35"/>
      </g>
     </g>
    </g>
    <g id="xtick_3">
     <g id="line2d_3">
      <g>
       <use xlink:href="#m29212ce24a" x="178.975275" y="139.811563" style="stroke: #000000; stroke-width: 0.8"/>
      </g>
     </g>
     <g id="text_3">
      <!-- 10 -->
      <g transform="translate(173.249025 153.650156) scale(0.09 -0.09)">
       <defs>
        <path id="DejaVuSans-31" d="M 794 531 
L 1825 531 
L 1825 4091 
L 703 3866 
L 703 4441 
L 1819 4666 
L 2450 4666 
L 2450 531 
L 3481 531 
L 3481 0 
L 794 0 
L 794 531 
z
" transform="scale(0.015625)"/>
       </defs>
       <use xlink:href="#DejaVuSans-31"/>
       <use xlink:href="#DejaVuSans-30" transform="translate(63.623047 0)"/>
      </g>
     </g>
    </g>
    <g id="xtick_4">
     <g id="line2d_4">
      <g>
       <use xlink:href="#m29212ce24a" x="231.120762" y="139.811563" style="stroke: #000000; stroke-width: 0.8"/>
      </g>
     </g>
     <g id="text_4">
      <!-- 15 -->
      <g transform="translate(225.394512 153.650156) scale(0.09 -0.09)">
       <use xlink:href="#DejaVuSans-31"/>
       <use xlink:href="#DejaVuSans-35" transform="translate(63.623047 0)"/>
      </g>
     </g>
    </g>
    <g id="xtick_5">
     <g id="line2d_5">
      <g>
       <use xlink:href="#m29212ce24a" x="283.266249" y="139.811563" style="stroke: #000000; stroke-width: 0.8"/>
      </g>
     </g>
     <g id="text_5">
      <!-- 20 -->
      <g transform="translate(277.539999 153.650156) scale(0.09 -0.09)">
       <defs>
        <path id="DejaVuSans-32" d="M 1228 531 
L 3431 531 
L 3431 0 
L 469 0 
L 469 531 
Q 828 903 1448 1529 
Q 2069 2156 2228 2338 
Q 2531 2678 2651 2914 
Q 2772 3150 2772 3378 
Q 2772 3750 2511 3984 
Q 2250 4219 1831 4219 
Q 1534 4219 1204 4116 
Q 875 4013 500 3803 
L 500 4441 
Q 881 4594 1212 4672 
Q 1544 4750 1819 4750 
Q 2544 4750 2975 4387 
Q 3406 4025 3406 3419 
Q 3406 3131 3298 2873 
Q 3191 2616 2906 2266 
Q 2828 2175 2409 1742 
Q 1991 1309 1228 531 
z
" transform="scale(0.015625)"/>
       </defs>
       <use xlink:href="#DejaVuSans-32"/>
       <use xlink:href="#DejaVuSans-30" transform="translate(63.623047 0)"/>
      </g>
     </g>
    </g>
    <g id="xtick_6">
     <g id="line2d_6">
      <g>
       <use xlink:href="#m29212ce24a" x="335.411736" y="139.811563" style="stroke: #000000; stroke-width: 0.8"/>
      </g>
     </g>
     <g id="text_6">
      <!-- 25 -->
      <g transform="translate(329.685486 153.650156) scale(0.09 -0.09)">
       <use xlink:href="#DejaVuSans-32"/>
       <use xlink:href="#DejaVuSans-35" transform="translate(63.623047 0)"/>
      </g>
     </g>
    </g>
    <g id="xtick_7">
     <g id="line2d_7">
      <g>
       <use xlink:href="#m29212ce24a" x="387.557223" y="139.811563" style="stroke: #000000; stroke-width: 0.8"/>
      </g>
     </g>
     <g id="text_7">
      <!-- 30 -->
      <g transform="translate(381.830973 153.650156) scale(0.09 -0.09)">
       <defs>
        <path id="DejaVuSans-33" d="M 2597 2516 
Q 3050 2419 3304 2112 
Q 3559 1806 3559 1356 
Q 3559 666 3084 287 
Q 2609 -91 1734 -91 
Q 1441 -91 1130 -33 
Q 819 25 488 141 
L 488 750 
Q 750 597 1062 519 
Q 1375 441 1716 441 
Q 2309 441 2620 675 
Q 2931 909 2931 1356 
Q 2931 1769 2642 2001 
Q 2353 2234 1838 2234 
L 1294 2234 
L 1294 2753 
L 1863 2753 
Q 2328 2753 2575 2939 
Q 2822 3125 2822 3475 
Q 2822 3834 2567 4026 
Q 2313 4219 1838 4219 
Q 1578 4219 1281 4162 
Q 984 4106 628 3988 
L 628 4550 
Q 988 4650 1302 4700 
Q 1616 4750 1894 4750 
Q 2613 4750 3031 4423 
Q 3450 4097 3450 3541 
Q 3450 3153 3228 2886 
Q 3006 2619 2597 2516 
z
" transform="scale(0.015625)"/>
       </defs>
       <use xlink:href="#DejaVuSans-33"/>
       <use xlink:href="#DejaVuSans-30" transform="translate(63.623047 0)"/>
      </g>
     </g>
    </g>
    <g id="text_8">
     <!-- Time [min] -->
     <g transform="translate(203.977109 167.120313) scale(0.1 -0.1)">
      <defs>
       <path id="DejaVuSans-54" d="M -19 4666 
L 3928 4666 
L 3928 4134 
L 2272 4134 
L 2272 0 
L 1638 0 
L 1638 4134 
L -19 4134 
L -19 4666 
z
" transform="scale(0.015625)"/>
       <path id="DejaVuSans-69" d="M 603 3500 
L 1178 3500 
L 1178 0 
L 603 0 
L 603 3500 
z
M 603 4863 
L 1178 4863 
L 1178 4134 
L 603 4134 
L 603 4863 
z
" transform="scale(0.015625)"/>
       <path id="DejaVuSans-6d" d="M 3328 2828 
Q 3544 3216 3844 3400 
Q 4144 3584 4550 3584 
Q 5097 3584 5394 3201 
Q 5691 2819 5691 2113 
L 5691 0 
L 5113 0 
L 5113 2094 
Q 5113 2597 4934 2840 
Q 4756 3084 4391 3084 
Q 3944 3084 3684 2787 
Q 3425 2491 3425 1978 
L 3425 0 
L 2847 0 
L 2847 2094 
Q 2847 2600 2669 2842 
Q 2491 3084 2119 3084 
Q 1678 3084 1418 2786 
Q 1159 2488 1159 1978 
L 1159 0 
L 581 0 
L 581 3500 
L 1159 3500 
L 1159 2956 
Q 1356 3278 1631 3431 
Q 1906 3584 2284 3584 
Q 2666 3584 2933 3390 
Q 3200 3197 3328 2828 
z
" transform="scale(0.015625)"/>
       <path id="DejaVuSans-65" d="M 3597 1894 
L 3597 1613 
L 953 1613 
Q 991 1019 1311 708 
Q 1631 397 2203 397 
Q 2534 397 2845 478 
Q 3156 559 3463 722 
L 3463 178 
Q 3153 47 2828 -22 
Q 2503 -91 2169 -91 
Q 1331 -91 842 396 
Q 353 884 353 1716 
Q 353 2575 817 3079 
Q 1281 3584 2069 3584 
Q 2775 3584 3186 3129 
Q 3597 2675 3597 1894 
z
M 3022 2063 
Q 3016 2534 2758 2815 
Q 2500 3097 2075 3097 
Q 1594 3097 1305 2825 
Q 1016 2553 972 2059 
L 3022 2063 
z
" transform="scale(0.015625)"/>
       <path id="DejaVuSans-20" transform="scale(0.015625)"/>
       <path id="DejaVuSans-5b" d="M 550 4863 
L 1875 4863 
L 1875 4416 
L 1125 4416 
L 1125 -397 
L 1875 -397 
L 1875 -844 
L 550 -844 
L 550 4863 
z
" transform="scale(0.015625)"/>
       <path id="DejaVuSans-6e" d="M 3513 2113 
L 3513 0 
L 2938 0 
L 2938 2094 
Q 2938 2591 2744 2837 
Q 2550 3084 2163 3084 
Q 1697 3084 1428 2787 
Q 1159 2491 1159 1978 
L 1159 0 
L 581 0 
L 581 3500 
L 1159 3500 
L 1159 2956 
Q 1366 3272 1645 3428 
Q 1925 3584 2291 3584 
Q 2894 3584 3203 3211 
Q 3513 2838 3513 2113 
z
" transform="scale(0.015625)"/>
       <path id="DejaVuSans-5d" d="M 1947 4863 
L 1947 -844 
L 622 -844 
L 622 -397 
L 1369 -397 
L 1369 4416 
L 622 4416 
L 622 4863 
L 1947 4863 
z
" transform="scale(0.015625)"/>
      </defs>
      <use xlink:href="#DejaVuSans-54"/>
      <use xlink:href="#DejaVuSans-69" transform="translate(57.958984 0)"/>
      <use xlink:href="#DejaVuSans-6d" transform="translate(85.742188 0)"/>
      <use xlink:href="#DejaVuSans-65" transform="translate(183.154297 0)"/>
      <use xlink:href="#DejaVuSans-20" transform="translate(244.677734 0)"/>
      <use xlink:href="#DejaVuSans-5b" transform="translate(276.464844 0)"/>
      <use xlink:href="#DejaVuSans-6d" transform="translate(315.478516 0)"/>
      <use xlink:href="#DejaVuSans-69" transform="translate(412.890625 0)"/>
      <use xlink:href="#DejaVuSans-6e" transform="translate(440.673828 0)"/>
      <use xlink:href="#DejaVuSans-5d" transform="translate(504.052734 0)"/>
     </g>
    </g>
   </g>
   <g id="matplotlib.axis_2">
    <g id="ytick_1">
     <g id="line2d_8">
      <defs>
       <path id="ma459f6e128" d="M 0 0 
L -3.5 0 
" style="stroke: #000000; stroke-width: 0.8"/>
      </defs>
      <g>
       <use xlink:href="#ma459f6e128" x="59.058906" y="127.655167" style="stroke: #000000; stroke-width: 0.8"/>
      </g>
     </g>
     <g id="text_9">
      <!-- −0.02 -->
      <g transform="translate(24.478125 131.074464) scale(0.09 -0.09)">
       <defs>
        <path id="DejaVuSans-2212" d="M 678 2272 
L 4684 2272 
L 4684 1741 
L 678 1741 
L 678 2272 
z
" transform="scale(0.015625)"/>
        <path id="DejaVuSans-2e" d="M 684 794 
L 1344 794 
L 1344 0 
L 684 0 
L 684 794 
z
" transform="scale(0.015625)"/>
       </defs>
       <use xlink:href="#DejaVuSans-2212"/>
       <use xlink:href="#DejaVuSans-30" transform="translate(83.789062 0)"/>
       <use xlink:href="#DejaVuSans-2e" transform="translate(147.412109 0)"/>
       <use xlink:href="#DejaVuSans-30" transform="translate(179.199219 0)"/>
       <use xlink:href="#DejaVuSans-32" transform="translate(242.822266 0)"/>
      </g>
     </g>
    </g>
    <g id="ytick_2">
     <g id="line2d_9">
      <g>
       <use xlink:href="#ma459f6e128" x="59.058906" y="109.156666" style="stroke: #000000; stroke-width: 0.8"/>
      </g>
     </g>
     <g id="text_10">
      <!-- 0.00 -->
      <g transform="translate(32.019844 112.575963) scale(0.09 -0.09)">
       <use xlink:href="#DejaVuSans-30"/>
       <use xlink:href="#DejaVuSans-2e" transform="translate(63.623047 0)"/>
       <use xlink:href="#DejaVuSans-30" transform="translate(95.410156 0)"/>
       <use xlink:href="#DejaVuSans-30" transform="translate(159.033203 0)"/>
      </g>
     </g>
    </g>
    <g id="ytick_3">
     <g id="line2d_10">
      <g>
       <use xlink:href="#ma459f6e128" x="59.058906" y="90.658165" style="stroke: #000000; stroke-width: 0.8"/>
      </g>
     </g>
     <g id="text_11">
      <!-- 0.02 -->
      <g transform="translate(32.019844 94.077462) scale(0.09 -0.09)">
       <use xlink:href="#DejaVuSans-30"/>
       <use xlink:href="#DejaVuSans-2e" transform="translate(63.623047 0)"/>
       <use xlink:href="#DejaVuSans-30" transform="translate(95.410156 0)"/>
       <use xlink:href="#DejaVuSans-32" transform="translate(159.033203 0)"/>
      </g>
     </g>
    </g>
    <g id="ytick_4">
     <g id="line2d_11">
      <g>
       <use xlink:href="#ma459f6e128" x="59.058906" y="72.159664" style="stroke: #000000; stroke-width: 0.8"/>
      </g>
     </g>
     <g id="text_12">
      <!-- 0.04 -->
      <g transform="translate(32.019844 75.578961) scale(0.09 -0.09)">
       <defs>
        <path id="DejaVuSans-34" d="M 2419 4116 
L 825 1625 
L 2419 1625 
L 2419 4116 
z
M 2253 4666 
L 3047 4666 
L 3047 1625 
L 3713 1625 
L 3713 1100 
L 3047 1100 
L 3047 0 
L 2419 0 
L 2419 1100 
L 313 1100 
L 313 1709 
L 2253 4666 
z
" transform="scale(0.015625)"/>
       </defs>
       <use xlink:href="#DejaVuSans-30"/>
       <use xlink:href="#DejaVuSans-2e" transform="translate(63.623047 0)"/>
       <use xlink:href="#DejaVuSans-30" transform="translate(95.410156 0)"/>
       <use xlink:href="#DejaVuSans-34" transform="translate(159.033203 0)"/>
      </g>
     </g>
    </g>
    <g id="ytick_5">
     <g id="line2d_12">
      <g>
       <use xlink:href="#ma459f6e128" x="59.058906" y="53.661164" style="stroke: #000000; stroke-width: 0.8"/>
      </g>
     </g>
     <g id="text_13">
      <!-- 0.06 -->
      <g transform="translate(32.019844 57.08046) scale(0.09 -0.09)">
       <defs>
        <path id="DejaVuSans-36" d="M 2113 2584 
Q 1688 2584 1439 2293 
Q 1191 2003 1191 1497 
Q 1191 994 1439 701 
Q 1688 409 2113 409 
Q 2538 409 2786 701 
Q 3034 994 3034 1497 
Q 3034 2003 2786 2293 
Q 2538 2584 2113 2584 
z
M 3366 4563 
L 3366 3988 
Q 3128 4100 2886 4159 
Q 2644 4219 2406 4219 
Q 1781 4219 1451 3797 
Q 1122 3375 1075 2522 
Q 1259 2794 1537 2939 
Q 1816 3084 2150 3084 
Q 2853 3084 3261 2657 
Q 3669 2231 3669 1497 
Q 3669 778 3244 343 
Q 2819 -91 2113 -91 
Q 1303 -91 875 529 
Q 447 1150 447 2328 
Q 447 3434 972 4092 
Q 1497 4750 2381 4750 
Q 2619 4750 2861 4703 
Q 3103 4656 3366 4563 
z
" transform="scale(0.015625)"/>
       </defs>
       <use xlink:href="#DejaVuSans-30"/>
       <use xlink:href="#DejaVuSans-2e" transform="translate(63.623047 0)"/>
       <use xlink:href="#DejaVuSans-30" transform="translate(95.410156 0)"/>
       <use xlink:href="#DejaVuSans-36" transform="translate(159.033203 0)"/>
      </g>
     </g>
    </g>
    <g id="ytick_6">
     <g id="line2d_13">
      <g>
       <use xlink:href="#ma459f6e128" x="59.058906" y="35.162663" style="stroke: #000000; stroke-width: 0.8"/>
      </g>
     </g>
     <g id="text_14">
      <!-- 0.08 -->
      <g transform="translate(32.019844 38.58196) scale(0.09 -0.09)">
       <defs>
        <path id="DejaVuSans-38" d="M 2034 2216 
Q 1584 2216 1326 1975 
Q 1069 1734 1069 1313 
Q 1069 891 1326 650 
Q 1584 409 2034 409 
Q 2484 409 2743 651 
Q 3003 894 3003 1313 
Q 3003 1734 2745 1975 
Q 2488 2216 2034 2216 
z
M 1403 2484 
Q 997 2584 770 2862 
Q 544 3141 544 3541 
Q 544 4100 942 4425 
Q 1341 4750 2034 4750 
Q 2731 4750 3128 4425 
Q 3525 4100 3525 3541 
Q 3525 3141 3298 2862 
Q 3072 2584 2669 2484 
Q 3125 2378 3379 2068 
Q 3634 1759 3634 1313 
Q 3634 634 3220 271 
Q 2806 -91 2034 -91 
Q 1263 -91 848 271 
Q 434 634 434 1313 
Q 434 1759 690 2068 
Q 947 2378 1403 2484 
z
M 1172 3481 
Q 1172 3119 1398 2916 
Q 1625 2713 2034 2713 
Q 2441 2713 2670 2916 
Q 2900 3119 2900 3481 
Q 2900 3844 2670 4047 
Q 2441 4250 2034 4250 
Q 1625 4250 1398 4047 
Q 1172 3844 1172 3481 
z
" transform="scale(0.015625)"/>
       </defs>
       <use xlink:href="#DejaVuSans-30"/>
       <use xlink:href="#DejaVuSans-2e" transform="translate(63.623047 0)"/>
       <use xlink:href="#DejaVuSans-30" transform="translate(95.410156 0)"/>
       <use xlink:href="#DejaVuSans-38" transform="translate(159.033203 0)"/>
      </g>
     </g>
    </g>
    <g id="ytick_7">
     <g id="line2d_14">
      <g>
       <use xlink:href="#ma459f6e128" x="59.058906" y="16.664162" style="stroke: #000000; stroke-width: 0.8"/>
      </g>
     </g>
     <g id="text_15">
      <!-- 0.10 -->
      <g transform="translate(32.019844 20.083459) scale(0.09 -0.09)">
       <use xlink:href="#DejaVuSans-30"/>
       <use xlink:href="#DejaVuSans-2e" transform="translate(63.623047 0)"/>
       <use xlink:href="#DejaVuSans-31" transform="translate(95.410156 0)"/>
       <use xlink:href="#DejaVuSans-30" transform="translate(159.033203 0)"/>
      </g>
     </g>
    </g>
    <g id="text_16">
     <!-- Rate Tracking Error [rad/s]  -->
     <g transform="translate(18.398438 142.606563) rotate(-90) scale(0.1 -0.1)">
      <defs>
       <path id="DejaVuSans-52" d="M 2841 2188 
Q 3044 2119 3236 1894 
Q 3428 1669 3622 1275 
L 4263 0 
L 3584 0 
L 2988 1197 
Q 2756 1666 2539 1819 
Q 2322 1972 1947 1972 
L 1259 1972 
L 1259 0 
L 628 0 
L 628 4666 
L 2053 4666 
Q 2853 4666 3247 4331 
Q 3641 3997 3641 3322 
Q 3641 2881 3436 2590 
Q 3231 2300 2841 2188 
z
M 1259 4147 
L 1259 2491 
L 2053 2491 
Q 2509 2491 2742 2702 
Q 2975 2913 2975 3322 
Q 2975 3731 2742 3939 
Q 2509 4147 2053 4147 
L 1259 4147 
z
" transform="scale(0.015625)"/>
       <path id="DejaVuSans-61" d="M 2194 1759 
Q 1497 1759 1228 1600 
Q 959 1441 959 1056 
Q 959 750 1161 570 
Q 1363 391 1709 391 
Q 2188 391 2477 730 
Q 2766 1069 2766 1631 
L 2766 1759 
L 2194 1759 
z
M 3341 1997 
L 3341 0 
L 2766 0 
L 2766 531 
Q 2569 213 2275 61 
Q 1981 -91 1556 -91 
Q 1019 -91 701 211 
Q 384 513 384 1019 
Q 384 1609 779 1909 
Q 1175 2209 1959 2209 
L 2766 2209 
L 2766 2266 
Q 2766 2663 2505 2880 
Q 2244 3097 1772 3097 
Q 1472 3097 1187 3025 
Q 903 2953 641 2809 
L 641 3341 
Q 956 3463 1253 3523 
Q 1550 3584 1831 3584 
Q 2591 3584 2966 3190 
Q 3341 2797 3341 1997 
z
" transform="scale(0.015625)"/>
       <path id="DejaVuSans-74" d="M 1172 4494 
L 1172 3500 
L 2356 3500 
L 2356 3053 
L 1172 3053 
L 1172 1153 
Q 1172 725 1289 603 
Q 1406 481 1766 481 
L 2356 481 
L 2356 0 
L 1766 0 
Q 1100 0 847 248 
Q 594 497 594 1153 
L 594 3053 
L 172 3053 
L 172 3500 
L 594 3500 
L 594 4494 
L 1172 4494 
z
" transform="scale(0.015625)"/>
       <path id="DejaVuSans-72" d="M 2631 2963 
Q 2534 3019 2420 3045 
Q 2306 3072 2169 3072 
Q 1681 3072 1420 2755 
Q 1159 2438 1159 1844 
L 1159 0 
L 581 0 
L 581 3500 
L 1159 3500 
L 1159 2956 
Q 1341 3275 1631 3429 
Q 1922 3584 2338 3584 
Q 2397 3584 2469 3576 
Q 2541 3569 2628 3553 
L 2631 2963 
z
" transform="scale(0.015625)"/>
       <path id="DejaVuSans-63" d="M 3122 3366 
L 3122 2828 
Q 2878 2963 2633 3030 
Q 2388 3097 2138 3097 
Q 1578 3097 1268 2742 
Q 959 2388 959 1747 
Q 959 1106 1268 751 
Q 1578 397 2138 397 
Q 2388 397 2633 464 
Q 2878 531 3122 666 
L 3122 134 
Q 2881 22 2623 -34 
Q 2366 -91 2075 -91 
Q 1284 -91 818 406 
Q 353 903 353 1747 
Q 353 2603 823 3093 
Q 1294 3584 2113 3584 
Q 2378 3584 2631 3529 
Q 2884 3475 3122 3366 
z
" transform="scale(0.015625)"/>
       <path id="DejaVuSans-6b" d="M 581 4863 
L 1159 4863 
L 1159 1991 
L 2875 3500 
L 3609 3500 
L 1753 1863 
L 3688 0 
L 2938 0 
L 1159 1709 
L 1159 0 
L 581 0 
L 581 4863 
z
" transform="scale(0.015625)"/>
       <path id="DejaVuSans-67" d="M 2906 1791 
Q 2906 2416 2648 2759 
Q 2391 3103 1925 3103 
Q 1463 3103 1205 2759 
Q 947 2416 947 1791 
Q 947 1169 1205 825 
Q 1463 481 1925 481 
Q 2391 481 2648 825 
Q 2906 1169 2906 1791 
z
M 3481 434 
Q 3481 -459 3084 -895 
Q 2688 -1331 1869 -1331 
Q 1566 -1331 1297 -1286 
Q 1028 -1241 775 -1147 
L 775 -588 
Q 1028 -725 1275 -790 
Q 1522 -856 1778 -856 
Q 2344 -856 2625 -561 
Q 2906 -266 2906 331 
L 2906 616 
Q 2728 306 2450 153 
Q 2172 0 1784 0 
Q 1141 0 747 490 
Q 353 981 353 1791 
Q 353 2603 747 3093 
Q 1141 3584 1784 3584 
Q 2172 3584 2450 3431 
Q 2728 3278 2906 2969 
L 2906 3500 
L 3481 3500 
L 3481 434 
z
" transform="scale(0.015625)"/>
       <path id="DejaVuSans-45" d="M 628 4666 
L 3578 4666 
L 3578 4134 
L 1259 4134 
L 1259 2753 
L 3481 2753 
L 3481 2222 
L 1259 2222 
L 1259 531 
L 3634 531 
L 3634 0 
L 628 0 
L 628 4666 
z
" transform="scale(0.015625)"/>
       <path id="DejaVuSans-6f" d="M 1959 3097 
Q 1497 3097 1228 2736 
Q 959 2375 959 1747 
Q 959 1119 1226 758 
Q 1494 397 1959 397 
Q 2419 397 2687 759 
Q 2956 1122 2956 1747 
Q 2956 2369 2687 2733 
Q 2419 3097 1959 3097 
z
M 1959 3584 
Q 2709 3584 3137 3096 
Q 3566 2609 3566 1747 
Q 3566 888 3137 398 
Q 2709 -91 1959 -91 
Q 1206 -91 779 398 
Q 353 888 353 1747 
Q 353 2609 779 3096 
Q 1206 3584 1959 3584 
z
" transform="scale(0.015625)"/>
       <path id="DejaVuSans-64" d="M 2906 2969 
L 2906 4863 
L 3481 4863 
L 3481 0 
L 2906 0 
L 2906 525 
Q 2725 213 2448 61 
Q 2172 -91 1784 -91 
Q 1150 -91 751 415 
Q 353 922 353 1747 
Q 353 2572 751 3078 
Q 1150 3584 1784 3584 
Q 2172 3584 2448 3432 
Q 2725 3281 2906 2969 
z
M 947 1747 
Q 947 1113 1208 752 
Q 1469 391 1925 391 
Q 2381 391 2643 752 
Q 2906 1113 2906 1747 
Q 2906 2381 2643 2742 
Q 2381 3103 1925 3103 
Q 1469 3103 1208 2742 
Q 947 2381 947 1747 
z
" transform="scale(0.015625)"/>
       <path id="DejaVuSans-2f" d="M 1625 4666 
L 2156 4666 
L 531 -594 
L 0 -594 
L 1625 4666 
z
" transform="scale(0.015625)"/>
       <path id="DejaVuSans-73" d="M 2834 3397 
L 2834 2853 
Q 2591 2978 2328 3040 
Q 2066 3103 1784 3103 
Q 1356 3103 1142 2972 
Q 928 2841 928 2578 
Q 928 2378 1081 2264 
Q 1234 2150 1697 2047 
L 1894 2003 
Q 2506 1872 2764 1633 
Q 3022 1394 3022 966 
Q 3022 478 2636 193 
Q 2250 -91 1575 -91 
Q 1294 -91 989 -36 
Q 684 19 347 128 
L 347 722 
Q 666 556 975 473 
Q 1284 391 1588 391 
Q 1994 391 2212 530 
Q 2431 669 2431 922 
Q 2431 1156 2273 1281 
Q 2116 1406 1581 1522 
L 1381 1569 
Q 847 1681 609 1914 
Q 372 2147 372 2553 
Q 372 3047 722 3315 
Q 1072 3584 1716 3584 
Q 2034 3584 2315 3537 
Q 2597 3491 2834 3397 
z
" transform="scale(0.015625)"/>
      </defs>
      <use xlink:href="#DejaVuSans-52"/>
      <use xlink:href="#DejaVuSans-61" transform="translate(67.232422 0)"/>
      <use xlink:href="#DejaVuSans-74" transform="translate(128.511719 0)"/>
      <use xlink:href="#DejaVuSans-65" transform="translate(167.720703 0)"/>
      <use xlink:href="#DejaVuSans-20" transform="translate(229.244141 0)"/>
      <use xlink:href="#DejaVuSans-54" transform="translate(261.03125 0)"/>
      <use xlink:href="#DejaVuSans-72" transform="translate(307.365234 0)"/>
      <use xlink:href="#DejaVuSans-61" transform="translate(348.478516 0)"/>
      <use xlink:href="#DejaVuSans-63" transform="translate(409.757812 0)"/>
      <use xlink:href="#DejaVuSans-6b" transform="translate(464.738281 0)"/>
      <use xlink:href="#DejaVuSans-69" transform="translate(522.648438 0)"/>
      <use xlink:href="#DejaVuSans-6e" transform="translate(550.431641 0)"/>
      <use xlink:href="#DejaVuSans-67" transform="translate(613.810547 0)"/>
      <use xlink:href="#DejaVuSans-20" transform="translate(677.287109 0)"/>
      <use xlink:href="#DejaVuSans-45" transform="translate(709.074219 0)"/>
      <use xlink:href="#DejaVuSans-72" transform="translate(772.257812 0)"/>
      <use xlink:href="#DejaVuSans-72" transform="translate(811.621094 0)"/>
      <use xlink:href="#DejaVuSans-6f" transform="translate(850.484375 0)"/>
      <use xlink:href="#DejaVuSans-72" transform="translate(911.666016 0)"/>
      <use xlink:href="#DejaVuSans-20" transform="translate(952.779297 0)"/>
      <use xlink:href="#DejaVuSans-5b" transform="translate(984.566406 0)"/>
      <use xlink:href="#DejaVuSans-72" transform="translate(1023.580078 0)"/>
      <use xlink:href="#DejaVuSans-61" transform="translate(1064.693359 0)"/>
      <use xlink:href="#DejaVuSans-64" transform="translate(1125.972656 0)"/>
      <use xlink:href="#DejaVuSans-2f" transform="translate(1189.449219 0)"/>
      <use xlink:href="#DejaVuSans-73" transform="translate(1223.140625 0)"/>
      <use xlink:href="#DejaVuSans-5d" transform="translate(1275.240234 0)"/>
      <use xlink:href="#DejaVuSans-20" transform="translate(1314.253906 0)"/>
     </g>
    </g>
   </g>
   <g id="line2d_15">
    <path d="M 74.701683 16.664162 
L 75.483866 18.608523 
L 76.735357 20.519373 
L 78.108522 22.476563 
L 81.237251 28.853695 
L 83.774998 34.076381 
L 85.287217 37.319033 
L 85.895581 38.688492 
L 86.816818 41.254396 
L 87.668528 43.489946 
L 88.937401 46.77548 
L 91.770639 54.950136 
L 94.829841 63.384781 
L 95.76846 66.231688 
L 97.38497 72.060213 
L 98.271443 76.823868 
L 99.436026 84.419429 
L 100.287735 89.225877 
L 101.156827 92.905876 
L 101.886864 95.105048 
L 102.529991 96.394779 
L 103.068828 97.018969 
L 103.538138 97.24771 
L 103.990065 97.228254 
L 104.459374 96.976821 
L 104.998211 96.412061 
L 105.606575 95.425174 
L 106.267085 93.902154 
L 106.910212 91.777495 
L 107.831449 87.874205 
L 109.691305 79.871584 
L 110.299669 78.220905 
L 110.734215 77.596734 
L 110.994942 77.508206 
L 111.273051 78.060475 
L 111.63807 79.353188 
L 112.124761 82.009707 
L 112.767889 86.922673 
L 113.758653 96.509424 
L 116.174727 119.582203 
L 116.922146 124.649284 
L 117.478364 127.110174 
L 117.895528 128.119592 
L 118.191019 128.380608 
L 118.416983 128.32376 
L 118.677711 127.98297 
L 119.007965 127.109821 
L 119.442511 125.236742 
L 120.016111 121.652306 
L 120.798294 115.20021 
L 123.596768 90.084485 
L 124.152987 87.451128 
L 124.552769 86.479423 
L 124.84826 86.257137 
L 125.091605 86.338819 
L 125.369715 86.707265 
L 125.734733 87.607472 
L 126.151897 89.315912 
L 126.690734 92.573167 
L 127.420771 98.527495 
L 129.993281 120.936119 
L 130.532118 123.177403 
L 130.9319 124.015862 
L 131.210009 124.176307 
L 131.435973 124.054956 
L 131.714082 123.605971 
L 132.079101 122.544006 
L 132.583174 120.29336 
L 132.93081 119.010701 
L 133.295829 118.452665 
L 133.747756 117.308869 
L 134.321357 115.201293 
L 135.103539 111.384806 
L 136.44194 103.53672 
L 137.58914 96.778161 
L 138.24965 94.100675 
L 138.736341 92.933603 
L 139.10136 92.553659 
L 139.379469 92.556764 
L 139.657578 92.811401 
L 140.005215 93.473118 
L 140.457142 94.867397 
L 141.048124 97.484252 
L 141.86507 102.225337 
L 144.559254 118.940773 
L 145.150236 120.897303 
L 145.584782 121.688255 
L 145.897655 121.879879 
L 146.158382 121.783237 
L 146.436491 121.404392 
L 146.818892 120.444788 
L 147.322965 118.496213 
L 148.070383 114.578342 
L 149.408784 106.131133 
L 150.921003 97.025161 
L 151.772713 93.140429 
L 152.381077 91.268486 
L 152.763477 90.685383 
L 153.041586 90.591322 
L 153.284932 90.743339 
L 153.580423 91.224067 
L 153.962823 92.322202 
L 154.449515 94.458345 
L 155.092642 98.389588 
L 156.048643 105.825288 
L 157.73468 118.953795 
L 158.360426 122.076979 
L 158.829735 123.456789 
L 159.177372 123.917957 
L 159.4381 123.952191 
L 159.698827 123.727068 
L 160.029082 123.087807 
L 160.463627 121.694692 
L 161.05461 118.949264 
L 161.906319 113.791344 
L 162.219192 112.437222 
L 163.05352 110.448642 
L 164.530975 106.221344 
L 165.817231 102.833994 
L 166.599413 101.360245 
L 167.190395 100.669686 
L 167.677086 100.406594 
L 168.111632 100.409947 
L 168.56356 100.643679 
L 169.102396 101.200577 
L 169.79767 102.278236 
L 171.101307 104.822652 
L 172.144216 106.618237 
L 172.804726 107.342439 
L 173.256654 107.558902 
L 173.656436 107.512145 
L 174.090981 107.226123 
L 174.629818 106.579581 
L 175.394619 105.263676 
L 177.619493 101.217311 
L 178.280002 100.544839 
L 178.853602 100.255767 
L 178.975275 100.230074 
L 178.992657 109.156666 
L 179.010039 100.202606 
L 179.079566 100.951266 
L 181.426113 125.335314 
L 182.017095 128.705163 
L 182.486405 130.256018 
L 182.851423 130.80059 
L 183.112151 130.859906 
L 183.372878 130.666832 
L 183.703133 130.095918 
L 184.15506 128.811854 
L 184.798188 126.239139 
L 186.153971 119.617026 
L 187.28379 114.672722 
L 188.065972 112.172765 
L 188.726481 110.734006 
L 189.334845 109.905432 
L 189.908446 109.476577 
L 190.534192 109.28346 
L 191.47281 109.258841 
L 192.724302 109.182599 
L 193.55863 108.892938 
L 194.462485 108.329702 
L 195.800886 107.192622 
L 197.55645 105.76163 
L 198.616742 105.190571 
L 199.64227 104.889588 
L 200.87638 104.772028 
L 205.169692 104.554445 
L 215.181625 103.082992 
L 219.266355 102.713884 
L 222.534139 102.65514 
L 226.045268 102.81668 
L 229.712834 103.210692 
L 233.971382 103.902414 
L 239.690004 105.072791 
L 257.297797 108.820815 
L 263.051182 109.734168 
L 268.422167 110.362658 
L 273.741007 110.760709 
L 279.251047 110.947574 
L 285.230396 110.922989 
L 292.183127 110.663845 
L 301.882188 110.058143 
L 320.53289 108.870344 
L 329.919078 108.527935 
L 339.287884 108.412039 
L 349.977709 108.511151 
L 367.011901 108.929353 
L 386.462168 109.337311 
L 387.557223 109.35072 
L 387.557223 109.35072 
" clip-path="url(#p9114a742ff)" style="fill: none; stroke: #2b737e; stroke-width: 1.5; stroke-linecap: square"/>
   </g>
   <g id="line2d_16">
    <path d="M 74.701683 118.405916 
L 77.100376 132.124918 
L 77.621831 133.563255 
L 77.952085 133.909632 
L 78.299722 133.937539 
L 78.699504 133.763528 
L 79.13405 133.312992 
L 79.620741 132.461049 
L 80.176959 131.007905 
L 80.820087 128.65615 
L 81.689178 124.492586 
L 82.801616 117.981144 
L 84.105253 109.018409 
L 86.17369 94.081905 
L 88.207364 80.940485 
L 89.267656 76.018892 
L 90.241038 72.497799 
L 91.144893 70.016812 
L 91.996603 68.291209 
L 92.813549 67.108638 
L 93.630495 66.30156 
L 94.482205 65.766951 
L 95.751078 65.039851 
L 95.942278 64.743967 
L 97.037333 60.842209 
L 98.23668 55.32047 
L 99.401262 50.282629 
L 99.887953 49.081747 
L 100.305117 48.605012 
L 100.722281 48.432733 
L 101.104681 48.508714 
L 101.539227 48.838567 
L 102.0433 49.516308 
L 102.686428 50.791028 
L 103.520756 52.975418 
L 104.476756 56.140005 
L 105.484902 60.27652 
L 106.597339 65.862102 
L 108.509341 75.286315 
L 109.395814 78.5917 
L 110.056323 80.275036 
L 110.560396 81.026305 
L 110.960178 81.276112 
L 110.994942 81.208189 
L 111.655452 77.994439 
L 112.87218 70.687499 
L 113.810798 65.650107 
L 114.314871 64.052132 
L 114.801563 63.172833 
L 115.149199 62.921204 
L 115.427309 62.969963 
L 115.7228 63.277162 
L 116.087818 64.026956 
L 116.539746 65.516304 
L 117.113346 68.248327 
L 117.843383 72.89829 
L 118.903674 81.267501 
L 120.833057 96.455892 
L 121.597858 100.66061 
L 122.154076 102.639764 
L 122.553858 103.382883 
L 122.831968 103.532752 
L 123.057931 103.423362 
L 123.336041 102.9995 
L 123.701059 101.961386 
L 124.170369 99.860787 
L 124.813496 95.828895 
L 127.003607 81.528771 
L 127.611971 79.039704 
L 128.029135 78.108581 
L 128.324626 77.877946 
L 128.550589 77.950068 
L 128.811317 78.30106 
L 129.193717 79.27354 
L 129.732554 81.328191 
L 130.410445 84.852886 
L 132.809138 98.177139 
L 134.477793 103.972759 
L 135.277357 105.972049 
L 135.885721 106.947955 
L 136.320267 107.281685 
L 136.63314 107.057938 
L 137.01554 106.480486 
L 137.48485 105.328311 
L 138.075832 103.236133 
L 138.858014 99.565843 
L 140.370233 91.091137 
L 141.48267 85.51298 
L 142.125798 83.251581 
L 142.595107 82.317113 
L 142.925362 82.06224 
L 143.186089 82.103434 
L 143.481581 82.408317 
L 143.846599 83.153932 
L 144.315908 84.674331 
L 144.924272 87.465881 
L 145.775982 92.545794 
L 147.861801 105.64548 
L 148.591838 108.687711 
L 149.148057 110.178985 
L 149.582602 110.797856 
L 149.912857 110.938137 
L 150.208348 110.821455 
L 150.538603 110.423767 
L 150.955767 109.529711 
L 151.477222 107.83128 
L 152.137731 104.84081 
L 152.989441 99.760627 
L 154.936206 87.900056 
L 155.561952 85.476885 
L 156.031261 84.435662 
L 156.361516 84.141956 
L 156.604861 84.171519 
L 156.848207 84.451312 
L 157.16108 85.237457 
L 157.578244 86.973838 
L 158.151844 90.413551 
L 159.090463 97.626216 
L 160.5853 108.92025 
L 161.280573 112.572598 
L 161.802028 114.285807 
L 162.340865 115.27258 
L 163.123047 116.372844 
L 163.714029 116.85876 
L 164.218102 117.001653 
L 164.687412 116.898013 
L 165.174103 116.550288 
L 165.747703 115.844863 
L 166.47774 114.553565 
L 167.607559 112.018906 
L 169.032869 108.935901 
L 169.728142 107.920696 
L 170.266979 107.488639 
L 170.701525 107.398619 
L 171.118689 107.538865 
L 171.570616 107.937741 
L 172.126835 108.75362 
L 172.856871 110.262613 
L 174.369091 113.505923 
L 175.0296 114.420146 
L 175.551055 114.800062 
L 176.002983 114.863863 
L 176.437528 114.695808 
L 176.941601 114.244017 
L 177.602111 113.318432 
L 178.975275 110.878818 
L 178.992657 109.156666 
L 179.096948 109.685434 
L 179.670548 103.644268 
L 180.139858 100.751733 
L 180.504876 99.670043 
L 180.765604 99.449064 
L 180.956804 99.544301 
L 181.217531 99.980321 
L 181.599931 101.146349 
L 182.190914 103.795377 
L 184.207206 113.460921 
L 184.746042 114.858055 
L 185.163206 115.411746 
L 185.476079 115.51944 
L 185.77157 115.386267 
L 186.119207 114.955133 
L 186.571135 113.998588 
L 187.19688 112.083524 
L 188.23979 108.03296 
L 189.717246 102.466574 
L 190.534192 100.223963 
L 191.212083 98.956011 
L 191.820447 98.253668 
L 192.394047 97.911549 
L 193.002411 97.807954 
L 193.784594 97.922396 
L 196.304959 98.453205 
L 197.382632 98.345721 
L 200.824234 97.810338 
L 201.901908 98.003557 
L 203.153399 98.470198 
L 205.53471 99.66349 
L 208.124602 100.840694 
L 214.764461 103.696302 
L 219.700901 105.812719 
L 225.87145 108.204717 
L 230.164762 109.631923 
L 234.23211 110.752875 
L 238.073494 111.582195 
L 241.880114 112.175691 
L 245.73888 112.552103 
L 249.754083 112.719057 
L 254.064776 112.672331 
L 258.862161 112.39209 
L 264.563401 111.826927 
L 272.871915 110.754302 
L 286.02996 109.068024 
L 293.173892 108.394704 
L 299.831132 107.990727 
L 306.575282 107.806465 
L 313.893032 107.834042 
L 322.670855 108.100322 
L 338.384029 108.851096 
L 352.254728 109.408983 
L 363.326953 109.627158 
L 375.129215 109.630331 
L 387.557223 109.461354 
L 387.557223 109.461354 
" clip-path="url(#p9114a742ff)" style="fill: none; stroke: #5ea04b; stroke-width: 1.5; stroke-linecap: square"/>
   </g>
   <g id="line2d_17">
    <path d="M 74.701683 81.408915 
L 75.205756 81.9813 
L 75.848884 84.70528 
L 76.613684 88.987464 
L 77.569685 95.74368 
L 78.595213 102.278479 
L 82.193252 124.243953 
L 83.097107 127.929144 
L 83.844525 130.143845 
L 84.244307 130.759475 
L 84.55718 130.88697 
L 84.817908 130.758861 
L 85.130781 130.331986 
L 85.21769 130.15883 
L 85.252453 130.261959 
L 85.739145 131.321118 
L 86.347509 132.208726 
L 86.799436 132.531887 
L 87.0254 132.473 
L 87.286127 132.140465 
L 87.685909 131.20585 
L 91.49253 121.509628 
L 92.587585 119.462307 
L 93.526204 118.15248 
L 94.360532 117.354538 
L 95.594642 116.307236 
L 95.890133 115.665002 
L 95.95966 115.866283 
L 97.141624 119.005351 
L 97.593552 119.546443 
L 97.941189 119.649735 
L 98.254062 119.49692 
L 98.584316 119.060894 
L 98.984098 118.098625 
L 99.418644 116.438509 
L 99.940099 113.347785 
L 102.964537 93.402922 
L 104.076974 87.869642 
L 105.189411 83.412197 
L 106.267085 79.957378 
L 106.78854 78.927438 
L 107.17094 78.605699 
L 107.449049 78.624496 
L 107.74454 78.891517 
L 108.092177 79.544878 
L 108.526722 80.891562 
L 109.065559 83.380956 
L 109.726069 87.60577 
L 110.577778 94.635397 
L 111.377342 102.88754 
L 112.176907 110.305893 
L 112.750507 113.802172 
L 113.167671 115.210057 
L 113.463162 115.600993 
L 113.776035 115.661759 
L 114.088908 115.482662 
L 114.419162 115.033621 
L 114.766799 114.07836 
L 115.218727 112.086224 
L 115.792327 108.448534 
L 116.557127 102.042239 
L 117.982437 87.750149 
L 119.199165 76.578885 
L 119.929202 71.685571 
L 120.450657 69.528218 
L 120.850439 68.71449 
L 121.111167 68.546327 
L 121.319749 68.669462 
L 121.580476 69.142469 
L 121.928113 70.310103 
L 122.38004 72.690256 
L 122.988404 77.233073 
L 123.874877 85.789405 
L 125.439242 101.010182 
L 126.221424 105.975113 
L 126.881934 108.928997 
L 127.368625 110.219013 
L 127.733643 110.651604 
L 127.994371 110.674766 
L 128.255098 110.461789 
L 128.585353 109.862267 
L 129.002517 108.597098 
L 129.471826 106.371792 
L 130.219245 101.53276 
L 132.496265 86.378852 
L 133.347974 82.645967 
L 134.269211 79.342093 
L 134.860193 77.94792 
L 135.294739 77.409713 
L 135.624994 77.309295 
L 135.920485 77.455775 
L 136.25074 77.898997 
L 137.119831 79.761718 
L 137.728195 82.164276 
L 138.788487 87.469612 
L 139.987833 93.115203 
L 140.665724 95.320678 
L 141.187179 96.339354 
L 141.586961 96.698571 
L 141.86507 96.693218 
L 142.14318 96.453827 
L 142.490816 95.836252 
L 142.942744 94.542261 
L 143.551108 92.051078 
L 144.437581 87.354195 
L 146.41911 76.610275 
L 147.236056 73.535689 
L 147.809656 72.112093 
L 148.244202 71.557892 
L 148.591838 71.428459 
L 148.922093 71.550014 
L 149.287111 71.943629 
L 149.756421 72.814706 
L 150.347403 74.421388 
L 151.129585 77.253752 
L 152.242022 82.227787 
L 153.823769 88.964446 
L 154.623333 91.468273 
L 155.231697 92.710198 
L 155.701006 93.220376 
L 156.083407 93.338551 
L 156.431043 93.2191 
L 156.952498 92.749026 
L 157.456571 91.891903 
L 158.343044 89.852439 
L 159.733591 86.74301 
L 160.481009 85.592687 
L 161.089373 85.03484 
L 161.610828 84.837443 
L 163.43592 84.708502 
L 164.061666 84.978516 
L 164.739557 85.523423 
L 165.556503 86.486477 
L 166.807995 88.363772 
L 168.424505 90.704579 
L 169.310978 91.601037 
L 170.093161 92.087956 
L 170.927488 92.342625 
L 172.978544 92.838616 
L 175.2208 94.082393 
L 176.993747 95.166861 
L 177.654256 95.296375 
L 178.210475 95.185611 
L 178.766693 94.837147 
L 178.975275 94.645607 
L 178.992657 109.156666 
L 179.079566 94.381412 
L 179.635785 91.688482 
L 181.49564 82.138719 
L 182.104004 80.312464 
L 182.590696 79.464842 
L 182.990478 79.152549 
L 183.355496 79.138742 
L 183.737896 79.364515 
L 184.224588 79.939476 
L 184.937243 81.17585 
L 187.144735 85.238746 
L 187.840008 85.970723 
L 188.465754 86.321759 
L 189.0915 86.420535 
L 189.873682 86.301306 
L 191.75092 85.926131 
L 192.446193 86.073701 
L 193.106702 86.447931 
L 193.819357 87.11869 
L 194.671067 88.251009 
L 195.800886 90.162363 
L 199.937761 97.514452 
L 201.554271 99.718069 
L 203.640091 102.166709 
L 205.934492 104.539112 
L 207.690057 106.052112 
L 209.254421 107.110818 
L 210.836168 107.911542 
L 212.626496 108.562248 
L 214.816607 109.113025 
L 217.389117 109.528247 
L 220.326646 109.770948 
L 224.463522 109.867151 
L 230.581926 109.782158 
L 237.760621 109.451136 
L 247.859464 108.733993 
L 259.157652 107.994901 
L 266.944712 107.717077 
L 274.714389 107.665625 
L 283.422686 107.837663 
L 295.34662 108.316897 
L 317.96038 109.247095 
L 329.884314 109.480694 
L 342.677341 109.501365 
L 361.67568 109.277875 
L 387.557223 109.013662 
L 387.557223 109.013662 
" clip-path="url(#p9114a742ff)" style="fill: none; stroke: #bdab62; stroke-width: 1.5; stroke-linecap: square"/>
   </g>
   <g id="patch_3">
    <path d="M 59.058906 139.811563 
L 59.058906 10.8 
" style="fill: none; stroke: #000000; stroke-width: 0.8; stroke-linejoin: miter; stroke-linecap: square"/>
   </g>
   <g id="patch_4">
    <path d="M 403.2 139.811563 
L 403.2 10.8 
" style="fill: none; stroke: #000000; stroke-width: 0.8; stroke-linejoin: miter; stroke-linecap: square"/>
   </g>
   <g id="patch_5">
    <path d="M 59.058906 139.811563 
L 403.2 139.811563 
" style="fill: none; stroke: #000000; stroke-width: 0.8; stroke-linejoin: miter; stroke-linecap: square"/>
   </g>
   <g id="patch_6">
    <path d="M 59.058906 10.8 
L 403.2 10.8 
" style="fill: none; stroke: #000000; stroke-width: 0.8; stroke-linejoin: miter; stroke-linecap: square"/>
   </g>
   <g id="legend_1">
    <g id="patch_7">
     <path d="M 344.34 135.311563 
L 396.9 135.311563 
Q 398.7 135.311563 398.7 133.511563 
L 398.7 93.645781 
Q 398.7 91.845781 396.9 91.845781 
L 344.34 91.845781 
Q 342.54 91.845781 342.54 93.645781 
L 342.54 133.511563 
Q 342.54 135.311563 344.34 135.311563 
z
" style="fill: #ffffff; opacity: 0.8; stroke: #cccccc; stroke-linejoin: miter"/>
    </g>
    <g id="line2d_18">
     <path d="M 346.14 99.134375 
L 355.14 99.134375 
L 364.14 99.134375 
" style="fill: none; stroke: #2b737e; stroke-width: 1.5; stroke-linecap: square"/>
    </g>
    <g id="text_17">
     <!-- $\omega_{BR,0}$ -->
     <g transform="translate(371.34 102.284375) scale(0.09 -0.09)">
      <defs>
       <path id="DejaVuSans-Oblique-3c9" d="M 1369 -91 
Q 72 -91 434 1766 
Q 575 2500 1256 3500 
L 1875 3500 
Q 1231 2500 1088 1750 
Q 819 397 1519 397 
Q 2166 397 2478 2078 
L 3009 2078 
Q 2669 388 3316 397 
Q 4013 403 4275 1750 
Q 4419 2500 4169 3500 
L 4788 3500 
Q 5075 2500 4934 1766 
Q 4578 -94 3278 -91 
Q 2428 -88 2503 844 
Q 2194 -91 1369 -91 
z
" transform="scale(0.015625)"/>
       <path id="DejaVuSans-Oblique-42" d="M 1081 4666 
L 2694 4666 
Q 3350 4666 3675 4422 
Q 4000 4178 4000 3688 
Q 4000 3238 3720 2911 
Q 3441 2584 2988 2516 
Q 3375 2428 3569 2181 
Q 3763 1934 3763 1522 
Q 3763 819 3242 409 
Q 2722 0 1819 0 
L 172 0 
L 1081 4666 
z
M 1234 2228 
L 903 519 
L 1919 519 
Q 2491 519 2800 781 
Q 3109 1044 3109 1522 
Q 3109 1891 2904 2059 
Q 2700 2228 2247 2228 
L 1234 2228 
z
M 1606 4147 
L 1331 2741 
L 2272 2741 
Q 2775 2741 3058 2959 
Q 3341 3178 3341 3566 
Q 3341 3869 3150 4008 
Q 2959 4147 2541 4147 
L 1606 4147 
z
" transform="scale(0.015625)"/>
       <path id="DejaVuSans-Oblique-52" d="M 1613 4147 
L 1294 2491 
L 2106 2491 
Q 2584 2491 2879 2755 
Q 3175 3019 3175 3444 
Q 3175 3784 2976 3965 
Q 2778 4147 2406 4147 
L 1613 4147 
z
M 2772 2241 
Q 2972 2194 3105 2009 
Q 3238 1825 3413 1275 
L 3809 0 
L 3144 0 
L 2778 1197 
Q 2638 1659 2453 1815 
Q 2269 1972 1888 1972 
L 1191 1972 
L 806 0 
L 172 0 
L 1081 4666 
L 2503 4666 
Q 3150 4666 3495 4373 
Q 3841 4081 3841 3531 
Q 3841 3044 3547 2687 
Q 3253 2331 2772 2241 
z
" transform="scale(0.015625)"/>
       <path id="DejaVuSans-2c" d="M 750 794 
L 1409 794 
L 1409 256 
L 897 -744 
L 494 -744 
L 750 256 
L 750 794 
z
" transform="scale(0.015625)"/>
      </defs>
      <use xlink:href="#DejaVuSans-Oblique-3c9" transform="translate(0 0.3125)"/>
      <use xlink:href="#DejaVuSans-Oblique-42" transform="translate(83.740234 -16.09375) scale(0.7)"/>
      <use xlink:href="#DejaVuSans-Oblique-52" transform="translate(131.762695 -16.09375) scale(0.7)"/>
      <use xlink:href="#DejaVuSans-2c" transform="translate(180.400391 -16.09375) scale(0.7)"/>
      <use xlink:href="#DejaVuSans-30" transform="translate(216.289062 -16.09375) scale(0.7)"/>
     </g>
    </g>
    <g id="line2d_19">
     <path d="M 346.14 112.722969 
L 355.14 112.722969 
L 364.14 112.722969 
" style="fill: none; stroke: #5ea04b; stroke-width: 1.5; stroke-linecap: square"/>
    </g>
    <g id="text_18">
     <!-- $\omega_{BR,1}$ -->
     <g transform="translate(371.34 115.872969) scale(0.09 -0.09)">
      <use xlink:href="#DejaVuSans-Oblique-3c9" transform="translate(0 0.3125)"/>
      <use xlink:href="#DejaVuSans-Oblique-42" transform="translate(83.740234 -16.09375) scale(0.7)"/>
      <use xlink:href="#DejaVuSans-Oblique-52" transform="translate(131.762695 -16.09375) scale(0.7)"/>
      <use xlink:href="#DejaVuSans-2c" transform="translate(180.400391 -16.09375) scale(0.7)"/>
      <use xlink:href="#DejaVuSans-31" transform="translate(216.289062 -16.09375) scale(0.7)"/>
     </g>
    </g>
    <g id="line2d_20">
     <path d="M 346.14 126.311563 
L 355.14 126.311563 
L 364.14 126.311563 
" style="fill: none; stroke: #bdab62; stroke-width: 1.5; stroke-linecap: square"/>
    </g>
    <g id="text_19">
     <!-- $\omega_{BR,2}$ -->
     <g transform="translate(371.34 129.461563) scale(0.09 -0.09)">
      <use xlink:href="#DejaVuSans-Oblique-3c9" transform="translate(0 0.3125)"/>
      <use xlink:href="#DejaVuSans-Oblique-42" transform="translate(83.740234 -16.09375) scale(0.7)"/>
      <use xlink:href="#DejaVuSans-Oblique-52" transform="translate(131.762695 -16.09375) scale(0.7)"/>
      <use xlink:href="#DejaVuSans-2c" transform="translate(180.400391 -16.09375) scale(0.7)"/>
      <use xlink:href="#DejaVuSans-32" transform="translate(216.289062 -16.09375) scale(0.7)"/>
     </g>
    </g>
   </g>
  </g>
 </g>
 <defs>
  <clipPath id="p9114a742ff">
   <rect x="59.058906" y="10.8" width="344.141094" height="129.011562"/>
  </clipPath>
 </defs>
</svg>
