<?xml version="1.0" encoding="utf-8" standalone="no"?>
<!DOCTYPE svg PUBLIC "-//W3C//DTD SVG 1.1//EN"
  "http://www.w3.org/Graphics/SVG/1.1/DTD/svg11.dtd">
<svg xmlns:xlink="http://www.w3.org/1999/xlink" width="414pt" height="288pt" viewBox="0 0 414 288" xmlns="http://www.w3.org/2000/svg" version="1.1">
 <metadata>
  <rdf:RDF xmlns:dc="http://purl.org/dc/elements/1.1/" xmlns:cc="http://creativecommons.org/ns#" xmlns:rdf="http://www.w3.org/1999/02/22-rdf-syntax-ns#">
   <cc:Work>
    <dc:type rdf:resource="http://purl.org/dc/dcmitype/StillImage"/>
    <dc:date>2025-04-24T17:22:48.767359</dc:date>
    <dc:format>image/svg+xml</dc:format>
    <dc:creator>
     <cc:Agent>
      <dc:title>Matplotlib v3.10.1, https://matplotlib.org/</dc:title>
     </cc:Agent>
    </dc:creator>
   </cc:Work>
  </rdf:RDF>
 </metadata>
 <defs>
  <style type="text/css">*{stroke-linejoin: round; stroke-linecap: butt}</style>
 </defs>
 <g id="figure_1">
  <g id="patch_1">
   <path d="M 0 288 
L 414 288 
L 414 0 
L 0 0 
L 0 288 
z
" style="fill: none"/>
  </g>
  <g id="axes_1">
   <g id="patch_2">
    <path d="M 75.4475 241.036875 
L 403.2 241.036875 
L 403.2 10.8 
L 75.4475 10.8 
L 75.4475 241.036875 
z
" style="fill: none"/>
   </g>
   <g id="matplotlib.axis_1">
    <g id="xtick_1">
     <g id="line2d_1">
      <defs>
       <path id="m7af7508fec" d="M 0 0 
L 0 3.5 
" style="stroke: #000000; stroke-width: 0.8"/>
      </defs>
      <g>
       <use xlink:href="#m7af7508fec" x="90.345341" y="241.036875" style="stroke: #000000; stroke-width: 0.8"/>
      </g>
     </g>
     <g id="text_1">
      <!-- 0 -->
      <g transform="translate(85.255341 260.194375) scale(0.16 -0.16)">
       <defs>
        <path id="DejaVuSans-30" d="M 2034 4250 
Q 1547 4250 1301 3770 
Q 1056 3291 1056 2328 
Q 1056 1369 1301 889 
Q 1547 409 2034 409 
Q 2525 409 2770 889 
Q 3016 1369 3016 2328 
Q 3016 3291 2770 3770 
Q 2525 4250 2034 4250 
z
M 2034 4750 
Q 2819 4750 3233 4129 
Q 3647 3509 3647 2328 
Q 3647 1150 3233 529 
Q 2819 -91 2034 -91 
Q 1250 -91 836 529 
Q 422 1150 422 2328 
Q 422 3509 836 4129 
Q 1250 4750 2034 4750 
z
" transform="scale(0.015625)"/>
       </defs>
       <use xlink:href="#DejaVuSans-30"/>
      </g>
     </g>
    </g>
    <g id="xtick_2">
     <g id="line2d_2">
      <g>
       <use xlink:href="#m7af7508fec" x="149.936705" y="241.036875" style="stroke: #000000; stroke-width: 0.8"/>
      </g>
     </g>
     <g id="text_2">
      <!-- 2 -->
      <g transform="translate(144.846705 260.194375) scale(0.16 -0.16)">
       <defs>
        <path id="DejaVuSans-32" d="M 1228 531 
L 3431 531 
L 3431 0 
L 469 0 
L 469 531 
Q 828 903 1448 1529 
Q 2069 2156 2228 2338 
Q 2531 2678 2651 2914 
Q 2772 3150 2772 3378 
Q 2772 3750 2511 3984 
Q 2250 4219 1831 4219 
Q 1534 4219 1204 4116 
Q 875 4013 500 3803 
L 500 4441 
Q 881 4594 1212 4672 
Q 1544 4750 1819 4750 
Q 2544 4750 2975 4387 
Q 3406 4025 3406 3419 
Q 3406 3131 3298 2873 
Q 3191 2616 2906 2266 
Q 2828 2175 2409 1742 
Q 1991 1309 1228 531 
z
" transform="scale(0.015625)"/>
       </defs>
       <use xlink:href="#DejaVuSans-32"/>
      </g>
     </g>
    </g>
    <g id="xtick_3">
     <g id="line2d_3">
      <g>
       <use xlink:href="#m7af7508fec" x="209.528068" y="241.036875" style="stroke: #000000; stroke-width: 0.8"/>
      </g>
     </g>
     <g id="text_3">
      <!-- 4 -->
      <g transform="translate(204.438068 260.194375) scale(0.16 -0.16)">
       <defs>
        <path id="DejaVuSans-34" d="M 2419 4116 
L 825 1625 
L 2419 1625 
L 2419 4116 
z
M 2253 4666 
L 3047 4666 
L 3047 1625 
L 3713 1625 
L 3713 1100 
L 3047 1100 
L 3047 0 
L 2419 0 
L 2419 1100 
L 313 1100 
L 313 1709 
L 2253 4666 
z
" transform="scale(0.015625)"/>
       </defs>
       <use xlink:href="#DejaVuSans-34"/>
      </g>
     </g>
    </g>
    <g id="xtick_4">
     <g id="line2d_4">
      <g>
       <use xlink:href="#m7af7508fec" x="269.119432" y="241.036875" style="stroke: #000000; stroke-width: 0.8"/>
      </g>
     </g>
     <g id="text_4">
      <!-- 6 -->
      <g transform="translate(264.029432 260.194375) scale(0.16 -0.16)">
       <defs>
        <path id="DejaVuSans-36" d="M 2113 2584 
Q 1688 2584 1439 2293 
Q 1191 2003 1191 1497 
Q 1191 994 1439 701 
Q 1688 409 2113 409 
Q 2538 409 2786 701 
Q 3034 994 3034 1497 
Q 3034 2003 2786 2293 
Q 2538 2584 2113 2584 
z
M 3366 4563 
L 3366 3988 
Q 3128 4100 2886 4159 
Q 2644 4219 2406 4219 
Q 1781 4219 1451 3797 
Q 1122 3375 1075 2522 
Q 1259 2794 1537 2939 
Q 1816 3084 2150 3084 
Q 2853 3084 3261 2657 
Q 3669 2231 3669 1497 
Q 3669 778 3244 343 
Q 2819 -91 2113 -91 
Q 1303 -91 875 529 
Q 447 1150 447 2328 
Q 447 3434 972 4092 
Q 1497 4750 2381 4750 
Q 2619 4750 2861 4703 
Q 3103 4656 3366 4563 
z
" transform="scale(0.015625)"/>
       </defs>
       <use xlink:href="#DejaVuSans-36"/>
      </g>
     </g>
    </g>
    <g id="xtick_5">
     <g id="line2d_5">
      <g>
       <use xlink:href="#m7af7508fec" x="328.710795" y="241.036875" style="stroke: #000000; stroke-width: 0.8"/>
      </g>
     </g>
     <g id="text_5">
      <!-- 8 -->
      <g transform="translate(323.620795 260.194375) scale(0.16 -0.16)">
       <defs>
        <path id="DejaVuSans-38" d="M 2034 2216 
Q 1584 2216 1326 1975 
Q 1069 1734 1069 1313 
Q 1069 891 1326 650 
Q 1584 409 2034 409 
Q 2484 409 2743 651 
Q 3003 894 3003 1313 
Q 3003 1734 2745 1975 
Q 2488 2216 2034 2216 
z
M 1403 2484 
Q 997 2584 770 2862 
Q 544 3141 544 3541 
Q 544 4100 942 4425 
Q 1341 4750 2034 4750 
Q 2731 4750 3128 4425 
Q 3525 4100 3525 3541 
Q 3525 3141 3298 2862 
Q 3072 2584 2669 2484 
Q 3125 2378 3379 2068 
Q 3634 1759 3634 1313 
Q 3634 634 3220 271 
Q 2806 -91 2034 -91 
Q 1263 -91 848 271 
Q 434 634 434 1313 
Q 434 1759 690 2068 
Q 947 2378 1403 2484 
z
M 1172 3481 
Q 1172 3119 1398 2916 
Q 1625 2713 2034 2713 
Q 2441 2713 2670 2916 
Q 2900 3119 2900 3481 
Q 2900 3844 2670 4047 
Q 2441 4250 2034 4250 
Q 1625 4250 1398 4047 
Q 1172 3844 1172 3481 
z
" transform="scale(0.015625)"/>
       </defs>
       <use xlink:href="#DejaVuSans-38"/>
      </g>
     </g>
    </g>
    <g id="xtick_6">
     <g id="line2d_6">
      <g>
       <use xlink:href="#m7af7508fec" x="388.302159" y="241.036875" style="stroke: #000000; stroke-width: 0.8"/>
      </g>
     </g>
     <g id="text_6">
      <!-- 10 -->
      <g transform="translate(378.122159 260.194375) scale(0.16 -0.16)">
       <defs>
        <path id="DejaVuSans-31" d="M 794 531 
L 1825 531 
L 1825 4091 
L 703 3866 
L 703 4441 
L 1819 4666 
L 2450 4666 
L 2450 531 
L 3481 531 
L 3481 0 
L 794 0 
L 794 531 
z
" transform="scale(0.015625)"/>
       </defs>
       <use xlink:href="#DejaVuSans-31"/>
       <use xlink:href="#DejaVuSans-30" transform="translate(63.623047 0)"/>
      </g>
     </g>
    </g>
    <g id="text_7">
     <!-- Time [min] -->
     <g transform="translate(212.171406 275.120313) scale(0.1 -0.1)">
      <defs>
       <path id="DejaVuSans-54" d="M -19 4666 
L 3928 4666 
L 3928 4134 
L 2272 4134 
L 2272 0 
L 1638 0 
L 1638 4134 
L -19 4134 
L -19 4666 
z
" transform="scale(0.015625)"/>
       <path id="DejaVuSans-69" d="M 603 3500 
L 1178 3500 
L 1178 0 
L 603 0 
L 603 3500 
z
M 603 4863 
L 1178 4863 
L 1178 4134 
L 603 4134 
L 603 4863 
z
" transform="scale(0.015625)"/>
       <path id="DejaVuSans-6d" d="M 3328 2828 
Q 3544 3216 3844 3400 
Q 4144 3584 4550 3584 
Q 5097 3584 5394 3201 
Q 5691 2819 5691 2113 
L 5691 0 
L 5113 0 
L 5113 2094 
Q 5113 2597 4934 2840 
Q 4756 3084 4391 3084 
Q 3944 3084 3684 2787 
Q 3425 2491 3425 1978 
L 3425 0 
L 2847 0 
L 2847 2094 
Q 2847 2600 2669 2842 
Q 2491 3084 2119 3084 
Q 1678 3084 1418 2786 
Q 1159 2488 1159 1978 
L 1159 0 
L 581 0 
L 581 3500 
L 1159 3500 
L 1159 2956 
Q 1356 3278 1631 3431 
Q 1906 3584 2284 3584 
Q 2666 3584 2933 3390 
Q 3200 3197 3328 2828 
z
" transform="scale(0.015625)"/>
       <path id="DejaVuSans-65" d="M 3597 1894 
L 3597 1613 
L 953 1613 
Q 991 1019 1311 708 
Q 1631 397 2203 397 
Q 2534 397 2845 478 
Q 3156 559 3463 722 
L 3463 178 
Q 3153 47 2828 -22 
Q 2503 -91 2169 -91 
Q 1331 -91 842 396 
Q 353 884 353 1716 
Q 353 2575 817 3079 
Q 1281 3584 2069 3584 
Q 2775 3584 3186 3129 
Q 3597 2675 3597 1894 
z
M 3022 2063 
Q 3016 2534 2758 2815 
Q 2500 3097 2075 3097 
Q 1594 3097 1305 2825 
Q 1016 2553 972 2059 
L 3022 2063 
z
" transform="scale(0.015625)"/>
       <path id="DejaVuSans-20" transform="scale(0.015625)"/>
       <path id="DejaVuSans-5b" d="M 550 4863 
L 1875 4863 
L 1875 4416 
L 1125 4416 
L 1125 -397 
L 1875 -397 
L 1875 -844 
L 550 -844 
L 550 4863 
z
" transform="scale(0.015625)"/>
       <path id="DejaVuSans-6e" d="M 3513 2113 
L 3513 0 
L 2938 0 
L 2938 2094 
Q 2938 2591 2744 2837 
Q 2550 3084 2163 3084 
Q 1697 3084 1428 2787 
Q 1159 2491 1159 1978 
L 1159 0 
L 581 0 
L 581 3500 
L 1159 3500 
L 1159 2956 
Q 1366 3272 1645 3428 
Q 1925 3584 2291 3584 
Q 2894 3584 3203 3211 
Q 3513 2838 3513 2113 
z
" transform="scale(0.015625)"/>
       <path id="DejaVuSans-5d" d="M 1947 4863 
L 1947 -844 
L 622 -844 
L 622 -397 
L 1369 -397 
L 1369 4416 
L 622 4416 
L 622 4863 
L 1947 4863 
z
" transform="scale(0.015625)"/>
      </defs>
      <use xlink:href="#DejaVuSans-54"/>
      <use xlink:href="#DejaVuSans-69" transform="translate(57.958984 0)"/>
      <use xlink:href="#DejaVuSans-6d" transform="translate(85.742188 0)"/>
      <use xlink:href="#DejaVuSans-65" transform="translate(183.154297 0)"/>
      <use xlink:href="#DejaVuSans-20" transform="translate(244.677734 0)"/>
      <use xlink:href="#DejaVuSans-5b" transform="translate(276.464844 0)"/>
      <use xlink:href="#DejaVuSans-6d" transform="translate(315.478516 0)"/>
      <use xlink:href="#DejaVuSans-69" transform="translate(412.890625 0)"/>
      <use xlink:href="#DejaVuSans-6e" transform="translate(440.673828 0)"/>
      <use xlink:href="#DejaVuSans-5d" transform="translate(504.052734 0)"/>
     </g>
    </g>
   </g>
   <g id="matplotlib.axis_2">
    <g id="ytick_1">
     <g id="line2d_7">
      <defs>
       <path id="m3b4811529e" d="M 0 0 
L -3.5 0 
" style="stroke: #000000; stroke-width: 0.8"/>
      </defs>
      <g>
       <use xlink:href="#m3b4811529e" x="75.4475" y="219.137342" style="stroke: #000000; stroke-width: 0.8"/>
      </g>
     </g>
     <g id="text_8">
      <!-- −100 -->
      <g transform="translate(24.5 225.216092) scale(0.16 -0.16)">
       <defs>
        <path id="DejaVuSans-2212" d="M 678 2272 
L 4684 2272 
L 4684 1741 
L 678 1741 
L 678 2272 
z
" transform="scale(0.015625)"/>
       </defs>
       <use xlink:href="#DejaVuSans-2212"/>
       <use xlink:href="#DejaVuSans-31" transform="translate(83.789062 0)"/>
       <use xlink:href="#DejaVuSans-30" transform="translate(147.412109 0)"/>
       <use xlink:href="#DejaVuSans-30" transform="translate(211.035156 0)"/>
      </g>
     </g>
    </g>
    <g id="ytick_2">
     <g id="line2d_8">
      <g>
       <use xlink:href="#m3b4811529e" x="75.4475" y="182.476879" style="stroke: #000000; stroke-width: 0.8"/>
      </g>
     </g>
     <g id="text_9">
      <!-- −80 -->
      <g transform="translate(34.68 188.555629) scale(0.16 -0.16)">
       <use xlink:href="#DejaVuSans-2212"/>
       <use xlink:href="#DejaVuSans-38" transform="translate(83.789062 0)"/>
       <use xlink:href="#DejaVuSans-30" transform="translate(147.412109 0)"/>
      </g>
     </g>
    </g>
    <g id="ytick_3">
     <g id="line2d_9">
      <g>
       <use xlink:href="#m3b4811529e" x="75.4475" y="145.816417" style="stroke: #000000; stroke-width: 0.8"/>
      </g>
     </g>
     <g id="text_10">
      <!-- −60 -->
      <g transform="translate(34.68 151.895167) scale(0.16 -0.16)">
       <use xlink:href="#DejaVuSans-2212"/>
       <use xlink:href="#DejaVuSans-36" transform="translate(83.789062 0)"/>
       <use xlink:href="#DejaVuSans-30" transform="translate(147.412109 0)"/>
      </g>
     </g>
    </g>
    <g id="ytick_4">
     <g id="line2d_10">
      <g>
       <use xlink:href="#m3b4811529e" x="75.4475" y="109.155955" style="stroke: #000000; stroke-width: 0.8"/>
      </g>
     </g>
     <g id="text_11">
      <!-- −40 -->
      <g transform="translate(34.68 115.234705) scale(0.16 -0.16)">
       <use xlink:href="#DejaVuSans-2212"/>
       <use xlink:href="#DejaVuSans-34" transform="translate(83.789062 0)"/>
       <use xlink:href="#DejaVuSans-30" transform="translate(147.412109 0)"/>
      </g>
     </g>
    </g>
    <g id="ytick_5">
     <g id="line2d_11">
      <g>
       <use xlink:href="#m3b4811529e" x="75.4475" y="72.495492" style="stroke: #000000; stroke-width: 0.8"/>
      </g>
     </g>
     <g id="text_12">
      <!-- −20 -->
      <g transform="translate(34.68 78.574242) scale(0.16 -0.16)">
       <use xlink:href="#DejaVuSans-2212"/>
       <use xlink:href="#DejaVuSans-32" transform="translate(83.789062 0)"/>
       <use xlink:href="#DejaVuSans-30" transform="translate(147.412109 0)"/>
      </g>
     </g>
    </g>
    <g id="ytick_6">
     <g id="line2d_12">
      <g>
       <use xlink:href="#m3b4811529e" x="75.4475" y="35.83503" style="stroke: #000000; stroke-width: 0.8"/>
      </g>
     </g>
     <g id="text_13">
      <!-- 0 -->
      <g transform="translate(58.2675 41.91378) scale(0.16 -0.16)">
       <use xlink:href="#DejaVuSans-30"/>
      </g>
     </g>
    </g>
    <g id="text_14">
     <!-- Control Torque $L_r$ [Nm] -->
     <g transform="translate(18.4 183.368437) rotate(-90) scale(0.1 -0.1)">
      <defs>
       <path id="DejaVuSans-43" d="M 4122 4306 
L 4122 3641 
Q 3803 3938 3442 4084 
Q 3081 4231 2675 4231 
Q 1875 4231 1450 3742 
Q 1025 3253 1025 2328 
Q 1025 1406 1450 917 
Q 1875 428 2675 428 
Q 3081 428 3442 575 
Q 3803 722 4122 1019 
L 4122 359 
Q 3791 134 3420 21 
Q 3050 -91 2638 -91 
Q 1578 -91 968 557 
Q 359 1206 359 2328 
Q 359 3453 968 4101 
Q 1578 4750 2638 4750 
Q 3056 4750 3426 4639 
Q 3797 4528 4122 4306 
z
" transform="scale(0.015625)"/>
       <path id="DejaVuSans-6f" d="M 1959 3097 
Q 1497 3097 1228 2736 
Q 959 2375 959 1747 
Q 959 1119 1226 758 
Q 1494 397 1959 397 
Q 2419 397 2687 759 
Q 2956 1122 2956 1747 
Q 2956 2369 2687 2733 
Q 2419 3097 1959 3097 
z
M 1959 3584 
Q 2709 3584 3137 3096 
Q 3566 2609 3566 1747 
Q 3566 888 3137 398 
Q 2709 -91 1959 -91 
Q 1206 -91 779 398 
Q 353 888 353 1747 
Q 353 2609 779 3096 
Q 1206 3584 1959 3584 
z
" transform="scale(0.015625)"/>
       <path id="DejaVuSans-74" d="M 1172 4494 
L 1172 3500 
L 2356 3500 
L 2356 3053 
L 1172 3053 
L 1172 1153 
Q 1172 725 1289 603 
Q 1406 481 1766 481 
L 2356 481 
L 2356 0 
L 1766 0 
Q 1100 0 847 248 
Q 594 497 594 1153 
L 594 3053 
L 172 3053 
L 172 3500 
L 594 3500 
L 594 4494 
L 1172 4494 
z
" transform="scale(0.015625)"/>
       <path id="DejaVuSans-72" d="M 2631 2963 
Q 2534 3019 2420 3045 
Q 2306 3072 2169 3072 
Q 1681 3072 1420 2755 
Q 1159 2438 1159 1844 
L 1159 0 
L 581 0 
L 581 3500 
L 1159 3500 
L 1159 2956 
Q 1341 3275 1631 3429 
Q 1922 3584 2338 3584 
Q 2397 3584 2469 3576 
Q 2541 3569 2628 3553 
L 2631 2963 
z
" transform="scale(0.015625)"/>
       <path id="DejaVuSans-6c" d="M 603 4863 
L 1178 4863 
L 1178 0 
L 603 0 
L 603 4863 
z
" transform="scale(0.015625)"/>
       <path id="DejaVuSans-71" d="M 947 1747 
Q 947 1113 1208 752 
Q 1469 391 1925 391 
Q 2381 391 2643 752 
Q 2906 1113 2906 1747 
Q 2906 2381 2643 2742 
Q 2381 3103 1925 3103 
Q 1469 3103 1208 2742 
Q 947 2381 947 1747 
z
M 2906 525 
Q 2725 213 2448 61 
Q 2172 -91 1784 -91 
Q 1150 -91 751 415 
Q 353 922 353 1747 
Q 353 2572 751 3078 
Q 1150 3584 1784 3584 
Q 2172 3584 2448 3432 
Q 2725 3281 2906 2969 
L 2906 3500 
L 3481 3500 
L 3481 -1331 
L 2906 -1331 
L 2906 525 
z
" transform="scale(0.015625)"/>
       <path id="DejaVuSans-75" d="M 544 1381 
L 544 3500 
L 1119 3500 
L 1119 1403 
Q 1119 906 1312 657 
Q 1506 409 1894 409 
Q 2359 409 2629 706 
Q 2900 1003 2900 1516 
L 2900 3500 
L 3475 3500 
L 3475 0 
L 2900 0 
L 2900 538 
Q 2691 219 2414 64 
Q 2138 -91 1772 -91 
Q 1169 -91 856 284 
Q 544 659 544 1381 
z
M 1991 3584 
L 1991 3584 
z
" transform="scale(0.015625)"/>
       <path id="DejaVuSans-Oblique-4c" d="M 1075 4666 
L 1709 4666 
L 909 525 
L 3181 525 
L 3078 0 
L 172 0 
L 1075 4666 
z
" transform="scale(0.015625)"/>
       <path id="DejaVuSans-Oblique-72" d="M 2853 2969 
Q 2766 3016 2653 3041 
Q 2541 3066 2413 3066 
Q 1953 3066 1609 2717 
Q 1266 2369 1153 1784 
L 800 0 
L 225 0 
L 909 3500 
L 1484 3500 
L 1375 2956 
Q 1603 3259 1920 3421 
Q 2238 3584 2597 3584 
Q 2691 3584 2781 3573 
Q 2872 3563 2963 3538 
L 2853 2969 
z
" transform="scale(0.015625)"/>
       <path id="DejaVuSans-4e" d="M 628 4666 
L 1478 4666 
L 3547 763 
L 3547 4666 
L 4159 4666 
L 4159 0 
L 3309 0 
L 1241 3903 
L 1241 0 
L 628 0 
L 628 4666 
z
" transform="scale(0.015625)"/>
      </defs>
      <use xlink:href="#DejaVuSans-43" transform="translate(0 0.015625)"/>
      <use xlink:href="#DejaVuSans-6f" transform="translate(69.824219 0.015625)"/>
      <use xlink:href="#DejaVuSans-6e" transform="translate(131.005859 0.015625)"/>
      <use xlink:href="#DejaVuSans-74" transform="translate(194.384766 0.015625)"/>
      <use xlink:href="#DejaVuSans-72" transform="translate(233.59375 0.015625)"/>
      <use xlink:href="#DejaVuSans-6f" transform="translate(274.707031 0.015625)"/>
      <use xlink:href="#DejaVuSans-6c" transform="translate(335.888672 0.015625)"/>
      <use xlink:href="#DejaVuSans-20" transform="translate(363.671875 0.015625)"/>
      <use xlink:href="#DejaVuSans-54" transform="translate(395.458984 0.015625)"/>
      <use xlink:href="#DejaVuSans-6f" transform="translate(456.542969 0.015625)"/>
      <use xlink:href="#DejaVuSans-72" transform="translate(517.724609 0.015625)"/>
      <use xlink:href="#DejaVuSans-71" transform="translate(558.837891 0.015625)"/>
      <use xlink:href="#DejaVuSans-75" transform="translate(622.314453 0.015625)"/>
      <use xlink:href="#DejaVuSans-65" transform="translate(685.693359 0.015625)"/>
      <use xlink:href="#DejaVuSans-20" transform="translate(747.216797 0.015625)"/>
      <use xlink:href="#DejaVuSans-Oblique-4c" transform="translate(779.003906 0.015625)"/>
      <use xlink:href="#DejaVuSans-Oblique-72" transform="translate(834.716797 -16.390625) scale(0.7)"/>
      <use xlink:href="#DejaVuSans-20" transform="translate(866.230469 0.015625)"/>
      <use xlink:href="#DejaVuSans-5b" transform="translate(898.017578 0.015625)"/>
      <use xlink:href="#DejaVuSans-4e" transform="translate(937.03125 0.015625)"/>
      <use xlink:href="#DejaVuSans-6d" transform="translate(1011.835938 0.015625)"/>
      <use xlink:href="#DejaVuSans-5d" transform="translate(1109.248047 0.015625)"/>
     </g>
    </g>
   </g>
   <g id="line2d_13">
    <path d="M 90.345341 42.899501 
L 93.324909 32.540834 
L 96.304477 33.603061 
L 99.284045 34.634616 
L 102.263614 35.650841 
L 105.243182 37.927877 
L 108.22275 37.973744 
L 111.202318 38.674326 
L 114.181886 38.278267 
L 117.161455 39.062325 
L 120.141023 38.731316 
L 123.120591 37.772844 
L 126.100159 35.582723 
L 129.079727 35.74635 
L 132.059295 37.588331 
L 135.038864 37.240455 
L 138.018432 36.892395 
L 140.998 37.336927 
L 143.977568 36.090908 
L 146.957136 35.35433 
L 149.936705 33.634151 
L 152.916273 33.077076 
L 155.895841 33.260486 
L 158.875409 33.219372 
L 161.854977 33.872079 
L 164.834545 35.536713 
L 167.814114 37.704732 
L 170.793682 37.541298 
L 173.77325 38.230552 
L 176.752818 37.660673 
L 179.732386 35.966569 
L 182.711955 37.427108 
L 185.691523 37.246579 
L 188.671091 37.608639 
L 191.650659 39.95993 
L 194.630227 40.574931 
L 197.609795 35.691058 
L 200.589364 34.828988 
L 203.568932 33.88092 
L 206.5485 34.707525 
L 209.528068 35.600246 
L 212.507636 35.539377 
L 215.487205 36.045514 
L 218.466773 37.251152 
L 221.446341 38.51 
L 224.425909 37.970876 
L 227.405477 38.12437 
L 230.385045 38.179923 
L 233.364614 40.152492 
L 236.344182 37.849113 
L 239.32375 32.571817 
L 242.303318 31.810605 
L 245.282886 31.487422 
L 248.262455 33.685517 
L 251.242023 33.415345 
L 254.221591 34.050051 
L 257.201159 33.010082 
L 260.180727 33.44818 
L 263.160295 33.517523 
L 266.139864 33.474279 
L 269.119432 33.145646 
L 272.099 31.705999 
L 275.078568 32.91151 
L 278.058136 35.151841 
L 281.037705 34.692993 
L 284.017273 36.037174 
L 286.996841 34.465863 
L 289.976409 34.06398 
L 292.955977 33.335995 
L 295.935545 32.873023 
L 298.915114 32.96252 
L 301.894682 33.521463 
L 304.87425 33.098908 
L 307.853818 31.877398 
L 310.833386 33.029411 
L 313.812955 32.94176 
L 316.792523 32.617913 
L 319.772091 33.834354 
L 322.751659 34.57073 
L 325.731227 35.240717 
L 328.710795 35.691696 
L 331.690364 35.409898 
L 334.669932 31.831287 
L 337.6495 32.985409 
L 340.629068 33.609906 
L 343.608636 33.00752 
L 346.588205 33.681623 
L 349.567773 33.833319 
L 352.547341 34.097594 
L 355.526909 34.459413 
L 358.506477 35.988342 
L 361.486045 33.655931 
L 364.465614 32.111407 
L 367.445182 33.15578 
L 370.42475 33.037466 
L 373.404318 33.480852 
L 376.383886 33.30196 
L 379.363455 33.882702 
L 382.343023 34.16781 
L 385.322591 33.601074 
L 388.302159 32.754343 
" clip-path="url(#pfebd046618)" style="fill: none; stroke: #2b737e; stroke-width: 1.5; stroke-linecap: square"/>
   </g>
   <g id="line2d_14">
    <path d="M 90.345341 42.287271 
L 93.324909 35.831072 
L 96.304477 37.974186 
L 99.284045 39.217032 
L 102.263614 39.92721 
L 105.243182 38.527507 
L 108.22275 37.290419 
L 111.202318 37.986082 
L 114.181886 37.257155 
L 117.161455 37.425043 
L 120.141023 34.73426 
L 123.120591 32.403618 
L 126.100159 36.985226 
L 129.079727 34.225773 
L 132.059295 35.174713 
L 135.038864 35.530444 
L 138.018432 35.77262 
L 140.998 36.252438 
L 143.977568 21.265313 
L 146.957136 30.609206 
L 149.936705 32.436794 
L 152.916273 33.832511 
L 155.895841 34.47037 
L 158.875409 34.139657 
L 161.854977 33.092778 
L 164.834545 32.597302 
L 167.814114 33.979545 
L 170.793682 36.051427 
L 173.77325 36.758773 
L 176.752818 39.113451 
L 179.732386 39.327828 
L 182.711955 40.219056 
L 185.691523 39.949705 
L 188.671091 40.181831 
L 191.650659 37.984714 
L 194.630227 31.855291 
L 197.609795 31.853478 
L 200.589364 32.134732 
L 203.568932 32.562612 
L 206.5485 32.718599 
L 209.528068 31.359483 
L 212.507636 31.561055 
L 215.487205 31.454868 
L 218.466773 31.539543 
L 221.446341 32.408648 
L 224.425909 33.187079 
L 227.405477 34.09502 
L 230.385045 33.173744 
L 233.364614 34.007562 
L 236.344182 31.025998 
L 239.32375 32.86365 
L 242.303318 35.684998 
L 245.282886 36.035722 
L 248.262455 38.721111 
L 251.242023 37.353756 
L 254.221591 37.131434 
L 257.201159 36.197693 
L 260.180727 33.672374 
L 263.160295 33.060484 
L 266.139864 31.991928 
L 269.119432 32.422788 
L 272.099 35.427713 
L 275.078568 38.658399 
L 278.058136 39.272073 
L 281.037705 39.073912 
L 284.017273 39.547844 
L 286.996841 38.50799 
L 289.976409 35.949251 
L 292.955977 34.807736 
L 295.935545 36.202109 
L 298.915114 33.860364 
L 301.894682 32.278864 
L 304.87425 33.102165 
L 307.853818 35.535646 
L 310.833386 33.739184 
L 313.812955 34.20846 
L 316.792523 35.117911 
L 319.772091 33.886022 
L 322.751659 33.213239 
L 325.731227 31.835917 
L 328.710795 30.611675 
L 331.690364 31.422351 
L 334.669932 32.174616 
L 337.6495 35.662261 
L 340.629068 36.343849 
L 343.608636 35.688588 
L 346.588205 34.683235 
L 349.567773 34.543619 
L 352.547341 32.230602 
L 355.526909 31.314581 
L 358.506477 32.091264 
L 361.486045 30.938577 
L 364.465614 34.303398 
L 367.445182 35.327847 
L 370.42475 36.433255 
L 373.404318 36.035623 
L 376.383886 34.133174 
L 379.363455 32.365271 
L 382.343023 31.331484 
L 385.322591 33.104875 
L 388.302159 35.001339 
" clip-path="url(#pfebd046618)" style="fill: none; stroke: #5ea04b; stroke-width: 1.5; stroke-linecap: square"/>
   </g>
   <g id="line2d_15">
    <path d="M 90.345341 35.06516 
L 93.324909 33.106872 
L 96.304477 32.027727 
L 99.284045 32.189728 
L 102.263614 33.680412 
L 105.243182 36.597659 
L 108.22275 40.737704 
L 111.202318 46.255687 
L 114.181886 53.198556 
L 117.161455 61.745781 
L 120.141023 71.938572 
L 123.120591 83.900491 
L 126.100159 97.72984 
L 129.079727 113.786595 
L 132.059295 132.194903 
L 135.038864 153.199672 
L 138.018432 177.131122 
L 140.998 204.336197 
L 143.977568 96.975143 
L 146.957136 86.447272 
L 149.936705 78.081277 
L 152.916273 71.88021 
L 155.895841 67.561918 
L 158.875409 65.102152 
L 161.854977 64.48387 
L 164.834545 65.741453 
L 167.814114 68.924138 
L 170.793682 74.247344 
L 173.77325 81.672551 
L 176.752818 91.426167 
L 179.732386 103.749333 
L 182.711955 118.690578 
L 185.691523 136.835233 
L 188.671091 158.558141 
L 191.650659 184.564792 
L 194.630227 215.936791 
L 197.609795 89.852057 
L 200.589364 82.940601 
L 203.568932 78.275003 
L 206.5485 75.830866 
L 209.528068 75.687 
L 212.507636 77.836866 
L 215.487205 82.375768 
L 218.466773 89.426599 
L 221.446341 99.171942 
L 224.425909 111.889966 
L 227.405477 127.979422 
L 230.385045 148.012442 
L 233.364614 172.763377 
L 236.344182 203.524757 
L 239.32375 94.114936 
L 242.303318 89.294021 
L 245.282886 86.831448 
L 248.262455 86.81733 
L 251.242023 89.364573 
L 254.221591 94.600974 
L 257.201159 102.698648 
L 260.180727 113.993771 
L 263.160295 128.865829 
L 266.139864 147.960584 
L 269.119432 172.221445 
L 272.099 203.13137 
L 275.078568 95.123138 
L 278.058136 92.356052 
L 281.037705 91.874664 
L 284.017273 94.004924 
L 286.996841 98.910607 
L 289.976409 106.90263 
L 292.955977 118.334 
L 295.935545 133.740616 
L 298.915114 153.891758 
L 301.894682 180.061094 
L 304.87425 214.327489 
L 307.853818 98.5439 
L 310.833386 98.240063 
L 313.812955 100.402303 
L 316.792523 105.429369 
L 319.772091 113.672594 
L 322.751659 125.601151 
L 325.731227 141.863486 
L 328.710795 163.471161 
L 331.690364 192.080378 
L 334.669932 230.571562 
L 337.6495 102.382483 
L 340.629068 104.407612 
L 343.608636 109.117944 
L 346.588205 117.057479 
L 349.567773 128.782808 
L 352.547341 145.017487 
L 355.526909 166.936338 
L 358.506477 196.433625 
L 361.486045 104.843523 
L 364.465614 106.629675 
L 367.445182 110.277419 
L 370.42475 116.797859 
L 373.404318 126.863238 
L 376.383886 141.246281 
L 379.363455 161.02774 
L 382.343023 187.97701 
L 385.322591 225.295146 
L 388.302159 110.83342 
" clip-path="url(#pfebd046618)" style="fill: none; stroke: #bdab62; stroke-width: 1.5; stroke-linecap: square"/>
   </g>
   <g id="patch_3">
    <path d="M 75.4475 241.036875 
L 75.4475 10.8 
" style="fill: none; stroke: #000000; stroke-width: 0.8; stroke-linejoin: miter; stroke-linecap: square"/>
   </g>
   <g id="patch_4">
    <path d="M 403.2 241.036875 
L 403.2 10.8 
" style="fill: none; stroke: #000000; stroke-width: 0.8; stroke-linejoin: miter; stroke-linecap: square"/>
   </g>
   <g id="patch_5">
    <path d="M 75.4475 241.036875 
L 403.2 241.036875 
" style="fill: none; stroke: #000000; stroke-width: 0.8; stroke-linejoin: miter; stroke-linecap: square"/>
   </g>
   <g id="patch_6">
    <path d="M 75.4475 10.8 
L 403.2 10.8 
" style="fill: none; stroke: #000000; stroke-width: 0.8; stroke-linejoin: miter; stroke-linecap: square"/>
   </g>
   <g id="legend_1">
    <g id="patch_7">
     <path d="M 352.98 236.536875 
L 396.9 236.536875 
Q 398.7 236.536875 398.7 234.736875 
L 398.7 194.871094 
Q 398.7 193.071094 396.9 193.071094 
L 352.98 193.071094 
Q 351.18 193.071094 351.18 194.871094 
L 351.18 234.736875 
Q 351.18 236.536875 352.98 236.536875 
z
" style="fill: #ffffff; opacity: 0.8; stroke: #cccccc; stroke-linejoin: miter"/>
    </g>
    <g id="line2d_16">
     <path d="M 354.78 200.359687 
L 363.78 200.359687 
L 372.78 200.359687 
" style="fill: none; stroke: #2b737e; stroke-width: 1.5; stroke-linecap: square"/>
    </g>
    <g id="text_15">
     <!-- $L_{r,0}$ -->
     <g transform="translate(379.98 203.509687) scale(0.09 -0.09)">
      <defs>
       <path id="DejaVuSans-2c" d="M 750 794 
L 1409 794 
L 1409 256 
L 897 -744 
L 494 -744 
L 750 256 
L 750 794 
z
" transform="scale(0.015625)"/>
      </defs>
      <use xlink:href="#DejaVuSans-Oblique-4c" transform="translate(0 0.09375)"/>
      <use xlink:href="#DejaVuSans-Oblique-72" transform="translate(55.712891 -16.3125) scale(0.7)"/>
      <use xlink:href="#DejaVuSans-2c" transform="translate(84.492188 -16.3125) scale(0.7)"/>
      <use xlink:href="#DejaVuSans-30" transform="translate(120.380859 -16.3125) scale(0.7)"/>
     </g>
    </g>
    <g id="line2d_17">
     <path d="M 354.78 213.948281 
L 363.78 213.948281 
L 372.78 213.948281 
" style="fill: none; stroke: #5ea04b; stroke-width: 1.5; stroke-linecap: square"/>
    </g>
    <g id="text_16">
     <!-- $L_{r,1}$ -->
     <g transform="translate(379.98 217.098281) scale(0.09 -0.09)">
      <use xlink:href="#DejaVuSans-Oblique-4c" transform="translate(0 0.09375)"/>
      <use xlink:href="#DejaVuSans-Oblique-72" transform="translate(55.712891 -16.3125) scale(0.7)"/>
      <use xlink:href="#DejaVuSans-2c" transform="translate(84.492188 -16.3125) scale(0.7)"/>
      <use xlink:href="#DejaVuSans-31" transform="translate(120.380859 -16.3125) scale(0.7)"/>
     </g>
    </g>
    <g id="line2d_18">
     <path d="M 354.78 227.536875 
L 363.78 227.536875 
L 372.78 227.536875 
" style="fill: none; stroke: #bdab62; stroke-width: 1.5; stroke-linecap: square"/>
    </g>
    <g id="text_17">
     <!-- $L_{r,2}$ -->
     <g transform="translate(379.98 230.686875) scale(0.09 -0.09)">
      <use xlink:href="#DejaVuSans-Oblique-4c" transform="translate(0 0.09375)"/>
      <use xlink:href="#DejaVuSans-Oblique-72" transform="translate(55.712891 -16.3125) scale(0.7)"/>
      <use xlink:href="#DejaVuSans-2c" transform="translate(84.492188 -16.3125) scale(0.7)"/>
      <use xlink:href="#DejaVuSans-32" transform="translate(120.380859 -16.3125) scale(0.7)"/>
     </g>
    </g>
   </g>
  </g>
 </g>
 <defs>
  <clipPath id="pfebd046618">
   <rect x="75.4475" y="10.8" width="327.7525" height="230.236875"/>
  </clipPath>
 </defs>
</svg>
