<?xml version="1.0" encoding="utf-8" standalone="no"?>
<!DOCTYPE svg PUBLIC "-//W3C//DTD SVG 1.1//EN"
  "http://www.w3.org/Graphics/SVG/1.1/DTD/svg11.dtd">
<svg xmlns:xlink="http://www.w3.org/1999/xlink" width="414pt" height="180pt" viewBox="0 0 414 180" xmlns="http://www.w3.org/2000/svg" version="1.1">
 <metadata>
  <rdf:RDF xmlns:dc="http://purl.org/dc/elements/1.1/" xmlns:cc="http://creativecommons.org/ns#" xmlns:rdf="http://www.w3.org/1999/02/22-rdf-syntax-ns#">
   <cc:Work>
    <dc:type rdf:resource="http://purl.org/dc/dcmitype/StillImage"/>
    <dc:date>2026-04-02T23:02:43.327502</dc:date>
    <dc:format>image/svg+xml</dc:format>
    <dc:creator>
     <cc:Agent>
      <dc:title>Matplotlib v3.10.7, https://matplotlib.org/</dc:title>
     </cc:Agent>
    </dc:creator>
   </cc:Work>
  </rdf:RDF>
 </metadata>
 <defs>
  <style type="text/css">*{stroke-linejoin: round; stroke-linecap: butt}</style>
 </defs>
 <g id="figure_1">
  <g id="patch_1">
   <path d="M 0 180 
L 414 180 
L 414 0 
L 0 0 
L 0 180 
z
" style="fill: none"/>
  </g>
  <g id="axes_1">
   <g id="patch_2">
    <path d="M 53.332656 139.811563 
L 403.2 139.811563 
L 403.2 10.8 
L 53.332656 10.8 
L 53.332656 139.811563 
z
" style="fill: none"/>
   </g>
   <g id="matplotlib.axis_1">
    <g id="xtick_1">
     <g id="line2d_1">
      <defs>
       <path id="m0a5b5c8331" d="M 0 0 
L 0 3.5 
" style="stroke: #000000; stroke-width: 0.8"/>
      </defs>
      <g>
       <use xlink:href="#m0a5b5c8331" x="69.235717" y="139.811563" style="stroke: #000000; stroke-width: 0.8"/>
      </g>
     </g>
     <g id="text_1">
      <!-- 0.0 -->
      <g transform="translate(62.079311 153.650156) scale(0.09 -0.09)">
       <defs>
        <path id="DejaVuSans-30" d="M 2034 4250 
Q 1547 4250 1301 3770 
Q 1056 3291 1056 2328 
Q 1056 1369 1301 889 
Q 1547 409 2034 409 
Q 2525 409 2770 889 
Q 3016 1369 3016 2328 
Q 3016 3291 2770 3770 
Q 2525 4250 2034 4250 
z
M 2034 4750 
Q 2819 4750 3233 4129 
Q 3647 3509 3647 2328 
Q 3647 1150 3233 529 
Q 2819 -91 2034 -91 
Q 1250 -91 836 529 
Q 422 1150 422 2328 
Q 422 3509 836 4129 
Q 1250 4750 2034 4750 
z
" transform="scale(0.015625)"/>
        <path id="DejaVuSans-2e" d="M 684 794 
L 1344 794 
L 1344 0 
L 684 0 
L 684 794 
z
" transform="scale(0.015625)"/>
       </defs>
       <use xlink:href="#DejaVuSans-30"/>
       <use xlink:href="#DejaVuSans-2e" transform="translate(63.623047 0)"/>
       <use xlink:href="#DejaVuSans-30" transform="translate(95.410156 0)"/>
      </g>
     </g>
    </g>
    <g id="xtick_2">
     <g id="line2d_2">
      <g>
       <use xlink:href="#m0a5b5c8331" x="117.281219" y="139.811563" style="stroke: #000000; stroke-width: 0.8"/>
      </g>
     </g>
     <g id="text_2">
      <!-- 2.5 -->
      <g transform="translate(110.124813 153.650156) scale(0.09 -0.09)">
       <defs>
        <path id="DejaVuSans-32" d="M 1228 531 
L 3431 531 
L 3431 0 
L 469 0 
L 469 531 
Q 828 903 1448 1529 
Q 2069 2156 2228 2338 
Q 2531 2678 2651 2914 
Q 2772 3150 2772 3378 
Q 2772 3750 2511 3984 
Q 2250 4219 1831 4219 
Q 1534 4219 1204 4116 
Q 875 4013 500 3803 
L 500 4441 
Q 881 4594 1212 4672 
Q 1544 4750 1819 4750 
Q 2544 4750 2975 4387 
Q 3406 4025 3406 3419 
Q 3406 3131 3298 2873 
Q 3191 2616 2906 2266 
Q 2828 2175 2409 1742 
Q 1991 1309 1228 531 
z
" transform="scale(0.015625)"/>
        <path id="DejaVuSans-35" d="M 691 4666 
L 3169 4666 
L 3169 4134 
L 1269 4134 
L 1269 2991 
Q 1406 3038 1543 3061 
Q 1681 3084 1819 3084 
Q 2600 3084 3056 2656 
Q 3513 2228 3513 1497 
Q 3513 744 3044 326 
Q 2575 -91 1722 -91 
Q 1428 -91 1123 -41 
Q 819 9 494 109 
L 494 744 
Q 775 591 1075 516 
Q 1375 441 1709 441 
Q 2250 441 2565 725 
Q 2881 1009 2881 1497 
Q 2881 1984 2565 2268 
Q 2250 2553 1709 2553 
Q 1456 2553 1204 2497 
Q 953 2441 691 2322 
L 691 4666 
z
" transform="scale(0.015625)"/>
       </defs>
       <use xlink:href="#DejaVuSans-32"/>
       <use xlink:href="#DejaVuSans-2e" transform="translate(63.623047 0)"/>
       <use xlink:href="#DejaVuSans-35" transform="translate(95.410156 0)"/>
      </g>
     </g>
    </g>
    <g id="xtick_3">
     <g id="line2d_3">
      <g>
       <use xlink:href="#m0a5b5c8331" x="165.326721" y="139.811563" style="stroke: #000000; stroke-width: 0.8"/>
      </g>
     </g>
     <g id="text_3">
      <!-- 5.0 -->
      <g transform="translate(158.170315 153.650156) scale(0.09 -0.09)">
       <use xlink:href="#DejaVuSans-35"/>
       <use xlink:href="#DejaVuSans-2e" transform="translate(63.623047 0)"/>
       <use xlink:href="#DejaVuSans-30" transform="translate(95.410156 0)"/>
      </g>
     </g>
    </g>
    <g id="xtick_4">
     <g id="line2d_4">
      <g>
       <use xlink:href="#m0a5b5c8331" x="213.372223" y="139.811563" style="stroke: #000000; stroke-width: 0.8"/>
      </g>
     </g>
     <g id="text_4">
      <!-- 7.5 -->
      <g transform="translate(206.215816 153.650156) scale(0.09 -0.09)">
       <defs>
        <path id="DejaVuSans-37" d="M 525 4666 
L 3525 4666 
L 3525 4397 
L 1831 0 
L 1172 0 
L 2766 4134 
L 525 4134 
L 525 4666 
z
" transform="scale(0.015625)"/>
       </defs>
       <use xlink:href="#DejaVuSans-37"/>
       <use xlink:href="#DejaVuSans-2e" transform="translate(63.623047 0)"/>
       <use xlink:href="#DejaVuSans-35" transform="translate(95.410156 0)"/>
      </g>
     </g>
    </g>
    <g id="xtick_5">
     <g id="line2d_5">
      <g>
       <use xlink:href="#m0a5b5c8331" x="261.417724" y="139.811563" style="stroke: #000000; stroke-width: 0.8"/>
      </g>
     </g>
     <g id="text_5">
      <!-- 10.0 -->
      <g transform="translate(251.398193 153.650156) scale(0.09 -0.09)">
       <defs>
        <path id="DejaVuSans-31" d="M 794 531 
L 1825 531 
L 1825 4091 
L 703 3866 
L 703 4441 
L 1819 4666 
L 2450 4666 
L 2450 531 
L 3481 531 
L 3481 0 
L 794 0 
L 794 531 
z
" transform="scale(0.015625)"/>
       </defs>
       <use xlink:href="#DejaVuSans-31"/>
       <use xlink:href="#DejaVuSans-30" transform="translate(63.623047 0)"/>
       <use xlink:href="#DejaVuSans-2e" transform="translate(127.246094 0)"/>
       <use xlink:href="#DejaVuSans-30" transform="translate(159.033203 0)"/>
      </g>
     </g>
    </g>
    <g id="xtick_6">
     <g id="line2d_6">
      <g>
       <use xlink:href="#m0a5b5c8331" x="309.463226" y="139.811563" style="stroke: #000000; stroke-width: 0.8"/>
      </g>
     </g>
     <g id="text_6">
      <!-- 12.5 -->
      <g transform="translate(299.443695 153.650156) scale(0.09 -0.09)">
       <use xlink:href="#DejaVuSans-31"/>
       <use xlink:href="#DejaVuSans-32" transform="translate(63.623047 0)"/>
       <use xlink:href="#DejaVuSans-2e" transform="translate(127.246094 0)"/>
       <use xlink:href="#DejaVuSans-35" transform="translate(159.033203 0)"/>
      </g>
     </g>
    </g>
    <g id="xtick_7">
     <g id="line2d_7">
      <g>
       <use xlink:href="#m0a5b5c8331" x="357.508728" y="139.811563" style="stroke: #000000; stroke-width: 0.8"/>
      </g>
     </g>
     <g id="text_7">
      <!-- 15.0 -->
      <g transform="translate(347.489197 153.650156) scale(0.09 -0.09)">
       <use xlink:href="#DejaVuSans-31"/>
       <use xlink:href="#DejaVuSans-35" transform="translate(63.623047 0)"/>
       <use xlink:href="#DejaVuSans-2e" transform="translate(127.246094 0)"/>
       <use xlink:href="#DejaVuSans-30" transform="translate(159.033203 0)"/>
      </g>
     </g>
    </g>
    <g id="text_8">
     <!-- Time [min] -->
     <g transform="translate(201.113984 167.120313) scale(0.1 -0.1)">
      <defs>
       <path id="DejaVuSans-54" d="M -19 4666 
L 3928 4666 
L 3928 4134 
L 2272 4134 
L 2272 0 
L 1638 0 
L 1638 4134 
L -19 4134 
L -19 4666 
z
" transform="scale(0.015625)"/>
       <path id="DejaVuSans-69" d="M 603 3500 
L 1178 3500 
L 1178 0 
L 603 0 
L 603 3500 
z
M 603 4863 
L 1178 4863 
L 1178 4134 
L 603 4134 
L 603 4863 
z
" transform="scale(0.015625)"/>
       <path id="DejaVuSans-6d" d="M 3328 2828 
Q 3544 3216 3844 3400 
Q 4144 3584 4550 3584 
Q 5097 3584 5394 3201 
Q 5691 2819 5691 2113 
L 5691 0 
L 5113 0 
L 5113 2094 
Q 5113 2597 4934 2840 
Q 4756 3084 4391 3084 
Q 3944 3084 3684 2787 
Q 3425 2491 3425 1978 
L 3425 0 
L 2847 0 
L 2847 2094 
Q 2847 2600 2669 2842 
Q 2491 3084 2119 3084 
Q 1678 3084 1418 2786 
Q 1159 2488 1159 1978 
L 1159 0 
L 581 0 
L 581 3500 
L 1159 3500 
L 1159 2956 
Q 1356 3278 1631 3431 
Q 1906 3584 2284 3584 
Q 2666 3584 2933 3390 
Q 3200 3197 3328 2828 
z
" transform="scale(0.015625)"/>
       <path id="DejaVuSans-65" d="M 3597 1894 
L 3597 1613 
L 953 1613 
Q 991 1019 1311 708 
Q 1631 397 2203 397 
Q 2534 397 2845 478 
Q 3156 559 3463 722 
L 3463 178 
Q 3153 47 2828 -22 
Q 2503 -91 2169 -91 
Q 1331 -91 842 396 
Q 353 884 353 1716 
Q 353 2575 817 3079 
Q 1281 3584 2069 3584 
Q 2775 3584 3186 3129 
Q 3597 2675 3597 1894 
z
M 3022 2063 
Q 3016 2534 2758 2815 
Q 2500 3097 2075 3097 
Q 1594 3097 1305 2825 
Q 1016 2553 972 2059 
L 3022 2063 
z
" transform="scale(0.015625)"/>
       <path id="DejaVuSans-20" transform="scale(0.015625)"/>
       <path id="DejaVuSans-5b" d="M 550 4863 
L 1875 4863 
L 1875 4416 
L 1125 4416 
L 1125 -397 
L 1875 -397 
L 1875 -844 
L 550 -844 
L 550 4863 
z
" transform="scale(0.015625)"/>
       <path id="DejaVuSans-6e" d="M 3513 2113 
L 3513 0 
L 2938 0 
L 2938 2094 
Q 2938 2591 2744 2837 
Q 2550 3084 2163 3084 
Q 1697 3084 1428 2787 
Q 1159 2491 1159 1978 
L 1159 0 
L 581 0 
L 581 3500 
L 1159 3500 
L 1159 2956 
Q 1366 3272 1645 3428 
Q 1925 3584 2291 3584 
Q 2894 3584 3203 3211 
Q 3513 2838 3513 2113 
z
" transform="scale(0.015625)"/>
       <path id="DejaVuSans-5d" d="M 1947 4863 
L 1947 -844 
L 622 -844 
L 622 -397 
L 1369 -397 
L 1369 4416 
L 622 4416 
L 622 4863 
L 1947 4863 
z
" transform="scale(0.015625)"/>
      </defs>
      <use xlink:href="#DejaVuSans-54"/>
      <use xlink:href="#DejaVuSans-69" transform="translate(57.958984 0)"/>
      <use xlink:href="#DejaVuSans-6d" transform="translate(85.742188 0)"/>
      <use xlink:href="#DejaVuSans-65" transform="translate(183.154297 0)"/>
      <use xlink:href="#DejaVuSans-20" transform="translate(244.677734 0)"/>
      <use xlink:href="#DejaVuSans-5b" transform="translate(276.464844 0)"/>
      <use xlink:href="#DejaVuSans-6d" transform="translate(315.478516 0)"/>
      <use xlink:href="#DejaVuSans-69" transform="translate(412.890625 0)"/>
      <use xlink:href="#DejaVuSans-6e" transform="translate(440.673828 0)"/>
      <use xlink:href="#DejaVuSans-5d" transform="translate(504.052734 0)"/>
     </g>
    </g>
   </g>
   <g id="matplotlib.axis_2">
    <g id="ytick_1">
     <g id="line2d_8">
      <defs>
       <path id="mbe8725acca" d="M 0 0 
L -3.5 0 
" style="stroke: #000000; stroke-width: 0.8"/>
      </defs>
      <g>
       <use xlink:href="#mbe8725acca" x="53.332656" y="131.267434" style="stroke: #000000; stroke-width: 0.8"/>
      </g>
     </g>
     <g id="text_9">
      <!-- −0.2 -->
      <g transform="translate(24.478125 134.686731) scale(0.09 -0.09)">
       <defs>
        <path id="DejaVuSans-2212" d="M 678 2272 
L 4684 2272 
L 4684 1741 
L 678 1741 
L 678 2272 
z
" transform="scale(0.015625)"/>
       </defs>
       <use xlink:href="#DejaVuSans-2212"/>
       <use xlink:href="#DejaVuSans-30" transform="translate(83.789062 0)"/>
       <use xlink:href="#DejaVuSans-2e" transform="translate(147.412109 0)"/>
       <use xlink:href="#DejaVuSans-32" transform="translate(179.199219 0)"/>
      </g>
     </g>
    </g>
    <g id="ytick_2">
     <g id="line2d_9">
      <g>
       <use xlink:href="#mbe8725acca" x="53.332656" y="104.244858" style="stroke: #000000; stroke-width: 0.8"/>
      </g>
     </g>
     <g id="text_10">
      <!-- 0.0 -->
      <g transform="translate(32.019844 107.664155) scale(0.09 -0.09)">
       <use xlink:href="#DejaVuSans-30"/>
       <use xlink:href="#DejaVuSans-2e" transform="translate(63.623047 0)"/>
       <use xlink:href="#DejaVuSans-30" transform="translate(95.410156 0)"/>
      </g>
     </g>
    </g>
    <g id="ytick_3">
     <g id="line2d_10">
      <g>
       <use xlink:href="#mbe8725acca" x="53.332656" y="77.222282" style="stroke: #000000; stroke-width: 0.8"/>
      </g>
     </g>
     <g id="text_11">
      <!-- 0.2 -->
      <g transform="translate(32.019844 80.641578) scale(0.09 -0.09)">
       <use xlink:href="#DejaVuSans-30"/>
       <use xlink:href="#DejaVuSans-2e" transform="translate(63.623047 0)"/>
       <use xlink:href="#DejaVuSans-32" transform="translate(95.410156 0)"/>
      </g>
     </g>
    </g>
    <g id="ytick_4">
     <g id="line2d_11">
      <g>
       <use xlink:href="#mbe8725acca" x="53.332656" y="50.199705" style="stroke: #000000; stroke-width: 0.8"/>
      </g>
     </g>
     <g id="text_12">
      <!-- 0.4 -->
      <g transform="translate(32.019844 53.619002) scale(0.09 -0.09)">
       <defs>
        <path id="DejaVuSans-34" d="M 2419 4116 
L 825 1625 
L 2419 1625 
L 2419 4116 
z
M 2253 4666 
L 3047 4666 
L 3047 1625 
L 3713 1625 
L 3713 1100 
L 3047 1100 
L 3047 0 
L 2419 0 
L 2419 1100 
L 313 1100 
L 313 1709 
L 2253 4666 
z
" transform="scale(0.015625)"/>
       </defs>
       <use xlink:href="#DejaVuSans-30"/>
       <use xlink:href="#DejaVuSans-2e" transform="translate(63.623047 0)"/>
       <use xlink:href="#DejaVuSans-34" transform="translate(95.410156 0)"/>
      </g>
     </g>
    </g>
    <g id="ytick_5">
     <g id="line2d_12">
      <g>
       <use xlink:href="#mbe8725acca" x="53.332656" y="23.177129" style="stroke: #000000; stroke-width: 0.8"/>
      </g>
     </g>
     <g id="text_13">
      <!-- 0.6 -->
      <g transform="translate(32.019844 26.596426) scale(0.09 -0.09)">
       <defs>
        <path id="DejaVuSans-36" d="M 2113 2584 
Q 1688 2584 1439 2293 
Q 1191 2003 1191 1497 
Q 1191 994 1439 701 
Q 1688 409 2113 409 
Q 2538 409 2786 701 
Q 3034 994 3034 1497 
Q 3034 2003 2786 2293 
Q 2538 2584 2113 2584 
z
M 3366 4563 
L 3366 3988 
Q 3128 4100 2886 4159 
Q 2644 4219 2406 4219 
Q 1781 4219 1451 3797 
Q 1122 3375 1075 2522 
Q 1259 2794 1537 2939 
Q 1816 3084 2150 3084 
Q 2853 3084 3261 2657 
Q 3669 2231 3669 1497 
Q 3669 778 3244 343 
Q 2819 -91 2113 -91 
Q 1303 -91 875 529 
Q 447 1150 447 2328 
Q 447 3434 972 4092 
Q 1497 4750 2381 4750 
Q 2619 4750 2861 4703 
Q 3103 4656 3366 4563 
z
" transform="scale(0.015625)"/>
       </defs>
       <use xlink:href="#DejaVuSans-30"/>
       <use xlink:href="#DejaVuSans-2e" transform="translate(63.623047 0)"/>
       <use xlink:href="#DejaVuSans-36" transform="translate(95.410156 0)"/>
      </g>
     </g>
    </g>
    <g id="text_14">
     <!-- Panel 1 Angular Displacement [r] -->
     <g transform="translate(18.398438 158.101875) rotate(-90) scale(0.1 -0.1)">
      <defs>
       <path id="DejaVuSans-50" d="M 1259 4147 
L 1259 2394 
L 2053 2394 
Q 2494 2394 2734 2622 
Q 2975 2850 2975 3272 
Q 2975 3691 2734 3919 
Q 2494 4147 2053 4147 
L 1259 4147 
z
M 628 4666 
L 2053 4666 
Q 2838 4666 3239 4311 
Q 3641 3956 3641 3272 
Q 3641 2581 3239 2228 
Q 2838 1875 2053 1875 
L 1259 1875 
L 1259 0 
L 628 0 
L 628 4666 
z
" transform="scale(0.015625)"/>
       <path id="DejaVuSans-61" d="M 2194 1759 
Q 1497 1759 1228 1600 
Q 959 1441 959 1056 
Q 959 750 1161 570 
Q 1363 391 1709 391 
Q 2188 391 2477 730 
Q 2766 1069 2766 1631 
L 2766 1759 
L 2194 1759 
z
M 3341 1997 
L 3341 0 
L 2766 0 
L 2766 531 
Q 2569 213 2275 61 
Q 1981 -91 1556 -91 
Q 1019 -91 701 211 
Q 384 513 384 1019 
Q 384 1609 779 1909 
Q 1175 2209 1959 2209 
L 2766 2209 
L 2766 2266 
Q 2766 2663 2505 2880 
Q 2244 3097 1772 3097 
Q 1472 3097 1187 3025 
Q 903 2953 641 2809 
L 641 3341 
Q 956 3463 1253 3523 
Q 1550 3584 1831 3584 
Q 2591 3584 2966 3190 
Q 3341 2797 3341 1997 
z
" transform="scale(0.015625)"/>
       <path id="DejaVuSans-6c" d="M 603 4863 
L 1178 4863 
L 1178 0 
L 603 0 
L 603 4863 
z
" transform="scale(0.015625)"/>
       <path id="DejaVuSans-41" d="M 2188 4044 
L 1331 1722 
L 3047 1722 
L 2188 4044 
z
M 1831 4666 
L 2547 4666 
L 4325 0 
L 3669 0 
L 3244 1197 
L 1141 1197 
L 716 0 
L 50 0 
L 1831 4666 
z
" transform="scale(0.015625)"/>
       <path id="DejaVuSans-67" d="M 2906 1791 
Q 2906 2416 2648 2759 
Q 2391 3103 1925 3103 
Q 1463 3103 1205 2759 
Q 947 2416 947 1791 
Q 947 1169 1205 825 
Q 1463 481 1925 481 
Q 2391 481 2648 825 
Q 2906 1169 2906 1791 
z
M 3481 434 
Q 3481 -459 3084 -895 
Q 2688 -1331 1869 -1331 
Q 1566 -1331 1297 -1286 
Q 1028 -1241 775 -1147 
L 775 -588 
Q 1028 -725 1275 -790 
Q 1522 -856 1778 -856 
Q 2344 -856 2625 -561 
Q 2906 -266 2906 331 
L 2906 616 
Q 2728 306 2450 153 
Q 2172 0 1784 0 
Q 1141 0 747 490 
Q 353 981 353 1791 
Q 353 2603 747 3093 
Q 1141 3584 1784 3584 
Q 2172 3584 2450 3431 
Q 2728 3278 2906 2969 
L 2906 3500 
L 3481 3500 
L 3481 434 
z
" transform="scale(0.015625)"/>
       <path id="DejaVuSans-75" d="M 544 1381 
L 544 3500 
L 1119 3500 
L 1119 1403 
Q 1119 906 1312 657 
Q 1506 409 1894 409 
Q 2359 409 2629 706 
Q 2900 1003 2900 1516 
L 2900 3500 
L 3475 3500 
L 3475 0 
L 2900 0 
L 2900 538 
Q 2691 219 2414 64 
Q 2138 -91 1772 -91 
Q 1169 -91 856 284 
Q 544 659 544 1381 
z
M 1991 3584 
L 1991 3584 
z
" transform="scale(0.015625)"/>
       <path id="DejaVuSans-72" d="M 2631 2963 
Q 2534 3019 2420 3045 
Q 2306 3072 2169 3072 
Q 1681 3072 1420 2755 
Q 1159 2438 1159 1844 
L 1159 0 
L 581 0 
L 581 3500 
L 1159 3500 
L 1159 2956 
Q 1341 3275 1631 3429 
Q 1922 3584 2338 3584 
Q 2397 3584 2469 3576 
Q 2541 3569 2628 3553 
L 2631 2963 
z
" transform="scale(0.015625)"/>
       <path id="DejaVuSans-44" d="M 1259 4147 
L 1259 519 
L 2022 519 
Q 2988 519 3436 956 
Q 3884 1394 3884 2338 
Q 3884 3275 3436 3711 
Q 2988 4147 2022 4147 
L 1259 4147 
z
M 628 4666 
L 1925 4666 
Q 3281 4666 3915 4102 
Q 4550 3538 4550 2338 
Q 4550 1131 3912 565 
Q 3275 0 1925 0 
L 628 0 
L 628 4666 
z
" transform="scale(0.015625)"/>
       <path id="DejaVuSans-73" d="M 2834 3397 
L 2834 2853 
Q 2591 2978 2328 3040 
Q 2066 3103 1784 3103 
Q 1356 3103 1142 2972 
Q 928 2841 928 2578 
Q 928 2378 1081 2264 
Q 1234 2150 1697 2047 
L 1894 2003 
Q 2506 1872 2764 1633 
Q 3022 1394 3022 966 
Q 3022 478 2636 193 
Q 2250 -91 1575 -91 
Q 1294 -91 989 -36 
Q 684 19 347 128 
L 347 722 
Q 666 556 975 473 
Q 1284 391 1588 391 
Q 1994 391 2212 530 
Q 2431 669 2431 922 
Q 2431 1156 2273 1281 
Q 2116 1406 1581 1522 
L 1381 1569 
Q 847 1681 609 1914 
Q 372 2147 372 2553 
Q 372 3047 722 3315 
Q 1072 3584 1716 3584 
Q 2034 3584 2315 3537 
Q 2597 3491 2834 3397 
z
" transform="scale(0.015625)"/>
       <path id="DejaVuSans-70" d="M 1159 525 
L 1159 -1331 
L 581 -1331 
L 581 3500 
L 1159 3500 
L 1159 2969 
Q 1341 3281 1617 3432 
Q 1894 3584 2278 3584 
Q 2916 3584 3314 3078 
Q 3713 2572 3713 1747 
Q 3713 922 3314 415 
Q 2916 -91 2278 -91 
Q 1894 -91 1617 61 
Q 1341 213 1159 525 
z
M 3116 1747 
Q 3116 2381 2855 2742 
Q 2594 3103 2138 3103 
Q 1681 3103 1420 2742 
Q 1159 2381 1159 1747 
Q 1159 1113 1420 752 
Q 1681 391 2138 391 
Q 2594 391 2855 752 
Q 3116 1113 3116 1747 
z
" transform="scale(0.015625)"/>
       <path id="DejaVuSans-63" d="M 3122 3366 
L 3122 2828 
Q 2878 2963 2633 3030 
Q 2388 3097 2138 3097 
Q 1578 3097 1268 2742 
Q 959 2388 959 1747 
Q 959 1106 1268 751 
Q 1578 397 2138 397 
Q 2388 397 2633 464 
Q 2878 531 3122 666 
L 3122 134 
Q 2881 22 2623 -34 
Q 2366 -91 2075 -91 
Q 1284 -91 818 406 
Q 353 903 353 1747 
Q 353 2603 823 3093 
Q 1294 3584 2113 3584 
Q 2378 3584 2631 3529 
Q 2884 3475 3122 3366 
z
" transform="scale(0.015625)"/>
       <path id="DejaVuSans-74" d="M 1172 4494 
L 1172 3500 
L 2356 3500 
L 2356 3053 
L 1172 3053 
L 1172 1153 
Q 1172 725 1289 603 
Q 1406 481 1766 481 
L 2356 481 
L 2356 0 
L 1766 0 
Q 1100 0 847 248 
Q 594 497 594 1153 
L 594 3053 
L 172 3053 
L 172 3500 
L 594 3500 
L 594 4494 
L 1172 4494 
z
" transform="scale(0.015625)"/>
      </defs>
      <use xlink:href="#DejaVuSans-50"/>
      <use xlink:href="#DejaVuSans-61" transform="translate(55.802734 0)"/>
      <use xlink:href="#DejaVuSans-6e" transform="translate(117.082031 0)"/>
      <use xlink:href="#DejaVuSans-65" transform="translate(180.460938 0)"/>
      <use xlink:href="#DejaVuSans-6c" transform="translate(241.984375 0)"/>
      <use xlink:href="#DejaVuSans-20" transform="translate(269.767578 0)"/>
      <use xlink:href="#DejaVuSans-31" transform="translate(301.554688 0)"/>
      <use xlink:href="#DejaVuSans-20" transform="translate(365.177734 0)"/>
      <use xlink:href="#DejaVuSans-41" transform="translate(396.964844 0)"/>
      <use xlink:href="#DejaVuSans-6e" transform="translate(465.373047 0)"/>
      <use xlink:href="#DejaVuSans-67" transform="translate(528.751953 0)"/>
      <use xlink:href="#DejaVuSans-75" transform="translate(592.228516 0)"/>
      <use xlink:href="#DejaVuSans-6c" transform="translate(655.607422 0)"/>
      <use xlink:href="#DejaVuSans-61" transform="translate(683.390625 0)"/>
      <use xlink:href="#DejaVuSans-72" transform="translate(744.669922 0)"/>
      <use xlink:href="#DejaVuSans-20" transform="translate(785.783203 0)"/>
      <use xlink:href="#DejaVuSans-44" transform="translate(817.570312 0)"/>
      <use xlink:href="#DejaVuSans-69" transform="translate(894.572266 0)"/>
      <use xlink:href="#DejaVuSans-73" transform="translate(922.355469 0)"/>
      <use xlink:href="#DejaVuSans-70" transform="translate(974.455078 0)"/>
      <use xlink:href="#DejaVuSans-6c" transform="translate(1037.931641 0)"/>
      <use xlink:href="#DejaVuSans-61" transform="translate(1065.714844 0)"/>
      <use xlink:href="#DejaVuSans-63" transform="translate(1126.994141 0)"/>
      <use xlink:href="#DejaVuSans-65" transform="translate(1181.974609 0)"/>
      <use xlink:href="#DejaVuSans-6d" transform="translate(1243.498047 0)"/>
      <use xlink:href="#DejaVuSans-65" transform="translate(1340.910156 0)"/>
      <use xlink:href="#DejaVuSans-6e" transform="translate(1402.433594 0)"/>
      <use xlink:href="#DejaVuSans-74" transform="translate(1465.8125 0)"/>
      <use xlink:href="#DejaVuSans-20" transform="translate(1505.021484 0)"/>
      <use xlink:href="#DejaVuSans-5b" transform="translate(1536.808594 0)"/>
      <use xlink:href="#DejaVuSans-72" transform="translate(1575.822266 0)"/>
      <use xlink:href="#DejaVuSans-5d" transform="translate(1616.935547 0)"/>
     </g>
    </g>
   </g>
   <g id="line2d_13">
    <path d="M 69.235717 92.454035 
L 69.395869 98.29654 
L 69.716172 116.03424 
L 69.876324 110.346059 
L 70.196627 92.459598 
L 70.356779 97.992168 
L 70.677082 116.023315 
L 70.837234 110.647609 
L 71.157537 92.475882 
L 71.317689 97.693508 
L 71.637992 116.001675 
L 71.798144 110.943312 
L 72.118447 92.502872 
L 72.278599 97.40083 
L 72.598902 115.969341 
L 72.759054 111.232898 
L 73.079357 92.540543 
L 73.239509 97.114401 
L 73.559812 115.926343 
L 73.719964 111.516104 
L 74.040268 92.58886 
L 74.200419 96.834482 
L 74.520723 115.872719 
L 74.680874 111.792673 
L 75.001178 92.647779 
L 75.161329 96.561325 
L 75.481633 115.808518 
L 75.641784 112.062355 
L 75.962088 92.717246 
L 76.122239 96.29518 
L 76.442543 115.7338 
L 76.602694 112.324903 
L 76.922998 92.797199 
L 77.083149 96.036289 
L 77.403453 115.648631 
L 77.563604 112.58008 
L 77.883908 92.887563 
L 78.044059 95.784885 
L 78.364363 115.553091 
L 78.524514 112.827654 
L 78.844818 92.988258 
L 79.004969 95.541197 
L 79.325273 115.447265 
L 79.485424 113.0674 
L 79.805728 93.099192 
L 79.965879 95.305445 
L 80.286183 115.331249 
L 80.446334 113.299103 
L 80.766638 93.220263 
L 80.926789 95.077845 
L 81.247093 115.20515 
L 81.407244 113.52255 
L 81.727548 93.351362 
L 81.887699 94.858601 
L 82.208003 115.069081 
L 82.368154 113.737541 
L 82.688458 93.49237 
L 82.848609 94.647912 
L 83.168913 114.923166 
L 83.329065 113.943879 
L 83.649368 93.643158 
L 83.80952 94.44597 
L 84.129823 114.767539 
L 84.289975 114.14138 
L 84.610278 93.803589 
L 84.77043 94.252957 
L 85.090733 114.60234 
L 85.250885 114.329863 
L 85.571188 93.973519 
L 85.73134 94.069047 
L 86.051643 114.427719 
L 86.211795 114.509158 
L 86.532098 94.152792 
L 86.69225 93.894406 
L 87.012553 114.243835 
L 87.172705 114.679104 
L 87.493008 94.341245 
L 87.65316 93.729194 
L 87.973463 110.645314 
L 88.453918 75.305403 
L 88.61407 75.24048 
L 88.934373 24.354491 
L 89.094525 38.550923 
L 89.414828 89.936836 
L 89.57498 87.644322 
L 89.735131 93.370562 
L 90.055435 126.457118 
L 90.215586 125.264649 
L 90.53589 88.158964 
L 90.856193 39.78125 
L 91.016345 40.691335 
L 91.176496 54.309855 
L 91.336648 57.591993 
L 91.4968 56.750521 
L 91.977255 111.855349 
L 92.297558 84.263654 
L 92.45771 84.632107 
L 92.617862 88.762845 
L 92.778013 74.426891 
L 92.938165 49.429663 
L 93.098317 43.001878 
L 93.258468 51.836858 
L 93.41862 49.856179 
L 93.578772 52.041343 
L 94.059227 132.765919 
L 94.37953 96.833097 
L 94.539682 96.319591 
L 94.699833 102.236071 
L 94.859985 89.194408 
L 95.180288 37.001462 
L 95.34044 37.255004 
L 95.500592 42.555651 
L 95.660743 52.932952 
L 95.981047 108.129247 
L 96.141198 106.066759 
L 96.461502 77.600685 
L 96.781805 97.939192 
L 97.26226 42.208722 
L 97.582563 35.570517 
L 98.063018 126.268544 
L 98.383322 82.093145 
L 98.543473 87.743219 
L 98.703625 119.009025 
L 98.863777 126.641609 
L 99.344232 29.557952 
L 99.504383 50.042715 
L 99.664535 49.422652 
L 99.824687 51.399585 
L 100.14499 107.853392 
L 100.305142 99.130523 
L 100.465293 75.585761 
L 100.625445 77.949996 
L 100.785597 103.945768 
L 100.945748 109.714776 
L 101.426204 30.278189 
L 101.906659 70.17464 
L 102.226962 106.161081 
L 102.387114 99.038903 
L 102.547265 98.266309 
L 102.867569 130.199394 
L 103.02772 106.759711 
L 103.348024 38.705913 
L 103.508175 55.935893 
L 103.668327 57.58595 
L 103.828479 36.328334 
L 103.98863 49.338708 
L 104.308934 107.956854 
L 104.629237 72.312876 
L 104.94954 117.505368 
L 105.109692 101.347547 
L 105.429995 35.902997 
L 105.590147 53.154965 
L 105.750299 55.843344 
L 105.91045 38.836636 
L 106.070602 48.766032 
L 106.390905 115.687424 
L 106.551057 118.584286 
L 106.711209 113.886157 
L 106.87136 113.385542 
L 107.031512 108.258331 
L 107.351815 76.122467 
L 107.511967 71.293256 
L 107.672119 57.388285 
L 107.83227 29.556538 
L 107.992422 29.468961 
L 108.312725 97.215593 
L 108.633029 73.935667 
L 108.79318 87.55794 
L 108.953332 111.944356 
L 109.113484 109.51746 
L 109.433787 59.677146 
L 109.593939 69.428318 
L 109.75409 71.054403 
L 110.074394 16.664162 
L 110.554849 114.272041 
L 110.875152 102.685842 
L 111.355607 111.010284 
L 111.515759 105.693911 
L 111.996214 18.782337 
L 112.316517 77.795182 
L 112.636821 63.659122 
L 113.117276 110.946222 
L 113.437579 75.229524 
L 113.597731 86.415932 
L 113.757882 89.811168 
L 114.078186 24.597071 
L 114.238337 33.961641 
L 114.558641 76.839388 
L 114.718792 79.934935 
L 115.199247 119.824212 
L 115.359399 118.3512 
L 115.519551 115.639687 
L 115.679702 104.94716 
L 116.000006 43.888201 
L 116.160157 41.153685 
L 116.320309 56.436569 
L 116.480461 51.816421 
L 116.640612 41.379319 
L 117.121067 115.395212 
L 117.441371 75.019718 
L 117.761674 103.171436 
L 117.921826 83.724491 
L 118.081977 46.990982 
L 118.242129 41.183262 
L 118.402281 58.131194 
L 118.722584 40.071988 
L 119.203039 131.752054 
L 119.523342 96.11661 
L 119.683494 99.372563 
L 119.843646 106.975673 
L 120.003798 94.192537 
L 120.324101 47.705496 
L 120.644404 31.502153 
L 120.804556 42.572344 
L 121.124859 109.805208 
L 121.285011 101.216978 
L 121.445163 77.473795 
L 121.605314 77.812212 
L 121.765466 99.686233 
L 121.925618 105.073574 
L 122.245921 51.58419 
L 122.406073 50.639737 
L 122.566224 47.770809 
L 122.726376 29.580018 
L 122.886528 44.613161 
L 123.206831 125.625807 
L 123.366983 112.916623 
L 123.527134 84.284252 
L 123.687286 86.08058 
L 124.007589 127.952605 
L 124.488044 33.959426 
L 124.968499 52.371356 
L 125.288803 99.490421 
L 125.609106 77.205529 
L 125.769258 86.754713 
L 125.929409 108.046459 
L 126.089561 107.693446 
L 126.409864 48.769087 
L 126.570016 42.018603 
L 126.730168 40.473923 
L 126.890319 40.641388 
L 127.370774 101.491135 
L 127.530926 96.930715 
L 127.691078 99.068987 
L 128.011381 131.178617 
L 128.171533 114.482989 
L 128.491836 51.427455 
L 128.651988 52.054274 
L 128.81214 49.83847 
L 128.972291 38.000933 
L 129.132443 49.476324 
L 129.452746 93.391671 
L 129.612898 85.314442 
L 129.77305 83.618514 
L 130.093353 113.0863 
L 130.253505 98.620253 
L 130.573808 52.882634 
L 130.73396 57.975273 
L 130.894111 53.72129 
L 131.054263 36.687321 
L 131.214415 39.640768 
L 131.69487 116.409455 
L 131.855021 121.802682 
L 132.015173 118.368552 
L 132.495628 89.990223 
L 132.65578 86.817346 
L 133.136235 27.349328 
L 133.456538 80.318211 
L 133.61669 77.59708 
L 133.776841 79.522788 
L 134.097145 110.75592 
L 134.257296 100.731698 
L 134.417448 79.43241 
L 134.5776 73.631126 
L 134.737751 82.187776 
L 134.897903 75.163599 
L 135.218206 19.841752 
L 135.378358 38.080329 
L 135.698661 100.501125 
L 135.858813 110.686457 
L 136.018965 109.816492 
L 136.339268 99.322764 
L 136.659571 119.747032 
L 136.819723 98.72892 
L 137.140026 19.7234 
L 137.46033 68.334775 
L 137.620481 59.119225 
L 137.780633 57.687646 
L 138.100937 113.069759 
L 138.261088 104.742817 
L 138.42124 80.102808 
L 138.581392 78.491047 
L 138.741543 98.491651 
L 138.901695 98.445794 
L 139.221998 27.065248 
L 139.38215 35.639135 
L 139.542302 57.511323 
L 139.862605 72.366153 
L 140.182908 112.288433 
L 140.34306 113.115586 
L 140.503212 111.746396 
L 140.663363 117.250973 
L 140.823515 114.333135 
L 141.30397 45.006369 
L 141.464122 56.899477 
L 141.784425 33.370846 
L 142.26488 112.268891 
L 142.585183 73.310702 
L 142.905487 111.164206 
L 143.065638 87.317364 
L 143.22579 46.908793 
L 143.385942 42.242854 
L 143.546093 60.24135 
L 143.866397 33.365339 
L 144.346852 128.91885 
L 144.667155 96.604671 
L 144.987458 108.394991 
L 145.14761 97.308432 
L 145.628065 38.706458 
L 145.788217 26.954232 
L 145.948368 41.006371 
L 146.268672 104.558687 
L 146.588975 76.226272 
L 146.749127 84.140879 
L 146.909278 105.615554 
L 147.06943 105.739053 
L 147.389734 56.600534 
L 147.549885 57.814201 
L 147.710037 50.81667 
L 147.870189 25.97484 
L 148.03034 36.250621 
L 148.350644 118.829428 
L 148.510795 111.578335 
L 148.670947 89.640085 
L 148.831099 91.068814 
L 149.151402 126.265675 
L 149.311554 107.957799 
L 149.631857 41.110382 
L 149.792009 32.939109 
L 149.95216 38.888608 
L 150.432615 85.636253 
L 150.592767 83.297218 
L 150.752919 85.049634 
L 151.073222 107.416576 
L 151.233374 100.935793 
L 151.713829 55.206916 
L 152.034132 34.555207 
L 152.995042 122.104578 
L 153.155194 128.041863 
L 153.315345 114.87054 
L 153.7958 57.606608 
L 154.116104 39.165079 
L 154.276255 48.047206 
L 154.596559 75.59748 
L 155.077014 105.537574 
L 155.237165 103.084105 
L 155.71762 73.330681 
L 155.877772 66.131908 
L 156.198075 39.648871 
L 156.358227 36.453693 
L 156.518379 49.838198 
L 156.998834 127.660547 
L 157.158986 120.396206 
L 157.479289 91.868862 
L 157.639441 101.626353 
L 157.799592 104.444892 
L 158.280047 26.438694 
L 158.600351 62.841367 
L 158.760502 66.045598 
L 159.240957 106.412831 
L 159.561261 78.623898 
L 159.881564 94.603909 
L 160.041716 77.25222 
L 160.362019 26.986281 
L 160.522171 34.465751 
L 161.162777 112.907272 
L 161.483081 91.890956 
L 161.803384 127.629428 
L 161.963536 111.557906 
L 162.283839 25.738171 
L 162.604142 61.522753 
L 162.764294 49.492376 
L 162.924446 52.754167 
L 163.244749 111.790943 
L 163.565052 75.282246 
L 163.725204 82.75247 
L 163.885356 107.406386 
L 164.045507 103.829711 
L 164.365811 29.804944 
L 165.006417 64.059778 
L 165.326721 111.043072 
L 165.486873 111.101678 
L 165.647024 110.020722 
L 165.807176 117.762494 
L 165.967328 117.49433 
L 166.447783 51.661261 
L 166.607934 57.74922 
L 166.928238 29.845282 
L 167.408693 105.831064 
L 167.568844 81.754685 
L 167.728996 76.159519 
L 168.049299 114.32028 
L 168.529754 48.014421 
L 168.689906 63.219546 
L 169.010209 26.898644 
L 169.170361 54.302134 
L 169.490664 124.735527 
L 169.810968 100.89239 
L 169.971119 102.596319 
L 170.131271 107.559357 
L 170.291423 101.607304 
L 170.611726 66.181132 
L 170.932029 22.164034 
L 171.092181 40.745409 
L 171.412484 94.182308 
L 171.732788 77.743982 
L 172.053091 109.660543 
L 172.213243 102.205066 
L 172.533546 67.042913 
L 172.693698 70.37868 
L 172.853849 57.117707 
L 173.014001 25.344543 
L 173.174153 27.781277 
L 173.494456 104.253045 
L 173.654608 105.220191 
L 173.814759 95.208001 
L 173.974911 98.410176 
L 174.295214 122.468164 
L 174.455366 115.884671 
L 174.935821 30.20317 
L 175.095973 34.130117 
L 175.416276 68.533468 
L 175.576428 67.300454 
L 175.73658 74.076474 
L 176.056883 108.111753 
L 176.217035 103.880448 
L 176.537338 84.225821 
L 176.69749 84.222827 
L 176.857641 71.545617 
L 177.177945 33.190936 
L 178.138855 125.702408 
L 178.299006 123.172026 
L 178.939613 71.333947 
L 179.259916 41.316632 
L 179.740371 56.686752 
L 180.060675 106.721143 
L 180.220826 108.043032 
L 180.54113 82.483228 
L 180.861433 90.852042 
L 181.341888 43.274019 
L 181.662191 37.915424 
L 181.822343 60.330617 
L 182.142646 130.52143 
L 182.302798 120.97654 
L 182.46295 93.047465 
L 182.623101 86.215693 
L 182.943405 116.086873 
L 183.42386 29.172756 
L 183.744163 51.161931 
L 183.904315 57.313804 
L 184.224618 106.78468 
L 184.38477 101.113629 
L 184.544922 80.795264 
L 184.705073 78.309162 
L 185.025377 103.254975 
L 185.505832 31.808054 
L 185.665983 34.854448 
L 185.826135 47.263403 
L 186.30659 113.106621 
L 186.626893 88.906215 
L 186.947197 131.107708 
L 187.107348 117.262666 
L 187.427652 32.269662 
L 187.747955 58.51986 
L 187.908107 45.672626 
L 188.068258 50.927705 
L 188.388562 106.603564 
L 188.708865 74.436742 
L 188.869017 88.15062 
L 189.029168 112.58546 
L 189.18932 105.521426 
L 189.509623 35.116063 
L 189.829927 52.573469 
L 189.990078 48.013683 
L 190.15023 56.785832 
L 190.470533 106.581638 
L 190.950988 121.301682 
L 191.11114 118.374171 
L 191.591595 61.476136 
L 191.751747 60.419652 
L 192.07205 28.546778 
L 192.392353 94.705738 
L 192.552505 95.625433 
L 192.712657 78.73028 
L 192.872809 82.881824 
L 193.03296 106.926212 
L 193.193112 113.378073 
L 193.513415 57.5335 
L 193.673567 59.477279 
L 193.833719 69.9517 
L 194.154022 22.587579 
L 194.314174 42.214008 
L 194.634477 114.658155 
L 194.794629 116.093627 
L 195.114932 105.709422 
L 195.275084 103.458049 
L 195.435235 103.178788 
L 195.595387 102.274707 
L 195.755539 85.47005 
L 196.075842 16.726855 
L 196.235994 37.401885 
L 196.396145 74.022447 
L 196.556297 80.851294 
L 196.716449 71.049948 
L 196.8766 79.338821 
L 197.196904 112.044996 
L 197.517207 75.309615 
L 197.677359 79.060852 
L 197.83751 87.046914 
L 197.997662 66.557099 
L 198.157814 28.406968 
L 198.317965 24.369114 
L 198.638269 84.967021 
L 199.118724 104.15673 
L 199.599179 120.031127 
L 199.75933 111.760108 
L 200.239785 31.25965 
L 200.399937 56.189477 
L 200.560089 61.071165 
L 200.72024 48.263654 
L 200.880392 62.436544 
L 201.200695 115.963696 
L 201.520999 77.716713 
L 201.68115 85.078159 
L 201.841302 100.842619 
L 202.001454 86.375413 
L 202.321757 32.249562 
L 202.642061 58.385728 
L 202.802212 52.107771 
L 202.962364 69.762493 
L 203.282667 126.670506 
L 203.442819 118.801201 
L 203.602971 105.356535 
L 203.923274 101.764322 
L 204.403729 48.325022 
L 204.563881 46.434261 
L 204.724032 36.063082 
L 204.884184 40.657147 
L 205.204487 112.086654 
L 205.364639 107.396404 
L 205.524791 81.355199 
L 205.684942 76.166697 
L 206.005246 103.481504 
L 206.325549 46.94853 
L 206.485701 46.539762 
L 206.645852 49.031426 
L 206.806004 32.861127 
L 206.966156 44.72548 
L 207.286459 130.8964 
L 207.446611 122.612749 
L 207.606762 90.348458 
L 207.766914 82.21377 
L 208.087217 120.227508 
L 208.247369 96.035182 
L 208.567672 34.320203 
L 209.048127 53.716128 
L 209.368431 104.881008 
L 209.528582 94.11188 
L 209.688734 75.834057 
L 209.848886 81.643529 
L 210.009037 103.65436 
L 210.169189 106.323766 
L 210.649644 38.425652 
L 210.809796 34.740012 
L 210.969947 38.573049 
L 211.450403 111.89769 
L 211.770706 88.830045 
L 212.091009 132.862093 
L 212.251161 120.961543 
L 212.571464 40.3647 
L 212.731616 44.280777 
L 212.891768 54.170066 
L 213.051919 45.761275 
L 213.212071 52.927438 
L 213.532374 96.472253 
L 213.852678 78.754892 
L 214.172981 113.531681 
L 214.333133 103.113632 
L 214.653436 45.664154 
L 214.973739 49.978107 
L 215.133891 43.828845 
L 215.294043 51.438853 
L 215.774498 109.046479 
L 216.094801 127.747726 
L 216.254953 118.91851 
L 216.575256 75.539276 
L 216.735408 72.824285 
L 216.895559 65.779139 
L 217.215863 28.569502 
L 217.536166 83.530946 
L 217.696318 83.83031 
L 217.856469 78.307216 
L 218.176773 110.555941 
L 218.336924 107.875687 
L 218.657228 65.781842 
L 218.977531 76.063269 
L 219.297834 24.958022 
L 219.457986 33.181491 
L 219.938441 116.300436 
L 220.098593 118.60467 
L 220.418896 96.518582 
L 220.579048 99.80023 
L 220.7392 112.947864 
L 220.899351 105.27119 
L 221.219655 18.468795 
L 221.379806 31.839675 
L 221.539958 66.853918 
L 221.70011 68.850916 
L 221.860261 61.073913 
L 222.340716 109.993613 
L 222.66102 72.981736 
L 222.981323 99.528917 
L 223.461778 26.883082 
L 223.782081 69.157219 
L 224.262536 105.840766 
L 224.422688 104.092123 
L 224.58284 106.540842 
L 224.903143 125.56874 
L 225.383598 33.388947 
L 225.54375 55.301245 
L 225.703901 57.051449 
L 225.864053 36.826585 
L 226.024205 53.246267 
L 226.344508 116.149998 
L 226.664811 70.712032 
L 226.985115 112.003231 
L 227.145266 96.030596 
L 227.46557 33.140974 
L 227.625721 56.957314 
L 227.785873 60.76349 
L 227.946025 42.914013 
L 228.106176 55.126391 
L 228.42648 121.538639 
L 228.586631 117.032988 
L 228.746783 107.500547 
L 228.906935 108.78913 
L 229.067086 107.355443 
L 229.547542 60.314452 
L 229.707693 50.02682 
L 229.867845 26.971262 
L 230.027997 29.084701 
L 230.3483 109.83436 
L 230.508452 101.672283 
L 230.668603 75.505935 
L 230.828755 77.917227 
L 230.988907 104.761476 
L 231.149058 109.990112 
L 231.469362 48.728983 
L 231.789665 60.776668 
L 231.949817 32.637917 
L 232.109968 26.928982 
L 232.430272 123.151373 
L 232.590423 124.880363 
L 232.910727 84.617616 
L 233.23103 117.155732 
L 233.391182 106.899783 
L 233.871637 29.704717 
L 234.031788 31.592939 
L 234.512243 94.590682 
L 234.832547 79.370073 
L 235.15285 107.02502 
L 235.313002 101.973154 
L 235.633305 61.687027 
L 235.793457 53.718163 
L 236.11376 26.193433 
L 236.594215 105.914588 
L 236.914518 91.450203 
L 237.234822 128.918766 
L 237.394973 125.018615 
L 237.875428 42.610025 
L 238.03558 43.184768 
L 238.195732 47.351084 
L 239.316794 105.625014 
L 239.476945 96.634635 
L 239.9574 54.681985 
L 240.277704 41.96642 
L 240.437855 47.822519 
L 240.758159 79.030036 
L 241.078462 125.646941 
L 241.238614 130.729623 
L 241.719069 86.907044 
L 241.87922 85.212366 
L 242.039372 72.015836 
L 242.359675 31.896985 
L 243.160434 100.197495 
L 243.320585 105.918948 
L 243.80104 80.324229 
L 243.961192 82.780828 
L 244.121344 75.221685 
L 244.441647 34.359974 
L 244.601799 29.682959 
L 244.76195 48.331472 
L 245.082254 116.133625 
L 245.242405 124.075554 
L 245.562709 88.765467 
L 245.72286 96.609466 
L 245.883012 119.235643 
L 246.043164 117.582159 
L 246.363467 27.784452 
L 246.523619 28.563533 
L 246.68377 55.908381 
L 246.843922 59.352561 
L 247.004074 59.377686 
L 247.324377 105.779457 
L 247.484529 102.066347 
L 247.64468 81.92748 
L 247.804832 79.142979 
L 247.964984 97.720073 
L 248.125136 102.962985 
L 248.605591 31.257879 
L 249.086046 74.525324 
L 249.406349 103.391603 
L 249.566501 99.433417 
L 249.726652 103.198631 
L 250.046956 130.771608 
L 250.207107 105.132653 
L 250.527411 38.931058 
L 250.687562 53.325116 
L 250.847714 53.634906 
L 251.007866 35.360991 
L 251.168017 50.574825 
L 251.488321 108.67332 
L 251.808624 75.25305 
L 252.128927 114.019239 
L 252.289079 98.058222 
L 252.609382 39.238927 
L 252.769534 57.451163 
L 252.929686 59.09825 
L 253.089837 39.20434 
L 253.249989 46.686685 
L 253.570292 115.08759 
L 253.730444 118.547251 
L 254.050747 111.02112 
L 254.210899 106.641603 
L 254.851506 52.157995 
L 255.011657 24.502723 
L 255.171809 27.248804 
L 255.492112 98.127353 
L 255.652264 93.500031 
L 255.812416 79.001932 
L 255.972567 86.761052 
L 256.132719 107.236292 
L 256.292871 106.936142 
L 256.613174 60.166793 
L 256.773326 65.036953 
L 256.933478 64.89073 
L 257.253781 19.234227 
L 257.734236 120.476478 
L 258.054539 91.967397 
L 258.214691 97.870402 
L 258.374843 111.821055 
L 258.534994 115.876215 
L 258.695146 98.922297 
L 259.015449 26.005272 
L 259.175601 25.693935 
L 259.495904 75.158734 
L 259.656056 76.737693 
L 259.816208 76.547841 
L 260.136511 103.3204 
L 260.296663 104.033019 
L 260.616966 83.963889 
L 260.777118 81.420938 
L 260.937269 69.988183 
L 261.257573 22.581634 
L 261.898179 90.481732 
L 262.058331 98.144056 
L 262.378634 122.497826 
L 262.538786 121.886707 
L 262.698938 108.483184 
L 263.179393 39.300903 
L 263.499696 56.49359 
L 263.659848 53.689143 
L 263.819999 58.958779 
L 264.140303 104.894531 
L 264.300454 106.235264 
L 264.620758 87.418117 
L 264.780909 91.892589 
L 264.941061 87.442682 
L 265.261364 42.96981 
L 265.421516 43.955086 
L 265.581668 48.839195 
L 265.741819 45.239225 
L 265.901971 58.946247 
L 266.222275 128.935129 
L 266.382426 130.687845 
L 266.70273 93.357999 
L 267.023033 99.194497 
L 267.183185 82.704447 
L 267.503488 36.454458 
L 267.66364 39.08428 
L 267.823791 47.592011 
L 268.304246 104.376458 
L 268.464398 98.562438 
L 268.62455 85.475896 
L 268.784701 84.896103 
L 268.944853 93.927793 
L 269.105005 92.980181 
L 269.745611 31.618607 
L 269.905763 34.536462 
L 270.386218 123.939428 
L 270.706521 84.545647 
L 270.866673 96.587377 
L 271.026825 123.69097 
L 271.186976 124.560471 
L 271.667431 29.887495 
L 271.827583 47.508142 
L 272.147886 59.054075 
L 272.46819 98.277171 
L 272.628341 93.535373 
L 272.788493 82.260846 
L 272.948645 87.951706 
L 273.108796 104.244638 
L 273.268948 103.030826 
L 273.749403 38.569255 
L 273.909555 41.584703 
L 274.069706 48.970639 
L 274.550161 97.355223 
L 274.710313 98.640968 
L 274.870465 107.335972 
L 275.190768 130.640279 
L 275.671223 51.436921 
L 275.831375 54.27654 
L 275.991527 48.837297 
L 276.151678 35.378822 
L 276.31183 49.133835 
L 276.632133 96.173616 
L 276.952437 85.223286 
L 277.27274 110.540098 
L 277.432892 95.231852 
L 277.753195 53.50988 
L 277.913347 61.740854 
L 278.073498 57.249606 
L 278.23365 36.430006 
L 278.393802 37.364727 
L 278.874257 120.126427 
L 279.034408 120.236884 
L 279.514863 95.595477 
L 279.675015 96.188652 
L 279.835167 88.873776 
L 280.15547 22.996382 
L 280.315622 26.455674 
L 280.635925 80.758684 
L 280.796077 80.538962 
L 280.956228 83.505818 
L 281.276532 107.289461 
L 281.436683 97.606379 
L 281.596835 80.318182 
L 281.756987 76.150885 
L 281.917138 80.796953 
L 282.07729 69.093145 
L 282.397593 19.357204 
L 283.0382 107.839558 
L 283.358503 95.94647 
L 283.518655 104.114364 
L 283.678807 119.583739 
L 283.838958 118.422524 
L 284.319414 22.756276 
L 284.639717 66.735873 
L 284.799869 56.9017 
L 284.96002 65.168488 
L 285.280324 112.205718 
L 285.600627 80.889349 
L 285.760779 85.706474 
L 285.92093 99.270929 
L 286.081082 86.112674 
L 286.401385 23.122472 
L 286.88184 67.977339 
L 287.041992 78.314847 
L 287.362295 116.798635 
L 287.522447 117.281767 
L 287.84275 112.163867 
L 288.002902 99.394497 
L 288.323205 45.075736 
L 288.643509 56.786557 
L 288.80366 42.938186 
L 288.963812 42.160048 
L 289.284115 111.324005 
L 289.444267 107.47114 
L 289.604419 83.050965 
L 289.76457 79.016321 
L 289.924722 98.751665 
L 290.084874 102.748129 
L 290.405177 41.543164 
L 290.565329 45.562654 
L 290.72548 53.628431 
L 290.885632 38.274171 
L 291.045784 43.343465 
L 291.366087 129.075463 
L 291.526239 129.98469 
L 291.846542 89.414875 
L 292.166845 108.009008 
L 292.326997 91.315193 
L 292.6473 42.469732 
L 292.807452 36.825639 
L 292.967604 37.785296 
L 293.127755 56.531193 
L 293.448059 103.580479 
L 293.768362 78.007839 
L 293.928514 87.316252 
L 294.088666 103.59146 
L 294.248817 99.483524 
L 294.569121 55.305387 
L 294.729272 50.671184 
L 295.049576 26.850479 
L 295.530031 119.768112 
L 295.850334 86.108175 
L 296.010486 100.542571 
L 296.170637 126.194333 
L 296.330789 126.478698 
L 296.811244 35.366816 
L 297.131547 47.833124 
L 297.612002 87.229658 
L 297.772154 84.659482 
L 297.932306 85.830934 
L 298.252609 107.555475 
L 298.412761 98.977539 
L 298.733064 59.616963 
L 299.053367 41.925669 
L 299.213519 41.436192 
L 300.174429 129.902299 
L 300.334581 128.581118 
L 300.815036 69.110084 
L 300.975187 61.228449 
L 301.295491 35.207815 
L 302.256401 106.185747 
L 302.416552 102.821838 
L 302.736856 74.767227 
L 303.057159 69.579003 
L 303.537614 34.431898 
L 303.697766 52.125449 
L 304.018069 115.348729 
L 304.178221 126.834751 
L 304.658676 93.452736 
L 304.818828 108.07806 
L 304.978979 108.452053 
L 305.459434 25.062153 
L 305.779738 63.570408 
L 305.939889 65.982403 
L 306.260193 105.969417 
L 306.420344 105.31854 
L 306.740648 77.378659 
L 307.060951 96.058402 
L 307.541406 26.763404 
L 307.861709 63.581493 
L 308.182013 104.758076 
L 308.342164 106.785433 
L 308.502316 95.414722 
L 308.662468 95.722792 
L 308.982771 129.813849 
L 309.142923 102.998027 
L 309.463226 26.113077 
L 309.783529 60.194578 
L 309.943681 43.12337 
L 310.103833 54.696515 
L 310.424136 114.524341 
L 310.744439 72.629832 
L 311.064743 110.800932 
L 311.224894 97.964112 
L 311.545198 25.997159 
L 311.865501 58.822537 
L 312.025653 53.234371 
L 312.185805 64.649301 
L 312.506108 116.783464 
L 312.66626 114.132775 
L 312.826411 109.596178 
L 312.986563 113.315071 
L 313.146715 108.551992 
L 313.467018 55.146287 
L 313.62717 54.453999 
L 313.787321 56.701724 
L 313.947473 36.635354 
L 314.107625 31.825007 
L 314.427928 110.23776 
L 314.58808 104.790608 
L 314.748231 77.527688 
L 314.908383 76.851097 
L 315.068535 103.696511 
L 315.228686 111.00613 
L 315.54899 44.083501 
L 315.709141 48.781433 
L 315.869293 58.899704 
L 316.029445 36.530533 
L 316.189596 30.829366 
L 316.5099 122.949575 
L 316.670051 128.723117 
L 316.990355 90.38973 
L 317.310658 110.668852 
L 317.47081 98.963264 
L 317.951265 34.044847 
L 318.111416 30.869711 
L 318.591871 97.375639 
L 318.912175 77.111952 
L 319.232478 108.529342 
L 319.39263 100.397771 
L 319.712933 61.909097 
L 319.873085 59.98703 
L 320.193388 21.687309 
L 320.35354 46.72331 
L 320.673843 111.75132 
L 320.994147 90.843915 
L 321.474602 125.892477 
L 322.115208 36.020819 
L 322.27536 44.624757 
L 322.595663 72.38387 
L 322.755815 74.235493 
L 322.915967 78.630523 
L 323.23627 105.669958 
L 323.396422 105.343593 
L 324.357332 38.079708 
L 324.997938 91.530418 
L 325.318242 132.495567 
L 325.478393 125.03886 
L 325.798697 90.787917 
L 325.958848 84.150261 
L 326.119 71.135417 
L 326.439303 37.080076 
L 326.759607 55.732327 
L 326.919758 65.758489 
L 327.240062 103.819671 
L 327.400213 106.879782 
L 327.720517 82.813498 
L 327.880668 83.741001 
L 328.04082 85.469097 
L 328.681427 37.428225 
L 328.841578 39.639132 
L 329.322033 129.451774 
L 329.482185 116.390383 
L 329.642337 90.99261 
L 329.802488 89.824871 
L 330.122792 119.725181 
L 330.603247 26.075872 
L 330.92355 52.906875 
L 331.083702 58.646975 
L 331.404005 105.893278 
L 331.564157 100.218676 
L 331.724309 80.483183 
L 331.88446 78.922904 
L 332.044612 97.713348 
L 332.204764 103.119755 
L 332.685219 34.771758 
L 332.84537 40.224476 
L 333.005522 50.632785 
L 333.485977 107.205947 
L 333.646129 94.980711 
L 333.80628 92.612424 
L 334.126584 133.947401 
L 334.286735 114.601927 
L 334.607039 35.045906 
L 334.927342 54.501381 
L 335.087494 38.389524 
L 335.247645 49.606943 
L 335.567949 108.291246 
L 335.888252 74.115293 
L 336.208555 114.569518 
L 336.368707 102.103966 
L 336.68901 34.938921 
L 337.009314 57.334125 
L 337.169465 44.557614 
L 337.329617 51.7435 
L 337.64992 110.736722 
L 337.810072 114.270012 
L 337.970224 112.78852 
L 338.130375 115.666762 
L 338.290527 111.205606 
L 338.61083 70.440114 
L 338.931134 56.277912 
L 339.091285 31.358794 
L 339.251437 26.948654 
L 339.571741 99.646075 
L 339.731892 96.945209 
L 339.892044 79.036627 
L 340.052196 83.913166 
L 340.212347 107.002324 
L 340.372499 110.474805 
L 340.692802 55.234731 
L 341.013106 64.522298 
L 341.333409 20.263543 
L 341.813864 124.070762 
L 342.134167 96.224797 
L 342.294319 98.044391 
L 342.454471 107.017163 
L 342.614622 108.704956 
L 342.774774 95.601909 
L 343.255229 23.496471 
L 343.575532 79.012176 
L 343.735684 82.502251 
L 343.895836 76.582249 
L 344.055987 84.450278 
L 344.216139 101.912738 
L 344.376291 106.832613 
L 344.696594 80.124792 
L 344.856746 78.036164 
L 345.016897 73.179999 
L 345.337201 19.740602 
L 345.497352 36.627468 
L 345.817656 95.890662 
L 345.977807 95.470148 
L 346.137959 96.175892 
L 346.618414 122.870495 
L 346.778566 113.07233 
L 347.259021 33.986682 
L 347.579324 60.783509 
L 347.739476 59.724996 
L 347.899627 57.881793 
L 348.380083 108.77548 
L 348.700386 85.610207 
L 348.860538 89.960019 
L 349.020689 90.593795 
L 349.501144 39.960806 
L 349.661296 52.087744 
L 349.821448 52.237534 
L 349.981599 56.940096 
L 350.462054 132.029335 
L 350.942509 96.957845 
L 351.102661 95.284844 
L 351.743268 39.414913 
L 351.903419 42.175843 
L 352.063571 57.527862 
L 352.383874 106.349523 
L 352.544026 100.5284 
L 352.704178 85.135435 
L 352.864329 84.201816 
L 353.024481 94.698319 
L 353.184633 93.608515 
L 353.504936 54.959735 
L 353.665088 49.986232 
L 353.985391 30.049652 
L 354.145543 57.143581 
L 354.465846 128.400488 
L 354.625998 113.379002 
L 354.786149 87.352413 
L 354.946301 89.292566 
L 355.266604 124.750913 
L 355.747059 28.534467 
L 356.227514 58.900085 
L 356.547818 98.214661 
L 356.707969 93.095704 
L 356.868121 81.987985 
L 357.028273 86.853957 
L 357.188424 102.55162 
L 357.348576 102.850344 
L 357.829031 41.212756 
L 357.989183 38.282798 
L 358.149335 43.407006 
L 358.62979 100.803315 
L 358.789941 94.601934 
L 358.950093 97.41942 
L 359.270396 133.523191 
L 359.430548 117.590365 
L 359.750851 47.339556 
L 359.911003 47.653918 
L 360.071155 49.826748 
L 360.231306 39.426704 
L 360.391458 47.977122 
L 360.711761 96.11494 
L 361.032065 84.406801 
L 361.352368 110.579392 
L 361.51252 99.696078 
L 361.832823 49.789421 
L 361.992975 54.743363 
L 362.153126 55.691198 
L 362.313278 41.392596 
L 362.47343 41.495238 
L 362.953885 116.989375 
L 363.114036 120.896873 
L 363.274188 116.817935 
L 364.074946 60.622527 
L 364.235098 29.339099 
L 364.39525 25.948265 
L 364.715553 82.089869 
L 364.875705 85.206866 
L 365.035856 84.554556 
L 365.35616 106.405692 
L 365.516311 101.376279 
L 365.836615 72.020189 
L 365.996766 74.469832 
L 366.156918 68.531871 
L 366.477221 18.908291 
L 366.637373 41.016263 
L 366.957677 111.960656 
L 367.117828 114.387174 
L 367.438132 94.753699 
L 367.598283 99.444974 
L 367.758435 114.11681 
L 367.918587 116.073244 
L 368.399042 19.800693 
L 368.719345 70.156364 
L 368.879497 64.111598 
L 369.039648 67.052004 
L 369.359952 109.705807 
L 369.520103 101.401751 
L 369.680255 83.311286 
L 369.840407 83.357427 
L 370.000558 95.487292 
L 370.16071 87.169853 
L 370.481013 21.057586 
L 370.641165 35.398301 
L 370.961468 76.370749 
L 371.12162 84.531221 
L 371.441923 110.725312 
L 371.762227 116.64773 
L 371.922378 117.646466 
L 372.08253 103.304169 
L 372.402833 39.506634 
L 372.562985 46.474822 
L 372.723137 60.655112 
L 373.04344 42.744788 
L 373.363743 108.403092 
L 373.523895 108.860855 
L 373.684047 85.681498 
L 373.844198 78.991409 
L 374.164502 104.259166 
L 374.484805 41.010782 
L 374.644957 42.605269 
L 374.805108 56.296105 
L 374.96526 45.178029 
L 375.125412 42.385681 
L 375.605867 131.123047 
L 375.92617 97.824023 
L 376.246474 102.611429 
L 376.566777 66.859736 
L 376.88708 37.012074 
L 377.047232 32.495058 
L 377.207384 52.179388 
L 377.527687 104.429454 
L 377.84799 78.676175 
L 378.008142 88.062819 
L 378.168294 104.045783 
L 378.328445 98.641674 
L 378.648749 57.333756 
L 378.8089 57.856411 
L 379.129204 23.385508 
L 379.289355 46.373402 
L 379.609659 123.135418 
L 379.929962 88.404773 
L 380.090114 93.081177 
L 380.410417 126.252063 
L 380.570569 104.428214 
L 380.890872 35.174496 
L 381.051024 32.135526 
L 381.371327 61.051055 
L 381.69163 85.568721 
L 381.851782 84.109799 
L 382.011934 87.066257 
L 382.332237 105.096215 
L 382.492389 97.807362 
L 383.132995 39.215996 
L 383.293147 36.905599 
L 383.773602 88.216023 
L 383.933754 91.584654 
L 384.414209 131.110783 
L 384.57436 117.057949 
L 384.894664 66.614212 
L 385.214967 45.828305 
L 385.375119 40.138797 
L 385.535271 46.766445 
L 386.015726 88.172697 
L 386.336029 103.763215 
L 386.496181 101.64827 
L 387.296939 53.867224 
L 387.296939 53.867224 
" clip-path="url(#p1b1379a266)" style="fill: none; stroke: #1f77b4; stroke-width: 1.5; stroke-linecap: square"/>
   </g>
   <g id="patch_3">
    <path d="M 53.332656 139.811562 
L 53.332656 10.8 
" style="fill: none; stroke: #000000; stroke-width: 0.8; stroke-linejoin: miter; stroke-linecap: square"/>
   </g>
   <g id="patch_4">
    <path d="M 403.2 139.811562 
L 403.2 10.8 
" style="fill: none; stroke: #000000; stroke-width: 0.8; stroke-linejoin: miter; stroke-linecap: square"/>
   </g>
   <g id="patch_5">
    <path d="M 53.332656 139.811563 
L 403.2 139.811563 
" style="fill: none; stroke: #000000; stroke-width: 0.8; stroke-linejoin: miter; stroke-linecap: square"/>
   </g>
   <g id="patch_6">
    <path d="M 53.332656 10.8 
L 403.2 10.8 
" style="fill: none; stroke: #000000; stroke-width: 0.8; stroke-linejoin: miter; stroke-linecap: square"/>
   </g>
  </g>
 </g>
 <defs>
  <clipPath id="p1b1379a266">
   <rect x="53.332656" y="10.8" width="349.867344" height="129.011562"/>
  </clipPath>
 </defs>
</svg>
