<?xml version="1.0" encoding="utf-8" standalone="no"?>
<!DOCTYPE svg PUBLIC "-//W3C//DTD SVG 1.1//EN"
  "http://www.w3.org/Graphics/SVG/1.1/DTD/svg11.dtd">
<svg xmlns:xlink="http://www.w3.org/1999/xlink" width="414pt" height="288pt" viewBox="0 0 414 288" xmlns="http://www.w3.org/2000/svg" version="1.1">
 <metadata>
  <rdf:RDF xmlns:dc="http://purl.org/dc/elements/1.1/" xmlns:cc="http://creativecommons.org/ns#" xmlns:rdf="http://www.w3.org/1999/02/22-rdf-syntax-ns#">
   <cc:Work>
    <dc:type rdf:resource="http://purl.org/dc/dcmitype/StillImage"/>
    <dc:date>2025-04-24T17:24:23.604123</dc:date>
    <dc:format>image/svg+xml</dc:format>
    <dc:creator>
     <cc:Agent>
      <dc:title>Matplotlib v3.10.1, https://matplotlib.org/</dc:title>
     </cc:Agent>
    </dc:creator>
   </cc:Work>
  </rdf:RDF>
 </metadata>
 <defs>
  <style type="text/css">*{stroke-linejoin: round; stroke-linecap: butt}</style>
 </defs>
 <g id="figure_1">
  <g id="patch_1">
   <path d="M 0 288 
L 414 288 
L 414 0 
L 0 0 
L 0 288 
z
" style="fill: none"/>
  </g>
  <g id="axes_1">
   <g id="patch_2">
    <path d="M 88.283438 235.23 
L 403.2 235.23 
L 403.2 33.516563 
L 88.283438 33.516563 
L 88.283438 235.23 
z
" style="fill: none"/>
   </g>
   <g id="matplotlib.axis_1">
    <g id="xtick_1">
     <g id="line2d_1">
      <defs>
       <path id="m31702121de" d="M 0 0 
L 0 3.5 
" style="stroke: #000000; stroke-width: 0.8"/>
      </defs>
      <g>
       <use xlink:href="#m31702121de" x="102.597827" y="235.23" style="stroke: #000000; stroke-width: 0.8"/>
      </g>
     </g>
     <g id="text_1">
      <!-- 0 -->
      <g transform="translate(98.144077 252.867813) scale(0.14 -0.14)">
       <defs>
        <path id="DejaVuSans-30" d="M 2034 4250 
Q 1547 4250 1301 3770 
Q 1056 3291 1056 2328 
Q 1056 1369 1301 889 
Q 1547 409 2034 409 
Q 2525 409 2770 889 
Q 3016 1369 3016 2328 
Q 3016 3291 2770 3770 
Q 2525 4250 2034 4250 
z
M 2034 4750 
Q 2819 4750 3233 4129 
Q 3647 3509 3647 2328 
Q 3647 1150 3233 529 
Q 2819 -91 2034 -91 
Q 1250 -91 836 529 
Q 422 1150 422 2328 
Q 422 3509 836 4129 
Q 1250 4750 2034 4750 
z
" transform="scale(0.015625)"/>
       </defs>
       <use xlink:href="#DejaVuSans-30"/>
      </g>
     </g>
    </g>
    <g id="xtick_2">
     <g id="line2d_2">
      <g>
       <use xlink:href="#m31702121de" x="159.855384" y="235.23" style="stroke: #000000; stroke-width: 0.8"/>
      </g>
     </g>
     <g id="text_2">
      <!-- 1 -->
      <g transform="translate(155.401634 252.867813) scale(0.14 -0.14)">
       <defs>
        <path id="DejaVuSans-31" d="M 794 531 
L 1825 531 
L 1825 4091 
L 703 3866 
L 703 4441 
L 1819 4666 
L 2450 4666 
L 2450 531 
L 3481 531 
L 3481 0 
L 794 0 
L 794 531 
z
" transform="scale(0.015625)"/>
       </defs>
       <use xlink:href="#DejaVuSans-31"/>
      </g>
     </g>
    </g>
    <g id="xtick_3">
     <g id="line2d_3">
      <g>
       <use xlink:href="#m31702121de" x="217.11294" y="235.23" style="stroke: #000000; stroke-width: 0.8"/>
      </g>
     </g>
     <g id="text_3">
      <!-- 2 -->
      <g transform="translate(212.65919 252.867813) scale(0.14 -0.14)">
       <defs>
        <path id="DejaVuSans-32" d="M 1228 531 
L 3431 531 
L 3431 0 
L 469 0 
L 469 531 
Q 828 903 1448 1529 
Q 2069 2156 2228 2338 
Q 2531 2678 2651 2914 
Q 2772 3150 2772 3378 
Q 2772 3750 2511 3984 
Q 2250 4219 1831 4219 
Q 1534 4219 1204 4116 
Q 875 4013 500 3803 
L 500 4441 
Q 881 4594 1212 4672 
Q 1544 4750 1819 4750 
Q 2544 4750 2975 4387 
Q 3406 4025 3406 3419 
Q 3406 3131 3298 2873 
Q 3191 2616 2906 2266 
Q 2828 2175 2409 1742 
Q 1991 1309 1228 531 
z
" transform="scale(0.015625)"/>
       </defs>
       <use xlink:href="#DejaVuSans-32"/>
      </g>
     </g>
    </g>
    <g id="xtick_4">
     <g id="line2d_4">
      <g>
       <use xlink:href="#m31702121de" x="274.370497" y="235.23" style="stroke: #000000; stroke-width: 0.8"/>
      </g>
     </g>
     <g id="text_4">
      <!-- 3 -->
      <g transform="translate(269.916747 252.867813) scale(0.14 -0.14)">
       <defs>
        <path id="DejaVuSans-33" d="M 2597 2516 
Q 3050 2419 3304 2112 
Q 3559 1806 3559 1356 
Q 3559 666 3084 287 
Q 2609 -91 1734 -91 
Q 1441 -91 1130 -33 
Q 819 25 488 141 
L 488 750 
Q 750 597 1062 519 
Q 1375 441 1716 441 
Q 2309 441 2620 675 
Q 2931 909 2931 1356 
Q 2931 1769 2642 2001 
Q 2353 2234 1838 2234 
L 1294 2234 
L 1294 2753 
L 1863 2753 
Q 2328 2753 2575 2939 
Q 2822 3125 2822 3475 
Q 2822 3834 2567 4026 
Q 2313 4219 1838 4219 
Q 1578 4219 1281 4162 
Q 984 4106 628 3988 
L 628 4550 
Q 988 4650 1302 4700 
Q 1616 4750 1894 4750 
Q 2613 4750 3031 4423 
Q 3450 4097 3450 3541 
Q 3450 3153 3228 2886 
Q 3006 2619 2597 2516 
z
" transform="scale(0.015625)"/>
       </defs>
       <use xlink:href="#DejaVuSans-33"/>
      </g>
     </g>
    </g>
    <g id="xtick_5">
     <g id="line2d_5">
      <g>
       <use xlink:href="#m31702121de" x="331.628054" y="235.23" style="stroke: #000000; stroke-width: 0.8"/>
      </g>
     </g>
     <g id="text_5">
      <!-- 4 -->
      <g transform="translate(327.174304 252.867813) scale(0.14 -0.14)">
       <defs>
        <path id="DejaVuSans-34" d="M 2419 4116 
L 825 1625 
L 2419 1625 
L 2419 4116 
z
M 2253 4666 
L 3047 4666 
L 3047 1625 
L 3713 1625 
L 3713 1100 
L 3047 1100 
L 3047 0 
L 2419 0 
L 2419 1100 
L 313 1100 
L 313 1709 
L 2253 4666 
z
" transform="scale(0.015625)"/>
       </defs>
       <use xlink:href="#DejaVuSans-34"/>
      </g>
     </g>
    </g>
    <g id="xtick_6">
     <g id="line2d_6">
      <g>
       <use xlink:href="#m31702121de" x="388.885611" y="235.23" style="stroke: #000000; stroke-width: 0.8"/>
      </g>
     </g>
     <g id="text_6">
      <!-- 5 -->
      <g transform="translate(384.431861 252.867813) scale(0.14 -0.14)">
       <defs>
        <path id="DejaVuSans-35" d="M 691 4666 
L 3169 4666 
L 3169 4134 
L 1269 4134 
L 1269 2991 
Q 1406 3038 1543 3061 
Q 1681 3084 1819 3084 
Q 2600 3084 3056 2656 
Q 3513 2228 3513 1497 
Q 3513 744 3044 326 
Q 2575 -91 1722 -91 
Q 1428 -91 1123 -41 
Q 819 9 494 109 
L 494 744 
Q 775 591 1075 516 
Q 1375 441 1709 441 
Q 2250 441 2565 725 
Q 2881 1009 2881 1497 
Q 2881 1984 2565 2268 
Q 2250 2553 1709 2553 
Q 1456 2553 1204 2497 
Q 953 2441 691 2322 
L 691 4666 
z
" transform="scale(0.015625)"/>
       </defs>
       <use xlink:href="#DejaVuSans-35"/>
      </g>
     </g>
    </g>
    <g id="text_7">
     <!-- time [min] -->
     <g transform="translate(198.555 273.456563) scale(0.18 -0.18)">
      <defs>
       <path id="DejaVuSans-74" d="M 1172 4494 
L 1172 3500 
L 2356 3500 
L 2356 3053 
L 1172 3053 
L 1172 1153 
Q 1172 725 1289 603 
Q 1406 481 1766 481 
L 2356 481 
L 2356 0 
L 1766 0 
Q 1100 0 847 248 
Q 594 497 594 1153 
L 594 3053 
L 172 3053 
L 172 3500 
L 594 3500 
L 594 4494 
L 1172 4494 
z
" transform="scale(0.015625)"/>
       <path id="DejaVuSans-69" d="M 603 3500 
L 1178 3500 
L 1178 0 
L 603 0 
L 603 3500 
z
M 603 4863 
L 1178 4863 
L 1178 4134 
L 603 4134 
L 603 4863 
z
" transform="scale(0.015625)"/>
       <path id="DejaVuSans-6d" d="M 3328 2828 
Q 3544 3216 3844 3400 
Q 4144 3584 4550 3584 
Q 5097 3584 5394 3201 
Q 5691 2819 5691 2113 
L 5691 0 
L 5113 0 
L 5113 2094 
Q 5113 2597 4934 2840 
Q 4756 3084 4391 3084 
Q 3944 3084 3684 2787 
Q 3425 2491 3425 1978 
L 3425 0 
L 2847 0 
L 2847 2094 
Q 2847 2600 2669 2842 
Q 2491 3084 2119 3084 
Q 1678 3084 1418 2786 
Q 1159 2488 1159 1978 
L 1159 0 
L 581 0 
L 581 3500 
L 1159 3500 
L 1159 2956 
Q 1356 3278 1631 3431 
Q 1906 3584 2284 3584 
Q 2666 3584 2933 3390 
Q 3200 3197 3328 2828 
z
" transform="scale(0.015625)"/>
       <path id="DejaVuSans-65" d="M 3597 1894 
L 3597 1613 
L 953 1613 
Q 991 1019 1311 708 
Q 1631 397 2203 397 
Q 2534 397 2845 478 
Q 3156 559 3463 722 
L 3463 178 
Q 3153 47 2828 -22 
Q 2503 -91 2169 -91 
Q 1331 -91 842 396 
Q 353 884 353 1716 
Q 353 2575 817 3079 
Q 1281 3584 2069 3584 
Q 2775 3584 3186 3129 
Q 3597 2675 3597 1894 
z
M 3022 2063 
Q 3016 2534 2758 2815 
Q 2500 3097 2075 3097 
Q 1594 3097 1305 2825 
Q 1016 2553 972 2059 
L 3022 2063 
z
" transform="scale(0.015625)"/>
       <path id="DejaVuSans-20" transform="scale(0.015625)"/>
       <path id="DejaVuSans-5b" d="M 550 4863 
L 1875 4863 
L 1875 4416 
L 1125 4416 
L 1125 -397 
L 1875 -397 
L 1875 -844 
L 550 -844 
L 550 4863 
z
" transform="scale(0.015625)"/>
       <path id="DejaVuSans-6e" d="M 3513 2113 
L 3513 0 
L 2938 0 
L 2938 2094 
Q 2938 2591 2744 2837 
Q 2550 3084 2163 3084 
Q 1697 3084 1428 2787 
Q 1159 2491 1159 1978 
L 1159 0 
L 581 0 
L 581 3500 
L 1159 3500 
L 1159 2956 
Q 1366 3272 1645 3428 
Q 1925 3584 2291 3584 
Q 2894 3584 3203 3211 
Q 3513 2838 3513 2113 
z
" transform="scale(0.015625)"/>
       <path id="DejaVuSans-5d" d="M 1947 4863 
L 1947 -844 
L 622 -844 
L 622 -397 
L 1369 -397 
L 1369 4416 
L 622 4416 
L 622 4863 
L 1947 4863 
z
" transform="scale(0.015625)"/>
      </defs>
      <use xlink:href="#DejaVuSans-74"/>
      <use xlink:href="#DejaVuSans-69" transform="translate(39.208984 0)"/>
      <use xlink:href="#DejaVuSans-6d" transform="translate(66.992188 0)"/>
      <use xlink:href="#DejaVuSans-65" transform="translate(164.404297 0)"/>
      <use xlink:href="#DejaVuSans-20" transform="translate(225.927734 0)"/>
      <use xlink:href="#DejaVuSans-5b" transform="translate(257.714844 0)"/>
      <use xlink:href="#DejaVuSans-6d" transform="translate(296.728516 0)"/>
      <use xlink:href="#DejaVuSans-69" transform="translate(394.140625 0)"/>
      <use xlink:href="#DejaVuSans-6e" transform="translate(421.923828 0)"/>
      <use xlink:href="#DejaVuSans-5d" transform="translate(485.302734 0)"/>
     </g>
    </g>
   </g>
   <g id="matplotlib.axis_2">
    <g id="ytick_1">
     <g id="line2d_7">
      <defs>
       <path id="m7978dc9250" d="M 0 0 
L -3.5 0 
" style="stroke: #000000; stroke-width: 0.8"/>
      </defs>
      <g>
       <use xlink:href="#m7978dc9250" x="88.283438" y="220.472115" style="stroke: #000000; stroke-width: 0.8"/>
      </g>
     </g>
     <g id="text_8">
      <!-- −0.50 -->
      <g transform="translate(38.38 225.791021) scale(0.14 -0.14)">
       <defs>
        <path id="DejaVuSans-2212" d="M 678 2272 
L 4684 2272 
L 4684 1741 
L 678 1741 
L 678 2272 
z
" transform="scale(0.015625)"/>
        <path id="DejaVuSans-2e" d="M 684 794 
L 1344 794 
L 1344 0 
L 684 0 
L 684 794 
z
" transform="scale(0.015625)"/>
       </defs>
       <use xlink:href="#DejaVuSans-2212"/>
       <use xlink:href="#DejaVuSans-30" transform="translate(83.789062 0)"/>
       <use xlink:href="#DejaVuSans-2e" transform="translate(147.412109 0)"/>
       <use xlink:href="#DejaVuSans-35" transform="translate(179.199219 0)"/>
       <use xlink:href="#DejaVuSans-30" transform="translate(242.822266 0)"/>
      </g>
     </g>
    </g>
    <g id="ytick_2">
     <g id="line2d_8">
      <g>
       <use xlink:href="#m7978dc9250" x="88.283438" y="186.182048" style="stroke: #000000; stroke-width: 0.8"/>
      </g>
     </g>
     <g id="text_9">
      <!-- −0.25 -->
      <g transform="translate(38.38 191.500954) scale(0.14 -0.14)">
       <use xlink:href="#DejaVuSans-2212"/>
       <use xlink:href="#DejaVuSans-30" transform="translate(83.789062 0)"/>
       <use xlink:href="#DejaVuSans-2e" transform="translate(147.412109 0)"/>
       <use xlink:href="#DejaVuSans-32" transform="translate(179.199219 0)"/>
       <use xlink:href="#DejaVuSans-35" transform="translate(242.822266 0)"/>
      </g>
     </g>
    </g>
    <g id="ytick_3">
     <g id="line2d_9">
      <g>
       <use xlink:href="#m7978dc9250" x="88.283438" y="151.89198" style="stroke: #000000; stroke-width: 0.8"/>
      </g>
     </g>
     <g id="text_10">
      <!-- 0.00 -->
      <g transform="translate(50.111563 157.210886) scale(0.14 -0.14)">
       <use xlink:href="#DejaVuSans-30"/>
       <use xlink:href="#DejaVuSans-2e" transform="translate(63.623047 0)"/>
       <use xlink:href="#DejaVuSans-30" transform="translate(95.410156 0)"/>
       <use xlink:href="#DejaVuSans-30" transform="translate(159.033203 0)"/>
      </g>
     </g>
    </g>
    <g id="ytick_4">
     <g id="line2d_10">
      <g>
       <use xlink:href="#m7978dc9250" x="88.283438" y="117.601912" style="stroke: #000000; stroke-width: 0.8"/>
      </g>
     </g>
     <g id="text_11">
      <!-- 0.25 -->
      <g transform="translate(50.111563 122.920819) scale(0.14 -0.14)">
       <use xlink:href="#DejaVuSans-30"/>
       <use xlink:href="#DejaVuSans-2e" transform="translate(63.623047 0)"/>
       <use xlink:href="#DejaVuSans-32" transform="translate(95.410156 0)"/>
       <use xlink:href="#DejaVuSans-35" transform="translate(159.033203 0)"/>
      </g>
     </g>
    </g>
    <g id="ytick_5">
     <g id="line2d_11">
      <g>
       <use xlink:href="#m7978dc9250" x="88.283438" y="83.311845" style="stroke: #000000; stroke-width: 0.8"/>
      </g>
     </g>
     <g id="text_12">
      <!-- 0.50 -->
      <g transform="translate(50.111563 88.630751) scale(0.14 -0.14)">
       <use xlink:href="#DejaVuSans-30"/>
       <use xlink:href="#DejaVuSans-2e" transform="translate(63.623047 0)"/>
       <use xlink:href="#DejaVuSans-35" transform="translate(95.410156 0)"/>
       <use xlink:href="#DejaVuSans-30" transform="translate(159.033203 0)"/>
      </g>
     </g>
    </g>
    <g id="ytick_6">
     <g id="line2d_12">
      <g>
       <use xlink:href="#m7978dc9250" x="88.283438" y="49.021777" style="stroke: #000000; stroke-width: 0.8"/>
      </g>
     </g>
     <g id="text_13">
      <!-- 0.75 -->
      <g transform="translate(50.111563 54.340683) scale(0.14 -0.14)">
       <defs>
        <path id="DejaVuSans-37" d="M 525 4666 
L 3525 4666 
L 3525 4397 
L 1831 0 
L 1172 0 
L 2766 4134 
L 525 4134 
L 525 4666 
z
" transform="scale(0.015625)"/>
       </defs>
       <use xlink:href="#DejaVuSans-30"/>
       <use xlink:href="#DejaVuSans-2e" transform="translate(63.623047 0)"/>
       <use xlink:href="#DejaVuSans-37" transform="translate(95.410156 0)"/>
       <use xlink:href="#DejaVuSans-35" transform="translate(159.033203 0)"/>
      </g>
     </g>
    </g>
    <g id="text_14">
     <!-- $\dot{\theta}$ [deg/s] -->
     <g transform="translate(30.6 174.513281) rotate(-90) scale(0.18 -0.18)">
      <defs>
       <path id="DejaVuSans-307" d="M -1894 4863 
L -1319 4863 
L -1319 4134 
L -1894 4134 
L -1894 4863 
z
M -1600 3584 
L -1600 3584 
z
" transform="scale(0.015625)"/>
       <path id="DejaVuSans-Oblique-3b8" d="M 2913 2219 
L 925 2219 
Q 791 1284 928 888 
Q 1100 400 1566 400 
Q 2034 400 2391 891 
Q 2703 1322 2913 2219 
z
M 3009 2750 
Q 3094 3638 2984 3950 
Q 2813 4444 2353 4444 
Q 1875 4444 1525 3956 
Q 1250 3563 1034 2750 
L 3009 2750 
z
M 2444 4913 
Q 3194 4913 3494 4250 
Q 3794 3591 3566 2422 
Q 3341 1256 2781 594 
Q 2225 -72 1475 -72 
Q 722 -72 425 594 
Q 128 1256 353 2422 
Q 581 3591 1134 4250 
Q 1691 4913 2444 4913 
z
" transform="scale(0.015625)"/>
       <path id="DejaVuSans-64" d="M 2906 2969 
L 2906 4863 
L 3481 4863 
L 3481 0 
L 2906 0 
L 2906 525 
Q 2725 213 2448 61 
Q 2172 -91 1784 -91 
Q 1150 -91 751 415 
Q 353 922 353 1747 
Q 353 2572 751 3078 
Q 1150 3584 1784 3584 
Q 2172 3584 2448 3432 
Q 2725 3281 2906 2969 
z
M 947 1747 
Q 947 1113 1208 752 
Q 1469 391 1925 391 
Q 2381 391 2643 752 
Q 2906 1113 2906 1747 
Q 2906 2381 2643 2742 
Q 2381 3103 1925 3103 
Q 1469 3103 1208 2742 
Q 947 2381 947 1747 
z
" transform="scale(0.015625)"/>
       <path id="DejaVuSans-67" d="M 2906 1791 
Q 2906 2416 2648 2759 
Q 2391 3103 1925 3103 
Q 1463 3103 1205 2759 
Q 947 2416 947 1791 
Q 947 1169 1205 825 
Q 1463 481 1925 481 
Q 2391 481 2648 825 
Q 2906 1169 2906 1791 
z
M 3481 434 
Q 3481 -459 3084 -895 
Q 2688 -1331 1869 -1331 
Q 1566 -1331 1297 -1286 
Q 1028 -1241 775 -1147 
L 775 -588 
Q 1028 -725 1275 -790 
Q 1522 -856 1778 -856 
Q 2344 -856 2625 -561 
Q 2906 -266 2906 331 
L 2906 616 
Q 2728 306 2450 153 
Q 2172 0 1784 0 
Q 1141 0 747 490 
Q 353 981 353 1791 
Q 353 2603 747 3093 
Q 1141 3584 1784 3584 
Q 2172 3584 2450 3431 
Q 2728 3278 2906 2969 
L 2906 3500 
L 3481 3500 
L 3481 434 
z
" transform="scale(0.015625)"/>
       <path id="DejaVuSans-2f" d="M 1625 4666 
L 2156 4666 
L 531 -594 
L 0 -594 
L 1625 4666 
z
" transform="scale(0.015625)"/>
       <path id="DejaVuSans-73" d="M 2834 3397 
L 2834 2853 
Q 2591 2978 2328 3040 
Q 2066 3103 1784 3103 
Q 1356 3103 1142 2972 
Q 928 2841 928 2578 
Q 928 2378 1081 2264 
Q 1234 2150 1697 2047 
L 1894 2003 
Q 2506 1872 2764 1633 
Q 3022 1394 3022 966 
Q 3022 478 2636 193 
Q 2250 -91 1575 -91 
Q 1294 -91 989 -36 
Q 684 19 347 128 
L 347 722 
Q 666 556 975 473 
Q 1284 391 1588 391 
Q 1994 391 2212 530 
Q 2431 669 2431 922 
Q 2431 1156 2273 1281 
Q 2116 1406 1581 1522 
L 1381 1569 
Q 847 1681 609 1914 
Q 372 2147 372 2553 
Q 372 3047 722 3315 
Q 1072 3584 1716 3584 
Q 2034 3584 2315 3537 
Q 2597 3491 2834 3397 
z
" transform="scale(0.015625)"/>
      </defs>
      <use xlink:href="#DejaVuSans-307" transform="translate(62.88916 34.015625)"/>
      <use xlink:href="#DejaVuSans-Oblique-3b8" transform="translate(0 0.75)"/>
      <use xlink:href="#DejaVuSans-20" transform="translate(61.181641 0.75)"/>
      <use xlink:href="#DejaVuSans-5b" transform="translate(92.96875 0.75)"/>
      <use xlink:href="#DejaVuSans-64" transform="translate(131.982422 0.75)"/>
      <use xlink:href="#DejaVuSans-65" transform="translate(195.458984 0.75)"/>
      <use xlink:href="#DejaVuSans-67" transform="translate(256.982422 0.75)"/>
      <use xlink:href="#DejaVuSans-2f" transform="translate(320.458984 0.75)"/>
      <use xlink:href="#DejaVuSans-73" transform="translate(354.150391 0.75)"/>
      <use xlink:href="#DejaVuSans-5d" transform="translate(406.25 0.75)"/>
     </g>
    </g>
   </g>
   <g id="line2d_13">
    <path d="M 102.597827 151.89198 
L 106.414997 151.819806 
L 107.36929 151.480365 
L 108.132724 150.970896 
L 109.087016 150.006498 
L 110.232168 148.429443 
L 112.140753 145.273742 
L 112.331611 144.951301 
L 112.52247 122.44404 
L 112.713328 123.080209 
L 113.285904 163.572207 
L 113.476763 168.293356 
L 113.667621 168.88057 
L 113.85848 168.142632 
L 114.049338 167.956916 
L 114.240197 168.838169 
L 114.812772 172.56558 
L 115.003631 172.536285 
L 115.194489 171.775245 
L 115.576206 168.855347 
L 116.33964 160.394124 
L 117.484791 146.536006 
L 118.057367 142.420265 
L 118.439084 141.39831 
L 118.629943 141.445968 
L 118.820801 141.864839 
L 119.202518 143.760321 
L 119.775094 148.839397 
L 120.729386 160.483414 
L 120.920245 203.340335 
L 121.111103 197.279802 
L 121.683679 142.5867 
L 121.874538 138.680181 
L 122.065396 139.574895 
L 122.256255 141.209139 
L 122.447113 141.288705 
L 122.82883 136.777712 
L 123.210547 132.408954 
L 123.401406 131.675618 
L 123.592264 131.804749 
L 123.973981 133.608998 
L 124.355698 136.6119 
L 124.928274 143.223807 
L 126.455142 163.811965 
L 127.027718 168.233444 
L 127.409435 169.45891 
L 127.600293 169.537147 
L 127.791152 169.271611 
L 128.172869 167.793888 
L 128.745444 163.69897 
L 130.463171 149.199448 
L 130.844888 147.729552 
L 131.035747 143.674557 
L 131.226605 142.081809 
L 131.417464 142.042224 
L 131.799181 142.809964 
L 132.371756 142.95951 
L 132.562615 143.459356 
L 132.944332 145.545818 
L 133.898624 153.417114 
L 134.852917 160.639564 
L 135.234634 162.397577 
L 135.616351 163.229381 
L 135.80721 163.276839 
L 135.998068 163.078066 
L 136.379785 161.971562 
L 136.761502 160.01984 
L 137.524936 154.35513 
L 138.860946 143.956183 
L 139.433522 141.250666 
L 139.815239 140.348551 
L 140.006097 140.174908 
L 140.196956 140.179106 
L 140.387814 140.350729 
L 140.769531 141.13646 
L 141.151248 142.383602 
L 141.532965 151.682236 
L 142.105541 155.075762 
L 143.059834 165.335602 
L 143.441551 166.757459 
L 143.632409 166.928124 
L 143.823268 166.793343 
L 144.014126 166.354009 
L 144.395843 164.54521 
L 144.968419 159.816518 
L 146.877004 141.264193 
L 147.258721 139.465066 
L 147.640438 138.730281 
L 147.831297 138.76235 
L 148.022155 139.048251 
L 148.403872 140.309352 
L 148.976448 143.527928 
L 150.503316 153.260562 
L 150.885033 154.505759 
L 151.075891 154.820809 
L 151.26675 154.917641 
L 151.457609 154.793068 
L 151.839326 153.891493 
L 152.030184 156.543968 
L 152.221043 157.027971 
L 153.175335 153.282941 
L 153.557052 152.488281 
L 154.129628 150.09962 
L 154.893062 146.908479 
L 155.465638 145.247405 
L 155.847355 144.654088 
L 156.038213 144.544978 
L 156.229072 144.566274 
L 156.610789 144.993425 
L 156.992506 145.896151 
L 157.565081 147.971941 
L 159.664525 156.875878 
L 160.237101 158.073517 
L 160.618818 158.420446 
L 161.000535 158.4398 
L 161.382252 158.192039 
L 162.145686 157.243686 
L 162.336544 156.984312 
L 162.718261 149.415226 
L 162.90912 148.889301 
L 163.099978 148.70851 
L 163.290837 148.033711 
L 164.24513 141.528813 
L 164.435988 141.140377 
L 164.626847 141.057737 
L 164.817705 141.208424 
L 165.199422 142.101494 
L 165.581139 143.7771 
L 166.153715 147.497439 
L 167.489724 156.827117 
L 167.871441 158.498878 
L 168.253159 159.397715 
L 168.444017 159.532568 
L 168.634876 159.454412 
L 168.825734 159.166785 
L 169.207451 157.999791 
L 169.780027 155.011214 
L 172.070329 140.733066 
L 172.452046 139.753649 
L 172.833763 139.392418 
L 173.024622 139.431905 
L 173.406339 139.898835 
L 173.788056 151.373436 
L 174.360631 154.320341 
L 175.505782 168.327613 
L 175.887499 169.576772 
L 176.078358 169.699382 
L 176.269216 169.496115 
L 176.460075 168.950676 
L 176.841792 166.845194 
L 177.414368 161.720288 
L 178.941236 146.743961 
L 179.322953 144.760545 
L 179.70467 143.983859 
L 179.895528 144.073948 
L 180.086387 144.478007 
L 180.468104 146.183356 
L 181.04068 150.6302 
L 181.804114 158.614051 
L 181.994972 150.449326 
L 182.185831 148.468006 
L 182.758406 152.759476 
L 182.949265 151.933357 
L 183.712699 145.590074 
L 184.094416 144.712713 
L 184.476133 144.457219 
L 184.666991 144.475746 
L 184.85785 144.641514 
L 185.239567 145.517134 
L 185.812143 148.003441 
L 187.911586 158.946078 
L 188.293303 159.887455 
L 188.67502 160.306116 
L 188.865879 160.325047 
L 189.247596 160.019703 
L 189.629313 159.337091 
L 190.583606 156.838416 
L 191.156181 155.514926 
L 191.537898 154.974861 
L 191.728757 154.842663 
L 191.919615 148.365088 
L 192.110474 145.835924 
L 192.301332 145.639965 
L 192.492191 145.932864 
L 192.683049 145.623338 
L 193.064766 143.020864 
L 193.446484 140.619326 
L 193.637342 140.159781 
L 193.828201 140.158166 
L 194.019059 140.487114 
L 194.400776 141.769866 
L 194.973352 144.900397 
L 196.691078 156.462609 
L 197.072795 157.685615 
L 197.263654 157.974245 
L 197.454513 158.036236 
L 197.645371 157.869947 
L 198.027088 156.872628 
L 198.408805 155.073776 
L 198.981381 151.220546 
L 200.699107 138.444415 
L 200.889966 146.759088 
L 201.080824 149.630105 
L 201.271683 149.437313 
L 201.462541 148.860923 
L 201.6534 149.466945 
L 202.035117 154.377278 
L 202.607693 161.867385 
L 202.98941 164.334307 
L 203.371127 165.612928 
L 203.561985 165.861961 
L 203.752844 165.802024 
L 203.943702 165.406316 
L 204.325419 163.633801 
L 204.897995 159.056431 
L 206.80658 140.984937 
L 207.188297 139.130901 
L 207.570014 138.276288 
L 207.760873 138.225811 
L 207.951731 138.415657 
L 208.333448 139.451489 
L 208.906024 142.277432 
L 210.432892 151.083043 
L 210.623751 151.737854 
L 211.005468 161.262998 
L 211.196326 161.720424 
L 211.387185 161.605559 
L 211.578043 161.971745 
L 212.341477 166.116434 
L 212.532336 166.179236 
L 212.723194 165.735212 
L 213.104911 163.846141 
L 213.677487 159.564405 
L 215.395214 144.889591 
L 215.776931 143.379984 
L 215.967789 143.028956 
L 216.158648 142.959181 
L 216.349506 143.171363 
L 216.731223 144.413471 
L 217.11294 146.632083 
L 217.685516 151.329799 
L 219.212384 165.14567 
L 219.594101 167.4411 
L 219.78496 159.559942 
L 219.975818 156.735007 
L 220.166677 156.737716 
L 220.357535 157.052341 
L 220.548394 156.209079 
L 220.930111 150.927352 
L 221.502686 142.720154 
L 221.884403 139.627017 
L 222.26612 137.737802 
L 222.456979 137.211824 
L 222.647837 137.019419 
L 222.838696 137.190951 
L 223.029555 137.729897 
L 223.411272 139.811958 
L 223.983847 144.847355 
L 225.701574 162.558583 
L 226.083291 164.879708 
L 226.465008 166.15693 
L 226.655866 166.39128 
L 226.846725 166.361031 
L 227.037584 166.079195 
L 227.419301 164.837251 
L 227.991876 161.685011 
L 229.327886 153.186368 
L 229.518744 152.348192 
L 229.900461 143.597553 
L 230.09132 142.987384 
L 230.282178 142.908881 
L 230.473037 142.451928 
L 231.236471 138.683908 
L 231.42733 138.680046 
L 231.618188 139.151863 
L 231.999905 141.06178 
L 232.572481 145.365102 
L 234.290207 159.829824 
L 234.671924 161.277519 
L 234.862783 161.601509 
L 235.053641 161.648214 
L 235.2445 161.419424 
L 235.626217 160.161001 
L 236.007934 157.950257 
L 236.771368 151.536948 
L 238.107378 139.767608 
L 238.679953 136.72189 
L 238.870812 136.115754 
L 239.06167 143.419989 
L 239.252529 146.314094 
L 239.634246 146.895078 
L 239.825105 148.064762 
L 240.206822 153.525012 
L 240.779397 161.745376 
L 241.161114 164.899757 
L 241.542831 166.766676 
L 241.73369 167.243176 
L 241.924548 167.368317 
L 242.115407 167.11787 
L 242.497124 165.514924 
L 242.878841 162.657708 
L 243.642275 154.575758 
L 244.787426 142.182236 
L 245.360002 138.346478 
L 245.741719 137.129583 
L 245.932577 136.94212 
L 246.123436 137.027825 
L 246.314294 137.373295 
L 246.696011 138.760836 
L 247.268587 142.14919 
L 248.604597 151.038924 
L 248.795455 151.894975 
L 249.177172 160.592222 
L 249.368031 161.185857 
L 249.558889 161.240025 
L 249.749748 161.658063 
L 250.513182 165.162694 
L 250.70404 165.094022 
L 250.894899 164.551872 
L 251.276616 162.511886 
L 251.849191 158.05714 
L 253.37606 144.664728 
L 253.757777 142.794447 
L 254.139494 141.968211 
L 254.330352 141.972355 
L 254.521211 142.254585 
L 254.902928 143.616275 
L 255.475503 147.36544 
L 256.429796 156.142635 
L 257.384089 164.199169 
L 257.956664 167.135403 
L 258.147523 167.698231 
L 258.338381 160.468722 
L 258.52924 157.575164 
L 258.910957 156.910874 
L 259.101815 155.713508 
L 259.483532 150.24777 
L 260.056108 142.030659 
L 260.437825 138.85971 
L 260.819542 136.977366 
L 261.010401 136.495308 
L 261.201259 136.365903 
L 261.392118 136.613326 
L 261.773835 138.2148 
L 262.155552 141.078517 
L 262.918986 149.195686 
L 264.064137 161.644944 
L 264.636712 165.484514 
L 265.01843 166.69459 
L 265.209288 166.876769 
L 265.400147 166.784844 
L 265.591005 166.432743 
L 265.972722 165.032469 
L 266.545298 161.629733 
L 267.881307 152.727444 
L 268.072166 151.870618 
L 268.453883 142.151691 
L 268.644741 141.534786 
L 268.8356 141.502565 
L 269.026459 141.025618 
L 269.789893 136.77978 
L 269.980751 136.745977 
L 270.17161 137.237504 
L 270.553327 139.280181 
L 271.125902 143.915597 
L 272.843629 159.702986 
L 273.225346 161.319615 
L 273.416205 161.694723 
L 273.607063 161.76917 
L 273.797922 161.542809 
L 274.179639 160.22216 
L 274.561356 157.865683 
L 275.32479 150.985041 
L 276.660799 138.309221 
L 277.042516 135.911447 
L 277.233375 143.465695 
L 277.424234 146.166863 
L 277.615092 146.16456 
L 277.805951 145.885328 
L 277.996809 146.746079 
L 278.378526 151.99937 
L 278.951102 160.272337 
L 279.523677 164.709497 
L 279.905394 166.271135 
L 280.096253 166.579259 
L 280.287111 166.525261 
L 280.47797 166.103674 
L 280.859687 164.245414 
L 281.432263 159.480038 
L 283.340848 140.410384 
L 283.722565 138.424532 
L 284.104282 137.489993 
L 284.29514 137.420401 
L 284.485999 137.605089 
L 284.867716 138.669867 
L 285.440291 141.626033 
L 286.96716 150.998269 
L 287.348877 162.36038 
L 287.539735 163.092775 
L 287.730594 163.187576 
L 287.921452 163.858227 
L 288.684886 169.665616 
L 288.875745 169.962998 
L 289.066603 169.653174 
L 289.44832 167.798113 
L 290.020896 163.10258 
L 291.929481 143.927747 
L 292.311198 142.357382 
L 292.502057 142.058208 
L 292.692915 142.092684 
L 292.883774 142.458002 
L 293.265491 144.132113 
L 293.838066 148.643791 
L 294.983218 161.150243 
L 295.555793 166.812731 
L 295.746652 158.353385 
L 295.93751 155.753437 
L 296.319227 157.447519 
L 296.510086 157.127473 
L 296.891803 152.269708 
L 297.464378 144.267339 
L 298.036954 140.180654 
L 298.418671 138.625869 
L 298.60953 138.250264 
L 298.800388 138.197806 
L 298.991247 138.477112 
L 299.372964 139.944879 
L 299.945539 143.865733 
L 301.663266 157.848927 
L 302.044983 159.403751 
L 302.235841 159.80696 
L 302.4267 159.947793 
L 302.617559 159.824166 
L 302.808417 159.440035 
L 303.190134 157.934894 
L 303.76271 154.135146 
L 305.480436 139.416482 
L 305.671295 145.377019 
L 305.862153 147.205598 
L 306.24387 146.032196 
L 306.434729 146.323721 
L 306.816446 150.039133 
L 307.389022 156.429645 
L 307.961597 160.271465 
L 308.534173 162.678705 
L 308.91589 163.19449 
L 309.106748 163.092576 
L 309.488465 162.259777 
L 310.061041 159.806768 
L 311.778768 150.933278 
L 312.160485 150.089212 
L 312.351343 149.935357 
L 312.542202 149.969052 
L 312.73306 150.191349 
L 313.114777 151.184103 
L 313.687353 153.872731 
L 314.06907 156.255044 
L 314.259928 147.587589 
L 314.450787 145.012832 
L 314.641645 145.943573 
L 314.832504 147.467049 
L 315.023363 147.86989 
L 315.214221 146.864597 
L 315.786797 141.814023 
L 315.977655 141.087212 
L 316.168514 140.901897 
L 316.359372 141.071216 
L 316.741089 141.974248 
L 317.122806 143.499204 
L 317.695382 147.123769 
L 319.413109 159.616389 
L 319.794826 161.181135 
L 320.176543 162.00576 
L 320.367401 162.135819 
L 320.55826 162.083458 
L 320.939977 161.478177 
L 321.321694 160.314586 
L 322.085128 157.032908 
L 322.848562 153.853831 
L 323.230279 152.779836 
L 323.611996 152.235133 
L 323.802855 152.186825 
L 323.993713 152.294255 
L 324.184572 146.340161 
L 324.37543 144.238046 
L 324.566289 144.424253 
L 324.757147 145.112296 
L 324.948006 145.240055 
L 325.138864 144.618599 
L 325.71144 142.110635 
L 325.902298 142.039284 
L 326.093157 142.371649 
L 326.474874 143.752239 
L 327.047449 146.695332 
L 328.574318 155.72895 
L 328.956035 156.962162 
L 329.337752 157.455229 
L 329.52861 157.405149 
L 329.719469 157.155596 
L 330.101186 156.082571 
L 330.673761 153.23893 
L 331.628054 146.63013 
L 332.582347 140.439915 
L 332.964064 138.698964 
L 333.154922 146.7335 
L 333.345781 149.671648 
L 333.536639 149.73232 
L 333.727498 149.420279 
L 333.918356 150.19935 
L 334.300073 155.162644 
L 334.872649 162.531604 
L 335.254366 164.920288 
L 335.636083 166.065005 
L 335.826941 166.225702 
L 336.0178 166.069181 
L 336.208659 165.573227 
L 336.590376 163.601559 
L 337.162951 158.756574 
L 338.880678 141.738438 
L 339.453253 138.752974 
L 339.83497 138.033857 
L 340.025829 138.057876 
L 340.216688 138.324395 
L 340.598405 139.511856 
L 341.17098 142.538064 
L 342.50699 150.703579 
L 342.888707 152.134415 
L 343.079565 158.443307 
L 343.270424 161.067327 
L 343.461282 161.465148 
L 343.652141 161.308223 
L 343.842999 161.587963 
L 344.606434 165.127414 
L 344.797292 165.085805 
L 344.988151 164.567573 
L 345.369868 162.598133 
L 345.942443 158.33437 
L 347.469311 145.511201 
L 347.851028 143.735015 
L 348.232745 142.966346 
L 348.423604 142.984112 
L 348.614463 143.270339 
L 348.99618 144.613168 
L 349.568755 148.275359 
L 350.523048 156.821208 
L 351.47734 164.665116 
L 352.049916 167.533718 
L 352.240774 159.768016 
L 352.431633 156.808492 
L 352.622491 156.543135 
L 352.81335 156.583449 
L 353.004209 155.5347 
L 353.385926 150.069871 
L 353.958501 141.799582 
L 354.340218 138.718058 
L 354.721935 136.926542 
L 354.912794 136.481366 
L 355.103652 136.385975 
L 355.294511 136.666608 
L 355.676228 138.3325 
L 356.248803 143.067945 
L 358.348247 164.547613 
L 358.729964 166.259791 
L 358.920823 166.694936 
L 359.111681 166.849176 
L 359.30254 166.730644 
L 359.684257 165.738839 
L 360.065974 163.901001 
L 360.829408 158.739876 
L 361.783701 152.609122 
L 361.974559 151.770989 
L 362.356276 140.479808 
L 362.547135 139.852468 
L 362.737993 139.881418 
L 362.928852 139.338021 
L 363.692286 134.029567 
L 363.883144 133.858018 
L 364.074003 134.29051 
L 364.45572 136.36713 
L 365.028295 141.298372 
L 366.746022 159.050798 
L 367.127739 161.035292 
L 367.318598 161.554827 
L 367.509456 161.742954 
L 367.700315 161.597379 
L 367.891173 161.123646 
L 368.27289 159.251132 
L 368.845466 154.52094 
L 370.563193 136.449631 
L 370.754051 145.157071 
L 370.94491 147.898284 
L 371.135768 147.313699 
L 371.326627 146.366334 
L 371.517485 146.785537 
L 371.899202 151.89462 
L 372.471778 160.197637 
L 373.044353 164.387278 
L 373.42607 165.919094 
L 373.616929 166.257164 
L 373.807788 166.255684 
L 373.998646 165.90768 
L 374.380363 164.267568 
L 374.952939 160.040082 
L 376.670665 145.360875 
L 377.052382 143.77719 
L 377.243241 143.380127 
L 377.434099 143.258856 
L 377.624958 143.414858 
L 378.006675 144.533022 
L 378.388392 146.62468 
L 378.960968 151.149788 
L 380.487836 164.801756 
L 380.678694 159.584214 
L 380.869553 158.041879 
L 381.25127 159.202642 
L 381.442128 158.946481 
L 381.823845 155.519044 
L 382.396421 149.41238 
L 382.968997 145.407828 
L 383.541572 142.62715 
L 383.923289 141.778044 
L 384.114148 141.697787 
L 384.305006 141.832048 
L 384.686723 142.668494 
L 385.259299 145.029385 
L 386.786167 152.68017 
L 387.167884 153.711141 
L 387.549601 154.083693 
L 387.74046 154.004666 
L 388.122177 153.315618 
L 388.503894 151.964531 
L 388.885611 150.056086 
L 388.885611 150.056086 
" clip-path="url(#pfc5a56e19d)" style="fill: none; stroke: #1f77b4; stroke-width: 1.5; stroke-linecap: square"/>
   </g>
   <g id="line2d_14">
    <path d="M 102.597827 151.89198 
L 106.03328 151.787521 
L 106.987573 151.430576 
L 107.941865 150.764422 
L 108.896158 149.809078 
L 110.232168 148.133637 
L 112.140753 145.359523 
L 112.331611 145.064851 
L 112.52247 122.922275 
L 112.713328 126.543449 
L 113.285904 174.141916 
L 113.476763 179.029963 
L 113.667621 179.284429 
L 114.049338 176.775641 
L 114.431055 175.645033 
L 114.621914 174.477331 
L 115.003631 169.159259 
L 116.530499 139.639869 
L 116.912216 136.68116 
L 117.103074 136.299893 
L 117.293933 136.659159 
L 117.484791 137.725694 
L 117.866509 141.719169 
L 118.439084 150.907509 
L 119.393377 166.901269 
L 119.775094 171.051191 
L 120.156811 173.149754 
L 120.347669 173.394228 
L 120.538528 173.124434 
L 120.729386 172.380705 
L 120.920245 214.366896 
L 121.111103 198.678668 
L 121.683679 121.827145 
L 121.874538 114.174098 
L 122.065396 112.140522 
L 122.256255 111.564829 
L 122.82883 107.948992 
L 123.019689 108.621698 
L 123.210547 111.366066 
L 123.592264 122.195565 
L 125.119132 177.719249 
L 125.500849 184.483209 
L 125.691708 185.946224 
L 125.882566 186.112251 
L 126.073425 185.032721 
L 126.455142 179.558586 
L 127.027718 165.514605 
L 127.98201 140.344694 
L 128.363727 134.122471 
L 128.745444 131.520757 
L 128.936303 131.657007 
L 129.127161 132.720474 
L 129.508878 137.337002 
L 130.081454 148.713575 
L 130.844888 165.821425 
L 131.035747 163.206112 
L 131.226605 163.577784 
L 131.608322 166.790874 
L 131.799181 167.018571 
L 131.990039 165.94768 
L 132.562615 159.226507 
L 133.516907 148.417399 
L 134.089483 144.17309 
L 134.4712 143.145572 
L 134.662059 143.191825 
L 134.852917 143.581606 
L 135.234634 145.242898 
L 135.998068 150.62951 
L 136.761502 155.527169 
L 137.143219 156.760754 
L 137.334078 156.96993 
L 137.524936 156.895613 
L 137.715795 156.542406 
L 138.097512 155.06755 
L 138.670087 151.404481 
L 140.006097 142.147176 
L 140.387814 140.703598 
L 140.578673 140.285249 
L 140.96039 152.914291 
L 141.532965 156.333005 
L 142.296399 165.932554 
L 142.487258 166.77182 
L 142.678116 166.83732 
L 142.868975 166.292515 
L 143.250692 163.844655 
L 143.823268 157.645579 
L 144.968419 143.822389 
L 145.350136 141.235138 
L 145.731853 140.250651 
L 145.922711 140.365991 
L 146.11357 140.859116 
L 146.495287 142.814856 
L 147.258721 148.93663 
L 148.022155 154.403197 
L 148.403872 155.761416 
L 148.594731 155.98478 
L 148.785589 155.892701 
L 148.976448 155.491393 
L 149.358165 153.841015 
L 149.93074 149.781178 
L 150.885033 142.029578 
L 151.075891 146.707175 
L 151.26675 148.236054 
L 151.648467 147.804762 
L 151.839326 148.264987 
L 152.221043 151.184505 
L 152.60276 154.130222 
L 152.984477 155.632014 
L 153.366194 156.069628 
L 153.557052 156.009152 
L 153.747911 155.768782 
L 154.129628 154.755612 
L 154.893062 151.406083 
L 155.465638 149.044857 
L 155.847355 148.059371 
L 156.229072 147.741741 
L 156.41993 147.85511 
L 156.801647 148.609693 
L 157.374223 150.829835 
L 159.091949 158.748598 
L 159.473666 159.568223 
L 159.855384 159.89106 
L 160.237101 159.785054 
L 160.809676 159.108583 
L 161.191393 145.912463 
L 161.954827 140.785567 
L 162.336544 136.826304 
L 162.527403 135.929479 
L 162.718261 135.946142 
L 162.90912 136.740801 
L 163.290837 139.923922 
L 164.054271 149.645759 
L 164.817705 159.421329 
L 165.199422 162.571848 
L 165.581139 164.033762 
L 165.771998 164.10564 
L 165.962856 163.757048 
L 166.344573 161.945553 
L 166.917149 157.305157 
L 167.871441 149.238414 
L 168.253159 147.422835 
L 168.444017 146.988021 
L 168.634876 146.889625 
L 168.825734 147.127331 
L 169.207451 148.54859 
L 169.780027 152.539748 
L 170.925178 162.217731 
L 171.116036 154.546862 
L 171.306895 151.743865 
L 171.497753 151.588136 
L 171.688612 151.711048 
L 171.87947 150.840319 
L 172.833763 141.515672 
L 173.024622 141.10629 
L 173.21548 141.138171 
L 173.406339 141.500801 
L 173.788056 143.040209 
L 174.360631 147.027031 
L 175.314924 154.219085 
L 175.696641 155.846469 
L 175.887499 156.24043 
L 176.078358 156.334668 
L 176.269216 156.128206 
L 176.650934 154.864756 
L 177.223509 151.286415 
L 178.559519 141.385388 
L 178.941236 139.692139 
L 179.322953 138.84846 
L 179.513811 138.744481 
L 179.70467 138.8361 
L 180.086387 158.182316 
L 180.658963 163.054869 
L 181.422397 174.904795 
L 181.613255 175.331051 
L 181.804114 174.590971 
L 182.185831 170.659722 
L 182.758406 160.971526 
L 183.903557 139.536285 
L 184.285274 135.538156 
L 184.476133 134.47843 
L 184.666991 134.066549 
L 184.85785 134.288705 
L 185.048709 135.107904 
L 185.430426 138.284872 
L 186.19386 148.19511 
L 186.957294 157.202929 
L 187.339011 159.593684 
L 187.529869 160.083806 
L 187.720728 160.084844 
L 187.911586 159.605944 
L 188.293303 157.331045 
L 188.865879 151.454533 
L 189.629313 142.178415 
L 189.820172 150.270841 
L 190.01103 152.788766 
L 190.392747 151.544721 
L 190.583606 151.986201 
L 190.965323 156.139146 
L 191.34704 160.201424 
L 191.728757 161.815814 
L 191.919615 161.944427 
L 192.110474 161.790394 
L 192.492191 160.780492 
L 192.873908 158.872202 
L 194.400776 149.821809 
L 194.782493 149.223014 
L 194.973352 149.316764 
L 195.16421 149.67044 
L 195.545927 151.093309 
L 196.118503 154.57261 
L 197.263654 162.353667 
L 197.83623 164.669485 
L 198.027088 165.070724 
L 198.408805 145.612879 
L 198.981381 141.676192 
L 199.744815 129.729942 
L 199.935673 129.217327 
L 200.126532 129.860349 
L 200.508249 133.54136 
L 201.080824 142.761399 
L 202.225976 163.592701 
L 202.607693 167.576057 
L 202.98941 169.130074 
L 203.180268 168.980444 
L 203.371127 168.250418 
L 203.752844 165.286109 
L 204.516278 155.817882 
L 205.279712 147.0688 
L 205.661429 144.69318 
L 205.852287 144.181362 
L 206.043146 144.140941 
L 206.234005 144.564975 
L 206.615722 146.69506 
L 207.188297 152.316627 
L 207.951731 161.318239 
L 208.14259 153.623401 
L 208.333448 151.256514 
L 208.715165 152.525855 
L 208.906024 152.140254 
L 209.287741 148.225558 
L 209.669458 144.36871 
L 210.051175 142.823208 
L 210.242034 142.689256 
L 210.432892 142.819646 
L 210.814609 143.736639 
L 211.196326 145.499722 
L 212.723194 153.93407 
L 213.104911 154.488373 
L 213.29577 154.396747 
L 213.486628 154.060979 
L 213.868345 152.716262 
L 214.440921 149.428719 
L 215.776931 141.124435 
L 216.158648 139.796634 
L 216.540365 139.173391 
L 216.922082 158.526843 
L 217.494657 162.645315 
L 218.258091 174.275254 
L 218.44895 174.693531 
L 218.639809 173.960277 
L 219.021526 170.108545 
L 219.594101 160.690738 
L 220.739252 139.86928 
L 221.120969 135.986239 
L 221.311828 134.955964 
L 221.502686 134.554027 
L 221.693545 134.767029 
L 221.884403 135.559082 
L 222.26612 138.635384 
L 223.029555 148.237344 
L 223.792989 156.961324 
L 224.174706 159.269977 
L 224.365564 159.738838 
L 224.556423 159.732279 
L 224.747281 159.259168 
L 225.128998 157.032583 
L 225.701574 151.297798 
L 226.465008 142.25371 
L 226.655866 149.414195 
L 226.846725 151.575735 
L 227.228442 150.309547 
L 227.419301 150.674777 
L 227.801018 154.442058 
L 228.182735 158.238825 
L 228.564452 159.910219 
L 228.75531 160.152564 
L 228.946169 160.145685 
L 229.137027 159.927167 
L 229.518744 158.850951 
L 230.09132 155.880689 
L 231.045613 150.679183 
L 231.42733 149.586679 
L 231.618188 149.365031 
L 231.809047 149.374493 
L 231.999905 149.615044 
L 232.381622 150.746255 
L 232.954198 153.717603 
L 234.290207 161.728588 
L 234.671924 163.124767 
L 235.053641 163.868017 
L 235.435359 146.48341 
L 236.007934 142.751881 
L 236.771368 131.993395 
L 236.962227 131.516884 
L 237.153085 132.075571 
L 237.534802 135.351345 
L 238.107378 143.619456 
L 239.252529 162.407579 
L 239.634246 166.038174 
L 240.015963 167.490903 
L 240.206822 167.384415 
L 240.39768 166.755574 
L 240.779397 164.142427 
L 241.542831 155.715462 
L 242.306265 147.914646 
L 242.687982 145.809112 
L 242.878841 145.364528 
L 243.069699 145.344379 
L 243.260558 145.742657 
L 243.642275 147.695205 
L 244.214851 152.816556 
L 244.978285 161.023692 
L 245.169143 153.227919 
L 245.360002 150.742976 
L 245.55086 151.135228 
L 245.741719 151.814868 
L 245.932577 151.38401 
L 246.314294 147.495357 
L 246.696011 143.779022 
L 247.077728 142.447949 
L 247.268587 142.439693 
L 247.459445 142.702447 
L 247.841162 143.883743 
L 248.413738 147.10352 
L 249.368031 153.094451 
L 249.749748 154.458326 
L 249.940606 154.786345 
L 250.131465 154.859787 
L 250.322323 154.676467 
L 250.70404 153.57861 
L 251.276616 150.467485 
L 252.803484 140.832002 
L 253.185201 139.615788 
L 253.566918 139.130194 
L 253.948635 158.399094 
L 254.521211 162.676845 
L 255.284645 174.342092 
L 255.475503 174.778184 
L 255.666362 174.069267 
L 256.048079 170.280309 
L 256.620655 161.006146 
L 257.765806 140.858633 
L 258.147523 137.365488 
L 258.338381 136.565573 
L 258.52924 136.417088 
L 258.720098 136.906515 
L 259.101815 139.631715 
L 259.674391 146.97024 
L 260.819542 163.398944 
L 261.201259 166.674936 
L 261.582976 168.141395 
L 261.773835 168.18194 
L 261.964693 167.788561 
L 262.34641 165.876491 
L 262.918986 161.153428 
L 263.491561 156.033438 
L 263.873278 139.873482 
L 264.254995 136.906081 
L 264.636712 133.350539 
L 265.01843 130.078307 
L 265.209288 129.889171 
L 265.400147 130.81662 
L 265.781864 135.195551 
L 266.545298 148.421549 
L 267.308732 160.771082 
L 267.690449 164.315229 
L 267.881307 165.173984 
L 268.072166 165.395743 
L 268.263024 164.989763 
L 268.644741 162.440858 
L 269.217317 155.301869 
L 270.362468 138.705799 
L 270.744185 135.208259 
L 271.125902 133.476512 
L 271.316761 133.297877 
L 271.507619 133.555636 
L 271.889336 135.221248 
L 272.080195 136.517614 
L 272.461912 158.145153 
L 273.225346 170.38532 
L 273.607063 178.068531 
L 273.797922 180.041721 
L 273.98878 180.464162 
L 274.179639 179.530738 
L 274.561356 174.698245 
L 275.133931 162.747765 
L 276.279082 136.689566 
L 276.660799 131.93522 
L 276.851658 130.714746 
L 277.042516 130.289726 
L 277.233375 130.64146 
L 277.424234 131.722956 
L 277.805951 135.75848 
L 278.569385 148.114393 
L 279.332819 159.260744 
L 279.714536 162.222637 
L 279.905394 162.838927 
L 280.096253 162.857648 
L 280.287111 162.291461 
L 280.668828 159.55977 
L 281.241404 152.491838 
L 282.004838 141.400034 
L 282.195697 147.048375 
L 282.386555 148.400919 
L 282.768272 146.537708 
L 282.959131 146.679287 
L 283.340848 150.044302 
L 283.913423 155.316483 
L 284.29514 157.110753 
L 284.676857 158.095809 
L 284.867716 158.297798 
L 285.058574 158.274201 
L 285.249433 158.019267 
L 285.63115 156.904244 
L 287.348877 150.171776 
L 287.539735 149.975361 
L 287.730594 149.969087 
L 287.921452 150.154671 
L 288.303169 151.072714 
L 288.875745 153.551128 
L 290.402613 161.268551 
L 290.78433 162.332427 
L 290.975189 162.661039 
L 291.356906 147.105209 
L 291.929481 143.881371 
L 292.692915 134.253462 
L 292.883774 133.81032 
L 293.074632 134.290877 
L 293.456349 137.176047 
L 294.028925 144.49721 
L 295.174076 161.2282 
L 295.555793 164.491573 
L 295.93751 165.830387 
L 296.128369 165.763733 
L 296.319227 165.234754 
L 296.700944 162.975923 
L 297.27352 157.605373 
L 298.227813 148.77083 
L 298.60953 146.936016 
L 298.800388 146.557892 
L 298.991247 146.556875 
L 299.182105 146.928155 
L 299.563822 148.701201 
L 300.136398 153.32159 
L 300.899832 160.732728 
L 301.09069 155.025965 
L 301.281549 153.319487 
L 301.663266 154.394989 
L 301.854124 154.132931 
L 302.235841 151.154191 
L 302.617559 148.116807 
L 302.999276 146.755869 
L 303.190134 146.543479 
L 303.380993 146.5267 
L 303.571851 146.675978 
L 303.953568 147.478957 
L 304.526144 149.763297 
L 305.480436 153.794462 
L 305.862153 154.628138 
L 306.053012 154.78722 
L 306.24387 154.762092 
L 306.434729 154.552221 
L 306.816446 153.610597 
L 307.389022 151.166307 
L 308.91589 143.812598 
L 309.297607 142.837041 
L 309.679324 142.375997 
L 310.061041 142.379672 
L 310.251899 142.522029 
L 310.633616 158.226983 
L 311.397051 164.373372 
L 311.778768 169.380323 
L 311.969626 170.605568 
L 312.160485 170.739516 
L 312.351343 169.941371 
L 312.73306 166.420618 
L 313.305636 158.29486 
L 314.450787 141.251456 
L 314.832504 138.280269 
L 315.023363 137.559662 
L 315.214221 137.358046 
L 315.40508 137.658441 
L 315.786797 139.608704 
L 316.359372 144.938326 
L 317.313665 154.643784 
L 317.695382 156.982732 
L 317.88624 157.608759 
L 318.077099 157.842867 
L 318.267957 157.681886 
L 318.458816 157.137477 
L 318.840533 155.012738 
L 319.413109 149.947748 
L 320.176543 142.286989 
L 320.367401 149.953259 
L 320.55826 152.497159 
L 320.749118 152.264736 
L 320.939977 151.754228 
L 321.130835 152.312142 
L 322.085128 161.054743 
L 322.275986 161.467339 
L 322.466845 161.482707 
L 322.657703 161.212336 
L 323.03942 159.973607 
L 323.611996 156.599835 
L 324.566289 150.320121 
L 324.948006 148.872969 
L 325.138864 148.516189 
L 325.329723 148.423504 
L 325.520581 148.597401 
L 325.902298 149.705512 
L 326.474874 152.894185 
L 328.001742 162.823704 
L 328.383459 164.07035 
L 328.765176 164.557809 
L 329.146893 146.313063 
L 329.719469 142.054685 
L 330.482903 130.662954 
L 330.673761 130.156891 
L 330.86462 130.739246 
L 331.246337 134.177252 
L 331.818913 142.838435 
L 332.964064 162.078461 
L 333.345781 165.516711 
L 333.536639 166.341454 
L 333.727498 166.546241 
L 333.918356 166.141191 
L 334.300073 163.650499 
L 334.872649 156.749704 
L 336.0178 140.994971 
L 336.399517 137.77323 
L 336.781234 136.260046 
L 336.972093 136.16167 
L 337.162951 136.477769 
L 337.544668 138.191625 
L 338.117244 142.57364 
L 338.689819 147.405854 
L 339.071536 162.558416 
L 339.453253 165.433209 
L 339.83497 168.85222 
L 340.216688 171.996534 
L 340.407546 172.211549 
L 340.598405 171.377443 
L 340.980122 167.326686 
L 341.743556 154.94423 
L 342.50699 143.289553 
L 342.888707 139.916451 
L 343.079565 139.087482 
L 343.270424 138.858454 
L 343.461282 139.221384 
L 343.842999 141.58929 
L 344.415575 148.288486 
L 345.751585 165.843972 
L 346.133302 168.385998 
L 346.32416 169.017104 
L 346.515019 169.219441 
L 346.705877 169.011656 
L 347.087594 167.512241 
L 347.469311 164.927453 
L 347.851028 144.44156 
L 349.187038 124.934144 
L 349.377897 124.804389 
L 349.568755 125.94807 
L 349.950472 130.983368 
L 350.523048 142.736137 
L 351.47734 164.023844 
L 351.859057 169.555353 
L 352.240774 172.228881 
L 352.431633 172.43556 
L 352.622491 171.913741 
L 353.004209 168.917288 
L 353.576784 160.95666 
L 354.531077 146.517081 
L 354.912794 142.967763 
L 355.294511 141.546443 
L 355.485369 141.68525 
L 355.676228 142.374529 
L 356.057945 145.238128 
L 356.63052 152.215204 
L 357.393955 162.772445 
L 357.584813 156.24512 
L 357.775672 154.42914 
L 358.157389 155.89903 
L 358.348247 155.546156 
L 358.729964 151.6817 
L 359.30254 146.141256 
L 359.684257 144.593263 
L 360.065974 144.059213 
L 360.256832 144.131094 
L 360.447691 144.448558 
L 360.829408 145.777036 
L 361.783701 150.991839 
L 362.356276 153.439058 
L 362.737993 154.175935 
L 362.928852 154.218867 
L 363.11971 154.039012 
L 363.501427 153.043939 
L 364.074003 150.271841 
L 365.600871 141.619033 
L 365.982588 140.474386 
L 366.173447 140.14032 
L 366.555164 157.176569 
L 367.127739 160.740898 
L 367.891173 171.280477 
L 368.082032 171.754355 
L 368.27289 171.215763 
L 368.654607 168.031654 
L 369.227183 159.984088 
L 370.372334 141.659755 
L 370.754051 138.105468 
L 371.135768 136.669697 
L 371.326627 136.762472 
L 371.517485 137.36449 
L 371.899202 139.89214 
L 372.662636 148.078739 
L 373.42607 155.669027 
L 373.807788 157.717321 
L 373.998646 158.148624 
L 374.189505 158.165992 
L 374.380363 157.775166 
L 374.76208 155.865355 
L 375.334656 150.859357 
L 376.09809 142.832705 
L 376.288948 148.932637 
L 376.479807 150.740492 
L 376.861524 149.554099 
L 377.052382 149.826587 
L 377.434099 153.016901 
L 377.815816 156.283694 
L 378.197534 157.764334 
L 378.388392 158.006213 
L 378.579251 158.03984 
L 378.770109 157.896124 
L 379.151826 157.066763 
L 379.724402 154.652236 
L 380.678694 150.327791 
L 381.060411 149.409085 
L 381.25127 149.221558 
L 381.442128 149.228799 
L 381.632987 149.431722 
L 382.014704 150.391998 
L 382.58728 152.935148 
L 384.114148 160.671052 
L 384.495865 161.696036 
L 384.877582 162.171445 
L 385.259299 162.147392 
L 385.641016 145.578811 
L 386.213591 141.779306 
L 386.977026 132.285614 
L 387.167884 132.073239 
L 387.358743 132.846323 
L 387.74046 136.432646 
L 388.313035 144.863865 
L 388.885611 154.725549 
L 388.885611 154.725549 
" clip-path="url(#pfc5a56e19d)" style="fill: none; stroke: #ff7f0e; stroke-width: 1.5; stroke-linecap: square"/>
   </g>
   <g id="line2d_15">
    <path d="M 102.597827 151.89198 
L 104.315553 151.807489 
L 105.269846 151.540479 
L 106.03328 151.125171 
L 106.796714 150.479836 
L 107.560148 149.569284 
L 108.514441 148.033044 
L 109.468734 146.068869 
L 110.804743 142.73269 
L 112.331611 138.45803 
L 112.52247 216.304456 
L 112.713328 226.061207 
L 113.285904 140.538674 
L 113.476763 136.732719 
L 114.240197 164.384026 
L 114.431055 163.784795 
L 114.812772 160.454946 
L 115.003631 159.902486 
L 115.194489 160.095942 
L 115.576206 160.797269 
L 115.767065 160.706013 
L 116.148782 159.713236 
L 116.912216 157.52635 
L 117.484791 156.467997 
L 117.866509 156.162185 
L 118.057367 156.184678 
L 118.439084 156.625321 
L 118.820801 157.597186 
L 119.393377 159.971688 
L 120.156811 164.414252 
L 120.729386 168.160229 
L 120.920245 42.685355 
L 121.111103 49.937287 
L 121.683679 177.720997 
L 121.874538 178.314997 
L 122.447113 141.987543 
L 122.637972 139.735415 
L 123.401406 146.990887 
L 123.973981 145.373161 
L 124.16484 145.554779 
L 124.546557 147.045004 
L 126.073425 153.998204 
L 126.646001 155.970246 
L 127.027718 156.742971 
L 127.409435 157.035001 
L 127.600293 156.99828 
L 127.98201 156.574863 
L 128.363727 155.738496 
L 129.127161 153.242922 
L 130.272312 149.376433 
L 130.844888 148.238763 
L 131.035747 155.183101 
L 131.226605 155.66563 
L 131.799181 146.380258 
L 131.990039 145.830448 
L 132.371756 147.524213 
L 132.753473 148.938305 
L 133.516907 150.34766 
L 134.852917 154.281308 
L 135.425493 155.19333 
L 135.80721 155.419254 
L 136.188927 155.31581 
L 136.570644 154.910699 
L 137.143219 153.856936 
L 139.051805 149.694467 
L 139.433522 149.307273 
L 139.815239 149.171439 
L 140.196956 149.286599 
L 140.578673 149.62949 
L 141.151248 150.471874 
L 141.342107 140.249863 
L 141.532965 139.823187 
L 142.105541 155.208044 
L 142.296399 156.745616 
L 142.487258 156.583607 
L 142.868975 155.539421 
L 143.059834 155.688928 
L 143.632409 157.070237 
L 143.823268 157.144488 
L 144.014126 156.975869 
L 144.395843 156.217806 
L 145.159277 154.02417 
L 146.686145 149.06536 
L 147.067862 148.371129 
L 147.44958 148.035181 
L 147.831297 148.072916 
L 148.213014 148.463506 
L 148.785589 149.588233 
L 150.885033 154.582866 
L 151.26675 154.896848 
L 151.648467 154.913459 
L 151.839326 154.812928 
L 152.030184 148.115685 
L 152.221043 147.33687 
L 152.793618 155.039908 
L 152.984477 155.382367 
L 153.938769 152.23438 
L 154.320486 151.996603 
L 154.893062 151.141986 
L 155.465638 150.413165 
L 156.038213 150.08862 
L 156.41993 150.054456 
L 156.801647 150.177349 
L 157.374223 150.626637 
L 158.519374 152.002575 
L 159.282808 152.81272 
L 159.855384 153.16317 
L 160.427959 153.23176 
L 161.000535 153.027648 
L 161.763969 152.451668 
L 162.336544 151.923999 
L 162.527403 161.394236 
L 162.718261 161.971914 
L 163.290837 148.557556 
L 163.481695 147.356474 
L 163.672554 147.702731 
L 164.054271 149.035258 
L 164.24513 149.071844 
L 164.817705 148.210987 
L 165.008564 148.228037 
L 165.390281 148.776464 
L 166.344573 150.956449 
L 167.489724 153.77328 
L 168.0623 154.624904 
L 168.444017 154.867824 
L 168.825734 154.834605 
L 169.207451 154.539866 
L 169.780027 153.697479 
L 171.87947 149.902801 
L 172.261188 149.63534 
L 172.642905 149.58138 
L 173.024622 149.734325 
L 173.406339 150.06904 
L 173.597197 135.832917 
L 173.788056 135.132892 
L 174.360631 155.777573 
L 174.55149 157.683388 
L 174.742348 157.277994 
L 175.124065 155.59771 
L 175.314924 155.737964 
L 175.887499 157.614497 
L 176.078358 157.762575 
L 176.269216 157.603388 
L 176.650934 156.77978 
L 177.414368 154.397 
L 178.941236 148.753314 
L 179.513811 147.659404 
L 179.895528 147.444106 
L 180.277245 147.654136 
L 180.658963 148.250078 
L 181.231538 149.699515 
L 181.804114 151.51078 
L 181.994972 171.745183 
L 182.185831 173.465847 
L 182.758406 147.836102 
L 182.949265 146.088165 
L 183.140123 147.419435 
L 183.52184 150.944742 
L 183.712699 151.191048 
L 184.476133 148.962378 
L 184.666991 149.009165 
L 185.812143 150.36938 
L 186.766435 152.05922 
L 187.529869 153.219092 
L 188.102445 153.716844 
L 188.484162 153.82126 
L 188.865879 153.740334 
L 189.438455 153.314494 
L 190.201889 152.372663 
L 191.34704 150.947753 
L 191.728757 150.649025 
L 191.919615 162.892347 
L 192.110474 163.686829 
L 192.683049 146.918154 
L 192.873908 145.618995 
L 193.064766 146.313954 
L 193.446484 148.495146 
L 193.637342 148.754886 
L 194.209918 148.18688 
L 194.400776 148.343364 
L 194.782493 149.226716 
L 196.50022 153.853436 
L 197.072795 154.78771 
L 197.454513 155.051474 
L 197.83623 155.015797 
L 198.217947 154.693851 
L 198.790522 153.776125 
L 200.699107 149.835817 
L 200.889966 131.884565 
L 201.080824 130.652746 
L 201.6534 154.970206 
L 201.844259 156.993838 
L 202.035117 156.23287 
L 202.416834 153.859026 
L 202.607693 153.986735 
L 203.371127 156.918565 
L 203.561985 156.967558 
L 203.943702 156.566255 
L 204.516278 155.566604 
L 205.088853 153.976232 
L 206.615722 149.260264 
L 207.188297 148.375986 
L 207.570014 148.217332 
L 207.951731 148.405144 
L 208.333448 148.904576 
L 208.906024 150.099239 
L 210.623751 154.083855 
L 210.814609 142.396313 
L 211.005468 141.746376 
L 211.578043 158.123156 
L 211.768902 159.368751 
L 211.95976 158.653774 
L 212.341477 156.367235 
L 212.532336 155.9868 
L 213.104911 156.032339 
L 213.486628 155.128537 
L 215.204355 149.329672 
L 215.776931 148.224378 
L 216.158648 147.941109 
L 216.540365 148.030397 
L 216.922082 148.46688 
L 217.494657 149.656108 
L 219.403243 154.477965 
L 219.594101 154.746106 
L 219.78496 171.64673 
L 219.975818 172.795765 
L 220.548394 149.695739 
L 220.739252 147.676844 
L 220.930111 148.270018 
L 221.311828 150.246568 
L 221.502686 149.994715 
L 222.26612 146.737933 
L 222.456979 146.590661 
L 222.838696 146.812456 
L 223.220413 147.306302 
L 223.60213 148.089343 
L 224.174706 149.871461 
L 225.510715 154.362957 
L 226.083291 155.486064 
L 226.465008 155.78781 
L 226.846725 155.715685 
L 227.228442 155.295529 
L 227.801018 154.143582 
L 229.518744 149.803017 
L 229.709603 159.853724 
L 229.900461 160.365575 
L 230.473037 146.021674 
L 230.663895 144.896691 
L 230.854754 145.484982 
L 231.236471 147.456007 
L 231.42733 147.803972 
L 231.999905 147.888454 
L 232.381622 148.799919 
L 234.099349 154.479978 
L 234.671924 155.540389 
L 235.053641 155.799563 
L 235.435359 155.692275 
L 235.817076 155.247906 
L 236.389651 154.068944 
L 238.298236 149.3432 
L 238.679953 148.897198 
L 238.870812 148.780215 
L 239.06167 134.010267 
L 239.252529 133.087175 
L 239.825105 153.792962 
L 240.015963 155.721933 
L 240.206822 155.345603 
L 240.588539 153.852974 
L 240.779397 154.172439 
L 241.542831 157.253707 
L 241.73369 157.389895 
L 242.115407 157.150257 
L 242.497124 156.601949 
L 242.878841 155.744639 
L 243.451416 153.862241 
L 244.787426 149.2336 
L 245.360002 148.11054 
L 245.741719 147.828566 
L 246.123436 147.93455 
L 246.505153 148.399166 
L 247.077728 149.629535 
L 248.795455 154.136928 
L 248.986314 144.173123 
L 249.177172 143.6669 
L 249.749748 157.869393 
L 249.940606 158.968799 
L 250.131465 158.366179 
L 250.513182 156.36686 
L 250.70404 155.997216 
L 251.276616 155.837636 
L 251.658333 154.888772 
L 253.185201 149.690759 
L 253.757777 148.423721 
L 254.139494 148.012708 
L 254.521211 147.974908 
L 254.902928 148.291932 
L 255.284645 148.92024 
L 256.048079 150.817904 
L 257.19323 153.829141 
L 257.765806 154.759098 
L 258.147523 155.036273 
L 258.338381 169.567953 
L 258.52924 170.469235 
L 259.101815 150.041509 
L 259.292674 148.12408 
L 259.483532 148.477303 
L 259.865249 149.918483 
L 260.056108 149.592356 
L 260.819542 146.522408 
L 261.010401 146.383141 
L 261.392118 146.615589 
L 261.773835 147.161496 
L 262.155552 148.020897 
L 262.728127 149.911688 
L 264.064137 154.567158 
L 264.636712 155.693592 
L 265.01843 155.970862 
L 265.400147 155.858715 
L 265.781864 155.388472 
L 266.354439 154.15181 
L 268.072166 149.641697 
L 268.263024 161.02399 
L 268.453883 161.604093 
L 269.026459 145.419804 
L 269.217317 144.165743 
L 269.408176 144.842938 
L 269.789893 147.070891 
L 269.980751 147.453616 
L 270.553327 147.493037 
L 270.935044 148.472052 
L 272.65277 154.655912 
L 273.225346 155.828173 
L 273.607063 156.119622 
L 273.98878 156.010981 
L 274.370497 155.53264 
L 274.943073 154.257611 
L 276.851658 149.124239 
L 277.042516 148.840338 
L 277.233375 132.504285 
L 277.424234 131.372483 
L 277.996809 153.671813 
L 278.187668 155.646136 
L 278.378526 155.106698 
L 278.760243 153.279076 
L 278.951102 153.566731 
L 279.714536 156.896683 
L 279.905394 157.083047 
L 280.287111 156.94832 
L 280.668828 156.534088 
L 281.050545 155.819686 
L 281.623121 154.117121 
L 283.149989 149.149791 
L 283.722565 148.201249 
L 284.104282 148.020262 
L 284.485999 148.203685 
L 284.867716 148.716949 
L 285.440291 149.960882 
L 286.96716 153.833046 
L 287.158018 140.362505 
L 287.348877 139.708127 
L 287.921452 158.945126 
L 288.112311 160.462531 
L 288.303169 159.710641 
L 288.684886 157.222392 
L 288.875745 156.85991 
L 289.44832 157.100862 
L 289.639179 156.746366 
L 290.211755 154.534547 
L 291.547764 149.216411 
L 292.12034 147.744764 
L 292.502057 147.28383 
L 292.883774 147.264436 
L 293.265491 147.669897 
L 293.647208 148.447341 
L 294.410642 150.749377 
L 295.555793 154.329142 
L 295.746652 173.910042 
L 295.93751 175.375634 
L 296.510086 149.430896 
L 296.700944 147.342214 
L 296.891803 148.242667 
L 297.27352 150.882899 
L 297.464378 150.740576 
L 298.227813 147.33178 
L 298.418671 147.17587 
L 298.800388 147.370598 
L 299.372964 148.057876 
L 299.754681 148.884275 
L 300.518115 151.270972 
L 301.472407 154.163365 
L 302.044983 155.249382 
L 302.4267 155.565545 
L 302.808417 155.533476 
L 303.190134 155.171718 
L 303.76271 154.120506 
L 305.480436 149.906564 
L 305.671295 135.801546 
L 305.862153 134.606325 
L 306.434729 152.994591 
L 306.625587 154.522859 
L 306.816446 153.92423 
L 307.198163 152.126983 
L 307.389022 152.277591 
L 308.152456 154.986659 
L 308.534173 155.219449 
L 309.106748 155.044666 
L 309.488465 154.694032 
L 310.061041 153.675536 
L 311.778768 149.982815 
L 312.351343 149.393918 
L 312.73306 149.310134 
L 313.114777 149.473576 
L 313.687353 150.122689 
L 314.06907 150.754616 
L 314.259928 170.185188 
L 314.450787 171.653734 
L 315.023363 146.308661 
L 315.214221 144.536439 
L 315.40508 145.799354 
L 315.786797 149.290931 
L 315.977655 149.621974 
L 316.741089 148.129315 
L 317.122806 148.830578 
L 319.031391 153.376902 
L 319.603967 154.282482 
L 319.985684 154.580933 
L 320.367401 154.616672 
L 320.749118 154.396646 
L 321.321694 153.665056 
L 322.466845 151.506852 
L 323.230279 150.301488 
L 323.802855 149.836778 
L 323.993713 149.784831 
L 324.184572 161.687094 
L 324.37543 162.575143 
L 324.948006 146.829831 
L 325.138864 145.722587 
L 325.329723 146.537171 
L 325.71144 148.917168 
L 325.902298 149.293766 
L 326.474874 149.039757 
L 326.665732 149.25339 
L 327.238308 150.701748 
L 328.192601 153.000302 
L 328.765176 154.066317 
L 329.146893 154.501716 
L 329.52861 154.677324 
L 329.910327 154.59157 
L 330.292044 154.262362 
L 330.86462 153.403028 
L 332.773205 150.013304 
L 332.964064 149.829737 
L 333.154922 133.068255 
L 333.345781 131.967288 
L 333.918356 154.961944 
L 334.109215 156.930283 
L 334.300073 156.28008 
L 334.68179 154.14591 
L 334.872649 154.293708 
L 335.636083 157.051692 
L 335.826941 157.074757 
L 336.208659 156.625109 
L 336.781234 155.526309 
L 337.35381 153.84766 
L 338.689819 149.52176 
L 339.262395 148.440088 
L 339.644112 148.148336 
L 340.025829 148.214096 
L 340.407546 148.614239 
L 340.980122 149.721825 
L 342.888707 154.219077 
L 343.079565 143.233342 
L 343.270424 142.604 
L 343.842999 157.927321 
L 344.033858 159.075924 
L 344.224716 158.378933 
L 344.606434 156.16859 
L 344.797292 155.776652 
L 345.369868 155.71825 
L 345.751585 154.811167 
L 347.278453 149.774197 
L 347.851028 148.550866 
L 348.232745 148.156686 
L 348.614463 148.121358 
L 348.99618 148.426518 
L 349.377897 149.032847 
L 350.141331 150.867299 
L 351.286482 153.780966 
L 351.859057 154.680214 
L 352.049916 154.849289 
L 352.240774 170.871653 
L 352.431633 171.895909 
L 353.004209 149.648461 
L 353.195067 147.64241 
L 353.385926 148.132803 
L 353.767643 149.901189 
L 353.958501 149.622254 
L 354.721935 146.478764 
L 354.912794 146.356509 
L 355.294511 146.635021 
L 355.676228 147.207342 
L 356.057945 148.079124 
L 356.63052 149.983588 
L 357.96653 154.613576 
L 358.539106 155.710108 
L 358.920823 155.969948 
L 359.30254 155.841129 
L 359.684257 155.35543 
L 360.256832 154.101619 
L 361.974559 149.607538 
L 362.165418 163.23303 
L 362.356276 163.928088 
L 362.928852 144.63186 
L 363.11971 143.145415 
L 363.310569 143.951234 
L 363.692286 146.556362 
L 363.883144 146.965924 
L 364.45572 146.830175 
L 364.646578 147.214569 
L 365.219154 149.493989 
L 366.364305 154.124895 
L 366.936881 155.787303 
L 367.318598 156.39688 
L 367.700315 156.56115 
L 368.082032 156.289971 
L 368.463749 155.626885 
L 369.036324 154.072296 
L 370.563193 149.307085 
L 370.754051 129.415085 
L 370.94491 127.967485 
L 371.517485 154.476031 
L 371.708344 156.626774 
L 371.899202 155.733636 
L 372.280919 153.088387 
L 372.471778 153.249131 
L 373.235212 156.725524 
L 373.42607 156.872988 
L 373.807788 156.640842 
L 374.380363 155.869878 
L 374.76208 154.97542 
L 375.716373 151.784974 
L 376.479807 149.438647 
L 377.052382 148.330418 
L 377.434099 148.023371 
L 377.815816 148.081388 
L 378.197534 148.483081 
L 378.770109 149.61205 
L 380.487836 154.02569 
L 380.678694 166.761187 
L 380.869553 167.895855 
L 381.442128 151.428665 
L 381.632987 150.037125 
L 381.823845 150.547299 
L 382.205563 152.086913 
L 382.396421 151.903827 
L 383.159855 149.218361 
L 383.541572 148.871435 
L 384.114148 148.84592 
L 384.495865 149.070204 
L 384.877582 149.574665 
L 385.641016 151.120805 
L 386.786167 153.480234 
L 387.358743 154.164998 
L 387.74046 154.338707 
L 388.122177 154.275766 
L 388.503894 153.991567 
L 388.885611 153.520638 
L 388.885611 153.520638 
" clip-path="url(#pfc5a56e19d)" style="fill: none; stroke: #2ca02c; stroke-width: 1.5; stroke-linecap: square"/>
   </g>
   <g id="line2d_16">
    <path d="M 102.597827 151.89198 
L 104.315553 151.807716 
L 105.269846 151.535133 
L 106.03328 151.102994 
L 106.796714 150.427578 
L 107.560148 149.480114 
L 108.514441 147.908743 
L 109.659592 145.512376 
L 111.18646 141.666977 
L 112.331611 138.506606 
L 112.52247 216.499145 
L 112.713328 224.983534 
L 113.285904 144.128159 
L 113.476763 142.479684 
L 114.049338 165.860427 
L 114.240197 167.189854 
L 114.621914 162.948179 
L 115.003631 159.396846 
L 115.767065 155.753565 
L 116.33964 152.456556 
L 116.721357 151.464778 
L 116.912216 151.412482 
L 117.103074 151.63911 
L 117.484791 152.88445 
L 117.866509 155.087524 
L 118.629943 161.323306 
L 119.584235 168.875035 
L 120.156811 171.59369 
L 120.538528 172.430064 
L 120.729386 172.577501 
L 120.920245 44.416703 
L 121.111103 54.575264 
L 121.49282 151.296435 
L 121.683679 170.763574 
L 121.874538 166.584945 
L 122.447113 129.695067 
L 122.637972 128.786363 
L 123.592264 141.833921 
L 123.973981 145.883216 
L 125.119132 161.30053 
L 125.500849 163.653385 
L 125.691708 164.143911 
L 125.882566 164.166759 
L 126.073425 163.729399 
L 126.455142 161.602591 
L 127.027718 156.199137 
L 127.98201 146.496513 
L 128.363727 144.026996 
L 128.745444 142.893823 
L 128.936303 142.858223 
L 129.127161 143.165266 
L 129.508878 144.699221 
L 130.081454 148.643943 
L 130.844888 154.613921 
L 131.035747 165.447138 
L 131.226605 166.655526 
L 131.799181 154.569307 
L 131.990039 153.6644 
L 132.371756 154.468167 
L 132.562615 154.42768 
L 132.944332 152.745305 
L 133.516907 149.930691 
L 133.898624 148.956128 
L 134.280341 148.456608 
L 134.4712 148.376697 
L 134.662059 148.426668 
L 135.043776 148.920281 
L 135.616351 150.4011 
L 136.761502 153.710896 
L 137.143219 154.325828 
L 137.524936 154.539188 
L 137.906653 154.34799 
L 138.28837 153.808625 
L 139.051805 152.12449 
L 139.815239 150.520495 
L 140.196956 150.033821 
L 140.578673 149.839945 
L 140.769531 135.990858 
L 140.96039 135.96836 
L 141.532965 156.80361 
L 141.723824 158.474078 
L 141.914682 157.995717 
L 142.296399 156.415729 
L 142.487258 156.45914 
L 142.868975 157.087378 
L 143.059834 157.031352 
L 143.250692 156.601222 
L 143.823268 154.078777 
L 144.77756 149.780424 
L 145.159277 148.60557 
L 145.540994 148.005351 
L 145.731853 147.941456 
L 145.922711 148.030907 
L 146.304428 148.624385 
L 146.877004 150.277507 
L 148.022155 153.929731 
L 148.403872 154.59252 
L 148.785589 154.808311 
L 149.167306 154.576525 
L 149.549023 153.961984 
L 150.312457 152.078827 
L 150.885033 150.680911 
L 151.075891 141.16517 
L 151.26675 140.705016 
L 151.839326 153.446994 
L 152.030184 154.400094 
L 152.221043 154.011403 
L 152.60276 153.011083 
L 152.793618 153.14861 
L 153.366194 154.164934 
L 153.557052 154.16867 
L 153.938769 153.731865 
L 155.08392 151.630408 
L 155.656496 150.677487 
L 156.038213 150.299267 
L 156.41993 150.179135 
L 156.801647 150.313446 
L 157.374223 150.904012 
L 158.901091 152.93275 
L 159.282808 153.145714 
L 159.664525 153.168284 
L 160.046242 153.013239 
L 160.618818 152.535576 
L 160.809676 152.339468 
L 161.000535 165.752115 
L 161.191393 165.668754 
L 161.763969 145.325934 
L 161.954827 143.849175 
L 162.145686 144.535068 
L 162.527403 146.640101 
L 162.718261 146.910764 
L 163.099978 146.926936 
L 163.290837 147.278067 
L 163.672554 148.904388 
L 164.626847 153.778186 
L 165.199422 155.624579 
L 165.581139 156.108995 
L 165.771998 156.098659 
L 166.153715 155.606818 
L 166.535432 154.601962 
L 168.253159 149.126317 
L 168.634876 148.77005 
L 168.825734 148.775944 
L 169.207451 149.133031 
L 169.589168 149.873192 
L 170.925178 153.371838 
L 171.116036 167.447451 
L 171.306895 167.84554 
L 171.87947 148.226321 
L 172.070329 146.810026 
L 172.261188 147.457424 
L 172.642905 149.172963 
L 172.833763 149.109011 
L 173.21548 148.266731 
L 173.406339 148.134676 
L 173.597197 148.332442 
L 173.978914 149.37227 
L 175.314924 153.585571 
L 175.696641 154.347007 
L 176.078358 154.683181 
L 176.460075 154.57902 
L 176.841792 154.086386 
L 177.414368 152.844486 
L 178.36866 150.593117 
L 178.941236 149.827095 
L 179.322953 149.705612 
L 179.70467 149.893837 
L 179.895528 129.832973 
L 180.086387 130.130004 
L 180.658963 160.923944 
L 180.849821 163.193914 
L 181.04068 162.258186 
L 181.422397 159.407918 
L 181.613255 159.184789 
L 181.994972 159.505355 
L 182.185831 159.127376 
L 182.567548 156.927533 
L 183.712699 148.590535 
L 184.094416 146.757794 
L 184.476133 145.797733 
L 184.666991 145.686359 
L 184.85785 145.817318 
L 185.239567 146.734927 
L 185.812143 149.314776 
L 186.957294 155.04835 
L 187.339011 156.099323 
L 187.720728 156.452695 
L 187.911586 156.362985 
L 188.293303 155.699034 
L 188.865879 153.797157 
L 189.629313 150.736073 
L 189.820172 134.44418 
L 190.01103 133.778075 
L 190.583606 155.523801 
L 190.774464 156.952826 
L 191.34704 153.93773 
L 191.537898 153.993925 
L 192.110474 155.291224 
L 192.301332 155.193584 
L 192.683049 154.331357 
L 194.209918 150.22254 
L 194.591635 149.648864 
L 194.973352 149.458915 
L 195.355069 149.645706 
L 195.736786 150.15351 
L 196.50022 151.7271 
L 197.263654 153.216705 
L 197.645371 153.665272 
L 198.027088 153.84093 
L 198.217947 175.229204 
L 198.408805 175.066195 
L 198.981381 142.917682 
L 199.172239 140.624505 
L 199.363098 141.690607 
L 199.744815 144.754686 
L 199.935673 144.966436 
L 200.31739 144.495777 
L 200.508249 144.79621 
L 200.889966 146.881815 
L 202.035117 154.966421 
L 202.607693 157.378336 
L 202.98941 157.880006 
L 203.180268 157.775645 
L 203.561985 156.928391 
L 204.134561 154.474815 
L 205.279712 148.917019 
L 205.661429 147.871895 
L 206.043146 147.495853 
L 206.234005 147.565115 
L 206.615722 148.175039 
L 207.188297 149.981854 
L 207.951731 152.940996 
L 208.14259 168.540718 
L 208.333448 169.205987 
L 208.906024 148.468381 
L 209.096882 147.110284 
L 209.669458 150.008024 
L 209.860316 149.955665 
L 210.432892 148.704436 
L 210.623751 148.790467 
L 211.005468 149.596348 
L 212.532336 153.450645 
L 212.914053 153.993155 
L 213.29577 154.176259 
L 213.677487 154.006145 
L 214.059204 153.534367 
L 214.822638 152.062562 
L 215.586072 150.660622 
L 215.967789 150.234874 
L 216.349506 150.064485 
L 216.540365 150.077905 
L 216.731223 129.185509 
L 216.922082 129.385761 
L 217.494657 160.955151 
L 217.685516 163.212901 
L 217.876374 162.169191 
L 218.258091 159.135001 
L 218.44895 158.896332 
L 218.830667 159.274233 
L 219.021526 158.932168 
L 219.403243 156.791974 
L 220.548394 148.684237 
L 220.930111 146.90626 
L 221.311828 145.975472 
L 221.502686 145.867983 
L 221.693545 145.995557 
L 222.075262 146.886664 
L 222.647837 149.391138 
L 223.792989 154.958342 
L 224.174706 155.978984 
L 224.556423 156.321802 
L 224.747281 156.2343 
L 225.128998 155.588336 
L 225.701574 153.739004 
L 226.465008 150.763947 
L 226.655866 136.006541 
L 226.846725 135.336669 
L 227.419301 154.857402 
L 227.610159 156.152987 
L 228.182735 153.502654 
L 228.373593 153.588573 
L 228.946169 154.89337 
L 229.137027 154.853391 
L 229.518744 154.164648 
L 231.236471 150.238079 
L 231.618188 149.834319 
L 231.999905 149.768452 
L 232.381622 150.021372 
L 232.954198 150.861962 
L 234.290207 153.188795 
L 234.671924 153.515737 
L 235.053641 153.598942 
L 235.2445 172.511824 
L 235.435359 172.396815 
L 236.007934 143.943252 
L 236.198793 141.877389 
L 236.389651 142.787108 
L 236.771368 145.460989 
L 236.962227 145.642525 
L 237.343944 145.227042 
L 237.534802 145.497646 
L 237.916519 147.361652 
L 239.06167 154.625016 
L 239.634246 156.807534 
L 240.015963 157.269493 
L 240.206822 157.181741 
L 240.588539 156.430637 
L 241.161114 154.232828 
L 242.306265 149.231084 
L 242.687982 148.286296 
L 243.069699 147.942865 
L 243.260558 148.002629 
L 243.642275 148.546714 
L 244.214851 150.167702 
L 244.978285 152.831421 
L 245.169143 168.26383 
L 245.360002 168.877102 
L 245.932577 148.20076 
L 246.123436 146.844994 
L 246.696011 149.768911 
L 246.88687 149.751683 
L 247.459445 148.646731 
L 247.650304 148.782818 
L 248.032021 149.680447 
L 249.368031 153.272327 
L 249.749748 153.941242 
L 250.131465 154.249652 
L 250.513182 154.181987 
L 250.894899 153.780013 
L 251.467474 152.736472 
L 252.612626 150.517121 
L 252.994343 150.125077 
L 253.37606 150.001957 
L 253.566918 150.04163 
L 253.757777 129.424355 
L 253.948635 129.642641 
L 254.521211 160.900096 
L 254.712069 163.151339 
L 254.902928 162.135527 
L 255.284645 159.148405 
L 255.475503 158.908054 
L 255.85722 159.255292 
L 256.048079 158.896817 
L 256.429796 156.729594 
L 257.574947 148.542384 
L 257.956664 146.752308 
L 258.338381 145.821169 
L 258.52924 145.717991 
L 258.720098 145.85192 
L 259.101815 146.762387 
L 259.674391 149.311212 
L 260.819542 154.983765 
L 261.201259 156.038383 
L 261.582976 156.412441 
L 261.773835 156.339364 
L 262.155552 155.719867 
L 262.728127 153.905696 
L 263.491561 150.977641 
L 263.68242 164.897248 
L 263.873278 164.452722 
L 264.445854 142.29404 
L 264.636712 140.802646 
L 264.827571 141.716019 
L 265.209288 144.551829 
L 265.591005 145.609429 
L 265.781864 146.100864 
L 266.163581 148.097462 
L 267.308732 155.892917 
L 267.690449 157.31551 
L 268.072166 157.870452 
L 268.263024 157.800286 
L 268.644741 157.011918 
L 269.217317 154.60412 
L 270.362468 148.970578 
L 270.744185 147.856673 
L 271.125902 147.402021 
L 271.316761 147.430982 
L 271.698478 147.963134 
L 272.080195 149.01225 
L 272.271053 129.653215 
L 272.461912 130.407277 
L 273.034488 162.052474 
L 273.225346 164.599252 
L 273.416205 163.90901 
L 273.797922 161.330152 
L 273.98878 161.109901 
L 274.179639 161.255232 
L 274.370497 161.206616 
L 274.561356 160.626438 
L 274.943073 157.893762 
L 276.088224 147.747633 
L 276.469941 145.533362 
L 276.851658 144.399353 
L 277.042516 144.283049 
L 277.233375 144.461354 
L 277.615092 145.617592 
L 278.187668 148.810196 
L 279.332819 155.813179 
L 279.714536 157.076225 
L 279.905394 157.389543 
L 280.096253 157.482809 
L 280.287111 157.360609 
L 280.668828 156.526915 
L 281.241404 154.182521 
L 282.004838 150.447195 
L 282.195697 137.191475 
L 282.386555 136.364389 
L 282.959131 153.18568 
L 283.149989 154.32104 
L 283.722565 152.237191 
L 283.913423 152.469993 
L 284.485999 154.227997 
L 284.676857 154.413456 
L 284.867716 154.381911 
L 285.249433 154.00203 
L 285.822009 153.136112 
L 287.348877 150.380637 
L 287.730594 150.148818 
L 288.112311 150.190589 
L 288.494028 150.482517 
L 289.066603 151.253608 
L 290.211755 152.912901 
L 290.78433 153.289501 
L 290.975189 153.315087 
L 291.166047 170.408697 
L 291.356906 170.375573 
L 291.929481 144.833853 
L 292.12034 142.972621 
L 292.311198 143.790818 
L 292.692915 146.199264 
L 292.883774 146.359999 
L 293.265491 145.967534 
L 293.456349 146.196642 
L 293.838066 147.841012 
L 294.983218 154.287263 
L 295.555793 156.233217 
L 295.93751 156.651352 
L 296.128369 156.57841 
L 296.510086 155.922898 
L 297.082661 153.985277 
L 298.227813 149.549671 
L 298.60953 148.705168 
L 298.991247 148.393254 
L 299.182105 148.442886 
L 299.563822 148.92019 
L 300.136398 150.355241 
L 300.899832 152.723654 
L 301.09069 164.606803 
L 301.281549 165.204456 
L 301.854124 149.607728 
L 302.044983 148.561737 
L 302.617559 150.679214 
L 302.808417 150.609685 
L 303.380993 149.547541 
L 303.571851 149.570928 
L 303.953568 150.105312 
L 305.671295 153.212185 
L 306.053012 153.539804 
L 306.434729 153.6 
L 306.816446 153.407271 
L 307.389022 152.748624 
L 308.725031 150.894399 
L 309.297607 150.564354 
L 309.679324 150.584654 
L 310.251899 150.928265 
L 310.442758 134.635259 
L 310.633616 134.775697 
L 311.206192 159.507849 
L 311.397051 161.299449 
L 311.587909 160.483003 
L 311.969626 158.019525 
L 312.160485 157.755658 
L 312.542202 157.871359 
L 312.73306 157.510005 
L 313.114777 155.652944 
L 314.259928 148.982492 
L 314.641645 147.603862 
L 315.023363 146.942384 
L 315.214221 146.909477 
L 315.40508 147.069697 
L 315.786797 147.903204 
L 316.359372 150.061793 
L 317.313665 154.01931 
L 317.695382 155.046683 
L 318.077099 155.533233 
L 318.267957 155.559888 
L 318.458816 155.445887 
L 318.840533 154.837784 
L 319.413109 153.2374 
L 320.176543 150.776375 
L 320.367401 135.89518 
L 320.55826 135.345772 
L 321.130835 155.494741 
L 321.321694 156.856986 
L 322.085128 154.178598 
L 322.657703 155.253722 
L 322.848562 155.107552 
L 323.230279 154.189259 
L 324.566289 150.459983 
L 324.948006 149.762229 
L 325.329723 149.437438 
L 325.71144 149.503528 
L 326.093157 149.91759 
L 326.665732 150.998663 
L 327.810884 153.30664 
L 328.192601 153.715454 
L 328.574318 153.844615 
L 328.765176 153.803888 
L 328.956035 173.258001 
L 329.146893 173.065742 
L 329.719469 143.532225 
L 329.910327 141.367817 
L 330.101186 142.283753 
L 330.482903 145.025201 
L 330.673761 145.218944 
L 331.055478 144.835145 
L 331.246337 145.151154 
L 331.628054 147.168031 
L 332.773205 154.956871 
L 333.345781 157.283129 
L 333.727498 157.762272 
L 333.918356 157.658594 
L 334.300073 156.834352 
L 334.872649 154.449363 
L 336.0178 149.026318 
L 336.399517 147.992368 
L 336.781234 147.60145 
L 336.972093 147.653257 
L 337.35381 148.209682 
L 337.926385 149.900049 
L 338.689819 152.678089 
L 338.880678 139.704163 
L 339.071536 140.116243 
L 339.644112 160.819966 
L 339.83497 162.236578 
L 340.025829 161.408651 
L 340.407546 158.798046 
L 340.789263 157.829131 
L 340.980122 157.374411 
L 341.361839 155.509002 
L 342.50699 148.162239 
L 342.888707 146.805041 
L 343.270424 146.262334 
L 343.461282 146.318962 
L 343.652141 146.586203 
L 344.033858 147.671082 
L 344.606434 150.224671 
L 345.560726 154.600126 
L 345.942443 155.658814 
L 346.32416 156.10042 
L 346.515019 156.080775 
L 346.896736 155.59531 
L 347.278453 154.621537 
L 347.469311 154.006279 
L 347.66017 172.145381 
L 347.851028 171.448207 
L 348.423604 141.849372 
L 348.614463 139.512413 
L 348.805321 140.229497 
L 349.187038 142.8296 
L 349.377897 143.136919 
L 349.568755 143.101098 
L 349.759614 143.243006 
L 349.950472 143.876221 
L 350.332189 146.585345 
L 351.47734 156.168225 
L 351.859057 158.144946 
L 352.240774 159.071084 
L 352.431633 159.105106 
L 352.622491 158.863328 
L 353.004209 157.643566 
L 353.576784 154.506002 
L 354.531077 148.790583 
L 354.912794 147.313468 
L 355.294511 146.618246 
L 355.485369 146.583271 
L 355.676228 146.751005 
L 356.057945 147.633437 
L 356.63052 149.944151 
L 357.393955 153.481647 
L 357.584813 167.75803 
L 357.775672 168.506208 
L 358.348247 149.897199 
L 358.539106 148.619918 
L 359.111681 150.898571 
L 359.30254 150.691202 
L 359.875115 149.021538 
L 360.065974 148.923622 
L 360.256832 149.06576 
L 360.829408 150.060258 
L 361.783701 152.256993 
L 362.356276 153.398911 
L 362.737993 153.827013 
L 363.11971 153.937276 
L 363.501427 153.736899 
L 364.074003 152.971413 
L 365.600871 150.503818 
L 365.982588 150.271081 
L 366.173447 150.24353 
L 366.364305 131.591476 
L 366.555164 131.681635 
L 367.127739 159.663098 
L 367.318598 161.689475 
L 367.509456 160.787356 
L 367.891173 158.149112 
L 368.082032 157.972016 
L 368.463749 158.392275 
L 368.654607 158.134635 
L 369.036324 156.321559 
L 370.181476 149.242792 
L 370.754051 147.109318 
L 371.135768 146.652532 
L 371.326627 146.736516 
L 371.708344 147.465132 
L 372.280919 149.600917 
L 373.42607 154.478683 
L 373.807788 155.40223 
L 374.189505 155.739742 
L 374.380363 155.68274 
L 374.76208 155.154441 
L 375.334656 153.57611 
L 376.09809 150.979336 
L 376.288948 138.232221 
L 376.479807 137.598675 
L 377.052382 154.32567 
L 377.243241 155.441018 
L 377.815816 153.16498 
L 378.006675 153.243207 
L 378.579251 154.399292 
L 378.770109 154.380574 
L 379.151826 153.820423 
L 381.060411 150.302713 
L 381.442128 150.086797 
L 381.823845 150.152214 
L 382.205563 150.468135 
L 382.778138 151.269804 
L 383.923289 152.947614 
L 384.305006 153.238542 
L 384.686723 153.325384 
L 385.06844 153.21245 
L 385.259299 153.090509 
L 385.450157 170.424517 
L 385.641016 170.265293 
L 386.213591 143.955849 
L 386.40445 142.049757 
L 386.595309 142.909613 
L 386.977026 145.488533 
L 387.167884 145.741299 
L 387.549601 145.55965 
L 387.74046 145.915616 
L 388.122177 147.838911 
L 388.885611 152.833373 
L 388.885611 152.833373 
" clip-path="url(#pfc5a56e19d)" style="fill: none; stroke: #d62728; stroke-width: 1.5; stroke-linecap: square"/>
   </g>
   <g id="patch_3">
    <path d="M 88.283438 235.23 
L 88.283438 33.516563 
" style="fill: none; stroke: #000000; stroke-width: 0.8; stroke-linejoin: miter; stroke-linecap: square"/>
   </g>
   <g id="patch_4">
    <path d="M 403.2 235.23 
L 403.2 33.516563 
" style="fill: none; stroke: #000000; stroke-width: 0.8; stroke-linejoin: miter; stroke-linecap: square"/>
   </g>
   <g id="patch_5">
    <path d="M 88.283438 235.23 
L 403.2 235.23 
" style="fill: none; stroke: #000000; stroke-width: 0.8; stroke-linejoin: miter; stroke-linecap: square"/>
   </g>
   <g id="patch_6">
    <path d="M 88.283438 33.516563 
L 403.2 33.516563 
" style="fill: none; stroke: #000000; stroke-width: 0.8; stroke-linejoin: miter; stroke-linecap: square"/>
   </g>
   <g id="text_15">
    <!-- Angle Rates -->
    <g transform="translate(179.994375 27.516563) scale(0.22 -0.22)">
     <defs>
      <path id="DejaVuSans-41" d="M 2188 4044 
L 1331 1722 
L 3047 1722 
L 2188 4044 
z
M 1831 4666 
L 2547 4666 
L 4325 0 
L 3669 0 
L 3244 1197 
L 1141 1197 
L 716 0 
L 50 0 
L 1831 4666 
z
" transform="scale(0.015625)"/>
      <path id="DejaVuSans-6c" d="M 603 4863 
L 1178 4863 
L 1178 0 
L 603 0 
L 603 4863 
z
" transform="scale(0.015625)"/>
      <path id="DejaVuSans-52" d="M 2841 2188 
Q 3044 2119 3236 1894 
Q 3428 1669 3622 1275 
L 4263 0 
L 3584 0 
L 2988 1197 
Q 2756 1666 2539 1819 
Q 2322 1972 1947 1972 
L 1259 1972 
L 1259 0 
L 628 0 
L 628 4666 
L 2053 4666 
Q 2853 4666 3247 4331 
Q 3641 3997 3641 3322 
Q 3641 2881 3436 2590 
Q 3231 2300 2841 2188 
z
M 1259 4147 
L 1259 2491 
L 2053 2491 
Q 2509 2491 2742 2702 
Q 2975 2913 2975 3322 
Q 2975 3731 2742 3939 
Q 2509 4147 2053 4147 
L 1259 4147 
z
" transform="scale(0.015625)"/>
      <path id="DejaVuSans-61" d="M 2194 1759 
Q 1497 1759 1228 1600 
Q 959 1441 959 1056 
Q 959 750 1161 570 
Q 1363 391 1709 391 
Q 2188 391 2477 730 
Q 2766 1069 2766 1631 
L 2766 1759 
L 2194 1759 
z
M 3341 1997 
L 3341 0 
L 2766 0 
L 2766 531 
Q 2569 213 2275 61 
Q 1981 -91 1556 -91 
Q 1019 -91 701 211 
Q 384 513 384 1019 
Q 384 1609 779 1909 
Q 1175 2209 1959 2209 
L 2766 2209 
L 2766 2266 
Q 2766 2663 2505 2880 
Q 2244 3097 1772 3097 
Q 1472 3097 1187 3025 
Q 903 2953 641 2809 
L 641 3341 
Q 956 3463 1253 3523 
Q 1550 3584 1831 3584 
Q 2591 3584 2966 3190 
Q 3341 2797 3341 1997 
z
" transform="scale(0.015625)"/>
     </defs>
     <use xlink:href="#DejaVuSans-41"/>
     <use xlink:href="#DejaVuSans-6e" transform="translate(68.408203 0)"/>
     <use xlink:href="#DejaVuSans-67" transform="translate(131.787109 0)"/>
     <use xlink:href="#DejaVuSans-6c" transform="translate(195.263672 0)"/>
     <use xlink:href="#DejaVuSans-65" transform="translate(223.046875 0)"/>
     <use xlink:href="#DejaVuSans-20" transform="translate(284.570312 0)"/>
     <use xlink:href="#DejaVuSans-52" transform="translate(316.357422 0)"/>
     <use xlink:href="#DejaVuSans-61" transform="translate(383.589844 0)"/>
     <use xlink:href="#DejaVuSans-74" transform="translate(444.869141 0)"/>
     <use xlink:href="#DejaVuSans-65" transform="translate(484.078125 0)"/>
     <use xlink:href="#DejaVuSans-73" transform="translate(545.601562 0)"/>
    </g>
   </g>
   <g id="legend_1">
    <g id="patch_7">
     <path d="M 333.2 228.23 
L 393.4 228.23 
Q 396.2 228.23 396.2 225.43 
L 396.2 127.57 
Q 396.2 124.77 393.4 124.77 
L 333.2 124.77 
Q 330.4 124.77 330.4 127.57 
L 330.4 225.43 
Q 330.4 228.23 333.2 228.23 
z
" style="fill: #ffffff; opacity: 0.8; stroke: #cccccc; stroke-linejoin: miter"/>
    </g>
    <g id="line2d_17">
     <path d="M 336 140.338437 
L 350 140.338437 
L 364 140.338437 
" style="fill: none; stroke: #1f77b4; stroke-width: 1.5; stroke-linecap: square"/>
    </g>
    <g id="text_16">
     <!-- $\dot{\theta}_1$ -->
     <g transform="translate(375.2 145.238438) scale(0.14 -0.14)">
      <use xlink:href="#DejaVuSans-307" transform="translate(62.88916 34.015625)"/>
      <use xlink:href="#DejaVuSans-Oblique-3b8" transform="translate(0 0.75)"/>
      <use xlink:href="#DejaVuSans-31" transform="translate(62.138672 -15.65625) scale(0.7)"/>
     </g>
    </g>
    <g id="line2d_18">
     <path d="M 336 165.118437 
L 350 165.118437 
L 364 165.118437 
" style="fill: none; stroke: #ff7f0e; stroke-width: 1.5; stroke-linecap: square"/>
    </g>
    <g id="text_17">
     <!-- $\dot{\theta}_2$ -->
     <g transform="translate(375.2 170.018438) scale(0.14 -0.14)">
      <use xlink:href="#DejaVuSans-307" transform="translate(62.88916 34.015625)"/>
      <use xlink:href="#DejaVuSans-Oblique-3b8" transform="translate(0 0.75)"/>
      <use xlink:href="#DejaVuSans-32" transform="translate(62.138672 -15.65625) scale(0.7)"/>
     </g>
    </g>
    <g id="line2d_19">
     <path d="M 336 190.038438 
L 350 190.038438 
L 364 190.038438 
" style="fill: none; stroke: #2ca02c; stroke-width: 1.5; stroke-linecap: square"/>
    </g>
    <g id="text_18">
     <!-- $\dot{\theta}_3$ -->
     <g transform="translate(375.2 194.938438) scale(0.14 -0.14)">
      <use xlink:href="#DejaVuSans-307" transform="translate(62.88916 34.015625)"/>
      <use xlink:href="#DejaVuSans-Oblique-3b8" transform="translate(0 0.75)"/>
      <use xlink:href="#DejaVuSans-33" transform="translate(62.138672 -15.65625) scale(0.7)"/>
     </g>
    </g>
    <g id="line2d_20">
     <path d="M 336 214.818437 
L 350 214.818437 
L 364 214.818437 
" style="fill: none; stroke: #d62728; stroke-width: 1.5; stroke-linecap: square"/>
    </g>
    <g id="text_19">
     <!-- $\dot{\theta}_4$ -->
     <g transform="translate(375.2 219.718437) scale(0.14 -0.14)">
      <use xlink:href="#DejaVuSans-307" transform="translate(62.88916 34.015625)"/>
      <use xlink:href="#DejaVuSans-Oblique-3b8" transform="translate(0 0.75)"/>
      <use xlink:href="#DejaVuSans-34" transform="translate(62.138672 -15.65625) scale(0.7)"/>
     </g>
    </g>
   </g>
  </g>
 </g>
 <defs>
  <clipPath id="pfc5a56e19d">
   <rect x="88.283438" y="33.516563" width="314.916562" height="201.713437"/>
  </clipPath>
 </defs>
</svg>
