<?xml version="1.0" encoding="utf-8" standalone="no"?>
<!DOCTYPE svg PUBLIC "-//W3C//DTD SVG 1.1//EN"
  "http://www.w3.org/Graphics/SVG/1.1/DTD/svg11.dtd">
<svg xmlns:xlink="http://www.w3.org/1999/xlink" width="414pt" height="288pt" viewBox="0 0 414 288" xmlns="http://www.w3.org/2000/svg" version="1.1">
 <metadata>
  <rdf:RDF xmlns:dc="http://purl.org/dc/elements/1.1/" xmlns:cc="http://creativecommons.org/ns#" xmlns:rdf="http://www.w3.org/1999/02/22-rdf-syntax-ns#">
   <cc:Work>
    <dc:type rdf:resource="http://purl.org/dc/dcmitype/StillImage"/>
    <dc:date>2025-06-06T22:55:07.682624</dc:date>
    <dc:format>image/svg+xml</dc:format>
    <dc:creator>
     <cc:Agent>
      <dc:title>Matplotlib v3.10.1, https://matplotlib.org/</dc:title>
     </cc:Agent>
    </dc:creator>
   </cc:Work>
  </rdf:RDF>
 </metadata>
 <defs>
  <style type="text/css">*{stroke-linejoin: round; stroke-linecap: butt}</style>
 </defs>
 <g id="figure_1">
  <g id="patch_1">
   <path d="M 0 288 
L 414 288 
L 414 0 
L 0 0 
L 0 288 
z
" style="fill: none"/>
  </g>
  <g id="axes_1">
   <g id="patch_2">
    <path d="M 80.510625 241.036875 
L 390.360682 241.036875 
L 390.360682 10.8 
L 80.510625 10.8 
L 80.510625 241.036875 
z
" style="fill: none"/>
   </g>
   <g id="matplotlib.axis_1">
    <g id="xtick_1">
     <g id="line2d_1">
      <defs>
       <path id="m3655d0b7c6" d="M 0 0 
L 0 3.5 
" style="stroke: #000000; stroke-width: 0.8"/>
      </defs>
      <g>
       <use xlink:href="#m3655d0b7c6" x="94.594718" y="241.036875" style="stroke: #000000; stroke-width: 0.8"/>
      </g>
     </g>
     <g id="text_1">
      <!-- 0 -->
      <g transform="translate(89.504718 260.194375) scale(0.16 -0.16)">
       <defs>
        <path id="DejaVuSans-30" d="M 2034 4250 
Q 1547 4250 1301 3770 
Q 1056 3291 1056 2328 
Q 1056 1369 1301 889 
Q 1547 409 2034 409 
Q 2525 409 2770 889 
Q 3016 1369 3016 2328 
Q 3016 3291 2770 3770 
Q 2525 4250 2034 4250 
z
M 2034 4750 
Q 2819 4750 3233 4129 
Q 3647 3509 3647 2328 
Q 3647 1150 3233 529 
Q 2819 -91 2034 -91 
Q 1250 -91 836 529 
Q 422 1150 422 2328 
Q 422 3509 836 4129 
Q 1250 4750 2034 4750 
z
" transform="scale(0.015625)"/>
       </defs>
       <use xlink:href="#DejaVuSans-30"/>
      </g>
     </g>
    </g>
    <g id="xtick_2">
     <g id="line2d_2">
      <g>
       <use xlink:href="#m3655d0b7c6" x="153.278441" y="241.036875" style="stroke: #000000; stroke-width: 0.8"/>
      </g>
     </g>
     <g id="text_2">
      <!-- 50 -->
      <g transform="translate(143.098441 260.194375) scale(0.16 -0.16)">
       <defs>
        <path id="DejaVuSans-35" d="M 691 4666 
L 3169 4666 
L 3169 4134 
L 1269 4134 
L 1269 2991 
Q 1406 3038 1543 3061 
Q 1681 3084 1819 3084 
Q 2600 3084 3056 2656 
Q 3513 2228 3513 1497 
Q 3513 744 3044 326 
Q 2575 -91 1722 -91 
Q 1428 -91 1123 -41 
Q 819 9 494 109 
L 494 744 
Q 775 591 1075 516 
Q 1375 441 1709 441 
Q 2250 441 2565 725 
Q 2881 1009 2881 1497 
Q 2881 1984 2565 2268 
Q 2250 2553 1709 2553 
Q 1456 2553 1204 2497 
Q 953 2441 691 2322 
L 691 4666 
z
" transform="scale(0.015625)"/>
       </defs>
       <use xlink:href="#DejaVuSans-35"/>
       <use xlink:href="#DejaVuSans-30" transform="translate(63.623047 0)"/>
      </g>
     </g>
    </g>
    <g id="xtick_3">
     <g id="line2d_3">
      <g>
       <use xlink:href="#m3655d0b7c6" x="211.962164" y="241.036875" style="stroke: #000000; stroke-width: 0.8"/>
      </g>
     </g>
     <g id="text_3">
      <!-- 100 -->
      <g transform="translate(196.692164 260.194375) scale(0.16 -0.16)">
       <defs>
        <path id="DejaVuSans-31" d="M 794 531 
L 1825 531 
L 1825 4091 
L 703 3866 
L 703 4441 
L 1819 4666 
L 2450 4666 
L 2450 531 
L 3481 531 
L 3481 0 
L 794 0 
L 794 531 
z
" transform="scale(0.015625)"/>
       </defs>
       <use xlink:href="#DejaVuSans-31"/>
       <use xlink:href="#DejaVuSans-30" transform="translate(63.623047 0)"/>
       <use xlink:href="#DejaVuSans-30" transform="translate(127.246094 0)"/>
      </g>
     </g>
    </g>
    <g id="xtick_4">
     <g id="line2d_4">
      <g>
       <use xlink:href="#m3655d0b7c6" x="270.645887" y="241.036875" style="stroke: #000000; stroke-width: 0.8"/>
      </g>
     </g>
     <g id="text_4">
      <!-- 150 -->
      <g transform="translate(255.375887 260.194375) scale(0.16 -0.16)">
       <use xlink:href="#DejaVuSans-31"/>
       <use xlink:href="#DejaVuSans-35" transform="translate(63.623047 0)"/>
       <use xlink:href="#DejaVuSans-30" transform="translate(127.246094 0)"/>
      </g>
     </g>
    </g>
    <g id="xtick_5">
     <g id="line2d_5">
      <g>
       <use xlink:href="#m3655d0b7c6" x="329.32961" y="241.036875" style="stroke: #000000; stroke-width: 0.8"/>
      </g>
     </g>
     <g id="text_5">
      <!-- 200 -->
      <g transform="translate(314.05961 260.194375) scale(0.16 -0.16)">
       <defs>
        <path id="DejaVuSans-32" d="M 1228 531 
L 3431 531 
L 3431 0 
L 469 0 
L 469 531 
Q 828 903 1448 1529 
Q 2069 2156 2228 2338 
Q 2531 2678 2651 2914 
Q 2772 3150 2772 3378 
Q 2772 3750 2511 3984 
Q 2250 4219 1831 4219 
Q 1534 4219 1204 4116 
Q 875 4013 500 3803 
L 500 4441 
Q 881 4594 1212 4672 
Q 1544 4750 1819 4750 
Q 2544 4750 2975 4387 
Q 3406 4025 3406 3419 
Q 3406 3131 3298 2873 
Q 3191 2616 2906 2266 
Q 2828 2175 2409 1742 
Q 1991 1309 1228 531 
z
" transform="scale(0.015625)"/>
       </defs>
       <use xlink:href="#DejaVuSans-32"/>
       <use xlink:href="#DejaVuSans-30" transform="translate(63.623047 0)"/>
       <use xlink:href="#DejaVuSans-30" transform="translate(127.246094 0)"/>
      </g>
     </g>
    </g>
    <g id="xtick_6">
     <g id="line2d_6">
      <g>
       <use xlink:href="#m3655d0b7c6" x="388.013333" y="241.036875" style="stroke: #000000; stroke-width: 0.8"/>
      </g>
     </g>
     <g id="text_6">
      <!-- 250 -->
      <g transform="translate(372.743333 260.194375) scale(0.16 -0.16)">
       <use xlink:href="#DejaVuSans-32"/>
       <use xlink:href="#DejaVuSans-35" transform="translate(63.623047 0)"/>
       <use xlink:href="#DejaVuSans-30" transform="translate(127.246094 0)"/>
      </g>
     </g>
    </g>
    <g id="text_7">
     <!-- Time [min] -->
     <g transform="translate(208.28331 275.120313) scale(0.1 -0.1)">
      <defs>
       <path id="DejaVuSans-54" d="M -19 4666 
L 3928 4666 
L 3928 4134 
L 2272 4134 
L 2272 0 
L 1638 0 
L 1638 4134 
L -19 4134 
L -19 4666 
z
" transform="scale(0.015625)"/>
       <path id="DejaVuSans-69" d="M 603 3500 
L 1178 3500 
L 1178 0 
L 603 0 
L 603 3500 
z
M 603 4863 
L 1178 4863 
L 1178 4134 
L 603 4134 
L 603 4863 
z
" transform="scale(0.015625)"/>
       <path id="DejaVuSans-6d" d="M 3328 2828 
Q 3544 3216 3844 3400 
Q 4144 3584 4550 3584 
Q 5097 3584 5394 3201 
Q 5691 2819 5691 2113 
L 5691 0 
L 5113 0 
L 5113 2094 
Q 5113 2597 4934 2840 
Q 4756 3084 4391 3084 
Q 3944 3084 3684 2787 
Q 3425 2491 3425 1978 
L 3425 0 
L 2847 0 
L 2847 2094 
Q 2847 2600 2669 2842 
Q 2491 3084 2119 3084 
Q 1678 3084 1418 2786 
Q 1159 2488 1159 1978 
L 1159 0 
L 581 0 
L 581 3500 
L 1159 3500 
L 1159 2956 
Q 1356 3278 1631 3431 
Q 1906 3584 2284 3584 
Q 2666 3584 2933 3390 
Q 3200 3197 3328 2828 
z
" transform="scale(0.015625)"/>
       <path id="DejaVuSans-65" d="M 3597 1894 
L 3597 1613 
L 953 1613 
Q 991 1019 1311 708 
Q 1631 397 2203 397 
Q 2534 397 2845 478 
Q 3156 559 3463 722 
L 3463 178 
Q 3153 47 2828 -22 
Q 2503 -91 2169 -91 
Q 1331 -91 842 396 
Q 353 884 353 1716 
Q 353 2575 817 3079 
Q 1281 3584 2069 3584 
Q 2775 3584 3186 3129 
Q 3597 2675 3597 1894 
z
M 3022 2063 
Q 3016 2534 2758 2815 
Q 2500 3097 2075 3097 
Q 1594 3097 1305 2825 
Q 1016 2553 972 2059 
L 3022 2063 
z
" transform="scale(0.015625)"/>
       <path id="DejaVuSans-20" transform="scale(0.015625)"/>
       <path id="DejaVuSans-5b" d="M 550 4863 
L 1875 4863 
L 1875 4416 
L 1125 4416 
L 1125 -397 
L 1875 -397 
L 1875 -844 
L 550 -844 
L 550 4863 
z
" transform="scale(0.015625)"/>
       <path id="DejaVuSans-6e" d="M 3513 2113 
L 3513 0 
L 2938 0 
L 2938 2094 
Q 2938 2591 2744 2837 
Q 2550 3084 2163 3084 
Q 1697 3084 1428 2787 
Q 1159 2491 1159 1978 
L 1159 0 
L 581 0 
L 581 3500 
L 1159 3500 
L 1159 2956 
Q 1366 3272 1645 3428 
Q 1925 3584 2291 3584 
Q 2894 3584 3203 3211 
Q 3513 2838 3513 2113 
z
" transform="scale(0.015625)"/>
       <path id="DejaVuSans-5d" d="M 1947 4863 
L 1947 -844 
L 622 -844 
L 622 -397 
L 1369 -397 
L 1369 4416 
L 622 4416 
L 622 4863 
L 1947 4863 
z
" transform="scale(0.015625)"/>
      </defs>
      <use xlink:href="#DejaVuSans-54"/>
      <use xlink:href="#DejaVuSans-69" transform="translate(57.958984 0)"/>
      <use xlink:href="#DejaVuSans-6d" transform="translate(85.742188 0)"/>
      <use xlink:href="#DejaVuSans-65" transform="translate(183.154297 0)"/>
      <use xlink:href="#DejaVuSans-20" transform="translate(244.677734 0)"/>
      <use xlink:href="#DejaVuSans-5b" transform="translate(276.464844 0)"/>
      <use xlink:href="#DejaVuSans-6d" transform="translate(315.478516 0)"/>
      <use xlink:href="#DejaVuSans-69" transform="translate(412.890625 0)"/>
      <use xlink:href="#DejaVuSans-6e" transform="translate(440.673828 0)"/>
      <use xlink:href="#DejaVuSans-5d" transform="translate(504.052734 0)"/>
     </g>
    </g>
   </g>
   <g id="matplotlib.axis_2">
    <g id="ytick_1">
     <g id="line2d_7">
      <defs>
       <path id="mb9bb7b03e2" d="M 0 0 
L -3.5 0 
" style="stroke: #000000; stroke-width: 0.8"/>
      </defs>
      <g>
       <use xlink:href="#mb9bb7b03e2" x="80.510625" y="226.865172" style="stroke: #000000; stroke-width: 0.8"/>
      </g>
     </g>
     <g id="text_8">
      <!-- −0.02 -->
      <g transform="translate(24.478125 232.943922) scale(0.16 -0.16)">
       <defs>
        <path id="DejaVuSans-2212" d="M 678 2272 
L 4684 2272 
L 4684 1741 
L 678 1741 
L 678 2272 
z
" transform="scale(0.015625)"/>
        <path id="DejaVuSans-2e" d="M 684 794 
L 1344 794 
L 1344 0 
L 684 0 
L 684 794 
z
" transform="scale(0.015625)"/>
       </defs>
       <use xlink:href="#DejaVuSans-2212"/>
       <use xlink:href="#DejaVuSans-30" transform="translate(83.789062 0)"/>
       <use xlink:href="#DejaVuSans-2e" transform="translate(147.412109 0)"/>
       <use xlink:href="#DejaVuSans-30" transform="translate(179.199219 0)"/>
       <use xlink:href="#DejaVuSans-32" transform="translate(242.822266 0)"/>
      </g>
     </g>
    </g>
    <g id="ytick_2">
     <g id="line2d_8">
      <g>
       <use xlink:href="#mb9bb7b03e2" x="80.510625" y="177.537483" style="stroke: #000000; stroke-width: 0.8"/>
      </g>
     </g>
     <g id="text_9">
      <!-- −0.01 -->
      <g transform="translate(24.478125 183.616233) scale(0.16 -0.16)">
       <use xlink:href="#DejaVuSans-2212"/>
       <use xlink:href="#DejaVuSans-30" transform="translate(83.789062 0)"/>
       <use xlink:href="#DejaVuSans-2e" transform="translate(147.412109 0)"/>
       <use xlink:href="#DejaVuSans-30" transform="translate(179.199219 0)"/>
       <use xlink:href="#DejaVuSans-31" transform="translate(242.822266 0)"/>
      </g>
     </g>
    </g>
    <g id="ytick_3">
     <g id="line2d_9">
      <g>
       <use xlink:href="#mb9bb7b03e2" x="80.510625" y="128.209794" style="stroke: #000000; stroke-width: 0.8"/>
      </g>
     </g>
     <g id="text_10">
      <!-- 0.00 -->
      <g transform="translate(37.885625 134.288544) scale(0.16 -0.16)">
       <use xlink:href="#DejaVuSans-30"/>
       <use xlink:href="#DejaVuSans-2e" transform="translate(63.623047 0)"/>
       <use xlink:href="#DejaVuSans-30" transform="translate(95.410156 0)"/>
       <use xlink:href="#DejaVuSans-30" transform="translate(159.033203 0)"/>
      </g>
     </g>
    </g>
    <g id="ytick_4">
     <g id="line2d_10">
      <g>
       <use xlink:href="#mb9bb7b03e2" x="80.510625" y="78.882106" style="stroke: #000000; stroke-width: 0.8"/>
      </g>
     </g>
     <g id="text_11">
      <!-- 0.01 -->
      <g transform="translate(37.885625 84.960856) scale(0.16 -0.16)">
       <use xlink:href="#DejaVuSans-30"/>
       <use xlink:href="#DejaVuSans-2e" transform="translate(63.623047 0)"/>
       <use xlink:href="#DejaVuSans-30" transform="translate(95.410156 0)"/>
       <use xlink:href="#DejaVuSans-31" transform="translate(159.033203 0)"/>
      </g>
     </g>
    </g>
    <g id="ytick_5">
     <g id="line2d_11">
      <g>
       <use xlink:href="#mb9bb7b03e2" x="80.510625" y="29.554417" style="stroke: #000000; stroke-width: 0.8"/>
      </g>
     </g>
     <g id="text_12">
      <!-- 0.02 -->
      <g transform="translate(37.885625 35.633167) scale(0.16 -0.16)">
       <use xlink:href="#DejaVuSans-30"/>
       <use xlink:href="#DejaVuSans-2e" transform="translate(63.623047 0)"/>
       <use xlink:href="#DejaVuSans-30" transform="translate(95.410156 0)"/>
       <use xlink:href="#DejaVuSans-32" transform="translate(159.033203 0)"/>
      </g>
     </g>
    </g>
    <g id="text_13">
     <!-- Angular Rate (rad/s) -->
     <g transform="translate(18.398438 176.484062) rotate(-90) scale(0.1 -0.1)">
      <defs>
       <path id="DejaVuSans-41" d="M 2188 4044 
L 1331 1722 
L 3047 1722 
L 2188 4044 
z
M 1831 4666 
L 2547 4666 
L 4325 0 
L 3669 0 
L 3244 1197 
L 1141 1197 
L 716 0 
L 50 0 
L 1831 4666 
z
" transform="scale(0.015625)"/>
       <path id="DejaVuSans-67" d="M 2906 1791 
Q 2906 2416 2648 2759 
Q 2391 3103 1925 3103 
Q 1463 3103 1205 2759 
Q 947 2416 947 1791 
Q 947 1169 1205 825 
Q 1463 481 1925 481 
Q 2391 481 2648 825 
Q 2906 1169 2906 1791 
z
M 3481 434 
Q 3481 -459 3084 -895 
Q 2688 -1331 1869 -1331 
Q 1566 -1331 1297 -1286 
Q 1028 -1241 775 -1147 
L 775 -588 
Q 1028 -725 1275 -790 
Q 1522 -856 1778 -856 
Q 2344 -856 2625 -561 
Q 2906 -266 2906 331 
L 2906 616 
Q 2728 306 2450 153 
Q 2172 0 1784 0 
Q 1141 0 747 490 
Q 353 981 353 1791 
Q 353 2603 747 3093 
Q 1141 3584 1784 3584 
Q 2172 3584 2450 3431 
Q 2728 3278 2906 2969 
L 2906 3500 
L 3481 3500 
L 3481 434 
z
" transform="scale(0.015625)"/>
       <path id="DejaVuSans-75" d="M 544 1381 
L 544 3500 
L 1119 3500 
L 1119 1403 
Q 1119 906 1312 657 
Q 1506 409 1894 409 
Q 2359 409 2629 706 
Q 2900 1003 2900 1516 
L 2900 3500 
L 3475 3500 
L 3475 0 
L 2900 0 
L 2900 538 
Q 2691 219 2414 64 
Q 2138 -91 1772 -91 
Q 1169 -91 856 284 
Q 544 659 544 1381 
z
M 1991 3584 
L 1991 3584 
z
" transform="scale(0.015625)"/>
       <path id="DejaVuSans-6c" d="M 603 4863 
L 1178 4863 
L 1178 0 
L 603 0 
L 603 4863 
z
" transform="scale(0.015625)"/>
       <path id="DejaVuSans-61" d="M 2194 1759 
Q 1497 1759 1228 1600 
Q 959 1441 959 1056 
Q 959 750 1161 570 
Q 1363 391 1709 391 
Q 2188 391 2477 730 
Q 2766 1069 2766 1631 
L 2766 1759 
L 2194 1759 
z
M 3341 1997 
L 3341 0 
L 2766 0 
L 2766 531 
Q 2569 213 2275 61 
Q 1981 -91 1556 -91 
Q 1019 -91 701 211 
Q 384 513 384 1019 
Q 384 1609 779 1909 
Q 1175 2209 1959 2209 
L 2766 2209 
L 2766 2266 
Q 2766 2663 2505 2880 
Q 2244 3097 1772 3097 
Q 1472 3097 1187 3025 
Q 903 2953 641 2809 
L 641 3341 
Q 956 3463 1253 3523 
Q 1550 3584 1831 3584 
Q 2591 3584 2966 3190 
Q 3341 2797 3341 1997 
z
" transform="scale(0.015625)"/>
       <path id="DejaVuSans-72" d="M 2631 2963 
Q 2534 3019 2420 3045 
Q 2306 3072 2169 3072 
Q 1681 3072 1420 2755 
Q 1159 2438 1159 1844 
L 1159 0 
L 581 0 
L 581 3500 
L 1159 3500 
L 1159 2956 
Q 1341 3275 1631 3429 
Q 1922 3584 2338 3584 
Q 2397 3584 2469 3576 
Q 2541 3569 2628 3553 
L 2631 2963 
z
" transform="scale(0.015625)"/>
       <path id="DejaVuSans-52" d="M 2841 2188 
Q 3044 2119 3236 1894 
Q 3428 1669 3622 1275 
L 4263 0 
L 3584 0 
L 2988 1197 
Q 2756 1666 2539 1819 
Q 2322 1972 1947 1972 
L 1259 1972 
L 1259 0 
L 628 0 
L 628 4666 
L 2053 4666 
Q 2853 4666 3247 4331 
Q 3641 3997 3641 3322 
Q 3641 2881 3436 2590 
Q 3231 2300 2841 2188 
z
M 1259 4147 
L 1259 2491 
L 2053 2491 
Q 2509 2491 2742 2702 
Q 2975 2913 2975 3322 
Q 2975 3731 2742 3939 
Q 2509 4147 2053 4147 
L 1259 4147 
z
" transform="scale(0.015625)"/>
       <path id="DejaVuSans-74" d="M 1172 4494 
L 1172 3500 
L 2356 3500 
L 2356 3053 
L 1172 3053 
L 1172 1153 
Q 1172 725 1289 603 
Q 1406 481 1766 481 
L 2356 481 
L 2356 0 
L 1766 0 
Q 1100 0 847 248 
Q 594 497 594 1153 
L 594 3053 
L 172 3053 
L 172 3500 
L 594 3500 
L 594 4494 
L 1172 4494 
z
" transform="scale(0.015625)"/>
       <path id="DejaVuSans-28" d="M 1984 4856 
Q 1566 4138 1362 3434 
Q 1159 2731 1159 2009 
Q 1159 1288 1364 580 
Q 1569 -128 1984 -844 
L 1484 -844 
Q 1016 -109 783 600 
Q 550 1309 550 2009 
Q 550 2706 781 3412 
Q 1013 4119 1484 4856 
L 1984 4856 
z
" transform="scale(0.015625)"/>
       <path id="DejaVuSans-64" d="M 2906 2969 
L 2906 4863 
L 3481 4863 
L 3481 0 
L 2906 0 
L 2906 525 
Q 2725 213 2448 61 
Q 2172 -91 1784 -91 
Q 1150 -91 751 415 
Q 353 922 353 1747 
Q 353 2572 751 3078 
Q 1150 3584 1784 3584 
Q 2172 3584 2448 3432 
Q 2725 3281 2906 2969 
z
M 947 1747 
Q 947 1113 1208 752 
Q 1469 391 1925 391 
Q 2381 391 2643 752 
Q 2906 1113 2906 1747 
Q 2906 2381 2643 2742 
Q 2381 3103 1925 3103 
Q 1469 3103 1208 2742 
Q 947 2381 947 1747 
z
" transform="scale(0.015625)"/>
       <path id="DejaVuSans-2f" d="M 1625 4666 
L 2156 4666 
L 531 -594 
L 0 -594 
L 1625 4666 
z
" transform="scale(0.015625)"/>
       <path id="DejaVuSans-73" d="M 2834 3397 
L 2834 2853 
Q 2591 2978 2328 3040 
Q 2066 3103 1784 3103 
Q 1356 3103 1142 2972 
Q 928 2841 928 2578 
Q 928 2378 1081 2264 
Q 1234 2150 1697 2047 
L 1894 2003 
Q 2506 1872 2764 1633 
Q 3022 1394 3022 966 
Q 3022 478 2636 193 
Q 2250 -91 1575 -91 
Q 1294 -91 989 -36 
Q 684 19 347 128 
L 347 722 
Q 666 556 975 473 
Q 1284 391 1588 391 
Q 1994 391 2212 530 
Q 2431 669 2431 922 
Q 2431 1156 2273 1281 
Q 2116 1406 1581 1522 
L 1381 1569 
Q 847 1681 609 1914 
Q 372 2147 372 2553 
Q 372 3047 722 3315 
Q 1072 3584 1716 3584 
Q 2034 3584 2315 3537 
Q 2597 3491 2834 3397 
z
" transform="scale(0.015625)"/>
       <path id="DejaVuSans-29" d="M 513 4856 
L 1013 4856 
Q 1481 4119 1714 3412 
Q 1947 2706 1947 2009 
Q 1947 1309 1714 600 
Q 1481 -109 1013 -844 
L 513 -844 
Q 928 -128 1133 580 
Q 1338 1288 1338 2009 
Q 1338 2731 1133 3434 
Q 928 4138 513 4856 
z
" transform="scale(0.015625)"/>
      </defs>
      <use xlink:href="#DejaVuSans-41"/>
      <use xlink:href="#DejaVuSans-6e" transform="translate(68.408203 0)"/>
      <use xlink:href="#DejaVuSans-67" transform="translate(131.787109 0)"/>
      <use xlink:href="#DejaVuSans-75" transform="translate(195.263672 0)"/>
      <use xlink:href="#DejaVuSans-6c" transform="translate(258.642578 0)"/>
      <use xlink:href="#DejaVuSans-61" transform="translate(286.425781 0)"/>
      <use xlink:href="#DejaVuSans-72" transform="translate(347.705078 0)"/>
      <use xlink:href="#DejaVuSans-20" transform="translate(388.818359 0)"/>
      <use xlink:href="#DejaVuSans-52" transform="translate(420.605469 0)"/>
      <use xlink:href="#DejaVuSans-61" transform="translate(487.837891 0)"/>
      <use xlink:href="#DejaVuSans-74" transform="translate(549.117188 0)"/>
      <use xlink:href="#DejaVuSans-65" transform="translate(588.326172 0)"/>
      <use xlink:href="#DejaVuSans-20" transform="translate(649.849609 0)"/>
      <use xlink:href="#DejaVuSans-28" transform="translate(681.636719 0)"/>
      <use xlink:href="#DejaVuSans-72" transform="translate(720.650391 0)"/>
      <use xlink:href="#DejaVuSans-61" transform="translate(761.763672 0)"/>
      <use xlink:href="#DejaVuSans-64" transform="translate(823.042969 0)"/>
      <use xlink:href="#DejaVuSans-2f" transform="translate(886.519531 0)"/>
      <use xlink:href="#DejaVuSans-73" transform="translate(920.210938 0)"/>
      <use xlink:href="#DejaVuSans-29" transform="translate(972.310547 0)"/>
     </g>
    </g>
   </g>
   <g id="line2d_12">
    <path d="M 94.594718 128.209794 
L 95.181556 131.674921 
L 95.572781 133.78558 
L 95.768393 134.144326 
L 95.964005 134.153235 
L 96.35523 133.483429 
L 97.920129 129.574682 
L 98.506967 128.848962 
L 99.093804 128.462374 
L 99.876254 128.248073 
L 101.24554 128.185596 
L 127.066378 128.209794 
L 140.17241 128.209794 
L 140.563635 93.127751 
L 140.95486 70.492166 
L 141.150472 68.032783 
L 141.346084 69.097875 
L 141.737309 77.059592 
L 142.910984 107.008182 
L 143.497821 116.514906 
L 144.084658 122.305141 
L 144.671495 125.517298 
L 145.06272 126.731481 
L 145.453945 127.471029 
L 146.040782 128.033839 
L 146.627619 128.243677 
L 147.605681 128.294866 
L 149.95303 128.223142 
L 150.344255 163.427523 
L 150.73548 186.013141 
L 150.931092 188.423974 
L 151.126705 187.311873 
L 151.51793 179.283255 
L 152.691604 149.337724 
L 153.278441 139.868851 
L 153.865279 134.107329 
L 154.452116 130.910938 
L 154.843341 129.701394 
L 155.234565 128.963268 
L 155.821403 128.399069 
L 156.40824 128.186125 
L 157.386302 128.129857 
L 165.406411 128.209828 
L 222.329622 128.209794 
L 222.525234 125.498714 
L 222.916459 116.754715 
L 223.307684 113.096028 
L 223.503296 112.761951 
L 223.698909 113.342678 
L 224.090134 116.014811 
L 225.068196 123.388651 
L 225.655033 126.113249 
L 226.24187 127.570316 
L 226.633095 128.060236 
L 227.219932 128.375099 
L 228.002382 128.425935 
L 231.91463 128.214092 
L 232.110242 128.5742 
L 233.283917 153.169317 
L 233.479529 154.071927 
L 233.675142 153.308569 
L 234.066367 149.384679 
L 235.044429 138.632035 
L 235.435653 135.591676 
L 236.413715 199.830715 
L 236.609328 199.708703 
L 236.80494 196.381393 
L 237.391778 178.184611 
L 238.174227 154.682027 
L 238.761064 143.058142 
L 239.347902 135.98094 
L 239.934739 132.008594 
L 240.521576 129.926937 
L 241.108413 128.907999 
L 241.695251 128.446842 
L 242.4777 128.228821 
L 243.846987 128.183649 
L 256.757406 128.210636 
L 304.486834 128.210907 
L 305.073671 109.960065 
L 305.269284 107.996513 
L 305.464896 107.726115 
L 305.660508 108.533952 
L 306.247346 113.654156 
L 307.029795 120.475997 
L 307.616633 123.905404 
L 308.20347 126.008651 
L 308.790307 127.1853 
L 309.377144 127.790327 
L 309.963981 128.073792 
L 310.942044 128.222115 
L 312.31133 128.230898 
L 312.506943 130.903833 
L 312.898168 138.84208 
L 313.09378 140.299854 
L 313.289392 140.727889 
L 313.485005 140.464195 
L 313.87623 138.797552 
L 315.049904 132.651274 
L 315.636741 130.693507 
L 316.223579 129.493592 
L 316.810416 128.820387 
L 317.397253 128.471269 
L 318.179703 128.27315 
L 319.54899 128.200735 
L 339.697068 128.209281 
L 359.453921 128.209248 
L 359.845146 129.142547 
L 360.040758 129.07087 
L 360.236371 128.682819 
L 360.431983 127.988587 
L 360.823208 125.797277 
L 361.214433 124.921756 
L 361.410045 124.938494 
L 361.80127 125.500091 
L 362.779332 127.3865 
L 363.366169 128.01674 
L 363.953007 128.291609 
L 364.735456 128.36643 
L 367.278417 128.234968 
L 367.865255 178.811479 
L 368.060867 184.527728 
L 368.25648 185.674167 
L 368.452092 183.810942 
L 368.843317 175.347629 
L 369.821379 150.973295 
L 370.408216 141.090249 
L 370.995053 134.946153 
L 371.58189 131.4598 
L 372.168728 129.63119 
L 372.755565 128.746114 
L 373.342402 128.357404 
L 374.124852 128.18842 
L 375.689751 128.178676 
L 376.276588 128.190027 
L 376.276588 128.190027 
" clip-path="url(#p081761cc4a)" style="fill: none; stroke: #2b737e; stroke-width: 1.5; stroke-linecap: square"/>
   </g>
   <g id="line2d_13">
    <path d="M 94.594718 128.209794 
L 94.985943 146.051395 
L 95.377168 163.60537 
L 95.572781 165.447517 
L 95.768393 164.623824 
L 96.159618 159.054016 
L 97.13768 142.918233 
L 97.724517 136.650066 
L 98.311354 132.80555 
L 98.898192 130.604812 
L 99.485029 129.408218 
L 100.071866 128.785418 
L 100.658703 128.474209 
L 101.636765 128.273542 
L 103.592889 128.210449 
L 138.216286 128.209794 
L 140.368022 128.224643 
L 140.563635 130.715151 
L 140.95486 137.248568 
L 141.150472 138.239438 
L 141.346084 138.356443 
L 141.541697 137.929025 
L 142.128534 135.346893 
L 142.910984 132.027326 
L 143.497821 130.395847 
L 144.084658 129.397067 
L 144.671495 128.826544 
L 145.453945 128.451344 
L 146.432007 128.27696 
L 148.583744 128.211677 
L 150.148643 128.193891 
L 150.344255 125.688843 
L 150.73548 119.268379 
L 150.931092 118.308278 
L 151.126705 118.203481 
L 151.322317 118.632092 
L 151.909155 121.200294 
L 152.691604 124.500251 
L 153.278441 126.111262 
L 153.865279 127.086412 
L 154.452116 127.635405 
L 155.234565 127.989856 
L 156.212628 128.150522 
L 158.364364 128.208385 
L 196.704396 128.209794 
L 222.329622 128.209794 
L 222.720847 164.51766 
L 223.307684 214.999602 
L 223.503296 227.624326 
L 223.698909 230.571562 
L 223.894521 226.448615 
L 224.481358 198.478263 
L 225.263808 164.22357 
L 225.850645 148.328374 
L 226.437483 138.928552 
L 227.02432 133.692371 
L 227.611157 130.907129 
L 228.197994 129.484577 
L 228.784831 128.785758 
L 229.371669 128.456076 
L 230.154118 128.279975 
L 231.719018 128.210491 
L 231.91463 128.209286 
L 232.110242 125.975545 
L 232.892692 50.891434 
L 233.283917 28.648787 
L 233.479529 29.542427 
L 233.870754 44.611697 
L 234.848816 89.934153 
L 235.435653 106.876936 
L 235.826878 118.734301 
L 236.413715 139.866247 
L 236.609328 141.685176 
L 236.80494 141.98771 
L 237.000553 141.444924 
L 237.58739 138.091073 
L 238.36984 133.832515 
L 238.956677 131.648274 
L 239.543514 130.229171 
L 240.130351 129.358912 
L 240.717188 128.846503 
L 241.499638 128.488671 
L 242.4777 128.302917 
L 244.433824 128.217148 
L 256.366181 128.209674 
L 304.486834 128.209647 
L 304.878059 126.970774 
L 305.073671 127.092753 
L 305.856121 128.597145 
L 306.247346 128.813 
L 306.834183 128.688736 
L 308.007857 128.288761 
L 309.181532 128.185121 
L 312.31133 128.206052 
L 312.506943 125.11934 
L 312.898168 116.507234 
L 313.09378 115.187567 
L 313.289392 114.995995 
L 313.485005 115.511878 
L 314.071842 118.793465 
L 314.854292 123.107581 
L 315.441129 125.253134 
L 316.027966 126.577029 
L 316.614803 127.340859 
L 317.201641 127.761247 
L 317.98409 128.031441 
L 319.157765 128.168184 
L 322.287563 128.208375 
L 359.453921 128.208958 
L 360.040758 90.185549 
L 360.627596 52.774736 
L 360.823208 52.643279 
L 361.214433 63.693571 
L 362.192495 98.379065 
L 362.779332 111.400607 
L 363.366169 119.184983 
L 363.953007 123.554729 
L 364.539844 125.896351 
L 365.126681 127.102302 
L 365.713518 127.700656 
L 366.300355 127.986577 
L 367.278417 128.161125 
L 367.47403 128.500676 
L 367.865255 135.519346 
L 368.060867 137.167096 
L 368.25648 137.714941 
L 368.452092 137.563373 
L 368.843317 136.210855 
L 369.821379 132.114754 
L 370.408216 130.492864 
L 370.995053 129.48529 
L 371.58189 128.898548 
L 372.36434 128.500122 
L 373.342402 128.302968 
L 375.298526 128.218167 
L 376.276588 128.212398 
L 376.276588 128.212398 
" clip-path="url(#p081761cc4a)" style="fill: none; stroke: #5ea04b; stroke-width: 1.5; stroke-linecap: square"/>
   </g>
   <g id="line2d_14">
    <path d="M 94.594718 128.209794 
L 95.181556 60.777984 
L 95.377168 54.679063 
L 95.572781 56.119189 
L 95.964005 68.390669 
L 96.746455 95.176765 
L 97.333292 108.295872 
L 97.920129 116.376813 
L 98.506967 121.211574 
L 99.093804 124.076737 
L 99.680641 125.76964 
L 100.267478 126.769127 
L 100.854316 127.359167 
L 101.636765 127.78841 
L 102.614827 128.034653 
L 104.179727 128.166806 
L 108.4832 128.208891 
L 140.368022 128.23282 
L 140.95486 130.649285 
L 141.150472 130.671708 
L 141.541697 130.263986 
L 142.519759 129.115387 
L 143.302208 128.632174 
L 144.280271 128.370129 
L 145.84517 128.245879 
L 150.148643 128.186147 
L 150.73548 124.985789 
L 150.931092 124.750264 
L 151.126705 124.813036 
L 151.51793 125.339418 
L 152.495992 126.783967 
L 153.278441 127.458926 
L 154.060891 127.823287 
L 155.234565 128.070545 
L 157.19069 128.185197 
L 163.841511 128.209729 
L 222.329622 128.209794 
L 222.525234 132.949556 
L 222.916459 152.947755 
L 223.698909 206.328217 
L 223.894521 202.776821 
L 225.263808 153.745905 
L 225.850645 143.133149 
L 226.437483 136.940799 
L 227.02432 133.337998 
L 227.611157 131.232003 
L 228.197994 129.99486 
L 228.784831 129.265394 
L 229.567281 128.734181 
L 230.545343 128.428775 
L 231.91463 128.274423 
L 232.110242 127.630798 
L 232.501467 110.536572 
L 232.892692 80.008281 
L 233.283917 50.405292 
L 233.479529 50.536662 
L 233.870754 64.403526 
L 234.653204 94.574263 
L 235.240041 108.361197 
L 235.826878 116.723829 
L 236.022491 117.173647 
L 236.218103 115.320922 
L 237.391778 96.009527 
L 237.783002 93.030717 
L 238.174227 91.447787 
L 238.565452 90.673744 
L 238.956677 90.319264 
L 239.543514 90.126956 
L 240.912801 90.064739 
L 270.254662 90.062892 
L 304.486834 90.062892 
L 304.878059 40.384981 
L 305.073671 36.227392 
L 305.269284 40.147769 
L 306.834183 100.849074 
L 307.42102 111.895306 
L 308.007857 118.516986 
L 308.594695 122.454961 
L 309.181532 124.792933 
L 309.768369 126.180817 
L 310.355206 127.004844 
L 310.942044 127.494168 
L 311.724493 127.852525 
L 312.506943 128.021351 
L 314.463067 127.786974 
L 319.157765 127.821621 
L 359.453921 127.821626 
L 360.236371 45.070657 
L 360.431983 27.574268 
L 360.627596 21.265312 
L 360.823208 25.815538 
L 362.388107 98.254976 
L 362.974944 110.566171 
L 363.561782 117.800536 
L 364.148619 122.052816 
L 364.735456 124.561116 
L 365.322293 126.045087 
L 365.909131 126.924702 
L 366.495968 127.446644 
L 367.278417 127.828777 
L 367.47403 127.8171 
L 367.865255 126.990063 
L 368.452092 125.900709 
L 369.038929 125.18953 
L 369.625766 124.807515 
L 370.408216 124.613964 
L 371.973115 124.554172 
L 376.276588 124.551771 
L 376.276588 124.551771 
" clip-path="url(#p081761cc4a)" style="fill: none; stroke: #bdab62; stroke-width: 1.5; stroke-linecap: square"/>
   </g>
   <g id="patch_3">
    <path d="M 80.510625 241.036875 
L 80.510625 10.8 
" style="fill: none; stroke: #000000; stroke-width: 0.8; stroke-linejoin: miter; stroke-linecap: square"/>
   </g>
   <g id="patch_4">
    <path d="M 390.360682 241.036875 
L 390.360682 10.8 
" style="fill: none; stroke: #000000; stroke-width: 0.8; stroke-linejoin: miter; stroke-linecap: square"/>
   </g>
   <g id="patch_5">
    <path d="M 80.510625 241.036875 
L 390.360682 241.036875 
" style="fill: none; stroke: #000000; stroke-width: 0.8; stroke-linejoin: miter; stroke-linecap: square"/>
   </g>
   <g id="patch_6">
    <path d="M 80.510625 10.8 
L 390.360682 10.8 
" style="fill: none; stroke: #000000; stroke-width: 0.8; stroke-linejoin: miter; stroke-linecap: square"/>
   </g>
   <g id="legend_1">
    <g id="patch_7">
     <path d="M 331.140682 236.536875 
L 384.060682 236.536875 
Q 385.860682 236.536875 385.860682 234.736875 
L 385.860682 194.871094 
Q 385.860682 193.071094 384.060682 193.071094 
L 331.140682 193.071094 
Q 329.340682 193.071094 329.340682 194.871094 
L 329.340682 234.736875 
Q 329.340682 236.536875 331.140682 236.536875 
z
" style="fill: #ffffff; opacity: 0.8; stroke: #cccccc; stroke-linejoin: miter"/>
    </g>
    <g id="line2d_15">
     <path d="M 332.940682 200.359687 
L 341.940682 200.359687 
L 350.940682 200.359687 
" style="fill: none; stroke: #2b737e; stroke-width: 1.5; stroke-linecap: square"/>
    </g>
    <g id="text_14">
     <!-- $\omega_{BN,1}$ -->
     <g transform="translate(358.140682 203.509687) scale(0.09 -0.09)">
      <defs>
       <path id="DejaVuSans-Oblique-3c9" d="M 1369 -91 
Q 72 -91 434 1766 
Q 575 2500 1256 3500 
L 1875 3500 
Q 1231 2500 1088 1750 
Q 819 397 1519 397 
Q 2166 397 2478 2078 
L 3009 2078 
Q 2669 388 3316 397 
Q 4013 403 4275 1750 
Q 4419 2500 4169 3500 
L 4788 3500 
Q 5075 2500 4934 1766 
Q 4578 -94 3278 -91 
Q 2428 -88 2503 844 
Q 2194 -91 1369 -91 
z
" transform="scale(0.015625)"/>
       <path id="DejaVuSans-Oblique-42" d="M 1081 4666 
L 2694 4666 
Q 3350 4666 3675 4422 
Q 4000 4178 4000 3688 
Q 4000 3238 3720 2911 
Q 3441 2584 2988 2516 
Q 3375 2428 3569 2181 
Q 3763 1934 3763 1522 
Q 3763 819 3242 409 
Q 2722 0 1819 0 
L 172 0 
L 1081 4666 
z
M 1234 2228 
L 903 519 
L 1919 519 
Q 2491 519 2800 781 
Q 3109 1044 3109 1522 
Q 3109 1891 2904 2059 
Q 2700 2228 2247 2228 
L 1234 2228 
z
M 1606 4147 
L 1331 2741 
L 2272 2741 
Q 2775 2741 3058 2959 
Q 3341 3178 3341 3566 
Q 3341 3869 3150 4008 
Q 2959 4147 2541 4147 
L 1606 4147 
z
" transform="scale(0.015625)"/>
       <path id="DejaVuSans-Oblique-4e" d="M 1081 4666 
L 1931 4666 
L 3219 666 
L 4000 4666 
L 4616 4666 
L 3706 0 
L 2853 0 
L 1569 4025 
L 788 0 
L 172 0 
L 1081 4666 
z
" transform="scale(0.015625)"/>
       <path id="DejaVuSans-2c" d="M 750 794 
L 1409 794 
L 1409 256 
L 897 -744 
L 494 -744 
L 750 256 
L 750 794 
z
" transform="scale(0.015625)"/>
      </defs>
      <use xlink:href="#DejaVuSans-Oblique-3c9" transform="translate(0 0.3125)"/>
      <use xlink:href="#DejaVuSans-Oblique-42" transform="translate(83.740234 -16.09375) scale(0.7)"/>
      <use xlink:href="#DejaVuSans-Oblique-4e" transform="translate(131.762695 -16.09375) scale(0.7)"/>
      <use xlink:href="#DejaVuSans-2c" transform="translate(184.125977 -16.09375) scale(0.7)"/>
      <use xlink:href="#DejaVuSans-31" transform="translate(220.014648 -16.09375) scale(0.7)"/>
     </g>
    </g>
    <g id="line2d_16">
     <path d="M 332.940682 213.948281 
L 341.940682 213.948281 
L 350.940682 213.948281 
" style="fill: none; stroke: #5ea04b; stroke-width: 1.5; stroke-linecap: square"/>
    </g>
    <g id="text_15">
     <!-- $\omega_{BN,2}$ -->
     <g transform="translate(358.140682 217.098281) scale(0.09 -0.09)">
      <use xlink:href="#DejaVuSans-Oblique-3c9" transform="translate(0 0.3125)"/>
      <use xlink:href="#DejaVuSans-Oblique-42" transform="translate(83.740234 -16.09375) scale(0.7)"/>
      <use xlink:href="#DejaVuSans-Oblique-4e" transform="translate(131.762695 -16.09375) scale(0.7)"/>
      <use xlink:href="#DejaVuSans-2c" transform="translate(184.125977 -16.09375) scale(0.7)"/>
      <use xlink:href="#DejaVuSans-32" transform="translate(220.014648 -16.09375) scale(0.7)"/>
     </g>
    </g>
    <g id="line2d_17">
     <path d="M 332.940682 227.536875 
L 341.940682 227.536875 
L 350.940682 227.536875 
" style="fill: none; stroke: #bdab62; stroke-width: 1.5; stroke-linecap: square"/>
    </g>
    <g id="text_16">
     <!-- $\omega_{BN,3}$ -->
     <g transform="translate(358.140682 230.686875) scale(0.09 -0.09)">
      <defs>
       <path id="DejaVuSans-33" d="M 2597 2516 
Q 3050 2419 3304 2112 
Q 3559 1806 3559 1356 
Q 3559 666 3084 287 
Q 2609 -91 1734 -91 
Q 1441 -91 1130 -33 
Q 819 25 488 141 
L 488 750 
Q 750 597 1062 519 
Q 1375 441 1716 441 
Q 2309 441 2620 675 
Q 2931 909 2931 1356 
Q 2931 1769 2642 2001 
Q 2353 2234 1838 2234 
L 1294 2234 
L 1294 2753 
L 1863 2753 
Q 2328 2753 2575 2939 
Q 2822 3125 2822 3475 
Q 2822 3834 2567 4026 
Q 2313 4219 1838 4219 
Q 1578 4219 1281 4162 
Q 984 4106 628 3988 
L 628 4550 
Q 988 4650 1302 4700 
Q 1616 4750 1894 4750 
Q 2613 4750 3031 4423 
Q 3450 4097 3450 3541 
Q 3450 3153 3228 2886 
Q 3006 2619 2597 2516 
z
" transform="scale(0.015625)"/>
      </defs>
      <use xlink:href="#DejaVuSans-Oblique-3c9" transform="translate(0 0.3125)"/>
      <use xlink:href="#DejaVuSans-Oblique-42" transform="translate(83.740234 -16.09375) scale(0.7)"/>
      <use xlink:href="#DejaVuSans-Oblique-4e" transform="translate(131.762695 -16.09375) scale(0.7)"/>
      <use xlink:href="#DejaVuSans-2c" transform="translate(184.125977 -16.09375) scale(0.7)"/>
      <use xlink:href="#DejaVuSans-33" transform="translate(220.014648 -16.09375) scale(0.7)"/>
     </g>
    </g>
   </g>
  </g>
 </g>
 <defs>
  <clipPath id="p081761cc4a">
   <rect x="80.510625" y="10.8" width="309.850057" height="230.236875"/>
  </clipPath>
 </defs>
</svg>
