<?xml version="1.0" encoding="utf-8" standalone="no"?>
<!DOCTYPE svg PUBLIC "-//W3C//DTD SVG 1.1//EN"
  "http://www.w3.org/Graphics/SVG/1.1/DTD/svg11.dtd">
<svg xmlns:xlink="http://www.w3.org/1999/xlink" width="414pt" height="180pt" viewBox="0 0 414 180" xmlns="http://www.w3.org/2000/svg" version="1.1">
 <metadata>
  <rdf:RDF xmlns:dc="http://purl.org/dc/elements/1.1/" xmlns:cc="http://creativecommons.org/ns#" xmlns:rdf="http://www.w3.org/1999/02/22-rdf-syntax-ns#">
   <cc:Work>
    <dc:type rdf:resource="http://purl.org/dc/dcmitype/StillImage"/>
    <dc:date>2026-04-02T23:02:43.504104</dc:date>
    <dc:format>image/svg+xml</dc:format>
    <dc:creator>
     <cc:Agent>
      <dc:title>Matplotlib v3.10.7, https://matplotlib.org/</dc:title>
     </cc:Agent>
    </dc:creator>
   </cc:Work>
  </rdf:RDF>
 </metadata>
 <defs>
  <style type="text/css">*{stroke-linejoin: round; stroke-linecap: butt}</style>
 </defs>
 <g id="figure_1">
  <g id="patch_1">
   <path d="M 0 180 
L 414 180 
L 414 0 
L 0 0 
L 0 180 
z
" style="fill: none"/>
  </g>
  <g id="axes_1">
   <g id="patch_2">
    <path d="M 53.332656 139.811563 
L 403.2 139.811563 
L 403.2 10.8 
L 53.332656 10.8 
L 53.332656 139.811563 
z
" style="fill: none"/>
   </g>
   <g id="matplotlib.axis_1">
    <g id="xtick_1">
     <g id="line2d_1">
      <defs>
       <path id="m7c3c0c1c51" d="M 0 0 
L 0 3.5 
" style="stroke: #000000; stroke-width: 0.8"/>
      </defs>
      <g>
       <use xlink:href="#m7c3c0c1c51" x="69.235717" y="139.811563" style="stroke: #000000; stroke-width: 0.8"/>
      </g>
     </g>
     <g id="text_1">
      <!-- 0.0 -->
      <g transform="translate(62.079311 153.650156) scale(0.09 -0.09)">
       <defs>
        <path id="DejaVuSans-30" d="M 2034 4250 
Q 1547 4250 1301 3770 
Q 1056 3291 1056 2328 
Q 1056 1369 1301 889 
Q 1547 409 2034 409 
Q 2525 409 2770 889 
Q 3016 1369 3016 2328 
Q 3016 3291 2770 3770 
Q 2525 4250 2034 4250 
z
M 2034 4750 
Q 2819 4750 3233 4129 
Q 3647 3509 3647 2328 
Q 3647 1150 3233 529 
Q 2819 -91 2034 -91 
Q 1250 -91 836 529 
Q 422 1150 422 2328 
Q 422 3509 836 4129 
Q 1250 4750 2034 4750 
z
" transform="scale(0.015625)"/>
        <path id="DejaVuSans-2e" d="M 684 794 
L 1344 794 
L 1344 0 
L 684 0 
L 684 794 
z
" transform="scale(0.015625)"/>
       </defs>
       <use xlink:href="#DejaVuSans-30"/>
       <use xlink:href="#DejaVuSans-2e" transform="translate(63.623047 0)"/>
       <use xlink:href="#DejaVuSans-30" transform="translate(95.410156 0)"/>
      </g>
     </g>
    </g>
    <g id="xtick_2">
     <g id="line2d_2">
      <g>
       <use xlink:href="#m7c3c0c1c51" x="117.281219" y="139.811563" style="stroke: #000000; stroke-width: 0.8"/>
      </g>
     </g>
     <g id="text_2">
      <!-- 2.5 -->
      <g transform="translate(110.124813 153.650156) scale(0.09 -0.09)">
       <defs>
        <path id="DejaVuSans-32" d="M 1228 531 
L 3431 531 
L 3431 0 
L 469 0 
L 469 531 
Q 828 903 1448 1529 
Q 2069 2156 2228 2338 
Q 2531 2678 2651 2914 
Q 2772 3150 2772 3378 
Q 2772 3750 2511 3984 
Q 2250 4219 1831 4219 
Q 1534 4219 1204 4116 
Q 875 4013 500 3803 
L 500 4441 
Q 881 4594 1212 4672 
Q 1544 4750 1819 4750 
Q 2544 4750 2975 4387 
Q 3406 4025 3406 3419 
Q 3406 3131 3298 2873 
Q 3191 2616 2906 2266 
Q 2828 2175 2409 1742 
Q 1991 1309 1228 531 
z
" transform="scale(0.015625)"/>
        <path id="DejaVuSans-35" d="M 691 4666 
L 3169 4666 
L 3169 4134 
L 1269 4134 
L 1269 2991 
Q 1406 3038 1543 3061 
Q 1681 3084 1819 3084 
Q 2600 3084 3056 2656 
Q 3513 2228 3513 1497 
Q 3513 744 3044 326 
Q 2575 -91 1722 -91 
Q 1428 -91 1123 -41 
Q 819 9 494 109 
L 494 744 
Q 775 591 1075 516 
Q 1375 441 1709 441 
Q 2250 441 2565 725 
Q 2881 1009 2881 1497 
Q 2881 1984 2565 2268 
Q 2250 2553 1709 2553 
Q 1456 2553 1204 2497 
Q 953 2441 691 2322 
L 691 4666 
z
" transform="scale(0.015625)"/>
       </defs>
       <use xlink:href="#DejaVuSans-32"/>
       <use xlink:href="#DejaVuSans-2e" transform="translate(63.623047 0)"/>
       <use xlink:href="#DejaVuSans-35" transform="translate(95.410156 0)"/>
      </g>
     </g>
    </g>
    <g id="xtick_3">
     <g id="line2d_3">
      <g>
       <use xlink:href="#m7c3c0c1c51" x="165.326721" y="139.811563" style="stroke: #000000; stroke-width: 0.8"/>
      </g>
     </g>
     <g id="text_3">
      <!-- 5.0 -->
      <g transform="translate(158.170315 153.650156) scale(0.09 -0.09)">
       <use xlink:href="#DejaVuSans-35"/>
       <use xlink:href="#DejaVuSans-2e" transform="translate(63.623047 0)"/>
       <use xlink:href="#DejaVuSans-30" transform="translate(95.410156 0)"/>
      </g>
     </g>
    </g>
    <g id="xtick_4">
     <g id="line2d_4">
      <g>
       <use xlink:href="#m7c3c0c1c51" x="213.372223" y="139.811563" style="stroke: #000000; stroke-width: 0.8"/>
      </g>
     </g>
     <g id="text_4">
      <!-- 7.5 -->
      <g transform="translate(206.215816 153.650156) scale(0.09 -0.09)">
       <defs>
        <path id="DejaVuSans-37" d="M 525 4666 
L 3525 4666 
L 3525 4397 
L 1831 0 
L 1172 0 
L 2766 4134 
L 525 4134 
L 525 4666 
z
" transform="scale(0.015625)"/>
       </defs>
       <use xlink:href="#DejaVuSans-37"/>
       <use xlink:href="#DejaVuSans-2e" transform="translate(63.623047 0)"/>
       <use xlink:href="#DejaVuSans-35" transform="translate(95.410156 0)"/>
      </g>
     </g>
    </g>
    <g id="xtick_5">
     <g id="line2d_5">
      <g>
       <use xlink:href="#m7c3c0c1c51" x="261.417724" y="139.811563" style="stroke: #000000; stroke-width: 0.8"/>
      </g>
     </g>
     <g id="text_5">
      <!-- 10.0 -->
      <g transform="translate(251.398193 153.650156) scale(0.09 -0.09)">
       <defs>
        <path id="DejaVuSans-31" d="M 794 531 
L 1825 531 
L 1825 4091 
L 703 3866 
L 703 4441 
L 1819 4666 
L 2450 4666 
L 2450 531 
L 3481 531 
L 3481 0 
L 794 0 
L 794 531 
z
" transform="scale(0.015625)"/>
       </defs>
       <use xlink:href="#DejaVuSans-31"/>
       <use xlink:href="#DejaVuSans-30" transform="translate(63.623047 0)"/>
       <use xlink:href="#DejaVuSans-2e" transform="translate(127.246094 0)"/>
       <use xlink:href="#DejaVuSans-30" transform="translate(159.033203 0)"/>
      </g>
     </g>
    </g>
    <g id="xtick_6">
     <g id="line2d_6">
      <g>
       <use xlink:href="#m7c3c0c1c51" x="309.463226" y="139.811563" style="stroke: #000000; stroke-width: 0.8"/>
      </g>
     </g>
     <g id="text_6">
      <!-- 12.5 -->
      <g transform="translate(299.443695 153.650156) scale(0.09 -0.09)">
       <use xlink:href="#DejaVuSans-31"/>
       <use xlink:href="#DejaVuSans-32" transform="translate(63.623047 0)"/>
       <use xlink:href="#DejaVuSans-2e" transform="translate(127.246094 0)"/>
       <use xlink:href="#DejaVuSans-35" transform="translate(159.033203 0)"/>
      </g>
     </g>
    </g>
    <g id="xtick_7">
     <g id="line2d_7">
      <g>
       <use xlink:href="#m7c3c0c1c51" x="357.508728" y="139.811563" style="stroke: #000000; stroke-width: 0.8"/>
      </g>
     </g>
     <g id="text_7">
      <!-- 15.0 -->
      <g transform="translate(347.489197 153.650156) scale(0.09 -0.09)">
       <use xlink:href="#DejaVuSans-31"/>
       <use xlink:href="#DejaVuSans-35" transform="translate(63.623047 0)"/>
       <use xlink:href="#DejaVuSans-2e" transform="translate(127.246094 0)"/>
       <use xlink:href="#DejaVuSans-30" transform="translate(159.033203 0)"/>
      </g>
     </g>
    </g>
    <g id="text_8">
     <!-- Time [min] -->
     <g transform="translate(201.113984 167.120313) scale(0.1 -0.1)">
      <defs>
       <path id="DejaVuSans-54" d="M -19 4666 
L 3928 4666 
L 3928 4134 
L 2272 4134 
L 2272 0 
L 1638 0 
L 1638 4134 
L -19 4134 
L -19 4666 
z
" transform="scale(0.015625)"/>
       <path id="DejaVuSans-69" d="M 603 3500 
L 1178 3500 
L 1178 0 
L 603 0 
L 603 3500 
z
M 603 4863 
L 1178 4863 
L 1178 4134 
L 603 4134 
L 603 4863 
z
" transform="scale(0.015625)"/>
       <path id="DejaVuSans-6d" d="M 3328 2828 
Q 3544 3216 3844 3400 
Q 4144 3584 4550 3584 
Q 5097 3584 5394 3201 
Q 5691 2819 5691 2113 
L 5691 0 
L 5113 0 
L 5113 2094 
Q 5113 2597 4934 2840 
Q 4756 3084 4391 3084 
Q 3944 3084 3684 2787 
Q 3425 2491 3425 1978 
L 3425 0 
L 2847 0 
L 2847 2094 
Q 2847 2600 2669 2842 
Q 2491 3084 2119 3084 
Q 1678 3084 1418 2786 
Q 1159 2488 1159 1978 
L 1159 0 
L 581 0 
L 581 3500 
L 1159 3500 
L 1159 2956 
Q 1356 3278 1631 3431 
Q 1906 3584 2284 3584 
Q 2666 3584 2933 3390 
Q 3200 3197 3328 2828 
z
" transform="scale(0.015625)"/>
       <path id="DejaVuSans-65" d="M 3597 1894 
L 3597 1613 
L 953 1613 
Q 991 1019 1311 708 
Q 1631 397 2203 397 
Q 2534 397 2845 478 
Q 3156 559 3463 722 
L 3463 178 
Q 3153 47 2828 -22 
Q 2503 -91 2169 -91 
Q 1331 -91 842 396 
Q 353 884 353 1716 
Q 353 2575 817 3079 
Q 1281 3584 2069 3584 
Q 2775 3584 3186 3129 
Q 3597 2675 3597 1894 
z
M 3022 2063 
Q 3016 2534 2758 2815 
Q 2500 3097 2075 3097 
Q 1594 3097 1305 2825 
Q 1016 2553 972 2059 
L 3022 2063 
z
" transform="scale(0.015625)"/>
       <path id="DejaVuSans-20" transform="scale(0.015625)"/>
       <path id="DejaVuSans-5b" d="M 550 4863 
L 1875 4863 
L 1875 4416 
L 1125 4416 
L 1125 -397 
L 1875 -397 
L 1875 -844 
L 550 -844 
L 550 4863 
z
" transform="scale(0.015625)"/>
       <path id="DejaVuSans-6e" d="M 3513 2113 
L 3513 0 
L 2938 0 
L 2938 2094 
Q 2938 2591 2744 2837 
Q 2550 3084 2163 3084 
Q 1697 3084 1428 2787 
Q 1159 2491 1159 1978 
L 1159 0 
L 581 0 
L 581 3500 
L 1159 3500 
L 1159 2956 
Q 1366 3272 1645 3428 
Q 1925 3584 2291 3584 
Q 2894 3584 3203 3211 
Q 3513 2838 3513 2113 
z
" transform="scale(0.015625)"/>
       <path id="DejaVuSans-5d" d="M 1947 4863 
L 1947 -844 
L 622 -844 
L 622 -397 
L 1369 -397 
L 1369 4416 
L 622 4416 
L 622 4863 
L 1947 4863 
z
" transform="scale(0.015625)"/>
      </defs>
      <use xlink:href="#DejaVuSans-54"/>
      <use xlink:href="#DejaVuSans-69" transform="translate(57.958984 0)"/>
      <use xlink:href="#DejaVuSans-6d" transform="translate(85.742188 0)"/>
      <use xlink:href="#DejaVuSans-65" transform="translate(183.154297 0)"/>
      <use xlink:href="#DejaVuSans-20" transform="translate(244.677734 0)"/>
      <use xlink:href="#DejaVuSans-5b" transform="translate(276.464844 0)"/>
      <use xlink:href="#DejaVuSans-6d" transform="translate(315.478516 0)"/>
      <use xlink:href="#DejaVuSans-69" transform="translate(412.890625 0)"/>
      <use xlink:href="#DejaVuSans-6e" transform="translate(440.673828 0)"/>
      <use xlink:href="#DejaVuSans-5d" transform="translate(504.052734 0)"/>
     </g>
    </g>
   </g>
   <g id="matplotlib.axis_2">
    <g id="ytick_1">
     <g id="line2d_8">
      <defs>
       <path id="m6aedcc7383" d="M 0 0 
L -3.5 0 
" style="stroke: #000000; stroke-width: 0.8"/>
      </defs>
      <g>
       <use xlink:href="#m6aedcc7383" x="53.332656" y="129.115945" style="stroke: #000000; stroke-width: 0.8"/>
      </g>
     </g>
     <g id="text_9">
      <!-- −0.2 -->
      <g transform="translate(24.478125 132.535241) scale(0.09 -0.09)">
       <defs>
        <path id="DejaVuSans-2212" d="M 678 2272 
L 4684 2272 
L 4684 1741 
L 678 1741 
L 678 2272 
z
" transform="scale(0.015625)"/>
       </defs>
       <use xlink:href="#DejaVuSans-2212"/>
       <use xlink:href="#DejaVuSans-30" transform="translate(83.789062 0)"/>
       <use xlink:href="#DejaVuSans-2e" transform="translate(147.412109 0)"/>
       <use xlink:href="#DejaVuSans-32" transform="translate(179.199219 0)"/>
      </g>
     </g>
    </g>
    <g id="ytick_2">
     <g id="line2d_9">
      <g>
       <use xlink:href="#m6aedcc7383" x="53.332656" y="104.570004" style="stroke: #000000; stroke-width: 0.8"/>
      </g>
     </g>
     <g id="text_10">
      <!-- 0.0 -->
      <g transform="translate(32.019844 107.989301) scale(0.09 -0.09)">
       <use xlink:href="#DejaVuSans-30"/>
       <use xlink:href="#DejaVuSans-2e" transform="translate(63.623047 0)"/>
       <use xlink:href="#DejaVuSans-30" transform="translate(95.410156 0)"/>
      </g>
     </g>
    </g>
    <g id="ytick_3">
     <g id="line2d_10">
      <g>
       <use xlink:href="#m6aedcc7383" x="53.332656" y="80.024064" style="stroke: #000000; stroke-width: 0.8"/>
      </g>
     </g>
     <g id="text_11">
      <!-- 0.2 -->
      <g transform="translate(32.019844 83.44336) scale(0.09 -0.09)">
       <use xlink:href="#DejaVuSans-30"/>
       <use xlink:href="#DejaVuSans-2e" transform="translate(63.623047 0)"/>
       <use xlink:href="#DejaVuSans-32" transform="translate(95.410156 0)"/>
      </g>
     </g>
    </g>
    <g id="ytick_4">
     <g id="line2d_11">
      <g>
       <use xlink:href="#m6aedcc7383" x="53.332656" y="55.478123" style="stroke: #000000; stroke-width: 0.8"/>
      </g>
     </g>
     <g id="text_12">
      <!-- 0.4 -->
      <g transform="translate(32.019844 58.89742) scale(0.09 -0.09)">
       <defs>
        <path id="DejaVuSans-34" d="M 2419 4116 
L 825 1625 
L 2419 1625 
L 2419 4116 
z
M 2253 4666 
L 3047 4666 
L 3047 1625 
L 3713 1625 
L 3713 1100 
L 3047 1100 
L 3047 0 
L 2419 0 
L 2419 1100 
L 313 1100 
L 313 1709 
L 2253 4666 
z
" transform="scale(0.015625)"/>
       </defs>
       <use xlink:href="#DejaVuSans-30"/>
       <use xlink:href="#DejaVuSans-2e" transform="translate(63.623047 0)"/>
       <use xlink:href="#DejaVuSans-34" transform="translate(95.410156 0)"/>
      </g>
     </g>
    </g>
    <g id="ytick_5">
     <g id="line2d_12">
      <g>
       <use xlink:href="#m6aedcc7383" x="53.332656" y="30.932183" style="stroke: #000000; stroke-width: 0.8"/>
      </g>
     </g>
     <g id="text_13">
      <!-- 0.6 -->
      <g transform="translate(32.019844 34.351479) scale(0.09 -0.09)">
       <defs>
        <path id="DejaVuSans-36" d="M 2113 2584 
Q 1688 2584 1439 2293 
Q 1191 2003 1191 1497 
Q 1191 994 1439 701 
Q 1688 409 2113 409 
Q 2538 409 2786 701 
Q 3034 994 3034 1497 
Q 3034 2003 2786 2293 
Q 2538 2584 2113 2584 
z
M 3366 4563 
L 3366 3988 
Q 3128 4100 2886 4159 
Q 2644 4219 2406 4219 
Q 1781 4219 1451 3797 
Q 1122 3375 1075 2522 
Q 1259 2794 1537 2939 
Q 1816 3084 2150 3084 
Q 2853 3084 3261 2657 
Q 3669 2231 3669 1497 
Q 3669 778 3244 343 
Q 2819 -91 2113 -91 
Q 1303 -91 875 529 
Q 447 1150 447 2328 
Q 447 3434 972 4092 
Q 1497 4750 2381 4750 
Q 2619 4750 2861 4703 
Q 3103 4656 3366 4563 
z
" transform="scale(0.015625)"/>
       </defs>
       <use xlink:href="#DejaVuSans-30"/>
       <use xlink:href="#DejaVuSans-2e" transform="translate(63.623047 0)"/>
       <use xlink:href="#DejaVuSans-36" transform="translate(95.410156 0)"/>
      </g>
     </g>
    </g>
    <g id="text_14">
     <!-- Panel 2 Angular Displacement [r] -->
     <g transform="translate(18.398438 158.101875) rotate(-90) scale(0.1 -0.1)">
      <defs>
       <path id="DejaVuSans-50" d="M 1259 4147 
L 1259 2394 
L 2053 2394 
Q 2494 2394 2734 2622 
Q 2975 2850 2975 3272 
Q 2975 3691 2734 3919 
Q 2494 4147 2053 4147 
L 1259 4147 
z
M 628 4666 
L 2053 4666 
Q 2838 4666 3239 4311 
Q 3641 3956 3641 3272 
Q 3641 2581 3239 2228 
Q 2838 1875 2053 1875 
L 1259 1875 
L 1259 0 
L 628 0 
L 628 4666 
z
" transform="scale(0.015625)"/>
       <path id="DejaVuSans-61" d="M 2194 1759 
Q 1497 1759 1228 1600 
Q 959 1441 959 1056 
Q 959 750 1161 570 
Q 1363 391 1709 391 
Q 2188 391 2477 730 
Q 2766 1069 2766 1631 
L 2766 1759 
L 2194 1759 
z
M 3341 1997 
L 3341 0 
L 2766 0 
L 2766 531 
Q 2569 213 2275 61 
Q 1981 -91 1556 -91 
Q 1019 -91 701 211 
Q 384 513 384 1019 
Q 384 1609 779 1909 
Q 1175 2209 1959 2209 
L 2766 2209 
L 2766 2266 
Q 2766 2663 2505 2880 
Q 2244 3097 1772 3097 
Q 1472 3097 1187 3025 
Q 903 2953 641 2809 
L 641 3341 
Q 956 3463 1253 3523 
Q 1550 3584 1831 3584 
Q 2591 3584 2966 3190 
Q 3341 2797 3341 1997 
z
" transform="scale(0.015625)"/>
       <path id="DejaVuSans-6c" d="M 603 4863 
L 1178 4863 
L 1178 0 
L 603 0 
L 603 4863 
z
" transform="scale(0.015625)"/>
       <path id="DejaVuSans-41" d="M 2188 4044 
L 1331 1722 
L 3047 1722 
L 2188 4044 
z
M 1831 4666 
L 2547 4666 
L 4325 0 
L 3669 0 
L 3244 1197 
L 1141 1197 
L 716 0 
L 50 0 
L 1831 4666 
z
" transform="scale(0.015625)"/>
       <path id="DejaVuSans-67" d="M 2906 1791 
Q 2906 2416 2648 2759 
Q 2391 3103 1925 3103 
Q 1463 3103 1205 2759 
Q 947 2416 947 1791 
Q 947 1169 1205 825 
Q 1463 481 1925 481 
Q 2391 481 2648 825 
Q 2906 1169 2906 1791 
z
M 3481 434 
Q 3481 -459 3084 -895 
Q 2688 -1331 1869 -1331 
Q 1566 -1331 1297 -1286 
Q 1028 -1241 775 -1147 
L 775 -588 
Q 1028 -725 1275 -790 
Q 1522 -856 1778 -856 
Q 2344 -856 2625 -561 
Q 2906 -266 2906 331 
L 2906 616 
Q 2728 306 2450 153 
Q 2172 0 1784 0 
Q 1141 0 747 490 
Q 353 981 353 1791 
Q 353 2603 747 3093 
Q 1141 3584 1784 3584 
Q 2172 3584 2450 3431 
Q 2728 3278 2906 2969 
L 2906 3500 
L 3481 3500 
L 3481 434 
z
" transform="scale(0.015625)"/>
       <path id="DejaVuSans-75" d="M 544 1381 
L 544 3500 
L 1119 3500 
L 1119 1403 
Q 1119 906 1312 657 
Q 1506 409 1894 409 
Q 2359 409 2629 706 
Q 2900 1003 2900 1516 
L 2900 3500 
L 3475 3500 
L 3475 0 
L 2900 0 
L 2900 538 
Q 2691 219 2414 64 
Q 2138 -91 1772 -91 
Q 1169 -91 856 284 
Q 544 659 544 1381 
z
M 1991 3584 
L 1991 3584 
z
" transform="scale(0.015625)"/>
       <path id="DejaVuSans-72" d="M 2631 2963 
Q 2534 3019 2420 3045 
Q 2306 3072 2169 3072 
Q 1681 3072 1420 2755 
Q 1159 2438 1159 1844 
L 1159 0 
L 581 0 
L 581 3500 
L 1159 3500 
L 1159 2956 
Q 1341 3275 1631 3429 
Q 1922 3584 2338 3584 
Q 2397 3584 2469 3576 
Q 2541 3569 2628 3553 
L 2631 2963 
z
" transform="scale(0.015625)"/>
       <path id="DejaVuSans-44" d="M 1259 4147 
L 1259 519 
L 2022 519 
Q 2988 519 3436 956 
Q 3884 1394 3884 2338 
Q 3884 3275 3436 3711 
Q 2988 4147 2022 4147 
L 1259 4147 
z
M 628 4666 
L 1925 4666 
Q 3281 4666 3915 4102 
Q 4550 3538 4550 2338 
Q 4550 1131 3912 565 
Q 3275 0 1925 0 
L 628 0 
L 628 4666 
z
" transform="scale(0.015625)"/>
       <path id="DejaVuSans-73" d="M 2834 3397 
L 2834 2853 
Q 2591 2978 2328 3040 
Q 2066 3103 1784 3103 
Q 1356 3103 1142 2972 
Q 928 2841 928 2578 
Q 928 2378 1081 2264 
Q 1234 2150 1697 2047 
L 1894 2003 
Q 2506 1872 2764 1633 
Q 3022 1394 3022 966 
Q 3022 478 2636 193 
Q 2250 -91 1575 -91 
Q 1294 -91 989 -36 
Q 684 19 347 128 
L 347 722 
Q 666 556 975 473 
Q 1284 391 1588 391 
Q 1994 391 2212 530 
Q 2431 669 2431 922 
Q 2431 1156 2273 1281 
Q 2116 1406 1581 1522 
L 1381 1569 
Q 847 1681 609 1914 
Q 372 2147 372 2553 
Q 372 3047 722 3315 
Q 1072 3584 1716 3584 
Q 2034 3584 2315 3537 
Q 2597 3491 2834 3397 
z
" transform="scale(0.015625)"/>
       <path id="DejaVuSans-70" d="M 1159 525 
L 1159 -1331 
L 581 -1331 
L 581 3500 
L 1159 3500 
L 1159 2969 
Q 1341 3281 1617 3432 
Q 1894 3584 2278 3584 
Q 2916 3584 3314 3078 
Q 3713 2572 3713 1747 
Q 3713 922 3314 415 
Q 2916 -91 2278 -91 
Q 1894 -91 1617 61 
Q 1341 213 1159 525 
z
M 3116 1747 
Q 3116 2381 2855 2742 
Q 2594 3103 2138 3103 
Q 1681 3103 1420 2742 
Q 1159 2381 1159 1747 
Q 1159 1113 1420 752 
Q 1681 391 2138 391 
Q 2594 391 2855 752 
Q 3116 1113 3116 1747 
z
" transform="scale(0.015625)"/>
       <path id="DejaVuSans-63" d="M 3122 3366 
L 3122 2828 
Q 2878 2963 2633 3030 
Q 2388 3097 2138 3097 
Q 1578 3097 1268 2742 
Q 959 2388 959 1747 
Q 959 1106 1268 751 
Q 1578 397 2138 397 
Q 2388 397 2633 464 
Q 2878 531 3122 666 
L 3122 134 
Q 2881 22 2623 -34 
Q 2366 -91 2075 -91 
Q 1284 -91 818 406 
Q 353 903 353 1747 
Q 353 2603 823 3093 
Q 1294 3584 2113 3584 
Q 2378 3584 2631 3529 
Q 2884 3475 3122 3366 
z
" transform="scale(0.015625)"/>
       <path id="DejaVuSans-74" d="M 1172 4494 
L 1172 3500 
L 2356 3500 
L 2356 3053 
L 1172 3053 
L 1172 1153 
Q 1172 725 1289 603 
Q 1406 481 1766 481 
L 2356 481 
L 2356 0 
L 1766 0 
Q 1100 0 847 248 
Q 594 497 594 1153 
L 594 3053 
L 172 3053 
L 172 3500 
L 594 3500 
L 594 4494 
L 1172 4494 
z
" transform="scale(0.015625)"/>
      </defs>
      <use xlink:href="#DejaVuSans-50"/>
      <use xlink:href="#DejaVuSans-61" transform="translate(55.802734 0)"/>
      <use xlink:href="#DejaVuSans-6e" transform="translate(117.082031 0)"/>
      <use xlink:href="#DejaVuSans-65" transform="translate(180.460938 0)"/>
      <use xlink:href="#DejaVuSans-6c" transform="translate(241.984375 0)"/>
      <use xlink:href="#DejaVuSans-20" transform="translate(269.767578 0)"/>
      <use xlink:href="#DejaVuSans-32" transform="translate(301.554688 0)"/>
      <use xlink:href="#DejaVuSans-20" transform="translate(365.177734 0)"/>
      <use xlink:href="#DejaVuSans-41" transform="translate(396.964844 0)"/>
      <use xlink:href="#DejaVuSans-6e" transform="translate(465.373047 0)"/>
      <use xlink:href="#DejaVuSans-67" transform="translate(528.751953 0)"/>
      <use xlink:href="#DejaVuSans-75" transform="translate(592.228516 0)"/>
      <use xlink:href="#DejaVuSans-6c" transform="translate(655.607422 0)"/>
      <use xlink:href="#DejaVuSans-61" transform="translate(683.390625 0)"/>
      <use xlink:href="#DejaVuSans-72" transform="translate(744.669922 0)"/>
      <use xlink:href="#DejaVuSans-20" transform="translate(785.783203 0)"/>
      <use xlink:href="#DejaVuSans-44" transform="translate(817.570312 0)"/>
      <use xlink:href="#DejaVuSans-69" transform="translate(894.572266 0)"/>
      <use xlink:href="#DejaVuSans-73" transform="translate(922.355469 0)"/>
      <use xlink:href="#DejaVuSans-70" transform="translate(974.455078 0)"/>
      <use xlink:href="#DejaVuSans-6c" transform="translate(1037.931641 0)"/>
      <use xlink:href="#DejaVuSans-61" transform="translate(1065.714844 0)"/>
      <use xlink:href="#DejaVuSans-63" transform="translate(1126.994141 0)"/>
      <use xlink:href="#DejaVuSans-65" transform="translate(1181.974609 0)"/>
      <use xlink:href="#DejaVuSans-6d" transform="translate(1243.498047 0)"/>
      <use xlink:href="#DejaVuSans-65" transform="translate(1340.910156 0)"/>
      <use xlink:href="#DejaVuSans-6e" transform="translate(1402.433594 0)"/>
      <use xlink:href="#DejaVuSans-74" transform="translate(1465.8125 0)"/>
      <use xlink:href="#DejaVuSans-20" transform="translate(1505.021484 0)"/>
      <use xlink:href="#DejaVuSans-5b" transform="translate(1536.808594 0)"/>
      <use xlink:href="#DejaVuSans-72" transform="translate(1575.822266 0)"/>
      <use xlink:href="#DejaVuSans-5d" transform="translate(1616.935547 0)"/>
     </g>
    </g>
   </g>
   <g id="line2d_13">
    <path d="M 69.235717 93.859817 
L 69.395869 99.166853 
L 69.716172 115.278882 
L 69.876324 110.112026 
L 70.196627 93.864871 
L 70.356779 98.890377 
L 70.677082 115.268958 
L 70.837234 110.385939 
L 71.157537 93.879662 
L 71.317689 98.619089 
L 71.637992 115.249302 
L 71.798144 110.65454 
L 72.118447 93.904179 
L 72.278599 98.353236 
L 72.598902 115.219931 
L 72.759054 110.917586 
L 73.079357 93.938397 
L 73.239509 98.093058 
L 73.559812 115.180874 
L 73.719964 111.174836 
L 74.040268 93.982285 
L 74.200419 97.838793 
L 74.520723 115.132164 
L 74.680874 111.426058 
L 75.001178 94.035804 
L 75.161329 97.590672 
L 75.481633 115.073848 
L 75.641784 111.671022 
L 75.962088 94.098905 
L 76.122239 97.34892 
L 76.442543 115.005977 
L 76.602694 111.909508 
L 76.922998 94.17153 
L 77.083149 97.113755 
L 77.403453 114.928615 
L 77.563604 112.141298 
L 77.883908 94.253613 
L 78.044059 96.885393 
L 78.364363 114.84183 
L 78.524514 112.366181 
L 78.844818 94.345079 
L 79.004969 96.664039 
L 79.325273 114.745703 
L 79.485424 112.583955 
L 79.805728 94.445845 
L 79.965879 96.449894 
L 80.286183 114.640321 
L 80.446334 112.794422 
L 80.766638 94.55582 
L 80.926789 96.243153 
L 81.247093 114.525778 
L 81.407244 112.99739 
L 81.727548 94.674904 
L 81.887699 96.044003 
L 82.208003 114.40218 
L 82.368154 113.192677 
L 82.688458 94.802988 
L 82.848609 95.852625 
L 83.168913 114.269639 
L 83.329065 113.380104 
L 83.649368 94.939956 
L 83.80952 95.66919 
L 84.129823 114.128275 
L 84.289975 113.559504 
L 84.610278 95.085684 
L 84.77043 95.493867 
L 85.090733 113.978216 
L 85.250885 113.730712 
L 85.571188 95.240039 
L 85.73134 95.326812 
L 86.051643 113.819599 
L 86.211795 113.893575 
L 86.532098 95.402882 
L 86.69225 95.168178 
L 87.012553 113.652568 
L 87.172705 114.047945 
L 87.493008 95.574063 
L 87.65316 95.018107 
L 87.973463 116.540879 
L 88.133615 130.091544 
L 88.293766 123.616635 
L 88.774221 44.352312 
L 88.934373 58.75232 
L 89.094525 61.392614 
L 89.254676 60.881479 
L 89.57498 92.433082 
L 89.735131 90.530383 
L 89.895283 81.099466 
L 90.055435 85.854355 
L 90.215586 100.370977 
L 90.375738 100.966025 
L 90.696041 62.303459 
L 90.856193 58.272174 
L 91.016345 57.866882 
L 91.176496 52.725491 
L 91.336648 54.968611 
L 92.137406 133.055298 
L 92.297558 122.928826 
L 92.617862 81.841237 
L 92.938165 78.181568 
L 93.258468 36.438848 
L 93.41862 53.815009 
L 93.578772 85.047917 
L 93.738923 90.848871 
L 93.899075 78.16361 
L 94.059227 78.954914 
L 94.37953 104.774958 
L 94.699833 69.632447 
L 94.859985 74.644325 
L 95.020137 85.863374 
L 95.180288 69.975133 
L 95.34044 33.8782 
L 95.500592 27.706623 
L 95.981047 123.020757 
L 96.141198 120.662069 
L 96.461502 99.819509 
L 96.621653 98.799941 
L 96.781805 106.451406 
L 96.941957 105.491073 
L 97.422412 24.38688 
L 97.742715 98.999736 
L 97.902867 88.668598 
L 98.063018 66.932578 
L 98.22317 75.364797 
L 98.383322 101.175992 
L 98.543473 102.043148 
L 98.863777 67.976785 
L 99.18408 93.883674 
L 99.504383 16.664162 
L 99.664535 40.111423 
L 99.984838 113.668987 
L 100.305142 95.170452 
L 100.785597 119.07567 
L 100.945748 109.923005 
L 101.266052 53.315246 
L 101.426204 24.394528 
L 101.586355 38.655427 
L 101.906659 97.613977 
L 102.226962 62.720492 
L 102.547265 111.306887 
L 102.707417 100.893029 
L 102.867569 71.43944 
L 103.02772 68.166514 
L 103.187872 89.470064 
L 103.348024 85.001148 
L 103.668327 30.025387 
L 103.98863 89.974682 
L 104.148782 89.326759 
L 104.308934 90.533125 
L 104.629237 128.406639 
L 104.789389 125.135376 
L 105.590147 34.152166 
L 105.750299 45.614616 
L 105.91045 76.167009 
L 106.070602 79.683627 
L 106.230754 66.409981 
L 106.390905 76.927441 
L 106.551057 104.882741 
L 106.711209 110.690451 
L 107.031512 66.976642 
L 107.351815 94.928012 
L 107.511967 78.635073 
L 107.672119 47.738551 
L 107.83227 42.515904 
L 108.312725 82.882422 
L 108.633029 126.566599 
L 108.79318 121.188147 
L 108.953332 106.633489 
L 109.113484 104.967091 
L 109.273635 112.601923 
L 109.433787 103.416658 
L 109.75409 39.783349 
L 109.914242 46.352607 
L 110.074394 61.769743 
L 110.234545 62.025481 
L 110.394697 71.626362 
L 110.715001 102.888655 
L 111.035304 74.226692 
L 111.355607 100.812017 
L 111.515759 93.312653 
L 111.836062 54.080049 
L 111.996214 52.080975 
L 112.156366 47.088273 
L 112.316517 55.377548 
L 112.636821 107.313511 
L 112.796972 109.84249 
L 112.957124 105.05968 
L 113.117276 112.812014 
L 113.277427 127.379358 
L 113.437579 125.497793 
L 113.918034 57.528838 
L 114.078186 55.496666 
L 114.238337 46.883635 
L 114.398489 53.034198 
L 114.718792 95.026079 
L 115.039096 72.051068 
L 115.359399 109.186126 
L 115.519551 102.017578 
L 115.839854 64.797968 
L 116.000006 74.236988 
L 116.160157 69.270745 
L 116.320309 45.316276 
L 116.480461 40.711951 
L 116.960916 102.109376 
L 117.281219 129.643277 
L 117.441371 125.187828 
L 117.761674 87.400125 
L 117.921826 89.752648 
L 118.081977 87.988066 
L 118.402281 29.356225 
L 118.562432 50.534941 
L 118.722584 87.20828 
L 118.882736 87.737128 
L 119.042887 69.11727 
L 119.203039 75.767323 
L 119.363191 102.639798 
L 119.523342 108.575774 
L 119.843646 64.77794 
L 120.163949 96.279644 
L 120.324101 76.001341 
L 120.484253 33.70538 
L 120.644404 24.804654 
L 121.124859 114.027103 
L 121.285011 118.626022 
L 121.445163 112.84365 
L 121.765466 97.900119 
L 122.085769 114.303991 
L 122.245921 87.136988 
L 122.406073 35.055127 
L 122.566224 20.600899 
L 122.886528 94.569998 
L 123.206831 65.602123 
L 123.366983 79.044525 
L 123.527134 103.164767 
L 123.687286 99.287023 
L 123.847438 74.478842 
L 124.007589 70.556182 
L 124.167741 92.640278 
L 124.327893 98.033807 
L 124.648196 20.840724 
L 124.808348 34.558399 
L 125.128651 104.527198 
L 125.288803 102.134872 
L 125.448954 96.594905 
L 125.609106 102.374991 
L 125.929409 122.518771 
L 126.089561 120.544707 
L 126.249713 100.218436 
L 126.570016 28.5724 
L 126.730168 38.208157 
L 127.050471 86.086509 
L 127.210623 72.025586 
L 127.370774 68.165925 
L 127.691078 106.007497 
L 127.851229 95.714883 
L 128.011381 76.560858 
L 128.171533 78.37742 
L 128.331684 92.703606 
L 128.491836 84.628562 
L 128.81214 35.829083 
L 129.132443 77.055425 
L 129.292595 79.210839 
L 129.452746 85.189765 
L 129.77305 126.779603 
L 129.933201 129.991681 
L 130.413656 89.857257 
L 130.73396 50.990319 
L 130.894111 48.73249 
L 131.214415 63.200652 
L 131.374566 66.388312 
L 131.69487 101.657816 
L 131.855021 99.921557 
L 132.175325 79.155497 
L 132.335476 88.964608 
L 132.495628 91.762131 
L 132.815931 59.392541 
L 133.136235 52.424476 
L 133.296386 46.641871 
L 133.456538 64.8248 
L 133.776841 126.019365 
L 133.936993 124.205009 
L 134.257296 105.673906 
L 134.417448 110.844855 
L 134.5776 108.142646 
L 135.218206 42.135717 
L 135.378358 50.737127 
L 135.698661 97.695819 
L 135.858813 94.18209 
L 136.018965 77.28948 
L 136.179116 77.534323 
L 136.49942 102.143669 
L 136.819723 69.226932 
L 136.979875 70.599462 
L 137.140026 67.707192 
L 137.300178 42.595947 
L 137.46033 35.990551 
L 137.780633 104.272511 
L 137.940785 109.114151 
L 138.100937 102.133078 
L 138.261088 107.996023 
L 138.42124 123.141633 
L 138.581392 124.894797 
L 139.38215 36.327517 
L 139.542302 49.544916 
L 139.702453 84.084768 
L 139.862605 93.857103 
L 140.182908 67.891438 
L 140.503212 112.645209 
L 140.663363 98.166771 
L 140.823515 70.288879 
L 140.983667 69.187102 
L 141.143818 86.014995 
L 141.30397 76.512788 
L 141.464122 42.131369 
L 141.624273 34.553147 
L 141.944577 84.846564 
L 142.26488 110.233895 
L 142.425032 125.916339 
L 142.585183 125.586281 
L 142.905487 93.397402 
L 143.065638 95.676343 
L 143.22579 91.329168 
L 143.546093 27.600545 
L 143.866397 85.311496 
L 144.026548 84.247583 
L 144.1867 67.177756 
L 144.346852 77.556772 
L 144.507003 104.370966 
L 144.667155 106.732044 
L 144.987458 65.031503 
L 145.307762 98.872537 
L 145.467913 76.789766 
L 145.628065 36.801841 
L 145.788217 28.351811 
L 146.268672 107.309568 
L 146.428823 116.916635 
L 146.588975 114.576675 
L 146.749127 104.129301 
L 146.909278 101.088983 
L 147.229582 117.758417 
L 147.389734 91.31819 
L 147.710037 23.596629 
L 148.03034 84.435403 
L 148.350644 70.617756 
L 148.670947 100.555468 
L 148.831099 93.913638 
L 148.99125 76.555102 
L 149.151402 78.205412 
L 149.311554 94.881452 
L 149.471705 94.118071 
L 149.792009 32.583773 
L 149.95216 37.040792 
L 150.272464 90.990176 
L 150.432615 97.414466 
L 150.592767 98.167573 
L 150.752919 103.602981 
L 151.073222 126.768985 
L 151.233374 126.758298 
L 151.393525 106.731025 
L 151.713829 42.847051 
L 151.87398 44.760946 
L 152.194284 68.266296 
L 152.354435 67.428297 
L 152.83489 96.389288 
L 153.155194 85.580062 
L 153.475497 92.391262 
L 153.955952 52.193556 
L 154.436407 61.961874 
L 154.75671 104.692343 
L 154.916862 125.595921 
L 155.077014 131.278252 
L 155.237165 122.453976 
L 155.71762 84.058545 
L 156.037924 59.970125 
L 156.198075 44.39851 
L 156.358227 44.437176 
L 156.838682 95.880954 
L 157.158986 81.906247 
L 157.479289 96.400184 
L 157.959744 72.545335 
L 158.119896 74.477872 
L 158.440199 30.118352 
L 158.600351 47.280734 
L 158.920654 121.993421 
L 159.080806 121.627077 
L 159.401109 104.038819 
L 159.721412 111.239555 
L 159.881564 103.559092 
L 160.362019 29.168709 
L 160.522171 40.906684 
L 160.842474 99.232183 
L 161.162777 69.014588 
L 161.322929 79.84054 
L 161.483081 102.521781 
L 161.643232 101.688094 
L 161.963536 69.554324 
L 162.123687 82.341949 
L 162.283839 80.21231 
L 162.604142 26.070071 
L 162.924446 99.606463 
L 163.084597 104.866775 
L 163.244749 97.099718 
L 163.404901 103.751522 
L 163.565052 120.79471 
L 163.725204 125.230576 
L 164.045507 94.854446 
L 164.365811 53.962373 
L 164.525962 31.917641 
L 164.686114 46.627787 
L 164.846266 82.971891 
L 165.006417 90.931105 
L 165.166569 70.588473 
L 165.326721 67.690241 
L 165.647024 113.209057 
L 165.967328 68.294333 
L 166.127479 72.264584 
L 166.287631 91.423179 
L 166.447783 80.482635 
L 166.607934 43.905545 
L 166.768086 34.554329 
L 167.088389 79.309672 
L 167.248541 88.858044 
L 167.568844 124.338284 
L 167.728996 126.645477 
L 168.049299 98.862049 
L 168.209451 100.491012 
L 168.369603 95.064002 
L 168.689906 31.498615 
L 168.850058 46.16971 
L 169.010209 76.740704 
L 169.170361 77.38245 
L 169.330513 68.08671 
L 169.650816 104.544802 
L 169.810968 102.166625 
L 170.131271 70.26399 
L 170.451574 97.919481 
L 170.932029 35.740843 
L 171.252333 72.643762 
L 171.572636 114.736639 
L 171.732788 116.274804 
L 171.892939 106.875121 
L 172.053091 105.0162 
L 172.373394 121.861999 
L 172.533546 98.736225 
L 172.853849 33.86301 
L 173.174153 67.666392 
L 173.334304 68.538 
L 173.494456 75.808388 
L 173.654608 90.575919 
L 173.814759 94.80258 
L 174.135063 80.495186 
L 174.455366 98.886167 
L 174.615518 88.40971 
L 174.935821 50.228565 
L 175.095973 45.87494 
L 175.256125 52.295939 
L 175.73658 97.460497 
L 175.896731 103.898368 
L 176.377186 129.767654 
L 177.017793 59.83295 
L 177.338096 48.735554 
L 177.498248 59.935668 
L 177.818551 91.542727 
L 177.978703 83.922073 
L 178.138855 81.774209 
L 178.459158 102.089662 
L 178.939613 68.132993 
L 179.099765 72.670034 
L 179.259916 63.452522 
L 179.420068 43.508779 
L 179.58022 42.815577 
L 180.060675 120.92008 
L 180.220826 128.045108 
L 180.380978 121.721594 
L 180.701281 93.901517 
L 180.861433 93.023906 
L 181.021585 93.790319 
L 181.181736 74.360422 
L 181.341888 37.777382 
L 181.50204 28.940723 
L 181.822343 95.091095 
L 181.982495 91.884828 
L 182.142646 75.212337 
L 182.302798 78.86855 
L 182.46295 98.383695 
L 182.623101 100.45846 
L 182.943405 67.710818 
L 183.263708 89.145335 
L 183.584011 22.368313 
L 183.744163 36.89583 
L 184.064467 117.517052 
L 184.224618 116.914435 
L 184.38477 105.184169 
L 184.544922 101.764616 
L 184.865225 112.827124 
L 185.025377 111.660238 
L 185.185528 93.910851 
L 185.505832 22.739814 
L 185.665983 34.913107 
L 185.986287 99.379476 
L 186.30659 65.731622 
L 186.626893 106.02524 
L 186.787045 100.566624 
L 186.947197 75.185815 
L 187.107348 69.526483 
L 187.2675 87.741729 
L 187.427652 85.836588 
L 187.747955 24.705371 
L 188.068258 96.055738 
L 188.22841 99.983185 
L 188.388562 92.14819 
L 188.548713 100.663444 
L 188.869017 127.281446 
L 189.029168 117.86152 
L 189.349472 82.288092 
L 189.669775 33.209063 
L 189.829927 46.326289 
L 189.990078 77.916182 
L 190.15023 83.534701 
L 190.310382 67.787053 
L 190.470533 71.53266 
L 190.790837 111.497206 
L 191.11114 70.375846 
L 191.271292 77.251562 
L 191.431443 93.065878 
L 191.591595 80.013541 
L 191.751747 47.532665 
L 191.911898 40.498901 
L 192.232202 69.928505 
L 192.392353 78.120244 
L 192.872809 129.478875 
L 193.193112 104.255188 
L 193.353264 104.101746 
L 193.513415 99.031704 
L 193.833719 44.823789 
L 193.99387 46.107884 
L 194.154022 61.986602 
L 194.314174 63.839447 
L 194.474325 68.170364 
L 194.794629 103.818118 
L 195.114932 76.756716 
L 195.275084 79.903451 
L 195.435235 95.936324 
L 195.595387 95.569517 
L 195.91569 55.255158 
L 196.235994 45.23065 
L 196.396145 50.977978 
L 196.716449 110.690656 
L 196.8766 118.449323 
L 197.196904 105.622336 
L 197.517207 123.88792 
L 197.677359 107.244565 
L 197.997662 52.898519 
L 198.157814 49.452337 
L 198.317965 49.154594 
L 198.478117 56.043696 
L 198.79842 95.000447 
L 199.118724 73.424256 
L 199.278875 83.540004 
L 199.439027 103.533259 
L 199.599179 103.410392 
L 199.919482 66.842788 
L 200.079634 69.485505 
L 200.239785 62.767639 
L 200.399937 42.675009 
L 200.560089 44.912864 
L 200.880392 93.892613 
L 201.200695 109.131101 
L 201.520999 130.003096 
L 202.001454 79.175945 
L 202.161606 76.215143 
L 202.481909 35.34322 
L 202.642061 52.679044 
L 202.802212 86.757081 
L 202.962364 90.37284 
L 203.122516 71.835497 
L 203.282667 74.064536 
L 203.602971 110.319922 
L 203.923274 65.2082 
L 204.083426 73.21577 
L 204.243577 89.311603 
L 204.403729 73.814443 
L 204.563881 37.785844 
L 204.724032 31.369295 
L 205.204487 112.460485 
L 205.364639 122.822972 
L 205.524791 121.268987 
L 205.845094 93.102907 
L 206.005246 96.612155 
L 206.165397 104.853643 
L 206.325549 85.926997 
L 206.645852 19.866413 
L 206.966156 96.865574 
L 207.126307 88.538965 
L 207.286459 68.782588 
L 207.446611 78.331888 
L 207.606762 103.224549 
L 207.766914 101.825282 
L 208.087217 64.181941 
L 208.407521 97.432521 
L 208.727824 21.350597 
L 208.887976 32.215341 
L 209.208279 112.034987 
L 209.368431 113.47694 
L 209.688734 100.413124 
L 209.848886 104.906683 
L 210.169189 118.005797 
L 210.329341 102.294776 
L 210.649644 20.610948 
L 210.809796 32.331804 
L 211.130099 94.954807 
L 211.450403 67.280541 
L 211.770706 106.454854 
L 211.930858 97.628371 
L 212.091009 74.540932 
L 212.251161 73.338512 
L 212.411313 90.912546 
L 212.571464 86.180361 
L 212.891768 27.729362 
L 213.212071 90.905747 
L 213.372223 94.048236 
L 213.532374 87.606439 
L 213.692526 97.489543 
L 214.012829 130.167699 
L 214.172981 125.410228 
L 214.493284 85.311435 
L 214.813588 39.987437 
L 214.973739 49.798622 
L 215.133891 69.640762 
L 215.294043 71.117087 
L 215.454194 64.805876 
L 215.614346 77.710645 
L 215.774498 101.325152 
L 215.934649 106.303111 
L 216.254953 76.491699 
L 216.575256 92.557428 
L 217.055711 51.31724 
L 217.215863 60.491846 
L 217.376014 58.110862 
L 217.536166 63.439512 
L 218.016621 132.870495 
L 218.497076 103.764081 
L 218.657228 100.230635 
L 219.297834 46.719853 
L 219.457986 48.835018 
L 219.938441 100.630575 
L 220.258744 75.4312 
L 220.579048 101.667283 
L 220.7392 91.104118 
L 220.899351 70.754602 
L 221.059503 66.674692 
L 221.219655 68.462954 
L 221.539958 31.850638 
L 222.020413 119.5742 
L 222.340716 102.259565 
L 222.66102 122.260655 
L 222.821171 114.009462 
L 223.461778 36.338541 
L 223.62193 47.016991 
L 223.942233 96.398029 
L 224.262536 64.344043 
L 224.58284 110.997755 
L 224.742991 104.211223 
L 224.903143 76.411917 
L 225.063295 68.501236 
L 225.223446 83.769468 
L 225.383598 77.531476 
L 225.54375 41.300423 
L 225.703901 30.873933 
L 226.024205 90.024271 
L 226.184356 92.831304 
L 226.344508 98.797154 
L 226.664811 130.418468 
L 226.824963 119.022823 
L 227.145266 89.369035 
L 227.305418 85.3604 
L 227.625721 33.630166 
L 227.785873 49.175337 
L 227.946025 84.085302 
L 228.106176 84.394725 
L 228.266328 63.324318 
L 228.42648 71.615718 
L 228.586631 104.087568 
L 228.746783 112.673521 
L 229.067086 63.930806 
L 229.38739 98.345833 
L 229.547542 79.643026 
L 229.707693 39.602707 
L 229.867845 30.707729 
L 230.508452 116.979725 
L 230.668603 124.493585 
L 230.988907 95.858685 
L 231.149058 98.71561 
L 231.30921 111.049818 
L 231.469362 97.751843 
L 231.789665 21.740396 
L 232.109968 86.386962 
L 232.27012 80.422238 
L 232.430272 68.56837 
L 232.750575 103.398642 
L 232.910727 97.42304 
L 233.070878 73.07729 
L 233.23103 69.967418 
L 233.551333 99.174832 
L 234.031788 29.802624 
L 234.512243 108.900005 
L 234.672395 107.635333 
L 234.832547 101.907693 
L 234.992698 102.388753 
L 235.313002 125.236704 
L 235.473153 114.219889 
L 235.793457 30.786863 
L 235.953608 32.298726 
L 236.273912 80.113535 
L 236.434063 74.522111 
L 236.594215 75.072413 
L 236.914518 98.593526 
L 237.234822 81.034696 
L 237.394973 85.029981 
L 237.555125 92.652861 
L 237.715277 82.837056 
L 238.03558 39.189614 
L 239.156642 130.392275 
L 239.316794 132.267003 
L 239.637097 91.071614 
L 239.9574 56.47119 
L 240.277704 55.177275 
L 240.437855 55.020081 
L 240.598007 65.530452 
L 240.91831 96.351307 
L 241.078462 94.232994 
L 241.238614 87.737538 
L 241.398765 88.663559 
L 241.558917 92.697272 
L 241.719069 86.895997 
L 242.039372 64.553835 
L 242.199524 66.061375 
L 242.359675 59.431886 
L 242.519827 43.994824 
L 242.679979 49.504461 
L 243.160434 132.162022 
L 243.320585 123.818633 
L 243.640889 100.824583 
L 243.80104 100.525232 
L 243.961192 98.896057 
L 244.121344 85.431647 
L 244.441647 33.119596 
L 244.601799 39.267735 
L 244.922102 95.685533 
L 245.082254 92.598827 
L 245.242405 77.458988 
L 245.402557 79.223316 
L 245.562709 95.696696 
L 245.72286 99.164776 
L 246.043164 72.648015 
L 246.203315 79.364419 
L 246.363467 79.677218 
L 246.68377 22.90595 
L 247.164225 116.726109 
L 247.484529 98.655933 
L 247.804832 120.869338 
L 247.964984 120.777629 
L 248.125136 106.506546 
L 248.605591 31.012882 
L 248.765742 45.272863 
L 249.086046 92.574422 
L 249.406349 64.70985 
L 249.726652 109.558977 
L 249.886804 100.398316 
L 250.046956 76.083511 
L 250.207107 73.661462 
L 250.367259 89.523526 
L 250.527411 81.457629 
L 250.847714 30.534538 
L 251.168017 84.67312 
L 251.328169 86.15333 
L 251.488321 92.325975 
L 251.808624 131.080587 
L 251.968776 124.937133 
L 252.289079 94.609263 
L 252.449231 87.471167 
L 252.769534 40.213469 
L 252.929686 47.345799 
L 253.089837 74.147388 
L 253.249989 77.259051 
L 253.410141 64.997528 
L 253.570292 75.679773 
L 253.730444 102.198257 
L 253.890596 107.330832 
L 254.210899 70.203133 
L 254.531202 96.964238 
L 254.691354 80.592061 
L 255.011657 38.179802 
L 255.331961 62.839761 
L 255.812416 126.492316 
L 256.132719 100.842581 
L 256.292871 101.698648 
L 256.453022 112.980513 
L 256.613174 105.045651 
L 256.933478 33.459798 
L 257.093629 42.94723 
L 257.253781 67.60462 
L 257.574084 75.693124 
L 257.894388 96.537552 
L 258.214691 77.965826 
L 258.374843 81.876893 
L 258.534994 94.363258 
L 258.695146 92.809236 
L 259.175601 37.656294 
L 259.335753 45.722893 
L 259.656056 99.928953 
L 259.816208 108.822251 
L 259.976359 103.441363 
L 260.136511 102.456035 
L 260.456814 128.805019 
L 260.616966 120.400615 
L 261.097421 42.388426 
L 261.898179 90.847216 
L 262.218483 83.458362 
L 262.538786 98.349228 
L 262.698938 91.262403 
L 263.019241 65.106591 
L 263.499696 52.213311 
L 263.819999 78.858227 
L 264.460606 132.878087 
L 264.620758 118.843121 
L 264.941061 79.923785 
L 265.101213 77.94305 
L 265.261364 68.364908 
L 265.421516 44.414682 
L 265.581668 37.862156 
L 265.901971 89.801579 
L 266.062123 90.062446 
L 266.222275 81.253861 
L 266.382426 86.070862 
L 266.542578 99.177677 
L 266.70273 97.912144 
L 267.023033 68.412494 
L 267.343336 82.434924 
L 267.66364 32.832185 
L 267.823791 38.319568 
L 268.144095 112.292562 
L 268.304246 126.198556 
L 268.464398 120.811234 
L 268.784701 99.413275 
L 268.944853 102.757051 
L 269.105005 110.216772 
L 269.265156 101.261673 
L 269.58546 25.623125 
L 269.745611 32.433911 
L 270.065915 94.052531 
L 270.386218 73.333047 
L 270.706521 99.61416 
L 270.866673 95.703861 
L 271.026825 78.380871 
L 271.186976 75.554872 
L 271.347128 88.347152 
L 271.50728 85.62878 
L 271.827583 22.310784 
L 271.987735 47.844513 
L 272.308038 108.787649 
L 272.628341 96.265144 
L 273.108796 126.936433 
L 273.268948 115.561665 
L 273.749403 33.140397 
L 273.909555 46.174171 
L 274.069706 74.870298 
L 274.229858 82.911012 
L 274.39001 70.821525 
L 274.550161 70.14539 
L 274.870465 105.134449 
L 275.030616 95.953856 
L 275.190768 79.674822 
L 275.35092 80.931149 
L 275.511072 91.107568 
L 275.671223 80.57646 
L 275.991527 38.675559 
L 276.31183 72.171158 
L 276.471982 74.907072 
L 276.632133 87.751317 
L 276.952437 132.464763 
L 277.112588 129.035624 
L 277.432892 98.95319 
L 277.593043 91.240977 
L 278.073498 48.537049 
L 278.393802 63.549402 
L 278.553953 68.046542 
L 278.874257 98.586521 
L 279.034408 96.640109 
L 279.19456 84.051838 
L 279.354712 81.069976 
L 279.514863 90.035928 
L 279.675015 92.389912 
L 280.315622 43.484595 
L 280.475773 43.208646 
L 280.956228 126.069632 
L 281.276532 103.446931 
L 281.436683 104.319153 
L 281.596835 114.538105 
L 281.756987 111.584156 
L 282.237442 40.057996 
L 282.397593 45.453514 
L 282.878048 94.238139 
L 283.198352 76.705539 
L 283.358503 82.075084 
L 283.518655 96.114969 
L 283.678807 97.715425 
L 283.99911 72.530839 
L 284.159262 70.190255 
L 284.479565 35.857412 
L 284.639717 47.884958 
L 284.96002 105.424975 
L 285.280324 100.162858 
L 285.600627 128.8742 
L 285.760779 121.978522 
L 286.241234 59.862526 
L 286.561537 40.157905 
L 287.041992 92.093683 
L 287.202144 75.079884 
L 287.362295 75.197553 
L 287.682599 108.839722 
L 288.002902 66.475729 
L 288.163054 69.679067 
L 288.323205 80.798313 
L 288.483357 66.106343 
L 288.643509 41.0883 
L 288.80366 45.342466 
L 289.284115 105.561547 
L 289.604419 129.880904 
L 289.76457 117.850927 
L 290.084874 87.66973 
L 290.245025 92.752814 
L 290.405177 80.604343 
L 290.72548 25.777278 
L 291.045784 92.820689 
L 291.205935 86.578191 
L 291.366087 72.632752 
L 291.526239 84.173687 
L 291.68639 105.269235 
L 291.846542 101.143604 
L 292.166845 64.330154 
L 292.487149 93.203803 
L 292.807452 29.138805 
L 292.967604 33.964787 
L 293.287907 105.239334 
L 293.448059 118.533549 
L 293.608211 116.320996 
L 293.928514 100.178175 
L 294.088666 105.855288 
L 294.248817 117.237289 
L 294.408969 110.159297 
L 294.729272 24.747838 
L 294.889424 29.795488 
L 295.209727 88.839213 
L 295.530031 72.931607 
L 295.850334 101.78455 
L 296.010486 92.377006 
L 296.170637 76.376789 
L 296.330789 79.879105 
L 296.490941 93.636415 
L 296.651092 86.496383 
L 296.971396 28.265967 
L 297.131547 48.324452 
L 297.451851 96.788858 
L 297.612002 94.467802 
L 297.772154 95.654466 
L 298.252609 131.82695 
L 298.412761 122.239132 
L 298.893216 42.186731 
L 299.373671 67.42366 
L 299.533822 65.36215 
L 300.014277 98.345317 
L 300.334581 85.30394 
L 300.494732 91.254339 
L 300.654884 92.215408 
L 301.135339 53.113658 
L 301.295491 58.568709 
L 301.455642 56.411111 
L 301.615794 58.2364 
L 302.096249 132.40868 
L 302.256401 130.686371 
L 302.736856 93.887866 
L 302.897008 88.059739 
L 303.217311 59.433748 
L 303.377463 43.151559 
L 303.537614 44.990617 
L 303.857918 90.899521 
L 304.018069 94.422438 
L 304.178221 83.323848 
L 304.338373 80.659191 
L 304.658676 98.129017 
L 304.978979 74.185494 
L 305.139131 74.382869 
L 305.299283 73.571113 
L 305.619586 25.667482 
L 305.779738 51.343229 
L 306.100041 122.31423 
L 306.260193 115.503493 
L 306.420344 102.773541 
L 306.580496 104.017257 
L 306.740648 113.4911 
L 306.900799 115.052678 
L 307.060951 102.728714 
L 307.541406 30.47225 
L 307.701558 47.04262 
L 308.021861 97.476848 
L 308.342164 65.426992 
L 308.662468 106.40699 
L 308.822619 100.355713 
L 308.982771 76.681511 
L 309.142923 71.400677 
L 309.303074 85.272165 
L 309.463226 76.059073 
L 309.623378 37.175957 
L 309.783529 29.092739 
L 310.103833 99.058514 
L 310.263984 98.178952 
L 310.424136 94.822054 
L 310.744439 126.666313 
L 310.904591 123.235022 
L 311.705349 31.714468 
L 311.865501 52.01376 
L 312.025653 88.145705 
L 312.185805 90.114198 
L 312.345956 67.74756 
L 312.506108 70.28003 
L 312.826411 113.457951 
L 313.146715 62.886453 
L 313.306866 73.21269 
L 313.467018 92.24256 
L 313.62717 75.736368 
L 313.787321 39.483498 
L 313.947473 36.678455 
L 314.267776 83.008904 
L 314.748231 127.421246 
L 314.908383 118.997403 
L 315.068535 99.220592 
L 315.228686 93.541134 
L 315.388838 101.082273 
L 315.54899 89.997764 
L 315.869293 22.616538 
L 316.189596 87.882882 
L 316.349748 82.166721 
L 316.5099 70.039619 
L 316.830203 106.754347 
L 316.990355 100.861011 
L 317.150506 73.364963 
L 317.310658 65.899218 
L 317.630961 96.679035 
L 317.951265 33.334964 
L 318.111416 33.669516 
L 318.591871 110.607299 
L 318.752023 114.127271 
L 319.072326 101.897714 
L 319.232478 108.652899 
L 319.39263 121.773258 
L 319.552781 116.545789 
L 319.873085 32.531473 
L 320.033236 30.672018 
L 320.35354 78.204091 
L 320.513691 72.438924 
L 320.673843 76.167933 
L 320.994147 99.522354 
L 321.31445 78.886845 
L 321.634753 96.211674 
L 321.794905 84.213302 
L 322.115208 39.350947 
L 322.27536 49.548124 
L 322.595663 82.348078 
L 322.915967 95.650192 
L 323.396422 133.947401 
L 323.556573 126.084725 
L 324.037028 55.727961 
L 324.19718 59.045885 
L 324.357332 58.565143 
L 324.517483 52.61199 
L 324.677635 61.255724 
L 324.997938 94.626605 
L 325.318242 84.973051 
L 325.638545 98.953449 
L 325.798697 90.623726 
L 326.119 63.977368 
L 326.279152 67.976943 
L 326.439303 62.69015 
L 326.599455 45.09919 
L 326.759607 44.209791 
L 327.240062 129.24719 
L 327.400213 129.593355 
L 327.880668 94.875343 
L 328.04082 96.668757 
L 328.200972 93.959299 
L 328.681427 32.641437 
L 329.00173 93.791848 
L 329.161882 90.031027 
L 329.322033 74.879878 
L 329.482185 79.425742 
L 329.642337 98.270374 
L 329.802488 100.52281 
L 330.122792 71.887308 
L 330.443095 86.631249 
L 330.763399 19.646042 
L 330.92355 39.255459 
L 331.243854 116.579659 
L 331.404005 111.893485 
L 331.564157 100.748067 
L 331.724309 102.530309 
L 332.044612 118.295754 
L 332.204764 113.476623 
L 332.364915 92.613442 
L 332.685219 26.574567 
L 332.84537 40.432059 
L 333.165674 95.006425 
L 333.485977 62.22368 
L 333.80628 108.441517 
L 333.966432 99.60244 
L 334.126584 75.217561 
L 334.286735 74.086117 
L 334.446887 92.37661 
L 334.607039 85.39754 
L 334.927342 24.77873 
L 335.247645 90.058954 
L 335.407797 91.073141 
L 335.567949 89.08138 
L 335.888252 125.8049 
L 336.048404 127.036279 
L 336.68901 60.035905 
L 336.849162 36.594985 
L 337.009314 48.178742 
L 337.169465 78.036855 
L 337.329617 81.147198 
L 337.489769 65.211885 
L 337.64992 72.446176 
L 337.970224 110.007565 
L 338.290527 68.373582 
L 338.61083 95.554049 
L 338.770982 79.872863 
L 338.931134 46.573103 
L 339.091285 38.661723 
L 339.892044 127.359915 
L 340.052196 122.425481 
L 340.372499 98.852902 
L 340.532651 106.140818 
L 340.692802 99.799206 
L 341.013106 32.698565 
L 341.173257 43.825258 
L 341.333409 69.797447 
L 341.493561 73.615315 
L 341.653712 74.262542 
L 341.974016 101.304294 
L 342.134167 93.229447 
L 342.294319 76.655524 
L 342.454471 76.854263 
L 342.614622 91.595697 
L 342.774774 93.2175 
L 343.255229 39.138329 
L 343.415381 47.505739 
L 343.895836 114.03073 
L 344.216139 102.35817 
L 344.376291 109.9624 
L 344.536442 124.577979 
L 344.696594 122.143106 
L 345.177049 38.699355 
L 345.977807 93.379716 
L 346.298111 81.980569 
L 346.458262 87.297601 
L 346.618414 97.820133 
L 346.778566 95.029989 
L 347.098869 63.538281 
L 347.419172 53.117721 
L 347.579324 52.323901 
L 348.540234 133.489175 
L 348.700386 126.55336 
L 349.020689 79.567834 
L 349.340993 68.648791 
L 349.661296 39.745077 
L 350.141751 89.422189 
L 350.301903 79.934128 
L 350.462054 84.328851 
L 350.622206 99.80166 
L 350.782358 101.731478 
L 351.102661 68.635817 
L 351.422964 81.853648 
L 351.903419 36.621032 
L 352.383874 123.550475 
L 352.544026 126.315093 
L 353.024481 97.088436 
L 353.184633 105.450629 
L 353.344784 105.544992 
L 353.825239 27.850907 
L 354.145543 91.87163 
L 354.465846 72.862477 
L 354.625998 82.440307 
L 354.786149 99.709078 
L 354.946301 96.585465 
L 355.106453 78.236463 
L 355.266604 74.84281 
L 355.426756 89.535065 
L 355.586908 90.359493 
L 355.907211 21.727395 
L 356.067363 37.240895 
L 356.387666 109.234407 
L 356.547818 107.195322 
L 356.707969 98.90952 
L 356.868121 102.01118 
L 357.188424 123.959518 
L 357.348576 121.03685 
L 357.508728 98.377585 
L 357.829031 30.165851 
L 357.989183 41.154376 
L 358.309486 85.920755 
L 358.62979 67.789442 
L 358.950093 103.445495 
L 359.110245 96.391156 
L 359.270396 80.155165 
L 359.430548 80.80552 
L 359.5907 92.451491 
L 359.750851 84.149069 
L 360.071155 33.474488 
L 360.391458 76.959141 
L 360.711761 84.997718 
L 361.032065 127.301872 
L 361.192216 131.405598 
L 361.832823 71.298349 
L 361.992975 52.352941 
L 362.153126 48.778824 
L 362.47343 67.184701 
L 362.633581 67.938121 
L 363.114036 99.990372 
L 363.43434 79.582877 
L 363.754643 91.261443 
L 364.39525 47.161654 
L 364.555401 47.668553 
L 365.035856 127.31658 
L 365.196008 123.629948 
L 365.516311 101.553172 
L 365.676463 108.170959 
L 365.836615 107.6087 
L 366.31707 38.68963 
L 366.477221 46.458375 
L 366.957677 94.650698 
L 367.117828 92.035548 
L 367.27798 81.236579 
L 367.438132 80.683103 
L 367.758435 94.911892 
L 368.399042 54.725599 
L 368.559193 36.336253 
L 368.719345 48.897721 
L 369.039648 111.276123 
L 369.1998 108.024607 
L 369.359952 100.073587 
L 369.520103 108.726378 
L 369.680255 124.778996 
L 369.840407 124.204974 
L 370.481013 45.06365 
L 370.641165 42.25616 
L 371.12162 93.554584 
L 371.281772 77.965735 
L 371.441923 74.915268 
L 371.762227 107.596695 
L 372.242682 68.445631 
L 372.402833 76.9045 
L 372.723137 41.821424 
L 372.883288 49.250044 
L 373.203592 90.44059 
L 373.523895 116.906624 
L 373.684047 130.923554 
L 373.844198 125.50699 
L 374.164502 87.143417 
L 374.324653 86.901966 
L 374.484805 79.016393 
L 374.805108 30.043352 
L 375.125412 88.694763 
L 375.285563 84.908685 
L 375.445715 72.542482 
L 375.605867 84.279804 
L 375.766019 105.552928 
L 375.92617 102.993315 
L 376.246474 65.721032 
L 376.566777 91.695115 
L 377.047232 34.052926 
L 377.527687 116.008558 
L 377.687839 122.207662 
L 377.84799 114.621407 
L 378.008142 101.737981 
L 378.168294 100.50223 
L 378.328445 112.682281 
L 378.488597 113.875154 
L 378.969052 27.003552 
L 379.289355 85.144007 
L 379.609659 73.881655 
L 379.929962 99.811746 
L 380.090114 91.4744 
L 380.250265 77.02886 
L 380.410417 81.043459 
L 380.570569 94.919368 
L 380.73072 89.741351 
L 381.051024 29.990242 
L 381.211175 39.166423 
L 381.531479 95.916565 
L 381.69163 100.274836 
L 381.851782 98.421889 
L 382.011934 103.102664 
L 382.332237 129.155066 
L 382.492389 127.686385 
L 382.972844 41.433634 
L 383.132995 47.501717 
L 383.293147 65.09027 
L 383.453299 69.497377 
L 383.61345 67.65268 
L 383.773602 75.734919 
L 384.093905 94.88932 
L 384.414209 87.739882 
L 384.57436 92.150384 
L 384.734512 92.597145 
L 385.214967 50.285658 
L 385.695422 62.357576 
L 385.855574 77.864967 
L 386.175877 127.097181 
L 386.336029 133.15796 
L 386.656332 104.395385 
L 386.976636 83.762078 
L 387.136787 75.57178 
L 387.296939 60.123228 
L 387.296939 60.123228 
" clip-path="url(#p296f529167)" style="fill: none; stroke: #1f77b4; stroke-width: 1.5; stroke-linecap: square"/>
   </g>
   <g id="patch_3">
    <path d="M 53.332656 139.811562 
L 53.332656 10.8 
" style="fill: none; stroke: #000000; stroke-width: 0.8; stroke-linejoin: miter; stroke-linecap: square"/>
   </g>
   <g id="patch_4">
    <path d="M 403.2 139.811562 
L 403.2 10.8 
" style="fill: none; stroke: #000000; stroke-width: 0.8; stroke-linejoin: miter; stroke-linecap: square"/>
   </g>
   <g id="patch_5">
    <path d="M 53.332656 139.811563 
L 403.2 139.811563 
" style="fill: none; stroke: #000000; stroke-width: 0.8; stroke-linejoin: miter; stroke-linecap: square"/>
   </g>
   <g id="patch_6">
    <path d="M 53.332656 10.8 
L 403.2 10.8 
" style="fill: none; stroke: #000000; stroke-width: 0.8; stroke-linejoin: miter; stroke-linecap: square"/>
   </g>
  </g>
 </g>
 <defs>
  <clipPath id="p296f529167">
   <rect x="53.332656" y="10.8" width="349.867344" height="129.011562"/>
  </clipPath>
 </defs>
</svg>
