<?xml version="1.0" encoding="utf-8" standalone="no"?>
<!DOCTYPE svg PUBLIC "-//W3C//DTD SVG 1.1//EN"
  "http://www.w3.org/Graphics/SVG/1.1/DTD/svg11.dtd">
<svg xmlns:xlink="http://www.w3.org/1999/xlink" width="414pt" height="288pt" viewBox="0 0 414 288" xmlns="http://www.w3.org/2000/svg" version="1.1">
 <metadata>
  <rdf:RDF xmlns:dc="http://purl.org/dc/elements/1.1/" xmlns:cc="http://creativecommons.org/ns#" xmlns:rdf="http://www.w3.org/1999/02/22-rdf-syntax-ns#">
   <cc:Work>
    <dc:type rdf:resource="http://purl.org/dc/dcmitype/StillImage"/>
    <dc:date>2025-05-29T23:13:15.642884</dc:date>
    <dc:format>image/svg+xml</dc:format>
    <dc:creator>
     <cc:Agent>
      <dc:title>Matplotlib v3.10.1, https://matplotlib.org/</dc:title>
     </cc:Agent>
    </dc:creator>
   </cc:Work>
  </rdf:RDF>
 </metadata>
 <defs>
  <style type="text/css">*{stroke-linejoin: round; stroke-linecap: butt}</style>
 </defs>
 <g id="figure_1">
  <g id="patch_1">
   <path d="M 0 288 
L 414 288 
L 414 0 
L 0 0 
L 0 288 
z
" style="fill: none"/>
  </g>
  <g id="axes_1">
   <g id="patch_2">
    <path d="M 99.939063 235.23 
L 403.2 235.23 
L 403.2 33.516563 
L 99.939063 33.516563 
L 99.939063 235.23 
z
" style="fill: none"/>
   </g>
   <g id="matplotlib.axis_1">
    <g id="xtick_1">
     <g id="line2d_1">
      <defs>
       <path id="mab9f9895b1" d="M 0 0 
L 0 3.5 
" style="stroke: #000000; stroke-width: 0.8"/>
      </defs>
      <g>
       <use xlink:href="#mab9f9895b1" x="113.723651" y="235.23" style="stroke: #000000; stroke-width: 0.8"/>
      </g>
     </g>
     <g id="text_1">
      <!-- 0 -->
      <g transform="translate(109.269901 252.867813) scale(0.14 -0.14)">
       <defs>
        <path id="DejaVuSans-30" d="M 2034 4250 
Q 1547 4250 1301 3770 
Q 1056 3291 1056 2328 
Q 1056 1369 1301 889 
Q 1547 409 2034 409 
Q 2525 409 2770 889 
Q 3016 1369 3016 2328 
Q 3016 3291 2770 3770 
Q 2525 4250 2034 4250 
z
M 2034 4750 
Q 2819 4750 3233 4129 
Q 3647 3509 3647 2328 
Q 3647 1150 3233 529 
Q 2819 -91 2034 -91 
Q 1250 -91 836 529 
Q 422 1150 422 2328 
Q 422 3509 836 4129 
Q 1250 4750 2034 4750 
z
" transform="scale(0.015625)"/>
       </defs>
       <use xlink:href="#DejaVuSans-30"/>
      </g>
     </g>
    </g>
    <g id="xtick_2">
     <g id="line2d_2">
      <g>
       <use xlink:href="#mab9f9895b1" x="168.862003" y="235.23" style="stroke: #000000; stroke-width: 0.8"/>
      </g>
     </g>
     <g id="text_2">
      <!-- 1 -->
      <g transform="translate(164.408253 252.867813) scale(0.14 -0.14)">
       <defs>
        <path id="DejaVuSans-31" d="M 794 531 
L 1825 531 
L 1825 4091 
L 703 3866 
L 703 4441 
L 1819 4666 
L 2450 4666 
L 2450 531 
L 3481 531 
L 3481 0 
L 794 0 
L 794 531 
z
" transform="scale(0.015625)"/>
       </defs>
       <use xlink:href="#DejaVuSans-31"/>
      </g>
     </g>
    </g>
    <g id="xtick_3">
     <g id="line2d_3">
      <g>
       <use xlink:href="#mab9f9895b1" x="224.000355" y="235.23" style="stroke: #000000; stroke-width: 0.8"/>
      </g>
     </g>
     <g id="text_3">
      <!-- 2 -->
      <g transform="translate(219.546605 252.867813) scale(0.14 -0.14)">
       <defs>
        <path id="DejaVuSans-32" d="M 1228 531 
L 3431 531 
L 3431 0 
L 469 0 
L 469 531 
Q 828 903 1448 1529 
Q 2069 2156 2228 2338 
Q 2531 2678 2651 2914 
Q 2772 3150 2772 3378 
Q 2772 3750 2511 3984 
Q 2250 4219 1831 4219 
Q 1534 4219 1204 4116 
Q 875 4013 500 3803 
L 500 4441 
Q 881 4594 1212 4672 
Q 1544 4750 1819 4750 
Q 2544 4750 2975 4387 
Q 3406 4025 3406 3419 
Q 3406 3131 3298 2873 
Q 3191 2616 2906 2266 
Q 2828 2175 2409 1742 
Q 1991 1309 1228 531 
z
" transform="scale(0.015625)"/>
       </defs>
       <use xlink:href="#DejaVuSans-32"/>
      </g>
     </g>
    </g>
    <g id="xtick_4">
     <g id="line2d_4">
      <g>
       <use xlink:href="#mab9f9895b1" x="279.138707" y="235.23" style="stroke: #000000; stroke-width: 0.8"/>
      </g>
     </g>
     <g id="text_4">
      <!-- 3 -->
      <g transform="translate(274.684957 252.867813) scale(0.14 -0.14)">
       <defs>
        <path id="DejaVuSans-33" d="M 2597 2516 
Q 3050 2419 3304 2112 
Q 3559 1806 3559 1356 
Q 3559 666 3084 287 
Q 2609 -91 1734 -91 
Q 1441 -91 1130 -33 
Q 819 25 488 141 
L 488 750 
Q 750 597 1062 519 
Q 1375 441 1716 441 
Q 2309 441 2620 675 
Q 2931 909 2931 1356 
Q 2931 1769 2642 2001 
Q 2353 2234 1838 2234 
L 1294 2234 
L 1294 2753 
L 1863 2753 
Q 2328 2753 2575 2939 
Q 2822 3125 2822 3475 
Q 2822 3834 2567 4026 
Q 2313 4219 1838 4219 
Q 1578 4219 1281 4162 
Q 984 4106 628 3988 
L 628 4550 
Q 988 4650 1302 4700 
Q 1616 4750 1894 4750 
Q 2613 4750 3031 4423 
Q 3450 4097 3450 3541 
Q 3450 3153 3228 2886 
Q 3006 2619 2597 2516 
z
" transform="scale(0.015625)"/>
       </defs>
       <use xlink:href="#DejaVuSans-33"/>
      </g>
     </g>
    </g>
    <g id="xtick_5">
     <g id="line2d_5">
      <g>
       <use xlink:href="#mab9f9895b1" x="334.27706" y="235.23" style="stroke: #000000; stroke-width: 0.8"/>
      </g>
     </g>
     <g id="text_5">
      <!-- 4 -->
      <g transform="translate(329.82331 252.867813) scale(0.14 -0.14)">
       <defs>
        <path id="DejaVuSans-34" d="M 2419 4116 
L 825 1625 
L 2419 1625 
L 2419 4116 
z
M 2253 4666 
L 3047 4666 
L 3047 1625 
L 3713 1625 
L 3713 1100 
L 3047 1100 
L 3047 0 
L 2419 0 
L 2419 1100 
L 313 1100 
L 313 1709 
L 2253 4666 
z
" transform="scale(0.015625)"/>
       </defs>
       <use xlink:href="#DejaVuSans-34"/>
      </g>
     </g>
    </g>
    <g id="xtick_6">
     <g id="line2d_6">
      <g>
       <use xlink:href="#mab9f9895b1" x="389.415412" y="235.23" style="stroke: #000000; stroke-width: 0.8"/>
      </g>
     </g>
     <g id="text_6">
      <!-- 5 -->
      <g transform="translate(384.961662 252.867813) scale(0.14 -0.14)">
       <defs>
        <path id="DejaVuSans-35" d="M 691 4666 
L 3169 4666 
L 3169 4134 
L 1269 4134 
L 1269 2991 
Q 1406 3038 1543 3061 
Q 1681 3084 1819 3084 
Q 2600 3084 3056 2656 
Q 3513 2228 3513 1497 
Q 3513 744 3044 326 
Q 2575 -91 1722 -91 
Q 1428 -91 1123 -41 
Q 819 9 494 109 
L 494 744 
Q 775 591 1075 516 
Q 1375 441 1709 441 
Q 2250 441 2565 725 
Q 2881 1009 2881 1497 
Q 2881 1984 2565 2268 
Q 2250 2553 1709 2553 
Q 1456 2553 1204 2497 
Q 953 2441 691 2322 
L 691 4666 
z
" transform="scale(0.015625)"/>
       </defs>
       <use xlink:href="#DejaVuSans-35"/>
      </g>
     </g>
    </g>
    <g id="text_7">
     <!-- time [min] -->
     <g transform="translate(204.382812 273.456563) scale(0.18 -0.18)">
      <defs>
       <path id="DejaVuSans-74" d="M 1172 4494 
L 1172 3500 
L 2356 3500 
L 2356 3053 
L 1172 3053 
L 1172 1153 
Q 1172 725 1289 603 
Q 1406 481 1766 481 
L 2356 481 
L 2356 0 
L 1766 0 
Q 1100 0 847 248 
Q 594 497 594 1153 
L 594 3053 
L 172 3053 
L 172 3500 
L 594 3500 
L 594 4494 
L 1172 4494 
z
" transform="scale(0.015625)"/>
       <path id="DejaVuSans-69" d="M 603 3500 
L 1178 3500 
L 1178 0 
L 603 0 
L 603 3500 
z
M 603 4863 
L 1178 4863 
L 1178 4134 
L 603 4134 
L 603 4863 
z
" transform="scale(0.015625)"/>
       <path id="DejaVuSans-6d" d="M 3328 2828 
Q 3544 3216 3844 3400 
Q 4144 3584 4550 3584 
Q 5097 3584 5394 3201 
Q 5691 2819 5691 2113 
L 5691 0 
L 5113 0 
L 5113 2094 
Q 5113 2597 4934 2840 
Q 4756 3084 4391 3084 
Q 3944 3084 3684 2787 
Q 3425 2491 3425 1978 
L 3425 0 
L 2847 0 
L 2847 2094 
Q 2847 2600 2669 2842 
Q 2491 3084 2119 3084 
Q 1678 3084 1418 2786 
Q 1159 2488 1159 1978 
L 1159 0 
L 581 0 
L 581 3500 
L 1159 3500 
L 1159 2956 
Q 1356 3278 1631 3431 
Q 1906 3584 2284 3584 
Q 2666 3584 2933 3390 
Q 3200 3197 3328 2828 
z
" transform="scale(0.015625)"/>
       <path id="DejaVuSans-65" d="M 3597 1894 
L 3597 1613 
L 953 1613 
Q 991 1019 1311 708 
Q 1631 397 2203 397 
Q 2534 397 2845 478 
Q 3156 559 3463 722 
L 3463 178 
Q 3153 47 2828 -22 
Q 2503 -91 2169 -91 
Q 1331 -91 842 396 
Q 353 884 353 1716 
Q 353 2575 817 3079 
Q 1281 3584 2069 3584 
Q 2775 3584 3186 3129 
Q 3597 2675 3597 1894 
z
M 3022 2063 
Q 3016 2534 2758 2815 
Q 2500 3097 2075 3097 
Q 1594 3097 1305 2825 
Q 1016 2553 972 2059 
L 3022 2063 
z
" transform="scale(0.015625)"/>
       <path id="DejaVuSans-20" transform="scale(0.015625)"/>
       <path id="DejaVuSans-5b" d="M 550 4863 
L 1875 4863 
L 1875 4416 
L 1125 4416 
L 1125 -397 
L 1875 -397 
L 1875 -844 
L 550 -844 
L 550 4863 
z
" transform="scale(0.015625)"/>
       <path id="DejaVuSans-6e" d="M 3513 2113 
L 3513 0 
L 2938 0 
L 2938 2094 
Q 2938 2591 2744 2837 
Q 2550 3084 2163 3084 
Q 1697 3084 1428 2787 
Q 1159 2491 1159 1978 
L 1159 0 
L 581 0 
L 581 3500 
L 1159 3500 
L 1159 2956 
Q 1366 3272 1645 3428 
Q 1925 3584 2291 3584 
Q 2894 3584 3203 3211 
Q 3513 2838 3513 2113 
z
" transform="scale(0.015625)"/>
       <path id="DejaVuSans-5d" d="M 1947 4863 
L 1947 -844 
L 622 -844 
L 622 -397 
L 1369 -397 
L 1369 4416 
L 622 4416 
L 622 4863 
L 1947 4863 
z
" transform="scale(0.015625)"/>
      </defs>
      <use xlink:href="#DejaVuSans-74"/>
      <use xlink:href="#DejaVuSans-69" transform="translate(39.208984 0)"/>
      <use xlink:href="#DejaVuSans-6d" transform="translate(66.992188 0)"/>
      <use xlink:href="#DejaVuSans-65" transform="translate(164.404297 0)"/>
      <use xlink:href="#DejaVuSans-20" transform="translate(225.927734 0)"/>
      <use xlink:href="#DejaVuSans-5b" transform="translate(257.714844 0)"/>
      <use xlink:href="#DejaVuSans-6d" transform="translate(296.728516 0)"/>
      <use xlink:href="#DejaVuSans-69" transform="translate(394.140625 0)"/>
      <use xlink:href="#DejaVuSans-6e" transform="translate(421.923828 0)"/>
      <use xlink:href="#DejaVuSans-5d" transform="translate(485.302734 0)"/>
     </g>
    </g>
   </g>
   <g id="matplotlib.axis_2">
    <g id="ytick_1">
     <g id="line2d_7">
      <defs>
       <path id="m53e4293053" d="M 0 0 
L -3.5 0 
" style="stroke: #000000; stroke-width: 0.8"/>
      </defs>
      <g>
       <use xlink:href="#m53e4293053" x="99.939063" y="211.51983" style="stroke: #000000; stroke-width: 0.8"/>
      </g>
     </g>
     <g id="text_8">
      <!-- −0.0004 -->
      <g transform="translate(32.220625 216.838736) scale(0.14 -0.14)">
       <defs>
        <path id="DejaVuSans-2212" d="M 678 2272 
L 4684 2272 
L 4684 1741 
L 678 1741 
L 678 2272 
z
" transform="scale(0.015625)"/>
        <path id="DejaVuSans-2e" d="M 684 794 
L 1344 794 
L 1344 0 
L 684 0 
L 684 794 
z
" transform="scale(0.015625)"/>
       </defs>
       <use xlink:href="#DejaVuSans-2212"/>
       <use xlink:href="#DejaVuSans-30" transform="translate(83.789062 0)"/>
       <use xlink:href="#DejaVuSans-2e" transform="translate(147.412109 0)"/>
       <use xlink:href="#DejaVuSans-30" transform="translate(179.199219 0)"/>
       <use xlink:href="#DejaVuSans-30" transform="translate(242.822266 0)"/>
       <use xlink:href="#DejaVuSans-30" transform="translate(306.445312 0)"/>
       <use xlink:href="#DejaVuSans-34" transform="translate(370.068359 0)"/>
      </g>
     </g>
    </g>
    <g id="ytick_2">
     <g id="line2d_8">
      <g>
       <use xlink:href="#m53e4293053" x="99.939063" y="172.084067" style="stroke: #000000; stroke-width: 0.8"/>
      </g>
     </g>
     <g id="text_9">
      <!-- −0.0002 -->
      <g transform="translate(32.220625 177.402973) scale(0.14 -0.14)">
       <use xlink:href="#DejaVuSans-2212"/>
       <use xlink:href="#DejaVuSans-30" transform="translate(83.789062 0)"/>
       <use xlink:href="#DejaVuSans-2e" transform="translate(147.412109 0)"/>
       <use xlink:href="#DejaVuSans-30" transform="translate(179.199219 0)"/>
       <use xlink:href="#DejaVuSans-30" transform="translate(242.822266 0)"/>
       <use xlink:href="#DejaVuSans-30" transform="translate(306.445312 0)"/>
       <use xlink:href="#DejaVuSans-32" transform="translate(370.068359 0)"/>
      </g>
     </g>
    </g>
    <g id="ytick_3">
     <g id="line2d_9">
      <g>
       <use xlink:href="#m53e4293053" x="99.939063" y="132.648304" style="stroke: #000000; stroke-width: 0.8"/>
      </g>
     </g>
     <g id="text_10">
      <!-- 0.0000 -->
      <g transform="translate(43.952188 137.967211) scale(0.14 -0.14)">
       <use xlink:href="#DejaVuSans-30"/>
       <use xlink:href="#DejaVuSans-2e" transform="translate(63.623047 0)"/>
       <use xlink:href="#DejaVuSans-30" transform="translate(95.410156 0)"/>
       <use xlink:href="#DejaVuSans-30" transform="translate(159.033203 0)"/>
       <use xlink:href="#DejaVuSans-30" transform="translate(222.65625 0)"/>
       <use xlink:href="#DejaVuSans-30" transform="translate(286.279297 0)"/>
      </g>
     </g>
    </g>
    <g id="ytick_4">
     <g id="line2d_10">
      <g>
       <use xlink:href="#m53e4293053" x="99.939063" y="93.212541" style="stroke: #000000; stroke-width: 0.8"/>
      </g>
     </g>
     <g id="text_11">
      <!-- 0.0002 -->
      <g transform="translate(43.952188 98.531448) scale(0.14 -0.14)">
       <use xlink:href="#DejaVuSans-30"/>
       <use xlink:href="#DejaVuSans-2e" transform="translate(63.623047 0)"/>
       <use xlink:href="#DejaVuSans-30" transform="translate(95.410156 0)"/>
       <use xlink:href="#DejaVuSans-30" transform="translate(159.033203 0)"/>
       <use xlink:href="#DejaVuSans-30" transform="translate(222.65625 0)"/>
       <use xlink:href="#DejaVuSans-32" transform="translate(286.279297 0)"/>
      </g>
     </g>
    </g>
    <g id="ytick_5">
     <g id="line2d_11">
      <g>
       <use xlink:href="#m53e4293053" x="99.939063" y="53.776778" style="stroke: #000000; stroke-width: 0.8"/>
      </g>
     </g>
     <g id="text_12">
      <!-- 0.0004 -->
      <g transform="translate(43.952188 59.095685) scale(0.14 -0.14)">
       <use xlink:href="#DejaVuSans-30"/>
       <use xlink:href="#DejaVuSans-2e" transform="translate(63.623047 0)"/>
       <use xlink:href="#DejaVuSans-30" transform="translate(95.410156 0)"/>
       <use xlink:href="#DejaVuSans-30" transform="translate(159.033203 0)"/>
       <use xlink:href="#DejaVuSans-30" transform="translate(222.65625 0)"/>
       <use xlink:href="#DejaVuSans-34" transform="translate(286.279297 0)"/>
      </g>
     </g>
    </g>
    <g id="text_13">
     <!-- $\sigma_{B/N}$ -->
     <g transform="translate(24.080625 151.563281) rotate(-90) scale(0.18 -0.18)">
      <defs>
       <path id="DejaVuSans-Oblique-3c3" d="M 2219 3044 
Q 1744 3044 1422 2700 
Q 1081 2341 969 1747 
Q 844 1119 1044 756 
Q 1241 397 1706 397 
Q 2166 397 2503 759 
Q 2844 1122 2966 1747 
Q 3075 2319 2881 2700 
Q 2700 3044 2219 3044 
z
M 2309 3503 
L 4219 3500 
L 4106 2925 
L 3463 2925 
Q 3706 2438 3575 1747 
Q 3406 888 2884 400 
Q 2359 -91 1609 -91 
Q 856 -91 525 400 
Q 194 888 363 1747 
Q 528 2609 1050 3097 
Q 1484 3503 2309 3503 
z
" transform="scale(0.015625)"/>
       <path id="DejaVuSans-Oblique-42" d="M 1081 4666 
L 2694 4666 
Q 3350 4666 3675 4422 
Q 4000 4178 4000 3688 
Q 4000 3238 3720 2911 
Q 3441 2584 2988 2516 
Q 3375 2428 3569 2181 
Q 3763 1934 3763 1522 
Q 3763 819 3242 409 
Q 2722 0 1819 0 
L 172 0 
L 1081 4666 
z
M 1234 2228 
L 903 519 
L 1919 519 
Q 2491 519 2800 781 
Q 3109 1044 3109 1522 
Q 3109 1891 2904 2059 
Q 2700 2228 2247 2228 
L 1234 2228 
z
M 1606 4147 
L 1331 2741 
L 2272 2741 
Q 2775 2741 3058 2959 
Q 3341 3178 3341 3566 
Q 3341 3869 3150 4008 
Q 2959 4147 2541 4147 
L 1606 4147 
z
" transform="scale(0.015625)"/>
       <path id="DejaVuSans-2f" d="M 1625 4666 
L 2156 4666 
L 531 -594 
L 0 -594 
L 1625 4666 
z
" transform="scale(0.015625)"/>
       <path id="DejaVuSans-Oblique-4e" d="M 1081 4666 
L 1931 4666 
L 3219 666 
L 4000 4666 
L 4616 4666 
L 3706 0 
L 2853 0 
L 1569 4025 
L 788 0 
L 172 0 
L 1081 4666 
z
" transform="scale(0.015625)"/>
      </defs>
      <use xlink:href="#DejaVuSans-Oblique-3c3" transform="translate(0 0.265625)"/>
      <use xlink:href="#DejaVuSans-Oblique-42" transform="translate(63.378906 -16.140625) scale(0.7)"/>
      <use xlink:href="#DejaVuSans-2f" transform="translate(111.401367 -16.140625) scale(0.7)"/>
      <use xlink:href="#DejaVuSans-Oblique-4e" transform="translate(134.985352 -16.140625) scale(0.7)"/>
     </g>
    </g>
   </g>
   <g id="line2d_12">
    <path d="M 113.723651 132.648304 
L 116.664363 132.752562 
L 117.399541 133.041504 
L 117.950924 133.519294 
L 118.502308 134.357124 
L 119.053691 135.700505 
L 119.605075 137.705885 
L 120.156458 140.529234 
L 120.891636 145.812403 
L 121.626814 153.083431 
L 122.361992 162.531161 
L 123.648554 181.12217 
L 123.832348 180.784639 
L 124.016143 179.000593 
L 124.383732 172.125608 
L 124.935116 156.385049 
L 126.773061 96.411837 
L 127.14065 90.185218 
L 127.508239 87.025594 
L 127.692033 86.569762 
L 127.875828 86.809688 
L 128.059622 87.682733 
L 128.427211 91.001188 
L 130.081362 110.28575 
L 130.265156 110.628837 
L 130.448951 110.276512 
L 130.632745 109.173898 
L 131.000334 104.577825 
L 131.367923 96.227723 
L 131.735512 87.735107 
L 131.919307 85.955185 
L 132.103101 85.736718 
L 132.286896 86.761393 
L 132.654485 91.583271 
L 133.205868 104.512559 
L 135.227608 163.935555 
L 135.595197 167.811481 
L 135.778991 168.419768 
L 135.962786 168.134912 
L 136.14658 166.977123 
L 136.51417 162.21611 
L 137.065553 150.027051 
L 139.087293 95.654829 
L 139.454882 90.552429 
L 139.822471 87.817899 
L 140.006265 87.301687 
L 140.19006 87.303809 
L 140.373854 87.771096 
L 140.741443 89.833574 
L 141.109032 93.312749 
L 141.476621 99.769389 
L 142.211799 118.235408 
L 143.314566 147.169859 
L 143.86595 155.98543 
L 144.233539 158.62297 
L 144.417333 158.92588 
L 144.601128 158.571759 
L 144.968717 156.050883 
L 145.5201 148.693859 
L 146.990456 125.368734 
L 147.358045 122.702764 
L 147.54184 122.233739 
L 147.725634 122.390832 
L 147.909429 123.194866 
L 148.277018 126.758893 
L 148.644607 132.824254 
L 149.195991 145.920741 
L 149.747374 159.943066 
L 150.114963 165.425773 
L 150.298758 166.901204 
L 150.482552 167.453372 
L 150.666347 167.048757 
L 150.850141 165.699348 
L 151.21773 160.414412 
L 151.769114 147.507656 
L 153.423264 103.50749 
L 153.790853 98.541325 
L 154.158442 96.592992 
L 154.342237 96.794226 
L 154.526031 97.767531 
L 154.89362 101.896771 
L 155.445004 112.672137 
L 156.547771 142.18645 
L 157.282949 159.640326 
L 157.834332 168.354969 
L 158.201921 171.667283 
L 158.56951 173.072729 
L 158.753305 173.148636 
L 158.937099 172.875751 
L 159.120894 171.858858 
L 159.488483 166.911031 
L 160.039866 154.293786 
L 161.877812 103.210105 
L 162.245401 98.139521 
L 162.61299 95.983485 
L 162.796784 95.997934 
L 162.980579 96.703743 
L 163.348168 99.978759 
L 163.899551 108.402341 
L 165.186113 130.356494 
L 165.553702 133.584436 
L 165.737496 134.296224 
L 165.921291 134.344783 
L 166.105085 133.701935 
L 166.472674 130.3041 
L 166.840263 124.173388 
L 167.94303 101.710923 
L 168.310619 98.67585 
L 168.494414 98.315588 
L 168.678208 98.753755 
L 169.045797 101.880891 
L 169.413386 107.564008 
L 170.148564 123.875651 
L 171.251331 148.782024 
L 171.802715 156.242745 
L 172.170304 158.425274 
L 172.354098 158.648504 
L 172.537893 158.313352 
L 172.905482 156.110475 
L 173.456866 149.812912 
L 174.927222 130.423217 
L 175.294811 128.434599 
L 175.478605 128.201431 
L 175.6624 128.517893 
L 175.846194 129.40119 
L 176.213783 132.878691 
L 176.765167 142.118827 
L 177.31655 151.545302 
L 177.867934 157.206976 
L 178.051728 158.040066 
L 178.235523 158.287823 
L 178.419317 157.957185 
L 178.786906 155.680111 
L 179.154495 151.536771 
L 179.889673 139.431497 
L 181.176235 117.202511 
L 181.727618 111.225486 
L 182.095207 108.976552 
L 182.462796 108.065736 
L 182.646591 108.052038 
L 182.830385 108.284448 
L 183.197974 109.302982 
L 184.116947 112.523019 
L 184.300741 112.824421 
L 184.484536 112.886346 
L 184.66833 112.663182 
L 184.852125 112.115181 
L 185.219714 110.544284 
L 185.403509 110.588031 
L 185.587303 111.169165 
L 185.954892 113.663115 
L 186.322481 117.879095 
L 187.057659 130.143292 
L 187.976632 145.906243 
L 188.528015 152.151942 
L 188.895604 154.159695 
L 189.079399 154.446665 
L 189.263193 154.249134 
L 189.446988 153.577465 
L 189.814577 150.899903 
L 190.36596 144.107159 
L 191.652522 122.784812 
L 192.3877 112.674488 
L 192.939083 107.778483 
L 193.306672 105.87573 
L 193.674261 104.90929 
L 194.04185 104.624507 
L 194.593234 104.726802 
L 194.777028 105.197165 
L 195.144617 108.261485 
L 195.696001 116.523662 
L 196.614973 136.074421 
L 197.350152 150.665873 
L 197.901535 157.917465 
L 198.269124 160.411483 
L 198.452919 160.931635 
L 198.636713 160.98573 
L 198.820508 160.602997 
L 199.188097 158.699052 
L 199.73948 153.862329 
L 200.658453 145.258217 
L 201.026042 143.310525 
L 201.209836 142.902094 
L 201.393631 142.930638 
L 201.577425 143.429686 
L 201.945014 145.923713 
L 202.312603 150.451143 
L 203.231576 164.359566 
L 203.599165 165.994038 
L 203.782959 165.780791 
L 203.966754 164.841875 
L 204.334343 160.896371 
L 204.885726 150.939439 
L 206.539877 115.841273 
L 206.907466 111.436289 
L 207.275055 109.190974 
L 207.458849 108.901406 
L 207.642644 109.152004 
L 208.010233 111.151636 
L 208.377822 114.830109 
L 209.296795 127.74037 
L 210.031973 136.563774 
L 210.399562 138.852878 
L 210.583356 139.281092 
L 210.767151 139.18772 
L 210.950945 138.553629 
L 211.318534 135.643033 
L 211.686123 130.617426 
L 212.421301 115.719447 
L 212.972685 107.048356 
L 213.340274 104.000187 
L 213.524068 103.448384 
L 213.707863 103.571602 
L 213.891657 104.352098 
L 214.259246 107.715524 
L 214.81063 116.384857 
L 216.832369 154.422338 
L 217.199958 157.765803 
L 217.567547 159.399734 
L 217.751342 159.610216 
L 217.935136 159.456506 
L 218.302725 158.233246 
L 218.854109 154.957952 
L 219.589287 150.676112 
L 219.956876 149.758913 
L 220.14067 149.805315 
L 220.324465 150.247097 
L 220.692054 151.822683 
L 220.875848 151.89466 
L 221.059643 151.500584 
L 221.427232 149.566676 
L 221.794821 146.106553 
L 222.346205 138.523278 
L 223.632766 119.579237 
L 224.18415 114.96617 
L 224.551739 113.868224 
L 224.735533 113.951298 
L 224.919328 114.45125 
L 225.286917 116.635243 
L 225.8383 122.421696 
L 226.757273 135.87852 
L 227.676245 148.897298 
L 228.227629 154.559014 
L 228.779012 158.155119 
L 229.146601 159.530941 
L 229.51419 160.32637 
L 230.065574 161.07182 
L 230.249368 160.915674 
L 230.433163 160.048363 
L 230.800752 156.722273 
L 231.352135 148.629947 
L 233.19008 116.472589 
L 233.55767 113.315802 
L 233.925259 111.932495 
L 234.109053 111.893693 
L 234.292848 112.260782 
L 234.660437 114.063818 
L 235.21182 118.664821 
L 236.130793 127.067372 
L 236.498382 129.124313 
L 236.682176 129.641738 
L 236.865971 129.760357 
L 237.049765 129.446932 
L 237.417354 127.436344 
L 237.784943 123.5288 
L 238.336327 114.295469 
L 238.703916 108.523294 
L 239.071505 105.393682 
L 239.255299 104.77398 
L 239.439094 104.839713 
L 239.622888 105.614066 
L 239.990477 109.191124 
L 240.541861 118.572112 
L 242.196011 152.349311 
L 242.5636 156.445859 
L 242.931189 158.260703 
L 243.114984 158.26323 
L 243.298778 157.665322 
L 243.666367 154.752884 
L 244.217751 146.712394 
L 245.136723 127.713161 
L 246.055696 109.40221 
L 246.60708 101.652609 
L 247.158463 97.092942 
L 247.526052 95.701328 
L 247.709847 95.408844 
L 247.893641 95.326498 
L 248.077436 95.840286 
L 248.445025 99.358336 
L 248.996408 109.102757 
L 250.099175 136.504478 
L 250.834353 151.550997 
L 251.201942 156.12427 
L 251.569531 158.31351 
L 251.753326 158.502238 
L 251.93712 158.111999 
L 252.304709 155.755791 
L 252.856093 149.192834 
L 254.142654 131.431419 
L 254.510243 128.811974 
L 254.694038 128.253057 
L 254.877832 128.250385 
L 255.061627 128.830914 
L 255.429216 131.788132 
L 255.796805 137.0969 
L 256.348188 148.965709 
L 256.899572 159.310015 
L 257.267161 162.72656 
L 257.450955 163.296822 
L 257.63475 163.051411 
L 257.818545 161.995693 
L 258.186134 157.658451 
L 258.737517 146.844156 
L 260.391668 109.32652 
L 260.759257 105.018865 
L 261.126846 103.28619 
L 261.31064 103.42573 
L 261.494435 104.227147 
L 261.862024 107.711634 
L 262.413407 116.93192 
L 263.33238 138.250856 
L 264.251352 158.338465 
L 264.802736 166.53044 
L 265.170325 169.932072 
L 265.537914 171.75814 
L 265.721708 172.153967 
L 265.905503 172.262802 
L 266.089297 171.648494 
L 266.456886 167.460264 
L 267.00827 155.757113 
L 267.927242 128.056624 
L 268.66242 107.585663 
L 269.213804 97.663516 
L 269.581393 94.488646 
L 269.765188 93.973443 
L 269.948982 94.148418 
L 270.132777 94.973766 
L 270.500366 98.340635 
L 271.051749 106.476025 
L 272.154516 123.922579 
L 272.522105 127.157627 
L 272.7059 127.930406 
L 272.889694 128.070744 
L 273.073489 127.544052 
L 273.441078 124.423971 
L 273.808667 118.583686 
L 274.543845 105.185158 
L 274.911434 101.646506 
L 275.095228 100.821652 
L 275.279023 100.698381 
L 275.462817 101.284121 
L 275.830406 104.433998 
L 276.38179 113.102999 
L 278.403529 151.078403 
L 278.771118 153.769945 
L 278.954913 154.345203 
L 279.138707 154.413574 
L 279.322502 153.99609 
L 279.690091 151.846335 
L 280.241474 146.122295 
L 281.528036 131.053669 
L 281.895625 128.92542 
L 282.07942 128.513148 
L 282.263214 128.582236 
L 282.447009 129.15514 
L 282.814598 131.850258 
L 283.182187 136.572318 
L 284.284954 154.261327 
L 284.652543 157.10901 
L 284.836337 157.703643 
L 285.020132 157.716018 
L 285.203926 157.159149 
L 285.571515 154.478776 
L 286.122899 147.278815 
L 288.328433 112.566498 
L 288.696022 110.125673 
L 289.063611 109.061314 
L 289.247405 108.995803 
L 289.4312 109.197686 
L 289.798789 110.230613 
L 290.901556 114.492647 
L 291.08535 114.77548 
L 291.269145 114.795623 
L 291.452939 114.51003 
L 291.820528 112.881401 
L 292.004323 112.090178 
L 292.188117 111.963966 
L 292.371912 112.341548 
L 292.739501 114.355344 
L 293.10709 118.027057 
L 293.658473 126.110586 
L 294.945035 146.468795 
L 295.496419 151.493528 
L 295.864008 152.733601 
L 296.047802 152.677868 
L 296.231597 152.176073 
L 296.599186 149.903931 
L 297.150569 143.798316 
L 298.069542 129.552482 
L 298.988514 115.847162 
L 299.539898 109.969728 
L 300.091281 106.353094 
L 300.45887 105.070599 
L 300.826459 104.441211 
L 301.377843 104.039673 
L 301.561637 104.340942 
L 301.929226 107.015717 
L 302.48061 114.65484 
L 303.399582 133.23794 
L 304.13476 147.284209 
L 304.686144 154.301423 
L 305.053733 156.716594 
L 305.237527 157.216649 
L 305.421322 157.261794 
L 305.605116 156.879396 
L 305.972705 154.993757 
L 306.524089 150.192465 
L 307.443062 141.506521 
L 307.810651 139.434255 
L 307.994445 138.93962 
L 308.17824 138.86607 
L 308.362034 139.247325 
L 308.729623 141.461671 
L 309.097212 145.659551 
L 309.648596 155.465807 
L 310.016185 161.514591 
L 310.383774 164.677611 
L 310.567568 165.230827 
L 310.751363 165.042176 
L 310.935157 164.089526 
L 311.302746 160.008059 
L 311.85413 149.615137 
L 313.50828 112.664945 
L 313.875869 107.983755 
L 314.243458 105.580383 
L 314.427253 105.259435 
L 314.611047 105.510663 
L 314.794842 106.305349 
L 315.162431 109.346629 
L 315.713814 116.592283 
L 316.816581 132.702419 
L 317.18417 136.126875 
L 317.551759 137.703194 
L 317.735554 137.697008 
L 317.919348 137.129511 
L 318.286938 134.284696 
L 318.654527 129.230478 
L 319.20591 118.05265 
L 319.757294 107.794283 
L 320.124883 103.776147 
L 320.308677 102.736665 
L 320.492472 102.409882 
L 320.676266 102.806162 
L 321.043855 105.656809 
L 321.411444 110.889609 
L 322.146622 126.209019 
L 323.433184 154.422361 
L 323.984567 161.927446 
L 324.352156 164.650261 
L 324.719745 165.588861 
L 324.90354 165.459442 
L 325.271129 164.233909 
L 325.822512 160.896742 
L 326.55769 156.628763 
L 326.925279 155.847965 
L 327.109074 156.007166 
L 327.476663 156.965512 
L 327.660457 156.623439 
L 328.028046 154.470068 
L 328.395635 150.681801 
L 328.947019 142.251968 
L 330.23358 120.276933 
L 330.784964 114.637854 
L 331.152553 113.09236 
L 331.336348 113.034664 
L 331.520142 113.451165 
L 331.887731 115.639313 
L 332.25532 119.433263 
L 332.990498 130.376412 
L 334.27706 150.914898 
L 334.828443 156.916339 
L 335.379827 160.445652 
L 335.747416 161.554497 
L 336.115005 161.9207 
L 336.482594 161.85588 
L 336.850183 161.72554 
L 337.033977 161.305163 
L 337.401566 158.585998 
L 337.95295 151.347773 
L 339.055717 131.133174 
L 339.790895 119.986048 
L 340.158484 116.516063 
L 340.526073 114.730809 
L 340.709867 114.474411 
L 340.893662 114.621951 
L 341.077456 115.145106 
L 341.445045 117.158652 
L 342.180223 123.537629 
L 342.915402 129.621339 
L 343.282991 131.285174 
L 343.466785 131.589383 
L 343.65058 131.490607 
L 343.834374 130.960432 
L 344.201963 128.537411 
L 344.569552 124.275556 
L 345.120936 114.683106 
L 345.488525 108.818678 
L 345.856114 105.724746 
L 346.039908 105.168019 
L 346.223703 105.324196 
L 346.407497 106.213745 
L 346.775086 110.081816 
L 347.32647 119.990356 
L 348.98062 154.978491 
L 349.348209 159.115204 
L 349.715798 160.871967 
L 349.899593 160.814953 
L 350.083387 160.139319 
L 350.450976 157.026822 
L 351.00236 148.612536 
L 351.921332 128.953964 
L 352.840305 110.23723 
L 353.391688 102.486568 
L 353.759277 99.195051 
L 354.126866 97.343465 
L 354.494455 96.701613 
L 354.67825 96.726547 
L 354.862045 97.394104 
L 355.229634 101.440627 
L 355.781017 112.389734 
L 356.883784 143.094208 
L 357.618962 160.197617 
L 357.986551 165.565781 
L 358.35414 168.35051 
L 358.537935 168.75944 
L 358.721729 168.538823 
L 358.905524 167.727943 
L 359.273113 164.561993 
L 359.824496 157.094492 
L 360.927263 141.601042 
L 361.294852 138.948311 
L 361.478647 138.419746 
L 361.662441 138.485402 
L 361.846236 139.176157 
L 362.213825 142.489218 
L 362.581414 148.337005 
L 363.316592 161.304379 
L 363.684181 164.490536 
L 363.867975 165.11732 
L 364.05177 165.035109 
L 364.235564 164.241846 
L 364.603153 160.691717 
L 365.154537 151.532336 
L 366.992482 115.745817 
L 367.360071 112.342029 
L 367.72766 111.002563 
L 367.911455 111.101468 
L 368.095249 111.68415 
L 368.462838 114.144293 
L 369.014222 120.230662 
L 370.116989 133.786857 
L 370.484578 136.543128 
L 370.852167 137.631435 
L 371.035961 137.45683 
L 371.219756 136.772604 
L 371.587345 133.84506 
L 371.954934 128.890334 
L 372.873906 114.790742 
L 373.241495 111.376374 
L 373.609084 109.80408 
L 373.792879 109.752974 
L 373.976673 110.173514 
L 374.344262 112.310461 
L 374.895646 118.171066 
L 377.10118 146.702293 
L 377.468769 148.75117 
L 377.836358 149.695288 
L 378.020152 149.796777 
L 378.203947 149.688797 
L 378.571536 148.992636 
L 379.490509 146.553789 
L 379.674303 146.331164 
L 379.858098 146.304634 
L 380.041892 146.514509 
L 380.409481 147.781286 
L 381.144659 152.116573 
L 381.328454 152.119858 
L 381.512248 151.656048 
L 381.879837 149.336754 
L 382.247426 145.178343 
L 382.982604 133.157571 
L 383.901577 117.79943 
L 384.45296 111.752856 
L 384.820549 109.84476 
L 385.004344 109.593405 
L 385.188138 109.81525 
L 385.371933 110.50113 
L 385.739522 113.18092 
L 386.290905 119.940076 
L 387.393672 138.267182 
L 388.312645 151.562674 
L 388.864028 156.677508 
L 389.231617 158.775031 
L 389.415412 159.472473 
L 389.415412 159.472473 
" clip-path="url(#p26f3d52097)" style="fill: none; stroke: #2b737e; stroke-width: 1.5; stroke-linecap: square"/>
   </g>
   <g id="line2d_13">
    <path d="M 113.723651 132.648304 
L 117.399541 132.540889 
L 118.318513 132.306371 
L 119.053691 131.938671 
L 119.788869 131.349927 
L 120.524047 130.49138 
L 121.259225 129.324846 
L 122.178198 127.391329 
L 123.280965 124.647564 
L 123.464759 124.841232 
L 123.832348 125.838789 
L 124.199938 127.424284 
L 124.751321 130.970582 
L 125.670294 136.9062 
L 126.037883 138.307771 
L 126.405472 138.928453 
L 126.589266 138.944586 
L 126.773061 138.779895 
L 127.14065 137.997069 
L 128.611006 133.635704 
L 128.7948 133.493059 
L 128.978595 133.518037 
L 129.162389 133.719466 
L 129.529978 134.656269 
L 130.081362 137.264803 
L 131.000334 143.496499 
L 131.551718 146.805215 
L 131.735512 146.793355 
L 131.919307 146.333642 
L 132.286896 144.47042 
L 132.654485 141.262988 
L 134.308635 123.763871 
L 134.676224 122.778087 
L 134.860019 122.881247 
L 135.043813 123.364911 
L 135.411402 125.340331 
L 135.962786 130.058326 
L 136.881759 138.43942 
L 137.433142 141.392839 
L 137.800731 142.032077 
L 137.984526 141.957618 
L 138.352115 141.131558 
L 138.903498 138.765164 
L 139.638676 135.471625 
L 140.006265 134.570635 
L 140.19006 134.422425 
L 140.373854 134.500644 
L 140.557649 134.813653 
L 140.925238 136.136266 
L 141.84421 139.542036 
L 142.395594 140.910712 
L 142.763183 141.176673 
L 143.130772 141.012905 
L 143.498361 140.529043 
L 145.152511 137.775648 
L 145.5201 137.674762 
L 145.887689 137.831203 
L 146.439073 138.418068 
L 147.358045 139.492275 
L 147.725634 139.639009 
L 148.093223 139.499273 
L 148.460813 139.034482 
L 149.012196 137.735957 
L 149.747374 135.131229 
L 150.482552 132.380469 
L 150.666347 132.358608 
L 151.033936 133.005133 
L 151.401525 134.378096 
L 151.952908 137.846045 
L 152.871881 144.087606 
L 153.23947 145.620166 
L 153.607059 146.283512 
L 153.790853 146.270099 
L 153.974648 146.033893 
L 154.342237 144.963705 
L 154.89362 142.287642 
L 155.996387 136.577356 
L 156.363976 135.462479 
L 156.731565 134.944948 
L 156.91536 134.905593 
L 157.282949 135.204569 
L 157.834332 136.276161 
L 158.56951 137.731929 
L 158.937099 137.997871 
L 159.120894 137.945828 
L 159.488483 137.419933 
L 159.856072 136.316504 
L 160.958839 132.120056 
L 161.326428 131.312493 
L 161.694017 131.006331 
L 162.061606 131.184391 
L 162.61299 131.987523 
L 163.531962 133.428818 
L 163.899551 133.653329 
L 164.26714 133.563016 
L 164.634729 133.159896 
L 165.186113 132.100219 
L 166.28888 129.716034 
L 166.656469 129.277398 
L 167.024058 129.158442 
L 167.391647 129.388326 
L 167.759236 129.956163 
L 168.310619 131.327378 
L 170.332359 137.371429 
L 170.516153 137.192254 
L 170.883742 136.211205 
L 171.251331 134.623108 
L 171.986509 129.919744 
L 172.721688 125.703657 
L 173.089277 124.565493 
L 173.273071 124.305225 
L 173.456866 124.257255 
L 173.64066 124.4166 
L 174.008249 125.299497 
L 174.559633 127.660599 
L 175.6624 132.893639 
L 176.029989 133.938244 
L 176.397578 134.427032 
L 176.581372 134.463831 
L 176.948961 134.173338 
L 177.500345 133.115164 
L 178.235523 131.590314 
L 178.603112 131.226746 
L 178.786906 131.212642 
L 178.970701 131.326425 
L 179.33829 131.959683 
L 179.705879 133.12652 
L 180.257262 135.72094 
L 180.624851 137.534283 
L 180.99244 138.081658 
L 181.176235 138.083509 
L 181.360029 137.912302 
L 181.727618 136.916003 
L 182.279002 133.963185 
L 183.381769 127.558682 
L 183.749358 126.378109 
L 184.116947 125.927147 
L 184.300741 125.972573 
L 184.66833 126.534868 
L 185.219714 128.178654 
L 185.954892 130.520087 
L 186.322481 131.186265 
L 186.506276 131.308455 
L 186.69007 131.27069 
L 186.873865 131.065544 
L 187.241454 130.152116 
L 187.792837 127.658552 
L 188.71181 121.780933 
L 189.079399 119.787456 
L 189.263193 119.662116 
L 189.446988 119.926825 
L 189.814577 121.295832 
L 190.182166 123.885782 
L 191.101138 133.529745 
L 191.652522 138.232496 
L 192.020111 139.965639 
L 192.203905 140.328074 
L 192.3877 140.345945 
L 192.571494 140.029473 
L 192.939083 138.494814 
L 193.490467 134.561802 
L 194.593234 126.066768 
L 194.960823 124.416105 
L 195.328412 123.682918 
L 195.512206 123.657618 
L 195.696001 123.83996 
L 196.06359 124.721005 
L 197.533946 129.507589 
L 197.717741 129.622336 
L 197.901535 129.540629 
L 198.08533 129.252998 
L 199.004302 127.086855 
L 199.371891 126.946746 
L 199.555686 127.039792 
L 199.923275 127.734369 
L 200.474658 129.761941 
L 201.577425 134.159402 
L 202.128809 135.374513 
L 202.496398 135.648668 
L 202.863987 135.54873 
L 203.41537 134.966347 
L 203.966754 134.349469 
L 204.334343 134.191805 
L 204.701932 134.389398 
L 205.069521 135.019674 
L 205.43711 136.103855 
L 205.988493 138.494334 
L 206.907466 143.244525 
L 207.09126 143.212135 
L 207.458849 142.154496 
L 207.826438 140.063209 
L 208.377822 134.89197 
L 209.296795 125.759195 
L 209.664384 123.579008 
L 210.031973 122.692294 
L 210.215767 122.757904 
L 210.399562 123.149805 
L 210.767151 124.80198 
L 211.318534 128.807568 
L 212.421301 137.107293 
L 212.78889 138.641737 
L 213.156479 139.265172 
L 213.340274 139.243415 
L 213.707863 138.625824 
L 214.259246 136.743676 
L 214.994424 134.12904 
L 215.362013 133.468758 
L 215.545808 133.400817 
L 215.729602 133.529633 
L 216.097191 134.401097 
L 216.648575 136.228497 
L 217.199958 137.220253 
L 217.567547 137.44396 
L 217.751342 137.331093 
L 218.118931 136.719298 
L 218.854109 134.699493 
L 219.589287 132.733039 
L 220.14067 131.910594 
L 220.508259 131.772298 
L 220.875848 131.926137 
L 221.427232 132.504592 
L 222.16241 133.260134 
L 222.529999 133.345216 
L 222.897588 133.108252 
L 223.265177 132.503217 
L 223.816561 130.914282 
L 224.551739 127.8167 
L 225.286917 124.63388 
L 225.470711 124.688495 
L 225.8383 125.657198 
L 226.205889 127.513833 
L 226.757273 131.997469 
L 227.676245 139.787107 
L 228.043834 141.610048 
L 228.411423 142.315246 
L 228.595218 142.230341 
L 228.779012 141.865997 
L 229.146601 140.396423 
L 229.697985 136.899076 
L 230.800752 129.727391 
L 231.168341 128.400367 
L 231.53593 127.845574 
L 231.719724 127.848587 
L 232.087313 128.332213 
L 232.638697 129.833498 
L 233.373875 131.838664 
L 233.741464 132.253324 
L 233.925259 132.229171 
L 234.109053 132.032639 
L 234.476642 131.104652 
L 234.844231 129.824974 
L 235.21182 129.519777 
L 235.579409 129.580892 
L 235.763204 129.800405 
L 236.130793 130.77546 
L 236.865971 134.118175 
L 237.601149 137.377323 
L 238.152532 138.858706 
L 238.520121 139.227064 
L 238.88771 139.135772 
L 239.255299 138.703003 
L 240.358066 137.138049 
L 240.725655 137.124106 
L 241.093244 137.574732 
L 241.460833 138.529249 
L 242.012217 140.837411 
L 242.931189 145.733121 
L 243.114984 145.795941 
L 243.298778 145.501171 
L 243.666367 144.183102 
L 244.033956 141.746667 
L 244.952929 132.628944 
L 245.504312 128.174911 
L 245.871902 126.508596 
L 246.055696 126.140957 
L 246.239491 126.089753 
L 246.423285 126.343732 
L 246.790874 127.664596 
L 247.342258 131.062468 
L 248.26123 137.039735 
L 248.628819 138.411777 
L 248.812614 138.748258 
L 248.996408 138.833377 
L 249.180203 138.664983 
L 249.547792 137.603337 
L 250.099175 134.531168 
L 251.753326 123.430516 
L 252.304709 121.636729 
L 252.488504 121.58785 
L 252.672298 122.044962 
L 253.039887 123.799855 
L 253.591271 127.81798 
L 254.694038 136.643963 
L 255.061627 138.132812 
L 255.245421 138.467018 
L 255.429216 138.522587 
L 255.61301 138.30861 
L 255.980599 137.159055 
L 256.531983 134.174758 
L 257.450955 128.969923 
L 257.818545 127.831211 
L 258.002339 127.584142 
L 258.186134 127.569337 
L 258.369928 127.789398 
L 258.737517 128.904302 
L 259.288901 131.969782 
L 261.126846 144.062885 
L 261.31064 144.368479 
L 261.494435 143.986101 
L 261.862024 142.072754 
L 262.413407 137.106062 
L 263.699969 123.166411 
L 264.067558 121.332399 
L 264.251352 120.979398 
L 264.435147 121.008505 
L 264.618941 121.406707 
L 264.98653 123.192137 
L 265.537914 127.629655 
L 266.640681 136.94015 
L 267.00827 138.663735 
L 267.375859 139.351527 
L 267.559653 139.313279 
L 267.743448 139.043844 
L 268.111037 137.933394 
L 269.581393 132.165036 
L 269.765188 131.985272 
L 269.948982 132.022033 
L 270.132777 132.284764 
L 270.500366 133.486015 
L 271.051749 135.914621 
L 271.786927 137.896127 
L 271.970722 138.09421 
L 272.154516 138.115702 
L 272.522105 137.689262 
L 273.073489 136.267241 
L 274.176256 132.922956 
L 274.543845 132.258535 
L 274.911434 131.971532 
L 275.279023 132.052833 
L 275.646612 132.431395 
L 276.933173 134.188633 
L 277.300762 134.233648 
L 277.668351 133.892362 
L 278.03594 133.137848 
L 278.587324 131.292588 
L 279.506296 126.993274 
L 279.873885 125.514446 
L 280.05768 125.505185 
L 280.425269 126.330214 
L 280.792858 128.042143 
L 281.344241 132.309812 
L 282.263214 139.89528 
L 282.630803 141.720724 
L 282.998392 142.47199 
L 283.182187 142.423334 
L 283.365981 142.101827 
L 283.73357 140.730382 
L 284.284954 137.385606 
L 285.387721 130.368124 
L 285.75531 129.023758 
L 286.122899 128.421429 
L 286.306693 128.392124 
L 286.490488 128.525892 
L 286.858077 129.190938 
L 288.144638 132.361423 
L 288.328433 132.494248 
L 288.512227 132.473354 
L 288.696022 132.286301 
L 289.063611 131.393376 
L 289.4312 130.097934 
L 289.982583 129.253169 
L 290.350172 129.029352 
L 290.533967 129.112933 
L 290.901556 129.699423 
L 291.636734 131.784336 
L 292.371912 133.793481 
L 292.739501 134.424325 
L 293.10709 134.706789 
L 293.474679 134.647773 
L 293.842268 134.313396 
L 295.12883 132.745738 
L 295.496419 132.725556 
L 295.864008 133.067806 
L 296.231597 133.799004 
L 296.78298 135.571109 
L 297.701953 139.701699 
L 298.253336 141.980589 
L 298.437131 141.909276 
L 298.80472 140.896259 
L 299.172309 138.988092 
L 299.723692 134.44517 
L 300.642665 126.644302 
L 301.010254 124.846249 
L 301.377843 124.176219 
L 301.561637 124.28084 
L 301.929226 125.30804 
L 302.48061 128.42704 
L 303.767171 136.886043 
L 304.13476 138.182439 
L 304.502349 138.697745 
L 304.686144 138.67338 
L 305.053733 138.147413 
L 305.605116 136.593319 
L 306.340295 134.556692 
L 306.707884 134.145993 
L 306.891678 134.176707 
L 307.075473 134.382469 
L 307.443062 135.335296 
L 307.810651 136.665137 
L 308.17824 137.11257 
L 308.545829 137.229543 
L 308.729623 137.110169 
L 309.097212 136.356863 
L 309.648596 134.258811 
L 310.751363 129.907472 
L 311.118952 129.076853 
L 311.486541 128.704404 
L 311.85413 128.760908 
L 312.221719 129.146168 
L 313.324486 130.672865 
L 313.692075 130.749168 
L 314.059664 130.403815 
L 314.427253 129.591665 
L 314.978636 127.543538 
L 315.713814 123.709924 
L 316.081403 122.010798 
L 316.265198 121.975372 
L 316.448992 122.285804 
L 316.816581 123.612337 
L 317.18417 126.007351 
L 318.838321 140.018217 
L 319.20591 140.999469 
L 319.389705 141.033673 
L 319.573499 140.77425 
L 319.941088 139.475617 
L 320.492472 136.179326 
L 321.411444 130.447236 
L 321.779033 129.156552 
L 321.962828 128.850755 
L 322.146622 128.788372 
L 322.330417 128.971011 
L 322.698006 130.035203 
L 323.249389 133.052937 
L 324.90354 143.86153 
L 325.454923 145.62019 
L 325.638718 145.596836 
L 326.006307 143.981018 
L 326.55769 139.652698 
L 328.028046 125.569531 
L 328.395635 124.139697 
L 328.57943 123.905434 
L 328.763224 123.983622 
L 328.947019 124.353319 
L 329.314608 125.829502 
L 330.968759 134.484167 
L 331.152553 134.673705 
L 331.336348 134.59786 
L 331.520142 134.252823 
L 331.887731 132.786826 
L 332.439115 128.979984 
L 333.725676 118.170629 
L 333.909471 117.962477 
L 334.093265 118.259314 
L 334.460854 119.985546 
L 334.828443 123.299324 
L 335.747416 135.576919 
L 336.298799 141.580039 
L 336.666388 143.801598 
L 336.850183 144.271266 
L 337.033977 144.303314 
L 337.217772 143.911426 
L 337.585361 141.984861 
L 338.136744 137.029807 
L 339.239511 126.366519 
L 339.6071 124.337412 
L 339.974689 123.489151 
L 340.158484 123.505333 
L 340.342278 123.790405 
L 340.709867 125.033531 
L 342.180223 131.879905 
L 342.364018 132.154778 
L 342.547812 132.187778 
L 342.731607 131.96687 
L 343.099196 130.760636 
L 343.466785 129.756072 
L 344.018169 128.959336 
L 344.201963 128.849875 
L 344.385758 128.905458 
L 344.753347 129.531763 
L 345.30473 131.342634 
L 346.591292 135.998943 
L 346.958881 136.75957 
L 347.32647 137.143157 
L 347.694059 137.191793 
L 348.245442 136.861368 
L 348.796826 136.474415 
L 349.164415 136.432921 
L 349.532004 136.707406 
L 349.899593 137.374508 
L 350.450976 139.156123 
L 351.369949 143.362068 
L 351.553743 143.362978 
L 351.921332 142.502567 
L 352.288921 140.74409 
L 352.840305 136.240181 
L 353.759277 128.067421 
L 354.126866 126.038698 
L 354.494455 125.122216 
L 354.67825 125.103088 
L 354.862045 125.365694 
L 355.229634 126.638361 
L 355.781017 129.832152 
L 356.69999 135.338398 
L 357.067579 136.56146 
L 357.251373 136.843783 
L 357.435168 136.890552 
L 357.618962 136.700457 
L 357.986551 135.645312 
L 358.537935 132.69123 
L 360.192085 122.13173 
L 360.743469 120.383373 
L 360.927263 120.386306 
L 361.294852 121.900383 
L 361.846236 126.0005 
L 363.316592 139.3739 
L 363.684181 140.707278 
L 363.867975 140.912406 
L 364.05177 140.817592 
L 364.419359 139.819539 
L 364.970742 136.889373 
L 365.889715 131.625002 
L 366.257304 130.53002 
L 366.441098 130.335516 
L 366.624893 130.396831 
L 366.808687 130.71768 
L 367.176277 132.107739 
L 367.72766 135.745098 
L 369.198016 147.391847 
L 369.381811 147.421788 
L 369.565605 146.947384 
L 369.933194 144.892325 
L 370.300783 141.326809 
L 371.954934 121.973208 
L 372.322523 120.850997 
L 372.506317 120.945442 
L 372.690112 121.458862 
L 373.057701 123.596342 
L 373.609084 128.736178 
L 374.528057 137.861926 
L 374.895646 140.261255 
L 375.263235 141.505297 
L 375.447029 141.675676 
L 375.630824 141.559451 
L 375.998413 140.575892 
L 376.549796 137.846771 
L 377.284974 134.035775 
L 377.652563 132.94454 
L 377.836358 132.730387 
L 378.020152 132.764758 
L 378.203947 133.056932 
L 378.571536 134.406225 
L 378.939125 135.606072 
L 379.490509 136.740613 
L 379.858098 137.006995 
L 380.041892 136.874876 
L 380.409481 136.140229 
L 380.960865 134.310085 
L 382.063632 130.396405 
L 382.615015 129.322822 
L 382.982604 129.072568 
L 383.350193 129.139419 
L 383.901577 129.589651 
L 384.45296 130.023026 
L 384.820549 130.060532 
L 385.188138 129.764451 
L 385.555727 129.069864 
L 386.107111 127.262541 
L 387.026083 123.106485 
L 387.209878 123.084461 
L 387.577467 123.877311 
L 387.945056 125.549387 
L 388.496439 129.872402 
L 389.415412 137.762417 
L 389.415412 137.762417 
" clip-path="url(#p26f3d52097)" style="fill: none; stroke: #5ea04b; stroke-width: 1.5; stroke-linecap: square"/>
   </g>
   <g id="line2d_14">
    <path d="M 113.723651 132.648304 
L 116.296774 132.729485 
L 117.031952 132.989056 
L 117.583335 133.441161 
L 118.134719 134.253768 
L 118.686102 135.571098 
L 119.237486 137.540654 
L 119.788869 140.301156 
L 120.524047 145.419091 
L 121.259225 152.38702 
L 121.994403 161.375874 
L 122.913376 175.643134 
L 123.280965 181.009482 
L 123.464759 180.966395 
L 123.648554 179.215753 
L 124.016143 171.483799 
L 124.567527 151.33499 
L 125.670294 106.38581 
L 126.037883 97.710243 
L 126.405472 93.977123 
L 126.589266 93.964089 
L 126.773061 95.086979 
L 127.14065 100.180949 
L 128.611006 128.377987 
L 128.7948 129.389011 
L 128.978595 129.350738 
L 129.162389 128.207794 
L 129.529978 122.579934 
L 129.897567 112.814242 
L 130.632745 84.474491 
L 131.551718 47.265224 
L 131.735512 45.624788 
L 131.919307 47.169021 
L 132.286896 58.519731 
L 132.654485 79.43331 
L 134.124841 182.680783 
L 134.49243 193.906269 
L 134.676224 195.808385 
L 134.860019 195.221154 
L 135.043813 192.249596 
L 135.411402 179.988727 
L 135.962786 150.592737 
L 136.881759 98.411461 
L 137.249348 84.650892 
L 137.616937 77.454085 
L 137.800731 76.420397 
L 137.984526 77.01333 
L 138.16832 79.091389 
L 138.535909 86.872996 
L 139.822471 122.502789 
L 140.19006 125.970839 
L 140.373854 125.627064 
L 140.557649 123.810615 
L 140.925238 115.808651 
L 141.84421 92.674228 
L 142.211799 86.485562 
L 142.579388 83.274601 
L 142.763183 82.783503 
L 142.946977 82.967474 
L 143.130772 83.755838 
L 143.498361 86.806278 
L 145.152511 104.197366 
L 145.336306 104.740591 
L 145.5201 104.856749 
L 145.703895 104.562167 
L 146.071484 102.896162 
L 146.806662 97.122113 
L 147.358045 93.319727 
L 147.725634 92.277851 
L 147.909429 92.394754 
L 148.093223 92.991814 
L 148.460813 95.703435 
L 148.828402 100.419498 
L 149.379785 110.744191 
L 150.666347 137.666405 
L 150.850141 137.056459 
L 151.033936 134.823996 
L 151.401525 125.900267 
L 151.952908 103.929243 
L 152.871881 65.129171 
L 153.23947 55.582528 
L 153.607059 51.492055 
L 153.790853 51.603088 
L 153.974648 53.102009 
L 154.342237 59.819117 
L 154.89362 76.547353 
L 155.996387 112.091476 
L 156.363976 118.964769 
L 156.731565 122.08161 
L 156.91536 122.260201 
L 157.099154 121.610002 
L 157.466743 118.288271 
L 158.753305 102.466865 
L 158.937099 101.870643 
L 159.120894 102.072847 
L 159.304688 103.139555 
L 159.672277 107.980195 
L 160.039866 116.325312 
L 160.775045 135.601771 
L 161.142634 141.760713 
L 161.510223 144.928186 
L 161.694017 145.331159 
L 161.877812 145.021656 
L 162.245401 142.690389 
L 162.980579 134.653272 
L 163.531962 129.530356 
L 163.899551 128.025154 
L 164.083346 128.010104 
L 164.26714 128.507688 
L 164.634729 130.969699 
L 165.186113 137.553113 
L 166.28888 152.491032 
L 166.656469 155.261395 
L 166.840263 155.916131 
L 167.024058 156.037241 
L 167.207852 155.61065 
L 167.575441 153.140896 
L 167.94303 148.708825 
L 168.678208 135.681018 
L 170.148564 107.19076 
L 170.332359 105.313918 
L 170.516153 105.467403 
L 170.699948 107.283706 
L 171.067537 115.056627 
L 171.61892 134.765288 
L 172.537893 171.368288 
L 172.905482 180.875928 
L 173.273071 185.419265 
L 173.456866 185.697916 
L 173.64066 184.677651 
L 174.008249 179.110387 
L 174.559633 164.291168 
L 175.6624 131.568328 
L 176.029989 125.079123 
L 176.397578 122.086594 
L 176.581372 121.896248 
L 176.765167 122.50203 
L 177.132756 125.693961 
L 178.603112 142.958438 
L 178.786906 143.153112 
L 178.970701 142.553045 
L 179.33829 138.831831 
L 179.705879 131.797191 
L 180.257262 116.015332 
L 180.808646 100.889829 
L 180.99244 99.057944 
L 181.176235 98.74133 
L 181.360029 99.926264 
L 181.727618 106.693043 
L 182.279002 125.299263 
L 183.381769 165.461198 
L 183.749358 172.839478 
L 184.116947 175.611679 
L 184.300741 175.28937 
L 184.484536 173.931219 
L 184.852125 168.651652 
L 186.322481 141.762736 
L 186.506276 140.89542 
L 186.69007 141.026603 
L 186.873865 142.202627 
L 187.241454 147.694371 
L 187.792837 162.933106 
L 188.71181 198.971014 
L 189.079399 211.977896 
L 189.263193 214.263159 
L 189.446988 213.780803 
L 189.630782 210.815691 
L 189.998371 198.025571 
L 190.549755 165.556539 
L 191.468727 106.981378 
L 191.836316 92.193371 
L 192.203905 85.52354 
L 192.3877 85.423569 
L 192.571494 87.418077 
L 192.939083 97.053922 
L 193.490467 121.724394 
L 194.593234 174.921532 
L 194.960823 185.206011 
L 195.328412 189.728546 
L 195.512206 189.845903 
L 195.696001 188.657738 
L 196.06359 183.029689 
L 197.533946 152.305318 
L 197.717741 151.453931 
L 197.901535 151.823412 
L 198.08533 153.472801 
L 198.452919 160.622377 
L 198.820508 167.481732 
L 199.188097 170.362907 
L 199.371891 170.479066 
L 199.555686 169.611094 
L 199.923275 164.912644 
L 200.474658 152.368726 
L 201.577425 124.974764 
L 201.945014 119.320251 
L 202.312603 116.368671 
L 202.496398 115.886979 
L 202.680192 116.000249 
L 202.863987 116.626903 
L 203.231576 118.997721 
L 203.966754 124.646821 
L 204.334343 125.863232 
L 204.518137 125.686891 
L 204.701932 124.885522 
L 205.069521 121.229129 
L 205.43711 114.760953 
L 205.988493 100.326844 
L 206.907466 70.568615 
L 207.09126 69.080468 
L 207.275055 70.294432 
L 207.458849 73.881393 
L 207.826438 87.55626 
L 208.377822 120.497177 
L 209.296795 177.694479 
L 209.664384 191.459264 
L 210.031973 197.074661 
L 210.215767 196.684938 
L 210.399562 194.249161 
L 210.767151 183.932454 
L 211.318534 158.874748 
L 212.421301 107.043097 
L 212.78889 97.545162 
L 213.156479 93.779512 
L 213.340274 93.99448 
L 213.524068 95.468687 
L 213.891657 101.496314 
L 215.178219 129.683997 
L 215.362013 131.386519 
L 215.545808 131.954176 
L 215.729602 131.294525 
L 215.913397 129.359673 
L 216.280986 121.694483 
L 216.832369 110.495951 
L 217.199958 106.378952 
L 217.383753 105.47334 
L 217.567547 105.433306 
L 217.751342 106.24288 
L 218.118931 110.044624 
L 218.670314 119.225621 
L 219.589287 134.980203 
L 219.956876 138.886131 
L 220.324465 140.732543 
L 220.508259 140.885469 
L 220.692054 140.571482 
L 221.059643 138.799766 
L 222.346205 130.500157 
L 222.529999 130.369249 
L 222.713794 130.741136 
L 222.897588 131.66075 
L 223.265177 135.234985 
L 223.632766 141.100199 
L 224.18415 153.588754 
L 225.286917 183.821572 
L 225.470711 184.899473 
L 225.654506 183.661941 
L 226.022095 175.24206 
L 226.389684 159.907814 
L 227.86004 84.60929 
L 228.227629 76.545224 
L 228.411423 75.233811 
L 228.595218 75.746444 
L 228.779012 78.005775 
L 229.146601 87.153005 
L 229.697985 108.950206 
L 230.616957 147.793471 
L 231.168341 161.743257 
L 231.53593 165.055817 
L 231.719724 164.946683 
L 231.903519 163.786247 
L 232.271108 158.925287 
L 233.55767 137.036038 
L 233.741464 136.044299 
L 233.925259 136.053523 
L 234.109053 137.139513 
L 234.476642 142.65387 
L 235.028026 153.682855 
L 235.21182 155.160119 
L 235.395615 155.631892 
L 235.579409 155.071159 
L 235.763204 153.423096 
L 236.130793 146.983858 
L 236.865971 126.249482 
L 237.601149 105.899115 
L 238.152532 96.783567 
L 238.520121 94.628023 
L 238.703916 94.671367 
L 238.88771 95.363466 
L 239.255299 98.247765 
L 240.358066 108.625023 
L 240.541861 109.105841 
L 240.725655 108.925009 
L 240.90945 108.014079 
L 241.277039 103.854784 
L 241.644628 96.588795 
L 242.196011 80.694789 
L 242.931189 55.814736 
L 243.114984 53.804074 
L 243.298778 54.384696 
L 243.482573 57.26309 
L 243.850162 69.397471 
L 244.401545 100.098986 
L 245.320518 155.465926 
L 245.688107 169.526764 
L 246.055696 176.056269 
L 246.239491 176.339375 
L 246.423285 174.706693 
L 246.790874 166.337947 
L 247.342258 144.874785 
L 248.26123 107.069541 
L 248.628819 98.312844 
L 248.812614 96.119755 
L 248.996408 95.498829 
L 249.180203 96.463978 
L 249.547792 102.93033 
L 250.099175 121.888493 
L 251.753326 190.32854 
L 252.120915 198.390516 
L 252.304709 201.032881 
L 252.488504 201.728423 
L 252.672298 199.776307 
L 253.039887 189.744037 
L 253.591271 163.939739 
L 254.694038 108.540275 
L 255.061627 99.166934 
L 255.245421 97.059123 
L 255.429216 96.704759 
L 255.61301 98.044247 
L 255.980599 105.250709 
L 256.531983 123.976053 
L 257.450955 156.75977 
L 257.818545 163.998659 
L 258.002339 165.605181 
L 258.186134 165.7609 
L 258.369928 164.449945 
L 258.737517 157.617368 
L 259.288901 138.693779 
L 261.126846 64.369302 
L 261.31064 61.777878 
L 261.494435 62.747853 
L 261.678229 66.685738 
L 262.045818 81.940061 
L 262.597202 118.538585 
L 263.516174 183.474327 
L 263.883763 199.502055 
L 264.251352 206.41958 
L 264.435147 206.283633 
L 264.618941 203.83555 
L 264.98653 192.751086 
L 265.537914 165.117359 
L 266.640681 107.172053 
L 267.00827 96.539847 
L 267.375859 92.423352 
L 267.559653 92.76863 
L 267.743448 94.567933 
L 268.111037 101.761849 
L 269.581393 138.963537 
L 269.765188 140.230548 
L 269.948982 140.142013 
L 270.132777 138.638483 
L 270.500366 131.398727 
L 271.235544 110.666236 
L 271.603133 103.984958 
L 271.970722 100.889769 
L 272.154516 100.849291 
L 272.338311 101.755125 
L 272.7059 105.952107 
L 273.257283 116.113095 
L 274.176256 133.478529 
L 274.543845 137.631193 
L 274.911434 139.398205 
L 275.095228 139.387547 
L 275.279023 138.832628 
L 275.646612 136.379278 
L 276.933173 124.896819 
L 277.116968 124.386021 
L 277.300762 124.428915 
L 277.484557 125.076535 
L 277.852146 128.290233 
L 278.219735 134.036251 
L 278.771118 146.714636 
L 280.05768 179.20566 
L 280.241474 178.324496 
L 280.425269 175.456533 
L 280.792858 164.2808 
L 281.344241 137.132673 
L 282.263214 89.697683 
L 282.630803 78.194199 
L 282.998392 73.430461 
L 283.182187 73.701453 
L 283.365981 75.674736 
L 283.73357 84.16763 
L 284.284954 104.978205 
L 285.387721 148.641655 
L 285.75531 156.934289 
L 286.122899 160.555678 
L 286.306693 160.654338 
L 286.490488 159.725491 
L 286.858077 155.360444 
L 288.144638 134.647224 
L 288.328433 133.676686 
L 288.512227 133.665564 
L 288.696022 134.691996 
L 289.063611 139.985695 
L 289.614994 151.521453 
L 289.982583 155.611551 
L 290.166378 156.558152 
L 290.350172 156.677379 
L 290.533967 155.940562 
L 290.901556 152.144875 
L 291.452939 142.676315 
L 292.371912 126.457943 
L 292.739501 122.515706 
L 293.10709 120.77091 
L 293.290884 120.724763 
L 293.474679 121.182043 
L 293.842268 123.340095 
L 295.12883 133.565035 
L 295.312624 133.971742 
L 295.496419 133.860996 
L 295.680213 133.18445 
L 296.047802 130.032994 
L 296.415391 124.500443 
L 296.966775 112.359112 
L 298.437131 76.366895 
L 298.620925 77.793575 
L 298.988514 86.621025 
L 299.539898 112.134245 
L 300.642665 171.576175 
L 301.010254 182.918154 
L 301.194048 185.956732 
L 301.377843 187.143566 
L 301.561637 186.493966 
L 301.745432 184.090999 
L 302.113021 174.658286 
L 302.664404 152.510393 
L 303.583377 113.493457 
L 304.13476 99.701943 
L 304.502349 96.568081 
L 304.686144 96.7777 
L 304.869938 98.040758 
L 305.237527 103.097812 
L 306.524089 125.278653 
L 306.707884 126.245479 
L 306.891678 126.196447 
L 307.075473 125.057828 
L 307.443062 119.410021 
L 307.994445 107.842784 
L 308.362034 104.982689 
L 308.545829 104.968735 
L 308.729623 105.977541 
L 309.097212 111.005068 
L 309.648596 123.970554 
L 310.751363 151.067489 
L 311.118952 156.172684 
L 311.486541 158.388179 
L 311.670335 158.450567 
L 311.85413 157.895783 
L 312.221719 155.319813 
L 313.324486 145.15181 
L 313.50828 144.500778 
L 313.692075 144.442541 
L 313.875869 145.047451 
L 314.243458 148.413225 
L 314.611047 154.695628 
L 315.162431 168.939135 
L 316.265198 200.15819 
L 316.448992 199.452147 
L 316.632787 196.532476 
L 317.000376 184.577612 
L 317.551759 154.763871 
L 318.470732 101.538413 
L 318.838321 88.176386 
L 319.20591 82.105256 
L 319.389705 81.94362 
L 319.573499 83.622234 
L 319.941088 91.86345 
L 320.492472 112.68055 
L 321.411444 148.912207 
L 321.779033 157.145825 
L 321.962828 159.139933 
L 322.146622 159.611964 
L 322.330417 158.551728 
L 322.698006 152.060825 
L 323.249389 133.44234 
L 324.90354 66.897838 
L 325.271129 59.024967 
L 325.454923 56.416435 
L 325.638718 56.008814 
L 325.822512 58.713268 
L 326.190101 71.273871 
L 326.741485 102.828536 
L 327.844252 171.838818 
L 328.211841 184.61731 
L 328.57943 189.439466 
L 328.763224 188.868792 
L 328.947019 186.465531 
L 329.314608 177.032539 
L 330.968759 121.834161 
L 331.152553 120.526313 
L 331.336348 120.878824 
L 331.520142 122.915587 
L 331.887731 131.843842 
L 332.439115 155.294366 
L 333.725676 223.002494 
L 333.909471 226.061207 
L 334.093265 225.587739 
L 334.27706 221.915721 
L 334.644649 205.75836 
L 335.196032 164.600236 
L 336.115005 90.163977 
L 336.482594 71.284982 
L 336.850183 62.684796 
L 337.033977 62.482768 
L 337.217772 64.934445 
L 337.585361 76.990174 
L 338.136744 107.993521 
L 339.239511 174.56687 
L 339.6071 187.146345 
L 339.974689 192.303803 
L 340.158484 192.115848 
L 340.342278 190.238221 
L 340.709867 182.252056 
L 342.180223 138.37436 
L 342.364018 136.508286 
L 342.547812 136.153282 
L 342.731607 137.384724 
L 343.099196 144.62299 
L 343.466785 152.669751 
L 343.834374 157.561351 
L 344.018169 158.882557 
L 344.201963 159.28578 
L 344.385758 158.694391 
L 344.753347 154.668192 
L 345.30473 143.469671 
L 346.591292 114.394872 
L 346.958881 109.70685 
L 347.32647 107.394048 
L 347.510264 107.063085 
L 347.694059 107.20003 
L 348.061648 108.516412 
L 348.796826 112.178469 
L 348.98062 112.621462 
L 349.164415 112.660539 
L 349.348209 112.209453 
L 349.715798 109.577992 
L 350.083387 104.403278 
L 350.634771 91.942457 
L 351.369949 70.466286 
L 351.553743 68.88675 
L 351.737538 69.698962 
L 351.921332 72.608674 
L 352.288921 84.236761 
L 352.840305 113.044774 
L 353.759277 164.237369 
L 354.126866 177.011423 
L 354.494455 182.754023 
L 354.67825 182.859052 
L 354.862045 181.195532 
L 355.229634 173.184331 
L 355.781017 153.095478 
L 356.69999 118.363178 
L 357.067579 110.569505 
L 357.251373 108.727854 
L 357.435168 108.357345 
L 357.618962 109.466253 
L 357.986551 115.898373 
L 358.537935 134.095442 
L 360.192085 198.879646 
L 360.743469 209.243664 
L 360.927263 209.741242 
L 361.111058 207.250127 
L 361.478647 195.400685 
L 362.03003 165.415227 
L 363.132797 99.73978 
L 363.500386 87.656181 
L 363.684181 84.459563 
L 363.867975 83.209583 
L 364.05177 83.848679 
L 364.235564 86.24702 
L 364.603153 95.484397 
L 366.257304 149.206276 
L 366.441098 150.525729 
L 366.624893 150.246478 
L 366.808687 148.345363 
L 367.176277 139.866943 
L 367.72766 117.452394 
L 369.198016 44.609053 
L 369.381811 42.685355 
L 369.565605 44.291444 
L 369.7494 49.052904 
L 370.116989 67.103475 
L 370.668372 109.944541 
L 371.587345 183.498683 
L 371.954934 201.007575 
L 372.322523 207.977426 
L 372.506317 207.348337 
L 372.690112 204.097324 
L 373.057701 190.649802 
L 373.609084 158.388955 
L 374.528057 101.194264 
L 374.895646 86.188755 
L 375.263235 78.445546 
L 375.447029 77.413904 
L 375.630824 78.185441 
L 375.998413 84.458476 
L 376.549796 101.786368 
L 377.284974 126.084837 
L 377.652563 133.179548 
L 377.836358 134.661683 
L 378.020152 134.594457 
L 378.203947 132.919843 
L 378.571536 124.801871 
L 379.12292 112.247725 
L 379.490509 107.460131 
L 379.674303 106.369568 
L 379.858098 106.286937 
L 380.041892 107.212488 
L 380.409481 111.729814 
L 380.960865 123.062225 
L 382.063632 147.418411 
L 382.431221 152.385403 
L 382.79881 154.973334 
L 382.982604 155.405726 
L 383.166399 155.330021 
L 383.350193 154.822861 
L 383.717782 152.904063 
L 384.45296 148.675839 
L 384.636755 148.217937 
L 384.820549 148.204869 
L 385.004344 148.715462 
L 385.371933 151.532274 
L 385.739522 156.919904 
L 386.290905 169.599886 
L 387.026083 191.01805 
L 387.209878 192.720278 
L 387.393672 192.118596 
L 387.577467 189.486948 
L 387.945056 178.584009 
L 388.496439 151.139115 
L 389.415412 101.938662 
L 389.415412 101.938662 
" clip-path="url(#p26f3d52097)" style="fill: none; stroke: #bdab62; stroke-width: 1.5; stroke-linecap: square"/>
   </g>
   <g id="patch_3">
    <path d="M 99.939063 235.23 
L 99.939063 33.516563 
" style="fill: none; stroke: #000000; stroke-width: 0.8; stroke-linejoin: miter; stroke-linecap: square"/>
   </g>
   <g id="patch_4">
    <path d="M 403.2 235.23 
L 403.2 33.516563 
" style="fill: none; stroke: #000000; stroke-width: 0.8; stroke-linejoin: miter; stroke-linecap: square"/>
   </g>
   <g id="patch_5">
    <path d="M 99.939063 235.23 
L 403.2 235.23 
" style="fill: none; stroke: #000000; stroke-width: 0.8; stroke-linejoin: miter; stroke-linecap: square"/>
   </g>
   <g id="patch_6">
    <path d="M 99.939063 33.516563 
L 403.2 33.516563 
" style="fill: none; stroke: #000000; stroke-width: 0.8; stroke-linejoin: miter; stroke-linecap: square"/>
   </g>
   <g id="text_14">
    <!-- Attitude -->
    <g transform="translate(207.521406 27.516563) scale(0.22 -0.22)">
     <defs>
      <path id="DejaVuSans-41" d="M 2188 4044 
L 1331 1722 
L 3047 1722 
L 2188 4044 
z
M 1831 4666 
L 2547 4666 
L 4325 0 
L 3669 0 
L 3244 1197 
L 1141 1197 
L 716 0 
L 50 0 
L 1831 4666 
z
" transform="scale(0.015625)"/>
      <path id="DejaVuSans-75" d="M 544 1381 
L 544 3500 
L 1119 3500 
L 1119 1403 
Q 1119 906 1312 657 
Q 1506 409 1894 409 
Q 2359 409 2629 706 
Q 2900 1003 2900 1516 
L 2900 3500 
L 3475 3500 
L 3475 0 
L 2900 0 
L 2900 538 
Q 2691 219 2414 64 
Q 2138 -91 1772 -91 
Q 1169 -91 856 284 
Q 544 659 544 1381 
z
M 1991 3584 
L 1991 3584 
z
" transform="scale(0.015625)"/>
      <path id="DejaVuSans-64" d="M 2906 2969 
L 2906 4863 
L 3481 4863 
L 3481 0 
L 2906 0 
L 2906 525 
Q 2725 213 2448 61 
Q 2172 -91 1784 -91 
Q 1150 -91 751 415 
Q 353 922 353 1747 
Q 353 2572 751 3078 
Q 1150 3584 1784 3584 
Q 2172 3584 2448 3432 
Q 2725 3281 2906 2969 
z
M 947 1747 
Q 947 1113 1208 752 
Q 1469 391 1925 391 
Q 2381 391 2643 752 
Q 2906 1113 2906 1747 
Q 2906 2381 2643 2742 
Q 2381 3103 1925 3103 
Q 1469 3103 1208 2742 
Q 947 2381 947 1747 
z
" transform="scale(0.015625)"/>
     </defs>
     <use xlink:href="#DejaVuSans-41"/>
     <use xlink:href="#DejaVuSans-74" transform="translate(66.658203 0)"/>
     <use xlink:href="#DejaVuSans-74" transform="translate(105.867188 0)"/>
     <use xlink:href="#DejaVuSans-69" transform="translate(145.076172 0)"/>
     <use xlink:href="#DejaVuSans-74" transform="translate(172.859375 0)"/>
     <use xlink:href="#DejaVuSans-75" transform="translate(212.068359 0)"/>
     <use xlink:href="#DejaVuSans-64" transform="translate(275.447266 0)"/>
     <use xlink:href="#DejaVuSans-65" transform="translate(338.923828 0)"/>
    </g>
   </g>
   <g id="legend_1">
    <g id="patch_7">
     <path d="M 333.06 228.23 
L 393.4 228.23 
Q 396.2 228.23 396.2 225.43 
L 396.2 165.181875 
Q 396.2 162.381875 393.4 162.381875 
L 333.06 162.381875 
Q 330.26 162.381875 330.26 165.181875 
L 330.26 225.43 
Q 330.26 228.23 333.06 228.23 
z
" style="fill: #ffffff; opacity: 0.8; stroke: #cccccc; stroke-linejoin: miter"/>
    </g>
    <g id="line2d_15">
     <path d="M 335.86 173.719687 
L 349.86 173.719687 
L 363.86 173.719687 
" style="fill: none; stroke: #2b737e; stroke-width: 1.5; stroke-linecap: square"/>
    </g>
    <g id="text_15">
     <!-- $\sigma_0$ -->
     <g transform="translate(375.06 178.619687) scale(0.14 -0.14)">
      <use xlink:href="#DejaVuSans-Oblique-3c3" transform="translate(0 0.265625)"/>
      <use xlink:href="#DejaVuSans-30" transform="translate(63.378906 -16.140625) scale(0.7)"/>
     </g>
    </g>
    <g id="line2d_16">
     <path d="M 335.86 194.269062 
L 349.86 194.269062 
L 363.86 194.269062 
" style="fill: none; stroke: #5ea04b; stroke-width: 1.5; stroke-linecap: square"/>
    </g>
    <g id="text_16">
     <!-- $\sigma_1$ -->
     <g transform="translate(375.06 199.169062) scale(0.14 -0.14)">
      <use xlink:href="#DejaVuSans-Oblique-3c3" transform="translate(0 0.265625)"/>
      <use xlink:href="#DejaVuSans-31" transform="translate(63.378906 -16.140625) scale(0.7)"/>
     </g>
    </g>
    <g id="line2d_17">
     <path d="M 335.86 214.818437 
L 349.86 214.818437 
L 363.86 214.818437 
" style="fill: none; stroke: #bdab62; stroke-width: 1.5; stroke-linecap: square"/>
    </g>
    <g id="text_17">
     <!-- $\sigma_2$ -->
     <g transform="translate(375.06 219.718437) scale(0.14 -0.14)">
      <use xlink:href="#DejaVuSans-Oblique-3c3" transform="translate(0 0.265625)"/>
      <use xlink:href="#DejaVuSans-32" transform="translate(63.378906 -16.140625) scale(0.7)"/>
     </g>
    </g>
   </g>
  </g>
 </g>
 <defs>
  <clipPath id="p26f3d52097">
   <rect x="99.939063" y="33.516563" width="303.260937" height="201.713437"/>
  </clipPath>
 </defs>
</svg>
