<?xml version="1.0" encoding="utf-8" standalone="no"?>
<!DOCTYPE svg PUBLIC "-//W3C//DTD SVG 1.1//EN"
  "http://www.w3.org/Graphics/SVG/1.1/DTD/svg11.dtd">
<svg xmlns:xlink="http://www.w3.org/1999/xlink" width="414pt" height="288pt" viewBox="0 0 414 288" xmlns="http://www.w3.org/2000/svg" version="1.1">
 <metadata>
  <rdf:RDF xmlns:dc="http://purl.org/dc/elements/1.1/" xmlns:cc="http://creativecommons.org/ns#" xmlns:rdf="http://www.w3.org/1999/02/22-rdf-syntax-ns#">
   <cc:Work>
    <dc:type rdf:resource="http://purl.org/dc/dcmitype/StillImage"/>
    <dc:date>2026-01-05T16:40:44.547121</dc:date>
    <dc:format>image/svg+xml</dc:format>
    <dc:creator>
     <cc:Agent>
      <dc:title>Matplotlib v3.10.7, https://matplotlib.org/</dc:title>
     </cc:Agent>
    </dc:creator>
   </cc:Work>
  </rdf:RDF>
 </metadata>
 <defs>
  <style type="text/css">*{stroke-linejoin: round; stroke-linecap: butt}</style>
 </defs>
 <g id="figure_1">
  <g id="patch_1">
   <path d="M 0 288 
L 414 288 
L 414 0 
L 0 0 
L 0 288 
z
" style="fill: none"/>
  </g>
  <g id="axes_1">
   <g id="patch_2">
    <path d="M 68.986563 235.23 
L 403.2 235.23 
L 403.2 33.516563 
L 68.986563 33.516563 
L 68.986563 235.23 
z
" style="fill: none"/>
   </g>
   <g id="matplotlib.axis_1">
    <g id="xtick_1">
     <g id="line2d_1">
      <defs>
       <path id="m4de5660d7d" d="M 0 0 
L 0 3.5 
" style="stroke: #000000; stroke-width: 0.8"/>
      </defs>
      <g>
       <use xlink:href="#m4de5660d7d" x="84.178082" y="235.23" style="stroke: #000000; stroke-width: 0.8"/>
      </g>
     </g>
     <g id="text_1">
      <!-- 0 -->
      <g transform="translate(79.724332 252.867813) scale(0.14 -0.14)">
       <defs>
        <path id="DejaVuSans-30" d="M 2034 4250 
Q 1547 4250 1301 3770 
Q 1056 3291 1056 2328 
Q 1056 1369 1301 889 
Q 1547 409 2034 409 
Q 2525 409 2770 889 
Q 3016 1369 3016 2328 
Q 3016 3291 2770 3770 
Q 2525 4250 2034 4250 
z
M 2034 4750 
Q 2819 4750 3233 4129 
Q 3647 3509 3647 2328 
Q 3647 1150 3233 529 
Q 2819 -91 2034 -91 
Q 1250 -91 836 529 
Q 422 1150 422 2328 
Q 422 3509 836 4129 
Q 1250 4750 2034 4750 
z
" transform="scale(0.015625)"/>
       </defs>
       <use xlink:href="#DejaVuSans-30"/>
      </g>
     </g>
    </g>
    <g id="xtick_2">
     <g id="line2d_2">
      <g>
       <use xlink:href="#m4de5660d7d" x="144.944162" y="235.23" style="stroke: #000000; stroke-width: 0.8"/>
      </g>
     </g>
     <g id="text_2">
      <!-- 2 -->
      <g transform="translate(140.490412 252.867813) scale(0.14 -0.14)">
       <defs>
        <path id="DejaVuSans-32" d="M 1228 531 
L 3431 531 
L 3431 0 
L 469 0 
L 469 531 
Q 828 903 1448 1529 
Q 2069 2156 2228 2338 
Q 2531 2678 2651 2914 
Q 2772 3150 2772 3378 
Q 2772 3750 2511 3984 
Q 2250 4219 1831 4219 
Q 1534 4219 1204 4116 
Q 875 4013 500 3803 
L 500 4441 
Q 881 4594 1212 4672 
Q 1544 4750 1819 4750 
Q 2544 4750 2975 4387 
Q 3406 4025 3406 3419 
Q 3406 3131 3298 2873 
Q 3191 2616 2906 2266 
Q 2828 2175 2409 1742 
Q 1991 1309 1228 531 
z
" transform="scale(0.015625)"/>
       </defs>
       <use xlink:href="#DejaVuSans-32"/>
      </g>
     </g>
    </g>
    <g id="xtick_3">
     <g id="line2d_3">
      <g>
       <use xlink:href="#m4de5660d7d" x="205.710241" y="235.23" style="stroke: #000000; stroke-width: 0.8"/>
      </g>
     </g>
     <g id="text_3">
      <!-- 4 -->
      <g transform="translate(201.256491 252.867813) scale(0.14 -0.14)">
       <defs>
        <path id="DejaVuSans-34" d="M 2419 4116 
L 825 1625 
L 2419 1625 
L 2419 4116 
z
M 2253 4666 
L 3047 4666 
L 3047 1625 
L 3713 1625 
L 3713 1100 
L 3047 1100 
L 3047 0 
L 2419 0 
L 2419 1100 
L 313 1100 
L 313 1709 
L 2253 4666 
z
" transform="scale(0.015625)"/>
       </defs>
       <use xlink:href="#DejaVuSans-34"/>
      </g>
     </g>
    </g>
    <g id="xtick_4">
     <g id="line2d_4">
      <g>
       <use xlink:href="#m4de5660d7d" x="266.476321" y="235.23" style="stroke: #000000; stroke-width: 0.8"/>
      </g>
     </g>
     <g id="text_4">
      <!-- 6 -->
      <g transform="translate(262.022571 252.867813) scale(0.14 -0.14)">
       <defs>
        <path id="DejaVuSans-36" d="M 2113 2584 
Q 1688 2584 1439 2293 
Q 1191 2003 1191 1497 
Q 1191 994 1439 701 
Q 1688 409 2113 409 
Q 2538 409 2786 701 
Q 3034 994 3034 1497 
Q 3034 2003 2786 2293 
Q 2538 2584 2113 2584 
z
M 3366 4563 
L 3366 3988 
Q 3128 4100 2886 4159 
Q 2644 4219 2406 4219 
Q 1781 4219 1451 3797 
Q 1122 3375 1075 2522 
Q 1259 2794 1537 2939 
Q 1816 3084 2150 3084 
Q 2853 3084 3261 2657 
Q 3669 2231 3669 1497 
Q 3669 778 3244 343 
Q 2819 -91 2113 -91 
Q 1303 -91 875 529 
Q 447 1150 447 2328 
Q 447 3434 972 4092 
Q 1497 4750 2381 4750 
Q 2619 4750 2861 4703 
Q 3103 4656 3366 4563 
z
" transform="scale(0.015625)"/>
       </defs>
       <use xlink:href="#DejaVuSans-36"/>
      </g>
     </g>
    </g>
    <g id="xtick_5">
     <g id="line2d_5">
      <g>
       <use xlink:href="#m4de5660d7d" x="327.242401" y="235.23" style="stroke: #000000; stroke-width: 0.8"/>
      </g>
     </g>
     <g id="text_5">
      <!-- 8 -->
      <g transform="translate(322.788651 252.867813) scale(0.14 -0.14)">
       <defs>
        <path id="DejaVuSans-38" d="M 2034 2216 
Q 1584 2216 1326 1975 
Q 1069 1734 1069 1313 
Q 1069 891 1326 650 
Q 1584 409 2034 409 
Q 2484 409 2743 651 
Q 3003 894 3003 1313 
Q 3003 1734 2745 1975 
Q 2488 2216 2034 2216 
z
M 1403 2484 
Q 997 2584 770 2862 
Q 544 3141 544 3541 
Q 544 4100 942 4425 
Q 1341 4750 2034 4750 
Q 2731 4750 3128 4425 
Q 3525 4100 3525 3541 
Q 3525 3141 3298 2862 
Q 3072 2584 2669 2484 
Q 3125 2378 3379 2068 
Q 3634 1759 3634 1313 
Q 3634 634 3220 271 
Q 2806 -91 2034 -91 
Q 1263 -91 848 271 
Q 434 634 434 1313 
Q 434 1759 690 2068 
Q 947 2378 1403 2484 
z
M 1172 3481 
Q 1172 3119 1398 2916 
Q 1625 2713 2034 2713 
Q 2441 2713 2670 2916 
Q 2900 3119 2900 3481 
Q 2900 3844 2670 4047 
Q 2441 4250 2034 4250 
Q 1625 4250 1398 4047 
Q 1172 3844 1172 3481 
z
" transform="scale(0.015625)"/>
       </defs>
       <use xlink:href="#DejaVuSans-38"/>
      </g>
     </g>
    </g>
    <g id="xtick_6">
     <g id="line2d_6">
      <g>
       <use xlink:href="#m4de5660d7d" x="388.00848" y="235.23" style="stroke: #000000; stroke-width: 0.8"/>
      </g>
     </g>
     <g id="text_6">
      <!-- 10 -->
      <g transform="translate(379.10098 252.867813) scale(0.14 -0.14)">
       <defs>
        <path id="DejaVuSans-31" d="M 794 531 
L 1825 531 
L 1825 4091 
L 703 3866 
L 703 4441 
L 1819 4666 
L 2450 4666 
L 2450 531 
L 3481 531 
L 3481 0 
L 794 0 
L 794 531 
z
" transform="scale(0.015625)"/>
       </defs>
       <use xlink:href="#DejaVuSans-31"/>
       <use xlink:href="#DejaVuSans-30" transform="translate(63.623047 0)"/>
      </g>
     </g>
    </g>
    <g id="text_7">
     <!-- time [min] -->
     <g transform="translate(188.906563 273.456563) scale(0.18 -0.18)">
      <defs>
       <path id="DejaVuSans-74" d="M 1172 4494 
L 1172 3500 
L 2356 3500 
L 2356 3053 
L 1172 3053 
L 1172 1153 
Q 1172 725 1289 603 
Q 1406 481 1766 481 
L 2356 481 
L 2356 0 
L 1766 0 
Q 1100 0 847 248 
Q 594 497 594 1153 
L 594 3053 
L 172 3053 
L 172 3500 
L 594 3500 
L 594 4494 
L 1172 4494 
z
" transform="scale(0.015625)"/>
       <path id="DejaVuSans-69" d="M 603 3500 
L 1178 3500 
L 1178 0 
L 603 0 
L 603 3500 
z
M 603 4863 
L 1178 4863 
L 1178 4134 
L 603 4134 
L 603 4863 
z
" transform="scale(0.015625)"/>
       <path id="DejaVuSans-6d" d="M 3328 2828 
Q 3544 3216 3844 3400 
Q 4144 3584 4550 3584 
Q 5097 3584 5394 3201 
Q 5691 2819 5691 2113 
L 5691 0 
L 5113 0 
L 5113 2094 
Q 5113 2597 4934 2840 
Q 4756 3084 4391 3084 
Q 3944 3084 3684 2787 
Q 3425 2491 3425 1978 
L 3425 0 
L 2847 0 
L 2847 2094 
Q 2847 2600 2669 2842 
Q 2491 3084 2119 3084 
Q 1678 3084 1418 2786 
Q 1159 2488 1159 1978 
L 1159 0 
L 581 0 
L 581 3500 
L 1159 3500 
L 1159 2956 
Q 1356 3278 1631 3431 
Q 1906 3584 2284 3584 
Q 2666 3584 2933 3390 
Q 3200 3197 3328 2828 
z
" transform="scale(0.015625)"/>
       <path id="DejaVuSans-65" d="M 3597 1894 
L 3597 1613 
L 953 1613 
Q 991 1019 1311 708 
Q 1631 397 2203 397 
Q 2534 397 2845 478 
Q 3156 559 3463 722 
L 3463 178 
Q 3153 47 2828 -22 
Q 2503 -91 2169 -91 
Q 1331 -91 842 396 
Q 353 884 353 1716 
Q 353 2575 817 3079 
Q 1281 3584 2069 3584 
Q 2775 3584 3186 3129 
Q 3597 2675 3597 1894 
z
M 3022 2063 
Q 3016 2534 2758 2815 
Q 2500 3097 2075 3097 
Q 1594 3097 1305 2825 
Q 1016 2553 972 2059 
L 3022 2063 
z
" transform="scale(0.015625)"/>
       <path id="DejaVuSans-20" transform="scale(0.015625)"/>
       <path id="DejaVuSans-5b" d="M 550 4863 
L 1875 4863 
L 1875 4416 
L 1125 4416 
L 1125 -397 
L 1875 -397 
L 1875 -844 
L 550 -844 
L 550 4863 
z
" transform="scale(0.015625)"/>
       <path id="DejaVuSans-6e" d="M 3513 2113 
L 3513 0 
L 2938 0 
L 2938 2094 
Q 2938 2591 2744 2837 
Q 2550 3084 2163 3084 
Q 1697 3084 1428 2787 
Q 1159 2491 1159 1978 
L 1159 0 
L 581 0 
L 581 3500 
L 1159 3500 
L 1159 2956 
Q 1366 3272 1645 3428 
Q 1925 3584 2291 3584 
Q 2894 3584 3203 3211 
Q 3513 2838 3513 2113 
z
" transform="scale(0.015625)"/>
       <path id="DejaVuSans-5d" d="M 1947 4863 
L 1947 -844 
L 622 -844 
L 622 -397 
L 1369 -397 
L 1369 4416 
L 622 4416 
L 622 4863 
L 1947 4863 
z
" transform="scale(0.015625)"/>
      </defs>
      <use xlink:href="#DejaVuSans-74"/>
      <use xlink:href="#DejaVuSans-69" transform="translate(39.208984 0)"/>
      <use xlink:href="#DejaVuSans-6d" transform="translate(66.992188 0)"/>
      <use xlink:href="#DejaVuSans-65" transform="translate(164.404297 0)"/>
      <use xlink:href="#DejaVuSans-20" transform="translate(225.927734 0)"/>
      <use xlink:href="#DejaVuSans-5b" transform="translate(257.714844 0)"/>
      <use xlink:href="#DejaVuSans-6d" transform="translate(296.728516 0)"/>
      <use xlink:href="#DejaVuSans-69" transform="translate(394.140625 0)"/>
      <use xlink:href="#DejaVuSans-6e" transform="translate(421.923828 0)"/>
      <use xlink:href="#DejaVuSans-5d" transform="translate(485.302734 0)"/>
     </g>
    </g>
   </g>
   <g id="matplotlib.axis_2">
    <g id="ytick_1">
     <g id="line2d_7">
      <defs>
       <path id="m033e828e2d" d="M 0 0 
L -3.5 0 
" style="stroke: #000000; stroke-width: 0.8"/>
      </defs>
      <g>
       <use xlink:href="#m033e828e2d" x="68.986563" y="179.107282" style="stroke: #000000; stroke-width: 0.8"/>
      </g>
     </g>
     <g id="text_8">
      <!-- −10 -->
      <g transform="translate(32.44 184.426188) scale(0.14 -0.14)">
       <defs>
        <path id="DejaVuSans-2212" d="M 678 2272 
L 4684 2272 
L 4684 1741 
L 678 1741 
L 678 2272 
z
" transform="scale(0.015625)"/>
       </defs>
       <use xlink:href="#DejaVuSans-2212"/>
       <use xlink:href="#DejaVuSans-31" transform="translate(83.789062 0)"/>
       <use xlink:href="#DejaVuSans-30" transform="translate(147.412109 0)"/>
      </g>
     </g>
    </g>
    <g id="ytick_2">
     <g id="line2d_8">
      <g>
       <use xlink:href="#m033e828e2d" x="68.986563" y="113.791843" style="stroke: #000000; stroke-width: 0.8"/>
      </g>
     </g>
     <g id="text_9">
      <!-- 0 -->
      <g transform="translate(53.079063 119.11075) scale(0.14 -0.14)">
       <use xlink:href="#DejaVuSans-30"/>
      </g>
     </g>
    </g>
    <g id="ytick_3">
     <g id="line2d_9">
      <g>
       <use xlink:href="#m033e828e2d" x="68.986563" y="48.476405" style="stroke: #000000; stroke-width: 0.8"/>
      </g>
     </g>
     <g id="text_10">
      <!-- 10 -->
      <g transform="translate(44.171563 53.795311) scale(0.14 -0.14)">
       <use xlink:href="#DejaVuSans-31"/>
       <use xlink:href="#DejaVuSans-30" transform="translate(63.623047 0)"/>
      </g>
     </g>
    </g>
    <g id="text_11">
     <!-- $\theta$ [deg] -->
     <g transform="translate(24.66 166.773281) rotate(-90) scale(0.18 -0.18)">
      <defs>
       <path id="DejaVuSans-Oblique-3b8" d="M 2913 2219 
L 925 2219 
Q 791 1284 928 888 
Q 1100 400 1566 400 
Q 2034 400 2391 891 
Q 2703 1322 2913 2219 
z
M 3009 2750 
Q 3094 3638 2984 3950 
Q 2813 4444 2353 4444 
Q 1875 4444 1525 3956 
Q 1250 3563 1034 2750 
L 3009 2750 
z
M 2444 4913 
Q 3194 4913 3494 4250 
Q 3794 3591 3566 2422 
Q 3341 1256 2781 594 
Q 2225 -72 1475 -72 
Q 722 -72 425 594 
Q 128 1256 353 2422 
Q 581 3591 1134 4250 
Q 1691 4913 2444 4913 
z
" transform="scale(0.015625)"/>
       <path id="DejaVuSans-64" d="M 2906 2969 
L 2906 4863 
L 3481 4863 
L 3481 0 
L 2906 0 
L 2906 525 
Q 2725 213 2448 61 
Q 2172 -91 1784 -91 
Q 1150 -91 751 415 
Q 353 922 353 1747 
Q 353 2572 751 3078 
Q 1150 3584 1784 3584 
Q 2172 3584 2448 3432 
Q 2725 3281 2906 2969 
z
M 947 1747 
Q 947 1113 1208 752 
Q 1469 391 1925 391 
Q 2381 391 2643 752 
Q 2906 1113 2906 1747 
Q 2906 2381 2643 2742 
Q 2381 3103 1925 3103 
Q 1469 3103 1208 2742 
Q 947 2381 947 1747 
z
" transform="scale(0.015625)"/>
       <path id="DejaVuSans-67" d="M 2906 1791 
Q 2906 2416 2648 2759 
Q 2391 3103 1925 3103 
Q 1463 3103 1205 2759 
Q 947 2416 947 1791 
Q 947 1169 1205 825 
Q 1463 481 1925 481 
Q 2391 481 2648 825 
Q 2906 1169 2906 1791 
z
M 3481 434 
Q 3481 -459 3084 -895 
Q 2688 -1331 1869 -1331 
Q 1566 -1331 1297 -1286 
Q 1028 -1241 775 -1147 
L 775 -588 
Q 1028 -725 1275 -790 
Q 1522 -856 1778 -856 
Q 2344 -856 2625 -561 
Q 2906 -266 2906 331 
L 2906 616 
Q 2728 306 2450 153 
Q 2172 0 1784 0 
Q 1141 0 747 490 
Q 353 981 353 1791 
Q 353 2603 747 3093 
Q 1141 3584 1784 3584 
Q 2172 3584 2450 3431 
Q 2728 3278 2906 2969 
L 2906 3500 
L 3481 3500 
L 3481 434 
z
" transform="scale(0.015625)"/>
      </defs>
      <use xlink:href="#DejaVuSans-Oblique-3b8" transform="translate(0 0.234375)"/>
      <use xlink:href="#DejaVuSans-20" transform="translate(61.181641 0.234375)"/>
      <use xlink:href="#DejaVuSans-5b" transform="translate(92.96875 0.234375)"/>
      <use xlink:href="#DejaVuSans-64" transform="translate(131.982422 0.234375)"/>
      <use xlink:href="#DejaVuSans-65" transform="translate(195.458984 0.234375)"/>
      <use xlink:href="#DejaVuSans-67" transform="translate(256.982422 0.234375)"/>
      <use xlink:href="#DejaVuSans-5d" transform="translate(320.458984 0.234375)"/>
     </g>
    </g>
   </g>
   <g id="line2d_10">
    <path d="M 84.178082 113.791843 
L 84.431274 113.899779 
L 84.684466 114.315714 
L 85.089574 115.494988 
L 85.747873 118.241926 
L 88.634262 131.220923 
L 90.001498 135.685575 
L 92.685334 144.412929 
L 95.0147 151.796889 
L 99.167049 164.404053 
L 100.281093 168.955939 
L 101.445777 174.714135 
L 102.762375 182.445521 
L 104.635996 194.998122 
L 106.965362 210.367577 
L 108.130045 216.658308 
L 109.092175 220.734711 
L 109.902389 223.282808 
L 110.611327 224.829849 
L 111.218988 225.65507 
L 111.725372 225.999631 
L 112.181117 226.05213 
L 112.636863 225.869633 
L 113.143247 225.403078 
L 113.750908 224.497185 
L 114.459845 223.001212 
L 115.320698 220.627937 
L 116.434743 216.845626 
L 118.359002 209.344624 
L 120.3339 201.975416 
L 121.59986 198.06542 
L 122.764543 195.146128 
L 124.030503 192.585489 
L 127.473914 186.061994 
L 128.486682 183.371658 
L 129.550088 179.862828 
L 130.714772 175.178885 
L 132.082008 168.700316 
L 134.25946 157.110473 
L 136.842018 143.651311 
L 138.310532 137.137732 
L 139.576492 132.499342 
L 140.690536 129.214564 
L 141.753943 126.736635 
L 142.817349 124.82002 
L 143.830117 123.433633 
L 144.842885 122.415977 
L 145.754376 121.797979 
L 146.615229 121.481186 
L 147.425444 121.424913 
L 148.336935 121.600408 
L 149.906725 121.949734 
L 150.463747 121.830042 
L 151.02077 121.468278 
L 151.577792 120.831932 
L 152.236091 119.729885 
L 153.096944 117.797181 
L 154.210989 114.696438 
L 155.628864 110.075768 
L 156.996101 104.872226 
L 158.413976 98.528624 
L 163.224624 75.958227 
L 164.439946 71.842376 
L 165.553991 68.826056 
L 166.566759 66.686157 
L 167.47825 65.24154 
L 168.288464 64.338234 
L 169.04804 63.806519 
L 169.807616 63.550468 
L 170.617831 63.518947 
L 171.883791 63.731882 
L 173.149751 63.86628 
L 173.959965 63.725466 
L 174.719541 63.359727 
L 175.479117 62.742643 
L 176.33997 61.73932 
L 177.352738 60.179321 
L 178.568059 57.855832 
L 180.188488 54.220046 
L 183.631899 46.342934 
L 184.695306 44.529685 
L 185.556158 43.476406 
L 186.265096 42.931449 
L 186.923395 42.701948 
L 187.531056 42.728359 
L 188.138717 42.977318 
L 188.847654 43.532011 
L 189.657869 44.478351 
L 190.619998 45.961979 
L 191.936597 48.44282 
L 196.494053 57.430508 
L 197.658736 59.081998 
L 198.722142 60.229381 
L 199.73491 61.015505 
L 200.848955 61.592059 
L 202.216192 62.031941 
L 204.646835 62.782897 
L 205.710241 63.378229 
L 206.672371 64.168093 
L 207.634501 65.243011 
L 208.647269 66.707451 
L 209.811952 68.812292 
L 211.12855 71.679738 
L 212.850256 76.011383 
L 217.964734 89.249955 
L 219.534525 92.510176 
L 221.003038 95.070987 
L 222.572829 97.366875 
L 224.851557 100.251131 
L 227.2822 103.417119 
L 228.953267 105.978491 
L 230.624334 108.956521 
L 232.64987 113.058295 
L 238.372009 124.973928 
L 239.992438 127.67181 
L 241.51159 129.772736 
L 242.980104 131.432611 
L 244.600532 132.926587 
L 246.828622 134.645354 
L 250.778417 137.673151 
L 253.766083 140.31629 
L 257.00694 143.125145 
L 258.728646 144.32501 
L 260.197159 145.083796 
L 261.564396 145.538527 
L 262.880995 145.743289 
L 264.248231 145.731612 
L 265.767383 145.494031 
L 267.691643 144.951953 
L 271.033777 143.728792 
L 277.920599 140.997823 
L 280.047412 139.858566 
L 281.971671 138.573575 
L 283.946569 136.982014 
L 286.225297 134.842213 
L 289.516793 131.401027 
L 295.390847 125.259015 
L 311.949604 108.896408 
L 314.734716 106.482485 
L 317.317274 104.534651 
L 320.001109 102.792814 
L 322.988775 101.124946 
L 326.381548 99.490414 
L 329.571767 98.191088 
L 332.306241 97.311715 
L 334.736884 96.762294 
L 337.015612 96.471008 
L 339.344978 96.396927 
L 341.876898 96.545354 
L 344.763287 96.945618 
L 348.15606 97.646068 
L 351.751386 98.611523 
L 355.09352 99.735189 
L 358.334378 101.063309 
L 361.879066 102.766804 
L 367.094821 105.55462 
L 381.324211 113.21113 
L 387.096989 116.128167 
L 388.00848 116.553904 
L 388.00848 116.553904 
" clip-path="url(#p7cddd63a9e)" style="fill: none; stroke: #1f77b4; stroke-width: 1.5; stroke-linecap: square"/>
   </g>
   <g id="line2d_11">
    <path d="M 84.178082 113.791843 
L 84.532551 113.701219 
L 85.342766 113.379767 
L 85.646596 113.552598 
L 86.001065 114.069762 
L 86.406172 115.086123 
L 86.963194 117.174657 
L 87.621494 120.572802 
L 88.482346 126.316317 
L 91.368735 146.906605 
L 92.229588 151.024294 
L 93.090441 154.116029 
L 94.103209 156.906015 
L 96.58449 163.415114 
L 98.002365 168.037751 
L 100.939393 177.850821 
L 101.850884 180.061705 
L 102.61046 181.381943 
L 103.268759 182.111359 
L 103.825781 182.430902 
L 104.382804 182.497556 
L 104.990465 182.321045 
L 105.699402 181.861921 
L 106.864085 180.786466 
L 108.484514 179.342079 
L 109.446644 178.77904 
L 110.408773 178.47564 
L 111.47218 178.385309 
L 112.687501 178.510284 
L 113.953461 178.865807 
L 115.168783 179.443748 
L 116.485381 180.326235 
L 120.181985 182.988322 
L 121.245391 183.36418 
L 122.258159 183.483292 
L 123.372204 183.383362 
L 124.840717 183.008021 
L 129.448812 181.461168 
L 130.613495 180.839099 
L 131.575624 180.079932 
L 132.537754 179.027937 
L 133.550522 177.56986 
L 134.664567 175.562051 
L 136.031804 172.607876 
L 137.753509 168.323165 
L 139.829684 162.549375 
L 141.905858 156.116497 
L 143.72884 149.746285 
L 145.298631 143.46602 
L 146.767144 136.664987 
L 148.640765 126.793096 
L 150.159917 119.192814 
L 151.122047 115.433544 
L 152.084176 112.55969 
L 153.451413 109.281936 
L 155.375672 104.588205 
L 157.907592 98.284135 
L 159.021637 96.188563 
L 160.338235 94.216893 
L 162.870155 90.50382 
L 165.098245 86.675901 
L 171.073576 75.964897 
L 173.099112 72.195984 
L 174.314434 70.406462 
L 175.428479 69.161546 
L 176.542523 68.242055 
L 177.808483 67.492212 
L 179.074443 66.992643 
L 180.239126 66.758993 
L 181.353171 66.761475 
L 182.517854 66.992133 
L 184.138283 67.568198 
L 186.518288 68.392457 
L 188.088078 68.673989 
L 190.164253 68.786828 
L 193.506387 68.97042 
L 195.177454 69.294354 
L 196.544691 69.7787 
L 197.810651 70.46079 
L 199.076611 71.396976 
L 200.443848 72.689324 
L 202.064277 74.539325 
L 204.343005 77.514501 
L 210.318336 85.457667 
L 213.407278 89.068967 
L 218.167288 94.600663 
L 220.597931 97.834967 
L 223.48432 102.082193 
L 229.105182 110.43231 
L 231.637102 113.73382 
L 234.067745 116.541183 
L 237.055411 119.630186 
L 245.562662 127.937468 
L 248.297136 130.335717 
L 250.474587 131.961222 
L 252.449484 133.168639 
L 254.424382 134.115703 
L 256.449918 134.840926 
L 258.779284 135.429747 
L 261.564396 135.89584 
L 264.653339 136.190253 
L 267.337174 136.232707 
L 269.66654 136.050679 
L 271.843991 135.654536 
L 273.970804 135.041534 
L 276.249532 134.150082 
L 278.882729 132.870644 
L 282.275502 130.956429 
L 287.08615 127.969782 
L 291.643606 124.895479 
L 296.099785 121.610956 
L 306.885764 113.517796 
L 310.936836 110.859929 
L 315.139823 108.367604 
L 319.03898 106.303012 
L 322.431753 104.749684 
L 325.470057 103.59798 
L 328.407084 102.723512 
L 331.344111 102.082101 
L 334.433053 101.637914 
L 337.673911 101.399074 
L 340.965407 101.379199 
L 344.206264 101.579232 
L 347.447122 102.000845 
L 350.839895 102.669065 
L 354.637775 103.650145 
L 359.245869 105.080957 
L 364.91737 107.083874 
L 371.905469 109.801101 
L 382.64081 113.982556 
L 388.00848 115.822778 
L 388.00848 115.822778 
" clip-path="url(#p7cddd63a9e)" style="fill: none; stroke: #ff7f0e; stroke-width: 1.5; stroke-linecap: square"/>
   </g>
   <g id="line2d_12">
    <path d="M 84.178082 113.791843 
L 85.089574 113.685448 
L 85.494681 113.330534 
L 86.203618 112.33355 
L 86.963194 111.402731 
L 87.469578 111.11768 
L 87.925324 111.12162 
L 88.38107 111.366673 
L 88.887454 111.932823 
L 89.444476 112.954588 
L 90.052137 114.596426 
L 90.761074 117.227362 
L 91.571289 121.128465 
L 92.584057 127.16084 
L 94.356401 139.374411 
L 96.128745 150.996811 
L 97.344066 157.583564 
L 98.306196 161.679398 
L 99.11641 164.239628 
L 99.825348 165.774157 
L 100.38237 166.51231 
L 100.888754 166.829953 
L 101.293861 166.847334 
L 101.749607 166.624504 
L 102.255991 166.092165 
L 102.863652 165.091999 
L 103.623228 163.365565 
L 104.635996 160.437752 
L 106.307063 154.785509 
L 108.231322 148.49311 
L 109.294729 145.760945 
L 110.104943 144.24477 
L 110.763242 143.431069 
L 111.320265 143.051251 
L 111.826649 142.952788 
L 112.333033 143.084081 
L 112.890055 143.482257 
L 113.497716 144.199895 
L 114.257292 145.471768 
L 115.168783 147.462721 
L 116.434743 150.819482 
L 119.321132 158.669273 
L 120.3339 160.707358 
L 121.144114 161.874806 
L 121.853052 162.520554 
L 122.460713 162.787362 
L 123.017735 162.804516 
L 123.625396 162.590239 
L 124.283695 162.113462 
L 125.093909 161.242613 
L 126.309231 159.566121 
L 128.436044 156.611349 
L 129.398173 155.653225 
L 130.208388 155.134911 
L 130.967964 154.906941 
L 131.72754 154.920565 
L 132.537754 155.168796 
L 133.550522 155.730471 
L 136.386272 157.453979 
L 137.145848 157.585038 
L 137.804148 157.475644 
L 138.411808 157.156442 
L 139.070108 156.547463 
L 139.779045 155.565957 
L 140.58926 154.023488 
L 141.500751 151.773001 
L 142.614796 148.368414 
L 144.032671 143.235182 
L 146.108845 134.768279 
L 149.096511 121.631732 
L 151.577792 110.821478 
L 152.641199 107.201765 
L 153.704605 104.351178 
L 154.81865 102.001053 
L 155.780779 100.466536 
L 156.540355 99.641394 
L 157.198655 99.234543 
L 157.806315 99.11034 
L 158.464615 99.218599 
L 159.224191 99.590155 
L 160.388874 100.448191 
L 161.908026 101.519545 
L 162.768879 101.856684 
L 163.528455 101.913471 
L 164.237392 101.743399 
L 164.996968 101.317119 
L 165.807183 100.585079 
L 166.668035 99.497192 
L 167.630165 97.914008 
L 168.74421 95.637185 
L 170.212723 92.076066 
L 173.605496 83.620106 
L 174.618264 81.756726 
L 175.479117 80.603669 
L 176.238693 79.945334 
L 176.896992 79.650197 
L 177.555291 79.603474 
L 178.21359 79.791615 
L 178.922528 80.235531 
L 179.732742 81.012777 
L 180.74551 82.311088 
L 182.264662 84.674938 
L 184.442114 88.024337 
L 185.50552 89.259275 
L 186.366373 89.945226 
L 187.125949 90.285612 
L 187.834886 90.372077 
L 188.543824 90.241402 
L 189.3034 89.879318 
L 190.214891 89.185544 
L 191.379574 87.99626 
L 195.177454 83.867734 
L 196.088946 83.291828 
L 196.89916 83.030148 
L 197.658736 83.023926 
L 198.367674 83.236776 
L 199.12725 83.698663 
L 199.988102 84.499934 
L 201.00087 85.776779 
L 202.26683 87.765239 
L 204.697473 92.123643 
L 206.520456 95.152972 
L 207.786416 96.848314 
L 208.900461 97.979838 
L 209.913229 98.702697 
L 210.925997 99.153782 
L 211.989403 99.383024 
L 213.306001 99.429229 
L 216.496221 99.446566 
L 217.610265 99.737732 
L 218.623033 100.228312 
L 219.68644 101.001122 
L 220.800485 102.093572 
L 222.117083 103.715212 
L 223.889427 106.292516 
L 227.535392 111.679168 
L 229.003905 113.404331 
L 230.269865 114.568339 
L 231.485187 115.399445 
L 232.751147 116.000582 
L 234.21966 116.446289 
L 239.232862 117.750711 
L 240.650737 118.488618 
L 242.169889 119.538919 
L 244.04351 121.12676 
L 248.550328 125.0691 
L 250.06948 126.041512 
L 251.436716 126.666151 
L 252.803953 127.051794 
L 254.272467 127.233384 
L 256.095449 127.2207 
L 261.76695 127.019266 
L 263.995039 127.278156 
L 270.021009 128.127571 
L 271.742715 128.04753 
L 273.413782 127.749979 
L 275.236764 127.197565 
L 277.616769 126.223563 
L 284.047846 123.471328 
L 287.896364 122.197564 
L 291.694244 120.87205 
L 294.378079 119.690714 
L 297.51766 118.047564 
L 303.898098 114.645541 
L 306.936402 113.335696 
L 310.734282 111.96505 
L 324.001543 107.562048 
L 326.887932 106.935994 
L 329.875597 106.521148 
L 333.572201 106.247243 
L 339.648808 106.048269 
L 344.155626 106.089395 
L 347.599037 106.341592 
L 351.093087 106.825135 
L 355.903735 107.741609 
L 368.208866 110.37421 
L 374.842496 112.085203 
L 381.628042 113.768641 
L 388.00848 115.091084 
L 388.00848 115.091084 
" clip-path="url(#p7cddd63a9e)" style="fill: none; stroke: #2ca02c; stroke-width: 1.5; stroke-linecap: square"/>
   </g>
   <g id="line2d_13">
    <path d="M 84.178082 113.791843 
L 86.051703 113.693718 
L 86.507449 113.256336 
L 87.064471 112.365588 
L 88.178516 110.025402 
L 89.241922 108.006792 
L 89.798945 107.359647 
L 90.204052 107.185083 
L 90.558521 107.282013 
L 90.91299 107.633759 
L 91.318097 108.35843 
L 91.824481 109.743018 
L 92.48278 112.290442 
L 93.292994 116.433104 
L 94.457678 123.731084 
L 96.685767 137.822293 
L 97.597258 142.132663 
L 98.356834 144.706605 
L 98.964495 146.061428 
L 99.470879 146.726514 
L 99.926625 146.98882 
L 100.331732 146.977305 
L 100.787477 146.717238 
L 101.3445 146.090129 
L 102.002799 144.987463 
L 102.91429 142.978058 
L 104.230889 139.464842 
L 109.193452 125.661778 
L 110.155581 123.845268 
L 110.864519 122.932776 
L 111.47218 122.494762 
L 111.978564 122.393627 
L 112.484948 122.539291 
L 112.991332 122.928257 
L 113.598993 123.697242 
L 114.358569 125.064165 
L 115.371337 127.414964 
L 117.447511 133.000412 
L 118.966663 136.741432 
L 120.030069 138.808448 
L 120.890922 140.030848 
L 121.59986 140.693133 
L 122.258159 141.014014 
L 122.86582 141.056939 
L 123.47348 140.863842 
L 124.13178 140.406318 
L 124.891356 139.596335 
L 125.904124 138.152097 
L 129.651365 132.408444 
L 130.410941 131.817617 
L 131.018602 131.597785 
L 131.626263 131.616697 
L 132.233924 131.872231 
L 132.892223 132.395931 
L 133.753076 133.39944 
L 135.120312 135.41294 
L 136.639464 137.531809 
L 137.500317 138.355316 
L 138.158616 138.703156 
L 138.766277 138.773896 
L 139.3233 138.614334 
L 139.93096 138.191449 
L 140.58926 137.446707 
L 141.348836 136.241514 
L 142.310965 134.255392 
L 143.576925 131.075577 
L 147.172252 121.725669 
L 148.843319 118.301827 
L 150.159917 115.435082 
L 151.172685 112.659506 
L 153.957797 104.600597 
L 154.616096 103.528146 
L 155.173119 103.007546 
L 155.679503 102.821196 
L 156.185887 102.867575 
L 156.793547 103.160191 
L 157.6544 103.857986 
L 159.325467 105.572558 
L 163.224624 109.596122 
L 164.085477 110.132204 
L 164.794415 110.327747 
L 165.402075 110.28229 
L 166.009736 110.023972 
L 166.668035 109.502862 
L 167.427611 108.612094 
L 168.389741 107.117928 
L 169.807616 104.448365 
L 173.453581 97.428752 
L 174.668903 95.619719 
L 175.580394 94.636233 
L 176.33997 94.132795 
L 176.998269 93.959899 
L 177.60593 94.026926 
L 178.264229 94.340188 
L 178.973166 94.934323 
L 179.884658 96.020781 
L 181.150618 97.920089 
L 184.037006 102.34411 
L 185.151051 103.621109 
L 186.113181 104.404329 
L 186.923395 104.799761 
L 187.682971 104.93393 
L 188.442547 104.832505 
L 189.202123 104.499728 
L 190.062976 103.864911 
L 191.126382 102.770773 
L 192.79745 100.660945 
L 194.67107 98.388362 
L 195.734477 97.425712 
L 196.645968 96.886871 
L 197.456182 96.661276 
L 198.215758 96.677099 
L 198.975334 96.912439 
L 199.785549 97.394799 
L 200.747678 98.247855 
L 201.912362 99.61225 
L 203.634067 102.029063 
L 206.014072 105.324356 
L 207.229393 106.638864 
L 208.242161 107.436031 
L 209.204291 107.915655 
L 210.115782 108.122824 
L 211.077912 108.104799 
L 212.141318 107.854898 
L 213.609832 107.258387 
L 216.243029 106.162881 
L 217.407712 105.936598 
L 218.42048 105.957821 
L 219.433248 106.209452 
L 220.446016 106.696333 
L 221.560061 107.484335 
L 222.927297 108.743393 
L 225.256664 111.262494 
L 227.332838 113.370571 
L 228.700075 114.44955 
L 229.915396 115.12659 
L 231.08008 115.515084 
L 232.295401 115.6739 
L 233.662638 115.620573 
L 236.093281 115.249672 
L 238.01754 115.058462 
L 239.435416 115.136856 
L 240.752014 115.429602 
L 242.119251 115.961504 
L 243.73968 116.84042 
L 249.512457 120.214564 
L 250.930332 120.653116 
L 252.348208 120.858853 
L 253.86736 120.849575 
L 255.842257 120.593871 
L 260.349075 119.934355 
L 262.273334 119.934619 
L 264.349508 120.16916 
L 270.983139 121.125234 
L 272.806121 121.03652 
L 274.73038 120.716657 
L 277.211662 120.060488 
L 282.478055 118.614075 
L 285.212529 118.151472 
L 294.124887 116.874045 
L 297.163191 116.026408 
L 304.201929 113.972114 
L 307.392148 113.3518 
L 313.823225 112.419085 
L 318.937703 111.506709 
L 324.254735 110.60282 
L 327.647508 110.265526 
L 331.546665 110.116482 
L 345.269671 109.998601 
L 349.371381 110.200957 
L 354.48586 110.700983 
L 378.184631 113.424932 
L 384.666346 114.130736 
L 388.00848 114.439736 
L 388.00848 114.439736 
" clip-path="url(#p7cddd63a9e)" style="fill: none; stroke: #d62728; stroke-width: 1.5; stroke-linecap: square"/>
   </g>
   <g id="line2d_14">
    <path d="M 84.178082 113.791843 
L 85.950426 113.901829 
L 86.710002 113.973535 
L 87.165748 113.765583 
L 87.621494 113.289226 
L 88.330431 112.165557 
L 89.393838 110.532902 
L 90.001498 109.991843 
L 90.507882 109.811957 
L 90.963628 109.863188 
L 91.470012 110.154604 
L 92.027034 110.745367 
L 92.735972 111.853015 
L 93.647463 113.73922 
L 94.862785 116.822613 
L 96.787044 121.71044 
L 97.698535 123.390823 
L 98.458111 124.349573 
L 99.11641 124.843821 
L 99.724071 125.02549 
L 100.331732 124.960818 
L 100.990031 124.652432 
L 101.850884 123.972989 
L 103.218121 122.553402 
L 108.737706 116.579082 
L 110.104943 115.426895 
L 111.067073 114.881733 
L 111.877287 114.676366 
L 112.586225 114.7246 
L 113.295162 114.994284 
L 114.105377 115.54952 
L 115.168783 116.573847 
L 119.422409 120.984892 
L 120.536453 121.705704 
L 121.549221 122.107608 
L 122.511351 122.250708 
L 123.47348 122.161091 
L 124.486248 121.829976 
L 125.600293 121.223827 
L 127.119445 120.119764 
L 129.398173 118.469815 
L 130.410941 118.01866 
L 131.271794 117.87079 
L 132.082008 117.952784 
L 132.942861 118.267248 
L 134.006268 118.918396 
L 137.702871 121.445814 
L 138.614362 121.671011 
L 139.475215 121.653141 
L 140.336068 121.411812 
L 141.298197 120.898631 
L 142.412242 120.038448 
L 144.083309 118.423155 
L 146.210122 116.422334 
L 147.425444 115.59777 
L 148.691404 115.026263 
L 150.261194 114.32061 
L 151.02077 113.713977 
L 151.830984 112.765907 
L 154.210989 109.714186 
L 154.81865 109.40097 
L 155.375672 109.348418 
L 156.033971 109.51631 
L 157.046739 110.040448 
L 159.426744 111.3084 
L 164.642499 113.541 
L 165.553991 113.624279 
L 166.414843 113.488156 
L 167.376973 113.102918 
L 168.592295 112.351205 
L 171.326768 110.283721 
L 173.554858 108.776351 
L 175.175287 107.921328 
L 176.289331 107.565639 
L 177.251461 107.486692 
L 178.162952 107.632379 
L 179.17572 108.02701 
L 180.492318 108.799207 
L 184.290198 111.161722 
L 185.758712 111.742396 
L 187.024672 112.016262 
L 188.189355 112.052285 
L 189.354038 111.864632 
L 190.619998 111.421564 
L 192.291066 110.570421 
L 195.126816 109.111289 
L 196.494053 108.681904 
L 197.709374 108.526753 
L 198.924696 108.594713 
L 200.190656 108.889842 
L 201.65917 109.473659 
L 203.785982 110.598261 
L 206.419179 111.943045 
L 207.887693 112.443476 
L 209.254929 112.676157 
L 210.622166 112.683138 
L 212.242595 112.454371 
L 215.483453 111.687562 
L 217.45835 111.372682 
L 219.028141 111.34443 
L 220.547293 111.53658 
L 222.21836 111.976274 
L 224.598365 112.864292 
L 227.737945 114.005894 
L 229.510289 114.406593 
L 231.231995 114.562573 
L 233.156254 114.501193 
L 240.397545 114.017015 
L 242.47372 114.265571 
L 245.208193 114.84308 
L 249.157988 115.661637 
L 251.386078 115.875721 
L 253.664806 115.866069 
L 257.158855 115.590884 
L 260.906097 115.368428 
L 263.843124 115.433018 
L 273.16059 115.855254 
L 276.502724 115.603144 
L 283.845292 114.980716 
L 289.111686 114.87066 
L 294.02361 114.68061 
L 299.188727 114.220768 
L 305.214697 113.73596 
L 311.392581 113.511633 
L 318.836426 113.173366 
L 326.93857 112.811716 
L 333.977308 112.780703 
L 353.776922 112.926349 
L 388.00848 113.971332 
L 388.00848 113.971332 
" clip-path="url(#p7cddd63a9e)" style="fill: none; stroke: #9467bd; stroke-width: 1.5; stroke-linecap: square"/>
   </g>
   <g id="patch_3">
    <path d="M 68.986563 235.23 
L 68.986563 33.516563 
" style="fill: none; stroke: #000000; stroke-width: 0.8; stroke-linejoin: miter; stroke-linecap: square"/>
   </g>
   <g id="patch_4">
    <path d="M 403.2 235.23 
L 403.2 33.516563 
" style="fill: none; stroke: #000000; stroke-width: 0.8; stroke-linejoin: miter; stroke-linecap: square"/>
   </g>
   <g id="patch_5">
    <path d="M 68.986563 235.23 
L 403.2 235.23 
" style="fill: none; stroke: #000000; stroke-width: 0.8; stroke-linejoin: miter; stroke-linecap: square"/>
   </g>
   <g id="patch_6">
    <path d="M 68.986563 33.516563 
L 403.2 33.516563 
" style="fill: none; stroke: #000000; stroke-width: 0.8; stroke-linejoin: miter; stroke-linecap: square"/>
   </g>
   <g id="text_12">
    <!-- Bending Angles -->
    <g transform="translate(150.282969 27.516563) scale(0.22 -0.22)">
     <defs>
      <path id="DejaVuSans-42" d="M 1259 2228 
L 1259 519 
L 2272 519 
Q 2781 519 3026 730 
Q 3272 941 3272 1375 
Q 3272 1813 3026 2020 
Q 2781 2228 2272 2228 
L 1259 2228 
z
M 1259 4147 
L 1259 2741 
L 2194 2741 
Q 2656 2741 2882 2914 
Q 3109 3088 3109 3444 
Q 3109 3797 2882 3972 
Q 2656 4147 2194 4147 
L 1259 4147 
z
M 628 4666 
L 2241 4666 
Q 2963 4666 3353 4366 
Q 3744 4066 3744 3513 
Q 3744 3084 3544 2831 
Q 3344 2578 2956 2516 
Q 3422 2416 3680 2098 
Q 3938 1781 3938 1306 
Q 3938 681 3513 340 
Q 3088 0 2303 0 
L 628 0 
L 628 4666 
z
" transform="scale(0.015625)"/>
      <path id="DejaVuSans-41" d="M 2188 4044 
L 1331 1722 
L 3047 1722 
L 2188 4044 
z
M 1831 4666 
L 2547 4666 
L 4325 0 
L 3669 0 
L 3244 1197 
L 1141 1197 
L 716 0 
L 50 0 
L 1831 4666 
z
" transform="scale(0.015625)"/>
      <path id="DejaVuSans-6c" d="M 603 4863 
L 1178 4863 
L 1178 0 
L 603 0 
L 603 4863 
z
" transform="scale(0.015625)"/>
      <path id="DejaVuSans-73" d="M 2834 3397 
L 2834 2853 
Q 2591 2978 2328 3040 
Q 2066 3103 1784 3103 
Q 1356 3103 1142 2972 
Q 928 2841 928 2578 
Q 928 2378 1081 2264 
Q 1234 2150 1697 2047 
L 1894 2003 
Q 2506 1872 2764 1633 
Q 3022 1394 3022 966 
Q 3022 478 2636 193 
Q 2250 -91 1575 -91 
Q 1294 -91 989 -36 
Q 684 19 347 128 
L 347 722 
Q 666 556 975 473 
Q 1284 391 1588 391 
Q 1994 391 2212 530 
Q 2431 669 2431 922 
Q 2431 1156 2273 1281 
Q 2116 1406 1581 1522 
L 1381 1569 
Q 847 1681 609 1914 
Q 372 2147 372 2553 
Q 372 3047 722 3315 
Q 1072 3584 1716 3584 
Q 2034 3584 2315 3537 
Q 2597 3491 2834 3397 
z
" transform="scale(0.015625)"/>
     </defs>
     <use xlink:href="#DejaVuSans-42"/>
     <use xlink:href="#DejaVuSans-65" transform="translate(68.603516 0)"/>
     <use xlink:href="#DejaVuSans-6e" transform="translate(130.126953 0)"/>
     <use xlink:href="#DejaVuSans-64" transform="translate(193.505859 0)"/>
     <use xlink:href="#DejaVuSans-69" transform="translate(256.982422 0)"/>
     <use xlink:href="#DejaVuSans-6e" transform="translate(284.765625 0)"/>
     <use xlink:href="#DejaVuSans-67" transform="translate(348.144531 0)"/>
     <use xlink:href="#DejaVuSans-20" transform="translate(411.621094 0)"/>
     <use xlink:href="#DejaVuSans-41" transform="translate(443.408203 0)"/>
     <use xlink:href="#DejaVuSans-6e" transform="translate(511.816406 0)"/>
     <use xlink:href="#DejaVuSans-67" transform="translate(575.195312 0)"/>
     <use xlink:href="#DejaVuSans-6c" transform="translate(638.671875 0)"/>
     <use xlink:href="#DejaVuSans-65" transform="translate(666.455078 0)"/>
     <use xlink:href="#DejaVuSans-73" transform="translate(727.978516 0)"/>
    </g>
   </g>
   <g id="legend_1">
    <g id="patch_7">
     <path d="M 333.34 228.23 
L 393.4 228.23 
Q 396.2 228.23 396.2 225.43 
L 396.2 124.083125 
Q 396.2 121.283125 393.4 121.283125 
L 333.34 121.283125 
Q 330.54 121.283125 330.54 124.083125 
L 330.54 225.43 
Q 330.54 228.23 333.34 228.23 
z
" style="fill: #ffffff; opacity: 0.8; stroke: #cccccc; stroke-linejoin: miter"/>
    </g>
    <g id="line2d_15">
     <path d="M 336.14 132.620937 
L 350.14 132.620937 
L 364.14 132.620937 
" style="fill: none; stroke: #1f77b4; stroke-width: 1.5; stroke-linecap: square"/>
    </g>
    <g id="text_13">
     <!-- $\theta_1$ -->
     <g transform="translate(375.34 137.520938) scale(0.14 -0.14)">
      <use xlink:href="#DejaVuSans-Oblique-3b8" transform="translate(0 0.234375)"/>
      <use xlink:href="#DejaVuSans-31" transform="translate(61.181641 -16.171875) scale(0.7)"/>
     </g>
    </g>
    <g id="line2d_16">
     <path d="M 336.14 153.170312 
L 350.14 153.170312 
L 364.14 153.170312 
" style="fill: none; stroke: #ff7f0e; stroke-width: 1.5; stroke-linecap: square"/>
    </g>
    <g id="text_14">
     <!-- $\theta_2$ -->
     <g transform="translate(375.34 158.070312) scale(0.14 -0.14)">
      <use xlink:href="#DejaVuSans-Oblique-3b8" transform="translate(0 0.234375)"/>
      <use xlink:href="#DejaVuSans-32" transform="translate(61.181641 -16.171875) scale(0.7)"/>
     </g>
    </g>
    <g id="line2d_17">
     <path d="M 336.14 173.719687 
L 350.14 173.719687 
L 364.14 173.719687 
" style="fill: none; stroke: #2ca02c; stroke-width: 1.5; stroke-linecap: square"/>
    </g>
    <g id="text_15">
     <!-- $\theta_3$ -->
     <g transform="translate(375.34 178.619687) scale(0.14 -0.14)">
      <defs>
       <path id="DejaVuSans-33" d="M 2597 2516 
Q 3050 2419 3304 2112 
Q 3559 1806 3559 1356 
Q 3559 666 3084 287 
Q 2609 -91 1734 -91 
Q 1441 -91 1130 -33 
Q 819 25 488 141 
L 488 750 
Q 750 597 1062 519 
Q 1375 441 1716 441 
Q 2309 441 2620 675 
Q 2931 909 2931 1356 
Q 2931 1769 2642 2001 
Q 2353 2234 1838 2234 
L 1294 2234 
L 1294 2753 
L 1863 2753 
Q 2328 2753 2575 2939 
Q 2822 3125 2822 3475 
Q 2822 3834 2567 4026 
Q 2313 4219 1838 4219 
Q 1578 4219 1281 4162 
Q 984 4106 628 3988 
L 628 4550 
Q 988 4650 1302 4700 
Q 1616 4750 1894 4750 
Q 2613 4750 3031 4423 
Q 3450 4097 3450 3541 
Q 3450 3153 3228 2886 
Q 3006 2619 2597 2516 
z
" transform="scale(0.015625)"/>
      </defs>
      <use xlink:href="#DejaVuSans-Oblique-3b8" transform="translate(0 0.234375)"/>
      <use xlink:href="#DejaVuSans-33" transform="translate(61.181641 -16.171875) scale(0.7)"/>
     </g>
    </g>
    <g id="line2d_18">
     <path d="M 336.14 194.269062 
L 350.14 194.269062 
L 364.14 194.269062 
" style="fill: none; stroke: #d62728; stroke-width: 1.5; stroke-linecap: square"/>
    </g>
    <g id="text_16">
     <!-- $\theta_4$ -->
     <g transform="translate(375.34 199.169062) scale(0.14 -0.14)">
      <use xlink:href="#DejaVuSans-Oblique-3b8" transform="translate(0 0.234375)"/>
      <use xlink:href="#DejaVuSans-34" transform="translate(61.181641 -16.171875) scale(0.7)"/>
     </g>
    </g>
    <g id="line2d_19">
     <path d="M 336.14 214.818437 
L 350.14 214.818437 
L 364.14 214.818437 
" style="fill: none; stroke: #9467bd; stroke-width: 1.5; stroke-linecap: square"/>
    </g>
    <g id="text_17">
     <!-- $\theta_5$ -->
     <g transform="translate(375.34 219.718437) scale(0.14 -0.14)">
      <defs>
       <path id="DejaVuSans-35" d="M 691 4666 
L 3169 4666 
L 3169 4134 
L 1269 4134 
L 1269 2991 
Q 1406 3038 1543 3061 
Q 1681 3084 1819 3084 
Q 2600 3084 3056 2656 
Q 3513 2228 3513 1497 
Q 3513 744 3044 326 
Q 2575 -91 1722 -91 
Q 1428 -91 1123 -41 
Q 819 9 494 109 
L 494 744 
Q 775 591 1075 516 
Q 1375 441 1709 441 
Q 2250 441 2565 725 
Q 2881 1009 2881 1497 
Q 2881 1984 2565 2268 
Q 2250 2553 1709 2553 
Q 1456 2553 1204 2497 
Q 953 2441 691 2322 
L 691 4666 
z
" transform="scale(0.015625)"/>
      </defs>
      <use xlink:href="#DejaVuSans-Oblique-3b8" transform="translate(0 0.234375)"/>
      <use xlink:href="#DejaVuSans-35" transform="translate(61.181641 -16.171875) scale(0.7)"/>
     </g>
    </g>
   </g>
  </g>
 </g>
 <defs>
  <clipPath id="p7cddd63a9e">
   <rect x="68.986563" y="33.516563" width="334.213438" height="201.713437"/>
  </clipPath>
 </defs>
</svg>
