<?xml version="1.0" encoding="utf-8" standalone="no"?>
<!DOCTYPE svg PUBLIC "-//W3C//DTD SVG 1.1//EN"
  "http://www.w3.org/Graphics/SVG/1.1/DTD/svg11.dtd">
<svg xmlns:xlink="http://www.w3.org/1999/xlink" width="414pt" height="180pt" viewBox="0 0 414 180" xmlns="http://www.w3.org/2000/svg" version="1.1">
 <metadata>
  <rdf:RDF xmlns:dc="http://purl.org/dc/elements/1.1/" xmlns:cc="http://creativecommons.org/ns#" xmlns:rdf="http://www.w3.org/1999/02/22-rdf-syntax-ns#">
   <cc:Work>
    <dc:type rdf:resource="http://purl.org/dc/dcmitype/StillImage"/>
    <dc:date>2026-07-09T00:13:04.529581</dc:date>
    <dc:format>image/svg+xml</dc:format>
    <dc:creator>
     <cc:Agent>
      <dc:title>Matplotlib v3.10.9, https://matplotlib.org/</dc:title>
     </cc:Agent>
    </dc:creator>
   </cc:Work>
  </rdf:RDF>
 </metadata>
 <defs>
  <style type="text/css">*{stroke-linejoin: round; stroke-linecap: butt}</style>
 </defs>
 <g id="figure_1">
  <g id="patch_1">
   <path d="M 0 180 
L 414 180 
L 414 0 
L 0 0 
L 0 180 
z
" style="fill: none"/>
  </g>
  <g id="axes_1">
   <g id="patch_2">
    <path d="M 57.243438 139.811563 
L 403.2 139.811563 
L 403.2 10.8 
L 57.243438 10.8 
L 57.243438 139.811563 
z
" style="fill: none"/>
   </g>
   <g id="matplotlib.axis_1">
    <g id="xtick_1">
     <g id="line2d_1">
      <path d="M 72.968736 139.811563 
L 72.968736 10.8 
" clip-path="url(#p9c1581a5bd)" style="fill: none; stroke: #b0b0b0; stroke-width: 0.8; stroke-linecap: square"/>
     </g>
     <g id="line2d_2">
      <defs>
       <path id="mb30ae1a6cd" d="M 0 0 
L 0 3.5 
" style="stroke: #000000; stroke-width: 0.8"/>
      </defs>
      <g>
       <use xlink:href="#mb30ae1a6cd" x="72.968736" y="139.811563" style="stroke: #000000; stroke-width: 0.8"/>
      </g>
     </g>
     <g id="text_1">
      <!-- 0 -->
      <g transform="translate(70.105611 153.650156) scale(0.09 -0.09)">
       <defs>
        <path id="DejaVuSans-30" d="M 2034 4250 
Q 1547 4250 1301 3770 
Q 1056 3291 1056 2328 
Q 1056 1369 1301 889 
Q 1547 409 2034 409 
Q 2525 409 2770 889 
Q 3016 1369 3016 2328 
Q 3016 3291 2770 3770 
Q 2525 4250 2034 4250 
z
M 2034 4750 
Q 2819 4750 3233 4129 
Q 3647 3509 3647 2328 
Q 3647 1150 3233 529 
Q 2819 -91 2034 -91 
Q 1250 -91 836 529 
Q 422 1150 422 2328 
Q 422 3509 836 4129 
Q 1250 4750 2034 4750 
z
" transform="scale(0.015625)"/>
       </defs>
       <use xlink:href="#DejaVuSans-30"/>
      </g>
     </g>
    </g>
    <g id="xtick_2">
     <g id="line2d_3">
      <path d="M 125.386397 139.811563 
L 125.386397 10.8 
" clip-path="url(#p9c1581a5bd)" style="fill: none; stroke: #b0b0b0; stroke-width: 0.8; stroke-linecap: square"/>
     </g>
     <g id="line2d_4">
      <g>
       <use xlink:href="#mb30ae1a6cd" x="125.386397" y="139.811563" style="stroke: #000000; stroke-width: 0.8"/>
      </g>
     </g>
     <g id="text_2">
      <!-- 2 -->
      <g transform="translate(122.523272 153.650156) scale(0.09 -0.09)">
       <defs>
        <path id="DejaVuSans-32" d="M 1228 531 
L 3431 531 
L 3431 0 
L 469 0 
L 469 531 
Q 828 903 1448 1529 
Q 2069 2156 2228 2338 
Q 2531 2678 2651 2914 
Q 2772 3150 2772 3378 
Q 2772 3750 2511 3984 
Q 2250 4219 1831 4219 
Q 1534 4219 1204 4116 
Q 875 4013 500 3803 
L 500 4441 
Q 881 4594 1212 4672 
Q 1544 4750 1819 4750 
Q 2544 4750 2975 4387 
Q 3406 4025 3406 3419 
Q 3406 3131 3298 2873 
Q 3191 2616 2906 2266 
Q 2828 2175 2409 1742 
Q 1991 1309 1228 531 
z
" transform="scale(0.015625)"/>
       </defs>
       <use xlink:href="#DejaVuSans-32"/>
      </g>
     </g>
    </g>
    <g id="xtick_3">
     <g id="line2d_5">
      <path d="M 177.804058 139.811563 
L 177.804058 10.8 
" clip-path="url(#p9c1581a5bd)" style="fill: none; stroke: #b0b0b0; stroke-width: 0.8; stroke-linecap: square"/>
     </g>
     <g id="line2d_6">
      <g>
       <use xlink:href="#mb30ae1a6cd" x="177.804058" y="139.811563" style="stroke: #000000; stroke-width: 0.8"/>
      </g>
     </g>
     <g id="text_3">
      <!-- 4 -->
      <g transform="translate(174.940933 153.650156) scale(0.09 -0.09)">
       <defs>
        <path id="DejaVuSans-34" d="M 2419 4116 
L 825 1625 
L 2419 1625 
L 2419 4116 
z
M 2253 4666 
L 3047 4666 
L 3047 1625 
L 3713 1625 
L 3713 1100 
L 3047 1100 
L 3047 0 
L 2419 0 
L 2419 1100 
L 313 1100 
L 313 1709 
L 2253 4666 
z
" transform="scale(0.015625)"/>
       </defs>
       <use xlink:href="#DejaVuSans-34"/>
      </g>
     </g>
    </g>
    <g id="xtick_4">
     <g id="line2d_7">
      <path d="M 230.221719 139.811563 
L 230.221719 10.8 
" clip-path="url(#p9c1581a5bd)" style="fill: none; stroke: #b0b0b0; stroke-width: 0.8; stroke-linecap: square"/>
     </g>
     <g id="line2d_8">
      <g>
       <use xlink:href="#mb30ae1a6cd" x="230.221719" y="139.811563" style="stroke: #000000; stroke-width: 0.8"/>
      </g>
     </g>
     <g id="text_4">
      <!-- 6 -->
      <g transform="translate(227.358594 153.650156) scale(0.09 -0.09)">
       <defs>
        <path id="DejaVuSans-36" d="M 2113 2584 
Q 1688 2584 1439 2293 
Q 1191 2003 1191 1497 
Q 1191 994 1439 701 
Q 1688 409 2113 409 
Q 2538 409 2786 701 
Q 3034 994 3034 1497 
Q 3034 2003 2786 2293 
Q 2538 2584 2113 2584 
z
M 3366 4563 
L 3366 3988 
Q 3128 4100 2886 4159 
Q 2644 4219 2406 4219 
Q 1781 4219 1451 3797 
Q 1122 3375 1075 2522 
Q 1259 2794 1537 2939 
Q 1816 3084 2150 3084 
Q 2853 3084 3261 2657 
Q 3669 2231 3669 1497 
Q 3669 778 3244 343 
Q 2819 -91 2113 -91 
Q 1303 -91 875 529 
Q 447 1150 447 2328 
Q 447 3434 972 4092 
Q 1497 4750 2381 4750 
Q 2619 4750 2861 4703 
Q 3103 4656 3366 4563 
z
" transform="scale(0.015625)"/>
       </defs>
       <use xlink:href="#DejaVuSans-36"/>
      </g>
     </g>
    </g>
    <g id="xtick_5">
     <g id="line2d_9">
      <path d="M 282.63938 139.811563 
L 282.63938 10.8 
" clip-path="url(#p9c1581a5bd)" style="fill: none; stroke: #b0b0b0; stroke-width: 0.8; stroke-linecap: square"/>
     </g>
     <g id="line2d_10">
      <g>
       <use xlink:href="#mb30ae1a6cd" x="282.63938" y="139.811563" style="stroke: #000000; stroke-width: 0.8"/>
      </g>
     </g>
     <g id="text_5">
      <!-- 8 -->
      <g transform="translate(279.776255 153.650156) scale(0.09 -0.09)">
       <defs>
        <path id="DejaVuSans-38" d="M 2034 2216 
Q 1584 2216 1326 1975 
Q 1069 1734 1069 1313 
Q 1069 891 1326 650 
Q 1584 409 2034 409 
Q 2484 409 2743 651 
Q 3003 894 3003 1313 
Q 3003 1734 2745 1975 
Q 2488 2216 2034 2216 
z
M 1403 2484 
Q 997 2584 770 2862 
Q 544 3141 544 3541 
Q 544 4100 942 4425 
Q 1341 4750 2034 4750 
Q 2731 4750 3128 4425 
Q 3525 4100 3525 3541 
Q 3525 3141 3298 2862 
Q 3072 2584 2669 2484 
Q 3125 2378 3379 2068 
Q 3634 1759 3634 1313 
Q 3634 634 3220 271 
Q 2806 -91 2034 -91 
Q 1263 -91 848 271 
Q 434 634 434 1313 
Q 434 1759 690 2068 
Q 947 2378 1403 2484 
z
M 1172 3481 
Q 1172 3119 1398 2916 
Q 1625 2713 2034 2713 
Q 2441 2713 2670 2916 
Q 2900 3119 2900 3481 
Q 2900 3844 2670 4047 
Q 2441 4250 2034 4250 
Q 1625 4250 1398 4047 
Q 1172 3844 1172 3481 
z
" transform="scale(0.015625)"/>
       </defs>
       <use xlink:href="#DejaVuSans-38"/>
      </g>
     </g>
    </g>
    <g id="xtick_6">
     <g id="line2d_11">
      <path d="M 335.057041 139.811563 
L 335.057041 10.8 
" clip-path="url(#p9c1581a5bd)" style="fill: none; stroke: #b0b0b0; stroke-width: 0.8; stroke-linecap: square"/>
     </g>
     <g id="line2d_12">
      <g>
       <use xlink:href="#mb30ae1a6cd" x="335.057041" y="139.811563" style="stroke: #000000; stroke-width: 0.8"/>
      </g>
     </g>
     <g id="text_6">
      <!-- 10 -->
      <g transform="translate(329.330791 153.650156) scale(0.09 -0.09)">
       <defs>
        <path id="DejaVuSans-31" d="M 794 531 
L 1825 531 
L 1825 4091 
L 703 3866 
L 703 4441 
L 1819 4666 
L 2450 4666 
L 2450 531 
L 3481 531 
L 3481 0 
L 794 0 
L 794 531 
z
" transform="scale(0.015625)"/>
       </defs>
       <use xlink:href="#DejaVuSans-31"/>
       <use xlink:href="#DejaVuSans-30" transform="translate(63.623047 0)"/>
      </g>
     </g>
    </g>
    <g id="xtick_7">
     <g id="line2d_13">
      <path d="M 387.474702 139.811563 
L 387.474702 10.8 
" clip-path="url(#p9c1581a5bd)" style="fill: none; stroke: #b0b0b0; stroke-width: 0.8; stroke-linecap: square"/>
     </g>
     <g id="line2d_14">
      <g>
       <use xlink:href="#mb30ae1a6cd" x="387.474702" y="139.811563" style="stroke: #000000; stroke-width: 0.8"/>
      </g>
     </g>
     <g id="text_7">
      <!-- 12 -->
      <g transform="translate(381.748452 153.650156) scale(0.09 -0.09)">
       <use xlink:href="#DejaVuSans-31"/>
       <use xlink:href="#DejaVuSans-32" transform="translate(63.623047 0)"/>
      </g>
     </g>
    </g>
    <g id="text_8">
     <!-- time [days] -->
     <g transform="translate(201.632656 167.120313) scale(0.1 -0.1)">
      <defs>
       <path id="DejaVuSans-74" d="M 1172 4494 
L 1172 3500 
L 2356 3500 
L 2356 3053 
L 1172 3053 
L 1172 1153 
Q 1172 725 1289 603 
Q 1406 481 1766 481 
L 2356 481 
L 2356 0 
L 1766 0 
Q 1100 0 847 248 
Q 594 497 594 1153 
L 594 3053 
L 172 3053 
L 172 3500 
L 594 3500 
L 594 4494 
L 1172 4494 
z
" transform="scale(0.015625)"/>
       <path id="DejaVuSans-69" d="M 603 3500 
L 1178 3500 
L 1178 0 
L 603 0 
L 603 3500 
z
M 603 4863 
L 1178 4863 
L 1178 4134 
L 603 4134 
L 603 4863 
z
" transform="scale(0.015625)"/>
       <path id="DejaVuSans-6d" d="M 3328 2828 
Q 3544 3216 3844 3400 
Q 4144 3584 4550 3584 
Q 5097 3584 5394 3201 
Q 5691 2819 5691 2113 
L 5691 0 
L 5113 0 
L 5113 2094 
Q 5113 2597 4934 2840 
Q 4756 3084 4391 3084 
Q 3944 3084 3684 2787 
Q 3425 2491 3425 1978 
L 3425 0 
L 2847 0 
L 2847 2094 
Q 2847 2600 2669 2842 
Q 2491 3084 2119 3084 
Q 1678 3084 1418 2786 
Q 1159 2488 1159 1978 
L 1159 0 
L 581 0 
L 581 3500 
L 1159 3500 
L 1159 2956 
Q 1356 3278 1631 3431 
Q 1906 3584 2284 3584 
Q 2666 3584 2933 3390 
Q 3200 3197 3328 2828 
z
" transform="scale(0.015625)"/>
       <path id="DejaVuSans-65" d="M 3597 1894 
L 3597 1613 
L 953 1613 
Q 991 1019 1311 708 
Q 1631 397 2203 397 
Q 2534 397 2845 478 
Q 3156 559 3463 722 
L 3463 178 
Q 3153 47 2828 -22 
Q 2503 -91 2169 -91 
Q 1331 -91 842 396 
Q 353 884 353 1716 
Q 353 2575 817 3079 
Q 1281 3584 2069 3584 
Q 2775 3584 3186 3129 
Q 3597 2675 3597 1894 
z
M 3022 2063 
Q 3016 2534 2758 2815 
Q 2500 3097 2075 3097 
Q 1594 3097 1305 2825 
Q 1016 2553 972 2059 
L 3022 2063 
z
" transform="scale(0.015625)"/>
       <path id="DejaVuSans-20" transform="scale(0.015625)"/>
       <path id="DejaVuSans-5b" d="M 550 4863 
L 1875 4863 
L 1875 4416 
L 1125 4416 
L 1125 -397 
L 1875 -397 
L 1875 -844 
L 550 -844 
L 550 4863 
z
" transform="scale(0.015625)"/>
       <path id="DejaVuSans-64" d="M 2906 2969 
L 2906 4863 
L 3481 4863 
L 3481 0 
L 2906 0 
L 2906 525 
Q 2725 213 2448 61 
Q 2172 -91 1784 -91 
Q 1150 -91 751 415 
Q 353 922 353 1747 
Q 353 2572 751 3078 
Q 1150 3584 1784 3584 
Q 2172 3584 2448 3432 
Q 2725 3281 2906 2969 
z
M 947 1747 
Q 947 1113 1208 752 
Q 1469 391 1925 391 
Q 2381 391 2643 752 
Q 2906 1113 2906 1747 
Q 2906 2381 2643 2742 
Q 2381 3103 1925 3103 
Q 1469 3103 1208 2742 
Q 947 2381 947 1747 
z
" transform="scale(0.015625)"/>
       <path id="DejaVuSans-61" d="M 2194 1759 
Q 1497 1759 1228 1600 
Q 959 1441 959 1056 
Q 959 750 1161 570 
Q 1363 391 1709 391 
Q 2188 391 2477 730 
Q 2766 1069 2766 1631 
L 2766 1759 
L 2194 1759 
z
M 3341 1997 
L 3341 0 
L 2766 0 
L 2766 531 
Q 2569 213 2275 61 
Q 1981 -91 1556 -91 
Q 1019 -91 701 211 
Q 384 513 384 1019 
Q 384 1609 779 1909 
Q 1175 2209 1959 2209 
L 2766 2209 
L 2766 2266 
Q 2766 2663 2505 2880 
Q 2244 3097 1772 3097 
Q 1472 3097 1187 3025 
Q 903 2953 641 2809 
L 641 3341 
Q 956 3463 1253 3523 
Q 1550 3584 1831 3584 
Q 2591 3584 2966 3190 
Q 3341 2797 3341 1997 
z
" transform="scale(0.015625)"/>
       <path id="DejaVuSans-79" d="M 2059 -325 
Q 1816 -950 1584 -1140 
Q 1353 -1331 966 -1331 
L 506 -1331 
L 506 -850 
L 844 -850 
Q 1081 -850 1212 -737 
Q 1344 -625 1503 -206 
L 1606 56 
L 191 3500 
L 800 3500 
L 1894 763 
L 2988 3500 
L 3597 3500 
L 2059 -325 
z
" transform="scale(0.015625)"/>
       <path id="DejaVuSans-73" d="M 2834 3397 
L 2834 2853 
Q 2591 2978 2328 3040 
Q 2066 3103 1784 3103 
Q 1356 3103 1142 2972 
Q 928 2841 928 2578 
Q 928 2378 1081 2264 
Q 1234 2150 1697 2047 
L 1894 2003 
Q 2506 1872 2764 1633 
Q 3022 1394 3022 966 
Q 3022 478 2636 193 
Q 2250 -91 1575 -91 
Q 1294 -91 989 -36 
Q 684 19 347 128 
L 347 722 
Q 666 556 975 473 
Q 1284 391 1588 391 
Q 1994 391 2212 530 
Q 2431 669 2431 922 
Q 2431 1156 2273 1281 
Q 2116 1406 1581 1522 
L 1381 1569 
Q 847 1681 609 1914 
Q 372 2147 372 2553 
Q 372 3047 722 3315 
Q 1072 3584 1716 3584 
Q 2034 3584 2315 3537 
Q 2597 3491 2834 3397 
z
" transform="scale(0.015625)"/>
       <path id="DejaVuSans-5d" d="M 1947 4863 
L 1947 -844 
L 622 -844 
L 622 -397 
L 1369 -397 
L 1369 4416 
L 622 4416 
L 622 4863 
L 1947 4863 
z
" transform="scale(0.015625)"/>
      </defs>
      <use xlink:href="#DejaVuSans-74"/>
      <use xlink:href="#DejaVuSans-69" transform="translate(39.208984 0)"/>
      <use xlink:href="#DejaVuSans-6d" transform="translate(66.992188 0)"/>
      <use xlink:href="#DejaVuSans-65" transform="translate(164.404297 0)"/>
      <use xlink:href="#DejaVuSans-20" transform="translate(225.927734 0)"/>
      <use xlink:href="#DejaVuSans-5b" transform="translate(257.714844 0)"/>
      <use xlink:href="#DejaVuSans-64" transform="translate(296.728516 0)"/>
      <use xlink:href="#DejaVuSans-61" transform="translate(360.205078 0)"/>
      <use xlink:href="#DejaVuSans-79" transform="translate(421.484375 0)"/>
      <use xlink:href="#DejaVuSans-73" transform="translate(480.664062 0)"/>
      <use xlink:href="#DejaVuSans-5d" transform="translate(532.763672 0)"/>
     </g>
    </g>
   </g>
   <g id="matplotlib.axis_2">
    <g id="ytick_1">
     <g id="line2d_15">
      <path d="M 57.243438 136.842145 
L 403.2 136.842145 
" clip-path="url(#p9c1581a5bd)" style="fill: none; stroke: #b0b0b0; stroke-width: 0.8; stroke-linecap: square"/>
     </g>
     <g id="line2d_16">
      <defs>
       <path id="md2dccd3f74" d="M 0 0 
L -3.5 0 
" style="stroke: #000000; stroke-width: 0.8"/>
      </defs>
      <g>
       <use xlink:href="#md2dccd3f74" x="57.243438" y="136.842145" style="stroke: #000000; stroke-width: 0.8"/>
      </g>
     </g>
     <g id="text_9">
      <!-- 0.000 -->
      <g transform="translate(24.478125 140.261442) scale(0.09 -0.09)">
       <defs>
        <path id="DejaVuSans-2e" d="M 684 794 
L 1344 794 
L 1344 0 
L 684 0 
L 684 794 
z
" transform="scale(0.015625)"/>
       </defs>
       <use xlink:href="#DejaVuSans-30"/>
       <use xlink:href="#DejaVuSans-2e" transform="translate(63.623047 0)"/>
       <use xlink:href="#DejaVuSans-30" transform="translate(95.410156 0)"/>
       <use xlink:href="#DejaVuSans-30" transform="translate(159.033203 0)"/>
       <use xlink:href="#DejaVuSans-30" transform="translate(222.65625 0)"/>
      </g>
     </g>
    </g>
    <g id="ytick_2">
     <g id="line2d_17">
      <path d="M 57.243438 115.106775 
L 403.2 115.106775 
" clip-path="url(#p9c1581a5bd)" style="fill: none; stroke: #b0b0b0; stroke-width: 0.8; stroke-linecap: square"/>
     </g>
     <g id="line2d_18">
      <g>
       <use xlink:href="#md2dccd3f74" x="57.243438" y="115.106775" style="stroke: #000000; stroke-width: 0.8"/>
      </g>
     </g>
     <g id="text_10">
      <!-- 0.001 -->
      <g transform="translate(24.478125 118.526071) scale(0.09 -0.09)">
       <use xlink:href="#DejaVuSans-30"/>
       <use xlink:href="#DejaVuSans-2e" transform="translate(63.623047 0)"/>
       <use xlink:href="#DejaVuSans-30" transform="translate(95.410156 0)"/>
       <use xlink:href="#DejaVuSans-30" transform="translate(159.033203 0)"/>
       <use xlink:href="#DejaVuSans-31" transform="translate(222.65625 0)"/>
      </g>
     </g>
    </g>
    <g id="ytick_3">
     <g id="line2d_19">
      <path d="M 57.243438 93.371404 
L 403.2 93.371404 
" clip-path="url(#p9c1581a5bd)" style="fill: none; stroke: #b0b0b0; stroke-width: 0.8; stroke-linecap: square"/>
     </g>
     <g id="line2d_20">
      <g>
       <use xlink:href="#md2dccd3f74" x="57.243438" y="93.371404" style="stroke: #000000; stroke-width: 0.8"/>
      </g>
     </g>
     <g id="text_11">
      <!-- 0.002 -->
      <g transform="translate(24.478125 96.790701) scale(0.09 -0.09)">
       <use xlink:href="#DejaVuSans-30"/>
       <use xlink:href="#DejaVuSans-2e" transform="translate(63.623047 0)"/>
       <use xlink:href="#DejaVuSans-30" transform="translate(95.410156 0)"/>
       <use xlink:href="#DejaVuSans-30" transform="translate(159.033203 0)"/>
       <use xlink:href="#DejaVuSans-32" transform="translate(222.65625 0)"/>
      </g>
     </g>
    </g>
    <g id="ytick_4">
     <g id="line2d_21">
      <path d="M 57.243438 71.636033 
L 403.2 71.636033 
" clip-path="url(#p9c1581a5bd)" style="fill: none; stroke: #b0b0b0; stroke-width: 0.8; stroke-linecap: square"/>
     </g>
     <g id="line2d_22">
      <g>
       <use xlink:href="#md2dccd3f74" x="57.243438" y="71.636033" style="stroke: #000000; stroke-width: 0.8"/>
      </g>
     </g>
     <g id="text_12">
      <!-- 0.003 -->
      <g transform="translate(24.478125 75.05533) scale(0.09 -0.09)">
       <defs>
        <path id="DejaVuSans-33" d="M 2597 2516 
Q 3050 2419 3304 2112 
Q 3559 1806 3559 1356 
Q 3559 666 3084 287 
Q 2609 -91 1734 -91 
Q 1441 -91 1130 -33 
Q 819 25 488 141 
L 488 750 
Q 750 597 1062 519 
Q 1375 441 1716 441 
Q 2309 441 2620 675 
Q 2931 909 2931 1356 
Q 2931 1769 2642 2001 
Q 2353 2234 1838 2234 
L 1294 2234 
L 1294 2753 
L 1863 2753 
Q 2328 2753 2575 2939 
Q 2822 3125 2822 3475 
Q 2822 3834 2567 4026 
Q 2313 4219 1838 4219 
Q 1578 4219 1281 4162 
Q 984 4106 628 3988 
L 628 4550 
Q 988 4650 1302 4700 
Q 1616 4750 1894 4750 
Q 2613 4750 3031 4423 
Q 3450 4097 3450 3541 
Q 3450 3153 3228 2886 
Q 3006 2619 2597 2516 
z
" transform="scale(0.015625)"/>
       </defs>
       <use xlink:href="#DejaVuSans-30"/>
       <use xlink:href="#DejaVuSans-2e" transform="translate(63.623047 0)"/>
       <use xlink:href="#DejaVuSans-30" transform="translate(95.410156 0)"/>
       <use xlink:href="#DejaVuSans-30" transform="translate(159.033203 0)"/>
       <use xlink:href="#DejaVuSans-33" transform="translate(222.65625 0)"/>
      </g>
     </g>
    </g>
    <g id="ytick_5">
     <g id="line2d_23">
      <path d="M 57.243438 49.900662 
L 403.2 49.900662 
" clip-path="url(#p9c1581a5bd)" style="fill: none; stroke: #b0b0b0; stroke-width: 0.8; stroke-linecap: square"/>
     </g>
     <g id="line2d_24">
      <g>
       <use xlink:href="#md2dccd3f74" x="57.243438" y="49.900662" style="stroke: #000000; stroke-width: 0.8"/>
      </g>
     </g>
     <g id="text_13">
      <!-- 0.004 -->
      <g transform="translate(24.478125 53.319959) scale(0.09 -0.09)">
       <use xlink:href="#DejaVuSans-30"/>
       <use xlink:href="#DejaVuSans-2e" transform="translate(63.623047 0)"/>
       <use xlink:href="#DejaVuSans-30" transform="translate(95.410156 0)"/>
       <use xlink:href="#DejaVuSans-30" transform="translate(159.033203 0)"/>
       <use xlink:href="#DejaVuSans-34" transform="translate(222.65625 0)"/>
      </g>
     </g>
    </g>
    <g id="ytick_6">
     <g id="line2d_25">
      <path d="M 57.243438 28.165291 
L 403.2 28.165291 
" clip-path="url(#p9c1581a5bd)" style="fill: none; stroke: #b0b0b0; stroke-width: 0.8; stroke-linecap: square"/>
     </g>
     <g id="line2d_26">
      <g>
       <use xlink:href="#md2dccd3f74" x="57.243438" y="28.165291" style="stroke: #000000; stroke-width: 0.8"/>
      </g>
     </g>
     <g id="text_14">
      <!-- 0.005 -->
      <g transform="translate(24.478125 31.584588) scale(0.09 -0.09)">
       <defs>
        <path id="DejaVuSans-35" d="M 691 4666 
L 3169 4666 
L 3169 4134 
L 1269 4134 
L 1269 2991 
Q 1406 3038 1543 3061 
Q 1681 3084 1819 3084 
Q 2600 3084 3056 2656 
Q 3513 2228 3513 1497 
Q 3513 744 3044 326 
Q 2575 -91 1722 -91 
Q 1428 -91 1123 -41 
Q 819 9 494 109 
L 494 744 
Q 775 591 1075 516 
Q 1375 441 1709 441 
Q 2250 441 2565 725 
Q 2881 1009 2881 1497 
Q 2881 1984 2565 2268 
Q 2250 2553 1709 2553 
Q 1456 2553 1204 2497 
Q 953 2441 691 2322 
L 691 4666 
z
" transform="scale(0.015625)"/>
       </defs>
       <use xlink:href="#DejaVuSans-30"/>
       <use xlink:href="#DejaVuSans-2e" transform="translate(63.623047 0)"/>
       <use xlink:href="#DejaVuSans-30" transform="translate(95.410156 0)"/>
       <use xlink:href="#DejaVuSans-30" transform="translate(159.033203 0)"/>
       <use xlink:href="#DejaVuSans-35" transform="translate(222.65625 0)"/>
      </g>
     </g>
    </g>
    <g id="text_15">
     <!-- eccentricity [-] -->
     <g transform="translate(18.398438 111.883125) rotate(-90) scale(0.1 -0.1)">
      <defs>
       <path id="DejaVuSans-63" d="M 3122 3366 
L 3122 2828 
Q 2878 2963 2633 3030 
Q 2388 3097 2138 3097 
Q 1578 3097 1268 2742 
Q 959 2388 959 1747 
Q 959 1106 1268 751 
Q 1578 397 2138 397 
Q 2388 397 2633 464 
Q 2878 531 3122 666 
L 3122 134 
Q 2881 22 2623 -34 
Q 2366 -91 2075 -91 
Q 1284 -91 818 406 
Q 353 903 353 1747 
Q 353 2603 823 3093 
Q 1294 3584 2113 3584 
Q 2378 3584 2631 3529 
Q 2884 3475 3122 3366 
z
" transform="scale(0.015625)"/>
       <path id="DejaVuSans-6e" d="M 3513 2113 
L 3513 0 
L 2938 0 
L 2938 2094 
Q 2938 2591 2744 2837 
Q 2550 3084 2163 3084 
Q 1697 3084 1428 2787 
Q 1159 2491 1159 1978 
L 1159 0 
L 581 0 
L 581 3500 
L 1159 3500 
L 1159 2956 
Q 1366 3272 1645 3428 
Q 1925 3584 2291 3584 
Q 2894 3584 3203 3211 
Q 3513 2838 3513 2113 
z
" transform="scale(0.015625)"/>
       <path id="DejaVuSans-72" d="M 2631 2963 
Q 2534 3019 2420 3045 
Q 2306 3072 2169 3072 
Q 1681 3072 1420 2755 
Q 1159 2438 1159 1844 
L 1159 0 
L 581 0 
L 581 3500 
L 1159 3500 
L 1159 2956 
Q 1341 3275 1631 3429 
Q 1922 3584 2338 3584 
Q 2397 3584 2469 3576 
Q 2541 3569 2628 3553 
L 2631 2963 
z
" transform="scale(0.015625)"/>
       <path id="DejaVuSans-2d" d="M 313 2009 
L 1997 2009 
L 1997 1497 
L 313 1497 
L 313 2009 
z
" transform="scale(0.015625)"/>
      </defs>
      <use xlink:href="#DejaVuSans-65"/>
      <use xlink:href="#DejaVuSans-63" transform="translate(61.523438 0)"/>
      <use xlink:href="#DejaVuSans-63" transform="translate(116.503906 0)"/>
      <use xlink:href="#DejaVuSans-65" transform="translate(171.484375 0)"/>
      <use xlink:href="#DejaVuSans-6e" transform="translate(233.007812 0)"/>
      <use xlink:href="#DejaVuSans-74" transform="translate(296.386719 0)"/>
      <use xlink:href="#DejaVuSans-72" transform="translate(335.595703 0)"/>
      <use xlink:href="#DejaVuSans-69" transform="translate(376.708984 0)"/>
      <use xlink:href="#DejaVuSans-63" transform="translate(404.492188 0)"/>
      <use xlink:href="#DejaVuSans-69" transform="translate(459.472656 0)"/>
      <use xlink:href="#DejaVuSans-74" transform="translate(487.255859 0)"/>
      <use xlink:href="#DejaVuSans-79" transform="translate(526.464844 0)"/>
      <use xlink:href="#DejaVuSans-20" transform="translate(585.644531 0)"/>
      <use xlink:href="#DejaVuSans-5b" transform="translate(617.431641 0)"/>
      <use xlink:href="#DejaVuSans-2d" transform="translate(656.445312 0)"/>
      <use xlink:href="#DejaVuSans-5d" transform="translate(692.529297 0)"/>
     </g>
    </g>
   </g>
   <g id="line2d_27">
    <path d="M 72.968736 125.326817 
L 74.06077 101.92799 
L 75.152805 109.280277 
L 76.24484 110.579572 
L 77.336874 71.586432 
L 78.428909 102.805875 
L 79.520943 102.27053 
L 80.612978 84.557951 
L 81.705013 118.871723 
L 82.797047 117.22746 
L 83.889082 116.8611 
L 84.981116 121.169283 
L 86.073151 86.73263 
L 87.165186 103.614621 
L 88.25722 104.202061 
L 89.349255 71.03372 
L 90.441289 108.303028 
L 91.533324 107.819374 
L 92.625359 99.620794 
L 93.717393 125.057538 
L 94.809428 108.551967 
L 95.901462 113.029501 
L 96.993497 113.548964 
L 98.085532 74.698438 
L 99.177566 101.767714 
L 100.269601 101.453001 
L 101.361635 78.371716 
L 102.45367 114.697746 
L 103.545705 115.444185 
L 104.637739 113.729761 
L 105.729774 124.19822 
L 106.821809 93.696379 
L 107.913843 105.594684 
L 109.005878 106.388769 
L 110.097912 70.24119 
L 111.189947 105.722819 
L 112.281982 105.419371 
L 113.374016 92.69941 
L 114.466051 122.106703 
L 115.558085 114.615441 
L 116.65012 116.194546 
L 117.742155 117.207603 
L 118.834189 79.231061 
L 119.926224 101.302048 
L 121.018258 102.038291 
L 122.110293 74.505367 
L 123.202328 112.27206 
L 124.294362 112.364779 
L 125.386397 107.695918 
L 126.478431 125.388761 
L 127.570466 100.872801 
L 128.662501 108.838092 
L 129.754535 110.09686 
L 130.84657 71.431231 
L 131.938604 103.375737 
L 133.030639 102.694736 
L 134.122674 85.794679 
L 135.214708 119.594983 
L 136.306743 117.145945 
L 137.398777 117.323054 
L 138.490812 120.648408 
L 139.582847 85.869308 
L 140.674881 103.236477 
L 141.766916 103.730436 
L 142.85895 71.474663 
L 143.950985 108.976226 
L 145.04302 108.508439 
L 146.135054 101.016909 
L 147.227089 124.923187 
L 148.319123 107.723348 
L 149.411158 112.554767 
L 150.503193 113.055289 
L 151.595227 73.91979 
L 152.687262 101.878583 
L 153.779296 101.618585 
L 154.871331 79.493811 
L 155.963366 115.393454 
L 157.0554 116.132766 
L 158.147435 114.795018 
L 159.239469 123.618138 
L 160.331504 92.248894 
L 161.423539 105.000846 
L 162.515573 106.132353 
L 163.607608 70.498695 
L 164.699643 106.439227 
L 165.791677 105.923439 
L 166.883712 93.928217 
L 167.975746 122.656899 
L 169.067781 113.887981 
L 170.159816 115.668971 
L 171.25185 116.400086 
L 172.343885 78.264202 
L 173.435919 101.568582 
L 174.527954 102.170271 
L 175.619989 75.439428 
L 176.712023 112.743615 
L 177.804058 112.837981 
L 178.896092 108.932146 
L 179.988127 125.24638 
L 181.080162 99.759465 
L 182.172196 108.358852 
L 183.264231 109.671745 
L 184.356265 71.36403 
L 185.4483 103.926613 
L 186.540335 103.146633 
L 187.632369 87.016848 
L 188.724404 120.074419 
L 189.816438 117.030473 
L 190.908473 117.740429 
L 192.000508 120.168967 
L 193.092542 84.735048 
L 194.184577 102.895064 
L 195.276611 103.378727 
L 196.368646 71.913737 
L 197.460681 109.609073 
L 198.552715 109.313363 
L 199.64475 102.568844 
L 200.736784 124.648107 
L 201.828819 106.871839 
L 202.920854 111.784996 
L 204.012888 112.63814 
L 205.104923 73.429277 
L 206.196957 102.121801 
L 207.288992 101.831285 
L 208.381027 80.695976 
L 209.473061 116.094968 
L 210.565096 116.857045 
L 211.65713 115.685277 
L 212.749165 122.930804 
L 213.8412 90.873768 
L 214.933234 104.639679 
L 216.025269 106.083663 
L 217.117304 70.91998 
L 218.209338 107.010976 
L 219.301373 106.351921 
L 220.393407 95.290115 
L 221.485442 123.167761 
L 222.577477 113.015696 
L 223.669511 115.071391 
L 224.761546 115.672307 
L 225.85358 77.502502 
L 226.945615 102.010081 
L 228.03765 102.175259 
L 229.129684 76.007825 
L 230.221719 113.131593 
L 231.313753 113.4183 
L 232.405788 110.197568 
L 233.497823 125.015357 
L 234.589857 98.609913 
L 235.681892 107.962437 
L 236.773926 109.117295 
L 237.865961 71.258038 
L 238.957996 104.490944 
L 240.05003 103.627636 
L 241.142065 88.30897 
L 242.234099 120.366705 
L 243.326134 116.969707 
L 244.418169 117.84739 
L 245.510203 119.647564 
L 246.602238 83.559364 
L 247.694272 102.613577 
L 248.786307 103.088539 
L 249.878342 72.351557 
L 250.970376 110.241043 
L 252.062411 110.204417 
L 253.154445 104.202852 
L 254.24648 124.556612 
L 255.338515 105.667028 
L 256.430549 111.103884 
L 257.522584 112.29059 
L 258.614618 73.07583 
L 259.706653 102.454261 
L 260.798688 102.114009 
L 261.890722 81.954371 
L 262.982757 116.864052 
L 264.074791 117.507316 
L 265.166826 116.339219 
L 266.258861 122.265321 
L 267.350895 89.725388 
L 268.44293 104.649649 
L 269.534964 105.907513 
L 270.626999 71.251929 
L 271.719034 107.492299 
L 272.811068 106.84317 
L 273.903103 96.797535 
L 274.995138 123.607404 
L 276.087172 111.946123 
L 277.179207 114.524926 
L 278.271241 115.112095 
L 279.363276 77.026164 
L 280.455311 102.263694 
L 281.547345 102.156075 
L 282.63938 76.615687 
L 283.731414 113.490671 
L 284.823449 114.227476 
L 285.915484 111.478814 
L 287.007518 124.686708 
L 288.099553 97.44508 
L 289.191587 107.593499 
L 290.283622 108.432857 
L 291.375657 71.039956 
L 292.467691 104.995572 
L 293.559726 104.311374 
L 294.65176 89.725541 
L 295.743795 120.673905 
L 296.83583 116.825061 
L 297.927864 117.647368 
L 299.019899 119.011209 
L 300.111933 82.501177 
L 301.203968 102.384056 
L 302.296003 102.765016 
L 303.388037 72.929854 
L 304.480072 111.021294 
L 305.572106 111.099629 
L 306.664141 105.586041 
L 307.756176 124.607293 
L 308.84821 104.3399 
L 309.940245 110.644129 
L 311.032279 111.874643 
L 312.124314 72.747164 
L 313.216349 102.841751 
L 314.308383 102.477821 
L 315.400418 83.289232 
L 316.492452 117.728299 
L 317.584487 117.847371 
L 318.676522 116.89217 
L 319.768556 121.675785 
L 320.860591 88.766065 
L 321.952625 104.690074 
L 323.04466 105.511885 
L 324.136695 71.367099 
L 325.228729 107.999281 
L 326.320764 107.47277 
L 327.412798 98.205147 
L 328.504833 124.073628 
L 329.596868 110.795532 
L 330.688902 114.195534 
L 331.780937 114.603984 
L 332.872972 76.525011 
L 333.965006 102.350062 
L 335.057041 102.115605 
L 336.149075 77.520389 
L 337.24111 113.988178 
L 338.333145 115.076227 
L 339.425179 112.74512 
L 340.517214 124.235778 
L 341.609248 96.268323 
L 342.701283 107.095216 
L 343.793318 107.742834 
L 344.885352 70.89158 
L 345.977387 105.48466 
L 347.069421 105.154174 
L 348.161456 91.253048 
L 349.253491 121.098298 
L 350.345525 116.322335 
L 351.43756 117.391244 
L 352.529594 118.284005 
L 353.621629 81.431576 
L 354.713664 102.134213 
L 355.805698 102.635 
L 356.897733 73.764369 
L 357.989767 111.812531 
L 359.081802 111.975477 
L 360.173837 106.632105 
L 361.265871 124.694646 
L 362.357906 103.195458 
L 363.44994 110.241333 
L 364.541975 111.320934 
L 365.63401 72.470284 
L 366.726044 103.350529 
L 367.818079 102.844848 
L 368.910113 84.612212 
L 370.002148 118.612732 
L 371.094183 117.91545 
L 372.186217 117.401939 
L 373.278252 121.095397 
L 374.370286 87.950476 
L 375.462321 104.425265 
L 376.554356 105.009214 
L 377.64639 71.565963 
L 378.738425 108.598212 
L 379.830459 108.149306 
L 380.922494 99.534959 
L 382.014529 124.380528 
L 383.106563 109.723405 
L 384.198598 113.976716 
L 385.290632 114.060795 
L 386.382667 75.708478 
L 387.474702 102.400607 
L 387.474702 102.400607 
" clip-path="url(#p9c1581a5bd)" style="fill: none; stroke: #1f77b4; stroke-width: 1.5; stroke-linecap: square"/>
   </g>
   <g id="line2d_28">
    <path d="M 72.968736 125.326817 
L 74.06077 102.010826 
L 75.152805 108.691418 
L 76.24484 109.690987 
L 77.336874 71.058089 
L 78.428909 102.23485 
L 79.520943 101.482664 
L 80.612978 83.44876 
L 81.705013 119.695589 
L 82.797047 115.691812 
L 83.889082 115.460105 
L 84.981116 120.656721 
L 86.073151 84.293391 
L 87.165186 100.601273 
L 88.25722 101.345322 
L 89.349255 68.841888 
L 90.441289 107.364413 
L 91.533324 105.967584 
L 92.625359 98.087554 
L 93.717393 128.062322 
L 94.809428 105.340278 
L 95.901462 108.973934 
L 96.993497 109.925419 
L 98.085532 70.745487 
L 99.177566 98.183777 
L 100.269601 97.75633 
L 101.361635 75.364706 
L 102.45367 116.792512 
L 103.545705 111.841637 
L 104.637739 110.292892 
L 105.729774 123.460647 
L 106.821809 87.57367 
L 107.913843 99.242931 
L 109.005878 100.070818 
L 110.097912 64.819096 
L 111.189947 101.957404 
L 112.281982 100.140937 
L 113.374016 88.513841 
L 114.466051 128.761367 
L 115.558085 107.223631 
L 116.65012 108.768569 
L 117.742155 111.137964 
L 118.834189 71.585953 
L 119.926224 94.264515 
L 121.018258 94.348194 
L 122.110293 67.810851 
L 123.202328 111.064483 
L 124.294362 106.155276 
L 125.386397 102.629852 
L 126.478431 128.025861 
L 127.570466 91.148209 
L 128.662501 98.662776 
L 129.754535 99.517501 
L 130.84657 62.045923 
L 131.938604 95.848113 
L 133.030639 94.442232 
L 134.122674 78.65315 
L 135.214708 124.143144 
L 136.306743 106.718475 
L 137.398777 106.946375 
L 138.490812 113.638431 
L 139.582847 73.552664 
L 140.674881 91.104912 
L 141.766916 91.568489 
L 142.85895 61.200217 
L 143.950985 103.623533 
L 145.04302 99.496332 
L 146.135054 93.174519 
L 147.227089 133.947401 
L 148.319123 94.409264 
L 149.411158 98.621655 
L 150.503193 100.024459 
L 151.595227 60.701119 
L 152.687262 89.915399 
L 153.779296 89.18864 
L 154.871331 69.023706 
L 155.963366 116.209675 
L 157.0554 103.453821 
L 158.147435 102.510471 
L 159.239469 117.442311 
L 160.331504 76.452046 
L 161.423539 89.039356 
L 162.515573 89.727309 
L 163.607608 55.886772 
L 164.699643 95.553289 
L 165.791677 92.527283 
L 166.883712 82.668281 
L 167.975746 130.546491 
L 169.067781 96.46785 
L 170.159816 98.398687 
L 171.25185 101.80565 
L 172.343885 60.848049 
L 173.435919 84.808655 
L 174.527954 84.699651 
L 175.619989 60.120814 
L 176.712023 106.886342 
L 177.804058 97.917289 
L 178.896092 95.281061 
L 179.988127 121.9547 
L 181.080162 79.873824 
L 182.172196 88.078095 
L 183.264231 89.08964 
L 184.356265 52.137851 
L 185.4483 87.67442 
L 186.540335 85.767562 
L 187.632369 71.797504 
L 188.724404 121.250327 
L 189.816438 96.370457 
L 190.908473 96.882203 
L 192.000508 104.873639 
L 193.092542 62.406867 
L 194.184577 80.943378 
L 195.276611 81.276127 
L 196.368646 52.389416 
L 197.460681 97.089951 
L 198.552715 91.001082 
L 199.64475 85.833635 
L 200.736784 124.810856 
L 201.828819 83.148768 
L 202.920854 87.863869 
L 204.012888 89.832415 
L 205.104923 50.111462 
L 206.196957 80.607588 
L 207.288992 79.65472 
L 208.381027 61.190621 
L 209.473061 110.849993 
L 210.565096 93.594657 
L 211.65713 92.995514 
L 212.749165 108.895169 
L 213.8412 65.120628 
L 214.933234 78.490012 
L 216.025269 79.173929 
L 217.117304 46.1964 
L 218.209338 87.467204 
L 219.301373 83.555783 
L 220.393407 75.014167 
L 221.485442 121.765889 
L 222.577477 85.370549 
L 223.669511 87.639624 
L 224.761546 91.993692 
L 225.85358 49.835526 
L 226.945615 74.807742 
L 228.03765 74.565779 
L 229.129684 51.413447 
L 230.221719 99.922171 
L 231.313753 88.389575 
L 232.405788 86.298641 
L 233.497823 112.866649 
L 234.589857 68.51705 
L 235.681892 77.341138 
L 236.773926 78.575109 
L 237.865961 41.806227 
L 238.957996 78.565476 
L 240.05003 76.2751 
L 241.142065 63.65688 
L 242.234099 113.50475 
L 243.326134 85.593293 
L 244.418169 86.326846 
L 245.510203 95.393847 
L 246.602238 51.184909 
L 247.694272 70.55453 
L 248.786307 70.813846 
L 249.878342 42.953526 
L 250.970376 88.985167 
L 252.062411 81.549939 
L 253.154445 77.153993 
L 254.24648 114.647299 
L 255.338515 71.882988 
L 256.430549 77.067408 
L 257.522584 79.554323 
L 258.614618 39.360699 
L 259.706653 70.848817 
L 260.798688 69.716277 
L 261.890722 52.509603 
L 262.982757 102.965266 
L 264.074791 83.236856 
L 265.166826 82.853572 
L 266.258861 99.49365 
L 267.350895 53.85337 
L 268.44293 67.919095 
L 269.534964 68.63306 
L 270.626999 36.199641 
L 271.719034 78.54937 
L 272.811068 73.987229 
L 273.903103 66.377797 
L 274.995138 111.795748 
L 276.087172 74.301969 
L 277.179207 76.894141 
L 278.271241 82.032238 
L 279.363276 38.860908 
L 280.455311 64.672822 
L 281.547345 64.325958 
L 282.63938 42.220768 
L 283.731414 91.588029 
L 284.823449 78.408606 
L 285.915484 76.6551 
L 287.007518 103.161752 
L 288.099553 57.323563 
L 289.191587 66.720603 
L 290.283622 68.157601 
L 291.375657 31.421885 
L 292.467691 69.095569 
L 293.559726 66.506628 
L 294.65176 54.880079 
L 295.743795 104.340898 
L 296.83583 74.838757 
L 297.927864 75.77545 
L 299.019899 85.700606 
L 300.111933 40.147819 
L 301.203968 60.244218 
L 302.296003 60.447072 
L 303.388037 33.330554 
L 304.480072 80.184784 
L 305.572106 71.799574 
L 306.664141 67.920336 
L 307.756176 104.5471 
L 308.84821 60.852896 
L 309.940245 66.48446 
L 311.032279 69.394051 
L 312.124314 28.754613 
L 313.216349 61.042416 
L 314.308383 59.762949 
L 315.400418 43.50204 
L 316.492452 94.145802 
L 317.584487 72.887105 
L 318.676522 72.665328 
L 319.768556 89.900205 
L 320.860591 42.879096 
L 321.952625 57.574821 
L 323.04466 58.311843 
L 324.136695 26.257755 
L 325.228729 69.371627 
L 326.320764 64.32189 
L 327.412798 57.382261 
L 328.504833 101.864438 
L 329.596868 63.52027 
L 330.688902 66.428379 
L 331.780937 72.180286 
L 332.872972 28.181433 
L 333.965006 54.706446 
L 335.057041 54.269227 
L 336.149075 32.968227 
L 337.24111 82.773671 
L 338.333145 68.464953 
L 339.425179 66.940102 
L 340.517214 93.467661 
L 341.609248 46.50576 
L 342.701283 56.436316 
L 343.793318 58.026954 
L 344.885352 21.285308 
L 345.977387 59.665488 
L 347.069421 56.843382 
L 348.161456 45.967546 
L 349.253491 94.965055 
L 350.345525 64.400039 
L 351.43756 65.535685 
L 352.529594 76.11919 
L 353.621629 29.519446 
L 354.713664 50.256701 
L 355.805698 50.403684 
L 356.897733 23.87177 
L 357.989767 71.255078 
L 359.081802 62.176752 
L 360.173837 58.664589 
L 361.265871 94.754146 
L 362.357906 50.266247 
L 363.44994 56.324631 
L 364.541975 59.55159 
L 365.63401 18.547238 
L 366.726044 51.490152 
L 367.818079 50.090819 
L 368.910113 34.576365 
L 370.002148 85.185715 
L 371.094183 62.870698 
L 372.186217 62.789651 
L 373.278252 80.47926 
L 374.370286 32.400697 
L 375.462321 47.668342 
L 376.554356 48.406389 
L 377.64639 16.664162 
L 378.738425 60.330219 
L 379.830459 54.912735 
L 380.922494 48.480927 
L 382.014529 92.291216 
L 383.106563 53.238299 
L 384.198598 56.455375 
L 385.290632 62.663021 
L 386.382667 18.017108 
L 387.474702 45.151371 
L 387.474702 45.151371 
" clip-path="url(#p9c1581a5bd)" style="fill: none; stroke-dasharray: 5.55,2.4; stroke-dashoffset: 0; stroke: #d62728; stroke-width: 1.5"/>
   </g>
   <g id="patch_3">
    <path d="M 57.243438 139.811562 
L 57.243438 10.8 
" style="fill: none; stroke: #000000; stroke-width: 0.8; stroke-linejoin: miter; stroke-linecap: square"/>
   </g>
   <g id="patch_4">
    <path d="M 403.2 139.811562 
L 403.2 10.8 
" style="fill: none; stroke: #000000; stroke-width: 0.8; stroke-linejoin: miter; stroke-linecap: square"/>
   </g>
   <g id="patch_5">
    <path d="M 57.243438 139.811563 
L 403.2 139.811563 
" style="fill: none; stroke: #000000; stroke-width: 0.8; stroke-linejoin: miter; stroke-linecap: square"/>
   </g>
   <g id="patch_6">
    <path d="M 57.243438 10.8 
L 403.2 10.8 
" style="fill: none; stroke: #000000; stroke-width: 0.8; stroke-linejoin: miter; stroke-linecap: square"/>
   </g>
   <g id="legend_1">
    <g id="patch_7">
     <path d="M 63.543438 44.420625 
L 211.049219 44.420625 
Q 212.849219 44.420625 212.849219 42.620625 
L 212.849219 17.1 
Q 212.849219 15.3 211.049219 15.3 
L 63.543438 15.3 
Q 61.743438 15.3 61.743438 17.1 
L 61.743438 42.620625 
Q 61.743438 44.420625 63.543438 44.420625 
z
" style="fill: #ffffff; opacity: 0.8; stroke: #cccccc; stroke-linejoin: miter"/>
    </g>
    <g id="line2d_29">
     <path d="M 65.343438 22.588594 
L 74.343438 22.588594 
L 83.343438 22.588594 
" style="fill: none; stroke: #1f77b4; stroke-width: 1.5; stroke-linecap: square"/>
    </g>
    <g id="text_16">
     <!-- Earth rotating (consistent) -->
     <g transform="translate(90.543438 25.738594) scale(0.09 -0.09)">
      <defs>
       <path id="DejaVuSans-45" d="M 628 4666 
L 3578 4666 
L 3578 4134 
L 1259 4134 
L 1259 2753 
L 3481 2753 
L 3481 2222 
L 1259 2222 
L 1259 531 
L 3634 531 
L 3634 0 
L 628 0 
L 628 4666 
z
" transform="scale(0.015625)"/>
       <path id="DejaVuSans-68" d="M 3513 2113 
L 3513 0 
L 2938 0 
L 2938 2094 
Q 2938 2591 2744 2837 
Q 2550 3084 2163 3084 
Q 1697 3084 1428 2787 
Q 1159 2491 1159 1978 
L 1159 0 
L 581 0 
L 581 4863 
L 1159 4863 
L 1159 2956 
Q 1366 3272 1645 3428 
Q 1925 3584 2291 3584 
Q 2894 3584 3203 3211 
Q 3513 2838 3513 2113 
z
" transform="scale(0.015625)"/>
       <path id="DejaVuSans-6f" d="M 1959 3097 
Q 1497 3097 1228 2736 
Q 959 2375 959 1747 
Q 959 1119 1226 758 
Q 1494 397 1959 397 
Q 2419 397 2687 759 
Q 2956 1122 2956 1747 
Q 2956 2369 2687 2733 
Q 2419 3097 1959 3097 
z
M 1959 3584 
Q 2709 3584 3137 3096 
Q 3566 2609 3566 1747 
Q 3566 888 3137 398 
Q 2709 -91 1959 -91 
Q 1206 -91 779 398 
Q 353 888 353 1747 
Q 353 2609 779 3096 
Q 1206 3584 1959 3584 
z
" transform="scale(0.015625)"/>
       <path id="DejaVuSans-67" d="M 2906 1791 
Q 2906 2416 2648 2759 
Q 2391 3103 1925 3103 
Q 1463 3103 1205 2759 
Q 947 2416 947 1791 
Q 947 1169 1205 825 
Q 1463 481 1925 481 
Q 2391 481 2648 825 
Q 2906 1169 2906 1791 
z
M 3481 434 
Q 3481 -459 3084 -895 
Q 2688 -1331 1869 -1331 
Q 1566 -1331 1297 -1286 
Q 1028 -1241 775 -1147 
L 775 -588 
Q 1028 -725 1275 -790 
Q 1522 -856 1778 -856 
Q 2344 -856 2625 -561 
Q 2906 -266 2906 331 
L 2906 616 
Q 2728 306 2450 153 
Q 2172 0 1784 0 
Q 1141 0 747 490 
Q 353 981 353 1791 
Q 353 2603 747 3093 
Q 1141 3584 1784 3584 
Q 2172 3584 2450 3431 
Q 2728 3278 2906 2969 
L 2906 3500 
L 3481 3500 
L 3481 434 
z
" transform="scale(0.015625)"/>
       <path id="DejaVuSans-28" d="M 1984 4856 
Q 1566 4138 1362 3434 
Q 1159 2731 1159 2009 
Q 1159 1288 1364 580 
Q 1569 -128 1984 -844 
L 1484 -844 
Q 1016 -109 783 600 
Q 550 1309 550 2009 
Q 550 2706 781 3412 
Q 1013 4119 1484 4856 
L 1984 4856 
z
" transform="scale(0.015625)"/>
       <path id="DejaVuSans-29" d="M 513 4856 
L 1013 4856 
Q 1481 4119 1714 3412 
Q 1947 2706 1947 2009 
Q 1947 1309 1714 600 
Q 1481 -109 1013 -844 
L 513 -844 
Q 928 -128 1133 580 
Q 1338 1288 1338 2009 
Q 1338 2731 1133 3434 
Q 928 4138 513 4856 
z
" transform="scale(0.015625)"/>
      </defs>
      <use xlink:href="#DejaVuSans-45"/>
      <use xlink:href="#DejaVuSans-61" transform="translate(63.183594 0)"/>
      <use xlink:href="#DejaVuSans-72" transform="translate(124.462891 0)"/>
      <use xlink:href="#DejaVuSans-74" transform="translate(165.576172 0)"/>
      <use xlink:href="#DejaVuSans-68" transform="translate(204.785156 0)"/>
      <use xlink:href="#DejaVuSans-20" transform="translate(268.164062 0)"/>
      <use xlink:href="#DejaVuSans-72" transform="translate(299.951172 0)"/>
      <use xlink:href="#DejaVuSans-6f" transform="translate(338.814453 0)"/>
      <use xlink:href="#DejaVuSans-74" transform="translate(399.996094 0)"/>
      <use xlink:href="#DejaVuSans-61" transform="translate(439.205078 0)"/>
      <use xlink:href="#DejaVuSans-74" transform="translate(500.484375 0)"/>
      <use xlink:href="#DejaVuSans-69" transform="translate(539.693359 0)"/>
      <use xlink:href="#DejaVuSans-6e" transform="translate(567.476562 0)"/>
      <use xlink:href="#DejaVuSans-67" transform="translate(630.855469 0)"/>
      <use xlink:href="#DejaVuSans-20" transform="translate(694.332031 0)"/>
      <use xlink:href="#DejaVuSans-28" transform="translate(726.119141 0)"/>
      <use xlink:href="#DejaVuSans-63" transform="translate(765.132812 0)"/>
      <use xlink:href="#DejaVuSans-6f" transform="translate(820.113281 0)"/>
      <use xlink:href="#DejaVuSans-6e" transform="translate(881.294922 0)"/>
      <use xlink:href="#DejaVuSans-73" transform="translate(944.673828 0)"/>
      <use xlink:href="#DejaVuSans-69" transform="translate(996.773438 0)"/>
      <use xlink:href="#DejaVuSans-73" transform="translate(1024.556641 0)"/>
      <use xlink:href="#DejaVuSans-74" transform="translate(1076.65625 0)"/>
      <use xlink:href="#DejaVuSans-65" transform="translate(1115.865234 0)"/>
      <use xlink:href="#DejaVuSans-6e" transform="translate(1177.388672 0)"/>
      <use xlink:href="#DejaVuSans-74" transform="translate(1240.767578 0)"/>
      <use xlink:href="#DejaVuSans-29" transform="translate(1279.976562 0)"/>
     </g>
    </g>
    <g id="line2d_30">
     <path d="M 65.343438 35.798906 
L 74.343438 35.798906 
L 83.343438 35.798906 
" style="fill: none; stroke-dasharray: 5.55,2.4; stroke-dashoffset: 0; stroke: #d62728; stroke-width: 1.5"/>
    </g>
    <g id="text_17">
     <!-- Earth non-rotating -->
     <g transform="translate(90.543438 38.948906) scale(0.09 -0.09)">
      <use xlink:href="#DejaVuSans-45"/>
      <use xlink:href="#DejaVuSans-61" transform="translate(63.183594 0)"/>
      <use xlink:href="#DejaVuSans-72" transform="translate(124.462891 0)"/>
      <use xlink:href="#DejaVuSans-74" transform="translate(165.576172 0)"/>
      <use xlink:href="#DejaVuSans-68" transform="translate(204.785156 0)"/>
      <use xlink:href="#DejaVuSans-20" transform="translate(268.164062 0)"/>
      <use xlink:href="#DejaVuSans-6e" transform="translate(299.951172 0)"/>
      <use xlink:href="#DejaVuSans-6f" transform="translate(363.330078 0)"/>
      <use xlink:href="#DejaVuSans-6e" transform="translate(424.511719 0)"/>
      <use xlink:href="#DejaVuSans-2d" transform="translate(487.890625 0)"/>
      <use xlink:href="#DejaVuSans-72" transform="translate(523.974609 0)"/>
      <use xlink:href="#DejaVuSans-6f" transform="translate(562.837891 0)"/>
      <use xlink:href="#DejaVuSans-74" transform="translate(624.019531 0)"/>
      <use xlink:href="#DejaVuSans-61" transform="translate(663.228516 0)"/>
      <use xlink:href="#DejaVuSans-74" transform="translate(724.507812 0)"/>
      <use xlink:href="#DejaVuSans-69" transform="translate(763.716797 0)"/>
      <use xlink:href="#DejaVuSans-6e" transform="translate(791.5 0)"/>
      <use xlink:href="#DejaVuSans-67" transform="translate(854.878906 0)"/>
     </g>
    </g>
   </g>
  </g>
 </g>
 <defs>
  <clipPath id="p9c1581a5bd">
   <rect x="57.243438" y="10.8" width="345.956562" height="129.011562"/>
  </clipPath>
 </defs>
</svg>
