<?xml version="1.0" encoding="utf-8" standalone="no"?>
<!DOCTYPE svg PUBLIC "-//W3C//DTD SVG 1.1//EN"
  "http://www.w3.org/Graphics/SVG/1.1/DTD/svg11.dtd">
<svg xmlns:xlink="http://www.w3.org/1999/xlink" width="414pt" height="180pt" viewBox="0 0 414 180" xmlns="http://www.w3.org/2000/svg" version="1.1">
 <metadata>
  <rdf:RDF xmlns:dc="http://purl.org/dc/elements/1.1/" xmlns:cc="http://creativecommons.org/ns#" xmlns:rdf="http://www.w3.org/1999/02/22-rdf-syntax-ns#">
   <cc:Work>
    <dc:type rdf:resource="http://purl.org/dc/dcmitype/StillImage"/>
    <dc:date>2026-04-02T23:03:08.369313</dc:date>
    <dc:format>image/svg+xml</dc:format>
    <dc:creator>
     <cc:Agent>
      <dc:title>Matplotlib v3.10.7, https://matplotlib.org/</dc:title>
     </cc:Agent>
    </dc:creator>
   </cc:Work>
  </rdf:RDF>
 </metadata>
 <defs>
  <style type="text/css">*{stroke-linejoin: round; stroke-linecap: butt}</style>
 </defs>
 <g id="figure_1">
  <g id="patch_1">
   <path d="M 0 180 
L 414 180 
L 414 0 
L 0 0 
L 0 180 
z
" style="fill: none"/>
  </g>
  <g id="axes_1">
   <g id="patch_2">
    <path d="M 54.354531 139.811563 
L 403.2 139.811563 
L 403.2 10.8 
L 54.354531 10.8 
L 54.354531 139.811563 
z
" style="fill: none"/>
   </g>
   <g id="matplotlib.axis_1">
    <g id="xtick_1">
     <g id="line2d_1">
      <defs>
       <path id="m8421d4dfec" d="M 0 0 
L 0 3.5 
" style="stroke: #000000; stroke-width: 0.8"/>
      </defs>
      <g>
       <use xlink:href="#m8421d4dfec" x="70.127928" y="139.811563" style="stroke: #000000; stroke-width: 0.8"/>
      </g>
     </g>
     <g id="text_1">
      <!-- 0 -->
      <g transform="translate(67.264803 153.650156) scale(0.09 -0.09)">
       <defs>
        <path id="DejaVuSans-30" d="M 2034 4250 
Q 1547 4250 1301 3770 
Q 1056 3291 1056 2328 
Q 1056 1369 1301 889 
Q 1547 409 2034 409 
Q 2525 409 2770 889 
Q 3016 1369 3016 2328 
Q 3016 3291 2770 3770 
Q 2525 4250 2034 4250 
z
M 2034 4750 
Q 2819 4750 3233 4129 
Q 3647 3509 3647 2328 
Q 3647 1150 3233 529 
Q 2819 -91 2034 -91 
Q 1250 -91 836 529 
Q 422 1150 422 2328 
Q 422 3509 836 4129 
Q 1250 4750 2034 4750 
z
" transform="scale(0.015625)"/>
       </defs>
       <use xlink:href="#DejaVuSans-30"/>
      </g>
     </g>
    </g>
    <g id="xtick_2">
     <g id="line2d_2">
      <g>
       <use xlink:href="#m8421d4dfec" x="130.042706" y="139.811563" style="stroke: #000000; stroke-width: 0.8"/>
      </g>
     </g>
     <g id="text_2">
      <!-- 2 -->
      <g transform="translate(127.179581 153.650156) scale(0.09 -0.09)">
       <defs>
        <path id="DejaVuSans-32" d="M 1228 531 
L 3431 531 
L 3431 0 
L 469 0 
L 469 531 
Q 828 903 1448 1529 
Q 2069 2156 2228 2338 
Q 2531 2678 2651 2914 
Q 2772 3150 2772 3378 
Q 2772 3750 2511 3984 
Q 2250 4219 1831 4219 
Q 1534 4219 1204 4116 
Q 875 4013 500 3803 
L 500 4441 
Q 881 4594 1212 4672 
Q 1544 4750 1819 4750 
Q 2544 4750 2975 4387 
Q 3406 4025 3406 3419 
Q 3406 3131 3298 2873 
Q 3191 2616 2906 2266 
Q 2828 2175 2409 1742 
Q 1991 1309 1228 531 
z
" transform="scale(0.015625)"/>
       </defs>
       <use xlink:href="#DejaVuSans-32"/>
      </g>
     </g>
    </g>
    <g id="xtick_3">
     <g id="line2d_3">
      <g>
       <use xlink:href="#m8421d4dfec" x="189.957483" y="139.811563" style="stroke: #000000; stroke-width: 0.8"/>
      </g>
     </g>
     <g id="text_3">
      <!-- 4 -->
      <g transform="translate(187.094358 153.650156) scale(0.09 -0.09)">
       <defs>
        <path id="DejaVuSans-34" d="M 2419 4116 
L 825 1625 
L 2419 1625 
L 2419 4116 
z
M 2253 4666 
L 3047 4666 
L 3047 1625 
L 3713 1625 
L 3713 1100 
L 3047 1100 
L 3047 0 
L 2419 0 
L 2419 1100 
L 313 1100 
L 313 1709 
L 2253 4666 
z
" transform="scale(0.015625)"/>
       </defs>
       <use xlink:href="#DejaVuSans-34"/>
      </g>
     </g>
    </g>
    <g id="xtick_4">
     <g id="line2d_4">
      <g>
       <use xlink:href="#m8421d4dfec" x="249.87226" y="139.811563" style="stroke: #000000; stroke-width: 0.8"/>
      </g>
     </g>
     <g id="text_4">
      <!-- 6 -->
      <g transform="translate(247.009135 153.650156) scale(0.09 -0.09)">
       <defs>
        <path id="DejaVuSans-36" d="M 2113 2584 
Q 1688 2584 1439 2293 
Q 1191 2003 1191 1497 
Q 1191 994 1439 701 
Q 1688 409 2113 409 
Q 2538 409 2786 701 
Q 3034 994 3034 1497 
Q 3034 2003 2786 2293 
Q 2538 2584 2113 2584 
z
M 3366 4563 
L 3366 3988 
Q 3128 4100 2886 4159 
Q 2644 4219 2406 4219 
Q 1781 4219 1451 3797 
Q 1122 3375 1075 2522 
Q 1259 2794 1537 2939 
Q 1816 3084 2150 3084 
Q 2853 3084 3261 2657 
Q 3669 2231 3669 1497 
Q 3669 778 3244 343 
Q 2819 -91 2113 -91 
Q 1303 -91 875 529 
Q 447 1150 447 2328 
Q 447 3434 972 4092 
Q 1497 4750 2381 4750 
Q 2619 4750 2861 4703 
Q 3103 4656 3366 4563 
z
" transform="scale(0.015625)"/>
       </defs>
       <use xlink:href="#DejaVuSans-36"/>
      </g>
     </g>
    </g>
    <g id="xtick_5">
     <g id="line2d_5">
      <g>
       <use xlink:href="#m8421d4dfec" x="309.787037" y="139.811563" style="stroke: #000000; stroke-width: 0.8"/>
      </g>
     </g>
     <g id="text_5">
      <!-- 8 -->
      <g transform="translate(306.923912 153.650156) scale(0.09 -0.09)">
       <defs>
        <path id="DejaVuSans-38" d="M 2034 2216 
Q 1584 2216 1326 1975 
Q 1069 1734 1069 1313 
Q 1069 891 1326 650 
Q 1584 409 2034 409 
Q 2484 409 2743 651 
Q 3003 894 3003 1313 
Q 3003 1734 2745 1975 
Q 2488 2216 2034 2216 
z
M 1403 2484 
Q 997 2584 770 2862 
Q 544 3141 544 3541 
Q 544 4100 942 4425 
Q 1341 4750 2034 4750 
Q 2731 4750 3128 4425 
Q 3525 4100 3525 3541 
Q 3525 3141 3298 2862 
Q 3072 2584 2669 2484 
Q 3125 2378 3379 2068 
Q 3634 1759 3634 1313 
Q 3634 634 3220 271 
Q 2806 -91 2034 -91 
Q 1263 -91 848 271 
Q 434 634 434 1313 
Q 434 1759 690 2068 
Q 947 2378 1403 2484 
z
M 1172 3481 
Q 1172 3119 1398 2916 
Q 1625 2713 2034 2713 
Q 2441 2713 2670 2916 
Q 2900 3119 2900 3481 
Q 2900 3844 2670 4047 
Q 2441 4250 2034 4250 
Q 1625 4250 1398 4047 
Q 1172 3844 1172 3481 
z
" transform="scale(0.015625)"/>
       </defs>
       <use xlink:href="#DejaVuSans-38"/>
      </g>
     </g>
    </g>
    <g id="xtick_6">
     <g id="line2d_6">
      <g>
       <use xlink:href="#m8421d4dfec" x="369.701814" y="139.811563" style="stroke: #000000; stroke-width: 0.8"/>
      </g>
     </g>
     <g id="text_6">
      <!-- 10 -->
      <g transform="translate(363.975564 153.650156) scale(0.09 -0.09)">
       <defs>
        <path id="DejaVuSans-31" d="M 794 531 
L 1825 531 
L 1825 4091 
L 703 3866 
L 703 4441 
L 1819 4666 
L 2450 4666 
L 2450 531 
L 3481 531 
L 3481 0 
L 794 0 
L 794 531 
z
" transform="scale(0.015625)"/>
       </defs>
       <use xlink:href="#DejaVuSans-31"/>
       <use xlink:href="#DejaVuSans-30" transform="translate(63.623047 0)"/>
      </g>
     </g>
    </g>
    <g id="text_7">
     <!-- Time [hr] -->
     <g transform="translate(205.828828 167.120313) scale(0.1 -0.1)">
      <defs>
       <path id="DejaVuSans-54" d="M -19 4666 
L 3928 4666 
L 3928 4134 
L 2272 4134 
L 2272 0 
L 1638 0 
L 1638 4134 
L -19 4134 
L -19 4666 
z
" transform="scale(0.015625)"/>
       <path id="DejaVuSans-69" d="M 603 3500 
L 1178 3500 
L 1178 0 
L 603 0 
L 603 3500 
z
M 603 4863 
L 1178 4863 
L 1178 4134 
L 603 4134 
L 603 4863 
z
" transform="scale(0.015625)"/>
       <path id="DejaVuSans-6d" d="M 3328 2828 
Q 3544 3216 3844 3400 
Q 4144 3584 4550 3584 
Q 5097 3584 5394 3201 
Q 5691 2819 5691 2113 
L 5691 0 
L 5113 0 
L 5113 2094 
Q 5113 2597 4934 2840 
Q 4756 3084 4391 3084 
Q 3944 3084 3684 2787 
Q 3425 2491 3425 1978 
L 3425 0 
L 2847 0 
L 2847 2094 
Q 2847 2600 2669 2842 
Q 2491 3084 2119 3084 
Q 1678 3084 1418 2786 
Q 1159 2488 1159 1978 
L 1159 0 
L 581 0 
L 581 3500 
L 1159 3500 
L 1159 2956 
Q 1356 3278 1631 3431 
Q 1906 3584 2284 3584 
Q 2666 3584 2933 3390 
Q 3200 3197 3328 2828 
z
" transform="scale(0.015625)"/>
       <path id="DejaVuSans-65" d="M 3597 1894 
L 3597 1613 
L 953 1613 
Q 991 1019 1311 708 
Q 1631 397 2203 397 
Q 2534 397 2845 478 
Q 3156 559 3463 722 
L 3463 178 
Q 3153 47 2828 -22 
Q 2503 -91 2169 -91 
Q 1331 -91 842 396 
Q 353 884 353 1716 
Q 353 2575 817 3079 
Q 1281 3584 2069 3584 
Q 2775 3584 3186 3129 
Q 3597 2675 3597 1894 
z
M 3022 2063 
Q 3016 2534 2758 2815 
Q 2500 3097 2075 3097 
Q 1594 3097 1305 2825 
Q 1016 2553 972 2059 
L 3022 2063 
z
" transform="scale(0.015625)"/>
       <path id="DejaVuSans-20" transform="scale(0.015625)"/>
       <path id="DejaVuSans-5b" d="M 550 4863 
L 1875 4863 
L 1875 4416 
L 1125 4416 
L 1125 -397 
L 1875 -397 
L 1875 -844 
L 550 -844 
L 550 4863 
z
" transform="scale(0.015625)"/>
       <path id="DejaVuSans-68" d="M 3513 2113 
L 3513 0 
L 2938 0 
L 2938 2094 
Q 2938 2591 2744 2837 
Q 2550 3084 2163 3084 
Q 1697 3084 1428 2787 
Q 1159 2491 1159 1978 
L 1159 0 
L 581 0 
L 581 4863 
L 1159 4863 
L 1159 2956 
Q 1366 3272 1645 3428 
Q 1925 3584 2291 3584 
Q 2894 3584 3203 3211 
Q 3513 2838 3513 2113 
z
" transform="scale(0.015625)"/>
       <path id="DejaVuSans-72" d="M 2631 2963 
Q 2534 3019 2420 3045 
Q 2306 3072 2169 3072 
Q 1681 3072 1420 2755 
Q 1159 2438 1159 1844 
L 1159 0 
L 581 0 
L 581 3500 
L 1159 3500 
L 1159 2956 
Q 1341 3275 1631 3429 
Q 1922 3584 2338 3584 
Q 2397 3584 2469 3576 
Q 2541 3569 2628 3553 
L 2631 2963 
z
" transform="scale(0.015625)"/>
       <path id="DejaVuSans-5d" d="M 1947 4863 
L 1947 -844 
L 622 -844 
L 622 -397 
L 1369 -397 
L 1369 4416 
L 622 4416 
L 622 4863 
L 1947 4863 
z
" transform="scale(0.015625)"/>
      </defs>
      <use xlink:href="#DejaVuSans-54"/>
      <use xlink:href="#DejaVuSans-69" transform="translate(57.958984 0)"/>
      <use xlink:href="#DejaVuSans-6d" transform="translate(85.742188 0)"/>
      <use xlink:href="#DejaVuSans-65" transform="translate(183.154297 0)"/>
      <use xlink:href="#DejaVuSans-20" transform="translate(244.677734 0)"/>
      <use xlink:href="#DejaVuSans-5b" transform="translate(276.464844 0)"/>
      <use xlink:href="#DejaVuSans-68" transform="translate(315.478516 0)"/>
      <use xlink:href="#DejaVuSans-72" transform="translate(378.857422 0)"/>
      <use xlink:href="#DejaVuSans-5d" transform="translate(419.970703 0)"/>
     </g>
    </g>
   </g>
   <g id="matplotlib.axis_2">
    <g id="ytick_1">
     <g id="line2d_7">
      <defs>
       <path id="mb87e84f23a" d="M 0 0 
L -3.5 0 
" style="stroke: #000000; stroke-width: 0.8"/>
      </defs>
      <g>
       <use xlink:href="#mb87e84f23a" x="54.354531" y="131.237115" style="stroke: #000000; stroke-width: 0.8"/>
      </g>
     </g>
     <g id="text_8">
      <!-- −0.6 -->
      <g transform="translate(25.5 134.656412) scale(0.09 -0.09)">
       <defs>
        <path id="DejaVuSans-2212" d="M 678 2272 
L 4684 2272 
L 4684 1741 
L 678 1741 
L 678 2272 
z
" transform="scale(0.015625)"/>
        <path id="DejaVuSans-2e" d="M 684 794 
L 1344 794 
L 1344 0 
L 684 0 
L 684 794 
z
" transform="scale(0.015625)"/>
       </defs>
       <use xlink:href="#DejaVuSans-2212"/>
       <use xlink:href="#DejaVuSans-30" transform="translate(83.789062 0)"/>
       <use xlink:href="#DejaVuSans-2e" transform="translate(147.412109 0)"/>
       <use xlink:href="#DejaVuSans-36" transform="translate(179.199219 0)"/>
      </g>
     </g>
    </g>
    <g id="ytick_2">
     <g id="line2d_8">
      <g>
       <use xlink:href="#mb87e84f23a" x="54.354531" y="108.355641" style="stroke: #000000; stroke-width: 0.8"/>
      </g>
     </g>
     <g id="text_9">
      <!-- −0.4 -->
      <g transform="translate(25.5 111.774938) scale(0.09 -0.09)">
       <use xlink:href="#DejaVuSans-2212"/>
       <use xlink:href="#DejaVuSans-30" transform="translate(83.789062 0)"/>
       <use xlink:href="#DejaVuSans-2e" transform="translate(147.412109 0)"/>
       <use xlink:href="#DejaVuSans-34" transform="translate(179.199219 0)"/>
      </g>
     </g>
    </g>
    <g id="ytick_3">
     <g id="line2d_9">
      <g>
       <use xlink:href="#mb87e84f23a" x="54.354531" y="85.474167" style="stroke: #000000; stroke-width: 0.8"/>
      </g>
     </g>
     <g id="text_10">
      <!-- −0.2 -->
      <g transform="translate(25.5 88.893464) scale(0.09 -0.09)">
       <use xlink:href="#DejaVuSans-2212"/>
       <use xlink:href="#DejaVuSans-30" transform="translate(83.789062 0)"/>
       <use xlink:href="#DejaVuSans-2e" transform="translate(147.412109 0)"/>
       <use xlink:href="#DejaVuSans-32" transform="translate(179.199219 0)"/>
      </g>
     </g>
    </g>
    <g id="ytick_4">
     <g id="line2d_10">
      <g>
       <use xlink:href="#mb87e84f23a" x="54.354531" y="62.592693" style="stroke: #000000; stroke-width: 0.8"/>
      </g>
     </g>
     <g id="text_11">
      <!-- 0.0 -->
      <g transform="translate(33.041719 66.01199) scale(0.09 -0.09)">
       <use xlink:href="#DejaVuSans-30"/>
       <use xlink:href="#DejaVuSans-2e" transform="translate(63.623047 0)"/>
       <use xlink:href="#DejaVuSans-30" transform="translate(95.410156 0)"/>
      </g>
     </g>
    </g>
    <g id="ytick_5">
     <g id="line2d_11">
      <g>
       <use xlink:href="#mb87e84f23a" x="54.354531" y="39.711219" style="stroke: #000000; stroke-width: 0.8"/>
      </g>
     </g>
     <g id="text_12">
      <!-- 0.2 -->
      <g transform="translate(33.041719 43.130516) scale(0.09 -0.09)">
       <use xlink:href="#DejaVuSans-30"/>
       <use xlink:href="#DejaVuSans-2e" transform="translate(63.623047 0)"/>
       <use xlink:href="#DejaVuSans-32" transform="translate(95.410156 0)"/>
      </g>
     </g>
    </g>
    <g id="ytick_6">
     <g id="line2d_12">
      <g>
       <use xlink:href="#mb87e84f23a" x="54.354531" y="16.829745" style="stroke: #000000; stroke-width: 0.8"/>
      </g>
     </g>
     <g id="text_13">
      <!-- 0.4 -->
      <g transform="translate(33.041719 20.249042) scale(0.09 -0.09)">
       <use xlink:href="#DejaVuSans-30"/>
       <use xlink:href="#DejaVuSans-2e" transform="translate(63.623047 0)"/>
       <use xlink:href="#DejaVuSans-34" transform="translate(95.410156 0)"/>
      </g>
     </g>
    </g>
    <g id="text_14">
     <!-- $(\rho_{stoch} / \rho_{exp}) - 1$ [-] -->
     <g transform="translate(18.4 120.055781) rotate(-90) scale(0.1 -0.1)">
      <defs>
       <path id="DejaVuSans-28" d="M 1984 4856 
Q 1566 4138 1362 3434 
Q 1159 2731 1159 2009 
Q 1159 1288 1364 580 
Q 1569 -128 1984 -844 
L 1484 -844 
Q 1016 -109 783 600 
Q 550 1309 550 2009 
Q 550 2706 781 3412 
Q 1013 4119 1484 4856 
L 1984 4856 
z
" transform="scale(0.015625)"/>
       <path id="DejaVuSans-Oblique-3c1" d="M 1203 2875 
Q 1453 3194 1981 3475 
Q 2188 3584 2756 3584 
Q 3394 3584 3694 3078 
Q 3994 2572 3834 1747 
Q 3672 922 3175 415 
Q 2678 -91 2041 -91 
Q 1656 -91 1409 63 
Q 1163 213 1044 525 
L 681 -1331 
L 103 -1331 
L 697 1716 
Q 838 2438 1203 2875 
z
M 3238 1747 
Q 3359 2381 3169 2744 
Q 2978 3103 2522 3103 
Q 2066 3103 1734 2744 
Q 1403 2381 1281 1747 
Q 1156 1113 1347 750 
Q 1538 391 1994 391 
Q 2450 391 2781 750 
Q 3113 1113 3238 1747 
z
" transform="scale(0.015625)"/>
       <path id="DejaVuSans-Oblique-73" d="M 3200 3397 
L 3091 2853 
Q 2863 2978 2609 3040 
Q 2356 3103 2088 3103 
Q 1634 3103 1373 2948 
Q 1113 2794 1113 2528 
Q 1113 2219 1719 2053 
Q 1766 2041 1788 2034 
L 1972 1978 
Q 2547 1819 2739 1644 
Q 2931 1469 2931 1166 
Q 2931 609 2489 259 
Q 2047 -91 1331 -91 
Q 1053 -91 747 -37 
Q 441 16 72 128 
L 184 722 
Q 500 559 806 475 
Q 1113 391 1394 391 
Q 1816 391 2080 572 
Q 2344 753 2344 1031 
Q 2344 1331 1650 1516 
L 1591 1531 
L 1394 1581 
Q 956 1697 753 1886 
Q 550 2075 550 2369 
Q 550 2928 970 3256 
Q 1391 3584 2113 3584 
Q 2397 3584 2667 3537 
Q 2938 3491 3200 3397 
z
" transform="scale(0.015625)"/>
       <path id="DejaVuSans-Oblique-74" d="M 2706 3500 
L 2619 3053 
L 1472 3053 
L 1100 1153 
Q 1081 1047 1072 975 
Q 1063 903 1063 863 
Q 1063 663 1183 572 
Q 1303 481 1569 481 
L 2150 481 
L 2053 0 
L 1503 0 
Q 991 0 739 200 
Q 488 400 488 806 
Q 488 878 497 964 
Q 506 1050 525 1153 
L 897 3053 
L 409 3053 
L 500 3500 
L 978 3500 
L 1172 4494 
L 1747 4494 
L 1556 3500 
L 2706 3500 
z
" transform="scale(0.015625)"/>
       <path id="DejaVuSans-Oblique-6f" d="M 1625 -91 
Q 1009 -91 651 289 
Q 294 669 294 1325 
Q 294 1706 417 2101 
Q 541 2497 738 2766 
Q 1047 3184 1428 3384 
Q 1809 3584 2291 3584 
Q 2888 3584 3255 3212 
Q 3622 2841 3622 2241 
Q 3622 1825 3500 1412 
Q 3378 1000 3181 728 
Q 2875 309 2494 109 
Q 2113 -91 1625 -91 
z
M 891 1344 
Q 891 869 1089 633 
Q 1288 397 1691 397 
Q 2269 397 2648 901 
Q 3028 1406 3028 2181 
Q 3028 2634 2825 2865 
Q 2622 3097 2228 3097 
Q 1903 3097 1650 2945 
Q 1397 2794 1197 2484 
Q 1050 2253 970 1956 
Q 891 1659 891 1344 
z
" transform="scale(0.015625)"/>
       <path id="DejaVuSans-Oblique-63" d="M 3431 3366 
L 3316 2797 
Q 3109 2947 2876 3022 
Q 2644 3097 2394 3097 
Q 2119 3097 1870 3000 
Q 1622 2903 1453 2725 
Q 1184 2453 1037 2087 
Q 891 1722 891 1331 
Q 891 859 1127 628 
Q 1363 397 1844 397 
Q 2081 397 2348 469 
Q 2616 541 2906 684 
L 2797 116 
Q 2547 13 2283 -39 
Q 2019 -91 1741 -91 
Q 1044 -91 669 257 
Q 294 606 294 1253 
Q 294 1797 489 2255 
Q 684 2713 1069 3078 
Q 1331 3328 1684 3456 
Q 2038 3584 2456 3584 
Q 2700 3584 2940 3529 
Q 3181 3475 3431 3366 
z
" transform="scale(0.015625)"/>
       <path id="DejaVuSans-Oblique-68" d="M 3566 2113 
L 3156 0 
L 2578 0 
L 2988 2091 
Q 3016 2238 3031 2350 
Q 3047 2463 3047 2528 
Q 3047 2791 2881 2937 
Q 2716 3084 2419 3084 
Q 1956 3084 1617 2771 
Q 1278 2459 1178 1941 
L 800 0 
L 225 0 
L 1172 4863 
L 1747 4863 
L 1375 2950 
Q 1594 3244 1934 3414 
Q 2275 3584 2650 3584 
Q 3113 3584 3367 3334 
Q 3622 3084 3622 2631 
Q 3622 2519 3608 2391 
Q 3594 2263 3566 2113 
z
" transform="scale(0.015625)"/>
       <path id="DejaVuSans-2f" d="M 1625 4666 
L 2156 4666 
L 531 -594 
L 0 -594 
L 1625 4666 
z
" transform="scale(0.015625)"/>
       <path id="DejaVuSans-Oblique-65" d="M 3078 2063 
Q 3088 2113 3092 2166 
Q 3097 2219 3097 2272 
Q 3097 2653 2873 2875 
Q 2650 3097 2266 3097 
Q 1838 3097 1509 2826 
Q 1181 2556 1013 2059 
L 3078 2063 
z
M 3578 1613 
L 903 1613 
Q 884 1494 878 1425 
Q 872 1356 872 1306 
Q 872 872 1139 634 
Q 1406 397 1894 397 
Q 2269 397 2603 481 
Q 2938 566 3225 728 
L 3116 159 
Q 2806 34 2476 -28 
Q 2147 -91 1806 -91 
Q 1078 -91 686 257 
Q 294 606 294 1247 
Q 294 1794 489 2264 
Q 684 2734 1063 3103 
Q 1306 3334 1642 3459 
Q 1978 3584 2356 3584 
Q 2950 3584 3301 3228 
Q 3653 2872 3653 2272 
Q 3653 2128 3634 1964 
Q 3616 1800 3578 1613 
z
" transform="scale(0.015625)"/>
       <path id="DejaVuSans-Oblique-78" d="M 3841 3500 
L 2234 1784 
L 3219 0 
L 2559 0 
L 1819 1388 
L 531 0 
L -166 0 
L 1556 1844 
L 641 3500 
L 1300 3500 
L 1972 2234 
L 3144 3500 
L 3841 3500 
z
" transform="scale(0.015625)"/>
       <path id="DejaVuSans-Oblique-70" d="M 3175 2156 
Q 3175 2616 2975 2859 
Q 2775 3103 2400 3103 
Q 2144 3103 1911 2972 
Q 1678 2841 1497 2591 
Q 1319 2344 1212 1994 
Q 1106 1644 1106 1300 
Q 1106 863 1306 627 
Q 1506 391 1875 391 
Q 2147 391 2380 519 
Q 2613 647 2778 891 
Q 2956 1147 3065 1494 
Q 3175 1841 3175 2156 
z
M 1394 2969 
Q 1625 3272 1939 3428 
Q 2253 3584 2638 3584 
Q 3175 3584 3472 3232 
Q 3769 2881 3769 2247 
Q 3769 1728 3584 1258 
Q 3400 788 3053 416 
Q 2822 169 2531 39 
Q 2241 -91 1919 -91 
Q 1547 -91 1294 64 
Q 1041 219 916 525 
L 556 -1331 
L -19 -1331 
L 922 3500 
L 1497 3500 
L 1394 2969 
z
" transform="scale(0.015625)"/>
       <path id="DejaVuSans-29" d="M 513 4856 
L 1013 4856 
Q 1481 4119 1714 3412 
Q 1947 2706 1947 2009 
Q 1947 1309 1714 600 
Q 1481 -109 1013 -844 
L 513 -844 
Q 928 -128 1133 580 
Q 1338 1288 1338 2009 
Q 1338 2731 1133 3434 
Q 928 4138 513 4856 
z
" transform="scale(0.015625)"/>
       <path id="DejaVuSans-2d" d="M 313 2009 
L 1997 2009 
L 1997 1497 
L 313 1497 
L 313 2009 
z
" transform="scale(0.015625)"/>
      </defs>
      <use xlink:href="#DejaVuSans-28" transform="translate(0 0.015625)"/>
      <use xlink:href="#DejaVuSans-Oblique-3c1" transform="translate(39.013672 0.015625)"/>
      <use xlink:href="#DejaVuSans-Oblique-73" transform="translate(102.490234 -16.390625) scale(0.7)"/>
      <use xlink:href="#DejaVuSans-Oblique-74" transform="translate(138.959961 -16.390625) scale(0.7)"/>
      <use xlink:href="#DejaVuSans-Oblique-6f" transform="translate(166.40625 -16.390625) scale(0.7)"/>
      <use xlink:href="#DejaVuSans-Oblique-63" transform="translate(209.233398 -16.390625) scale(0.7)"/>
      <use xlink:href="#DejaVuSans-Oblique-68" transform="translate(247.719727 -16.390625) scale(0.7)"/>
      <use xlink:href="#DejaVuSans-2f" transform="translate(294.819336 0.015625)"/>
      <use xlink:href="#DejaVuSans-Oblique-3c1" transform="translate(328.510742 0.015625)"/>
      <use xlink:href="#DejaVuSans-Oblique-65" transform="translate(391.987305 -16.390625) scale(0.7)"/>
      <use xlink:href="#DejaVuSans-Oblique-78" transform="translate(435.053711 -16.390625) scale(0.7)"/>
      <use xlink:href="#DejaVuSans-Oblique-70" transform="translate(476.479492 -16.390625) scale(0.7)"/>
      <use xlink:href="#DejaVuSans-29" transform="translate(523.647461 0.015625)"/>
      <use xlink:href="#DejaVuSans-2212" transform="translate(582.143555 0.015625)"/>
      <use xlink:href="#DejaVuSans-31" transform="translate(685.415039 0.015625)"/>
      <use xlink:href="#DejaVuSans-20" transform="translate(749.038086 0.015625)"/>
      <use xlink:href="#DejaVuSans-5b" transform="translate(780.825195 0.015625)"/>
      <use xlink:href="#DejaVuSans-2d" transform="translate(819.838867 0.015625)"/>
      <use xlink:href="#DejaVuSans-5d" transform="translate(855.922852 0.015625)"/>
     </g>
    </g>
   </g>
   <g id="line2d_13">
    <path d="M 70.211143 66.281367 
L 70.377573 58.896162 
L 70.544003 66.281409 
L 70.627218 66.281429 
L 70.710433 58.896244 
L 70.876863 76.903071 
L 70.960078 75.963785 
L 71.043293 67.72237 
L 71.126508 74.327084 
L 71.209723 54.578451 
L 71.292938 73.997545 
L 71.376153 65.93006 
L 71.459368 84.345266 
L 71.542583 75.362699 
L 71.625798 92.943718 
L 71.709013 90.585938 
L 71.958658 84.691589 
L 72.041873 75.678476 
L 72.125088 81.579647 
L 72.291518 59.956805 
L 72.374733 78.900227 
L 72.457948 77.784483 
L 72.624378 57.833809 
L 72.790807 65.399032 
L 72.874022 65.477351 
L 72.957237 77.200547 
L 73.123667 67.970202 
L 73.373312 65.770459 
L 73.456527 72.547959 
L 73.539742 64.60916 
L 73.622957 71.489374 
L 73.706172 51.992587 
L 73.789387 59.988584 
L 73.872602 53.160602 
L 74.039032 61.516186 
L 74.288677 76.621908 
L 74.371892 70.788312 
L 74.538322 47.755032 
L 74.621537 42.009228 
L 74.704752 50.888215 
L 74.787967 33.213981 
L 74.871182 35.485993 
L 75.037612 39.445071 
L 75.120827 48.550876 
L 75.204042 38.468417 
L 75.453686 65.518943 
L 75.536901 58.20257 
L 75.703331 65.706403 
L 75.786546 58.373573 
L 75.869761 58.420852 
L 75.952976 54.197526 
L 76.036191 55.267238 
L 76.285836 57.941631 
L 76.535481 38.635422 
L 76.618696 33.697121 
L 76.785126 37.959725 
L 76.868341 47.197122 
L 76.951556 41.501839 
L 77.117986 56.095928 
L 77.284416 56.572286 
L 77.367631 75.814265 
L 77.534061 66.821379 
L 77.617276 66.122178 
L 77.700491 61.21863 
L 77.866921 72.697747 
L 78.03335 64.23219 
L 78.116565 75.412431 
L 78.19978 73.953681 
L 78.282995 72.623971 
L 78.36621 78.795934 
L 78.53264 69.299925 
L 78.615855 80.031972 
L 78.69907 78.164872 
L 78.782285 83.846859 
L 78.8655 74.91153 
L 78.948715 85.147285 
L 79.03193 71.17804 
L 79.115145 77.477968 
L 79.36479 56.765056 
L 79.53122 57.129946 
L 79.614435 45.638977 
L 79.69765 46.813913 
L 79.86408 38.242055 
L 79.947295 47.454881 
L 80.03051 30.089287 
L 80.19694 53.997301 
L 80.280155 47.702731 
L 80.446585 61.249648 
L 80.5298 61.044359 
L 80.779444 81.860284 
L 80.862659 79.832364 
L 80.945874 97.016191 
L 81.029089 86.917614 
L 81.112304 91.825813 
L 81.278734 57.862169 
L 81.361949 57.956794 
L 81.445164 58.043087 
L 81.611594 87.844009 
L 81.694809 78.55704 
L 81.778024 84.20471 
L 81.861239 82.622773 
L 81.944454 81.18077 
L 82.110884 71.285156 
L 82.277314 69.197472 
L 82.443744 56.844601 
L 82.610174 68.84671 
L 82.859819 66.443524 
L 82.943034 73.162614 
L 83.109464 64.623468 
L 83.192679 71.503546 
L 83.275893 71.045381 
L 83.442323 70.247106 
L 83.608753 39.935646 
L 83.775183 61.149089 
L 83.858398 54.224327 
L 84.024828 62.404584 
L 84.108043 43.721277 
L 84.191258 45.067561 
L 84.274473 53.677228 
L 84.357688 47.41356 
L 84.440903 48.433396 
L 84.607333 61.858011 
L 84.690548 61.600496 
L 84.773763 49.718395 
L 84.856978 57.916802 
L 84.940193 39.63121 
L 85.106623 72.543427 
L 85.273053 49.228695 
L 85.356268 50.741154 
L 85.439483 44.737759 
L 85.522698 53.376697 
L 85.605913 35.493247 
L 85.689128 44.949763 
L 85.772343 39.458727 
L 85.855558 48.564559 
L 86.105202 34.875275 
L 86.271632 50.59234 
L 86.354847 47.066792 
L 86.604492 30.415492 
L 86.687707 33.592136 
L 86.854137 49.744164 
L 86.937352 43.829723 
L 87.020567 45.167327 
L 87.270212 48.511424 
L 87.353427 56.81676 
L 87.519857 28.781811 
L 87.603072 38.831998 
L 87.686287 33.882951 
L 87.769502 47.746718 
L 87.852717 37.091862 
L 87.935932 39.025586 
L 88.019147 48.169863 
L 88.102362 42.395182 
L 88.352007 75.117343 
L 88.435222 62.695007 
L 88.518436 63.017378 
L 88.768081 44.795981 
L 88.851296 46.048578 
L 89.017726 67.25859 
L 89.100941 67.177484 
L 89.184156 67.103564 
L 89.267371 55.390327 
L 89.350586 56.358856 
L 89.433801 57.241745 
L 89.517016 50.665285 
L 89.600231 70.426018 
L 89.683446 70.064893 
L 89.849876 50.408692 
L 89.933091 58.546331 
L 90.099521 40.837522 
L 90.182736 61.467269 
L 90.265951 54.517323 
L 90.349166 62.291614 
L 90.432381 55.268808 
L 90.682026 84.868357 
L 90.848456 71.121144 
L 91.014886 80.929255 
L 91.098101 67.993923 
L 91.26453 89.976184 
L 91.59739 64.665029 
L 91.680605 64.160831 
L 91.76382 71.082267 
L 91.847035 70.663307 
L 92.26311 86.78058 
L 92.346325 84.973334 
L 92.59597 69.839739 
L 92.679185 62.149653 
L 92.7624 69.24891 
L 92.845615 49.965705 
L 92.92883 58.142446 
L 93.012045 39.841443 
L 93.09526 48.91352 
L 93.178475 43.074042 
L 93.344905 63.75666 
L 93.42812 63.985512 
L 93.511335 56.813118 
L 93.59455 64.384277 
L 93.677765 57.176604 
L 93.76098 57.334604 
L 93.927409 75.606426 
L 94.010624 74.787305 
L 94.177054 95.620874 
L 94.260269 93.031753 
L 94.343484 79.026188 
L 94.426699 82.168974 
L 94.593129 75.011384 
L 94.676344 85.890244 
L 94.759559 76.78054 
L 94.842774 94.231253 
L 94.925989 84.38388 
L 95.175634 96.214765 
L 95.258849 93.572993 
L 95.508494 69.910537 
L 95.591709 68.942147 
L 95.674924 56.413807 
L 95.758139 64.020101 
L 95.841354 56.844179 
L 95.924569 57.031234 
L 96.007784 57.20173 
L 96.090999 64.738314 
L 96.257429 53.363385 
L 96.340644 66.156627 
L 96.507073 43.925937 
L 96.590288 57.553767 
L 96.673503 39.303632 
L 96.839933 60.623194 
L 96.923148 61.128597 
L 97.006363 65.853826 
L 97.089578 84.271047 
L 97.256008 63.242073 
L 97.422438 92.160806 
L 97.672083 68.838882 
L 97.755298 67.964747 
L 97.838513 86.195411 
L 97.921728 84.439111 
L 98.254588 78.835461 
L 98.337803 89.376127 
L 98.587448 64.759639 
L 98.670663 71.627566 
L 98.753878 71.159293 
L 98.920308 52.345112 
L 99.003523 71.957299 
L 99.169952 63.624476 
L 99.253167 82.239251 
L 99.419597 68.933251 
L 99.502812 61.3212 
L 99.586027 68.493084 
L 99.752457 38.481899 
L 100.002102 64.76974 
L 100.085317 64.254663 
L 100.168532 75.431981 
L 100.251747 73.973949 
L 100.334962 80.026826 
L 100.418177 71.433205 
L 100.584607 87.320938 
L 100.751037 76.389538 
L 100.834252 82.228732 
L 101.083897 60.371849 
L 101.167112 60.245262 
L 101.250327 67.512079 
L 101.333542 60.024587 
L 101.416757 78.958291 
L 101.499972 77.840783 
L 101.749616 52.781811 
L 101.832831 65.626596 
L 101.999261 36.09603 
L 102.082476 45.498313 
L 102.248906 29.98755 
L 102.332121 39.929992 
L 102.415336 34.880939 
L 102.581766 38.947004 
L 102.748196 49.708259 
L 102.831411 43.794224 
L 102.914626 45.132941 
L 102.997841 46.353239 
L 103.081056 54.848342 
L 103.164271 48.479544 
L 103.247486 49.403795 
L 103.330701 45.980873 
L 103.663561 71.715381 
L 103.746776 71.237552 
L 103.913206 70.404836 
L 103.996421 62.659807 
L 104.079636 69.712769 
L 104.162851 69.411881 
L 104.246066 57.488946 
L 104.49571 69.307649 
L 104.66214 61.417466 
L 104.82857 80.028131 
L 104.911785 78.814764 
L 105.078215 69.317057 
L 105.244645 67.559919 
L 105.32786 74.179415 
L 105.411075 73.483083 
L 105.49429 61.199134 
L 105.577505 61.650623 
L 105.66072 62.062156 
L 105.743935 43.404514 
L 105.82715 44.77658 
L 105.99358 47.167349 
L 106.076795 36.557158 
L 106.243225 51.986698 
L 106.409655 42.53905 
L 106.49287 51.371101 
L 106.576085 45.307694 
L 106.6593 65.544541 
L 106.742515 58.227646 
L 106.82573 58.28853 
L 106.908945 58.344001 
L 106.992159 46.744766 
L 107.075374 55.20485 
L 107.241804 38.046503 
L 107.408234 48.957987 
L 107.491449 50.491406 
L 107.741094 24.671015 
L 107.824309 27.699115 
L 108.073954 63.984132 
L 108.157169 64.188575 
L 108.240384 45.340625 
L 108.406814 77.289027 
L 108.490029 64.666499 
L 108.573244 64.810502 
L 108.656459 76.5921 
L 108.739674 75.681442 
L 108.822889 55.8167 
L 108.906104 56.090216 
L 108.989319 56.339524 
L 109.072534 63.951007 
L 109.155749 52.507648 
L 109.238964 53.726751 
L 109.405394 78.121837 
L 109.488609 77.075736 
L 109.571823 64.471513 
L 109.655038 64.632526 
L 109.738253 64.779284 
L 109.821468 57.528675 
L 109.904683 57.650581 
L 110.237543 58.039379 
L 110.320758 65.500497 
L 110.403973 46.53509 
L 110.487188 47.629094 
L 110.570403 44.359964 
L 110.820048 49.678737 
L 110.903263 39.496799 
L 110.986478 41.866219 
L 111.069693 55.677055 
L 111.152908 37.580025 
L 111.236123 46.850442 
L 111.319338 41.184934 
L 111.402553 42.751966 
L 111.485768 51.565011 
L 111.568983 45.482527 
L 111.735413 59.402547 
L 111.901843 59.318312 
L 111.985058 66.666331 
L 112.151488 54.951369 
L 112.401132 57.701032 
L 112.567562 74.040031 
L 112.733992 56.593941 
L 112.900422 58.232775 
L 112.983637 51.56046 
L 113.066852 52.209852 
L 113.150067 71.837752 
L 113.316497 48.62754 
L 113.482927 62.233946 
L 113.649357 43.883364 
L 113.815787 64.428143 
L 113.982217 45.706637 
L 114.065432 54.258462 
L 114.148647 36.286354 
L 114.231862 38.28654 
L 114.315077 40.109849 
L 114.481507 61.29261 
L 114.564722 61.734458 
L 114.814366 72.5207 
L 114.897581 64.584885 
L 114.980796 71.467258 
L 115.064011 51.973396 
L 115.147226 59.971085 
L 115.230441 53.145144 
L 115.313656 61.03922 
L 115.396871 54.118846 
L 115.480086 73.578021 
L 115.563301 53.897601 
L 115.646516 61.725157 
L 115.812946 50.845705 
L 115.896161 52.211569 
L 116.062591 65.212403 
L 116.145806 46.27198 
L 116.229021 54.77396 
L 116.312236 48.407845 
L 116.395451 68.372051 
L 116.478666 68.188044 
L 116.645096 78.488141 
L 116.728311 77.409544 
L 116.894741 63.879091 
L 116.977956 68.358931 
L 117.061171 63.256701 
L 117.144386 67.791606 
L 117.227601 67.006 
L 117.310816 54.638938 
L 117.394031 62.401075 
L 117.477245 55.360771 
L 117.56046 55.674575 
L 117.72689 56.221436 
L 117.89332 64.060392 
L 117.976535 64.257972 
L 118.142965 52.951532 
L 118.22618 54.131603 
L 118.309395 66.85807 
L 118.475825 59.378626 
L 118.55904 59.337346 
L 118.642255 66.684093 
L 118.72547 54.999186 
L 118.808685 67.648924 
L 118.8919 55.878777 
L 118.975115 61.066426 
L 119.05833 60.876016 
L 119.141545 56.436218 
L 119.22476 57.308367 
L 119.307975 58.103409 
L 119.55762 41.056519 
L 119.72405 51.4598 
L 119.807265 52.772218 
L 119.89048 46.584463 
L 120.056909 56.053367 
L 120.223339 57.7858 
L 120.306554 51.154872 
L 120.472984 59.85131 
L 120.556199 60.42184 
L 120.805844 43.844632 
L 120.972274 53.777116 
L 121.055489 47.50112 
L 121.138704 67.544806 
L 121.388349 49.240855 
L 121.471564 50.097069 
L 121.637994 58.972861 
L 121.721209 59.621473 
L 122.137284 30.150559 
L 122.470144 50.16682 
L 122.553359 44.211018 
L 122.636574 45.512515 
L 122.886218 67.798998 
L 122.969433 60.284112 
L 123.052648 67.547677 
L 123.135863 60.055129 
L 123.385508 87.464145 
L 123.551938 83.888691 
L 123.718368 73.534611 
L 123.884798 90.098015 
L 123.968013 80.611693 
L 124.134443 99.214099 
L 124.300873 77.520722 
L 124.467303 75.626878 
L 124.633733 56.052083 
L 124.883378 56.751812 
L 124.966593 52.679709 
L 125.133023 65.603916 
L 125.216238 65.667372 
L 125.382667 46.747197 
L 125.549097 56.191168 
L 125.632312 57.087218 
L 125.715527 38.873459 
L 125.798742 48.030851 
L 125.881957 38.000797 
L 125.965172 40.505694 
L 126.464462 51.511736 
L 126.630892 54.016356 
L 126.797322 38.097902 
L 126.880537 39.941697 
L 126.963752 53.269864 
L 127.046967 49.506846 
L 127.130182 43.612351 
L 127.213397 52.350809 
L 127.296612 41.939849 
L 127.379827 44.096905 
L 127.463042 46.063228 
L 127.629472 60.106741 
L 127.712687 49.010192 
L 127.795902 50.542109 
L 127.879117 44.556532 
L 128.045546 54.372012 
L 128.211976 26.748482 
L 128.295191 36.978464 
L 128.378406 32.192738 
L 128.628051 38.683339 
L 128.794481 49.492043 
L 128.960911 33.311382 
L 129.293771 59.247299 
L 129.376986 52.492767 
L 129.543416 60.967234 
L 129.626631 61.442319 
L 129.709846 73.521655 
L 129.793061 72.886501 
L 129.876276 53.279854 
L 129.959491 72.809749 
L 130.042706 72.23763 
L 130.125921 52.688595 
L 130.209136 60.624652 
L 130.292351 53.748811 
L 130.458781 62.011267 
L 130.541996 62.394287 
L 130.62521 74.389351 
L 130.708425 73.677726 
L 130.79164 73.02906 
L 130.95807 94.160476 
L 131.041285 91.700428 
L 131.1245 77.812241 
L 131.207715 81.062513 
L 131.29093 86.489313 
L 131.374145 84.707762 
L 131.540575 59.342144 
L 131.62379 52.58034 
L 131.707005 60.526042 
L 131.95665 43.940889 
L 132.206295 47.58495 
L 132.28951 60.236816 
L 132.372725 48.479085 
L 132.45594 49.406539 
L 132.539155 50.251989 
L 132.705585 59.106175 
L 132.872015 38.069804 
L 132.95523 40.570647 
L 133.12166 33.283272 
L 133.288089 38.873061 
L 133.454519 24.492024 
L 133.620949 49.34622 
L 133.704164 31.824118 
L 134.120239 70.585876 
L 134.286669 62.489141 
L 134.536314 61.635621 
L 134.619529 68.780579 
L 134.785959 56.725013 
L 134.869174 57.576299 
L 135.035604 36.799927 
L 135.118819 39.413333 
L 135.202034 34.415002 
L 135.285249 36.586623 
L 135.451679 29.755795 
L 135.701324 54.837087 
L 135.784539 48.474822 
L 135.867753 56.783662 
L 135.950968 50.24927 
L 136.034183 70.045853 
L 136.117398 69.719179 
L 136.200613 69.421396 
L 136.283828 61.769399 
L 136.367043 68.902507 
L 136.533473 38.831324 
L 136.616688 40.612435 
L 136.699903 53.880651 
L 136.783118 50.066772 
L 136.866333 51.506964 
L 136.949548 45.439263 
L 137.032763 46.635987 
L 137.115978 43.462796 
L 137.199193 49.751089 
L 137.365623 40.694966 
L 137.448838 30.66664 
L 137.532053 40.55029 
L 137.615268 23.806931 
L 137.781698 48.77657 
L 137.864913 31.305712 
L 138.031343 53.977868 
L 138.280988 28.277673 
L 138.364203 30.992027 
L 138.530632 43.102344 
L 138.613847 45.158362 
L 138.780277 59.355816 
L 139.113137 33.849388 
L 139.196352 55.09614 
L 139.279567 37.066196 
L 139.612427 71.517397 
L 139.695642 71.060425 
L 139.862072 80.879021 
L 139.945287 60.56879 
L 140.111717 82.558001 
L 140.194932 80.471877 
L 140.278147 85.950852 
L 140.361362 76.836724 
L 140.444577 82.637157 
L 140.527792 81.196678 
L 140.777437 56.274258 
L 140.860652 57.165096 
L 141.027082 39.691731 
L 141.193511 50.330769 
L 141.276726 51.747131 
L 141.359941 45.657467 
L 141.443156 46.834348 
L 141.609586 38.269843 
L 141.692801 40.099986 
L 141.859231 50.669808 
L 142.025661 23.67842 
L 142.108876 26.798838 
L 142.192091 29.643286 
L 142.275306 39.617049 
L 142.358521 30.33543 
L 142.608166 39.068561 
L 142.691381 34.099619 
L 142.774596 36.298294 
L 142.941026 50.744939 
L 143.024241 47.207182 
L 143.190671 53.676383 
L 143.273886 54.143676 
L 143.357101 50.305229 
L 143.440316 51.723351 
L 143.523531 64.661539 
L 143.606746 57.428937 
L 143.689961 76.59093 
L 143.773175 75.684426 
L 144.02282 55.421099 
L 144.272465 56.278775 
L 144.438895 46.115599 
L 144.52211 47.251146 
L 144.605325 48.286244 
L 144.771755 39.473872 
L 144.85497 29.550752 
L 144.938185 39.532416 
L 145.0214 34.521369 
L 145.104615 44.063446 
L 145.18783 27.005602 
L 145.271045 29.830872 
L 145.437475 34.753891 
L 145.52069 44.275368 
L 145.603905 38.844595 
L 145.770335 49.625223 
L 145.85355 32.074975 
L 145.936765 34.451733 
L 146.103195 27.976832 
L 146.18641 30.715931 
L 146.269625 52.24081 
L 146.352839 46.105249 
L 146.519269 55.658213 
L 146.602484 49.220311 
L 146.768914 58.246588 
L 146.852129 51.579657 
L 147.018559 60.206997 
L 147.184989 61.241905 
L 147.268204 54.309868 
L 147.434634 62.475507 
L 147.517849 43.787419 
L 147.850709 78.124753 
L 147.933924 77.081383 
L 148.100354 75.263209 
L 148.266784 62.105185 
L 148.349999 62.478336 
L 148.433214 55.436321 
L 148.516429 63.128482 
L 148.599644 56.028884 
L 148.849289 78.060776 
L 148.932504 83.75215 
L 149.015718 74.828508 
L 149.098933 80.805702 
L 149.182148 79.524845 
L 149.265363 78.357233 
L 149.348578 81.557993 
L 149.431793 79.557664 
L 149.515008 85.1166 
L 149.598223 83.454381 
L 149.681438 81.939128 
L 149.931083 48.502946 
L 150.014298 56.80808 
L 150.097513 50.26655 
L 150.180728 51.033144 
L 150.263943 59.114499 
L 150.347158 40.720977 
L 150.513588 54.417686 
L 150.596803 54.817045 
L 150.680018 62.563746 
L 150.763233 55.512861 
L 150.846448 67.463371 
L 150.929663 66.708955 
L 151.012878 73.403991 
L 151.179308 64.822762 
L 151.262523 64.301751 
L 151.345738 71.209632 
L 151.428953 70.776662 
L 151.512168 70.381954 
L 151.595382 50.99086 
L 151.678597 51.692907 
L 151.761812 52.332844 
L 152.011457 71.933918 
L 152.344317 38.246958 
L 152.510747 53.609461 
L 153.093252 17.465978 
L 153.259682 31.857672 
L 153.342897 23.255243 
L 153.426112 27.062507 
L 153.509327 23.149749 
L 153.592542 26.313369 
L 153.758972 49.828244 
L 153.842187 43.902113 
L 153.925402 52.61385 
L 154.008617 46.441318 
L 154.091832 47.54508 
L 154.175047 48.551218 
L 154.341476 79.956126 
L 154.507906 77.648509 
L 154.591121 80.911174 
L 154.674336 78.966523 
L 154.923981 64.424764 
L 155.007196 82.970975 
L 155.090411 81.497052 
L 155.256841 68.309429 
L 155.423271 60.586696 
L 155.672916 60.182299 
L 155.756131 67.454253 
L 155.839346 59.968731 
L 156.005776 82.060239 
L 156.088991 80.013714 
L 156.172206 66.4985 
L 156.338636 94.869942 
L 156.421851 84.959781 
L 156.505066 90.040544 
L 156.754711 66.279691 
L 156.837926 73.012399 
L 156.92114 65.035063 
L 157.170785 84.881478 
L 157.254 89.969143 
L 157.42043 67.964486 
L 157.58686 66.434884 
L 157.670075 54.120032 
L 157.75329 61.928053 
L 157.836505 50.66472 
L 158.002935 63.927494 
L 158.08615 56.753343 
L 158.25258 64.502799 
L 158.41901 42.536741 
L 158.502225 37.254223 
L 158.668655 58.91974 
L 158.75187 59.572348 
L 158.835085 52.783266 
L 159.001515 76.089732 
L 159.167945 58.300488 
L 159.25116 59.007849 
L 159.334375 52.268653 
L 159.41759 60.240435 
L 159.500804 53.392235 
L 159.584019 65.530758 
L 159.667234 64.945705 
L 159.833664 63.926239 
L 159.916879 51.832969 
L 160.000094 71.49342 
L 160.166524 63.231329 
L 160.249739 62.849633 
L 160.332954 58.235589 
L 160.416169 39.914566 
L 160.499384 41.594906 
L 160.582599 43.126652 
L 160.749029 53.179775 
L 160.832244 46.95602 
L 160.998674 56.361822 
L 161.081889 57.240693 
L 161.248319 40.768343 
L 161.331534 42.373258 
L 161.497964 63.173663 
L 161.581179 56.066189 
L 161.914039 84.632859 
L 161.997254 83.01166 
L 162.163683 90.806471 
L 162.246898 88.639327 
L 162.330113 79.2799 
L 162.496543 87.487622 
L 162.662973 72.038167 
L 162.746188 78.261786 
L 162.829403 65.554158 
L 162.912618 65.620304 
L 162.995833 58.29672 
L 163.079048 70.00163 
L 163.162263 57.371594 
L 163.245478 64.892301 
L 163.411908 35.47742 
L 163.495123 44.934386 
L 163.578338 35.17433 
L 163.661553 37.927276 
L 163.744768 28.786966 
L 163.911198 35.129288 
L 163.994413 30.502506 
L 164.077628 44.665471 
L 164.160843 34.27645 
L 164.244058 43.839715 
L 164.327273 38.442734 
L 164.410488 59.287243 
L 164.493703 40.874536 
L 164.576918 61.503968 
L 164.660133 54.544943 
L 164.826562 66.934613 
L 164.909777 61.960205 
L 164.992992 62.344613 
L 165.409067 63.813274 
L 165.492282 56.650362 
L 165.575497 64.235091 
L 165.658712 57.034951 
L 165.825142 75.357227 
L 165.908357 67.173586 
L 166.158002 84.206076 
L 166.324432 63.178414 
L 166.407647 58.536758 
L 166.490862 59.224321 
L 166.657292 60.42248 
L 166.740507 65.209057 
L 166.823722 64.653693 
L 166.906937 64.147469 
L 166.990152 71.06932 
L 167.073367 58.99977 
L 167.156582 59.646583 
L 167.239797 71.885099 
L 167.406226 63.560132 
L 167.489441 70.533983 
L 167.572656 70.160864 
L 167.822301 51.226583 
L 167.905516 63.556792 
L 167.988731 51.499297 
L 168.071946 52.156791 
L 168.321591 71.802035 
L 168.404806 71.317033 
L 168.488021 63.491994 
L 168.571236 70.471991 
L 168.654451 62.72178 
L 168.737666 74.035366 
L 168.820881 68.43463 
L 168.904096 49.216436 
L 168.987311 50.076134 
L 169.070526 50.859833 
L 169.236956 59.608301 
L 169.569816 61.686324 
L 169.736246 50.822144 
L 169.98589 54.581873 
L 170.069105 48.23776 
L 170.15232 49.184434 
L 170.235535 50.047421 
L 170.401965 69.551403 
L 170.65161 47.442938 
L 170.734825 41.730582 
L 170.901255 62.640607 
L 170.98447 43.93687 
L 171.067685 45.264248 
L 171.234115 54.959585 
L 171.31733 55.965084 
L 171.400545 49.499454 
L 171.566975 70.126203 
L 171.65019 50.761146 
L 171.733405 70.514568 
L 171.98305 50.47084 
L 172.066265 51.220742 
L 172.14948 59.286393 
L 172.232695 52.527542 
L 172.31591 53.095647 
L 172.399125 60.995512 
L 172.48234 54.085667 
L 172.565555 73.544819 
L 172.731984 64.944008 
L 172.898414 81.929842 
L 173.064844 49.648526 
L 173.148059 62.118127 
L 173.314489 50.966859 
L 173.480919 59.699126 
L 173.647349 41.793408 
L 173.730564 43.311319 
L 173.896994 45.95638 
L 174.063424 77.798445 
L 174.313069 63.373236 
L 174.396284 56.25422 
L 174.562714 64.093076 
L 174.645929 68.556532 
L 174.729144 67.707908 
L 175.062004 65.000662 
L 175.145219 71.847924 
L 175.228434 71.361132 
L 175.311648 51.890426 
L 175.394863 71.542861 
L 175.561293 59.018404 
L 175.727723 70.872717 
L 175.810938 51.445627 
L 175.894153 59.491714 
L 176.143798 31.512082 
L 176.227013 33.94002 
L 176.393443 57.197181 
L 176.476658 50.625415 
L 176.559873 51.363114 
L 176.809518 64.852706 
L 176.892733 71.713175 
L 176.975948 63.857884 
L 177.142378 81.027462 
L 177.225593 60.703439 
L 177.475238 99.600311 
L 177.558453 96.659773 
L 177.808098 72.251509 
L 177.891312 78.457688 
L 177.974527 70.006315 
L 178.057742 76.411057 
L 178.140957 75.521418 
L 178.307387 73.971258 
L 178.473817 94.942951 
L 178.557032 92.414479 
L 178.640247 71.084287 
L 178.723462 77.393714 
L 178.806677 80.681395 
L 178.973107 77.011431 
L 179.056322 71.152033 
L 179.222752 80.955592 
L 179.305967 60.639089 
L 179.389182 67.872255 
L 179.555612 60.235023 
L 179.638827 79.148469 
L 179.722042 58.991943 
L 179.805257 66.370778 
L 179.888472 66.369289 
L 180.054902 47.341784 
L 180.221332 56.688634 
L 180.304547 50.16301 
L 180.720621 92.743672 
L 180.803836 83.02956 
L 180.970266 108.60237 
L 181.136696 90.845804 
L 181.303126 101.584157 
L 181.386341 105.196295 
L 181.802416 46.271103 
L 181.885631 59.038842 
L 181.968846 47.38882 
L 182.052061 48.413392 
L 182.135276 56.727689 
L 182.218491 38.554398 
L 182.301706 40.360244 
L 182.468136 61.501829 
L 182.551351 73.575293 
L 182.634566 53.91208 
L 182.800996 77.02668 
L 183.050641 52.35787 
L 183.133855 48.678977 
L 183.21707 50.242085 
L 183.300285 44.286609 
L 183.3835 45.585464 
L 183.466715 54.149797 
L 183.54993 47.848721 
L 183.71636 57.10971 
L 183.88279 58.672406 
L 183.966005 63.615684 
L 184.04922 51.560757 
L 184.132435 52.216257 
L 184.298865 42.743851 
L 184.465295 64.512109 
L 184.54851 57.294517 
L 184.631725 57.442907 
L 184.798155 65.081857 
L 184.88137 65.194231 
L 185.0478 35.750477 
L 185.21423 57.671113 
L 185.297445 58.438807 
L 185.38066 51.758156 
L 185.54709 70.972695 
L 185.796734 51.85664 
L 185.879949 59.866244 
L 185.963164 53.059223 
L 186.046379 60.962465 
L 186.296024 43.244105 
L 186.379239 52.015317 
L 186.462454 45.902459 
L 186.545669 54.43857 
L 186.712099 44.807444 
L 187.044959 71.940258 
L 187.128174 71.44579 
L 187.211389 70.995038 
L 187.377819 80.824533 
L 187.461034 79.54433 
L 187.544249 70.99666 
L 187.710679 86.958799 
L 187.877109 83.474476 
L 187.960324 74.579102 
L 188.043539 92.224043 
L 188.126754 89.935596 
L 188.376398 72.569369 
L 188.542828 82.132466 
L 188.709258 57.203266 
L 189.042118 79.559816 
L 189.125333 78.391069 
L 189.291763 76.354439 
L 189.374978 63.823798 
L 189.458193 64.046553 
L 189.541408 56.868601 
L 189.624623 57.053644 
L 189.791053 64.757049 
L 189.957483 65.024868 
L 190.040698 57.760176 
L 190.123913 57.866232 
L 190.456773 58.204384 
L 190.623203 65.712961 
L 190.706418 54.122626 
L 190.789633 55.20293 
L 190.872848 48.806434 
L 190.956063 49.704058 
L 191.039277 57.903553 
L 191.122492 51.268116 
L 191.288922 59.94901 
L 191.538567 61.498198 
L 191.704997 43.28859 
L 191.788212 52.055359 
L 191.954642 42.823225 
L 192.037857 44.90244 
L 192.121072 58.443894 
L 192.204287 51.760168 
L 192.287502 59.777726 
L 192.370717 41.32975 
L 192.453932 50.269694 
L 192.537147 44.308684 
L 192.703577 54.165563 
L 192.953222 57.116394 
L 193.036437 50.549684 
L 193.202867 59.351386 
L 193.286082 59.968642 
L 193.369297 72.177814 
L 193.452512 71.660745 
L 193.535727 75.454183 
L 193.702156 72.663907 
L 193.868586 67.11036 
L 194.035016 66.978303 
L 194.201446 89.132069 
L 194.284661 87.115458 
L 194.367876 77.895225 
L 194.451091 83.601403 
L 194.534306 70.426932 
L 194.617521 81.711301 
L 194.783951 71.728612 
L 194.950381 91.83149 
L 195.033596 96.305193 
L 195.116811 93.654015 
L 195.200026 83.855162 
L 195.283241 89.034212 
L 195.449671 66.165939 
L 195.532886 72.90928 
L 195.616101 72.326937 
L 195.699316 64.413868 
L 195.782531 75.577198 
L 195.865746 74.106006 
L 195.948961 80.147149 
L 196.032176 78.924628 
L 196.115391 70.427909 
L 196.198606 81.059413 
L 196.28182 79.103294 
L 196.44825 75.694645 
L 196.531465 81.595249 
L 196.697895 61.013268 
L 196.78111 68.212174 
L 196.864325 49.014804 
L 196.94754 49.892311 
L 197.030755 69.722354 
L 197.11397 62.038962 
L 197.197185 69.147141 
L 197.2804 68.897068 
L 197.363615 68.669086 
L 197.44683 56.813441 
L 197.530045 69.301857 
L 197.61326 69.038022 
L 197.696475 49.767018 
L 197.77969 50.577798 
L 197.862905 51.316855 
L 197.94612 47.72523 
L 198.029335 49.369405 
L 198.11255 43.485495 
L 198.27898 64.09769 
L 198.44541 64.472794 
L 198.528625 52.987723 
L 198.77827 88.165546 
L 198.861485 86.233285 
L 199.027914 75.483414 
L 199.111129 81.402563 
L 199.194344 80.068312 
L 199.277559 71.469184 
L 199.360774 82.008756 
L 199.443989 79.967945 
L 199.527204 78.107594 
L 199.610419 83.794652 
L 199.693634 82.248769 
L 199.943279 59.352591 
L 200.026494 66.698204 
L 200.109709 47.632692 
L 200.192924 48.631751 
L 200.442569 51.129321 
L 200.525784 59.202143 
L 200.608999 48.182352 
L 200.692214 49.78566 
L 200.775429 43.864111 
L 200.858644 52.57943 
L 200.941859 46.410783 
L 201.025074 47.517803 
L 201.191504 49.446786 
L 201.357934 80.700021 
L 201.524363 67.649102 
L 201.690793 67.422964 
L 201.857223 77.853636 
L 201.940438 76.83288 
L 202.023653 68.519217 
L 202.106868 86.702981 
L 202.190083 84.89962 
L 202.356513 62.725185 
L 202.439728 69.772544 
L 202.689373 89.231235 
L 202.855803 77.973291 
L 202.939018 83.672185 
L 203.022233 82.136801 
L 203.105448 73.353956 
L 203.188663 91.110263 
L 203.271878 88.917083 
L 203.355093 86.917849 
L 203.521523 72.815395 
L 203.687953 71.715692 
L 203.771168 75.503324 
L 203.937598 72.701083 
L 204.104028 100.023567 
L 204.353672 74.783882 
L 204.436887 80.764843 
L 204.603317 66.672289 
L 204.686532 66.640252 
L 204.769747 54.962073 
L 204.852962 55.965638 
L 205.102607 39.442277 
L 205.185822 41.16541 
L 205.352252 33.549229 
L 205.435467 35.793549 
L 205.601897 50.323114 
L 205.768327 70.809938 
L 205.851542 70.412066 
L 206.017972 62.335516 
L 206.184402 51.140721 
L 206.350832 59.840456 
L 206.434047 41.38058 
L 206.683692 56.255355 
L 206.766907 56.491798 
L 206.850121 64.090563 
L 206.933336 56.903838 
L 207.016551 57.082973 
L 207.182981 79.662631 
L 207.432626 74.63419 
L 207.515841 80.628558 
L 207.599056 71.97943 
L 207.682271 78.208586 
L 207.765486 69.773512 
L 207.848701 76.197761 
L 207.931916 75.323684 
L 208.015131 74.526921 
L 208.098346 66.417528 
L 208.181561 73.138592 
L 208.264776 72.535113 
L 208.347991 64.601938 
L 208.431206 71.483586 
L 208.514421 71.026515 
L 208.597636 63.226835 
L 208.680851 74.495651 
L 208.764066 73.119331 
L 209.013711 99.32855 
L 209.180141 75.746485 
L 209.263356 81.64261 
L 209.346571 72.904312 
L 209.429785 79.051798 
L 209.513 58.894267 
L 209.596215 58.89785 
L 209.67943 58.90114 
L 209.84586 76.90802 
L 210.17872 41.684835 
L 210.261935 43.863434 
L 210.34515 57.497597 
L 210.428365 50.89501 
L 210.51158 51.606254 
L 210.594795 59.637388 
L 210.67801 52.845671 
L 210.761225 53.384479 
L 210.84444 72.90646 
L 210.927655 64.941381 
L 211.01087 83.441273 
L 211.094085 81.927274 
L 211.1773 80.547186 
L 211.260515 60.258563 
L 211.34373 67.524588 
L 211.426945 67.418301 
L 211.51016 59.938835 
L 211.593375 67.233162 
L 211.67659 67.152717 
L 211.759805 67.079406 
L 211.84302 55.364822 
L 211.926235 67.981809 
L 212.00945 48.805011 
L 212.092664 49.701555 
L 212.259094 69.263905 
L 212.425524 57.119618 
L 212.591954 58.676066 
L 212.675169 51.970319 
L 213.008029 82.837455 
L 213.257674 60.833879 
L 213.340889 60.667029 
L 213.424104 72.162212 
L 213.507319 70.993564 
L 213.590534 77.310457 
L 213.673749 76.339407 
L 213.923394 62.264878 
L 214.089824 62.95239 
L 214.173039 44.222276 
L 214.256254 52.906831 
L 214.339469 46.712202 
L 214.422684 47.794605 
L 214.505899 48.781312 
L 214.589114 57.062713 
L 214.755543 40.631442 
L 214.921973 61.727394 
L 215.171618 44.846689 
L 215.254833 46.094378 
L 215.338048 42.966965 
L 215.421263 33.38727 
L 215.587693 49.574148 
L 215.670908 43.67506 
L 215.754123 52.408202 
L 215.837338 46.258582 
L 215.920553 47.381673 
L 216.170198 68.187329 
L 216.253413 68.024 
L 216.419843 48.71194 
L 216.669488 70.225065 
L 216.752703 62.500334 
L 216.835918 69.568736 
L 216.919133 69.283481 
L 217.168778 82.512075 
L 217.251993 99.456449 
L 217.335207 77.501216 
L 217.418422 83.243027 
L 217.584852 68.74084 
L 217.751282 68.336015 
L 217.834497 60.778998 
L 218.000927 79.499025 
L 218.084142 78.335941 
L 218.167357 77.275742 
L 218.250572 57.283031 
L 218.583432 79.126444 
L 218.666647 77.343772 
L 218.749862 94.744759 
L 218.833077 92.233615 
L 218.916292 89.944574 
L 219.082722 78.5752 
L 219.165937 84.222185 
L 219.249152 75.261018 
L 219.332367 81.201109 
L 219.415582 68.243023 
L 219.498797 79.72067 
L 219.582012 78.538434 
L 219.748442 76.478445 
L 219.914871 67.386207 
L 219.998086 74.022778 
L 220.081301 73.344581 
L 220.164516 61.081771 
L 220.247731 73.192683 
L 220.330946 72.587967 
L 220.414161 64.656275 
L 220.580591 82.720799 
L 220.747021 61.959207 
L 220.830236 61.695392 
L 220.996666 79.230685 
L 221.163096 69.674037 
L 221.246311 80.372317 
L 221.329526 78.480217 
L 221.495956 75.183269 
L 221.579171 81.13038 
L 221.662386 79.823986 
L 221.745601 71.252923 
L 221.828816 77.547632 
L 221.912031 76.558136 
L 222.078461 74.833972 
L 222.244891 55.406949 
L 222.411321 56.010974 
L 222.494536 67.917496 
L 222.660965 55.792508 
L 222.74418 75.098399 
L 222.827395 74.325673 
L 222.91061 54.59743 
L 222.993825 62.365142 
L 223.07704 55.338538 
L 223.160255 55.660721 
L 223.4099 77.785322 
L 223.493115 83.502388 
L 223.659545 73.224873 
L 223.74276 71.965337 
L 223.825975 89.840747 
L 224.07562 62.827578 
L 224.158835 55.760356 
L 224.24205 56.045377 
L 224.40848 68.185604 
L 224.57491 66.629996 
L 224.658125 73.33361 
L 224.74134 53.693903 
L 224.90777 61.967996 
L 225.0742 44.717591 
L 225.157415 53.359058 
L 225.240629 42.865754 
L 225.323844 44.943871 
L 225.490274 51.798982 
L 225.573489 52.434462 
L 225.656704 48.750123 
L 226.072779 55.27789 
L 226.155994 67.901697 
L 226.239209 67.765797 
L 226.322424 55.998638 
L 226.488854 72.628307 
L 226.572069 67.15821 
L 226.655284 67.088086 
L 226.738499 59.644502 
L 226.821714 66.965903 
L 226.904929 66.912795 
L 226.988144 66.864386 
L 227.237789 44.486602 
L 227.321004 46.421477 
L 227.404219 40.805607 
L 227.487434 42.413399 
L 227.653864 52.594629 
L 227.737079 34.789664 
L 227.820293 36.929489 
L 227.903508 38.88008 
L 228.069938 49.658632 
L 228.153153 43.756527 
L 228.236368 52.482981 
L 228.319583 46.33111 
L 228.402798 47.450273 
L 228.486013 55.850066 
L 228.569228 49.400433 
L 228.652443 50.248166 
L 228.735658 70.043668 
L 228.818873 62.338823 
L 228.902088 69.421927 
L 229.068518 50.912223 
L 229.151733 63.269382 
L 229.234948 51.247455 
L 229.318163 51.931828 
L 229.401378 52.555676 
L 229.484593 60.503939 
L 229.567808 41.999588 
L 229.651023 43.501788 
L 229.983883 48.294469 
L 230.150313 27.845211 
L 230.316743 40.489117 
L 230.399958 35.39789 
L 230.566387 51.028563 
L 230.732817 30.117054 
L 230.982462 59.375354 
L 231.065677 59.340877 
L 231.315322 27.323068 
L 231.398537 37.502741 
L 231.481752 32.67555 
L 231.731397 39.056548 
L 231.897827 31.811935 
L 231.981042 53.237828 
L 232.064257 47.019061 
L 232.147472 36.434056 
L 232.313902 47.625901 
L 232.397117 41.903403 
L 232.480332 50.793642 
L 232.563547 44.790991 
L 232.646762 46.046208 
L 232.729977 47.190415 
L 232.896407 60.827446 
L 232.979622 56.400863 
L 233.229266 37.499002 
L 233.395696 23.355603 
L 233.478911 26.506399 
L 233.562126 36.758234 
L 233.645341 20.353405 
L 233.728556 42.792679 
L 233.811771 33.233869 
L 234.061416 50.943953 
L 234.144631 44.927857 
L 234.227846 46.170873 
L 234.311061 47.303956 
L 234.394276 55.716551 
L 234.477491 49.27836 
L 234.560706 69.159698 
L 234.643921 61.532645 
L 234.727136 80.330283 
L 234.893566 70.589348 
L 234.976781 69.562928 
L 235.059996 76.007021 
L 235.143211 63.510698 
L 235.226426 63.762879 
L 235.309641 63.992744 
L 235.559286 35.869002 
L 235.642501 45.292782 
L 235.725715 39.776214 
L 235.80893 60.49793 
L 235.892145 53.63667 
L 235.97536 54.109347 
L 236.058575 61.920034 
L 236.14179 54.932967 
L 236.30822 62.997151 
L 236.47465 45.572089 
L 236.557865 54.137742 
L 236.64108 47.838806 
L 236.724295 56.203997 
L 236.890725 46.277317 
L 236.97394 48.053335 
L 237.057155 30.648774 
L 237.14037 40.534137 
L 237.223585 31.174394 
L 237.3068 34.286006 
L 237.390015 29.742519 
L 237.556445 42.064952 
L 237.63966 44.213437 
L 237.722875 38.791971 
L 237.80609 40.577239 
L 237.889305 42.204626 
L 238.055735 63.034321 
L 238.13895 63.328339 
L 238.222165 44.572622 
L 238.305379 45.846623 
L 238.471809 33.188731 
L 238.555024 28.742092 
L 238.721454 41.233515 
L 238.804669 36.075405 
L 238.971099 47.327121 
L 239.220744 51.942772 
L 239.303959 45.837521 
L 239.553604 67.018677 
L 239.720034 48.912664 
L 239.886464 57.99416 
L 239.969679 58.733755 
L 240.136109 70.636696 
L 240.219324 70.258224 
L 240.302539 69.913214 
L 240.385754 62.218581 
L 240.468969 69.311997 
L 240.552184 50.026504 
L 240.635399 50.817975 
L 240.885044 52.796594 
L 240.968258 60.723227 
L 241.051473 53.841191 
L 241.134688 61.67544 
L 241.217903 54.709168 
L 241.301118 62.466652 
L 241.467548 44.099773 
L 241.550763 64.439599 
L 241.633978 57.228809 
L 241.717193 57.383241 
L 241.800408 69.168144 
L 241.883623 68.266704 
L 241.966838 74.825212 
L 242.050053 66.695904 
L 242.133268 85.037499 
L 242.382913 69.891813 
L 242.466128 62.198703 
L 242.549343 80.93804 
L 242.632558 79.648324 
L 242.715773 82.736605 
L 242.798988 80.635125 
L 242.882203 74.455518 
L 243.048633 95.344741 
L 243.131848 92.780907 
L 243.215063 83.063449 
L 243.298278 92.577332 
L 243.464708 76.281892 
L 243.547923 93.775878 
L 243.631137 83.970321 
L 243.714352 89.139995 
L 243.880782 85.287748 
L 243.963997 95.257619 
L 244.130427 82.990676 
L 244.213642 88.246951 
L 244.296857 78.930152 
L 244.463287 94.581025 
L 244.546502 92.084499 
L 244.629717 82.428232 
L 244.712932 87.734212 
L 244.962577 70.903193 
L 245.045792 70.500499 
L 245.212222 62.418173 
L 245.295437 57.848978 
L 245.378652 62.8648 
L 245.461867 81.545556 
L 245.545082 80.201638 
L 245.628297 83.240701 
L 245.794727 101.397195 
L 245.961157 94.224499 
L 246.127587 107.289845 
L 246.294016 92.98786 
L 246.377231 89.979166 
L 246.460446 94.617268 
L 246.543661 73.091421 
L 246.626876 90.867962 
L 246.710091 81.318599 
L 246.793306 86.722566 
L 246.876521 84.920547 
L 246.959736 83.277865 
L 247.126166 62.419285 
L 247.209381 62.113698 
L 247.292596 69.215994 
L 247.375811 68.962046 
L 247.459026 68.730536 
L 247.542241 49.493355 
L 247.625456 50.330775 
L 247.708671 51.094119 
L 247.791886 40.14467 
L 247.875101 49.189747 
L 248.041531 40.444146 
L 248.124746 23.708141 
L 248.291176 37.048682 
L 248.374391 32.258246 
L 248.457606 42.000753 
L 248.540821 36.77235 
L 248.624036 38.734613 
L 248.707251 59.549846 
L 248.790466 52.769448 
L 248.87368 41.671511 
L 248.956895 54.845969 
L 249.04011 43.564346 
L 249.123325 44.925906 
L 249.20654 46.16705 
L 249.456185 68.296551 
L 249.5394 49.096938 
L 249.622615 68.99592 
L 249.70583 61.38001 
L 249.87226 90.613427 
L 249.955475 81.085738 
L 250.03869 86.51021 
L 250.121905 84.726541 
L 250.20512 83.100597 
L 250.288335 62.591564 
L 250.37155 69.651548 
L 250.454765 61.977522 
L 250.70441 80.272394 
L 250.787625 79.040304 
L 250.87084 70.535931 
L 250.954055 81.157851 
L 251.286915 62.139746 
L 251.37013 62.511167 
L 251.619774 45.442483 
L 251.702989 46.637743 
L 251.786204 55.10859 
L 251.952634 34.745379 
L 252.285494 44.524425 
L 252.368709 39.072334 
L 252.451924 40.830943 
L 252.618354 33.279418 
L 252.701569 47.196203 
L 252.784784 36.590535 
L 252.867999 38.568653 
L 252.951214 40.371834 
L 253.034429 37.751019 
L 253.117644 40.27929 
L 253.200859 23.556813 
L 253.284074 26.687604 
L 253.367289 17.895687 
L 253.616934 24.620426 
L 253.700149 16.664162 
L 253.783364 21.057363 
L 253.866579 17.680776 
L 254.282653 59.796819 
L 254.449083 31.260446 
L 254.615513 35.943292 
L 254.698728 45.36015 
L 254.865158 29.880421 
L 255.031588 53.823573 
L 255.114803 47.549618 
L 255.198018 55.940107 
L 255.281233 49.479027 
L 255.364448 50.31776 
L 255.614093 71.441317 
L 255.697308 59.345086 
L 255.780523 59.964144 
L 255.863738 72.173942 
L 255.946953 52.631963 
L 256.030168 60.573063 
L 256.113383 53.70255 
L 256.196598 61.548987 
L 256.279813 54.592228 
L 256.363028 62.359995 
L 256.529458 40.773182 
L 256.695888 45.09656 
L 256.779102 39.595016 
L 256.945532 60.866234 
L 257.111962 61.79304 
L 257.278392 50.91813 
L 257.528037 75.982414 
L 257.611252 67.749783 
L 257.694467 74.354076 
L 257.944112 43.710997 
L 258.027327 52.441246 
L 258.110542 34.64589 
L 258.276972 46.138914 
L 258.360187 40.545923 
L 258.443402 42.175523 
L 258.859477 48.400729 
L 258.942692 56.71635 
L 259.109122 40.350619 
L 259.192337 41.997748 
L 259.358766 34.253325 
L 259.441981 36.439787 
L 259.608411 40.24981 
L 259.691626 49.286391 
L 259.774841 43.415857 
L 259.941271 53.427061 
L 260.024486 35.546317 
L 260.190916 57.502396 
L 260.690206 61.278474 
L 260.773421 42.704145 
L 260.856636 44.143794 
L 260.939851 52.836168 
L 261.023066 46.6525 
L 261.189496 78.374832 
L 261.272711 69.932735 
L 261.355926 80.608158 
L 261.439141 78.69588 
L 261.605571 94.387158 
L 261.688786 103.552495 
L 261.855216 89.886252 
L 261.938431 94.53335 
L 262.10486 60.135104 
L 262.188075 60.033683 
L 262.27129 71.584492 
L 262.354505 58.827363 
L 262.43772 70.484853 
L 262.520935 69.468229 
L 262.60415 56.898437 
L 262.687365 57.083429 
L 262.77058 57.252096 
L 262.93701 79.802382 
L 263.186655 74.754968 
L 263.353085 94.346267 
L 263.4363 91.2197 
L 263.519515 76.726912 
L 263.60273 82.537941 
L 263.685945 81.108343 
L 263.76916 72.425907 
L 264.018805 87.160476 
L 264.10202 85.322191 
L 264.26845 96.995217 
L 264.351665 93.634654 
L 264.43488 97.950457 
L 264.518095 87.778907 
L 264.601309 96.875851 
L 264.767739 79.859539 
L 264.850954 78.014529 
L 264.934169 83.711756 
L 265.100599 73.40217 
L 265.267029 70.967117 
L 265.350244 58.266477 
L 265.433459 58.331229 
L 265.516674 65.769219 
L 265.766319 47.925514 
L 265.849534 67.925804 
L 266.015964 48.643438 
L 266.099179 49.55938 
L 266.348824 63.491218 
L 266.432039 70.472933 
L 266.598469 62.402295 
L 266.764899 80.84799 
L 266.848114 79.568565 
L 267.014544 69.960506 
L 267.097759 76.370124 
L 267.180974 75.486767 
L 267.430618 73.278485 
L 267.597048 82.724719 
L 267.680263 81.279465 
L 267.763478 72.583454 
L 267.929908 81.929389 
L 268.013123 75.639045 
L 268.096338 55.800463 
L 268.179553 63.462375 
L 268.345983 44.936245 
L 268.429198 53.558961 
L 268.512413 47.314658 
L 268.595628 48.348564 
L 268.678843 49.291049 
L 268.762058 57.528656 
L 268.845273 50.933379 
L 268.928488 51.647306 
L 269.011703 48.03524 
L 269.094918 49.658007 
L 269.261348 22.854329 
L 269.510993 31.622798 
L 269.594208 53.064161 
L 269.677423 46.86396 
L 269.760638 59.579086 
L 269.843852 59.528588 
L 269.927067 66.860883 
L 270.010282 59.440637 
L 270.259927 88.028343 
L 270.509572 82.779526 
L 270.592787 73.951615 
L 270.842432 99.958235 
L 271.008862 86.90487 
L 271.092077 84.437914 
L 271.175292 89.567322 
L 271.508152 53.700623 
L 271.674582 61.976305 
L 271.757797 54.988302 
L 271.841012 55.343968 
L 271.924227 74.687174 
L 272.007442 54.934252 
L 272.090657 55.294704 
L 272.173872 63.00141 
L 272.257087 44.28198 
L 272.423517 64.761296 
L 272.506731 69.167882 
L 272.673161 45.198609 
L 272.756376 46.420071 
L 272.922806 55.926597 
L 273.006021 49.473725 
L 273.089236 50.317132 
L 273.172451 58.464043 
L 273.255666 51.786798 
L 273.422096 70.997397 
L 273.754956 41.908741 
L 273.921386 52.177947 
L 274.087816 54.580358 
L 274.171031 67.265389 
L 274.254246 67.187909 
L 274.337461 71.379937 
L 274.420676 81.926801 
L 274.503891 79.900248 
L 274.587106 85.430955 
L 274.670321 76.36895 
L 274.753536 93.852629 
L 275.003181 70.140874 
L 275.086396 76.534637 
L 275.16961 75.637402 
L 275.252825 67.441477 
L 275.419255 95.646261 
L 275.50247 93.058878 
L 275.585685 94.962953 
L 275.83533 86.243243 
L 276.00176 99.628847 
L 276.084975 89.311149 
L 276.251405 95.829494 
L 276.50105 126.202462 
L 276.584265 120.912741 
L 276.750695 133.947401 
L 276.917125 115.148259 
L 277.00034 105.920842 
L 277.083555 106.687322 
L 277.16677 109.848958 
L 277.249985 98.62715 
L 277.3332 102.501561 
L 277.416415 99.307634 
L 277.66606 74.271464 
L 277.749274 80.2997 
L 277.832489 71.690837 
L 277.915704 82.21005 
L 277.998919 80.157952 
L 278.082134 85.665588 
L 278.248564 64.415968 
L 278.331779 71.315707 
L 278.414994 70.879436 
L 278.498209 70.481727 
L 278.581424 62.740809 
L 278.747854 91.740359 
L 278.914284 69.463254 
L 279.163929 85.945903 
L 279.247144 76.837149 
L 279.330359 82.638351 
L 279.413574 73.822022 
L 279.496789 79.889845 
L 279.580004 78.695043 
L 279.663219 70.227322 
L 279.746434 76.613014 
L 279.829649 68.329339 
L 279.912864 74.88286 
L 279.996079 66.752121 
L 280.079294 77.708094 
L 280.162509 64.41189 
L 280.245724 71.311814 
L 280.328939 63.496723 
L 280.495368 92.36886 
L 280.578583 82.691499 
L 280.745013 68.073719 
L 280.911443 96.172227 
L 280.994658 93.537144 
L 281.077873 91.135071 
L 281.161088 100.587357 
L 281.244303 97.561751 
L 281.327518 75.78278 
L 281.410733 81.677021 
L 281.493948 80.32365 
L 281.660378 100.219989 
L 281.826808 87.119149 
L 281.910023 92.010826 
L 281.993238 89.74345 
L 282.076453 99.318835 
L 282.242883 74.727642 
L 282.326098 92.357461 
L 282.492528 80.585187 
L 282.575743 86.054601 
L 282.742173 53.092133 
L 282.825388 60.99282 
L 282.908603 54.088922 
L 282.991817 54.522189 
L 283.075032 62.296396 
L 283.158247 55.277096 
L 283.407892 85.812166 
L 283.491107 76.713134 
L 283.823967 98.893684 
L 284.323257 85.028299 
L 284.489687 81.872999 
L 284.572902 61.47858 
L 284.739332 80.079477 
L 284.988977 55.434133 
L 285.321837 58.81608 
L 285.405052 47.839798 
L 285.571482 73.22787 
L 285.654696 72.620488 
L 285.821126 49.304632 
L 285.904341 43.432953 
L 285.987556 63.831247 
L 286.070771 56.674865 
L 286.153986 56.878594 
L 286.403631 75.381801 
L 286.486846 74.583796 
L 286.570061 66.476371 
L 286.736491 83.202796 
L 286.819706 81.713094 
L 286.986136 71.737179 
L 287.069351 89.632655 
L 287.402211 61.108789 
L 287.568641 61.995841 
L 287.651856 55.001292 
L 287.735071 55.352761 
L 287.818286 63.053286 
L 287.901501 51.701301 
L 287.984716 64.641294 
L 288.067931 45.768646 
L 288.23436 67.025481 
L 288.40079 48.917629 
L 288.650435 51.356873 
L 288.816865 42.030307 
L 289.06651 74.840133 
L 289.482585 71.695784 
L 289.5658 63.84323 
L 289.815445 80.657251 
L 289.981875 70.859248 
L 290.23152 87.001432 
L 290.39795 83.511239 
L 290.481165 74.613793 
L 290.56438 80.611071 
L 290.647595 79.350382 
L 290.73081 70.820914 
L 290.814025 77.153625 
L 290.897239 68.818438 
L 290.980454 75.328247 
L 291.146884 66.431204 
L 291.230099 65.771878 
L 291.313314 72.551121 
L 291.479744 49.24525 
L 291.562959 50.758488 
L 291.646174 44.757668 
L 291.812604 54.541617 
L 292.062249 36.087504 
L 292.145464 31.384262 
L 292.395109 60.335178 
L 292.478324 60.215176 
L 292.561539 48.461777 
L 292.644754 68.416046 
L 292.727969 60.853994 
L 292.811184 72.332181 
L 293.060829 48.803938 
L 293.144044 49.703892 
L 293.310474 58.652197 
L 293.393689 40.310022 
L 293.476904 41.961245 
L 293.560118 39.202692 
L 293.643333 53.248357 
L 293.726548 47.02811 
L 293.892978 56.429046 
L 293.976193 57.307591 
L 294.309053 73.19409 
L 294.392268 90.96087 
L 294.475483 81.405829 
L 294.641913 89.259092 
L 294.725128 86.581835 
L 294.891558 99.910185 
L 294.974773 77.920597 
L 295.057988 83.625892 
L 295.141203 74.719883 
L 295.390848 89.927175 
L 295.474063 87.84369 
L 295.557278 78.564896 
L 295.640493 84.213276 
L 295.723708 82.635194 
L 295.890138 68.242433 
L 296.139782 89.10605 
L 296.222997 87.095437 
L 296.306212 96.905519 
L 296.389427 94.205186 
L 296.639072 87.454595 
L 296.722287 78.210874 
L 296.805502 83.890694 
L 296.888717 82.341526 
L 296.971932 73.550147 
L 297.055147 91.28475 
L 297.221577 79.694422 
L 297.304792 77.863918 
L 297.554437 63.61368 
L 297.637652 70.584543 
L 297.887297 39.930206 
L 298.053727 61.145526 
L 298.136942 42.587282 
L 298.303372 67.616623 
L 298.386587 66.854713 
L 298.469802 73.539076 
L 298.553017 65.527191 
L 298.636232 83.970882 
L 298.719447 82.415318 
L 298.885876 79.704832 
L 298.969091 71.147938 
L 299.052306 77.452694 
L 299.218736 68.202794 
L 299.301951 86.409639 
L 299.385166 84.638655 
L 299.468381 64.004258 
L 299.551596 70.940857 
L 299.634811 63.159504 
L 299.718026 70.170828 
L 299.801241 50.816341 
L 299.884456 58.919301 
L 300.050886 42.191754 
L 300.134101 51.057516 
L 300.383746 25.145208 
L 300.550176 38.248913 
L 300.716606 43.0066 
L 300.799821 37.696677 
L 300.883036 39.582049 
L 301.049466 50.245497 
L 301.215896 41.335019 
L 301.299111 43.551348 
L 301.548755 58.76489 
L 301.63197 47.799594 
L 301.7984 61.554658 
L 301.881615 61.983097 
L 301.96483 54.996015 
L 302.048045 55.352146 
L 302.214475 63.350426 
L 302.29769 56.242741 
L 302.380905 56.488813 
L 302.46412 64.090635 
L 302.63055 34.854247 
L 302.713765 48.631734 
L 302.880195 28.139658 
L 303.12984 47.271341 
L 303.213055 48.311388 
L 303.379485 79.749927 
L 303.4627 78.570114 
L 303.62913 69.137465 
L 303.79556 97.054931 
L 303.96199 62.249491 
L 304.045204 69.342154 
L 304.128419 61.706417 
L 304.211634 68.847137 
L 304.294849 68.632026 
L 304.378064 68.435978 
L 304.544494 38.470427 
L 304.627709 59.30453 
L 304.710924 52.557101 
L 304.794139 60.507093 
L 304.877354 53.653488 
L 304.960569 65.768245 
L 305.043784 65.173532 
L 305.126999 64.631474 
L 305.293429 81.671981 
L 305.376644 80.323266 
L 305.459859 83.35545 
L 305.543074 100.219466 
L 305.626289 97.230541 
L 305.709504 87.129916 
L 305.875934 101.396079 
L 305.959149 90.927283 
L 306.042364 107.121392 
L 306.125579 103.522303 
L 306.208794 100.241551 
L 306.292009 89.875135 
L 306.541654 111.081833 
L 306.624869 88.119908 
L 306.708083 92.92496 
L 306.957728 69.453267 
L 307.124158 97.31539 
L 307.207373 94.583982 
L 307.290588 103.730864 
L 307.457018 79.442153 
L 307.706663 92.480702 
L 307.789878 90.177059 
L 307.873093 80.701822 
L 307.956308 86.16302 
L 308.039523 84.418178 
L 308.122738 75.45239 
L 308.205953 81.377853 
L 308.372383 71.476386 
L 308.455598 70.378296 
L 308.538813 76.752521 
L 308.622028 68.464941 
L 308.705243 75.008389 
L 308.871673 66.184103 
L 308.954888 65.554193 
L 309.038103 53.34405 
L 309.204533 72.292653 
L 309.287747 64.399835 
L 309.454177 82.508439 
L 309.537392 81.087226 
L 309.620607 79.791721 
L 309.870252 57.542527 
L 309.953467 57.677133 
L 310.036682 65.174689 
L 310.119897 46.276118 
L 310.203112 47.407161 
L 310.369542 49.378081 
L 310.452757 57.609624 
L 310.535972 51.015908 
L 310.619187 63.363353 
L 310.702402 62.983371 
L 310.785617 51.001622 
L 310.952047 70.34621 
L 311.201692 48.095758 
L 311.451337 62.214012 
L 311.534552 55.213514 
L 311.700982 73.846089 
L 311.950626 54.070257 
L 312.117056 84.531138 
L 312.200271 82.931648 
L 312.366701 50.529155 
L 312.533131 74.214152 
L 312.699561 49.413414 
L 312.782776 61.90244 
L 312.865991 50.01727 
L 312.949206 50.81807 
L 313.032421 70.557192 
L 313.115636 70.193676 
L 313.198851 62.488035 
L 313.365281 79.890797 
L 313.614926 54.389756 
L 313.698141 67.090793 
L 313.781356 59.659709 
L 313.864571 78.616744 
L 313.947786 65.90594 
L 314.031001 65.953883 
L 314.197431 66.037453 
L 314.280646 58.699628 
L 314.363861 58.732774 
L 314.53029 58.790562 
L 314.613505 66.189831 
L 314.69672 58.838618 
L 314.779935 58.859521 
L 314.946365 70.530449 
L 315.112795 53.727996 
L 315.19601 43.218593 
L 315.279225 45.27307 
L 315.445655 59.458545 
L 315.612085 60.640456 
L 315.778515 32.008745 
L 315.86173 41.776538 
L 315.944945 36.584612 
L 316.36102 71.712001 
L 316.444235 63.872809 
L 316.52745 70.822689 
L 316.777095 40.14905 
L 316.86031 49.196992 
L 317.02674 55.345362 
L 317.109955 51.415236 
L 317.193169 52.745059 
L 317.276384 46.583402 
L 317.359599 55.062324 
L 317.442814 48.695776 
L 317.526029 56.987882 
L 317.692459 28.974848 
L 317.775674 50.645078 
L 317.858889 40.409061 
L 317.942104 42.712357 
L 318.025319 56.445965 
L 318.108534 38.323222 
L 318.274964 49.206053 
L 318.358179 50.731421 
L 318.441394 40.487987 
L 319.023899 88.172596 
L 319.107114 78.878334 
L 319.190329 84.501293 
L 319.356759 63.47205 
L 319.439974 63.083825 
L 319.606404 51.802471 
L 319.772833 72.04057 
L 319.856048 71.546729 
L 320.022478 70.686215 
L 320.188908 51.99278 
L 320.355338 60.565043 
L 320.438553 61.086127 
L 320.521768 73.19474 
L 320.604983 53.591739 
L 320.688198 61.450996 
L 320.771413 54.520213 
L 320.854628 54.923833 
L 320.937843 55.291767 
L 321.104273 63.30644 
L 321.187488 56.211652 
L 321.270703 63.839235 
L 321.353918 56.697361 
L 321.437133 56.908512 
L 321.520348 57.100986 
L 321.603563 45.642981 
L 321.769993 55.288896 
L 321.853208 48.903287 
L 321.936423 49.803786 
L 322.102853 58.746376 
L 322.186068 52.055079 
L 322.435712 83.371765 
L 322.602142 50.901545 
L 322.935002 53.435159 
L 323.018217 49.675089 
L 323.101432 51.159558 
L 323.184647 45.139438 
L 323.267862 46.372991 
L 323.351077 47.497469 
L 323.434292 55.895814 
L 323.517507 49.45693 
L 323.600722 57.681999 
L 323.683937 51.085198 
L 323.767152 51.793021 
L 323.850367 52.438248 
L 323.933582 41.393326 
L 324.266442 75.543594 
L 324.349657 74.740562 
L 324.432872 74.008559 
L 324.516087 65.968147 
L 324.599302 84.366066 
L 324.682517 82.782851 
L 324.932162 78.824904 
L 325.098591 69.362204 
L 325.181806 75.826985 
L 325.348236 66.871164 
L 325.431451 66.183189 
L 325.681096 93.13544 
L 325.764311 71.77097 
L 326.097171 115.934057 
L 326.180386 104.186222 
L 326.263601 119.204047 
L 326.346816 114.540038 
L 326.430031 114.548232 
L 326.513246 121.276651 
L 326.679676 95.900529 
L 326.762891 93.29734 
L 327.095751 63.692918 
L 327.428611 64.550707 
L 327.511826 76.352689 
L 327.595041 68.105185 
L 327.678255 74.681045 
L 327.76147 73.954384 
L 327.844685 73.291985 
L 328.011115 64.764722 
L 328.26076 85.62548 
L 328.343975 83.278899 
L 328.42719 81.139832 
L 328.510405 86.562953 
L 328.59362 77.412457 
L 328.676835 83.165191 
L 328.843265 62.364746 
L 329.009695 79.788324 
L 329.176125 55.2989 
L 329.25934 48.913216 
L 329.342555 68.819095 
L 329.42577 56.977984 
L 329.5922 73.445373 
L 329.675415 72.175901 
L 329.75863 78.391746 
L 329.841845 69.963821 
L 329.92506 76.37529 
L 330.09149 67.326666 
L 330.25792 83.911457 
L 330.341134 63.362542 
L 330.424349 70.357779 
L 330.507564 51.007478 
L 330.673994 59.746949 
L 330.757209 41.335028 
L 330.840424 42.905249 
L 331.006854 53.014473 
L 331.173284 55.288106 
L 331.422929 29.326564 
L 331.506144 27.699127 
L 331.672574 44.85658 
L 331.755789 46.767556 
L 331.839004 36.876809 
L 331.922219 39.493548 
L 332.005434 41.878897 
L 332.088649 36.680333 
L 332.171864 38.662474 
L 332.255079 36.209667 
L 332.338294 50.518198 
L 332.421509 44.555753 
L 332.504724 45.841564 
L 332.671154 70.318567 
L 332.754369 57.693506 
L 332.837584 76.822933 
L 332.920798 75.907251 
L 333.004013 75.072569 
L 333.087228 66.938896 
L 333.170443 73.618186 
L 333.253658 65.613205 
L 333.336873 72.409737 
L 333.503303 49.169692 
L 333.752948 63.031849 
L 333.836163 63.336087 
L 333.919378 67.872979 
L 334.002593 67.097114 
L 334.418668 64.13379 
L 334.501883 71.061321 
L 334.668313 62.913418 
L 334.751528 69.948908 
L 334.834743 69.641723 
L 335.001173 61.734104 
L 335.084388 61.501524 
L 335.167603 68.661937 
L 335.334033 60.920266 
L 335.500463 60.613527 
L 335.666892 45.496547 
L 335.750107 58.983774 
L 335.833322 52.274511 
L 335.916537 71.88254 
L 335.999752 64.032636 
L 336.082967 70.969357 
L 336.166182 70.572453 
L 336.249397 62.838587 
L 336.332612 69.880948 
L 336.415827 62.208359 
L 336.499042 69.306484 
L 336.665472 61.457321 
L 336.748687 80.252983 
L 336.915117 70.553523 
L 336.998332 76.913691 
L 337.081547 75.991461 
L 337.164762 63.519972 
L 337.247977 63.782354 
L 337.414407 64.239693 
L 337.664052 74.449625 
L 337.747267 66.374019 
L 337.913697 84.149556 
L 337.996912 82.587826 
L 338.163341 69.264834 
L 338.246556 69.019625 
L 338.329771 61.424721 
L 338.412986 68.592471 
L 338.496201 68.406853 
L 338.579416 60.866359 
L 338.662631 68.083539 
L 338.745846 60.571787 
L 338.829061 67.815052 
L 338.912276 60.327215 
L 338.995491 79.222008 
L 339.245136 64.506048 
L 339.328351 64.682271 
L 339.411566 57.471934 
L 339.494781 57.618489 
L 339.577996 57.752116 
L 339.661211 46.244533 
L 339.827641 67.423348 
L 339.994071 59.89695 
L 340.077286 59.829398 
L 340.160501 48.138781 
L 340.243716 60.740306 
L 340.326931 48.969337 
L 340.410146 57.239074 
L 340.493361 50.688142 
L 340.659791 59.487095 
L 340.743006 60.108071 
L 340.909435 43.219765 
L 341.075865 56.511515 
L 341.15908 52.486057 
L 341.242295 65.354927 
L 341.49194 46.63792 
L 341.741585 70.962115 
L 341.908015 68.964919 
L 341.99123 63.838938 
L 342.074445 45.078616 
L 342.15766 46.323218 
L 342.240875 47.457841 
L 342.407305 79.031134 
L 342.49052 77.924951 
L 342.65695 68.62816 
L 342.906595 66.331067 
L 342.98981 73.066026 
L 343.073025 72.487843 
L 343.239455 71.480528 
L 343.32267 52.047141 
L 343.405885 60.045481 
L 343.489099 41.62381 
L 343.572314 43.175151 
L 343.655529 51.958251 
L 343.821959 35.427781 
L 343.905174 44.896169 
L 343.988389 39.441491 
L 344.071604 48.554946 
L 344.154819 31.151204 
L 344.238034 33.62945 
L 344.321249 43.257068 
L 344.404464 37.948058 
L 344.487679 47.193801 
L 344.654109 31.47186 
L 344.737324 33.92232 
L 344.820539 36.15618 
L 344.903754 57.18551 
L 344.986969 50.645681 
L 345.070184 51.400742 
L 345.153399 59.456976 
L 345.236614 52.716705 
L 345.319829 60.656616 
L 345.403044 53.81055 
L 345.486259 61.653761 
L 345.652689 40.26262 
L 345.819119 55.30427 
L 345.902334 56.299818 
L 346.068763 46.411312 
L 346.151978 48.19368 
L 346.235193 42.451503 
L 346.318408 43.932798 
L 346.817698 88.551748 
L 346.984128 83.590768 
L 347.150558 68.874634 
L 347.316988 96.823151 
L 347.483418 91.710037 
L 347.566633 77.866017 
L 347.649848 88.489464 
L 347.733063 86.551978 
L 347.816278 77.420221 
L 347.899493 83.176162 
L 347.982708 74.343266 
L 348.149138 90.77315 
L 348.232353 81.268787 
L 348.315568 86.68446 
L 348.398783 84.907278 
L 348.481998 87.542568 
L 348.565213 85.03829 
L 348.648428 90.120657 
L 349.064502 81.401948 
L 349.230932 59.914901 
L 349.314147 67.219395 
L 349.397362 48.180693 
L 349.480577 49.158609 
L 349.647007 80.437914 
L 349.813437 59.115993 
L 349.896652 59.127159 
L 350.146297 81.365213 
L 350.229512 79.408931 
L 350.312727 77.625746 
L 350.395942 83.364182 
L 350.479157 74.518803 
L 350.645587 89.89162 
L 350.812017 78.592788 
L 351.061662 73.90205 
L 351.144877 91.587458 
L 351.228092 89.379191 
L 351.394521 96.121277 
L 351.477736 81.895077 
L 351.560951 84.798251 
L 351.810596 78.604016 
L 351.977026 64.744737 
L 352.060241 71.622729 
L 352.143456 71.180852 
L 352.309886 70.411053 
L 352.393101 51.097701 
L 352.559531 59.841456 
L 352.642746 60.441984 
L 352.892391 71.595717 
L 353.142036 41.762982 
L 353.225251 43.311804 
L 353.391681 35.42287 
L 353.474896 44.89462 
L 353.641326 29.594465 
L 353.724541 43.834997 
L 353.807756 40.948102 
L 353.890971 35.859257 
L 354.0574 47.181319 
L 354.22383 32.524124 
L 354.473475 50.630786 
L 354.55669 51.397001 
L 354.639905 59.456506 
L 354.806335 42.726578 
L 354.972765 52.889235 
L 355.05598 54.107349 
L 355.139195 59.470344 
L 355.22241 59.455649 
L 355.305625 59.442335 
L 355.38884 47.817607 
L 355.472055 48.833873 
L 355.55527 57.120543 
L 355.638485 50.605051 
L 355.7217 51.375139 
L 355.804915 59.437171 
L 355.88813 52.717357 
L 355.971345 60.660758 
L 356.05456 53.833109 
L 356.137775 61.67791 
L 356.22099 54.760687 
L 356.304205 55.164075 
L 356.38742 55.531908 
L 356.637064 86.006199 
L 356.720279 76.938417 
L 356.803494 82.739951 
L 356.886709 73.961426 
L 356.969924 80.026322 
L 357.136354 70.41325 
L 357.302784 68.540536 
L 357.385999 75.085049 
L 357.469214 74.343159 
L 357.552429 54.699386 
L 357.635644 74.077501 
L 357.885289 60.679632 
L 357.968504 53.854749 
L 358.134934 72.723402 
L 358.301364 60.098331 
L 358.634224 62.146085 
L 358.717439 43.585705 
L 358.800654 52.338028 
L 358.883869 42.002741 
L 358.967084 44.18903 
L 359.050299 46.182093 
L 359.133514 40.64241 
L 359.216728 49.65535 
L 359.299943 32.202368 
L 359.466373 44.152758 
L 359.549588 46.149928 
L 359.632803 40.614585 
L 359.716018 42.274487 
L 359.882448 45.167355 
L 360.132093 77.220584 
L 360.215308 76.294141 
L 360.298523 56.490054 
L 360.381738 75.70659 
L 360.548168 66.83784 
L 360.631383 85.138755 
L 360.714598 83.512885 
L 360.797813 93.634527 
L 360.881028 83.903035 
L 360.964243 89.090777 
L 361.213888 83.67502 
L 361.297103 74.825625 
L 361.380318 80.816448 
L 361.546748 71.088117 
L 361.713178 69.11562 
L 361.796393 75.611668 
L 361.879607 55.87574 
L 361.962822 75.144259 
L 362.129252 66.377575 
L 362.462112 64.228629 
L 362.545327 71.157399 
L 362.628542 70.771321 
L 362.711757 58.819804 
L 362.794972 59.525323 
L 362.961402 60.755146 
L 363.044617 53.938356 
L 363.294262 76.512975 
L 363.377477 82.355756 
L 363.460692 80.9808 
L 363.543907 79.727647 
L 363.627122 90.183253 
L 363.710337 88.116376 
L 363.876767 54.995953 
L 364.043197 77.921155 
L 364.126412 76.289612 
L 364.292842 62.876418 
L 364.376057 62.576127 
L 364.625701 79.746077 
L 364.708916 78.6043 
L 364.875346 57.671043 
L 364.958561 65.181391 
L 365.041776 57.97966 
L 365.124991 65.462842 
L 365.208206 58.236818 
L 365.291421 58.348883 
L 365.457851 58.544718 
L 365.541066 65.978213 
L 365.707496 48.21168 
L 365.873926 69.063777 
L 365.957141 61.522165 
L 366.040356 80.285015 
L 366.123571 79.09865 
L 366.206786 70.670355 
L 366.290001 77.031946 
L 366.373216 57.195738 
L 366.539646 64.938153 
L 366.622861 57.764127 
L 366.789291 75.976518 
L 366.872506 67.827148 
L 366.955721 86.030632 
L 367.205365 63.480217 
L 367.28858 70.478697 
L 367.371795 70.162725 
L 367.45501 69.874916 
L 367.538225 62.268032 
L 367.62144 69.374051 
L 367.704655 61.812215 
L 367.78787 68.958718 
L 367.871085 61.434434 
L 368.037515 90.613896 
L 368.203945 68.704245 
L 368.45359 66.494549 
L 368.536805 84.812747 
L 368.703235 74.44909 
L 368.78645 80.478719 
L 368.869665 79.282182 
L 368.95288 78.191768 
L 369.036095 88.781596 
L 369.11931 86.851304 
L 369.202525 85.091983 
L 369.701814 41.848886 
L 369.868244 52.198341 
L 369.951459 46.166752 
L 370.117889 55.787339 
L 370.201104 49.439832 
L 370.284319 69.262911 
L 370.367534 69.063311 
L 370.450749 73.121551 
L 370.533964 71.932078 
L 370.617179 59.270192 
L 370.700394 70.884458 
L 370.783609 69.893885 
L 370.866824 76.328982 
L 370.950039 75.506309 
L 371.033254 74.756715 
L 371.116469 66.736651 
L 371.199684 73.451489 
L 371.282899 72.884536 
L 371.366114 53.456643 
L 371.532544 61.851595 
L 371.782189 63.115777 
L 371.948619 45.901061 
L 372.031834 47.125966 
L 372.115049 55.577231 
L 372.198264 49.261492 
L 372.281479 57.524164 
L 372.364693 51.037507 
L 372.447908 51.810129 
L 372.531123 59.847829 
L 372.614338 53.157639 
L 372.697553 53.74402 
L 372.780768 54.278887 
L 372.947198 44.667933 
L 373.030413 46.007288 
L 373.113628 47.228641 
L 373.280058 56.688586 
L 373.363273 50.284586 
L 373.446488 51.12953 
L 373.529703 51.900139 
L 373.945778 37.261229 
L 374.195423 42.751033 
L 374.361853 67.746685 
L 374.528283 51.654635 
L 374.611498 53.034144 
L 374.861143 17.473183 
L 375.027572 31.982534 
L 375.194002 26.403439 
L 375.360432 43.852128 
L 375.526862 29.975239 
L 375.693292 45.585661 
L 375.776507 46.865042 
L 376.026152 72.135885 
L 376.109367 71.068771 
L 376.192582 77.412932 
L 376.442227 56.131369 
L 376.525442 56.484769 
L 376.608657 68.346352 
L 376.691872 67.620233 
L 376.775087 74.271551 
L 376.858302 73.669315 
L 376.941517 73.121285 
L 377.024732 84.156845 
L 377.107947 82.682082 
L 377.191162 81.338633 
L 377.274377 72.806017 
L 377.440807 100.025402 
L 377.524022 97.1502 
L 377.607236 98.751571 
L 377.690451 102.650543 
L 377.856881 96.715516 
L 377.940096 86.832679 
L 378.023311 91.787488 
L 378.189741 58.3692 
L 378.272956 58.542174 
L 378.439386 48.34672 
L 378.522601 68.227994 
L 378.605816 60.878635 
L 378.772246 78.590305 
L 378.855461 70.328317 
L 378.938676 76.747847 
L 379.105106 67.925201 
L 379.188321 74.558416 
L 379.354751 44.116943 
L 379.521181 64.668601 
L 379.604396 76.4498 
L 379.770826 67.699526 
L 379.854041 78.56738 
L 380.020471 65.041788 
L 380.103686 76.144899 
L 380.186901 63.273966 
L 380.270115 70.324719 
L 380.35333 62.826934 
L 380.436545 69.918245 
L 380.51976 69.743414 
L 380.68619 62.161361 
L 380.85262 80.682616 
L 381.01905 68.073434 
L 381.18548 60.794752 
L 381.268695 60.796554 
L 381.435125 68.077208 
L 381.51834 60.809957 
L 381.601555 60.816541 
L 381.767985 50.379114 
L 381.8512 51.31498 
L 381.934415 52.170072 
L 382.18406 81.54921 
L 382.35049 61.603033 
L 382.433705 61.55736 
L 382.51692 50.065701 
L 382.68335 69.634999 
L 382.849779 69.432078 
L 383.099424 50.515665 
L 383.182639 51.472289 
L 383.265854 71.027438 
L 383.349069 70.811626 
L 383.598714 70.285538 
L 383.681929 81.567205 
L 383.765144 80.428839 
L 383.931574 71.218117 
L 384.014789 89.01052 
L 384.181219 78.364402 
L 384.264434 84.113816 
L 384.347649 75.540218 
L 384.430864 81.541732 
L 384.597294 61.808871 
L 384.680509 69.031474 
L 384.763724 50.431123 
L 384.930154 69.970722 
L 385.013369 58.523216 
L 385.096584 59.472916 
L 385.179799 53.134324 
L 385.263014 53.932104 
L 385.346229 61.86633 
L 385.429444 55.333953 
L 385.512658 74.504907 
L 385.595873 74.059078 
L 385.679088 66.462905 
L 385.762303 73.294007 
L 385.845518 72.968227 
L 386.178378 91.870124 
L 386.261593 89.915606 
L 386.511238 74.751375 
L 386.594453 78.47435 
L 386.677668 77.100447 
L 386.760883 94.302627 
L 386.927313 83.071518 
L 387.010528 81.309131 
L 387.176958 63.863326 
L 387.260173 64.459044 
L 387.343388 57.875328 
L 387.343388 57.875328 
" clip-path="url(#p532fbb28df)" style="fill: none; stroke: #1f77b4; stroke-width: 1.5; stroke-linecap: square"/>
   </g>
   <g id="patch_3">
    <path d="M 54.354531 139.811563 
L 54.354531 10.8 
" style="fill: none; stroke: #000000; stroke-width: 0.8; stroke-linejoin: miter; stroke-linecap: square"/>
   </g>
   <g id="patch_4">
    <path d="M 403.2 139.811563 
L 403.2 10.8 
" style="fill: none; stroke: #000000; stroke-width: 0.8; stroke-linejoin: miter; stroke-linecap: square"/>
   </g>
   <g id="patch_5">
    <path d="M 54.354531 139.811563 
L 403.2 139.811563 
" style="fill: none; stroke: #000000; stroke-width: 0.8; stroke-linejoin: miter; stroke-linecap: square"/>
   </g>
   <g id="patch_6">
    <path d="M 54.354531 10.8 
L 403.2 10.8 
" style="fill: none; stroke: #000000; stroke-width: 0.8; stroke-linejoin: miter; stroke-linecap: square"/>
   </g>
  </g>
 </g>
 <defs>
  <clipPath id="p532fbb28df">
   <rect x="54.354531" y="10.8" width="348.845469" height="129.011562"/>
  </clipPath>
 </defs>
</svg>
