<?xml version="1.0" encoding="utf-8" standalone="no"?>
<!DOCTYPE svg PUBLIC "-//W3C//DTD SVG 1.1//EN"
  "http://www.w3.org/Graphics/SVG/1.1/DTD/svg11.dtd">
<svg xmlns:xlink="http://www.w3.org/1999/xlink" width="864pt" height="504pt" viewBox="0 0 864 504" xmlns="http://www.w3.org/2000/svg" version="1.1">
 <metadata>
  <rdf:RDF xmlns:dc="http://purl.org/dc/elements/1.1/" xmlns:cc="http://creativecommons.org/ns#" xmlns:rdf="http://www.w3.org/1999/02/22-rdf-syntax-ns#">
   <cc:Work>
    <dc:type rdf:resource="http://purl.org/dc/dcmitype/StillImage"/>
    <dc:date>2025-05-29T23:11:48.037786</dc:date>
    <dc:format>image/svg+xml</dc:format>
    <dc:creator>
     <cc:Agent>
      <dc:title>Matplotlib v3.10.1, https://matplotlib.org/</dc:title>
     </cc:Agent>
    </dc:creator>
   </cc:Work>
  </rdf:RDF>
 </metadata>
 <defs>
  <style type="text/css">*{stroke-linejoin: round; stroke-linecap: butt}</style>
 </defs>
 <g id="figure_1">
  <g id="patch_1">
   <path d="M 0 504 
L 864 504 
L 864 0 
L 0 0 
L 0 504 
z
" style="fill: none"/>
  </g>
  <g id="axes_1">
   <g id="patch_2">
    <path d="M 69.078125 216.805813 
L 853.2 216.805813 
L 853.2 10.8 
L 69.078125 10.8 
L 69.078125 216.805813 
z
" style="fill: none"/>
   </g>
   <g id="matplotlib.axis_1">
    <g id="xtick_1">
     <g id="line2d_1">
      <defs>
       <path id="m11c68f2b24" d="M 0 0 
L 0 3.5 
" style="stroke: #000000; stroke-width: 0.8"/>
      </defs>
      <g>
       <use xlink:href="#m11c68f2b24" x="270.235902" y="216.805813" style="stroke: #000000; stroke-width: 0.8"/>
      </g>
     </g>
     <g id="text_1">
      <!-- $\mathdefault{10^{1}}$ -->
      <g transform="translate(256.155902 235.963313) scale(0.16 -0.16)">
       <defs>
        <path id="DejaVuSans-31" d="M 794 531 
L 1825 531 
L 1825 4091 
L 703 3866 
L 703 4441 
L 1819 4666 
L 2450 4666 
L 2450 531 
L 3481 531 
L 3481 0 
L 794 0 
L 794 531 
z
" transform="scale(0.015625)"/>
        <path id="DejaVuSans-30" d="M 2034 4250 
Q 1547 4250 1301 3770 
Q 1056 3291 1056 2328 
Q 1056 1369 1301 889 
Q 1547 409 2034 409 
Q 2525 409 2770 889 
Q 3016 1369 3016 2328 
Q 3016 3291 2770 3770 
Q 2525 4250 2034 4250 
z
M 2034 4750 
Q 2819 4750 3233 4129 
Q 3647 3509 3647 2328 
Q 3647 1150 3233 529 
Q 2819 -91 2034 -91 
Q 1250 -91 836 529 
Q 422 1150 422 2328 
Q 422 3509 836 4129 
Q 1250 4750 2034 4750 
z
" transform="scale(0.015625)"/>
       </defs>
       <use xlink:href="#DejaVuSans-31" transform="translate(0 0.684375)"/>
       <use xlink:href="#DejaVuSans-30" transform="translate(63.623047 0.684375)"/>
       <use xlink:href="#DejaVuSans-31" transform="translate(128.203125 38.965625) scale(0.7)"/>
      </g>
     </g>
    </g>
    <g id="xtick_2">
     <g id="line2d_2">
      <g>
       <use xlink:href="#m11c68f2b24" x="507.035583" y="216.805813" style="stroke: #000000; stroke-width: 0.8"/>
      </g>
     </g>
     <g id="text_2">
      <!-- $\mathdefault{10^{2}}$ -->
      <g transform="translate(492.955583 235.963313) scale(0.16 -0.16)">
       <defs>
        <path id="DejaVuSans-32" d="M 1228 531 
L 3431 531 
L 3431 0 
L 469 0 
L 469 531 
Q 828 903 1448 1529 
Q 2069 2156 2228 2338 
Q 2531 2678 2651 2914 
Q 2772 3150 2772 3378 
Q 2772 3750 2511 3984 
Q 2250 4219 1831 4219 
Q 1534 4219 1204 4116 
Q 875 4013 500 3803 
L 500 4441 
Q 881 4594 1212 4672 
Q 1544 4750 1819 4750 
Q 2544 4750 2975 4387 
Q 3406 4025 3406 3419 
Q 3406 3131 3298 2873 
Q 3191 2616 2906 2266 
Q 2828 2175 2409 1742 
Q 1991 1309 1228 531 
z
" transform="scale(0.015625)"/>
       </defs>
       <use xlink:href="#DejaVuSans-31" transform="translate(0 0.765625)"/>
       <use xlink:href="#DejaVuSans-30" transform="translate(63.623047 0.765625)"/>
       <use xlink:href="#DejaVuSans-32" transform="translate(128.203125 39.046875) scale(0.7)"/>
      </g>
     </g>
    </g>
    <g id="xtick_3">
     <g id="line2d_3">
      <g>
       <use xlink:href="#m11c68f2b24" x="743.835263" y="216.805813" style="stroke: #000000; stroke-width: 0.8"/>
      </g>
     </g>
     <g id="text_3">
      <!-- $\mathdefault{10^{3}}$ -->
      <g transform="translate(729.755263 235.963313) scale(0.16 -0.16)">
       <defs>
        <path id="DejaVuSans-33" d="M 2597 2516 
Q 3050 2419 3304 2112 
Q 3559 1806 3559 1356 
Q 3559 666 3084 287 
Q 2609 -91 1734 -91 
Q 1441 -91 1130 -33 
Q 819 25 488 141 
L 488 750 
Q 750 597 1062 519 
Q 1375 441 1716 441 
Q 2309 441 2620 675 
Q 2931 909 2931 1356 
Q 2931 1769 2642 2001 
Q 2353 2234 1838 2234 
L 1294 2234 
L 1294 2753 
L 1863 2753 
Q 2328 2753 2575 2939 
Q 2822 3125 2822 3475 
Q 2822 3834 2567 4026 
Q 2313 4219 1838 4219 
Q 1578 4219 1281 4162 
Q 984 4106 628 3988 
L 628 4550 
Q 988 4650 1302 4700 
Q 1616 4750 1894 4750 
Q 2613 4750 3031 4423 
Q 3450 4097 3450 3541 
Q 3450 3153 3228 2886 
Q 3006 2619 2597 2516 
z
" transform="scale(0.015625)"/>
       </defs>
       <use xlink:href="#DejaVuSans-31" transform="translate(0 0.765625)"/>
       <use xlink:href="#DejaVuSans-30" transform="translate(63.623047 0.765625)"/>
       <use xlink:href="#DejaVuSans-33" transform="translate(128.203125 39.046875) scale(0.7)"/>
      </g>
     </g>
    </g>
    <g id="xtick_4">
     <g id="line2d_4">
      <defs>
       <path id="m03731060af" d="M 0 0 
L 0 2 
" style="stroke: #000000; stroke-width: 0.6"/>
      </defs>
      <g>
       <use xlink:href="#m03731060af" x="104.720028" y="216.805813" style="stroke: #000000; stroke-width: 0.6"/>
      </g>
     </g>
    </g>
    <g id="xtick_5">
     <g id="line2d_5">
      <g>
       <use xlink:href="#m03731060af" x="146.418382" y="216.805813" style="stroke: #000000; stroke-width: 0.6"/>
      </g>
     </g>
    </g>
    <g id="xtick_6">
     <g id="line2d_6">
      <g>
       <use xlink:href="#m03731060af" x="176.003835" y="216.805813" style="stroke: #000000; stroke-width: 0.6"/>
      </g>
     </g>
    </g>
    <g id="xtick_7">
     <g id="line2d_7">
      <g>
       <use xlink:href="#m03731060af" x="198.952095" y="216.805813" style="stroke: #000000; stroke-width: 0.6"/>
      </g>
     </g>
    </g>
    <g id="xtick_8">
     <g id="line2d_8">
      <g>
       <use xlink:href="#m03731060af" x="217.702189" y="216.805813" style="stroke: #000000; stroke-width: 0.6"/>
      </g>
     </g>
    </g>
    <g id="xtick_9">
     <g id="line2d_9">
      <g>
       <use xlink:href="#m03731060af" x="233.555168" y="216.805813" style="stroke: #000000; stroke-width: 0.6"/>
      </g>
     </g>
    </g>
    <g id="xtick_10">
     <g id="line2d_10">
      <g>
       <use xlink:href="#m03731060af" x="247.287642" y="216.805813" style="stroke: #000000; stroke-width: 0.6"/>
      </g>
     </g>
    </g>
    <g id="xtick_11">
     <g id="line2d_11">
      <g>
       <use xlink:href="#m03731060af" x="259.400543" y="216.805813" style="stroke: #000000; stroke-width: 0.6"/>
      </g>
     </g>
    </g>
    <g id="xtick_12">
     <g id="line2d_12">
      <g>
       <use xlink:href="#m03731060af" x="341.519709" y="216.805813" style="stroke: #000000; stroke-width: 0.6"/>
      </g>
     </g>
    </g>
    <g id="xtick_13">
     <g id="line2d_13">
      <g>
       <use xlink:href="#m03731060af" x="383.218063" y="216.805813" style="stroke: #000000; stroke-width: 0.6"/>
      </g>
     </g>
    </g>
    <g id="xtick_14">
     <g id="line2d_14">
      <g>
       <use xlink:href="#m03731060af" x="412.803516" y="216.805813" style="stroke: #000000; stroke-width: 0.6"/>
      </g>
     </g>
    </g>
    <g id="xtick_15">
     <g id="line2d_15">
      <g>
       <use xlink:href="#m03731060af" x="435.751776" y="216.805813" style="stroke: #000000; stroke-width: 0.6"/>
      </g>
     </g>
    </g>
    <g id="xtick_16">
     <g id="line2d_16">
      <g>
       <use xlink:href="#m03731060af" x="454.50187" y="216.805813" style="stroke: #000000; stroke-width: 0.6"/>
      </g>
     </g>
    </g>
    <g id="xtick_17">
     <g id="line2d_17">
      <g>
       <use xlink:href="#m03731060af" x="470.354848" y="216.805813" style="stroke: #000000; stroke-width: 0.6"/>
      </g>
     </g>
    </g>
    <g id="xtick_18">
     <g id="line2d_18">
      <g>
       <use xlink:href="#m03731060af" x="484.087323" y="216.805813" style="stroke: #000000; stroke-width: 0.6"/>
      </g>
     </g>
    </g>
    <g id="xtick_19">
     <g id="line2d_19">
      <g>
       <use xlink:href="#m03731060af" x="496.200224" y="216.805813" style="stroke: #000000; stroke-width: 0.6"/>
      </g>
     </g>
    </g>
    <g id="xtick_20">
     <g id="line2d_20">
      <g>
       <use xlink:href="#m03731060af" x="578.31939" y="216.805813" style="stroke: #000000; stroke-width: 0.6"/>
      </g>
     </g>
    </g>
    <g id="xtick_21">
     <g id="line2d_21">
      <g>
       <use xlink:href="#m03731060af" x="620.017743" y="216.805813" style="stroke: #000000; stroke-width: 0.6"/>
      </g>
     </g>
    </g>
    <g id="xtick_22">
     <g id="line2d_22">
      <g>
       <use xlink:href="#m03731060af" x="649.603196" y="216.805813" style="stroke: #000000; stroke-width: 0.6"/>
      </g>
     </g>
    </g>
    <g id="xtick_23">
     <g id="line2d_23">
      <g>
       <use xlink:href="#m03731060af" x="672.551457" y="216.805813" style="stroke: #000000; stroke-width: 0.6"/>
      </g>
     </g>
    </g>
    <g id="xtick_24">
     <g id="line2d_24">
      <g>
       <use xlink:href="#m03731060af" x="691.30155" y="216.805813" style="stroke: #000000; stroke-width: 0.6"/>
      </g>
     </g>
    </g>
    <g id="xtick_25">
     <g id="line2d_25">
      <g>
       <use xlink:href="#m03731060af" x="707.154529" y="216.805813" style="stroke: #000000; stroke-width: 0.6"/>
      </g>
     </g>
    </g>
    <g id="xtick_26">
     <g id="line2d_26">
      <g>
       <use xlink:href="#m03731060af" x="720.887003" y="216.805813" style="stroke: #000000; stroke-width: 0.6"/>
      </g>
     </g>
    </g>
    <g id="xtick_27">
     <g id="line2d_27">
      <g>
       <use xlink:href="#m03731060af" x="732.999904" y="216.805813" style="stroke: #000000; stroke-width: 0.6"/>
      </g>
     </g>
    </g>
    <g id="xtick_28">
     <g id="line2d_28">
      <g>
       <use xlink:href="#m03731060af" x="815.11907" y="216.805813" style="stroke: #000000; stroke-width: 0.6"/>
      </g>
     </g>
    </g>
   </g>
   <g id="matplotlib.axis_2">
    <g id="ytick_1">
     <g id="line2d_29">
      <defs>
       <path id="mfba3058f1a" d="M 0 0 
L -3.5 0 
" style="stroke: #000000; stroke-width: 0.8"/>
      </defs>
      <g>
       <use xlink:href="#mfba3058f1a" x="69.078125" y="188.919369" style="stroke: #000000; stroke-width: 0.8"/>
      </g>
     </g>
     <g id="text_4">
      <!-- $\mathdefault{10^{-6}}$ -->
      <g transform="translate(24.478125 194.998119) scale(0.16 -0.16)">
       <defs>
        <path id="DejaVuSans-2212" d="M 678 2272 
L 4684 2272 
L 4684 1741 
L 678 1741 
L 678 2272 
z
" transform="scale(0.015625)"/>
        <path id="DejaVuSans-36" d="M 2113 2584 
Q 1688 2584 1439 2293 
Q 1191 2003 1191 1497 
Q 1191 994 1439 701 
Q 1688 409 2113 409 
Q 2538 409 2786 701 
Q 3034 994 3034 1497 
Q 3034 2003 2786 2293 
Q 2538 2584 2113 2584 
z
M 3366 4563 
L 3366 3988 
Q 3128 4100 2886 4159 
Q 2644 4219 2406 4219 
Q 1781 4219 1451 3797 
Q 1122 3375 1075 2522 
Q 1259 2794 1537 2939 
Q 1816 3084 2150 3084 
Q 2853 3084 3261 2657 
Q 3669 2231 3669 1497 
Q 3669 778 3244 343 
Q 2819 -91 2113 -91 
Q 1303 -91 875 529 
Q 447 1150 447 2328 
Q 447 3434 972 4092 
Q 1497 4750 2381 4750 
Q 2619 4750 2861 4703 
Q 3103 4656 3366 4563 
z
" transform="scale(0.015625)"/>
       </defs>
       <use xlink:href="#DejaVuSans-31" transform="translate(0 0.765625)"/>
       <use xlink:href="#DejaVuSans-30" transform="translate(63.623047 0.765625)"/>
       <use xlink:href="#DejaVuSans-2212" transform="translate(128.203125 39.046875) scale(0.7)"/>
       <use xlink:href="#DejaVuSans-36" transform="translate(186.855469 39.046875) scale(0.7)"/>
      </g>
     </g>
    </g>
    <g id="ytick_2">
     <g id="line2d_30">
      <g>
       <use xlink:href="#mfba3058f1a" x="69.078125" y="152.508352" style="stroke: #000000; stroke-width: 0.8"/>
      </g>
     </g>
     <g id="text_5">
      <!-- $\mathdefault{10^{-3}}$ -->
      <g transform="translate(24.478125 158.587102) scale(0.16 -0.16)">
       <use xlink:href="#DejaVuSans-31" transform="translate(0 0.765625)"/>
       <use xlink:href="#DejaVuSans-30" transform="translate(63.623047 0.765625)"/>
       <use xlink:href="#DejaVuSans-2212" transform="translate(128.203125 39.046875) scale(0.7)"/>
       <use xlink:href="#DejaVuSans-33" transform="translate(186.855469 39.046875) scale(0.7)"/>
      </g>
     </g>
    </g>
    <g id="ytick_3">
     <g id="line2d_31">
      <g>
       <use xlink:href="#mfba3058f1a" x="69.078125" y="116.097334" style="stroke: #000000; stroke-width: 0.8"/>
      </g>
     </g>
     <g id="text_6">
      <!-- $\mathdefault{10^{0}}$ -->
      <g transform="translate(33.918125 122.176084) scale(0.16 -0.16)">
       <use xlink:href="#DejaVuSans-31" transform="translate(0 0.765625)"/>
       <use xlink:href="#DejaVuSans-30" transform="translate(63.623047 0.765625)"/>
       <use xlink:href="#DejaVuSans-30" transform="translate(128.203125 39.046875) scale(0.7)"/>
      </g>
     </g>
    </g>
    <g id="ytick_4">
     <g id="line2d_32">
      <g>
       <use xlink:href="#mfba3058f1a" x="69.078125" y="79.686317" style="stroke: #000000; stroke-width: 0.8"/>
      </g>
     </g>
     <g id="text_7">
      <!-- $\mathdefault{10^{3}}$ -->
      <g transform="translate(33.918125 85.765067) scale(0.16 -0.16)">
       <use xlink:href="#DejaVuSans-31" transform="translate(0 0.765625)"/>
       <use xlink:href="#DejaVuSans-30" transform="translate(63.623047 0.765625)"/>
       <use xlink:href="#DejaVuSans-33" transform="translate(128.203125 39.046875) scale(0.7)"/>
      </g>
     </g>
    </g>
    <g id="ytick_5">
     <g id="line2d_33">
      <g>
       <use xlink:href="#mfba3058f1a" x="69.078125" y="43.2753" style="stroke: #000000; stroke-width: 0.8"/>
      </g>
     </g>
     <g id="text_8">
      <!-- $\mathdefault{10^{6}}$ -->
      <g transform="translate(33.918125 49.35405) scale(0.16 -0.16)">
       <use xlink:href="#DejaVuSans-31" transform="translate(0 0.765625)"/>
       <use xlink:href="#DejaVuSans-30" transform="translate(63.623047 0.765625)"/>
       <use xlink:href="#DejaVuSans-36" transform="translate(128.203125 39.046875) scale(0.7)"/>
      </g>
     </g>
    </g>
    <g id="text_9">
     <!-- Position error [m] -->
     <g transform="translate(18.398437 157.319313) rotate(-90) scale(0.1 -0.1)">
      <defs>
       <path id="DejaVuSans-50" d="M 1259 4147 
L 1259 2394 
L 2053 2394 
Q 2494 2394 2734 2622 
Q 2975 2850 2975 3272 
Q 2975 3691 2734 3919 
Q 2494 4147 2053 4147 
L 1259 4147 
z
M 628 4666 
L 2053 4666 
Q 2838 4666 3239 4311 
Q 3641 3956 3641 3272 
Q 3641 2581 3239 2228 
Q 2838 1875 2053 1875 
L 1259 1875 
L 1259 0 
L 628 0 
L 628 4666 
z
" transform="scale(0.015625)"/>
       <path id="DejaVuSans-6f" d="M 1959 3097 
Q 1497 3097 1228 2736 
Q 959 2375 959 1747 
Q 959 1119 1226 758 
Q 1494 397 1959 397 
Q 2419 397 2687 759 
Q 2956 1122 2956 1747 
Q 2956 2369 2687 2733 
Q 2419 3097 1959 3097 
z
M 1959 3584 
Q 2709 3584 3137 3096 
Q 3566 2609 3566 1747 
Q 3566 888 3137 398 
Q 2709 -91 1959 -91 
Q 1206 -91 779 398 
Q 353 888 353 1747 
Q 353 2609 779 3096 
Q 1206 3584 1959 3584 
z
" transform="scale(0.015625)"/>
       <path id="DejaVuSans-73" d="M 2834 3397 
L 2834 2853 
Q 2591 2978 2328 3040 
Q 2066 3103 1784 3103 
Q 1356 3103 1142 2972 
Q 928 2841 928 2578 
Q 928 2378 1081 2264 
Q 1234 2150 1697 2047 
L 1894 2003 
Q 2506 1872 2764 1633 
Q 3022 1394 3022 966 
Q 3022 478 2636 193 
Q 2250 -91 1575 -91 
Q 1294 -91 989 -36 
Q 684 19 347 128 
L 347 722 
Q 666 556 975 473 
Q 1284 391 1588 391 
Q 1994 391 2212 530 
Q 2431 669 2431 922 
Q 2431 1156 2273 1281 
Q 2116 1406 1581 1522 
L 1381 1569 
Q 847 1681 609 1914 
Q 372 2147 372 2553 
Q 372 3047 722 3315 
Q 1072 3584 1716 3584 
Q 2034 3584 2315 3537 
Q 2597 3491 2834 3397 
z
" transform="scale(0.015625)"/>
       <path id="DejaVuSans-69" d="M 603 3500 
L 1178 3500 
L 1178 0 
L 603 0 
L 603 3500 
z
M 603 4863 
L 1178 4863 
L 1178 4134 
L 603 4134 
L 603 4863 
z
" transform="scale(0.015625)"/>
       <path id="DejaVuSans-74" d="M 1172 4494 
L 1172 3500 
L 2356 3500 
L 2356 3053 
L 1172 3053 
L 1172 1153 
Q 1172 725 1289 603 
Q 1406 481 1766 481 
L 2356 481 
L 2356 0 
L 1766 0 
Q 1100 0 847 248 
Q 594 497 594 1153 
L 594 3053 
L 172 3053 
L 172 3500 
L 594 3500 
L 594 4494 
L 1172 4494 
z
" transform="scale(0.015625)"/>
       <path id="DejaVuSans-6e" d="M 3513 2113 
L 3513 0 
L 2938 0 
L 2938 2094 
Q 2938 2591 2744 2837 
Q 2550 3084 2163 3084 
Q 1697 3084 1428 2787 
Q 1159 2491 1159 1978 
L 1159 0 
L 581 0 
L 581 3500 
L 1159 3500 
L 1159 2956 
Q 1366 3272 1645 3428 
Q 1925 3584 2291 3584 
Q 2894 3584 3203 3211 
Q 3513 2838 3513 2113 
z
" transform="scale(0.015625)"/>
       <path id="DejaVuSans-20" transform="scale(0.015625)"/>
       <path id="DejaVuSans-65" d="M 3597 1894 
L 3597 1613 
L 953 1613 
Q 991 1019 1311 708 
Q 1631 397 2203 397 
Q 2534 397 2845 478 
Q 3156 559 3463 722 
L 3463 178 
Q 3153 47 2828 -22 
Q 2503 -91 2169 -91 
Q 1331 -91 842 396 
Q 353 884 353 1716 
Q 353 2575 817 3079 
Q 1281 3584 2069 3584 
Q 2775 3584 3186 3129 
Q 3597 2675 3597 1894 
z
M 3022 2063 
Q 3016 2534 2758 2815 
Q 2500 3097 2075 3097 
Q 1594 3097 1305 2825 
Q 1016 2553 972 2059 
L 3022 2063 
z
" transform="scale(0.015625)"/>
       <path id="DejaVuSans-72" d="M 2631 2963 
Q 2534 3019 2420 3045 
Q 2306 3072 2169 3072 
Q 1681 3072 1420 2755 
Q 1159 2438 1159 1844 
L 1159 0 
L 581 0 
L 581 3500 
L 1159 3500 
L 1159 2956 
Q 1341 3275 1631 3429 
Q 1922 3584 2338 3584 
Q 2397 3584 2469 3576 
Q 2541 3569 2628 3553 
L 2631 2963 
z
" transform="scale(0.015625)"/>
       <path id="DejaVuSans-5b" d="M 550 4863 
L 1875 4863 
L 1875 4416 
L 1125 4416 
L 1125 -397 
L 1875 -397 
L 1875 -844 
L 550 -844 
L 550 4863 
z
" transform="scale(0.015625)"/>
       <path id="DejaVuSans-6d" d="M 3328 2828 
Q 3544 3216 3844 3400 
Q 4144 3584 4550 3584 
Q 5097 3584 5394 3201 
Q 5691 2819 5691 2113 
L 5691 0 
L 5113 0 
L 5113 2094 
Q 5113 2597 4934 2840 
Q 4756 3084 4391 3084 
Q 3944 3084 3684 2787 
Q 3425 2491 3425 1978 
L 3425 0 
L 2847 0 
L 2847 2094 
Q 2847 2600 2669 2842 
Q 2491 3084 2119 3084 
Q 1678 3084 1418 2786 
Q 1159 2488 1159 1978 
L 1159 0 
L 581 0 
L 581 3500 
L 1159 3500 
L 1159 2956 
Q 1356 3278 1631 3431 
Q 1906 3584 2284 3584 
Q 2666 3584 2933 3390 
Q 3200 3197 3328 2828 
z
" transform="scale(0.015625)"/>
       <path id="DejaVuSans-5d" d="M 1947 4863 
L 1947 -844 
L 622 -844 
L 622 -397 
L 1369 -397 
L 1369 4416 
L 622 4416 
L 622 4863 
L 1947 4863 
z
" transform="scale(0.015625)"/>
      </defs>
      <use xlink:href="#DejaVuSans-50"/>
      <use xlink:href="#DejaVuSans-6f" transform="translate(56.677734 0)"/>
      <use xlink:href="#DejaVuSans-73" transform="translate(117.859375 0)"/>
      <use xlink:href="#DejaVuSans-69" transform="translate(169.958984 0)"/>
      <use xlink:href="#DejaVuSans-74" transform="translate(197.742188 0)"/>
      <use xlink:href="#DejaVuSans-69" transform="translate(236.951172 0)"/>
      <use xlink:href="#DejaVuSans-6f" transform="translate(264.734375 0)"/>
      <use xlink:href="#DejaVuSans-6e" transform="translate(325.916016 0)"/>
      <use xlink:href="#DejaVuSans-20" transform="translate(389.294922 0)"/>
      <use xlink:href="#DejaVuSans-65" transform="translate(421.082031 0)"/>
      <use xlink:href="#DejaVuSans-72" transform="translate(482.605469 0)"/>
      <use xlink:href="#DejaVuSans-72" transform="translate(521.96875 0)"/>
      <use xlink:href="#DejaVuSans-6f" transform="translate(560.832031 0)"/>
      <use xlink:href="#DejaVuSans-72" transform="translate(622.013672 0)"/>
      <use xlink:href="#DejaVuSans-20" transform="translate(663.126953 0)"/>
      <use xlink:href="#DejaVuSans-5b" transform="translate(694.914062 0)"/>
      <use xlink:href="#DejaVuSans-6d" transform="translate(733.927734 0)"/>
      <use xlink:href="#DejaVuSans-5d" transform="translate(831.339844 0)"/>
     </g>
    </g>
   </g>
   <g id="line2d_34">
    <path d="M 104.720028 43.339992 
L 176.003835 39.798574 
L 247.287642 36.370885 
L 318.571449 33.165489 
L 389.855256 30.356907 
L 461.139062 28.121859 
L 532.422869 26.453114 
L 603.706676 25.087612 
L 674.990483 23.678664 
L 746.27429 21.941905 
L 817.558097 20.163901 
" clip-path="url(#pbbab9d0f83)" style="fill: none; stroke: #1c4d7a; stroke-width: 1.5; stroke-linecap: square"/>
   </g>
   <g id="line2d_35">
    <path d="M 104.720028 86.544583 
L 176.003835 79.215406 
L 247.287642 71.864998 
L 318.571449 64.474402 
L 389.855256 57.01291 
L 461.139062 49.449563 
L 532.422869 41.842964 
L 603.706676 34.619266 
L 674.990483 28.799216 
L 746.27429 25.461976 
L 817.558097 21.683248 
" clip-path="url(#pbbab9d0f83)" style="fill: none; stroke: #368770; stroke-width: 1.5; stroke-linecap: square"/>
   </g>
   <g id="line2d_36">
    <path d="M 104.720028 172.724419 
L 176.003835 158.015952 
L 247.287642 143.261595 
L 318.571449 128.376766 
L 389.855256 113.259974 
L 461.139062 97.766818 
L 532.422869 81.745852 
L 603.706676 65.105549 
L 674.990483 47.718879 
L 746.27429 28.75116 
L 817.558097 28.13023 
" clip-path="url(#pbbab9d0f83)" style="fill: none; stroke: #5ea04b; stroke-width: 1.5; stroke-linecap: square"/>
   </g>
   <g id="line2d_37">
    <path d="M 104.720028 191.240046 
L 176.003835 175.815644 
L 247.287642 160.885181 
L 318.571449 145.720754 
L 389.855256 130.103716 
L 461.139062 113.75922 
L 532.422869 96.307649 
L 603.706676 83.282723 
L 674.990483 83.340596 
L 746.27429 83.160471 
L 817.558097 82.738389 
" clip-path="url(#pbbab9d0f83)" style="fill: none; stroke: #aab35c; stroke-width: 1.5; stroke-linecap: square"/>
   </g>
   <g id="line2d_38">
    <path d="M 104.720028 191.240046 
L 176.003835 175.815644 
L 247.287642 160.885181 
L 318.571449 145.720754 
L 389.855256 130.103716 
L 461.139062 113.75922 
L 532.422869 108.705981 
L 603.706676 106.705635 
L 674.990483 106.727887 
L 746.27429 106.689621 
L 817.558097 106.690509 
" clip-path="url(#pbbab9d0f83)" style="fill: none; stroke-dasharray: 5.55,2.4; stroke-dashoffset: 0; stroke: #aab35c; stroke-width: 1.5"/>
   </g>
   <g id="line2d_39">
    <path d="M 104.720028 200.362796 
L 176.003835 203.698961 
L 247.287642 205.679375 
L 318.571449 207.441912 
L 389.855256 193.543172 
L 461.139062 168.442041 
L 532.422869 142.882346 
L 603.706676 117.58527 
L 674.990483 93.415361 
L 746.27429 90.74433 
L 817.558097 90.861062 
" clip-path="url(#pbbab9d0f83)" style="fill: none; stroke: #ceab85; stroke-width: 1.5; stroke-linecap: square"/>
   </g>
   <g id="line2d_40">
    <path d="M 104.720028 200.362796 
L 176.003835 203.698961 
L 247.287642 205.679375 
L 318.571449 207.441912 
L 389.855256 193.543172 
L 461.139062 168.442041 
L 532.422869 142.882346 
L 603.706676 117.58527 
L 674.990483 110.621761 
L 746.27429 108.445271 
L 817.558097 109.402685 
" clip-path="url(#pbbab9d0f83)" style="fill: none; stroke-dasharray: 5.55,2.4; stroke-dashoffset: 0; stroke: #ceab85; stroke-width: 1.5"/>
   </g>
   <g id="patch_3">
    <path d="M 69.078125 216.805813 
L 69.078125 10.8 
" style="fill: none; stroke: #000000; stroke-width: 0.8; stroke-linejoin: miter; stroke-linecap: square"/>
   </g>
   <g id="patch_4">
    <path d="M 853.2 216.805813 
L 853.2 10.8 
" style="fill: none; stroke: #000000; stroke-width: 0.8; stroke-linejoin: miter; stroke-linecap: square"/>
   </g>
   <g id="patch_5">
    <path d="M 69.078125 216.805813 
L 853.2 216.805813 
" style="fill: none; stroke: #000000; stroke-width: 0.8; stroke-linejoin: miter; stroke-linecap: square"/>
   </g>
   <g id="patch_6">
    <path d="M 69.078125 10.8 
L 853.2 10.8 
" style="fill: none; stroke: #000000; stroke-width: 0.8; stroke-linejoin: miter; stroke-linecap: square"/>
   </g>
   <g id="legend_1">
    <g id="patch_7">
     <path d="M 743.04 212.305813 
L 846.9 212.305813 
Q 848.7 212.305813 848.7 210.505813 
L 848.7 118.933625 
Q 848.7 117.133625 846.9 117.133625 
L 743.04 117.133625 
Q 741.24 117.133625 741.24 118.933625 
L 741.24 210.505813 
Q 741.24 212.305813 743.04 212.305813 
z
" style="fill: #ffffff; opacity: 0.8; stroke: #cccccc; stroke-linejoin: miter"/>
    </g>
    <g id="line2d_41">
     <path d="M 744.84 124.422219 
L 753.84 124.422219 
L 762.84 124.422219 
" style="fill: none; stroke: #1c4d7a; stroke-width: 1.5; stroke-linecap: square"/>
    </g>
    <g id="text_10">
     <!-- Euler -->
     <g transform="translate(770.04 127.572219) scale(0.09 -0.09)">
      <defs>
       <path id="DejaVuSans-45" d="M 628 4666 
L 3578 4666 
L 3578 4134 
L 1259 4134 
L 1259 2753 
L 3481 2753 
L 3481 2222 
L 1259 2222 
L 1259 531 
L 3634 531 
L 3634 0 
L 628 0 
L 628 4666 
z
" transform="scale(0.015625)"/>
       <path id="DejaVuSans-75" d="M 544 1381 
L 544 3500 
L 1119 3500 
L 1119 1403 
Q 1119 906 1312 657 
Q 1506 409 1894 409 
Q 2359 409 2629 706 
Q 2900 1003 2900 1516 
L 2900 3500 
L 3475 3500 
L 3475 0 
L 2900 0 
L 2900 538 
Q 2691 219 2414 64 
Q 2138 -91 1772 -91 
Q 1169 -91 856 284 
Q 544 659 544 1381 
z
M 1991 3584 
L 1991 3584 
z
" transform="scale(0.015625)"/>
       <path id="DejaVuSans-6c" d="M 603 4863 
L 1178 4863 
L 1178 0 
L 603 0 
L 603 4863 
z
" transform="scale(0.015625)"/>
      </defs>
      <use xlink:href="#DejaVuSans-45"/>
      <use xlink:href="#DejaVuSans-75" transform="translate(63.183594 0)"/>
      <use xlink:href="#DejaVuSans-6c" transform="translate(126.5625 0)"/>
      <use xlink:href="#DejaVuSans-65" transform="translate(154.345703 0)"/>
      <use xlink:href="#DejaVuSans-72" transform="translate(215.869141 0)"/>
     </g>
    </g>
    <g id="line2d_42">
     <path d="M 744.84 137.632532 
L 753.84 137.632532 
L 762.84 137.632532 
" style="fill: none; stroke: #368770; stroke-width: 1.5; stroke-linecap: square"/>
    </g>
    <g id="text_11">
     <!-- Heun -->
     <g transform="translate(770.04 140.782532) scale(0.09 -0.09)">
      <defs>
       <path id="DejaVuSans-48" d="M 628 4666 
L 1259 4666 
L 1259 2753 
L 3553 2753 
L 3553 4666 
L 4184 4666 
L 4184 0 
L 3553 0 
L 3553 2222 
L 1259 2222 
L 1259 0 
L 628 0 
L 628 4666 
z
" transform="scale(0.015625)"/>
      </defs>
      <use xlink:href="#DejaVuSans-48"/>
      <use xlink:href="#DejaVuSans-65" transform="translate(75.195312 0)"/>
      <use xlink:href="#DejaVuSans-75" transform="translate(136.71875 0)"/>
      <use xlink:href="#DejaVuSans-6e" transform="translate(200.097656 0)"/>
     </g>
    </g>
    <g id="line2d_43">
     <path d="M 744.84 150.842844 
L 753.84 150.842844 
L 762.84 150.842844 
" style="fill: none; stroke: #5ea04b; stroke-width: 1.5; stroke-linecap: square"/>
    </g>
    <g id="text_12">
     <!-- RK 4 -->
     <g transform="translate(770.04 153.992844) scale(0.09 -0.09)">
      <defs>
       <path id="DejaVuSans-52" d="M 2841 2188 
Q 3044 2119 3236 1894 
Q 3428 1669 3622 1275 
L 4263 0 
L 3584 0 
L 2988 1197 
Q 2756 1666 2539 1819 
Q 2322 1972 1947 1972 
L 1259 1972 
L 1259 0 
L 628 0 
L 628 4666 
L 2053 4666 
Q 2853 4666 3247 4331 
Q 3641 3997 3641 3322 
Q 3641 2881 3436 2590 
Q 3231 2300 2841 2188 
z
M 1259 4147 
L 1259 2491 
L 2053 2491 
Q 2509 2491 2742 2702 
Q 2975 2913 2975 3322 
Q 2975 3731 2742 3939 
Q 2509 4147 2053 4147 
L 1259 4147 
z
" transform="scale(0.015625)"/>
       <path id="DejaVuSans-4b" d="M 628 4666 
L 1259 4666 
L 1259 2694 
L 3353 4666 
L 4166 4666 
L 1850 2491 
L 4331 0 
L 3500 0 
L 1259 2247 
L 1259 0 
L 628 0 
L 628 4666 
z
" transform="scale(0.015625)"/>
       <path id="DejaVuSans-34" d="M 2419 4116 
L 825 1625 
L 2419 1625 
L 2419 4116 
z
M 2253 4666 
L 3047 4666 
L 3047 1625 
L 3713 1625 
L 3713 1100 
L 3047 1100 
L 3047 0 
L 2419 0 
L 2419 1100 
L 313 1100 
L 313 1709 
L 2253 4666 
z
" transform="scale(0.015625)"/>
      </defs>
      <use xlink:href="#DejaVuSans-52"/>
      <use xlink:href="#DejaVuSans-4b" transform="translate(69.482422 0)"/>
      <use xlink:href="#DejaVuSans-20" transform="translate(135.058594 0)"/>
      <use xlink:href="#DejaVuSans-34" transform="translate(166.845703 0)"/>
     </g>
    </g>
    <g id="line2d_44">
     <path d="M 744.84 164.053157 
L 753.84 164.053157 
L 762.84 164.053157 
" style="fill: none; stroke: #aab35c; stroke-width: 1.5; stroke-linecap: square"/>
    </g>
    <g id="text_13">
     <!-- RKF4(5) - $\epsilon = 10$ -->
     <g transform="translate(770.04 167.203157) scale(0.09 -0.09)">
      <defs>
       <path id="DejaVuSans-46" d="M 628 4666 
L 3309 4666 
L 3309 4134 
L 1259 4134 
L 1259 2759 
L 3109 2759 
L 3109 2228 
L 1259 2228 
L 1259 0 
L 628 0 
L 628 4666 
z
" transform="scale(0.015625)"/>
       <path id="DejaVuSans-28" d="M 1984 4856 
Q 1566 4138 1362 3434 
Q 1159 2731 1159 2009 
Q 1159 1288 1364 580 
Q 1569 -128 1984 -844 
L 1484 -844 
Q 1016 -109 783 600 
Q 550 1309 550 2009 
Q 550 2706 781 3412 
Q 1013 4119 1484 4856 
L 1984 4856 
z
" transform="scale(0.015625)"/>
       <path id="DejaVuSans-35" d="M 691 4666 
L 3169 4666 
L 3169 4134 
L 1269 4134 
L 1269 2991 
Q 1406 3038 1543 3061 
Q 1681 3084 1819 3084 
Q 2600 3084 3056 2656 
Q 3513 2228 3513 1497 
Q 3513 744 3044 326 
Q 2575 -91 1722 -91 
Q 1428 -91 1123 -41 
Q 819 9 494 109 
L 494 744 
Q 775 591 1075 516 
Q 1375 441 1709 441 
Q 2250 441 2565 725 
Q 2881 1009 2881 1497 
Q 2881 1984 2565 2268 
Q 2250 2553 1709 2553 
Q 1456 2553 1204 2497 
Q 953 2441 691 2322 
L 691 4666 
z
" transform="scale(0.015625)"/>
       <path id="DejaVuSans-29" d="M 513 4856 
L 1013 4856 
Q 1481 4119 1714 3412 
Q 1947 2706 1947 2009 
Q 1947 1309 1714 600 
Q 1481 -109 1013 -844 
L 513 -844 
Q 928 -128 1133 580 
Q 1338 1288 1338 2009 
Q 1338 2731 1133 3434 
Q 928 4138 513 4856 
z
" transform="scale(0.015625)"/>
       <path id="DejaVuSans-2d" d="M 313 2009 
L 1997 2009 
L 1997 1497 
L 313 1497 
L 313 2009 
z
" transform="scale(0.015625)"/>
       <path id="DejaVuSans-Oblique-3b5" d="M 1263 1888 
Q 925 1963 778 2166 
Q 669 2309 669 2503 
Q 669 3034 1175 3344 
Q 1575 3588 2188 3588 
Q 2425 3588 2684 3550 
Q 2944 3513 3234 3438 
L 3134 2916 
Q 2847 3006 2606 3047 
Q 2359 3088 2138 3088 
Q 1766 3088 1522 2944 
Q 1228 2772 1228 2522 
Q 1228 2356 1381 2241 
Q 1563 2103 1925 2103 
L 2409 2103 
L 2319 1628 
L 1856 1628 
Q 1425 1628 1172 1469 
Q 828 1253 828 916 
Q 828 703 1013 563 
Q 1244 388 1716 388 
Q 2006 388 2284 444 
Q 2563 503 2806 619 
L 2700 84 
Q 2403 -3 2131 -47 
Q 1859 -91 1609 -91 
Q 866 -91 516 194 
Q 250 413 250 781 
Q 250 1278 600 1584 
Q 859 1813 1263 1888 
z
" transform="scale(0.015625)"/>
       <path id="DejaVuSans-3d" d="M 678 2906 
L 4684 2906 
L 4684 2381 
L 678 2381 
L 678 2906 
z
M 678 1631 
L 4684 1631 
L 4684 1100 
L 678 1100 
L 678 1631 
z
" transform="scale(0.015625)"/>
      </defs>
      <use xlink:href="#DejaVuSans-52" transform="translate(0 0.125)"/>
      <use xlink:href="#DejaVuSans-4b" transform="translate(69.482422 0.125)"/>
      <use xlink:href="#DejaVuSans-46" transform="translate(135.058594 0.125)"/>
      <use xlink:href="#DejaVuSans-34" transform="translate(192.578125 0.125)"/>
      <use xlink:href="#DejaVuSans-28" transform="translate(256.201172 0.125)"/>
      <use xlink:href="#DejaVuSans-35" transform="translate(295.214844 0.125)"/>
      <use xlink:href="#DejaVuSans-29" transform="translate(358.837891 0.125)"/>
      <use xlink:href="#DejaVuSans-20" transform="translate(397.851562 0.125)"/>
      <use xlink:href="#DejaVuSans-2d" transform="translate(429.638672 0.125)"/>
      <use xlink:href="#DejaVuSans-20" transform="translate(465.722656 0.125)"/>
      <use xlink:href="#DejaVuSans-Oblique-3b5" transform="translate(497.509766 0.125)"/>
      <use xlink:href="#DejaVuSans-3d" transform="translate(571.044922 0.125)"/>
      <use xlink:href="#DejaVuSans-31" transform="translate(674.316406 0.125)"/>
      <use xlink:href="#DejaVuSans-30" transform="translate(737.939453 0.125)"/>
     </g>
    </g>
    <g id="line2d_45">
     <path d="M 744.84 177.263469 
L 753.84 177.263469 
L 762.84 177.263469 
" style="fill: none; stroke-dasharray: 5.55,2.4; stroke-dashoffset: 0; stroke: #aab35c; stroke-width: 1.5"/>
    </g>
    <g id="text_14">
     <!-- RKF4(5) - $\epsilon = 0.1$ -->
     <g transform="translate(770.04 180.413469) scale(0.09 -0.09)">
      <defs>
       <path id="DejaVuSans-2e" d="M 684 794 
L 1344 794 
L 1344 0 
L 684 0 
L 684 794 
z
" transform="scale(0.015625)"/>
      </defs>
      <use xlink:href="#DejaVuSans-52" transform="translate(0 0.125)"/>
      <use xlink:href="#DejaVuSans-4b" transform="translate(69.482422 0.125)"/>
      <use xlink:href="#DejaVuSans-46" transform="translate(135.058594 0.125)"/>
      <use xlink:href="#DejaVuSans-34" transform="translate(192.578125 0.125)"/>
      <use xlink:href="#DejaVuSans-28" transform="translate(256.201172 0.125)"/>
      <use xlink:href="#DejaVuSans-35" transform="translate(295.214844 0.125)"/>
      <use xlink:href="#DejaVuSans-29" transform="translate(358.837891 0.125)"/>
      <use xlink:href="#DejaVuSans-20" transform="translate(397.851562 0.125)"/>
      <use xlink:href="#DejaVuSans-2d" transform="translate(429.638672 0.125)"/>
      <use xlink:href="#DejaVuSans-20" transform="translate(465.722656 0.125)"/>
      <use xlink:href="#DejaVuSans-Oblique-3b5" transform="translate(497.509766 0.125)"/>
      <use xlink:href="#DejaVuSans-3d" transform="translate(571.044922 0.125)"/>
      <use xlink:href="#DejaVuSans-30" transform="translate(674.316406 0.125)"/>
      <use xlink:href="#DejaVuSans-2e" transform="translate(737.939453 0.125)"/>
      <use xlink:href="#DejaVuSans-31" transform="translate(769.726562 0.125)"/>
     </g>
    </g>
    <g id="line2d_46">
     <path d="M 744.84 190.473782 
L 753.84 190.473782 
L 762.84 190.473782 
" style="fill: none; stroke: #ceab85; stroke-width: 1.5; stroke-linecap: square"/>
    </g>
    <g id="text_15">
     <!-- RKF7(8) - $\epsilon = 10$ -->
     <g transform="translate(770.04 193.623782) scale(0.09 -0.09)">
      <defs>
       <path id="DejaVuSans-37" d="M 525 4666 
L 3525 4666 
L 3525 4397 
L 1831 0 
L 1172 0 
L 2766 4134 
L 525 4134 
L 525 4666 
z
" transform="scale(0.015625)"/>
       <path id="DejaVuSans-38" d="M 2034 2216 
Q 1584 2216 1326 1975 
Q 1069 1734 1069 1313 
Q 1069 891 1326 650 
Q 1584 409 2034 409 
Q 2484 409 2743 651 
Q 3003 894 3003 1313 
Q 3003 1734 2745 1975 
Q 2488 2216 2034 2216 
z
M 1403 2484 
Q 997 2584 770 2862 
Q 544 3141 544 3541 
Q 544 4100 942 4425 
Q 1341 4750 2034 4750 
Q 2731 4750 3128 4425 
Q 3525 4100 3525 3541 
Q 3525 3141 3298 2862 
Q 3072 2584 2669 2484 
Q 3125 2378 3379 2068 
Q 3634 1759 3634 1313 
Q 3634 634 3220 271 
Q 2806 -91 2034 -91 
Q 1263 -91 848 271 
Q 434 634 434 1313 
Q 434 1759 690 2068 
Q 947 2378 1403 2484 
z
M 1172 3481 
Q 1172 3119 1398 2916 
Q 1625 2713 2034 2713 
Q 2441 2713 2670 2916 
Q 2900 3119 2900 3481 
Q 2900 3844 2670 4047 
Q 2441 4250 2034 4250 
Q 1625 4250 1398 4047 
Q 1172 3844 1172 3481 
z
" transform="scale(0.015625)"/>
      </defs>
      <use xlink:href="#DejaVuSans-52" transform="translate(0 0.125)"/>
      <use xlink:href="#DejaVuSans-4b" transform="translate(69.482422 0.125)"/>
      <use xlink:href="#DejaVuSans-46" transform="translate(135.058594 0.125)"/>
      <use xlink:href="#DejaVuSans-37" transform="translate(192.578125 0.125)"/>
      <use xlink:href="#DejaVuSans-28" transform="translate(256.201172 0.125)"/>
      <use xlink:href="#DejaVuSans-38" transform="translate(295.214844 0.125)"/>
      <use xlink:href="#DejaVuSans-29" transform="translate(358.837891 0.125)"/>
      <use xlink:href="#DejaVuSans-20" transform="translate(397.851562 0.125)"/>
      <use xlink:href="#DejaVuSans-2d" transform="translate(429.638672 0.125)"/>
      <use xlink:href="#DejaVuSans-20" transform="translate(465.722656 0.125)"/>
      <use xlink:href="#DejaVuSans-Oblique-3b5" transform="translate(497.509766 0.125)"/>
      <use xlink:href="#DejaVuSans-3d" transform="translate(571.044922 0.125)"/>
      <use xlink:href="#DejaVuSans-31" transform="translate(674.316406 0.125)"/>
      <use xlink:href="#DejaVuSans-30" transform="translate(737.939453 0.125)"/>
     </g>
    </g>
    <g id="line2d_47">
     <path d="M 744.84 203.684094 
L 753.84 203.684094 
L 762.84 203.684094 
" style="fill: none; stroke-dasharray: 5.55,2.4; stroke-dashoffset: 0; stroke: #ceab85; stroke-width: 1.5"/>
    </g>
    <g id="text_16">
     <!-- RKF7(8) - $\epsilon = 0.1$ -->
     <g transform="translate(770.04 206.834094) scale(0.09 -0.09)">
      <use xlink:href="#DejaVuSans-52" transform="translate(0 0.125)"/>
      <use xlink:href="#DejaVuSans-4b" transform="translate(69.482422 0.125)"/>
      <use xlink:href="#DejaVuSans-46" transform="translate(135.058594 0.125)"/>
      <use xlink:href="#DejaVuSans-37" transform="translate(192.578125 0.125)"/>
      <use xlink:href="#DejaVuSans-28" transform="translate(256.201172 0.125)"/>
      <use xlink:href="#DejaVuSans-38" transform="translate(295.214844 0.125)"/>
      <use xlink:href="#DejaVuSans-29" transform="translate(358.837891 0.125)"/>
      <use xlink:href="#DejaVuSans-20" transform="translate(397.851562 0.125)"/>
      <use xlink:href="#DejaVuSans-2d" transform="translate(429.638672 0.125)"/>
      <use xlink:href="#DejaVuSans-20" transform="translate(465.722656 0.125)"/>
      <use xlink:href="#DejaVuSans-Oblique-3b5" transform="translate(497.509766 0.125)"/>
      <use xlink:href="#DejaVuSans-3d" transform="translate(571.044922 0.125)"/>
      <use xlink:href="#DejaVuSans-30" transform="translate(674.316406 0.125)"/>
      <use xlink:href="#DejaVuSans-2e" transform="translate(737.939453 0.125)"/>
      <use xlink:href="#DejaVuSans-31" transform="translate(769.726562 0.125)"/>
     </g>
    </g>
   </g>
  </g>
  <g id="axes_2">
   <g id="patch_8">
    <path d="M 69.078125 457.036875 
L 853.2 457.036875 
L 853.2 251.031062 
L 69.078125 251.031062 
L 69.078125 457.036875 
z
" style="fill: none"/>
   </g>
   <g id="matplotlib.axis_3">
    <g id="xtick_29">
     <g id="line2d_48">
      <g>
       <use xlink:href="#m11c68f2b24" x="270.235902" y="457.036875" style="stroke: #000000; stroke-width: 0.8"/>
      </g>
     </g>
     <g id="text_17">
      <!-- $\mathdefault{10^{1}}$ -->
      <g transform="translate(256.155902 476.194375) scale(0.16 -0.16)">
       <use xlink:href="#DejaVuSans-31" transform="translate(0 0.684375)"/>
       <use xlink:href="#DejaVuSans-30" transform="translate(63.623047 0.684375)"/>
       <use xlink:href="#DejaVuSans-31" transform="translate(128.203125 38.965625) scale(0.7)"/>
      </g>
     </g>
    </g>
    <g id="xtick_30">
     <g id="line2d_49">
      <g>
       <use xlink:href="#m11c68f2b24" x="507.035583" y="457.036875" style="stroke: #000000; stroke-width: 0.8"/>
      </g>
     </g>
     <g id="text_18">
      <!-- $\mathdefault{10^{2}}$ -->
      <g transform="translate(492.955583 476.194375) scale(0.16 -0.16)">
       <use xlink:href="#DejaVuSans-31" transform="translate(0 0.765625)"/>
       <use xlink:href="#DejaVuSans-30" transform="translate(63.623047 0.765625)"/>
       <use xlink:href="#DejaVuSans-32" transform="translate(128.203125 39.046875) scale(0.7)"/>
      </g>
     </g>
    </g>
    <g id="xtick_31">
     <g id="line2d_50">
      <g>
       <use xlink:href="#m11c68f2b24" x="743.835263" y="457.036875" style="stroke: #000000; stroke-width: 0.8"/>
      </g>
     </g>
     <g id="text_19">
      <!-- $\mathdefault{10^{3}}$ -->
      <g transform="translate(729.755263 476.194375) scale(0.16 -0.16)">
       <use xlink:href="#DejaVuSans-31" transform="translate(0 0.765625)"/>
       <use xlink:href="#DejaVuSans-30" transform="translate(63.623047 0.765625)"/>
       <use xlink:href="#DejaVuSans-33" transform="translate(128.203125 39.046875) scale(0.7)"/>
      </g>
     </g>
    </g>
    <g id="xtick_32">
     <g id="line2d_51">
      <g>
       <use xlink:href="#m03731060af" x="104.720028" y="457.036875" style="stroke: #000000; stroke-width: 0.6"/>
      </g>
     </g>
    </g>
    <g id="xtick_33">
     <g id="line2d_52">
      <g>
       <use xlink:href="#m03731060af" x="146.418382" y="457.036875" style="stroke: #000000; stroke-width: 0.6"/>
      </g>
     </g>
    </g>
    <g id="xtick_34">
     <g id="line2d_53">
      <g>
       <use xlink:href="#m03731060af" x="176.003835" y="457.036875" style="stroke: #000000; stroke-width: 0.6"/>
      </g>
     </g>
    </g>
    <g id="xtick_35">
     <g id="line2d_54">
      <g>
       <use xlink:href="#m03731060af" x="198.952095" y="457.036875" style="stroke: #000000; stroke-width: 0.6"/>
      </g>
     </g>
    </g>
    <g id="xtick_36">
     <g id="line2d_55">
      <g>
       <use xlink:href="#m03731060af" x="217.702189" y="457.036875" style="stroke: #000000; stroke-width: 0.6"/>
      </g>
     </g>
    </g>
    <g id="xtick_37">
     <g id="line2d_56">
      <g>
       <use xlink:href="#m03731060af" x="233.555168" y="457.036875" style="stroke: #000000; stroke-width: 0.6"/>
      </g>
     </g>
    </g>
    <g id="xtick_38">
     <g id="line2d_57">
      <g>
       <use xlink:href="#m03731060af" x="247.287642" y="457.036875" style="stroke: #000000; stroke-width: 0.6"/>
      </g>
     </g>
    </g>
    <g id="xtick_39">
     <g id="line2d_58">
      <g>
       <use xlink:href="#m03731060af" x="259.400543" y="457.036875" style="stroke: #000000; stroke-width: 0.6"/>
      </g>
     </g>
    </g>
    <g id="xtick_40">
     <g id="line2d_59">
      <g>
       <use xlink:href="#m03731060af" x="341.519709" y="457.036875" style="stroke: #000000; stroke-width: 0.6"/>
      </g>
     </g>
    </g>
    <g id="xtick_41">
     <g id="line2d_60">
      <g>
       <use xlink:href="#m03731060af" x="383.218063" y="457.036875" style="stroke: #000000; stroke-width: 0.6"/>
      </g>
     </g>
    </g>
    <g id="xtick_42">
     <g id="line2d_61">
      <g>
       <use xlink:href="#m03731060af" x="412.803516" y="457.036875" style="stroke: #000000; stroke-width: 0.6"/>
      </g>
     </g>
    </g>
    <g id="xtick_43">
     <g id="line2d_62">
      <g>
       <use xlink:href="#m03731060af" x="435.751776" y="457.036875" style="stroke: #000000; stroke-width: 0.6"/>
      </g>
     </g>
    </g>
    <g id="xtick_44">
     <g id="line2d_63">
      <g>
       <use xlink:href="#m03731060af" x="454.50187" y="457.036875" style="stroke: #000000; stroke-width: 0.6"/>
      </g>
     </g>
    </g>
    <g id="xtick_45">
     <g id="line2d_64">
      <g>
       <use xlink:href="#m03731060af" x="470.354848" y="457.036875" style="stroke: #000000; stroke-width: 0.6"/>
      </g>
     </g>
    </g>
    <g id="xtick_46">
     <g id="line2d_65">
      <g>
       <use xlink:href="#m03731060af" x="484.087323" y="457.036875" style="stroke: #000000; stroke-width: 0.6"/>
      </g>
     </g>
    </g>
    <g id="xtick_47">
     <g id="line2d_66">
      <g>
       <use xlink:href="#m03731060af" x="496.200224" y="457.036875" style="stroke: #000000; stroke-width: 0.6"/>
      </g>
     </g>
    </g>
    <g id="xtick_48">
     <g id="line2d_67">
      <g>
       <use xlink:href="#m03731060af" x="578.31939" y="457.036875" style="stroke: #000000; stroke-width: 0.6"/>
      </g>
     </g>
    </g>
    <g id="xtick_49">
     <g id="line2d_68">
      <g>
       <use xlink:href="#m03731060af" x="620.017743" y="457.036875" style="stroke: #000000; stroke-width: 0.6"/>
      </g>
     </g>
    </g>
    <g id="xtick_50">
     <g id="line2d_69">
      <g>
       <use xlink:href="#m03731060af" x="649.603196" y="457.036875" style="stroke: #000000; stroke-width: 0.6"/>
      </g>
     </g>
    </g>
    <g id="xtick_51">
     <g id="line2d_70">
      <g>
       <use xlink:href="#m03731060af" x="672.551457" y="457.036875" style="stroke: #000000; stroke-width: 0.6"/>
      </g>
     </g>
    </g>
    <g id="xtick_52">
     <g id="line2d_71">
      <g>
       <use xlink:href="#m03731060af" x="691.30155" y="457.036875" style="stroke: #000000; stroke-width: 0.6"/>
      </g>
     </g>
    </g>
    <g id="xtick_53">
     <g id="line2d_72">
      <g>
       <use xlink:href="#m03731060af" x="707.154529" y="457.036875" style="stroke: #000000; stroke-width: 0.6"/>
      </g>
     </g>
    </g>
    <g id="xtick_54">
     <g id="line2d_73">
      <g>
       <use xlink:href="#m03731060af" x="720.887003" y="457.036875" style="stroke: #000000; stroke-width: 0.6"/>
      </g>
     </g>
    </g>
    <g id="xtick_55">
     <g id="line2d_74">
      <g>
       <use xlink:href="#m03731060af" x="732.999904" y="457.036875" style="stroke: #000000; stroke-width: 0.6"/>
      </g>
     </g>
    </g>
    <g id="xtick_56">
     <g id="line2d_75">
      <g>
       <use xlink:href="#m03731060af" x="815.11907" y="457.036875" style="stroke: #000000; stroke-width: 0.6"/>
      </g>
     </g>
    </g>
    <g id="text_20">
     <!-- Time step [s] -->
     <g transform="translate(428.405469 491.120313) scale(0.1 -0.1)">
      <defs>
       <path id="DejaVuSans-54" d="M -19 4666 
L 3928 4666 
L 3928 4134 
L 2272 4134 
L 2272 0 
L 1638 0 
L 1638 4134 
L -19 4134 
L -19 4666 
z
" transform="scale(0.015625)"/>
       <path id="DejaVuSans-70" d="M 1159 525 
L 1159 -1331 
L 581 -1331 
L 581 3500 
L 1159 3500 
L 1159 2969 
Q 1341 3281 1617 3432 
Q 1894 3584 2278 3584 
Q 2916 3584 3314 3078 
Q 3713 2572 3713 1747 
Q 3713 922 3314 415 
Q 2916 -91 2278 -91 
Q 1894 -91 1617 61 
Q 1341 213 1159 525 
z
M 3116 1747 
Q 3116 2381 2855 2742 
Q 2594 3103 2138 3103 
Q 1681 3103 1420 2742 
Q 1159 2381 1159 1747 
Q 1159 1113 1420 752 
Q 1681 391 2138 391 
Q 2594 391 2855 752 
Q 3116 1113 3116 1747 
z
" transform="scale(0.015625)"/>
      </defs>
      <use xlink:href="#DejaVuSans-54"/>
      <use xlink:href="#DejaVuSans-69" transform="translate(57.958984 0)"/>
      <use xlink:href="#DejaVuSans-6d" transform="translate(85.742188 0)"/>
      <use xlink:href="#DejaVuSans-65" transform="translate(183.154297 0)"/>
      <use xlink:href="#DejaVuSans-20" transform="translate(244.677734 0)"/>
      <use xlink:href="#DejaVuSans-73" transform="translate(276.464844 0)"/>
      <use xlink:href="#DejaVuSans-74" transform="translate(328.564453 0)"/>
      <use xlink:href="#DejaVuSans-65" transform="translate(367.773438 0)"/>
      <use xlink:href="#DejaVuSans-70" transform="translate(429.296875 0)"/>
      <use xlink:href="#DejaVuSans-20" transform="translate(492.773438 0)"/>
      <use xlink:href="#DejaVuSans-5b" transform="translate(524.560547 0)"/>
      <use xlink:href="#DejaVuSans-73" transform="translate(563.574219 0)"/>
      <use xlink:href="#DejaVuSans-5d" transform="translate(615.673828 0)"/>
     </g>
    </g>
   </g>
   <g id="matplotlib.axis_4">
    <g id="ytick_6">
     <g id="line2d_76">
      <g>
       <use xlink:href="#mfba3058f1a" x="69.078125" y="448.549338" style="stroke: #000000; stroke-width: 0.8"/>
      </g>
     </g>
     <g id="text_21">
      <!-- $\mathdefault{10^{-3}}$ -->
      <g transform="translate(24.478125 454.628088) scale(0.16 -0.16)">
       <use xlink:href="#DejaVuSans-31" transform="translate(0 0.765625)"/>
       <use xlink:href="#DejaVuSans-30" transform="translate(63.623047 0.765625)"/>
       <use xlink:href="#DejaVuSans-2212" transform="translate(128.203125 39.046875) scale(0.7)"/>
       <use xlink:href="#DejaVuSans-33" transform="translate(186.855469 39.046875) scale(0.7)"/>
      </g>
     </g>
    </g>
    <g id="ytick_7">
     <g id="line2d_77">
      <g>
       <use xlink:href="#mfba3058f1a" x="69.078125" y="384.710217" style="stroke: #000000; stroke-width: 0.8"/>
      </g>
     </g>
     <g id="text_22">
      <!-- $\mathdefault{10^{-2}}$ -->
      <g transform="translate(24.478125 390.788967) scale(0.16 -0.16)">
       <use xlink:href="#DejaVuSans-31" transform="translate(0 0.765625)"/>
       <use xlink:href="#DejaVuSans-30" transform="translate(63.623047 0.765625)"/>
       <use xlink:href="#DejaVuSans-2212" transform="translate(128.203125 39.046875) scale(0.7)"/>
       <use xlink:href="#DejaVuSans-32" transform="translate(186.855469 39.046875) scale(0.7)"/>
      </g>
     </g>
    </g>
    <g id="ytick_8">
     <g id="line2d_78">
      <g>
       <use xlink:href="#mfba3058f1a" x="69.078125" y="320.871096" style="stroke: #000000; stroke-width: 0.8"/>
      </g>
     </g>
     <g id="text_23">
      <!-- $\mathdefault{10^{-1}}$ -->
      <g transform="translate(24.478125 326.949846) scale(0.16 -0.16)">
       <use xlink:href="#DejaVuSans-31" transform="translate(0 0.684375)"/>
       <use xlink:href="#DejaVuSans-30" transform="translate(63.623047 0.684375)"/>
       <use xlink:href="#DejaVuSans-2212" transform="translate(128.203125 38.965625) scale(0.7)"/>
       <use xlink:href="#DejaVuSans-31" transform="translate(186.855469 38.965625) scale(0.7)"/>
      </g>
     </g>
    </g>
    <g id="ytick_9">
     <g id="line2d_79">
      <g>
       <use xlink:href="#mfba3058f1a" x="69.078125" y="257.031975" style="stroke: #000000; stroke-width: 0.8"/>
      </g>
     </g>
     <g id="text_24">
      <!-- $\mathdefault{10^{0}}$ -->
      <g transform="translate(33.918125 263.110725) scale(0.16 -0.16)">
       <use xlink:href="#DejaVuSans-31" transform="translate(0 0.765625)"/>
       <use xlink:href="#DejaVuSans-30" transform="translate(63.623047 0.765625)"/>
       <use xlink:href="#DejaVuSans-30" transform="translate(128.203125 39.046875) scale(0.7)"/>
      </g>
     </g>
    </g>
    <g id="ytick_10">
     <g id="line2d_80">
      <defs>
       <path id="mc3d70353cb" d="M 0 0 
L -2 0 
" style="stroke: #000000; stroke-width: 0.6"/>
      </defs>
      <g>
       <use xlink:href="#mc3d70353cb" x="69.078125" y="454.735988" style="stroke: #000000; stroke-width: 0.6"/>
      </g>
     </g>
    </g>
    <g id="ytick_11">
     <g id="line2d_81">
      <g>
       <use xlink:href="#mc3d70353cb" x="69.078125" y="451.470455" style="stroke: #000000; stroke-width: 0.6"/>
      </g>
     </g>
    </g>
    <g id="ytick_12">
     <g id="line2d_82">
      <g>
       <use xlink:href="#mc3d70353cb" x="69.078125" y="429.331847" style="stroke: #000000; stroke-width: 0.6"/>
      </g>
     </g>
    </g>
    <g id="ytick_13">
     <g id="line2d_83">
      <g>
       <use xlink:href="#mc3d70353cb" x="69.078125" y="418.090336" style="stroke: #000000; stroke-width: 0.6"/>
      </g>
     </g>
    </g>
    <g id="ytick_14">
     <g id="line2d_84">
      <g>
       <use xlink:href="#mc3d70353cb" x="69.078125" y="410.114357" style="stroke: #000000; stroke-width: 0.6"/>
      </g>
     </g>
    </g>
    <g id="ytick_15">
     <g id="line2d_85">
      <g>
       <use xlink:href="#mc3d70353cb" x="69.078125" y="403.927707" style="stroke: #000000; stroke-width: 0.6"/>
      </g>
     </g>
    </g>
    <g id="ytick_16">
     <g id="line2d_86">
      <g>
       <use xlink:href="#mc3d70353cb" x="69.078125" y="398.872846" style="stroke: #000000; stroke-width: 0.6"/>
      </g>
     </g>
    </g>
    <g id="ytick_17">
     <g id="line2d_87">
      <g>
       <use xlink:href="#mc3d70353cb" x="69.078125" y="394.599022" style="stroke: #000000; stroke-width: 0.6"/>
      </g>
     </g>
    </g>
    <g id="ytick_18">
     <g id="line2d_88">
      <g>
       <use xlink:href="#mc3d70353cb" x="69.078125" y="390.896867" style="stroke: #000000; stroke-width: 0.6"/>
      </g>
     </g>
    </g>
    <g id="ytick_19">
     <g id="line2d_89">
      <g>
       <use xlink:href="#mc3d70353cb" x="69.078125" y="387.631335" style="stroke: #000000; stroke-width: 0.6"/>
      </g>
     </g>
    </g>
    <g id="ytick_20">
     <g id="line2d_90">
      <g>
       <use xlink:href="#mc3d70353cb" x="69.078125" y="365.492726" style="stroke: #000000; stroke-width: 0.6"/>
      </g>
     </g>
    </g>
    <g id="ytick_21">
     <g id="line2d_91">
      <g>
       <use xlink:href="#mc3d70353cb" x="69.078125" y="354.251215" style="stroke: #000000; stroke-width: 0.6"/>
      </g>
     </g>
    </g>
    <g id="ytick_22">
     <g id="line2d_92">
      <g>
       <use xlink:href="#mc3d70353cb" x="69.078125" y="346.275236" style="stroke: #000000; stroke-width: 0.6"/>
      </g>
     </g>
    </g>
    <g id="ytick_23">
     <g id="line2d_93">
      <g>
       <use xlink:href="#mc3d70353cb" x="69.078125" y="340.088586" style="stroke: #000000; stroke-width: 0.6"/>
      </g>
     </g>
    </g>
    <g id="ytick_24">
     <g id="line2d_94">
      <g>
       <use xlink:href="#mc3d70353cb" x="69.078125" y="335.033725" style="stroke: #000000; stroke-width: 0.6"/>
      </g>
     </g>
    </g>
    <g id="ytick_25">
     <g id="line2d_95">
      <g>
       <use xlink:href="#mc3d70353cb" x="69.078125" y="330.759901" style="stroke: #000000; stroke-width: 0.6"/>
      </g>
     </g>
    </g>
    <g id="ytick_26">
     <g id="line2d_96">
      <g>
       <use xlink:href="#mc3d70353cb" x="69.078125" y="327.057746" style="stroke: #000000; stroke-width: 0.6"/>
      </g>
     </g>
    </g>
    <g id="ytick_27">
     <g id="line2d_97">
      <g>
       <use xlink:href="#mc3d70353cb" x="69.078125" y="323.792214" style="stroke: #000000; stroke-width: 0.6"/>
      </g>
     </g>
    </g>
    <g id="ytick_28">
     <g id="line2d_98">
      <g>
       <use xlink:href="#mc3d70353cb" x="69.078125" y="301.653605" style="stroke: #000000; stroke-width: 0.6"/>
      </g>
     </g>
    </g>
    <g id="ytick_29">
     <g id="line2d_99">
      <g>
       <use xlink:href="#mc3d70353cb" x="69.078125" y="290.412094" style="stroke: #000000; stroke-width: 0.6"/>
      </g>
     </g>
    </g>
    <g id="ytick_30">
     <g id="line2d_100">
      <g>
       <use xlink:href="#mc3d70353cb" x="69.078125" y="282.436115" style="stroke: #000000; stroke-width: 0.6"/>
      </g>
     </g>
    </g>
    <g id="ytick_31">
     <g id="line2d_101">
      <g>
       <use xlink:href="#mc3d70353cb" x="69.078125" y="276.249465" style="stroke: #000000; stroke-width: 0.6"/>
      </g>
     </g>
    </g>
    <g id="ytick_32">
     <g id="line2d_102">
      <g>
       <use xlink:href="#mc3d70353cb" x="69.078125" y="271.194604" style="stroke: #000000; stroke-width: 0.6"/>
      </g>
     </g>
    </g>
    <g id="ytick_33">
     <g id="line2d_103">
      <g>
       <use xlink:href="#mc3d70353cb" x="69.078125" y="266.92078" style="stroke: #000000; stroke-width: 0.6"/>
      </g>
     </g>
    </g>
    <g id="ytick_34">
     <g id="line2d_104">
      <g>
       <use xlink:href="#mc3d70353cb" x="69.078125" y="263.218625" style="stroke: #000000; stroke-width: 0.6"/>
      </g>
     </g>
    </g>
    <g id="ytick_35">
     <g id="line2d_105">
      <g>
       <use xlink:href="#mc3d70353cb" x="69.078125" y="259.953093" style="stroke: #000000; stroke-width: 0.6"/>
      </g>
     </g>
    </g>
    <g id="text_25">
     <!-- Integration time [s] -->
     <g transform="translate(18.398437 402.566) rotate(-90) scale(0.1 -0.1)">
      <defs>
       <path id="DejaVuSans-49" d="M 628 4666 
L 1259 4666 
L 1259 0 
L 628 0 
L 628 4666 
z
" transform="scale(0.015625)"/>
       <path id="DejaVuSans-67" d="M 2906 1791 
Q 2906 2416 2648 2759 
Q 2391 3103 1925 3103 
Q 1463 3103 1205 2759 
Q 947 2416 947 1791 
Q 947 1169 1205 825 
Q 1463 481 1925 481 
Q 2391 481 2648 825 
Q 2906 1169 2906 1791 
z
M 3481 434 
Q 3481 -459 3084 -895 
Q 2688 -1331 1869 -1331 
Q 1566 -1331 1297 -1286 
Q 1028 -1241 775 -1147 
L 775 -588 
Q 1028 -725 1275 -790 
Q 1522 -856 1778 -856 
Q 2344 -856 2625 -561 
Q 2906 -266 2906 331 
L 2906 616 
Q 2728 306 2450 153 
Q 2172 0 1784 0 
Q 1141 0 747 490 
Q 353 981 353 1791 
Q 353 2603 747 3093 
Q 1141 3584 1784 3584 
Q 2172 3584 2450 3431 
Q 2728 3278 2906 2969 
L 2906 3500 
L 3481 3500 
L 3481 434 
z
" transform="scale(0.015625)"/>
       <path id="DejaVuSans-61" d="M 2194 1759 
Q 1497 1759 1228 1600 
Q 959 1441 959 1056 
Q 959 750 1161 570 
Q 1363 391 1709 391 
Q 2188 391 2477 730 
Q 2766 1069 2766 1631 
L 2766 1759 
L 2194 1759 
z
M 3341 1997 
L 3341 0 
L 2766 0 
L 2766 531 
Q 2569 213 2275 61 
Q 1981 -91 1556 -91 
Q 1019 -91 701 211 
Q 384 513 384 1019 
Q 384 1609 779 1909 
Q 1175 2209 1959 2209 
L 2766 2209 
L 2766 2266 
Q 2766 2663 2505 2880 
Q 2244 3097 1772 3097 
Q 1472 3097 1187 3025 
Q 903 2953 641 2809 
L 641 3341 
Q 956 3463 1253 3523 
Q 1550 3584 1831 3584 
Q 2591 3584 2966 3190 
Q 3341 2797 3341 1997 
z
" transform="scale(0.015625)"/>
      </defs>
      <use xlink:href="#DejaVuSans-49"/>
      <use xlink:href="#DejaVuSans-6e" transform="translate(29.492188 0)"/>
      <use xlink:href="#DejaVuSans-74" transform="translate(92.871094 0)"/>
      <use xlink:href="#DejaVuSans-65" transform="translate(132.080078 0)"/>
      <use xlink:href="#DejaVuSans-67" transform="translate(193.603516 0)"/>
      <use xlink:href="#DejaVuSans-72" transform="translate(257.080078 0)"/>
      <use xlink:href="#DejaVuSans-61" transform="translate(298.193359 0)"/>
      <use xlink:href="#DejaVuSans-74" transform="translate(359.472656 0)"/>
      <use xlink:href="#DejaVuSans-69" transform="translate(398.681641 0)"/>
      <use xlink:href="#DejaVuSans-6f" transform="translate(426.464844 0)"/>
      <use xlink:href="#DejaVuSans-6e" transform="translate(487.646484 0)"/>
      <use xlink:href="#DejaVuSans-20" transform="translate(551.025391 0)"/>
      <use xlink:href="#DejaVuSans-74" transform="translate(582.8125 0)"/>
      <use xlink:href="#DejaVuSans-69" transform="translate(622.021484 0)"/>
      <use xlink:href="#DejaVuSans-6d" transform="translate(649.804688 0)"/>
      <use xlink:href="#DejaVuSans-65" transform="translate(747.216797 0)"/>
      <use xlink:href="#DejaVuSans-20" transform="translate(808.740234 0)"/>
      <use xlink:href="#DejaVuSans-5b" transform="translate(840.527344 0)"/>
      <use xlink:href="#DejaVuSans-73" transform="translate(879.541016 0)"/>
      <use xlink:href="#DejaVuSans-5d" transform="translate(931.640625 0)"/>
     </g>
    </g>
   </g>
   <g id="line2d_106">
    <path d="M 104.720028 299.979559 
L 176.003835 344.407775 
L 247.287642 365.155056 
L 318.571449 379.466317 
L 389.855256 394.524642 
L 461.139062 400.411782 
L 532.422869 406.836148 
L 603.706676 417.696346 
L 674.990483 417.145743 
L 746.27429 440.854414 
L 817.558097 421.04237 
" clip-path="url(#p4de34f6e6a)" style="fill: none; stroke: #1c4d7a; stroke-width: 1.5; stroke-linecap: square"/>
   </g>
   <g id="line2d_107">
    <path d="M 104.720028 309.265806 
L 176.003835 344.126033 
L 247.287642 359.69391 
L 318.571449 376.525346 
L 389.855256 383.794174 
L 461.139062 393.841855 
L 532.422869 406.383242 
L 603.706676 411.557963 
L 674.990483 419.597847 
L 746.27429 426.86561 
L 817.558097 432.688776 
" clip-path="url(#p4de34f6e6a)" style="fill: none; stroke: #368770; stroke-width: 1.5; stroke-linecap: square"/>
   </g>
   <g id="line2d_108">
    <path d="M 104.720028 311.944928 
L 176.003835 342.103469 
L 247.287642 355.789453 
L 318.571449 383.115063 
L 389.855256 397.727734 
L 461.139062 391.255657 
L 532.422869 409.991048 
L 603.706676 433.858362 
L 674.990483 441.641748 
L 746.27429 447.672974 
L 817.558097 424.206374 
" clip-path="url(#p4de34f6e6a)" style="fill: none; stroke: #5ea04b; stroke-width: 1.5; stroke-linecap: square"/>
   </g>
   <g id="line2d_109">
    <path d="M 104.720028 283.482701 
L 176.003835 322.882852 
L 247.287642 339.970806 
L 318.571449 339.684518 
L 389.855256 345.090141 
L 461.139062 382.186587 
L 532.422869 376.189358 
L 603.706676 408.551673 
L 674.990483 393.595775 
L 746.27429 398.161353 
L 817.558097 411.396533 
" clip-path="url(#p4de34f6e6a)" style="fill: none; stroke: #aab35c; stroke-width: 1.5; stroke-linecap: square"/>
   </g>
   <g id="line2d_110">
    <path d="M 104.720028 304.628086 
L 176.003835 321.052169 
L 247.287642 328.727978 
L 318.571449 353.83117 
L 389.855256 382.108242 
L 461.139062 396.971727 
L 532.422869 394.405294 
L 603.706676 400.130226 
L 674.990483 391.109562 
L 746.27429 382.555967 
L 817.558097 394.382797 
" clip-path="url(#p4de34f6e6a)" style="fill: none; stroke-dasharray: 5.55,2.4; stroke-dashoffset: 0; stroke: #aab35c; stroke-width: 1.5"/>
   </g>
   <g id="line2d_111">
    <path d="M 104.720028 261.439704 
L 176.003835 286.606391 
L 247.287642 310.505714 
L 318.571449 324.922386 
L 389.855256 359.77608 
L 461.139062 361.154978 
L 532.422869 366.889716 
L 603.706676 405.24556 
L 674.990483 415.364267 
L 746.27429 395.61569 
L 817.558097 405.49624 
" clip-path="url(#p4de34f6e6a)" style="fill: none; stroke: #ceab85; stroke-width: 1.5; stroke-linecap: square"/>
   </g>
   <g id="line2d_112">
    <path d="M 104.720028 260.394963 
L 176.003835 285.199433 
L 247.287642 292.225689 
L 318.571449 335.623435 
L 389.855256 355.280359 
L 461.139062 367.04203 
L 532.422869 384.732727 
L 603.706676 379.934185 
L 674.990483 384.517239 
L 746.27429 383.243918 
L 817.558097 380.243602 
" clip-path="url(#p4de34f6e6a)" style="fill: none; stroke-dasharray: 5.55,2.4; stroke-dashoffset: 0; stroke: #ceab85; stroke-width: 1.5"/>
   </g>
   <g id="patch_9">
    <path d="M 69.078125 457.036875 
L 69.078125 251.031062 
" style="fill: none; stroke: #000000; stroke-width: 0.8; stroke-linejoin: miter; stroke-linecap: square"/>
   </g>
   <g id="patch_10">
    <path d="M 853.2 457.036875 
L 853.2 251.031062 
" style="fill: none; stroke: #000000; stroke-width: 0.8; stroke-linejoin: miter; stroke-linecap: square"/>
   </g>
   <g id="patch_11">
    <path d="M 69.078125 457.036875 
L 853.2 457.036875 
" style="fill: none; stroke: #000000; stroke-width: 0.8; stroke-linejoin: miter; stroke-linecap: square"/>
   </g>
   <g id="patch_12">
    <path d="M 69.078125 251.031062 
L 853.2 251.031062 
" style="fill: none; stroke: #000000; stroke-width: 0.8; stroke-linejoin: miter; stroke-linecap: square"/>
   </g>
   <g id="legend_2">
    <g id="patch_13">
     <path d="M 743.04 452.536875 
L 846.9 452.536875 
Q 848.7 452.536875 848.7 450.736875 
L 848.7 359.164688 
Q 848.7 357.364688 846.9 357.364688 
L 743.04 357.364688 
Q 741.24 357.364688 741.24 359.164688 
L 741.24 450.736875 
Q 741.24 452.536875 743.04 452.536875 
z
" style="fill: #ffffff; opacity: 0.8; stroke: #cccccc; stroke-linejoin: miter"/>
    </g>
    <g id="line2d_113">
     <path d="M 744.84 364.653281 
L 753.84 364.653281 
L 762.84 364.653281 
" style="fill: none; stroke: #1c4d7a; stroke-width: 1.5; stroke-linecap: square"/>
    </g>
    <g id="text_26">
     <!-- Euler -->
     <g transform="translate(770.04 367.803281) scale(0.09 -0.09)">
      <use xlink:href="#DejaVuSans-45"/>
      <use xlink:href="#DejaVuSans-75" transform="translate(63.183594 0)"/>
      <use xlink:href="#DejaVuSans-6c" transform="translate(126.5625 0)"/>
      <use xlink:href="#DejaVuSans-65" transform="translate(154.345703 0)"/>
      <use xlink:href="#DejaVuSans-72" transform="translate(215.869141 0)"/>
     </g>
    </g>
    <g id="line2d_114">
     <path d="M 744.84 377.863594 
L 753.84 377.863594 
L 762.84 377.863594 
" style="fill: none; stroke: #368770; stroke-width: 1.5; stroke-linecap: square"/>
    </g>
    <g id="text_27">
     <!-- Heun -->
     <g transform="translate(770.04 381.013594) scale(0.09 -0.09)">
      <use xlink:href="#DejaVuSans-48"/>
      <use xlink:href="#DejaVuSans-65" transform="translate(75.195312 0)"/>
      <use xlink:href="#DejaVuSans-75" transform="translate(136.71875 0)"/>
      <use xlink:href="#DejaVuSans-6e" transform="translate(200.097656 0)"/>
     </g>
    </g>
    <g id="line2d_115">
     <path d="M 744.84 391.073906 
L 753.84 391.073906 
L 762.84 391.073906 
" style="fill: none; stroke: #5ea04b; stroke-width: 1.5; stroke-linecap: square"/>
    </g>
    <g id="text_28">
     <!-- RK 4 -->
     <g transform="translate(770.04 394.223906) scale(0.09 -0.09)">
      <use xlink:href="#DejaVuSans-52"/>
      <use xlink:href="#DejaVuSans-4b" transform="translate(69.482422 0)"/>
      <use xlink:href="#DejaVuSans-20" transform="translate(135.058594 0)"/>
      <use xlink:href="#DejaVuSans-34" transform="translate(166.845703 0)"/>
     </g>
    </g>
    <g id="line2d_116">
     <path d="M 744.84 404.284219 
L 753.84 404.284219 
L 762.84 404.284219 
" style="fill: none; stroke: #aab35c; stroke-width: 1.5; stroke-linecap: square"/>
    </g>
    <g id="text_29">
     <!-- RKF4(5) - $\epsilon = 10$ -->
     <g transform="translate(770.04 407.434219) scale(0.09 -0.09)">
      <use xlink:href="#DejaVuSans-52" transform="translate(0 0.125)"/>
      <use xlink:href="#DejaVuSans-4b" transform="translate(69.482422 0.125)"/>
      <use xlink:href="#DejaVuSans-46" transform="translate(135.058594 0.125)"/>
      <use xlink:href="#DejaVuSans-34" transform="translate(192.578125 0.125)"/>
      <use xlink:href="#DejaVuSans-28" transform="translate(256.201172 0.125)"/>
      <use xlink:href="#DejaVuSans-35" transform="translate(295.214844 0.125)"/>
      <use xlink:href="#DejaVuSans-29" transform="translate(358.837891 0.125)"/>
      <use xlink:href="#DejaVuSans-20" transform="translate(397.851562 0.125)"/>
      <use xlink:href="#DejaVuSans-2d" transform="translate(429.638672 0.125)"/>
      <use xlink:href="#DejaVuSans-20" transform="translate(465.722656 0.125)"/>
      <use xlink:href="#DejaVuSans-Oblique-3b5" transform="translate(497.509766 0.125)"/>
      <use xlink:href="#DejaVuSans-3d" transform="translate(571.044922 0.125)"/>
      <use xlink:href="#DejaVuSans-31" transform="translate(674.316406 0.125)"/>
      <use xlink:href="#DejaVuSans-30" transform="translate(737.939453 0.125)"/>
     </g>
    </g>
    <g id="line2d_117">
     <path d="M 744.84 417.494531 
L 753.84 417.494531 
L 762.84 417.494531 
" style="fill: none; stroke-dasharray: 5.55,2.4; stroke-dashoffset: 0; stroke: #aab35c; stroke-width: 1.5"/>
    </g>
    <g id="text_30">
     <!-- RKF4(5) - $\epsilon = 0.1$ -->
     <g transform="translate(770.04 420.644531) scale(0.09 -0.09)">
      <use xlink:href="#DejaVuSans-52" transform="translate(0 0.125)"/>
      <use xlink:href="#DejaVuSans-4b" transform="translate(69.482422 0.125)"/>
      <use xlink:href="#DejaVuSans-46" transform="translate(135.058594 0.125)"/>
      <use xlink:href="#DejaVuSans-34" transform="translate(192.578125 0.125)"/>
      <use xlink:href="#DejaVuSans-28" transform="translate(256.201172 0.125)"/>
      <use xlink:href="#DejaVuSans-35" transform="translate(295.214844 0.125)"/>
      <use xlink:href="#DejaVuSans-29" transform="translate(358.837891 0.125)"/>
      <use xlink:href="#DejaVuSans-20" transform="translate(397.851562 0.125)"/>
      <use xlink:href="#DejaVuSans-2d" transform="translate(429.638672 0.125)"/>
      <use xlink:href="#DejaVuSans-20" transform="translate(465.722656 0.125)"/>
      <use xlink:href="#DejaVuSans-Oblique-3b5" transform="translate(497.509766 0.125)"/>
      <use xlink:href="#DejaVuSans-3d" transform="translate(571.044922 0.125)"/>
      <use xlink:href="#DejaVuSans-30" transform="translate(674.316406 0.125)"/>
      <use xlink:href="#DejaVuSans-2e" transform="translate(737.939453 0.125)"/>
      <use xlink:href="#DejaVuSans-31" transform="translate(769.726562 0.125)"/>
     </g>
    </g>
    <g id="line2d_118">
     <path d="M 744.84 430.704844 
L 753.84 430.704844 
L 762.84 430.704844 
" style="fill: none; stroke: #ceab85; stroke-width: 1.5; stroke-linecap: square"/>
    </g>
    <g id="text_31">
     <!-- RKF7(8) - $\epsilon = 10$ -->
     <g transform="translate(770.04 433.854844) scale(0.09 -0.09)">
      <use xlink:href="#DejaVuSans-52" transform="translate(0 0.125)"/>
      <use xlink:href="#DejaVuSans-4b" transform="translate(69.482422 0.125)"/>
      <use xlink:href="#DejaVuSans-46" transform="translate(135.058594 0.125)"/>
      <use xlink:href="#DejaVuSans-37" transform="translate(192.578125 0.125)"/>
      <use xlink:href="#DejaVuSans-28" transform="translate(256.201172 0.125)"/>
      <use xlink:href="#DejaVuSans-38" transform="translate(295.214844 0.125)"/>
      <use xlink:href="#DejaVuSans-29" transform="translate(358.837891 0.125)"/>
      <use xlink:href="#DejaVuSans-20" transform="translate(397.851562 0.125)"/>
      <use xlink:href="#DejaVuSans-2d" transform="translate(429.638672 0.125)"/>
      <use xlink:href="#DejaVuSans-20" transform="translate(465.722656 0.125)"/>
      <use xlink:href="#DejaVuSans-Oblique-3b5" transform="translate(497.509766 0.125)"/>
      <use xlink:href="#DejaVuSans-3d" transform="translate(571.044922 0.125)"/>
      <use xlink:href="#DejaVuSans-31" transform="translate(674.316406 0.125)"/>
      <use xlink:href="#DejaVuSans-30" transform="translate(737.939453 0.125)"/>
     </g>
    </g>
    <g id="line2d_119">
     <path d="M 744.84 443.915156 
L 753.84 443.915156 
L 762.84 443.915156 
" style="fill: none; stroke-dasharray: 5.55,2.4; stroke-dashoffset: 0; stroke: #ceab85; stroke-width: 1.5"/>
    </g>
    <g id="text_32">
     <!-- RKF7(8) - $\epsilon = 0.1$ -->
     <g transform="translate(770.04 447.065156) scale(0.09 -0.09)">
      <use xlink:href="#DejaVuSans-52" transform="translate(0 0.125)"/>
      <use xlink:href="#DejaVuSans-4b" transform="translate(69.482422 0.125)"/>
      <use xlink:href="#DejaVuSans-46" transform="translate(135.058594 0.125)"/>
      <use xlink:href="#DejaVuSans-37" transform="translate(192.578125 0.125)"/>
      <use xlink:href="#DejaVuSans-28" transform="translate(256.201172 0.125)"/>
      <use xlink:href="#DejaVuSans-38" transform="translate(295.214844 0.125)"/>
      <use xlink:href="#DejaVuSans-29" transform="translate(358.837891 0.125)"/>
      <use xlink:href="#DejaVuSans-20" transform="translate(397.851562 0.125)"/>
      <use xlink:href="#DejaVuSans-2d" transform="translate(429.638672 0.125)"/>
      <use xlink:href="#DejaVuSans-20" transform="translate(465.722656 0.125)"/>
      <use xlink:href="#DejaVuSans-Oblique-3b5" transform="translate(497.509766 0.125)"/>
      <use xlink:href="#DejaVuSans-3d" transform="translate(571.044922 0.125)"/>
      <use xlink:href="#DejaVuSans-30" transform="translate(674.316406 0.125)"/>
      <use xlink:href="#DejaVuSans-2e" transform="translate(737.939453 0.125)"/>
      <use xlink:href="#DejaVuSans-31" transform="translate(769.726562 0.125)"/>
     </g>
    </g>
   </g>
  </g>
 </g>
 <defs>
  <clipPath id="pbbab9d0f83">
   <rect x="69.078125" y="10.8" width="784.121875" height="206.005813"/>
  </clipPath>
  <clipPath id="p4de34f6e6a">
   <rect x="69.078125" y="251.031062" width="784.121875" height="206.005813"/>
  </clipPath>
 </defs>
</svg>
