<?xml version="1.0" encoding="utf-8" standalone="no"?>
<!DOCTYPE svg PUBLIC "-//W3C//DTD SVG 1.1//EN"
  "http://www.w3.org/Graphics/SVG/1.1/DTD/svg11.dtd">
<svg xmlns:xlink="http://www.w3.org/1999/xlink" width="360pt" height="288pt" viewBox="0 0 360 288" xmlns="http://www.w3.org/2000/svg" version="1.1">
 <metadata>
  <rdf:RDF xmlns:dc="http://purl.org/dc/elements/1.1/" xmlns:cc="http://creativecommons.org/ns#" xmlns:rdf="http://www.w3.org/1999/02/22-rdf-syntax-ns#">
   <cc:Work>
    <dc:type rdf:resource="http://purl.org/dc/dcmitype/StillImage"/>
    <dc:date>2025-05-29T23:11:33.088082</dc:date>
    <dc:format>image/svg+xml</dc:format>
    <dc:creator>
     <cc:Agent>
      <dc:title>Matplotlib v3.10.1, https://matplotlib.org/</dc:title>
     </cc:Agent>
    </dc:creator>
   </cc:Work>
  </rdf:RDF>
 </metadata>
 <defs>
  <style type="text/css">*{stroke-linejoin: round; stroke-linecap: butt}</style>
 </defs>
 <g id="figure_1">
  <g id="patch_1">
   <path d="M 0 288 
L 360 288 
L 360 0 
L 0 0 
L 0 288 
z
" style="fill: none"/>
  </g>
  <g id="axes_1">
   <g id="patch_2">
    <path d="M 67.103125 241.036875 
L 349.2 241.036875 
L 349.2 25.9575 
L 67.103125 25.9575 
L 67.103125 241.036875 
z
" style="fill: none"/>
   </g>
   <g id="matplotlib.axis_1">
    <g id="xtick_1">
     <g id="line2d_1">
      <defs>
       <path id="m460b946db9" d="M 0 0 
L 0 3.5 
" style="stroke: #000000; stroke-width: 0.8"/>
      </defs>
      <g>
       <use xlink:href="#m460b946db9" x="79.92571" y="241.036875" style="stroke: #000000; stroke-width: 0.8"/>
      </g>
     </g>
     <g id="text_1">
      <!-- 0 -->
      <g transform="translate(74.83571 260.194375) scale(0.16 -0.16)">
       <defs>
        <path id="DejaVuSans-30" d="M 2034 4250 
Q 1547 4250 1301 3770 
Q 1056 3291 1056 2328 
Q 1056 1369 1301 889 
Q 1547 409 2034 409 
Q 2525 409 2770 889 
Q 3016 1369 3016 2328 
Q 3016 3291 2770 3770 
Q 2525 4250 2034 4250 
z
M 2034 4750 
Q 2819 4750 3233 4129 
Q 3647 3509 3647 2328 
Q 3647 1150 3233 529 
Q 2819 -91 2034 -91 
Q 1250 -91 836 529 
Q 422 1150 422 2328 
Q 422 3509 836 4129 
Q 1250 4750 2034 4750 
z
" transform="scale(0.015625)"/>
       </defs>
       <use xlink:href="#DejaVuSans-30"/>
      </g>
     </g>
    </g>
    <g id="xtick_2">
     <g id="line2d_2">
      <g>
       <use xlink:href="#m460b946db9" x="173.915706" y="241.036875" style="stroke: #000000; stroke-width: 0.8"/>
      </g>
     </g>
     <g id="text_2">
      <!-- 500 -->
      <g transform="translate(158.645706 260.194375) scale(0.16 -0.16)">
       <defs>
        <path id="DejaVuSans-35" d="M 691 4666 
L 3169 4666 
L 3169 4134 
L 1269 4134 
L 1269 2991 
Q 1406 3038 1543 3061 
Q 1681 3084 1819 3084 
Q 2600 3084 3056 2656 
Q 3513 2228 3513 1497 
Q 3513 744 3044 326 
Q 2575 -91 1722 -91 
Q 1428 -91 1123 -41 
Q 819 9 494 109 
L 494 744 
Q 775 591 1075 516 
Q 1375 441 1709 441 
Q 2250 441 2565 725 
Q 2881 1009 2881 1497 
Q 2881 1984 2565 2268 
Q 2250 2553 1709 2553 
Q 1456 2553 1204 2497 
Q 953 2441 691 2322 
L 691 4666 
z
" transform="scale(0.015625)"/>
       </defs>
       <use xlink:href="#DejaVuSans-35"/>
       <use xlink:href="#DejaVuSans-30" transform="translate(63.623047 0)"/>
       <use xlink:href="#DejaVuSans-30" transform="translate(127.246094 0)"/>
      </g>
     </g>
    </g>
    <g id="xtick_3">
     <g id="line2d_3">
      <g>
       <use xlink:href="#m460b946db9" x="267.905703" y="241.036875" style="stroke: #000000; stroke-width: 0.8"/>
      </g>
     </g>
     <g id="text_3">
      <!-- 1000 -->
      <g transform="translate(247.545703 260.194375) scale(0.16 -0.16)">
       <defs>
        <path id="DejaVuSans-31" d="M 794 531 
L 1825 531 
L 1825 4091 
L 703 3866 
L 703 4441 
L 1819 4666 
L 2450 4666 
L 2450 531 
L 3481 531 
L 3481 0 
L 794 0 
L 794 531 
z
" transform="scale(0.015625)"/>
       </defs>
       <use xlink:href="#DejaVuSans-31"/>
       <use xlink:href="#DejaVuSans-30" transform="translate(63.623047 0)"/>
       <use xlink:href="#DejaVuSans-30" transform="translate(127.246094 0)"/>
       <use xlink:href="#DejaVuSans-30" transform="translate(190.869141 0)"/>
      </g>
     </g>
    </g>
    <g id="text_4">
     <!-- Time (s) -->
     <g transform="translate(187.822656 275.120313) scale(0.1 -0.1)">
      <defs>
       <path id="DejaVuSans-54" d="M -19 4666 
L 3928 4666 
L 3928 4134 
L 2272 4134 
L 2272 0 
L 1638 0 
L 1638 4134 
L -19 4134 
L -19 4666 
z
" transform="scale(0.015625)"/>
       <path id="DejaVuSans-69" d="M 603 3500 
L 1178 3500 
L 1178 0 
L 603 0 
L 603 3500 
z
M 603 4863 
L 1178 4863 
L 1178 4134 
L 603 4134 
L 603 4863 
z
" transform="scale(0.015625)"/>
       <path id="DejaVuSans-6d" d="M 3328 2828 
Q 3544 3216 3844 3400 
Q 4144 3584 4550 3584 
Q 5097 3584 5394 3201 
Q 5691 2819 5691 2113 
L 5691 0 
L 5113 0 
L 5113 2094 
Q 5113 2597 4934 2840 
Q 4756 3084 4391 3084 
Q 3944 3084 3684 2787 
Q 3425 2491 3425 1978 
L 3425 0 
L 2847 0 
L 2847 2094 
Q 2847 2600 2669 2842 
Q 2491 3084 2119 3084 
Q 1678 3084 1418 2786 
Q 1159 2488 1159 1978 
L 1159 0 
L 581 0 
L 581 3500 
L 1159 3500 
L 1159 2956 
Q 1356 3278 1631 3431 
Q 1906 3584 2284 3584 
Q 2666 3584 2933 3390 
Q 3200 3197 3328 2828 
z
" transform="scale(0.015625)"/>
       <path id="DejaVuSans-65" d="M 3597 1894 
L 3597 1613 
L 953 1613 
Q 991 1019 1311 708 
Q 1631 397 2203 397 
Q 2534 397 2845 478 
Q 3156 559 3463 722 
L 3463 178 
Q 3153 47 2828 -22 
Q 2503 -91 2169 -91 
Q 1331 -91 842 396 
Q 353 884 353 1716 
Q 353 2575 817 3079 
Q 1281 3584 2069 3584 
Q 2775 3584 3186 3129 
Q 3597 2675 3597 1894 
z
M 3022 2063 
Q 3016 2534 2758 2815 
Q 2500 3097 2075 3097 
Q 1594 3097 1305 2825 
Q 1016 2553 972 2059 
L 3022 2063 
z
" transform="scale(0.015625)"/>
       <path id="DejaVuSans-20" transform="scale(0.015625)"/>
       <path id="DejaVuSans-28" d="M 1984 4856 
Q 1566 4138 1362 3434 
Q 1159 2731 1159 2009 
Q 1159 1288 1364 580 
Q 1569 -128 1984 -844 
L 1484 -844 
Q 1016 -109 783 600 
Q 550 1309 550 2009 
Q 550 2706 781 3412 
Q 1013 4119 1484 4856 
L 1984 4856 
z
" transform="scale(0.015625)"/>
       <path id="DejaVuSans-73" d="M 2834 3397 
L 2834 2853 
Q 2591 2978 2328 3040 
Q 2066 3103 1784 3103 
Q 1356 3103 1142 2972 
Q 928 2841 928 2578 
Q 928 2378 1081 2264 
Q 1234 2150 1697 2047 
L 1894 2003 
Q 2506 1872 2764 1633 
Q 3022 1394 3022 966 
Q 3022 478 2636 193 
Q 2250 -91 1575 -91 
Q 1294 -91 989 -36 
Q 684 19 347 128 
L 347 722 
Q 666 556 975 473 
Q 1284 391 1588 391 
Q 1994 391 2212 530 
Q 2431 669 2431 922 
Q 2431 1156 2273 1281 
Q 2116 1406 1581 1522 
L 1381 1569 
Q 847 1681 609 1914 
Q 372 2147 372 2553 
Q 372 3047 722 3315 
Q 1072 3584 1716 3584 
Q 2034 3584 2315 3537 
Q 2597 3491 2834 3397 
z
" transform="scale(0.015625)"/>
       <path id="DejaVuSans-29" d="M 513 4856 
L 1013 4856 
Q 1481 4119 1714 3412 
Q 1947 2706 1947 2009 
Q 1947 1309 1714 600 
Q 1481 -109 1013 -844 
L 513 -844 
Q 928 -128 1133 580 
Q 1338 1288 1338 2009 
Q 1338 2731 1133 3434 
Q 928 4138 513 4856 
z
" transform="scale(0.015625)"/>
      </defs>
      <use xlink:href="#DejaVuSans-54"/>
      <use xlink:href="#DejaVuSans-69" transform="translate(57.958984 0)"/>
      <use xlink:href="#DejaVuSans-6d" transform="translate(85.742188 0)"/>
      <use xlink:href="#DejaVuSans-65" transform="translate(183.154297 0)"/>
      <use xlink:href="#DejaVuSans-20" transform="translate(244.677734 0)"/>
      <use xlink:href="#DejaVuSans-28" transform="translate(276.464844 0)"/>
      <use xlink:href="#DejaVuSans-73" transform="translate(315.478516 0)"/>
      <use xlink:href="#DejaVuSans-29" transform="translate(367.578125 0)"/>
     </g>
    </g>
   </g>
   <g id="matplotlib.axis_2">
    <g id="ytick_1">
     <g id="line2d_4">
      <defs>
       <path id="mb4f6730b93" d="M 0 0 
L -3.5 0 
" style="stroke: #000000; stroke-width: 0.8"/>
      </defs>
      <g>
       <use xlink:href="#mb4f6730b93" x="67.103125" y="216.511893" style="stroke: #000000; stroke-width: 0.8"/>
      </g>
     </g>
     <g id="text_5">
      <!-- 0.00 -->
      <g transform="translate(24.478125 222.590643) scale(0.16 -0.16)">
       <defs>
        <path id="DejaVuSans-2e" d="M 684 794 
L 1344 794 
L 1344 0 
L 684 0 
L 684 794 
z
" transform="scale(0.015625)"/>
       </defs>
       <use xlink:href="#DejaVuSans-30"/>
       <use xlink:href="#DejaVuSans-2e" transform="translate(63.623047 0)"/>
       <use xlink:href="#DejaVuSans-30" transform="translate(95.410156 0)"/>
       <use xlink:href="#DejaVuSans-30" transform="translate(159.033203 0)"/>
      </g>
     </g>
    </g>
    <g id="ytick_2">
     <g id="line2d_5">
      <g>
       <use xlink:href="#mb4f6730b93" x="67.103125" y="174.147718" style="stroke: #000000; stroke-width: 0.8"/>
      </g>
     </g>
     <g id="text_6">
      <!-- 0.25 -->
      <g transform="translate(24.478125 180.226468) scale(0.16 -0.16)">
       <defs>
        <path id="DejaVuSans-32" d="M 1228 531 
L 3431 531 
L 3431 0 
L 469 0 
L 469 531 
Q 828 903 1448 1529 
Q 2069 2156 2228 2338 
Q 2531 2678 2651 2914 
Q 2772 3150 2772 3378 
Q 2772 3750 2511 3984 
Q 2250 4219 1831 4219 
Q 1534 4219 1204 4116 
Q 875 4013 500 3803 
L 500 4441 
Q 881 4594 1212 4672 
Q 1544 4750 1819 4750 
Q 2544 4750 2975 4387 
Q 3406 4025 3406 3419 
Q 3406 3131 3298 2873 
Q 3191 2616 2906 2266 
Q 2828 2175 2409 1742 
Q 1991 1309 1228 531 
z
" transform="scale(0.015625)"/>
       </defs>
       <use xlink:href="#DejaVuSans-30"/>
       <use xlink:href="#DejaVuSans-2e" transform="translate(63.623047 0)"/>
       <use xlink:href="#DejaVuSans-32" transform="translate(95.410156 0)"/>
       <use xlink:href="#DejaVuSans-35" transform="translate(159.033203 0)"/>
      </g>
     </g>
    </g>
    <g id="ytick_3">
     <g id="line2d_6">
      <g>
       <use xlink:href="#mb4f6730b93" x="67.103125" y="131.783543" style="stroke: #000000; stroke-width: 0.8"/>
      </g>
     </g>
     <g id="text_7">
      <!-- 0.50 -->
      <g transform="translate(24.478125 137.862293) scale(0.16 -0.16)">
       <use xlink:href="#DejaVuSans-30"/>
       <use xlink:href="#DejaVuSans-2e" transform="translate(63.623047 0)"/>
       <use xlink:href="#DejaVuSans-35" transform="translate(95.410156 0)"/>
       <use xlink:href="#DejaVuSans-30" transform="translate(159.033203 0)"/>
      </g>
     </g>
    </g>
    <g id="ytick_4">
     <g id="line2d_7">
      <g>
       <use xlink:href="#mb4f6730b93" x="67.103125" y="89.419367" style="stroke: #000000; stroke-width: 0.8"/>
      </g>
     </g>
     <g id="text_8">
      <!-- 0.75 -->
      <g transform="translate(24.478125 95.498117) scale(0.16 -0.16)">
       <defs>
        <path id="DejaVuSans-37" d="M 525 4666 
L 3525 4666 
L 3525 4397 
L 1831 0 
L 1172 0 
L 2766 4134 
L 525 4134 
L 525 4666 
z
" transform="scale(0.015625)"/>
       </defs>
       <use xlink:href="#DejaVuSans-30"/>
       <use xlink:href="#DejaVuSans-2e" transform="translate(63.623047 0)"/>
       <use xlink:href="#DejaVuSans-37" transform="translate(95.410156 0)"/>
       <use xlink:href="#DejaVuSans-35" transform="translate(159.033203 0)"/>
      </g>
     </g>
    </g>
    <g id="ytick_5">
     <g id="line2d_8">
      <g>
       <use xlink:href="#mb4f6730b93" x="67.103125" y="47.055192" style="stroke: #000000; stroke-width: 0.8"/>
      </g>
     </g>
     <g id="text_9">
      <!-- 1.00 -->
      <g transform="translate(24.478125 53.133942) scale(0.16 -0.16)">
       <use xlink:href="#DejaVuSans-31"/>
       <use xlink:href="#DejaVuSans-2e" transform="translate(63.623047 0)"/>
       <use xlink:href="#DejaVuSans-30" transform="translate(95.410156 0)"/>
       <use xlink:href="#DejaVuSans-30" transform="translate(159.033203 0)"/>
      </g>
     </g>
    </g>
    <g id="text_10">
     <!-- Relative Rotational Energy Variation -->
     <g transform="translate(18.398438 223.480781) rotate(-90) scale(0.1 -0.1)">
      <defs>
       <path id="DejaVuSans-52" d="M 2841 2188 
Q 3044 2119 3236 1894 
Q 3428 1669 3622 1275 
L 4263 0 
L 3584 0 
L 2988 1197 
Q 2756 1666 2539 1819 
Q 2322 1972 1947 1972 
L 1259 1972 
L 1259 0 
L 628 0 
L 628 4666 
L 2053 4666 
Q 2853 4666 3247 4331 
Q 3641 3997 3641 3322 
Q 3641 2881 3436 2590 
Q 3231 2300 2841 2188 
z
M 1259 4147 
L 1259 2491 
L 2053 2491 
Q 2509 2491 2742 2702 
Q 2975 2913 2975 3322 
Q 2975 3731 2742 3939 
Q 2509 4147 2053 4147 
L 1259 4147 
z
" transform="scale(0.015625)"/>
       <path id="DejaVuSans-6c" d="M 603 4863 
L 1178 4863 
L 1178 0 
L 603 0 
L 603 4863 
z
" transform="scale(0.015625)"/>
       <path id="DejaVuSans-61" d="M 2194 1759 
Q 1497 1759 1228 1600 
Q 959 1441 959 1056 
Q 959 750 1161 570 
Q 1363 391 1709 391 
Q 2188 391 2477 730 
Q 2766 1069 2766 1631 
L 2766 1759 
L 2194 1759 
z
M 3341 1997 
L 3341 0 
L 2766 0 
L 2766 531 
Q 2569 213 2275 61 
Q 1981 -91 1556 -91 
Q 1019 -91 701 211 
Q 384 513 384 1019 
Q 384 1609 779 1909 
Q 1175 2209 1959 2209 
L 2766 2209 
L 2766 2266 
Q 2766 2663 2505 2880 
Q 2244 3097 1772 3097 
Q 1472 3097 1187 3025 
Q 903 2953 641 2809 
L 641 3341 
Q 956 3463 1253 3523 
Q 1550 3584 1831 3584 
Q 2591 3584 2966 3190 
Q 3341 2797 3341 1997 
z
" transform="scale(0.015625)"/>
       <path id="DejaVuSans-74" d="M 1172 4494 
L 1172 3500 
L 2356 3500 
L 2356 3053 
L 1172 3053 
L 1172 1153 
Q 1172 725 1289 603 
Q 1406 481 1766 481 
L 2356 481 
L 2356 0 
L 1766 0 
Q 1100 0 847 248 
Q 594 497 594 1153 
L 594 3053 
L 172 3053 
L 172 3500 
L 594 3500 
L 594 4494 
L 1172 4494 
z
" transform="scale(0.015625)"/>
       <path id="DejaVuSans-76" d="M 191 3500 
L 800 3500 
L 1894 563 
L 2988 3500 
L 3597 3500 
L 2284 0 
L 1503 0 
L 191 3500 
z
" transform="scale(0.015625)"/>
       <path id="DejaVuSans-6f" d="M 1959 3097 
Q 1497 3097 1228 2736 
Q 959 2375 959 1747 
Q 959 1119 1226 758 
Q 1494 397 1959 397 
Q 2419 397 2687 759 
Q 2956 1122 2956 1747 
Q 2956 2369 2687 2733 
Q 2419 3097 1959 3097 
z
M 1959 3584 
Q 2709 3584 3137 3096 
Q 3566 2609 3566 1747 
Q 3566 888 3137 398 
Q 2709 -91 1959 -91 
Q 1206 -91 779 398 
Q 353 888 353 1747 
Q 353 2609 779 3096 
Q 1206 3584 1959 3584 
z
" transform="scale(0.015625)"/>
       <path id="DejaVuSans-6e" d="M 3513 2113 
L 3513 0 
L 2938 0 
L 2938 2094 
Q 2938 2591 2744 2837 
Q 2550 3084 2163 3084 
Q 1697 3084 1428 2787 
Q 1159 2491 1159 1978 
L 1159 0 
L 581 0 
L 581 3500 
L 1159 3500 
L 1159 2956 
Q 1366 3272 1645 3428 
Q 1925 3584 2291 3584 
Q 2894 3584 3203 3211 
Q 3513 2838 3513 2113 
z
" transform="scale(0.015625)"/>
       <path id="DejaVuSans-45" d="M 628 4666 
L 3578 4666 
L 3578 4134 
L 1259 4134 
L 1259 2753 
L 3481 2753 
L 3481 2222 
L 1259 2222 
L 1259 531 
L 3634 531 
L 3634 0 
L 628 0 
L 628 4666 
z
" transform="scale(0.015625)"/>
       <path id="DejaVuSans-72" d="M 2631 2963 
Q 2534 3019 2420 3045 
Q 2306 3072 2169 3072 
Q 1681 3072 1420 2755 
Q 1159 2438 1159 1844 
L 1159 0 
L 581 0 
L 581 3500 
L 1159 3500 
L 1159 2956 
Q 1341 3275 1631 3429 
Q 1922 3584 2338 3584 
Q 2397 3584 2469 3576 
Q 2541 3569 2628 3553 
L 2631 2963 
z
" transform="scale(0.015625)"/>
       <path id="DejaVuSans-67" d="M 2906 1791 
Q 2906 2416 2648 2759 
Q 2391 3103 1925 3103 
Q 1463 3103 1205 2759 
Q 947 2416 947 1791 
Q 947 1169 1205 825 
Q 1463 481 1925 481 
Q 2391 481 2648 825 
Q 2906 1169 2906 1791 
z
M 3481 434 
Q 3481 -459 3084 -895 
Q 2688 -1331 1869 -1331 
Q 1566 -1331 1297 -1286 
Q 1028 -1241 775 -1147 
L 775 -588 
Q 1028 -725 1275 -790 
Q 1522 -856 1778 -856 
Q 2344 -856 2625 -561 
Q 2906 -266 2906 331 
L 2906 616 
Q 2728 306 2450 153 
Q 2172 0 1784 0 
Q 1141 0 747 490 
Q 353 981 353 1791 
Q 353 2603 747 3093 
Q 1141 3584 1784 3584 
Q 2172 3584 2450 3431 
Q 2728 3278 2906 2969 
L 2906 3500 
L 3481 3500 
L 3481 434 
z
" transform="scale(0.015625)"/>
       <path id="DejaVuSans-79" d="M 2059 -325 
Q 1816 -950 1584 -1140 
Q 1353 -1331 966 -1331 
L 506 -1331 
L 506 -850 
L 844 -850 
Q 1081 -850 1212 -737 
Q 1344 -625 1503 -206 
L 1606 56 
L 191 3500 
L 800 3500 
L 1894 763 
L 2988 3500 
L 3597 3500 
L 2059 -325 
z
" transform="scale(0.015625)"/>
       <path id="DejaVuSans-56" d="M 1831 0 
L 50 4666 
L 709 4666 
L 2188 738 
L 3669 4666 
L 4325 4666 
L 2547 0 
L 1831 0 
z
" transform="scale(0.015625)"/>
      </defs>
      <use xlink:href="#DejaVuSans-52"/>
      <use xlink:href="#DejaVuSans-65" transform="translate(64.982422 0)"/>
      <use xlink:href="#DejaVuSans-6c" transform="translate(126.505859 0)"/>
      <use xlink:href="#DejaVuSans-61" transform="translate(154.289062 0)"/>
      <use xlink:href="#DejaVuSans-74" transform="translate(215.568359 0)"/>
      <use xlink:href="#DejaVuSans-69" transform="translate(254.777344 0)"/>
      <use xlink:href="#DejaVuSans-76" transform="translate(282.560547 0)"/>
      <use xlink:href="#DejaVuSans-65" transform="translate(341.740234 0)"/>
      <use xlink:href="#DejaVuSans-20" transform="translate(403.263672 0)"/>
      <use xlink:href="#DejaVuSans-52" transform="translate(435.050781 0)"/>
      <use xlink:href="#DejaVuSans-6f" transform="translate(500.033203 0)"/>
      <use xlink:href="#DejaVuSans-74" transform="translate(561.214844 0)"/>
      <use xlink:href="#DejaVuSans-61" transform="translate(600.423828 0)"/>
      <use xlink:href="#DejaVuSans-74" transform="translate(661.703125 0)"/>
      <use xlink:href="#DejaVuSans-69" transform="translate(700.912109 0)"/>
      <use xlink:href="#DejaVuSans-6f" transform="translate(728.695312 0)"/>
      <use xlink:href="#DejaVuSans-6e" transform="translate(789.876953 0)"/>
      <use xlink:href="#DejaVuSans-61" transform="translate(853.255859 0)"/>
      <use xlink:href="#DejaVuSans-6c" transform="translate(914.535156 0)"/>
      <use xlink:href="#DejaVuSans-20" transform="translate(942.318359 0)"/>
      <use xlink:href="#DejaVuSans-45" transform="translate(974.105469 0)"/>
      <use xlink:href="#DejaVuSans-6e" transform="translate(1037.289062 0)"/>
      <use xlink:href="#DejaVuSans-65" transform="translate(1100.667969 0)"/>
      <use xlink:href="#DejaVuSans-72" transform="translate(1162.191406 0)"/>
      <use xlink:href="#DejaVuSans-67" transform="translate(1201.554688 0)"/>
      <use xlink:href="#DejaVuSans-79" transform="translate(1265.03125 0)"/>
      <use xlink:href="#DejaVuSans-20" transform="translate(1324.210938 0)"/>
      <use xlink:href="#DejaVuSans-56" transform="translate(1355.998047 0)"/>
      <use xlink:href="#DejaVuSans-61" transform="translate(1416.65625 0)"/>
      <use xlink:href="#DejaVuSans-72" transform="translate(1477.935547 0)"/>
      <use xlink:href="#DejaVuSans-69" transform="translate(1519.048828 0)"/>
      <use xlink:href="#DejaVuSans-61" transform="translate(1546.832031 0)"/>
      <use xlink:href="#DejaVuSans-74" transform="translate(1608.111328 0)"/>
      <use xlink:href="#DejaVuSans-69" transform="translate(1647.320312 0)"/>
      <use xlink:href="#DejaVuSans-6f" transform="translate(1675.103516 0)"/>
      <use xlink:href="#DejaVuSans-6e" transform="translate(1736.285156 0)"/>
     </g>
    </g>
    <g id="text_11">
     <!-- 1e−6 -->
     <g transform="translate(67.103125 22.9575) scale(0.16 -0.16)">
      <defs>
       <path id="DejaVuSans-2212" d="M 678 2272 
L 4684 2272 
L 4684 1741 
L 678 1741 
L 678 2272 
z
" transform="scale(0.015625)"/>
       <path id="DejaVuSans-36" d="M 2113 2584 
Q 1688 2584 1439 2293 
Q 1191 2003 1191 1497 
Q 1191 994 1439 701 
Q 1688 409 2113 409 
Q 2538 409 2786 701 
Q 3034 994 3034 1497 
Q 3034 2003 2786 2293 
Q 2538 2584 2113 2584 
z
M 3366 4563 
L 3366 3988 
Q 3128 4100 2886 4159 
Q 2644 4219 2406 4219 
Q 1781 4219 1451 3797 
Q 1122 3375 1075 2522 
Q 1259 2794 1537 2939 
Q 1816 3084 2150 3084 
Q 2853 3084 3261 2657 
Q 3669 2231 3669 1497 
Q 3669 778 3244 343 
Q 2819 -91 2113 -91 
Q 1303 -91 875 529 
Q 447 1150 447 2328 
Q 447 3434 972 4092 
Q 1497 4750 2381 4750 
Q 2619 4750 2861 4703 
Q 3103 4656 3366 4563 
z
" transform="scale(0.015625)"/>
      </defs>
      <use xlink:href="#DejaVuSans-31"/>
      <use xlink:href="#DejaVuSans-65" transform="translate(63.623047 0)"/>
      <use xlink:href="#DejaVuSans-2212" transform="translate(125.146484 0)"/>
      <use xlink:href="#DejaVuSans-36" transform="translate(208.935547 0)"/>
     </g>
    </g>
   </g>
   <g id="line2d_9">
    <path d="M 79.92571 216.511893 
L 80.066695 216.847792 
L 80.348665 219.822842 
L 81.05359 231.26054 
L 81.194575 230.807892 
L 81.476545 224.523083 
L 81.8995 213.372657 
L 82.040485 213.931375 
L 82.46344 222.233397 
L 82.604425 220.445403 
L 82.886395 203.20796 
L 84.014275 100.118341 
L 84.43723 84.73474 
L 84.860185 77.222996 
L 85.28314 73.612048 
L 85.706095 71.851708 
L 86.12905 70.970805 
L 86.552005 70.516798 
L 87.115945 70.223492 
L 87.961855 70.056218 
L 89.79466 69.98502 
L 95.998 70.050081 
L 97.12588 70.253153 
L 97.68982 70.556219 
L 98.112774 71.019494 
L 98.535729 71.906574 
L 98.817699 72.930681 
L 99.099669 74.549387 
L 99.381639 77.119726 
L 99.663609 81.189875 
L 100.086564 91.845917 
L 100.509519 110.272801 
L 101.214444 143.215972 
L 101.355429 143.090794 
L 101.496414 138.77097 
L 101.919369 108.025476 
L 102.201339 91.257491 
L 102.342324 88.627828 
L 102.483309 89.86668 
L 102.765279 99.650834 
L 103.329219 119.180006 
L 103.611189 122.658663 
L 103.752174 122.953699 
L 103.893159 122.436425 
L 104.175129 119.370384 
L 104.739069 108.191158 
L 105.584979 91.689038 
L 106.148919 85.329175 
L 106.571874 82.595579 
L 106.994829 80.969244 
L 107.417784 80.017817 
L 107.981724 79.334704 
L 108.545664 78.998266 
L 109.391574 78.779478 
L 110.942409 78.671736 
L 115.453929 78.67458 
L 117.286734 78.825654 
L 117.991659 79.060944 
L 118.555599 79.490856 
L 118.978554 80.114937 
L 119.401509 81.226107 
L 119.824464 83.164135 
L 120.247419 86.353297 
L 120.670374 91.122531 
L 121.234314 100.38347 
L 121.939239 112.527852 
L 122.080224 113.07813 
L 122.221209 112.507735 
L 122.503178 108.028261 
L 123.631058 80.656186 
L 123.772043 79.935665 
L 123.913028 80.078547 
L 124.194998 82.696077 
L 124.758938 93.299643 
L 125.181893 99.447481 
L 125.322878 100.193153 
L 125.463863 100.188105 
L 125.604848 99.475204 
L 125.886818 96.342386 
L 127.296668 75.950255 
L 127.860608 72.128648 
L 128.283563 70.509689 
L 128.706518 69.536542 
L 129.270458 68.819166 
L 129.834398 68.456596 
L 130.680308 68.215242 
L 132.090158 68.098899 
L 135.332813 68.107942 
L 137.306603 68.273274 
L 140.126303 68.834185 
L 140.972213 69.102012 
L 141.254183 68.967486 
L 141.677138 68.452412 
L 142.241078 67.756955 
L 142.523048 67.717039 
L 142.805018 67.940916 
L 143.932898 69.335659 
L 144.214868 69.203894 
L 144.778808 68.792677 
L 145.201763 68.937092 
L 145.624718 69.010179 
L 146.329643 68.750867 
L 147.316537 68.458848 
L 148.726387 68.338746 
L 152.814952 68.326508 
L 156.339577 68.457631 
L 157.608442 68.716072 
L 158.595337 69.178586 
L 159.864202 69.816702 
L 160.710112 70.086939 
L 161.133067 70.54023 
L 161.556022 71.556826 
L 161.978977 73.293009 
L 162.683902 76.585697 
L 162.965872 76.950527 
L 163.106857 76.68794 
L 163.388827 75.092367 
L 163.811782 70.304208 
L 164.516707 61.477187 
L 164.798677 59.746418 
L 164.939662 59.473707 
L 165.080647 59.610511 
L 165.362617 61.006925 
L 166.208527 67.639175 
L 166.349512 67.993577 
L 166.490497 67.992228 
L 166.772467 67.038341 
L 167.195422 64.100344 
L 168.041332 57.97556 
L 168.605272 55.463797 
L 169.169212 54.048466 
L 169.733152 53.299702 
L 170.297092 52.913789 
L 171.143002 52.661206 
L 172.270881 52.584548 
L 173.398761 52.715225 
L 174.103686 53.022222 
L 174.667626 53.56019 
L 175.090581 54.250626 
L 175.654521 55.631541 
L 176.359446 57.397624 
L 176.641416 57.596549 
L 176.923386 57.302907 
L 177.487326 55.827658 
L 177.910281 54.97316 
L 178.192251 54.752664 
L 178.474221 54.86254 
L 178.756191 55.340731 
L 179.461116 56.901413 
L 179.743086 56.943667 
L 180.025056 56.571424 
L 181.434906 53.90606 
L 181.857861 53.619684 
L 182.421801 53.527957 
L 183.549681 53.525311 
L 183.831651 53.241351 
L 184.254606 52.414124 
L 184.818546 51.196195 
L 185.100516 51.051247 
L 185.382486 51.407138 
L 185.805441 52.623819 
L 186.369381 54.164801 
L 186.651351 54.497531 
L 186.933321 54.52615 
L 187.356276 54.198686 
L 188.625141 52.887537 
L 189.330066 52.521107 
L 190.175976 52.340134 
L 191.303856 52.347514 
L 192.290751 52.574475 
L 192.995676 52.964041 
L 193.559616 53.524947 
L 194.123556 54.428454 
L 194.687496 55.76889 
L 196.097345 59.698905 
L 196.379315 59.923372 
L 196.661285 59.752223 
L 196.943255 59.195253 
L 197.507195 57.352243 
L 198.21212 55.273777 
L 198.49409 54.886915 
L 198.77606 54.836546 
L 199.05803 55.140547 
L 199.480985 56.220487 
L 200.608865 59.935431 
L 200.890835 60.156367 
L 201.172805 59.937065 
L 201.59576 58.968581 
L 202.582655 56.350448 
L 202.864625 56.232302 
L 203.00561 56.393373 
L 203.28758 57.317053 
L 203.56955 59.280704 
L 204.41546 67.586342 
L 204.556445 66.46502 
L 204.838415 59.871618 
L 205.120385 53.03155 
L 205.26137 52.415767 
L 205.402355 54.165118 
L 205.966295 66.300025 
L 206.10728 66.646725 
L 206.248265 65.818303 
L 207.376145 53.950763 
L 207.7991 52.424276 
L 208.222055 51.717468 
L 208.64501 51.388353 
L 209.349935 51.173558 
L 210.759785 51.082807 
L 214.84835 51.127751 
L 217.38608 51.174716 
L 218.936915 50.921582 
L 221.333659 51.32511 
L 221.897599 51.571131 
L 222.320554 51.962276 
L 222.743509 52.621147 
L 223.307449 53.962385 
L 223.871389 55.355716 
L 224.153359 55.607356 
L 224.294344 55.509504 
L 224.576314 54.765457 
L 224.999269 52.498619 
L 225.563209 49.655947 
L 225.845179 49.27693 
L 225.986164 49.400823 
L 226.268134 50.191589 
L 227.396014 54.886655 
L 227.677984 54.989036 
L 227.959954 54.611593 
L 228.664879 52.838161 
L 229.369804 51.374535 
L 229.933744 50.703569 
L 230.497684 50.348969 
L 231.202609 50.163426 
L 232.189504 50.148309 
L 233.599354 50.365195 
L 235.150189 50.594553 
L 235.855114 50.495629 
L 236.701024 50.132853 
L 237.828904 49.651603 
L 238.392844 49.652374 
L 239.097769 49.92566 
L 241.917469 51.410318 
L 242.481409 51.345089 
L 243.045349 51.013776 
L 243.891259 50.481073 
L 244.173229 50.497005 
L 244.455199 50.688206 
L 244.878154 51.27872 
L 245.583078 52.346134 
L 246.006033 52.572729 
L 246.428988 52.480401 
L 248.543763 51.515817 
L 249.812628 51.395253 
L 251.363463 51.471358 
L 252.632328 51.747733 
L 253.901193 52.040146 
L 254.465133 51.899338 
L 255.874983 51.283764 
L 256.438923 51.481978 
L 257.284833 51.84117 
L 257.989758 51.849393 
L 259.681578 51.669276 
L 260.386503 51.830486 
L 260.950443 52.163576 
L 261.373398 52.61413 
L 261.796353 53.336888 
L 262.219308 54.442758 
L 262.783248 56.578566 
L 263.347188 58.767874 
L 263.629158 59.184593 
L 263.770143 59.052191 
L 264.052113 57.950885 
L 264.475068 54.52702 
L 265.039008 49.807898 
L 265.320978 48.560796 
L 265.461963 48.322276 
L 265.602948 48.376681 
L 265.743933 48.746368 
L 266.025903 50.388337 
L 266.730828 55.418131 
L 266.871813 55.683376 
L 267.012798 55.587436 
L 267.294768 54.470471 
L 267.999693 49.359424 
L 268.563633 45.924979 
L 269.127573 43.833027 
L 269.691512 42.701568 
L 270.255452 42.115213 
L 270.960377 41.763435 
L 271.947272 41.569947 
L 273.921062 41.480775 
L 278.573567 41.538393 
L 279.983417 41.717531 
L 280.829327 42.047252 
L 281.393267 42.517171 
L 281.816222 43.127072 
L 282.239177 44.104693 
L 282.662132 45.641075 
L 283.085087 47.948891 
L 283.649027 52.322175 
L 284.353952 57.589289 
L 284.494937 57.986759 
L 284.635922 57.97998 
L 284.776907 57.516316 
L 285.058877 55.196768 
L 286.186757 42.386253 
L 286.327742 42.337716 
L 286.468727 42.801232 
L 286.750697 45.062736 
L 287.596607 53.577658 
L 287.737592 53.937577 
L 287.878577 53.878549 
L 288.160547 52.728498 
L 289.570397 43.773227 
L 289.993352 42.927707 
L 290.275322 42.830716 
L 290.557292 43.01817 
L 291.544187 44.212198 
L 291.685172 44.164984 
L 291.967142 43.695011 
L 292.390097 42.115143 
L 292.954037 39.997137 
L 293.095022 39.820704 
L 293.236007 39.850804 
L 293.517977 40.489459 
L 294.504871 43.807373 
L 294.645856 43.870101 
L 294.927826 43.641996 
L 295.350781 42.765503 
L 296.196691 40.914125 
L 296.760631 40.168496 
L 297.324571 39.75363 
L 298.029496 39.501323 
L 299.157376 39.361156 
L 301.836091 39.32459 
L 308.321401 39.450334 
L 309.449281 39.681266 
L 310.154206 40.051194 
L 311.564056 40.970476 
L 311.846026 40.712619 
L 312.268981 39.834203 
L 312.691936 38.968522 
L 312.973906 38.864826 
L 313.255876 39.230991 
L 314.101786 40.828178 
L 314.383756 40.935845 
L 314.806711 40.760523 
L 316.075576 39.929879 
L 316.921486 39.697418 
L 318.331336 39.59439 
L 320.16414 39.672619 
L 321.151035 39.901388 
L 321.85596 40.316303 
L 322.4199 40.977029 
L 322.98384 42.130611 
L 324.252705 45.424502 
L 324.39369 45.306423 
L 324.67566 44.261698 
L 325.098615 40.660237 
L 325.52157 36.678568 
L 325.80354 35.733835 
L 325.944525 36.037991 
L 326.226495 37.958188 
L 326.93142 43.692717 
L 327.21339 44.258569 
L 327.354375 44.151271 
L 327.636345 43.422916 
L 328.764225 39.597664 
L 329.18718 38.851055 
L 329.75112 38.319357 
L 330.456045 37.681311 
L 331.019985 37.13278 
L 331.301955 37.154905 
L 332.28885 37.731743 
L 332.85279 37.587681 
L 333.98067 37.300062 
L 335.531505 37.22275 
L 336.377415 37.225798 
L 336.377415 37.225798 
" clip-path="url(#p1ecc0786d9)" style="fill: none; stroke: #1f77b4; stroke-width: 1.5; stroke-linecap: square"/>
   </g>
   <g id="patch_3">
    <path d="M 67.103125 241.036875 
L 67.103125 25.9575 
" style="fill: none; stroke: #000000; stroke-width: 0.8; stroke-linejoin: miter; stroke-linecap: square"/>
   </g>
   <g id="patch_4">
    <path d="M 349.2 241.036875 
L 349.2 25.9575 
" style="fill: none; stroke: #000000; stroke-width: 0.8; stroke-linejoin: miter; stroke-linecap: square"/>
   </g>
   <g id="patch_5">
    <path d="M 67.103125 241.036875 
L 349.2 241.036875 
" style="fill: none; stroke: #000000; stroke-width: 0.8; stroke-linejoin: miter; stroke-linecap: square"/>
   </g>
   <g id="patch_6">
    <path d="M 67.103125 25.9575 
L 349.2 25.9575 
" style="fill: none; stroke: #000000; stroke-width: 0.8; stroke-linejoin: miter; stroke-linecap: square"/>
   </g>
  </g>
 </g>
 <defs>
  <clipPath id="p1ecc0786d9">
   <rect x="67.103125" y="25.9575" width="282.096875" height="215.079375"/>
  </clipPath>
 </defs>
</svg>
