<?xml version="1.0" encoding="utf-8" standalone="no"?>
<!DOCTYPE svg PUBLIC "-//W3C//DTD SVG 1.1//EN"
  "http://www.w3.org/Graphics/SVG/1.1/DTD/svg11.dtd">
<svg xmlns:xlink="http://www.w3.org/1999/xlink" width="342pt" height="341.28pt" viewBox="0 0 342 341.28" xmlns="http://www.w3.org/2000/svg" version="1.1">
 <metadata>
  <rdf:RDF xmlns:dc="http://purl.org/dc/elements/1.1/" xmlns:cc="http://creativecommons.org/ns#" xmlns:rdf="http://www.w3.org/1999/02/22-rdf-syntax-ns#">
   <cc:Work>
    <dc:type rdf:resource="http://purl.org/dc/dcmitype/StillImage"/>
    <dc:date>2025-06-06T22:54:31.159052</dc:date>
    <dc:format>image/svg+xml</dc:format>
    <dc:creator>
     <cc:Agent>
      <dc:title>Matplotlib v3.10.1, https://matplotlib.org/</dc:title>
     </cc:Agent>
    </dc:creator>
   </cc:Work>
  </rdf:RDF>
 </metadata>
 <defs>
  <style type="text/css">*{stroke-linejoin: round; stroke-linecap: butt}</style>
 </defs>
 <g id="figure_1">
  <g id="patch_1">
   <path d="M 0 341.28 
L 342 341.28 
L 342 0 
L 0 0 
L 0 341.28 
z
" style="fill: none"/>
  </g>
  <g id="axes_1">
   <g id="patch_2">
    <path d="M 56.0875 289.51 
L 331.2 289.51 
L 331.2 25.9575 
L 56.0875 25.9575 
L 56.0875 289.51 
z
" style="fill: none"/>
   </g>
   <g id="patch_3">
    <path d="M 199.376859 164.215814 
C 200.882806 164.215814 202.327277 163.532823 203.392143 162.317261 
C 204.457009 161.1017 205.055328 159.452813 205.055328 157.73375 
C 205.055328 156.014687 204.457009 154.3658 203.392143 153.150239 
C 202.327277 151.934677 200.882806 151.251686 199.376859 151.251686 
C 197.870911 151.251686 196.426441 151.934677 195.361575 153.150239 
C 194.296709 154.3658 193.69839 156.014687 193.69839 157.73375 
C 193.69839 159.452813 194.296709 161.1017 195.361575 162.317261 
C 196.426441 163.532823 197.870911 164.215814 199.376859 164.215814 
z
" clip-path="url(#pdeaf9f8de6)" style="fill: #0000ff; stroke: #0000ff; stroke-linejoin: miter"/>
   </g>
   <g id="matplotlib.axis_1">
    <g id="xtick_1">
     <g id="line2d_1">
      <path d="M 85.807477 289.51 
L 85.807477 25.9575 
" clip-path="url(#pdeaf9f8de6)" style="fill: none; stroke: #b0b0b0; stroke-width: 0.8; stroke-linecap: square"/>
     </g>
     <g id="line2d_2">
      <defs>
       <path id="m1472bbd42b" d="M 0 0 
L 0 3.5 
" style="stroke: #000000; stroke-width: 0.8"/>
      </defs>
      <g>
       <use xlink:href="#m1472bbd42b" x="85.807477" y="289.51" style="stroke: #000000; stroke-width: 0.8"/>
      </g>
     </g>
     <g id="text_1">
      <!-- −4 -->
      <g transform="translate(74.013727 308.6675) scale(0.16 -0.16)">
       <defs>
        <path id="DejaVuSans-2212" d="M 678 2272 
L 4684 2272 
L 4684 1741 
L 678 1741 
L 678 2272 
z
" transform="scale(0.015625)"/>
        <path id="DejaVuSans-34" d="M 2419 4116 
L 825 1625 
L 2419 1625 
L 2419 4116 
z
M 2253 4666 
L 3047 4666 
L 3047 1625 
L 3713 1625 
L 3713 1100 
L 3047 1100 
L 3047 0 
L 2419 0 
L 2419 1100 
L 313 1100 
L 313 1709 
L 2253 4666 
z
" transform="scale(0.015625)"/>
       </defs>
       <use xlink:href="#DejaVuSans-2212"/>
       <use xlink:href="#DejaVuSans-34" transform="translate(83.789062 0)"/>
      </g>
     </g>
    </g>
    <g id="xtick_2">
     <g id="line2d_3">
      <path d="M 142.592168 289.51 
L 142.592168 25.9575 
" clip-path="url(#pdeaf9f8de6)" style="fill: none; stroke: #b0b0b0; stroke-width: 0.8; stroke-linecap: square"/>
     </g>
     <g id="line2d_4">
      <g>
       <use xlink:href="#m1472bbd42b" x="142.592168" y="289.51" style="stroke: #000000; stroke-width: 0.8"/>
      </g>
     </g>
     <g id="text_2">
      <!-- −2 -->
      <g transform="translate(130.798418 308.6675) scale(0.16 -0.16)">
       <defs>
        <path id="DejaVuSans-32" d="M 1228 531 
L 3431 531 
L 3431 0 
L 469 0 
L 469 531 
Q 828 903 1448 1529 
Q 2069 2156 2228 2338 
Q 2531 2678 2651 2914 
Q 2772 3150 2772 3378 
Q 2772 3750 2511 3984 
Q 2250 4219 1831 4219 
Q 1534 4219 1204 4116 
Q 875 4013 500 3803 
L 500 4441 
Q 881 4594 1212 4672 
Q 1544 4750 1819 4750 
Q 2544 4750 2975 4387 
Q 3406 4025 3406 3419 
Q 3406 3131 3298 2873 
Q 3191 2616 2906 2266 
Q 2828 2175 2409 1742 
Q 1991 1309 1228 531 
z
" transform="scale(0.015625)"/>
       </defs>
       <use xlink:href="#DejaVuSans-2212"/>
       <use xlink:href="#DejaVuSans-32" transform="translate(83.789062 0)"/>
      </g>
     </g>
    </g>
    <g id="xtick_3">
     <g id="line2d_5">
      <path d="M 199.376859 289.51 
L 199.376859 25.9575 
" clip-path="url(#pdeaf9f8de6)" style="fill: none; stroke: #b0b0b0; stroke-width: 0.8; stroke-linecap: square"/>
     </g>
     <g id="line2d_6">
      <g>
       <use xlink:href="#m1472bbd42b" x="199.376859" y="289.51" style="stroke: #000000; stroke-width: 0.8"/>
      </g>
     </g>
     <g id="text_3">
      <!-- 0 -->
      <g transform="translate(194.286859 308.6675) scale(0.16 -0.16)">
       <defs>
        <path id="DejaVuSans-30" d="M 2034 4250 
Q 1547 4250 1301 3770 
Q 1056 3291 1056 2328 
Q 1056 1369 1301 889 
Q 1547 409 2034 409 
Q 2525 409 2770 889 
Q 3016 1369 3016 2328 
Q 3016 3291 2770 3770 
Q 2525 4250 2034 4250 
z
M 2034 4750 
Q 2819 4750 3233 4129 
Q 3647 3509 3647 2328 
Q 3647 1150 3233 529 
Q 2819 -91 2034 -91 
Q 1250 -91 836 529 
Q 422 1150 422 2328 
Q 422 3509 836 4129 
Q 1250 4750 2034 4750 
z
" transform="scale(0.015625)"/>
       </defs>
       <use xlink:href="#DejaVuSans-30"/>
      </g>
     </g>
    </g>
    <g id="xtick_4">
     <g id="line2d_7">
      <path d="M 256.16155 289.51 
L 256.16155 25.9575 
" clip-path="url(#pdeaf9f8de6)" style="fill: none; stroke: #b0b0b0; stroke-width: 0.8; stroke-linecap: square"/>
     </g>
     <g id="line2d_8">
      <g>
       <use xlink:href="#m1472bbd42b" x="256.16155" y="289.51" style="stroke: #000000; stroke-width: 0.8"/>
      </g>
     </g>
     <g id="text_4">
      <!-- 2 -->
      <g transform="translate(251.07155 308.6675) scale(0.16 -0.16)">
       <use xlink:href="#DejaVuSans-32"/>
      </g>
     </g>
    </g>
    <g id="xtick_5">
     <g id="line2d_9">
      <path d="M 312.94624 289.51 
L 312.94624 25.9575 
" clip-path="url(#pdeaf9f8de6)" style="fill: none; stroke: #b0b0b0; stroke-width: 0.8; stroke-linecap: square"/>
     </g>
     <g id="line2d_10">
      <g>
       <use xlink:href="#m1472bbd42b" x="312.94624" y="289.51" style="stroke: #000000; stroke-width: 0.8"/>
      </g>
     </g>
     <g id="text_5">
      <!-- 4 -->
      <g transform="translate(307.85624 308.6675) scale(0.16 -0.16)">
       <use xlink:href="#DejaVuSans-34"/>
      </g>
     </g>
    </g>
    <g id="text_6">
     <!-- $i_e$ Coord. [km] -->
     <g transform="translate(158.64375 323.593438) scale(0.1 -0.1)">
      <defs>
       <path id="DejaVuSans-Oblique-69" d="M 1172 4863 
L 1747 4863 
L 1606 4134 
L 1031 4134 
L 1172 4863 
z
M 909 3500 
L 1484 3500 
L 800 0 
L 225 0 
L 909 3500 
z
" transform="scale(0.015625)"/>
       <path id="DejaVuSans-Oblique-65" d="M 3078 2063 
Q 3088 2113 3092 2166 
Q 3097 2219 3097 2272 
Q 3097 2653 2873 2875 
Q 2650 3097 2266 3097 
Q 1838 3097 1509 2826 
Q 1181 2556 1013 2059 
L 3078 2063 
z
M 3578 1613 
L 903 1613 
Q 884 1494 878 1425 
Q 872 1356 872 1306 
Q 872 872 1139 634 
Q 1406 397 1894 397 
Q 2269 397 2603 481 
Q 2938 566 3225 728 
L 3116 159 
Q 2806 34 2476 -28 
Q 2147 -91 1806 -91 
Q 1078 -91 686 257 
Q 294 606 294 1247 
Q 294 1794 489 2264 
Q 684 2734 1063 3103 
Q 1306 3334 1642 3459 
Q 1978 3584 2356 3584 
Q 2950 3584 3301 3228 
Q 3653 2872 3653 2272 
Q 3653 2128 3634 1964 
Q 3616 1800 3578 1613 
z
" transform="scale(0.015625)"/>
       <path id="DejaVuSans-20" transform="scale(0.015625)"/>
       <path id="DejaVuSans-43" d="M 4122 4306 
L 4122 3641 
Q 3803 3938 3442 4084 
Q 3081 4231 2675 4231 
Q 1875 4231 1450 3742 
Q 1025 3253 1025 2328 
Q 1025 1406 1450 917 
Q 1875 428 2675 428 
Q 3081 428 3442 575 
Q 3803 722 4122 1019 
L 4122 359 
Q 3791 134 3420 21 
Q 3050 -91 2638 -91 
Q 1578 -91 968 557 
Q 359 1206 359 2328 
Q 359 3453 968 4101 
Q 1578 4750 2638 4750 
Q 3056 4750 3426 4639 
Q 3797 4528 4122 4306 
z
" transform="scale(0.015625)"/>
       <path id="DejaVuSans-6f" d="M 1959 3097 
Q 1497 3097 1228 2736 
Q 959 2375 959 1747 
Q 959 1119 1226 758 
Q 1494 397 1959 397 
Q 2419 397 2687 759 
Q 2956 1122 2956 1747 
Q 2956 2369 2687 2733 
Q 2419 3097 1959 3097 
z
M 1959 3584 
Q 2709 3584 3137 3096 
Q 3566 2609 3566 1747 
Q 3566 888 3137 398 
Q 2709 -91 1959 -91 
Q 1206 -91 779 398 
Q 353 888 353 1747 
Q 353 2609 779 3096 
Q 1206 3584 1959 3584 
z
" transform="scale(0.015625)"/>
       <path id="DejaVuSans-72" d="M 2631 2963 
Q 2534 3019 2420 3045 
Q 2306 3072 2169 3072 
Q 1681 3072 1420 2755 
Q 1159 2438 1159 1844 
L 1159 0 
L 581 0 
L 581 3500 
L 1159 3500 
L 1159 2956 
Q 1341 3275 1631 3429 
Q 1922 3584 2338 3584 
Q 2397 3584 2469 3576 
Q 2541 3569 2628 3553 
L 2631 2963 
z
" transform="scale(0.015625)"/>
       <path id="DejaVuSans-64" d="M 2906 2969 
L 2906 4863 
L 3481 4863 
L 3481 0 
L 2906 0 
L 2906 525 
Q 2725 213 2448 61 
Q 2172 -91 1784 -91 
Q 1150 -91 751 415 
Q 353 922 353 1747 
Q 353 2572 751 3078 
Q 1150 3584 1784 3584 
Q 2172 3584 2448 3432 
Q 2725 3281 2906 2969 
z
M 947 1747 
Q 947 1113 1208 752 
Q 1469 391 1925 391 
Q 2381 391 2643 752 
Q 2906 1113 2906 1747 
Q 2906 2381 2643 2742 
Q 2381 3103 1925 3103 
Q 1469 3103 1208 2742 
Q 947 2381 947 1747 
z
" transform="scale(0.015625)"/>
       <path id="DejaVuSans-2e" d="M 684 794 
L 1344 794 
L 1344 0 
L 684 0 
L 684 794 
z
" transform="scale(0.015625)"/>
       <path id="DejaVuSans-5b" d="M 550 4863 
L 1875 4863 
L 1875 4416 
L 1125 4416 
L 1125 -397 
L 1875 -397 
L 1875 -844 
L 550 -844 
L 550 4863 
z
" transform="scale(0.015625)"/>
       <path id="DejaVuSans-6b" d="M 581 4863 
L 1159 4863 
L 1159 1991 
L 2875 3500 
L 3609 3500 
L 1753 1863 
L 3688 0 
L 2938 0 
L 1159 1709 
L 1159 0 
L 581 0 
L 581 4863 
z
" transform="scale(0.015625)"/>
       <path id="DejaVuSans-6d" d="M 3328 2828 
Q 3544 3216 3844 3400 
Q 4144 3584 4550 3584 
Q 5097 3584 5394 3201 
Q 5691 2819 5691 2113 
L 5691 0 
L 5113 0 
L 5113 2094 
Q 5113 2597 4934 2840 
Q 4756 3084 4391 3084 
Q 3944 3084 3684 2787 
Q 3425 2491 3425 1978 
L 3425 0 
L 2847 0 
L 2847 2094 
Q 2847 2600 2669 2842 
Q 2491 3084 2119 3084 
Q 1678 3084 1418 2786 
Q 1159 2488 1159 1978 
L 1159 0 
L 581 0 
L 581 3500 
L 1159 3500 
L 1159 2956 
Q 1356 3278 1631 3431 
Q 1906 3584 2284 3584 
Q 2666 3584 2933 3390 
Q 3200 3197 3328 2828 
z
" transform="scale(0.015625)"/>
       <path id="DejaVuSans-5d" d="M 1947 4863 
L 1947 -844 
L 622 -844 
L 622 -397 
L 1369 -397 
L 1369 4416 
L 622 4416 
L 622 4863 
L 1947 4863 
z
" transform="scale(0.015625)"/>
      </defs>
      <use xlink:href="#DejaVuSans-Oblique-69" transform="translate(0 0.015625)"/>
      <use xlink:href="#DejaVuSans-Oblique-65" transform="translate(27.783203 -16.390625) scale(0.7)"/>
      <use xlink:href="#DejaVuSans-20" transform="translate(73.583984 0.015625)"/>
      <use xlink:href="#DejaVuSans-43" transform="translate(105.371094 0.015625)"/>
      <use xlink:href="#DejaVuSans-6f" transform="translate(175.195312 0.015625)"/>
      <use xlink:href="#DejaVuSans-6f" transform="translate(236.376953 0.015625)"/>
      <use xlink:href="#DejaVuSans-72" transform="translate(297.558594 0.015625)"/>
      <use xlink:href="#DejaVuSans-64" transform="translate(338.671875 0.015625)"/>
      <use xlink:href="#DejaVuSans-2e" transform="translate(402.148438 0.015625)"/>
      <use xlink:href="#DejaVuSans-20" transform="translate(433.935547 0.015625)"/>
      <use xlink:href="#DejaVuSans-5b" transform="translate(465.722656 0.015625)"/>
      <use xlink:href="#DejaVuSans-6b" transform="translate(504.736328 0.015625)"/>
      <use xlink:href="#DejaVuSans-6d" transform="translate(562.646484 0.015625)"/>
      <use xlink:href="#DejaVuSans-5d" transform="translate(660.058594 0.015625)"/>
     </g>
    </g>
    <g id="text_7">
     <!-- 1e5 -->
     <g transform="translate(300.995 327.1525) scale(0.16 -0.16)">
      <defs>
       <path id="DejaVuSans-31" d="M 794 531 
L 1825 531 
L 1825 4091 
L 703 3866 
L 703 4441 
L 1819 4666 
L 2450 4666 
L 2450 531 
L 3481 531 
L 3481 0 
L 794 0 
L 794 531 
z
" transform="scale(0.015625)"/>
       <path id="DejaVuSans-65" d="M 3597 1894 
L 3597 1613 
L 953 1613 
Q 991 1019 1311 708 
Q 1631 397 2203 397 
Q 2534 397 2845 478 
Q 3156 559 3463 722 
L 3463 178 
Q 3153 47 2828 -22 
Q 2503 -91 2169 -91 
Q 1331 -91 842 396 
Q 353 884 353 1716 
Q 353 2575 817 3079 
Q 1281 3584 2069 3584 
Q 2775 3584 3186 3129 
Q 3597 2675 3597 1894 
z
M 3022 2063 
Q 3016 2534 2758 2815 
Q 2500 3097 2075 3097 
Q 1594 3097 1305 2825 
Q 1016 2553 972 2059 
L 3022 2063 
z
" transform="scale(0.015625)"/>
       <path id="DejaVuSans-35" d="M 691 4666 
L 3169 4666 
L 3169 4134 
L 1269 4134 
L 1269 2991 
Q 1406 3038 1543 3061 
Q 1681 3084 1819 3084 
Q 2600 3084 3056 2656 
Q 3513 2228 3513 1497 
Q 3513 744 3044 326 
Q 2575 -91 1722 -91 
Q 1428 -91 1123 -41 
Q 819 9 494 109 
L 494 744 
Q 775 591 1075 516 
Q 1375 441 1709 441 
Q 2250 441 2565 725 
Q 2881 1009 2881 1497 
Q 2881 1984 2565 2268 
Q 2250 2553 1709 2553 
Q 1456 2553 1204 2497 
Q 953 2441 691 2322 
L 691 4666 
z
" transform="scale(0.015625)"/>
      </defs>
      <use xlink:href="#DejaVuSans-31"/>
      <use xlink:href="#DejaVuSans-65" transform="translate(63.623047 0)"/>
      <use xlink:href="#DejaVuSans-35" transform="translate(125.146484 0)"/>
     </g>
    </g>
   </g>
   <g id="matplotlib.axis_2">
    <g id="ytick_1">
     <g id="line2d_11">
      <path d="M 56.0875 287.375032 
L 331.2 287.375032 
" clip-path="url(#pdeaf9f8de6)" style="fill: none; stroke: #b0b0b0; stroke-width: 0.8; stroke-linecap: square"/>
     </g>
     <g id="line2d_12">
      <defs>
       <path id="md7d028a256" d="M 0 0 
L -3.5 0 
" style="stroke: #000000; stroke-width: 0.8"/>
      </defs>
      <g>
       <use xlink:href="#md7d028a256" x="56.0875" y="287.375032" style="stroke: #000000; stroke-width: 0.8"/>
      </g>
     </g>
     <g id="text_8">
      <!-- −4 -->
      <g transform="translate(25.5 293.453782) scale(0.16 -0.16)">
       <use xlink:href="#DejaVuSans-2212"/>
       <use xlink:href="#DejaVuSans-34" transform="translate(83.789062 0)"/>
      </g>
     </g>
    </g>
    <g id="ytick_2">
     <g id="line2d_13">
      <path d="M 56.0875 222.554391 
L 331.2 222.554391 
" clip-path="url(#pdeaf9f8de6)" style="fill: none; stroke: #b0b0b0; stroke-width: 0.8; stroke-linecap: square"/>
     </g>
     <g id="line2d_14">
      <g>
       <use xlink:href="#md7d028a256" x="56.0875" y="222.554391" style="stroke: #000000; stroke-width: 0.8"/>
      </g>
     </g>
     <g id="text_9">
      <!-- −2 -->
      <g transform="translate(25.5 228.633141) scale(0.16 -0.16)">
       <use xlink:href="#DejaVuSans-2212"/>
       <use xlink:href="#DejaVuSans-32" transform="translate(83.789062 0)"/>
      </g>
     </g>
    </g>
    <g id="ytick_3">
     <g id="line2d_15">
      <path d="M 56.0875 157.73375 
L 331.2 157.73375 
" clip-path="url(#pdeaf9f8de6)" style="fill: none; stroke: #b0b0b0; stroke-width: 0.8; stroke-linecap: square"/>
     </g>
     <g id="line2d_16">
      <g>
       <use xlink:href="#md7d028a256" x="56.0875" y="157.73375" style="stroke: #000000; stroke-width: 0.8"/>
      </g>
     </g>
     <g id="text_10">
      <!-- 0 -->
      <g transform="translate(38.9075 163.8125) scale(0.16 -0.16)">
       <use xlink:href="#DejaVuSans-30"/>
      </g>
     </g>
    </g>
    <g id="ytick_4">
     <g id="line2d_17">
      <path d="M 56.0875 92.913109 
L 331.2 92.913109 
" clip-path="url(#pdeaf9f8de6)" style="fill: none; stroke: #b0b0b0; stroke-width: 0.8; stroke-linecap: square"/>
     </g>
     <g id="line2d_18">
      <g>
       <use xlink:href="#md7d028a256" x="56.0875" y="92.913109" style="stroke: #000000; stroke-width: 0.8"/>
      </g>
     </g>
     <g id="text_11">
      <!-- 2 -->
      <g transform="translate(38.9075 98.991859) scale(0.16 -0.16)">
       <use xlink:href="#DejaVuSans-32"/>
      </g>
     </g>
    </g>
    <g id="ytick_5">
     <g id="line2d_19">
      <path d="M 56.0875 28.092468 
L 331.2 28.092468 
" clip-path="url(#pdeaf9f8de6)" style="fill: none; stroke: #b0b0b0; stroke-width: 0.8; stroke-linecap: square"/>
     </g>
     <g id="line2d_20">
      <g>
       <use xlink:href="#md7d028a256" x="56.0875" y="28.092468" style="stroke: #000000; stroke-width: 0.8"/>
      </g>
     </g>
     <g id="text_12">
      <!-- 4 -->
      <g transform="translate(38.9075 34.171218) scale(0.16 -0.16)">
       <use xlink:href="#DejaVuSans-34"/>
      </g>
     </g>
    </g>
    <g id="text_13">
     <!-- $i_p$ Coord. [km] -->
     <g transform="translate(18.4 192.78375) rotate(-90) scale(0.1 -0.1)">
      <defs>
       <path id="DejaVuSans-Oblique-70" d="M 3175 2156 
Q 3175 2616 2975 2859 
Q 2775 3103 2400 3103 
Q 2144 3103 1911 2972 
Q 1678 2841 1497 2591 
Q 1319 2344 1212 1994 
Q 1106 1644 1106 1300 
Q 1106 863 1306 627 
Q 1506 391 1875 391 
Q 2147 391 2380 519 
Q 2613 647 2778 891 
Q 2956 1147 3065 1494 
Q 3175 1841 3175 2156 
z
M 1394 2969 
Q 1625 3272 1939 3428 
Q 2253 3584 2638 3584 
Q 3175 3584 3472 3232 
Q 3769 2881 3769 2247 
Q 3769 1728 3584 1258 
Q 3400 788 3053 416 
Q 2822 169 2531 39 
Q 2241 -91 1919 -91 
Q 1547 -91 1294 64 
Q 1041 219 916 525 
L 556 -1331 
L -19 -1331 
L 922 3500 
L 1497 3500 
L 1394 2969 
z
" transform="scale(0.015625)"/>
      </defs>
      <use xlink:href="#DejaVuSans-Oblique-69" transform="translate(0 0.015625)"/>
      <use xlink:href="#DejaVuSans-Oblique-70" transform="translate(27.783203 -16.390625) scale(0.7)"/>
      <use xlink:href="#DejaVuSans-20" transform="translate(74.951172 0.015625)"/>
      <use xlink:href="#DejaVuSans-43" transform="translate(106.738281 0.015625)"/>
      <use xlink:href="#DejaVuSans-6f" transform="translate(176.5625 0.015625)"/>
      <use xlink:href="#DejaVuSans-6f" transform="translate(237.744141 0.015625)"/>
      <use xlink:href="#DejaVuSans-72" transform="translate(298.925781 0.015625)"/>
      <use xlink:href="#DejaVuSans-64" transform="translate(340.039062 0.015625)"/>
      <use xlink:href="#DejaVuSans-2e" transform="translate(403.515625 0.015625)"/>
      <use xlink:href="#DejaVuSans-20" transform="translate(435.302734 0.015625)"/>
      <use xlink:href="#DejaVuSans-5b" transform="translate(467.089844 0.015625)"/>
      <use xlink:href="#DejaVuSans-6b" transform="translate(506.103516 0.015625)"/>
      <use xlink:href="#DejaVuSans-6d" transform="translate(564.013672 0.015625)"/>
      <use xlink:href="#DejaVuSans-5d" transform="translate(661.425781 0.015625)"/>
     </g>
    </g>
    <g id="text_14">
     <!-- 1e5 -->
     <g transform="translate(56.0875 22.9575) scale(0.16 -0.16)">
      <use xlink:href="#DejaVuSans-31"/>
      <use xlink:href="#DejaVuSans-65" transform="translate(63.623047 0)"/>
      <use xlink:href="#DejaVuSans-35" transform="translate(125.146484 0)"/>
     </g>
    </g>
   </g>
   <g id="line2d_21">
    <path d="M 223.638787 258.15993 
L 228.689119 256.190542 
L 233.64217 253.992638 
L 238.478836 251.56976 
L 243.181052 248.9273 
L 247.091683 246.492914 
L 250.881232 243.907805 
L 254.54054 241.178146 
L 258.061184 238.310803 
L 261.435472 235.313256 
L 264.656439 232.193528 
L 267.71783 228.960114 
L 270.614075 225.621916 
L 273.340267 222.188191 
L 276.30024 218.074218 
L 279.017259 213.858888 
L 281.486721 209.558266 
L 283.705112 205.188789 
L 285.670009 200.76723 
L 287.380106 196.31066 
L 288.835281 191.83641 
L 290.03669 187.362008 
L 290.986915 182.905079 
L 291.690144 178.483158 
L 292.15238 174.113396 
L 292.381644 169.812083 
L 292.388098 165.59394 
L 292.183966 161.471149 
L 291.783083 157.452163 
L 291.102475 152.990402 
L 290.203147 148.664725 
L 289.098235 144.462125 
L 287.790473 140.364163 
L 286.270339 136.353043 
L 284.51746 132.417716 
L 282.77134 129.035791 
L 280.805978 125.718142 
L 278.601478 122.477655 
L 276.507402 119.775022 
L 274.213152 117.15604 
L 271.708879 114.6365 
L 268.985552 112.234028 
L 266.034825 109.968091 
L 263.396541 108.199516 
L 260.590642 106.554209 
L 257.613028 105.04702 
L 254.459758 103.694272 
L 251.127059 102.514039 
L 247.611363 101.526501 
L 243.909392 100.754386 
L 240.81176 100.309043 
L 237.591903 100.032992 
L 234.249023 99.943046 
L 230.782862 100.05823 
L 227.193921 100.400221 
L 223.483791 100.993893 
L 219.655614 101.867988 
L 215.71477 103.055948 
L 212.690224 104.176201 
L 209.612342 105.513912 
L 206.488389 107.090635 
L 203.328283 108.930819 
L 200.14553 111.062175 
L 196.958512 113.515985 
L 193.79225 116.327241 
L 191.709307 118.418857 
L 189.663459 120.698428 
L 187.670613 123.178217 
L 185.750218 125.870215 
L 183.925915 128.785374 
L 182.226178 131.932451 
L 180.684811 135.316344 
L 179.341065 138.93583 
L 178.239044 142.780713 
L 177.425935 146.828631 
L 176.94865 151.042153 
L 176.848758 155.367235 
L 177.15625 159.734378 
L 177.883609 164.063391 
L 179.022192 168.271458 
L 180.54253 172.282557 
L 182.398631 176.035447 
L 184.534771 179.488053 
L 186.892535 182.617771 
L 189.416387 185.418729 
L 192.05707 187.897615 
L 194.773049 190.069447 
L 197.530557 191.954013 
L 200.302883 193.57324 
L 203.069327 194.949429 
L 205.81411 196.104163 
L 208.52538 197.0577 
L 211.194366 197.82869 
L 215.105111 198.67954 
L 218.892536 199.207773 
L 222.548703 199.456179 
L 226.069862 199.461006 
L 229.455017 199.252981 
L 232.704958 198.858222 
L 235.821617 198.299019 
L 239.774452 197.330266 
L 243.502362 196.141068 
L 247.013176 194.763071 
L 250.314795 193.22272 
L 253.414926 191.54232 
L 256.320937 189.740846 
L 259.039777 187.834581 
L 262.184986 185.325664 
L 265.059592 182.698504 
L 267.67425 179.973222 
L 270.038618 177.167152 
L 272.161428 174.295388 
L 274.05056 171.371209 
L 275.713121 168.406425 
L 277.155504 165.411641 
L 278.383455 162.396484 
L 279.402128 159.369776 
L 280.216129 156.339691 
L 280.829564 153.313878 
L 281.246073 150.299567 
L 281.468864 147.303668 
L 281.500742 144.332851 
L 281.344133 141.393621 
L 281.001103 138.492387 
L 280.47338 135.635529 
L 279.762366 132.82946 
L 278.86915 130.080689 
L 277.794523 127.395881 
L 276.538978 124.781928 
L 275.102728 122.246017 
L 273.485703 119.795705 
L 271.687561 117.439006 
L 269.707692 115.184483 
L 267.545221 113.041357 
L 265.199018 111.019637 
L 262.667706 109.130261 
L 259.949675 107.385275 
L 257.043103 105.798046 
L 253.945987 104.38351 
L 250.656193 103.158491 
L 247.171526 102.142088 
L 244.242038 101.493747 
L 241.185448 101.005553 
L 238.000914 100.691838 
L 234.687873 100.568865 
L 231.246195 100.655202 
L 227.676409 100.972182 
L 223.980024 101.544485 
L 220.159997 102.400858 
L 216.221414 103.575021 
L 213.194474 104.68788 
L 210.110499 106.021228 
L 206.976581 107.597305 
L 203.802516 109.441527 
L 200.601798 111.582945 
L 197.393017 114.054655 
L 194.201819 116.894059 
L 192.101109 119.011642 
L 190.037325 121.324209 
L 188.027372 123.84527 
L 186.092139 126.588147 
L 184.257291 129.565103 
L 182.554069 132.785992 
L 181.019911 136.256261 
L 179.698609 139.974187 
L 178.639533 143.927357 
L 177.895303 148.088747 
L 177.517369 152.413304 
L 177.549437 156.836578 
L 177.728845 159.060289 
L 178.019713 161.277151 
L 178.42204 163.475518 
L 178.934209 165.6438 
L 179.553021 167.770847 
L 181.090696 171.860896 
L 182.984317 175.677143 
L 185.171751 179.173445 
L 187.588096 182.326315 
L 190.172335 185.131362 
L 192.871191 187.598091 
L 195.640531 189.744795 
L 198.445159 191.594439 
L 201.257774 193.171742 
L 204.057638 194.50131 
L 206.829267 195.606547 
L 209.561285 196.509116 
L 212.245475 197.228718 
L 216.169876 198.003331 
L 219.961591 198.45782 
L 223.614306 198.635979 
L 227.125652 198.574584 
L 230.495782 198.304576 
L 233.726439 197.852097 
L 236.820332 197.239343 
L 240.738485 196.205386 
L 244.427851 194.957624 
L 247.897184 193.527182 
L 251.1551 191.939988 
L 254.209858 190.217852 
L 257.069254 188.37929 
L 259.740572 186.440166 
L 262.825492 183.895545 
L 265.639176 181.238034 
L 268.192562 178.487176 
L 270.495506 175.659804 
L 272.556885 172.770574 
L 274.384676 169.832391 
L 275.986048 166.856738 
L 277.367434 163.853945 
L 278.534597 160.8334 
L 279.492693 157.803727 
L 280.246319 154.772932 
L 280.799563 151.748527 
L 281.156042 148.737636 
L 281.318937 145.747086 
L 281.29102 142.783486 
L 281.074687 139.853308 
L 280.671973 136.962948 
L 280.084575 134.118792 
L 279.31387 131.327284 
L 278.360923 128.59498 
L 277.226507 125.928619 
L 275.911106 123.335186 
L 274.414928 120.821983 
L 272.737912 118.396705 
L 270.879736 116.067529 
L 268.839823 113.84321 
L 266.617353 111.733188 
L 264.211268 109.74772 
L 261.620295 107.89803 
L 258.842956 106.196486 
L 255.877603 104.656818 
L 252.72246 103.294373 
L 249.375679 102.126436 
L 245.835434 101.172624 
L 242.862809 100.578711 
L 239.764581 100.149169 
L 236.540275 99.898687 
L 233.189778 99.843912 
L 229.713513 100.003823 
L 229.713513 100.003823 
" clip-path="url(#pdeaf9f8de6)" style="fill: none; stroke: #008000; stroke-width: 3; stroke-linecap: square"/>
   </g>
   <g id="line2d_22">
    <path d="M 224.624115 278.542405 
L 229.30254 276.908987 
L 233.918433 275.034095 
L 238.462112 272.920152 
L 242.923934 270.57009 
L 247.294323 267.987358 
L 251.563786 265.175924 
L 255.722935 262.140273 
L 259.762508 258.885416 
L 263.673393 255.416882 
L 267.446653 251.740721 
L 271.073542 247.863501 
L 274.545537 243.792305 
L 277.85436 239.534724 
L 280.992 235.09885 
L 283.950742 230.493271 
L 286.723189 225.727059 
L 289.302294 220.809756 
L 291.681378 215.751365 
L 293.854162 210.562327 
L 295.81479 205.253511 
L 297.557857 199.836187 
L 299.07843 194.322003 
L 300.372075 188.722966 
L 301.434882 183.051407 
L 302.263485 177.319954 
L 302.855083 171.541497 
L 303.207461 165.729158 
L 303.319006 159.896246 
L 303.188726 154.056223 
L 302.816258 148.222659 
L 302.201883 142.409188 
L 301.346535 136.629467 
L 300.251799 130.897123 
L 298.919922 125.225709 
L 297.353805 119.628657 
L 295.557002 114.119223 
L 293.533708 108.710446 
L 291.288751 103.415094 
L 288.827576 98.245619 
L 286.156222 93.214109 
L 283.281305 88.332248 
L 280.209992 83.611267 
L 276.949968 79.06191 
L 273.509411 74.694396 
L 269.896953 70.518381 
L 266.121647 66.542934 
L 262.192931 62.776506 
L 258.120582 59.226908 
L 253.914684 55.901295 
L 249.58558 52.806147 
L 245.143835 49.947262 
L 240.600193 47.329748 
L 235.965534 44.958022 
L 231.250837 42.835806 
L 226.467138 40.966141 
L 221.625493 39.351386 
L 216.736943 37.993236 
L 211.812475 36.892732 
L 206.862995 36.05028 
L 201.899294 35.465672 
L 196.932021 35.138101 
L 191.971657 35.066191 
L 187.028491 35.248014 
L 182.1126 35.681121 
L 177.23383 36.362564 
L 172.401777 37.28892 
L 167.625779 38.456322 
L 162.914896 39.860483 
L 158.277905 41.496718 
L 153.723293 43.359975 
L 149.259244 45.444856 
L 144.893641 47.74564 
L 140.634058 50.256307 
L 136.48776 52.970561 
L 132.461702 55.881849 
L 128.562527 58.98338 
L 124.796567 62.268143 
L 121.169848 65.728928 
L 117.688086 69.358338 
L 114.356695 73.148806 
L 111.180784 77.092609 
L 108.165167 81.181879 
L 105.31436 85.408617 
L 102.632585 89.764705 
L 100.123776 94.241911 
L 97.79158 98.831904 
L 95.639358 103.526261 
L 93.670191 108.316473 
L 91.88688 113.193956 
L 90.291946 118.150054 
L 88.887638 123.176049 
L 87.675925 128.263164 
L 86.658507 133.402575 
L 85.836807 138.585408 
L 85.211976 143.802755 
L 84.784889 149.045669 
L 84.55615 154.305181 
L 84.526086 159.572297 
L 84.694747 164.838008 
L 85.061905 170.093297 
L 85.627054 175.329145 
L 86.389404 180.536537 
L 87.347882 185.706469 
L 88.501128 190.82996 
L 89.847494 195.898055 
L 91.38504 200.901839 
L 93.111531 205.83244 
L 95.024439 210.681047 
L 97.120932 215.438913 
L 99.397882 220.097373 
L 101.851855 224.64785 
L 104.479111 229.081872 
L 107.275607 233.391081 
L 110.236991 237.567253 
L 113.358601 241.602304 
L 116.635471 245.488314 
L 120.062324 249.217535 
L 123.63358 252.782412 
L 127.343352 256.175597 
L 131.185454 259.38997 
L 135.1534 262.418651 
L 139.240411 265.255021 
L 143.439422 267.892742 
L 147.743085 270.32577 
L 152.143779 272.54838 
L 156.633617 274.555178 
L 161.204456 276.341126 
L 165.84791 277.901553 
L 170.55536 279.23218 
L 175.317966 280.329132 
L 180.126685 281.188957 
L 184.972284 281.808646 
L 189.845356 282.185641 
L 194.736339 282.317856 
L 199.635535 282.20369 
L 204.533129 281.842037 
L 209.419211 281.232302 
L 214.283794 280.374406 
L 219.116841 279.268802 
L 223.908286 277.916475 
L 228.648056 276.318956 
L 233.326099 274.47832 
L 237.279131 272.709108 
L 237.279131 272.709108 
" clip-path="url(#pdeaf9f8de6)" style="fill: none; stroke: #808080; stroke-width: 3; stroke-linecap: square"/>
   </g>
   <g id="patch_4">
    <path d="M 56.0875 289.51 
L 56.0875 25.9575 
" style="fill: none; stroke: #000000; stroke-width: 0.8; stroke-linejoin: miter; stroke-linecap: square"/>
   </g>
   <g id="patch_5">
    <path d="M 331.2 289.51 
L 331.2 25.9575 
" style="fill: none; stroke: #000000; stroke-width: 0.8; stroke-linejoin: miter; stroke-linecap: square"/>
   </g>
   <g id="patch_6">
    <path d="M 56.0875 289.51 
L 331.2 289.51 
" style="fill: none; stroke: #000000; stroke-width: 0.8; stroke-linejoin: miter; stroke-linecap: square"/>
   </g>
   <g id="patch_7">
    <path d="M 56.0875 25.9575 
L 331.2 25.9575 
" style="fill: none; stroke: #000000; stroke-width: 0.8; stroke-linejoin: miter; stroke-linecap: square"/>
   </g>
   <g id="legend_1">
    <g id="patch_8">
     <path d="M 247.968281 285.01 
L 324.9 285.01 
Q 326.7 285.01 326.7 283.21 
L 326.7 257.689375 
Q 326.7 255.889375 324.9 255.889375 
L 247.968281 255.889375 
Q 246.168281 255.889375 246.168281 257.689375 
L 246.168281 283.21 
Q 246.168281 285.01 247.968281 285.01 
z
" style="fill: #ffffff; opacity: 0.8; stroke: #cccccc; stroke-linejoin: miter"/>
    </g>
    <g id="line2d_23">
     <path d="M 249.768281 263.177969 
L 258.768281 263.177969 
L 267.768281 263.177969 
" style="fill: none; stroke: #008000; stroke-width: 3; stroke-linecap: square"/>
    </g>
    <g id="text_15">
     <!-- Spacecraft -->
     <g transform="translate(274.968281 266.327969) scale(0.09 -0.09)">
      <defs>
       <path id="DejaVuSans-53" d="M 3425 4513 
L 3425 3897 
Q 3066 4069 2747 4153 
Q 2428 4238 2131 4238 
Q 1616 4238 1336 4038 
Q 1056 3838 1056 3469 
Q 1056 3159 1242 3001 
Q 1428 2844 1947 2747 
L 2328 2669 
Q 3034 2534 3370 2195 
Q 3706 1856 3706 1288 
Q 3706 609 3251 259 
Q 2797 -91 1919 -91 
Q 1588 -91 1214 -16 
Q 841 59 441 206 
L 441 856 
Q 825 641 1194 531 
Q 1563 422 1919 422 
Q 2459 422 2753 634 
Q 3047 847 3047 1241 
Q 3047 1584 2836 1778 
Q 2625 1972 2144 2069 
L 1759 2144 
Q 1053 2284 737 2584 
Q 422 2884 422 3419 
Q 422 4038 858 4394 
Q 1294 4750 2059 4750 
Q 2388 4750 2728 4690 
Q 3069 4631 3425 4513 
z
" transform="scale(0.015625)"/>
       <path id="DejaVuSans-70" d="M 1159 525 
L 1159 -1331 
L 581 -1331 
L 581 3500 
L 1159 3500 
L 1159 2969 
Q 1341 3281 1617 3432 
Q 1894 3584 2278 3584 
Q 2916 3584 3314 3078 
Q 3713 2572 3713 1747 
Q 3713 922 3314 415 
Q 2916 -91 2278 -91 
Q 1894 -91 1617 61 
Q 1341 213 1159 525 
z
M 3116 1747 
Q 3116 2381 2855 2742 
Q 2594 3103 2138 3103 
Q 1681 3103 1420 2742 
Q 1159 2381 1159 1747 
Q 1159 1113 1420 752 
Q 1681 391 2138 391 
Q 2594 391 2855 752 
Q 3116 1113 3116 1747 
z
" transform="scale(0.015625)"/>
       <path id="DejaVuSans-61" d="M 2194 1759 
Q 1497 1759 1228 1600 
Q 959 1441 959 1056 
Q 959 750 1161 570 
Q 1363 391 1709 391 
Q 2188 391 2477 730 
Q 2766 1069 2766 1631 
L 2766 1759 
L 2194 1759 
z
M 3341 1997 
L 3341 0 
L 2766 0 
L 2766 531 
Q 2569 213 2275 61 
Q 1981 -91 1556 -91 
Q 1019 -91 701 211 
Q 384 513 384 1019 
Q 384 1609 779 1909 
Q 1175 2209 1959 2209 
L 2766 2209 
L 2766 2266 
Q 2766 2663 2505 2880 
Q 2244 3097 1772 3097 
Q 1472 3097 1187 3025 
Q 903 2953 641 2809 
L 641 3341 
Q 956 3463 1253 3523 
Q 1550 3584 1831 3584 
Q 2591 3584 2966 3190 
Q 3341 2797 3341 1997 
z
" transform="scale(0.015625)"/>
       <path id="DejaVuSans-63" d="M 3122 3366 
L 3122 2828 
Q 2878 2963 2633 3030 
Q 2388 3097 2138 3097 
Q 1578 3097 1268 2742 
Q 959 2388 959 1747 
Q 959 1106 1268 751 
Q 1578 397 2138 397 
Q 2388 397 2633 464 
Q 2878 531 3122 666 
L 3122 134 
Q 2881 22 2623 -34 
Q 2366 -91 2075 -91 
Q 1284 -91 818 406 
Q 353 903 353 1747 
Q 353 2603 823 3093 
Q 1294 3584 2113 3584 
Q 2378 3584 2631 3529 
Q 2884 3475 3122 3366 
z
" transform="scale(0.015625)"/>
       <path id="DejaVuSans-66" d="M 2375 4863 
L 2375 4384 
L 1825 4384 
Q 1516 4384 1395 4259 
Q 1275 4134 1275 3809 
L 1275 3500 
L 2222 3500 
L 2222 3053 
L 1275 3053 
L 1275 0 
L 697 0 
L 697 3053 
L 147 3053 
L 147 3500 
L 697 3500 
L 697 3744 
Q 697 4328 969 4595 
Q 1241 4863 1831 4863 
L 2375 4863 
z
" transform="scale(0.015625)"/>
       <path id="DejaVuSans-74" d="M 1172 4494 
L 1172 3500 
L 2356 3500 
L 2356 3053 
L 1172 3053 
L 1172 1153 
Q 1172 725 1289 603 
Q 1406 481 1766 481 
L 2356 481 
L 2356 0 
L 1766 0 
Q 1100 0 847 248 
Q 594 497 594 1153 
L 594 3053 
L 172 3053 
L 172 3500 
L 594 3500 
L 594 4494 
L 1172 4494 
z
" transform="scale(0.015625)"/>
      </defs>
      <use xlink:href="#DejaVuSans-53"/>
      <use xlink:href="#DejaVuSans-70" transform="translate(63.476562 0)"/>
      <use xlink:href="#DejaVuSans-61" transform="translate(126.953125 0)"/>
      <use xlink:href="#DejaVuSans-63" transform="translate(188.232422 0)"/>
      <use xlink:href="#DejaVuSans-65" transform="translate(243.212891 0)"/>
      <use xlink:href="#DejaVuSans-63" transform="translate(304.736328 0)"/>
      <use xlink:href="#DejaVuSans-72" transform="translate(359.716797 0)"/>
      <use xlink:href="#DejaVuSans-61" transform="translate(400.830078 0)"/>
      <use xlink:href="#DejaVuSans-66" transform="translate(462.109375 0)"/>
      <use xlink:href="#DejaVuSans-74" transform="translate(495.564453 0)"/>
     </g>
    </g>
    <g id="line2d_24">
     <path d="M 249.768281 276.388281 
L 258.768281 276.388281 
L 267.768281 276.388281 
" style="fill: none; stroke: #808080; stroke-width: 3; stroke-linecap: square"/>
    </g>
    <g id="text_16">
     <!-- Moon -->
     <g transform="translate(274.968281 279.538281) scale(0.09 -0.09)">
      <defs>
       <path id="DejaVuSans-4d" d="M 628 4666 
L 1569 4666 
L 2759 1491 
L 3956 4666 
L 4897 4666 
L 4897 0 
L 4281 0 
L 4281 4097 
L 3078 897 
L 2444 897 
L 1241 4097 
L 1241 0 
L 628 0 
L 628 4666 
z
" transform="scale(0.015625)"/>
       <path id="DejaVuSans-6e" d="M 3513 2113 
L 3513 0 
L 2938 0 
L 2938 2094 
Q 2938 2591 2744 2837 
Q 2550 3084 2163 3084 
Q 1697 3084 1428 2787 
Q 1159 2491 1159 1978 
L 1159 0 
L 581 0 
L 581 3500 
L 1159 3500 
L 1159 2956 
Q 1366 3272 1645 3428 
Q 1925 3584 2291 3584 
Q 2894 3584 3203 3211 
Q 3513 2838 3513 2113 
z
" transform="scale(0.015625)"/>
      </defs>
      <use xlink:href="#DejaVuSans-4d"/>
      <use xlink:href="#DejaVuSans-6f" transform="translate(86.279297 0)"/>
      <use xlink:href="#DejaVuSans-6f" transform="translate(147.460938 0)"/>
      <use xlink:href="#DejaVuSans-6e" transform="translate(208.642578 0)"/>
     </g>
    </g>
   </g>
  </g>
 </g>
 <defs>
  <clipPath id="pdeaf9f8de6">
   <rect x="56.0875" y="25.9575" width="275.1125" height="263.5525"/>
  </clipPath>
 </defs>
</svg>
