<?xml version="1.0" encoding="utf-8" standalone="no"?>
<!DOCTYPE svg PUBLIC "-//W3C//DTD SVG 1.1//EN"
  "http://www.w3.org/Graphics/SVG/1.1/DTD/svg11.dtd">
<svg xmlns:xlink="http://www.w3.org/1999/xlink" width="360pt" height="288pt" viewBox="0 0 360 288" xmlns="http://www.w3.org/2000/svg" version="1.1">
 <metadata>
  <rdf:RDF xmlns:dc="http://purl.org/dc/elements/1.1/" xmlns:cc="http://creativecommons.org/ns#" xmlns:rdf="http://www.w3.org/1999/02/22-rdf-syntax-ns#">
   <cc:Work>
    <dc:type rdf:resource="http://purl.org/dc/dcmitype/StillImage"/>
    <dc:date>2026-01-30T01:54:12.348176</dc:date>
    <dc:format>image/svg+xml</dc:format>
    <dc:creator>
     <cc:Agent>
      <dc:title>Matplotlib v3.10.7, https://matplotlib.org/</dc:title>
     </cc:Agent>
    </dc:creator>
   </cc:Work>
  </rdf:RDF>
 </metadata>
 <defs>
  <style type="text/css">*{stroke-linejoin: round; stroke-linecap: butt}</style>
 </defs>
 <g id="figure_1">
  <g id="patch_1">
   <path d="M 0 288 
L 360 288 
L 360 0 
L 0 0 
L 0 288 
z
" style="fill: none"/>
  </g>
  <g id="axes_1">
   <g id="patch_2">
    <path d="M 41.658125 241.036875 
L 349.2 241.036875 
L 349.2 10.8 
L 41.658125 10.8 
L 41.658125 241.036875 
z
" style="fill: none"/>
   </g>
   <g id="matplotlib.axis_1">
    <g id="xtick_1">
     <g id="line2d_1">
      <defs>
       <path id="m4639308cb4" d="M 0 0 
L 0 3.5 
" style="stroke: #000000; stroke-width: 0.8"/>
      </defs>
      <g>
       <use xlink:href="#m4639308cb4" x="55.637301" y="241.036875" style="stroke: #000000; stroke-width: 0.8"/>
      </g>
     </g>
     <g id="text_1">
      <!-- 0 -->
      <g transform="translate(50.547301 260.194375) scale(0.16 -0.16)">
       <defs>
        <path id="DejaVuSans-30" d="M 2034 4250 
Q 1547 4250 1301 3770 
Q 1056 3291 1056 2328 
Q 1056 1369 1301 889 
Q 1547 409 2034 409 
Q 2525 409 2770 889 
Q 3016 1369 3016 2328 
Q 3016 3291 2770 3770 
Q 2525 4250 2034 4250 
z
M 2034 4750 
Q 2819 4750 3233 4129 
Q 3647 3509 3647 2328 
Q 3647 1150 3233 529 
Q 2819 -91 2034 -91 
Q 1250 -91 836 529 
Q 422 1150 422 2328 
Q 422 3509 836 4129 
Q 1250 4750 2034 4750 
z
" transform="scale(0.015625)"/>
       </defs>
       <use xlink:href="#DejaVuSans-30"/>
      </g>
     </g>
    </g>
    <g id="xtick_2">
     <g id="line2d_2">
      <g>
       <use xlink:href="#m4639308cb4" x="158.105149" y="241.036875" style="stroke: #000000; stroke-width: 0.8"/>
      </g>
     </g>
     <g id="text_2">
      <!-- 500 -->
      <g transform="translate(142.835149 260.194375) scale(0.16 -0.16)">
       <defs>
        <path id="DejaVuSans-35" d="M 691 4666 
L 3169 4666 
L 3169 4134 
L 1269 4134 
L 1269 2991 
Q 1406 3038 1543 3061 
Q 1681 3084 1819 3084 
Q 2600 3084 3056 2656 
Q 3513 2228 3513 1497 
Q 3513 744 3044 326 
Q 2575 -91 1722 -91 
Q 1428 -91 1123 -41 
Q 819 9 494 109 
L 494 744 
Q 775 591 1075 516 
Q 1375 441 1709 441 
Q 2250 441 2565 725 
Q 2881 1009 2881 1497 
Q 2881 1984 2565 2268 
Q 2250 2553 1709 2553 
Q 1456 2553 1204 2497 
Q 953 2441 691 2322 
L 691 4666 
z
" transform="scale(0.015625)"/>
       </defs>
       <use xlink:href="#DejaVuSans-35"/>
       <use xlink:href="#DejaVuSans-30" transform="translate(63.623047 0)"/>
       <use xlink:href="#DejaVuSans-30" transform="translate(127.246094 0)"/>
      </g>
     </g>
    </g>
    <g id="xtick_3">
     <g id="line2d_3">
      <g>
       <use xlink:href="#m4639308cb4" x="260.572997" y="241.036875" style="stroke: #000000; stroke-width: 0.8"/>
      </g>
     </g>
     <g id="text_3">
      <!-- 1000 -->
      <g transform="translate(240.212997 260.194375) scale(0.16 -0.16)">
       <defs>
        <path id="DejaVuSans-31" d="M 794 531 
L 1825 531 
L 1825 4091 
L 703 3866 
L 703 4441 
L 1819 4666 
L 2450 4666 
L 2450 531 
L 3481 531 
L 3481 0 
L 794 0 
L 794 531 
z
" transform="scale(0.015625)"/>
       </defs>
       <use xlink:href="#DejaVuSans-31"/>
       <use xlink:href="#DejaVuSans-30" transform="translate(63.623047 0)"/>
       <use xlink:href="#DejaVuSans-30" transform="translate(127.246094 0)"/>
       <use xlink:href="#DejaVuSans-30" transform="translate(190.869141 0)"/>
      </g>
     </g>
    </g>
    <g id="text_4">
     <!-- Time (s) -->
     <g transform="translate(175.100156 275.120313) scale(0.1 -0.1)">
      <defs>
       <path id="DejaVuSans-54" d="M -19 4666 
L 3928 4666 
L 3928 4134 
L 2272 4134 
L 2272 0 
L 1638 0 
L 1638 4134 
L -19 4134 
L -19 4666 
z
" transform="scale(0.015625)"/>
       <path id="DejaVuSans-69" d="M 603 3500 
L 1178 3500 
L 1178 0 
L 603 0 
L 603 3500 
z
M 603 4863 
L 1178 4863 
L 1178 4134 
L 603 4134 
L 603 4863 
z
" transform="scale(0.015625)"/>
       <path id="DejaVuSans-6d" d="M 3328 2828 
Q 3544 3216 3844 3400 
Q 4144 3584 4550 3584 
Q 5097 3584 5394 3201 
Q 5691 2819 5691 2113 
L 5691 0 
L 5113 0 
L 5113 2094 
Q 5113 2597 4934 2840 
Q 4756 3084 4391 3084 
Q 3944 3084 3684 2787 
Q 3425 2491 3425 1978 
L 3425 0 
L 2847 0 
L 2847 2094 
Q 2847 2600 2669 2842 
Q 2491 3084 2119 3084 
Q 1678 3084 1418 2786 
Q 1159 2488 1159 1978 
L 1159 0 
L 581 0 
L 581 3500 
L 1159 3500 
L 1159 2956 
Q 1356 3278 1631 3431 
Q 1906 3584 2284 3584 
Q 2666 3584 2933 3390 
Q 3200 3197 3328 2828 
z
" transform="scale(0.015625)"/>
       <path id="DejaVuSans-65" d="M 3597 1894 
L 3597 1613 
L 953 1613 
Q 991 1019 1311 708 
Q 1631 397 2203 397 
Q 2534 397 2845 478 
Q 3156 559 3463 722 
L 3463 178 
Q 3153 47 2828 -22 
Q 2503 -91 2169 -91 
Q 1331 -91 842 396 
Q 353 884 353 1716 
Q 353 2575 817 3079 
Q 1281 3584 2069 3584 
Q 2775 3584 3186 3129 
Q 3597 2675 3597 1894 
z
M 3022 2063 
Q 3016 2534 2758 2815 
Q 2500 3097 2075 3097 
Q 1594 3097 1305 2825 
Q 1016 2553 972 2059 
L 3022 2063 
z
" transform="scale(0.015625)"/>
       <path id="DejaVuSans-20" transform="scale(0.015625)"/>
       <path id="DejaVuSans-28" d="M 1984 4856 
Q 1566 4138 1362 3434 
Q 1159 2731 1159 2009 
Q 1159 1288 1364 580 
Q 1569 -128 1984 -844 
L 1484 -844 
Q 1016 -109 783 600 
Q 550 1309 550 2009 
Q 550 2706 781 3412 
Q 1013 4119 1484 4856 
L 1984 4856 
z
" transform="scale(0.015625)"/>
       <path id="DejaVuSans-73" d="M 2834 3397 
L 2834 2853 
Q 2591 2978 2328 3040 
Q 2066 3103 1784 3103 
Q 1356 3103 1142 2972 
Q 928 2841 928 2578 
Q 928 2378 1081 2264 
Q 1234 2150 1697 2047 
L 1894 2003 
Q 2506 1872 2764 1633 
Q 3022 1394 3022 966 
Q 3022 478 2636 193 
Q 2250 -91 1575 -91 
Q 1294 -91 989 -36 
Q 684 19 347 128 
L 347 722 
Q 666 556 975 473 
Q 1284 391 1588 391 
Q 1994 391 2212 530 
Q 2431 669 2431 922 
Q 2431 1156 2273 1281 
Q 2116 1406 1581 1522 
L 1381 1569 
Q 847 1681 609 1914 
Q 372 2147 372 2553 
Q 372 3047 722 3315 
Q 1072 3584 1716 3584 
Q 2034 3584 2315 3537 
Q 2597 3491 2834 3397 
z
" transform="scale(0.015625)"/>
       <path id="DejaVuSans-29" d="M 513 4856 
L 1013 4856 
Q 1481 4119 1714 3412 
Q 1947 2706 1947 2009 
Q 1947 1309 1714 600 
Q 1481 -109 1013 -844 
L 513 -844 
Q 928 -128 1133 580 
Q 1338 1288 1338 2009 
Q 1338 2731 1133 3434 
Q 928 4138 513 4856 
z
" transform="scale(0.015625)"/>
      </defs>
      <use xlink:href="#DejaVuSans-54"/>
      <use xlink:href="#DejaVuSans-69" transform="translate(57.958984 0)"/>
      <use xlink:href="#DejaVuSans-6d" transform="translate(85.742188 0)"/>
      <use xlink:href="#DejaVuSans-65" transform="translate(183.154297 0)"/>
      <use xlink:href="#DejaVuSans-20" transform="translate(244.677734 0)"/>
      <use xlink:href="#DejaVuSans-28" transform="translate(276.464844 0)"/>
      <use xlink:href="#DejaVuSans-73" transform="translate(315.478516 0)"/>
      <use xlink:href="#DejaVuSans-29" transform="translate(367.578125 0)"/>
     </g>
    </g>
   </g>
   <g id="matplotlib.axis_2">
    <g id="ytick_1">
     <g id="line2d_4">
      <defs>
       <path id="m4bbbf48265" d="M 0 0 
L -3.5 0 
" style="stroke: #000000; stroke-width: 0.8"/>
      </defs>
      <g>
       <use xlink:href="#m4bbbf48265" x="41.658125" y="197.625744" style="stroke: #000000; stroke-width: 0.8"/>
      </g>
     </g>
     <g id="text_5">
      <!-- 0 -->
      <g transform="translate(24.478125 203.704494) scale(0.16 -0.16)">
       <use xlink:href="#DejaVuSans-30"/>
      </g>
     </g>
    </g>
    <g id="ytick_2">
     <g id="line2d_5">
      <g>
       <use xlink:href="#m4bbbf48265" x="41.658125" y="133.469307" style="stroke: #000000; stroke-width: 0.8"/>
      </g>
     </g>
     <g id="text_6">
      <!-- 1 -->
      <g transform="translate(24.478125 139.548057) scale(0.16 -0.16)">
       <use xlink:href="#DejaVuSans-31"/>
      </g>
     </g>
    </g>
    <g id="ytick_3">
     <g id="line2d_6">
      <g>
       <use xlink:href="#m4bbbf48265" x="41.658125" y="69.312869" style="stroke: #000000; stroke-width: 0.8"/>
      </g>
     </g>
     <g id="text_7">
      <!-- 2 -->
      <g transform="translate(24.478125 75.391619) scale(0.16 -0.16)">
       <defs>
        <path id="DejaVuSans-32" d="M 1228 531 
L 3431 531 
L 3431 0 
L 469 0 
L 469 531 
Q 828 903 1448 1529 
Q 2069 2156 2228 2338 
Q 2531 2678 2651 2914 
Q 2772 3150 2772 3378 
Q 2772 3750 2511 3984 
Q 2250 4219 1831 4219 
Q 1534 4219 1204 4116 
Q 875 4013 500 3803 
L 500 4441 
Q 881 4594 1212 4672 
Q 1544 4750 1819 4750 
Q 2544 4750 2975 4387 
Q 3406 4025 3406 3419 
Q 3406 3131 3298 2873 
Q 3191 2616 2906 2266 
Q 2828 2175 2409 1742 
Q 1991 1309 1228 531 
z
" transform="scale(0.015625)"/>
       </defs>
       <use xlink:href="#DejaVuSans-32"/>
      </g>
     </g>
    </g>
    <g id="text_8">
     <!-- Displacement (m) -->
     <g transform="translate(18.398438 170.652031) rotate(-90) scale(0.1 -0.1)">
      <defs>
       <path id="DejaVuSans-44" d="M 1259 4147 
L 1259 519 
L 2022 519 
Q 2988 519 3436 956 
Q 3884 1394 3884 2338 
Q 3884 3275 3436 3711 
Q 2988 4147 2022 4147 
L 1259 4147 
z
M 628 4666 
L 1925 4666 
Q 3281 4666 3915 4102 
Q 4550 3538 4550 2338 
Q 4550 1131 3912 565 
Q 3275 0 1925 0 
L 628 0 
L 628 4666 
z
" transform="scale(0.015625)"/>
       <path id="DejaVuSans-70" d="M 1159 525 
L 1159 -1331 
L 581 -1331 
L 581 3500 
L 1159 3500 
L 1159 2969 
Q 1341 3281 1617 3432 
Q 1894 3584 2278 3584 
Q 2916 3584 3314 3078 
Q 3713 2572 3713 1747 
Q 3713 922 3314 415 
Q 2916 -91 2278 -91 
Q 1894 -91 1617 61 
Q 1341 213 1159 525 
z
M 3116 1747 
Q 3116 2381 2855 2742 
Q 2594 3103 2138 3103 
Q 1681 3103 1420 2742 
Q 1159 2381 1159 1747 
Q 1159 1113 1420 752 
Q 1681 391 2138 391 
Q 2594 391 2855 752 
Q 3116 1113 3116 1747 
z
" transform="scale(0.015625)"/>
       <path id="DejaVuSans-6c" d="M 603 4863 
L 1178 4863 
L 1178 0 
L 603 0 
L 603 4863 
z
" transform="scale(0.015625)"/>
       <path id="DejaVuSans-61" d="M 2194 1759 
Q 1497 1759 1228 1600 
Q 959 1441 959 1056 
Q 959 750 1161 570 
Q 1363 391 1709 391 
Q 2188 391 2477 730 
Q 2766 1069 2766 1631 
L 2766 1759 
L 2194 1759 
z
M 3341 1997 
L 3341 0 
L 2766 0 
L 2766 531 
Q 2569 213 2275 61 
Q 1981 -91 1556 -91 
Q 1019 -91 701 211 
Q 384 513 384 1019 
Q 384 1609 779 1909 
Q 1175 2209 1959 2209 
L 2766 2209 
L 2766 2266 
Q 2766 2663 2505 2880 
Q 2244 3097 1772 3097 
Q 1472 3097 1187 3025 
Q 903 2953 641 2809 
L 641 3341 
Q 956 3463 1253 3523 
Q 1550 3584 1831 3584 
Q 2591 3584 2966 3190 
Q 3341 2797 3341 1997 
z
" transform="scale(0.015625)"/>
       <path id="DejaVuSans-63" d="M 3122 3366 
L 3122 2828 
Q 2878 2963 2633 3030 
Q 2388 3097 2138 3097 
Q 1578 3097 1268 2742 
Q 959 2388 959 1747 
Q 959 1106 1268 751 
Q 1578 397 2138 397 
Q 2388 397 2633 464 
Q 2878 531 3122 666 
L 3122 134 
Q 2881 22 2623 -34 
Q 2366 -91 2075 -91 
Q 1284 -91 818 406 
Q 353 903 353 1747 
Q 353 2603 823 3093 
Q 1294 3584 2113 3584 
Q 2378 3584 2631 3529 
Q 2884 3475 3122 3366 
z
" transform="scale(0.015625)"/>
       <path id="DejaVuSans-6e" d="M 3513 2113 
L 3513 0 
L 2938 0 
L 2938 2094 
Q 2938 2591 2744 2837 
Q 2550 3084 2163 3084 
Q 1697 3084 1428 2787 
Q 1159 2491 1159 1978 
L 1159 0 
L 581 0 
L 581 3500 
L 1159 3500 
L 1159 2956 
Q 1366 3272 1645 3428 
Q 1925 3584 2291 3584 
Q 2894 3584 3203 3211 
Q 3513 2838 3513 2113 
z
" transform="scale(0.015625)"/>
       <path id="DejaVuSans-74" d="M 1172 4494 
L 1172 3500 
L 2356 3500 
L 2356 3053 
L 1172 3053 
L 1172 1153 
Q 1172 725 1289 603 
Q 1406 481 1766 481 
L 2356 481 
L 2356 0 
L 1766 0 
Q 1100 0 847 248 
Q 594 497 594 1153 
L 594 3053 
L 172 3053 
L 172 3500 
L 594 3500 
L 594 4494 
L 1172 4494 
z
" transform="scale(0.015625)"/>
      </defs>
      <use xlink:href="#DejaVuSans-44"/>
      <use xlink:href="#DejaVuSans-69" transform="translate(77.001953 0)"/>
      <use xlink:href="#DejaVuSans-73" transform="translate(104.785156 0)"/>
      <use xlink:href="#DejaVuSans-70" transform="translate(156.884766 0)"/>
      <use xlink:href="#DejaVuSans-6c" transform="translate(220.361328 0)"/>
      <use xlink:href="#DejaVuSans-61" transform="translate(248.144531 0)"/>
      <use xlink:href="#DejaVuSans-63" transform="translate(309.423828 0)"/>
      <use xlink:href="#DejaVuSans-65" transform="translate(364.404297 0)"/>
      <use xlink:href="#DejaVuSans-6d" transform="translate(425.927734 0)"/>
      <use xlink:href="#DejaVuSans-65" transform="translate(523.339844 0)"/>
      <use xlink:href="#DejaVuSans-6e" transform="translate(584.863281 0)"/>
      <use xlink:href="#DejaVuSans-74" transform="translate(648.242188 0)"/>
      <use xlink:href="#DejaVuSans-20" transform="translate(687.451172 0)"/>
      <use xlink:href="#DejaVuSans-28" transform="translate(719.238281 0)"/>
      <use xlink:href="#DejaVuSans-6d" transform="translate(758.251953 0)"/>
      <use xlink:href="#DejaVuSans-29" transform="translate(855.664062 0)"/>
     </g>
    </g>
   </g>
   <g id="line2d_7">
    <path d="M 55.637301 194.417922 
L 55.791003 194.333049 
L 56.098406 193.668785 
L 56.40581 192.369503 
L 56.866915 189.261002 
L 57.481722 182.947158 
L 58.096529 174.129932 
L 58.865038 159.888542 
L 60.248354 128.919175 
L 62.400179 81.310536 
L 63.629793 58.977188 
L 64.705706 43.442366 
L 65.627916 33.353851 
L 66.396425 27.281143 
L 67.011232 23.949614 
L 67.472338 22.329957 
L 67.933443 21.449632 
L 68.240846 21.265313 
L 68.54825 21.396266 
L 68.855654 21.835911 
L 69.316759 23.058153 
L 69.777864 24.931394 
L 70.392671 28.389115 
L 71.16118 34.140599 
L 72.083391 42.904389 
L 73.313005 57.173049 
L 75.003724 79.930789 
L 77.462953 113.000368 
L 78.385163 122.7349 
L 79.153672 128.538135 
L 79.614778 130.73177 
L 79.922181 131.588916 
L 80.229585 131.935552 
L 80.383286 131.913212 
L 80.69069 131.474349 
L 80.998093 130.513877 
L 81.459199 128.128655 
L 82.074006 123.334287 
L 82.842515 115.205503 
L 83.918427 101.192703 
L 87.146164 57.539665 
L 88.222077 46.321078 
L 89.144287 38.827268 
L 89.912796 34.201755 
L 90.527603 31.590356 
L 91.14241 29.948039 
L 91.603516 29.344066 
L 91.910919 29.234624 
L 92.218323 29.354942 
L 92.525726 29.700076 
L 92.986832 30.626786 
L 93.601639 32.591047 
L 94.216446 35.331908 
L 94.984955 39.742313 
L 96.060867 47.46763 
L 97.444183 59.310247 
L 100.979324 90.71262 
L 102.055236 97.853311 
L 102.823745 101.600009 
L 103.438552 103.658295 
L 103.899657 104.62115 
L 104.360763 105.077549 
L 104.668166 105.102308 
L 104.97557 104.908058 
L 105.436675 104.220566 
L 105.89778 103.085048 
L 106.512588 100.94207 
L 107.281096 97.411009 
L 108.357009 91.320784 
L 112.353255 67.329956 
L 113.429167 62.740611 
L 114.197676 60.284846 
L 114.966185 58.566228 
L 115.580992 57.734289 
L 116.042097 57.426297 
L 116.503203 57.384579 
L 116.964308 57.602132 
L 117.425413 58.06944 
L 118.04022 59.060188 
L 118.808729 60.84033 
L 119.73094 63.662978 
L 120.960554 68.317175 
L 123.266081 78.286107 
L 124.9568 85.064895 
L 126.032713 88.516117 
L 126.954923 90.718746 
L 127.723432 91.94524 
L 128.338239 92.507166 
L 128.799344 92.682998 
L 129.26045 92.652669 
L 129.721555 92.423904 
L 130.336362 91.829564 
L 131.104871 90.670565 
L 132.027082 88.779067 
L 133.256696 85.676926 
L 136.638135 76.770225 
L 137.714047 74.626322 
L 138.636258 73.253922 
L 139.404767 72.474962 
L 140.173276 72.040664 
L 140.788083 71.941072 
L 141.40289 72.055593 
L 142.017697 72.37374 
L 142.786206 73.035229 
L 143.708416 74.166896 
L 144.784329 75.854729 
L 146.475048 78.975725 
L 148.780575 83.199874 
L 150.010189 85.007793 
L 150.9324 86.03019 
L 151.85461 86.719036 
L 152.623119 87.02361 
L 153.391628 87.083328 
L 154.160137 86.909181 
L 154.928646 86.521532 
L 155.850856 85.814825 
L 157.08047 84.563545 
L 159.693401 81.437457 
L 161.230418 79.787615 
L 162.460032 78.775884 
L 163.535945 78.183427 
L 164.458156 77.914577 
L 165.380366 77.86896 
L 166.302577 78.036494 
L 167.378489 78.472934 
L 168.608103 79.228513 
L 170.452525 80.675257 
L 173.219156 82.846831 
L 174.602472 83.636729 
L 175.832087 84.067109 
L 176.907999 84.207451 
L 177.983911 84.12574 
L 179.213526 83.782312 
L 180.596842 83.136335 
L 182.594965 81.910558 
L 185.515298 80.118319 
L 187.052316 79.437663 
L 188.435632 79.070065 
L 189.665246 78.956276 
L 191.048562 79.059475 
L 192.58558 79.419037 
L 194.583703 80.145484 
L 198.733651 81.734074 
L 200.42437 82.124009 
L 202.11509 82.280549 
L 203.805809 82.209807 
L 205.803932 81.899187 
L 212.413108 80.675485 
L 214.564933 80.628742 
L 216.87046 80.811134 
L 225.016654 81.694083 
L 227.475882 81.584016 
L 230.703619 81.19208 
L 235.16097 80.66241 
L 237.773901 80.584133 
L 240.540532 80.737835 
L 244.536779 81.227684 
L 248.99413 81.719709 
L 252.221867 81.84252 
L 256.064411 81.750642 
L 265.44022 81.443636 
L 287.419573 81.430185 
L 299.715715 81.950307 
L 305.248978 81.839191 
L 319.389541 81.446544 
L 326.306121 81.551366 
L 335.220824 81.880027 
L 335.220824 81.880027 
" clip-path="url(#p32ea5e0a7c)" style="fill: none; stroke: #1f77b4; stroke-width: 1.5; stroke-linecap: square"/>
   </g>
   <g id="line2d_8">
    <path d="M 55.637301 199.229655 
L 56.559512 199.125396 
L 57.328021 199.040628 
L 57.789126 199.257824 
L 58.250231 199.874763 
L 58.711337 200.969623 
L 59.326144 203.099936 
L 60.402056 207.907334 
L 62.707583 218.470174 
L 63.937197 223.051906 
L 65.013109 226.212094 
L 65.93532 228.243848 
L 66.703829 229.450351 
L 67.472338 230.21713 
L 68.087145 230.520284 
L 68.701952 230.555892 
L 69.316759 230.333926 
L 69.931566 229.866359 
L 70.700075 228.957695 
L 71.622285 227.43265 
L 72.698198 225.130576 
L 73.927812 221.943589 
L 75.772233 216.457905 
L 78.231462 209.169618 
L 79.461076 206.180549 
L 80.998093 203.077155 
L 82.688813 199.58391 
L 84.686936 194.804581 
L 86.992463 189.388202 
L 88.375779 186.666369 
L 89.605393 184.726219 
L 90.681305 183.43892 
L 91.603516 182.650313 
L 92.525726 182.150877 
L 93.447937 181.932191 
L 94.370148 181.980078 
L 95.292358 182.275495 
L 96.214569 182.795334 
L 97.290481 183.650029 
L 98.673797 185.06943 
L 100.518218 187.346775 
L 105.129272 193.228237 
L 106.666289 194.757803 
L 108.203307 195.967003 
L 109.740325 196.870372 
L 111.277342 197.495872 
L 112.81436 197.871438 
L 114.351378 198.024524 
L 116.042097 197.970458 
L 117.886519 197.691643 
L 120.038343 197.141216 
L 122.651274 196.232551 
L 125.725309 194.919022 
L 130.951169 192.630882 
L 132.795591 192.112381 
L 134.332608 191.894922 
L 135.869626 191.890849 
L 137.560345 192.124571 
L 139.404767 192.625085 
L 141.710293 193.511569 
L 146.62875 195.747975 
L 150.471294 197.341916 
L 155.389751 199.112525 
L 160.308208 200.680452 
L 163.382243 201.433298 
L 166.148875 201.876421 
L 168.915507 202.081772 
L 171.835841 202.071674 
L 175.21728 201.830669 
L 178.75242 201.350447 
L 182.133859 200.669334 
L 186.283807 199.587728 
L 195.19851 197.194592 
L 200.731774 196.020717 
L 207.648353 194.770644 
L 211.798301 194.233365 
L 215.17974 194.019368 
L 218.407477 194.041609 
L 221.635215 194.28534 
L 225.170355 194.779707 
L 229.166601 195.567183 
L 235.007269 196.972576 
L 244.075673 199.139162 
L 249.455235 200.182543 
L 253.605183 200.771649 
L 257.140324 201.053325 
L 260.368061 201.089434 
L 263.595798 200.900831 
L 266.977237 200.481451 
L 271.127185 199.728505 
L 277.428958 198.324028 
L 287.419573 196.120248 
L 292.799135 195.167755 
L 296.949083 194.650848 
L 300.484223 194.425521 
L 303.865662 194.432918 
L 307.247101 194.66719 
L 310.935944 195.155022 
L 315.393295 195.979538 
L 326.306121 198.330503 
L 332.761596 199.556909 
L 335.220824 199.940301 
L 335.220824 199.940301 
" clip-path="url(#p32ea5e0a7c)" style="fill: none; stroke: #ff7f0e; stroke-width: 1.5; stroke-linecap: square"/>
   </g>
   <g id="line2d_9">
    <path d="M 55.637301 198.588091 
L 55.791003 198.522943 
L 56.098406 197.983619 
L 56.40581 196.848756 
L 56.866915 193.867192 
L 57.328021 189.115653 
L 57.942828 179.741707 
L 58.711337 163.583001 
L 60.248354 124.355658 
L 61.939074 83.51364 
L 63.168688 59.424085 
L 64.090899 45.191719 
L 65.013109 34.444544 
L 65.781618 28.18358 
L 66.396425 24.921607 
L 66.85753 23.47375 
L 67.164934 22.973735 
L 67.472338 22.838118 
L 67.779741 23.059335 
L 68.087145 23.629076 
L 68.54825 25.117247 
L 69.163057 28.231556 
L 69.777864 32.556739 
L 70.546373 39.518634 
L 71.468584 49.881155 
L 72.698198 66.466109 
L 74.388917 92.721371 
L 77.924058 148.49336 
L 79.153672 164.199485 
L 80.229585 175.284143 
L 81.305497 183.96373 
L 82.381409 190.749825 
L 83.611024 196.969519 
L 84.99434 202.739143 
L 86.377655 207.549558 
L 87.60727 211.073578 
L 88.683182 213.56185 
L 89.759094 215.479695 
L 90.681305 216.666837 
L 91.449814 217.338663 
L 92.218323 217.730618 
L 92.986832 217.855146 
L 93.755341 217.728585 
L 94.523849 217.370952 
L 95.44606 216.670033 
L 96.521972 215.53704 
L 97.905288 213.711905 
L 103.745956 205.514836 
L 108.203307 200.184138 
L 110.20143 197.264915 
L 116.964308 187.019284 
L 118.808729 184.822832 
L 120.499449 183.140093 
L 122.34387 181.613911 
L 125.417905 179.433725 
L 127.723432 177.676925 
L 129.721555 175.851209 
L 132.641889 172.804236 
L 134.793714 170.695163 
L 136.330731 169.504617 
L 137.560345 168.825335 
L 138.636258 168.456991 
L 139.71217 168.306294 
L 140.788083 168.366829 
L 142.017697 168.671609 
L 143.401013 169.264123 
L 145.245434 170.331704 
L 149.24168 172.73991 
L 150.778698 173.352133 
L 152.008312 173.623447 
L 153.237926 173.679633 
L 154.46754 173.52111 
L 155.850856 173.109203 
L 157.541576 172.338927 
L 160.000804 170.925385 
L 163.228541 169.105739 
L 165.072963 168.309521 
L 166.763682 167.804034 
L 168.454402 167.521509 
L 170.298823 167.444416 
L 172.450648 167.595206 
L 175.21728 168.03255 
L 179.367227 168.936863 
L 183.209772 169.9887 
L 186.591211 171.146809 
L 193.968896 173.794035 
L 195.967019 174.221741 
L 197.81144 174.398061 
L 199.502159 174.351054 
L 201.346581 174.068623 
L 203.344704 173.515672 
L 205.803932 172.571105 
L 212.720512 169.737732 
L 214.872337 169.197515 
L 216.87046 168.935583 
L 218.868583 168.908942 
L 221.020407 169.119614 
L 223.479636 169.603373 
L 226.861075 170.529872 
L 233.470251 172.386308 
L 236.236883 172.904355 
L 238.696111 173.140057 
L 241.001638 173.135332 
L 243.307164 172.899208 
L 245.612691 172.440603 
L 248.379323 171.646381 
L 253.144078 169.978235 
L 256.371815 168.965917 
L 258.831043 168.428856 
L 260.982868 168.186905 
L 263.134693 168.177442 
L 265.286518 168.391265 
L 267.745746 168.864804 
L 271.127185 169.769041 
L 276.660449 171.264009 
L 279.273379 171.732129 
L 281.732607 171.942681 
L 284.038134 171.913756 
L 286.34366 171.667931 
L 288.956591 171.158958 
L 292.33803 170.246445 
L 298.947206 168.407239 
L 301.560136 167.949804 
L 303.865662 167.763945 
L 306.171189 167.800312 
L 308.630417 168.071578 
L 311.397049 168.607788 
L 316.315506 169.845237 
L 320.004348 170.664798 
L 322.617279 171.03219 
L 325.076507 171.156858 
L 327.535735 171.049042 
L 330.148665 170.694012 
L 333.222701 170.027369 
L 335.220824 169.507514 
L 335.220824 169.507514 
" clip-path="url(#p32ea5e0a7c)" style="fill: none; stroke: #2ca02c; stroke-width: 1.5; stroke-linecap: square"/>
   </g>
   <g id="patch_3">
    <path d="M 41.658125 241.036875 
L 41.658125 10.8 
" style="fill: none; stroke: #000000; stroke-width: 0.8; stroke-linejoin: miter; stroke-linecap: square"/>
   </g>
   <g id="patch_4">
    <path d="M 349.2 241.036875 
L 349.2 10.8 
" style="fill: none; stroke: #000000; stroke-width: 0.8; stroke-linejoin: miter; stroke-linecap: square"/>
   </g>
   <g id="patch_5">
    <path d="M 41.658125 241.036875 
L 349.2 241.036875 
" style="fill: none; stroke: #000000; stroke-width: 0.8; stroke-linejoin: miter; stroke-linecap: square"/>
   </g>
   <g id="patch_6">
    <path d="M 41.658125 10.8 
L 349.2 10.8 
" style="fill: none; stroke: #000000; stroke-width: 0.8; stroke-linejoin: miter; stroke-linecap: square"/>
   </g>
   <g id="legend_1">
    <g id="patch_7">
     <path d="M 272.26125 236.536875 
L 342.9 236.536875 
Q 344.7 236.536875 344.7 234.736875 
L 344.7 196.005938 
Q 344.7 194.205938 342.9 194.205938 
L 272.26125 194.205938 
Q 270.46125 194.205938 270.46125 196.005938 
L 270.46125 234.736875 
Q 270.46125 236.536875 272.26125 236.536875 
z
" style="fill: #ffffff; opacity: 0.8; stroke: #cccccc; stroke-linejoin: miter"/>
    </g>
    <g id="line2d_10">
     <path d="M 274.06125 201.494531 
L 283.06125 201.494531 
L 292.06125 201.494531 
" style="fill: none; stroke: #1f77b4; stroke-width: 1.5; stroke-linecap: square"/>
    </g>
    <g id="text_9">
     <!-- Particle 1 -->
     <g transform="translate(299.26125 204.644531) scale(0.09 -0.09)">
      <defs>
       <path id="DejaVuSans-50" d="M 1259 4147 
L 1259 2394 
L 2053 2394 
Q 2494 2394 2734 2622 
Q 2975 2850 2975 3272 
Q 2975 3691 2734 3919 
Q 2494 4147 2053 4147 
L 1259 4147 
z
M 628 4666 
L 2053 4666 
Q 2838 4666 3239 4311 
Q 3641 3956 3641 3272 
Q 3641 2581 3239 2228 
Q 2838 1875 2053 1875 
L 1259 1875 
L 1259 0 
L 628 0 
L 628 4666 
z
" transform="scale(0.015625)"/>
       <path id="DejaVuSans-72" d="M 2631 2963 
Q 2534 3019 2420 3045 
Q 2306 3072 2169 3072 
Q 1681 3072 1420 2755 
Q 1159 2438 1159 1844 
L 1159 0 
L 581 0 
L 581 3500 
L 1159 3500 
L 1159 2956 
Q 1341 3275 1631 3429 
Q 1922 3584 2338 3584 
Q 2397 3584 2469 3576 
Q 2541 3569 2628 3553 
L 2631 2963 
z
" transform="scale(0.015625)"/>
      </defs>
      <use xlink:href="#DejaVuSans-50"/>
      <use xlink:href="#DejaVuSans-61" transform="translate(55.802734 0)"/>
      <use xlink:href="#DejaVuSans-72" transform="translate(117.082031 0)"/>
      <use xlink:href="#DejaVuSans-74" transform="translate(158.195312 0)"/>
      <use xlink:href="#DejaVuSans-69" transform="translate(197.404297 0)"/>
      <use xlink:href="#DejaVuSans-63" transform="translate(225.1875 0)"/>
      <use xlink:href="#DejaVuSans-6c" transform="translate(280.167969 0)"/>
      <use xlink:href="#DejaVuSans-65" transform="translate(307.951172 0)"/>
      <use xlink:href="#DejaVuSans-20" transform="translate(369.474609 0)"/>
      <use xlink:href="#DejaVuSans-31" transform="translate(401.261719 0)"/>
     </g>
    </g>
    <g id="line2d_11">
     <path d="M 274.06125 214.704844 
L 283.06125 214.704844 
L 292.06125 214.704844 
" style="fill: none; stroke: #ff7f0e; stroke-width: 1.5; stroke-linecap: square"/>
    </g>
    <g id="text_10">
     <!-- Particle 2 -->
     <g transform="translate(299.26125 217.854844) scale(0.09 -0.09)">
      <use xlink:href="#DejaVuSans-50"/>
      <use xlink:href="#DejaVuSans-61" transform="translate(55.802734 0)"/>
      <use xlink:href="#DejaVuSans-72" transform="translate(117.082031 0)"/>
      <use xlink:href="#DejaVuSans-74" transform="translate(158.195312 0)"/>
      <use xlink:href="#DejaVuSans-69" transform="translate(197.404297 0)"/>
      <use xlink:href="#DejaVuSans-63" transform="translate(225.1875 0)"/>
      <use xlink:href="#DejaVuSans-6c" transform="translate(280.167969 0)"/>
      <use xlink:href="#DejaVuSans-65" transform="translate(307.951172 0)"/>
      <use xlink:href="#DejaVuSans-20" transform="translate(369.474609 0)"/>
      <use xlink:href="#DejaVuSans-32" transform="translate(401.261719 0)"/>
     </g>
    </g>
    <g id="line2d_12">
     <path d="M 274.06125 227.915156 
L 283.06125 227.915156 
L 292.06125 227.915156 
" style="fill: none; stroke: #2ca02c; stroke-width: 1.5; stroke-linecap: square"/>
    </g>
    <g id="text_11">
     <!-- Particle 3 -->
     <g transform="translate(299.26125 231.065156) scale(0.09 -0.09)">
      <defs>
       <path id="DejaVuSans-33" d="M 2597 2516 
Q 3050 2419 3304 2112 
Q 3559 1806 3559 1356 
Q 3559 666 3084 287 
Q 2609 -91 1734 -91 
Q 1441 -91 1130 -33 
Q 819 25 488 141 
L 488 750 
Q 750 597 1062 519 
Q 1375 441 1716 441 
Q 2309 441 2620 675 
Q 2931 909 2931 1356 
Q 2931 1769 2642 2001 
Q 2353 2234 1838 2234 
L 1294 2234 
L 1294 2753 
L 1863 2753 
Q 2328 2753 2575 2939 
Q 2822 3125 2822 3475 
Q 2822 3834 2567 4026 
Q 2313 4219 1838 4219 
Q 1578 4219 1281 4162 
Q 984 4106 628 3988 
L 628 4550 
Q 988 4650 1302 4700 
Q 1616 4750 1894 4750 
Q 2613 4750 3031 4423 
Q 3450 4097 3450 3541 
Q 3450 3153 3228 2886 
Q 3006 2619 2597 2516 
z
" transform="scale(0.015625)"/>
      </defs>
      <use xlink:href="#DejaVuSans-50"/>
      <use xlink:href="#DejaVuSans-61" transform="translate(55.802734 0)"/>
      <use xlink:href="#DejaVuSans-72" transform="translate(117.082031 0)"/>
      <use xlink:href="#DejaVuSans-74" transform="translate(158.195312 0)"/>
      <use xlink:href="#DejaVuSans-69" transform="translate(197.404297 0)"/>
      <use xlink:href="#DejaVuSans-63" transform="translate(225.1875 0)"/>
      <use xlink:href="#DejaVuSans-6c" transform="translate(280.167969 0)"/>
      <use xlink:href="#DejaVuSans-65" transform="translate(307.951172 0)"/>
      <use xlink:href="#DejaVuSans-20" transform="translate(369.474609 0)"/>
      <use xlink:href="#DejaVuSans-33" transform="translate(401.261719 0)"/>
     </g>
    </g>
   </g>
  </g>
 </g>
 <defs>
  <clipPath id="p32ea5e0a7c">
   <rect x="41.658125" y="10.8" width="307.541875" height="230.236875"/>
  </clipPath>
 </defs>
</svg>
