<?xml version="1.0" encoding="utf-8" standalone="no"?>
<!DOCTYPE svg PUBLIC "-//W3C//DTD SVG 1.1//EN"
  "http://www.w3.org/Graphics/SVG/1.1/DTD/svg11.dtd">
<svg xmlns:xlink="http://www.w3.org/1999/xlink" width="414pt" height="288pt" viewBox="0 0 414 288" xmlns="http://www.w3.org/2000/svg" version="1.1">
 <metadata>
  <rdf:RDF xmlns:dc="http://purl.org/dc/elements/1.1/" xmlns:cc="http://creativecommons.org/ns#" xmlns:rdf="http://www.w3.org/1999/02/22-rdf-syntax-ns#">
   <cc:Work>
    <dc:type rdf:resource="http://purl.org/dc/dcmitype/StillImage"/>
    <dc:date>2024-10-14T15:09:16.477532</dc:date>
    <dc:format>image/svg+xml</dc:format>
    <dc:creator>
     <cc:Agent>
      <dc:title>Matplotlib v3.9.2, https://matplotlib.org/</dc:title>
     </cc:Agent>
    </dc:creator>
   </cc:Work>
  </rdf:RDF>
 </metadata>
 <defs>
  <style type="text/css">*{stroke-linejoin: round; stroke-linecap: butt}</style>
 </defs>
 <g id="figure_1">
  <g id="patch_1">
   <path d="M 0 288 
L 414 288 
L 414 0 
L 0 0 
L 0 288 
z
" style="fill: none"/>
  </g>
  <g id="axes_1">
   <g id="patch_2">
    <path d="M 67.103125 241.036875 
L 403.2 241.036875 
L 403.2 10.8 
L 67.103125 10.8 
L 67.103125 241.036875 
z
" style="fill: none"/>
   </g>
   <g id="matplotlib.axis_1">
    <g id="xtick_1">
     <g id="line2d_1">
      <defs>
       <path id="m551b62b599" d="M 0 0 
L 0 3.5 
" style="stroke: #000000; stroke-width: 0.8"/>
      </defs>
      <g>
       <use xlink:href="#m551b62b599" x="82.36328" y="241.036875" style="stroke: #000000; stroke-width: 0.8"/>
      </g>
     </g>
     <g id="text_1">
      <!-- 0 -->
      <g transform="translate(77.27328 260.194375) scale(0.16 -0.16)">
       <defs>
        <path id="DejaVuSans-30" d="M 2034 4250 
Q 1547 4250 1301 3770 
Q 1056 3291 1056 2328 
Q 1056 1369 1301 889 
Q 1547 409 2034 409 
Q 2525 409 2770 889 
Q 3016 1369 3016 2328 
Q 3016 3291 2770 3770 
Q 2525 4250 2034 4250 
z
M 2034 4750 
Q 2819 4750 3233 4129 
Q 3647 3509 3647 2328 
Q 3647 1150 3233 529 
Q 2819 -91 2034 -91 
Q 1250 -91 836 529 
Q 422 1150 422 2328 
Q 422 3509 836 4129 
Q 1250 4750 2034 4750 
z
" transform="scale(0.015625)"/>
       </defs>
       <use xlink:href="#DejaVuSans-30"/>
      </g>
     </g>
    </g>
    <g id="xtick_2">
     <g id="line2d_2">
      <g>
       <use xlink:href="#m551b62b599" x="133.289878" y="241.036875" style="stroke: #000000; stroke-width: 0.8"/>
      </g>
     </g>
     <g id="text_2">
      <!-- 5 -->
      <g transform="translate(128.199878 260.194375) scale(0.16 -0.16)">
       <defs>
        <path id="DejaVuSans-35" d="M 691 4666 
L 3169 4666 
L 3169 4134 
L 1269 4134 
L 1269 2991 
Q 1406 3038 1543 3061 
Q 1681 3084 1819 3084 
Q 2600 3084 3056 2656 
Q 3513 2228 3513 1497 
Q 3513 744 3044 326 
Q 2575 -91 1722 -91 
Q 1428 -91 1123 -41 
Q 819 9 494 109 
L 494 744 
Q 775 591 1075 516 
Q 1375 441 1709 441 
Q 2250 441 2565 725 
Q 2881 1009 2881 1497 
Q 2881 1984 2565 2268 
Q 2250 2553 1709 2553 
Q 1456 2553 1204 2497 
Q 953 2441 691 2322 
L 691 4666 
z
" transform="scale(0.015625)"/>
       </defs>
       <use xlink:href="#DejaVuSans-35"/>
      </g>
     </g>
    </g>
    <g id="xtick_3">
     <g id="line2d_3">
      <g>
       <use xlink:href="#m551b62b599" x="184.216477" y="241.036875" style="stroke: #000000; stroke-width: 0.8"/>
      </g>
     </g>
     <g id="text_3">
      <!-- 10 -->
      <g transform="translate(174.036477 260.194375) scale(0.16 -0.16)">
       <defs>
        <path id="DejaVuSans-31" d="M 794 531 
L 1825 531 
L 1825 4091 
L 703 3866 
L 703 4441 
L 1819 4666 
L 2450 4666 
L 2450 531 
L 3481 531 
L 3481 0 
L 794 0 
L 794 531 
z
" transform="scale(0.015625)"/>
       </defs>
       <use xlink:href="#DejaVuSans-31"/>
       <use xlink:href="#DejaVuSans-30" x="63.623047"/>
      </g>
     </g>
    </g>
    <g id="xtick_4">
     <g id="line2d_4">
      <g>
       <use xlink:href="#m551b62b599" x="235.143075" y="241.036875" style="stroke: #000000; stroke-width: 0.8"/>
      </g>
     </g>
     <g id="text_4">
      <!-- 15 -->
      <g transform="translate(224.963075 260.194375) scale(0.16 -0.16)">
       <use xlink:href="#DejaVuSans-31"/>
       <use xlink:href="#DejaVuSans-35" x="63.623047"/>
      </g>
     </g>
    </g>
    <g id="xtick_5">
     <g id="line2d_5">
      <g>
       <use xlink:href="#m551b62b599" x="286.069673" y="241.036875" style="stroke: #000000; stroke-width: 0.8"/>
      </g>
     </g>
     <g id="text_5">
      <!-- 20 -->
      <g transform="translate(275.889673 260.194375) scale(0.16 -0.16)">
       <defs>
        <path id="DejaVuSans-32" d="M 1228 531 
L 3431 531 
L 3431 0 
L 469 0 
L 469 531 
Q 828 903 1448 1529 
Q 2069 2156 2228 2338 
Q 2531 2678 2651 2914 
Q 2772 3150 2772 3378 
Q 2772 3750 2511 3984 
Q 2250 4219 1831 4219 
Q 1534 4219 1204 4116 
Q 875 4013 500 3803 
L 500 4441 
Q 881 4594 1212 4672 
Q 1544 4750 1819 4750 
Q 2544 4750 2975 4387 
Q 3406 4025 3406 3419 
Q 3406 3131 3298 2873 
Q 3191 2616 2906 2266 
Q 2828 2175 2409 1742 
Q 1991 1309 1228 531 
z
" transform="scale(0.015625)"/>
       </defs>
       <use xlink:href="#DejaVuSans-32"/>
       <use xlink:href="#DejaVuSans-30" x="63.623047"/>
      </g>
     </g>
    </g>
    <g id="xtick_6">
     <g id="line2d_6">
      <g>
       <use xlink:href="#m551b62b599" x="336.996271" y="241.036875" style="stroke: #000000; stroke-width: 0.8"/>
      </g>
     </g>
     <g id="text_6">
      <!-- 25 -->
      <g transform="translate(326.816271 260.194375) scale(0.16 -0.16)">
       <use xlink:href="#DejaVuSans-32"/>
       <use xlink:href="#DejaVuSans-35" x="63.623047"/>
      </g>
     </g>
    </g>
    <g id="xtick_7">
     <g id="line2d_7">
      <g>
       <use xlink:href="#m551b62b599" x="387.922869" y="241.036875" style="stroke: #000000; stroke-width: 0.8"/>
      </g>
     </g>
     <g id="text_7">
      <!-- 30 -->
      <g transform="translate(377.742869 260.194375) scale(0.16 -0.16)">
       <defs>
        <path id="DejaVuSans-33" d="M 2597 2516 
Q 3050 2419 3304 2112 
Q 3559 1806 3559 1356 
Q 3559 666 3084 287 
Q 2609 -91 1734 -91 
Q 1441 -91 1130 -33 
Q 819 25 488 141 
L 488 750 
Q 750 597 1062 519 
Q 1375 441 1716 441 
Q 2309 441 2620 675 
Q 2931 909 2931 1356 
Q 2931 1769 2642 2001 
Q 2353 2234 1838 2234 
L 1294 2234 
L 1294 2753 
L 1863 2753 
Q 2328 2753 2575 2939 
Q 2822 3125 2822 3475 
Q 2822 3834 2567 4026 
Q 2313 4219 1838 4219 
Q 1578 4219 1281 4162 
Q 984 4106 628 3988 
L 628 4550 
Q 988 4650 1302 4700 
Q 1616 4750 1894 4750 
Q 2613 4750 3031 4423 
Q 3450 4097 3450 3541 
Q 3450 3153 3228 2886 
Q 3006 2619 2597 2516 
z
" transform="scale(0.015625)"/>
       </defs>
       <use xlink:href="#DejaVuSans-33"/>
       <use xlink:href="#DejaVuSans-30" x="63.623047"/>
      </g>
     </g>
    </g>
    <g id="text_8">
     <!-- Time [min] -->
     <g transform="translate(207.999219 275.120313) scale(0.1 -0.1)">
      <defs>
       <path id="DejaVuSans-54" d="M -19 4666 
L 3928 4666 
L 3928 4134 
L 2272 4134 
L 2272 0 
L 1638 0 
L 1638 4134 
L -19 4134 
L -19 4666 
z
" transform="scale(0.015625)"/>
       <path id="DejaVuSans-69" d="M 603 3500 
L 1178 3500 
L 1178 0 
L 603 0 
L 603 3500 
z
M 603 4863 
L 1178 4863 
L 1178 4134 
L 603 4134 
L 603 4863 
z
" transform="scale(0.015625)"/>
       <path id="DejaVuSans-6d" d="M 3328 2828 
Q 3544 3216 3844 3400 
Q 4144 3584 4550 3584 
Q 5097 3584 5394 3201 
Q 5691 2819 5691 2113 
L 5691 0 
L 5113 0 
L 5113 2094 
Q 5113 2597 4934 2840 
Q 4756 3084 4391 3084 
Q 3944 3084 3684 2787 
Q 3425 2491 3425 1978 
L 3425 0 
L 2847 0 
L 2847 2094 
Q 2847 2600 2669 2842 
Q 2491 3084 2119 3084 
Q 1678 3084 1418 2786 
Q 1159 2488 1159 1978 
L 1159 0 
L 581 0 
L 581 3500 
L 1159 3500 
L 1159 2956 
Q 1356 3278 1631 3431 
Q 1906 3584 2284 3584 
Q 2666 3584 2933 3390 
Q 3200 3197 3328 2828 
z
" transform="scale(0.015625)"/>
       <path id="DejaVuSans-65" d="M 3597 1894 
L 3597 1613 
L 953 1613 
Q 991 1019 1311 708 
Q 1631 397 2203 397 
Q 2534 397 2845 478 
Q 3156 559 3463 722 
L 3463 178 
Q 3153 47 2828 -22 
Q 2503 -91 2169 -91 
Q 1331 -91 842 396 
Q 353 884 353 1716 
Q 353 2575 817 3079 
Q 1281 3584 2069 3584 
Q 2775 3584 3186 3129 
Q 3597 2675 3597 1894 
z
M 3022 2063 
Q 3016 2534 2758 2815 
Q 2500 3097 2075 3097 
Q 1594 3097 1305 2825 
Q 1016 2553 972 2059 
L 3022 2063 
z
" transform="scale(0.015625)"/>
       <path id="DejaVuSans-20" transform="scale(0.015625)"/>
       <path id="DejaVuSans-5b" d="M 550 4863 
L 1875 4863 
L 1875 4416 
L 1125 4416 
L 1125 -397 
L 1875 -397 
L 1875 -844 
L 550 -844 
L 550 4863 
z
" transform="scale(0.015625)"/>
       <path id="DejaVuSans-6e" d="M 3513 2113 
L 3513 0 
L 2938 0 
L 2938 2094 
Q 2938 2591 2744 2837 
Q 2550 3084 2163 3084 
Q 1697 3084 1428 2787 
Q 1159 2491 1159 1978 
L 1159 0 
L 581 0 
L 581 3500 
L 1159 3500 
L 1159 2956 
Q 1366 3272 1645 3428 
Q 1925 3584 2291 3584 
Q 2894 3584 3203 3211 
Q 3513 2838 3513 2113 
z
" transform="scale(0.015625)"/>
       <path id="DejaVuSans-5d" d="M 1947 4863 
L 1947 -844 
L 622 -844 
L 622 -397 
L 1369 -397 
L 1369 4416 
L 622 4416 
L 622 4863 
L 1947 4863 
z
" transform="scale(0.015625)"/>
      </defs>
      <use xlink:href="#DejaVuSans-54"/>
      <use xlink:href="#DejaVuSans-69" x="57.958984"/>
      <use xlink:href="#DejaVuSans-6d" x="85.742188"/>
      <use xlink:href="#DejaVuSans-65" x="183.154297"/>
      <use xlink:href="#DejaVuSans-20" x="244.677734"/>
      <use xlink:href="#DejaVuSans-5b" x="276.464844"/>
      <use xlink:href="#DejaVuSans-6d" x="315.478516"/>
      <use xlink:href="#DejaVuSans-69" x="412.890625"/>
      <use xlink:href="#DejaVuSans-6e" x="440.673828"/>
      <use xlink:href="#DejaVuSans-5d" x="504.052734"/>
     </g>
    </g>
   </g>
   <g id="matplotlib.axis_2">
    <g id="ytick_1">
     <g id="line2d_8">
      <defs>
       <path id="mfda4cf9ed7" d="M 0 0 
L -3.5 0 
" style="stroke: #000000; stroke-width: 0.8"/>
      </defs>
      <g>
       <use xlink:href="#mfda4cf9ed7" x="67.103125" y="184.669644" style="stroke: #000000; stroke-width: 0.8"/>
      </g>
     </g>
     <g id="text_9">
      <!-- 0.00 -->
      <g transform="translate(24.478125 190.748394) scale(0.16 -0.16)">
       <defs>
        <path id="DejaVuSans-2e" d="M 684 794 
L 1344 794 
L 1344 0 
L 684 0 
L 684 794 
z
" transform="scale(0.015625)"/>
       </defs>
       <use xlink:href="#DejaVuSans-30"/>
       <use xlink:href="#DejaVuSans-2e" x="63.623047"/>
       <use xlink:href="#DejaVuSans-30" x="95.410156"/>
       <use xlink:href="#DejaVuSans-30" x="159.033203"/>
      </g>
     </g>
    </g>
    <g id="ytick_2">
     <g id="line2d_9">
      <g>
       <use xlink:href="#mfda4cf9ed7" x="67.103125" y="119.366611" style="stroke: #000000; stroke-width: 0.8"/>
      </g>
     </g>
     <g id="text_10">
      <!-- 0.02 -->
      <g transform="translate(24.478125 125.445361) scale(0.16 -0.16)">
       <use xlink:href="#DejaVuSans-30"/>
       <use xlink:href="#DejaVuSans-2e" x="63.623047"/>
       <use xlink:href="#DejaVuSans-30" x="95.410156"/>
       <use xlink:href="#DejaVuSans-32" x="159.033203"/>
      </g>
     </g>
    </g>
    <g id="ytick_3">
     <g id="line2d_10">
      <g>
       <use xlink:href="#mfda4cf9ed7" x="67.103125" y="54.063577" style="stroke: #000000; stroke-width: 0.8"/>
      </g>
     </g>
     <g id="text_11">
      <!-- 0.04 -->
      <g transform="translate(24.478125 60.142327) scale(0.16 -0.16)">
       <defs>
        <path id="DejaVuSans-34" d="M 2419 4116 
L 825 1625 
L 2419 1625 
L 2419 4116 
z
M 2253 4666 
L 3047 4666 
L 3047 1625 
L 3713 1625 
L 3713 1100 
L 3047 1100 
L 3047 0 
L 2419 0 
L 2419 1100 
L 313 1100 
L 313 1709 
L 2253 4666 
z
" transform="scale(0.015625)"/>
       </defs>
       <use xlink:href="#DejaVuSans-30"/>
       <use xlink:href="#DejaVuSans-2e" x="63.623047"/>
       <use xlink:href="#DejaVuSans-30" x="95.410156"/>
       <use xlink:href="#DejaVuSans-34" x="159.033203"/>
      </g>
     </g>
    </g>
    <g id="text_12">
     <!-- Rate Tracking Error [rad/s]  -->
     <g transform="translate(18.398438 193.219219) rotate(-90) scale(0.1 -0.1)">
      <defs>
       <path id="DejaVuSans-52" d="M 2841 2188 
Q 3044 2119 3236 1894 
Q 3428 1669 3622 1275 
L 4263 0 
L 3584 0 
L 2988 1197 
Q 2756 1666 2539 1819 
Q 2322 1972 1947 1972 
L 1259 1972 
L 1259 0 
L 628 0 
L 628 4666 
L 2053 4666 
Q 2853 4666 3247 4331 
Q 3641 3997 3641 3322 
Q 3641 2881 3436 2590 
Q 3231 2300 2841 2188 
z
M 1259 4147 
L 1259 2491 
L 2053 2491 
Q 2509 2491 2742 2702 
Q 2975 2913 2975 3322 
Q 2975 3731 2742 3939 
Q 2509 4147 2053 4147 
L 1259 4147 
z
" transform="scale(0.015625)"/>
       <path id="DejaVuSans-61" d="M 2194 1759 
Q 1497 1759 1228 1600 
Q 959 1441 959 1056 
Q 959 750 1161 570 
Q 1363 391 1709 391 
Q 2188 391 2477 730 
Q 2766 1069 2766 1631 
L 2766 1759 
L 2194 1759 
z
M 3341 1997 
L 3341 0 
L 2766 0 
L 2766 531 
Q 2569 213 2275 61 
Q 1981 -91 1556 -91 
Q 1019 -91 701 211 
Q 384 513 384 1019 
Q 384 1609 779 1909 
Q 1175 2209 1959 2209 
L 2766 2209 
L 2766 2266 
Q 2766 2663 2505 2880 
Q 2244 3097 1772 3097 
Q 1472 3097 1187 3025 
Q 903 2953 641 2809 
L 641 3341 
Q 956 3463 1253 3523 
Q 1550 3584 1831 3584 
Q 2591 3584 2966 3190 
Q 3341 2797 3341 1997 
z
" transform="scale(0.015625)"/>
       <path id="DejaVuSans-74" d="M 1172 4494 
L 1172 3500 
L 2356 3500 
L 2356 3053 
L 1172 3053 
L 1172 1153 
Q 1172 725 1289 603 
Q 1406 481 1766 481 
L 2356 481 
L 2356 0 
L 1766 0 
Q 1100 0 847 248 
Q 594 497 594 1153 
L 594 3053 
L 172 3053 
L 172 3500 
L 594 3500 
L 594 4494 
L 1172 4494 
z
" transform="scale(0.015625)"/>
       <path id="DejaVuSans-72" d="M 2631 2963 
Q 2534 3019 2420 3045 
Q 2306 3072 2169 3072 
Q 1681 3072 1420 2755 
Q 1159 2438 1159 1844 
L 1159 0 
L 581 0 
L 581 3500 
L 1159 3500 
L 1159 2956 
Q 1341 3275 1631 3429 
Q 1922 3584 2338 3584 
Q 2397 3584 2469 3576 
Q 2541 3569 2628 3553 
L 2631 2963 
z
" transform="scale(0.015625)"/>
       <path id="DejaVuSans-63" d="M 3122 3366 
L 3122 2828 
Q 2878 2963 2633 3030 
Q 2388 3097 2138 3097 
Q 1578 3097 1268 2742 
Q 959 2388 959 1747 
Q 959 1106 1268 751 
Q 1578 397 2138 397 
Q 2388 397 2633 464 
Q 2878 531 3122 666 
L 3122 134 
Q 2881 22 2623 -34 
Q 2366 -91 2075 -91 
Q 1284 -91 818 406 
Q 353 903 353 1747 
Q 353 2603 823 3093 
Q 1294 3584 2113 3584 
Q 2378 3584 2631 3529 
Q 2884 3475 3122 3366 
z
" transform="scale(0.015625)"/>
       <path id="DejaVuSans-6b" d="M 581 4863 
L 1159 4863 
L 1159 1991 
L 2875 3500 
L 3609 3500 
L 1753 1863 
L 3688 0 
L 2938 0 
L 1159 1709 
L 1159 0 
L 581 0 
L 581 4863 
z
" transform="scale(0.015625)"/>
       <path id="DejaVuSans-67" d="M 2906 1791 
Q 2906 2416 2648 2759 
Q 2391 3103 1925 3103 
Q 1463 3103 1205 2759 
Q 947 2416 947 1791 
Q 947 1169 1205 825 
Q 1463 481 1925 481 
Q 2391 481 2648 825 
Q 2906 1169 2906 1791 
z
M 3481 434 
Q 3481 -459 3084 -895 
Q 2688 -1331 1869 -1331 
Q 1566 -1331 1297 -1286 
Q 1028 -1241 775 -1147 
L 775 -588 
Q 1028 -725 1275 -790 
Q 1522 -856 1778 -856 
Q 2344 -856 2625 -561 
Q 2906 -266 2906 331 
L 2906 616 
Q 2728 306 2450 153 
Q 2172 0 1784 0 
Q 1141 0 747 490 
Q 353 981 353 1791 
Q 353 2603 747 3093 
Q 1141 3584 1784 3584 
Q 2172 3584 2450 3431 
Q 2728 3278 2906 2969 
L 2906 3500 
L 3481 3500 
L 3481 434 
z
" transform="scale(0.015625)"/>
       <path id="DejaVuSans-45" d="M 628 4666 
L 3578 4666 
L 3578 4134 
L 1259 4134 
L 1259 2753 
L 3481 2753 
L 3481 2222 
L 1259 2222 
L 1259 531 
L 3634 531 
L 3634 0 
L 628 0 
L 628 4666 
z
" transform="scale(0.015625)"/>
       <path id="DejaVuSans-6f" d="M 1959 3097 
Q 1497 3097 1228 2736 
Q 959 2375 959 1747 
Q 959 1119 1226 758 
Q 1494 397 1959 397 
Q 2419 397 2687 759 
Q 2956 1122 2956 1747 
Q 2956 2369 2687 2733 
Q 2419 3097 1959 3097 
z
M 1959 3584 
Q 2709 3584 3137 3096 
Q 3566 2609 3566 1747 
Q 3566 888 3137 398 
Q 2709 -91 1959 -91 
Q 1206 -91 779 398 
Q 353 888 353 1747 
Q 353 2609 779 3096 
Q 1206 3584 1959 3584 
z
" transform="scale(0.015625)"/>
       <path id="DejaVuSans-64" d="M 2906 2969 
L 2906 4863 
L 3481 4863 
L 3481 0 
L 2906 0 
L 2906 525 
Q 2725 213 2448 61 
Q 2172 -91 1784 -91 
Q 1150 -91 751 415 
Q 353 922 353 1747 
Q 353 2572 751 3078 
Q 1150 3584 1784 3584 
Q 2172 3584 2448 3432 
Q 2725 3281 2906 2969 
z
M 947 1747 
Q 947 1113 1208 752 
Q 1469 391 1925 391 
Q 2381 391 2643 752 
Q 2906 1113 2906 1747 
Q 2906 2381 2643 2742 
Q 2381 3103 1925 3103 
Q 1469 3103 1208 2742 
Q 947 2381 947 1747 
z
" transform="scale(0.015625)"/>
       <path id="DejaVuSans-2f" d="M 1625 4666 
L 2156 4666 
L 531 -594 
L 0 -594 
L 1625 4666 
z
" transform="scale(0.015625)"/>
       <path id="DejaVuSans-73" d="M 2834 3397 
L 2834 2853 
Q 2591 2978 2328 3040 
Q 2066 3103 1784 3103 
Q 1356 3103 1142 2972 
Q 928 2841 928 2578 
Q 928 2378 1081 2264 
Q 1234 2150 1697 2047 
L 1894 2003 
Q 2506 1872 2764 1633 
Q 3022 1394 3022 966 
Q 3022 478 2636 193 
Q 2250 -91 1575 -91 
Q 1294 -91 989 -36 
Q 684 19 347 128 
L 347 722 
Q 666 556 975 473 
Q 1284 391 1588 391 
Q 1994 391 2212 530 
Q 2431 669 2431 922 
Q 2431 1156 2273 1281 
Q 2116 1406 1581 1522 
L 1381 1569 
Q 847 1681 609 1914 
Q 372 2147 372 2553 
Q 372 3047 722 3315 
Q 1072 3584 1716 3584 
Q 2034 3584 2315 3537 
Q 2597 3491 2834 3397 
z
" transform="scale(0.015625)"/>
      </defs>
      <use xlink:href="#DejaVuSans-52"/>
      <use xlink:href="#DejaVuSans-61" x="67.232422"/>
      <use xlink:href="#DejaVuSans-74" x="128.511719"/>
      <use xlink:href="#DejaVuSans-65" x="167.720703"/>
      <use xlink:href="#DejaVuSans-20" x="229.244141"/>
      <use xlink:href="#DejaVuSans-54" x="261.03125"/>
      <use xlink:href="#DejaVuSans-72" x="307.365234"/>
      <use xlink:href="#DejaVuSans-61" x="348.478516"/>
      <use xlink:href="#DejaVuSans-63" x="409.757812"/>
      <use xlink:href="#DejaVuSans-6b" x="464.738281"/>
      <use xlink:href="#DejaVuSans-69" x="522.648438"/>
      <use xlink:href="#DejaVuSans-6e" x="550.431641"/>
      <use xlink:href="#DejaVuSans-67" x="613.810547"/>
      <use xlink:href="#DejaVuSans-20" x="677.287109"/>
      <use xlink:href="#DejaVuSans-45" x="709.074219"/>
      <use xlink:href="#DejaVuSans-72" x="772.257812"/>
      <use xlink:href="#DejaVuSans-72" x="811.621094"/>
      <use xlink:href="#DejaVuSans-6f" x="850.484375"/>
      <use xlink:href="#DejaVuSans-72" x="911.666016"/>
      <use xlink:href="#DejaVuSans-20" x="952.779297"/>
      <use xlink:href="#DejaVuSans-5b" x="984.566406"/>
      <use xlink:href="#DejaVuSans-72" x="1023.580078"/>
      <use xlink:href="#DejaVuSans-61" x="1064.693359"/>
      <use xlink:href="#DejaVuSans-64" x="1125.972656"/>
      <use xlink:href="#DejaVuSans-2f" x="1189.449219"/>
      <use xlink:href="#DejaVuSans-73" x="1223.140625"/>
      <use xlink:href="#DejaVuSans-5d" x="1275.240234"/>
      <use xlink:href="#DejaVuSans-20" x="1314.253906"/>
     </g>
    </g>
   </g>
   <g id="line2d_11">
    <path d="M 82.380256 180.847881 
L 83.059277 181.637955 
L 83.789225 182.410935 
L 84.434295 183.485978 
L 85.181219 185.195973 
L 86.029995 187.732879 
L 86.946674 190.426167 
L 87.676622 191.76575 
L 88.712129 193.271377 
L 89.119542 193.512234 
L 89.459053 193.46379 
L 89.798563 193.174732 
L 90.205976 192.495809 
L 91.258459 190.496046 
L 92.175138 189.360066 
L 93.804789 187.419339 
L 94.500786 185.97562 
L 95.417465 183.503785 
L 97.301749 178.232199 
L 98.388183 175.894542 
L 99.474617 174.096342 
L 100.442223 172.83495 
L 101.375877 171.971169 
L 102.258605 171.445211 
L 103.124357 171.180015 
L 103.990109 171.143218 
L 104.889812 171.329083 
L 105.840442 171.755705 
L 106.892925 172.481772 
L 108.081212 173.587494 
L 109.490181 175.222047 
L 110.950077 177.24083 
L 111.697001 178.766464 
L 112.868312 181.758035 
L 113.835918 183.866295 
L 114.70167 185.244103 
L 115.533471 186.161811 
L 116.382248 186.770327 
L 117.349853 187.182632 
L 118.758822 187.510748 
L 121.457932 188.124792 
L 123.511971 188.870817 
L 126.991956 190.153851 
L 128.57068 190.474355 
L 130.013601 190.544635 
L 131.456521 190.392413 
L 133.001294 190.000812 
L 134.783725 189.308674 
L 137.1603 188.126572 
L 143.797733 184.71107 
L 145.817821 183.987073 
L 147.854885 183.493656 
L 150.027754 183.199426 
L 152.489206 183.096182 
L 155.527826 183.20183 
L 160.043318 183.605839 
L 170.432344 184.580607 
L 176.051245 184.840522 
L 182.501948 184.904756 
L 184.403207 184.794715 
L 185.947981 184.038997 
L 187.407877 183.571306 
L 188.935675 183.319853 
L 190.667179 183.267009 
L 192.992827 183.436778 
L 202.159615 184.311968 
L 209.255387 184.548041 
L 214.687558 184.587329 
L 220.425288 184.641919 
L 230.763387 184.732897 
L 246.737364 184.566056 
L 251.439586 184.503329 
L 266.802443 184.472759 
L 274.220751 184.114897 
L 279.77175 184.377034 
L 286.663817 184.608863 
L 297.765815 184.698793 
L 307.47582 184.835792 
L 307.679526 184.888147 
L 309.207324 185.245798 
L 313.111697 185.979034 
L 313.570036 186.043363 
L 313.85862 186.08702 
L 314.283008 186.129474 
L 314.588568 186.170556 
L 314.945054 186.203974 
L 315.284565 186.249464 
L 315.624075 186.27375 
L 315.997537 186.31357 
L 316.303097 186.328523 
L 316.71051 186.366073 
L 316.948167 186.377923 
L 317.406506 186.409185 
L 317.627188 186.416797 
L 318.204356 186.449827 
L 318.442014 186.447891 
L 319.154986 186.480626 
L 319.358693 186.483541 
L 320.292347 186.500811 
L 320.479078 186.500015 
L 322.176631 186.482359 
L 329.866547 186.030825 
L 330.307911 185.988675 
L 330.562544 185.97263 
L 331.020884 185.918108 
L 331.275517 185.9028 
L 331.733856 185.849099 
L 331.988489 185.831121 
L 332.446828 185.773163 
L 332.701461 185.753072 
L 333.142825 185.69853 
L 333.397458 185.676954 
L 333.821847 185.625652 
L 334.076479 185.603083 
L 334.500868 185.551959 
L 334.755501 185.528933 
L 335.179889 185.477336 
L 335.434522 185.45431 
L 335.875886 185.396284 
L 336.130519 185.37369 
L 336.571883 185.316869 
L 336.826516 185.295143 
L 337.26788 185.24025 
L 337.522513 185.219897 
L 337.963876 185.16768 
L 338.371289 185.11725 
L 338.608947 185.0931 
L 339.01636 185.045844 
L 339.254017 185.023669 
L 339.695381 184.971346 
L 339.933038 184.949252 
L 340.374402 184.898948 
L 340.595084 184.883318 
L 341.070399 184.824402 
L 341.308056 184.81049 
L 341.817322 184.748867 
L 342.038004 184.730811 
L 342.54727 184.676977 
L 342.767952 184.662442 
L 343.328145 184.60221 
L 343.548827 184.591616 
L 344.176921 184.523524 
L 344.380628 184.508842 
L 345.008723 184.453876 
L 345.212429 184.443519 
L 345.959352 184.375678 
L 346.163059 184.370455 
L 346.943933 184.315027 
L 347.860612 184.248956 
L 348.89612 184.181032 
L 349.099826 184.179213 
L 350.440893 184.102366 
L 350.627624 184.097721 
L 352.528884 184.035003 
L 356.603011 183.978524 
L 358.657051 183.993957 
L 358.860757 183.988044 
L 360.150898 184.015536 
L 360.354604 184.014827 
L 361.458014 184.045766 
L 361.644745 184.046475 
L 362.527472 184.074804 
L 362.714203 184.077989 
L 363.529029 184.105813 
L 363.71576 184.110978 
L 364.496634 184.140732 
L 364.700341 184.137358 
L 365.532142 184.180558 
L 365.735848 184.178658 
L 366.516723 184.219322 
L 366.720429 184.218443 
L 367.535255 184.264321 
L 367.738961 184.262144 
L 368.553786 184.309429 
L 368.757493 184.307589 
L 369.572318 184.35553 
L 369.776025 184.353693 
L 370.59085 184.400937 
L 370.794557 184.398788 
L 371.643333 184.450531 
L 371.84704 184.447691 
L 372.712792 184.4992 
L 372.899523 184.506062 
L 373.714348 184.543796 
L 373.901079 184.549617 
L 374.73288 184.589083 
L 374.919611 184.593592 
L 375.785363 184.628233 
L 376.651116 184.67035 
L 376.837846 184.671823 
L 377.754525 184.713293 
L 377.941256 184.712823 
L 378.942813 184.757307 
L 379.129543 184.754501 
L 380.28388 184.801246 
L 380.47061 184.795662 
L 381.845629 184.848696 
L 382.015384 184.851852 
L 383.526206 184.887595 
L 385.22376 184.92493 
L 385.41049 184.92236 
L 387.821016 184.960404 
L 387.922869 184.949792 
L 387.922869 184.949792 
" clip-path="url(#p54ce662fd8)" style="fill: none; stroke: #2b737e; stroke-width: 1.5; stroke-linecap: square"/>
   </g>
   <g id="line2d_12">
    <path d="M 82.380256 217.625261 
L 83.534592 217.884829 
L 85.130292 218.06919 
L 85.877215 217.929614 
L 86.369506 217.637637 
L 86.675065 217.103858 
L 87.065503 215.913344 
L 87.523842 213.732075 
L 88.067059 209.912739 
L 88.932811 201.86295 
L 91.377288 179.917136 
L 92.667429 170.110676 
L 93.668985 164.147163 
L 94.94215 157.790135 
L 95.960682 153.737644 
L 96.622728 151.943223 
L 97.18292 151.004183 
L 97.64126 150.616704 
L 98.031697 150.55247 
L 98.422134 150.740009 
L 98.863498 151.22008 
L 99.440666 152.22683 
L 100.085736 153.794112 
L 100.866611 156.324895 
L 101.817241 160.22602 
L 102.971577 165.965208 
L 104.448448 174.513157 
L 106.57039 188.240546 
L 111.798854 222.547785 
L 112.783435 227.072623 
L 113.428505 229.065319 
L 113.971722 230.083637 
L 114.413086 230.493892 
L 114.786548 230.566851 
L 115.160009 230.404092 
L 115.584398 229.952813 
L 116.110639 229.034285 
L 116.772685 227.382514 
L 117.604486 224.66024 
L 118.724871 220.159818 
L 120.575204 211.647636 
L 123.223387 199.658904 
L 124.73421 193.848038 
L 126.041326 189.665079 
L 127.229613 186.577377 
L 128.333023 184.302048 
L 129.385506 182.624294 
L 130.387062 181.429273 
L 131.371643 180.589162 
L 132.356224 180.033179 
L 133.391732 179.703588 
L 134.512117 179.582974 
L 135.802257 179.673106 
L 137.431908 180.023173 
L 139.910336 180.812171 
L 143.05081 181.782626 
L 148.211372 183.107414 
L 152.540132 183.989037 
L 156.546358 184.579994 
L 160.552584 184.943765 
L 164.949247 185.113024 
L 170.483271 185.089753 
L 184.233452 184.713667 
L 185.947981 183.690807 
L 187.458803 183.041222 
L 188.918699 182.654944 
L 190.39557 182.49442 
L 192.008246 182.545978 
L 193.943457 182.839491 
L 196.999053 183.561951 
L 201.175034 184.504185 
L 204.009948 184.903787 
L 206.997641 185.094789 
L 210.76621 185.097712 
L 213.838781 184.920709 
L 218.405199 184.629959 
L 223.243226 184.561002 
L 247.24663 184.528943 
L 251.914901 184.461862 
L 259.978279 184.624794 
L 264.476795 184.610142 
L 268.177461 184.354067 
L 272.675978 183.981923 
L 275.612745 184.032726 
L 280.467747 184.380074 
L 286.426159 184.738394 
L 291.807403 184.8183 
L 304.454175 184.685124 
L 307.272113 184.756822 
L 307.458844 184.811391 
L 307.798355 184.896912 
L 307.985086 184.952859 
L 308.307621 185.036264 
L 308.511327 185.098278 
L 308.833862 185.177966 
L 312.313847 186.038555 
L 312.517553 186.07169 
L 312.772186 186.132821 
L 313.247501 186.22013 
L 313.519109 186.282526 
L 313.70584 186.308562 
L 313.960473 186.355163 
L 314.316959 186.411515 
L 314.588568 186.459982 
L 314.877152 186.504214 
L 315.165736 186.547281 
L 315.437345 186.580457 
L 315.75988 186.630664 
L 316.048464 186.65592 
L 316.421925 186.704481 
L 316.642607 186.721821 
L 317.033045 186.75305 
L 317.474408 186.799804 
L 317.69509 186.809351 
L 318.204356 186.844913 
L 318.408063 186.850001 
L 319.002206 186.868242 
L 319.783081 186.890099 
L 319.969812 186.879713 
L 321.124148 186.869713 
L 323.280041 186.744807 
L 324.892716 186.596172 
L 325.079447 186.579751 
L 325.843346 186.492083 
L 326.030077 186.477612 
L 326.624221 186.399419 
L 326.810951 186.378515 
L 327.337193 186.305977 
L 327.540899 186.287787 
L 328.050165 186.207892 
L 328.253872 186.184766 
L 328.695236 186.120941 
L 328.898942 186.09393 
L 329.32333 186.029381 
L 329.544012 186.00582 
L 329.968401 185.934853 
L 330.189082 185.908231 
L 330.596495 185.839419 
L 330.817177 185.809361 
L 331.207614 185.74794 
L 331.428296 185.720633 
L 331.835709 185.65048 
L 332.056391 185.621642 
L 332.446828 185.557173 
L 332.684486 185.534092 
L 333.091899 185.460141 
L 333.329556 185.43646 
L 333.736969 185.361852 
L 333.940675 185.337759 
L 334.314137 185.279364 
L 334.534819 185.249029 
L 334.908281 185.191315 
L 335.128963 185.161569 
L 335.502424 185.105219 
L 335.723106 185.076427 
L 336.096568 185.021976 
L 336.31725 184.994455 
L 336.707687 184.934735 
L 336.928369 184.908843 
L 337.318806 184.852255 
L 337.539488 184.82833 
L 337.929925 184.775471 
L 338.150607 184.753757 
L 338.574996 184.69067 
L 338.795678 184.671653 
L 339.220066 184.61382 
L 339.440748 184.597666 
L 339.848161 184.538995 
L 340.068843 184.525954 
L 340.527182 184.463054 
L 340.730888 184.445172 
L 341.189228 184.392278 
L 341.392934 184.377881 
L 341.817322 184.331778 
L 342.021029 184.32083 
L 342.496344 184.265303 
L 342.70005 184.258248 
L 343.192341 184.206811 
L 343.379071 184.194199 
L 343.888337 184.147772 
L 344.075068 184.139127 
L 344.618285 184.094635 
L 344.805016 184.090214 
L 345.433111 184.037911 
L 345.619842 184.038378 
L 346.332814 183.984545 
L 346.536521 183.98695 
L 347.283444 183.948246 
L 348.166172 183.903378 
L 349.065875 183.870768 
L 349.252606 183.878452 
L 350.440893 183.839326 
L 350.610648 183.84152 
L 352.308202 183.822112 
L 352.477957 183.833853 
L 356.178623 183.889697 
L 358.181736 183.952777 
L 358.368467 183.947162 
L 359.641632 184.00951 
L 359.828363 184.008868 
L 360.880846 184.063807 
L 361.067577 184.06673 
L 361.899378 184.113449 
L 362.086109 184.118813 
L 362.833032 184.158958 
L 363.019763 184.166246 
L 363.732735 184.206381 
L 363.936442 184.203914 
L 364.683365 184.256547 
L 364.870096 184.266607 
L 365.039851 184.273264 
L 365.701897 184.310185 
L 365.871652 184.317531 
L 366.516723 184.355189 
L 366.686478 184.363018 
L 367.348524 184.402078 
L 367.518279 184.408657 
L 368.180325 184.446753 
L 368.35008 184.453376 
L 369.012126 184.491153 
L 369.181881 184.497606 
L 369.843927 184.534357 
L 370.013682 184.540404 
L 370.692704 184.578967 
L 370.862459 184.584463 
L 371.54148 184.620314 
L 371.711236 184.625042 
L 372.424208 184.664484 
L 372.593963 184.668247 
L 373.306936 184.703301 
L 373.476691 184.705947 
L 374.206639 184.74373 
L 374.376394 184.745035 
L 375.174244 184.784533 
L 375.344 184.784239 
L 376.175801 184.821708 
L 376.345556 184.819625 
L 377.211308 184.853666 
L 378.07706 184.878723 
L 379.061641 184.913171 
L 379.97832 184.938672 
L 380.165051 184.930777 
L 381.285436 184.966669 
L 381.455191 184.96927 
L 382.626503 184.990349 
L 382.796258 184.989915 
L 384.341032 185.011741 
L 384.510787 185.007441 
L 386.293218 185.0237 
L 386.462974 185.015149 
L 387.922869 185.012114 
L 387.922869 185.012114 
" clip-path="url(#p54ce662fd8)" style="fill: none; stroke: #5ea04b; stroke-width: 1.5; stroke-linecap: square"/>
   </g>
   <g id="line2d_13">
    <path d="M 82.380256 88.680417 
L 83.144155 101.318145 
L 83.195081 100.480876 
L 87.15038 37.246628 
L 87.897304 29.31971 
L 88.593301 24.172934 
L 89.068616 22.101007 
L 89.425102 21.378084 
L 89.679735 21.269986 
L 89.900417 21.437754 
L 90.189001 22.006531 
L 90.49456 23.135133 
L 91.003826 26.087378 
L 91.631921 31.159227 
L 92.412796 39.418434 
L 93.414352 52.578062 
L 97.895893 113.762725 
L 99.457642 130.714271 
L 100.934513 144.094108 
L 102.42836 155.639079 
L 104.02406 166.239634 
L 105.874393 176.9969 
L 108.65838 191.699002 
L 111.544221 206.062926 
L 112.359046 208.734514 
L 112.919239 209.962743 
L 113.326652 210.375852 
L 113.683138 210.453764 
L 114.0566 210.295316 
L 114.514939 209.823725 
L 115.109083 208.86067 
L 115.974835 206.981236 
L 117.604486 202.788677 
L 119.913159 197.010824 
L 121.593736 193.412126 
L 123.172461 190.540452 
L 124.666308 188.264772 
L 126.058301 186.530743 
L 127.365417 185.245578 
L 128.604631 184.331558 
L 129.809894 183.714783 
L 131.015157 183.344398 
L 132.288322 183.186322 
L 133.714267 183.239496 
L 135.462747 183.540126 
L 138.331612 184.298619 
L 141.472085 185.061177 
L 145.834797 185.465049 
L 148.78854 185.495184 
L 152.285499 185.293938 
L 164.236275 184.424704 
L 169.770298 184.378451 
L 180.498835 184.572293 
L 184.31833 184.549926 
L 185.26896 183.766206 
L 186.25354 183.239427 
L 187.306023 182.927866 
L 188.528262 182.80543 
L 190.073035 182.889486 
L 192.517512 183.27717 
L 197.644123 184.104008 
L 201.310838 184.434369 
L 205.928183 184.613681 
L 212.531665 184.63283 
L 215.298677 184.456882 
L 219.406756 184.44399 
L 244.530544 184.689355 
L 246.041367 184.576238 
L 249.283693 184.484168 
L 256.090882 184.576451 
L 263.695921 184.593001 
L 273.287097 183.988784 
L 277.853515 184.272619 
L 284.185389 184.590722 
L 290.992577 184.684883 
L 307.340015 184.820335 
L 307.509771 184.903047 
L 307.713477 184.967678 
L 307.883232 185.04155 
L 308.086939 185.11641 
L 309.139422 185.474597 
L 311.549948 186.096705 
L 311.95736 186.174103 
L 312.144091 186.227203 
L 312.296871 186.238322 
L 312.483602 186.28276 
L 312.806137 186.326177 
L 312.992868 186.368026 
L 313.281452 186.398286 
L 313.485158 186.443728 
L 313.739791 186.466171 
L 313.943498 186.509518 
L 314.181155 186.523138 
L 314.401837 186.56816 
L 314.537641 186.582165 
L 314.741348 186.593283 
L 314.945054 186.609291 
L 315.165736 186.642797 
L 315.369442 186.658135 
L 315.6071 186.690239 
L 315.810806 186.69393 
L 316.065439 186.722564 
L 316.25217 186.723414 
L 316.523779 186.762114 
L 316.693534 186.762243 
L 316.965143 186.785904 
L 317.117922 186.791126 
L 317.406506 186.807756 
L 317.559286 186.804667 
L 317.915772 186.830777 
L 318.068552 186.818286 
L 318.425038 186.843954 
L 318.577818 186.844596 
L 318.95128 186.854368 
L 319.10406 186.845797 
L 319.630301 186.859842 
L 319.766105 186.859271 
L 320.445127 186.848342 
L 321.582487 186.825546 
L 325.266178 186.565249 
L 325.690566 186.523708 
L 325.826371 186.516615 
L 326.216808 186.473208 
L 326.369588 186.476717 
L 326.760025 186.419828 
L 326.912805 186.418381 
L 327.269291 186.365621 
L 327.422071 186.359928 
L 327.761581 186.30594 
L 327.914361 186.296458 
L 328.219921 186.25189 
L 328.389676 186.252408 
L 328.695236 186.201259 
L 328.848015 186.185339 
L 329.119624 186.147287 
L 329.289379 186.141403 
L 329.577963 186.089009 
L 329.747719 186.08044 
L 330.019327 186.033666 
L 330.189082 186.022693 
L 330.460691 185.972271 
L 330.630446 185.95908 
L 330.868104 185.924674 
L 331.037859 185.912134 
L 331.309468 185.861769 
L 331.462247 185.860565 
L 331.733856 185.807796 
L 331.86966 185.79261 
L 332.107318 185.759531 
L 332.243122 185.743488 
L 332.480779 185.709214 
L 332.616584 185.692525 
L 332.854241 185.657183 
L 333.007021 185.65249 
L 333.278629 185.594392 
L 333.431409 185.589248 
L 333.686042 185.541437 
L 333.838822 185.533666 
L 334.093455 185.485486 
L 334.246235 185.480045 
L 334.500868 185.431982 
L 334.653648 185.426557 
L 334.908281 185.378663 
L 335.06106 185.373417 
L 335.315693 185.326179 
L 335.468473 185.321364 
L 335.740082 185.263914 
L 335.892861 185.259719 
L 336.147494 185.214266 
L 336.300274 185.210726 
L 336.571883 185.155917 
L 336.724663 185.153296 
L 336.979296 185.110706 
L 337.1151 185.096193 
L 337.369733 185.05535 
L 337.522513 185.054752 
L 337.794121 185.005504 
L 337.963876 184.995991 
L 338.235485 184.949342 
L 338.40524 184.941358 
L 338.676849 184.897528 
L 338.846604 184.891412 
L 339.118213 184.85035 
L 339.287968 184.846177 
L 339.576552 184.798796 
L 339.729332 184.789171 
L 340.00094 184.750757 
L 340.15372 184.736772 
L 340.476255 184.695302 
L 340.646011 184.698082 
L 340.95157 184.651017 
L 341.10435 184.641808 
L 341.40991 184.602456 
L 341.562689 184.595717 
L 341.885225 184.552987 
L 342.038004 184.548829 
L 342.360539 184.511699 
L 342.513319 184.510271 
L 342.869805 184.463648 
L 343.022585 184.465245 
L 343.396047 184.418297 
L 343.548827 184.423014 
L 343.939264 184.377079 
L 344.312726 184.344172 
L 344.44853 184.337868 
L 344.805016 184.319286 
L 345.178478 184.276729 
L 345.314282 184.275477 
L 345.687744 184.241319 
L 345.823548 184.24304 
L 346.230961 184.206451 
L 346.366765 184.211472 
L 346.825105 184.170198 
L 346.977884 184.174034 
L 347.470175 184.136579 
L 347.622955 184.144774 
L 348.183147 184.100304 
L 348.335927 184.113453 
L 349.065875 184.060812 
L 349.201679 184.05959 
L 349.982554 184.028075 
L 350.118358 184.032272 
L 351.052012 184.016984 
L 352.460981 183.989356 
L 355.329846 183.989053 
L 356.908571 184.003562 
L 357.044375 183.997517 
L 358.011981 184.019927 
L 358.147785 184.018464 
L 358.945635 184.040051 
L 359.081439 184.042067 
L 359.777436 184.062532 
L 359.930216 184.047619 
L 360.524359 184.082951 
L 360.677139 184.070696 
L 361.220356 184.103711 
L 361.373136 184.093728 
L 361.899378 184.130033 
L 362.052157 184.121981 
L 362.527472 184.1514 
L 362.680252 184.145039 
L 363.138592 184.174727 
L 363.291371 184.169781 
L 363.732735 184.198803 
L 363.885515 184.195173 
L 364.394781 184.223782 
L 364.547561 184.221317 
L 364.954974 184.247003 
L 365.090778 184.240378 
L 365.532142 184.274824 
L 365.667946 184.268865 
L 366.075359 184.298475 
L 366.211163 184.293037 
L 366.6016 184.318796 
L 366.737404 184.313761 
L 367.161793 184.347524 
L 367.297597 184.340499 
L 367.721985 184.373812 
L 367.85779 184.366952 
L 368.265202 184.395476 
L 368.401007 184.388712 
L 368.825395 184.422605 
L 368.961199 184.415774 
L 369.385588 184.449555 
L 369.521392 184.442685 
L 369.94578 184.475831 
L 370.081584 184.468723 
L 370.505973 184.501028 
L 370.641777 184.493623 
L 371.066165 184.524806 
L 371.20197 184.516941 
L 371.643333 184.551834 
L 371.779138 184.543416 
L 372.220502 184.576495 
L 372.356306 184.567513 
L 372.814645 184.603409 
L 372.950449 184.59368 
L 373.408789 184.627094 
L 373.544593 184.616643 
L 374.019908 184.652 
L 374.189663 184.657144 
L 374.631027 184.679574 
L 374.766831 184.667165 
L 375.276097 184.704274 
L 375.428877 184.695114 
L 375.955119 184.731933 
L 376.107899 184.721401 
L 376.651116 184.757166 
L 376.803895 184.744982 
L 377.381063 184.783408 
L 377.533843 184.769486 
L 378.144962 184.808195 
L 378.297742 184.792301 
L 378.942813 184.83381 
L 379.095592 184.815843 
L 379.82554 184.858692 
L 379.961344 184.859776 
L 380.606415 184.878571 
L 380.742219 184.877796 
L 381.472167 184.900926 
L 381.607971 184.897957 
L 382.422797 184.921203 
L 382.558601 184.915858 
L 383.526206 184.937096 
L 384.61264 184.958741 
L 384.748445 184.947855 
L 385.919756 184.950923 
L 387.787065 184.987027 
L 387.922869 184.968191 
L 387.922869 184.968191 
" clip-path="url(#p54ce662fd8)" style="fill: none; stroke: #bdab62; stroke-width: 1.5; stroke-linecap: square"/>
   </g>
   <g id="patch_3">
    <path d="M 67.103125 241.036875 
L 67.103125 10.8 
" style="fill: none; stroke: #000000; stroke-width: 0.8; stroke-linejoin: miter; stroke-linecap: square"/>
   </g>
   <g id="patch_4">
    <path d="M 403.2 241.036875 
L 403.2 10.8 
" style="fill: none; stroke: #000000; stroke-width: 0.8; stroke-linejoin: miter; stroke-linecap: square"/>
   </g>
   <g id="patch_5">
    <path d="M 67.103125 241.036875 
L 403.2 241.036875 
" style="fill: none; stroke: #000000; stroke-width: 0.8; stroke-linejoin: miter; stroke-linecap: square"/>
   </g>
   <g id="patch_6">
    <path d="M 67.103125 10.8 
L 403.2 10.8 
" style="fill: none; stroke: #000000; stroke-width: 0.8; stroke-linejoin: miter; stroke-linecap: square"/>
   </g>
   <g id="legend_1">
    <g id="patch_7">
     <path d="M 344.34 236.536875 
L 396.9 236.536875 
Q 398.7 236.536875 398.7 234.736875 
L 398.7 194.871094 
Q 398.7 193.071094 396.9 193.071094 
L 344.34 193.071094 
Q 342.54 193.071094 342.54 194.871094 
L 342.54 234.736875 
Q 342.54 236.536875 344.34 236.536875 
z
" style="fill: #ffffff; opacity: 0.8; stroke: #cccccc; stroke-linejoin: miter"/>
    </g>
    <g id="line2d_14">
     <path d="M 346.14 200.359687 
L 355.14 200.359687 
L 364.14 200.359687 
" style="fill: none; stroke: #2b737e; stroke-width: 1.5; stroke-linecap: square"/>
    </g>
    <g id="text_13">
     <!-- $\omega_{BR,0}$ -->
     <g transform="translate(371.34 203.509687) scale(0.09 -0.09)">
      <defs>
       <path id="DejaVuSans-Oblique-3c9" d="M 1369 -91 
Q 72 -91 434 1766 
Q 575 2500 1256 3500 
L 1875 3500 
Q 1231 2500 1088 1750 
Q 819 397 1519 397 
Q 2166 397 2478 2078 
L 3009 2078 
Q 2669 388 3316 397 
Q 4013 403 4275 1750 
Q 4419 2500 4169 3500 
L 4788 3500 
Q 5075 2500 4934 1766 
Q 4578 -94 3278 -91 
Q 2428 -88 2503 844 
Q 2194 -91 1369 -91 
z
" transform="scale(0.015625)"/>
       <path id="DejaVuSans-Oblique-42" d="M 1081 4666 
L 2694 4666 
Q 3350 4666 3675 4422 
Q 4000 4178 4000 3688 
Q 4000 3238 3720 2911 
Q 3441 2584 2988 2516 
Q 3375 2428 3569 2181 
Q 3763 1934 3763 1522 
Q 3763 819 3242 409 
Q 2722 0 1819 0 
L 172 0 
L 1081 4666 
z
M 1234 2228 
L 903 519 
L 1919 519 
Q 2491 519 2800 781 
Q 3109 1044 3109 1522 
Q 3109 1891 2904 2059 
Q 2700 2228 2247 2228 
L 1234 2228 
z
M 1606 4147 
L 1331 2741 
L 2272 2741 
Q 2775 2741 3058 2959 
Q 3341 3178 3341 3566 
Q 3341 3869 3150 4008 
Q 2959 4147 2541 4147 
L 1606 4147 
z
" transform="scale(0.015625)"/>
       <path id="DejaVuSans-Oblique-52" d="M 1613 4147 
L 1294 2491 
L 2106 2491 
Q 2584 2491 2879 2755 
Q 3175 3019 3175 3444 
Q 3175 3784 2976 3965 
Q 2778 4147 2406 4147 
L 1613 4147 
z
M 2772 2241 
Q 2972 2194 3105 2009 
Q 3238 1825 3413 1275 
L 3809 0 
L 3144 0 
L 2778 1197 
Q 2638 1659 2453 1815 
Q 2269 1972 1888 1972 
L 1191 1972 
L 806 0 
L 172 0 
L 1081 4666 
L 2503 4666 
Q 3150 4666 3495 4373 
Q 3841 4081 3841 3531 
Q 3841 3044 3547 2687 
Q 3253 2331 2772 2241 
z
" transform="scale(0.015625)"/>
       <path id="DejaVuSans-2c" d="M 750 794 
L 1409 794 
L 1409 256 
L 897 -744 
L 494 -744 
L 750 256 
L 750 794 
z
" transform="scale(0.015625)"/>
      </defs>
      <use xlink:href="#DejaVuSans-Oblique-3c9" transform="translate(0 0.3125)"/>
      <use xlink:href="#DejaVuSans-Oblique-42" transform="translate(83.740234 -16.09375) scale(0.7)"/>
      <use xlink:href="#DejaVuSans-Oblique-52" transform="translate(131.762695 -16.09375) scale(0.7)"/>
      <use xlink:href="#DejaVuSans-2c" transform="translate(180.400391 -16.09375) scale(0.7)"/>
      <use xlink:href="#DejaVuSans-30" transform="translate(216.289062 -16.09375) scale(0.7)"/>
     </g>
    </g>
    <g id="line2d_15">
     <path d="M 346.14 213.948281 
L 355.14 213.948281 
L 364.14 213.948281 
" style="fill: none; stroke: #5ea04b; stroke-width: 1.5; stroke-linecap: square"/>
    </g>
    <g id="text_14">
     <!-- $\omega_{BR,1}$ -->
     <g transform="translate(371.34 217.098281) scale(0.09 -0.09)">
      <use xlink:href="#DejaVuSans-Oblique-3c9" transform="translate(0 0.3125)"/>
      <use xlink:href="#DejaVuSans-Oblique-42" transform="translate(83.740234 -16.09375) scale(0.7)"/>
      <use xlink:href="#DejaVuSans-Oblique-52" transform="translate(131.762695 -16.09375) scale(0.7)"/>
      <use xlink:href="#DejaVuSans-2c" transform="translate(180.400391 -16.09375) scale(0.7)"/>
      <use xlink:href="#DejaVuSans-31" transform="translate(216.289062 -16.09375) scale(0.7)"/>
     </g>
    </g>
    <g id="line2d_16">
     <path d="M 346.14 227.536875 
L 355.14 227.536875 
L 364.14 227.536875 
" style="fill: none; stroke: #bdab62; stroke-width: 1.5; stroke-linecap: square"/>
    </g>
    <g id="text_15">
     <!-- $\omega_{BR,2}$ -->
     <g transform="translate(371.34 230.686875) scale(0.09 -0.09)">
      <use xlink:href="#DejaVuSans-Oblique-3c9" transform="translate(0 0.3125)"/>
      <use xlink:href="#DejaVuSans-Oblique-42" transform="translate(83.740234 -16.09375) scale(0.7)"/>
      <use xlink:href="#DejaVuSans-Oblique-52" transform="translate(131.762695 -16.09375) scale(0.7)"/>
      <use xlink:href="#DejaVuSans-2c" transform="translate(180.400391 -16.09375) scale(0.7)"/>
      <use xlink:href="#DejaVuSans-32" transform="translate(216.289062 -16.09375) scale(0.7)"/>
     </g>
    </g>
   </g>
  </g>
 </g>
 <defs>
  <clipPath id="p54ce662fd8">
   <rect x="67.103125" y="10.8" width="336.096875" height="230.236875"/>
  </clipPath>
 </defs>
</svg>
