<?xml version="1.0" encoding="utf-8" standalone="no"?>
<!DOCTYPE svg PUBLIC "-//W3C//DTD SVG 1.1//EN"
  "http://www.w3.org/Graphics/SVG/1.1/DTD/svg11.dtd">
<svg xmlns:xlink="http://www.w3.org/1999/xlink" width="414pt" height="180pt" viewBox="0 0 414 180" xmlns="http://www.w3.org/2000/svg" version="1.1">
 <metadata>
  <rdf:RDF xmlns:dc="http://purl.org/dc/elements/1.1/" xmlns:cc="http://creativecommons.org/ns#" xmlns:rdf="http://www.w3.org/1999/02/22-rdf-syntax-ns#">
   <cc:Work>
    <dc:type rdf:resource="http://purl.org/dc/dcmitype/StillImage"/>
    <dc:date>2026-04-02T22:57:46.493055</dc:date>
    <dc:format>image/svg+xml</dc:format>
    <dc:creator>
     <cc:Agent>
      <dc:title>Matplotlib v3.10.7, https://matplotlib.org/</dc:title>
     </cc:Agent>
    </dc:creator>
   </cc:Work>
  </rdf:RDF>
 </metadata>
 <defs>
  <style type="text/css">*{stroke-linejoin: round; stroke-linecap: butt}</style>
 </defs>
 <g id="figure_1">
  <g id="patch_1">
   <path d="M 0 180 
L 414 180 
L 414 0 
L 0 0 
L 0 180 
z
" style="fill: none"/>
  </g>
  <g id="axes_1">
   <g id="patch_2">
    <path d="M 45.812813 139.811563 
L 403.2 139.811563 
L 403.2 10.8 
L 45.812813 10.8 
L 45.812813 139.811563 
z
" style="fill: none"/>
   </g>
   <g id="matplotlib.axis_1">
    <g id="xtick_1">
     <g id="line2d_1">
      <defs>
       <path id="me4bd50fe24" d="M 0 0 
L 0 3.5 
" style="stroke: #000000; stroke-width: 0.8"/>
      </defs>
      <g>
       <use xlink:href="#me4bd50fe24" x="62.057685" y="139.811563" style="stroke: #000000; stroke-width: 0.8"/>
      </g>
     </g>
     <g id="text_1">
      <!-- 0 -->
      <g transform="translate(59.19456 153.650156) scale(0.09 -0.09)">
       <defs>
        <path id="DejaVuSans-30" d="M 2034 4250 
Q 1547 4250 1301 3770 
Q 1056 3291 1056 2328 
Q 1056 1369 1301 889 
Q 1547 409 2034 409 
Q 2525 409 2770 889 
Q 3016 1369 3016 2328 
Q 3016 3291 2770 3770 
Q 2525 4250 2034 4250 
z
M 2034 4750 
Q 2819 4750 3233 4129 
Q 3647 3509 3647 2328 
Q 3647 1150 3233 529 
Q 2819 -91 2034 -91 
Q 1250 -91 836 529 
Q 422 1150 422 2328 
Q 422 3509 836 4129 
Q 1250 4750 2034 4750 
z
" transform="scale(0.015625)"/>
       </defs>
       <use xlink:href="#DejaVuSans-30"/>
      </g>
     </g>
    </g>
    <g id="xtick_2">
     <g id="line2d_2">
      <g>
       <use xlink:href="#me4bd50fe24" x="127.037173" y="139.811563" style="stroke: #000000; stroke-width: 0.8"/>
      </g>
     </g>
     <g id="text_2">
      <!-- 2 -->
      <g transform="translate(124.174048 153.650156) scale(0.09 -0.09)">
       <defs>
        <path id="DejaVuSans-32" d="M 1228 531 
L 3431 531 
L 3431 0 
L 469 0 
L 469 531 
Q 828 903 1448 1529 
Q 2069 2156 2228 2338 
Q 2531 2678 2651 2914 
Q 2772 3150 2772 3378 
Q 2772 3750 2511 3984 
Q 2250 4219 1831 4219 
Q 1534 4219 1204 4116 
Q 875 4013 500 3803 
L 500 4441 
Q 881 4594 1212 4672 
Q 1544 4750 1819 4750 
Q 2544 4750 2975 4387 
Q 3406 4025 3406 3419 
Q 3406 3131 3298 2873 
Q 3191 2616 2906 2266 
Q 2828 2175 2409 1742 
Q 1991 1309 1228 531 
z
" transform="scale(0.015625)"/>
       </defs>
       <use xlink:href="#DejaVuSans-32"/>
      </g>
     </g>
    </g>
    <g id="xtick_3">
     <g id="line2d_3">
      <g>
       <use xlink:href="#me4bd50fe24" x="192.016662" y="139.811563" style="stroke: #000000; stroke-width: 0.8"/>
      </g>
     </g>
     <g id="text_3">
      <!-- 4 -->
      <g transform="translate(189.153537 153.650156) scale(0.09 -0.09)">
       <defs>
        <path id="DejaVuSans-34" d="M 2419 4116 
L 825 1625 
L 2419 1625 
L 2419 4116 
z
M 2253 4666 
L 3047 4666 
L 3047 1625 
L 3713 1625 
L 3713 1100 
L 3047 1100 
L 3047 0 
L 2419 0 
L 2419 1100 
L 313 1100 
L 313 1709 
L 2253 4666 
z
" transform="scale(0.015625)"/>
       </defs>
       <use xlink:href="#DejaVuSans-34"/>
      </g>
     </g>
    </g>
    <g id="xtick_4">
     <g id="line2d_4">
      <g>
       <use xlink:href="#me4bd50fe24" x="256.996151" y="139.811563" style="stroke: #000000; stroke-width: 0.8"/>
      </g>
     </g>
     <g id="text_4">
      <!-- 6 -->
      <g transform="translate(254.133026 153.650156) scale(0.09 -0.09)">
       <defs>
        <path id="DejaVuSans-36" d="M 2113 2584 
Q 1688 2584 1439 2293 
Q 1191 2003 1191 1497 
Q 1191 994 1439 701 
Q 1688 409 2113 409 
Q 2538 409 2786 701 
Q 3034 994 3034 1497 
Q 3034 2003 2786 2293 
Q 2538 2584 2113 2584 
z
M 3366 4563 
L 3366 3988 
Q 3128 4100 2886 4159 
Q 2644 4219 2406 4219 
Q 1781 4219 1451 3797 
Q 1122 3375 1075 2522 
Q 1259 2794 1537 2939 
Q 1816 3084 2150 3084 
Q 2853 3084 3261 2657 
Q 3669 2231 3669 1497 
Q 3669 778 3244 343 
Q 2819 -91 2113 -91 
Q 1303 -91 875 529 
Q 447 1150 447 2328 
Q 447 3434 972 4092 
Q 1497 4750 2381 4750 
Q 2619 4750 2861 4703 
Q 3103 4656 3366 4563 
z
" transform="scale(0.015625)"/>
       </defs>
       <use xlink:href="#DejaVuSans-36"/>
      </g>
     </g>
    </g>
    <g id="xtick_5">
     <g id="line2d_5">
      <g>
       <use xlink:href="#me4bd50fe24" x="321.975639" y="139.811563" style="stroke: #000000; stroke-width: 0.8"/>
      </g>
     </g>
     <g id="text_5">
      <!-- 8 -->
      <g transform="translate(319.112514 153.650156) scale(0.09 -0.09)">
       <defs>
        <path id="DejaVuSans-38" d="M 2034 2216 
Q 1584 2216 1326 1975 
Q 1069 1734 1069 1313 
Q 1069 891 1326 650 
Q 1584 409 2034 409 
Q 2484 409 2743 651 
Q 3003 894 3003 1313 
Q 3003 1734 2745 1975 
Q 2488 2216 2034 2216 
z
M 1403 2484 
Q 997 2584 770 2862 
Q 544 3141 544 3541 
Q 544 4100 942 4425 
Q 1341 4750 2034 4750 
Q 2731 4750 3128 4425 
Q 3525 4100 3525 3541 
Q 3525 3141 3298 2862 
Q 3072 2584 2669 2484 
Q 3125 2378 3379 2068 
Q 3634 1759 3634 1313 
Q 3634 634 3220 271 
Q 2806 -91 2034 -91 
Q 1263 -91 848 271 
Q 434 634 434 1313 
Q 434 1759 690 2068 
Q 947 2378 1403 2484 
z
M 1172 3481 
Q 1172 3119 1398 2916 
Q 1625 2713 2034 2713 
Q 2441 2713 2670 2916 
Q 2900 3119 2900 3481 
Q 2900 3844 2670 4047 
Q 2441 4250 2034 4250 
Q 1625 4250 1398 4047 
Q 1172 3844 1172 3481 
z
" transform="scale(0.015625)"/>
       </defs>
       <use xlink:href="#DejaVuSans-38"/>
      </g>
     </g>
    </g>
    <g id="xtick_6">
     <g id="line2d_6">
      <g>
       <use xlink:href="#me4bd50fe24" x="386.955128" y="139.811563" style="stroke: #000000; stroke-width: 0.8"/>
      </g>
     </g>
     <g id="text_6">
      <!-- 10 -->
      <g transform="translate(381.228878 153.650156) scale(0.09 -0.09)">
       <defs>
        <path id="DejaVuSans-31" d="M 794 531 
L 1825 531 
L 1825 4091 
L 703 3866 
L 703 4441 
L 1819 4666 
L 2450 4666 
L 2450 531 
L 3481 531 
L 3481 0 
L 794 0 
L 794 531 
z
" transform="scale(0.015625)"/>
       </defs>
       <use xlink:href="#DejaVuSans-31"/>
       <use xlink:href="#DejaVuSans-30" transform="translate(63.623047 0)"/>
      </g>
     </g>
    </g>
    <g id="text_7">
     <!-- Time [min] -->
     <g transform="translate(197.354062 167.120313) scale(0.1 -0.1)">
      <defs>
       <path id="DejaVuSans-54" d="M -19 4666 
L 3928 4666 
L 3928 4134 
L 2272 4134 
L 2272 0 
L 1638 0 
L 1638 4134 
L -19 4134 
L -19 4666 
z
" transform="scale(0.015625)"/>
       <path id="DejaVuSans-69" d="M 603 3500 
L 1178 3500 
L 1178 0 
L 603 0 
L 603 3500 
z
M 603 4863 
L 1178 4863 
L 1178 4134 
L 603 4134 
L 603 4863 
z
" transform="scale(0.015625)"/>
       <path id="DejaVuSans-6d" d="M 3328 2828 
Q 3544 3216 3844 3400 
Q 4144 3584 4550 3584 
Q 5097 3584 5394 3201 
Q 5691 2819 5691 2113 
L 5691 0 
L 5113 0 
L 5113 2094 
Q 5113 2597 4934 2840 
Q 4756 3084 4391 3084 
Q 3944 3084 3684 2787 
Q 3425 2491 3425 1978 
L 3425 0 
L 2847 0 
L 2847 2094 
Q 2847 2600 2669 2842 
Q 2491 3084 2119 3084 
Q 1678 3084 1418 2786 
Q 1159 2488 1159 1978 
L 1159 0 
L 581 0 
L 581 3500 
L 1159 3500 
L 1159 2956 
Q 1356 3278 1631 3431 
Q 1906 3584 2284 3584 
Q 2666 3584 2933 3390 
Q 3200 3197 3328 2828 
z
" transform="scale(0.015625)"/>
       <path id="DejaVuSans-65" d="M 3597 1894 
L 3597 1613 
L 953 1613 
Q 991 1019 1311 708 
Q 1631 397 2203 397 
Q 2534 397 2845 478 
Q 3156 559 3463 722 
L 3463 178 
Q 3153 47 2828 -22 
Q 2503 -91 2169 -91 
Q 1331 -91 842 396 
Q 353 884 353 1716 
Q 353 2575 817 3079 
Q 1281 3584 2069 3584 
Q 2775 3584 3186 3129 
Q 3597 2675 3597 1894 
z
M 3022 2063 
Q 3016 2534 2758 2815 
Q 2500 3097 2075 3097 
Q 1594 3097 1305 2825 
Q 1016 2553 972 2059 
L 3022 2063 
z
" transform="scale(0.015625)"/>
       <path id="DejaVuSans-20" transform="scale(0.015625)"/>
       <path id="DejaVuSans-5b" d="M 550 4863 
L 1875 4863 
L 1875 4416 
L 1125 4416 
L 1125 -397 
L 1875 -397 
L 1875 -844 
L 550 -844 
L 550 4863 
z
" transform="scale(0.015625)"/>
       <path id="DejaVuSans-6e" d="M 3513 2113 
L 3513 0 
L 2938 0 
L 2938 2094 
Q 2938 2591 2744 2837 
Q 2550 3084 2163 3084 
Q 1697 3084 1428 2787 
Q 1159 2491 1159 1978 
L 1159 0 
L 581 0 
L 581 3500 
L 1159 3500 
L 1159 2956 
Q 1366 3272 1645 3428 
Q 1925 3584 2291 3584 
Q 2894 3584 3203 3211 
Q 3513 2838 3513 2113 
z
" transform="scale(0.015625)"/>
       <path id="DejaVuSans-5d" d="M 1947 4863 
L 1947 -844 
L 622 -844 
L 622 -397 
L 1369 -397 
L 1369 4416 
L 622 4416 
L 622 4863 
L 1947 4863 
z
" transform="scale(0.015625)"/>
      </defs>
      <use xlink:href="#DejaVuSans-54"/>
      <use xlink:href="#DejaVuSans-69" transform="translate(57.958984 0)"/>
      <use xlink:href="#DejaVuSans-6d" transform="translate(85.742188 0)"/>
      <use xlink:href="#DejaVuSans-65" transform="translate(183.154297 0)"/>
      <use xlink:href="#DejaVuSans-20" transform="translate(244.677734 0)"/>
      <use xlink:href="#DejaVuSans-5b" transform="translate(276.464844 0)"/>
      <use xlink:href="#DejaVuSans-6d" transform="translate(315.478516 0)"/>
      <use xlink:href="#DejaVuSans-69" transform="translate(412.890625 0)"/>
      <use xlink:href="#DejaVuSans-6e" transform="translate(440.673828 0)"/>
      <use xlink:href="#DejaVuSans-5d" transform="translate(504.052734 0)"/>
     </g>
    </g>
   </g>
   <g id="matplotlib.axis_2">
    <g id="ytick_1">
     <g id="line2d_7">
      <defs>
       <path id="m1cf354860d" d="M 0 0 
L -3.5 0 
" style="stroke: #000000; stroke-width: 0.8"/>
      </defs>
      <g>
       <use xlink:href="#m1cf354860d" x="45.812813" y="119.599519" style="stroke: #000000; stroke-width: 0.8"/>
      </g>
     </g>
     <g id="text_8">
      <!-- 0.0 -->
      <g transform="translate(24.5 123.018816) scale(0.09 -0.09)">
       <defs>
        <path id="DejaVuSans-2e" d="M 684 794 
L 1344 794 
L 1344 0 
L 684 0 
L 684 794 
z
" transform="scale(0.015625)"/>
       </defs>
       <use xlink:href="#DejaVuSans-30"/>
       <use xlink:href="#DejaVuSans-2e" transform="translate(63.623047 0)"/>
       <use xlink:href="#DejaVuSans-30" transform="translate(95.410156 0)"/>
      </g>
     </g>
    </g>
    <g id="ytick_2">
     <g id="line2d_8">
      <g>
       <use xlink:href="#m1cf354860d" x="45.812813" y="85.287733" style="stroke: #000000; stroke-width: 0.8"/>
      </g>
     </g>
     <g id="text_9">
      <!-- 0.2 -->
      <g transform="translate(24.5 88.70703) scale(0.09 -0.09)">
       <use xlink:href="#DejaVuSans-30"/>
       <use xlink:href="#DejaVuSans-2e" transform="translate(63.623047 0)"/>
       <use xlink:href="#DejaVuSans-32" transform="translate(95.410156 0)"/>
      </g>
     </g>
    </g>
    <g id="ytick_3">
     <g id="line2d_9">
      <g>
       <use xlink:href="#m1cf354860d" x="45.812813" y="50.975948" style="stroke: #000000; stroke-width: 0.8"/>
      </g>
     </g>
     <g id="text_10">
      <!-- 0.4 -->
      <g transform="translate(24.5 54.395245) scale(0.09 -0.09)">
       <use xlink:href="#DejaVuSans-30"/>
       <use xlink:href="#DejaVuSans-2e" transform="translate(63.623047 0)"/>
       <use xlink:href="#DejaVuSans-34" transform="translate(95.410156 0)"/>
      </g>
     </g>
    </g>
    <g id="ytick_4">
     <g id="line2d_10">
      <g>
       <use xlink:href="#m1cf354860d" x="45.812813" y="16.664162" style="stroke: #000000; stroke-width: 0.8"/>
      </g>
     </g>
     <g id="text_11">
      <!-- 0.6 -->
      <g transform="translate(24.5 20.083459) scale(0.09 -0.09)">
       <use xlink:href="#DejaVuSans-30"/>
       <use xlink:href="#DejaVuSans-2e" transform="translate(63.623047 0)"/>
       <use xlink:href="#DejaVuSans-36" transform="translate(95.410156 0)"/>
      </g>
     </g>
    </g>
    <g id="text_12">
     <!-- Control Torque $L_r$ [Nm] -->
     <g transform="translate(18.4 132.755781) rotate(-90) scale(0.1 -0.1)">
      <defs>
       <path id="DejaVuSans-43" d="M 4122 4306 
L 4122 3641 
Q 3803 3938 3442 4084 
Q 3081 4231 2675 4231 
Q 1875 4231 1450 3742 
Q 1025 3253 1025 2328 
Q 1025 1406 1450 917 
Q 1875 428 2675 428 
Q 3081 428 3442 575 
Q 3803 722 4122 1019 
L 4122 359 
Q 3791 134 3420 21 
Q 3050 -91 2638 -91 
Q 1578 -91 968 557 
Q 359 1206 359 2328 
Q 359 3453 968 4101 
Q 1578 4750 2638 4750 
Q 3056 4750 3426 4639 
Q 3797 4528 4122 4306 
z
" transform="scale(0.015625)"/>
       <path id="DejaVuSans-6f" d="M 1959 3097 
Q 1497 3097 1228 2736 
Q 959 2375 959 1747 
Q 959 1119 1226 758 
Q 1494 397 1959 397 
Q 2419 397 2687 759 
Q 2956 1122 2956 1747 
Q 2956 2369 2687 2733 
Q 2419 3097 1959 3097 
z
M 1959 3584 
Q 2709 3584 3137 3096 
Q 3566 2609 3566 1747 
Q 3566 888 3137 398 
Q 2709 -91 1959 -91 
Q 1206 -91 779 398 
Q 353 888 353 1747 
Q 353 2609 779 3096 
Q 1206 3584 1959 3584 
z
" transform="scale(0.015625)"/>
       <path id="DejaVuSans-74" d="M 1172 4494 
L 1172 3500 
L 2356 3500 
L 2356 3053 
L 1172 3053 
L 1172 1153 
Q 1172 725 1289 603 
Q 1406 481 1766 481 
L 2356 481 
L 2356 0 
L 1766 0 
Q 1100 0 847 248 
Q 594 497 594 1153 
L 594 3053 
L 172 3053 
L 172 3500 
L 594 3500 
L 594 4494 
L 1172 4494 
z
" transform="scale(0.015625)"/>
       <path id="DejaVuSans-72" d="M 2631 2963 
Q 2534 3019 2420 3045 
Q 2306 3072 2169 3072 
Q 1681 3072 1420 2755 
Q 1159 2438 1159 1844 
L 1159 0 
L 581 0 
L 581 3500 
L 1159 3500 
L 1159 2956 
Q 1341 3275 1631 3429 
Q 1922 3584 2338 3584 
Q 2397 3584 2469 3576 
Q 2541 3569 2628 3553 
L 2631 2963 
z
" transform="scale(0.015625)"/>
       <path id="DejaVuSans-6c" d="M 603 4863 
L 1178 4863 
L 1178 0 
L 603 0 
L 603 4863 
z
" transform="scale(0.015625)"/>
       <path id="DejaVuSans-71" d="M 947 1747 
Q 947 1113 1208 752 
Q 1469 391 1925 391 
Q 2381 391 2643 752 
Q 2906 1113 2906 1747 
Q 2906 2381 2643 2742 
Q 2381 3103 1925 3103 
Q 1469 3103 1208 2742 
Q 947 2381 947 1747 
z
M 2906 525 
Q 2725 213 2448 61 
Q 2172 -91 1784 -91 
Q 1150 -91 751 415 
Q 353 922 353 1747 
Q 353 2572 751 3078 
Q 1150 3584 1784 3584 
Q 2172 3584 2448 3432 
Q 2725 3281 2906 2969 
L 2906 3500 
L 3481 3500 
L 3481 -1331 
L 2906 -1331 
L 2906 525 
z
" transform="scale(0.015625)"/>
       <path id="DejaVuSans-75" d="M 544 1381 
L 544 3500 
L 1119 3500 
L 1119 1403 
Q 1119 906 1312 657 
Q 1506 409 1894 409 
Q 2359 409 2629 706 
Q 2900 1003 2900 1516 
L 2900 3500 
L 3475 3500 
L 3475 0 
L 2900 0 
L 2900 538 
Q 2691 219 2414 64 
Q 2138 -91 1772 -91 
Q 1169 -91 856 284 
Q 544 659 544 1381 
z
M 1991 3584 
L 1991 3584 
z
" transform="scale(0.015625)"/>
       <path id="DejaVuSans-Oblique-4c" d="M 1075 4666 
L 1709 4666 
L 909 525 
L 3181 525 
L 3078 0 
L 172 0 
L 1075 4666 
z
" transform="scale(0.015625)"/>
       <path id="DejaVuSans-Oblique-72" d="M 2853 2969 
Q 2766 3016 2653 3041 
Q 2541 3066 2413 3066 
Q 1953 3066 1609 2717 
Q 1266 2369 1153 1784 
L 800 0 
L 225 0 
L 909 3500 
L 1484 3500 
L 1375 2956 
Q 1603 3259 1920 3421 
Q 2238 3584 2597 3584 
Q 2691 3584 2781 3573 
Q 2872 3563 2963 3538 
L 2853 2969 
z
" transform="scale(0.015625)"/>
       <path id="DejaVuSans-4e" d="M 628 4666 
L 1478 4666 
L 3547 763 
L 3547 4666 
L 4159 4666 
L 4159 0 
L 3309 0 
L 1241 3903 
L 1241 0 
L 628 0 
L 628 4666 
z
" transform="scale(0.015625)"/>
      </defs>
      <use xlink:href="#DejaVuSans-43" transform="translate(0 0.015625)"/>
      <use xlink:href="#DejaVuSans-6f" transform="translate(69.824219 0.015625)"/>
      <use xlink:href="#DejaVuSans-6e" transform="translate(131.005859 0.015625)"/>
      <use xlink:href="#DejaVuSans-74" transform="translate(194.384766 0.015625)"/>
      <use xlink:href="#DejaVuSans-72" transform="translate(233.59375 0.015625)"/>
      <use xlink:href="#DejaVuSans-6f" transform="translate(274.707031 0.015625)"/>
      <use xlink:href="#DejaVuSans-6c" transform="translate(335.888672 0.015625)"/>
      <use xlink:href="#DejaVuSans-20" transform="translate(363.671875 0.015625)"/>
      <use xlink:href="#DejaVuSans-54" transform="translate(395.458984 0.015625)"/>
      <use xlink:href="#DejaVuSans-6f" transform="translate(456.542969 0.015625)"/>
      <use xlink:href="#DejaVuSans-72" transform="translate(517.724609 0.015625)"/>
      <use xlink:href="#DejaVuSans-71" transform="translate(558.837891 0.015625)"/>
      <use xlink:href="#DejaVuSans-75" transform="translate(622.314453 0.015625)"/>
      <use xlink:href="#DejaVuSans-65" transform="translate(685.693359 0.015625)"/>
      <use xlink:href="#DejaVuSans-20" transform="translate(747.216797 0.015625)"/>
      <use xlink:href="#DejaVuSans-Oblique-4c" transform="translate(779.003906 0.015625)"/>
      <use xlink:href="#DejaVuSans-Oblique-72" transform="translate(834.716797 -16.390625) scale(0.7)"/>
      <use xlink:href="#DejaVuSans-20" transform="translate(866.230469 0.015625)"/>
      <use xlink:href="#DejaVuSans-5b" transform="translate(898.017578 0.015625)"/>
      <use xlink:href="#DejaVuSans-4e" transform="translate(937.03125 0.015625)"/>
      <use xlink:href="#DejaVuSans-6d" transform="translate(1011.835938 0.015625)"/>
      <use xlink:href="#DejaVuSans-5d" transform="translate(1109.248047 0.015625)"/>
     </g>
    </g>
   </g>
   <g id="line2d_11">
    <path d="M 62.057685 16.664162 
L 65.306659 20.592204 
L 68.555634 26.976781 
L 71.804608 35.136963 
L 75.053582 44.500511 
L 78.302557 54.560022 
L 81.551531 64.874163 
L 84.800506 75.069403 
L 88.04948 84.84076 
L 91.298455 93.950663 
L 94.547429 102.225641 
L 97.796403 109.55107 
L 101.045378 115.864481 
L 104.294352 121.148023 
L 107.543327 125.420657 
L 110.792301 128.730533 
L 114.041276 131.147858 
L 117.29025 132.758445 
L 120.539224 133.658031 
L 123.788199 133.947401 
L 127.037173 133.728279 
L 130.286148 133.099973 
L 133.535122 132.156701 
L 136.784097 130.985565 
L 140.033071 129.665101 
L 143.282045 128.264351 
L 146.53102 126.842402 
L 149.779994 125.448307 
L 153.028969 124.121345 
L 156.277943 122.891541 
L 159.526918 121.780384 
L 162.775892 120.801692 
L 166.024866 119.962565 
L 169.273841 119.264372 
L 172.522815 118.703755 
L 175.77179 118.273588 
L 179.020764 117.963892 
L 182.269739 117.762666 
L 185.518713 117.65664 
L 188.767688 117.631923 
L 192.016662 117.674561 
L 195.265636 117.770989 
L 198.514611 117.908392 
L 201.763585 118.074978 
L 205.01256 118.260165 
L 208.261534 118.4547 
L 211.510509 118.65071 
L 214.759483 118.841704 
L 218.008457 119.022527 
L 221.257432 119.189282 
L 224.506406 119.339228 
L 227.755381 119.470653 
L 231.004355 119.582746 
L 234.25333 119.675457 
L 237.502304 119.749361 
L 240.751278 119.805527 
L 244.000253 119.845394 
L 247.249227 119.870658 
L 250.498202 119.883171 
L 253.747176 119.884856 
L 256.996151 119.87763 
L 260.245125 119.863347 
L 263.494099 119.843747 
L 266.743074 119.820425 
L 269.992048 119.794805 
L 273.241023 119.768125 
L 276.489997 119.741433 
L 279.738972 119.715587 
L 282.987946 119.691263 
L 286.23692 119.668964 
L 289.485895 119.64904 
L 292.734869 119.6317 
L 295.983844 119.617035 
L 299.232818 119.605032 
L 302.481793 119.595597 
L 305.730767 119.588572 
L 308.979741 119.58375 
L 312.228716 119.580892 
L 315.47769 119.57974 
L 318.726665 119.580028 
L 321.975639 119.581493 
L 325.224614 119.583882 
L 328.473588 119.586959 
L 331.722563 119.590508 
L 334.971537 119.594338 
L 338.220511 119.598283 
L 341.469486 119.602205 
L 344.71846 119.60599 
L 347.967435 119.60955 
L 351.216409 119.612819 
L 354.465384 119.615754 
L 357.714358 119.618329 
L 360.963332 119.620534 
L 364.212307 119.622375 
L 367.461281 119.623865 
L 370.710256 119.625028 
L 373.95923 119.625894 
L 377.208205 119.626496 
L 380.457179 119.62687 
L 383.706153 119.627053 
L 386.955128 119.627081 
" clip-path="url(#p938dc00441)" style="fill: none; stroke: #2b737e; stroke-width: 1.5; stroke-linecap: square"/>
   </g>
   <g id="line2d_12">
    <path d="M 62.057685 119.084842 
L 65.306659 119.187218 
L 68.555634 119.264455 
L 71.804608 119.317352 
L 75.053582 119.351165 
L 78.302557 119.371039 
L 81.551531 119.380959 
L 84.800506 119.383669 
L 88.04948 119.381008 
L 91.298455 119.374325 
L 94.547429 119.364786 
L 97.796403 119.353526 
L 101.045378 119.341666 
L 104.294352 119.330252 
L 107.543327 119.320165 
L 110.792301 119.312046 
L 114.041276 119.306244 
L 117.29025 119.302819 
L 120.539224 119.301562 
L 123.788199 119.302055 
L 127.037173 119.30373 
L 130.286148 119.305943 
L 133.535122 119.308039 
L 136.784097 119.309404 
L 140.033071 119.309513 
L 143.282045 119.307957 
L 146.53102 119.304461 
L 149.779994 119.298883 
L 153.028969 119.291208 
L 156.277943 119.281532 
L 159.526918 119.270038 
L 162.775892 119.256969 
L 166.024866 119.242606 
L 169.273841 119.227244 
L 172.522815 119.211169 
L 175.77179 119.194649 
L 179.020764 119.177917 
L 182.269739 119.16117 
L 185.518713 119.144567 
L 188.767688 119.128228 
L 192.016662 119.112238 
L 195.265636 119.096655 
L 198.514611 119.081511 
L 201.763585 119.066815 
L 205.01256 119.052565 
L 208.261534 119.038744 
L 211.510509 119.025327 
L 214.759483 119.012283 
L 218.008457 118.999576 
L 221.257432 118.987167 
L 224.506406 118.975014 
L 227.755381 118.963077 
L 231.004355 118.951312 
L 234.25333 118.939679 
L 237.502304 118.928138 
L 240.751278 118.916652 
L 244.000253 118.905187 
L 247.249227 118.893712 
L 250.498202 118.882201 
L 253.747176 118.870633 
L 256.996151 118.85899 
L 260.245125 118.84726 
L 263.494099 118.835435 
L 266.743074 118.823511 
L 269.992048 118.811488 
L 273.241023 118.79937 
L 276.489997 118.787163 
L 279.738972 118.774875 
L 282.987946 118.762516 
L 286.23692 118.750098 
L 289.485895 118.737631 
L 292.734869 118.725127 
L 295.983844 118.712599 
L 299.232818 118.700055 
L 302.481793 118.687506 
L 305.730767 118.674961 
L 308.979741 118.662426 
L 312.228716 118.649908 
L 315.47769 118.637411 
L 318.726665 118.624939 
L 321.975639 118.612494 
L 325.224614 118.600077 
L 328.473588 118.587688 
L 331.722563 118.575327 
L 334.971537 118.562992 
L 338.220511 118.550681 
L 341.469486 118.538392 
L 344.71846 118.526123 
L 347.967435 118.51387 
L 351.216409 118.501631 
L 354.465384 118.489403 
L 357.714358 118.477183 
L 360.963332 118.464969 
L 364.212307 118.452758 
L 367.461281 118.440549 
L 370.710256 118.42834 
L 373.95923 118.416129 
L 377.208205 118.403915 
L 380.457179 118.391698 
L 383.706153 118.379476 
L 386.955128 118.36725 
" clip-path="url(#p938dc00441)" style="fill: none; stroke: #5ea04b; stroke-width: 1.5; stroke-linecap: square"/>
   </g>
   <g id="line2d_13">
    <path d="M 62.057685 119.393649 
L 65.306659 119.397238 
L 68.555634 119.409481 
L 71.804608 119.419975 
L 75.053582 119.424311 
L 78.302557 119.422251 
L 81.551531 119.415791 
L 84.800506 119.407668 
L 88.04948 119.400391 
L 91.298455 119.395749 
L 94.547429 119.394649 
L 97.796403 119.397184 
L 101.045378 119.402819 
L 104.294352 119.410636 
L 107.543327 119.419563 
L 110.792301 119.428575 
L 114.041276 119.436826 
L 117.29025 119.443731 
L 120.539224 119.448973 
L 123.788199 119.452485 
L 127.037173 119.454388 
L 130.286148 119.45493 
L 133.535122 119.454415 
L 136.784097 119.453152 
L 140.033071 119.451413 
L 143.282045 119.449414 
L 146.53102 119.447303 
L 149.779994 119.445169 
L 153.028969 119.443055 
L 156.277943 119.440972 
L 159.526918 119.438915 
L 162.775892 119.436879 
L 166.024866 119.434866 
L 169.273841 119.432891 
L 172.522815 119.43098 
L 175.77179 119.429171 
L 179.020764 119.427506 
L 182.269739 119.426028 
L 185.518713 119.424774 
L 188.767688 119.423774 
L 192.016662 119.423044 
L 195.265636 119.422587 
L 198.514611 119.422393 
L 201.763585 119.42244 
L 205.01256 119.422699 
L 208.261534 119.42313 
L 211.510509 119.423694 
L 214.759483 119.424348 
L 218.008457 119.425051 
L 221.257432 119.425767 
L 224.506406 119.426463 
L 227.755381 119.427114 
L 231.004355 119.427698 
L 234.25333 119.428204 
L 237.502304 119.428622 
L 240.751278 119.428949 
L 244.000253 119.429187 
L 247.249227 119.429341 
L 250.498202 119.429418 
L 253.747176 119.429427 
L 256.996151 119.429379 
L 260.245125 119.429285 
L 263.494099 119.429156 
L 266.743074 119.429002 
L 269.992048 119.428833 
L 273.241023 119.428657 
L 276.489997 119.428482 
L 279.738972 119.428314 
L 282.987946 119.428159 
L 286.23692 119.42802 
L 289.485895 119.4279 
L 292.734869 119.427801 
L 295.983844 119.427724 
L 299.232818 119.427669 
L 302.481793 119.427634 
L 305.730767 119.427619 
L 308.979741 119.427622 
L 312.228716 119.427641 
L 315.47769 119.427674 
L 318.726665 119.427717 
L 321.975639 119.427769 
L 325.224614 119.427826 
L 328.473588 119.427888 
L 331.722563 119.427951 
L 334.971537 119.428014 
L 338.220511 119.428075 
L 341.469486 119.428132 
L 344.71846 119.428185 
L 347.967435 119.428233 
L 351.216409 119.428275 
L 354.465384 119.428311 
L 357.714358 119.42834 
L 360.963332 119.428364 
L 364.212307 119.428381 
L 367.461281 119.428394 
L 370.710256 119.428401 
L 373.95923 119.428405 
L 377.208205 119.428404 
L 380.457179 119.428401 
L 383.706153 119.428395 
L 386.955128 119.428387 
" clip-path="url(#p938dc00441)" style="fill: none; stroke: #bdab62; stroke-width: 1.5; stroke-linecap: square"/>
   </g>
   <g id="patch_3">
    <path d="M 45.812813 139.811563 
L 45.812813 10.8 
" style="fill: none; stroke: #000000; stroke-width: 0.8; stroke-linejoin: miter; stroke-linecap: square"/>
   </g>
   <g id="patch_4">
    <path d="M 403.2 139.811563 
L 403.2 10.8 
" style="fill: none; stroke: #000000; stroke-width: 0.8; stroke-linejoin: miter; stroke-linecap: square"/>
   </g>
   <g id="patch_5">
    <path d="M 45.812813 139.811563 
L 403.2 139.811563 
" style="fill: none; stroke: #000000; stroke-width: 0.8; stroke-linejoin: miter; stroke-linecap: square"/>
   </g>
   <g id="patch_6">
    <path d="M 45.812813 10.8 
L 403.2 10.8 
" style="fill: none; stroke: #000000; stroke-width: 0.8; stroke-linejoin: miter; stroke-linecap: square"/>
   </g>
   <g id="legend_1">
    <g id="patch_7">
     <path d="M 352.98 58.765781 
L 396.9 58.765781 
Q 398.7 58.765781 398.7 56.965781 
L 398.7 17.1 
Q 398.7 15.3 396.9 15.3 
L 352.98 15.3 
Q 351.18 15.3 351.18 17.1 
L 351.18 56.965781 
Q 351.18 58.765781 352.98 58.765781 
z
" style="fill: #ffffff; opacity: 0.8; stroke: #cccccc; stroke-linejoin: miter"/>
    </g>
    <g id="line2d_14">
     <path d="M 354.78 22.588594 
L 363.78 22.588594 
L 372.78 22.588594 
" style="fill: none; stroke: #2b737e; stroke-width: 1.5; stroke-linecap: square"/>
    </g>
    <g id="text_13">
     <!-- $L_{r,0}$ -->
     <g transform="translate(379.98 25.738594) scale(0.09 -0.09)">
      <defs>
       <path id="DejaVuSans-2c" d="M 750 794 
L 1409 794 
L 1409 256 
L 897 -744 
L 494 -744 
L 750 256 
L 750 794 
z
" transform="scale(0.015625)"/>
      </defs>
      <use xlink:href="#DejaVuSans-Oblique-4c" transform="translate(0 0.09375)"/>
      <use xlink:href="#DejaVuSans-Oblique-72" transform="translate(55.712891 -16.3125) scale(0.7)"/>
      <use xlink:href="#DejaVuSans-2c" transform="translate(84.492188 -16.3125) scale(0.7)"/>
      <use xlink:href="#DejaVuSans-30" transform="translate(120.380859 -16.3125) scale(0.7)"/>
     </g>
    </g>
    <g id="line2d_15">
     <path d="M 354.78 36.177188 
L 363.78 36.177188 
L 372.78 36.177188 
" style="fill: none; stroke: #5ea04b; stroke-width: 1.5; stroke-linecap: square"/>
    </g>
    <g id="text_14">
     <!-- $L_{r,1}$ -->
     <g transform="translate(379.98 39.327188) scale(0.09 -0.09)">
      <use xlink:href="#DejaVuSans-Oblique-4c" transform="translate(0 0.09375)"/>
      <use xlink:href="#DejaVuSans-Oblique-72" transform="translate(55.712891 -16.3125) scale(0.7)"/>
      <use xlink:href="#DejaVuSans-2c" transform="translate(84.492188 -16.3125) scale(0.7)"/>
      <use xlink:href="#DejaVuSans-31" transform="translate(120.380859 -16.3125) scale(0.7)"/>
     </g>
    </g>
    <g id="line2d_16">
     <path d="M 354.78 49.765781 
L 363.78 49.765781 
L 372.78 49.765781 
" style="fill: none; stroke: #bdab62; stroke-width: 1.5; stroke-linecap: square"/>
    </g>
    <g id="text_15">
     <!-- $L_{r,2}$ -->
     <g transform="translate(379.98 52.915781) scale(0.09 -0.09)">
      <use xlink:href="#DejaVuSans-Oblique-4c" transform="translate(0 0.09375)"/>
      <use xlink:href="#DejaVuSans-Oblique-72" transform="translate(55.712891 -16.3125) scale(0.7)"/>
      <use xlink:href="#DejaVuSans-2c" transform="translate(84.492188 -16.3125) scale(0.7)"/>
      <use xlink:href="#DejaVuSans-32" transform="translate(120.380859 -16.3125) scale(0.7)"/>
     </g>
    </g>
   </g>
  </g>
 </g>
 <defs>
  <clipPath id="p938dc00441">
   <rect x="45.812813" y="10.8" width="357.387187" height="129.011562"/>
  </clipPath>
 </defs>
</svg>
