<?xml version="1.0" encoding="utf-8" standalone="no"?>
<!DOCTYPE svg PUBLIC "-//W3C//DTD SVG 1.1//EN"
  "http://www.w3.org/Graphics/SVG/1.1/DTD/svg11.dtd">
<svg xmlns:xlink="http://www.w3.org/1999/xlink" width="360pt" height="288pt" viewBox="0 0 360 288" xmlns="http://www.w3.org/2000/svg" version="1.1">
 <metadata>
  <rdf:RDF xmlns:dc="http://purl.org/dc/elements/1.1/" xmlns:cc="http://creativecommons.org/ns#" xmlns:rdf="http://www.w3.org/1999/02/22-rdf-syntax-ns#">
   <cc:Work>
    <dc:type rdf:resource="http://purl.org/dc/dcmitype/StillImage"/>
    <dc:date>2025-04-24T17:23:12.458321</dc:date>
    <dc:format>image/svg+xml</dc:format>
    <dc:creator>
     <cc:Agent>
      <dc:title>Matplotlib v3.10.1, https://matplotlib.org/</dc:title>
     </cc:Agent>
    </dc:creator>
   </cc:Work>
  </rdf:RDF>
 </metadata>
 <defs>
  <style type="text/css">*{stroke-linejoin: round; stroke-linecap: butt}</style>
 </defs>
 <g id="figure_1">
  <g id="patch_1">
   <path d="M 0 288 
L 360 288 
L 360 0 
L 0 0 
L 0 288 
z
" style="fill: none"/>
  </g>
  <g id="axes_1">
   <g id="patch_2">
    <path d="M 55.065625 241.036875 
L 349.2 241.036875 
L 349.2 25.9575 
L 55.065625 25.9575 
L 55.065625 241.036875 
z
" style="fill: none"/>
   </g>
   <g id="matplotlib.axis_1">
    <g id="xtick_1">
     <g id="line2d_1">
      <defs>
       <path id="mc7ea2d72c9" d="M 0 0 
L 0 3.5 
" style="stroke: #000000; stroke-width: 0.8"/>
      </defs>
      <g>
       <use xlink:href="#mc7ea2d72c9" x="68.435369" y="241.036875" style="stroke: #000000; stroke-width: 0.8"/>
      </g>
     </g>
     <g id="text_1">
      <!-- 0 -->
      <g transform="translate(63.345369 260.194375) scale(0.16 -0.16)">
       <defs>
        <path id="DejaVuSans-30" d="M 2034 4250 
Q 1547 4250 1301 3770 
Q 1056 3291 1056 2328 
Q 1056 1369 1301 889 
Q 1547 409 2034 409 
Q 2525 409 2770 889 
Q 3016 1369 3016 2328 
Q 3016 3291 2770 3770 
Q 2525 4250 2034 4250 
z
M 2034 4750 
Q 2819 4750 3233 4129 
Q 3647 3509 3647 2328 
Q 3647 1150 3233 529 
Q 2819 -91 2034 -91 
Q 1250 -91 836 529 
Q 422 1150 422 2328 
Q 422 3509 836 4129 
Q 1250 4750 2034 4750 
z
" transform="scale(0.015625)"/>
       </defs>
       <use xlink:href="#DejaVuSans-30"/>
      </g>
     </g>
    </g>
    <g id="xtick_2">
     <g id="line2d_2">
      <g>
       <use xlink:href="#mc7ea2d72c9" x="166.436061" y="241.036875" style="stroke: #000000; stroke-width: 0.8"/>
      </g>
     </g>
     <g id="text_2">
      <!-- 500 -->
      <g transform="translate(151.166061 260.194375) scale(0.16 -0.16)">
       <defs>
        <path id="DejaVuSans-35" d="M 691 4666 
L 3169 4666 
L 3169 4134 
L 1269 4134 
L 1269 2991 
Q 1406 3038 1543 3061 
Q 1681 3084 1819 3084 
Q 2600 3084 3056 2656 
Q 3513 2228 3513 1497 
Q 3513 744 3044 326 
Q 2575 -91 1722 -91 
Q 1428 -91 1123 -41 
Q 819 9 494 109 
L 494 744 
Q 775 591 1075 516 
Q 1375 441 1709 441 
Q 2250 441 2565 725 
Q 2881 1009 2881 1497 
Q 2881 1984 2565 2268 
Q 2250 2553 1709 2553 
Q 1456 2553 1204 2497 
Q 953 2441 691 2322 
L 691 4666 
z
" transform="scale(0.015625)"/>
       </defs>
       <use xlink:href="#DejaVuSans-35"/>
       <use xlink:href="#DejaVuSans-30" transform="translate(63.623047 0)"/>
       <use xlink:href="#DejaVuSans-30" transform="translate(127.246094 0)"/>
      </g>
     </g>
    </g>
    <g id="xtick_3">
     <g id="line2d_3">
      <g>
       <use xlink:href="#mc7ea2d72c9" x="264.436752" y="241.036875" style="stroke: #000000; stroke-width: 0.8"/>
      </g>
     </g>
     <g id="text_3">
      <!-- 1000 -->
      <g transform="translate(244.076752 260.194375) scale(0.16 -0.16)">
       <defs>
        <path id="DejaVuSans-31" d="M 794 531 
L 1825 531 
L 1825 4091 
L 703 3866 
L 703 4441 
L 1819 4666 
L 2450 4666 
L 2450 531 
L 3481 531 
L 3481 0 
L 794 0 
L 794 531 
z
" transform="scale(0.015625)"/>
       </defs>
       <use xlink:href="#DejaVuSans-31"/>
       <use xlink:href="#DejaVuSans-30" transform="translate(63.623047 0)"/>
       <use xlink:href="#DejaVuSans-30" transform="translate(127.246094 0)"/>
       <use xlink:href="#DejaVuSans-30" transform="translate(190.869141 0)"/>
      </g>
     </g>
    </g>
    <g id="text_4">
     <!-- Time (s) -->
     <g transform="translate(181.803906 275.120313) scale(0.1 -0.1)">
      <defs>
       <path id="DejaVuSans-54" d="M -19 4666 
L 3928 4666 
L 3928 4134 
L 2272 4134 
L 2272 0 
L 1638 0 
L 1638 4134 
L -19 4134 
L -19 4666 
z
" transform="scale(0.015625)"/>
       <path id="DejaVuSans-69" d="M 603 3500 
L 1178 3500 
L 1178 0 
L 603 0 
L 603 3500 
z
M 603 4863 
L 1178 4863 
L 1178 4134 
L 603 4134 
L 603 4863 
z
" transform="scale(0.015625)"/>
       <path id="DejaVuSans-6d" d="M 3328 2828 
Q 3544 3216 3844 3400 
Q 4144 3584 4550 3584 
Q 5097 3584 5394 3201 
Q 5691 2819 5691 2113 
L 5691 0 
L 5113 0 
L 5113 2094 
Q 5113 2597 4934 2840 
Q 4756 3084 4391 3084 
Q 3944 3084 3684 2787 
Q 3425 2491 3425 1978 
L 3425 0 
L 2847 0 
L 2847 2094 
Q 2847 2600 2669 2842 
Q 2491 3084 2119 3084 
Q 1678 3084 1418 2786 
Q 1159 2488 1159 1978 
L 1159 0 
L 581 0 
L 581 3500 
L 1159 3500 
L 1159 2956 
Q 1356 3278 1631 3431 
Q 1906 3584 2284 3584 
Q 2666 3584 2933 3390 
Q 3200 3197 3328 2828 
z
" transform="scale(0.015625)"/>
       <path id="DejaVuSans-65" d="M 3597 1894 
L 3597 1613 
L 953 1613 
Q 991 1019 1311 708 
Q 1631 397 2203 397 
Q 2534 397 2845 478 
Q 3156 559 3463 722 
L 3463 178 
Q 3153 47 2828 -22 
Q 2503 -91 2169 -91 
Q 1331 -91 842 396 
Q 353 884 353 1716 
Q 353 2575 817 3079 
Q 1281 3584 2069 3584 
Q 2775 3584 3186 3129 
Q 3597 2675 3597 1894 
z
M 3022 2063 
Q 3016 2534 2758 2815 
Q 2500 3097 2075 3097 
Q 1594 3097 1305 2825 
Q 1016 2553 972 2059 
L 3022 2063 
z
" transform="scale(0.015625)"/>
       <path id="DejaVuSans-20" transform="scale(0.015625)"/>
       <path id="DejaVuSans-28" d="M 1984 4856 
Q 1566 4138 1362 3434 
Q 1159 2731 1159 2009 
Q 1159 1288 1364 580 
Q 1569 -128 1984 -844 
L 1484 -844 
Q 1016 -109 783 600 
Q 550 1309 550 2009 
Q 550 2706 781 3412 
Q 1013 4119 1484 4856 
L 1984 4856 
z
" transform="scale(0.015625)"/>
       <path id="DejaVuSans-73" d="M 2834 3397 
L 2834 2853 
Q 2591 2978 2328 3040 
Q 2066 3103 1784 3103 
Q 1356 3103 1142 2972 
Q 928 2841 928 2578 
Q 928 2378 1081 2264 
Q 1234 2150 1697 2047 
L 1894 2003 
Q 2506 1872 2764 1633 
Q 3022 1394 3022 966 
Q 3022 478 2636 193 
Q 2250 -91 1575 -91 
Q 1294 -91 989 -36 
Q 684 19 347 128 
L 347 722 
Q 666 556 975 473 
Q 1284 391 1588 391 
Q 1994 391 2212 530 
Q 2431 669 2431 922 
Q 2431 1156 2273 1281 
Q 2116 1406 1581 1522 
L 1381 1569 
Q 847 1681 609 1914 
Q 372 2147 372 2553 
Q 372 3047 722 3315 
Q 1072 3584 1716 3584 
Q 2034 3584 2315 3537 
Q 2597 3491 2834 3397 
z
" transform="scale(0.015625)"/>
       <path id="DejaVuSans-29" d="M 513 4856 
L 1013 4856 
Q 1481 4119 1714 3412 
Q 1947 2706 1947 2009 
Q 1947 1309 1714 600 
Q 1481 -109 1013 -844 
L 513 -844 
Q 928 -128 1133 580 
Q 1338 1288 1338 2009 
Q 1338 2731 1133 3434 
Q 928 4138 513 4856 
z
" transform="scale(0.015625)"/>
      </defs>
      <use xlink:href="#DejaVuSans-54"/>
      <use xlink:href="#DejaVuSans-69" transform="translate(57.958984 0)"/>
      <use xlink:href="#DejaVuSans-6d" transform="translate(85.742188 0)"/>
      <use xlink:href="#DejaVuSans-65" transform="translate(183.154297 0)"/>
      <use xlink:href="#DejaVuSans-20" transform="translate(244.677734 0)"/>
      <use xlink:href="#DejaVuSans-28" transform="translate(276.464844 0)"/>
      <use xlink:href="#DejaVuSans-73" transform="translate(315.478516 0)"/>
      <use xlink:href="#DejaVuSans-29" transform="translate(367.578125 0)"/>
     </g>
    </g>
   </g>
   <g id="matplotlib.axis_2">
    <g id="ytick_1">
     <g id="line2d_4">
      <defs>
       <path id="m33421a3528" d="M 0 0 
L -3.5 0 
" style="stroke: #000000; stroke-width: 0.8"/>
      </defs>
      <g>
       <use xlink:href="#m33421a3528" x="55.065625" y="221.147212" style="stroke: #000000; stroke-width: 0.8"/>
      </g>
     </g>
     <g id="text_5">
      <!-- −4 -->
      <g transform="translate(24.478125 227.225962) scale(0.16 -0.16)">
       <defs>
        <path id="DejaVuSans-2212" d="M 678 2272 
L 4684 2272 
L 4684 1741 
L 678 1741 
L 678 2272 
z
" transform="scale(0.015625)"/>
        <path id="DejaVuSans-34" d="M 2419 4116 
L 825 1625 
L 2419 1625 
L 2419 4116 
z
M 2253 4666 
L 3047 4666 
L 3047 1625 
L 3713 1625 
L 3713 1100 
L 3047 1100 
L 3047 0 
L 2419 0 
L 2419 1100 
L 313 1100 
L 313 1709 
L 2253 4666 
z
" transform="scale(0.015625)"/>
       </defs>
       <use xlink:href="#DejaVuSans-2212"/>
       <use xlink:href="#DejaVuSans-34" transform="translate(83.789062 0)"/>
      </g>
     </g>
    </g>
    <g id="ytick_2">
     <g id="line2d_5">
      <g>
       <use xlink:href="#m33421a3528" x="55.065625" y="183.684388" style="stroke: #000000; stroke-width: 0.8"/>
      </g>
     </g>
     <g id="text_6">
      <!-- −3 -->
      <g transform="translate(24.478125 189.763138) scale(0.16 -0.16)">
       <defs>
        <path id="DejaVuSans-33" d="M 2597 2516 
Q 3050 2419 3304 2112 
Q 3559 1806 3559 1356 
Q 3559 666 3084 287 
Q 2609 -91 1734 -91 
Q 1441 -91 1130 -33 
Q 819 25 488 141 
L 488 750 
Q 750 597 1062 519 
Q 1375 441 1716 441 
Q 2309 441 2620 675 
Q 2931 909 2931 1356 
Q 2931 1769 2642 2001 
Q 2353 2234 1838 2234 
L 1294 2234 
L 1294 2753 
L 1863 2753 
Q 2328 2753 2575 2939 
Q 2822 3125 2822 3475 
Q 2822 3834 2567 4026 
Q 2313 4219 1838 4219 
Q 1578 4219 1281 4162 
Q 984 4106 628 3988 
L 628 4550 
Q 988 4650 1302 4700 
Q 1616 4750 1894 4750 
Q 2613 4750 3031 4423 
Q 3450 4097 3450 3541 
Q 3450 3153 3228 2886 
Q 3006 2619 2597 2516 
z
" transform="scale(0.015625)"/>
       </defs>
       <use xlink:href="#DejaVuSans-2212"/>
       <use xlink:href="#DejaVuSans-33" transform="translate(83.789062 0)"/>
      </g>
     </g>
    </g>
    <g id="ytick_3">
     <g id="line2d_6">
      <g>
       <use xlink:href="#m33421a3528" x="55.065625" y="146.221564" style="stroke: #000000; stroke-width: 0.8"/>
      </g>
     </g>
     <g id="text_7">
      <!-- −2 -->
      <g transform="translate(24.478125 152.300314) scale(0.16 -0.16)">
       <defs>
        <path id="DejaVuSans-32" d="M 1228 531 
L 3431 531 
L 3431 0 
L 469 0 
L 469 531 
Q 828 903 1448 1529 
Q 2069 2156 2228 2338 
Q 2531 2678 2651 2914 
Q 2772 3150 2772 3378 
Q 2772 3750 2511 3984 
Q 2250 4219 1831 4219 
Q 1534 4219 1204 4116 
Q 875 4013 500 3803 
L 500 4441 
Q 881 4594 1212 4672 
Q 1544 4750 1819 4750 
Q 2544 4750 2975 4387 
Q 3406 4025 3406 3419 
Q 3406 3131 3298 2873 
Q 3191 2616 2906 2266 
Q 2828 2175 2409 1742 
Q 1991 1309 1228 531 
z
" transform="scale(0.015625)"/>
       </defs>
       <use xlink:href="#DejaVuSans-2212"/>
       <use xlink:href="#DejaVuSans-32" transform="translate(83.789062 0)"/>
      </g>
     </g>
    </g>
    <g id="ytick_4">
     <g id="line2d_7">
      <g>
       <use xlink:href="#m33421a3528" x="55.065625" y="108.758739" style="stroke: #000000; stroke-width: 0.8"/>
      </g>
     </g>
     <g id="text_8">
      <!-- −1 -->
      <g transform="translate(24.478125 114.837489) scale(0.16 -0.16)">
       <use xlink:href="#DejaVuSans-2212"/>
       <use xlink:href="#DejaVuSans-31" transform="translate(83.789062 0)"/>
      </g>
     </g>
    </g>
    <g id="ytick_5">
     <g id="line2d_8">
      <g>
       <use xlink:href="#m33421a3528" x="55.065625" y="71.295915" style="stroke: #000000; stroke-width: 0.8"/>
      </g>
     </g>
     <g id="text_9">
      <!-- 0 -->
      <g transform="translate(37.885625 77.374665) scale(0.16 -0.16)">
       <use xlink:href="#DejaVuSans-30"/>
      </g>
     </g>
    </g>
    <g id="ytick_6">
     <g id="line2d_9">
      <g>
       <use xlink:href="#m33421a3528" x="55.065625" y="33.833091" style="stroke: #000000; stroke-width: 0.8"/>
      </g>
     </g>
     <g id="text_10">
      <!-- 1 -->
      <g transform="translate(37.885625 39.911841) scale(0.16 -0.16)">
       <use xlink:href="#DejaVuSans-31"/>
      </g>
     </g>
    </g>
    <g id="text_11">
     <!-- Relative Orbital Angular Momentum Variation -->
     <g transform="translate(18.398438 247.097188) rotate(-90) scale(0.1 -0.1)">
      <defs>
       <path id="DejaVuSans-52" d="M 2841 2188 
Q 3044 2119 3236 1894 
Q 3428 1669 3622 1275 
L 4263 0 
L 3584 0 
L 2988 1197 
Q 2756 1666 2539 1819 
Q 2322 1972 1947 1972 
L 1259 1972 
L 1259 0 
L 628 0 
L 628 4666 
L 2053 4666 
Q 2853 4666 3247 4331 
Q 3641 3997 3641 3322 
Q 3641 2881 3436 2590 
Q 3231 2300 2841 2188 
z
M 1259 4147 
L 1259 2491 
L 2053 2491 
Q 2509 2491 2742 2702 
Q 2975 2913 2975 3322 
Q 2975 3731 2742 3939 
Q 2509 4147 2053 4147 
L 1259 4147 
z
" transform="scale(0.015625)"/>
       <path id="DejaVuSans-6c" d="M 603 4863 
L 1178 4863 
L 1178 0 
L 603 0 
L 603 4863 
z
" transform="scale(0.015625)"/>
       <path id="DejaVuSans-61" d="M 2194 1759 
Q 1497 1759 1228 1600 
Q 959 1441 959 1056 
Q 959 750 1161 570 
Q 1363 391 1709 391 
Q 2188 391 2477 730 
Q 2766 1069 2766 1631 
L 2766 1759 
L 2194 1759 
z
M 3341 1997 
L 3341 0 
L 2766 0 
L 2766 531 
Q 2569 213 2275 61 
Q 1981 -91 1556 -91 
Q 1019 -91 701 211 
Q 384 513 384 1019 
Q 384 1609 779 1909 
Q 1175 2209 1959 2209 
L 2766 2209 
L 2766 2266 
Q 2766 2663 2505 2880 
Q 2244 3097 1772 3097 
Q 1472 3097 1187 3025 
Q 903 2953 641 2809 
L 641 3341 
Q 956 3463 1253 3523 
Q 1550 3584 1831 3584 
Q 2591 3584 2966 3190 
Q 3341 2797 3341 1997 
z
" transform="scale(0.015625)"/>
       <path id="DejaVuSans-74" d="M 1172 4494 
L 1172 3500 
L 2356 3500 
L 2356 3053 
L 1172 3053 
L 1172 1153 
Q 1172 725 1289 603 
Q 1406 481 1766 481 
L 2356 481 
L 2356 0 
L 1766 0 
Q 1100 0 847 248 
Q 594 497 594 1153 
L 594 3053 
L 172 3053 
L 172 3500 
L 594 3500 
L 594 4494 
L 1172 4494 
z
" transform="scale(0.015625)"/>
       <path id="DejaVuSans-76" d="M 191 3500 
L 800 3500 
L 1894 563 
L 2988 3500 
L 3597 3500 
L 2284 0 
L 1503 0 
L 191 3500 
z
" transform="scale(0.015625)"/>
       <path id="DejaVuSans-4f" d="M 2522 4238 
Q 1834 4238 1429 3725 
Q 1025 3213 1025 2328 
Q 1025 1447 1429 934 
Q 1834 422 2522 422 
Q 3209 422 3611 934 
Q 4013 1447 4013 2328 
Q 4013 3213 3611 3725 
Q 3209 4238 2522 4238 
z
M 2522 4750 
Q 3503 4750 4090 4092 
Q 4678 3434 4678 2328 
Q 4678 1225 4090 567 
Q 3503 -91 2522 -91 
Q 1538 -91 948 565 
Q 359 1222 359 2328 
Q 359 3434 948 4092 
Q 1538 4750 2522 4750 
z
" transform="scale(0.015625)"/>
       <path id="DejaVuSans-72" d="M 2631 2963 
Q 2534 3019 2420 3045 
Q 2306 3072 2169 3072 
Q 1681 3072 1420 2755 
Q 1159 2438 1159 1844 
L 1159 0 
L 581 0 
L 581 3500 
L 1159 3500 
L 1159 2956 
Q 1341 3275 1631 3429 
Q 1922 3584 2338 3584 
Q 2397 3584 2469 3576 
Q 2541 3569 2628 3553 
L 2631 2963 
z
" transform="scale(0.015625)"/>
       <path id="DejaVuSans-62" d="M 3116 1747 
Q 3116 2381 2855 2742 
Q 2594 3103 2138 3103 
Q 1681 3103 1420 2742 
Q 1159 2381 1159 1747 
Q 1159 1113 1420 752 
Q 1681 391 2138 391 
Q 2594 391 2855 752 
Q 3116 1113 3116 1747 
z
M 1159 2969 
Q 1341 3281 1617 3432 
Q 1894 3584 2278 3584 
Q 2916 3584 3314 3078 
Q 3713 2572 3713 1747 
Q 3713 922 3314 415 
Q 2916 -91 2278 -91 
Q 1894 -91 1617 61 
Q 1341 213 1159 525 
L 1159 0 
L 581 0 
L 581 4863 
L 1159 4863 
L 1159 2969 
z
" transform="scale(0.015625)"/>
       <path id="DejaVuSans-41" d="M 2188 4044 
L 1331 1722 
L 3047 1722 
L 2188 4044 
z
M 1831 4666 
L 2547 4666 
L 4325 0 
L 3669 0 
L 3244 1197 
L 1141 1197 
L 716 0 
L 50 0 
L 1831 4666 
z
" transform="scale(0.015625)"/>
       <path id="DejaVuSans-6e" d="M 3513 2113 
L 3513 0 
L 2938 0 
L 2938 2094 
Q 2938 2591 2744 2837 
Q 2550 3084 2163 3084 
Q 1697 3084 1428 2787 
Q 1159 2491 1159 1978 
L 1159 0 
L 581 0 
L 581 3500 
L 1159 3500 
L 1159 2956 
Q 1366 3272 1645 3428 
Q 1925 3584 2291 3584 
Q 2894 3584 3203 3211 
Q 3513 2838 3513 2113 
z
" transform="scale(0.015625)"/>
       <path id="DejaVuSans-67" d="M 2906 1791 
Q 2906 2416 2648 2759 
Q 2391 3103 1925 3103 
Q 1463 3103 1205 2759 
Q 947 2416 947 1791 
Q 947 1169 1205 825 
Q 1463 481 1925 481 
Q 2391 481 2648 825 
Q 2906 1169 2906 1791 
z
M 3481 434 
Q 3481 -459 3084 -895 
Q 2688 -1331 1869 -1331 
Q 1566 -1331 1297 -1286 
Q 1028 -1241 775 -1147 
L 775 -588 
Q 1028 -725 1275 -790 
Q 1522 -856 1778 -856 
Q 2344 -856 2625 -561 
Q 2906 -266 2906 331 
L 2906 616 
Q 2728 306 2450 153 
Q 2172 0 1784 0 
Q 1141 0 747 490 
Q 353 981 353 1791 
Q 353 2603 747 3093 
Q 1141 3584 1784 3584 
Q 2172 3584 2450 3431 
Q 2728 3278 2906 2969 
L 2906 3500 
L 3481 3500 
L 3481 434 
z
" transform="scale(0.015625)"/>
       <path id="DejaVuSans-75" d="M 544 1381 
L 544 3500 
L 1119 3500 
L 1119 1403 
Q 1119 906 1312 657 
Q 1506 409 1894 409 
Q 2359 409 2629 706 
Q 2900 1003 2900 1516 
L 2900 3500 
L 3475 3500 
L 3475 0 
L 2900 0 
L 2900 538 
Q 2691 219 2414 64 
Q 2138 -91 1772 -91 
Q 1169 -91 856 284 
Q 544 659 544 1381 
z
M 1991 3584 
L 1991 3584 
z
" transform="scale(0.015625)"/>
       <path id="DejaVuSans-4d" d="M 628 4666 
L 1569 4666 
L 2759 1491 
L 3956 4666 
L 4897 4666 
L 4897 0 
L 4281 0 
L 4281 4097 
L 3078 897 
L 2444 897 
L 1241 4097 
L 1241 0 
L 628 0 
L 628 4666 
z
" transform="scale(0.015625)"/>
       <path id="DejaVuSans-6f" d="M 1959 3097 
Q 1497 3097 1228 2736 
Q 959 2375 959 1747 
Q 959 1119 1226 758 
Q 1494 397 1959 397 
Q 2419 397 2687 759 
Q 2956 1122 2956 1747 
Q 2956 2369 2687 2733 
Q 2419 3097 1959 3097 
z
M 1959 3584 
Q 2709 3584 3137 3096 
Q 3566 2609 3566 1747 
Q 3566 888 3137 398 
Q 2709 -91 1959 -91 
Q 1206 -91 779 398 
Q 353 888 353 1747 
Q 353 2609 779 3096 
Q 1206 3584 1959 3584 
z
" transform="scale(0.015625)"/>
       <path id="DejaVuSans-56" d="M 1831 0 
L 50 4666 
L 709 4666 
L 2188 738 
L 3669 4666 
L 4325 4666 
L 2547 0 
L 1831 0 
z
" transform="scale(0.015625)"/>
      </defs>
      <use xlink:href="#DejaVuSans-52"/>
      <use xlink:href="#DejaVuSans-65" transform="translate(64.982422 0)"/>
      <use xlink:href="#DejaVuSans-6c" transform="translate(126.505859 0)"/>
      <use xlink:href="#DejaVuSans-61" transform="translate(154.289062 0)"/>
      <use xlink:href="#DejaVuSans-74" transform="translate(215.568359 0)"/>
      <use xlink:href="#DejaVuSans-69" transform="translate(254.777344 0)"/>
      <use xlink:href="#DejaVuSans-76" transform="translate(282.560547 0)"/>
      <use xlink:href="#DejaVuSans-65" transform="translate(341.740234 0)"/>
      <use xlink:href="#DejaVuSans-20" transform="translate(403.263672 0)"/>
      <use xlink:href="#DejaVuSans-4f" transform="translate(435.050781 0)"/>
      <use xlink:href="#DejaVuSans-72" transform="translate(513.761719 0)"/>
      <use xlink:href="#DejaVuSans-62" transform="translate(554.875 0)"/>
      <use xlink:href="#DejaVuSans-69" transform="translate(618.351562 0)"/>
      <use xlink:href="#DejaVuSans-74" transform="translate(646.134766 0)"/>
      <use xlink:href="#DejaVuSans-61" transform="translate(685.34375 0)"/>
      <use xlink:href="#DejaVuSans-6c" transform="translate(746.623047 0)"/>
      <use xlink:href="#DejaVuSans-20" transform="translate(774.40625 0)"/>
      <use xlink:href="#DejaVuSans-41" transform="translate(806.193359 0)"/>
      <use xlink:href="#DejaVuSans-6e" transform="translate(874.601562 0)"/>
      <use xlink:href="#DejaVuSans-67" transform="translate(937.980469 0)"/>
      <use xlink:href="#DejaVuSans-75" transform="translate(1001.457031 0)"/>
      <use xlink:href="#DejaVuSans-6c" transform="translate(1064.835938 0)"/>
      <use xlink:href="#DejaVuSans-61" transform="translate(1092.619141 0)"/>
      <use xlink:href="#DejaVuSans-72" transform="translate(1153.898438 0)"/>
      <use xlink:href="#DejaVuSans-20" transform="translate(1195.011719 0)"/>
      <use xlink:href="#DejaVuSans-4d" transform="translate(1226.798828 0)"/>
      <use xlink:href="#DejaVuSans-6f" transform="translate(1313.078125 0)"/>
      <use xlink:href="#DejaVuSans-6d" transform="translate(1374.259766 0)"/>
      <use xlink:href="#DejaVuSans-65" transform="translate(1471.671875 0)"/>
      <use xlink:href="#DejaVuSans-6e" transform="translate(1533.195312 0)"/>
      <use xlink:href="#DejaVuSans-74" transform="translate(1596.574219 0)"/>
      <use xlink:href="#DejaVuSans-75" transform="translate(1635.783203 0)"/>
      <use xlink:href="#DejaVuSans-6d" transform="translate(1699.162109 0)"/>
      <use xlink:href="#DejaVuSans-20" transform="translate(1796.574219 0)"/>
      <use xlink:href="#DejaVuSans-56" transform="translate(1828.361328 0)"/>
      <use xlink:href="#DejaVuSans-61" transform="translate(1889.019531 0)"/>
      <use xlink:href="#DejaVuSans-72" transform="translate(1950.298828 0)"/>
      <use xlink:href="#DejaVuSans-69" transform="translate(1991.412109 0)"/>
      <use xlink:href="#DejaVuSans-61" transform="translate(2019.195312 0)"/>
      <use xlink:href="#DejaVuSans-74" transform="translate(2080.474609 0)"/>
      <use xlink:href="#DejaVuSans-69" transform="translate(2119.683594 0)"/>
      <use xlink:href="#DejaVuSans-6f" transform="translate(2147.466797 0)"/>
      <use xlink:href="#DejaVuSans-6e" transform="translate(2208.648438 0)"/>
     </g>
    </g>
    <g id="text_12">
     <!-- 1e−11 -->
     <g transform="translate(55.065625 22.9575) scale(0.16 -0.16)">
      <use xlink:href="#DejaVuSans-31"/>
      <use xlink:href="#DejaVuSans-65" transform="translate(63.623047 0)"/>
      <use xlink:href="#DejaVuSans-2212" transform="translate(125.146484 0)"/>
      <use xlink:href="#DejaVuSans-31" transform="translate(208.935547 0)"/>
      <use xlink:href="#DejaVuSans-31" transform="translate(272.558594 0)"/>
     </g>
    </g>
   </g>
   <g id="line2d_10">
    <path d="M 68.435369 71.295915 
L 68.876372 65.290586 
L 69.611378 54.616456 
L 69.758379 53.824494 
L 69.90538 53.912741 
L 70.052381 54.93324 
L 70.934387 65.071853 
L 71.081388 64.724145 
L 72.257396 58.359793 
L 72.698399 57.500703 
L 73.286404 56.912389 
L 73.874408 56.642368 
L 74.903415 56.475679 
L 77.402433 56.415339 
L 88.721512 56.450789 
L 89.456518 56.615969 
L 90.044522 56.80604 
L 90.191523 56.742683 
L 90.338524 56.529985 
L 90.632526 55.302822 
L 91.073529 51.005866 
L 91.367531 48.733314 
L 91.514532 48.884919 
L 91.808534 52.338624 
L 92.249537 59.709898 
L 92.543539 61.231973 
L 92.69054 60.72738 
L 93.131544 56.824142 
L 93.572547 53.79357 
L 93.866549 53.282944 
L 94.01355 53.373454 
L 94.454553 54.245365 
L 95.042557 55.381264 
L 95.48356 55.843619 
L 96.071564 56.119674 
L 97.100572 56.25393 
L 100.040592 56.283346 
L 108.713653 56.414585 
L 109.448659 56.645385 
L 110.183664 57.12207 
L 110.624667 57.371727 
L 110.918669 57.351362 
L 111.800675 56.89655 
L 112.094677 57.447152 
L 112.388679 58.700713 
L 112.976684 61.541215 
L 113.123685 61.620411 
L 113.270686 61.265159 
L 113.564688 59.467784 
L 114.005691 56.730615 
L 114.152692 56.575994 
L 114.299693 56.931245 
L 114.593695 58.796503 
L 115.034698 61.775786 
L 115.3287 62.331667 
L 115.475701 62.15291 
L 116.357707 58.797257 
L 116.651709 58.545338 
L 116.945712 58.644145 
L 118.709724 59.953521 
L 119.738731 60.181304 
L 121.502744 60.297458 
L 126.353778 60.314806 
L 128.999797 60.167727 
L 131.498814 59.927876 
L 132.38082 60.130015 
L 133.115826 60.334416 
L 133.556829 60.188092 
L 134.291834 59.496446 
L 134.732837 59.203797 
L 135.17384 59.151 
L 136.055846 59.12611 
L 136.937853 58.994116 
L 143.552899 59.224916 
L 151.637956 59.12083 
L 152.22596 59.124601 
L 152.666964 59.319197 
L 154.283975 60.427189 
L 154.871979 60.620277 
L 155.459983 60.937061 
L 155.606984 60.869179 
L 155.900986 60.246169 
L 156.194988 58.793486 
L 157.517998 49.796805 
L 157.812 49.379706 
L 157.959001 49.421944 
L 158.253003 49.81717 
L 158.841007 50.702658 
L 159.135009 50.832389 
L 159.576012 50.666454 
L 161.046023 49.70705 
L 161.928029 49.483038 
L 163.54504 49.34501 
L 167.661069 49.274111 
L 168.396075 49.437783 
L 168.837078 49.727414 
L 170.013086 50.735845 
L 170.307088 50.362492 
L 170.748091 49.132312 
L 171.189094 47.957947 
L 171.483096 47.644933 
L 171.777098 47.710553 
L 172.806106 48.461031 
L 173.39411 48.474607 
L 174.423117 48.193272 
L 175.305123 47.752037 
L 176.187129 47.252724 
L 176.481132 47.275351 
L 176.775134 47.50238 
L 177.363138 48.19101 
L 177.510139 48.19101 
L 177.65714 48.022058 
L 177.951142 47.066424 
L 178.539146 43.473937 
L 178.980149 41.359778 
L 179.274151 40.781269 
L 179.568153 40.708107 
L 180.156157 41.101824 
L 180.744162 41.374108 
L 181.479167 41.40277 
L 186.624203 40.807667 
L 188.829219 40.407161 
L 189.270222 40.678691 
L 189.711225 41.260217 
L 190.593231 42.619373 
L 190.887233 42.405166 
L 191.181235 41.765563 
L 191.769239 39.599361 
L 192.210243 38.21984 
L 192.504245 37.910597 
L 192.651246 37.97848 
L 192.945248 38.51098 
L 194.121256 41.54834 
L 194.415258 41.666757 
L 194.70926 41.529484 
L 196.326272 40.17259 
L 196.767275 40.201251 
L 197.208278 40.444119 
L 198.090284 41.055815 
L 198.237285 40.956254 
L 198.531287 40.189938 
L 198.97229 38.246992 
L 199.119291 38.213051 
L 199.413293 39.718532 
L 199.707295 41.455567 
L 199.854296 41.756512 
L 200.001297 41.661477 
L 201.177306 39.037445 
L 201.618309 38.81645 
L 202.500315 38.705576 
L 206.175341 38.661829 
L 212.349385 38.544167 
L 213.378392 38.468742 
L 217.641422 39.040462 
L 218.229426 39.610674 
L 218.964431 40.462221 
L 219.111432 40.472027 
L 219.258433 40.355872 
L 219.552435 39.649895 
L 220.581443 35.733835 
L 220.728444 35.932203 
L 221.022446 37.129196 
L 221.904452 41.678071 
L 222.198454 42.247528 
L 222.492456 42.427794 
L 223.08046 42.362929 
L 223.962466 42.294292 
L 229.989509 42.64728 
L 231.459519 42.796622 
L 232.194525 42.618619 
L 232.92953 42.139671 
L 234.39954 41.05129 
L 234.987544 40.911754 
L 235.722549 40.990196 
L 238.515569 41.777631 
L 238.809571 42.123832 
L 239.250574 43.103601 
L 240.573584 46.825065 
L 241.014587 47.109417 
L 241.45559 47.039272 
L 242.190595 46.862023 
L 243.072601 46.954041 
L 244.836614 47.154672 
L 247.482632 47.152409 
L 249.687648 47.150146 
L 250.863656 47.252724 
L 251.304659 46.963847 
L 252.921671 45.392746 
L 253.803677 45.337686 
L 257.478703 45.342212 
L 258.360709 45.658996 
L 259.83072 46.530154 
L 260.124722 46.839396 
L 260.418724 47.50766 
L 260.712726 48.889444 
L 261.153729 52.794945 
L 261.741733 58.962438 
L 262.035735 60.224296 
L 262.182736 60.151888 
L 262.476738 58.9202 
L 263.064742 55.700311 
L 263.358744 55.05392 
L 263.505745 54.995089 
L 263.799748 55.21005 
L 264.828755 56.488501 
L 265.416759 56.812828 
L 266.298765 56.993848 
L 268.35678 57.087375 
L 276.588838 57.145452 
L 280.410865 57.066256 
L 280.851868 56.742683 
L 281.292871 56.106851 
L 281.880875 55.195719 
L 282.027876 55.181388 
L 282.174877 55.359391 
L 282.468879 56.477942 
L 282.909882 60.062887 
L 283.497886 64.942123 
L 283.644888 65.437664 
L 283.791889 65.528174 
L 283.93889 65.234771 
L 284.232892 63.781334 
L 284.967897 59.680483 
L 285.261899 59.071804 
L 285.555901 58.992608 
L 285.996904 59.312409 
L 286.731909 59.835104 
L 287.466914 60.02442 
L 288.495922 60.031963 
L 288.936925 59.835104 
L 289.377928 59.339562 
L 290.259934 58.086 
L 290.553936 58.197629 
L 290.847938 58.696188 
L 291.582944 60.111159 
L 291.876946 60.218262 
L 292.170948 60.068166 
L 293.640958 58.860614 
L 294.522964 58.607941 
L 295.992975 58.478964 
L 300.256005 58.435972 
L 308.635064 58.572491 
L 309.811072 58.815359 
L 310.105074 58.692417 
L 310.546077 58.196121 
L 311.134081 57.406422 
L 311.428084 57.351362 
L 311.722086 57.613841 
L 312.604092 58.748231 
L 313.045095 58.844021 
L 313.7801 58.605678 
L 314.809107 58.29719 
L 316.132117 58.1569 
L 318.631134 58.147849 
L 320.395147 58.325097 
L 321.277153 58.570982 
L 322.012158 59.043897 
L 323.188166 60.083251 
L 323.482169 59.921088 
L 323.776171 59.289027 
L 324.364175 56.878448 
L 324.658177 55.939408 
L 324.805178 55.773473 
L 324.952179 55.854932 
L 325.246181 56.680835 
L 326.128187 60.019895 
L 326.422189 60.323857 
L 326.716191 60.271059 
L 327.304196 59.731772 
L 328.039201 59.109516 
L 328.774206 58.779155 
L 329.509211 58.636602 
L 329.803213 58.712027 
L 330.244216 59.151754 
L 330.83222 59.908266 
L 331.273224 60.09004 
L 335.830256 60.053836 
L 335.830256 60.053836 
" clip-path="url(#pfab4599584)" style="fill: none; stroke: #1f77b4; stroke-width: 1.5; stroke-linecap: square"/>
   </g>
   <g id="line2d_11">
    <path d="M 68.435369 71.295915 
L 68.729371 91.339482 
L 69.90538 197.391371 
L 70.052381 194.717363 
L 70.346383 171.955408 
L 70.787386 131.43731 
L 70.934387 126.603669 
L 71.081388 127.079013 
L 71.37539 137.937594 
L 71.963394 160.755157 
L 72.404397 168.358516 
L 72.8454 172.034008 
L 73.286404 174.076007 
L 73.727407 175.266237 
L 74.16841 175.96241 
L 74.756414 176.460746 
L 75.491419 176.752154 
L 76.667427 176.921652 
L 79.019444 177.007738 
L 87.986507 177.122698 
L 88.42751 176.957477 
L 88.721512 176.64575 
L 89.015515 175.993422 
L 89.309517 174.706412 
L 89.603519 172.381559 
L 90.044522 166.37266 
L 90.485525 160.813439 
L 90.632526 161.252423 
L 90.779527 163.931244 
L 91.073529 176.628105 
L 91.514532 197.619151 
L 91.661533 197.968841 
L 91.808534 193.43463 
L 92.837541 138.935334 
L 92.984543 139.3802 
L 93.425546 146.427477 
L 93.719548 150.124891 
L 93.866549 150.870255 
L 94.01355 150.898594 
L 94.307552 149.352257 
L 95.48356 140.239455 
L 95.924563 138.639113 
L 96.365566 137.749381 
L 96.806569 137.262274 
L 97.394574 136.927555 
L 98.27658 136.71849 
L 100.040592 136.60353 
L 107.684646 136.357036 
L 108.27265 136.111611 
L 108.713653 135.74588 
L 109.154657 135.080185 
L 109.59566 133.927918 
L 110.624667 130.612276 
L 110.771668 130.978542 
L 111.06567 133.28468 
L 111.506673 138.142917 
L 111.653674 138.491538 
L 111.800675 137.48845 
L 112.094677 131.050191 
L 112.976684 103.10437 
L 113.123685 102.580904 
L 113.270686 104.091417 
L 113.564688 112.036446 
L 114.005691 125.522517 
L 114.152692 127.398226 
L 114.299693 127.374699 
L 114.593695 122.785414 
L 115.034698 113.936751 
L 115.181699 112.629422 
L 115.3287 112.437467 
L 115.475701 113.199407 
L 116.357707 128.830138 
L 116.651709 130.137467 
L 116.798711 130.170083 
L 117.092713 129.53647 
L 118.12172 126.325628 
L 118.709724 125.36692 
L 119.297728 124.870724 
L 120.032733 124.582523 
L 121.208742 124.411421 
L 123.560758 124.349931 
L 126.794781 124.515152 
L 128.11779 124.800144 
L 129.146798 125.259447 
L 130.322806 126.095709 
L 130.763809 126.606878 
L 131.204812 127.415336 
L 132.086818 129.208167 
L 132.38082 129.33596 
L 133.115826 129.105506 
L 133.409828 129.593148 
L 133.70383 130.712798 
L 134.732837 135.496712 
L 135.026839 135.750692 
L 135.614843 135.751762 
L 136.055846 136.023921 
L 136.349848 135.929815 
L 137.084854 135.478533 
L 138.848866 134.943303 
L 140.318876 134.770597 
L 142.964895 134.705899 
L 146.345919 134.741189 
L 148.844937 134.855079 
L 149.726943 135.035805 
L 150.314947 135.340581 
L 151.637956 136.294477 
L 151.931958 136.076321 
L 152.22596 135.511684 
L 153.254968 132.76763 
L 153.401969 132.846765 
L 153.54897 133.201268 
L 153.842972 134.844385 
L 154.283975 139.513874 
L 155.165981 149.823858 
L 156.194988 157.304772 
L 156.635992 165.632642 
L 157.517998 183.574859 
L 157.812 186.098083 
L 157.959001 186.522096 
L 158.106002 186.492688 
L 158.400004 185.576756 
L 158.988008 183.553471 
L 159.28201 183.357238 
L 159.576012 183.66148 
L 161.340025 186.613529 
L 162.07503 187.063207 
L 163.104037 187.33911 
L 165.015051 187.5054 
L 166.33806 187.445514 
L 166.926064 187.250351 
L 167.367067 186.921513 
L 167.80807 186.310892 
L 168.249073 185.320103 
L 168.984079 183.4075 
L 169.13108 183.260458 
L 169.278081 183.304838 
L 169.425082 183.576463 
L 169.719084 184.805726 
L 170.307088 187.709119 
L 170.454089 187.736388 
L 170.60109 187.290453 
L 170.895092 185.162902 
L 171.483096 180.251731 
L 171.777098 179.603681 
L 171.924099 179.785477 
L 172.365103 181.335557 
L 172.953107 183.252438 
L 173.39411 183.941125 
L 173.982114 184.367811 
L 174.717119 184.912665 
L 175.452124 185.845708 
L 175.893127 186.298059 
L 176.187129 186.250471 
L 176.481132 185.760156 
L 176.922135 184.662428 
L 177.069136 184.58062 
L 177.216137 184.904645 
L 177.363138 185.799724 
L 177.65714 189.820094 
L 178.098143 200.86154 
L 178.686147 214.766811 
L 178.980149 217.629567 
L 179.12715 218.081919 
L 179.274151 218.086196 
L 179.568153 217.398579 
L 180.009156 216.307267 
L 180.303159 216.068793 
L 180.597161 216.19605 
L 181.185165 216.959594 
L 182.067171 218.068017 
L 182.802176 218.63105 
L 183.684182 219.027794 
L 185.595196 219.572113 
L 188.241215 220.252245 
L 188.682218 220.002542 
L 189.123221 219.350214 
L 189.711225 217.766983 
L 190.299229 216.16183 
L 190.44623 215.999283 
L 190.593231 216.008907 
L 190.887233 216.666582 
L 191.328236 218.868455 
L 192.063241 222.849257 
L 192.357244 223.201621 
L 192.504245 222.994694 
L 192.798247 221.923166 
L 193.827254 216.983656 
L 194.121256 216.670859 
L 194.415258 216.902382 
L 195.003262 218.142339 
L 195.591266 219.236859 
L 196.032269 219.635207 
L 196.914276 219.973134 
L 197.208278 220.607282 
L 197.50228 222.203346 
L 197.943283 227.151411 
L 198.237285 229.84948 
L 198.384286 229.10572 
L 198.678288 220.537237 
L 198.97229 208.891051 
L 199.119291 207.223873 
L 199.266292 209.785595 
L 199.854296 230.035554 
L 200.001297 231.26054 
L 200.148299 231.189425 
L 201.030305 226.97817 
L 201.471308 226.355785 
L 201.912311 226.153136 
L 202.794317 226.063842 
L 210.879374 225.987915 
L 211.76138 226.137629 
L 212.937389 226.393214 
L 213.525393 226.249381 
L 215.289405 225.579408 
L 216.318413 225.206191 
L 216.906417 224.758652 
L 217.494421 223.998316 
L 218.523428 222.48513 
L 218.670429 222.505983 
L 218.964431 222.981326 
L 219.699436 225.546792 
L 219.846437 225.487975 
L 219.993438 224.887513 
L 220.287441 221.752063 
L 221.463449 202.710514 
L 221.757451 201.870509 
L 221.904452 201.869974 
L 222.492456 202.239983 
L 222.786458 202.029848 
L 223.227461 201.286087 
L 224.109468 199.715154 
L 224.697472 199.066035 
L 225.432477 198.595504 
L 226.314483 198.291262 
L 228.519499 197.84907 
L 231.312518 197.37533 
L 231.753521 197.476387 
L 233.664535 198.414777 
L 234.252539 198.366654 
L 235.134545 197.975258 
L 236.751557 197.171611 
L 237.339561 197.056117 
L 237.927565 197.18284 
L 239.103573 197.702563 
L 239.397575 197.448583 
L 239.838578 196.547623 
L 240.720585 194.358582 
L 241.161588 193.93457 
L 241.602591 193.907835 
L 242.778599 194.077868 
L 247.923636 194.051133 
L 249.393646 194.040439 
L 250.422653 193.906231 
L 250.716655 194.035092 
L 251.010657 194.343076 
L 251.598661 195.456311 
L 252.186666 196.536929 
L 252.627669 196.865766 
L 253.068672 196.836358 
L 254.24468 196.55297 
L 255.567689 196.633174 
L 257.772705 196.937415 
L 258.50771 197.314375 
L 259.683718 198.139944 
L 259.977721 197.916976 
L 260.271723 197.285501 
L 260.859727 195.819368 
L 261.006728 195.951973 
L 261.153729 196.524096 
L 261.447731 199.249435 
L 262.476738 213.518299 
L 262.623739 214.065292 
L 262.77074 214.1733 
L 263.064742 213.602246 
L 263.505745 212.50933 
L 263.799748 212.267113 
L 264.09375 212.389558 
L 265.710761 213.900071 
L 266.592767 214.158329 
L 268.062778 214.28719 
L 273.060813 214.378088 
L 278.205849 214.506415 
L 279.67586 214.732591 
L 280.704867 214.913852 
L 281.14587 214.757721 
L 281.586873 214.283447 
L 282.027876 213.722018 
L 282.174877 213.663201 
L 282.321878 213.749822 
L 282.61588 214.531011 
L 282.909882 216.218507 
L 283.791889 222.197999 
L 283.93889 222.505983 
L 284.085891 222.534322 
L 284.379893 221.939741 
L 285.114898 219.771554 
L 285.4089 219.4887 
L 285.702902 219.525594 
L 286.437907 220.090767 
L 287.172912 220.524939 
L 288.20192 220.83025 
L 288.789924 220.852707 
L 289.230927 220.669841 
L 289.818931 220.073122 
L 290.259934 219.67424 
L 290.553936 219.679586 
L 290.847938 219.957093 
L 291.729945 221.026482 
L 292.023947 221.04894 
L 292.46495 220.825972 
L 293.493957 220.198775 
L 294.375963 219.949607 
L 295.845974 219.812191 
L 299.815002 219.761929 
L 308.341062 219.841599 
L 309.958073 220.177387 
L 310.252075 219.912179 
L 310.693078 219.132594 
L 311.134081 218.371723 
L 311.428084 218.271201 
L 311.722086 218.588809 
L 312.604092 220.05013 
L 312.898094 220.178991 
L 313.339097 220.082746 
L 314.956108 219.391386 
L 316.132117 219.230978 
L 318.190131 219.196222 
L 319.807143 219.34861 
L 320.983151 219.695627 
L 321.571155 220.115363 
L 322.159159 220.863401 
L 323.041165 222.255211 
L 323.188166 222.312423 
L 323.335168 222.23115 
L 323.62917 221.500222 
L 323.923172 219.888652 
L 324.658177 214.880701 
L 324.805178 214.605868 
L 324.952179 214.763603 
L 325.246181 216.221716 
L 325.981186 221.352646 
L 326.275188 222.218317 
L 326.422189 222.349852 
L 326.56919 222.32686 
L 326.863192 221.973962 
L 328.186202 219.775297 
L 328.921207 219.153447 
L 329.509211 218.901071 
L 329.803213 219.037418 
L 330.097215 219.519713 
L 330.979221 221.379381 
L 331.273224 221.485251 
L 333.62524 221.410393 
L 335.830256 221.466002 
L 335.830256 221.466002 
" clip-path="url(#pfab4599584)" style="fill: none; stroke: #ff7f0e; stroke-width: 1.5; stroke-linecap: square"/>
   </g>
   <g id="line2d_12">
    <path d="M 68.435369 71.295915 
L 69.611378 63.172637 
L 69.758379 63.101448 
L 69.90538 63.483553 
L 70.199382 65.437394 
L 70.640385 68.736538 
L 70.787386 69.167103 
L 70.934387 69.17225 
L 71.228389 68.339852 
L 71.816393 66.354276 
L 72.257396 65.526595 
L 72.8454 64.940786 
L 73.433405 64.668037 
L 74.315411 64.52137 
L 76.520426 64.46562 
L 89.456518 64.375133 
L 89.897521 64.076653 
L 90.191523 63.601058 
L 90.485525 62.692325 
L 91.367531 58.986202 
L 91.514532 59.576729 
L 91.955535 63.930415 
L 92.249537 66.046361 
L 92.396538 66.19603 
L 92.543539 65.748739 
L 92.984543 62.473182 
L 93.425546 59.735832 
L 93.719548 59.10285 
L 93.866549 59.071115 
L 94.160551 59.315559 
L 94.895556 60.119653 
L 95.48356 60.361096 
L 96.512567 60.413415 
L 108.419651 60.38554 
L 110.330665 60.516768 
L 110.918669 60.716184 
L 111.653674 61.100433 
L 111.947676 60.902733 
L 112.388679 60.545072 
L 112.682681 60.664293 
L 112.976684 60.880433 
L 113.123685 60.877002 
L 113.417687 60.494039 
L 113.85869 59.575014 
L 114.005691 59.485384 
L 114.152692 59.602889 
L 114.446694 60.424994 
L 115.034698 62.522929 
L 115.3287 62.820551 
L 115.622702 62.611701 
L 116.210706 61.934547 
L 116.651709 61.811038 
L 117.239714 61.994157 
L 118.415722 62.379264 
L 119.738731 62.535795 
L 123.266756 62.614274 
L 129.881803 62.56367 
L 130.91081 62.621136 
L 131.792816 62.971506 
L 132.674823 63.266555 
L 133.70383 63.340317 
L 136.496849 63.224099 
L 137.231855 63.153339 
L 141.788887 63.201799 
L 149.432941 63.303865 
L 151.784957 63.37677 
L 152.960966 63.172637 
L 153.401969 63.426516 
L 153.842972 64.064645 
L 154.430976 65.4687 
L 155.312982 67.61681 
L 155.606984 67.859111 
L 155.900986 67.682853 
L 156.341989 66.758681 
L 156.929994 65.414665 
L 157.223996 65.120903 
L 157.517998 65.11833 
L 157.959001 65.445971 
L 158.547005 65.89755 
L 158.988008 65.994899 
L 159.870014 65.832365 
L 161.046023 65.653106 
L 163.398039 65.578915 
L 167.073065 65.45369 
L 168.102072 65.187375 
L 168.837078 65.033417 
L 169.13108 65.171078 
L 169.572083 65.763749 
L 170.013086 66.455055 
L 170.160087 66.525387 
L 170.307088 66.444334 
L 170.60109 65.770611 
L 171.483096 62.678602 
L 171.777098 62.577393 
L 172.0711 62.907608 
L 172.806106 63.900395 
L 173.247109 64.131117 
L 173.835113 64.171429 
L 175.746126 63.956146 
L 176.922135 63.739148 
L 177.216137 64.067218 
L 177.65714 65.193378 
L 178.245144 66.916927 
L 178.539146 67.254003 
L 178.833148 67.175095 
L 179.715154 66.476927 
L 180.156157 66.514666 
L 182.214172 67.178954 
L 183.831183 67.277161 
L 186.771204 67.226557 
L 188.535217 66.991118 
L 189.417223 66.931508 
L 190.005227 67.106479 
L 190.887233 67.483009 
L 191.328236 67.31104 
L 191.91624 66.708077 
L 192.504245 66.131274 
L 192.798247 66.038642 
L 193.23925 66.197317 
L 194.562259 67.094471 
L 195.150263 67.080319 
L 196.620274 66.830299 
L 196.914276 66.954237 
L 197.208278 67.278448 
L 197.50228 67.947025 
L 198.237285 70.502971 
L 198.384286 70.091275 
L 198.678288 66.632599 
L 198.97229 62.130102 
L 199.119291 61.564878 
L 199.266292 62.717627 
L 199.854296 71.06305 
L 200.001297 71.382543 
L 200.148299 71.116227 
L 200.883304 68.559852 
L 201.324307 67.96761 
L 201.76531 67.753185 
L 202.647316 67.64297 
L 206.469343 67.608233 
L 215.436406 67.446986 
L 216.759416 67.207687 
L 218.229426 66.872755 
L 218.670429 67.112911 
L 219.405434 67.891703 
L 219.552435 67.857824 
L 219.699436 67.645114 
L 219.993438 66.530533 
L 220.434442 63.315015 
L 220.875445 60.101213 
L 221.169447 59.067255 
L 221.316448 58.938171 
L 221.463449 59.010218 
L 222.492456 60.35209 
L 222.786458 60.264604 
L 224.844473 58.983629 
L 226.167482 58.772635 
L 229.254504 58.572791 
L 231.753521 58.564643 
L 232.782529 58.584799 
L 233.664535 58.376806 
L 235.722549 57.769984 
L 237.045559 57.67435 
L 237.927565 57.790568 
L 238.515569 58.110919 
L 239.98558 59.200627 
L 240.426583 59.050959 
L 241.161588 58.695442 
L 241.896593 58.615676 
L 246.747627 58.803512 
L 250.863656 58.921446 
L 251.45166 59.380744 
L 252.186666 59.998289 
L 252.627669 60.12094 
L 253.362674 60.015443 
L 254.391681 59.888932 
L 256.449696 59.972129 
L 257.625704 60.162538 
L 258.360709 60.495755 
L 259.242715 61.227802 
L 259.683718 61.466671 
L 259.977721 61.350882 
L 260.271723 60.933182 
L 260.712726 60.182265 
L 260.859727 60.182694 
L 261.006728 60.477743 
L 261.30073 62.281058 
L 261.741733 67.918292 
L 262.329737 75.136697 
L 262.623739 76.264572 
L 262.77074 76.243559 
L 263.064742 75.602428 
L 263.505745 74.626794 
L 263.799748 74.461686 
L 264.09375 74.621219 
L 265.56376 75.973383 
L 266.298765 76.214826 
L 267.621774 76.356346 
L 271.443801 76.439972 
L 278.35285 76.599075 
L 279.528858 76.816931 
L 281.292871 77.36929 
L 281.586873 77.185313 
L 282.468879 76.385937 
L 282.61588 76.57506 
L 282.909882 77.579427 
L 283.350885 80.45358 
L 283.93889 84.154127 
L 284.232892 84.862159 
L 284.379893 84.909761 
L 284.673895 84.612139 
L 285.261899 83.838494 
L 285.555901 83.770306 
L 285.996904 84.000599 
L 287.319913 84.945784 
L 288.348921 85.330892 
L 289.965932 85.691984 
L 293.052954 85.736155 
L 294.669965 85.570619 
L 298.491992 85.53674 
L 310.105074 85.672257 
L 311.134081 85.79405 
L 312.898094 85.550034 
L 314.662106 85.754596 
L 318.631134 85.761028 
L 323.041165 85.845941 
L 323.62917 86.195882 
L 324.217174 86.604577 
L 324.511176 86.621302 
L 324.952179 86.328826 
L 325.540183 85.916272 
L 325.981186 85.952296 
L 328.333203 86.879898 
L 329.656212 87.087891 
L 330.685219 87.076741 
L 331.714227 87.275298 
L 335.830256 87.138066 
L 335.830256 87.138066 
" clip-path="url(#pfab4599584)" style="fill: none; stroke: #2ca02c; stroke-width: 1.5; stroke-linecap: square"/>
   </g>
   <g id="patch_3">
    <path d="M 55.065625 241.036875 
L 55.065625 25.9575 
" style="fill: none; stroke: #000000; stroke-width: 0.8; stroke-linejoin: miter; stroke-linecap: square"/>
   </g>
   <g id="patch_4">
    <path d="M 349.2 241.036875 
L 349.2 25.9575 
" style="fill: none; stroke: #000000; stroke-width: 0.8; stroke-linejoin: miter; stroke-linecap: square"/>
   </g>
   <g id="patch_5">
    <path d="M 55.065625 241.036875 
L 349.2 241.036875 
" style="fill: none; stroke: #000000; stroke-width: 0.8; stroke-linejoin: miter; stroke-linecap: square"/>
   </g>
   <g id="patch_6">
    <path d="M 55.065625 25.9575 
L 349.2 25.9575 
" style="fill: none; stroke: #000000; stroke-width: 0.8; stroke-linejoin: miter; stroke-linecap: square"/>
   </g>
  </g>
 </g>
 <defs>
  <clipPath id="pfab4599584">
   <rect x="55.065625" y="25.9575" width="294.134375" height="215.079375"/>
  </clipPath>
 </defs>
</svg>
