<?xml version="1.0" encoding="utf-8" standalone="no"?>
<!DOCTYPE svg PUBLIC "-//W3C//DTD SVG 1.1//EN"
  "http://www.w3.org/Graphics/SVG/1.1/DTD/svg11.dtd">
<svg xmlns:xlink="http://www.w3.org/1999/xlink" width="414pt" height="180pt" viewBox="0 0 414 180" xmlns="http://www.w3.org/2000/svg" version="1.1">
 <metadata>
  <rdf:RDF xmlns:dc="http://purl.org/dc/elements/1.1/" xmlns:cc="http://creativecommons.org/ns#" xmlns:rdf="http://www.w3.org/1999/02/22-rdf-syntax-ns#">
   <cc:Work>
    <dc:type rdf:resource="http://purl.org/dc/dcmitype/StillImage"/>
    <dc:date>2026-04-02T23:02:02.414748</dc:date>
    <dc:format>image/svg+xml</dc:format>
    <dc:creator>
     <cc:Agent>
      <dc:title>Matplotlib v3.10.7, https://matplotlib.org/</dc:title>
     </cc:Agent>
    </dc:creator>
   </cc:Work>
  </rdf:RDF>
 </metadata>
 <defs>
  <style type="text/css">*{stroke-linejoin: round; stroke-linecap: butt}</style>
 </defs>
 <g id="figure_1">
  <g id="patch_1">
   <path d="M 0 180 
L 414 180 
L 414 0 
L 0 0 
L 0 180 
z
" style="fill: none"/>
  </g>
  <g id="axes_1">
   <g id="patch_2">
    <path d="M 59.058906 139.811563 
L 397.041307 139.811563 
L 397.041307 10.8 
L 59.058906 10.8 
L 59.058906 139.811563 
z
" style="fill: none"/>
   </g>
   <g id="matplotlib.axis_1">
    <g id="xtick_1">
     <g id="line2d_1">
      <defs>
       <path id="m0ea31c37f0" d="M 0 0 
L 0 3.5 
" style="stroke: #000000; stroke-width: 0.8"/>
      </defs>
      <g>
       <use xlink:href="#m0ea31c37f0" x="74.421743" y="139.811563" style="stroke: #000000; stroke-width: 0.8"/>
      </g>
     </g>
     <g id="text_1">
      <!-- 0 -->
      <g transform="translate(71.558618 153.650156) scale(0.09 -0.09)">
       <defs>
        <path id="DejaVuSans-30" d="M 2034 4250 
Q 1547 4250 1301 3770 
Q 1056 3291 1056 2328 
Q 1056 1369 1301 889 
Q 1547 409 2034 409 
Q 2525 409 2770 889 
Q 3016 1369 3016 2328 
Q 3016 3291 2770 3770 
Q 2525 4250 2034 4250 
z
M 2034 4750 
Q 2819 4750 3233 4129 
Q 3647 3509 3647 2328 
Q 3647 1150 3233 529 
Q 2819 -91 2034 -91 
Q 1250 -91 836 529 
Q 422 1150 422 2328 
Q 422 3509 836 4129 
Q 1250 4750 2034 4750 
z
" transform="scale(0.015625)"/>
       </defs>
       <use xlink:href="#DejaVuSans-30"/>
      </g>
     </g>
    </g>
    <g id="xtick_2">
     <g id="line2d_2">
      <g>
       <use xlink:href="#m0ea31c37f0" x="138.433561" y="139.811563" style="stroke: #000000; stroke-width: 0.8"/>
      </g>
     </g>
     <g id="text_2">
      <!-- 50 -->
      <g transform="translate(132.707311 153.650156) scale(0.09 -0.09)">
       <defs>
        <path id="DejaVuSans-35" d="M 691 4666 
L 3169 4666 
L 3169 4134 
L 1269 4134 
L 1269 2991 
Q 1406 3038 1543 3061 
Q 1681 3084 1819 3084 
Q 2600 3084 3056 2656 
Q 3513 2228 3513 1497 
Q 3513 744 3044 326 
Q 2575 -91 1722 -91 
Q 1428 -91 1123 -41 
Q 819 9 494 109 
L 494 744 
Q 775 591 1075 516 
Q 1375 441 1709 441 
Q 2250 441 2565 725 
Q 2881 1009 2881 1497 
Q 2881 1984 2565 2268 
Q 2250 2553 1709 2553 
Q 1456 2553 1204 2497 
Q 953 2441 691 2322 
L 691 4666 
z
" transform="scale(0.015625)"/>
       </defs>
       <use xlink:href="#DejaVuSans-35"/>
       <use xlink:href="#DejaVuSans-30" transform="translate(63.623047 0)"/>
      </g>
     </g>
    </g>
    <g id="xtick_3">
     <g id="line2d_3">
      <g>
       <use xlink:href="#m0ea31c37f0" x="202.445379" y="139.811563" style="stroke: #000000; stroke-width: 0.8"/>
      </g>
     </g>
     <g id="text_3">
      <!-- 100 -->
      <g transform="translate(193.856004 153.650156) scale(0.09 -0.09)">
       <defs>
        <path id="DejaVuSans-31" d="M 794 531 
L 1825 531 
L 1825 4091 
L 703 3866 
L 703 4441 
L 1819 4666 
L 2450 4666 
L 2450 531 
L 3481 531 
L 3481 0 
L 794 0 
L 794 531 
z
" transform="scale(0.015625)"/>
       </defs>
       <use xlink:href="#DejaVuSans-31"/>
       <use xlink:href="#DejaVuSans-30" transform="translate(63.623047 0)"/>
       <use xlink:href="#DejaVuSans-30" transform="translate(127.246094 0)"/>
      </g>
     </g>
    </g>
    <g id="xtick_4">
     <g id="line2d_4">
      <g>
       <use xlink:href="#m0ea31c37f0" x="266.457198" y="139.811563" style="stroke: #000000; stroke-width: 0.8"/>
      </g>
     </g>
     <g id="text_4">
      <!-- 150 -->
      <g transform="translate(257.867823 153.650156) scale(0.09 -0.09)">
       <use xlink:href="#DejaVuSans-31"/>
       <use xlink:href="#DejaVuSans-35" transform="translate(63.623047 0)"/>
       <use xlink:href="#DejaVuSans-30" transform="translate(127.246094 0)"/>
      </g>
     </g>
    </g>
    <g id="xtick_5">
     <g id="line2d_5">
      <g>
       <use xlink:href="#m0ea31c37f0" x="330.469016" y="139.811563" style="stroke: #000000; stroke-width: 0.8"/>
      </g>
     </g>
     <g id="text_5">
      <!-- 200 -->
      <g transform="translate(321.879641 153.650156) scale(0.09 -0.09)">
       <defs>
        <path id="DejaVuSans-32" d="M 1228 531 
L 3431 531 
L 3431 0 
L 469 0 
L 469 531 
Q 828 903 1448 1529 
Q 2069 2156 2228 2338 
Q 2531 2678 2651 2914 
Q 2772 3150 2772 3378 
Q 2772 3750 2511 3984 
Q 2250 4219 1831 4219 
Q 1534 4219 1204 4116 
Q 875 4013 500 3803 
L 500 4441 
Q 881 4594 1212 4672 
Q 1544 4750 1819 4750 
Q 2544 4750 2975 4387 
Q 3406 4025 3406 3419 
Q 3406 3131 3298 2873 
Q 3191 2616 2906 2266 
Q 2828 2175 2409 1742 
Q 1991 1309 1228 531 
z
" transform="scale(0.015625)"/>
       </defs>
       <use xlink:href="#DejaVuSans-32"/>
       <use xlink:href="#DejaVuSans-30" transform="translate(63.623047 0)"/>
       <use xlink:href="#DejaVuSans-30" transform="translate(127.246094 0)"/>
      </g>
     </g>
    </g>
    <g id="xtick_6">
     <g id="line2d_6">
      <g>
       <use xlink:href="#m0ea31c37f0" x="394.480834" y="139.811563" style="stroke: #000000; stroke-width: 0.8"/>
      </g>
     </g>
     <g id="text_6">
      <!-- 250 -->
      <g transform="translate(385.891459 153.650156) scale(0.09 -0.09)">
       <use xlink:href="#DejaVuSans-32"/>
       <use xlink:href="#DejaVuSans-35" transform="translate(63.623047 0)"/>
       <use xlink:href="#DejaVuSans-30" transform="translate(127.246094 0)"/>
      </g>
     </g>
    </g>
    <g id="text_7">
     <!-- Time [min] -->
     <g transform="translate(200.897763 167.120313) scale(0.1 -0.1)">
      <defs>
       <path id="DejaVuSans-54" d="M -19 4666 
L 3928 4666 
L 3928 4134 
L 2272 4134 
L 2272 0 
L 1638 0 
L 1638 4134 
L -19 4134 
L -19 4666 
z
" transform="scale(0.015625)"/>
       <path id="DejaVuSans-69" d="M 603 3500 
L 1178 3500 
L 1178 0 
L 603 0 
L 603 3500 
z
M 603 4863 
L 1178 4863 
L 1178 4134 
L 603 4134 
L 603 4863 
z
" transform="scale(0.015625)"/>
       <path id="DejaVuSans-6d" d="M 3328 2828 
Q 3544 3216 3844 3400 
Q 4144 3584 4550 3584 
Q 5097 3584 5394 3201 
Q 5691 2819 5691 2113 
L 5691 0 
L 5113 0 
L 5113 2094 
Q 5113 2597 4934 2840 
Q 4756 3084 4391 3084 
Q 3944 3084 3684 2787 
Q 3425 2491 3425 1978 
L 3425 0 
L 2847 0 
L 2847 2094 
Q 2847 2600 2669 2842 
Q 2491 3084 2119 3084 
Q 1678 3084 1418 2786 
Q 1159 2488 1159 1978 
L 1159 0 
L 581 0 
L 581 3500 
L 1159 3500 
L 1159 2956 
Q 1356 3278 1631 3431 
Q 1906 3584 2284 3584 
Q 2666 3584 2933 3390 
Q 3200 3197 3328 2828 
z
" transform="scale(0.015625)"/>
       <path id="DejaVuSans-65" d="M 3597 1894 
L 3597 1613 
L 953 1613 
Q 991 1019 1311 708 
Q 1631 397 2203 397 
Q 2534 397 2845 478 
Q 3156 559 3463 722 
L 3463 178 
Q 3153 47 2828 -22 
Q 2503 -91 2169 -91 
Q 1331 -91 842 396 
Q 353 884 353 1716 
Q 353 2575 817 3079 
Q 1281 3584 2069 3584 
Q 2775 3584 3186 3129 
Q 3597 2675 3597 1894 
z
M 3022 2063 
Q 3016 2534 2758 2815 
Q 2500 3097 2075 3097 
Q 1594 3097 1305 2825 
Q 1016 2553 972 2059 
L 3022 2063 
z
" transform="scale(0.015625)"/>
       <path id="DejaVuSans-20" transform="scale(0.015625)"/>
       <path id="DejaVuSans-5b" d="M 550 4863 
L 1875 4863 
L 1875 4416 
L 1125 4416 
L 1125 -397 
L 1875 -397 
L 1875 -844 
L 550 -844 
L 550 4863 
z
" transform="scale(0.015625)"/>
       <path id="DejaVuSans-6e" d="M 3513 2113 
L 3513 0 
L 2938 0 
L 2938 2094 
Q 2938 2591 2744 2837 
Q 2550 3084 2163 3084 
Q 1697 3084 1428 2787 
Q 1159 2491 1159 1978 
L 1159 0 
L 581 0 
L 581 3500 
L 1159 3500 
L 1159 2956 
Q 1366 3272 1645 3428 
Q 1925 3584 2291 3584 
Q 2894 3584 3203 3211 
Q 3513 2838 3513 2113 
z
" transform="scale(0.015625)"/>
       <path id="DejaVuSans-5d" d="M 1947 4863 
L 1947 -844 
L 622 -844 
L 622 -397 
L 1369 -397 
L 1369 4416 
L 622 4416 
L 622 4863 
L 1947 4863 
z
" transform="scale(0.015625)"/>
      </defs>
      <use xlink:href="#DejaVuSans-54"/>
      <use xlink:href="#DejaVuSans-69" transform="translate(57.958984 0)"/>
      <use xlink:href="#DejaVuSans-6d" transform="translate(85.742188 0)"/>
      <use xlink:href="#DejaVuSans-65" transform="translate(183.154297 0)"/>
      <use xlink:href="#DejaVuSans-20" transform="translate(244.677734 0)"/>
      <use xlink:href="#DejaVuSans-5b" transform="translate(276.464844 0)"/>
      <use xlink:href="#DejaVuSans-6d" transform="translate(315.478516 0)"/>
      <use xlink:href="#DejaVuSans-69" transform="translate(412.890625 0)"/>
      <use xlink:href="#DejaVuSans-6e" transform="translate(440.673828 0)"/>
      <use xlink:href="#DejaVuSans-5d" transform="translate(504.052734 0)"/>
     </g>
    </g>
   </g>
   <g id="matplotlib.axis_2">
    <g id="ytick_1">
     <g id="line2d_7">
      <defs>
       <path id="m31c360d324" d="M 0 0 
L -3.5 0 
" style="stroke: #000000; stroke-width: 0.8"/>
      </defs>
      <g>
       <use xlink:href="#m31c360d324" x="59.058906" y="134.910845" style="stroke: #000000; stroke-width: 0.8"/>
      </g>
     </g>
     <g id="text_8">
      <!-- −0.75 -->
      <g transform="translate(24.478125 138.330142) scale(0.09 -0.09)">
       <defs>
        <path id="DejaVuSans-2212" d="M 678 2272 
L 4684 2272 
L 4684 1741 
L 678 1741 
L 678 2272 
z
" transform="scale(0.015625)"/>
        <path id="DejaVuSans-2e" d="M 684 794 
L 1344 794 
L 1344 0 
L 684 0 
L 684 794 
z
" transform="scale(0.015625)"/>
        <path id="DejaVuSans-37" d="M 525 4666 
L 3525 4666 
L 3525 4397 
L 1831 0 
L 1172 0 
L 2766 4134 
L 525 4134 
L 525 4666 
z
" transform="scale(0.015625)"/>
       </defs>
       <use xlink:href="#DejaVuSans-2212"/>
       <use xlink:href="#DejaVuSans-30" transform="translate(83.789062 0)"/>
       <use xlink:href="#DejaVuSans-2e" transform="translate(147.412109 0)"/>
       <use xlink:href="#DejaVuSans-37" transform="translate(179.199219 0)"/>
       <use xlink:href="#DejaVuSans-35" transform="translate(242.822266 0)"/>
      </g>
     </g>
    </g>
    <g id="ytick_2">
     <g id="line2d_8">
      <g>
       <use xlink:href="#m31c360d324" x="59.058906" y="113.995524" style="stroke: #000000; stroke-width: 0.8"/>
      </g>
     </g>
     <g id="text_9">
      <!-- −0.50 -->
      <g transform="translate(24.478125 117.414821) scale(0.09 -0.09)">
       <use xlink:href="#DejaVuSans-2212"/>
       <use xlink:href="#DejaVuSans-30" transform="translate(83.789062 0)"/>
       <use xlink:href="#DejaVuSans-2e" transform="translate(147.412109 0)"/>
       <use xlink:href="#DejaVuSans-35" transform="translate(179.199219 0)"/>
       <use xlink:href="#DejaVuSans-30" transform="translate(242.822266 0)"/>
      </g>
     </g>
    </g>
    <g id="ytick_3">
     <g id="line2d_9">
      <g>
       <use xlink:href="#m31c360d324" x="59.058906" y="93.080202" style="stroke: #000000; stroke-width: 0.8"/>
      </g>
     </g>
     <g id="text_10">
      <!-- −0.25 -->
      <g transform="translate(24.478125 96.499499) scale(0.09 -0.09)">
       <use xlink:href="#DejaVuSans-2212"/>
       <use xlink:href="#DejaVuSans-30" transform="translate(83.789062 0)"/>
       <use xlink:href="#DejaVuSans-2e" transform="translate(147.412109 0)"/>
       <use xlink:href="#DejaVuSans-32" transform="translate(179.199219 0)"/>
       <use xlink:href="#DejaVuSans-35" transform="translate(242.822266 0)"/>
      </g>
     </g>
    </g>
    <g id="ytick_4">
     <g id="line2d_10">
      <g>
       <use xlink:href="#m31c360d324" x="59.058906" y="72.164881" style="stroke: #000000; stroke-width: 0.8"/>
      </g>
     </g>
     <g id="text_11">
      <!-- 0.00 -->
      <g transform="translate(32.019844 75.584177) scale(0.09 -0.09)">
       <use xlink:href="#DejaVuSans-30"/>
       <use xlink:href="#DejaVuSans-2e" transform="translate(63.623047 0)"/>
       <use xlink:href="#DejaVuSans-30" transform="translate(95.410156 0)"/>
       <use xlink:href="#DejaVuSans-30" transform="translate(159.033203 0)"/>
      </g>
     </g>
    </g>
    <g id="ytick_5">
     <g id="line2d_11">
      <g>
       <use xlink:href="#m31c360d324" x="59.058906" y="51.249559" style="stroke: #000000; stroke-width: 0.8"/>
      </g>
     </g>
     <g id="text_12">
      <!-- 0.25 -->
      <g transform="translate(32.019844 54.668856) scale(0.09 -0.09)">
       <use xlink:href="#DejaVuSans-30"/>
       <use xlink:href="#DejaVuSans-2e" transform="translate(63.623047 0)"/>
       <use xlink:href="#DejaVuSans-32" transform="translate(95.410156 0)"/>
       <use xlink:href="#DejaVuSans-35" transform="translate(159.033203 0)"/>
      </g>
     </g>
    </g>
    <g id="ytick_6">
     <g id="line2d_12">
      <g>
       <use xlink:href="#m31c360d324" x="59.058906" y="30.334237" style="stroke: #000000; stroke-width: 0.8"/>
      </g>
     </g>
     <g id="text_13">
      <!-- 0.50 -->
      <g transform="translate(32.019844 33.753534) scale(0.09 -0.09)">
       <use xlink:href="#DejaVuSans-30"/>
       <use xlink:href="#DejaVuSans-2e" transform="translate(63.623047 0)"/>
       <use xlink:href="#DejaVuSans-35" transform="translate(95.410156 0)"/>
       <use xlink:href="#DejaVuSans-30" transform="translate(159.033203 0)"/>
      </g>
     </g>
    </g>
    <g id="text_14">
     <!-- RW Motor Torque (Nm) -->
     <g transform="translate(18.398438 131.902656) rotate(-90) scale(0.1 -0.1)">
      <defs>
       <path id="DejaVuSans-52" d="M 2841 2188 
Q 3044 2119 3236 1894 
Q 3428 1669 3622 1275 
L 4263 0 
L 3584 0 
L 2988 1197 
Q 2756 1666 2539 1819 
Q 2322 1972 1947 1972 
L 1259 1972 
L 1259 0 
L 628 0 
L 628 4666 
L 2053 4666 
Q 2853 4666 3247 4331 
Q 3641 3997 3641 3322 
Q 3641 2881 3436 2590 
Q 3231 2300 2841 2188 
z
M 1259 4147 
L 1259 2491 
L 2053 2491 
Q 2509 2491 2742 2702 
Q 2975 2913 2975 3322 
Q 2975 3731 2742 3939 
Q 2509 4147 2053 4147 
L 1259 4147 
z
" transform="scale(0.015625)"/>
       <path id="DejaVuSans-57" d="M 213 4666 
L 850 4666 
L 1831 722 
L 2809 4666 
L 3519 4666 
L 4500 722 
L 5478 4666 
L 6119 4666 
L 4947 0 
L 4153 0 
L 3169 4050 
L 2175 0 
L 1381 0 
L 213 4666 
z
" transform="scale(0.015625)"/>
       <path id="DejaVuSans-4d" d="M 628 4666 
L 1569 4666 
L 2759 1491 
L 3956 4666 
L 4897 4666 
L 4897 0 
L 4281 0 
L 4281 4097 
L 3078 897 
L 2444 897 
L 1241 4097 
L 1241 0 
L 628 0 
L 628 4666 
z
" transform="scale(0.015625)"/>
       <path id="DejaVuSans-6f" d="M 1959 3097 
Q 1497 3097 1228 2736 
Q 959 2375 959 1747 
Q 959 1119 1226 758 
Q 1494 397 1959 397 
Q 2419 397 2687 759 
Q 2956 1122 2956 1747 
Q 2956 2369 2687 2733 
Q 2419 3097 1959 3097 
z
M 1959 3584 
Q 2709 3584 3137 3096 
Q 3566 2609 3566 1747 
Q 3566 888 3137 398 
Q 2709 -91 1959 -91 
Q 1206 -91 779 398 
Q 353 888 353 1747 
Q 353 2609 779 3096 
Q 1206 3584 1959 3584 
z
" transform="scale(0.015625)"/>
       <path id="DejaVuSans-74" d="M 1172 4494 
L 1172 3500 
L 2356 3500 
L 2356 3053 
L 1172 3053 
L 1172 1153 
Q 1172 725 1289 603 
Q 1406 481 1766 481 
L 2356 481 
L 2356 0 
L 1766 0 
Q 1100 0 847 248 
Q 594 497 594 1153 
L 594 3053 
L 172 3053 
L 172 3500 
L 594 3500 
L 594 4494 
L 1172 4494 
z
" transform="scale(0.015625)"/>
       <path id="DejaVuSans-72" d="M 2631 2963 
Q 2534 3019 2420 3045 
Q 2306 3072 2169 3072 
Q 1681 3072 1420 2755 
Q 1159 2438 1159 1844 
L 1159 0 
L 581 0 
L 581 3500 
L 1159 3500 
L 1159 2956 
Q 1341 3275 1631 3429 
Q 1922 3584 2338 3584 
Q 2397 3584 2469 3576 
Q 2541 3569 2628 3553 
L 2631 2963 
z
" transform="scale(0.015625)"/>
       <path id="DejaVuSans-71" d="M 947 1747 
Q 947 1113 1208 752 
Q 1469 391 1925 391 
Q 2381 391 2643 752 
Q 2906 1113 2906 1747 
Q 2906 2381 2643 2742 
Q 2381 3103 1925 3103 
Q 1469 3103 1208 2742 
Q 947 2381 947 1747 
z
M 2906 525 
Q 2725 213 2448 61 
Q 2172 -91 1784 -91 
Q 1150 -91 751 415 
Q 353 922 353 1747 
Q 353 2572 751 3078 
Q 1150 3584 1784 3584 
Q 2172 3584 2448 3432 
Q 2725 3281 2906 2969 
L 2906 3500 
L 3481 3500 
L 3481 -1331 
L 2906 -1331 
L 2906 525 
z
" transform="scale(0.015625)"/>
       <path id="DejaVuSans-75" d="M 544 1381 
L 544 3500 
L 1119 3500 
L 1119 1403 
Q 1119 906 1312 657 
Q 1506 409 1894 409 
Q 2359 409 2629 706 
Q 2900 1003 2900 1516 
L 2900 3500 
L 3475 3500 
L 3475 0 
L 2900 0 
L 2900 538 
Q 2691 219 2414 64 
Q 2138 -91 1772 -91 
Q 1169 -91 856 284 
Q 544 659 544 1381 
z
M 1991 3584 
L 1991 3584 
z
" transform="scale(0.015625)"/>
       <path id="DejaVuSans-28" d="M 1984 4856 
Q 1566 4138 1362 3434 
Q 1159 2731 1159 2009 
Q 1159 1288 1364 580 
Q 1569 -128 1984 -844 
L 1484 -844 
Q 1016 -109 783 600 
Q 550 1309 550 2009 
Q 550 2706 781 3412 
Q 1013 4119 1484 4856 
L 1984 4856 
z
" transform="scale(0.015625)"/>
       <path id="DejaVuSans-4e" d="M 628 4666 
L 1478 4666 
L 3547 763 
L 3547 4666 
L 4159 4666 
L 4159 0 
L 3309 0 
L 1241 3903 
L 1241 0 
L 628 0 
L 628 4666 
z
" transform="scale(0.015625)"/>
       <path id="DejaVuSans-29" d="M 513 4856 
L 1013 4856 
Q 1481 4119 1714 3412 
Q 1947 2706 1947 2009 
Q 1947 1309 1714 600 
Q 1481 -109 1013 -844 
L 513 -844 
Q 928 -128 1133 580 
Q 1338 1288 1338 2009 
Q 1338 2731 1133 3434 
Q 928 4138 513 4856 
z
" transform="scale(0.015625)"/>
      </defs>
      <use xlink:href="#DejaVuSans-52"/>
      <use xlink:href="#DejaVuSans-57" transform="translate(65.482422 0)"/>
      <use xlink:href="#DejaVuSans-20" transform="translate(164.359375 0)"/>
      <use xlink:href="#DejaVuSans-4d" transform="translate(196.146484 0)"/>
      <use xlink:href="#DejaVuSans-6f" transform="translate(282.425781 0)"/>
      <use xlink:href="#DejaVuSans-74" transform="translate(343.607422 0)"/>
      <use xlink:href="#DejaVuSans-6f" transform="translate(382.816406 0)"/>
      <use xlink:href="#DejaVuSans-72" transform="translate(443.998047 0)"/>
      <use xlink:href="#DejaVuSans-20" transform="translate(485.111328 0)"/>
      <use xlink:href="#DejaVuSans-54" transform="translate(516.898438 0)"/>
      <use xlink:href="#DejaVuSans-6f" transform="translate(560.982422 0)"/>
      <use xlink:href="#DejaVuSans-72" transform="translate(622.164062 0)"/>
      <use xlink:href="#DejaVuSans-71" transform="translate(661.527344 0)"/>
      <use xlink:href="#DejaVuSans-75" transform="translate(725.003906 0)"/>
      <use xlink:href="#DejaVuSans-65" transform="translate(788.382812 0)"/>
      <use xlink:href="#DejaVuSans-20" transform="translate(849.90625 0)"/>
      <use xlink:href="#DejaVuSans-28" transform="translate(881.693359 0)"/>
      <use xlink:href="#DejaVuSans-4e" transform="translate(920.707031 0)"/>
      <use xlink:href="#DejaVuSans-6d" transform="translate(995.511719 0)"/>
      <use xlink:href="#DejaVuSans-29" transform="translate(1092.923828 0)"/>
     </g>
    </g>
   </g>
   <g id="line2d_13">
    <path d="M 74.421743 72.164881 
L 74.635115 75.131296 
L 75.061861 70.102385 
L 75.275234 69.724585 
L 75.488606 70.014793 
L 76.342097 71.971847 
L 76.768843 72.400244 
L 77.195588 72.52951 
L 78.049079 72.422921 
L 79.756061 72.172425 
L 82.103161 72.145552 
L 97.892743 72.16488 
L 124.137588 72.164881 
L 124.350961 87.838667 
L 124.777706 77.51412 
L 125.204452 72.123946 
L 125.631197 69.677937 
L 125.84457 69.160201 
L 126.057943 68.946539 
L 126.271315 68.943755 
L 126.698061 69.303381 
L 128.405043 71.317311 
L 129.258534 71.815856 
L 130.112025 72.047968 
L 131.605634 72.163152 
L 134.806225 72.16706 
L 135.019597 56.518981 
L 135.446343 66.966738 
L 135.873088 72.288915 
L 136.299834 74.66195 
L 136.513206 75.15511 
L 136.726579 75.352131 
L 136.939952 75.34485 
L 137.366697 74.978896 
L 139.073679 72.993461 
L 139.92717 72.505604 
L 140.780661 72.278814 
L 142.27427 72.166391 
L 148.675452 72.164833 
L 213.754134 72.164881 
L 213.967507 16.664162 
L 215.03437 72.526444 
L 215.461116 79.495332 
L 215.674488 80.578089 
L 215.887861 80.793726 
L 216.101234 80.484525 
L 216.527979 79.128699 
L 217.594843 75.488654 
L 218.234961 74.074714 
L 218.875079 73.199903 
L 219.515197 72.69684 
L 220.368688 72.366381 
L 221.648925 72.20266 
L 224.209397 72.164727 
L 224.42277 133.947401 
L 225.703007 69.699051 
L 226.129752 64.190192 
L 226.343125 63.488031 
L 226.556497 63.513236 
L 226.983243 64.658416 
L 228.050107 68.461878 
L 228.263479 35.232273 
L 229.330343 72.619262 
L 229.757088 76.946045 
L 229.970461 77.675764 
L 230.183834 77.857258 
L 230.397207 77.693121 
L 230.823952 76.849725 
L 231.890816 74.438206 
L 232.530934 73.47352 
L 233.171052 72.871456 
L 234.024543 72.447932 
L 235.091407 72.241062 
L 237.011761 72.167094 
L 255.788561 72.164842 
L 303.370679 72.164856 
L 303.584052 49.276402 
L 304.010798 66.286654 
L 304.437543 73.311229 
L 304.864288 75.434546 
L 305.077661 75.669095 
L 305.291034 75.62903 
L 305.717779 75.153259 
L 306.998016 73.442277 
L 307.851507 72.787613 
L 308.704998 72.448191 
L 309.985234 72.244468 
L 311.905588 72.175906 
L 312.118961 79.844232 
L 312.545707 74.392017 
L 312.972452 71.852182 
L 313.399198 70.863924 
L 313.825943 70.649805 
L 314.252688 70.782202 
L 316.386416 71.868679 
L 317.666652 72.08688 
L 319.800379 72.16079 
L 338.150434 72.164875 
L 381.67847 72.16488 
L 381.67847 72.16488 
" clip-path="url(#paab414f810)" style="fill: none; stroke-dasharray: 5.55,2.4; stroke-dashoffset: 0; stroke: #225e7c; stroke-width: 1.5"/>
   </g>
   <g id="line2d_14">
    <path d="M 74.421743 72.164881 
L 74.635115 75.131296 
L 75.061861 70.102385 
L 75.275234 69.724585 
L 75.488606 70.014793 
L 76.342097 71.971847 
L 76.768843 72.400244 
L 77.195588 72.52951 
L 78.049079 72.422921 
L 79.756061 72.172425 
L 82.103161 72.145552 
L 97.892743 72.16488 
L 124.137588 72.164881 
L 124.350961 87.838667 
L 124.777706 77.51412 
L 125.204452 72.123946 
L 125.631197 69.677937 
L 125.84457 69.160201 
L 126.057943 68.946539 
L 126.271315 68.943755 
L 126.698061 69.303381 
L 128.405043 71.317311 
L 129.258534 71.815856 
L 130.112025 72.047968 
L 131.605634 72.163152 
L 134.806225 72.16706 
L 135.019597 56.518981 
L 135.446343 66.966738 
L 135.873088 72.288915 
L 136.299834 74.66195 
L 136.513206 75.15511 
L 136.726579 75.352131 
L 136.939952 75.34485 
L 137.366697 74.978896 
L 139.073679 72.993461 
L 139.92717 72.505604 
L 140.780661 72.278814 
L 142.27427 72.166391 
L 148.675452 72.164833 
L 213.754134 72.164881 
L 213.967507 55.432623 
L 214.607625 55.432623 
L 215.03437 72.526444 
L 215.461116 79.495332 
L 215.674488 80.578089 
L 215.887861 80.793726 
L 216.101234 80.484525 
L 216.527979 79.128699 
L 217.594843 75.488654 
L 218.234961 74.074714 
L 218.875079 73.199903 
L 219.515197 72.69684 
L 220.368688 72.366381 
L 221.648925 72.20266 
L 224.209397 72.164727 
L 224.42277 88.897138 
L 225.062888 88.897138 
L 225.276261 86.003241 
L 225.703007 69.699051 
L 226.129752 64.190192 
L 226.343125 63.488031 
L 226.556497 63.513236 
L 226.983243 64.658416 
L 228.050107 68.461878 
L 228.263479 55.432623 
L 228.690225 55.432623 
L 229.330343 72.619262 
L 229.757088 76.946045 
L 229.970461 77.675764 
L 230.183834 77.857258 
L 230.397207 77.693121 
L 230.823952 76.849725 
L 231.890816 74.438206 
L 232.530934 73.47352 
L 233.171052 72.871456 
L 234.024543 72.447932 
L 235.091407 72.241062 
L 237.011761 72.167094 
L 255.788561 72.164842 
L 303.370679 72.164856 
L 303.584052 55.432623 
L 303.797425 59.059846 
L 304.22417 70.710021 
L 304.650916 74.742525 
L 304.864288 75.434546 
L 305.077661 75.669095 
L 305.291034 75.62903 
L 305.717779 75.153259 
L 306.998016 73.442277 
L 307.851507 72.787613 
L 308.704998 72.448191 
L 309.985234 72.244468 
L 311.905588 72.175906 
L 312.118961 79.844232 
L 312.545707 74.392017 
L 312.972452 71.852182 
L 313.399198 70.863924 
L 313.825943 70.649805 
L 314.252688 70.782202 
L 316.386416 71.868679 
L 317.666652 72.08688 
L 319.800379 72.16079 
L 338.150434 72.164875 
L 381.67847 72.16488 
L 381.67847 72.16488 
" clip-path="url(#paab414f810)" style="fill: none; stroke: #225e7c; stroke-width: 1.5; stroke-linecap: square"/>
   </g>
   <g id="line2d_15">
    <path d="M 74.421743 72.164881 
L 74.635115 78.173316 
L 75.061861 72.342353 
L 75.275234 71.186608 
L 75.488606 70.793269 
L 75.701979 70.768944 
L 76.342097 71.27238 
L 76.982215 71.685152 
L 77.835706 71.941256 
L 79.329315 72.081964 
L 83.383397 72.157598 
L 109.201497 72.164881 
L 124.137588 72.164881 
L 124.350961 46.694719 
L 124.991079 67.925222 
L 125.417825 74.182574 
L 125.84457 76.465584 
L 126.057943 76.780466 
L 126.271315 76.774052 
L 126.698061 76.228597 
L 128.19167 73.613241 
L 128.831788 72.956024 
L 129.471906 72.562969 
L 130.325397 72.301941 
L 131.605634 72.178974 
L 134.806225 72.162869 
L 135.019597 97.634131 
L 135.659715 76.438949 
L 136.086461 70.141609 
L 136.513206 67.84497 
L 136.726579 67.530141 
L 136.939952 67.538796 
L 137.366697 68.090664 
L 138.860306 70.715424 
L 139.500425 71.372182 
L 140.140543 71.764629 
L 140.994034 72.025453 
L 142.27427 72.149098 
L 146.114979 72.165927 
L 213.754134 72.164881 
L 213.967507 53.322324 
L 214.394252 65.251898 
L 214.820997 72.630986 
L 215.03437 74.415423 
L 215.247743 75.209633 
L 215.461116 75.420778 
L 215.674488 75.307099 
L 216.314607 74.326116 
L 216.954725 73.419978 
L 217.594843 72.85361 
L 218.448334 72.476256 
L 219.515197 72.293703 
L 221.862297 72.189695 
L 224.209397 72.168763 
L 224.42277 94.850603 
L 225.062888 77.059761 
L 225.489634 70.569667 
L 225.703007 69.29715 
L 225.916379 68.882532 
L 226.129752 68.946447 
L 226.76987 70.035213 
L 227.409988 70.989103 
L 228.050107 71.522351 
L 228.263479 81.036015 
L 228.690225 77.447675 
L 229.11697 73.427928 
L 229.543716 71.068266 
L 229.970461 69.999471 
L 230.183834 69.809413 
L 230.610579 69.857954 
L 231.250697 70.423526 
L 232.317561 71.392237 
L 233.171052 71.837802 
L 234.237916 72.080601 
L 235.944897 72.166729 
L 249.387379 72.164833 
L 303.370679 72.164932 
L 303.584052 62.95559 
L 304.010798 71.619723 
L 304.22417 73.106354 
L 304.437543 73.688964 
L 304.650916 73.798512 
L 305.077661 73.474081 
L 305.931152 72.705334 
L 306.57127 72.427077 
L 307.638134 72.273419 
L 311.26547 72.18516 
L 311.905588 72.178383 
L 312.118961 71.15507 
L 312.972452 72.04827 
L 313.61257 72.3561 
L 314.466061 72.413108 
L 319.373634 72.162884 
L 381.67847 72.164882 
L 381.67847 72.164882 
" clip-path="url(#paab414f810)" style="fill: none; stroke-dasharray: 5.55,2.4; stroke-dashoffset: 0; stroke: #3e915b; stroke-width: 1.5"/>
   </g>
   <g id="line2d_16">
    <path d="M 74.421743 72.164881 
L 74.635115 78.173316 
L 75.061861 72.342353 
L 75.275234 71.186608 
L 75.488606 70.793269 
L 75.701979 70.768944 
L 76.342097 71.27238 
L 76.982215 71.685152 
L 77.835706 71.941256 
L 79.329315 72.081964 
L 83.383397 72.157598 
L 109.201497 72.164881 
L 124.137588 72.164881 
L 124.350961 55.432623 
L 124.564334 55.432623 
L 124.991079 67.925222 
L 125.417825 74.182574 
L 125.84457 76.465584 
L 126.057943 76.780466 
L 126.271315 76.774052 
L 126.698061 76.228597 
L 128.19167 73.613241 
L 128.831788 72.956024 
L 129.471906 72.562969 
L 130.325397 72.301941 
L 131.605634 72.178974 
L 134.806225 72.162869 
L 135.019597 88.897138 
L 135.23297 88.897138 
L 135.659715 76.438949 
L 136.086461 70.141609 
L 136.513206 67.84497 
L 136.726579 67.530141 
L 136.939952 67.538796 
L 137.366697 68.090664 
L 138.860306 70.715424 
L 139.500425 71.372182 
L 140.140543 71.764629 
L 140.994034 72.025453 
L 142.27427 72.149098 
L 146.114979 72.165927 
L 213.754134 72.164881 
L 213.967507 55.432623 
L 214.820997 72.630986 
L 215.03437 74.415423 
L 215.247743 75.209633 
L 215.461116 75.420778 
L 215.674488 75.307099 
L 216.314607 74.326116 
L 216.954725 73.419978 
L 217.594843 72.85361 
L 218.448334 72.476256 
L 219.515197 72.293703 
L 221.862297 72.189695 
L 224.209397 72.168763 
L 224.42277 88.897138 
L 224.636143 88.207747 
L 225.062888 77.059761 
L 225.489634 70.569667 
L 225.703007 69.29715 
L 225.916379 68.882532 
L 226.129752 68.946447 
L 226.76987 70.035213 
L 227.409988 70.989103 
L 228.050107 71.522351 
L 228.263479 81.036015 
L 228.690225 77.447675 
L 229.11697 73.427928 
L 229.543716 71.068266 
L 229.970461 69.999471 
L 230.183834 69.809413 
L 230.610579 69.857954 
L 231.250697 70.423526 
L 232.317561 71.392237 
L 233.171052 71.837802 
L 234.237916 72.080601 
L 235.944897 72.166729 
L 249.387379 72.164833 
L 303.370679 72.164932 
L 303.584052 62.95559 
L 304.010798 71.619723 
L 304.22417 73.106354 
L 304.437543 73.688964 
L 304.650916 73.798512 
L 305.077661 73.474081 
L 305.931152 72.705334 
L 306.57127 72.427077 
L 307.638134 72.273419 
L 311.26547 72.18516 
L 311.905588 72.178383 
L 312.118961 71.15507 
L 312.972452 72.04827 
L 313.61257 72.3561 
L 314.466061 72.413108 
L 319.373634 72.162884 
L 381.67847 72.164882 
L 381.67847 72.164882 
" clip-path="url(#paab414f810)" style="fill: none; stroke: #3e915b; stroke-width: 1.5; stroke-linecap: square"/>
   </g>
   <g id="line2d_17">
    <path d="M 74.421743 72.164881 
L 74.635115 104.994498 
L 75.275234 75.59451 
L 75.701979 68.430527 
L 75.915352 67.164984 
L 76.128724 66.710178 
L 76.342097 66.741026 
L 76.768843 67.493954 
L 77.835706 69.859095 
L 78.475824 70.801333 
L 79.115943 71.39187 
L 79.969434 71.818486 
L 81.036297 72.043958 
L 82.956652 72.147449 
L 91.064815 72.164861 
L 124.137588 72.164881 
L 124.350961 54.650878 
L 124.777706 66.270415 
L 125.204452 72.290892 
L 125.631197 74.866267 
L 125.84457 75.385828 
L 126.057943 75.585482 
L 126.271315 75.567334 
L 126.698061 75.162122 
L 128.19167 73.232018 
L 128.831788 72.741223 
L 129.685279 72.382697 
L 130.752143 72.209169 
L 132.88587 72.15859 
L 134.806225 72.162824 
L 135.019597 89.690666 
L 135.446343 78.207066 
L 135.873088 72.077154 
L 136.299834 69.44199 
L 136.513206 68.914134 
L 136.726579 68.71364 
L 136.939952 68.734439 
L 137.366697 69.146818 
L 138.860306 71.085022 
L 139.500425 71.577312 
L 140.353915 71.938657 
L 141.420779 72.11566 
L 143.554506 72.17004 
L 213.754134 72.164881 
L 213.967507 106.194524 
L 214.394252 94.370409 
L 215.03437 73.512042 
L 215.461116 67.816883 
L 215.674488 66.652316 
L 215.887861 66.183564 
L 216.101234 66.177655 
L 216.527979 66.916663 
L 217.808216 69.99497 
L 218.448334 70.964102 
L 219.088452 71.549526 
L 219.72857 71.874134 
L 220.582061 72.074656 
L 222.07567 72.164226 
L 224.209397 72.168386 
L 224.42277 35.389263 
L 224.849516 46.460777 
L 225.489634 68.705941 
L 225.916379 75.568755 
L 226.129752 77.067104 
L 226.343125 77.765072 
L 226.556497 77.927835 
L 226.76987 77.749644 
L 227.196616 76.879003 
L 228.050107 74.826017 
L 228.263479 107.03956 
L 229.330343 73.119326 
L 229.757088 68.538949 
L 229.970461 67.618608 
L 230.183834 67.246532 
L 230.397207 67.237607 
L 230.823952 67.814792 
L 232.317561 70.604918 
L 232.957679 71.298342 
L 233.597797 71.713433 
L 234.451288 71.993433 
L 235.731525 72.134373 
L 239.145488 72.16566 
L 303.370679 72.164905 
L 303.584052 63.439034 
L 304.010798 72.058106 
L 304.22417 73.454358 
L 304.437543 73.916823 
L 304.650916 73.900263 
L 306.144525 72.395995 
L 306.784643 72.247552 
L 308.491625 72.221337 
L 311.905588 72.17894 
L 312.118961 64.469522 
L 312.545707 69.89449 
L 312.972452 72.45316 
L 313.399198 73.459247 
L 313.825943 73.682033 
L 314.252688 73.551947 
L 316.386416 72.461565 
L 317.666652 72.242934 
L 319.800379 72.168972 
L 337.937061 72.164887 
L 381.67847 72.164882 
L 381.67847 72.164882 
" clip-path="url(#paab414f810)" style="fill: none; stroke-dasharray: 5.55,2.4; stroke-dashoffset: 0; stroke: #8eac56; stroke-width: 1.5"/>
   </g>
   <g id="line2d_18">
    <path d="M 74.421743 72.164881 
L 74.635115 88.897138 
L 74.848488 88.897138 
L 75.701979 68.430527 
L 75.915352 67.164984 
L 76.128724 66.710178 
L 76.342097 66.741026 
L 76.768843 67.493954 
L 77.835706 69.859095 
L 78.475824 70.801333 
L 79.115943 71.39187 
L 79.969434 71.818486 
L 81.036297 72.043958 
L 82.956652 72.147449 
L 91.064815 72.164861 
L 124.137588 72.164881 
L 124.350961 55.432623 
L 124.777706 66.270415 
L 125.204452 72.290892 
L 125.631197 74.866267 
L 125.84457 75.385828 
L 126.057943 75.585482 
L 126.271315 75.567334 
L 126.698061 75.162122 
L 128.19167 73.232018 
L 128.831788 72.741223 
L 129.685279 72.382697 
L 130.752143 72.209169 
L 132.88587 72.15859 
L 134.806225 72.162824 
L 135.019597 88.897138 
L 135.659715 74.582075 
L 136.086461 70.436853 
L 136.513206 68.914134 
L 136.726579 68.71364 
L 136.939952 68.734439 
L 137.366697 69.146818 
L 138.860306 71.085022 
L 139.500425 71.577312 
L 140.353915 71.938657 
L 141.420779 72.11566 
L 143.554506 72.17004 
L 213.754134 72.164881 
L 213.967507 88.897138 
L 214.394252 88.897138 
L 214.607625 86.246027 
L 215.03437 73.512042 
L 215.461116 67.816883 
L 215.674488 66.652316 
L 215.887861 66.183564 
L 216.101234 66.177655 
L 216.527979 66.916663 
L 217.808216 69.99497 
L 218.448334 70.964102 
L 219.088452 71.549526 
L 219.72857 71.874134 
L 220.582061 72.074656 
L 222.07567 72.164226 
L 224.209397 72.168386 
L 224.42277 55.432623 
L 225.062888 55.432623 
L 225.703007 72.923358 
L 226.129752 77.067104 
L 226.343125 77.765072 
L 226.556497 77.927835 
L 226.76987 77.749644 
L 227.196616 76.879003 
L 228.050107 74.826017 
L 228.263479 88.897138 
L 228.690225 88.897138 
L 229.543716 70.260217 
L 229.970461 67.618608 
L 230.183834 67.246532 
L 230.397207 67.237607 
L 230.823952 67.814792 
L 232.317561 70.604918 
L 232.957679 71.298342 
L 233.597797 71.713433 
L 234.451288 71.993433 
L 235.731525 72.134373 
L 239.145488 72.16566 
L 303.370679 72.164905 
L 303.584052 63.439034 
L 304.010798 72.058106 
L 304.22417 73.454358 
L 304.437543 73.916823 
L 304.650916 73.900263 
L 306.144525 72.395995 
L 306.784643 72.247552 
L 308.491625 72.221337 
L 311.905588 72.17894 
L 312.118961 64.469522 
L 312.545707 69.89449 
L 312.972452 72.45316 
L 313.399198 73.459247 
L 313.825943 73.682033 
L 314.252688 73.551947 
L 316.386416 72.461565 
L 317.666652 72.242934 
L 319.800379 72.168972 
L 337.937061 72.164887 
L 381.67847 72.164882 
L 381.67847 72.164882 
" clip-path="url(#paab414f810)" style="fill: none; stroke: #8eac56; stroke-width: 1.5; stroke-linecap: square"/>
   </g>
   <g id="line2d_19">
    <path d="M 74.421743 72.164881 
L 74.635115 101.952478 
L 75.275234 74.132488 
L 75.701979 68.213995 
L 75.915352 67.376697 
L 76.128724 67.221698 
L 76.342097 67.440493 
L 78.262452 70.906166 
L 78.90257 71.429258 
L 79.756061 71.812497 
L 80.822924 72.027161 
L 82.743279 72.140263 
L 89.357834 72.164811 
L 124.137588 72.164881 
L 124.350961 95.794826 
L 124.991079 76.279485 
L 125.417825 70.327718 
L 125.84457 68.080445 
L 126.057943 67.751554 
L 126.271315 67.737037 
L 126.698061 68.236906 
L 128.19167 70.753499 
L 128.831788 71.394142 
L 129.471906 71.778131 
L 130.325397 72.033116 
L 131.605634 72.152552 
L 134.806225 72.167015 
L 135.019597 48.575516 
L 135.659715 68.233779 
L 136.086461 74.050332 
L 136.513206 76.224275 
L 136.726579 76.53563 
L 136.939952 76.540493 
L 137.366697 76.03505 
L 138.860306 73.541981 
L 139.500425 72.913092 
L 140.140543 72.538086 
L 140.994034 72.290563 
L 142.27427 72.175772 
L 146.541725 72.164049 
L 213.754134 72.164881 
L 213.967507 69.536362 
L 214.180879 69.430006 
L 214.607625 70.319005 
L 215.03437 71.623063 
L 215.461116 71.891437 
L 218.234961 72.221514 
L 224.209397 72.164351 
L 224.42277 74.486061 
L 224.849516 75.810398 
L 225.062888 75.895967 
L 225.276261 75.197812 
L 225.703007 73.325259 
L 226.129752 72.31085 
L 226.556497 71.805027 
L 226.983243 71.623874 
L 227.623361 71.662663 
L 228.050107 71.765544 
L 228.263479 61.235819 
L 229.11697 72.274728 
L 229.543716 74.578639 
L 229.757088 75.084494 
L 229.970461 75.294901 
L 230.183834 75.294377 
L 230.610579 74.925656 
L 232.104188 73.134856 
L 232.957679 72.584063 
L 233.81117 72.317846 
L 235.091407 72.183145 
L 238.50537 72.162592 
L 303.370679 72.164829 
L 303.584052 49.759847 
L 304.010798 66.725037 
L 304.437543 73.539087 
L 304.650916 74.844276 
L 304.864288 75.424039 
L 305.077661 75.570968 
L 305.291034 75.4709 
L 305.931152 74.635953 
L 306.784643 73.543955 
L 307.638134 72.861168 
L 308.491625 72.494194 
L 309.558488 72.285357 
L 311.478843 72.182601 
L 311.905588 72.176464 
L 312.118961 73.158685 
L 312.759079 72.424701 
L 313.399198 72.035404 
L 314.039316 71.916274 
L 315.319552 72.00173 
L 317.666652 72.152615 
L 324.067834 72.164979 
L 381.67847 72.164879 
L 381.67847 72.164879 
" clip-path="url(#paab414f810)" style="fill: none; stroke-dasharray: 5.55,2.4; stroke-dashoffset: 0; stroke: #c4a46f; stroke-width: 1.5"/>
   </g>
   <g id="line2d_20">
    <path d="M 74.421743 72.164881 
L 74.635115 88.897138 
L 74.848488 88.897138 
L 75.275234 74.132488 
L 75.701979 68.213995 
L 75.915352 67.376697 
L 76.128724 67.221698 
L 76.342097 67.440493 
L 78.262452 70.906166 
L 78.90257 71.429258 
L 79.756061 71.812497 
L 80.822924 72.027161 
L 82.743279 72.140263 
L 89.357834 72.164811 
L 124.137588 72.164881 
L 124.350961 88.897138 
L 124.564334 88.530168 
L 124.991079 76.279485 
L 125.417825 70.327718 
L 125.84457 68.080445 
L 126.057943 67.751554 
L 126.271315 67.737037 
L 126.698061 68.236906 
L 128.19167 70.753499 
L 128.831788 71.394142 
L 129.471906 71.778131 
L 130.325397 72.033116 
L 131.605634 72.152552 
L 134.806225 72.167015 
L 135.019597 55.432623 
L 135.23297 56.011488 
L 135.659715 68.233779 
L 136.086461 74.050332 
L 136.513206 76.224275 
L 136.726579 76.53563 
L 136.939952 76.540493 
L 137.366697 76.03505 
L 138.860306 73.541981 
L 139.500425 72.913092 
L 140.140543 72.538086 
L 140.994034 72.290563 
L 142.27427 72.175772 
L 146.541725 72.164049 
L 213.754134 72.164881 
L 213.967507 69.536362 
L 214.180879 69.430006 
L 214.607625 70.319005 
L 215.03437 71.623063 
L 215.461116 71.891437 
L 218.234961 72.221514 
L 224.209397 72.164351 
L 224.42277 74.486061 
L 224.849516 75.810398 
L 225.062888 75.895967 
L 225.276261 75.197812 
L 225.703007 73.325259 
L 226.129752 72.31085 
L 226.556497 71.805027 
L 226.983243 71.623874 
L 227.623361 71.662663 
L 228.050107 71.765544 
L 228.263479 61.235819 
L 229.11697 72.274728 
L 229.543716 74.578639 
L 229.757088 75.084494 
L 229.970461 75.294901 
L 230.183834 75.294377 
L 230.610579 74.925656 
L 232.104188 73.134856 
L 232.957679 72.584063 
L 233.81117 72.317846 
L 235.091407 72.183145 
L 238.50537 72.162592 
L 303.370679 72.164829 
L 303.584052 55.432623 
L 303.797425 59.552133 
L 304.22417 71.058025 
L 304.650916 74.844276 
L 304.864288 75.424039 
L 305.077661 75.570968 
L 305.291034 75.4709 
L 305.931152 74.635953 
L 306.784643 73.543955 
L 307.638134 72.861168 
L 308.491625 72.494194 
L 309.558488 72.285357 
L 311.478843 72.182601 
L 311.905588 72.176464 
L 312.118961 73.158685 
L 312.759079 72.424701 
L 313.399198 72.035404 
L 314.039316 71.916274 
L 315.319552 72.00173 
L 317.666652 72.152615 
L 324.067834 72.164979 
L 381.67847 72.164879 
L 381.67847 72.164879 
" clip-path="url(#paab414f810)" style="fill: none; stroke: #c4a46f; stroke-width: 1.5; stroke-linecap: square"/>
   </g>
   <g id="patch_3">
    <path d="M 59.058906 139.811563 
L 59.058906 10.8 
" style="fill: none; stroke: #000000; stroke-width: 0.8; stroke-linejoin: miter; stroke-linecap: square"/>
   </g>
   <g id="patch_4">
    <path d="M 397.041307 139.811563 
L 397.041307 10.8 
" style="fill: none; stroke: #000000; stroke-width: 0.8; stroke-linejoin: miter; stroke-linecap: square"/>
   </g>
   <g id="patch_5">
    <path d="M 59.058906 139.811563 
L 397.041307 139.811563 
" style="fill: none; stroke: #000000; stroke-width: 0.8; stroke-linejoin: miter; stroke-linecap: square"/>
   </g>
   <g id="patch_6">
    <path d="M 59.058906 10.8 
L 397.041307 10.8 
" style="fill: none; stroke: #000000; stroke-width: 0.8; stroke-linejoin: miter; stroke-linecap: square"/>
   </g>
   <g id="legend_1">
    <g id="patch_7">
     <path d="M 345.381307 135.311562 
L 390.741307 135.311562 
Q 392.541307 135.311562 392.541307 133.511562 
L 392.541307 19.937188 
Q 392.541307 18.137188 390.741307 18.137188 
L 345.381307 18.137188 
Q 343.581307 18.137188 343.581307 19.937188 
L 343.581307 133.511562 
Q 343.581307 135.311562 345.381307 135.311562 
z
" style="fill: #ffffff; opacity: 0.8; stroke: #cccccc; stroke-linejoin: miter"/>
    </g>
    <g id="line2d_21">
     <path d="M 347.181307 26.867188 
L 356.181307 26.867188 
L 365.181307 26.867188 
" style="fill: none; stroke-dasharray: 5.55,2.4; stroke-dashoffset: 0; stroke: #225e7c; stroke-width: 1.5"/>
    </g>
    <g id="text_15">
     <!-- $\hat u_{s,1}$ -->
     <g transform="translate(372.381307 30.017188) scale(0.09 -0.09)">
      <defs>
       <path id="DejaVuSans-302" d="M -1831 5119 
L -1369 5119 
L -603 3944 
L -1038 3944 
L -1600 4709 
L -2163 3944 
L -2597 3944 
L -1831 5119 
z
M -1600 3584 
L -1600 3584 
z
" transform="scale(0.015625)"/>
       <path id="DejaVuSans-Oblique-75" d="M 428 1388 
L 838 3500 
L 1416 3500 
L 1006 1409 
Q 975 1256 961 1147 
Q 947 1038 947 966 
Q 947 700 1109 554 
Q 1272 409 1569 409 
Q 2031 409 2368 721 
Q 2706 1034 2809 1563 
L 3194 3500 
L 3769 3500 
L 3091 0 
L 2516 0 
L 2631 550 
Q 2388 244 2052 76 
Q 1716 -91 1338 -91 
Q 878 -91 622 161 
Q 366 413 366 863 
Q 366 956 381 1097 
Q 397 1238 428 1388 
z
" transform="scale(0.015625)"/>
       <path id="DejaVuSans-Oblique-73" d="M 3200 3397 
L 3091 2853 
Q 2863 2978 2609 3040 
Q 2356 3103 2088 3103 
Q 1634 3103 1373 2948 
Q 1113 2794 1113 2528 
Q 1113 2219 1719 2053 
Q 1766 2041 1788 2034 
L 1972 1978 
Q 2547 1819 2739 1644 
Q 2931 1469 2931 1166 
Q 2931 609 2489 259 
Q 2047 -91 1331 -91 
Q 1053 -91 747 -37 
Q 441 16 72 128 
L 184 722 
Q 500 559 806 475 
Q 1113 391 1394 391 
Q 1816 391 2080 572 
Q 2344 753 2344 1031 
Q 2344 1331 1650 1516 
L 1591 1531 
L 1394 1581 
Q 956 1697 753 1886 
Q 550 2075 550 2369 
Q 550 2928 970 3256 
Q 1391 3584 2113 3584 
Q 2397 3584 2667 3537 
Q 2938 3491 3200 3397 
z
" transform="scale(0.015625)"/>
       <path id="DejaVuSans-2c" d="M 750 794 
L 1409 794 
L 1409 256 
L 897 -744 
L 494 -744 
L 750 256 
L 750 794 
z
" transform="scale(0.015625)"/>
      </defs>
      <use xlink:href="#DejaVuSans-302" transform="translate(57.871094 12.015625)"/>
      <use xlink:href="#DejaVuSans-Oblique-75" transform="translate(0 0.828125)"/>
      <use xlink:href="#DejaVuSans-Oblique-73" transform="translate(64.335938 -15.578125) scale(0.7)"/>
      <use xlink:href="#DejaVuSans-2c" transform="translate(100.805664 -15.578125) scale(0.7)"/>
      <use xlink:href="#DejaVuSans-31" transform="translate(136.694336 -15.578125) scale(0.7)"/>
     </g>
    </g>
    <g id="line2d_22">
     <path d="M 347.181307 40.455781 
L 356.181307 40.455781 
L 365.181307 40.455781 
" style="fill: none; stroke: #225e7c; stroke-width: 1.5; stroke-linecap: square"/>
    </g>
    <g id="text_16">
     <!-- $u_{s,1}$ -->
     <g transform="translate(372.381307 43.605781) scale(0.09 -0.09)">
      <use xlink:href="#DejaVuSans-Oblique-75" transform="translate(0 0.3125)"/>
      <use xlink:href="#DejaVuSans-Oblique-73" transform="translate(63.378906 -16.09375) scale(0.7)"/>
      <use xlink:href="#DejaVuSans-2c" transform="translate(99.848633 -16.09375) scale(0.7)"/>
      <use xlink:href="#DejaVuSans-31" transform="translate(135.737305 -16.09375) scale(0.7)"/>
     </g>
    </g>
    <g id="line2d_23">
     <path d="M 347.181307 55.485781 
L 356.181307 55.485781 
L 365.181307 55.485781 
" style="fill: none; stroke-dasharray: 5.55,2.4; stroke-dashoffset: 0; stroke: #3e915b; stroke-width: 1.5"/>
    </g>
    <g id="text_17">
     <!-- $\hat u_{s,2}$ -->
     <g transform="translate(372.381307 58.635781) scale(0.09 -0.09)">
      <use xlink:href="#DejaVuSans-302" transform="translate(57.871094 12.015625)"/>
      <use xlink:href="#DejaVuSans-Oblique-75" transform="translate(0 0.828125)"/>
      <use xlink:href="#DejaVuSans-Oblique-73" transform="translate(64.335938 -15.578125) scale(0.7)"/>
      <use xlink:href="#DejaVuSans-2c" transform="translate(100.805664 -15.578125) scale(0.7)"/>
      <use xlink:href="#DejaVuSans-32" transform="translate(136.694336 -15.578125) scale(0.7)"/>
     </g>
    </g>
    <g id="line2d_24">
     <path d="M 347.181307 69.074375 
L 356.181307 69.074375 
L 365.181307 69.074375 
" style="fill: none; stroke: #3e915b; stroke-width: 1.5; stroke-linecap: square"/>
    </g>
    <g id="text_18">
     <!-- $u_{s,2}$ -->
     <g transform="translate(372.381307 72.224375) scale(0.09 -0.09)">
      <use xlink:href="#DejaVuSans-Oblique-75" transform="translate(0 0.3125)"/>
      <use xlink:href="#DejaVuSans-Oblique-73" transform="translate(63.378906 -16.09375) scale(0.7)"/>
      <use xlink:href="#DejaVuSans-2c" transform="translate(99.848633 -16.09375) scale(0.7)"/>
      <use xlink:href="#DejaVuSans-32" transform="translate(135.737305 -16.09375) scale(0.7)"/>
     </g>
    </g>
    <g id="line2d_25">
     <path d="M 347.181307 84.104375 
L 356.181307 84.104375 
L 365.181307 84.104375 
" style="fill: none; stroke-dasharray: 5.55,2.4; stroke-dashoffset: 0; stroke: #8eac56; stroke-width: 1.5"/>
    </g>
    <g id="text_19">
     <!-- $\hat u_{s,3}$ -->
     <g transform="translate(372.381307 87.254375) scale(0.09 -0.09)">
      <defs>
       <path id="DejaVuSans-33" d="M 2597 2516 
Q 3050 2419 3304 2112 
Q 3559 1806 3559 1356 
Q 3559 666 3084 287 
Q 2609 -91 1734 -91 
Q 1441 -91 1130 -33 
Q 819 25 488 141 
L 488 750 
Q 750 597 1062 519 
Q 1375 441 1716 441 
Q 2309 441 2620 675 
Q 2931 909 2931 1356 
Q 2931 1769 2642 2001 
Q 2353 2234 1838 2234 
L 1294 2234 
L 1294 2753 
L 1863 2753 
Q 2328 2753 2575 2939 
Q 2822 3125 2822 3475 
Q 2822 3834 2567 4026 
Q 2313 4219 1838 4219 
Q 1578 4219 1281 4162 
Q 984 4106 628 3988 
L 628 4550 
Q 988 4650 1302 4700 
Q 1616 4750 1894 4750 
Q 2613 4750 3031 4423 
Q 3450 4097 3450 3541 
Q 3450 3153 3228 2886 
Q 3006 2619 2597 2516 
z
" transform="scale(0.015625)"/>
      </defs>
      <use xlink:href="#DejaVuSans-302" transform="translate(57.871094 12.015625)"/>
      <use xlink:href="#DejaVuSans-Oblique-75" transform="translate(0 0.828125)"/>
      <use xlink:href="#DejaVuSans-Oblique-73" transform="translate(64.335938 -15.578125) scale(0.7)"/>
      <use xlink:href="#DejaVuSans-2c" transform="translate(100.805664 -15.578125) scale(0.7)"/>
      <use xlink:href="#DejaVuSans-33" transform="translate(136.694336 -15.578125) scale(0.7)"/>
     </g>
    </g>
    <g id="line2d_26">
     <path d="M 347.181307 97.692969 
L 356.181307 97.692969 
L 365.181307 97.692969 
" style="fill: none; stroke: #8eac56; stroke-width: 1.5; stroke-linecap: square"/>
    </g>
    <g id="text_20">
     <!-- $u_{s,3}$ -->
     <g transform="translate(372.381307 100.842969) scale(0.09 -0.09)">
      <use xlink:href="#DejaVuSans-Oblique-75" transform="translate(0 0.3125)"/>
      <use xlink:href="#DejaVuSans-Oblique-73" transform="translate(63.378906 -16.09375) scale(0.7)"/>
      <use xlink:href="#DejaVuSans-2c" transform="translate(99.848633 -16.09375) scale(0.7)"/>
      <use xlink:href="#DejaVuSans-33" transform="translate(135.737305 -16.09375) scale(0.7)"/>
     </g>
    </g>
    <g id="line2d_27">
     <path d="M 347.181307 112.722969 
L 356.181307 112.722969 
L 365.181307 112.722969 
" style="fill: none; stroke-dasharray: 5.55,2.4; stroke-dashoffset: 0; stroke: #c4a46f; stroke-width: 1.5"/>
    </g>
    <g id="text_21">
     <!-- $\hat u_{s,4}$ -->
     <g transform="translate(372.381307 115.872969) scale(0.09 -0.09)">
      <defs>
       <path id="DejaVuSans-34" d="M 2419 4116 
L 825 1625 
L 2419 1625 
L 2419 4116 
z
M 2253 4666 
L 3047 4666 
L 3047 1625 
L 3713 1625 
L 3713 1100 
L 3047 1100 
L 3047 0 
L 2419 0 
L 2419 1100 
L 313 1100 
L 313 1709 
L 2253 4666 
z
" transform="scale(0.015625)"/>
      </defs>
      <use xlink:href="#DejaVuSans-302" transform="translate(57.871094 12.015625)"/>
      <use xlink:href="#DejaVuSans-Oblique-75" transform="translate(0 0.828125)"/>
      <use xlink:href="#DejaVuSans-Oblique-73" transform="translate(64.335938 -15.578125) scale(0.7)"/>
      <use xlink:href="#DejaVuSans-2c" transform="translate(100.805664 -15.578125) scale(0.7)"/>
      <use xlink:href="#DejaVuSans-34" transform="translate(136.694336 -15.578125) scale(0.7)"/>
     </g>
    </g>
    <g id="line2d_28">
     <path d="M 347.181307 126.311563 
L 356.181307 126.311563 
L 365.181307 126.311563 
" style="fill: none; stroke: #c4a46f; stroke-width: 1.5; stroke-linecap: square"/>
    </g>
    <g id="text_22">
     <!-- $u_{s,4}$ -->
     <g transform="translate(372.381307 129.461563) scale(0.09 -0.09)">
      <use xlink:href="#DejaVuSans-Oblique-75" transform="translate(0 0.3125)"/>
      <use xlink:href="#DejaVuSans-Oblique-73" transform="translate(63.378906 -16.09375) scale(0.7)"/>
      <use xlink:href="#DejaVuSans-2c" transform="translate(99.848633 -16.09375) scale(0.7)"/>
      <use xlink:href="#DejaVuSans-34" transform="translate(135.737305 -16.09375) scale(0.7)"/>
     </g>
    </g>
   </g>
  </g>
 </g>
 <defs>
  <clipPath id="paab414f810">
   <rect x="59.058906" y="10.8" width="337.982401" height="129.011562"/>
  </clipPath>
 </defs>
</svg>
