<?xml version="1.0" encoding="utf-8" standalone="no"?>
<!DOCTYPE svg PUBLIC "-//W3C//DTD SVG 1.1//EN"
  "http://www.w3.org/Graphics/SVG/1.1/DTD/svg11.dtd">
<svg xmlns:xlink="http://www.w3.org/1999/xlink" width="414pt" height="288pt" viewBox="0 0 414 288" xmlns="http://www.w3.org/2000/svg" version="1.1">
 <metadata>
  <rdf:RDF xmlns:dc="http://purl.org/dc/elements/1.1/" xmlns:cc="http://creativecommons.org/ns#" xmlns:rdf="http://www.w3.org/1999/02/22-rdf-syntax-ns#">
   <cc:Work>
    <dc:type rdf:resource="http://purl.org/dc/dcmitype/StillImage"/>
    <dc:date>2025-05-23T01:04:22.040511</dc:date>
    <dc:format>image/svg+xml</dc:format>
    <dc:creator>
     <cc:Agent>
      <dc:title>Matplotlib v3.10.1, https://matplotlib.org/</dc:title>
     </cc:Agent>
    </dc:creator>
   </cc:Work>
  </rdf:RDF>
 </metadata>
 <defs>
  <style type="text/css">*{stroke-linejoin: round; stroke-linecap: butt}</style>
 </defs>
 <g id="figure_1">
  <g id="patch_1">
   <path d="M 0 288 
L 414 288 
L 414 0 
L 0 0 
L 0 288 
z
" style="fill: none"/>
  </g>
  <g id="axes_1">
   <g id="patch_2">
    <path d="M 111.050625 241.036875 
L 403.2 241.036875 
L 403.2 10.8 
L 111.050625 10.8 
L 111.050625 241.036875 
z
" style="fill: none"/>
   </g>
   <g id="matplotlib.axis_1">
    <g id="xtick_1">
     <g id="line2d_1">
      <defs>
       <path id="m0ddcadf9c1" d="M 0 0 
L 0 3.5 
" style="stroke: #000000; stroke-width: 0.8"/>
      </defs>
      <g>
       <use xlink:href="#m0ddcadf9c1" x="124.330142" y="241.036875" style="stroke: #000000; stroke-width: 0.8"/>
      </g>
     </g>
     <g id="text_1">
      <!-- 0.0 -->
      <g transform="translate(111.607642 260.194375) scale(0.16 -0.16)">
       <defs>
        <path id="DejaVuSans-30" d="M 2034 4250 
Q 1547 4250 1301 3770 
Q 1056 3291 1056 2328 
Q 1056 1369 1301 889 
Q 1547 409 2034 409 
Q 2525 409 2770 889 
Q 3016 1369 3016 2328 
Q 3016 3291 2770 3770 
Q 2525 4250 2034 4250 
z
M 2034 4750 
Q 2819 4750 3233 4129 
Q 3647 3509 3647 2328 
Q 3647 1150 3233 529 
Q 2819 -91 2034 -91 
Q 1250 -91 836 529 
Q 422 1150 422 2328 
Q 422 3509 836 4129 
Q 1250 4750 2034 4750 
z
" transform="scale(0.015625)"/>
        <path id="DejaVuSans-2e" d="M 684 794 
L 1344 794 
L 1344 0 
L 684 0 
L 684 794 
z
" transform="scale(0.015625)"/>
       </defs>
       <use xlink:href="#DejaVuSans-30"/>
       <use xlink:href="#DejaVuSans-2e" transform="translate(63.623047 0)"/>
       <use xlink:href="#DejaVuSans-30" transform="translate(95.410156 0)"/>
      </g>
     </g>
    </g>
    <g id="xtick_2">
     <g id="line2d_2">
      <g>
       <use xlink:href="#m0ddcadf9c1" x="195.55969" y="241.036875" style="stroke: #000000; stroke-width: 0.8"/>
      </g>
     </g>
     <g id="text_2">
      <!-- 0.2 -->
      <g transform="translate(182.83719 260.194375) scale(0.16 -0.16)">
       <defs>
        <path id="DejaVuSans-32" d="M 1228 531 
L 3431 531 
L 3431 0 
L 469 0 
L 469 531 
Q 828 903 1448 1529 
Q 2069 2156 2228 2338 
Q 2531 2678 2651 2914 
Q 2772 3150 2772 3378 
Q 2772 3750 2511 3984 
Q 2250 4219 1831 4219 
Q 1534 4219 1204 4116 
Q 875 4013 500 3803 
L 500 4441 
Q 881 4594 1212 4672 
Q 1544 4750 1819 4750 
Q 2544 4750 2975 4387 
Q 3406 4025 3406 3419 
Q 3406 3131 3298 2873 
Q 3191 2616 2906 2266 
Q 2828 2175 2409 1742 
Q 1991 1309 1228 531 
z
" transform="scale(0.015625)"/>
       </defs>
       <use xlink:href="#DejaVuSans-30"/>
       <use xlink:href="#DejaVuSans-2e" transform="translate(63.623047 0)"/>
       <use xlink:href="#DejaVuSans-32" transform="translate(95.410156 0)"/>
      </g>
     </g>
    </g>
    <g id="xtick_3">
     <g id="line2d_3">
      <g>
       <use xlink:href="#m0ddcadf9c1" x="266.789238" y="241.036875" style="stroke: #000000; stroke-width: 0.8"/>
      </g>
     </g>
     <g id="text_3">
      <!-- 0.4 -->
      <g transform="translate(254.066738 260.194375) scale(0.16 -0.16)">
       <defs>
        <path id="DejaVuSans-34" d="M 2419 4116 
L 825 1625 
L 2419 1625 
L 2419 4116 
z
M 2253 4666 
L 3047 4666 
L 3047 1625 
L 3713 1625 
L 3713 1100 
L 3047 1100 
L 3047 0 
L 2419 0 
L 2419 1100 
L 313 1100 
L 313 1709 
L 2253 4666 
z
" transform="scale(0.015625)"/>
       </defs>
       <use xlink:href="#DejaVuSans-30"/>
       <use xlink:href="#DejaVuSans-2e" transform="translate(63.623047 0)"/>
       <use xlink:href="#DejaVuSans-34" transform="translate(95.410156 0)"/>
      </g>
     </g>
    </g>
    <g id="xtick_4">
     <g id="line2d_4">
      <g>
       <use xlink:href="#m0ddcadf9c1" x="338.018785" y="241.036875" style="stroke: #000000; stroke-width: 0.8"/>
      </g>
     </g>
     <g id="text_4">
      <!-- 0.6 -->
      <g transform="translate(325.296285 260.194375) scale(0.16 -0.16)">
       <defs>
        <path id="DejaVuSans-36" d="M 2113 2584 
Q 1688 2584 1439 2293 
Q 1191 2003 1191 1497 
Q 1191 994 1439 701 
Q 1688 409 2113 409 
Q 2538 409 2786 701 
Q 3034 994 3034 1497 
Q 3034 2003 2786 2293 
Q 2538 2584 2113 2584 
z
M 3366 4563 
L 3366 3988 
Q 3128 4100 2886 4159 
Q 2644 4219 2406 4219 
Q 1781 4219 1451 3797 
Q 1122 3375 1075 2522 
Q 1259 2794 1537 2939 
Q 1816 3084 2150 3084 
Q 2853 3084 3261 2657 
Q 3669 2231 3669 1497 
Q 3669 778 3244 343 
Q 2819 -91 2113 -91 
Q 1303 -91 875 529 
Q 447 1150 447 2328 
Q 447 3434 972 4092 
Q 1497 4750 2381 4750 
Q 2619 4750 2861 4703 
Q 3103 4656 3366 4563 
z
" transform="scale(0.015625)"/>
       </defs>
       <use xlink:href="#DejaVuSans-30"/>
       <use xlink:href="#DejaVuSans-2e" transform="translate(63.623047 0)"/>
       <use xlink:href="#DejaVuSans-36" transform="translate(95.410156 0)"/>
      </g>
     </g>
    </g>
    <g id="text_5">
     <!-- Time [orbits] -->
     <g transform="translate(225.158125 275.120313) scale(0.1 -0.1)">
      <defs>
       <path id="DejaVuSans-54" d="M -19 4666 
L 3928 4666 
L 3928 4134 
L 2272 4134 
L 2272 0 
L 1638 0 
L 1638 4134 
L -19 4134 
L -19 4666 
z
" transform="scale(0.015625)"/>
       <path id="DejaVuSans-69" d="M 603 3500 
L 1178 3500 
L 1178 0 
L 603 0 
L 603 3500 
z
M 603 4863 
L 1178 4863 
L 1178 4134 
L 603 4134 
L 603 4863 
z
" transform="scale(0.015625)"/>
       <path id="DejaVuSans-6d" d="M 3328 2828 
Q 3544 3216 3844 3400 
Q 4144 3584 4550 3584 
Q 5097 3584 5394 3201 
Q 5691 2819 5691 2113 
L 5691 0 
L 5113 0 
L 5113 2094 
Q 5113 2597 4934 2840 
Q 4756 3084 4391 3084 
Q 3944 3084 3684 2787 
Q 3425 2491 3425 1978 
L 3425 0 
L 2847 0 
L 2847 2094 
Q 2847 2600 2669 2842 
Q 2491 3084 2119 3084 
Q 1678 3084 1418 2786 
Q 1159 2488 1159 1978 
L 1159 0 
L 581 0 
L 581 3500 
L 1159 3500 
L 1159 2956 
Q 1356 3278 1631 3431 
Q 1906 3584 2284 3584 
Q 2666 3584 2933 3390 
Q 3200 3197 3328 2828 
z
" transform="scale(0.015625)"/>
       <path id="DejaVuSans-65" d="M 3597 1894 
L 3597 1613 
L 953 1613 
Q 991 1019 1311 708 
Q 1631 397 2203 397 
Q 2534 397 2845 478 
Q 3156 559 3463 722 
L 3463 178 
Q 3153 47 2828 -22 
Q 2503 -91 2169 -91 
Q 1331 -91 842 396 
Q 353 884 353 1716 
Q 353 2575 817 3079 
Q 1281 3584 2069 3584 
Q 2775 3584 3186 3129 
Q 3597 2675 3597 1894 
z
M 3022 2063 
Q 3016 2534 2758 2815 
Q 2500 3097 2075 3097 
Q 1594 3097 1305 2825 
Q 1016 2553 972 2059 
L 3022 2063 
z
" transform="scale(0.015625)"/>
       <path id="DejaVuSans-20" transform="scale(0.015625)"/>
       <path id="DejaVuSans-5b" d="M 550 4863 
L 1875 4863 
L 1875 4416 
L 1125 4416 
L 1125 -397 
L 1875 -397 
L 1875 -844 
L 550 -844 
L 550 4863 
z
" transform="scale(0.015625)"/>
       <path id="DejaVuSans-6f" d="M 1959 3097 
Q 1497 3097 1228 2736 
Q 959 2375 959 1747 
Q 959 1119 1226 758 
Q 1494 397 1959 397 
Q 2419 397 2687 759 
Q 2956 1122 2956 1747 
Q 2956 2369 2687 2733 
Q 2419 3097 1959 3097 
z
M 1959 3584 
Q 2709 3584 3137 3096 
Q 3566 2609 3566 1747 
Q 3566 888 3137 398 
Q 2709 -91 1959 -91 
Q 1206 -91 779 398 
Q 353 888 353 1747 
Q 353 2609 779 3096 
Q 1206 3584 1959 3584 
z
" transform="scale(0.015625)"/>
       <path id="DejaVuSans-72" d="M 2631 2963 
Q 2534 3019 2420 3045 
Q 2306 3072 2169 3072 
Q 1681 3072 1420 2755 
Q 1159 2438 1159 1844 
L 1159 0 
L 581 0 
L 581 3500 
L 1159 3500 
L 1159 2956 
Q 1341 3275 1631 3429 
Q 1922 3584 2338 3584 
Q 2397 3584 2469 3576 
Q 2541 3569 2628 3553 
L 2631 2963 
z
" transform="scale(0.015625)"/>
       <path id="DejaVuSans-62" d="M 3116 1747 
Q 3116 2381 2855 2742 
Q 2594 3103 2138 3103 
Q 1681 3103 1420 2742 
Q 1159 2381 1159 1747 
Q 1159 1113 1420 752 
Q 1681 391 2138 391 
Q 2594 391 2855 752 
Q 3116 1113 3116 1747 
z
M 1159 2969 
Q 1341 3281 1617 3432 
Q 1894 3584 2278 3584 
Q 2916 3584 3314 3078 
Q 3713 2572 3713 1747 
Q 3713 922 3314 415 
Q 2916 -91 2278 -91 
Q 1894 -91 1617 61 
Q 1341 213 1159 525 
L 1159 0 
L 581 0 
L 581 4863 
L 1159 4863 
L 1159 2969 
z
" transform="scale(0.015625)"/>
       <path id="DejaVuSans-74" d="M 1172 4494 
L 1172 3500 
L 2356 3500 
L 2356 3053 
L 1172 3053 
L 1172 1153 
Q 1172 725 1289 603 
Q 1406 481 1766 481 
L 2356 481 
L 2356 0 
L 1766 0 
Q 1100 0 847 248 
Q 594 497 594 1153 
L 594 3053 
L 172 3053 
L 172 3500 
L 594 3500 
L 594 4494 
L 1172 4494 
z
" transform="scale(0.015625)"/>
       <path id="DejaVuSans-73" d="M 2834 3397 
L 2834 2853 
Q 2591 2978 2328 3040 
Q 2066 3103 1784 3103 
Q 1356 3103 1142 2972 
Q 928 2841 928 2578 
Q 928 2378 1081 2264 
Q 1234 2150 1697 2047 
L 1894 2003 
Q 2506 1872 2764 1633 
Q 3022 1394 3022 966 
Q 3022 478 2636 193 
Q 2250 -91 1575 -91 
Q 1294 -91 989 -36 
Q 684 19 347 128 
L 347 722 
Q 666 556 975 473 
Q 1284 391 1588 391 
Q 1994 391 2212 530 
Q 2431 669 2431 922 
Q 2431 1156 2273 1281 
Q 2116 1406 1581 1522 
L 1381 1569 
Q 847 1681 609 1914 
Q 372 2147 372 2553 
Q 372 3047 722 3315 
Q 1072 3584 1716 3584 
Q 2034 3584 2315 3537 
Q 2597 3491 2834 3397 
z
" transform="scale(0.015625)"/>
       <path id="DejaVuSans-5d" d="M 1947 4863 
L 1947 -844 
L 622 -844 
L 622 -397 
L 1369 -397 
L 1369 4416 
L 622 4416 
L 622 4863 
L 1947 4863 
z
" transform="scale(0.015625)"/>
      </defs>
      <use xlink:href="#DejaVuSans-54"/>
      <use xlink:href="#DejaVuSans-69" transform="translate(57.958984 0)"/>
      <use xlink:href="#DejaVuSans-6d" transform="translate(85.742188 0)"/>
      <use xlink:href="#DejaVuSans-65" transform="translate(183.154297 0)"/>
      <use xlink:href="#DejaVuSans-20" transform="translate(244.677734 0)"/>
      <use xlink:href="#DejaVuSans-5b" transform="translate(276.464844 0)"/>
      <use xlink:href="#DejaVuSans-6f" transform="translate(315.478516 0)"/>
      <use xlink:href="#DejaVuSans-72" transform="translate(376.660156 0)"/>
      <use xlink:href="#DejaVuSans-62" transform="translate(417.773438 0)"/>
      <use xlink:href="#DejaVuSans-69" transform="translate(481.25 0)"/>
      <use xlink:href="#DejaVuSans-74" transform="translate(509.033203 0)"/>
      <use xlink:href="#DejaVuSans-73" transform="translate(548.242188 0)"/>
      <use xlink:href="#DejaVuSans-5d" transform="translate(600.341797 0)"/>
     </g>
    </g>
   </g>
   <g id="matplotlib.axis_2">
    <g id="ytick_1">
     <g id="line2d_5">
      <defs>
       <path id="m2c44a2fc73" d="M 0 0 
L -3.5 0 
" style="stroke: #000000; stroke-width: 0.8"/>
      </defs>
      <g>
       <use xlink:href="#m2c44a2fc73" x="111.050625" y="205.847268" style="stroke: #000000; stroke-width: 0.8"/>
      </g>
     </g>
     <g id="text_6">
      <!-- −0.00005 -->
      <g transform="translate(24.478125 211.926018) scale(0.16 -0.16)">
       <defs>
        <path id="DejaVuSans-2212" d="M 678 2272 
L 4684 2272 
L 4684 1741 
L 678 1741 
L 678 2272 
z
" transform="scale(0.015625)"/>
        <path id="DejaVuSans-35" d="M 691 4666 
L 3169 4666 
L 3169 4134 
L 1269 4134 
L 1269 2991 
Q 1406 3038 1543 3061 
Q 1681 3084 1819 3084 
Q 2600 3084 3056 2656 
Q 3513 2228 3513 1497 
Q 3513 744 3044 326 
Q 2575 -91 1722 -91 
Q 1428 -91 1123 -41 
Q 819 9 494 109 
L 494 744 
Q 775 591 1075 516 
Q 1375 441 1709 441 
Q 2250 441 2565 725 
Q 2881 1009 2881 1497 
Q 2881 1984 2565 2268 
Q 2250 2553 1709 2553 
Q 1456 2553 1204 2497 
Q 953 2441 691 2322 
L 691 4666 
z
" transform="scale(0.015625)"/>
       </defs>
       <use xlink:href="#DejaVuSans-2212"/>
       <use xlink:href="#DejaVuSans-30" transform="translate(83.789062 0)"/>
       <use xlink:href="#DejaVuSans-2e" transform="translate(147.412109 0)"/>
       <use xlink:href="#DejaVuSans-30" transform="translate(179.199219 0)"/>
       <use xlink:href="#DejaVuSans-30" transform="translate(242.822266 0)"/>
       <use xlink:href="#DejaVuSans-30" transform="translate(306.445312 0)"/>
       <use xlink:href="#DejaVuSans-30" transform="translate(370.068359 0)"/>
       <use xlink:href="#DejaVuSans-35" transform="translate(433.691406 0)"/>
      </g>
     </g>
    </g>
    <g id="ytick_2">
     <g id="line2d_6">
      <g>
       <use xlink:href="#m2c44a2fc73" x="111.050625" y="152.386383" style="stroke: #000000; stroke-width: 0.8"/>
      </g>
     </g>
     <g id="text_7">
      <!-- 0.00000 -->
      <g transform="translate(37.885625 158.465133) scale(0.16 -0.16)">
       <use xlink:href="#DejaVuSans-30"/>
       <use xlink:href="#DejaVuSans-2e" transform="translate(63.623047 0)"/>
       <use xlink:href="#DejaVuSans-30" transform="translate(95.410156 0)"/>
       <use xlink:href="#DejaVuSans-30" transform="translate(159.033203 0)"/>
       <use xlink:href="#DejaVuSans-30" transform="translate(222.65625 0)"/>
       <use xlink:href="#DejaVuSans-30" transform="translate(286.279297 0)"/>
       <use xlink:href="#DejaVuSans-30" transform="translate(349.902344 0)"/>
      </g>
     </g>
    </g>
    <g id="ytick_3">
     <g id="line2d_7">
      <g>
       <use xlink:href="#m2c44a2fc73" x="111.050625" y="98.925497" style="stroke: #000000; stroke-width: 0.8"/>
      </g>
     </g>
     <g id="text_8">
      <!-- 0.00005 -->
      <g transform="translate(37.885625 105.004247) scale(0.16 -0.16)">
       <use xlink:href="#DejaVuSans-30"/>
       <use xlink:href="#DejaVuSans-2e" transform="translate(63.623047 0)"/>
       <use xlink:href="#DejaVuSans-30" transform="translate(95.410156 0)"/>
       <use xlink:href="#DejaVuSans-30" transform="translate(159.033203 0)"/>
       <use xlink:href="#DejaVuSans-30" transform="translate(222.65625 0)"/>
       <use xlink:href="#DejaVuSans-30" transform="translate(286.279297 0)"/>
       <use xlink:href="#DejaVuSans-35" transform="translate(349.902344 0)"/>
      </g>
     </g>
    </g>
    <g id="ytick_4">
     <g id="line2d_8">
      <g>
       <use xlink:href="#m2c44a2fc73" x="111.050625" y="45.464612" style="stroke: #000000; stroke-width: 0.8"/>
      </g>
     </g>
     <g id="text_9">
      <!-- 0.00010 -->
      <g transform="translate(37.885625 51.543362) scale(0.16 -0.16)">
       <defs>
        <path id="DejaVuSans-31" d="M 794 531 
L 1825 531 
L 1825 4091 
L 703 3866 
L 703 4441 
L 1819 4666 
L 2450 4666 
L 2450 531 
L 3481 531 
L 3481 0 
L 794 0 
L 794 531 
z
" transform="scale(0.015625)"/>
       </defs>
       <use xlink:href="#DejaVuSans-30"/>
       <use xlink:href="#DejaVuSans-2e" transform="translate(63.623047 0)"/>
       <use xlink:href="#DejaVuSans-30" transform="translate(95.410156 0)"/>
       <use xlink:href="#DejaVuSans-30" transform="translate(159.033203 0)"/>
       <use xlink:href="#DejaVuSans-30" transform="translate(222.65625 0)"/>
       <use xlink:href="#DejaVuSans-31" transform="translate(286.279297 0)"/>
       <use xlink:href="#DejaVuSans-30" transform="translate(349.902344 0)"/>
      </g>
     </g>
    </g>
    <g id="text_10">
     <!-- Trajectory Differences [m] -->
     <g transform="translate(18.398438 191.008281) rotate(-90) scale(0.1 -0.1)">
      <defs>
       <path id="DejaVuSans-61" d="M 2194 1759 
Q 1497 1759 1228 1600 
Q 959 1441 959 1056 
Q 959 750 1161 570 
Q 1363 391 1709 391 
Q 2188 391 2477 730 
Q 2766 1069 2766 1631 
L 2766 1759 
L 2194 1759 
z
M 3341 1997 
L 3341 0 
L 2766 0 
L 2766 531 
Q 2569 213 2275 61 
Q 1981 -91 1556 -91 
Q 1019 -91 701 211 
Q 384 513 384 1019 
Q 384 1609 779 1909 
Q 1175 2209 1959 2209 
L 2766 2209 
L 2766 2266 
Q 2766 2663 2505 2880 
Q 2244 3097 1772 3097 
Q 1472 3097 1187 3025 
Q 903 2953 641 2809 
L 641 3341 
Q 956 3463 1253 3523 
Q 1550 3584 1831 3584 
Q 2591 3584 2966 3190 
Q 3341 2797 3341 1997 
z
" transform="scale(0.015625)"/>
       <path id="DejaVuSans-6a" d="M 603 3500 
L 1178 3500 
L 1178 -63 
Q 1178 -731 923 -1031 
Q 669 -1331 103 -1331 
L -116 -1331 
L -116 -844 
L 38 -844 
Q 366 -844 484 -692 
Q 603 -541 603 -63 
L 603 3500 
z
M 603 4863 
L 1178 4863 
L 1178 4134 
L 603 4134 
L 603 4863 
z
" transform="scale(0.015625)"/>
       <path id="DejaVuSans-63" d="M 3122 3366 
L 3122 2828 
Q 2878 2963 2633 3030 
Q 2388 3097 2138 3097 
Q 1578 3097 1268 2742 
Q 959 2388 959 1747 
Q 959 1106 1268 751 
Q 1578 397 2138 397 
Q 2388 397 2633 464 
Q 2878 531 3122 666 
L 3122 134 
Q 2881 22 2623 -34 
Q 2366 -91 2075 -91 
Q 1284 -91 818 406 
Q 353 903 353 1747 
Q 353 2603 823 3093 
Q 1294 3584 2113 3584 
Q 2378 3584 2631 3529 
Q 2884 3475 3122 3366 
z
" transform="scale(0.015625)"/>
       <path id="DejaVuSans-79" d="M 2059 -325 
Q 1816 -950 1584 -1140 
Q 1353 -1331 966 -1331 
L 506 -1331 
L 506 -850 
L 844 -850 
Q 1081 -850 1212 -737 
Q 1344 -625 1503 -206 
L 1606 56 
L 191 3500 
L 800 3500 
L 1894 763 
L 2988 3500 
L 3597 3500 
L 2059 -325 
z
" transform="scale(0.015625)"/>
       <path id="DejaVuSans-44" d="M 1259 4147 
L 1259 519 
L 2022 519 
Q 2988 519 3436 956 
Q 3884 1394 3884 2338 
Q 3884 3275 3436 3711 
Q 2988 4147 2022 4147 
L 1259 4147 
z
M 628 4666 
L 1925 4666 
Q 3281 4666 3915 4102 
Q 4550 3538 4550 2338 
Q 4550 1131 3912 565 
Q 3275 0 1925 0 
L 628 0 
L 628 4666 
z
" transform="scale(0.015625)"/>
       <path id="DejaVuSans-66" d="M 2375 4863 
L 2375 4384 
L 1825 4384 
Q 1516 4384 1395 4259 
Q 1275 4134 1275 3809 
L 1275 3500 
L 2222 3500 
L 2222 3053 
L 1275 3053 
L 1275 0 
L 697 0 
L 697 3053 
L 147 3053 
L 147 3500 
L 697 3500 
L 697 3744 
Q 697 4328 969 4595 
Q 1241 4863 1831 4863 
L 2375 4863 
z
" transform="scale(0.015625)"/>
       <path id="DejaVuSans-6e" d="M 3513 2113 
L 3513 0 
L 2938 0 
L 2938 2094 
Q 2938 2591 2744 2837 
Q 2550 3084 2163 3084 
Q 1697 3084 1428 2787 
Q 1159 2491 1159 1978 
L 1159 0 
L 581 0 
L 581 3500 
L 1159 3500 
L 1159 2956 
Q 1366 3272 1645 3428 
Q 1925 3584 2291 3584 
Q 2894 3584 3203 3211 
Q 3513 2838 3513 2113 
z
" transform="scale(0.015625)"/>
      </defs>
      <use xlink:href="#DejaVuSans-54"/>
      <use xlink:href="#DejaVuSans-72" transform="translate(46.333984 0)"/>
      <use xlink:href="#DejaVuSans-61" transform="translate(87.447266 0)"/>
      <use xlink:href="#DejaVuSans-6a" transform="translate(148.726562 0)"/>
      <use xlink:href="#DejaVuSans-65" transform="translate(176.509766 0)"/>
      <use xlink:href="#DejaVuSans-63" transform="translate(238.033203 0)"/>
      <use xlink:href="#DejaVuSans-74" transform="translate(293.013672 0)"/>
      <use xlink:href="#DejaVuSans-6f" transform="translate(332.222656 0)"/>
      <use xlink:href="#DejaVuSans-72" transform="translate(393.404297 0)"/>
      <use xlink:href="#DejaVuSans-79" transform="translate(434.517578 0)"/>
      <use xlink:href="#DejaVuSans-20" transform="translate(493.697266 0)"/>
      <use xlink:href="#DejaVuSans-44" transform="translate(525.484375 0)"/>
      <use xlink:href="#DejaVuSans-69" transform="translate(602.486328 0)"/>
      <use xlink:href="#DejaVuSans-66" transform="translate(630.269531 0)"/>
      <use xlink:href="#DejaVuSans-66" transform="translate(665.474609 0)"/>
      <use xlink:href="#DejaVuSans-65" transform="translate(700.679688 0)"/>
      <use xlink:href="#DejaVuSans-72" transform="translate(762.203125 0)"/>
      <use xlink:href="#DejaVuSans-65" transform="translate(801.066406 0)"/>
      <use xlink:href="#DejaVuSans-6e" transform="translate(862.589844 0)"/>
      <use xlink:href="#DejaVuSans-63" transform="translate(925.96875 0)"/>
      <use xlink:href="#DejaVuSans-65" transform="translate(980.949219 0)"/>
      <use xlink:href="#DejaVuSans-73" transform="translate(1042.472656 0)"/>
      <use xlink:href="#DejaVuSans-20" transform="translate(1094.572266 0)"/>
      <use xlink:href="#DejaVuSans-5b" transform="translate(1126.359375 0)"/>
      <use xlink:href="#DejaVuSans-6d" transform="translate(1165.373047 0)"/>
      <use xlink:href="#DejaVuSans-5d" transform="translate(1262.785156 0)"/>
     </g>
    </g>
   </g>
   <g id="line2d_9">
    <path d="M 124.330142 152.391362 
L 126.933969 152.021427 
L 129.537796 151.658961 
L 132.141623 151.29749 
L 134.74545 150.938011 
L 137.349276 150.580524 
L 139.953103 150.229509 
L 142.55693 149.876005 
L 145.160757 149.533454 
L 147.764584 149.189908 
L 150.368411 148.848353 
L 152.972238 148.505802 
L 155.576065 148.168231 
L 158.179891 147.819705 
L 160.783718 147.473172 
L 163.387545 147.115684 
L 165.991372 146.751226 
L 168.595199 146.377806 
L 171.199026 145.987458 
L 173.802853 145.579186 
L 176.406679 145.150997 
L 179.010506 144.699906 
L 181.614333 144.221929 
L 184.21816 143.718061 
L 186.821987 143.17934 
L 189.425814 142.605767 
L 192.029641 141.987383 
L 194.633468 141.328173 
L 197.237294 140.624152 
L 199.841121 139.876316 
L 202.444948 139.075703 
L 205.048775 138.220323 
L 207.652602 137.315153 
L 210.256429 136.354219 
L 212.860256 135.340508 
L 215.464083 134.264063 
L 218.067909 133.132849 
L 220.671736 131.942884 
L 223.275563 130.706117 
L 225.87939 129.414582 
L 228.483217 128.064295 
L 231.087044 126.677165 
L 233.690871 125.24124 
L 236.294698 123.767476 
L 238.898524 122.261847 
L 241.502351 120.725846 
L 244.106178 119.171921 
L 246.710005 117.594595 
L 249.313832 116.017767 
L 251.917659 114.430483 
L 254.521486 112.860128 
L 257.125313 111.304709 
L 259.729139 109.776177 
L 262.332966 108.283991 
L 264.936793 106.8401 
L 267.54062 105.454463 
L 270.144447 104.136166 
L 272.748274 102.893113 
L 275.352101 101.747336 
L 277.955927 100.725348 
L 280.559754 99.789682 
L 283.163581 98.998281 
L 285.767408 98.329734 
L 288.371235 97.814788 
L 290.975062 97.441368 
L 293.578889 97.25665 
L 296.182716 97.241215 
L 298.786542 97.409503 
L 301.390369 97.790889 
L 303.994196 98.363965 
L 306.598023 99.141674 
L 309.20185 100.157874 
L 311.805677 101.380202 
L 314.409504 102.847992 
L 317.013331 104.537841 
L 319.617157 106.465684 
L 322.220984 108.64347 
L 324.824811 111.054269 
L 327.428638 113.705053 
L 330.032465 116.590842 
L 332.636292 119.716616 
L 335.240119 123.062459 
L 337.843946 126.656253 
L 340.447772 130.462149 
L 343.051599 134.48911 
L 345.655426 138.721203 
L 348.259253 143.155441 
L 350.86308 147.778878 
L 353.466907 152.579565 
L 356.070734 157.54854 
L 358.67456 162.671862 
L 361.278387 167.939573 
L 363.882214 173.329766 
L 366.486041 178.832483 
L 369.089868 184.429799 
L 371.693695 190.106779 
L 374.297522 195.844501 
L 376.901349 201.627034 
L 379.505175 207.434461 
L 382.109002 213.252842 
L 384.712829 219.057282 
L 387.316656 224.837823 
L 389.920483 230.571562 
" clip-path="url(#pa8b540d44a)" style="fill: none; stroke: #2b737e; stroke-width: 1.5; stroke-linecap: square"/>
   </g>
   <g id="line2d_10">
    <path d="M 124.330142 152.391362 
L 126.933969 152.141419 
L 129.537796 151.894464 
L 132.141623 151.647509 
L 134.74545 151.400554 
L 137.349276 151.155591 
L 139.953103 150.912121 
L 142.55693 150.670145 
L 145.160757 150.440616 
L 147.764584 150.210589 
L 150.368411 149.993508 
L 152.972238 149.780409 
L 155.576065 149.589218 
L 158.179891 149.393546 
L 160.783718 149.217292 
L 163.387545 149.05 
L 165.991372 148.897644 
L 168.595199 148.76035 
L 171.199026 148.634134 
L 173.802853 148.51408 
L 176.406679 148.410596 
L 179.010506 148.312558 
L 181.614333 148.216651 
L 184.21816 148.134996 
L 186.821987 148.053217 
L 189.425814 147.967331 
L 192.029641 147.888913 
L 194.633468 147.783608 
L 197.237294 147.686768 
L 199.841121 147.566776 
L 202.444948 147.42388 
L 205.048775 147.264057 
L 207.652602 147.058925 
L 210.256429 146.817446 
L 212.860256 146.535639 
L 215.464083 146.208523 
L 218.067909 145.825145 
L 220.671736 145.38202 
L 223.275563 144.866202 
L 225.87939 144.275701 
L 228.483217 143.614499 
L 231.087044 142.858697 
L 233.690871 142.011282 
L 236.294698 141.066281 
L 238.898524 140.01473 
L 241.502351 138.859618 
L 244.106178 137.58999 
L 246.710005 136.201863 
L 249.313832 134.688268 
L 251.917659 133.055178 
L 254.521486 131.293631 
L 257.125313 129.402633 
L 259.729139 127.382182 
L 262.332966 125.231283 
L 264.936793 122.950931 
L 267.54062 120.542123 
L 270.144447 118.005855 
L 272.748274 115.344117 
L 275.352101 112.560894 
L 277.955927 109.668134 
L 280.559754 106.657871 
L 283.163581 103.553009 
L 285.767408 100.346576 
L 288.371235 97.052514 
L 290.975062 93.678789 
L 293.578889 90.240338 
L 296.182716 86.741144 
L 298.786542 83.194152 
L 301.390369 79.621269 
L 303.994196 76.020505 
L 306.598023 72.4058 
L 309.20185 68.812006 
L 311.805677 65.222195 
L 314.409504 61.682174 
L 317.013331 58.181984 
L 319.617157 54.750504 
L 322.220984 51.410138 
L 324.824811 48.161882 
L 327.428638 45.024158 
L 330.032465 42.015389 
L 332.636292 39.159473 
L 335.240119 36.442469 
L 337.843946 33.925121 
L 340.447772 31.587761 
L 343.051599 29.460761 
L 345.655426 27.542129 
L 348.259253 25.857258 
L 350.86308 24.422329 
L 353.466907 23.24086 
L 356.070734 22.325802 
L 358.67456 21.677381 
L 361.278387 21.336387 
L 363.882214 21.265312 
L 366.486041 21.501438 
L 369.089868 22.057585 
L 371.693695 22.898776 
L 374.297522 24.070817 
L 376.901349 25.560016 
L 379.505175 27.363385 
L 382.109002 29.474453 
L 384.712829 31.918113 
L 387.316656 34.669969 
L 389.920483 37.729026 
" clip-path="url(#pa8b540d44a)" style="fill: none; stroke: #5ea04b; stroke-width: 1.5; stroke-linecap: square"/>
   </g>
   <g id="line2d_11">
    <path d="M 124.330142 152.385387 
L 126.933969 152.458577 
L 129.537796 152.528282 
L 132.141623 152.596992 
L 134.74545 152.665203 
L 137.349276 152.732419 
L 139.953103 152.797145 
L 142.55693 152.863365 
L 145.160757 152.931078 
L 147.764584 152.998792 
L 150.368411 153.071982 
L 152.972238 153.146168 
L 155.576065 153.225333 
L 158.179891 153.310473 
L 160.783718 153.404077 
L 163.387545 153.505149 
L 165.991372 153.616677 
L 168.595199 153.740155 
L 171.199026 153.875582 
L 173.802853 154.023456 
L 176.406679 154.185769 
L 179.010506 154.363517 
L 181.614333 154.555206 
L 184.21816 154.767308 
L 186.821987 154.994846 
L 189.425814 155.240307 
L 192.029641 155.507178 
L 194.633468 155.781517 
L 197.237294 156.083738 
L 199.841121 156.399154 
L 202.444948 156.728759 
L 205.048775 157.076289 
L 207.652602 157.429793 
L 210.256429 157.794002 
L 212.860256 158.16792 
L 215.464083 158.551049 
L 218.067909 158.938534 
L 220.671736 159.327887 
L 223.275563 159.707655 
L 225.87939 160.08151 
L 228.483217 160.451492 
L 231.087044 160.800686 
L 233.690871 161.132376 
L 236.294698 161.440199 
L 238.898524 161.717152 
L 241.502351 161.962987 
L 244.106178 162.167497 
L 246.710005 162.330806 
L 249.313832 162.440093 
L 251.917659 162.502081 
L 254.521486 162.499591 
L 257.125313 162.432127 
L 259.729139 162.296202 
L 262.332966 162.084846 
L 264.936793 161.792085 
L 267.54062 161.414682 
L 270.144447 160.948156 
L 272.748274 160.391013 
L 275.352101 159.733794 
L 277.955927 158.968034 
L 280.559754 158.10867 
L 283.163581 157.136783 
L 285.767408 156.060337 
L 288.371235 154.871368 
L 290.975062 153.575352 
L 293.578889 152.161335 
L 296.182716 150.637284 
L 298.786542 149.001206 
L 301.390369 147.250116 
L 303.994196 145.393969 
L 306.598023 143.430278 
L 309.20185 141.360038 
L 311.805677 139.188725 
L 314.409504 136.921319 
L 317.013331 134.562301 
L 319.617157 132.114657 
L 322.220984 129.586853 
L 324.824811 126.984863 
L 327.428638 124.315159 
L 330.032465 121.586206 
L 332.636292 118.803978 
L 335.240119 115.975446 
L 337.843946 113.116045 
L 340.447772 110.227766 
L 343.051599 107.325546 
L 345.655426 104.413866 
L 348.259253 101.505173 
L 350.86308 98.613409 
L 353.466907 95.74654 
L 356.070734 92.913029 
L 358.67456 90.120843 
L 361.278387 87.39438 
L 363.882214 84.72368 
L 366.486041 82.135133 
L 369.089868 79.639194 
L 371.693695 77.227398 
L 374.297522 74.930617 
L 376.901349 72.751836 
L 379.505175 70.697279 
L 382.109002 68.773419 
L 384.712829 67.000421 
L 387.316656 65.376542 
L 389.920483 63.910247 
" clip-path="url(#pa8b540d44a)" style="fill: none; stroke: #bdab62; stroke-width: 1.5; stroke-linecap: square"/>
   </g>
   <g id="patch_3">
    <path d="M 111.050625 241.036875 
L 111.050625 10.8 
" style="fill: none; stroke: #000000; stroke-width: 0.8; stroke-linejoin: miter; stroke-linecap: square"/>
   </g>
   <g id="patch_4">
    <path d="M 403.2 241.036875 
L 403.2 10.8 
" style="fill: none; stroke: #000000; stroke-width: 0.8; stroke-linejoin: miter; stroke-linecap: square"/>
   </g>
   <g id="patch_5">
    <path d="M 111.050625 241.036875 
L 403.2 241.036875 
" style="fill: none; stroke: #000000; stroke-width: 0.8; stroke-linejoin: miter; stroke-linecap: square"/>
   </g>
   <g id="patch_6">
    <path d="M 111.050625 10.8 
L 403.2 10.8 
" style="fill: none; stroke: #000000; stroke-width: 0.8; stroke-linejoin: miter; stroke-linecap: square"/>
   </g>
   <g id="legend_1">
    <g id="patch_7">
     <path d="M 341.64 236.536875 
L 396.9 236.536875 
Q 398.7 236.536875 398.7 234.736875 
L 398.7 194.871094 
Q 398.7 193.071094 396.9 193.071094 
L 341.64 193.071094 
Q 339.84 193.071094 339.84 194.871094 
L 339.84 234.736875 
Q 339.84 236.536875 341.64 236.536875 
z
" style="fill: #ffffff; opacity: 0.8; stroke: #cccccc; stroke-linejoin: miter"/>
    </g>
    <g id="line2d_12">
     <path d="M 343.44 200.359687 
L 352.44 200.359687 
L 361.44 200.359687 
" style="fill: none; stroke: #2b737e; stroke-width: 1.5; stroke-linecap: square"/>
    </g>
    <g id="text_11">
     <!-- $\Delta r_{BN,0}$ -->
     <g transform="translate(368.64 203.509687) scale(0.09 -0.09)">
      <defs>
       <path id="DejaVuSans-394" d="M 2188 4044 
L 906 525 
L 3472 525 
L 2188 4044 
z
M 50 0 
L 1831 4666 
L 2547 4666 
L 4325 0 
L 50 0 
z
" transform="scale(0.015625)"/>
       <path id="DejaVuSans-Oblique-72" d="M 2853 2969 
Q 2766 3016 2653 3041 
Q 2541 3066 2413 3066 
Q 1953 3066 1609 2717 
Q 1266 2369 1153 1784 
L 800 0 
L 225 0 
L 909 3500 
L 1484 3500 
L 1375 2956 
Q 1603 3259 1920 3421 
Q 2238 3584 2597 3584 
Q 2691 3584 2781 3573 
Q 2872 3563 2963 3538 
L 2853 2969 
z
" transform="scale(0.015625)"/>
       <path id="DejaVuSans-Oblique-42" d="M 1081 4666 
L 2694 4666 
Q 3350 4666 3675 4422 
Q 4000 4178 4000 3688 
Q 4000 3238 3720 2911 
Q 3441 2584 2988 2516 
Q 3375 2428 3569 2181 
Q 3763 1934 3763 1522 
Q 3763 819 3242 409 
Q 2722 0 1819 0 
L 172 0 
L 1081 4666 
z
M 1234 2228 
L 903 519 
L 1919 519 
Q 2491 519 2800 781 
Q 3109 1044 3109 1522 
Q 3109 1891 2904 2059 
Q 2700 2228 2247 2228 
L 1234 2228 
z
M 1606 4147 
L 1331 2741 
L 2272 2741 
Q 2775 2741 3058 2959 
Q 3341 3178 3341 3566 
Q 3341 3869 3150 4008 
Q 2959 4147 2541 4147 
L 1606 4147 
z
" transform="scale(0.015625)"/>
       <path id="DejaVuSans-Oblique-4e" d="M 1081 4666 
L 1931 4666 
L 3219 666 
L 4000 4666 
L 4616 4666 
L 3706 0 
L 2853 0 
L 1569 4025 
L 788 0 
L 172 0 
L 1081 4666 
z
" transform="scale(0.015625)"/>
       <path id="DejaVuSans-2c" d="M 750 794 
L 1409 794 
L 1409 256 
L 897 -744 
L 494 -744 
L 750 256 
L 750 794 
z
" transform="scale(0.015625)"/>
      </defs>
      <use xlink:href="#DejaVuSans-394" transform="translate(0 0.09375)"/>
      <use xlink:href="#DejaVuSans-Oblique-72" transform="translate(68.408203 0.09375)"/>
      <use xlink:href="#DejaVuSans-Oblique-42" transform="translate(109.521484 -16.3125) scale(0.7)"/>
      <use xlink:href="#DejaVuSans-Oblique-4e" transform="translate(157.543945 -16.3125) scale(0.7)"/>
      <use xlink:href="#DejaVuSans-2c" transform="translate(209.907227 -16.3125) scale(0.7)"/>
      <use xlink:href="#DejaVuSans-30" transform="translate(245.795898 -16.3125) scale(0.7)"/>
     </g>
    </g>
    <g id="line2d_13">
     <path d="M 343.44 213.948281 
L 352.44 213.948281 
L 361.44 213.948281 
" style="fill: none; stroke: #5ea04b; stroke-width: 1.5; stroke-linecap: square"/>
    </g>
    <g id="text_12">
     <!-- $\Delta r_{BN,1}$ -->
     <g transform="translate(368.64 217.098281) scale(0.09 -0.09)">
      <use xlink:href="#DejaVuSans-394" transform="translate(0 0.09375)"/>
      <use xlink:href="#DejaVuSans-Oblique-72" transform="translate(68.408203 0.09375)"/>
      <use xlink:href="#DejaVuSans-Oblique-42" transform="translate(109.521484 -16.3125) scale(0.7)"/>
      <use xlink:href="#DejaVuSans-Oblique-4e" transform="translate(157.543945 -16.3125) scale(0.7)"/>
      <use xlink:href="#DejaVuSans-2c" transform="translate(209.907227 -16.3125) scale(0.7)"/>
      <use xlink:href="#DejaVuSans-31" transform="translate(245.795898 -16.3125) scale(0.7)"/>
     </g>
    </g>
    <g id="line2d_14">
     <path d="M 343.44 227.536875 
L 352.44 227.536875 
L 361.44 227.536875 
" style="fill: none; stroke: #bdab62; stroke-width: 1.5; stroke-linecap: square"/>
    </g>
    <g id="text_13">
     <!-- $\Delta r_{BN,2}$ -->
     <g transform="translate(368.64 230.686875) scale(0.09 -0.09)">
      <use xlink:href="#DejaVuSans-394" transform="translate(0 0.09375)"/>
      <use xlink:href="#DejaVuSans-Oblique-72" transform="translate(68.408203 0.09375)"/>
      <use xlink:href="#DejaVuSans-Oblique-42" transform="translate(109.521484 -16.3125) scale(0.7)"/>
      <use xlink:href="#DejaVuSans-Oblique-4e" transform="translate(157.543945 -16.3125) scale(0.7)"/>
      <use xlink:href="#DejaVuSans-2c" transform="translate(209.907227 -16.3125) scale(0.7)"/>
      <use xlink:href="#DejaVuSans-32" transform="translate(245.795898 -16.3125) scale(0.7)"/>
     </g>
    </g>
   </g>
  </g>
 </g>
 <defs>
  <clipPath id="pa8b540d44a">
   <rect x="111.050625" y="10.8" width="292.149375" height="230.236875"/>
  </clipPath>
 </defs>
</svg>
