<?xml version="1.0" encoding="utf-8" standalone="no"?>
<!DOCTYPE svg PUBLIC "-//W3C//DTD SVG 1.1//EN"
  "http://www.w3.org/Graphics/SVG/1.1/DTD/svg11.dtd">
<svg xmlns:xlink="http://www.w3.org/1999/xlink" width="414pt" height="288pt" viewBox="0 0 414 288" xmlns="http://www.w3.org/2000/svg" version="1.1">
 <metadata>
  <rdf:RDF xmlns:dc="http://purl.org/dc/elements/1.1/" xmlns:cc="http://creativecommons.org/ns#" xmlns:rdf="http://www.w3.org/1999/02/22-rdf-syntax-ns#">
   <cc:Work>
    <dc:type rdf:resource="http://purl.org/dc/dcmitype/StillImage"/>
    <dc:date>2026-01-30T01:52:08.217116</dc:date>
    <dc:format>image/svg+xml</dc:format>
    <dc:creator>
     <cc:Agent>
      <dc:title>Matplotlib v3.10.7, https://matplotlib.org/</dc:title>
     </cc:Agent>
    </dc:creator>
   </cc:Work>
  </rdf:RDF>
 </metadata>
 <defs>
  <style type="text/css">*{stroke-linejoin: round; stroke-linecap: butt}</style>
 </defs>
 <g id="figure_1">
  <g id="patch_1">
   <path d="M 0 288 
L 414 288 
L 414 0 
L 0 0 
L 0 288 
z
" style="fill: none"/>
  </g>
  <g id="axes_1">
   <g id="patch_2">
    <path d="M 96.4975 235.23 
L 403.2 235.23 
L 403.2 28.9575 
L 96.4975 28.9575 
L 96.4975 235.23 
z
" style="fill: none"/>
   </g>
   <g id="matplotlib.axis_1">
    <g id="xtick_1">
     <g id="line2d_1">
      <path d="M 110.438523 235.23 
L 110.438523 28.9575 
" clip-path="url(#p9bde834ad5)" style="fill: none; stroke: #b0b0b0; stroke-width: 0.8; stroke-linecap: square"/>
     </g>
     <g id="line2d_2">
      <defs>
       <path id="mf4861ddee1" d="M 0 0 
L 0 3.5 
" style="stroke: #000000; stroke-width: 0.8"/>
      </defs>
      <g>
       <use xlink:href="#mf4861ddee1" x="110.438523" y="235.23" style="stroke: #000000; stroke-width: 0.8"/>
      </g>
     </g>
     <g id="text_1">
      <!-- 0 -->
      <g transform="translate(105.348523 254.3875) scale(0.16 -0.16)">
       <defs>
        <path id="DejaVuSans-30" d="M 2034 4250 
Q 1547 4250 1301 3770 
Q 1056 3291 1056 2328 
Q 1056 1369 1301 889 
Q 1547 409 2034 409 
Q 2525 409 2770 889 
Q 3016 1369 3016 2328 
Q 3016 3291 2770 3770 
Q 2525 4250 2034 4250 
z
M 2034 4750 
Q 2819 4750 3233 4129 
Q 3647 3509 3647 2328 
Q 3647 1150 3233 529 
Q 2819 -91 2034 -91 
Q 1250 -91 836 529 
Q 422 1150 422 2328 
Q 422 3509 836 4129 
Q 1250 4750 2034 4750 
z
" transform="scale(0.015625)"/>
       </defs>
       <use xlink:href="#DejaVuSans-30"/>
      </g>
     </g>
    </g>
    <g id="xtick_2">
     <g id="line2d_3">
      <path d="M 172.398624 235.23 
L 172.398624 28.9575 
" clip-path="url(#p9bde834ad5)" style="fill: none; stroke: #b0b0b0; stroke-width: 0.8; stroke-linecap: square"/>
     </g>
     <g id="line2d_4">
      <g>
       <use xlink:href="#mf4861ddee1" x="172.398624" y="235.23" style="stroke: #000000; stroke-width: 0.8"/>
      </g>
     </g>
     <g id="text_2">
      <!-- 20 -->
      <g transform="translate(162.218624 254.3875) scale(0.16 -0.16)">
       <defs>
        <path id="DejaVuSans-32" d="M 1228 531 
L 3431 531 
L 3431 0 
L 469 0 
L 469 531 
Q 828 903 1448 1529 
Q 2069 2156 2228 2338 
Q 2531 2678 2651 2914 
Q 2772 3150 2772 3378 
Q 2772 3750 2511 3984 
Q 2250 4219 1831 4219 
Q 1534 4219 1204 4116 
Q 875 4013 500 3803 
L 500 4441 
Q 881 4594 1212 4672 
Q 1544 4750 1819 4750 
Q 2544 4750 2975 4387 
Q 3406 4025 3406 3419 
Q 3406 3131 3298 2873 
Q 3191 2616 2906 2266 
Q 2828 2175 2409 1742 
Q 1991 1309 1228 531 
z
" transform="scale(0.015625)"/>
       </defs>
       <use xlink:href="#DejaVuSans-32"/>
       <use xlink:href="#DejaVuSans-30" transform="translate(63.623047 0)"/>
      </g>
     </g>
    </g>
    <g id="xtick_3">
     <g id="line2d_5">
      <path d="M 234.358725 235.23 
L 234.358725 28.9575 
" clip-path="url(#p9bde834ad5)" style="fill: none; stroke: #b0b0b0; stroke-width: 0.8; stroke-linecap: square"/>
     </g>
     <g id="line2d_6">
      <g>
       <use xlink:href="#mf4861ddee1" x="234.358725" y="235.23" style="stroke: #000000; stroke-width: 0.8"/>
      </g>
     </g>
     <g id="text_3">
      <!-- 40 -->
      <g transform="translate(224.178725 254.3875) scale(0.16 -0.16)">
       <defs>
        <path id="DejaVuSans-34" d="M 2419 4116 
L 825 1625 
L 2419 1625 
L 2419 4116 
z
M 2253 4666 
L 3047 4666 
L 3047 1625 
L 3713 1625 
L 3713 1100 
L 3047 1100 
L 3047 0 
L 2419 0 
L 2419 1100 
L 313 1100 
L 313 1709 
L 2253 4666 
z
" transform="scale(0.015625)"/>
       </defs>
       <use xlink:href="#DejaVuSans-34"/>
       <use xlink:href="#DejaVuSans-30" transform="translate(63.623047 0)"/>
      </g>
     </g>
    </g>
    <g id="xtick_4">
     <g id="line2d_7">
      <path d="M 296.318826 235.23 
L 296.318826 28.9575 
" clip-path="url(#p9bde834ad5)" style="fill: none; stroke: #b0b0b0; stroke-width: 0.8; stroke-linecap: square"/>
     </g>
     <g id="line2d_8">
      <g>
       <use xlink:href="#mf4861ddee1" x="296.318826" y="235.23" style="stroke: #000000; stroke-width: 0.8"/>
      </g>
     </g>
     <g id="text_4">
      <!-- 60 -->
      <g transform="translate(286.138826 254.3875) scale(0.16 -0.16)">
       <defs>
        <path id="DejaVuSans-36" d="M 2113 2584 
Q 1688 2584 1439 2293 
Q 1191 2003 1191 1497 
Q 1191 994 1439 701 
Q 1688 409 2113 409 
Q 2538 409 2786 701 
Q 3034 994 3034 1497 
Q 3034 2003 2786 2293 
Q 2538 2584 2113 2584 
z
M 3366 4563 
L 3366 3988 
Q 3128 4100 2886 4159 
Q 2644 4219 2406 4219 
Q 1781 4219 1451 3797 
Q 1122 3375 1075 2522 
Q 1259 2794 1537 2939 
Q 1816 3084 2150 3084 
Q 2853 3084 3261 2657 
Q 3669 2231 3669 1497 
Q 3669 778 3244 343 
Q 2819 -91 2113 -91 
Q 1303 -91 875 529 
Q 447 1150 447 2328 
Q 447 3434 972 4092 
Q 1497 4750 2381 4750 
Q 2619 4750 2861 4703 
Q 3103 4656 3366 4563 
z
" transform="scale(0.015625)"/>
       </defs>
       <use xlink:href="#DejaVuSans-36"/>
       <use xlink:href="#DejaVuSans-30" transform="translate(63.623047 0)"/>
      </g>
     </g>
    </g>
    <g id="xtick_5">
     <g id="line2d_9">
      <path d="M 358.278927 235.23 
L 358.278927 28.9575 
" clip-path="url(#p9bde834ad5)" style="fill: none; stroke: #b0b0b0; stroke-width: 0.8; stroke-linecap: square"/>
     </g>
     <g id="line2d_10">
      <g>
       <use xlink:href="#mf4861ddee1" x="358.278927" y="235.23" style="stroke: #000000; stroke-width: 0.8"/>
      </g>
     </g>
     <g id="text_5">
      <!-- 80 -->
      <g transform="translate(348.098927 254.3875) scale(0.16 -0.16)">
       <defs>
        <path id="DejaVuSans-38" d="M 2034 2216 
Q 1584 2216 1326 1975 
Q 1069 1734 1069 1313 
Q 1069 891 1326 650 
Q 1584 409 2034 409 
Q 2484 409 2743 651 
Q 3003 894 3003 1313 
Q 3003 1734 2745 1975 
Q 2488 2216 2034 2216 
z
M 1403 2484 
Q 997 2584 770 2862 
Q 544 3141 544 3541 
Q 544 4100 942 4425 
Q 1341 4750 2034 4750 
Q 2731 4750 3128 4425 
Q 3525 4100 3525 3541 
Q 3525 3141 3298 2862 
Q 3072 2584 2669 2484 
Q 3125 2378 3379 2068 
Q 3634 1759 3634 1313 
Q 3634 634 3220 271 
Q 2806 -91 2034 -91 
Q 1263 -91 848 271 
Q 434 634 434 1313 
Q 434 1759 690 2068 
Q 947 2378 1403 2484 
z
M 1172 3481 
Q 1172 3119 1398 2916 
Q 1625 2713 2034 2713 
Q 2441 2713 2670 2916 
Q 2900 3119 2900 3481 
Q 2900 3844 2670 4047 
Q 2441 4250 2034 4250 
Q 1625 4250 1398 4047 
Q 1172 3844 1172 3481 
z
" transform="scale(0.015625)"/>
       </defs>
       <use xlink:href="#DejaVuSans-38"/>
       <use xlink:href="#DejaVuSans-30" transform="translate(63.623047 0)"/>
      </g>
     </g>
    </g>
    <g id="text_6">
     <!-- Time (s) -->
     <g transform="translate(217.3225 273.8725) scale(0.16 -0.16)">
      <defs>
       <path id="DejaVuSans-54" d="M -19 4666 
L 3928 4666 
L 3928 4134 
L 2272 4134 
L 2272 0 
L 1638 0 
L 1638 4134 
L -19 4134 
L -19 4666 
z
" transform="scale(0.015625)"/>
       <path id="DejaVuSans-69" d="M 603 3500 
L 1178 3500 
L 1178 0 
L 603 0 
L 603 3500 
z
M 603 4863 
L 1178 4863 
L 1178 4134 
L 603 4134 
L 603 4863 
z
" transform="scale(0.015625)"/>
       <path id="DejaVuSans-6d" d="M 3328 2828 
Q 3544 3216 3844 3400 
Q 4144 3584 4550 3584 
Q 5097 3584 5394 3201 
Q 5691 2819 5691 2113 
L 5691 0 
L 5113 0 
L 5113 2094 
Q 5113 2597 4934 2840 
Q 4756 3084 4391 3084 
Q 3944 3084 3684 2787 
Q 3425 2491 3425 1978 
L 3425 0 
L 2847 0 
L 2847 2094 
Q 2847 2600 2669 2842 
Q 2491 3084 2119 3084 
Q 1678 3084 1418 2786 
Q 1159 2488 1159 1978 
L 1159 0 
L 581 0 
L 581 3500 
L 1159 3500 
L 1159 2956 
Q 1356 3278 1631 3431 
Q 1906 3584 2284 3584 
Q 2666 3584 2933 3390 
Q 3200 3197 3328 2828 
z
" transform="scale(0.015625)"/>
       <path id="DejaVuSans-65" d="M 3597 1894 
L 3597 1613 
L 953 1613 
Q 991 1019 1311 708 
Q 1631 397 2203 397 
Q 2534 397 2845 478 
Q 3156 559 3463 722 
L 3463 178 
Q 3153 47 2828 -22 
Q 2503 -91 2169 -91 
Q 1331 -91 842 396 
Q 353 884 353 1716 
Q 353 2575 817 3079 
Q 1281 3584 2069 3584 
Q 2775 3584 3186 3129 
Q 3597 2675 3597 1894 
z
M 3022 2063 
Q 3016 2534 2758 2815 
Q 2500 3097 2075 3097 
Q 1594 3097 1305 2825 
Q 1016 2553 972 2059 
L 3022 2063 
z
" transform="scale(0.015625)"/>
       <path id="DejaVuSans-20" transform="scale(0.015625)"/>
       <path id="DejaVuSans-28" d="M 1984 4856 
Q 1566 4138 1362 3434 
Q 1159 2731 1159 2009 
Q 1159 1288 1364 580 
Q 1569 -128 1984 -844 
L 1484 -844 
Q 1016 -109 783 600 
Q 550 1309 550 2009 
Q 550 2706 781 3412 
Q 1013 4119 1484 4856 
L 1984 4856 
z
" transform="scale(0.015625)"/>
       <path id="DejaVuSans-73" d="M 2834 3397 
L 2834 2853 
Q 2591 2978 2328 3040 
Q 2066 3103 1784 3103 
Q 1356 3103 1142 2972 
Q 928 2841 928 2578 
Q 928 2378 1081 2264 
Q 1234 2150 1697 2047 
L 1894 2003 
Q 2506 1872 2764 1633 
Q 3022 1394 3022 966 
Q 3022 478 2636 193 
Q 2250 -91 1575 -91 
Q 1294 -91 989 -36 
Q 684 19 347 128 
L 347 722 
Q 666 556 975 473 
Q 1284 391 1588 391 
Q 1994 391 2212 530 
Q 2431 669 2431 922 
Q 2431 1156 2273 1281 
Q 2116 1406 1581 1522 
L 1381 1569 
Q 847 1681 609 1914 
Q 372 2147 372 2553 
Q 372 3047 722 3315 
Q 1072 3584 1716 3584 
Q 2034 3584 2315 3537 
Q 2597 3491 2834 3397 
z
" transform="scale(0.015625)"/>
       <path id="DejaVuSans-29" d="M 513 4856 
L 1013 4856 
Q 1481 4119 1714 3412 
Q 1947 2706 1947 2009 
Q 1947 1309 1714 600 
Q 1481 -109 1013 -844 
L 513 -844 
Q 928 -128 1133 580 
Q 1338 1288 1338 2009 
Q 1338 2731 1133 3434 
Q 928 4138 513 4856 
z
" transform="scale(0.015625)"/>
      </defs>
      <use xlink:href="#DejaVuSans-54"/>
      <use xlink:href="#DejaVuSans-69" transform="translate(57.958984 0)"/>
      <use xlink:href="#DejaVuSans-6d" transform="translate(85.742188 0)"/>
      <use xlink:href="#DejaVuSans-65" transform="translate(183.154297 0)"/>
      <use xlink:href="#DejaVuSans-20" transform="translate(244.677734 0)"/>
      <use xlink:href="#DejaVuSans-28" transform="translate(276.464844 0)"/>
      <use xlink:href="#DejaVuSans-73" transform="translate(315.478516 0)"/>
      <use xlink:href="#DejaVuSans-29" transform="translate(367.578125 0)"/>
     </g>
    </g>
   </g>
   <g id="matplotlib.axis_2">
    <g id="ytick_1">
     <g id="line2d_11">
      <path d="M 96.4975 210.30357 
L 403.2 210.30357 
" clip-path="url(#p9bde834ad5)" style="fill: none; stroke: #b0b0b0; stroke-width: 0.8; stroke-linecap: square"/>
     </g>
     <g id="line2d_12">
      <defs>
       <path id="m6f0ad0193c" d="M 0 0 
L -3.5 0 
" style="stroke: #000000; stroke-width: 0.8"/>
      </defs>
      <g>
       <use xlink:href="#m6f0ad0193c" x="96.4975" y="210.30357" style="stroke: #000000; stroke-width: 0.8"/>
      </g>
     </g>
     <g id="text_7">
      <!-- −0.050 -->
      <g transform="translate(30.285 216.38232) scale(0.16 -0.16)">
       <defs>
        <path id="DejaVuSans-2212" d="M 678 2272 
L 4684 2272 
L 4684 1741 
L 678 1741 
L 678 2272 
z
" transform="scale(0.015625)"/>
        <path id="DejaVuSans-2e" d="M 684 794 
L 1344 794 
L 1344 0 
L 684 0 
L 684 794 
z
" transform="scale(0.015625)"/>
        <path id="DejaVuSans-35" d="M 691 4666 
L 3169 4666 
L 3169 4134 
L 1269 4134 
L 1269 2991 
Q 1406 3038 1543 3061 
Q 1681 3084 1819 3084 
Q 2600 3084 3056 2656 
Q 3513 2228 3513 1497 
Q 3513 744 3044 326 
Q 2575 -91 1722 -91 
Q 1428 -91 1123 -41 
Q 819 9 494 109 
L 494 744 
Q 775 591 1075 516 
Q 1375 441 1709 441 
Q 2250 441 2565 725 
Q 2881 1009 2881 1497 
Q 2881 1984 2565 2268 
Q 2250 2553 1709 2553 
Q 1456 2553 1204 2497 
Q 953 2441 691 2322 
L 691 4666 
z
" transform="scale(0.015625)"/>
       </defs>
       <use xlink:href="#DejaVuSans-2212"/>
       <use xlink:href="#DejaVuSans-30" transform="translate(83.789062 0)"/>
       <use xlink:href="#DejaVuSans-2e" transform="translate(147.412109 0)"/>
       <use xlink:href="#DejaVuSans-30" transform="translate(179.199219 0)"/>
       <use xlink:href="#DejaVuSans-35" transform="translate(242.822266 0)"/>
       <use xlink:href="#DejaVuSans-30" transform="translate(306.445312 0)"/>
      </g>
     </g>
    </g>
    <g id="ytick_2">
     <g id="line2d_13">
      <path d="M 96.4975 171.19866 
L 403.2 171.19866 
" clip-path="url(#p9bde834ad5)" style="fill: none; stroke: #b0b0b0; stroke-width: 0.8; stroke-linecap: square"/>
     </g>
     <g id="line2d_14">
      <g>
       <use xlink:href="#m6f0ad0193c" x="96.4975" y="171.19866" style="stroke: #000000; stroke-width: 0.8"/>
      </g>
     </g>
     <g id="text_8">
      <!-- −0.025 -->
      <g transform="translate(30.285 177.27741) scale(0.16 -0.16)">
       <use xlink:href="#DejaVuSans-2212"/>
       <use xlink:href="#DejaVuSans-30" transform="translate(83.789062 0)"/>
       <use xlink:href="#DejaVuSans-2e" transform="translate(147.412109 0)"/>
       <use xlink:href="#DejaVuSans-30" transform="translate(179.199219 0)"/>
       <use xlink:href="#DejaVuSans-32" transform="translate(242.822266 0)"/>
       <use xlink:href="#DejaVuSans-35" transform="translate(306.445312 0)"/>
      </g>
     </g>
    </g>
    <g id="ytick_3">
     <g id="line2d_15">
      <path d="M 96.4975 132.09375 
L 403.2 132.09375 
" clip-path="url(#p9bde834ad5)" style="fill: none; stroke: #b0b0b0; stroke-width: 0.8; stroke-linecap: square"/>
     </g>
     <g id="line2d_16">
      <g>
       <use xlink:href="#m6f0ad0193c" x="96.4975" y="132.09375" style="stroke: #000000; stroke-width: 0.8"/>
      </g>
     </g>
     <g id="text_9">
      <!-- 0.000 -->
      <g transform="translate(43.6925 138.1725) scale(0.16 -0.16)">
       <use xlink:href="#DejaVuSans-30"/>
       <use xlink:href="#DejaVuSans-2e" transform="translate(63.623047 0)"/>
       <use xlink:href="#DejaVuSans-30" transform="translate(95.410156 0)"/>
       <use xlink:href="#DejaVuSans-30" transform="translate(159.033203 0)"/>
       <use xlink:href="#DejaVuSans-30" transform="translate(222.65625 0)"/>
      </g>
     </g>
    </g>
    <g id="ytick_4">
     <g id="line2d_17">
      <path d="M 96.4975 92.98884 
L 403.2 92.98884 
" clip-path="url(#p9bde834ad5)" style="fill: none; stroke: #b0b0b0; stroke-width: 0.8; stroke-linecap: square"/>
     </g>
     <g id="line2d_18">
      <g>
       <use xlink:href="#m6f0ad0193c" x="96.4975" y="92.98884" style="stroke: #000000; stroke-width: 0.8"/>
      </g>
     </g>
     <g id="text_10">
      <!-- 0.025 -->
      <g transform="translate(43.6925 99.06759) scale(0.16 -0.16)">
       <use xlink:href="#DejaVuSans-30"/>
       <use xlink:href="#DejaVuSans-2e" transform="translate(63.623047 0)"/>
       <use xlink:href="#DejaVuSans-30" transform="translate(95.410156 0)"/>
       <use xlink:href="#DejaVuSans-32" transform="translate(159.033203 0)"/>
       <use xlink:href="#DejaVuSans-35" transform="translate(222.65625 0)"/>
      </g>
     </g>
    </g>
    <g id="ytick_5">
     <g id="line2d_19">
      <path d="M 96.4975 53.88393 
L 403.2 53.88393 
" clip-path="url(#p9bde834ad5)" style="fill: none; stroke: #b0b0b0; stroke-width: 0.8; stroke-linecap: square"/>
     </g>
     <g id="line2d_20">
      <g>
       <use xlink:href="#m6f0ad0193c" x="96.4975" y="53.88393" style="stroke: #000000; stroke-width: 0.8"/>
      </g>
     </g>
     <g id="text_11">
      <!-- 0.050 -->
      <g transform="translate(43.6925 59.96268) scale(0.16 -0.16)">
       <use xlink:href="#DejaVuSans-30"/>
       <use xlink:href="#DejaVuSans-2e" transform="translate(63.623047 0)"/>
       <use xlink:href="#DejaVuSans-30" transform="translate(95.410156 0)"/>
       <use xlink:href="#DejaVuSans-35" transform="translate(159.033203 0)"/>
       <use xlink:href="#DejaVuSans-30" transform="translate(222.65625 0)"/>
      </g>
     </g>
    </g>
    <g id="text_12">
     <!-- (deg/s) -->
     <g transform="translate(22.9575 160.27875) rotate(-90) scale(0.16 -0.16)">
      <defs>
       <path id="DejaVuSans-64" d="M 2906 2969 
L 2906 4863 
L 3481 4863 
L 3481 0 
L 2906 0 
L 2906 525 
Q 2725 213 2448 61 
Q 2172 -91 1784 -91 
Q 1150 -91 751 415 
Q 353 922 353 1747 
Q 353 2572 751 3078 
Q 1150 3584 1784 3584 
Q 2172 3584 2448 3432 
Q 2725 3281 2906 2969 
z
M 947 1747 
Q 947 1113 1208 752 
Q 1469 391 1925 391 
Q 2381 391 2643 752 
Q 2906 1113 2906 1747 
Q 2906 2381 2643 2742 
Q 2381 3103 1925 3103 
Q 1469 3103 1208 2742 
Q 947 2381 947 1747 
z
" transform="scale(0.015625)"/>
       <path id="DejaVuSans-67" d="M 2906 1791 
Q 2906 2416 2648 2759 
Q 2391 3103 1925 3103 
Q 1463 3103 1205 2759 
Q 947 2416 947 1791 
Q 947 1169 1205 825 
Q 1463 481 1925 481 
Q 2391 481 2648 825 
Q 2906 1169 2906 1791 
z
M 3481 434 
Q 3481 -459 3084 -895 
Q 2688 -1331 1869 -1331 
Q 1566 -1331 1297 -1286 
Q 1028 -1241 775 -1147 
L 775 -588 
Q 1028 -725 1275 -790 
Q 1522 -856 1778 -856 
Q 2344 -856 2625 -561 
Q 2906 -266 2906 331 
L 2906 616 
Q 2728 306 2450 153 
Q 2172 0 1784 0 
Q 1141 0 747 490 
Q 353 981 353 1791 
Q 353 2603 747 3093 
Q 1141 3584 1784 3584 
Q 2172 3584 2450 3431 
Q 2728 3278 2906 2969 
L 2906 3500 
L 3481 3500 
L 3481 434 
z
" transform="scale(0.015625)"/>
       <path id="DejaVuSans-2f" d="M 1625 4666 
L 2156 4666 
L 531 -594 
L 0 -594 
L 1625 4666 
z
" transform="scale(0.015625)"/>
      </defs>
      <use xlink:href="#DejaVuSans-28"/>
      <use xlink:href="#DejaVuSans-64" transform="translate(39.013672 0)"/>
      <use xlink:href="#DejaVuSans-65" transform="translate(102.490234 0)"/>
      <use xlink:href="#DejaVuSans-67" transform="translate(164.013672 0)"/>
      <use xlink:href="#DejaVuSans-2f" transform="translate(227.490234 0)"/>
      <use xlink:href="#DejaVuSans-73" transform="translate(261.181641 0)"/>
      <use xlink:href="#DejaVuSans-29" transform="translate(313.28125 0)"/>
     </g>
    </g>
   </g>
   <g id="line2d_21">
    <path d="M 110.438523 132.09375 
L 110.748323 132.186917 
L 111.058124 132.993625 
L 111.367924 135.1441 
L 111.677725 139.002158 
L 112.297326 151.928905 
L 113.536528 185.329172 
L 113.846328 190.324684 
L 114.156129 192.627988 
L 114.465929 192.222366 
L 114.77573 189.21009 
L 115.08553 183.80379 
L 115.705131 167.131307 
L 117.254134 111.702254 
L 119.112937 47.466706 
L 119.422737 41.297379 
L 119.732538 38.333523 
L 120.042338 39.323894 
L 120.352139 44.32411 
L 120.661939 52.991584 
L 121.28154 79.236937 
L 123.450144 189.308826 
L 124.069745 203.750543 
L 124.379545 206.098426 
L 124.689346 205.14919 
L 124.999146 201.04716 
L 125.618747 184.609961 
L 126.548149 146.566854 
L 127.787351 95.62431 
L 128.406952 79.726257 
L 128.716753 75.405318 
L 129.026553 73.688788 
L 129.336354 74.570103 
L 129.646154 77.929739 
L 130.265755 91.097731 
L 131.195157 121.244656 
L 132.434359 161.274518 
L 133.05396 173.631008 
L 133.36376 176.934672 
L 133.673561 178.181799 
L 133.983361 177.382289 
L 134.293162 174.634891 
L 134.912763 164.089846 
L 135.842164 140.20367 
L 136.771566 115.49524 
L 137.391167 103.237834 
L 137.700967 99.152067 
L 138.010768 96.628908 
L 138.320568 95.729469 
L 138.630369 96.442221 
L 138.940169 98.685765 
L 139.55977 107.127261 
L 140.489172 126.050152 
L 141.418573 145.483861 
L 142.038174 155.053106 
L 142.347975 158.214552 
L 142.657775 160.139388 
L 142.967576 160.782386 
L 143.277376 160.155568 
L 143.587177 158.325897 
L 144.206778 151.57071 
L 145.136179 136.581932 
L 146.065581 121.29879 
L 146.685182 113.829756 
L 146.994982 111.384671 
L 147.304783 109.918078 
L 147.614583 109.463305 
L 147.924384 110.008562 
L 148.234184 111.498865 
L 148.853785 116.902761 
L 149.783187 128.773655 
L 150.712588 140.791201 
L 151.332189 146.619703 
L 151.64199 148.509826 
L 151.95179 149.625802 
L 152.261591 149.943193 
L 152.571391 149.473114 
L 152.881192 148.260637 
L 153.500793 143.939159 
L 154.430194 134.538903 
L 155.359596 125.090358 
L 155.979197 120.54306 
L 156.288997 119.08268 
L 156.598798 118.234697 
L 156.908598 118.016926 
L 157.218399 118.41917 
L 157.528199 119.404543 
L 158.147801 122.859302 
L 159.077202 130.302089 
L 160.006604 137.72988 
L 160.626205 141.276802 
L 160.936005 142.404552 
L 161.245806 143.047921 
L 161.555606 143.194012 
L 161.865407 142.85199 
L 162.175207 142.052 
L 162.794808 139.290997 
L 163.72421 133.398877 
L 164.653611 127.560397 
L 165.273212 124.794411 
L 165.583013 123.924009 
L 165.892813 123.43668 
L 166.202614 123.34169 
L 166.512414 123.630924 
L 166.822215 124.279782 
L 167.441816 126.485672 
L 168.681018 132.781739 
L 169.610419 136.940806 
L 170.23002 138.56609 
L 170.539821 138.934569 
L 170.849621 138.993541 
L 171.159422 138.750102 
L 171.469222 138.224303 
L 172.088823 136.462441 
L 173.328025 131.485635 
L 174.257427 128.225991 
L 174.877028 126.966883 
L 175.186828 126.688805 
L 175.496629 126.654861 
L 175.806429 126.858907 
L 176.11623 127.28462 
L 176.735831 128.691426 
L 177.975033 132.62491 
L 178.904434 135.179249 
L 179.524035 136.154265 
L 179.833836 136.36368 
L 180.143636 136.380548 
L 180.453437 136.210148 
L 181.073038 135.367794 
L 181.692639 134.02186 
L 183.241641 130.205709 
L 183.861242 129.18525 
L 184.480843 128.720902 
L 184.790644 128.715402 
L 185.100444 128.85724 
L 185.720045 129.534202 
L 186.649447 131.222658 
L 187.888649 133.608735 
L 188.50825 134.403536 
L 189.127851 134.757659 
L 189.437652 134.75585 
L 190.057253 134.413251 
L 190.676854 133.698262 
L 193.155258 130.259751 
L 193.774859 129.990024 
L 194.39446 130.093736 
L 195.014061 130.530332 
L 195.943462 131.592494 
L 197.182664 133.067954 
L 197.802265 133.54972 
L 198.421866 133.754889 
L 199.041467 133.665664 
L 199.661068 133.315283 
L 200.59047 132.473036 
L 201.829672 131.313009 
L 202.449273 130.938083 
L 203.068874 130.782245 
L 203.688475 130.858458 
L 204.308076 131.139527 
L 205.547278 132.054319 
L 206.78648 132.884871 
L 207.406081 133.093042 
L 208.025682 133.118904 
L 208.645283 132.96928 
L 209.574684 132.501074 
L 211.433487 131.463705 
L 212.362889 131.276526 
L 213.29229 131.407747 
L 214.531492 131.931371 
L 216.080495 132.595403 
L 217.009896 132.738733 
L 217.939298 132.631169 
L 219.1785 132.215571 
L 220.727503 131.694412 
L 221.656904 131.584767 
L 222.586306 131.672798 
L 224.135308 132.098135 
L 225.684311 132.456972 
L 226.923513 132.463266 
L 228.472515 132.161743 
L 230.331318 131.805722 
L 231.57052 131.803592 
L 233.429323 132.102564 
L 235.288126 132.338495 
L 236.837129 132.262141 
L 240.244934 131.896596 
L 242.103737 132.029312 
L 244.891942 132.24924 
L 247.060545 132.11402 
L 249.538949 131.971134 
L 250.158551 131.890414 
L 250.468351 131.096989 
L 250.778152 128.963601 
L 251.087952 125.125573 
L 251.707553 112.2438 
L 252.946755 78.925145 
L 253.256556 73.943244 
L 253.566356 71.649621 
L 253.876157 72.060696 
L 254.185957 75.074092 
L 254.495758 80.477265 
L 255.115359 97.131994 
L 256.664361 152.47793 
L 258.523164 216.645271 
L 258.832965 222.813893 
L 259.142765 225.780387 
L 259.452566 224.795778 
L 259.762366 219.804099 
L 260.072167 211.147479 
L 260.691768 184.928542 
L 262.860371 74.935243 
L 263.479972 60.497052 
L 263.789773 58.146953 
L 264.099573 59.091519 
L 264.409374 63.186707 
L 265.028975 79.605236 
L 265.958376 117.614931 
L 267.197578 168.52281 
L 267.817179 184.414087 
L 268.12698 188.734811 
L 268.43678 190.453197 
L 268.746581 189.575662 
L 269.056381 186.221508 
L 269.675982 173.068358 
L 270.605384 142.94781 
L 271.844586 102.945064 
L 272.464187 90.593746 
L 272.773987 87.290164 
L 273.083788 86.04149 
L 273.393588 86.83794 
L 273.703389 89.58095 
L 274.32299 100.114196 
L 275.252391 123.979553 
L 276.181793 148.670631 
L 276.801394 160.921556 
L 277.111194 165.006005 
L 277.420995 167.529169 
L 277.730795 168.429894 
L 278.040596 167.719615 
L 278.350396 165.479585 
L 278.969997 157.047464 
L 279.899399 138.141004 
L 280.828801 118.720887 
L 281.448402 109.156652 
L 281.758202 105.996191 
L 282.068003 104.071296 
L 282.377803 103.427232 
L 282.687604 104.052053 
L 282.997404 105.878912 
L 283.617005 112.62665 
L 284.546407 127.602461 
L 285.475808 142.87496 
L 286.095409 150.340122 
L 286.40521 152.784473 
L 286.71501 154.251155 
L 287.024811 154.706811 
L 287.334611 154.163166 
L 287.644412 152.675112 
L 288.264013 147.277134 
L 289.193414 135.416471 
L 290.122816 123.407259 
L 290.742417 117.581746 
L 291.052217 115.692168 
L 291.362018 114.576088 
L 291.671818 114.257969 
L 291.981619 114.726747 
L 292.291419 115.937426 
L 292.91102 120.254204 
L 293.840422 129.646388 
L 294.769823 139.088409 
L 295.389424 143.633398 
L 295.699225 145.093377 
L 296.009025 145.941468 
L 296.318826 146.159839 
L 296.628626 145.758643 
L 296.938427 144.774708 
L 297.558028 141.323681 
L 298.487429 133.887262 
L 299.416831 126.464578 
L 300.036432 122.919436 
L 300.346232 121.791982 
L 300.656033 121.148506 
L 300.965833 121.001923 
L 301.275634 121.343099 
L 301.585434 122.14194 
L 302.205035 124.89998 
L 303.134437 130.787078 
L 304.063838 136.621562 
L 304.683439 139.386174 
L 304.99324 140.256361 
L 305.30304 140.743791 
L 305.612841 140.839184 
L 305.922641 140.550631 
L 306.232442 139.90269 
L 306.852043 137.699153 
L 308.091245 131.408248 
L 309.020646 127.251756 
L 309.640247 125.627038 
L 309.950048 125.258466 
L 310.259848 125.199163 
L 310.569649 125.442054 
L 310.879449 125.967121 
L 311.499051 127.727115 
L 312.738253 132.699856 
L 313.667654 135.957494 
L 314.287255 137.216176 
L 314.597056 137.494337 
L 314.906856 137.528552 
L 315.216657 137.324946 
L 315.526457 136.899819 
L 316.146058 135.494495 
L 317.38526 131.564212 
L 318.314662 129.011436 
L 318.934263 128.036739 
L 319.244063 127.82725 
L 319.553864 127.810162 
L 319.863664 127.980208 
L 320.483265 128.821538 
L 321.102866 130.1662 
L 322.651869 133.979566 
L 323.27147 134.999543 
L 323.891071 135.463898 
L 324.200871 135.469579 
L 324.510672 135.328024 
L 325.130273 134.651878 
L 326.059674 132.964945 
L 327.298876 130.580535 
L 327.918477 129.786105 
L 328.538078 129.431966 
L 328.847879 129.433628 
L 329.46748 129.775701 
L 330.087081 130.489951 
L 332.565485 133.926057 
L 333.185086 134.195804 
L 333.804687 134.092394 
L 334.424288 133.656315 
L 335.353689 132.595104 
L 336.592891 131.120666 
L 337.212492 130.639118 
L 337.832093 130.433927 
L 338.451694 130.522907 
L 339.071295 130.872877 
L 340.000697 131.714374 
L 341.239899 132.8736 
L 341.8595 133.24836 
L 342.479101 133.40422 
L 343.098702 133.328204 
L 343.718303 133.047461 
L 344.957505 132.133453 
L 346.196707 131.303419 
L 346.816308 131.095301 
L 347.435909 131.069346 
L 348.05551 131.218755 
L 348.984912 131.68651 
L 350.843715 132.723169 
L 351.773116 132.910334 
L 352.702518 132.779336 
L 353.94172 132.256193 
L 355.490722 131.592593 
L 356.420124 131.449271 
L 357.349525 131.556655 
L 358.588727 131.971874 
L 360.13773 132.492695 
L 361.067131 132.602337 
L 361.996533 132.514449 
L 363.545535 132.089485 
L 365.094538 131.730853 
L 366.33374 131.724479 
L 367.882742 132.025716 
L 369.741545 132.381521 
L 370.980747 132.383717 
L 372.839551 132.085015 
L 374.698354 131.849207 
L 376.247356 131.925443 
L 379.655162 132.290753 
L 381.513965 132.158183 
L 384.302169 131.938379 
L 386.470773 132.073459 
L 388.949177 132.216273 
L 389.258977 132.212591 
L 389.258977 132.212591 
" clip-path="url(#p9bde834ad5)" style="fill: none; stroke: #008080; stroke-width: 1.5; stroke-linecap: square"/>
   </g>
   <g id="line2d_22">
    <path d="M 110.438523 132.09375 
L 110.748323 132.000583 
L 111.058124 131.193875 
L 111.367924 129.0434 
L 111.677725 125.185342 
L 112.297326 112.258595 
L 113.536528 78.858328 
L 113.846328 73.862816 
L 114.156129 71.559512 
L 114.465929 71.965134 
L 114.77573 74.97741 
L 115.08553 80.38371 
L 115.705131 97.056193 
L 117.254134 152.485246 
L 119.112937 216.720794 
L 119.422737 222.890121 
L 119.732538 225.853977 
L 120.042338 224.863606 
L 120.352139 219.86339 
L 120.661939 211.195916 
L 121.28154 184.950563 
L 123.450144 74.878674 
L 124.069745 60.436957 
L 124.379545 58.089074 
L 124.689346 59.03831 
L 124.999146 63.14034 
L 125.618747 79.577539 
L 126.548149 117.620646 
L 127.787351 168.56319 
L 128.406952 184.461243 
L 128.716753 188.782182 
L 129.026553 190.498712 
L 129.336354 189.617397 
L 129.646154 186.257761 
L 130.265755 173.089769 
L 131.195157 142.942844 
L 132.434359 102.912982 
L 133.05396 90.556492 
L 133.36376 87.252828 
L 133.673561 86.005701 
L 133.983361 86.805211 
L 134.293162 89.552609 
L 134.912763 100.097654 
L 135.842164 123.98383 
L 136.771566 148.69226 
L 137.391167 160.949666 
L 137.700967 165.035433 
L 138.010768 167.558592 
L 138.320568 168.458031 
L 138.630369 167.745279 
L 138.940169 165.501735 
L 139.55977 157.060239 
L 140.489172 138.137348 
L 141.418573 118.703639 
L 142.038174 109.134394 
L 142.347975 105.972948 
L 142.657775 104.048112 
L 142.967576 103.405114 
L 143.277376 104.031932 
L 143.587177 105.861603 
L 144.206778 112.61679 
L 145.136179 127.605568 
L 146.065581 142.88871 
L 146.685182 150.357744 
L 146.994982 152.802829 
L 147.304783 154.269422 
L 147.614583 154.724195 
L 147.924384 154.178938 
L 148.234184 152.688635 
L 148.853785 147.284739 
L 149.783187 135.413845 
L 150.712588 123.396299 
L 151.332189 117.567797 
L 151.64199 115.677674 
L 151.95179 114.561698 
L 152.261591 114.244307 
L 152.571391 114.714386 
L 152.881192 115.926863 
L 153.500793 120.248341 
L 154.430194 129.648597 
L 155.359596 139.097142 
L 155.979197 143.64444 
L 156.288997 145.10482 
L 156.598798 145.952803 
L 156.908598 146.170574 
L 157.218399 145.76833 
L 157.528199 144.782957 
L 158.147801 141.328198 
L 159.077202 133.885411 
L 160.006604 126.45762 
L 160.626205 122.910698 
L 160.936005 121.782948 
L 161.245806 121.139579 
L 161.555606 120.993488 
L 161.865407 121.33551 
L 162.175207 122.1355 
L 162.794808 124.896503 
L 163.72421 130.788623 
L 164.653611 136.627103 
L 165.273212 139.393089 
L 165.583013 140.263491 
L 165.892813 140.75082 
L 166.202614 140.84581 
L 166.512414 140.556576 
L 166.822215 139.907718 
L 167.441816 137.701828 
L 168.681018 131.405761 
L 169.610419 127.246694 
L 170.23002 125.62141 
L 170.539821 125.252931 
L 170.849621 125.193959 
L 171.159422 125.437398 
L 171.469222 125.963197 
L 172.088823 127.725059 
L 173.328025 132.701865 
L 174.257427 135.961509 
L 174.877028 137.220617 
L 175.186828 137.498695 
L 175.496629 137.532639 
L 175.806429 137.328593 
L 176.11623 136.90288 
L 176.735831 135.496074 
L 177.975033 131.56259 
L 178.904434 129.008251 
L 179.524035 128.033235 
L 179.833836 127.82382 
L 180.143636 127.806952 
L 180.453437 127.977352 
L 181.073038 128.819706 
L 181.692639 130.16564 
L 183.241641 133.981791 
L 183.861242 135.00225 
L 184.480843 135.466598 
L 184.790644 135.472098 
L 185.100444 135.33026 
L 185.720045 134.653298 
L 186.649447 132.964842 
L 187.888649 130.578765 
L 188.50825 129.783964 
L 189.127851 129.429841 
L 189.437652 129.43165 
L 190.057253 129.774249 
L 190.676854 130.489238 
L 193.155258 133.927749 
L 193.774859 134.197476 
L 194.39446 134.093764 
L 195.014061 133.657168 
L 195.943462 132.595006 
L 197.182664 131.119546 
L 197.802265 130.63778 
L 198.421866 130.432611 
L 199.041467 130.521836 
L 199.661068 130.872217 
L 200.59047 131.714464 
L 201.829672 132.874491 
L 202.449273 133.249417 
L 203.068874 133.405255 
L 203.688475 133.329042 
L 204.308076 133.047973 
L 205.547278 132.133181 
L 206.78648 131.302629 
L 207.406081 131.094458 
L 208.025682 131.068596 
L 208.645283 131.21822 
L 209.574684 131.686426 
L 211.433487 132.723795 
L 212.362889 132.910974 
L 213.29229 132.779753 
L 214.531492 132.256129 
L 216.080495 131.592097 
L 217.009896 131.448767 
L 217.939298 131.556331 
L 219.1785 131.971929 
L 220.727503 132.493088 
L 221.656904 132.602733 
L 222.586306 132.514702 
L 224.135308 132.089365 
L 225.684311 131.730528 
L 226.923513 131.724234 
L 228.472515 132.025757 
L 230.331318 132.381778 
L 231.57052 132.383908 
L 233.429323 132.084936 
L 235.288126 131.849005 
L 236.837129 131.925359 
L 240.244934 132.290904 
L 242.103737 132.158188 
L 244.891942 131.93826 
L 247.060545 132.07348 
L 249.538949 132.216366 
L 250.158551 132.297086 
L 250.468351 133.090511 
L 250.778152 135.223899 
L 251.087952 139.061927 
L 251.707553 151.9437 
L 252.946755 185.262355 
L 253.256556 190.244256 
L 253.566356 192.537879 
L 253.876157 192.126804 
L 254.185957 189.113408 
L 254.495758 183.710235 
L 255.115359 167.055506 
L 256.664361 111.70957 
L 258.523164 47.542229 
L 258.832965 41.373607 
L 259.142765 38.407113 
L 259.452566 39.391722 
L 259.762366 44.383401 
L 260.072167 53.040021 
L 260.691768 79.258958 
L 262.860371 189.252257 
L 263.479972 203.690448 
L 263.789773 206.040547 
L 264.099573 205.095981 
L 264.409374 201.000793 
L 265.028975 184.582264 
L 265.958376 146.572569 
L 267.197578 95.66469 
L 267.817179 79.773413 
L 268.12698 75.452689 
L 268.43678 73.734303 
L 268.746581 74.611838 
L 269.056381 77.965992 
L 269.675982 91.119142 
L 270.605384 121.23969 
L 271.844586 161.242436 
L 272.464187 173.593754 
L 272.773987 176.897336 
L 273.083788 178.14601 
L 273.393588 177.34956 
L 273.703389 174.60655 
L 274.32299 164.073304 
L 275.252391 140.207947 
L 276.181793 115.516869 
L 276.801394 103.265944 
L 277.111194 99.181495 
L 277.420995 96.658331 
L 277.730795 95.757606 
L 278.040596 96.467885 
L 278.350396 98.707915 
L 278.969997 107.140036 
L 279.899399 126.046496 
L 280.828801 145.466613 
L 281.448402 155.030848 
L 281.758202 158.191309 
L 282.068003 160.116204 
L 282.377803 160.760268 
L 282.687604 160.135447 
L 282.997404 158.308588 
L 283.617005 151.56085 
L 284.546407 136.585039 
L 285.475808 121.31254 
L 286.095409 113.847378 
L 286.40521 111.403027 
L 286.71501 109.936345 
L 287.024811 109.480689 
L 287.334611 110.024334 
L 287.644412 111.512388 
L 288.264013 116.910366 
L 289.193414 128.771029 
L 290.122816 140.780241 
L 290.742417 146.605754 
L 291.052217 148.495332 
L 291.362018 149.611412 
L 291.671818 149.929531 
L 291.981619 149.460753 
L 292.291419 148.250074 
L 292.91102 143.933296 
L 293.840422 134.541112 
L 294.769823 125.099091 
L 295.389424 120.554102 
L 295.699225 119.094123 
L 296.009025 118.246032 
L 296.318826 118.027661 
L 296.628626 118.428857 
L 296.938427 119.412792 
L 297.558028 122.863819 
L 298.487429 130.300238 
L 299.416831 137.722922 
L 300.036432 141.268064 
L 300.346232 142.395518 
L 300.656033 143.038994 
L 300.965833 143.185577 
L 301.275634 142.844401 
L 301.585434 142.04556 
L 302.205035 139.28752 
L 303.134437 133.400422 
L 304.063838 127.565938 
L 304.683439 124.801326 
L 304.99324 123.931139 
L 305.30304 123.443709 
L 305.612841 123.348316 
L 305.922641 123.636869 
L 306.232442 124.28481 
L 306.852043 126.488347 
L 308.091245 132.779252 
L 309.020646 136.935744 
L 309.640247 138.560462 
L 309.950048 138.929034 
L 310.259848 138.988337 
L 310.569649 138.745446 
L 310.879449 138.220379 
L 311.499051 136.460385 
L 312.738253 131.487644 
L 313.667654 128.230006 
L 314.287255 126.971324 
L 314.597056 126.693163 
L 314.906856 126.658948 
L 315.216657 126.862554 
L 315.526457 127.287681 
L 316.146058 128.693005 
L 317.38526 132.623288 
L 318.314662 135.176064 
L 318.934263 136.150761 
L 319.244063 136.36025 
L 319.553864 136.377338 
L 319.863664 136.207292 
L 320.483265 135.365962 
L 321.102866 134.0213 
L 322.651869 130.207934 
L 323.27147 129.187957 
L 323.891071 128.723602 
L 324.200871 128.717921 
L 324.510672 128.859476 
L 325.130273 129.535622 
L 326.059674 131.222555 
L 327.298876 133.606965 
L 327.918477 134.401395 
L 328.538078 134.755534 
L 328.847879 134.753872 
L 329.46748 134.411799 
L 330.087081 133.697549 
L 332.565485 130.261443 
L 333.185086 129.991696 
L 333.804687 130.095106 
L 334.424288 130.531185 
L 335.353689 131.592396 
L 336.592891 133.066834 
L 337.212492 133.548382 
L 337.832093 133.753573 
L 338.451694 133.664593 
L 339.071295 133.314623 
L 340.000697 132.473126 
L 341.239899 131.3139 
L 341.8595 130.93914 
L 342.479101 130.78328 
L 343.098702 130.859296 
L 343.718303 131.140039 
L 344.957505 132.054047 
L 346.196707 132.884081 
L 346.816308 133.092199 
L 347.435909 133.118154 
L 348.05551 132.968745 
L 348.984912 132.50099 
L 350.843715 131.464331 
L 351.773116 131.277166 
L 352.702518 131.408164 
L 353.94172 131.931307 
L 355.490722 132.594907 
L 356.420124 132.738229 
L 357.349525 132.630845 
L 358.588727 132.215626 
L 360.13773 131.694805 
L 361.067131 131.585163 
L 361.996533 131.673051 
L 363.545535 132.098015 
L 365.094538 132.456647 
L 366.33374 132.463021 
L 367.882742 132.161784 
L 369.741545 131.805979 
L 370.980747 131.803783 
L 372.839551 132.102485 
L 374.698354 132.338293 
L 376.247356 132.262057 
L 379.655162 131.896747 
L 381.513965 132.029317 
L 384.302169 132.249121 
L 386.470773 132.114041 
L 388.949177 131.971227 
L 389.258977 131.974909 
L 389.258977 131.974909 
" clip-path="url(#p9bde834ad5)" style="fill: none; stroke: #9400d3; stroke-width: 1.5; stroke-linecap: square"/>
   </g>
   <g id="patch_3">
    <path d="M 96.4975 235.23 
L 96.4975 28.9575 
" style="fill: none; stroke: #000000; stroke-width: 0.8; stroke-linejoin: miter; stroke-linecap: square"/>
   </g>
   <g id="patch_4">
    <path d="M 403.2 235.23 
L 403.2 28.9575 
" style="fill: none; stroke: #000000; stroke-width: 0.8; stroke-linejoin: miter; stroke-linecap: square"/>
   </g>
   <g id="patch_5">
    <path d="M 96.4975 235.23 
L 403.2 235.23 
" style="fill: none; stroke: #000000; stroke-width: 0.8; stroke-linejoin: miter; stroke-linecap: square"/>
   </g>
   <g id="patch_6">
    <path d="M 96.4975 28.9575 
L 403.2 28.9575 
" style="fill: none; stroke: #000000; stroke-width: 0.8; stroke-linejoin: miter; stroke-linecap: square"/>
   </g>
   <g id="text_13">
    <!-- Solar Array Angle Rates -->
    <g transform="translate(155.0125 22.9575) scale(0.16 -0.16)">
     <defs>
      <path id="DejaVuSans-53" d="M 3425 4513 
L 3425 3897 
Q 3066 4069 2747 4153 
Q 2428 4238 2131 4238 
Q 1616 4238 1336 4038 
Q 1056 3838 1056 3469 
Q 1056 3159 1242 3001 
Q 1428 2844 1947 2747 
L 2328 2669 
Q 3034 2534 3370 2195 
Q 3706 1856 3706 1288 
Q 3706 609 3251 259 
Q 2797 -91 1919 -91 
Q 1588 -91 1214 -16 
Q 841 59 441 206 
L 441 856 
Q 825 641 1194 531 
Q 1563 422 1919 422 
Q 2459 422 2753 634 
Q 3047 847 3047 1241 
Q 3047 1584 2836 1778 
Q 2625 1972 2144 2069 
L 1759 2144 
Q 1053 2284 737 2584 
Q 422 2884 422 3419 
Q 422 4038 858 4394 
Q 1294 4750 2059 4750 
Q 2388 4750 2728 4690 
Q 3069 4631 3425 4513 
z
" transform="scale(0.015625)"/>
      <path id="DejaVuSans-6f" d="M 1959 3097 
Q 1497 3097 1228 2736 
Q 959 2375 959 1747 
Q 959 1119 1226 758 
Q 1494 397 1959 397 
Q 2419 397 2687 759 
Q 2956 1122 2956 1747 
Q 2956 2369 2687 2733 
Q 2419 3097 1959 3097 
z
M 1959 3584 
Q 2709 3584 3137 3096 
Q 3566 2609 3566 1747 
Q 3566 888 3137 398 
Q 2709 -91 1959 -91 
Q 1206 -91 779 398 
Q 353 888 353 1747 
Q 353 2609 779 3096 
Q 1206 3584 1959 3584 
z
" transform="scale(0.015625)"/>
      <path id="DejaVuSans-6c" d="M 603 4863 
L 1178 4863 
L 1178 0 
L 603 0 
L 603 4863 
z
" transform="scale(0.015625)"/>
      <path id="DejaVuSans-61" d="M 2194 1759 
Q 1497 1759 1228 1600 
Q 959 1441 959 1056 
Q 959 750 1161 570 
Q 1363 391 1709 391 
Q 2188 391 2477 730 
Q 2766 1069 2766 1631 
L 2766 1759 
L 2194 1759 
z
M 3341 1997 
L 3341 0 
L 2766 0 
L 2766 531 
Q 2569 213 2275 61 
Q 1981 -91 1556 -91 
Q 1019 -91 701 211 
Q 384 513 384 1019 
Q 384 1609 779 1909 
Q 1175 2209 1959 2209 
L 2766 2209 
L 2766 2266 
Q 2766 2663 2505 2880 
Q 2244 3097 1772 3097 
Q 1472 3097 1187 3025 
Q 903 2953 641 2809 
L 641 3341 
Q 956 3463 1253 3523 
Q 1550 3584 1831 3584 
Q 2591 3584 2966 3190 
Q 3341 2797 3341 1997 
z
" transform="scale(0.015625)"/>
      <path id="DejaVuSans-72" d="M 2631 2963 
Q 2534 3019 2420 3045 
Q 2306 3072 2169 3072 
Q 1681 3072 1420 2755 
Q 1159 2438 1159 1844 
L 1159 0 
L 581 0 
L 581 3500 
L 1159 3500 
L 1159 2956 
Q 1341 3275 1631 3429 
Q 1922 3584 2338 3584 
Q 2397 3584 2469 3576 
Q 2541 3569 2628 3553 
L 2631 2963 
z
" transform="scale(0.015625)"/>
      <path id="DejaVuSans-41" d="M 2188 4044 
L 1331 1722 
L 3047 1722 
L 2188 4044 
z
M 1831 4666 
L 2547 4666 
L 4325 0 
L 3669 0 
L 3244 1197 
L 1141 1197 
L 716 0 
L 50 0 
L 1831 4666 
z
" transform="scale(0.015625)"/>
      <path id="DejaVuSans-79" d="M 2059 -325 
Q 1816 -950 1584 -1140 
Q 1353 -1331 966 -1331 
L 506 -1331 
L 506 -850 
L 844 -850 
Q 1081 -850 1212 -737 
Q 1344 -625 1503 -206 
L 1606 56 
L 191 3500 
L 800 3500 
L 1894 763 
L 2988 3500 
L 3597 3500 
L 2059 -325 
z
" transform="scale(0.015625)"/>
      <path id="DejaVuSans-6e" d="M 3513 2113 
L 3513 0 
L 2938 0 
L 2938 2094 
Q 2938 2591 2744 2837 
Q 2550 3084 2163 3084 
Q 1697 3084 1428 2787 
Q 1159 2491 1159 1978 
L 1159 0 
L 581 0 
L 581 3500 
L 1159 3500 
L 1159 2956 
Q 1366 3272 1645 3428 
Q 1925 3584 2291 3584 
Q 2894 3584 3203 3211 
Q 3513 2838 3513 2113 
z
" transform="scale(0.015625)"/>
      <path id="DejaVuSans-52" d="M 2841 2188 
Q 3044 2119 3236 1894 
Q 3428 1669 3622 1275 
L 4263 0 
L 3584 0 
L 2988 1197 
Q 2756 1666 2539 1819 
Q 2322 1972 1947 1972 
L 1259 1972 
L 1259 0 
L 628 0 
L 628 4666 
L 2053 4666 
Q 2853 4666 3247 4331 
Q 3641 3997 3641 3322 
Q 3641 2881 3436 2590 
Q 3231 2300 2841 2188 
z
M 1259 4147 
L 1259 2491 
L 2053 2491 
Q 2509 2491 2742 2702 
Q 2975 2913 2975 3322 
Q 2975 3731 2742 3939 
Q 2509 4147 2053 4147 
L 1259 4147 
z
" transform="scale(0.015625)"/>
      <path id="DejaVuSans-74" d="M 1172 4494 
L 1172 3500 
L 2356 3500 
L 2356 3053 
L 1172 3053 
L 1172 1153 
Q 1172 725 1289 603 
Q 1406 481 1766 481 
L 2356 481 
L 2356 0 
L 1766 0 
Q 1100 0 847 248 
Q 594 497 594 1153 
L 594 3053 
L 172 3053 
L 172 3500 
L 594 3500 
L 594 4494 
L 1172 4494 
z
" transform="scale(0.015625)"/>
     </defs>
     <use xlink:href="#DejaVuSans-53"/>
     <use xlink:href="#DejaVuSans-6f" transform="translate(63.476562 0)"/>
     <use xlink:href="#DejaVuSans-6c" transform="translate(124.658203 0)"/>
     <use xlink:href="#DejaVuSans-61" transform="translate(152.441406 0)"/>
     <use xlink:href="#DejaVuSans-72" transform="translate(213.720703 0)"/>
     <use xlink:href="#DejaVuSans-20" transform="translate(254.833984 0)"/>
     <use xlink:href="#DejaVuSans-41" transform="translate(286.621094 0)"/>
     <use xlink:href="#DejaVuSans-72" transform="translate(355.029297 0)"/>
     <use xlink:href="#DejaVuSans-72" transform="translate(394.392578 0)"/>
     <use xlink:href="#DejaVuSans-61" transform="translate(435.505859 0)"/>
     <use xlink:href="#DejaVuSans-79" transform="translate(496.785156 0)"/>
     <use xlink:href="#DejaVuSans-20" transform="translate(555.964844 0)"/>
     <use xlink:href="#DejaVuSans-41" transform="translate(587.751953 0)"/>
     <use xlink:href="#DejaVuSans-6e" transform="translate(656.160156 0)"/>
     <use xlink:href="#DejaVuSans-67" transform="translate(719.539062 0)"/>
     <use xlink:href="#DejaVuSans-6c" transform="translate(783.015625 0)"/>
     <use xlink:href="#DejaVuSans-65" transform="translate(810.798828 0)"/>
     <use xlink:href="#DejaVuSans-20" transform="translate(872.322266 0)"/>
     <use xlink:href="#DejaVuSans-52" transform="translate(904.109375 0)"/>
     <use xlink:href="#DejaVuSans-61" transform="translate(971.341797 0)"/>
     <use xlink:href="#DejaVuSans-74" transform="translate(1032.621094 0)"/>
     <use xlink:href="#DejaVuSans-65" transform="translate(1071.830078 0)"/>
     <use xlink:href="#DejaVuSans-73" transform="translate(1133.353516 0)"/>
    </g>
   </g>
   <g id="legend_1">
    <g id="patch_7">
     <path d="M 290.88 103.8375 
L 392 103.8375 
Q 395.2 103.8375 395.2 100.6375 
L 395.2 40.1575 
Q 395.2 36.9575 392 36.9575 
L 290.88 36.9575 
Q 287.68 36.9575 287.68 40.1575 
L 287.68 100.6375 
Q 287.68 103.8375 290.88 103.8375 
z
" style="fill: #ffffff; opacity: 0.8; stroke: #cccccc; stroke-linejoin: miter"/>
    </g>
    <g id="line2d_23">
     <path d="M 294.08 55.3575 
L 310.08 55.3575 
L 326.08 55.3575 
" style="fill: none; stroke: #008080; stroke-width: 1.5; stroke-linecap: square"/>
    </g>
    <g id="text_14">
     <!-- $\dot{\theta}_{S_{1,2,5,6}}$ -->
     <g transform="translate(338.88 60.9575) scale(0.16 -0.16)">
      <defs>
       <path id="DejaVuSans-307" d="M -1894 4863 
L -1319 4863 
L -1319 4134 
L -1894 4134 
L -1894 4863 
z
M -1600 3584 
L -1600 3584 
z
" transform="scale(0.015625)"/>
       <path id="DejaVuSans-Oblique-3b8" d="M 2913 2219 
L 925 2219 
Q 791 1284 928 888 
Q 1100 400 1566 400 
Q 2034 400 2391 891 
Q 2703 1322 2913 2219 
z
M 3009 2750 
Q 3094 3638 2984 3950 
Q 2813 4444 2353 4444 
Q 1875 4444 1525 3956 
Q 1250 3563 1034 2750 
L 3009 2750 
z
M 2444 4913 
Q 3194 4913 3494 4250 
Q 3794 3591 3566 2422 
Q 3341 1256 2781 594 
Q 2225 -72 1475 -72 
Q 722 -72 425 594 
Q 128 1256 353 2422 
Q 581 3591 1134 4250 
Q 1691 4913 2444 4913 
z
" transform="scale(0.015625)"/>
       <path id="DejaVuSans-Oblique-53" d="M 3859 4513 
L 3738 3897 
Q 3422 4066 3111 4152 
Q 2800 4238 2509 4238 
Q 1944 4238 1609 3991 
Q 1275 3744 1275 3334 
Q 1275 3109 1398 2989 
Q 1522 2869 2034 2731 
L 2413 2638 
Q 3053 2472 3303 2217 
Q 3553 1963 3553 1503 
Q 3553 797 2998 353 
Q 2444 -91 1538 -91 
Q 1166 -91 791 -17 
Q 416 56 38 206 
L 166 856 
Q 513 641 861 531 
Q 1209 422 1556 422 
Q 2147 422 2503 684 
Q 2859 947 2859 1369 
Q 2859 1650 2717 1795 
Q 2575 1941 2106 2059 
L 1728 2156 
Q 1081 2325 845 2545 
Q 609 2766 609 3163 
Q 609 3859 1145 4304 
Q 1681 4750 2541 4750 
Q 2875 4750 3203 4690 
Q 3531 4631 3859 4513 
z
" transform="scale(0.015625)"/>
       <path id="DejaVuSans-31" d="M 794 531 
L 1825 531 
L 1825 4091 
L 703 3866 
L 703 4441 
L 1819 4666 
L 2450 4666 
L 2450 531 
L 3481 531 
L 3481 0 
L 794 0 
L 794 531 
z
" transform="scale(0.015625)"/>
       <path id="DejaVuSans-2c" d="M 750 794 
L 1409 794 
L 1409 256 
L 897 -744 
L 494 -744 
L 750 256 
L 750 794 
z
" transform="scale(0.015625)"/>
      </defs>
      <use xlink:href="#DejaVuSans-307" transform="translate(62.88916 34.015625)"/>
      <use xlink:href="#DejaVuSans-Oblique-3b8" transform="translate(0 0.75)"/>
      <use xlink:href="#DejaVuSans-Oblique-53" transform="translate(62.138672 -15.65625) scale(0.7)"/>
      <use xlink:href="#DejaVuSans-31" transform="translate(106.572266 -27.140625) scale(0.49)"/>
      <use xlink:href="#DejaVuSans-2c" transform="translate(137.747559 -27.140625) scale(0.49)"/>
      <use xlink:href="#DejaVuSans-32" transform="translate(162.869629 -27.140625) scale(0.49)"/>
      <use xlink:href="#DejaVuSans-2c" transform="translate(194.044922 -27.140625) scale(0.49)"/>
      <use xlink:href="#DejaVuSans-35" transform="translate(219.166992 -27.140625) scale(0.49)"/>
      <use xlink:href="#DejaVuSans-2c" transform="translate(250.342285 -27.140625) scale(0.49)"/>
      <use xlink:href="#DejaVuSans-36" transform="translate(275.464355 -27.140625) scale(0.49)"/>
     </g>
    </g>
    <g id="line2d_24">
     <path d="M 294.08 86.3975 
L 310.08 86.3975 
L 326.08 86.3975 
" style="fill: none; stroke: #9400d3; stroke-width: 1.5; stroke-linecap: square"/>
    </g>
    <g id="text_15">
     <!-- $\dot{\theta}_{S_{3,4,7,8}}$ -->
     <g transform="translate(338.88 91.9975) scale(0.16 -0.16)">
      <defs>
       <path id="DejaVuSans-33" d="M 2597 2516 
Q 3050 2419 3304 2112 
Q 3559 1806 3559 1356 
Q 3559 666 3084 287 
Q 2609 -91 1734 -91 
Q 1441 -91 1130 -33 
Q 819 25 488 141 
L 488 750 
Q 750 597 1062 519 
Q 1375 441 1716 441 
Q 2309 441 2620 675 
Q 2931 909 2931 1356 
Q 2931 1769 2642 2001 
Q 2353 2234 1838 2234 
L 1294 2234 
L 1294 2753 
L 1863 2753 
Q 2328 2753 2575 2939 
Q 2822 3125 2822 3475 
Q 2822 3834 2567 4026 
Q 2313 4219 1838 4219 
Q 1578 4219 1281 4162 
Q 984 4106 628 3988 
L 628 4550 
Q 988 4650 1302 4700 
Q 1616 4750 1894 4750 
Q 2613 4750 3031 4423 
Q 3450 4097 3450 3541 
Q 3450 3153 3228 2886 
Q 3006 2619 2597 2516 
z
" transform="scale(0.015625)"/>
       <path id="DejaVuSans-37" d="M 525 4666 
L 3525 4666 
L 3525 4397 
L 1831 0 
L 1172 0 
L 2766 4134 
L 525 4134 
L 525 4666 
z
" transform="scale(0.015625)"/>
      </defs>
      <use xlink:href="#DejaVuSans-307" transform="translate(62.88916 34.015625)"/>
      <use xlink:href="#DejaVuSans-Oblique-3b8" transform="translate(0 0.75)"/>
      <use xlink:href="#DejaVuSans-Oblique-53" transform="translate(62.138672 -15.65625) scale(0.7)"/>
      <use xlink:href="#DejaVuSans-33" transform="translate(106.572266 -27.140625) scale(0.49)"/>
      <use xlink:href="#DejaVuSans-2c" transform="translate(137.747559 -27.140625) scale(0.49)"/>
      <use xlink:href="#DejaVuSans-34" transform="translate(162.869629 -27.140625) scale(0.49)"/>
      <use xlink:href="#DejaVuSans-2c" transform="translate(194.044922 -27.140625) scale(0.49)"/>
      <use xlink:href="#DejaVuSans-37" transform="translate(219.166992 -27.140625) scale(0.49)"/>
      <use xlink:href="#DejaVuSans-2c" transform="translate(250.342285 -27.140625) scale(0.49)"/>
      <use xlink:href="#DejaVuSans-38" transform="translate(275.464355 -27.140625) scale(0.49)"/>
     </g>
    </g>
   </g>
  </g>
 </g>
 <defs>
  <clipPath id="p9bde834ad5">
   <rect x="96.4975" y="28.9575" width="306.7025" height="206.2725"/>
  </clipPath>
 </defs>
</svg>
