<?xml version="1.0" encoding="utf-8" standalone="no"?>
<!DOCTYPE svg PUBLIC "-//W3C//DTD SVG 1.1//EN"
  "http://www.w3.org/Graphics/SVG/1.1/DTD/svg11.dtd">
<svg xmlns:xlink="http://www.w3.org/1999/xlink" width="414pt" height="180pt" viewBox="0 0 414 180" xmlns="http://www.w3.org/2000/svg" version="1.1">
 <metadata>
  <rdf:RDF xmlns:dc="http://purl.org/dc/elements/1.1/" xmlns:cc="http://creativecommons.org/ns#" xmlns:rdf="http://www.w3.org/1999/02/22-rdf-syntax-ns#">
   <cc:Work>
    <dc:type rdf:resource="http://purl.org/dc/dcmitype/StillImage"/>
    <dc:date>2026-07-09T00:10:10.669191</dc:date>
    <dc:format>image/svg+xml</dc:format>
    <dc:creator>
     <cc:Agent>
      <dc:title>Matplotlib v3.10.9, https://matplotlib.org/</dc:title>
     </cc:Agent>
    </dc:creator>
   </cc:Work>
  </rdf:RDF>
 </metadata>
 <defs>
  <style type="text/css">*{stroke-linejoin: round; stroke-linecap: butt}</style>
 </defs>
 <g id="figure_1">
  <g id="patch_1">
   <path d="M 0 180 
L 414 180 
L 414 0 
L 0 0 
L 0 180 
z
" style="fill: none"/>
  </g>
  <g id="axes_1">
   <g id="patch_2">
    <path d="M 60.080781 139.811563 
L 403.2 139.811563 
L 403.2 10.872061 
L 60.080781 10.872061 
L 60.080781 139.811563 
z
" style="fill: none"/>
   </g>
   <g id="matplotlib.axis_1">
    <g id="xtick_1">
     <g id="line2d_1">
      <defs>
       <path id="m870d329070" d="M 0 0 
L 0 3.5 
" style="stroke: #000000; stroke-width: 0.8"/>
      </defs>
      <g>
       <use xlink:href="#m870d329070" x="75.677109" y="139.811563" style="stroke: #000000; stroke-width: 0.8"/>
      </g>
     </g>
     <g id="text_1">
      <!-- 0 -->
      <g transform="translate(72.813984 153.650156) scale(0.09 -0.09)">
       <defs>
        <path id="DejaVuSans-30" d="M 2034 4250 
Q 1547 4250 1301 3770 
Q 1056 3291 1056 2328 
Q 1056 1369 1301 889 
Q 1547 409 2034 409 
Q 2525 409 2770 889 
Q 3016 1369 3016 2328 
Q 3016 3291 2770 3770 
Q 2525 4250 2034 4250 
z
M 2034 4750 
Q 2819 4750 3233 4129 
Q 3647 3509 3647 2328 
Q 3647 1150 3233 529 
Q 2819 -91 2034 -91 
Q 1250 -91 836 529 
Q 422 1150 422 2328 
Q 422 3509 836 4129 
Q 1250 4750 2034 4750 
z
" transform="scale(0.015625)"/>
       </defs>
       <use xlink:href="#DejaVuSans-30"/>
      </g>
     </g>
    </g>
    <g id="xtick_2">
     <g id="line2d_2">
      <g>
       <use xlink:href="#m870d329070" x="134.592934" y="139.811563" style="stroke: #000000; stroke-width: 0.8"/>
      </g>
     </g>
     <g id="text_2">
      <!-- 2 -->
      <g transform="translate(131.729809 153.650156) scale(0.09 -0.09)">
       <defs>
        <path id="DejaVuSans-32" d="M 1228 531 
L 3431 531 
L 3431 0 
L 469 0 
L 469 531 
Q 828 903 1448 1529 
Q 2069 2156 2228 2338 
Q 2531 2678 2651 2914 
Q 2772 3150 2772 3378 
Q 2772 3750 2511 3984 
Q 2250 4219 1831 4219 
Q 1534 4219 1204 4116 
Q 875 4013 500 3803 
L 500 4441 
Q 881 4594 1212 4672 
Q 1544 4750 1819 4750 
Q 2544 4750 2975 4387 
Q 3406 4025 3406 3419 
Q 3406 3131 3298 2873 
Q 3191 2616 2906 2266 
Q 2828 2175 2409 1742 
Q 1991 1309 1228 531 
z
" transform="scale(0.015625)"/>
       </defs>
       <use xlink:href="#DejaVuSans-32"/>
      </g>
     </g>
    </g>
    <g id="xtick_3">
     <g id="line2d_3">
      <g>
       <use xlink:href="#m870d329070" x="193.508759" y="139.811563" style="stroke: #000000; stroke-width: 0.8"/>
      </g>
     </g>
     <g id="text_3">
      <!-- 4 -->
      <g transform="translate(190.645634 153.650156) scale(0.09 -0.09)">
       <defs>
        <path id="DejaVuSans-34" d="M 2419 4116 
L 825 1625 
L 2419 1625 
L 2419 4116 
z
M 2253 4666 
L 3047 4666 
L 3047 1625 
L 3713 1625 
L 3713 1100 
L 3047 1100 
L 3047 0 
L 2419 0 
L 2419 1100 
L 313 1100 
L 313 1709 
L 2253 4666 
z
" transform="scale(0.015625)"/>
       </defs>
       <use xlink:href="#DejaVuSans-34"/>
      </g>
     </g>
    </g>
    <g id="xtick_4">
     <g id="line2d_4">
      <g>
       <use xlink:href="#m870d329070" x="252.424584" y="139.811563" style="stroke: #000000; stroke-width: 0.8"/>
      </g>
     </g>
     <g id="text_4">
      <!-- 6 -->
      <g transform="translate(249.561459 153.650156) scale(0.09 -0.09)">
       <defs>
        <path id="DejaVuSans-36" d="M 2113 2584 
Q 1688 2584 1439 2293 
Q 1191 2003 1191 1497 
Q 1191 994 1439 701 
Q 1688 409 2113 409 
Q 2538 409 2786 701 
Q 3034 994 3034 1497 
Q 3034 2003 2786 2293 
Q 2538 2584 2113 2584 
z
M 3366 4563 
L 3366 3988 
Q 3128 4100 2886 4159 
Q 2644 4219 2406 4219 
Q 1781 4219 1451 3797 
Q 1122 3375 1075 2522 
Q 1259 2794 1537 2939 
Q 1816 3084 2150 3084 
Q 2853 3084 3261 2657 
Q 3669 2231 3669 1497 
Q 3669 778 3244 343 
Q 2819 -91 2113 -91 
Q 1303 -91 875 529 
Q 447 1150 447 2328 
Q 447 3434 972 4092 
Q 1497 4750 2381 4750 
Q 2619 4750 2861 4703 
Q 3103 4656 3366 4563 
z
" transform="scale(0.015625)"/>
       </defs>
       <use xlink:href="#DejaVuSans-36"/>
      </g>
     </g>
    </g>
    <g id="xtick_5">
     <g id="line2d_5">
      <g>
       <use xlink:href="#m870d329070" x="311.340409" y="139.811563" style="stroke: #000000; stroke-width: 0.8"/>
      </g>
     </g>
     <g id="text_5">
      <!-- 8 -->
      <g transform="translate(308.477284 153.650156) scale(0.09 -0.09)">
       <defs>
        <path id="DejaVuSans-38" d="M 2034 2216 
Q 1584 2216 1326 1975 
Q 1069 1734 1069 1313 
Q 1069 891 1326 650 
Q 1584 409 2034 409 
Q 2484 409 2743 651 
Q 3003 894 3003 1313 
Q 3003 1734 2745 1975 
Q 2488 2216 2034 2216 
z
M 1403 2484 
Q 997 2584 770 2862 
Q 544 3141 544 3541 
Q 544 4100 942 4425 
Q 1341 4750 2034 4750 
Q 2731 4750 3128 4425 
Q 3525 4100 3525 3541 
Q 3525 3141 3298 2862 
Q 3072 2584 2669 2484 
Q 3125 2378 3379 2068 
Q 3634 1759 3634 1313 
Q 3634 634 3220 271 
Q 2806 -91 2034 -91 
Q 1263 -91 848 271 
Q 434 634 434 1313 
Q 434 1759 690 2068 
Q 947 2378 1403 2484 
z
M 1172 3481 
Q 1172 3119 1398 2916 
Q 1625 2713 2034 2713 
Q 2441 2713 2670 2916 
Q 2900 3119 2900 3481 
Q 2900 3844 2670 4047 
Q 2441 4250 2034 4250 
Q 1625 4250 1398 4047 
Q 1172 3844 1172 3481 
z
" transform="scale(0.015625)"/>
       </defs>
       <use xlink:href="#DejaVuSans-38"/>
      </g>
     </g>
    </g>
    <g id="xtick_6">
     <g id="line2d_6">
      <g>
       <use xlink:href="#m870d329070" x="370.256235" y="139.811563" style="stroke: #000000; stroke-width: 0.8"/>
      </g>
     </g>
     <g id="text_6">
      <!-- 10 -->
      <g transform="translate(364.529985 153.650156) scale(0.09 -0.09)">
       <defs>
        <path id="DejaVuSans-31" d="M 794 531 
L 1825 531 
L 1825 4091 
L 703 3866 
L 703 4441 
L 1819 4666 
L 2450 4666 
L 2450 531 
L 3481 531 
L 3481 0 
L 794 0 
L 794 531 
z
" transform="scale(0.015625)"/>
       </defs>
       <use xlink:href="#DejaVuSans-31"/>
       <use xlink:href="#DejaVuSans-30" transform="translate(63.623047 0)"/>
      </g>
     </g>
    </g>
    <g id="text_7">
     <!-- Time [hr] -->
     <g transform="translate(208.691953 167.120313) scale(0.1 -0.1)">
      <defs>
       <path id="DejaVuSans-54" d="M -19 4666 
L 3928 4666 
L 3928 4134 
L 2272 4134 
L 2272 0 
L 1638 0 
L 1638 4134 
L -19 4134 
L -19 4666 
z
" transform="scale(0.015625)"/>
       <path id="DejaVuSans-69" d="M 603 3500 
L 1178 3500 
L 1178 0 
L 603 0 
L 603 3500 
z
M 603 4863 
L 1178 4863 
L 1178 4134 
L 603 4134 
L 603 4863 
z
" transform="scale(0.015625)"/>
       <path id="DejaVuSans-6d" d="M 3328 2828 
Q 3544 3216 3844 3400 
Q 4144 3584 4550 3584 
Q 5097 3584 5394 3201 
Q 5691 2819 5691 2113 
L 5691 0 
L 5113 0 
L 5113 2094 
Q 5113 2597 4934 2840 
Q 4756 3084 4391 3084 
Q 3944 3084 3684 2787 
Q 3425 2491 3425 1978 
L 3425 0 
L 2847 0 
L 2847 2094 
Q 2847 2600 2669 2842 
Q 2491 3084 2119 3084 
Q 1678 3084 1418 2786 
Q 1159 2488 1159 1978 
L 1159 0 
L 581 0 
L 581 3500 
L 1159 3500 
L 1159 2956 
Q 1356 3278 1631 3431 
Q 1906 3584 2284 3584 
Q 2666 3584 2933 3390 
Q 3200 3197 3328 2828 
z
" transform="scale(0.015625)"/>
       <path id="DejaVuSans-65" d="M 3597 1894 
L 3597 1613 
L 953 1613 
Q 991 1019 1311 708 
Q 1631 397 2203 397 
Q 2534 397 2845 478 
Q 3156 559 3463 722 
L 3463 178 
Q 3153 47 2828 -22 
Q 2503 -91 2169 -91 
Q 1331 -91 842 396 
Q 353 884 353 1716 
Q 353 2575 817 3079 
Q 1281 3584 2069 3584 
Q 2775 3584 3186 3129 
Q 3597 2675 3597 1894 
z
M 3022 2063 
Q 3016 2534 2758 2815 
Q 2500 3097 2075 3097 
Q 1594 3097 1305 2825 
Q 1016 2553 972 2059 
L 3022 2063 
z
" transform="scale(0.015625)"/>
       <path id="DejaVuSans-20" transform="scale(0.015625)"/>
       <path id="DejaVuSans-5b" d="M 550 4863 
L 1875 4863 
L 1875 4416 
L 1125 4416 
L 1125 -397 
L 1875 -397 
L 1875 -844 
L 550 -844 
L 550 4863 
z
" transform="scale(0.015625)"/>
       <path id="DejaVuSans-68" d="M 3513 2113 
L 3513 0 
L 2938 0 
L 2938 2094 
Q 2938 2591 2744 2837 
Q 2550 3084 2163 3084 
Q 1697 3084 1428 2787 
Q 1159 2491 1159 1978 
L 1159 0 
L 581 0 
L 581 4863 
L 1159 4863 
L 1159 2956 
Q 1366 3272 1645 3428 
Q 1925 3584 2291 3584 
Q 2894 3584 3203 3211 
Q 3513 2838 3513 2113 
z
" transform="scale(0.015625)"/>
       <path id="DejaVuSans-72" d="M 2631 2963 
Q 2534 3019 2420 3045 
Q 2306 3072 2169 3072 
Q 1681 3072 1420 2755 
Q 1159 2438 1159 1844 
L 1159 0 
L 581 0 
L 581 3500 
L 1159 3500 
L 1159 2956 
Q 1341 3275 1631 3429 
Q 1922 3584 2338 3584 
Q 2397 3584 2469 3576 
Q 2541 3569 2628 3553 
L 2631 2963 
z
" transform="scale(0.015625)"/>
       <path id="DejaVuSans-5d" d="M 1947 4863 
L 1947 -844 
L 622 -844 
L 622 -397 
L 1369 -397 
L 1369 4416 
L 622 4416 
L 622 4863 
L 1947 4863 
z
" transform="scale(0.015625)"/>
      </defs>
      <use xlink:href="#DejaVuSans-54"/>
      <use xlink:href="#DejaVuSans-69" transform="translate(57.958984 0)"/>
      <use xlink:href="#DejaVuSans-6d" transform="translate(85.742188 0)"/>
      <use xlink:href="#DejaVuSans-65" transform="translate(183.154297 0)"/>
      <use xlink:href="#DejaVuSans-20" transform="translate(244.677734 0)"/>
      <use xlink:href="#DejaVuSans-5b" transform="translate(276.464844 0)"/>
      <use xlink:href="#DejaVuSans-68" transform="translate(315.478516 0)"/>
      <use xlink:href="#DejaVuSans-72" transform="translate(378.857422 0)"/>
      <use xlink:href="#DejaVuSans-5d" transform="translate(419.970703 0)"/>
     </g>
    </g>
   </g>
   <g id="matplotlib.axis_2">
    <g id="ytick_1">
     <g id="line2d_7">
      <defs>
       <path id="m60847ae8ba" d="M 0 0 
L -3.5 0 
" style="stroke: #000000; stroke-width: 0.8"/>
      </defs>
      <g>
       <use xlink:href="#m60847ae8ba" x="60.080781" y="133.950676" style="stroke: #000000; stroke-width: 0.8"/>
      </g>
     </g>
     <g id="text_8">
      <!-- −1.00 -->
      <g transform="translate(25.5 137.369973) scale(0.09 -0.09)">
       <defs>
        <path id="DejaVuSans-2212" d="M 678 2272 
L 4684 2272 
L 4684 1741 
L 678 1741 
L 678 2272 
z
" transform="scale(0.015625)"/>
        <path id="DejaVuSans-2e" d="M 684 794 
L 1344 794 
L 1344 0 
L 684 0 
L 684 794 
z
" transform="scale(0.015625)"/>
       </defs>
       <use xlink:href="#DejaVuSans-2212"/>
       <use xlink:href="#DejaVuSans-31" transform="translate(83.789062 0)"/>
       <use xlink:href="#DejaVuSans-2e" transform="translate(147.412109 0)"/>
       <use xlink:href="#DejaVuSans-30" transform="translate(179.199219 0)"/>
       <use xlink:href="#DejaVuSans-30" transform="translate(242.822266 0)"/>
      </g>
     </g>
    </g>
    <g id="ytick_2">
     <g id="line2d_8">
      <g>
       <use xlink:href="#m60847ae8ba" x="60.080781" y="113.956562" style="stroke: #000000; stroke-width: 0.8"/>
      </g>
     </g>
     <g id="text_9">
      <!-- −0.75 -->
      <g transform="translate(25.5 117.375859) scale(0.09 -0.09)">
       <defs>
        <path id="DejaVuSans-37" d="M 525 4666 
L 3525 4666 
L 3525 4397 
L 1831 0 
L 1172 0 
L 2766 4134 
L 525 4134 
L 525 4666 
z
" transform="scale(0.015625)"/>
        <path id="DejaVuSans-35" d="M 691 4666 
L 3169 4666 
L 3169 4134 
L 1269 4134 
L 1269 2991 
Q 1406 3038 1543 3061 
Q 1681 3084 1819 3084 
Q 2600 3084 3056 2656 
Q 3513 2228 3513 1497 
Q 3513 744 3044 326 
Q 2575 -91 1722 -91 
Q 1428 -91 1123 -41 
Q 819 9 494 109 
L 494 744 
Q 775 591 1075 516 
Q 1375 441 1709 441 
Q 2250 441 2565 725 
Q 2881 1009 2881 1497 
Q 2881 1984 2565 2268 
Q 2250 2553 1709 2553 
Q 1456 2553 1204 2497 
Q 953 2441 691 2322 
L 691 4666 
z
" transform="scale(0.015625)"/>
       </defs>
       <use xlink:href="#DejaVuSans-2212"/>
       <use xlink:href="#DejaVuSans-30" transform="translate(83.789062 0)"/>
       <use xlink:href="#DejaVuSans-2e" transform="translate(147.412109 0)"/>
       <use xlink:href="#DejaVuSans-37" transform="translate(179.199219 0)"/>
       <use xlink:href="#DejaVuSans-35" transform="translate(242.822266 0)"/>
      </g>
     </g>
    </g>
    <g id="ytick_3">
     <g id="line2d_9">
      <g>
       <use xlink:href="#m60847ae8ba" x="60.080781" y="93.962448" style="stroke: #000000; stroke-width: 0.8"/>
      </g>
     </g>
     <g id="text_10">
      <!-- −0.50 -->
      <g transform="translate(25.5 97.381745) scale(0.09 -0.09)">
       <use xlink:href="#DejaVuSans-2212"/>
       <use xlink:href="#DejaVuSans-30" transform="translate(83.789062 0)"/>
       <use xlink:href="#DejaVuSans-2e" transform="translate(147.412109 0)"/>
       <use xlink:href="#DejaVuSans-35" transform="translate(179.199219 0)"/>
       <use xlink:href="#DejaVuSans-30" transform="translate(242.822266 0)"/>
      </g>
     </g>
    </g>
    <g id="ytick_4">
     <g id="line2d_10">
      <g>
       <use xlink:href="#m60847ae8ba" x="60.080781" y="73.968334" style="stroke: #000000; stroke-width: 0.8"/>
      </g>
     </g>
     <g id="text_11">
      <!-- −0.25 -->
      <g transform="translate(25.5 77.387631) scale(0.09 -0.09)">
       <use xlink:href="#DejaVuSans-2212"/>
       <use xlink:href="#DejaVuSans-30" transform="translate(83.789062 0)"/>
       <use xlink:href="#DejaVuSans-2e" transform="translate(147.412109 0)"/>
       <use xlink:href="#DejaVuSans-32" transform="translate(179.199219 0)"/>
       <use xlink:href="#DejaVuSans-35" transform="translate(242.822266 0)"/>
      </g>
     </g>
    </g>
    <g id="ytick_5">
     <g id="line2d_11">
      <g>
       <use xlink:href="#m60847ae8ba" x="60.080781" y="53.97422" style="stroke: #000000; stroke-width: 0.8"/>
      </g>
     </g>
     <g id="text_12">
      <!-- 0.00 -->
      <g transform="translate(33.041719 57.393517) scale(0.09 -0.09)">
       <use xlink:href="#DejaVuSans-30"/>
       <use xlink:href="#DejaVuSans-2e" transform="translate(63.623047 0)"/>
       <use xlink:href="#DejaVuSans-30" transform="translate(95.410156 0)"/>
       <use xlink:href="#DejaVuSans-30" transform="translate(159.033203 0)"/>
      </g>
     </g>
    </g>
    <g id="ytick_6">
     <g id="line2d_12">
      <g>
       <use xlink:href="#m60847ae8ba" x="60.080781" y="33.980107" style="stroke: #000000; stroke-width: 0.8"/>
      </g>
     </g>
     <g id="text_13">
      <!-- 0.25 -->
      <g transform="translate(33.041719 37.399403) scale(0.09 -0.09)">
       <use xlink:href="#DejaVuSans-30"/>
       <use xlink:href="#DejaVuSans-2e" transform="translate(63.623047 0)"/>
       <use xlink:href="#DejaVuSans-32" transform="translate(95.410156 0)"/>
       <use xlink:href="#DejaVuSans-35" transform="translate(159.033203 0)"/>
      </g>
     </g>
    </g>
    <g id="ytick_7">
     <g id="line2d_13">
      <g>
       <use xlink:href="#m60847ae8ba" x="60.080781" y="13.985993" style="stroke: #000000; stroke-width: 0.8"/>
      </g>
     </g>
     <g id="text_14">
      <!-- 0.50 -->
      <g transform="translate(33.041719 17.40529) scale(0.09 -0.09)">
       <use xlink:href="#DejaVuSans-30"/>
       <use xlink:href="#DejaVuSans-2e" transform="translate(63.623047 0)"/>
       <use xlink:href="#DejaVuSans-35" transform="translate(95.410156 0)"/>
       <use xlink:href="#DejaVuSans-30" transform="translate(159.033203 0)"/>
      </g>
     </g>
    </g>
    <g id="text_15">
     <!-- $(\rho_{stoch} / \rho_{exp}) - 1$ [-] -->
     <g transform="translate(18.4 120.091812) rotate(-90) scale(0.1 -0.1)">
      <defs>
       <path id="DejaVuSans-28" d="M 1984 4856 
Q 1566 4138 1362 3434 
Q 1159 2731 1159 2009 
Q 1159 1288 1364 580 
Q 1569 -128 1984 -844 
L 1484 -844 
Q 1016 -109 783 600 
Q 550 1309 550 2009 
Q 550 2706 781 3412 
Q 1013 4119 1484 4856 
L 1984 4856 
z
" transform="scale(0.015625)"/>
       <path id="DejaVuSans-Oblique-3c1" d="M 1203 2875 
Q 1453 3194 1981 3475 
Q 2188 3584 2756 3584 
Q 3394 3584 3694 3078 
Q 3994 2572 3834 1747 
Q 3672 922 3175 415 
Q 2678 -91 2041 -91 
Q 1656 -91 1409 63 
Q 1163 213 1044 525 
L 681 -1331 
L 103 -1331 
L 697 1716 
Q 838 2438 1203 2875 
z
M 3238 1747 
Q 3359 2381 3169 2744 
Q 2978 3103 2522 3103 
Q 2066 3103 1734 2744 
Q 1403 2381 1281 1747 
Q 1156 1113 1347 750 
Q 1538 391 1994 391 
Q 2450 391 2781 750 
Q 3113 1113 3238 1747 
z
" transform="scale(0.015625)"/>
       <path id="DejaVuSans-Oblique-73" d="M 3200 3397 
L 3091 2853 
Q 2863 2978 2609 3040 
Q 2356 3103 2088 3103 
Q 1634 3103 1373 2948 
Q 1113 2794 1113 2528 
Q 1113 2219 1719 2053 
Q 1766 2041 1788 2034 
L 1972 1978 
Q 2547 1819 2739 1644 
Q 2931 1469 2931 1166 
Q 2931 609 2489 259 
Q 2047 -91 1331 -91 
Q 1053 -91 747 -37 
Q 441 16 72 128 
L 184 722 
Q 500 559 806 475 
Q 1113 391 1394 391 
Q 1816 391 2080 572 
Q 2344 753 2344 1031 
Q 2344 1331 1650 1516 
L 1591 1531 
L 1394 1581 
Q 956 1697 753 1886 
Q 550 2075 550 2369 
Q 550 2928 970 3256 
Q 1391 3584 2113 3584 
Q 2397 3584 2667 3537 
Q 2938 3491 3200 3397 
z
" transform="scale(0.015625)"/>
       <path id="DejaVuSans-Oblique-74" d="M 2706 3500 
L 2619 3053 
L 1472 3053 
L 1100 1153 
Q 1081 1047 1072 975 
Q 1063 903 1063 863 
Q 1063 663 1183 572 
Q 1303 481 1569 481 
L 2150 481 
L 2053 0 
L 1503 0 
Q 991 0 739 200 
Q 488 400 488 806 
Q 488 878 497 964 
Q 506 1050 525 1153 
L 897 3053 
L 409 3053 
L 500 3500 
L 978 3500 
L 1172 4494 
L 1747 4494 
L 1556 3500 
L 2706 3500 
z
" transform="scale(0.015625)"/>
       <path id="DejaVuSans-Oblique-6f" d="M 1625 -91 
Q 1009 -91 651 289 
Q 294 669 294 1325 
Q 294 1706 417 2101 
Q 541 2497 738 2766 
Q 1047 3184 1428 3384 
Q 1809 3584 2291 3584 
Q 2888 3584 3255 3212 
Q 3622 2841 3622 2241 
Q 3622 1825 3500 1412 
Q 3378 1000 3181 728 
Q 2875 309 2494 109 
Q 2113 -91 1625 -91 
z
M 891 1344 
Q 891 869 1089 633 
Q 1288 397 1691 397 
Q 2269 397 2648 901 
Q 3028 1406 3028 2181 
Q 3028 2634 2825 2865 
Q 2622 3097 2228 3097 
Q 1903 3097 1650 2945 
Q 1397 2794 1197 2484 
Q 1050 2253 970 1956 
Q 891 1659 891 1344 
z
" transform="scale(0.015625)"/>
       <path id="DejaVuSans-Oblique-63" d="M 3431 3366 
L 3316 2797 
Q 3109 2947 2876 3022 
Q 2644 3097 2394 3097 
Q 2119 3097 1870 3000 
Q 1622 2903 1453 2725 
Q 1184 2453 1037 2087 
Q 891 1722 891 1331 
Q 891 859 1127 628 
Q 1363 397 1844 397 
Q 2081 397 2348 469 
Q 2616 541 2906 684 
L 2797 116 
Q 2547 13 2283 -39 
Q 2019 -91 1741 -91 
Q 1044 -91 669 257 
Q 294 606 294 1253 
Q 294 1797 489 2255 
Q 684 2713 1069 3078 
Q 1331 3328 1684 3456 
Q 2038 3584 2456 3584 
Q 2700 3584 2940 3529 
Q 3181 3475 3431 3366 
z
" transform="scale(0.015625)"/>
       <path id="DejaVuSans-Oblique-68" d="M 3566 2113 
L 3156 0 
L 2578 0 
L 2988 2091 
Q 3016 2238 3031 2350 
Q 3047 2463 3047 2528 
Q 3047 2791 2881 2937 
Q 2716 3084 2419 3084 
Q 1956 3084 1617 2771 
Q 1278 2459 1178 1941 
L 800 0 
L 225 0 
L 1172 4863 
L 1747 4863 
L 1375 2950 
Q 1594 3244 1934 3414 
Q 2275 3584 2650 3584 
Q 3113 3584 3367 3334 
Q 3622 3084 3622 2631 
Q 3622 2519 3608 2391 
Q 3594 2263 3566 2113 
z
" transform="scale(0.015625)"/>
       <path id="DejaVuSans-2f" d="M 1625 4666 
L 2156 4666 
L 531 -594 
L 0 -594 
L 1625 4666 
z
" transform="scale(0.015625)"/>
       <path id="DejaVuSans-Oblique-65" d="M 3078 2063 
Q 3088 2113 3092 2166 
Q 3097 2219 3097 2272 
Q 3097 2653 2873 2875 
Q 2650 3097 2266 3097 
Q 1838 3097 1509 2826 
Q 1181 2556 1013 2059 
L 3078 2063 
z
M 3578 1613 
L 903 1613 
Q 884 1494 878 1425 
Q 872 1356 872 1306 
Q 872 872 1139 634 
Q 1406 397 1894 397 
Q 2269 397 2603 481 
Q 2938 566 3225 728 
L 3116 159 
Q 2806 34 2476 -28 
Q 2147 -91 1806 -91 
Q 1078 -91 686 257 
Q 294 606 294 1247 
Q 294 1794 489 2264 
Q 684 2734 1063 3103 
Q 1306 3334 1642 3459 
Q 1978 3584 2356 3584 
Q 2950 3584 3301 3228 
Q 3653 2872 3653 2272 
Q 3653 2128 3634 1964 
Q 3616 1800 3578 1613 
z
" transform="scale(0.015625)"/>
       <path id="DejaVuSans-Oblique-78" d="M 3841 3500 
L 2234 1784 
L 3219 0 
L 2559 0 
L 1819 1388 
L 531 0 
L -166 0 
L 1556 1844 
L 641 3500 
L 1300 3500 
L 1972 2234 
L 3144 3500 
L 3841 3500 
z
" transform="scale(0.015625)"/>
       <path id="DejaVuSans-Oblique-70" d="M 3175 2156 
Q 3175 2616 2975 2859 
Q 2775 3103 2400 3103 
Q 2144 3103 1911 2972 
Q 1678 2841 1497 2591 
Q 1319 2344 1212 1994 
Q 1106 1644 1106 1300 
Q 1106 863 1306 627 
Q 1506 391 1875 391 
Q 2147 391 2380 519 
Q 2613 647 2778 891 
Q 2956 1147 3065 1494 
Q 3175 1841 3175 2156 
z
M 1394 2969 
Q 1625 3272 1939 3428 
Q 2253 3584 2638 3584 
Q 3175 3584 3472 3232 
Q 3769 2881 3769 2247 
Q 3769 1728 3584 1258 
Q 3400 788 3053 416 
Q 2822 169 2531 39 
Q 2241 -91 1919 -91 
Q 1547 -91 1294 64 
Q 1041 219 916 525 
L 556 -1331 
L -19 -1331 
L 922 3500 
L 1497 3500 
L 1394 2969 
z
" transform="scale(0.015625)"/>
       <path id="DejaVuSans-29" d="M 513 4856 
L 1013 4856 
Q 1481 4119 1714 3412 
Q 1947 2706 1947 2009 
Q 1947 1309 1714 600 
Q 1481 -109 1013 -844 
L 513 -844 
Q 928 -128 1133 580 
Q 1338 1288 1338 2009 
Q 1338 2731 1133 3434 
Q 928 4138 513 4856 
z
" transform="scale(0.015625)"/>
       <path id="DejaVuSans-2d" d="M 313 2009 
L 1997 2009 
L 1997 1497 
L 313 1497 
L 313 2009 
z
" transform="scale(0.015625)"/>
      </defs>
      <use xlink:href="#DejaVuSans-28" transform="translate(0 0.015625)"/>
      <use xlink:href="#DejaVuSans-Oblique-3c1" transform="translate(39.013672 0.015625)"/>
      <use xlink:href="#DejaVuSans-Oblique-73" transform="translate(102.490234 -16.390625) scale(0.7)"/>
      <use xlink:href="#DejaVuSans-Oblique-74" transform="translate(138.959961 -16.390625) scale(0.7)"/>
      <use xlink:href="#DejaVuSans-Oblique-6f" transform="translate(166.40625 -16.390625) scale(0.7)"/>
      <use xlink:href="#DejaVuSans-Oblique-63" transform="translate(209.233398 -16.390625) scale(0.7)"/>
      <use xlink:href="#DejaVuSans-Oblique-68" transform="translate(247.719727 -16.390625) scale(0.7)"/>
      <use xlink:href="#DejaVuSans-2f" transform="translate(294.819336 0.015625)"/>
      <use xlink:href="#DejaVuSans-Oblique-3c1" transform="translate(328.510742 0.015625)"/>
      <use xlink:href="#DejaVuSans-Oblique-65" transform="translate(391.987305 -16.390625) scale(0.7)"/>
      <use xlink:href="#DejaVuSans-Oblique-78" transform="translate(435.053711 -16.390625) scale(0.7)"/>
      <use xlink:href="#DejaVuSans-Oblique-70" transform="translate(476.479492 -16.390625) scale(0.7)"/>
      <use xlink:href="#DejaVuSans-29" transform="translate(523.647461 0.015625)"/>
      <use xlink:href="#DejaVuSans-2212" transform="translate(582.143555 0.015625)"/>
      <use xlink:href="#DejaVuSans-31" transform="translate(685.415039 0.015625)"/>
      <use xlink:href="#DejaVuSans-20" transform="translate(749.038086 0.015625)"/>
      <use xlink:href="#DejaVuSans-5b" transform="translate(780.825195 0.015625)"/>
      <use xlink:href="#DejaVuSans-2d" transform="translate(819.838867 0.015625)"/>
      <use xlink:href="#DejaVuSans-5d" transform="translate(855.922852 0.015625)"/>
     </g>
    </g>
   </g>
   <g id="line2d_14">
    <path d="M 75.677109 133.950676 
L 75.758937 51.392992 
L 75.840764 59.538055 
L 76.00442 71.468665 
L 76.249902 55.921138 
L 76.413557 55.155707 
L 76.495385 59.985434 
L 76.740867 36.815768 
L 76.822695 38.561514 
L 76.98635 29.016368 
L 77.068177 36.157776 
L 77.231833 18.87405 
L 77.31366 21.75 
L 77.395488 24.371624 
L 77.559143 18.53262 
L 77.64097 16.732947 
L 77.804625 38.162206 
L 77.886453 36.349911 
L 77.96828 24.82968 
L 78.050108 32.341424 
L 78.131935 26.338114 
L 78.213763 29.010647 
L 78.377418 20.360376 
L 78.459246 31.249941 
L 78.541073 24.886754 
L 78.704728 41.955151 
L 78.950211 52.265112 
L 79.032038 47.482612 
L 79.113866 47.828831 
L 79.195693 53.306708 
L 79.277521 48.432166 
L 79.359348 53.8567 
L 79.441176 45.951096 
L 79.768486 70.3168 
L 79.932141 55.404887 
L 80.095796 54.727789 
L 80.177624 62.578039 
L 80.341279 50.281737 
L 80.586761 68.979372 
L 80.668589 64.442428 
L 80.914072 76.723202 
L 80.995899 74.940369 
L 81.159554 56.265403 
L 81.405037 63.105491 
L 81.486864 62.527081 
L 81.568692 56.837912 
L 81.650519 61.51925 
L 81.896002 47.011871 
L 82.059657 52.916373 
L 82.141485 48.077381 
L 82.386967 68.957716 
L 82.550622 61.701406 
L 82.63245 60.790962 
L 82.714277 68.10498 
L 82.796105 66.628261 
L 82.95976 56.631478 
L 83.041588 69.475024 
L 83.123415 63.172036 
L 83.205243 67.293332 
L 83.368898 52.89538 
L 83.450725 57.925542 
L 83.532553 57.805732 
L 83.696208 57.597023 
L 83.859863 44.838738 
L 83.94169 45.419945 
L 84.023518 54.093318 
L 84.105345 53.856115 
L 84.187173 58.801379 
L 84.350828 45.1198 
L 84.432656 53.819709 
L 84.514483 53.606819 
L 84.596311 53.41278 
L 84.759966 66.379406 
L 84.841793 60.350959 
L 84.923621 64.721897 
L 85.005448 64.001418 
L 85.169103 50.161719 
L 85.250931 50.272542 
L 85.332758 63.677972 
L 85.414586 63.049925 
L 85.496414 70.620533 
L 85.578241 69.378543 
L 85.660069 68.246412 
L 85.741896 62.053265 
L 85.823724 69.255573 
L 85.905551 67.677956 
L 85.987379 66.239883 
L 86.069206 70.09011 
L 86.151034 63.734096 
L 86.232861 67.805942 
L 86.314689 66.813058 
L 86.396516 60.74697 
L 86.478344 68.06478 
L 86.723827 49.118624 
L 86.887482 49.507648 
L 86.969309 49.676787 
L 87.132964 55.132469 
L 87.214792 55.26063 
L 87.296619 42.074082 
L 87.378447 42.900742 
L 87.623929 44.967488 
L 87.705757 50.69913 
L 87.787585 46.058747 
L 87.869412 46.533144 
L 88.114895 60.302167 
L 88.196722 54.812692 
L 88.360377 66.822674 
L 88.524032 52.509246 
L 88.60586 57.573973 
L 88.769515 41.842785 
L 89.014998 45.418728 
L 89.178653 39.164791 
L 89.26048 40.705599 
L 89.342308 36.949687 
L 89.424135 38.230065 
L 89.505963 39.397231 
L 89.669618 46.591498 
L 89.751445 39.333806 
L 89.833273 40.859798 
L 89.996928 50.940633 
L 90.078755 54.421578 
L 90.160583 54.15696 
L 90.406066 75.824075 
L 90.569721 64.278636 
L 90.733376 62.10665 
L 90.815203 66.322741 
L 90.897031 65.462115 
L 90.978858 64.677616 
L 91.142513 70.732118 
L 91.224341 64.321447 
L 91.306169 68.341688 
L 91.387996 67.302603 
L 91.469824 61.19531 
L 91.551651 73.633373 
L 91.633479 66.966256 
L 91.797134 77.641671 
L 91.878961 70.620146 
L 91.960789 74.083371 
L 92.042616 72.536615 
L 92.124444 79.267882 
L 92.206271 77.262647 
L 92.288099 75.434761 
L 92.451754 87.812032 
L 92.615409 82.534586 
L 92.697237 75.080567 
L 92.779064 78.149347 
L 92.860892 76.243119 
L 93.024547 60.340505 
L 93.106374 59.552942 
L 93.188202 72.135969 
L 93.351857 64.348879 
L 93.433684 63.206865 
L 93.597339 73.797801 
L 93.842822 57.701066 
L 93.92465 65.287931 
L 94.006477 61.08184 
L 94.088305 47.384393 
L 94.170132 47.742721 
L 94.415615 48.638567 
L 94.497442 40.745145 
L 94.57927 41.690652 
L 94.661097 42.552546 
L 94.824753 59.616138 
L 94.90658 58.892788 
L 94.988408 55.252365 
L 95.070235 55.371241 
L 95.23389 55.578393 
L 95.315718 63.809231 
L 95.479373 57.430209 
L 95.724855 55.976656 
L 95.88851 39.647673 
L 95.970338 45.850004 
L 96.052166 41.640687 
L 96.133993 42.507044 
L 96.297648 36.59588 
L 96.379476 37.908379 
L 96.624958 41.189598 
L 96.788613 48.081659 
L 96.870441 35.534285 
L 96.952268 36.940662 
L 97.115923 60.112494 
L 97.279579 46.937682 
L 97.443234 52.858003 
L 97.606889 37.928531 
L 97.770544 48.505155 
L 97.852371 44.061019 
L 97.934199 44.713301 
L 98.016026 58.60832 
L 98.097854 58.430404 
L 98.179681 58.268218 
L 98.261509 52.960659 
L 98.343337 66.126321 
L 98.506992 51.214821 
L 98.588819 56.394136 
L 98.670647 51.252275 
L 98.752474 51.268547 
L 98.834302 59.424124 
L 98.916129 58.717709 
L 98.997957 55.09273 
L 99.079784 41.925145 
L 99.161612 42.766223 
L 99.243439 43.532914 
L 99.407094 58.169403 
L 99.488922 52.870446 
L 99.57075 66.044105 
L 99.652577 60.048729 
L 99.734405 64.44677 
L 99.816232 63.7524 
L 99.89806 63.119428 
L 99.979887 57.38264 
L 100.061715 62.016437 
L 100.143542 61.536956 
L 100.307197 55.541617 
L 100.389025 55.178393 
L 100.470852 60.007097 
L 100.634507 38.708389 
L 100.798163 48.280571 
L 100.87999 53.719253 
L 100.961818 40.672608 
L 101.043645 41.624218 
L 101.125473 39.510555 
L 101.2073 41.021221 
L 101.289128 37.238395 
L 101.370955 38.493658 
L 101.452783 39.637901 
L 101.698265 50.639485 
L 101.86192 55.933394 
L 101.943748 55.991618 
L 102.025576 47.903566 
L 102.107403 51.653033 
L 102.189231 48.652256 
L 102.352886 34.431922 
L 102.516541 45.599042 
L 102.598368 33.269835 
L 102.762023 44.481034 
L 102.843851 42.114349 
L 102.925678 43.394482 
L 103.252989 27.412122 
L 103.334816 34.696125 
L 103.416644 31.472082 
L 103.498471 38.397039 
L 103.580299 34.845664 
L 103.825781 50.792728 
L 103.907609 46.145062 
L 103.989436 54.753693 
L 104.071264 54.459547 
L 104.153091 51.210097 
L 104.234919 51.685635 
L 104.480402 52.874388 
L 104.562229 61.344274 
L 104.644057 47.621663 
L 104.971367 64.362416 
L 105.053194 63.218341 
L 105.135022 67.335759 
L 105.298677 60.358065 
L 105.380504 59.568036 
L 105.462332 64.008237 
L 105.625987 57.59287 
L 105.707815 62.207723 
L 105.789642 61.710397 
L 105.953297 55.68329 
L 106.035125 63.44844 
L 106.116952 62.384957 
L 106.280607 60.531758 
L 106.362435 64.886667 
L 106.52609 50.900304 
L 106.771573 63.609236 
L 106.935228 54.279046 
L 107.017055 54.48261 
L 107.098883 41.365336 
L 107.18071 42.254478 
L 107.262538 51.207198 
L 107.344365 48.244387 
L 107.426193 43.820838 
L 107.50802 44.492759 
L 107.589848 50.265954 
L 107.753503 38.75017 
L 107.835331 39.870431 
L 107.998986 54.405571 
L 108.080813 49.436927 
L 108.244468 70.497358 
L 108.326296 69.266411 
L 108.571778 58.046394 
L 108.817261 57.689967 
L 108.899088 52.430564 
L 108.980916 57.501703 
L 109.062744 44.116205 
L 109.226399 50.51094 
L 109.308226 45.886247 
L 109.390054 46.375089 
L 109.553709 60.530692 
L 109.799191 38.844496 
L 109.881019 45.117036 
L 109.962846 46.130199 
L 110.044674 41.892643 
L 110.126502 42.734493 
L 110.208329 48.663012 
L 110.290157 44.201386 
L 110.371984 44.839017 
L 110.617467 61.998997 
L 110.781122 52.786149 
L 110.862949 65.968861 
L 111.026604 56.237142 
L 111.190259 56.293633 
L 111.272087 43.013653 
L 111.353915 43.756121 
L 111.51757 53.193121 
L 111.599397 53.035341 
L 111.681225 58.05285 
L 111.763052 57.921724 
L 111.84488 52.640806 
L 111.926707 57.693194 
L 112.008535 57.593831 
L 112.254017 35.011843 
L 112.335845 31.756772 
L 112.82681 40.132436 
L 112.908638 46.29095 
L 112.990465 42.038256 
L 113.15412 51.765475 
L 113.235948 51.733677 
L 113.317775 65.009887 
L 113.48143 50.277432 
L 113.563258 55.53877 
L 113.726913 42.407244 
L 113.808741 48.364565 
L 113.890568 43.928277 
L 114.136051 53.885318 
L 114.217878 53.665925 
L 114.299706 66.7714 
L 114.463361 49.478726 
L 114.708843 65.388355 
L 114.790671 59.446403 
L 114.872499 63.896867 
L 114.954326 63.248508 
L 115.036154 62.657478 
L 115.117981 65.100895 
L 115.199809 63.889556 
L 115.363464 54.355001 
L 115.445291 59.255707 
L 115.527119 59.017731 
L 115.772601 37.693162 
L 115.936256 47.43451 
L 116.099912 56.249319 
L 116.345394 55.073747 
L 116.509049 75.182851 
L 116.590877 73.536297 
L 116.672704 72.035349 
L 116.836359 76.843796 
L 116.918187 75.050337 
L 117.000014 73.415477 
L 117.081842 66.763317 
L 117.163669 70.56669 
L 117.245497 64.166445 
L 117.327325 68.19947 
L 117.49098 61.070519 
L 117.572807 60.215435 
L 117.900117 43.174162 
L 117.981945 43.901725 
L 118.063772 44.564944 
L 118.1456 37.025307 
L 118.309255 52.04144 
L 118.391083 47.279398 
L 118.47291 47.643912 
L 118.554738 53.138117 
L 118.636565 48.279086 
L 118.718393 48.555194 
L 118.882048 49.03632 
L 118.963875 54.407397 
L 119.045703 46.45382 
L 119.12753 55.492079 
L 119.209358 50.424879 
L 119.291185 50.511235 
L 119.618496 70.140149 
L 119.863978 54.261405 
L 119.945806 59.170426 
L 120.027633 58.939887 
L 120.109461 45.423592 
L 120.191288 51.114197 
L 120.273116 46.434203 
L 120.354943 46.873519 
L 120.436771 52.435909 
L 120.518598 39.494841 
L 120.600426 40.54786 
L 120.764081 26.814622 
L 120.845909 28.989047 
L 120.927736 27.988901 
L 121.009564 25.354087 
L 121.091391 27.657703 
L 121.173219 26.775329 
L 121.336874 39.235165 
L 121.418701 40.767725 
L 121.664184 51.366509 
L 121.746011 51.826258 
L 121.827839 47.083502 
L 121.909667 60.771507 
L 122.073322 47.474782 
L 122.236977 53.30085 
L 122.318804 53.589602 
L 122.400632 56.835059 
L 122.564287 68.502623 
L 122.727942 45.755211 
L 122.973424 47.125518 
L 123.218907 33.972646 
L 123.300735 32.53219 
L 123.546217 38.361745 
L 123.628045 31.827983 
L 123.709872 34.015931 
L 123.873527 37.828499 
L 123.955355 47.62964 
L 124.037182 35.114746 
L 124.11901 41.717277 
L 124.282665 36.08431 
L 124.44632 46.970952 
L 124.528148 47.819861 
L 124.609975 40.450025 
L 124.691803 41.875658 
L 124.77363 38.013664 
L 124.855458 39.198333 
L 125.10094 54.744993 
L 125.264595 55.053782 
L 125.346423 41.883026 
L 125.428251 47.8871 
L 125.510078 43.49373 
L 125.591906 49.355371 
L 125.919216 25.349548 
L 126.246526 48.983265 
L 126.573836 40.585367 
L 126.819319 44.463622 
L 126.901146 37.39167 
L 127.146629 56.954304 
L 127.310284 44.306451 
L 127.473939 50.669556 
L 127.555766 51.192063 
L 127.637594 46.507273 
L 127.719421 46.941502 
L 127.801249 52.498428 
L 127.883077 47.698212 
L 127.964904 48.027182 
L 128.128559 61.904285 
L 128.210387 56.272378 
L 128.292214 61.004142 
L 128.374042 60.612885 
L 128.619524 59.634868 
L 128.865007 45.590772 
L 128.946835 59.409796 
L 129.028662 59.159701 
L 129.192317 53.563146 
L 129.274145 58.534586 
L 129.4378 53.04387 
L 129.601455 65.352848 
L 129.683282 64.577322 
L 129.846937 42.500811 
L 129.928765 43.289944 
L 130.010592 49.169979 
L 130.174248 34.859186 
L 130.256075 36.780595 
L 130.337903 38.532101 
L 130.41973 34.968134 
L 130.501558 49.726268 
L 130.583385 45.172384 
L 130.665213 37.5834 
L 130.74704 43.968169 
L 130.828868 39.923627 
L 130.910695 46.101445 
L 130.992523 38.886848 
L 131.156178 44.140675 
L 131.238005 44.785131 
L 131.319833 37.23076 
L 131.483488 44.791327 
L 131.728971 32.745695 
L 131.810798 34.854404 
L 131.974453 25.226942 
L 132.056281 27.544304 
L 132.383591 56.011583 
L 132.465418 55.606522 
L 132.629074 68.202408 
L 132.710901 67.175616 
L 132.792729 66.23965 
L 132.956384 59.448651 
L 133.038211 58.739759 
L 133.283694 69.549033 
L 133.529176 53.105624 
L 133.611004 52.957819 
L 133.692832 57.983102 
L 133.774659 57.860304 
L 134.020142 37.487514 
L 134.183797 39.845491 
L 134.347452 26.24283 
L 134.429279 28.470874 
L 134.674762 54.106503 
L 134.756589 41.025985 
L 134.920245 63.507678 
L 135.002072 62.896537 
L 135.0839 62.339458 
L 135.247555 56.209022 
L 135.329382 60.946853 
L 135.41121 60.562252 
L 135.574865 67.312923 
L 135.656692 66.365362 
L 135.73852 65.501614 
L 135.820347 51.413899 
L 135.984002 56.577858 
L 136.06583 51.420081 
L 136.147658 51.421811 
L 136.311313 56.584484 
L 136.474968 64.007687 
L 136.556795 58.19296 
L 136.802278 71.460084 
L 136.884105 74.849197 
L 136.965933 68.075771 
L 137.211416 76.621266 
L 137.293243 74.850707 
L 137.375071 68.077222 
L 137.620553 76.622383 
L 137.702381 69.692268 
L 137.784208 81.378093 
L 137.866036 79.186902 
L 138.029691 70.209271 
L 138.193346 67.036598 
L 138.275173 70.816909 
L 138.438829 63.254293 
L 138.520656 67.369093 
L 138.602484 61.257397 
L 138.684311 65.548793 
L 138.847966 51.456404 
L 139.011621 64.75366 
L 139.093449 64.03271 
L 139.175276 50.075841 
L 139.257104 50.19666 
L 139.338931 50.306795 
L 139.502586 55.658117 
L 139.584414 50.582131 
L 139.666242 50.658176 
L 139.748069 50.727496 
L 139.911724 56.007685 
L 139.993552 50.900786 
L 140.157207 64.291907 
L 140.402689 54.286422 
L 140.484517 54.49113 
L 140.566344 62.817971 
L 140.648172 62.268185 
L 140.893655 60.893708 
L 140.975482 63.494917 
L 141.05731 75.728632 
L 141.139137 68.877655 
L 141.220965 72.49509 
L 141.38462 62.387775 
L 141.466447 61.875983 
L 141.548275 69.549719 
L 141.630102 68.40455 
L 141.875585 50.63713 
L 142.03924 51.645147 
L 142.202895 59.903162 
L 142.284723 46.311235 
L 142.36655 54.90514 
L 142.448378 54.598703 
L 142.530205 59.47883 
L 142.69386 50.851678 
L 142.775688 51.359947 
L 142.857515 38.523379 
L 143.02117 45.86629 
L 143.102998 46.8154 
L 143.184826 42.521049 
L 143.348481 49.188107 
L 143.430308 36.543426 
L 143.593963 44.220943 
L 143.675791 45.315487 
L 143.757618 41.153661 
L 143.839446 42.063147 
L 143.921273 48.05177 
L 144.003101 43.647909 
L 144.084928 57.636914 
L 144.166756 57.544964 
L 144.248584 65.601696 
L 144.330411 51.505176 
L 144.494066 72.214558 
L 144.657721 64.414702 
L 144.739549 68.426638 
L 144.985031 52.25693 
L 145.066859 57.343999 
L 145.148686 52.11809 
L 145.230514 60.19844 
L 145.312341 59.423475 
L 145.475997 58.073037 
L 145.557824 70.78652 
L 145.639652 64.371695 
L 145.721479 68.387365 
L 145.803307 62.184653 
L 145.966962 81.088863 
L 146.048789 78.92265 
L 146.130617 79.929066 
L 146.212444 77.409072 
L 146.376099 85.598751 
L 146.457927 77.873756 
L 146.539754 80.695329 
L 146.70341 71.460831 
L 146.785237 74.849497 
L 147.03072 70.421297 
L 147.112547 77.339354 
L 147.276202 68.671825 
L 147.35803 72.307081 
L 147.848995 27.37396 
L 148.503615 81.610344 
L 148.585443 74.237207 
L 148.66727 77.380196 
L 148.912753 64.915367 
L 149.158236 85.223817 
L 149.240063 74.54946 
L 149.321891 81.102526 
L 149.403718 78.934312 
L 149.485546 76.957816 
L 149.649201 60.931408 
L 149.731028 65.250964 
L 149.812856 64.484432 
L 149.976511 57.988179 
L 150.058338 62.567983 
L 150.140166 48.736097 
L 150.221994 54.134071 
L 150.303821 49.189947 
L 150.385649 54.547773 
L 150.467476 46.585469 
L 150.712959 55.7753 
L 150.794786 55.846467 
L 150.958441 43.387538 
L 151.040269 44.097735 
L 151.122096 36.602798 
L 151.203924 37.912944 
L 151.285751 47.249568 
L 151.367579 39.475769 
L 151.531234 46.655192 
L 151.613062 42.371865 
L 151.694889 48.332537 
L 151.776717 43.900809 
L 151.858544 44.565408 
L 151.940372 53.313767 
L 152.022199 53.145914 
L 152.267682 73.452293 
L 152.349509 71.959864 
L 152.513165 56.775626 
L 152.758647 71.040696 
L 152.922302 57.318259 
L 153.00413 65.395309 
L 153.167785 58.742978 
L 153.249612 63.255805 
L 153.413267 48.822021 
L 153.495095 54.212168 
L 153.576922 49.259744 
L 153.65875 49.449995 
L 153.740578 62.92766 
L 153.822405 62.365615 
L 153.904233 61.853255 
L 153.98606 56.224952 
L 154.067888 60.960406 
L 154.149715 55.410998 
L 154.231543 68.361619 
L 154.31337 62.15764 
L 154.477025 72.925081 
L 154.558853 66.31745 
L 154.64068 70.160364 
L 154.722508 68.958521 
L 154.804335 62.701574 
L 154.886163 66.864236 
L 155.049818 59.962508 
L 155.622611 88.401437 
L 155.949921 73.386804 
L 156.031749 79.586561 
L 156.195404 72.560694 
L 156.359059 69.856934 
L 156.522714 55.024988 
L 156.604541 59.866427 
L 156.686369 59.574539 
L 156.768196 59.30845 
L 156.850024 67.209705 
L 157.177334 42.835255 
L 157.340989 32.570723 
L 157.504644 35.7542 
L 157.668299 53.967239 
L 157.750127 58.902197 
L 157.913782 53.345133 
L 157.995609 58.335102 
L 158.077437 53.016638 
L 158.241092 65.329328 
L 158.322919 59.39229 
L 158.404747 63.847481 
L 158.486575 63.203314 
L 158.568402 65.598365 
L 158.65023 64.342855 
L 158.732057 68.360244 
L 158.813885 62.15508 
L 158.97754 75.905237 
L 159.059367 73.738209 
L 159.141195 76.924724 
L 159.223022 69.962101 
L 159.30485 73.48255 
L 159.386677 71.986237 
L 159.468505 78.766478 
L 159.63216 69.850964 
L 159.877643 84.729528 
L 159.95947 77.076588 
L 160.041298 79.967864 
L 160.204953 76.011128 
L 160.368608 67.561261 
L 160.532263 64.829171 
L 160.61409 68.803538 
L 160.695918 54.414571 
L 160.777746 67.454305 
L 160.859573 66.49101 
L 161.023228 52.226302 
L 161.268711 45.258185 
L 161.432366 46.296362 
L 161.514193 51.90969 
L 161.596021 39.014645 
L 161.759676 46.270338 
L 161.841503 42.018409 
L 162.005159 48.766338 
L 162.086986 49.455724 
L 162.168814 44.922108 
L 162.250641 58.8014 
L 162.332469 58.603344 
L 162.414296 53.26077 
L 162.496124 58.258241 
L 162.659779 52.809461 
L 162.741606 57.846855 
L 162.823434 52.571212 
L 162.905261 57.629683 
L 163.068916 52.287224 
L 163.232572 44.713206 
L 163.314399 50.466626 
L 163.396227 45.843726 
L 163.723537 69.301282 
L 163.805364 67.718271 
L 163.969019 73.104185 
L 164.050847 71.184885 
L 164.132674 74.597301 
L 164.29633 58.962696 
L 164.378157 55.311739 
L 164.459985 55.422479 
L 164.541812 55.523436 
L 164.62364 50.453537 
L 164.787295 55.775888 
L 164.95095 35.179153 
L 165.032777 36.613934 
L 165.196432 51.699921 
L 165.27826 52.130199 
L 165.360087 39.216426 
L 165.523743 46.438606 
L 165.769225 48.89492 
L 165.93288 36.885978 
L 166.014708 38.170005 
L 166.178363 40.407488 
L 166.423845 56.380736 
L 166.505673 51.235555 
L 166.5875 51.250677 
L 166.751156 56.438785 
L 166.832983 56.450279 
L 166.914811 51.299094 
L 166.996638 64.614173 
L 167.078466 63.902712 
L 167.242121 54.519283 
L 167.323948 62.844377 
L 167.405776 62.289506 
L 167.487603 64.765827 
L 167.651258 78.074978 
L 167.814914 86.872271 
L 167.896741 84.192543 
L 167.978569 76.588308 
L 168.060396 87.666695 
L 168.142224 79.755278 
L 168.305879 87.548354 
L 168.387706 79.647496 
L 168.469534 82.311816 
L 168.633189 77.960606 
L 168.715016 70.907792 
L 168.796844 82.488413 
L 168.878671 75.035235 
L 168.960499 78.107489 
L 169.124154 69.305926 
L 169.369637 77.550716 
L 169.451464 70.534445 
L 169.533292 74.004782 
L 169.615119 67.302172 
L 169.696947 79.201492 
L 169.778774 72.039364 
L 169.942429 81.857066 
L 170.024257 79.621354 
L 170.106084 80.565231 
L 170.187912 91.291499 
L 170.26974 88.221484 
L 170.433395 77.710913 
L 170.515222 75.385568 
L 170.760705 82.156149 
L 170.842532 74.733146 
L 170.92436 77.83226 
L 171.088015 69.078429 
L 171.169842 75.659394 
L 171.25167 65.372969 
L 171.415325 71.156755 
L 171.497153 61.26866 
L 171.57898 65.55859 
L 171.660808 51.461187 
L 171.742635 56.61848 
L 171.824463 56.615225 
L 171.988118 56.60961 
L 172.069945 64.749665 
L 172.2336 58.208218 
L 172.642738 55.693632 
L 172.806393 44.568012 
L 172.888221 40.470065 
L 172.970048 41.438836 
L 173.051876 42.321953 
L 173.133703 48.287613 
L 173.215531 43.860856 
L 173.297358 44.529842 
L 173.461013 58.998248 
L 173.542841 53.624409 
L 173.624668 58.590546 
L 173.706496 45.110839 
L 173.788324 45.66941 
L 174.033806 47.065945 
L 174.279289 63.687571 
L 174.442944 54.193391 
L 174.524771 53.948916 
L 174.606599 58.886431 
L 174.770254 53.337859 
L 174.852082 58.329432 
L 174.933909 58.175632 
L 175.015737 49.893844 
L 175.097564 50.486109 
L 175.179392 45.865775 
L 175.343047 62.369686 
L 175.424874 66.562546 
L 175.670357 48.581459 
L 175.834012 65.498552 
L 175.915839 64.710964 
L 176.079495 63.33864 
L 176.161322 70.883406 
L 176.24315 69.619667 
L 176.406805 59.996402 
L 176.57046 51.280135 
L 176.652287 54.731323 
L 176.734115 54.439823 
L 176.815942 54.174121 
L 176.89777 59.091871 
L 176.979597 58.871109 
L 177.061425 58.669888 
L 177.22508 53.159428 
L 177.306908 53.007072 
L 177.388735 49.887111 
L 177.470563 50.480497 
L 177.55239 37.72069 
L 177.634218 38.93377 
L 177.8797 54.547195 
L 177.961528 41.427994 
L 178.125183 48.28006 
L 178.370665 30.952676 
L 178.452493 37.924161 
L 178.534321 26.27541 
L 178.616148 28.500896 
L 178.697976 43.829844 
L 178.861631 33.40839 
L 178.943458 40.162727 
L 179.025286 36.456838 
L 179.188941 44.149568 
L 179.270768 45.250732 
L 179.434423 39.029128 
L 179.516251 40.583177 
L 179.761734 31.168496 
L 179.843561 32.961501 
L 179.925389 39.755409 
L 180.007216 27.94557 
L 180.252699 45.56832 
L 180.334526 41.384813 
L 180.498181 55.665062 
L 180.580009 55.748065 
L 180.661836 50.664389 
L 180.989147 71.625602 
L 181.152802 53.525998 
L 181.234629 53.79827 
L 181.398284 54.27274 
L 181.480112 49.319759 
L 181.643767 54.838457 
L 181.807422 55.137182 
L 181.889249 50.10785 
L 182.052905 55.493377 
L 182.134732 50.432599 
L 182.298387 58.743952 
L 182.54387 42.070643 
L 182.789352 71.827501 
L 182.953007 56.675407 
L 183.116663 63.931438 
L 183.19849 62.827456 
L 183.280318 66.980184 
L 183.362145 66.062836 
L 183.443973 65.22662 
L 183.5258 59.305305 
L 183.607628 63.769517 
L 183.689455 54.996452 
L 183.771283 55.138921 
L 183.85311 55.268795 
L 183.934938 50.228155 
L 184.016765 50.336085 
L 184.18042 55.683182 
L 184.344076 55.83947 
L 184.425903 50.748404 
L 184.507731 55.969346 
L 184.753213 43.545426 
L 184.835041 52.383964 
L 184.916868 52.301268 
L 184.998696 52.225887 
L 185.162351 64.673271 
L 185.326006 63.309808 
L 185.489661 69.59658 
L 185.571489 68.447911 
L 185.735144 53.147791 
L 185.898799 65.439279 
L 186.062454 63.94629 
L 186.144281 58.138312 
L 186.226109 65.686269 
L 186.471591 55.469519 
L 186.553419 55.113904 
L 186.717074 67.792792 
L 186.798902 66.80359 
L 186.880729 65.901863 
L 187.044384 56.910798 
L 187.208039 51.700407 
L 187.289867 56.837061 
L 187.371694 48.677064 
L 187.453522 57.517929 
L 187.535349 57.437324 
L 187.617177 57.36384 
L 187.699004 65.436489 
L 187.780832 51.356909 
L 187.86266 51.364879 
L 187.944487 56.531172 
L 188.026315 51.378739 
L 188.108142 59.52443 
L 188.18997 50.670386 
L 188.271797 58.878716 
L 188.353625 58.221443 
L 188.435452 57.622284 
L 188.51728 70.374899 
L 188.762762 54.456253 
L 188.84459 54.190009 
L 188.926417 59.106405 
L 189.008245 58.885153 
L 189.090073 58.683456 
L 189.253728 53.172824 
L 189.49921 66.052689 
L 189.662865 59.296152 
L 189.82652 57.968753 
L 189.990175 49.445612 
L 190.072003 54.781496 
L 190.153831 46.802569 
L 190.235658 47.669196 
L 190.399313 49.179272 
L 190.481141 44.676413 
L 190.562968 50.434021 
L 190.644796 37.680101 
L 190.726623 47.03718 
L 190.808451 39.286615 
L 190.972106 48.761606 
L 191.217588 42.647397 
L 191.299416 43.425025 
L 191.708554 65.739213 
L 191.872209 59.034673 
L 192.035864 65.891012 
L 192.117691 64.612961 
L 192.281346 75.68576 
L 192.445001 59.878965 
L 192.772312 82.776847 
L 193.017794 57.082642 
L 193.099622 56.583307 
L 193.181449 64.268717 
L 193.263277 63.133857 
L 193.345104 67.258997 
L 193.426932 61.156277 
L 193.590587 75.074424 
L 193.672414 72.98388 
L 193.754242 76.237921 
L 193.999725 71.473621 
L 194.081552 73.138765 
L 194.16338 63.07839 
L 194.245207 70.189432 
L 194.327035 68.530704 
L 194.408862 67.01864 
L 194.49069 70.800134 
L 194.572517 61.402653 
L 194.654345 69.118207 
L 194.899828 52.778962 
L 194.981655 52.659703 
L 195.063483 57.710943 
L 195.308965 41.876561 
L 195.390793 43.177645 
L 195.47262 44.363652 
L 195.554448 40.284688 
L 195.636275 46.430238 
L 195.718103 34.027111 
L 195.79993 40.726022 
L 196.127241 23.307325 
L 196.536378 50.001275 
L 196.618206 37.281731 
L 196.700033 38.532502 
L 196.781861 39.672646 
L 196.945516 54.241311 
L 197.109171 41.335424 
L 197.272826 48.201242 
L 197.354654 48.942581 
L 197.436481 44.457942 
L 197.518309 45.073915 
L 197.600136 45.635399 
L 197.681964 51.307654 
L 197.763791 46.613744 
L 197.845619 52.199473 
L 197.927446 39.284691 
L 198.091101 46.496971 
L 198.336584 28.218353 
L 198.582067 41.267753 
L 198.663894 42.165612 
L 198.745722 48.144666 
L 198.827549 43.730108 
L 198.909377 44.410169 
L 198.991204 50.19072 
L 199.073032 45.595146 
L 199.154859 46.110232 
L 199.318514 52.168428 
L 199.400342 47.397861 
L 199.482169 61.056489 
L 199.563997 52.518273 
L 199.645825 52.87743 
L 199.727652 48.044067 
L 199.80948 48.342475 
L 199.973135 54.023196 
L 200.054962 40.945994 
L 200.13679 41.872057 
L 200.218617 34.573758 
L 200.382272 42.581966 
L 200.4641 30.516372 
L 200.545927 32.36471 
L 200.627755 39.210438 
L 200.709582 35.585447 
L 200.79141 42.146353 
L 201.036893 32.3429 
L 201.11872 34.02965 
L 201.282375 52.533995 
L 201.364203 44.292498 
L 201.44603 44.922466 
L 201.527858 58.80033 
L 201.609685 45.300076 
L 201.691513 51.001874 
L 201.936996 33.004155 
L 202.018823 34.632349 
L 202.100651 41.27754 
L 202.182478 37.469494 
L 202.346133 60.553445 
L 202.427961 60.20173 
L 202.509788 54.720097 
L 202.673443 66.745109 
L 202.755271 65.845817 
L 202.918926 59.117728 
L 203.082581 57.815559 
L 203.246236 49.310764 
L 203.328064 62.80074 
L 203.409891 62.25023 
L 203.573546 47.986994 
L 203.655374 48.290101 
L 203.737201 48.5664 
L 203.819029 53.979347 
L 203.900856 49.047849 
L 203.982684 54.418222 
L 204.064511 49.447903 
L 204.228166 54.941423 
L 204.391822 55.217649 
L 204.473649 50.176617 
L 204.555477 55.447177 
L 204.637304 42.242911 
L 204.882787 65.194154 
L 204.964614 59.270844 
L 205.046442 63.737166 
L 205.128269 57.942703 
L 205.210097 62.526483 
L 205.291924 62.000204 
L 205.45558 47.779095 
L 205.537407 53.261701 
L 205.619235 40.250698 
L 205.701062 46.399086 
L 205.78289 42.137933 
L 205.946545 48.867262 
L 206.028372 44.38785 
L 206.192027 50.736854 
L 206.273855 51.253231 
L 206.43751 38.849007 
L 206.601165 53.557197 
L 206.682993 48.663083 
L 206.846648 54.289428 
L 207.010303 54.676046 
L 207.255785 32.805025 
L 207.337613 26.764427 
L 207.41944 32.382722 
L 207.501268 25.923085 
L 207.583095 28.177588 
L 207.74675 44.689896 
L 207.828578 40.580141 
L 207.910406 41.538476 
L 208.074061 55.792138 
L 208.237716 43.341296 
L 208.401371 44.706557 
L 208.483198 58.603796 
L 208.565026 58.42469 
L 208.646853 61.243183 
L 208.728681 73.677963 
L 208.892336 57.483689 
L 208.974163 62.108238 
L 209.055991 56.45833 
L 209.219646 63.749007 
L 209.465129 60.758503 
L 209.710611 51.727338 
L 209.792439 56.861006 
L 209.874266 56.836212 
L 209.956094 43.510232 
L 210.119749 50.008284 
L 210.201577 50.589577 
L 210.283404 45.958656 
L 210.365232 46.441717 
L 210.447059 46.882073 
L 210.528887 52.444294 
L 210.692542 39.840641 
L 210.774369 40.864841 
L 210.856197 46.959233 
L 210.938024 34.507219 
L 211.019852 41.163874 
L 211.101679 37.366791 
L 211.183507 51.91287 
L 211.265334 47.165233 
L 211.510817 48.198001 
L 211.592645 45.501719 
L 211.674472 49.463401 
L 211.838127 42.372794 
L 212.001782 49.063646 
L 212.08361 49.728858 
L 212.165437 45.174691 
L 212.247265 50.88805 
L 212.329092 46.231429 
L 212.492747 55.251595 
L 212.574575 46.771323 
L 212.656403 55.32498 
L 212.73823 46.838298 
L 212.901885 52.774513 
L 212.983713 39.809437 
L 213.06554 40.83693 
L 213.147368 55.075817 
L 213.229195 50.049192 
L 213.39285 55.442747 
L 213.474678 55.544128 
L 213.638333 34.997125 
L 213.720161 41.61069 
L 213.883816 44.143028 
L 213.965643 31.941972 
L 214.211126 50.855593 
L 214.292953 50.906512 
L 214.374781 64.254639 
L 214.456608 63.576961 
L 214.620263 54.254735 
L 214.702091 54.461486 
L 214.783918 41.348474 
L 214.865746 42.240333 
L 215.029401 51.935773 
L 215.111229 51.891381 
L 215.193056 57.010983 
L 215.274884 43.672859 
L 215.520366 58.856604 
L 215.602194 58.656603 
L 215.684021 53.314356 
L 215.765849 58.30816 
L 215.929504 44.717755 
L 216.011331 50.471844 
L 216.093159 45.853619 
L 216.174987 51.507269 
L 216.256814 38.656606 
L 216.338642 47.927843 
L 216.420469 45.257182 
L 216.584124 26.452842 
L 216.665952 28.662531 
L 216.747779 30.676825 
L 216.829607 37.672739 
L 216.911434 34.186816 
L 217.238745 61.254833 
L 217.4024 72.89594 
L 217.72971 40.367181 
L 217.811537 54.646638 
L 217.893365 49.660013 
L 218.05702 49.961392 
L 218.138847 47.111548 
L 218.220675 47.950922 
L 218.302502 48.716083 
L 218.38433 52.394453 
L 218.466158 52.310403 
L 218.629813 52.164006 
L 218.71164 43.960201 
L 218.793468 44.622141 
L 218.875295 50.384908 
L 218.957123 45.775638 
L 219.03895 46.277087 
L 219.120778 51.893511 
L 219.202605 47.150926 
L 219.284433 47.530809 
L 219.36626 44.896364 
L 219.529915 49.136816 
L 219.693571 42.107375 
L 219.857226 56.265615 
L 219.939053 56.295824 
L 220.102708 35.629633 
L 220.184536 37.028649 
L 220.266363 51.602813 
L 220.348191 46.886398 
L 220.430018 60.58873 
L 220.675501 46.324766 
L 220.757329 46.778058 
L 220.839156 52.350279 
L 220.920984 47.567974 
L 221.084639 68.942638 
L 221.166466 67.851979 
L 221.330121 60.79262 
L 221.493776 74.772607 
L 221.575604 72.710207 
L 221.657431 84.128491 
L 221.739259 76.536074 
L 221.902914 80.43499 
L 221.984742 91.170053 
L 222.066569 88.113812 
L 222.148397 85.327866 
L 222.230224 90.927597 
L 222.393879 79.967681 
L 222.475707 82.604747 
L 222.721189 64.378575 
L 222.884844 70.332811 
L 222.966672 65.682799 
L 223.048499 73.019829 
L 223.130327 71.568856 
L 223.212155 70.246209 
L 223.293982 63.881849 
L 223.37581 67.941501 
L 223.457637 61.780988 
L 223.539465 66.026432 
L 223.621292 65.193969 
L 223.784947 63.743408 
L 223.866775 66.093263 
L 223.948602 78.096385 
L 224.112257 69.306058 
L 224.194085 72.886012 
L 224.521395 67.849346 
L 224.603223 61.697111 
L 224.848705 74.771247 
L 224.930533 72.709279 
L 225.01236 75.988256 
L 225.094188 69.116275 
L 225.176015 72.712997 
L 225.33967 64.832835 
L 225.421498 63.649776 
L 225.585153 54.169101 
L 225.748808 66.288054 
L 225.912463 59.494017 
L 225.994291 63.941666 
L 226.157946 49.405328 
L 226.403428 62.48017 
L 226.485256 48.66381 
L 226.567083 48.910626 
L 226.730739 61.918465 
L 226.812566 61.449294 
L 227.303531 78.814602 
L 227.467186 62.483569 
L 227.630841 60.619009 
L 227.712669 64.9671 
L 227.794496 59.069619 
L 228.039979 76.563463 
L 228.285462 56.822303 
L 228.367289 56.803663 
L 228.449117 64.92574 
L 228.776427 40.628673 
L 228.858254 42.042045 
L 228.940082 38.171715 
L 229.103737 45.575404 
L 229.185565 41.392558 
L 229.431047 51.971355 
L 229.512875 48.944897 
L 229.594702 49.622745 
L 229.67653 58.379865 
L 229.922012 37.889138 
L 230.085667 40.18163 
L 230.249323 54.664858 
L 230.33115 54.836771 
L 230.494805 62.555839 
L 230.65846 48.972022 
L 230.903943 49.572783 
L 230.98577 54.897569 
L 231.067598 41.75047 
L 231.149425 42.608102 
L 231.231253 43.389879 
L 231.640391 65.71821 
L 231.722218 64.912429 
L 231.804046 59.018922 
L 232.131356 83.559122 
L 232.295011 73.843667 
L 232.376838 71.862966 
L 232.540494 80.990425 
L 232.622321 73.674834 
L 232.704149 76.868075 
L 232.867804 60.863499 
L 232.949631 73.329454 
L 233.031459 71.850336 
L 233.113286 73.482687 
L 233.276941 67.496264 
L 233.358769 66.532923 
L 233.522424 56.714313 
L 233.604251 64.844338 
L 233.767907 58.29176 
L 233.849734 62.845286 
L 234.013389 48.490465 
L 234.095217 48.751445 
L 234.258872 54.365468 
L 234.340699 46.423 
L 234.422527 47.323008 
L 234.504354 48.143409 
L 234.586182 43.731882 
L 234.668009 49.572929 
L 234.831664 38.180983 
L 234.913492 44.5129 
L 235.158975 34.864228 
L 235.240802 41.48944 
L 235.32263 29.525747 
L 235.486285 38.389501 
L 235.568112 34.840218 
L 235.813595 46.286207 
L 235.895422 38.601281 
L 235.97725 39.73642 
L 236.30456 68.868777 
L 236.386388 62.623857 
L 236.468215 74.934741 
L 236.550043 68.153334 
L 236.63187 71.834616 
L 236.713698 70.486975 
L 236.795525 77.399169 
L 236.877353 70.399715 
L 236.95918 73.882321 
L 237.204663 50.344389 
L 237.531973 50.681677 
L 237.613801 42.607323 
L 237.695628 43.387854 
L 237.777456 44.099345 
L 237.941111 50.498931 
L 238.022938 45.877987 
L 238.104766 51.529073 
L 238.186593 38.676003 
L 238.268421 39.804097 
L 238.432076 57.331889 
L 238.513904 61.970054 
L 238.677559 55.900941 
L 238.759386 55.505694 
L 238.841214 60.305341 
L 238.923041 54.816928 
L 239.004869 59.677478 
L 239.086696 59.404529 
L 239.250351 53.768871 
L 239.332179 58.722092 
L 239.414006 58.533583 
L 239.495834 45.060465 
L 239.577661 45.62375 
L 239.659489 46.13721 
L 239.741317 38.463974 
L 239.823144 39.610578 
L 239.904972 45.815853 
L 239.986799 41.608529 
L 240.068627 50.618353 
L 240.150454 42.548714 
L 240.232282 56.635514 
L 240.395937 48.48629 
L 240.477764 52.184105 
L 240.559592 52.1173 
L 240.641419 52.056393 
L 240.723247 57.161024 
L 240.805075 43.808787 
L 240.886902 44.482607 
L 240.96873 45.096832 
L 241.132385 66.890294 
L 241.214212 60.819032 
L 241.29604 65.148739 
L 241.459695 58.541334 
L 241.541522 57.912231 
L 241.62335 62.498991 
L 241.787005 56.339435 
L 241.95066 68.090875 
L 242.114315 66.14622 
L 242.27797 57.108649 
L 242.359798 51.902227 
L 242.441625 57.020465 
L 242.523453 51.821819 
L 242.60528 56.947167 
L 242.768935 51.725921 
L 242.93259 51.675267 
L 243.178073 36.707761 
L 243.423556 40.277439 
L 243.587211 57.725572 
L 243.669038 62.328833 
L 243.750866 61.820997 
L 243.832693 56.1977 
L 243.914521 60.936079 
L 243.996348 55.39103 
L 244.078176 63.182147 
L 244.160003 62.142479 
L 244.241831 61.194752 
L 244.323659 52.189046 
L 244.405486 60.263337 
L 244.487314 59.481787 
L 244.569141 63.929742 
L 244.732796 57.527917 
L 244.896451 72.059939 
L 244.978279 70.23515 
L 245.141934 59.633629 
L 245.223761 64.068161 
L 245.305589 58.246078 
L 245.387416 70.94514 
L 245.469244 69.675296 
L 245.632899 62.302164 
L 245.714727 66.500709 
L 245.796554 65.623908 
L 245.878382 59.664239 
L 246.042037 70.853732 
L 246.123864 64.431564 
L 246.205692 68.4418 
L 246.287519 67.393343 
L 246.369347 66.437608 
L 246.451174 60.405985 
L 246.533002 72.914058 
L 246.696657 57.57163 
L 246.778485 62.188537 
L 247.023967 40.762129 
L 247.187622 47.725273 
L 247.433105 29.806825 
L 247.514932 36.879161 
L 247.59676 33.461633 
L 247.842243 50.400957 
L 247.92407 50.948043 
L 248.005898 46.286381 
L 248.087725 51.901371 
L 248.169553 47.155426 
L 248.25138 55.674961 
L 248.415035 47.535186 
L 248.496863 47.879413 
L 248.660518 53.639598 
L 248.742345 53.900359 
L 248.824173 48.977744 
L 248.906 54.354767 
L 248.987828 49.391998 
L 249.069656 49.572089 
L 249.233311 49.885932 
L 249.315138 55.182664 
L 249.478793 42.838556 
L 249.560621 48.75855 
L 249.642448 44.290835 
L 249.806103 58.799467 
L 249.887931 53.443829 
L 249.969758 66.5675 
L 250.133413 59.720621 
L 250.215241 58.98746 
L 250.297069 71.620838 
L 250.624379 51.405826 
L 250.951689 53.010962 
L 251.033516 48.167541 
L 251.278999 69.025824 
L 251.360827 62.766193 
L 251.442654 69.905195 
L 251.524482 68.27157 
L 251.606309 71.94248 
L 251.688137 70.585041 
L 251.769964 64.187634 
L 251.851792 76.360941 
L 252.015447 59.718068 
L 252.097274 64.145451 
L 252.179102 66.45881 
L 252.260929 65.130102 
L 252.506412 84.135505 
L 252.58824 81.24358 
L 252.751895 68.783328 
L 252.833722 80.550066 
L 252.997377 71.340613 
L 253.161032 67.9757 
L 253.24286 71.672858 
L 253.406515 63.964295 
L 253.57017 75.147196 
L 253.651997 60.205991 
L 253.733825 64.590304 
L 253.89748 47.677347 
L 253.979308 48.466217 
L 254.388445 29.75198 
L 254.470273 32.126221 
L 254.5521 29.130827 
L 254.633928 31.103744 
L 254.797583 41.962337 
L 254.87941 42.800529 
L 255.124893 59.801031 
L 255.206721 59.06169 
L 255.370376 50.352854 
L 255.452203 42.308673 
L 255.615858 56.432738 
L 255.697686 51.288168 
L 255.861341 64.614126 
L 255.943168 63.905576 
L 256.188651 48.834608 
L 256.352306 61.85548 
L 256.434134 61.391004 
L 256.597789 55.422336 
L 256.679616 60.229929 
L 256.843271 46.317569 
L 256.925099 46.77107 
L 257.006926 47.184484 
L 257.088754 44.580589 
L 257.170581 48.624787 
L 257.252409 40.734312 
L 257.334237 41.681685 
L 257.416064 47.704526 
L 257.497892 43.33255 
L 257.579719 52.190128 
L 257.661547 52.124458 
L 257.743374 43.924736 
L 257.825202 44.590078 
L 257.907029 58.495583 
L 257.988857 58.328604 
L 258.152512 52.878591 
L 258.56165 52.349042 
L 258.643477 57.42858 
L 258.725305 57.356132 
L 258.88896 52.070968 
L 258.970787 57.175121 
L 259.052615 57.125163 
L 259.21627 48.898686 
L 259.379925 50.202481 
L 259.54358 38.707492 
L 259.625408 44.99353 
L 259.707235 40.862203 
L 259.952718 62.772698 
L 260.1982 48.700561 
L 260.361855 49.166206 
L 260.52551 54.7119 
L 260.607338 49.721463 
L 260.852821 65.044369 
L 261.016476 52.347725 
L 261.098303 60.86412 
L 261.180131 60.488396 
L 261.343786 54.675189 
L 261.425613 54.390653 
L 261.507441 59.289828 
L 261.671096 53.679425 
L 261.752923 50.502714 
L 261.834751 54.023763 
L 261.998406 46.171218 
L 262.243889 62.355385 
L 262.325716 61.391826 
L 262.407544 65.671883 
L 262.489371 51.574245 
L 262.653026 64.851966 
L 262.816681 58.301862 
L 262.898509 62.85521 
L 262.980336 62.303749 
L 263.062164 56.642782 
L 263.143992 61.342863 
L 263.225819 55.766925 
L 263.307647 68.6829 
L 263.471302 61.485468 
L 263.634957 80.506285 
L 263.880439 62.792453 
L 264.044094 60.87722 
L 264.125922 65.202847 
L 264.207749 56.305699 
L 264.289577 59.313751 
L 264.371405 66.75775 
L 264.616887 56.286015 
L 264.698715 69.155852 
L 264.944197 57.977903 
L 265.026025 57.858053 
L 265.353335 38.137032 
L 265.435162 52.611806 
L 265.51699 47.808562 
L 265.598818 48.131969 
L 265.680645 40.288768 
L 265.762473 54.57321 
L 265.8443 49.596572 
L 265.926128 63.057845 
L 266.007955 62.48885 
L 266.089783 48.674264 
L 266.17161 48.921172 
L 266.335265 61.927622 
L 266.417093 61.458617 
L 266.49892 47.735262 
L 266.662576 61.661861 
L 266.744403 56.058479 
L 266.826231 63.790281 
L 266.908058 59.720482 
L 266.989886 67.584563 
L 267.071713 61.457443 
L 267.153541 65.731812 
L 267.317196 43.478449 
L 267.399023 44.184946 
L 267.480851 52.966774 
L 267.562678 49.854229 
L 267.644506 53.432969 
L 267.808161 45.682594 
L 267.889989 46.194195 
L 268.053644 67.799358 
L 268.217299 60.752588 
L 268.380954 71.758871 
L 268.462781 65.262734 
L 268.544609 69.200579 
L 268.626436 68.088501 
L 268.708264 67.074772 
L 268.871919 72.726386 
L 268.953746 66.144705 
L 269.035574 70.004542 
L 269.199229 62.585029 
L 269.362884 60.705651 
L 269.608367 44.285062 
L 269.690194 58.215747 
L 269.772022 52.917319 
L 269.853849 57.946908 
L 269.935677 44.534556 
L 270.017504 45.147683 
L 270.099332 50.864378 
L 270.590297 20.823528 
L 270.672125 23.533543 
L 271.081262 56.203232 
L 271.244917 55.402677 
L 271.326745 60.212466 
L 271.4904 54.448269 
L 271.572228 59.342456 
L 271.654055 53.944365 
L 271.735883 58.88311 
L 271.81771 58.68343 
L 271.981365 53.177677 
L 272.14502 45.470478 
L 272.226848 37.863082 
L 272.308675 44.223963 
L 272.390503 32.025121 
L 272.47233 33.744475 
L 272.635986 41.898281 
L 272.881468 26.132058 
L 273.045123 37.832995 
L 273.208778 32.719746 
L 273.290606 39.535481 
L 273.372433 35.888961 
L 273.536088 43.680241 
L 273.617916 44.824996 
L 273.699743 40.710691 
L 273.781571 46.819745 
L 273.863399 42.52903 
L 273.945226 43.319454 
L 274.190709 53.433243 
L 274.272536 58.417174 
L 274.354364 50.120894 
L 274.436191 50.696052 
L 274.518019 59.358105 
L 274.599846 59.116365 
L 274.681674 53.738164 
L 274.763501 58.695119 
L 274.845329 53.354162 
L 274.927157 58.345072 
L 275.008984 58.192903 
L 275.172639 52.769889 
L 275.254467 65.950247 
L 275.418122 59.215832 
L 275.499949 58.530495 
L 275.745432 71.71706 
L 275.827259 69.926157 
L 275.909087 76.431445 
L 275.990914 74.223612 
L 276.236397 65.724061 
L 276.318225 67.8992 
L 276.400052 79.741626 
L 276.48188 72.539251 
L 276.563707 75.833468 
L 276.80919 59.254128 
L 277.054672 76.703275 
L 277.1365 74.927422 
L 277.46381 48.547279 
L 277.627465 54.198241 
L 277.79112 54.607858 
L 277.872948 46.647872 
L 277.954775 47.529844 
L 278.527568 73.098075 
L 278.609396 68.204651 
L 278.691223 70.160248 
L 278.773051 68.506667 
L 278.854878 72.157395 
L 278.936706 65.625235 
L 279.018533 69.530769 
L 279.182188 54.771489 
L 279.264016 67.775078 
L 279.345843 61.630363 
L 279.427671 65.889157 
L 279.509498 65.069335 
L 279.591326 51.025555 
L 279.673154 51.063989 
L 279.754981 42.960703 
L 279.836809 48.870506 
L 279.918636 44.397455 
L 280.000464 45.021992 
L 280.164119 51.268449 
L 280.245946 38.44488 
L 280.327774 39.595785 
L 280.491429 46.759483 
L 280.573256 47.631239 
L 280.655084 43.267627 
L 280.736911 49.150265 
L 280.818739 44.652287 
L 280.900567 50.412472 
L 280.982394 45.80284 
L 281.064222 51.461273 
L 281.146049 46.758861 
L 281.227877 47.174427 
L 281.391532 53.056865 
L 281.637014 53.920078 
L 281.718842 49.000118 
L 281.800669 54.375786 
L 281.882497 49.415497 
L 281.964325 54.754427 
L 282.046152 41.62199 
L 282.12798 47.65013 
L 282.209807 35.14591 
L 282.291635 36.588352 
L 282.373462 37.903227 
L 282.45529 36.121551 
L 282.864427 43.71604 
L 282.946255 39.698297 
L 283.191738 55.127456 
L 283.355393 55.378868 
L 283.43722 50.329679 
L 283.519048 55.587763 
L 283.600875 42.381303 
L 283.76453 57.212633 
L 283.846358 57.159729 
L 284.010013 57.06753 
L 284.173668 44.413341 
L 284.255495 50.194634 
L 284.337323 42.623517 
L 284.419151 43.860778 
L 284.664633 53.716878 
L 284.746461 53.973094 
L 284.828288 62.345503 
L 284.910116 61.838645 
L 284.991943 56.21808 
L 285.073771 60.955429 
L 285.155598 60.571495 
L 285.237426 46.924109 
L 285.401081 63.248105 
L 285.482908 62.205214 
L 285.564736 66.413091 
L 285.646564 65.546497 
L 285.728391 64.756537 
L 285.892046 78.938034 
L 285.973874 76.963787 
L 286.055701 67.025231 
L 286.137529 69.084831 
L 286.219356 75.664649 
L 286.301184 73.523672 
L 286.464839 62.373823 
L 286.546666 66.566773 
L 286.710322 51.586669 
L 286.792149 56.733578 
L 286.955804 51.554675 
L 287.364942 51.517629 
L 287.528597 64.084759 
L 287.610424 58.265428 
L 287.855907 71.515609 
L 288.019562 68.124305 
L 288.183217 78.603857 
L 288.4287 57.712148 
L 288.674182 64.208658 
L 288.837837 62.924612 
L 289.08332 75.576132 
L 289.165148 68.740503 
L 289.246975 72.370407 
L 289.41063 57.128755 
L 289.656113 40.850361 
L 289.819768 35.22371 
L 289.901595 36.659066 
L 290.06525 39.16021 
L 290.147078 45.406076 
L 290.228906 33.099549 
L 290.310733 34.722783 
L 290.392561 41.361089 
L 290.556216 23.222656 
L 290.638043 30.878003 
L 290.719871 19.85635 
L 290.883526 30.356754 
L 290.965353 27.52023 
L 291.047181 34.795558 
L 291.129008 23.427561 
L 291.210836 31.064846 
L 291.292663 28.165769 
L 291.374491 30.225469 
L 291.456319 37.261599 
L 291.538146 33.814562 
L 291.619974 40.533301 
L 291.701801 36.796966 
L 291.783629 51.390847 
L 291.865456 38.55548 
L 291.947284 44.854976 
L 292.110939 33.545809 
L 292.356421 45.309175 
L 292.520076 51.507141 
L 292.683732 52.370947 
L 292.765559 47.588018 
L 292.929214 63.800057 
L 293.011042 54.569991 
L 293.092869 59.453303 
L 293.174697 59.202544 
L 293.338352 53.607258 
L 293.420179 58.575732 
L 293.502007 45.105695 
L 293.583834 53.80626 
L 293.665662 45.460261 
L 293.74749 45.990931 
L 293.829317 51.633001 
L 293.911145 46.915678 
L 293.992972 47.317687 
L 294.156627 60.59524 
L 294.320282 59.923246 
L 294.40211 54.472919 
L 294.483937 62.345071 
L 294.647592 53.086758 
L 294.811247 52.812291 
L 294.893075 57.851176 
L 294.974903 57.742448 
L 295.220385 29.993423 
L 295.465868 35.201116 
L 295.629523 43.108725 
L 295.793178 32.817109 
L 295.875005 34.466408 
L 295.956833 41.127871 
L 296.120488 31.171444 
L 296.284143 39.760547 
L 296.447798 30.035612 
L 296.529626 31.93111 
L 296.693281 40.391967 
L 296.856936 43.136648 
L 296.938763 39.171975 
L 297.020591 40.259634 
L 297.184246 47.312723 
L 297.347901 48.887708 
L 297.593384 60.507195 
L 297.675211 56.728394 
L 297.757039 59.69956 
L 297.838866 72.267083 
L 297.920694 65.726672 
L 298.002521 69.623766 
L 298.084349 68.474765 
L 298.248004 73.89034 
L 298.329831 67.206571 
L 298.411659 70.972814 
L 298.493487 64.547143 
L 298.575314 76.685758 
L 298.738969 57.741198 
L 298.902624 49.416954 
L 299.066279 50.637114 
L 299.148107 43.030567 
L 299.229934 44.233733 
L 299.311762 40.173217 
L 299.475417 55.378614 
L 299.557244 50.33259 
L 299.639072 50.434018 
L 299.802727 43.193651 
L 299.884555 43.926514 
L 299.966382 49.751749 
L 300.04821 42.224077 
L 300.130037 43.498838 
L 300.211865 39.503781 
L 300.37552 48.945769 
L 300.539175 49.374637 
L 300.621002 57.697572 
L 300.70283 54.168548 
L 300.866485 33.876265 
L 300.948313 35.433487 
L 301.03014 33.873616 
L 301.111968 27.750885 
L 301.275623 34.89495 
L 301.35745 36.36223 
L 301.439278 34.720426 
L 301.521105 23.366291 
L 301.602933 25.853243 
L 301.848415 32.070707 
L 301.930243 38.944686 
L 302.012071 35.353408 
L 302.093898 36.780423 
L 302.257553 51.840075 
L 302.339381 52.265143 
L 302.421208 47.496062 
L 302.503036 55.985099 
L 302.584863 55.587645 
L 302.666691 55.225369 
L 302.748518 51.916 
L 302.830346 39.042401 
L 302.912173 53.435509 
L 302.994001 40.427686 
L 303.075828 49.541813 
L 303.157656 46.735293 
L 303.239484 39.476646 
L 303.321311 40.995441 
L 303.403139 42.379945 
L 303.484966 38.485715 
L 303.566794 44.79253 
L 303.730449 26.090005 
L 303.812276 36.47212 
L 303.894104 29.665636 
L 303.975931 31.596349 
L 304.057759 33.356343 
L 304.139586 40.116866 
L 304.221414 33.444288 
L 304.303241 35.49693 
L 304.385069 32.211983 
L 304.548724 35.47258 
L 304.712379 50.753528 
L 304.794207 46.119556 
L 304.957862 52.185208 
L 305.039689 47.424766 
L 305.121517 47.78531 
L 305.285172 61.704122 
L 305.366999 61.257856 
L 305.448827 60.851082 
L 305.530655 55.324521 
L 305.612482 68.27685 
L 305.776137 53.742042 
L 305.857965 58.699839 
L 305.939792 45.229375 
L 306.02162 45.784366 
L 306.185275 46.751516 
L 306.267102 52.327578 
L 306.34893 47.555263 
L 306.430757 47.904684 
L 306.594412 53.669158 
L 306.758068 41.604979 
L 307.00355 56.576981 
L 307.085378 43.295272 
L 307.249033 49.83922 
L 307.33086 42.308964 
L 307.412688 51.712413 
L 307.494515 44.016596 
L 307.576343 45.135225 
L 307.65817 40.99965 
L 307.739998 47.084508 
L 307.985481 36.119625 
L 308.067308 42.636088 
L 308.149136 38.72177 
L 308.312791 53.453506 
L 308.558273 39.341198 
L 308.721928 29.701289 
L 308.803756 36.785435 
L 308.885583 33.388888 
L 308.967411 40.146924 
L 309.049239 28.319871 
L 309.131066 30.371229 
L 309.294721 54.647934 
L 309.376549 49.671893 
L 309.622031 70.821153 
L 309.703859 69.569795 
L 309.867514 62.234498 
L 309.949341 61.286704 
L 310.031169 73.71056 
L 310.194824 65.67542 
L 310.276652 64.423379 
L 310.440307 46.695173 
L 310.522134 47.121741 
L 310.685789 47.865081 
L 310.767617 61.475744 
L 310.849444 61.05107 
L 311.013099 44.764804 
L 311.094927 45.818037 
L 311.176754 54.910866 
L 311.340409 42.640927 
L 311.422237 48.5808 
L 311.504065 44.142021 
L 311.585892 49.949146 
L 311.749547 42.953603 
L 311.831375 44.167122 
L 312.158685 57.177011 
L 312.32234 56.220962 
L 312.404167 60.959876 
L 312.485995 60.581051 
L 312.567823 52.10327 
L 312.64965 52.507709 
L 312.813305 60.625704 
L 312.895133 55.122024 
L 313.140615 69.138986 
L 313.222443 75.713428 
L 313.30427 73.574077 
L 313.386098 76.778334 
L 313.467925 75.000642 
L 313.713408 58.644498 
L 313.795236 58.014661 
L 313.877063 54.462586 
L 313.958891 54.65841 
L 314.040718 54.836918 
L 314.122546 49.845259 
L 314.204373 49.993593 
L 314.286201 63.415492 
L 314.368028 62.819561 
L 314.695338 60.918254 
L 314.858993 46.914562 
L 314.940821 47.322052 
L 315.022649 47.693504 
L 315.104476 53.186474 
L 315.186304 48.340757 
L 315.431786 76.569696 
L 315.513614 69.656059 
L 315.595441 81.339054 
L 315.759096 72.015436 
L 315.840924 83.489775 
L 316.004579 73.802516 
L 316.086406 76.986471 
L 316.168234 75.190276 
L 316.250062 60.266144 
L 316.331889 67.625114 
L 316.413717 66.200916 
L 316.577372 63.719185 
L 316.659199 75.927219 
L 316.741027 60.937738 
L 316.822854 65.259318 
L 316.904682 59.345622 
L 316.986509 63.807986 
L 317.068337 49.890116 
L 317.150164 58.166652 
L 317.231992 57.578758 
L 317.31382 57.042838 
L 317.395647 61.708815 
L 317.477475 56.108941 
L 317.559302 68.990055 
L 317.722957 59.494418 
L 317.804785 59.244837 
L 317.886612 67.149939 
L 318.050267 52.810587 
L 318.132095 52.696165 
L 318.213922 65.879161 
L 318.29575 65.064859 
L 318.377577 64.32255 
L 318.541233 57.874343 
L 318.62306 62.466685 
L 318.704888 61.95407 
L 318.786715 53.353945 
L 318.868543 53.647163 
L 318.95037 53.914434 
L 319.032198 49.003314 
L 319.27768 62.899944 
L 319.441335 56.691725 
L 319.60499 68.384888 
L 319.686818 54.060815 
L 319.768646 58.990308 
L 319.850473 45.49692 
L 319.932301 46.028851 
L 320.014128 51.668617 
L 320.177783 39.944669 
L 320.259611 40.967535 
L 320.423266 56.038036 
L 320.505093 50.938578 
L 320.586921 50.989152 
L 320.750576 71.779571 
L 320.832404 57.154595 
L 320.914231 61.810424 
L 321.077886 48.371353 
L 321.241541 48.901737 
L 321.405196 62.630974 
L 321.487024 62.103246 
L 321.568851 56.467034 
L 321.650679 61.183619 
L 321.732506 60.783833 
L 321.896161 54.93196 
L 321.977989 59.784275 
L 322.141644 54.101236 
L 322.223472 59.026999 
L 322.305299 58.817811 
L 322.632609 71.725748 
L 322.878092 82.96457 
L 322.959919 75.483002 
L 323.123574 92.133313 
L 323.28723 80.98111 
L 323.369057 83.529701 
L 323.450885 75.997929 
L 323.532712 78.987176 
L 323.61454 77.012513 
L 323.94185 51.382731 
L 324.023677 64.682899 
L 324.105505 63.973065 
L 324.187332 55.191748 
L 324.26916 63.45546 
L 324.432815 57.150275 
L 324.841953 81.266905 
L 325.005608 56.400794 
L 325.169263 55.571856 
L 325.332918 75.588577 
L 325.414745 68.758157 
L 325.496573 72.387476 
L 325.578401 62.861267 
L 325.660228 65.29093 
L 325.742056 77.361559 
L 325.905711 68.704609 
L 325.987538 72.338623 
L 326.151193 57.11517 
L 326.233021 61.774049 
L 326.396676 40.201349 
L 326.478503 46.355955 
L 326.642158 48.095965 
L 326.723986 56.987328 
L 326.805814 51.80129 
L 326.969469 64.320809 
L 327.133124 57.867633 
L 327.214951 57.303784 
L 327.378606 48.905497 
L 327.460434 62.425537 
L 327.542261 48.623148 
L 327.624089 62.168191 
L 327.705916 61.679945 
L 327.787744 64.213875 
L 327.869572 63.088704 
L 328.115054 75.826898 
L 328.278709 71.712797 
L 328.360537 83.216067 
L 328.442364 75.710041 
L 328.524192 81.703509 
L 328.606019 79.031536 
L 328.687847 81.752197 
L 328.933329 63.746349 
L 329.015157 67.818716 
L 329.096985 66.830544 
L 329.26064 65.108604 
L 329.342467 56.2245 
L 329.424295 59.240736 
L 329.506122 63.711543 
L 329.58795 63.086526 
L 329.669777 57.360297 
L 329.751605 64.976548 
L 329.91526 55.280002 
L 330.078915 54.638785 
L 330.324398 73.926933 
L 330.733535 40.650719 
L 330.815363 41.608969 
L 330.89719 50.618253 
L 330.979018 42.559254 
L 331.142673 49.224982 
L 331.2245 49.881012 
L 331.551811 73.688778 
L 331.715466 65.650678 
L 331.879121 75.829186 
L 331.960948 68.975905 
L 332.124603 81.571501 
L 332.206431 84.067551 
L 332.288258 73.506499 
L 332.370086 80.151015 
L 332.451913 78.072124 
L 332.533741 84.312878 
L 332.697396 72.219082 
L 332.779224 70.841661 
L 333.106534 53.874222 
L 333.188361 53.663144 
L 333.270189 50.491539 
L 333.352016 51.035655 
L 333.433844 51.531665 
L 333.679326 37.875623 
L 333.842982 43.308346 
L 333.924809 44.031816 
L 334.006637 36.55563 
L 334.088464 43.032847 
L 334.170292 39.080262 
L 334.252119 40.177744 
L 334.415774 49.506331 
L 334.497602 41.546237 
L 334.579429 42.425738 
L 334.661257 40.248363 
L 334.743084 41.698713 
L 334.906739 31.653635 
L 334.988567 38.564555 
L 335.070395 26.872155 
L 335.152222 29.049643 
L 335.23405 31.034599 
L 335.56136 49.939891 
L 335.643187 50.533531 
L 335.725015 45.91851 
L 335.806842 51.568061 
L 335.88867 46.861668 
L 335.970497 60.562915 
L 336.052325 60.21725 
L 336.134153 51.767197 
L 336.21598 52.199499 
L 336.297808 55.572497 
L 336.379635 52.233495 
L 336.461463 39.333869 
L 336.54329 45.565925 
L 336.625118 41.390959 
L 336.8706 63.893555 
L 336.952428 58.097979 
L 337.116083 69.554213 
L 337.279738 62.218863 
L 337.525221 80.325497 
L 337.607048 78.232812 
L 337.770703 74.586425 
L 337.934358 66.401206 
L 338.098013 63.883867 
L 338.261668 75.081407 
L 338.425323 74.94688 
L 338.507151 64.740783 
L 338.588979 68.726218 
L 338.670806 54.371204 
L 338.752634 59.273765 
L 338.834461 45.754992 
L 338.916289 46.264548 
L 339.079944 47.152605 
L 339.161771 52.693685 
L 339.243599 47.890734 
L 339.325426 53.366575 
L 339.407254 48.504286 
L 339.570909 54.169117 
L 339.652737 54.390874 
L 339.734564 49.438351 
L 339.816392 54.77744 
L 339.898219 49.790911 
L 339.980047 49.944252 
L 340.061874 55.238661 
L 340.225529 42.195435 
L 340.307357 43.020776 
L 340.552839 53.216682 
L 340.634667 53.067528 
L 340.716494 49.953768 
L 340.88015 38.524911 
L 340.961977 39.675398 
L 341.043805 32.592355 
L 341.289287 49.098055 
L 341.452942 50.381734 
L 341.53477 45.786016 
L 341.698425 51.912511 
L 341.86208 39.436227 
L 341.943907 40.506963 
L 342.434873 70.866591 
L 342.5167 69.613733 
L 342.680355 62.277672 
L 342.84401 73.028436 
L 343.007665 57.704652 
L 343.171321 49.253843 
L 343.253148 57.587229 
L 343.334976 57.053803 
L 343.416803 56.567624 
L 343.498631 69.406798 
L 343.907768 39.226613 
L 343.989596 40.31764 
L 344.071423 46.464574 
L 344.153251 39.242248 
L 344.398734 50.235604 
L 344.480561 50.809035 
L 344.562389 59.460409 
L 344.644216 54.06613 
L 344.726044 58.997287 
L 344.807871 58.796074 
L 344.889699 58.612727 
L 345.053354 53.141739 
L 345.135181 58.154762 
L 345.217009 58.028412 
L 345.462491 44.4338 
L 345.626147 45.641806 
L 345.707974 51.318318 
L 345.789802 46.645872 
L 345.871629 52.233629 
L 345.953457 39.353288 
L 346.198939 49.728345 
L 346.362594 55.193416 
L 346.444422 55.330057 
L 346.689904 43.113643 
L 346.935387 60.70398 
L 347.017215 59.898266 
L 347.099042 64.314266 
L 347.18087 50.368614 
L 347.262697 50.477231 
L 347.344525 58.702066 
L 347.426352 58.073782 
L 347.50818 54.52567 
L 347.671835 65.283969 
L 347.917318 44.831884 
L 347.999145 45.886281 
L 348.244628 32.99148 
L 348.49011 38.756203 
L 348.571938 35.199083 
L 348.81742 51.080381 
L 348.899248 51.582965 
L 348.981075 43.917125 
L 349.144731 53.494713 
L 349.390213 41.734396 
L 349.472041 47.757579 
L 349.717523 36.671847 
L 349.963006 53.57037 
L 350.044833 48.705366 
L 350.126661 48.963838 
L 350.208488 49.199528 
L 350.290316 57.537085 
L 350.372144 57.014665 
L 350.453971 61.686659 
L 350.535799 61.252651 
L 350.617626 60.857098 
L 350.699454 55.348629 
L 350.781281 68.290165 
L 350.863109 62.124523 
L 350.944936 66.344686 
L 351.026764 65.499104 
L 351.108591 64.728374 
L 351.190419 50.756533 
L 351.272246 50.834607 
L 351.354074 50.905846 
L 351.435902 47.996902 
L 351.517729 48.774482 
L 351.681384 60.506468 
L 351.763212 67.843761 
L 351.845039 66.411057 
L 351.926867 70.252316 
L 352.008694 69.061906 
L 352.172349 51.464504 
L 352.254177 54.90961 
L 352.336004 67.888759 
L 352.499659 58.611169 
L 352.581487 58.450771 
L 352.745142 53.024749 
L 352.990625 52.692312 
L 353.15428 65.065315 
L 353.399762 43.048417 
L 353.48159 43.809963 
L 353.563417 57.769941 
L 353.645245 57.684696 
L 353.727072 60.580229 
L 353.8089 59.791444 
L 353.890728 72.337745 
L 353.972555 70.96429 
L 354.054383 69.712357 
L 354.13621 76.690197 
L 354.218038 74.931946 
L 354.46352 80.255912 
L 354.627175 83.541205 
L 354.709003 80.722228 
L 354.79083 83.298243 
L 354.872658 80.955885 
L 354.954486 81.793569 
L 355.036313 84.274848 
L 355.118141 76.700709 
L 355.199968 79.632411 
L 355.445451 54.088878 
L 355.527278 59.020402 
L 355.690933 53.502521 
L 355.854588 53.19312 
L 356.018243 65.481291 
L 356.263726 43.37203 
L 356.427381 49.920812 
L 356.509209 50.531026 
L 356.672864 30.932316 
L 356.754691 37.911965 
L 356.836519 34.439474 
L 357.000174 42.498777 
L 357.082001 43.765696 
L 357.245656 37.856247 
L 357.409312 41.063211 
L 357.572967 45.982679 
L 357.736622 46.946439 
L 357.818449 55.482288 
L 357.900277 55.146418 
L 357.982104 59.984806 
L 358.063932 54.561285 
L 358.145759 62.423642 
L 358.227587 53.357435 
L 358.309414 66.470636 
L 358.47307 51.580272 
L 358.554897 51.589818 
L 358.636725 56.742835 
L 358.80038 44.215419 
L 359.045862 46.028555 
L 359.209517 52.130087 
L 359.291345 47.402302 
L 359.373172 55.89774 
L 359.455 55.525944 
L 359.536827 60.331009 
L 359.618655 60.02212 
L 359.700483 54.596717 
L 359.78231 59.483999 
L 359.864138 59.250141 
L 360.10962 65.409298 
L 360.191448 64.651554 
L 360.273275 55.845463 
L 360.355103 55.93363 
L 360.43693 50.870442 
L 360.518758 59.059071 
L 360.76424 35.018588 
L 361.009723 59.066815 
L 361.255206 58.528513 
L 361.582516 37.353996 
L 361.664343 43.766594 
L 361.909826 34.400686 
L 361.991653 35.931622 
L 362.073481 42.470162 
L 362.155309 30.485279 
L 362.237136 32.362717 
L 362.318964 31.102937 
L 362.400791 33.38071 
L 362.482619 22.200455 
L 362.564446 24.810964 
L 362.728101 41.898768 
L 362.973584 45.528285 
L 363.055411 41.388473 
L 363.137239 47.444851 
L 363.219067 35.022554 
L 363.300894 41.642035 
L 363.382722 29.733411 
L 363.464549 36.820774 
L 363.873687 17.45779 
L 363.955514 20.489416 
L 364.200997 36.181041 
L 364.282824 37.557133 
L 364.44648 45.096645 
L 364.528307 40.997894 
L 364.610135 50.059957 
L 364.77379 34.839766 
L 364.937445 45.092463 
L 365.346582 34.568144 
L 365.510237 45.584915 
L 365.673893 39.236552 
L 365.75572 40.344621 
L 366.001203 51.224863 
L 366.08303 51.273097 
L 366.246685 63.888989 
L 366.328513 63.271965 
L 366.492168 57.057832 
L 366.737651 69.024879 
L 366.819478 54.707304 
L 367.064961 73.982009 
L 367.146788 59.227359 
L 367.228616 66.676851 
L 367.310443 57.253068 
L 367.392271 61.908484 
L 367.555926 55.928999 
L 367.637753 55.563566 
L 367.719581 60.368585 
L 367.801408 60.065102 
L 367.883236 59.788588 
L 368.128719 76.19061 
L 368.456029 87.903645 
L 368.619684 77.532965 
L 368.701511 80.395144 
L 368.783339 65.080106 
L 368.865166 69.043804 
L 369.028821 74.387491 
L 369.110649 67.709253 
L 369.274304 77.546885 
L 369.437959 61.543175 
L 369.519787 68.787342 
L 369.847097 49.297634 
L 369.928924 54.657737 
L 370.010752 46.759635 
L 370.092579 47.662965 
L 370.174407 56.588963 
L 370.256235 51.48779 
L 370.338062 51.519165 
L 370.583545 44.866294 
L 370.665372 50.618843 
L 370.7472 46.047118 
L 370.829027 46.560632 
L 370.910855 47.028881 
L 370.992682 52.59038 
L 371.07451 47.845251 
L 371.156337 48.20035 
L 371.319992 53.953675 
L 371.483648 54.468619 
L 371.565475 49.558902 
L 371.647303 57.863067 
L 371.72913 57.333203 
L 372.05644 74.889642 
L 372.138268 73.308424 
L 372.220095 79.965662 
L 372.38375 70.952796 
L 372.465578 74.399063 
L 372.629233 50.84951 
L 372.711061 50.94191 
L 372.792888 51.026314 
L 372.874716 43.006373 
L 373.038371 52.607108 
L 373.120198 52.544961 
L 373.202026 57.620065 
L 373.283853 52.437217 
L 373.365681 57.52199 
L 373.447508 44.252681 
L 373.611163 50.679544 
L 373.774819 51.756879 
L 373.938474 44.558309 
L 374.102129 46.672313 
L 374.183956 55.685405 
L 374.265784 50.677691 
L 374.347611 64.012508 
L 374.429439 58.268876 
L 374.593094 70.421798 
L 374.674921 69.241379 
L 374.756749 68.165586 
L 374.920404 73.667845 
L 375.247714 41.81296 
L 375.329542 42.711593 
L 375.411369 48.658757 
L 375.493197 44.278184 
L 375.575024 44.959544 
L 375.738679 59.36393 
L 375.902334 53.857052 
L 375.984162 53.692371 
L 376.065989 58.668936 
L 376.147817 58.532455 
L 376.311472 65.667516 
L 376.556955 55.511701 
L 376.638782 50.530999 
L 376.72061 55.788051 
L 376.802437 50.783854 
L 376.884265 58.979459 
L 376.966092 58.365054 
L 377.129747 46.965691 
L 377.211575 42.744496 
L 377.37523 49.441815 
L 377.457058 50.126286 
L 377.538885 45.627636 
L 377.620713 46.197213 
L 377.70254 51.839218 
L 377.784368 47.190713 
L 377.866195 47.623102 
L 377.948023 61.220233 
L 378.02985 60.864994 
L 378.193505 55.125971 
L 378.275333 68.058294 
L 378.35716 67.099413 
L 378.766298 63.441778 
L 378.848126 49.697805 
L 378.929953 63.108335 
L 379.011781 62.590315 
L 379.093608 62.118511 
L 379.339091 38.798062 
L 379.420918 40.433192 
L 379.502746 36.807186 
L 379.584573 51.356311 
L 379.748229 39.886865 
L 379.830056 46.09135 
L 379.993711 27.44723 
L 380.157366 38.992052 
L 380.239194 40.162778 
L 380.321021 46.344242 
L 380.402849 42.204259 
L 380.484676 43.092452 
L 380.566504 49.015346 
L 380.648331 44.641703 
L 380.730159 45.31597 
L 380.811986 42.977951 
L 380.975642 52.765787 
L 381.057469 53.175472 
L 381.139297 61.611895 
L 381.221124 61.239814 
L 381.302952 60.901246 
L 381.384779 52.532723 
L 381.466607 52.966015 
L 381.548434 48.253535 
L 381.630262 56.673693 
L 381.712089 56.290688 
L 381.793917 47.885051 
L 381.957572 61.804942 
L 382.0394 56.316542 
L 382.121227 64.023007 
L 382.203055 62.993596 
L 382.36671 61.202081 
L 382.530365 75.105973 
L 382.69402 71.270293 
L 382.775847 74.705502 
L 382.857675 68.086273 
L 382.939502 79.850872 
L 383.184985 66.398745 
L 383.266813 65.61905 
L 383.512295 51.246917 
L 383.67595 64.601474 
L 383.839605 55.386361 
L 383.921433 63.625253 
L 384.00326 63.09805 
L 384.248743 61.785034 
L 384.412398 56.005163 
L 384.494226 60.797912 
L 384.576053 55.437386 
L 384.657881 60.281146 
L 384.739708 60.057926 
L 384.903363 47.268172 
L 385.067018 53.276964 
L 385.148846 48.593851 
L 385.230673 48.962103 
L 385.312501 62.403722 
L 385.394328 48.89779 
L 385.557984 54.63987 
L 385.721639 34.790086 
L 385.803466 41.469124 
L 385.967121 31.8779 
L 386.130776 40.514893 
L 386.294431 30.396939 
L 386.458086 46.588893 
L 386.621741 48.534476 
L 386.703569 44.312845 
L 386.785397 45.088235 
L 386.867224 53.791829 
L 386.949052 53.730667 
L 387.112707 46.345862 
L 387.194534 52.0133 
L 387.276362 39.51629 
L 387.358189 40.729974 
L 387.521844 50.125318 
L 387.603672 47.482914 
L 387.603672 47.482914 
" clip-path="url(#pc71e401590)" style="fill: none; stroke: #1f77b4; stroke-width: 1.5; stroke-linecap: square"/>
   </g>
   <g id="patch_3">
    <path d="M 60.080781 139.811563 
L 60.080781 10.872061 
" style="fill: none; stroke: #000000; stroke-width: 0.8; stroke-linejoin: miter; stroke-linecap: square"/>
   </g>
   <g id="patch_4">
    <path d="M 403.2 139.811563 
L 403.2 10.872061 
" style="fill: none; stroke: #000000; stroke-width: 0.8; stroke-linejoin: miter; stroke-linecap: square"/>
   </g>
   <g id="patch_5">
    <path d="M 60.080781 139.811563 
L 403.2 139.811563 
" style="fill: none; stroke: #000000; stroke-width: 0.8; stroke-linejoin: miter; stroke-linecap: square"/>
   </g>
   <g id="patch_6">
    <path d="M 60.080781 10.872061 
L 403.2 10.872061 
" style="fill: none; stroke: #000000; stroke-width: 0.8; stroke-linejoin: miter; stroke-linecap: square"/>
   </g>
  </g>
 </g>
 <defs>
  <clipPath id="pc71e401590">
   <rect x="60.080781" y="10.872061" width="343.119219" height="128.939501"/>
  </clipPath>
 </defs>
</svg>
