<?xml version="1.0" encoding="utf-8" standalone="no"?>
<!DOCTYPE svg PUBLIC "-//W3C//DTD SVG 1.1//EN"
  "http://www.w3.org/Graphics/SVG/1.1/DTD/svg11.dtd">
<svg xmlns:xlink="http://www.w3.org/1999/xlink" width="504pt" height="432pt" viewBox="0 0 504 432" xmlns="http://www.w3.org/2000/svg" version="1.1">
 <metadata>
  <rdf:RDF xmlns:dc="http://purl.org/dc/elements/1.1/" xmlns:cc="http://creativecommons.org/ns#" xmlns:rdf="http://www.w3.org/1999/02/22-rdf-syntax-ns#">
   <cc:Work>
    <dc:type rdf:resource="http://purl.org/dc/dcmitype/StillImage"/>
    <dc:date>2026-01-30T01:56:40.922502</dc:date>
    <dc:format>image/svg+xml</dc:format>
    <dc:creator>
     <cc:Agent>
      <dc:title>Matplotlib v3.10.7, https://matplotlib.org/</dc:title>
     </cc:Agent>
    </dc:creator>
   </cc:Work>
  </rdf:RDF>
 </metadata>
 <defs>
  <style type="text/css">*{stroke-linejoin: round; stroke-linecap: butt}</style>
 </defs>
 <g id="figure_1">
  <g id="patch_1">
   <path d="M 0 432 
L 504 432 
L 504 0 
L 0 0 
L 0 432 
z
" style="fill: none"/>
  </g>
  <g id="axes_1">
   <g id="patch_2">
    <path d="M 124.302188 362.623125 
L 482.4 362.623125 
L 482.4 21.6 
L 124.302188 21.6 
L 124.302188 362.623125 
z
" style="fill: none"/>
   </g>
   <g id="matplotlib.axis_1">
    <g id="xtick_1">
     <g id="line2d_1">
      <path d="M 219.496629 362.623125 
L 219.496629 21.6 
" clip-path="url(#p06306a3d8a)" style="fill: none; stroke: #b0b0b0; stroke-width: 0.8; stroke-linecap: square"/>
     </g>
     <g id="line2d_2">
      <defs>
       <path id="m9fdbfc52d8" d="M 0 0 
L 0 3.5 
" style="stroke: #000000; stroke-width: 0.8"/>
      </defs>
      <g>
       <use xlink:href="#m9fdbfc52d8" x="219.496629" y="362.623125" style="stroke: #000000; stroke-width: 0.8"/>
      </g>
     </g>
     <g id="text_1">
      <!-- −200 -->
      <g transform="translate(194.77616 383.300313) scale(0.18 -0.18)">
       <defs>
        <path id="DejaVuSerif-2212" d="M 678 2259 
L 4684 2259 
L 4684 1753 
L 678 1753 
L 678 2259 
z
" transform="scale(0.015625)"/>
        <path id="DejaVuSerif-32" d="M 819 3553 
L 469 3553 
L 469 4384 
Q 803 4563 1142 4656 
Q 1481 4750 1806 4750 
Q 2534 4750 2956 4397 
Q 3378 4044 3378 3438 
Q 3378 2753 2422 1800 
Q 2347 1728 2309 1691 
L 1131 513 
L 3078 513 
L 3078 1088 
L 3444 1088 
L 3444 0 
L 434 0 
L 434 341 
L 1850 1753 
Q 2319 2222 2519 2614 
Q 2719 3006 2719 3438 
Q 2719 3909 2473 4175 
Q 2228 4441 1797 4441 
Q 1350 4441 1106 4219 
Q 863 3997 819 3553 
z
" transform="scale(0.015625)"/>
        <path id="DejaVuSerif-30" d="M 2034 219 
Q 2513 219 2750 744 
Q 2988 1269 2988 2328 
Q 2988 3391 2750 3916 
Q 2513 4441 2034 4441 
Q 1556 4441 1318 3916 
Q 1081 3391 1081 2328 
Q 1081 1269 1318 744 
Q 1556 219 2034 219 
z
M 2034 -91 
Q 1275 -91 848 546 
Q 422 1184 422 2328 
Q 422 3475 848 4112 
Q 1275 4750 2034 4750 
Q 2797 4750 3222 4112 
Q 3647 3475 3647 2328 
Q 3647 1184 3222 546 
Q 2797 -91 2034 -91 
z
" transform="scale(0.015625)"/>
       </defs>
       <use xlink:href="#DejaVuSerif-2212"/>
       <use xlink:href="#DejaVuSerif-32" transform="translate(83.789062 0)"/>
       <use xlink:href="#DejaVuSerif-30" transform="translate(147.412109 0)"/>
       <use xlink:href="#DejaVuSerif-30" transform="translate(211.035156 0)"/>
      </g>
     </g>
    </g>
    <g id="xtick_2">
     <g id="line2d_3">
      <path d="M 321.041654 362.623125 
L 321.041654 21.6 
" clip-path="url(#p06306a3d8a)" style="fill: none; stroke: #b0b0b0; stroke-width: 0.8; stroke-linecap: square"/>
     </g>
     <g id="line2d_4">
      <g>
       <use xlink:href="#m9fdbfc52d8" x="321.041654" y="362.623125" style="stroke: #000000; stroke-width: 0.8"/>
      </g>
     </g>
     <g id="text_2">
      <!-- −100 -->
      <g transform="translate(296.321185 383.300313) scale(0.18 -0.18)">
       <defs>
        <path id="DejaVuSerif-31" d="M 909 0 
L 909 331 
L 1722 331 
L 1722 4213 
L 781 3603 
L 781 4013 
L 1919 4750 
L 2350 4750 
L 2350 331 
L 3163 331 
L 3163 0 
L 909 0 
z
" transform="scale(0.015625)"/>
       </defs>
       <use xlink:href="#DejaVuSerif-2212"/>
       <use xlink:href="#DejaVuSerif-31" transform="translate(83.789062 0)"/>
       <use xlink:href="#DejaVuSerif-30" transform="translate(147.412109 0)"/>
       <use xlink:href="#DejaVuSerif-30" transform="translate(211.035156 0)"/>
      </g>
     </g>
    </g>
    <g id="xtick_3">
     <g id="line2d_5">
      <path d="M 422.586678 362.623125 
L 422.586678 21.6 
" clip-path="url(#p06306a3d8a)" style="fill: none; stroke: #b0b0b0; stroke-width: 0.8; stroke-linecap: square"/>
     </g>
     <g id="line2d_6">
      <g>
       <use xlink:href="#m9fdbfc52d8" x="422.586678" y="362.623125" style="stroke: #000000; stroke-width: 0.8"/>
      </g>
     </g>
     <g id="text_3">
      <!-- 0 -->
      <g transform="translate(416.860428 383.300313) scale(0.18 -0.18)">
       <use xlink:href="#DejaVuSerif-30"/>
      </g>
     </g>
    </g>
    <g id="text_4">
     <!-- Hill X (m) -->
     <g transform="translate(254.274531 406.240625) scale(0.2 -0.2)">
      <defs>
       <path id="DejaVuSerif-48" d="M 353 0 
L 353 331 
L 947 331 
L 947 4331 
L 353 4331 
L 353 4666 
L 2175 4666 
L 2175 4331 
L 1581 4331 
L 1581 2719 
L 4000 2719 
L 4000 4331 
L 3406 4331 
L 3406 4666 
L 5228 4666 
L 5228 4331 
L 4634 4331 
L 4634 331 
L 5228 331 
L 5228 0 
L 3406 0 
L 3406 331 
L 4000 331 
L 4000 2338 
L 1581 2338 
L 1581 331 
L 2175 331 
L 2175 0 
L 353 0 
z
" transform="scale(0.015625)"/>
       <path id="DejaVuSerif-69" d="M 622 4353 
Q 622 4497 726 4603 
Q 831 4709 978 4709 
Q 1122 4709 1226 4603 
Q 1331 4497 1331 4353 
Q 1331 4206 1228 4103 
Q 1125 4000 978 4000 
Q 831 4000 726 4103 
Q 622 4206 622 4353 
z
M 1356 331 
L 1900 331 
L 1900 0 
L 231 0 
L 231 331 
L 781 331 
L 781 2988 
L 231 2988 
L 231 3322 
L 1356 3322 
L 1356 331 
z
" transform="scale(0.015625)"/>
       <path id="DejaVuSerif-6c" d="M 1313 331 
L 1856 331 
L 1856 0 
L 184 0 
L 184 331 
L 738 331 
L 738 4531 
L 184 4531 
L 184 4863 
L 1313 4863 
L 1313 331 
z
" transform="scale(0.015625)"/>
       <path id="DejaVuSerif-20" transform="scale(0.015625)"/>
       <path id="DejaVuSerif-58" d="M 2119 1997 
L 978 331 
L 1581 331 
L 1581 0 
L 38 0 
L 38 331 
L 575 331 
L 1919 2291 
L 556 4331 
L 56 4331 
L 56 4666 
L 1906 4666 
L 1906 4331 
L 1356 4331 
L 2356 2828 
L 3384 4331 
L 2784 4331 
L 2784 4666 
L 4313 4666 
L 4313 4331 
L 3788 4331 
L 2553 2534 
L 4025 331 
L 4525 331 
L 4525 0 
L 2675 0 
L 2675 331 
L 3231 331 
L 2119 1997 
z
" transform="scale(0.015625)"/>
       <path id="DejaVuSerif-28" d="M 2041 -997 
Q 1281 -656 893 83 
Q 506 822 506 1931 
Q 506 3044 893 3783 
Q 1281 4522 2041 4863 
L 2041 4556 
Q 1559 4225 1350 3623 
Q 1141 3022 1141 1931 
Q 1141 844 1350 242 
Q 1559 -359 2041 -691 
L 2041 -997 
z
" transform="scale(0.015625)"/>
       <path id="DejaVuSerif-6d" d="M 3316 2675 
Q 3481 3041 3739 3227 
Q 3997 3413 4341 3413 
Q 4863 3413 5119 3089 
Q 5375 2766 5375 2113 
L 5375 331 
L 5894 331 
L 5894 0 
L 4300 0 
L 4300 331 
L 4800 331 
L 4800 2047 
Q 4800 2556 4650 2772 
Q 4500 2988 4153 2988 
Q 3769 2988 3567 2697 
Q 3366 2406 3366 1850 
L 3366 331 
L 3866 331 
L 3866 0 
L 2291 0 
L 2291 331 
L 2791 331 
L 2791 2069 
Q 2791 2566 2641 2777 
Q 2491 2988 2144 2988 
Q 1759 2988 1557 2697 
Q 1356 2406 1356 1850 
L 1356 331 
L 1856 331 
L 1856 0 
L 263 0 
L 263 331 
L 781 331 
L 781 2994 
L 231 2994 
L 231 3322 
L 1356 3322 
L 1356 2731 
Q 1516 3063 1762 3238 
Q 2009 3413 2322 3413 
Q 2709 3413 2968 3220 
Q 3228 3028 3316 2675 
z
" transform="scale(0.015625)"/>
       <path id="DejaVuSerif-29" d="M 453 -997 
L 453 -691 
Q 934 -359 1145 242 
Q 1356 844 1356 1931 
Q 1356 3022 1145 3623 
Q 934 4225 453 4556 
L 453 4863 
Q 1216 4522 1603 3783 
Q 1991 3044 1991 1931 
Q 1991 822 1603 83 
Q 1216 -656 453 -997 
z
" transform="scale(0.015625)"/>
      </defs>
      <use xlink:href="#DejaVuSerif-48"/>
      <use xlink:href="#DejaVuSerif-69" transform="translate(87.207031 0)"/>
      <use xlink:href="#DejaVuSerif-6c" transform="translate(119.189453 0)"/>
      <use xlink:href="#DejaVuSerif-6c" transform="translate(151.171875 0)"/>
      <use xlink:href="#DejaVuSerif-20" transform="translate(183.154297 0)"/>
      <use xlink:href="#DejaVuSerif-58" transform="translate(214.941406 0)"/>
      <use xlink:href="#DejaVuSerif-20" transform="translate(286.132812 0)"/>
      <use xlink:href="#DejaVuSerif-28" transform="translate(317.919922 0)"/>
      <use xlink:href="#DejaVuSerif-6d" transform="translate(356.933594 0)"/>
      <use xlink:href="#DejaVuSerif-29" transform="translate(451.757812 0)"/>
     </g>
    </g>
   </g>
   <g id="matplotlib.axis_2">
    <g id="ytick_1">
     <g id="line2d_7">
      <path d="M 124.302188 355.825844 
L 482.4 355.825844 
" clip-path="url(#p06306a3d8a)" style="fill: none; stroke: #b0b0b0; stroke-width: 0.8; stroke-linecap: square"/>
     </g>
     <g id="line2d_8">
      <defs>
       <path id="mb4bdb9e524" d="M 0 0 
L -3.5 0 
" style="stroke: #000000; stroke-width: 0.8"/>
      </defs>
      <g>
       <use xlink:href="#mb4bdb9e524" x="124.302188" y="355.825844" style="stroke: #000000; stroke-width: 0.8"/>
      </g>
     </g>
     <g id="text_5">
      <!-- −12000 -->
      <g transform="translate(44.95625 362.664438) scale(0.18 -0.18)">
       <use xlink:href="#DejaVuSerif-2212"/>
       <use xlink:href="#DejaVuSerif-31" transform="translate(83.789062 0)"/>
       <use xlink:href="#DejaVuSerif-32" transform="translate(147.412109 0)"/>
       <use xlink:href="#DejaVuSerif-30" transform="translate(211.035156 0)"/>
       <use xlink:href="#DejaVuSerif-30" transform="translate(274.658203 0)"/>
       <use xlink:href="#DejaVuSerif-30" transform="translate(338.28125 0)"/>
      </g>
     </g>
    </g>
    <g id="ytick_2">
     <g id="line2d_9">
      <path d="M 124.302188 305.096644 
L 482.4 305.096644 
" clip-path="url(#p06306a3d8a)" style="fill: none; stroke: #b0b0b0; stroke-width: 0.8; stroke-linecap: square"/>
     </g>
     <g id="line2d_10">
      <g>
       <use xlink:href="#mb4bdb9e524" x="124.302188" y="305.096644" style="stroke: #000000; stroke-width: 0.8"/>
      </g>
     </g>
     <g id="text_6">
      <!-- −10000 -->
      <g transform="translate(44.95625 311.935238) scale(0.18 -0.18)">
       <use xlink:href="#DejaVuSerif-2212"/>
       <use xlink:href="#DejaVuSerif-31" transform="translate(83.789062 0)"/>
       <use xlink:href="#DejaVuSerif-30" transform="translate(147.412109 0)"/>
       <use xlink:href="#DejaVuSerif-30" transform="translate(211.035156 0)"/>
       <use xlink:href="#DejaVuSerif-30" transform="translate(274.658203 0)"/>
       <use xlink:href="#DejaVuSerif-30" transform="translate(338.28125 0)"/>
      </g>
     </g>
    </g>
    <g id="ytick_3">
     <g id="line2d_11">
      <path d="M 124.302188 254.367444 
L 482.4 254.367444 
" clip-path="url(#p06306a3d8a)" style="fill: none; stroke: #b0b0b0; stroke-width: 0.8; stroke-linecap: square"/>
     </g>
     <g id="line2d_12">
      <g>
       <use xlink:href="#mb4bdb9e524" x="124.302188" y="254.367444" style="stroke: #000000; stroke-width: 0.8"/>
      </g>
     </g>
     <g id="text_7">
      <!-- −8000 -->
      <g transform="translate(56.40875 261.206038) scale(0.18 -0.18)">
       <defs>
        <path id="DejaVuSerif-38" d="M 2981 1275 
Q 2981 1775 2732 2051 
Q 2484 2328 2034 2328 
Q 1584 2328 1336 2051 
Q 1088 1775 1088 1275 
Q 1088 772 1336 495 
Q 1584 219 2034 219 
Q 2484 219 2732 495 
Q 2981 772 2981 1275 
z
M 2853 3541 
Q 2853 3966 2637 4203 
Q 2422 4441 2034 4441 
Q 1650 4441 1433 4203 
Q 1216 3966 1216 3541 
Q 1216 3113 1433 2875 
Q 1650 2638 2034 2638 
Q 2422 2638 2637 2875 
Q 2853 3113 2853 3541 
z
M 2516 2484 
Q 3047 2413 3344 2092 
Q 3641 1772 3641 1275 
Q 3641 619 3225 264 
Q 2809 -91 2034 -91 
Q 1263 -91 845 264 
Q 428 619 428 1275 
Q 428 1772 725 2092 
Q 1022 2413 1556 2484 
Q 1084 2569 832 2842 
Q 581 3116 581 3541 
Q 581 4103 968 4426 
Q 1356 4750 2034 4750 
Q 2713 4750 3100 4426 
Q 3488 4103 3488 3541 
Q 3488 3116 3236 2842 
Q 2984 2569 2516 2484 
z
" transform="scale(0.015625)"/>
       </defs>
       <use xlink:href="#DejaVuSerif-2212"/>
       <use xlink:href="#DejaVuSerif-38" transform="translate(83.789062 0)"/>
       <use xlink:href="#DejaVuSerif-30" transform="translate(147.412109 0)"/>
       <use xlink:href="#DejaVuSerif-30" transform="translate(211.035156 0)"/>
       <use xlink:href="#DejaVuSerif-30" transform="translate(274.658203 0)"/>
      </g>
     </g>
    </g>
    <g id="ytick_4">
     <g id="line2d_13">
      <path d="M 124.302188 203.638244 
L 482.4 203.638244 
" clip-path="url(#p06306a3d8a)" style="fill: none; stroke: #b0b0b0; stroke-width: 0.8; stroke-linecap: square"/>
     </g>
     <g id="line2d_14">
      <g>
       <use xlink:href="#mb4bdb9e524" x="124.302188" y="203.638244" style="stroke: #000000; stroke-width: 0.8"/>
      </g>
     </g>
     <g id="text_8">
      <!-- −6000 -->
      <g transform="translate(56.40875 210.476838) scale(0.18 -0.18)">
       <defs>
        <path id="DejaVuSerif-36" d="M 2094 219 
Q 2534 219 2771 542 
Q 3009 866 3009 1472 
Q 3009 2078 2771 2401 
Q 2534 2725 2094 2725 
Q 1647 2725 1412 2412 
Q 1178 2100 1178 1509 
Q 1178 888 1415 553 
Q 1653 219 2094 219 
z
M 1075 2569 
Q 1288 2803 1556 2918 
Q 1825 3034 2163 3034 
Q 2859 3034 3264 2615 
Q 3669 2197 3669 1472 
Q 3669 763 3233 336 
Q 2797 -91 2069 -91 
Q 1278 -91 853 498 
Q 428 1088 428 2181 
Q 428 3406 931 4078 
Q 1434 4750 2350 4750 
Q 2597 4750 2869 4703 
Q 3141 4656 3425 4563 
L 3425 3794 
L 3072 3794 
Q 3034 4109 2831 4275 
Q 2628 4441 2284 4441 
Q 1678 4441 1381 3981 
Q 1084 3522 1075 2569 
z
" transform="scale(0.015625)"/>
       </defs>
       <use xlink:href="#DejaVuSerif-2212"/>
       <use xlink:href="#DejaVuSerif-36" transform="translate(83.789062 0)"/>
       <use xlink:href="#DejaVuSerif-30" transform="translate(147.412109 0)"/>
       <use xlink:href="#DejaVuSerif-30" transform="translate(211.035156 0)"/>
       <use xlink:href="#DejaVuSerif-30" transform="translate(274.658203 0)"/>
      </g>
     </g>
    </g>
    <g id="ytick_5">
     <g id="line2d_15">
      <path d="M 124.302188 152.909044 
L 482.4 152.909044 
" clip-path="url(#p06306a3d8a)" style="fill: none; stroke: #b0b0b0; stroke-width: 0.8; stroke-linecap: square"/>
     </g>
     <g id="line2d_16">
      <g>
       <use xlink:href="#mb4bdb9e524" x="124.302188" y="152.909044" style="stroke: #000000; stroke-width: 0.8"/>
      </g>
     </g>
     <g id="text_9">
      <!-- −4000 -->
      <g transform="translate(56.40875 159.747638) scale(0.18 -0.18)">
       <defs>
        <path id="DejaVuSerif-34" d="M 2234 1581 
L 2234 4063 
L 641 1581 
L 2234 1581 
z
M 3609 0 
L 1484 0 
L 1484 331 
L 2234 331 
L 2234 1247 
L 197 1247 
L 197 1588 
L 2241 4750 
L 2859 4750 
L 2859 1581 
L 3750 1581 
L 3750 1247 
L 2859 1247 
L 2859 331 
L 3609 331 
L 3609 0 
z
" transform="scale(0.015625)"/>
       </defs>
       <use xlink:href="#DejaVuSerif-2212"/>
       <use xlink:href="#DejaVuSerif-34" transform="translate(83.789062 0)"/>
       <use xlink:href="#DejaVuSerif-30" transform="translate(147.412109 0)"/>
       <use xlink:href="#DejaVuSerif-30" transform="translate(211.035156 0)"/>
       <use xlink:href="#DejaVuSerif-30" transform="translate(274.658203 0)"/>
      </g>
     </g>
    </g>
    <g id="ytick_6">
     <g id="line2d_17">
      <path d="M 124.302188 102.179844 
L 482.4 102.179844 
" clip-path="url(#p06306a3d8a)" style="fill: none; stroke: #b0b0b0; stroke-width: 0.8; stroke-linecap: square"/>
     </g>
     <g id="line2d_18">
      <g>
       <use xlink:href="#mb4bdb9e524" x="124.302188" y="102.179844" style="stroke: #000000; stroke-width: 0.8"/>
      </g>
     </g>
     <g id="text_10">
      <!-- −2000 -->
      <g transform="translate(56.40875 109.018437) scale(0.18 -0.18)">
       <use xlink:href="#DejaVuSerif-2212"/>
       <use xlink:href="#DejaVuSerif-32" transform="translate(83.789062 0)"/>
       <use xlink:href="#DejaVuSerif-30" transform="translate(147.412109 0)"/>
       <use xlink:href="#DejaVuSerif-30" transform="translate(211.035156 0)"/>
       <use xlink:href="#DejaVuSerif-30" transform="translate(274.658203 0)"/>
      </g>
     </g>
    </g>
    <g id="ytick_7">
     <g id="line2d_19">
      <path d="M 124.302188 51.450644 
L 482.4 51.450644 
" clip-path="url(#p06306a3d8a)" style="fill: none; stroke: #b0b0b0; stroke-width: 0.8; stroke-linecap: square"/>
     </g>
     <g id="line2d_20">
      <g>
       <use xlink:href="#mb4bdb9e524" x="124.302188" y="51.450644" style="stroke: #000000; stroke-width: 0.8"/>
      </g>
     </g>
     <g id="text_11">
      <!-- 0 -->
      <g transform="translate(105.849688 58.289237) scale(0.18 -0.18)">
       <use xlink:href="#DejaVuSerif-30"/>
      </g>
     </g>
    </g>
    <g id="text_12">
     <!-- Hill Y (m) -->
     <g transform="translate(36.796875 240.670938) rotate(-90) scale(0.2 -0.2)">
      <defs>
       <path id="DejaVuSerif-59" d="M 1209 0 
L 1209 331 
L 1806 331 
L 1806 2009 
L 366 4331 
L -72 4331 
L -72 4666 
L 1663 4666 
L 1663 4331 
L 1119 4331 
L 2284 2444 
L 3450 4331 
L 2925 4331 
L 2925 4666 
L 4281 4666 
L 4281 4331 
L 3841 4331 
L 2438 2069 
L 2438 331 
L 3034 331 
L 3034 0 
L 1209 0 
z
" transform="scale(0.015625)"/>
      </defs>
      <use xlink:href="#DejaVuSerif-48"/>
      <use xlink:href="#DejaVuSerif-69" transform="translate(87.207031 0)"/>
      <use xlink:href="#DejaVuSerif-6c" transform="translate(119.189453 0)"/>
      <use xlink:href="#DejaVuSerif-6c" transform="translate(151.171875 0)"/>
      <use xlink:href="#DejaVuSerif-20" transform="translate(183.154297 0)"/>
      <use xlink:href="#DejaVuSerif-59" transform="translate(214.941406 0)"/>
      <use xlink:href="#DejaVuSerif-20" transform="translate(280.957031 0)"/>
      <use xlink:href="#DejaVuSerif-28" transform="translate(312.744141 0)"/>
      <use xlink:href="#DejaVuSerif-6d" transform="translate(351.757812 0)"/>
      <use xlink:href="#DejaVuSerif-29" transform="translate(446.582031 0)"/>
     </g>
    </g>
   </g>
   <g id="line2d_21">
    <path d="M 412.258147 347.088785 
L 412.065601 347.100536 
L 408.654727 347.116083 
L 400.151611 346.931625 
L 391.094535 346.520732 
L 383.697621 345.988898 
L 378.044355 345.385044 
L 374.246965 344.78477 
L 371.954472 344.243135 
L 370.446915 343.678587 
L 369.737807 343.219125 
L 369.372523 342.75867 
L 369.216838 342.187567 
L 369.026567 341.290818 
L 368.662671 340.847951 
L 367.955949 340.404055 
L 366.814286 339.95369 
L 364.689574 339.371687 
L 361.087961 338.627137 
L 352.044296 337.061828 
L 342.687941 335.353129 
L 337.471137 334.193873 
L 333.720419 333.160655 
L 330.685498 332.078068 
L 328.825352 331.185268 
L 327.466126 330.276309 
L 326.563455 329.357865 
L 326.037994 328.435743 
L 325.781529 327.514444 
L 325.195168 324.547464 
L 324.774398 323.866029 
L 324.141777 323.182559 
L 323.26197 322.494655 
L 321.663438 321.565834 
L 319.557236 320.617372 
L 316.234088 319.393544 
L 310.507871 317.586861 
L 298.426682 313.876374 
L 294.064401 312.322577 
L 290.230156 310.706826 
L 287.656355 309.376713 
L 285.574209 308.020278 
L 284.342016 306.989842 
L 283.381606 305.951386 
L 282.670674 304.907629 
L 282.176126 303.861 
L 281.778839 302.464476 
L 281.493496 300.373882 
L 281.171641 298.291202 
L 280.712118 296.904789 
L 280.154185 295.863534 
L 279.368608 294.818669 
L 278.325565 293.767662 
L 277.006341 292.707725 
L 274.807741 291.275537 
L 272.12489 289.815402 
L 268.176353 287.941304 
L 259.982603 284.402751 
L 253.424944 281.489957 
L 249.081917 279.325844 
L 245.986656 277.549738 
L 243.321077 275.739577 
L 241.635695 274.363409 
L 240.22903 272.974522 
L 239.096767 271.575803 
L 238.222691 270.170034 
L 237.579401 268.759769 
L 237.014801 266.876187 
L 236.620405 264.521893 
L 236.003995 260.293713 
L 235.443644 258.415944 
L 234.804472 257.005248 
L 233.935053 255.59011 
L 232.807672 254.167983 
L 231.405718 252.736089 
L 229.724399 251.291542 
L 227.06224 249.34084 
L 223.966659 247.356163 
L 218.697428 244.303835 
L 207.393118 237.892592 
L 203.882326 235.664831 
L 200.698963 233.396646 
L 198.579437 231.672059 
L 196.718193 229.930204 
L 195.128832 228.173856 
L 193.813129 226.405867 
L 192.760968 224.629048 
L 191.950787 222.846042 
L 191.350522 221.059214 
L 190.804449 218.674189 
L 190.286453 215.097319 
L 189.732156 211.524091 
L 189.123978 209.141689 
L 188.460132 207.352316 
L 187.574573 205.558439 
L 186.438206 203.757596 
L 185.032717 201.94708 
L 183.351352 200.124054 
L 181.399195 198.285672 
L 178.405529 195.805918 
L 174.13808 192.652338 
L 166.583274 187.463446 
L 160.861147 183.449231 
L 157.26476 180.716518 
L 153.977067 177.942451 
L 151.768368 175.8377 
L 149.81015 173.714945 
L 148.117762 171.576891 
L 146.694962 169.426346 
L 145.533764 167.266093 
L 144.614794 165.098774 
L 143.908139 162.926771 
L 143.227411 160.026914 
L 142.638193 156.400155 
L 140.60756 141.098585 
L 140.600435 138.892784 
L 140.838054 136.682924 
L 141.169944 135.208512 
L 141.666205 133.734172 
L 142.347444 132.260954 
L 143.232491 130.790055 
L 144.337917 129.322806 
L 145.677628 127.86065 
L 147.262474 126.405135 
L 149.099712 124.957917 
L 151.192233 123.520744 
L 154.804143 121.387679 
L 158.958119 119.286998 
L 163.603905 117.224111 
L 168.670021 115.203793 
L 175.921646 112.582908 
L 185.427244 109.432406 
L 208.754007 101.896326 
L 214.567823 99.745251 
L 218.314225 98.172153 
L 221.495903 96.627206 
L 224.104536 95.104477 
L 226.156537 93.598074 
L 227.692338 92.102404 
L 228.774651 90.612408 
L 229.485766 89.123785 
L 229.923996 87.633178 
L 230.350346 85.138789 
L 230.73252 83.132715 
L 231.225244 81.623502 
L 232.015232 80.113015 
L 232.754611 79.107055 
L 233.692812 78.10341 
L 234.850143 77.10353 
L 236.242712 76.108996 
L 238.796697 74.630899 
L 241.923926 73.174501 
L 245.618685 71.745759 
L 249.850802 70.350444 
L 254.566951 68.993888 
L 261.477253 67.253388 
L 270.793446 65.19897 
L 282.281032 62.922452 
L 304.172958 58.660116 
L 310.313458 57.217081 
L 314.091336 56.115189 
L 316.87455 55.044832 
L 318.362948 54.254741 
L 319.408761 53.469945 
L 320.096698 52.686267 
L 320.526947 51.900491 
L 321.74947 48.980277 
L 322.497296 48.176374 
L 323.620562 47.374295 
L 325.200954 46.578385 
L 327.300482 45.793736 
L 329.958804 45.025973 
L 334.395859 44.038784 
L 339.819909 43.106117 
L 346.124332 42.240995 
L 354.972732 41.271182 
L 366.398712 40.290192 
L 379.676478 39.408191 
L 394.493198 38.657124 
L 411.998483 37.788141 
L 414.220794 37.395089 
L 417.788493 37.206712 
L 424.03969 37.104325 
L 433.970623 37.182474 
L 443.797666 37.472697 
L 453.105919 37.978833 
L 459.58604 38.562533 
L 463.415089 39.127468 
L 465.292885 39.611901 
L 465.98962 39.984692 
L 466.122827 40.234363 
L 466.002525 40.482947 
L 465.378847 40.850284 
L 464.279924 41.206647 
L 462.20951 41.657642 
L 458.240611 42.268404 
L 450.563415 43.159997 
L 445.624269 43.813843 
L 444.852308 44.072993 
L 444.837859 44.227294 
L 445.12749 44.384847 
L 446.439591 44.720923 
L 451.389064 45.827811 
L 452.280452 46.230804 
L 452.495809 46.479171 
L 452.441862 46.729136 
L 452.108987 46.977786 
L 451.238154 47.302253 
L 449.525339 47.687436 
L 446.243424 48.170212 
L 440.845135 48.71716 
L 433.234772 49.471877 
L 433.174773 49.568393 
L 433.204977 49.593003 
L 433.677559 49.748735 
L 435.67096 50.331908 
L 435.710778 50.516024 
L 435.463404 50.663053 
L 434.618081 50.874666 
L 432.460719 51.15025 
L 428.298412 51.433225 
L 424.792961 51.59311 
L 425.572869 51.668744 
L 426.645951 51.866351 
L 426.478352 51.937655 
L 425.354961 52.05714 
L 422.459095 52.123111 
L 421.80943 52.130682 
L 423.547121 52.121617 
L 422.586166 52.03681 
" clip-path="url(#p06306a3d8a)" style="fill: none; stroke: #1f77b4; stroke-width: 1.5; stroke-linecap: square"/>
   </g>
   <g id="patch_3">
    <path d="M 124.302188 362.623125 
L 124.302188 21.6 
" style="fill: none; stroke: #000000; stroke-width: 0.8; stroke-linejoin: miter; stroke-linecap: square"/>
   </g>
   <g id="patch_4">
    <path d="M 482.4 362.623125 
L 482.4 21.6 
" style="fill: none; stroke: #000000; stroke-width: 0.8; stroke-linejoin: miter; stroke-linecap: square"/>
   </g>
   <g id="patch_5">
    <path d="M 124.302187 362.623125 
L 482.4 362.623125 
" style="fill: none; stroke: #000000; stroke-width: 0.8; stroke-linejoin: miter; stroke-linecap: square"/>
   </g>
   <g id="patch_6">
    <path d="M 124.302187 21.6 
L 482.4 21.6 
" style="fill: none; stroke: #000000; stroke-width: 0.8; stroke-linejoin: miter; stroke-linecap: square"/>
   </g>
  </g>
 </g>
 <defs>
  <clipPath id="p06306a3d8a">
   <rect x="124.302188" y="21.6" width="358.097813" height="341.023125"/>
  </clipPath>
 </defs>
</svg>
