<?xml version="1.0" encoding="utf-8" standalone="no"?>
<!DOCTYPE svg PUBLIC "-//W3C//DTD SVG 1.1//EN"
  "http://www.w3.org/Graphics/SVG/1.1/DTD/svg11.dtd">
<svg xmlns:xlink="http://www.w3.org/1999/xlink" width="414pt" height="180pt" viewBox="0 0 414 180" xmlns="http://www.w3.org/2000/svg" version="1.1">
 <metadata>
  <rdf:RDF xmlns:dc="http://purl.org/dc/elements/1.1/" xmlns:cc="http://creativecommons.org/ns#" xmlns:rdf="http://www.w3.org/1999/02/22-rdf-syntax-ns#">
   <cc:Work>
    <dc:type rdf:resource="http://purl.org/dc/dcmitype/StillImage"/>
    <dc:date>2026-04-02T22:58:08.415220</dc:date>
    <dc:format>image/svg+xml</dc:format>
    <dc:creator>
     <cc:Agent>
      <dc:title>Matplotlib v3.10.7, https://matplotlib.org/</dc:title>
     </cc:Agent>
    </dc:creator>
   </cc:Work>
  </rdf:RDF>
 </metadata>
 <defs>
  <style type="text/css">*{stroke-linejoin: round; stroke-linecap: butt}</style>
 </defs>
 <g id="figure_1">
  <g id="patch_1">
   <path d="M 0 180 
L 414 180 
L 414 0 
L 0 0 
L 0 180 
z
" style="fill: none"/>
  </g>
  <g id="axes_1">
   <g id="patch_2">
    <path d="M 53.332656 139.811563 
L 403.2 139.811563 
L 403.2 10.8 
L 53.332656 10.8 
L 53.332656 139.811563 
z
" style="fill: none"/>
   </g>
   <g id="matplotlib.axis_1">
    <g id="xtick_1">
     <g id="line2d_1">
      <defs>
       <path id="mcc6e8d94d4" d="M 0 0 
L 0 3.5 
" style="stroke: #000000; stroke-width: 0.8"/>
      </defs>
      <g>
       <use xlink:href="#mcc6e8d94d4" x="69.235717" y="139.811563" style="stroke: #000000; stroke-width: 0.8"/>
      </g>
     </g>
     <g id="text_1">
      <!-- 0 -->
      <g transform="translate(66.372592 153.650156) scale(0.09 -0.09)">
       <defs>
        <path id="DejaVuSans-30" d="M 2034 4250 
Q 1547 4250 1301 3770 
Q 1056 3291 1056 2328 
Q 1056 1369 1301 889 
Q 1547 409 2034 409 
Q 2525 409 2770 889 
Q 3016 1369 3016 2328 
Q 3016 3291 2770 3770 
Q 2525 4250 2034 4250 
z
M 2034 4750 
Q 2819 4750 3233 4129 
Q 3647 3509 3647 2328 
Q 3647 1150 3233 529 
Q 2819 -91 2034 -91 
Q 1250 -91 836 529 
Q 422 1150 422 2328 
Q 422 3509 836 4129 
Q 1250 4750 2034 4750 
z
" transform="scale(0.015625)"/>
       </defs>
       <use xlink:href="#DejaVuSans-30"/>
      </g>
     </g>
    </g>
    <g id="xtick_2">
     <g id="line2d_2">
      <g>
       <use xlink:href="#mcc6e8d94d4" x="122.228257" y="139.811563" style="stroke: #000000; stroke-width: 0.8"/>
      </g>
     </g>
     <g id="text_2">
      <!-- 5 -->
      <g transform="translate(119.365132 153.650156) scale(0.09 -0.09)">
       <defs>
        <path id="DejaVuSans-35" d="M 691 4666 
L 3169 4666 
L 3169 4134 
L 1269 4134 
L 1269 2991 
Q 1406 3038 1543 3061 
Q 1681 3084 1819 3084 
Q 2600 3084 3056 2656 
Q 3513 2228 3513 1497 
Q 3513 744 3044 326 
Q 2575 -91 1722 -91 
Q 1428 -91 1123 -41 
Q 819 9 494 109 
L 494 744 
Q 775 591 1075 516 
Q 1375 441 1709 441 
Q 2250 441 2565 725 
Q 2881 1009 2881 1497 
Q 2881 1984 2565 2268 
Q 2250 2553 1709 2553 
Q 1456 2553 1204 2497 
Q 953 2441 691 2322 
L 691 4666 
z
" transform="scale(0.015625)"/>
       </defs>
       <use xlink:href="#DejaVuSans-35"/>
      </g>
     </g>
    </g>
    <g id="xtick_3">
     <g id="line2d_3">
      <g>
       <use xlink:href="#mcc6e8d94d4" x="175.220796" y="139.811563" style="stroke: #000000; stroke-width: 0.8"/>
      </g>
     </g>
     <g id="text_3">
      <!-- 10 -->
      <g transform="translate(169.494546 153.650156) scale(0.09 -0.09)">
       <defs>
        <path id="DejaVuSans-31" d="M 794 531 
L 1825 531 
L 1825 4091 
L 703 3866 
L 703 4441 
L 1819 4666 
L 2450 4666 
L 2450 531 
L 3481 531 
L 3481 0 
L 794 0 
L 794 531 
z
" transform="scale(0.015625)"/>
       </defs>
       <use xlink:href="#DejaVuSans-31"/>
       <use xlink:href="#DejaVuSans-30" transform="translate(63.623047 0)"/>
      </g>
     </g>
    </g>
    <g id="xtick_4">
     <g id="line2d_4">
      <g>
       <use xlink:href="#mcc6e8d94d4" x="228.213336" y="139.811563" style="stroke: #000000; stroke-width: 0.8"/>
      </g>
     </g>
     <g id="text_4">
      <!-- 15 -->
      <g transform="translate(222.487086 153.650156) scale(0.09 -0.09)">
       <use xlink:href="#DejaVuSans-31"/>
       <use xlink:href="#DejaVuSans-35" transform="translate(63.623047 0)"/>
      </g>
     </g>
    </g>
    <g id="xtick_5">
     <g id="line2d_5">
      <g>
       <use xlink:href="#mcc6e8d94d4" x="281.205875" y="139.811563" style="stroke: #000000; stroke-width: 0.8"/>
      </g>
     </g>
     <g id="text_5">
      <!-- 20 -->
      <g transform="translate(275.479625 153.650156) scale(0.09 -0.09)">
       <defs>
        <path id="DejaVuSans-32" d="M 1228 531 
L 3431 531 
L 3431 0 
L 469 0 
L 469 531 
Q 828 903 1448 1529 
Q 2069 2156 2228 2338 
Q 2531 2678 2651 2914 
Q 2772 3150 2772 3378 
Q 2772 3750 2511 3984 
Q 2250 4219 1831 4219 
Q 1534 4219 1204 4116 
Q 875 4013 500 3803 
L 500 4441 
Q 881 4594 1212 4672 
Q 1544 4750 1819 4750 
Q 2544 4750 2975 4387 
Q 3406 4025 3406 3419 
Q 3406 3131 3298 2873 
Q 3191 2616 2906 2266 
Q 2828 2175 2409 1742 
Q 1991 1309 1228 531 
z
" transform="scale(0.015625)"/>
       </defs>
       <use xlink:href="#DejaVuSans-32"/>
       <use xlink:href="#DejaVuSans-30" transform="translate(63.623047 0)"/>
      </g>
     </g>
    </g>
    <g id="xtick_6">
     <g id="line2d_6">
      <g>
       <use xlink:href="#mcc6e8d94d4" x="334.198414" y="139.811563" style="stroke: #000000; stroke-width: 0.8"/>
      </g>
     </g>
     <g id="text_6">
      <!-- 25 -->
      <g transform="translate(328.472164 153.650156) scale(0.09 -0.09)">
       <use xlink:href="#DejaVuSans-32"/>
       <use xlink:href="#DejaVuSans-35" transform="translate(63.623047 0)"/>
      </g>
     </g>
    </g>
    <g id="xtick_7">
     <g id="line2d_7">
      <g>
       <use xlink:href="#mcc6e8d94d4" x="387.190954" y="139.811563" style="stroke: #000000; stroke-width: 0.8"/>
      </g>
     </g>
     <g id="text_7">
      <!-- 30 -->
      <g transform="translate(381.464704 153.650156) scale(0.09 -0.09)">
       <defs>
        <path id="DejaVuSans-33" d="M 2597 2516 
Q 3050 2419 3304 2112 
Q 3559 1806 3559 1356 
Q 3559 666 3084 287 
Q 2609 -91 1734 -91 
Q 1441 -91 1130 -33 
Q 819 25 488 141 
L 488 750 
Q 750 597 1062 519 
Q 1375 441 1716 441 
Q 2309 441 2620 675 
Q 2931 909 2931 1356 
Q 2931 1769 2642 2001 
Q 2353 2234 1838 2234 
L 1294 2234 
L 1294 2753 
L 1863 2753 
Q 2328 2753 2575 2939 
Q 2822 3125 2822 3475 
Q 2822 3834 2567 4026 
Q 2313 4219 1838 4219 
Q 1578 4219 1281 4162 
Q 984 4106 628 3988 
L 628 4550 
Q 988 4650 1302 4700 
Q 1616 4750 1894 4750 
Q 2613 4750 3031 4423 
Q 3450 4097 3450 3541 
Q 3450 3153 3228 2886 
Q 3006 2619 2597 2516 
z
" transform="scale(0.015625)"/>
       </defs>
       <use xlink:href="#DejaVuSans-33"/>
       <use xlink:href="#DejaVuSans-30" transform="translate(63.623047 0)"/>
      </g>
     </g>
    </g>
    <g id="text_8">
     <!-- time [s] -->
     <g transform="translate(208.874922 167.120313) scale(0.1 -0.1)">
      <defs>
       <path id="DejaVuSans-74" d="M 1172 4494 
L 1172 3500 
L 2356 3500 
L 2356 3053 
L 1172 3053 
L 1172 1153 
Q 1172 725 1289 603 
Q 1406 481 1766 481 
L 2356 481 
L 2356 0 
L 1766 0 
Q 1100 0 847 248 
Q 594 497 594 1153 
L 594 3053 
L 172 3053 
L 172 3500 
L 594 3500 
L 594 4494 
L 1172 4494 
z
" transform="scale(0.015625)"/>
       <path id="DejaVuSans-69" d="M 603 3500 
L 1178 3500 
L 1178 0 
L 603 0 
L 603 3500 
z
M 603 4863 
L 1178 4863 
L 1178 4134 
L 603 4134 
L 603 4863 
z
" transform="scale(0.015625)"/>
       <path id="DejaVuSans-6d" d="M 3328 2828 
Q 3544 3216 3844 3400 
Q 4144 3584 4550 3584 
Q 5097 3584 5394 3201 
Q 5691 2819 5691 2113 
L 5691 0 
L 5113 0 
L 5113 2094 
Q 5113 2597 4934 2840 
Q 4756 3084 4391 3084 
Q 3944 3084 3684 2787 
Q 3425 2491 3425 1978 
L 3425 0 
L 2847 0 
L 2847 2094 
Q 2847 2600 2669 2842 
Q 2491 3084 2119 3084 
Q 1678 3084 1418 2786 
Q 1159 2488 1159 1978 
L 1159 0 
L 581 0 
L 581 3500 
L 1159 3500 
L 1159 2956 
Q 1356 3278 1631 3431 
Q 1906 3584 2284 3584 
Q 2666 3584 2933 3390 
Q 3200 3197 3328 2828 
z
" transform="scale(0.015625)"/>
       <path id="DejaVuSans-65" d="M 3597 1894 
L 3597 1613 
L 953 1613 
Q 991 1019 1311 708 
Q 1631 397 2203 397 
Q 2534 397 2845 478 
Q 3156 559 3463 722 
L 3463 178 
Q 3153 47 2828 -22 
Q 2503 -91 2169 -91 
Q 1331 -91 842 396 
Q 353 884 353 1716 
Q 353 2575 817 3079 
Q 1281 3584 2069 3584 
Q 2775 3584 3186 3129 
Q 3597 2675 3597 1894 
z
M 3022 2063 
Q 3016 2534 2758 2815 
Q 2500 3097 2075 3097 
Q 1594 3097 1305 2825 
Q 1016 2553 972 2059 
L 3022 2063 
z
" transform="scale(0.015625)"/>
       <path id="DejaVuSans-20" transform="scale(0.015625)"/>
       <path id="DejaVuSans-5b" d="M 550 4863 
L 1875 4863 
L 1875 4416 
L 1125 4416 
L 1125 -397 
L 1875 -397 
L 1875 -844 
L 550 -844 
L 550 4863 
z
" transform="scale(0.015625)"/>
       <path id="DejaVuSans-73" d="M 2834 3397 
L 2834 2853 
Q 2591 2978 2328 3040 
Q 2066 3103 1784 3103 
Q 1356 3103 1142 2972 
Q 928 2841 928 2578 
Q 928 2378 1081 2264 
Q 1234 2150 1697 2047 
L 1894 2003 
Q 2506 1872 2764 1633 
Q 3022 1394 3022 966 
Q 3022 478 2636 193 
Q 2250 -91 1575 -91 
Q 1294 -91 989 -36 
Q 684 19 347 128 
L 347 722 
Q 666 556 975 473 
Q 1284 391 1588 391 
Q 1994 391 2212 530 
Q 2431 669 2431 922 
Q 2431 1156 2273 1281 
Q 2116 1406 1581 1522 
L 1381 1569 
Q 847 1681 609 1914 
Q 372 2147 372 2553 
Q 372 3047 722 3315 
Q 1072 3584 1716 3584 
Q 2034 3584 2315 3537 
Q 2597 3491 2834 3397 
z
" transform="scale(0.015625)"/>
       <path id="DejaVuSans-5d" d="M 1947 4863 
L 1947 -844 
L 622 -844 
L 622 -397 
L 1369 -397 
L 1369 4416 
L 622 4416 
L 622 4863 
L 1947 4863 
z
" transform="scale(0.015625)"/>
      </defs>
      <use xlink:href="#DejaVuSans-74"/>
      <use xlink:href="#DejaVuSans-69" transform="translate(39.208984 0)"/>
      <use xlink:href="#DejaVuSans-6d" transform="translate(66.992188 0)"/>
      <use xlink:href="#DejaVuSans-65" transform="translate(164.404297 0)"/>
      <use xlink:href="#DejaVuSans-20" transform="translate(225.927734 0)"/>
      <use xlink:href="#DejaVuSans-5b" transform="translate(257.714844 0)"/>
      <use xlink:href="#DejaVuSans-73" transform="translate(296.728516 0)"/>
      <use xlink:href="#DejaVuSans-5d" transform="translate(348.828125 0)"/>
     </g>
    </g>
   </g>
   <g id="matplotlib.axis_2">
    <g id="ytick_1">
     <g id="line2d_8">
      <defs>
       <path id="m9deda3468a" d="M 0 0 
L -3.5 0 
" style="stroke: #000000; stroke-width: 0.8"/>
      </defs>
      <g>
       <use xlink:href="#m9deda3468a" x="53.332656" y="123.741387" style="stroke: #000000; stroke-width: 0.8"/>
      </g>
     </g>
     <g id="text_9">
      <!-- −0.1 -->
      <g transform="translate(24.478125 127.160684) scale(0.09 -0.09)">
       <defs>
        <path id="DejaVuSans-2212" d="M 678 2272 
L 4684 2272 
L 4684 1741 
L 678 1741 
L 678 2272 
z
" transform="scale(0.015625)"/>
        <path id="DejaVuSans-2e" d="M 684 794 
L 1344 794 
L 1344 0 
L 684 0 
L 684 794 
z
" transform="scale(0.015625)"/>
       </defs>
       <use xlink:href="#DejaVuSans-2212"/>
       <use xlink:href="#DejaVuSans-30" transform="translate(83.789062 0)"/>
       <use xlink:href="#DejaVuSans-2e" transform="translate(147.412109 0)"/>
       <use xlink:href="#DejaVuSans-31" transform="translate(179.199219 0)"/>
      </g>
     </g>
    </g>
    <g id="ytick_2">
     <g id="line2d_9">
      <g>
       <use xlink:href="#m9deda3468a" x="53.332656" y="88.170995" style="stroke: #000000; stroke-width: 0.8"/>
      </g>
     </g>
     <g id="text_10">
      <!-- 0.0 -->
      <g transform="translate(32.019844 91.590292) scale(0.09 -0.09)">
       <use xlink:href="#DejaVuSans-30"/>
       <use xlink:href="#DejaVuSans-2e" transform="translate(63.623047 0)"/>
       <use xlink:href="#DejaVuSans-30" transform="translate(95.410156 0)"/>
      </g>
     </g>
    </g>
    <g id="ytick_3">
     <g id="line2d_10">
      <g>
       <use xlink:href="#m9deda3468a" x="53.332656" y="52.600604" style="stroke: #000000; stroke-width: 0.8"/>
      </g>
     </g>
     <g id="text_11">
      <!-- 0.1 -->
      <g transform="translate(32.019844 56.0199) scale(0.09 -0.09)">
       <use xlink:href="#DejaVuSans-30"/>
       <use xlink:href="#DejaVuSans-2e" transform="translate(63.623047 0)"/>
       <use xlink:href="#DejaVuSans-31" transform="translate(95.410156 0)"/>
      </g>
     </g>
    </g>
    <g id="ytick_4">
     <g id="line2d_11">
      <g>
       <use xlink:href="#m9deda3468a" x="53.332656" y="17.030212" style="stroke: #000000; stroke-width: 0.8"/>
      </g>
     </g>
     <g id="text_12">
      <!-- 0.2 -->
      <g transform="translate(32.019844 20.449509) scale(0.09 -0.09)">
       <use xlink:href="#DejaVuSans-30"/>
       <use xlink:href="#DejaVuSans-2e" transform="translate(63.623047 0)"/>
       <use xlink:href="#DejaVuSans-32" transform="translate(95.410156 0)"/>
      </g>
     </g>
    </g>
    <g id="text_13">
     <!-- Angular Velocity [rad/s] -->
     <g transform="translate(18.398438 134.024531) rotate(-90) scale(0.1 -0.1)">
      <defs>
       <path id="DejaVuSans-41" d="M 2188 4044 
L 1331 1722 
L 3047 1722 
L 2188 4044 
z
M 1831 4666 
L 2547 4666 
L 4325 0 
L 3669 0 
L 3244 1197 
L 1141 1197 
L 716 0 
L 50 0 
L 1831 4666 
z
" transform="scale(0.015625)"/>
       <path id="DejaVuSans-6e" d="M 3513 2113 
L 3513 0 
L 2938 0 
L 2938 2094 
Q 2938 2591 2744 2837 
Q 2550 3084 2163 3084 
Q 1697 3084 1428 2787 
Q 1159 2491 1159 1978 
L 1159 0 
L 581 0 
L 581 3500 
L 1159 3500 
L 1159 2956 
Q 1366 3272 1645 3428 
Q 1925 3584 2291 3584 
Q 2894 3584 3203 3211 
Q 3513 2838 3513 2113 
z
" transform="scale(0.015625)"/>
       <path id="DejaVuSans-67" d="M 2906 1791 
Q 2906 2416 2648 2759 
Q 2391 3103 1925 3103 
Q 1463 3103 1205 2759 
Q 947 2416 947 1791 
Q 947 1169 1205 825 
Q 1463 481 1925 481 
Q 2391 481 2648 825 
Q 2906 1169 2906 1791 
z
M 3481 434 
Q 3481 -459 3084 -895 
Q 2688 -1331 1869 -1331 
Q 1566 -1331 1297 -1286 
Q 1028 -1241 775 -1147 
L 775 -588 
Q 1028 -725 1275 -790 
Q 1522 -856 1778 -856 
Q 2344 -856 2625 -561 
Q 2906 -266 2906 331 
L 2906 616 
Q 2728 306 2450 153 
Q 2172 0 1784 0 
Q 1141 0 747 490 
Q 353 981 353 1791 
Q 353 2603 747 3093 
Q 1141 3584 1784 3584 
Q 2172 3584 2450 3431 
Q 2728 3278 2906 2969 
L 2906 3500 
L 3481 3500 
L 3481 434 
z
" transform="scale(0.015625)"/>
       <path id="DejaVuSans-75" d="M 544 1381 
L 544 3500 
L 1119 3500 
L 1119 1403 
Q 1119 906 1312 657 
Q 1506 409 1894 409 
Q 2359 409 2629 706 
Q 2900 1003 2900 1516 
L 2900 3500 
L 3475 3500 
L 3475 0 
L 2900 0 
L 2900 538 
Q 2691 219 2414 64 
Q 2138 -91 1772 -91 
Q 1169 -91 856 284 
Q 544 659 544 1381 
z
M 1991 3584 
L 1991 3584 
z
" transform="scale(0.015625)"/>
       <path id="DejaVuSans-6c" d="M 603 4863 
L 1178 4863 
L 1178 0 
L 603 0 
L 603 4863 
z
" transform="scale(0.015625)"/>
       <path id="DejaVuSans-61" d="M 2194 1759 
Q 1497 1759 1228 1600 
Q 959 1441 959 1056 
Q 959 750 1161 570 
Q 1363 391 1709 391 
Q 2188 391 2477 730 
Q 2766 1069 2766 1631 
L 2766 1759 
L 2194 1759 
z
M 3341 1997 
L 3341 0 
L 2766 0 
L 2766 531 
Q 2569 213 2275 61 
Q 1981 -91 1556 -91 
Q 1019 -91 701 211 
Q 384 513 384 1019 
Q 384 1609 779 1909 
Q 1175 2209 1959 2209 
L 2766 2209 
L 2766 2266 
Q 2766 2663 2505 2880 
Q 2244 3097 1772 3097 
Q 1472 3097 1187 3025 
Q 903 2953 641 2809 
L 641 3341 
Q 956 3463 1253 3523 
Q 1550 3584 1831 3584 
Q 2591 3584 2966 3190 
Q 3341 2797 3341 1997 
z
" transform="scale(0.015625)"/>
       <path id="DejaVuSans-72" d="M 2631 2963 
Q 2534 3019 2420 3045 
Q 2306 3072 2169 3072 
Q 1681 3072 1420 2755 
Q 1159 2438 1159 1844 
L 1159 0 
L 581 0 
L 581 3500 
L 1159 3500 
L 1159 2956 
Q 1341 3275 1631 3429 
Q 1922 3584 2338 3584 
Q 2397 3584 2469 3576 
Q 2541 3569 2628 3553 
L 2631 2963 
z
" transform="scale(0.015625)"/>
       <path id="DejaVuSans-56" d="M 1831 0 
L 50 4666 
L 709 4666 
L 2188 738 
L 3669 4666 
L 4325 4666 
L 2547 0 
L 1831 0 
z
" transform="scale(0.015625)"/>
       <path id="DejaVuSans-6f" d="M 1959 3097 
Q 1497 3097 1228 2736 
Q 959 2375 959 1747 
Q 959 1119 1226 758 
Q 1494 397 1959 397 
Q 2419 397 2687 759 
Q 2956 1122 2956 1747 
Q 2956 2369 2687 2733 
Q 2419 3097 1959 3097 
z
M 1959 3584 
Q 2709 3584 3137 3096 
Q 3566 2609 3566 1747 
Q 3566 888 3137 398 
Q 2709 -91 1959 -91 
Q 1206 -91 779 398 
Q 353 888 353 1747 
Q 353 2609 779 3096 
Q 1206 3584 1959 3584 
z
" transform="scale(0.015625)"/>
       <path id="DejaVuSans-63" d="M 3122 3366 
L 3122 2828 
Q 2878 2963 2633 3030 
Q 2388 3097 2138 3097 
Q 1578 3097 1268 2742 
Q 959 2388 959 1747 
Q 959 1106 1268 751 
Q 1578 397 2138 397 
Q 2388 397 2633 464 
Q 2878 531 3122 666 
L 3122 134 
Q 2881 22 2623 -34 
Q 2366 -91 2075 -91 
Q 1284 -91 818 406 
Q 353 903 353 1747 
Q 353 2603 823 3093 
Q 1294 3584 2113 3584 
Q 2378 3584 2631 3529 
Q 2884 3475 3122 3366 
z
" transform="scale(0.015625)"/>
       <path id="DejaVuSans-79" d="M 2059 -325 
Q 1816 -950 1584 -1140 
Q 1353 -1331 966 -1331 
L 506 -1331 
L 506 -850 
L 844 -850 
Q 1081 -850 1212 -737 
Q 1344 -625 1503 -206 
L 1606 56 
L 191 3500 
L 800 3500 
L 1894 763 
L 2988 3500 
L 3597 3500 
L 2059 -325 
z
" transform="scale(0.015625)"/>
       <path id="DejaVuSans-64" d="M 2906 2969 
L 2906 4863 
L 3481 4863 
L 3481 0 
L 2906 0 
L 2906 525 
Q 2725 213 2448 61 
Q 2172 -91 1784 -91 
Q 1150 -91 751 415 
Q 353 922 353 1747 
Q 353 2572 751 3078 
Q 1150 3584 1784 3584 
Q 2172 3584 2448 3432 
Q 2725 3281 2906 2969 
z
M 947 1747 
Q 947 1113 1208 752 
Q 1469 391 1925 391 
Q 2381 391 2643 752 
Q 2906 1113 2906 1747 
Q 2906 2381 2643 2742 
Q 2381 3103 1925 3103 
Q 1469 3103 1208 2742 
Q 947 2381 947 1747 
z
" transform="scale(0.015625)"/>
       <path id="DejaVuSans-2f" d="M 1625 4666 
L 2156 4666 
L 531 -594 
L 0 -594 
L 1625 4666 
z
" transform="scale(0.015625)"/>
      </defs>
      <use xlink:href="#DejaVuSans-41"/>
      <use xlink:href="#DejaVuSans-6e" transform="translate(68.408203 0)"/>
      <use xlink:href="#DejaVuSans-67" transform="translate(131.787109 0)"/>
      <use xlink:href="#DejaVuSans-75" transform="translate(195.263672 0)"/>
      <use xlink:href="#DejaVuSans-6c" transform="translate(258.642578 0)"/>
      <use xlink:href="#DejaVuSans-61" transform="translate(286.425781 0)"/>
      <use xlink:href="#DejaVuSans-72" transform="translate(347.705078 0)"/>
      <use xlink:href="#DejaVuSans-20" transform="translate(388.818359 0)"/>
      <use xlink:href="#DejaVuSans-56" transform="translate(420.605469 0)"/>
      <use xlink:href="#DejaVuSans-65" transform="translate(481.263672 0)"/>
      <use xlink:href="#DejaVuSans-6c" transform="translate(542.787109 0)"/>
      <use xlink:href="#DejaVuSans-6f" transform="translate(570.570312 0)"/>
      <use xlink:href="#DejaVuSans-63" transform="translate(631.751953 0)"/>
      <use xlink:href="#DejaVuSans-69" transform="translate(686.732422 0)"/>
      <use xlink:href="#DejaVuSans-74" transform="translate(714.515625 0)"/>
      <use xlink:href="#DejaVuSans-79" transform="translate(753.724609 0)"/>
      <use xlink:href="#DejaVuSans-20" transform="translate(812.904297 0)"/>
      <use xlink:href="#DejaVuSans-5b" transform="translate(844.691406 0)"/>
      <use xlink:href="#DejaVuSans-72" transform="translate(883.705078 0)"/>
      <use xlink:href="#DejaVuSans-61" transform="translate(924.818359 0)"/>
      <use xlink:href="#DejaVuSans-64" transform="translate(986.097656 0)"/>
      <use xlink:href="#DejaVuSans-2f" transform="translate(1049.574219 0)"/>
      <use xlink:href="#DejaVuSans-73" transform="translate(1083.265625 0)"/>
      <use xlink:href="#DejaVuSans-5d" transform="translate(1135.365234 0)"/>
     </g>
    </g>
   </g>
   <g id="line2d_12">
    <path d="M 69.235717 88.170995 
L 175.220796 88.170995 
L 175.432766 115.773764 
L 175.644736 117.696443 
L 175.856707 117.916407 
L 176.068677 117.496925 
L 176.386632 116.231337 
L 176.916557 112.947932 
L 177.552468 107.429706 
L 178.294363 99.063421 
L 179.248229 85.447057 
L 182.745737 32.12457 
L 183.593617 23.679335 
L 184.229528 19.401105 
L 184.759453 17.331165 
L 185.077408 16.763453 
L 185.289379 16.664162 
L 185.501349 16.783028 
L 185.819304 17.353619 
L 186.243244 18.789338 
L 186.77317 21.512382 
L 187.515065 26.639204 
L 188.574916 35.659415 
L 190.376662 53.18079 
L 193.87417 87.468604 
L 195.251976 98.697328 
L 196.205842 104.834811 
L 196.947737 108.349701 
L 197.583648 110.321053 
L 198.007588 111.049403 
L 198.325543 111.273814 
L 198.643499 111.217256 
L 198.961454 110.878681 
L 199.385394 109.993246 
L 199.91532 108.212854 
L 200.55123 105.164491 
L 201.399111 99.797528 
L 202.670932 89.929376 
L 204.790633 73.359823 
L 205.744499 67.722791 
L 206.486394 64.634515 
L 207.01632 63.204752 
L 207.44026 62.538578 
L 207.758215 62.314506 
L 208.076171 62.320156 
L 208.394126 62.546758 
L 208.818066 63.173183 
L 209.347992 64.43268 
L 209.983902 66.550594 
L 210.831783 70.194104 
L 212.103604 76.820927 
L 216.131037 98.753561 
L 217.296872 103.575493 
L 218.144753 106.281216 
L 218.886649 107.994109 
L 219.522559 108.922147 
L 220.052485 109.287924 
L 220.476425 109.303158 
L 220.900365 109.067099 
L 221.324305 108.578801 
L 221.854231 107.618189 
L 222.490141 105.971514 
L 223.232037 103.426199 
L 224.185903 99.330803 
L 225.669694 91.800438 
L 228.001365 79.985148 
L 229.167201 75.285019 
L 230.121067 72.366619 
L 230.862963 70.716968 
L 231.604858 69.600938 
L 232.240769 69.043272 
L 232.770694 68.83553 
L 233.300619 68.83762 
L 233.93653 69.082463 
L 234.678425 69.645897 
L 235.632291 70.700007 
L 237.116082 72.754463 
L 239.235784 75.676947 
L 240.295635 76.774619 
L 241.143515 77.346574 
L 241.885411 77.568904 
L 242.521321 77.523647 
L 243.157232 77.241193 
L 243.793142 76.708501 
L 244.535038 75.762194 
L 245.382918 74.256246 
L 246.336784 72.056491 
L 247.50262 68.762442 
L 249.410351 62.559968 
L 251.318083 56.556524 
L 252.483919 53.567329 
L 253.437784 51.705942 
L 254.17968 50.674635 
L 254.921575 50.02501 
L 255.557486 49.77156 
L 256.193396 49.789095 
L 256.829307 50.062273 
L 257.571202 50.676259 
L 258.419083 51.717857 
L 259.478934 53.428552 
L 260.962725 56.322845 
L 264.248262 62.893113 
L 265.414098 64.697349 
L 266.367964 65.814928 
L 267.215845 66.50637 
L 268.063725 66.909447 
L 268.911606 67.040726 
L 269.759486 66.936155 
L 270.819337 66.555861 
L 274.42283 64.988611 
L 275.270711 64.960662 
L 276.012606 65.134172 
L 276.754502 65.512618 
L 277.602382 66.206821 
L 278.556248 67.316966 
L 279.616099 68.926069 
L 280.88792 71.285806 
L 282.795651 75.367573 
L 285.763233 81.706195 
L 287.141039 84.145691 
L 288.306875 85.804148 
L 289.366726 86.949209 
L 290.320592 87.679628 
L 291.274457 88.140411 
L 292.228323 88.361511 
L 293.288174 88.378002 
L 294.66598 88.15206 
L 299.011368 87.248938 
L 300.495159 87.268256 
L 302.190921 87.528316 
L 306.642294 88.358589 
L 307.914115 88.283865 
L 309.079951 87.981371 
L 310.139802 87.4824 
L 311.305637 86.670654 
L 312.471473 85.582977 
L 313.849279 83.965616 
L 315.439055 81.725305 
L 317.664742 78.154178 
L 321.79816 71.464946 
L 323.705892 68.832389 
L 325.401653 66.855339 
L 327.097414 65.219104 
L 328.89916 63.803155 
L 330.912877 62.509967 
L 333.774474 60.958238 
L 338.119862 58.854661 
L 340.345549 58.002108 
L 341.935325 57.615871 
L 343.313131 57.49839 
L 344.584952 57.606612 
L 345.856773 57.944305 
L 347.128594 58.518269 
L 348.5064 59.397102 
L 349.990191 60.610061 
L 351.791938 62.375775 
L 354.54755 65.433987 
L 359.422863 70.850134 
L 362.920371 74.344761 
L 370.233341 81.558401 
L 374.472744 85.742583 
L 376.592446 87.528438 
L 378.394192 88.755622 
L 379.983968 89.566481 
L 381.46776 90.071527 
L 382.845566 90.317541 
L 384.329357 90.347402 
L 385.813148 90.146995 
L 387.296939 89.735435 
L 387.296939 89.735435 
" clip-path="url(#pa562f33f27)" style="fill: none; stroke: #2b737e; stroke-width: 1.5; stroke-linecap: square"/>
   </g>
   <g id="line2d_13">
    <path d="M 69.235717 88.170995 
L 175.220796 88.170995 
L 175.326781 80.642647 
L 175.538751 85.61086 
L 175.644736 85.797711 
L 175.856707 84.81783 
L 176.492617 79.388376 
L 177.658453 69.7167 
L 178.400349 65.082627 
L 179.036259 62.342516 
L 179.566184 60.96318 
L 179.990125 60.390549 
L 180.414065 60.209279 
L 180.838005 60.337127 
L 181.367931 60.811779 
L 182.215811 61.976816 
L 183.487632 63.702263 
L 184.017558 64.090159 
L 184.441498 64.14422 
L 184.865438 63.912855 
L 185.289379 63.362755 
L 185.819304 62.240736 
L 186.879155 59.203716 
L 187.62105 57.358908 
L 188.150976 56.502634 
L 188.680901 56.05778 
L 189.104841 55.954854 
L 189.634767 56.060054 
L 190.376662 56.465067 
L 192.920304 58.032671 
L 194.934021 59.174858 
L 196.311827 60.258239 
L 197.689633 61.626924 
L 199.173424 63.429725 
L 201.293126 66.422551 
L 203.094872 68.847724 
L 204.154723 69.911749 
L 204.896618 70.373847 
L 205.532529 70.53013 
L 206.168439 70.432839 
L 206.80435 70.069725 
L 207.546245 69.333818 
L 208.606096 67.881387 
L 210.301857 65.528839 
L 211.361708 64.449703 
L 212.633529 63.485994 
L 214.965201 62.04776 
L 217.190887 60.904547 
L 219.098619 60.175917 
L 220.58241 59.833967 
L 221.854231 59.774838 
L 223.020067 59.94854 
L 224.291888 60.379414 
L 225.775679 61.134964 
L 228.743261 62.988916 
L 230.650992 64.031495 
L 232.240769 64.652713 
L 233.72456 65.00489 
L 235.314336 65.155844 
L 237.116082 65.095458 
L 239.341769 64.787281 
L 242.097381 64.178173 
L 244.852993 63.337614 
L 248.456486 62.232251 
L 250.364217 61.896689 
L 252.059978 61.814885 
L 253.75574 61.955996 
L 255.663471 62.355984 
L 258.207113 63.145278 
L 264.990158 65.359658 
L 267.10986 65.780597 
L 269.017591 65.932866 
L 270.819337 65.851469 
L 272.727069 65.541576 
L 275.482681 64.838014 
L 278.768218 64.049736 
L 280.88792 63.779529 
L 283.113606 63.731109 
L 285.551263 63.904559 
L 288.624831 64.355545 
L 294.24204 65.22255 
L 296.573711 65.317435 
L 299.011368 65.183154 
L 302.084936 64.772102 
L 309.185936 63.745182 
L 312.153518 63.587565 
L 315.1211 63.658523 
L 318.618608 63.97889 
L 329.005146 65.080217 
L 333.880459 65.260323 
L 342.571236 65.537661 
L 346.704654 65.940516 
L 359.422863 67.387704 
L 363.132341 67.439468 
L 368.32561 67.258195 
L 376.168506 67.011928 
L 387.296939 66.952338 
L 387.296939 66.952338 
" clip-path="url(#pa562f33f27)" style="fill: none; stroke: #5ea04b; stroke-width: 1.5; stroke-linecap: square"/>
   </g>
   <g id="line2d_14">
    <path d="M 69.235717 88.170995 
L 175.220796 88.170995 
L 175.538751 132.905721 
L 175.644736 133.947401 
L 175.856707 132.533065 
L 176.810572 123.442109 
L 177.340498 113.208281 
L 178.612319 86.612778 
L 179.248229 78.367979 
L 179.778155 74.43475 
L 180.09611 73.230121 
L 180.414065 72.796271 
L 180.626035 72.890829 
L 180.94399 73.536845 
L 181.367931 75.186231 
L 182.003841 78.89295 
L 184.335513 94.258172 
L 184.759453 95.406064 
L 184.971423 95.612397 
L 185.183394 95.562878 
L 185.395364 95.2633 
L 185.713319 94.391021 
L 186.243244 92.154383 
L 187.091125 88.548828 
L 187.515065 87.567515 
L 187.833021 87.318321 
L 188.044991 87.370451 
L 188.362946 87.728263 
L 188.786886 88.599215 
L 189.846737 91.563596 
L 190.588633 93.358878 
L 191.118558 94.190931 
L 191.542498 94.530808 
L 191.966439 94.581369 
L 192.390379 94.369656 
L 192.920304 93.806985 
L 193.768185 92.482742 
L 195.675916 89.381766 
L 196.629782 88.289335 
L 197.371678 87.75671 
L 198.007588 87.569364 
L 198.537514 87.628602 
L 199.067439 87.896909 
L 199.703349 88.499201 
L 200.445245 89.571469 
L 201.293126 91.216363 
L 202.670932 94.469613 
L 204.048738 97.571707 
L 204.790633 98.720931 
L 205.320559 99.155464 
L 205.744499 99.216894 
L 206.168439 98.997424 
L 206.59238 98.489163 
L 207.122305 97.469962 
L 207.8642 95.485387 
L 209.559962 90.670566 
L 210.195872 89.516161 
L 210.725798 88.930009 
L 211.255723 88.633988 
L 211.891633 88.551534 
L 212.739514 88.695245 
L 214.965201 89.404209 
L 217.084902 90.012218 
L 218.038768 90.058665 
L 218.886649 89.870241 
L 219.734529 89.44551 
L 220.900365 88.567543 
L 223.020067 86.924589 
L 223.973932 86.49054 
L 224.821813 86.334392 
L 225.775679 86.398407 
L 226.941515 86.720375 
L 229.379171 87.451303 
L 230.439022 87.486886 
L 231.392888 87.303077 
L 232.452739 86.875134 
L 233.830545 86.061087 
L 236.904112 84.142909 
L 237.963963 83.777015 
L 238.917829 83.681853 
L 239.871694 83.825659 
L 240.931545 84.233815 
L 244.747008 85.984598 
L 245.700874 86.026185 
L 246.866709 85.831012 
L 251.106113 84.859942 
L 252.589904 84.869665 
L 254.60362 85.127743 
L 258.207113 85.612193 
L 264.142277 86.172174 
L 270.183427 87.246825 
L 271.773203 87.175225 
L 273.468964 86.866884 
L 276.224576 86.08243 
L 278.768218 85.456576 
L 280.993905 85.157687 
L 291.168472 84.349015 
L 294.45401 83.960298 
L 296.785682 83.457059 
L 299.859249 82.537355 
L 304.310622 81.224925 
L 307.702145 80.484609 
L 314.591175 79.292875 
L 320.632324 78.394052 
L 324.659757 78.015707 
L 327.83931 77.936114 
L 331.230832 78.088062 
L 339.285698 78.549218 
L 352.215878 78.9669 
L 357.409147 79.084125 
L 361.012639 78.93815 
L 364.616132 78.560951 
L 370.657282 77.652786 
L 382.951551 75.629043 
L 387.296939 74.757418 
L 387.296939 74.757418 
" clip-path="url(#pa562f33f27)" style="fill: none; stroke: #bdab62; stroke-width: 1.5; stroke-linecap: square"/>
   </g>
   <g id="patch_3">
    <path d="M 53.332656 139.811563 
L 53.332656 10.8 
" style="fill: none; stroke: #000000; stroke-width: 0.8; stroke-linejoin: miter; stroke-linecap: square"/>
   </g>
   <g id="patch_4">
    <path d="M 403.2 139.811563 
L 403.2 10.8 
" style="fill: none; stroke: #000000; stroke-width: 0.8; stroke-linejoin: miter; stroke-linecap: square"/>
   </g>
   <g id="patch_5">
    <path d="M 53.332656 139.811563 
L 403.2 139.811563 
" style="fill: none; stroke: #000000; stroke-width: 0.8; stroke-linejoin: miter; stroke-linecap: square"/>
   </g>
   <g id="patch_6">
    <path d="M 53.332656 10.8 
L 403.2 10.8 
" style="fill: none; stroke: #000000; stroke-width: 0.8; stroke-linejoin: miter; stroke-linecap: square"/>
   </g>
  </g>
 </g>
 <defs>
  <clipPath id="pa562f33f27">
   <rect x="53.332656" y="10.8" width="349.867344" height="129.011562"/>
  </clipPath>
 </defs>
</svg>
