<?xml version="1.0" encoding="utf-8" standalone="no"?>
<!DOCTYPE svg PUBLIC "-//W3C//DTD SVG 1.1//EN"
  "http://www.w3.org/Graphics/SVG/1.1/DTD/svg11.dtd">
<svg xmlns:xlink="http://www.w3.org/1999/xlink" width="414pt" height="180pt" viewBox="0 0 414 180" xmlns="http://www.w3.org/2000/svg" version="1.1">
 <metadata>
  <rdf:RDF xmlns:dc="http://purl.org/dc/elements/1.1/" xmlns:cc="http://creativecommons.org/ns#" xmlns:rdf="http://www.w3.org/1999/02/22-rdf-syntax-ns#">
   <cc:Work>
    <dc:type rdf:resource="http://purl.org/dc/dcmitype/StillImage"/>
    <dc:date>2026-04-02T22:58:42.340307</dc:date>
    <dc:format>image/svg+xml</dc:format>
    <dc:creator>
     <cc:Agent>
      <dc:title>Matplotlib v3.10.7, https://matplotlib.org/</dc:title>
     </cc:Agent>
    </dc:creator>
   </cc:Work>
  </rdf:RDF>
 </metadata>
 <defs>
  <style type="text/css">*{stroke-linejoin: round; stroke-linecap: butt}</style>
 </defs>
 <g id="figure_1">
  <g id="patch_1">
   <path d="M 0 180 
L 414 180 
L 414 0 
L 0 0 
L 0 180 
z
" style="fill: none"/>
  </g>
  <g id="axes_1">
   <g id="patch_2">
    <path d="M 61.924844 139.811563 
L 403.2 139.811563 
L 403.2 10.8 
L 61.924844 10.8 
L 61.924844 139.811563 
z
" style="fill: none"/>
   </g>
   <g id="matplotlib.axis_1">
    <g id="xtick_1">
     <g id="line2d_1">
      <defs>
       <path id="m697840fbef" d="M 0 0 
L 0 3.5 
" style="stroke: #000000; stroke-width: 0.8"/>
      </defs>
      <g>
       <use xlink:href="#m697840fbef" x="77.420114" y="139.811563" style="stroke: #000000; stroke-width: 0.8"/>
      </g>
     </g>
     <g id="text_1">
      <!-- 0 -->
      <g transform="translate(74.556989 153.650156) scale(0.09 -0.09)">
       <defs>
        <path id="DejaVuSans-30" d="M 2034 4250 
Q 1547 4250 1301 3770 
Q 1056 3291 1056 2328 
Q 1056 1369 1301 889 
Q 1547 409 2034 409 
Q 2525 409 2770 889 
Q 3016 1369 3016 2328 
Q 3016 3291 2770 3770 
Q 2525 4250 2034 4250 
z
M 2034 4750 
Q 2819 4750 3233 4129 
Q 3647 3509 3647 2328 
Q 3647 1150 3233 529 
Q 2819 -91 2034 -91 
Q 1250 -91 836 529 
Q 422 1150 422 2328 
Q 422 3509 836 4129 
Q 1250 4750 2034 4750 
z
" transform="scale(0.015625)"/>
       </defs>
       <use xlink:href="#DejaVuSans-30"/>
      </g>
     </g>
    </g>
    <g id="xtick_2">
     <g id="line2d_2">
      <g>
       <use xlink:href="#m697840fbef" x="129.131344" y="139.811563" style="stroke: #000000; stroke-width: 0.8"/>
      </g>
     </g>
     <g id="text_2">
      <!-- 5 -->
      <g transform="translate(126.268219 153.650156) scale(0.09 -0.09)">
       <defs>
        <path id="DejaVuSans-35" d="M 691 4666 
L 3169 4666 
L 3169 4134 
L 1269 4134 
L 1269 2991 
Q 1406 3038 1543 3061 
Q 1681 3084 1819 3084 
Q 2600 3084 3056 2656 
Q 3513 2228 3513 1497 
Q 3513 744 3044 326 
Q 2575 -91 1722 -91 
Q 1428 -91 1123 -41 
Q 819 9 494 109 
L 494 744 
Q 775 591 1075 516 
Q 1375 441 1709 441 
Q 2250 441 2565 725 
Q 2881 1009 2881 1497 
Q 2881 1984 2565 2268 
Q 2250 2553 1709 2553 
Q 1456 2553 1204 2497 
Q 953 2441 691 2322 
L 691 4666 
z
" transform="scale(0.015625)"/>
       </defs>
       <use xlink:href="#DejaVuSans-35"/>
      </g>
     </g>
    </g>
    <g id="xtick_3">
     <g id="line2d_3">
      <g>
       <use xlink:href="#m697840fbef" x="180.842573" y="139.811563" style="stroke: #000000; stroke-width: 0.8"/>
      </g>
     </g>
     <g id="text_3">
      <!-- 10 -->
      <g transform="translate(175.116323 153.650156) scale(0.09 -0.09)">
       <defs>
        <path id="DejaVuSans-31" d="M 794 531 
L 1825 531 
L 1825 4091 
L 703 3866 
L 703 4441 
L 1819 4666 
L 2450 4666 
L 2450 531 
L 3481 531 
L 3481 0 
L 794 0 
L 794 531 
z
" transform="scale(0.015625)"/>
       </defs>
       <use xlink:href="#DejaVuSans-31"/>
       <use xlink:href="#DejaVuSans-30" transform="translate(63.623047 0)"/>
      </g>
     </g>
    </g>
    <g id="xtick_4">
     <g id="line2d_4">
      <g>
       <use xlink:href="#m697840fbef" x="232.553803" y="139.811563" style="stroke: #000000; stroke-width: 0.8"/>
      </g>
     </g>
     <g id="text_4">
      <!-- 15 -->
      <g transform="translate(226.827553 153.650156) scale(0.09 -0.09)">
       <use xlink:href="#DejaVuSans-31"/>
       <use xlink:href="#DejaVuSans-35" transform="translate(63.623047 0)"/>
      </g>
     </g>
    </g>
    <g id="xtick_5">
     <g id="line2d_5">
      <g>
       <use xlink:href="#m697840fbef" x="284.265033" y="139.811563" style="stroke: #000000; stroke-width: 0.8"/>
      </g>
     </g>
     <g id="text_5">
      <!-- 20 -->
      <g transform="translate(278.538783 153.650156) scale(0.09 -0.09)">
       <defs>
        <path id="DejaVuSans-32" d="M 1228 531 
L 3431 531 
L 3431 0 
L 469 0 
L 469 531 
Q 828 903 1448 1529 
Q 2069 2156 2228 2338 
Q 2531 2678 2651 2914 
Q 2772 3150 2772 3378 
Q 2772 3750 2511 3984 
Q 2250 4219 1831 4219 
Q 1534 4219 1204 4116 
Q 875 4013 500 3803 
L 500 4441 
Q 881 4594 1212 4672 
Q 1544 4750 1819 4750 
Q 2544 4750 2975 4387 
Q 3406 4025 3406 3419 
Q 3406 3131 3298 2873 
Q 3191 2616 2906 2266 
Q 2828 2175 2409 1742 
Q 1991 1309 1228 531 
z
" transform="scale(0.015625)"/>
       </defs>
       <use xlink:href="#DejaVuSans-32"/>
       <use xlink:href="#DejaVuSans-30" transform="translate(63.623047 0)"/>
      </g>
     </g>
    </g>
    <g id="xtick_6">
     <g id="line2d_6">
      <g>
       <use xlink:href="#m697840fbef" x="335.976263" y="139.811563" style="stroke: #000000; stroke-width: 0.8"/>
      </g>
     </g>
     <g id="text_6">
      <!-- 25 -->
      <g transform="translate(330.250013 153.650156) scale(0.09 -0.09)">
       <use xlink:href="#DejaVuSans-32"/>
       <use xlink:href="#DejaVuSans-35" transform="translate(63.623047 0)"/>
      </g>
     </g>
    </g>
    <g id="xtick_7">
     <g id="line2d_7">
      <g>
       <use xlink:href="#m697840fbef" x="387.687493" y="139.811563" style="stroke: #000000; stroke-width: 0.8"/>
      </g>
     </g>
     <g id="text_7">
      <!-- 30 -->
      <g transform="translate(381.961243 153.650156) scale(0.09 -0.09)">
       <defs>
        <path id="DejaVuSans-33" d="M 2597 2516 
Q 3050 2419 3304 2112 
Q 3559 1806 3559 1356 
Q 3559 666 3084 287 
Q 2609 -91 1734 -91 
Q 1441 -91 1130 -33 
Q 819 25 488 141 
L 488 750 
Q 750 597 1062 519 
Q 1375 441 1716 441 
Q 2309 441 2620 675 
Q 2931 909 2931 1356 
Q 2931 1769 2642 2001 
Q 2353 2234 1838 2234 
L 1294 2234 
L 1294 2753 
L 1863 2753 
Q 2328 2753 2575 2939 
Q 2822 3125 2822 3475 
Q 2822 3834 2567 4026 
Q 2313 4219 1838 4219 
Q 1578 4219 1281 4162 
Q 984 4106 628 3988 
L 628 4550 
Q 988 4650 1302 4700 
Q 1616 4750 1894 4750 
Q 2613 4750 3031 4423 
Q 3450 4097 3450 3541 
Q 3450 3153 3228 2886 
Q 3006 2619 2597 2516 
z
" transform="scale(0.015625)"/>
       </defs>
       <use xlink:href="#DejaVuSans-33"/>
       <use xlink:href="#DejaVuSans-30" transform="translate(63.623047 0)"/>
      </g>
     </g>
    </g>
    <g id="text_8">
     <!-- Time [min] -->
     <g transform="translate(205.410078 167.120313) scale(0.1 -0.1)">
      <defs>
       <path id="DejaVuSans-54" d="M -19 4666 
L 3928 4666 
L 3928 4134 
L 2272 4134 
L 2272 0 
L 1638 0 
L 1638 4134 
L -19 4134 
L -19 4666 
z
" transform="scale(0.015625)"/>
       <path id="DejaVuSans-69" d="M 603 3500 
L 1178 3500 
L 1178 0 
L 603 0 
L 603 3500 
z
M 603 4863 
L 1178 4863 
L 1178 4134 
L 603 4134 
L 603 4863 
z
" transform="scale(0.015625)"/>
       <path id="DejaVuSans-6d" d="M 3328 2828 
Q 3544 3216 3844 3400 
Q 4144 3584 4550 3584 
Q 5097 3584 5394 3201 
Q 5691 2819 5691 2113 
L 5691 0 
L 5113 0 
L 5113 2094 
Q 5113 2597 4934 2840 
Q 4756 3084 4391 3084 
Q 3944 3084 3684 2787 
Q 3425 2491 3425 1978 
L 3425 0 
L 2847 0 
L 2847 2094 
Q 2847 2600 2669 2842 
Q 2491 3084 2119 3084 
Q 1678 3084 1418 2786 
Q 1159 2488 1159 1978 
L 1159 0 
L 581 0 
L 581 3500 
L 1159 3500 
L 1159 2956 
Q 1356 3278 1631 3431 
Q 1906 3584 2284 3584 
Q 2666 3584 2933 3390 
Q 3200 3197 3328 2828 
z
" transform="scale(0.015625)"/>
       <path id="DejaVuSans-65" d="M 3597 1894 
L 3597 1613 
L 953 1613 
Q 991 1019 1311 708 
Q 1631 397 2203 397 
Q 2534 397 2845 478 
Q 3156 559 3463 722 
L 3463 178 
Q 3153 47 2828 -22 
Q 2503 -91 2169 -91 
Q 1331 -91 842 396 
Q 353 884 353 1716 
Q 353 2575 817 3079 
Q 1281 3584 2069 3584 
Q 2775 3584 3186 3129 
Q 3597 2675 3597 1894 
z
M 3022 2063 
Q 3016 2534 2758 2815 
Q 2500 3097 2075 3097 
Q 1594 3097 1305 2825 
Q 1016 2553 972 2059 
L 3022 2063 
z
" transform="scale(0.015625)"/>
       <path id="DejaVuSans-20" transform="scale(0.015625)"/>
       <path id="DejaVuSans-5b" d="M 550 4863 
L 1875 4863 
L 1875 4416 
L 1125 4416 
L 1125 -397 
L 1875 -397 
L 1875 -844 
L 550 -844 
L 550 4863 
z
" transform="scale(0.015625)"/>
       <path id="DejaVuSans-6e" d="M 3513 2113 
L 3513 0 
L 2938 0 
L 2938 2094 
Q 2938 2591 2744 2837 
Q 2550 3084 2163 3084 
Q 1697 3084 1428 2787 
Q 1159 2491 1159 1978 
L 1159 0 
L 581 0 
L 581 3500 
L 1159 3500 
L 1159 2956 
Q 1366 3272 1645 3428 
Q 1925 3584 2291 3584 
Q 2894 3584 3203 3211 
Q 3513 2838 3513 2113 
z
" transform="scale(0.015625)"/>
       <path id="DejaVuSans-5d" d="M 1947 4863 
L 1947 -844 
L 622 -844 
L 622 -397 
L 1369 -397 
L 1369 4416 
L 622 4416 
L 622 4863 
L 1947 4863 
z
" transform="scale(0.015625)"/>
      </defs>
      <use xlink:href="#DejaVuSans-54"/>
      <use xlink:href="#DejaVuSans-69" transform="translate(57.958984 0)"/>
      <use xlink:href="#DejaVuSans-6d" transform="translate(85.742188 0)"/>
      <use xlink:href="#DejaVuSans-65" transform="translate(183.154297 0)"/>
      <use xlink:href="#DejaVuSans-20" transform="translate(244.677734 0)"/>
      <use xlink:href="#DejaVuSans-5b" transform="translate(276.464844 0)"/>
      <use xlink:href="#DejaVuSans-6d" transform="translate(315.478516 0)"/>
      <use xlink:href="#DejaVuSans-69" transform="translate(412.890625 0)"/>
      <use xlink:href="#DejaVuSans-6e" transform="translate(440.673828 0)"/>
      <use xlink:href="#DejaVuSans-5d" transform="translate(504.052734 0)"/>
     </g>
    </g>
   </g>
   <g id="matplotlib.axis_2">
    <g id="ytick_1">
     <g id="line2d_8">
      <defs>
       <path id="mcc9d41b9de" d="M 0 0 
L -3.5 0 
" style="stroke: #000000; stroke-width: 0.8"/>
      </defs>
      <g>
       <use xlink:href="#mcc9d41b9de" x="61.924844" y="135.698311" style="stroke: #000000; stroke-width: 0.8"/>
      </g>
     </g>
     <g id="text_9">
      <!-- −2000 -->
      <g transform="translate(24.478125 139.117608) scale(0.09 -0.09)">
       <defs>
        <path id="DejaVuSans-2212" d="M 678 2272 
L 4684 2272 
L 4684 1741 
L 678 1741 
L 678 2272 
z
" transform="scale(0.015625)"/>
       </defs>
       <use xlink:href="#DejaVuSans-2212"/>
       <use xlink:href="#DejaVuSans-32" transform="translate(83.789062 0)"/>
       <use xlink:href="#DejaVuSans-30" transform="translate(147.412109 0)"/>
       <use xlink:href="#DejaVuSans-30" transform="translate(211.035156 0)"/>
       <use xlink:href="#DejaVuSans-30" transform="translate(274.658203 0)"/>
      </g>
     </g>
    </g>
    <g id="ytick_2">
     <g id="line2d_9">
      <g>
       <use xlink:href="#mcc9d41b9de" x="61.924844" y="110.275193" style="stroke: #000000; stroke-width: 0.8"/>
      </g>
     </g>
     <g id="text_10">
      <!-- −1000 -->
      <g transform="translate(24.478125 113.69449) scale(0.09 -0.09)">
       <use xlink:href="#DejaVuSans-2212"/>
       <use xlink:href="#DejaVuSans-31" transform="translate(83.789062 0)"/>
       <use xlink:href="#DejaVuSans-30" transform="translate(147.412109 0)"/>
       <use xlink:href="#DejaVuSans-30" transform="translate(211.035156 0)"/>
       <use xlink:href="#DejaVuSans-30" transform="translate(274.658203 0)"/>
      </g>
     </g>
    </g>
    <g id="ytick_3">
     <g id="line2d_10">
      <g>
       <use xlink:href="#mcc9d41b9de" x="61.924844" y="84.852074" style="stroke: #000000; stroke-width: 0.8"/>
      </g>
     </g>
     <g id="text_11">
      <!-- 0 -->
      <g transform="translate(49.198594 88.271371) scale(0.09 -0.09)">
       <use xlink:href="#DejaVuSans-30"/>
      </g>
     </g>
    </g>
    <g id="ytick_4">
     <g id="line2d_11">
      <g>
       <use xlink:href="#mcc9d41b9de" x="61.924844" y="59.428956" style="stroke: #000000; stroke-width: 0.8"/>
      </g>
     </g>
     <g id="text_12">
      <!-- 1000 -->
      <g transform="translate(32.019844 62.848253) scale(0.09 -0.09)">
       <use xlink:href="#DejaVuSans-31"/>
       <use xlink:href="#DejaVuSans-30" transform="translate(63.623047 0)"/>
       <use xlink:href="#DejaVuSans-30" transform="translate(127.246094 0)"/>
       <use xlink:href="#DejaVuSans-30" transform="translate(190.869141 0)"/>
      </g>
     </g>
    </g>
    <g id="ytick_5">
     <g id="line2d_12">
      <g>
       <use xlink:href="#mcc9d41b9de" x="61.924844" y="34.005837" style="stroke: #000000; stroke-width: 0.8"/>
      </g>
     </g>
     <g id="text_13">
      <!-- 2000 -->
      <g transform="translate(32.019844 37.425134) scale(0.09 -0.09)">
       <use xlink:href="#DejaVuSans-32"/>
       <use xlink:href="#DejaVuSans-30" transform="translate(63.623047 0)"/>
       <use xlink:href="#DejaVuSans-30" transform="translate(127.246094 0)"/>
       <use xlink:href="#DejaVuSans-30" transform="translate(190.869141 0)"/>
      </g>
     </g>
    </g>
    <g id="text_14">
     <!-- RW Speed (RPM)  -->
     <g transform="translate(18.398438 118.671406) rotate(-90) scale(0.1 -0.1)">
      <defs>
       <path id="DejaVuSans-52" d="M 2841 2188 
Q 3044 2119 3236 1894 
Q 3428 1669 3622 1275 
L 4263 0 
L 3584 0 
L 2988 1197 
Q 2756 1666 2539 1819 
Q 2322 1972 1947 1972 
L 1259 1972 
L 1259 0 
L 628 0 
L 628 4666 
L 2053 4666 
Q 2853 4666 3247 4331 
Q 3641 3997 3641 3322 
Q 3641 2881 3436 2590 
Q 3231 2300 2841 2188 
z
M 1259 4147 
L 1259 2491 
L 2053 2491 
Q 2509 2491 2742 2702 
Q 2975 2913 2975 3322 
Q 2975 3731 2742 3939 
Q 2509 4147 2053 4147 
L 1259 4147 
z
" transform="scale(0.015625)"/>
       <path id="DejaVuSans-57" d="M 213 4666 
L 850 4666 
L 1831 722 
L 2809 4666 
L 3519 4666 
L 4500 722 
L 5478 4666 
L 6119 4666 
L 4947 0 
L 4153 0 
L 3169 4050 
L 2175 0 
L 1381 0 
L 213 4666 
z
" transform="scale(0.015625)"/>
       <path id="DejaVuSans-53" d="M 3425 4513 
L 3425 3897 
Q 3066 4069 2747 4153 
Q 2428 4238 2131 4238 
Q 1616 4238 1336 4038 
Q 1056 3838 1056 3469 
Q 1056 3159 1242 3001 
Q 1428 2844 1947 2747 
L 2328 2669 
Q 3034 2534 3370 2195 
Q 3706 1856 3706 1288 
Q 3706 609 3251 259 
Q 2797 -91 1919 -91 
Q 1588 -91 1214 -16 
Q 841 59 441 206 
L 441 856 
Q 825 641 1194 531 
Q 1563 422 1919 422 
Q 2459 422 2753 634 
Q 3047 847 3047 1241 
Q 3047 1584 2836 1778 
Q 2625 1972 2144 2069 
L 1759 2144 
Q 1053 2284 737 2584 
Q 422 2884 422 3419 
Q 422 4038 858 4394 
Q 1294 4750 2059 4750 
Q 2388 4750 2728 4690 
Q 3069 4631 3425 4513 
z
" transform="scale(0.015625)"/>
       <path id="DejaVuSans-70" d="M 1159 525 
L 1159 -1331 
L 581 -1331 
L 581 3500 
L 1159 3500 
L 1159 2969 
Q 1341 3281 1617 3432 
Q 1894 3584 2278 3584 
Q 2916 3584 3314 3078 
Q 3713 2572 3713 1747 
Q 3713 922 3314 415 
Q 2916 -91 2278 -91 
Q 1894 -91 1617 61 
Q 1341 213 1159 525 
z
M 3116 1747 
Q 3116 2381 2855 2742 
Q 2594 3103 2138 3103 
Q 1681 3103 1420 2742 
Q 1159 2381 1159 1747 
Q 1159 1113 1420 752 
Q 1681 391 2138 391 
Q 2594 391 2855 752 
Q 3116 1113 3116 1747 
z
" transform="scale(0.015625)"/>
       <path id="DejaVuSans-64" d="M 2906 2969 
L 2906 4863 
L 3481 4863 
L 3481 0 
L 2906 0 
L 2906 525 
Q 2725 213 2448 61 
Q 2172 -91 1784 -91 
Q 1150 -91 751 415 
Q 353 922 353 1747 
Q 353 2572 751 3078 
Q 1150 3584 1784 3584 
Q 2172 3584 2448 3432 
Q 2725 3281 2906 2969 
z
M 947 1747 
Q 947 1113 1208 752 
Q 1469 391 1925 391 
Q 2381 391 2643 752 
Q 2906 1113 2906 1747 
Q 2906 2381 2643 2742 
Q 2381 3103 1925 3103 
Q 1469 3103 1208 2742 
Q 947 2381 947 1747 
z
" transform="scale(0.015625)"/>
       <path id="DejaVuSans-28" d="M 1984 4856 
Q 1566 4138 1362 3434 
Q 1159 2731 1159 2009 
Q 1159 1288 1364 580 
Q 1569 -128 1984 -844 
L 1484 -844 
Q 1016 -109 783 600 
Q 550 1309 550 2009 
Q 550 2706 781 3412 
Q 1013 4119 1484 4856 
L 1984 4856 
z
" transform="scale(0.015625)"/>
       <path id="DejaVuSans-50" d="M 1259 4147 
L 1259 2394 
L 2053 2394 
Q 2494 2394 2734 2622 
Q 2975 2850 2975 3272 
Q 2975 3691 2734 3919 
Q 2494 4147 2053 4147 
L 1259 4147 
z
M 628 4666 
L 2053 4666 
Q 2838 4666 3239 4311 
Q 3641 3956 3641 3272 
Q 3641 2581 3239 2228 
Q 2838 1875 2053 1875 
L 1259 1875 
L 1259 0 
L 628 0 
L 628 4666 
z
" transform="scale(0.015625)"/>
       <path id="DejaVuSans-4d" d="M 628 4666 
L 1569 4666 
L 2759 1491 
L 3956 4666 
L 4897 4666 
L 4897 0 
L 4281 0 
L 4281 4097 
L 3078 897 
L 2444 897 
L 1241 4097 
L 1241 0 
L 628 0 
L 628 4666 
z
" transform="scale(0.015625)"/>
       <path id="DejaVuSans-29" d="M 513 4856 
L 1013 4856 
Q 1481 4119 1714 3412 
Q 1947 2706 1947 2009 
Q 1947 1309 1714 600 
Q 1481 -109 1013 -844 
L 513 -844 
Q 928 -128 1133 580 
Q 1338 1288 1338 2009 
Q 1338 2731 1133 3434 
Q 928 4138 513 4856 
z
" transform="scale(0.015625)"/>
      </defs>
      <use xlink:href="#DejaVuSans-52"/>
      <use xlink:href="#DejaVuSans-57" transform="translate(65.482422 0)"/>
      <use xlink:href="#DejaVuSans-20" transform="translate(164.359375 0)"/>
      <use xlink:href="#DejaVuSans-53" transform="translate(196.146484 0)"/>
      <use xlink:href="#DejaVuSans-70" transform="translate(259.623047 0)"/>
      <use xlink:href="#DejaVuSans-65" transform="translate(323.099609 0)"/>
      <use xlink:href="#DejaVuSans-65" transform="translate(384.623047 0)"/>
      <use xlink:href="#DejaVuSans-64" transform="translate(446.146484 0)"/>
      <use xlink:href="#DejaVuSans-20" transform="translate(509.623047 0)"/>
      <use xlink:href="#DejaVuSans-28" transform="translate(541.410156 0)"/>
      <use xlink:href="#DejaVuSans-52" transform="translate(580.423828 0)"/>
      <use xlink:href="#DejaVuSans-50" transform="translate(649.90625 0)"/>
      <use xlink:href="#DejaVuSans-4d" transform="translate(710.208984 0)"/>
      <use xlink:href="#DejaVuSans-29" transform="translate(796.488281 0)"/>
      <use xlink:href="#DejaVuSans-20" transform="translate(835.501953 0)"/>
     </g>
    </g>
   </g>
   <g id="line2d_13">
    <path d="M 77.437351 84.791044 
L 78.195782 82.10574 
L 78.247493 82.288825 
L 85.917993 109.044135 
L 86.348919 109.675135 
L 86.693661 109.835513 
L 87.003928 109.732514 
L 87.34867 109.358264 
L 87.779597 108.530388 
L 88.331183 106.936159 
L 91.451094 95.896955 
L 108.550274 35.763425 
L 109.256994 34.300948 
L 109.894766 33.451943 
L 110.498064 32.998449 
L 111.084124 32.833186 
L 111.687422 32.899841 
L 112.376905 33.215476 
L 113.169811 33.835883 
L 114.307458 35.116807 
L 116.203536 37.642093 
L 119.323447 41.759606 
L 121.150577 43.78701 
L 122.839811 45.333149 
L 124.511807 46.564398 
L 126.269989 47.58123 
L 128.200541 48.437834 
L 130.475836 49.196253 
L 133.285479 49.889079 
L 136.732894 50.504963 
L 140.387155 50.935149 
L 143.972467 51.134624 
L 147.643964 51.114132 
L 155.590256 50.731781 
L 160.726905 50.269677 
L 168.880042 49.563922 
L 174.999205 49.28089 
L 180.894285 49.215705 
L 182.307725 50.29502 
L 183.755639 51.120299 
L 185.289739 51.737487 
L 187.030684 52.192853 
L 189.202556 52.518106 
L 200.165336 53.807215 
L 204.974481 54.592447 
L 210.800613 55.783891 
L 219.901789 57.899341 
L 232.674463 61.086906 
L 236.983732 62.367825 
L 253.651985 67.063968 
L 258.185336 68.527823 
L 284.316744 76.577279 
L 304.828866 83.328084 
L 308.862342 84.845009 
L 310.120648 84.84191 
L 310.34473 84.851038 
L 310.499864 84.843756 
L 316.394944 84.843779 
L 316.601789 84.841383 
L 316.843108 84.85061 
L 317.06719 84.837198 
L 317.291272 84.846279 
L 317.515354 84.841016 
L 317.756673 84.849771 
L 318.015229 84.836865 
L 318.239311 84.850388 
L 318.515104 84.840111 
L 318.721949 84.845502 
L 319.01498 84.839128 
L 319.221825 84.852745 
L 319.566566 84.83746 
L 319.756174 84.847213 
L 320.13539 84.838434 
L 320.30776 84.843059 
L 320.704213 84.84574 
L 321.117903 84.837959 
L 321.273037 84.840587 
L 321.755675 84.837561 
L 321.928046 84.844437 
L 322.617529 84.837912 
L 322.789899 84.855162 
L 323.858598 84.851827 
L 326.582056 84.862026 
L 327.512858 84.866312 
L 327.685229 84.858814 
L 328.305764 84.864926 
L 328.460898 84.860186 
L 328.995247 84.865363 
L 329.167618 84.850479 
L 329.68473 84.867665 
L 329.857101 84.857232 
L 330.305265 84.867961 
L 330.477636 84.861254 
L 330.874088 84.867757 
L 331.063696 84.850946 
L 331.477386 84.86792 
L 331.666994 84.854361 
L 332.04621 84.866736 
L 332.235817 84.85593 
L 332.597796 84.867629 
L 332.787404 84.859197 
L 333.114908 84.863176 
L 333.304516 84.856844 
L 333.632021 84.864081 
L 333.821628 84.859432 
L 334.131896 84.862917 
L 334.321504 84.859743 
L 334.631771 84.865469 
L 334.838616 84.85161 
L 335.16612 84.865859 
L 335.372965 84.853202 
L 335.70047 84.869086 
L 335.907315 84.857325 
L 336.200345 84.867962 
L 336.40719 84.856859 
L 336.717457 84.866626 
L 336.924302 84.858022 
L 337.217333 84.8629 
L 337.424177 84.85241 
L 337.734445 84.864177 
L 337.94129 84.853674 
L 338.251557 84.865237 
L 338.458402 84.854462 
L 338.768669 84.866082 
L 338.975514 84.854895 
L 339.285782 84.865147 
L 339.492627 84.853303 
L 339.820131 84.869023 
L 340.026976 84.856295 
L 340.337243 84.864029 
L 340.526851 84.862151 
L 340.837119 84.868216 
L 341.043964 84.853364 
L 341.371468 84.863781 
L 341.561076 84.859589 
L 341.88858 84.86769 
L 342.078188 84.861989 
L 342.405693 84.867478 
L 342.5953 84.860264 
L 342.922805 84.863146 
L 343.112413 84.854263 
L 343.474391 84.865575 
L 343.663999 84.85483 
L 344.043215 84.867885 
L 344.232823 84.854978 
L 344.612038 84.863631 
L 344.784409 84.861605 
L 345.163625 84.865822 
L 345.335996 84.861679 
L 345.732448 84.866131 
L 345.904819 84.859766 
L 346.318509 84.86353 
L 346.49088 84.854817 
L 346.956281 84.865962 
L 347.128652 84.854502 
L 347.559579 84.865523 
L 347.731949 84.851359 
L 348.266299 84.863135 
L 348.800648 84.867404 
L 348.990256 84.851079 
L 349.541842 84.86647 
L 349.714213 84.861562 
L 350.2658 84.866114 
L 350.43817 84.857841 
L 351.093179 84.866404 
L 351.26555 84.854175 
L 352.075693 84.866111 
L 352.248063 84.849149 
L 353.299525 84.866468 
L 353.454659 84.86073 
L 354.91981 84.863844 
L 357.384712 84.846905 
L 362.211094 84.838411 
L 362.383464 84.853989 
L 363.331504 84.839389 
L 363.503874 84.851868 
L 364.348491 84.83744 
L 364.520862 84.847511 
L 365.262056 84.838928 
L 365.434427 84.847055 
L 366.12391 84.839707 
L 366.296281 84.846252 
L 366.95129 84.839417 
L 367.12366 84.844636 
L 367.744195 84.83969 
L 367.916566 84.843869 
L 368.468152 84.838616 
L 368.640523 84.842051 
L 369.226584 84.837916 
L 369.398955 84.84067 
L 369.967778 84.838029 
L 370.140149 84.840312 
L 370.691735 84.839856 
L 370.864106 84.841835 
L 371.43293 84.837118 
L 371.588063 84.842433 
L 372.156887 84.837391 
L 372.312021 84.842687 
L 372.880844 84.837909 
L 373.070452 84.854706 
L 373.708224 84.836785 
L 373.897832 84.853956 
L 374.535603 84.837504 
L 374.707974 84.840227 
L 375.276798 84.839148 
L 375.449168 84.84243 
L 376.052466 84.836848 
L 376.224837 84.84085 
L 376.828135 84.837963 
L 377.000505 84.842813 
L 377.638277 84.83693 
L 377.810648 84.84274 
L 378.465657 84.837714 
L 378.638028 84.844677 
L 379.327511 84.838522 
L 379.499882 84.846798 
L 380.241076 84.837954 
L 380.413447 84.847721 
L 381.10293 84.853118 
L 381.844124 84.837852 
L 382.016495 84.850448 
L 382.792163 84.83812 
L 382.964534 84.85255 
L 383.912573 84.838613 
L 384.084944 84.85528 
L 385.084694 84.838024 
L 385.239828 84.840494 
L 386.222341 84.838576 
L 386.377475 84.843141 
L 387.58407 84.83833 
L 387.687493 84.849127 
L 387.687493 84.849127 
" clip-path="url(#p83a5614fe6)" style="fill: none; stroke: #225e7c; stroke-width: 1.5; stroke-linecap: square"/>
   </g>
   <g id="line2d_14">
    <path d="M 77.437351 84.791046 
L 78.195782 82.105799 
L 78.247493 82.288887 
L 84.004677 102.293562 
L 84.349419 102.682464 
L 84.607975 102.686573 
L 84.883768 102.435595 
L 85.228509 101.774567 
L 85.693911 100.330597 
L 106.68867 26.422282 
L 107.360916 25.059851 
L 107.946976 24.3331 
L 108.464089 24.020459 
L 108.946727 23.977792 
L 109.446602 24.160334 
L 110.015426 24.616799 
L 110.704909 25.477447 
L 111.549525 26.912813 
L 112.635461 29.232663 
L 114.169561 33.095898 
L 118.961468 45.518023 
L 120.443857 48.573267 
L 121.736638 50.753921 
L 122.925996 52.343648 
L 124.046406 53.483155 
L 125.115105 54.265455 
L 126.183804 54.776855 
L 127.269739 55.051474 
L 128.424623 55.112848 
L 129.717404 54.953412 
L 131.268741 54.526151 
L 133.371664 53.694764 
L 140.318206 50.783103 
L 142.83482 50.064734 
L 145.351433 49.578694 
L 148.057654 49.285938 
L 151.14309 49.181709 
L 155.779864 49.284288 
L 165.156834 49.749529 
L 178.567279 50.35988 
L 182.566281 50.379368 
L 184.686442 50.098181 
L 187.272003 49.520648 
L 191.06416 48.41963 
L 200.682449 45.541114 
L 205.233037 44.504944 
L 212.317475 43.159142 
L 222.487351 41.175389 
L 233.743162 38.711663 
L 242.413411 36.575378 
L 251.428402 34.193301 
L 262.666976 31.050412 
L 278.059686 26.77563 
L 307.207582 18.725268 
L 311.947778 17.42764 
L 314.757422 16.938058 
L 317.429169 16.699386 
L 320.083678 16.684182 
L 322.876085 16.889425 
L 326.064944 17.353052 
L 330.063946 18.169451 
L 344.698224 21.361001 
L 349.248812 22.008158 
L 354.040719 22.458123 
L 359.608295 22.740145 
L 367.899329 22.899793 
L 378.775924 23.149203 
L 386.118919 23.55979 
L 387.687493 23.677368 
L 387.687493 23.677368 
" clip-path="url(#p83a5614fe6)" style="fill: none; stroke: #3e915b; stroke-width: 1.5; stroke-linecap: square"/>
   </g>
   <g id="line2d_15">
    <path d="M 77.437351 84.791046 
L 78.195782 82.105809 
L 78.247493 82.288897 
L 81.74662 94.285148 
L 82.091362 94.685978 
L 82.367155 94.709051 
L 82.642948 94.488054 
L 83.004927 93.861806 
L 83.470328 92.564181 
L 85.469829 85.496915 
L 91.70965 63.806399 
L 92.468082 62.153886 
L 93.123091 61.211901 
L 93.709151 60.727084 
L 94.243501 60.560433 
L 94.760613 60.631817 
L 95.312199 60.940801 
L 95.949971 61.570381 
L 96.708403 62.655229 
L 97.639205 64.408214 
L 98.811326 67.131445 
L 100.431611 71.517916 
L 105.533786 85.724086 
L 106.947226 88.831411 
L 107.998688 90.644005 
L 108.877779 91.744407 
L 109.670684 92.403637 
L 110.429115 92.756179 
L 111.187547 92.866486 
L 111.997689 92.757636 
L 112.945729 92.394761 
L 114.152324 91.675764 
L 116.013928 90.273126 
L 121.305711 86.192318 
L 125.080631 83.646527 
L 129.096869 81.190913 
L 132.027173 79.645241 
L 134.423126 78.625158 
L 136.594998 77.937256 
L 138.680684 77.507108 
L 140.783607 77.300063 
L 143.00719 77.307648 
L 145.472092 77.543341 
L 148.471344 78.064187 
L 153.056406 79.115945 
L 163.777868 81.633104 
L 168.380167 82.417221 
L 173.55129 83.063412 
L 180.963233 83.740664 
L 183.445372 84.06372 
L 185.634481 84.57723 
L 188.047672 85.379998 
L 191.305479 86.719525 
L 205.939757 93.009011 
L 212.248527 95.304149 
L 220.298242 97.98234 
L 241.551557 104.93461 
L 250.273518 108.166128 
L 261.512092 112.60213 
L 275.353465 118.089096 
L 292.452645 124.553061 
L 314.257547 132.596496 
L 317.049953 133.274459 
L 319.756174 133.70354 
L 322.531343 133.918151 
L 325.513358 133.922807 
L 328.874587 133.700762 
L 333.028723 133.191212 
L 349.248812 130.958337 
L 353.62703 130.730333 
L 358.108669 130.722737 
L 363.159133 130.941634 
L 370.140149 131.487899 
L 382.585318 132.469132 
L 387.687493 132.696908 
L 387.687493 132.696908 
" clip-path="url(#p83a5614fe6)" style="fill: none; stroke: #8eac56; stroke-width: 1.5; stroke-linecap: square"/>
   </g>
   <g id="line2d_16">
    <path d="M 77.437351 84.791045 
L 78.195782 82.10575 
L 78.247493 82.288835 
L 83.056638 98.915447 
L 83.815069 100.532643 
L 84.539026 101.587542 
L 85.211272 102.191081 
L 85.831807 102.464815 
L 86.538527 102.529818 
L 87.6417 102.375144 
L 89.124089 102.208847 
L 90.158313 102.329312 
L 91.089116 102.660429 
L 92.054392 103.252493 
L 93.140328 104.191182 
L 94.450345 105.637304 
L 96.260239 108.005229 
L 99.67318 112.509781 
L 101.034909 113.905702 
L 102.155319 114.750418 
L 103.137832 115.226284 
L 104.051397 115.428382 
L 104.930488 115.396461 
L 105.809579 115.141485 
L 106.757618 114.625202 
L 107.843554 113.767301 
L 108.998438 112.57136 
L 110.136085 111.063914 
L 111.377155 109.033675 
L 112.87678 106.122134 
L 115.152074 101.147503 
L 118.168563 94.656503 
L 119.909508 91.436323 
L 121.42637 89.076706 
L 122.839811 87.27594 
L 124.184303 85.912577 
L 125.49432 84.891325 
L 126.804338 84.144953 
L 128.14883 83.630705 
L 129.579508 83.32249 
L 131.148082 83.216541 
L 132.940738 83.324519 
L 135.16432 83.693475 
L 138.456602 84.49142 
L 144.972217 86.090404 
L 148.31621 86.654508 
L 151.505069 86.966751 
L 154.50432 87.044488 
L 157.951736 86.901605 
L 162.226531 86.491943 
L 168.207796 85.676273 
L 183.824588 83.236277 
L 191.650221 81.218405 
L 197.717671 79.554457 
L 202.475105 78.01341 
L 208.04268 75.960738 
L 236.363197 65.179632 
L 250.221807 59.850587 
L 259.219561 56.125713 
L 275.250042 49.128584 
L 312.913055 32.601712 
L 316.36047 31.467685 
L 319.928545 30.528204 
L 323.565568 29.798871 
L 327.288776 29.279689 
L 331.253304 28.957278 
L 335.821129 28.821003 
L 342.474641 28.873546 
L 351.937796 28.922494 
L 357.608794 28.720865 
L 363.210844 28.304194 
L 369.571325 27.605648 
L 380.947796 26.084785 
L 387.687493 25.230573 
L 387.687493 25.230573 
" clip-path="url(#p83a5614fe6)" style="fill: none; stroke: #c4a46f; stroke-width: 1.5; stroke-linecap: square"/>
   </g>
   <g id="patch_3">
    <path d="M 61.924844 139.811563 
L 61.924844 10.8 
" style="fill: none; stroke: #000000; stroke-width: 0.8; stroke-linejoin: miter; stroke-linecap: square"/>
   </g>
   <g id="patch_4">
    <path d="M 403.2 139.811563 
L 403.2 10.8 
" style="fill: none; stroke: #000000; stroke-width: 0.8; stroke-linejoin: miter; stroke-linecap: square"/>
   </g>
   <g id="patch_5">
    <path d="M 61.924844 139.811563 
L 403.2 139.811563 
" style="fill: none; stroke: #000000; stroke-width: 0.8; stroke-linejoin: miter; stroke-linecap: square"/>
   </g>
   <g id="patch_6">
    <path d="M 61.924844 10.8 
L 403.2 10.8 
" style="fill: none; stroke: #000000; stroke-width: 0.8; stroke-linejoin: miter; stroke-linecap: square"/>
   </g>
   <g id="legend_1">
    <g id="patch_7">
     <path d="M 356.85 70.84125 
L 396.9 70.84125 
Q 398.7 70.84125 398.7 69.04125 
L 398.7 17.1 
Q 398.7 15.3 396.9 15.3 
L 356.85 15.3 
Q 355.05 15.3 355.05 17.1 
L 355.05 69.04125 
Q 355.05 70.84125 356.85 70.84125 
z
" style="fill: #ffffff; opacity: 0.8; stroke: #cccccc; stroke-linejoin: miter"/>
    </g>
    <g id="line2d_17">
     <path d="M 358.65 22.588594 
L 367.65 22.588594 
L 376.65 22.588594 
" style="fill: none; stroke: #225e7c; stroke-width: 1.5; stroke-linecap: square"/>
    </g>
    <g id="text_15">
     <!-- $\Omega_{0}$ -->
     <g transform="translate(383.85 25.738594) scale(0.09 -0.09)">
      <defs>
       <path id="DejaVuSans-3a9" d="M 4647 556 
L 4647 0 
L 2772 0 
L 2772 556 
Q 3325 859 3634 1378 
Q 3944 1897 3944 2528 
Q 3944 3278 3531 3731 
Q 3119 4184 2444 4184 
Q 1769 4184 1355 3729 
Q 941 3275 941 2528 
Q 941 1897 1250 1378 
Q 1563 859 2119 556 
L 2119 0 
L 244 0 
L 244 556 
L 1241 556 
Q 747 991 519 1456 
Q 294 1922 294 2497 
Q 294 3491 894 4106 
Q 1491 4722 2444 4722 
Q 3391 4722 3994 4106 
Q 4594 3494 4594 2528 
Q 4594 1922 4372 1459 
Q 4150 997 3647 556 
L 4647 556 
z
" transform="scale(0.015625)"/>
      </defs>
      <use xlink:href="#DejaVuSans-3a9" transform="translate(0 0.21875)"/>
      <use xlink:href="#DejaVuSans-30" transform="translate(77.373047 -16.1875) scale(0.7)"/>
     </g>
    </g>
    <g id="line2d_18">
     <path d="M 358.65 35.798906 
L 367.65 35.798906 
L 376.65 35.798906 
" style="fill: none; stroke: #3e915b; stroke-width: 1.5; stroke-linecap: square"/>
    </g>
    <g id="text_16">
     <!-- $\Omega_{1}$ -->
     <g transform="translate(383.85 38.948906) scale(0.09 -0.09)">
      <use xlink:href="#DejaVuSans-3a9" transform="translate(0 0.21875)"/>
      <use xlink:href="#DejaVuSans-31" transform="translate(77.373047 -16.1875) scale(0.7)"/>
     </g>
    </g>
    <g id="line2d_19">
     <path d="M 358.65 49.009219 
L 367.65 49.009219 
L 376.65 49.009219 
" style="fill: none; stroke: #8eac56; stroke-width: 1.5; stroke-linecap: square"/>
    </g>
    <g id="text_17">
     <!-- $\Omega_{2}$ -->
     <g transform="translate(383.85 52.159219) scale(0.09 -0.09)">
      <use xlink:href="#DejaVuSans-3a9" transform="translate(0 0.21875)"/>
      <use xlink:href="#DejaVuSans-32" transform="translate(77.373047 -16.1875) scale(0.7)"/>
     </g>
    </g>
    <g id="line2d_20">
     <path d="M 358.65 62.219531 
L 367.65 62.219531 
L 376.65 62.219531 
" style="fill: none; stroke: #c4a46f; stroke-width: 1.5; stroke-linecap: square"/>
    </g>
    <g id="text_18">
     <!-- $\Omega_{3}$ -->
     <g transform="translate(383.85 65.369531) scale(0.09 -0.09)">
      <use xlink:href="#DejaVuSans-3a9" transform="translate(0 0.21875)"/>
      <use xlink:href="#DejaVuSans-33" transform="translate(77.373047 -16.1875) scale(0.7)"/>
     </g>
    </g>
   </g>
  </g>
 </g>
 <defs>
  <clipPath id="p83a5614fe6">
   <rect x="61.924844" y="10.8" width="341.275156" height="129.011562"/>
  </clipPath>
 </defs>
</svg>
