<?xml version="1.0" encoding="utf-8" standalone="no"?>
<!DOCTYPE svg PUBLIC "-//W3C//DTD SVG 1.1//EN"
  "http://www.w3.org/Graphics/SVG/1.1/DTD/svg11.dtd">
<svg xmlns:xlink="http://www.w3.org/1999/xlink" width="360pt" height="288pt" viewBox="0 0 360 288" xmlns="http://www.w3.org/2000/svg" version="1.1">
 <metadata>
  <rdf:RDF xmlns:dc="http://purl.org/dc/elements/1.1/" xmlns:cc="http://creativecommons.org/ns#" xmlns:rdf="http://www.w3.org/1999/02/22-rdf-syntax-ns#">
   <cc:Work>
    <dc:type rdf:resource="http://purl.org/dc/dcmitype/StillImage"/>
    <dc:date>2025-06-06T22:54:25.413478</dc:date>
    <dc:format>image/svg+xml</dc:format>
    <dc:creator>
     <cc:Agent>
      <dc:title>Matplotlib v3.10.1, https://matplotlib.org/</dc:title>
     </cc:Agent>
    </dc:creator>
   </cc:Work>
  </rdf:RDF>
 </metadata>
 <defs>
  <style type="text/css">*{stroke-linejoin: round; stroke-linecap: butt}</style>
 </defs>
 <g id="figure_1">
  <g id="patch_1">
   <path d="M 0 288 
L 360 288 
L 360 0 
L 0 0 
L 0 288 
z
" style="fill: none"/>
  </g>
  <g id="axes_1">
   <g id="patch_2">
    <path d="M 55.065625 241.036875 
L 349.2 241.036875 
L 349.2 25.9575 
L 55.065625 25.9575 
L 55.065625 241.036875 
z
" style="fill: none"/>
   </g>
   <g id="matplotlib.axis_1">
    <g id="xtick_1">
     <g id="line2d_1">
      <defs>
       <path id="m9164fa320a" d="M 0 0 
L 0 3.5 
" style="stroke: #000000; stroke-width: 0.8"/>
      </defs>
      <g>
       <use xlink:href="#m9164fa320a" x="68.435369" y="241.036875" style="stroke: #000000; stroke-width: 0.8"/>
      </g>
     </g>
     <g id="text_1">
      <!-- 0 -->
      <g transform="translate(63.345369 260.194375) scale(0.16 -0.16)">
       <defs>
        <path id="DejaVuSans-30" d="M 2034 4250 
Q 1547 4250 1301 3770 
Q 1056 3291 1056 2328 
Q 1056 1369 1301 889 
Q 1547 409 2034 409 
Q 2525 409 2770 889 
Q 3016 1369 3016 2328 
Q 3016 3291 2770 3770 
Q 2525 4250 2034 4250 
z
M 2034 4750 
Q 2819 4750 3233 4129 
Q 3647 3509 3647 2328 
Q 3647 1150 3233 529 
Q 2819 -91 2034 -91 
Q 1250 -91 836 529 
Q 422 1150 422 2328 
Q 422 3509 836 4129 
Q 1250 4750 2034 4750 
z
" transform="scale(0.015625)"/>
       </defs>
       <use xlink:href="#DejaVuSans-30"/>
      </g>
     </g>
    </g>
    <g id="xtick_2">
     <g id="line2d_2">
      <g>
       <use xlink:href="#m9164fa320a" x="166.436061" y="241.036875" style="stroke: #000000; stroke-width: 0.8"/>
      </g>
     </g>
     <g id="text_2">
      <!-- 500 -->
      <g transform="translate(151.166061 260.194375) scale(0.16 -0.16)">
       <defs>
        <path id="DejaVuSans-35" d="M 691 4666 
L 3169 4666 
L 3169 4134 
L 1269 4134 
L 1269 2991 
Q 1406 3038 1543 3061 
Q 1681 3084 1819 3084 
Q 2600 3084 3056 2656 
Q 3513 2228 3513 1497 
Q 3513 744 3044 326 
Q 2575 -91 1722 -91 
Q 1428 -91 1123 -41 
Q 819 9 494 109 
L 494 744 
Q 775 591 1075 516 
Q 1375 441 1709 441 
Q 2250 441 2565 725 
Q 2881 1009 2881 1497 
Q 2881 1984 2565 2268 
Q 2250 2553 1709 2553 
Q 1456 2553 1204 2497 
Q 953 2441 691 2322 
L 691 4666 
z
" transform="scale(0.015625)"/>
       </defs>
       <use xlink:href="#DejaVuSans-35"/>
       <use xlink:href="#DejaVuSans-30" transform="translate(63.623047 0)"/>
       <use xlink:href="#DejaVuSans-30" transform="translate(127.246094 0)"/>
      </g>
     </g>
    </g>
    <g id="xtick_3">
     <g id="line2d_3">
      <g>
       <use xlink:href="#m9164fa320a" x="264.436752" y="241.036875" style="stroke: #000000; stroke-width: 0.8"/>
      </g>
     </g>
     <g id="text_3">
      <!-- 1000 -->
      <g transform="translate(244.076752 260.194375) scale(0.16 -0.16)">
       <defs>
        <path id="DejaVuSans-31" d="M 794 531 
L 1825 531 
L 1825 4091 
L 703 3866 
L 703 4441 
L 1819 4666 
L 2450 4666 
L 2450 531 
L 3481 531 
L 3481 0 
L 794 0 
L 794 531 
z
" transform="scale(0.015625)"/>
       </defs>
       <use xlink:href="#DejaVuSans-31"/>
       <use xlink:href="#DejaVuSans-30" transform="translate(63.623047 0)"/>
       <use xlink:href="#DejaVuSans-30" transform="translate(127.246094 0)"/>
       <use xlink:href="#DejaVuSans-30" transform="translate(190.869141 0)"/>
      </g>
     </g>
    </g>
    <g id="text_4">
     <!-- Time (s) -->
     <g transform="translate(181.803906 275.120313) scale(0.1 -0.1)">
      <defs>
       <path id="DejaVuSans-54" d="M -19 4666 
L 3928 4666 
L 3928 4134 
L 2272 4134 
L 2272 0 
L 1638 0 
L 1638 4134 
L -19 4134 
L -19 4666 
z
" transform="scale(0.015625)"/>
       <path id="DejaVuSans-69" d="M 603 3500 
L 1178 3500 
L 1178 0 
L 603 0 
L 603 3500 
z
M 603 4863 
L 1178 4863 
L 1178 4134 
L 603 4134 
L 603 4863 
z
" transform="scale(0.015625)"/>
       <path id="DejaVuSans-6d" d="M 3328 2828 
Q 3544 3216 3844 3400 
Q 4144 3584 4550 3584 
Q 5097 3584 5394 3201 
Q 5691 2819 5691 2113 
L 5691 0 
L 5113 0 
L 5113 2094 
Q 5113 2597 4934 2840 
Q 4756 3084 4391 3084 
Q 3944 3084 3684 2787 
Q 3425 2491 3425 1978 
L 3425 0 
L 2847 0 
L 2847 2094 
Q 2847 2600 2669 2842 
Q 2491 3084 2119 3084 
Q 1678 3084 1418 2786 
Q 1159 2488 1159 1978 
L 1159 0 
L 581 0 
L 581 3500 
L 1159 3500 
L 1159 2956 
Q 1356 3278 1631 3431 
Q 1906 3584 2284 3584 
Q 2666 3584 2933 3390 
Q 3200 3197 3328 2828 
z
" transform="scale(0.015625)"/>
       <path id="DejaVuSans-65" d="M 3597 1894 
L 3597 1613 
L 953 1613 
Q 991 1019 1311 708 
Q 1631 397 2203 397 
Q 2534 397 2845 478 
Q 3156 559 3463 722 
L 3463 178 
Q 3153 47 2828 -22 
Q 2503 -91 2169 -91 
Q 1331 -91 842 396 
Q 353 884 353 1716 
Q 353 2575 817 3079 
Q 1281 3584 2069 3584 
Q 2775 3584 3186 3129 
Q 3597 2675 3597 1894 
z
M 3022 2063 
Q 3016 2534 2758 2815 
Q 2500 3097 2075 3097 
Q 1594 3097 1305 2825 
Q 1016 2553 972 2059 
L 3022 2063 
z
" transform="scale(0.015625)"/>
       <path id="DejaVuSans-20" transform="scale(0.015625)"/>
       <path id="DejaVuSans-28" d="M 1984 4856 
Q 1566 4138 1362 3434 
Q 1159 2731 1159 2009 
Q 1159 1288 1364 580 
Q 1569 -128 1984 -844 
L 1484 -844 
Q 1016 -109 783 600 
Q 550 1309 550 2009 
Q 550 2706 781 3412 
Q 1013 4119 1484 4856 
L 1984 4856 
z
" transform="scale(0.015625)"/>
       <path id="DejaVuSans-73" d="M 2834 3397 
L 2834 2853 
Q 2591 2978 2328 3040 
Q 2066 3103 1784 3103 
Q 1356 3103 1142 2972 
Q 928 2841 928 2578 
Q 928 2378 1081 2264 
Q 1234 2150 1697 2047 
L 1894 2003 
Q 2506 1872 2764 1633 
Q 3022 1394 3022 966 
Q 3022 478 2636 193 
Q 2250 -91 1575 -91 
Q 1294 -91 989 -36 
Q 684 19 347 128 
L 347 722 
Q 666 556 975 473 
Q 1284 391 1588 391 
Q 1994 391 2212 530 
Q 2431 669 2431 922 
Q 2431 1156 2273 1281 
Q 2116 1406 1581 1522 
L 1381 1569 
Q 847 1681 609 1914 
Q 372 2147 372 2553 
Q 372 3047 722 3315 
Q 1072 3584 1716 3584 
Q 2034 3584 2315 3537 
Q 2597 3491 2834 3397 
z
" transform="scale(0.015625)"/>
       <path id="DejaVuSans-29" d="M 513 4856 
L 1013 4856 
Q 1481 4119 1714 3412 
Q 1947 2706 1947 2009 
Q 1947 1309 1714 600 
Q 1481 -109 1013 -844 
L 513 -844 
Q 928 -128 1133 580 
Q 1338 1288 1338 2009 
Q 1338 2731 1133 3434 
Q 928 4138 513 4856 
z
" transform="scale(0.015625)"/>
      </defs>
      <use xlink:href="#DejaVuSans-54"/>
      <use xlink:href="#DejaVuSans-69" transform="translate(57.958984 0)"/>
      <use xlink:href="#DejaVuSans-6d" transform="translate(85.742188 0)"/>
      <use xlink:href="#DejaVuSans-65" transform="translate(183.154297 0)"/>
      <use xlink:href="#DejaVuSans-20" transform="translate(244.677734 0)"/>
      <use xlink:href="#DejaVuSans-28" transform="translate(276.464844 0)"/>
      <use xlink:href="#DejaVuSans-73" transform="translate(315.478516 0)"/>
      <use xlink:href="#DejaVuSans-29" transform="translate(367.578125 0)"/>
     </g>
    </g>
   </g>
   <g id="matplotlib.axis_2">
    <g id="ytick_1">
     <g id="line2d_4">
      <defs>
       <path id="mc36e5835af" d="M 0 0 
L -3.5 0 
" style="stroke: #000000; stroke-width: 0.8"/>
      </defs>
      <g>
       <use xlink:href="#mc36e5835af" x="55.065625" y="177.994676" style="stroke: #000000; stroke-width: 0.8"/>
      </g>
     </g>
     <g id="text_5">
      <!-- −5 -->
      <g transform="translate(24.478125 184.073426) scale(0.16 -0.16)">
       <defs>
        <path id="DejaVuSans-2212" d="M 678 2272 
L 4684 2272 
L 4684 1741 
L 678 1741 
L 678 2272 
z
" transform="scale(0.015625)"/>
       </defs>
       <use xlink:href="#DejaVuSans-2212"/>
       <use xlink:href="#DejaVuSans-35" transform="translate(83.789062 0)"/>
      </g>
     </g>
    </g>
    <g id="ytick_2">
     <g id="line2d_5">
      <g>
       <use xlink:href="#mc36e5835af" x="55.065625" y="110.280612" style="stroke: #000000; stroke-width: 0.8"/>
      </g>
     </g>
     <g id="text_6">
      <!-- 0 -->
      <g transform="translate(37.885625 116.359362) scale(0.16 -0.16)">
       <use xlink:href="#DejaVuSans-30"/>
      </g>
     </g>
    </g>
    <g id="ytick_3">
     <g id="line2d_6">
      <g>
       <use xlink:href="#mc36e5835af" x="55.065625" y="42.566548" style="stroke: #000000; stroke-width: 0.8"/>
      </g>
     </g>
     <g id="text_7">
      <!-- 5 -->
      <g transform="translate(37.885625 48.645298) scale(0.16 -0.16)">
       <use xlink:href="#DejaVuSans-35"/>
      </g>
     </g>
    </g>
    <g id="text_8">
     <!-- Relative Orbital Energy Variation -->
     <g transform="translate(18.398438 215.085469) rotate(-90) scale(0.1 -0.1)">
      <defs>
       <path id="DejaVuSans-52" d="M 2841 2188 
Q 3044 2119 3236 1894 
Q 3428 1669 3622 1275 
L 4263 0 
L 3584 0 
L 2988 1197 
Q 2756 1666 2539 1819 
Q 2322 1972 1947 1972 
L 1259 1972 
L 1259 0 
L 628 0 
L 628 4666 
L 2053 4666 
Q 2853 4666 3247 4331 
Q 3641 3997 3641 3322 
Q 3641 2881 3436 2590 
Q 3231 2300 2841 2188 
z
M 1259 4147 
L 1259 2491 
L 2053 2491 
Q 2509 2491 2742 2702 
Q 2975 2913 2975 3322 
Q 2975 3731 2742 3939 
Q 2509 4147 2053 4147 
L 1259 4147 
z
" transform="scale(0.015625)"/>
       <path id="DejaVuSans-6c" d="M 603 4863 
L 1178 4863 
L 1178 0 
L 603 0 
L 603 4863 
z
" transform="scale(0.015625)"/>
       <path id="DejaVuSans-61" d="M 2194 1759 
Q 1497 1759 1228 1600 
Q 959 1441 959 1056 
Q 959 750 1161 570 
Q 1363 391 1709 391 
Q 2188 391 2477 730 
Q 2766 1069 2766 1631 
L 2766 1759 
L 2194 1759 
z
M 3341 1997 
L 3341 0 
L 2766 0 
L 2766 531 
Q 2569 213 2275 61 
Q 1981 -91 1556 -91 
Q 1019 -91 701 211 
Q 384 513 384 1019 
Q 384 1609 779 1909 
Q 1175 2209 1959 2209 
L 2766 2209 
L 2766 2266 
Q 2766 2663 2505 2880 
Q 2244 3097 1772 3097 
Q 1472 3097 1187 3025 
Q 903 2953 641 2809 
L 641 3341 
Q 956 3463 1253 3523 
Q 1550 3584 1831 3584 
Q 2591 3584 2966 3190 
Q 3341 2797 3341 1997 
z
" transform="scale(0.015625)"/>
       <path id="DejaVuSans-74" d="M 1172 4494 
L 1172 3500 
L 2356 3500 
L 2356 3053 
L 1172 3053 
L 1172 1153 
Q 1172 725 1289 603 
Q 1406 481 1766 481 
L 2356 481 
L 2356 0 
L 1766 0 
Q 1100 0 847 248 
Q 594 497 594 1153 
L 594 3053 
L 172 3053 
L 172 3500 
L 594 3500 
L 594 4494 
L 1172 4494 
z
" transform="scale(0.015625)"/>
       <path id="DejaVuSans-76" d="M 191 3500 
L 800 3500 
L 1894 563 
L 2988 3500 
L 3597 3500 
L 2284 0 
L 1503 0 
L 191 3500 
z
" transform="scale(0.015625)"/>
       <path id="DejaVuSans-4f" d="M 2522 4238 
Q 1834 4238 1429 3725 
Q 1025 3213 1025 2328 
Q 1025 1447 1429 934 
Q 1834 422 2522 422 
Q 3209 422 3611 934 
Q 4013 1447 4013 2328 
Q 4013 3213 3611 3725 
Q 3209 4238 2522 4238 
z
M 2522 4750 
Q 3503 4750 4090 4092 
Q 4678 3434 4678 2328 
Q 4678 1225 4090 567 
Q 3503 -91 2522 -91 
Q 1538 -91 948 565 
Q 359 1222 359 2328 
Q 359 3434 948 4092 
Q 1538 4750 2522 4750 
z
" transform="scale(0.015625)"/>
       <path id="DejaVuSans-72" d="M 2631 2963 
Q 2534 3019 2420 3045 
Q 2306 3072 2169 3072 
Q 1681 3072 1420 2755 
Q 1159 2438 1159 1844 
L 1159 0 
L 581 0 
L 581 3500 
L 1159 3500 
L 1159 2956 
Q 1341 3275 1631 3429 
Q 1922 3584 2338 3584 
Q 2397 3584 2469 3576 
Q 2541 3569 2628 3553 
L 2631 2963 
z
" transform="scale(0.015625)"/>
       <path id="DejaVuSans-62" d="M 3116 1747 
Q 3116 2381 2855 2742 
Q 2594 3103 2138 3103 
Q 1681 3103 1420 2742 
Q 1159 2381 1159 1747 
Q 1159 1113 1420 752 
Q 1681 391 2138 391 
Q 2594 391 2855 752 
Q 3116 1113 3116 1747 
z
M 1159 2969 
Q 1341 3281 1617 3432 
Q 1894 3584 2278 3584 
Q 2916 3584 3314 3078 
Q 3713 2572 3713 1747 
Q 3713 922 3314 415 
Q 2916 -91 2278 -91 
Q 1894 -91 1617 61 
Q 1341 213 1159 525 
L 1159 0 
L 581 0 
L 581 4863 
L 1159 4863 
L 1159 2969 
z
" transform="scale(0.015625)"/>
       <path id="DejaVuSans-45" d="M 628 4666 
L 3578 4666 
L 3578 4134 
L 1259 4134 
L 1259 2753 
L 3481 2753 
L 3481 2222 
L 1259 2222 
L 1259 531 
L 3634 531 
L 3634 0 
L 628 0 
L 628 4666 
z
" transform="scale(0.015625)"/>
       <path id="DejaVuSans-6e" d="M 3513 2113 
L 3513 0 
L 2938 0 
L 2938 2094 
Q 2938 2591 2744 2837 
Q 2550 3084 2163 3084 
Q 1697 3084 1428 2787 
Q 1159 2491 1159 1978 
L 1159 0 
L 581 0 
L 581 3500 
L 1159 3500 
L 1159 2956 
Q 1366 3272 1645 3428 
Q 1925 3584 2291 3584 
Q 2894 3584 3203 3211 
Q 3513 2838 3513 2113 
z
" transform="scale(0.015625)"/>
       <path id="DejaVuSans-67" d="M 2906 1791 
Q 2906 2416 2648 2759 
Q 2391 3103 1925 3103 
Q 1463 3103 1205 2759 
Q 947 2416 947 1791 
Q 947 1169 1205 825 
Q 1463 481 1925 481 
Q 2391 481 2648 825 
Q 2906 1169 2906 1791 
z
M 3481 434 
Q 3481 -459 3084 -895 
Q 2688 -1331 1869 -1331 
Q 1566 -1331 1297 -1286 
Q 1028 -1241 775 -1147 
L 775 -588 
Q 1028 -725 1275 -790 
Q 1522 -856 1778 -856 
Q 2344 -856 2625 -561 
Q 2906 -266 2906 331 
L 2906 616 
Q 2728 306 2450 153 
Q 2172 0 1784 0 
Q 1141 0 747 490 
Q 353 981 353 1791 
Q 353 2603 747 3093 
Q 1141 3584 1784 3584 
Q 2172 3584 2450 3431 
Q 2728 3278 2906 2969 
L 2906 3500 
L 3481 3500 
L 3481 434 
z
" transform="scale(0.015625)"/>
       <path id="DejaVuSans-79" d="M 2059 -325 
Q 1816 -950 1584 -1140 
Q 1353 -1331 966 -1331 
L 506 -1331 
L 506 -850 
L 844 -850 
Q 1081 -850 1212 -737 
Q 1344 -625 1503 -206 
L 1606 56 
L 191 3500 
L 800 3500 
L 1894 763 
L 2988 3500 
L 3597 3500 
L 2059 -325 
z
" transform="scale(0.015625)"/>
       <path id="DejaVuSans-56" d="M 1831 0 
L 50 4666 
L 709 4666 
L 2188 738 
L 3669 4666 
L 4325 4666 
L 2547 0 
L 1831 0 
z
" transform="scale(0.015625)"/>
       <path id="DejaVuSans-6f" d="M 1959 3097 
Q 1497 3097 1228 2736 
Q 959 2375 959 1747 
Q 959 1119 1226 758 
Q 1494 397 1959 397 
Q 2419 397 2687 759 
Q 2956 1122 2956 1747 
Q 2956 2369 2687 2733 
Q 2419 3097 1959 3097 
z
M 1959 3584 
Q 2709 3584 3137 3096 
Q 3566 2609 3566 1747 
Q 3566 888 3137 398 
Q 2709 -91 1959 -91 
Q 1206 -91 779 398 
Q 353 888 353 1747 
Q 353 2609 779 3096 
Q 1206 3584 1959 3584 
z
" transform="scale(0.015625)"/>
      </defs>
      <use xlink:href="#DejaVuSans-52"/>
      <use xlink:href="#DejaVuSans-65" transform="translate(64.982422 0)"/>
      <use xlink:href="#DejaVuSans-6c" transform="translate(126.505859 0)"/>
      <use xlink:href="#DejaVuSans-61" transform="translate(154.289062 0)"/>
      <use xlink:href="#DejaVuSans-74" transform="translate(215.568359 0)"/>
      <use xlink:href="#DejaVuSans-69" transform="translate(254.777344 0)"/>
      <use xlink:href="#DejaVuSans-76" transform="translate(282.560547 0)"/>
      <use xlink:href="#DejaVuSans-65" transform="translate(341.740234 0)"/>
      <use xlink:href="#DejaVuSans-20" transform="translate(403.263672 0)"/>
      <use xlink:href="#DejaVuSans-4f" transform="translate(435.050781 0)"/>
      <use xlink:href="#DejaVuSans-72" transform="translate(513.761719 0)"/>
      <use xlink:href="#DejaVuSans-62" transform="translate(554.875 0)"/>
      <use xlink:href="#DejaVuSans-69" transform="translate(618.351562 0)"/>
      <use xlink:href="#DejaVuSans-74" transform="translate(646.134766 0)"/>
      <use xlink:href="#DejaVuSans-61" transform="translate(685.34375 0)"/>
      <use xlink:href="#DejaVuSans-6c" transform="translate(746.623047 0)"/>
      <use xlink:href="#DejaVuSans-20" transform="translate(774.40625 0)"/>
      <use xlink:href="#DejaVuSans-45" transform="translate(806.193359 0)"/>
      <use xlink:href="#DejaVuSans-6e" transform="translate(869.376953 0)"/>
      <use xlink:href="#DejaVuSans-65" transform="translate(932.755859 0)"/>
      <use xlink:href="#DejaVuSans-72" transform="translate(994.279297 0)"/>
      <use xlink:href="#DejaVuSans-67" transform="translate(1033.642578 0)"/>
      <use xlink:href="#DejaVuSans-79" transform="translate(1097.119141 0)"/>
      <use xlink:href="#DejaVuSans-20" transform="translate(1156.298828 0)"/>
      <use xlink:href="#DejaVuSans-56" transform="translate(1188.085938 0)"/>
      <use xlink:href="#DejaVuSans-61" transform="translate(1248.744141 0)"/>
      <use xlink:href="#DejaVuSans-72" transform="translate(1310.023438 0)"/>
      <use xlink:href="#DejaVuSans-69" transform="translate(1351.136719 0)"/>
      <use xlink:href="#DejaVuSans-61" transform="translate(1378.919922 0)"/>
      <use xlink:href="#DejaVuSans-74" transform="translate(1440.199219 0)"/>
      <use xlink:href="#DejaVuSans-69" transform="translate(1479.408203 0)"/>
      <use xlink:href="#DejaVuSans-6f" transform="translate(1507.191406 0)"/>
      <use xlink:href="#DejaVuSans-6e" transform="translate(1568.373047 0)"/>
     </g>
    </g>
    <g id="text_9">
     <!-- 1e−12 -->
     <g transform="translate(55.065625 22.9575) scale(0.16 -0.16)">
      <defs>
       <path id="DejaVuSans-32" d="M 1228 531 
L 3431 531 
L 3431 0 
L 469 0 
L 469 531 
Q 828 903 1448 1529 
Q 2069 2156 2228 2338 
Q 2531 2678 2651 2914 
Q 2772 3150 2772 3378 
Q 2772 3750 2511 3984 
Q 2250 4219 1831 4219 
Q 1534 4219 1204 4116 
Q 875 4013 500 3803 
L 500 4441 
Q 881 4594 1212 4672 
Q 1544 4750 1819 4750 
Q 2544 4750 2975 4387 
Q 3406 4025 3406 3419 
Q 3406 3131 3298 2873 
Q 3191 2616 2906 2266 
Q 2828 2175 2409 1742 
Q 1991 1309 1228 531 
z
" transform="scale(0.015625)"/>
      </defs>
      <use xlink:href="#DejaVuSans-31"/>
      <use xlink:href="#DejaVuSans-65" transform="translate(63.623047 0)"/>
      <use xlink:href="#DejaVuSans-2212" transform="translate(125.146484 0)"/>
      <use xlink:href="#DejaVuSans-31" transform="translate(208.935547 0)"/>
      <use xlink:href="#DejaVuSans-32" transform="translate(272.558594 0)"/>
     </g>
    </g>
   </g>
   <g id="line2d_7">
    <path d="M 68.435369 110.280612 
L 69.758379 180.057889 
L 69.90538 177.579754 
L 70.199382 162.307789 
L 70.640385 134.540373 
L 70.787386 130.527069 
L 70.934387 130.087474 
L 71.228389 136.533359 
L 71.816393 153.126389 
L 72.257396 160.039202 
L 72.698399 163.95912 
L 73.139403 166.188986 
L 73.580406 167.409833 
L 74.021409 168.070365 
L 74.609413 168.475795 
L 75.63842 168.735453 
L 77.990437 168.808339 
L 80.195452 168.840227 
L 89.162516 168.806061 
L 89.456518 169.136328 
L 89.75052 169.979076 
L 90.044522 171.972062 
L 90.338524 176.390796 
L 90.632526 185.257874 
L 91.22053 210.790868 
L 91.367531 211.970716 
L 91.514532 208.13735 
L 91.808534 187.032201 
L 92.249537 155.005489 
L 92.396538 152.575186 
L 92.543539 154.948547 
L 92.837541 169.53948 
L 93.425546 200.215516 
L 93.719548 205.46561 
L 93.866549 205.807265 
L 94.01355 205.155843 
L 95.189558 195.51207 
L 95.630561 194.39372 
L 96.071564 193.992846 
L 96.512567 193.86985 
L 98.864584 193.931348 
L 101.0696 193.995123 
L 108.566652 193.776464 
L 109.154657 193.471253 
L 109.742661 192.844886 
L 110.330665 191.851809 
L 110.918669 190.480635 
L 111.506673 188.84297 
L 111.653674 188.86347 
L 112.241678 190.175424 
L 112.388679 189.576389 
L 113.123685 183.551878 
L 113.270686 184.838777 
L 113.711689 194.41422 
L 114.005691 198.680348 
L 114.152692 198.176977 
L 114.446694 191.63315 
L 115.034698 173.422955 
L 115.3287 170.874211 
L 115.475701 171.500578 
L 116.357707 181.640889 
L 116.651709 182.251313 
L 116.798711 182.073652 
L 117.092713 181.196738 
L 118.12172 177.661751 
L 118.709724 176.538846 
L 119.297728 175.894258 
L 120.032733 175.459217 
L 120.91474 175.176783 
L 122.237749 174.985456 
L 125.030769 174.878404 
L 128.558793 175.083397 
L 129.4408 175.418219 
L 130.322806 175.846426 
L 130.616808 175.789483 
L 130.91081 175.507049 
L 131.351813 174.598247 
L 132.674823 171.199922 
L 133.115826 170.723883 
L 133.409828 170.735272 
L 133.70383 171.015428 
L 134.732837 172.320549 
L 135.17384 172.4481 
L 135.908845 172.227164 
L 136.202847 172.648538 
L 136.790852 173.643892 
L 137.084854 173.721334 
L 137.819859 173.450288 
L 138.554864 173.258961 
L 139.730872 173.165575 
L 141.935888 173.092689 
L 148.403933 172.698647 
L 149.28594 172.432157 
L 150.314947 171.935618 
L 150.902951 171.728348 
L 151.343954 171.824011 
L 151.784957 172.259052 
L 152.519963 173.176964 
L 152.666964 173.176964 
L 152.813965 173.047135 
L 153.107967 172.265885 
L 153.401969 170.637331 
L 153.842972 166.423589 
L 154.430976 157.964219 
L 155.312982 144.790014 
L 155.606984 143.471227 
L 155.753985 144.031541 
L 156.047987 147.874017 
L 156.488991 158.829744 
L 157.076995 172.794311 
L 157.370997 176.09014 
L 157.517998 176.696007 
L 157.664999 176.682341 
L 157.959001 175.329388 
L 158.694006 170.614554 
L 158.988008 169.990464 
L 159.135009 169.983631 
L 159.429011 170.391339 
L 160.752021 173.322737 
L 161.340025 173.953659 
L 162.222031 174.402365 
L 163.104037 174.614191 
L 164.86805 174.835128 
L 166.33806 175.11984 
L 167.073065 175.536659 
L 167.514068 176.003587 
L 168.690077 177.406649 
L 168.837078 177.167491 
L 169.13108 175.880591 
L 169.572083 171.609908 
L 170.013086 167.409833 
L 170.160087 167.232172 
L 170.307088 168.115919 
L 170.60109 173.265794 
L 171.483096 194.131785 
L 171.630097 194.833316 
L 171.777098 194.569103 
L 172.0711 192.218519 
L 172.659105 186.59716 
L 173.100108 184.626952 
L 173.39411 184.226077 
L 173.688112 184.23291 
L 174.129115 184.581398 
L 174.86412 185.446923 
L 175.452124 186.392167 
L 176.628133 188.776917 
L 176.775134 188.549147 
L 177.069136 186.918316 
L 177.363138 183.581488 
L 178.098143 173.958214 
L 178.245144 173.475342 
L 178.392145 173.714501 
L 178.686147 175.992199 
L 179.274151 181.866382 
L 179.568153 183.19428 
L 179.715154 183.37194 
L 179.862155 183.301331 
L 180.156157 182.633966 
L 181.185165 179.657015 
L 181.773169 178.807433 
L 182.508174 178.351894 
L 183.39018 178.19701 
L 184.272187 178.201566 
L 186.036199 178.645717 
L 186.771204 179.092145 
L 187.65321 180.010058 
L 188.682218 181.201294 
L 188.97622 181.265069 
L 189.270222 180.959858 
L 189.564224 180.187718 
L 190.005227 178.089958 
L 190.593231 174.725798 
L 190.740232 174.705299 
L 190.887233 174.97179 
L 191.181235 176.497847 
L 191.622238 181.123852 
L 192.357244 189.273455 
L 192.651246 190.243755 
L 192.798247 190.038762 
L 193.092249 188.396542 
L 194.268257 178.903097 
L 194.562259 178.386059 
L 194.70926 178.427058 
L 195.003262 178.973705 
L 196.326272 182.369753 
L 196.473273 182.403918 
L 196.620274 182.294589 
L 196.914276 181.417675 
L 197.208278 179.265251 
L 197.50228 175.037843 
L 198.237285 160.128032 
L 198.384286 162.9501 
L 198.678288 184.540399 
L 198.97229 212.032214 
L 199.119291 215.186825 
L 199.266292 207.631701 
L 199.854296 155.237815 
L 200.001297 153.609261 
L 200.148299 155.711576 
L 200.883304 173.434344 
L 201.177306 176.559345 
L 201.471308 178.160567 
L 201.76531 178.962317 
L 202.206313 179.499853 
L 202.794317 179.754956 
L 204.264328 179.916672 
L 210.144369 180.00778 
L 211.173376 179.930338 
L 211.908381 179.969059 
L 212.937389 180.322102 
L 213.672394 180.529373 
L 214.848402 180.563538 
L 215.436406 180.800419 
L 216.02441 181.242292 
L 216.906417 182.294589 
L 217.494421 183.000675 
L 217.788423 183.128226 
L 217.935424 183.057618 
L 218.229426 182.463138 
L 218.523428 181.087409 
L 219.258433 175.9512 
L 219.405434 175.923868 
L 219.552435 176.862279 
L 219.846437 182.775183 
L 220.287441 201.550247 
L 220.875445 226.003613 
L 221.169447 229.07395 
L 221.316448 228.217535 
L 221.757451 221.115673 
L 222.198454 215.309821 
L 222.492456 214.168694 
L 222.639457 214.271191 
L 222.933459 215.296155 
L 223.962466 220.074765 
L 224.550471 221.566657 
L 225.138475 222.377518 
L 225.87348 222.951498 
L 227.049488 223.470813 
L 229.107503 223.985572 
L 230.13651 223.944574 
L 232.047524 223.657584 
L 232.341526 223.823856 
L 232.635528 224.183732 
L 233.076531 225.124421 
L 233.958537 227.850826 
L 234.693542 229.893921 
L 235.134545 230.679727 
L 235.575548 231.101101 
L 236.016552 231.253707 
L 236.604556 231.192209 
L 237.19256 230.957606 
L 237.633563 230.595452 
L 237.927565 230.126246 
L 238.221567 229.283498 
L 238.66257 226.955691 
L 239.103573 223.190656 
L 239.98558 215.33032 
L 240.279582 214.382798 
L 240.426583 214.334966 
L 240.573584 214.505794 
L 240.867586 215.006887 
L 241.749592 216.266454 
L 242.043594 216.302897 
L 242.484597 216.08196 
L 243.660605 215.316654 
L 244.689613 214.988665 
L 245.865621 214.840615 
L 249.687648 214.760896 
L 250.128651 214.788228 
L 250.422653 214.649288 
L 250.716655 214.275746 
L 251.157658 213.177896 
L 252.039665 210.594986 
L 252.333667 210.282941 
L 252.627669 210.32394 
L 253.068672 210.806812 
L 253.803677 211.633616 
L 254.391681 211.938828 
L 255.126686 212.000326 
L 255.861692 211.897829 
L 256.596697 211.583507 
L 257.184701 211.052803 
L 257.625704 210.32394 
L 258.066707 209.153203 
L 258.50771 207.32649 
L 259.683718 201.395364 
L 259.83072 201.361199 
L 259.977721 201.673243 
L 260.565725 204.581863 
L 260.712726 204.171878 
L 260.859727 202.258612 
L 261.153729 191.717425 
L 261.594732 157.438071 
L 262.182736 108.415177 
L 262.476738 99.331718 
L 262.623739 99.113059 
L 262.917741 103.773229 
L 263.358744 112.196156 
L 263.652746 114.252917 
L 263.799748 114.14131 
L 264.09375 112.505923 
L 265.122757 104.647865 
L 265.56376 102.807485 
L 266.004763 101.689135 
L 266.592767 100.891941 
L 267.180771 100.481955 
L 268.209779 100.153967 
L 269.532788 99.951252 
L 277.029841 99.279331 
L 278.205849 98.878456 
L 278.793853 98.46847 
L 279.381857 97.77605 
L 279.969862 96.726031 
L 280.704867 95.493797 
L 280.851868 95.459631 
L 280.998869 95.605404 
L 281.292871 96.562037 
L 281.586873 98.541357 
L 282.174877 102.837095 
L 282.321878 102.611603 
L 282.468879 101.226763 
L 282.762881 94.038348 
L 283.203884 73.281686 
L 283.791889 46.320575 
L 284.085891 41.735569 
L 284.232892 41.967895 
L 284.526894 45.789872 
L 285.114898 55.055547 
L 285.4089 56.652213 
L 285.555901 56.659046 
L 285.849903 55.618139 
L 287.172912 48.846542 
L 287.760917 47.279486 
L 288.348921 46.215801 
L 288.789924 45.77165 
L 289.083926 45.760262 
L 289.377928 46.035863 
L 289.818931 46.937832 
L 290.259934 47.678083 
L 290.406935 47.678083 
L 290.553936 47.479924 
L 290.847938 46.550623 
L 291.582944 43.464342 
L 291.876946 43.086244 
L 292.170948 43.345902 
L 292.758952 44.787685 
L 293.346956 46.172525 
L 293.93496 47.033495 
L 294.522964 47.489034 
L 295.40497 47.803357 
L 297.021982 47.971906 
L 298.785994 47.999239 
L 305.695043 47.892187 
L 308.488063 47.600642 
L 309.370069 47.129158 
L 309.958073 46.83078 
L 310.252075 46.894555 
L 310.546077 47.227099 
L 311.575085 49.04698 
L 311.869087 48.885263 
L 312.31009 48.140456 
L 312.898094 47.217988 
L 313.339097 46.935554 
L 313.927101 46.912777 
L 318.337132 47.372872 
L 319.954144 47.156491 
L 321.130152 46.77156 
L 321.718156 46.270466 
L 322.159159 45.644099 
L 322.747163 44.284313 
L 323.482169 42.359659 
L 323.62917 42.22983 
L 323.776171 42.311827 
L 323.923172 42.626149 
L 324.217174 44.031489 
L 324.952179 48.586885 
L 325.09918 48.728102 
L 325.246181 48.438835 
L 325.540183 46.844446 
L 326.275188 41.767457 
L 326.716191 40.375784 
L 327.010193 40.050073 
L 327.451197 39.999964 
L 328.333203 39.945299 
L 329.656212 39.35993 
L 329.950214 39.282489 
L 330.244216 38.845171 
L 331.420225 35.765723 
L 331.714227 35.749779 
L 332.596233 36.139265 
L 333.478239 36.357924 
L 335.242252 36.503697 
L 335.830256 36.526474 
L 335.830256 36.526474 
" clip-path="url(#pba643eea51)" style="fill: none; stroke: #1f77b4; stroke-width: 1.5; stroke-linecap: square"/>
   </g>
   <g id="patch_3">
    <path d="M 55.065625 241.036875 
L 55.065625 25.9575 
" style="fill: none; stroke: #000000; stroke-width: 0.8; stroke-linejoin: miter; stroke-linecap: square"/>
   </g>
   <g id="patch_4">
    <path d="M 349.2 241.036875 
L 349.2 25.9575 
" style="fill: none; stroke: #000000; stroke-width: 0.8; stroke-linejoin: miter; stroke-linecap: square"/>
   </g>
   <g id="patch_5">
    <path d="M 55.065625 241.036875 
L 349.2 241.036875 
" style="fill: none; stroke: #000000; stroke-width: 0.8; stroke-linejoin: miter; stroke-linecap: square"/>
   </g>
   <g id="patch_6">
    <path d="M 55.065625 25.9575 
L 349.2 25.9575 
" style="fill: none; stroke: #000000; stroke-width: 0.8; stroke-linejoin: miter; stroke-linecap: square"/>
   </g>
  </g>
 </g>
 <defs>
  <clipPath id="pba643eea51">
   <rect x="55.065625" y="25.9575" width="294.134375" height="215.079375"/>
  </clipPath>
 </defs>
</svg>
