<?xml version="1.0" encoding="utf-8" standalone="no"?>
<!DOCTYPE svg PUBLIC "-//W3C//DTD SVG 1.1//EN"
  "http://www.w3.org/Graphics/SVG/1.1/DTD/svg11.dtd">
<svg xmlns:xlink="http://www.w3.org/1999/xlink" width="414pt" height="180pt" viewBox="0 0 414 180" xmlns="http://www.w3.org/2000/svg" version="1.1">
 <metadata>
  <rdf:RDF xmlns:dc="http://purl.org/dc/elements/1.1/" xmlns:cc="http://creativecommons.org/ns#" xmlns:rdf="http://www.w3.org/1999/02/22-rdf-syntax-ns#">
   <cc:Work>
    <dc:type rdf:resource="http://purl.org/dc/dcmitype/StillImage"/>
    <dc:date>2026-07-09T00:10:10.141815</dc:date>
    <dc:format>image/svg+xml</dc:format>
    <dc:creator>
     <cc:Agent>
      <dc:title>Matplotlib v3.10.9, https://matplotlib.org/</dc:title>
     </cc:Agent>
    </dc:creator>
   </cc:Work>
  </rdf:RDF>
 </metadata>
 <defs>
  <style type="text/css">*{stroke-linejoin: round; stroke-linecap: butt}</style>
 </defs>
 <g id="figure_1">
  <g id="patch_1">
   <path d="M 0 180 
L 414 180 
L 414 0 
L 0 0 
L 0 180 
z
" style="fill: none"/>
  </g>
  <g id="axes_1">
   <g id="patch_2">
    <path d="M 62.946719 139.811563 
L 403.2 139.811563 
L 403.2 10.8 
L 62.946719 10.8 
L 62.946719 139.811563 
z
" style="fill: none"/>
   </g>
   <g id="patch_3">
    <path d="M 233.077413 131.742412 
C 248.04368 131.742412 262.398983 125.796251 272.981731 115.213502 
C 283.56448 104.630754 289.510641 90.275451 289.510641 75.309184 
C 289.510641 60.342917 283.56448 45.987615 272.981731 35.404866 
C 262.398983 24.822117 248.04368 18.875956 233.077413 18.875956 
C 218.111146 18.875956 203.755844 24.822117 193.173095 35.404866 
C 182.590346 45.987615 176.644185 60.342917 176.644185 75.309184 
C 176.644185 90.275451 182.590346 104.630754 193.173095 115.213502 
C 203.755844 125.796251 218.111146 131.742412 233.077413 131.742412 
z
" clip-path="url(#pc8af6ca2a9)" style="fill: #008800; stroke: #008800; stroke-linejoin: miter"/>
   </g>
   <g id="matplotlib.axis_1">
    <g id="xtick_1">
     <g id="line2d_1">
      <defs>
       <path id="m143a48268e" d="M 0 0 
L 0 3.5 
" style="stroke: #000000; stroke-width: 0.8"/>
      </defs>
      <g>
       <use xlink:href="#m143a48268e" x="100.358647" y="139.811563" style="stroke: #000000; stroke-width: 0.8"/>
      </g>
     </g>
     <g id="text_1">
      <!-- −15000 -->
      <g transform="translate(82.272162 153.650156) scale(0.09 -0.09)">
       <defs>
        <path id="DejaVuSans-2212" d="M 678 2272 
L 4684 2272 
L 4684 1741 
L 678 1741 
L 678 2272 
z
" transform="scale(0.015625)"/>
        <path id="DejaVuSans-31" d="M 794 531 
L 1825 531 
L 1825 4091 
L 703 3866 
L 703 4441 
L 1819 4666 
L 2450 4666 
L 2450 531 
L 3481 531 
L 3481 0 
L 794 0 
L 794 531 
z
" transform="scale(0.015625)"/>
        <path id="DejaVuSans-35" d="M 691 4666 
L 3169 4666 
L 3169 4134 
L 1269 4134 
L 1269 2991 
Q 1406 3038 1543 3061 
Q 1681 3084 1819 3084 
Q 2600 3084 3056 2656 
Q 3513 2228 3513 1497 
Q 3513 744 3044 326 
Q 2575 -91 1722 -91 
Q 1428 -91 1123 -41 
Q 819 9 494 109 
L 494 744 
Q 775 591 1075 516 
Q 1375 441 1709 441 
Q 2250 441 2565 725 
Q 2881 1009 2881 1497 
Q 2881 1984 2565 2268 
Q 2250 2553 1709 2553 
Q 1456 2553 1204 2497 
Q 953 2441 691 2322 
L 691 4666 
z
" transform="scale(0.015625)"/>
        <path id="DejaVuSans-30" d="M 2034 4250 
Q 1547 4250 1301 3770 
Q 1056 3291 1056 2328 
Q 1056 1369 1301 889 
Q 1547 409 2034 409 
Q 2525 409 2770 889 
Q 3016 1369 3016 2328 
Q 3016 3291 2770 3770 
Q 2525 4250 2034 4250 
z
M 2034 4750 
Q 2819 4750 3233 4129 
Q 3647 3509 3647 2328 
Q 3647 1150 3233 529 
Q 2819 -91 2034 -91 
Q 1250 -91 836 529 
Q 422 1150 422 2328 
Q 422 3509 836 4129 
Q 1250 4750 2034 4750 
z
" transform="scale(0.015625)"/>
       </defs>
       <use xlink:href="#DejaVuSans-2212"/>
       <use xlink:href="#DejaVuSans-31" transform="translate(83.789062 0)"/>
       <use xlink:href="#DejaVuSans-35" transform="translate(147.412109 0)"/>
       <use xlink:href="#DejaVuSans-30" transform="translate(211.035156 0)"/>
       <use xlink:href="#DejaVuSans-30" transform="translate(274.658203 0)"/>
       <use xlink:href="#DejaVuSans-30" transform="translate(338.28125 0)"/>
      </g>
     </g>
    </g>
    <g id="xtick_2">
     <g id="line2d_2">
      <g>
       <use xlink:href="#m143a48268e" x="144.598236" y="139.811563" style="stroke: #000000; stroke-width: 0.8"/>
      </g>
     </g>
     <g id="text_2">
      <!-- −10000 -->
      <g transform="translate(126.511751 153.650156) scale(0.09 -0.09)">
       <use xlink:href="#DejaVuSans-2212"/>
       <use xlink:href="#DejaVuSans-31" transform="translate(83.789062 0)"/>
       <use xlink:href="#DejaVuSans-30" transform="translate(147.412109 0)"/>
       <use xlink:href="#DejaVuSans-30" transform="translate(211.035156 0)"/>
       <use xlink:href="#DejaVuSans-30" transform="translate(274.658203 0)"/>
       <use xlink:href="#DejaVuSans-30" transform="translate(338.28125 0)"/>
      </g>
     </g>
    </g>
    <g id="xtick_3">
     <g id="line2d_3">
      <g>
       <use xlink:href="#m143a48268e" x="188.837824" y="139.811563" style="stroke: #000000; stroke-width: 0.8"/>
      </g>
     </g>
     <g id="text_3">
      <!-- −5000 -->
      <g transform="translate(173.614465 153.650156) scale(0.09 -0.09)">
       <use xlink:href="#DejaVuSans-2212"/>
       <use xlink:href="#DejaVuSans-35" transform="translate(83.789062 0)"/>
       <use xlink:href="#DejaVuSans-30" transform="translate(147.412109 0)"/>
       <use xlink:href="#DejaVuSans-30" transform="translate(211.035156 0)"/>
       <use xlink:href="#DejaVuSans-30" transform="translate(274.658203 0)"/>
      </g>
     </g>
    </g>
    <g id="xtick_4">
     <g id="line2d_4">
      <g>
       <use xlink:href="#m143a48268e" x="233.077413" y="139.811563" style="stroke: #000000; stroke-width: 0.8"/>
      </g>
     </g>
     <g id="text_4">
      <!-- 0 -->
      <g transform="translate(230.214288 153.650156) scale(0.09 -0.09)">
       <use xlink:href="#DejaVuSans-30"/>
      </g>
     </g>
    </g>
    <g id="xtick_5">
     <g id="line2d_5">
      <g>
       <use xlink:href="#m143a48268e" x="277.317002" y="139.811563" style="stroke: #000000; stroke-width: 0.8"/>
      </g>
     </g>
     <g id="text_5">
      <!-- 5000 -->
      <g transform="translate(265.864502 153.650156) scale(0.09 -0.09)">
       <use xlink:href="#DejaVuSans-35"/>
       <use xlink:href="#DejaVuSans-30" transform="translate(63.623047 0)"/>
       <use xlink:href="#DejaVuSans-30" transform="translate(127.246094 0)"/>
       <use xlink:href="#DejaVuSans-30" transform="translate(190.869141 0)"/>
      </g>
     </g>
    </g>
    <g id="xtick_6">
     <g id="line2d_6">
      <g>
       <use xlink:href="#m143a48268e" x="321.556591" y="139.811563" style="stroke: #000000; stroke-width: 0.8"/>
      </g>
     </g>
     <g id="text_6">
      <!-- 10000 -->
      <g transform="translate(307.240966 153.650156) scale(0.09 -0.09)">
       <use xlink:href="#DejaVuSans-31"/>
       <use xlink:href="#DejaVuSans-30" transform="translate(63.623047 0)"/>
       <use xlink:href="#DejaVuSans-30" transform="translate(127.246094 0)"/>
       <use xlink:href="#DejaVuSans-30" transform="translate(190.869141 0)"/>
       <use xlink:href="#DejaVuSans-30" transform="translate(254.492188 0)"/>
      </g>
     </g>
    </g>
    <g id="xtick_7">
     <g id="line2d_7">
      <g>
       <use xlink:href="#m143a48268e" x="365.79618" y="139.811563" style="stroke: #000000; stroke-width: 0.8"/>
      </g>
     </g>
     <g id="text_7">
      <!-- 15000 -->
      <g transform="translate(351.480555 153.650156) scale(0.09 -0.09)">
       <use xlink:href="#DejaVuSans-31"/>
       <use xlink:href="#DejaVuSans-35" transform="translate(63.623047 0)"/>
       <use xlink:href="#DejaVuSans-30" transform="translate(127.246094 0)"/>
       <use xlink:href="#DejaVuSans-30" transform="translate(190.869141 0)"/>
       <use xlink:href="#DejaVuSans-30" transform="translate(254.492188 0)"/>
      </g>
     </g>
    </g>
    <g id="text_8">
     <!-- $i_e$ Cord. [km] -->
     <g transform="translate(201.173359 167.120313) scale(0.1 -0.1)">
      <defs>
       <path id="DejaVuSans-Oblique-69" d="M 1172 4863 
L 1747 4863 
L 1606 4134 
L 1031 4134 
L 1172 4863 
z
M 909 3500 
L 1484 3500 
L 800 0 
L 225 0 
L 909 3500 
z
" transform="scale(0.015625)"/>
       <path id="DejaVuSans-Oblique-65" d="M 3078 2063 
Q 3088 2113 3092 2166 
Q 3097 2219 3097 2272 
Q 3097 2653 2873 2875 
Q 2650 3097 2266 3097 
Q 1838 3097 1509 2826 
Q 1181 2556 1013 2059 
L 3078 2063 
z
M 3578 1613 
L 903 1613 
Q 884 1494 878 1425 
Q 872 1356 872 1306 
Q 872 872 1139 634 
Q 1406 397 1894 397 
Q 2269 397 2603 481 
Q 2938 566 3225 728 
L 3116 159 
Q 2806 34 2476 -28 
Q 2147 -91 1806 -91 
Q 1078 -91 686 257 
Q 294 606 294 1247 
Q 294 1794 489 2264 
Q 684 2734 1063 3103 
Q 1306 3334 1642 3459 
Q 1978 3584 2356 3584 
Q 2950 3584 3301 3228 
Q 3653 2872 3653 2272 
Q 3653 2128 3634 1964 
Q 3616 1800 3578 1613 
z
" transform="scale(0.015625)"/>
       <path id="DejaVuSans-20" transform="scale(0.015625)"/>
       <path id="DejaVuSans-43" d="M 4122 4306 
L 4122 3641 
Q 3803 3938 3442 4084 
Q 3081 4231 2675 4231 
Q 1875 4231 1450 3742 
Q 1025 3253 1025 2328 
Q 1025 1406 1450 917 
Q 1875 428 2675 428 
Q 3081 428 3442 575 
Q 3803 722 4122 1019 
L 4122 359 
Q 3791 134 3420 21 
Q 3050 -91 2638 -91 
Q 1578 -91 968 557 
Q 359 1206 359 2328 
Q 359 3453 968 4101 
Q 1578 4750 2638 4750 
Q 3056 4750 3426 4639 
Q 3797 4528 4122 4306 
z
" transform="scale(0.015625)"/>
       <path id="DejaVuSans-6f" d="M 1959 3097 
Q 1497 3097 1228 2736 
Q 959 2375 959 1747 
Q 959 1119 1226 758 
Q 1494 397 1959 397 
Q 2419 397 2687 759 
Q 2956 1122 2956 1747 
Q 2956 2369 2687 2733 
Q 2419 3097 1959 3097 
z
M 1959 3584 
Q 2709 3584 3137 3096 
Q 3566 2609 3566 1747 
Q 3566 888 3137 398 
Q 2709 -91 1959 -91 
Q 1206 -91 779 398 
Q 353 888 353 1747 
Q 353 2609 779 3096 
Q 1206 3584 1959 3584 
z
" transform="scale(0.015625)"/>
       <path id="DejaVuSans-72" d="M 2631 2963 
Q 2534 3019 2420 3045 
Q 2306 3072 2169 3072 
Q 1681 3072 1420 2755 
Q 1159 2438 1159 1844 
L 1159 0 
L 581 0 
L 581 3500 
L 1159 3500 
L 1159 2956 
Q 1341 3275 1631 3429 
Q 1922 3584 2338 3584 
Q 2397 3584 2469 3576 
Q 2541 3569 2628 3553 
L 2631 2963 
z
" transform="scale(0.015625)"/>
       <path id="DejaVuSans-64" d="M 2906 2969 
L 2906 4863 
L 3481 4863 
L 3481 0 
L 2906 0 
L 2906 525 
Q 2725 213 2448 61 
Q 2172 -91 1784 -91 
Q 1150 -91 751 415 
Q 353 922 353 1747 
Q 353 2572 751 3078 
Q 1150 3584 1784 3584 
Q 2172 3584 2448 3432 
Q 2725 3281 2906 2969 
z
M 947 1747 
Q 947 1113 1208 752 
Q 1469 391 1925 391 
Q 2381 391 2643 752 
Q 2906 1113 2906 1747 
Q 2906 2381 2643 2742 
Q 2381 3103 1925 3103 
Q 1469 3103 1208 2742 
Q 947 2381 947 1747 
z
" transform="scale(0.015625)"/>
       <path id="DejaVuSans-2e" d="M 684 794 
L 1344 794 
L 1344 0 
L 684 0 
L 684 794 
z
" transform="scale(0.015625)"/>
       <path id="DejaVuSans-5b" d="M 550 4863 
L 1875 4863 
L 1875 4416 
L 1125 4416 
L 1125 -397 
L 1875 -397 
L 1875 -844 
L 550 -844 
L 550 4863 
z
" transform="scale(0.015625)"/>
       <path id="DejaVuSans-6b" d="M 581 4863 
L 1159 4863 
L 1159 1991 
L 2875 3500 
L 3609 3500 
L 1753 1863 
L 3688 0 
L 2938 0 
L 1159 1709 
L 1159 0 
L 581 0 
L 581 4863 
z
" transform="scale(0.015625)"/>
       <path id="DejaVuSans-6d" d="M 3328 2828 
Q 3544 3216 3844 3400 
Q 4144 3584 4550 3584 
Q 5097 3584 5394 3201 
Q 5691 2819 5691 2113 
L 5691 0 
L 5113 0 
L 5113 2094 
Q 5113 2597 4934 2840 
Q 4756 3084 4391 3084 
Q 3944 3084 3684 2787 
Q 3425 2491 3425 1978 
L 3425 0 
L 2847 0 
L 2847 2094 
Q 2847 2600 2669 2842 
Q 2491 3084 2119 3084 
Q 1678 3084 1418 2786 
Q 1159 2488 1159 1978 
L 1159 0 
L 581 0 
L 581 3500 
L 1159 3500 
L 1159 2956 
Q 1356 3278 1631 3431 
Q 1906 3584 2284 3584 
Q 2666 3584 2933 3390 
Q 3200 3197 3328 2828 
z
" transform="scale(0.015625)"/>
       <path id="DejaVuSans-5d" d="M 1947 4863 
L 1947 -844 
L 622 -844 
L 622 -397 
L 1369 -397 
L 1369 4416 
L 622 4416 
L 622 4863 
L 1947 4863 
z
" transform="scale(0.015625)"/>
      </defs>
      <use xlink:href="#DejaVuSans-Oblique-69" transform="translate(0 0.015625)"/>
      <use xlink:href="#DejaVuSans-Oblique-65" transform="translate(27.783203 -16.390625) scale(0.7)"/>
      <use xlink:href="#DejaVuSans-20" transform="translate(73.583984 0.015625)"/>
      <use xlink:href="#DejaVuSans-43" transform="translate(105.371094 0.015625)"/>
      <use xlink:href="#DejaVuSans-6f" transform="translate(175.195312 0.015625)"/>
      <use xlink:href="#DejaVuSans-72" transform="translate(236.376953 0.015625)"/>
      <use xlink:href="#DejaVuSans-64" transform="translate(277.490234 0.015625)"/>
      <use xlink:href="#DejaVuSans-2e" transform="translate(340.966797 0.015625)"/>
      <use xlink:href="#DejaVuSans-20" transform="translate(372.753906 0.015625)"/>
      <use xlink:href="#DejaVuSans-5b" transform="translate(404.541016 0.015625)"/>
      <use xlink:href="#DejaVuSans-6b" transform="translate(443.554688 0.015625)"/>
      <use xlink:href="#DejaVuSans-6d" transform="translate(501.464844 0.015625)"/>
      <use xlink:href="#DejaVuSans-5d" transform="translate(598.876953 0.015625)"/>
     </g>
    </g>
   </g>
   <g id="matplotlib.axis_2">
    <g id="ytick_1">
     <g id="line2d_8">
      <defs>
       <path id="mbf53521f22" d="M 0 0 
L -3.5 0 
" style="stroke: #000000; stroke-width: 0.8"/>
      </defs>
      <g>
       <use xlink:href="#mbf53521f22" x="62.946719" y="119.548773" style="stroke: #000000; stroke-width: 0.8"/>
      </g>
     </g>
     <g id="text_9">
      <!-- −5000 -->
      <g transform="translate(25.5 122.96807) scale(0.09 -0.09)">
       <use xlink:href="#DejaVuSans-2212"/>
       <use xlink:href="#DejaVuSans-35" transform="translate(83.789062 0)"/>
       <use xlink:href="#DejaVuSans-30" transform="translate(147.412109 0)"/>
       <use xlink:href="#DejaVuSans-30" transform="translate(211.035156 0)"/>
       <use xlink:href="#DejaVuSans-30" transform="translate(274.658203 0)"/>
      </g>
     </g>
    </g>
    <g id="ytick_2">
     <g id="line2d_9">
      <g>
       <use xlink:href="#mbf53521f22" x="62.946719" y="97.428979" style="stroke: #000000; stroke-width: 0.8"/>
      </g>
     </g>
     <g id="text_10">
      <!-- −2500 -->
      <g transform="translate(25.5 100.848275) scale(0.09 -0.09)">
       <defs>
        <path id="DejaVuSans-32" d="M 1228 531 
L 3431 531 
L 3431 0 
L 469 0 
L 469 531 
Q 828 903 1448 1529 
Q 2069 2156 2228 2338 
Q 2531 2678 2651 2914 
Q 2772 3150 2772 3378 
Q 2772 3750 2511 3984 
Q 2250 4219 1831 4219 
Q 1534 4219 1204 4116 
Q 875 4013 500 3803 
L 500 4441 
Q 881 4594 1212 4672 
Q 1544 4750 1819 4750 
Q 2544 4750 2975 4387 
Q 3406 4025 3406 3419 
Q 3406 3131 3298 2873 
Q 3191 2616 2906 2266 
Q 2828 2175 2409 1742 
Q 1991 1309 1228 531 
z
" transform="scale(0.015625)"/>
       </defs>
       <use xlink:href="#DejaVuSans-2212"/>
       <use xlink:href="#DejaVuSans-32" transform="translate(83.789062 0)"/>
       <use xlink:href="#DejaVuSans-35" transform="translate(147.412109 0)"/>
       <use xlink:href="#DejaVuSans-30" transform="translate(211.035156 0)"/>
       <use xlink:href="#DejaVuSans-30" transform="translate(274.658203 0)"/>
      </g>
     </g>
    </g>
    <g id="ytick_3">
     <g id="line2d_10">
      <g>
       <use xlink:href="#mbf53521f22" x="62.946719" y="75.309184" style="stroke: #000000; stroke-width: 0.8"/>
      </g>
     </g>
     <g id="text_11">
      <!-- 0 -->
      <g transform="translate(50.220469 78.728481) scale(0.09 -0.09)">
       <use xlink:href="#DejaVuSans-30"/>
      </g>
     </g>
    </g>
    <g id="ytick_4">
     <g id="line2d_11">
      <g>
       <use xlink:href="#mbf53521f22" x="62.946719" y="53.18939" style="stroke: #000000; stroke-width: 0.8"/>
      </g>
     </g>
     <g id="text_12">
      <!-- 2500 -->
      <g transform="translate(33.041719 56.608687) scale(0.09 -0.09)">
       <use xlink:href="#DejaVuSans-32"/>
       <use xlink:href="#DejaVuSans-35" transform="translate(63.623047 0)"/>
       <use xlink:href="#DejaVuSans-30" transform="translate(127.246094 0)"/>
       <use xlink:href="#DejaVuSans-30" transform="translate(190.869141 0)"/>
      </g>
     </g>
    </g>
    <g id="ytick_5">
     <g id="line2d_12">
      <g>
       <use xlink:href="#mbf53521f22" x="62.946719" y="31.069595" style="stroke: #000000; stroke-width: 0.8"/>
      </g>
     </g>
     <g id="text_13">
      <!-- 5000 -->
      <g transform="translate(33.041719 34.488892) scale(0.09 -0.09)">
       <use xlink:href="#DejaVuSans-35"/>
       <use xlink:href="#DejaVuSans-30" transform="translate(63.623047 0)"/>
       <use xlink:href="#DejaVuSans-30" transform="translate(127.246094 0)"/>
       <use xlink:href="#DejaVuSans-30" transform="translate(190.869141 0)"/>
      </g>
     </g>
    </g>
    <g id="text_14">
     <!-- $i_p$ Cord. [km] -->
     <g transform="translate(18.4 107.305781) rotate(-90) scale(0.1 -0.1)">
      <defs>
       <path id="DejaVuSans-Oblique-70" d="M 3175 2156 
Q 3175 2616 2975 2859 
Q 2775 3103 2400 3103 
Q 2144 3103 1911 2972 
Q 1678 2841 1497 2591 
Q 1319 2344 1212 1994 
Q 1106 1644 1106 1300 
Q 1106 863 1306 627 
Q 1506 391 1875 391 
Q 2147 391 2380 519 
Q 2613 647 2778 891 
Q 2956 1147 3065 1494 
Q 3175 1841 3175 2156 
z
M 1394 2969 
Q 1625 3272 1939 3428 
Q 2253 3584 2638 3584 
Q 3175 3584 3472 3232 
Q 3769 2881 3769 2247 
Q 3769 1728 3584 1258 
Q 3400 788 3053 416 
Q 2822 169 2531 39 
Q 2241 -91 1919 -91 
Q 1547 -91 1294 64 
Q 1041 219 916 525 
L 556 -1331 
L -19 -1331 
L 922 3500 
L 1497 3500 
L 1394 2969 
z
" transform="scale(0.015625)"/>
      </defs>
      <use xlink:href="#DejaVuSans-Oblique-69" transform="translate(0 0.015625)"/>
      <use xlink:href="#DejaVuSans-Oblique-70" transform="translate(27.783203 -16.390625) scale(0.7)"/>
      <use xlink:href="#DejaVuSans-20" transform="translate(74.951172 0.015625)"/>
      <use xlink:href="#DejaVuSans-43" transform="translate(106.738281 0.015625)"/>
      <use xlink:href="#DejaVuSans-6f" transform="translate(176.5625 0.015625)"/>
      <use xlink:href="#DejaVuSans-72" transform="translate(237.744141 0.015625)"/>
      <use xlink:href="#DejaVuSans-64" transform="translate(278.857422 0.015625)"/>
      <use xlink:href="#DejaVuSans-2e" transform="translate(342.333984 0.015625)"/>
      <use xlink:href="#DejaVuSans-20" transform="translate(374.121094 0.015625)"/>
      <use xlink:href="#DejaVuSans-5b" transform="translate(405.908203 0.015625)"/>
      <use xlink:href="#DejaVuSans-6b" transform="translate(444.921875 0.015625)"/>
      <use xlink:href="#DejaVuSans-6d" transform="translate(502.832031 0.015625)"/>
      <use xlink:href="#DejaVuSans-5d" transform="translate(600.244141 0.015625)"/>
     </g>
    </g>
   </g>
   <g id="line2d_13">
    <path d="M 250.125704 19.196653 
L 246.815862 18.295893 
L 243.459022 17.590188 
L 240.066666 17.081952 
L 236.650403 16.772925 
L 233.221921 16.664162 
L 229.792947 16.756036 
L 226.375215 17.048233 
L 222.980416 17.539752 
L 219.620164 18.228913 
L 216.305955 19.113357 
L 213.049128 20.190058 
L 209.860825 21.455333 
L 206.751953 22.904854 
L 203.733149 24.533661 
L 200.814741 26.336181 
L 198.006714 28.306249 
L 195.318676 30.437124 
L 192.759822 32.721516 
L 190.338907 35.151611 
L 188.064215 37.719094 
L 185.943528 40.415181 
L 183.984102 43.230649 
L 182.192642 46.155866 
L 180.575278 49.180823 
L 179.137542 52.295173 
L 177.884356 55.488259 
L 176.820007 58.749158 
L 175.948139 62.066712 
L 175.271734 65.429572 
L 174.793109 68.82623 
L 174.513902 72.245067 
L 174.435069 75.674385 
L 174.556882 79.10245 
L 174.878925 82.517532 
L 175.400097 85.907947 
L 176.118616 89.262094 
L 177.032026 92.568498 
L 178.137202 95.815843 
L 179.430365 98.993019 
L 180.907091 102.089154 
L 182.562329 105.093653 
L 184.390416 107.996235 
L 186.385099 110.786966 
L 188.539554 113.456296 
L 190.846409 115.99509 
L 193.297771 118.394659 
L 195.885255 120.64679 
L 198.600006 122.743776 
L 201.432736 124.678438 
L 204.373753 126.444156 
L 207.412992 128.034885 
L 210.540054 129.445179 
L 213.744239 130.670211 
L 217.014582 131.705787 
L 220.339891 132.548362 
L 223.708789 133.195049 
L 227.109745 133.643634 
L 230.531122 133.89258 
L 233.961209 133.941034 
L 237.388269 133.788827 
L 240.800572 133.436479 
L 244.186439 132.885193 
L 247.534282 132.136855 
L 250.832643 131.194025 
L 254.070232 130.059927 
L 257.235968 128.738442 
L 260.319015 127.234092 
L 263.308821 125.552022 
L 266.19515 123.69799 
L 268.968125 121.67834 
L 271.618253 119.499983 
L 274.136462 117.170374 
L 276.514133 114.697485 
L 278.743126 112.089779 
L 280.815812 109.356182 
L 282.725093 106.50605 
L 284.464434 103.549137 
L 286.02788 100.495564 
L 287.410079 97.355784 
L 288.606298 94.140542 
L 289.612443 90.860844 
L 290.425067 87.527916 
L 291.041389 84.153167 
L 291.459298 80.748148 
L 291.677362 77.324515 
L 291.694834 73.893987 
L 291.511655 70.468306 
L 291.128449 67.0592 
L 290.546529 63.678339 
L 289.767886 60.337294 
L 288.795184 57.047505 
L 287.631754 53.820232 
L 286.281576 50.666522 
L 284.749272 47.597172 
L 283.040088 44.622688 
L 281.159874 41.753253 
L 279.115065 38.998689 
L 276.912662 36.368426 
L 274.560204 33.871469 
L 272.065743 31.516365 
L 269.437817 29.311176 
L 266.685423 27.263451 
L 263.817983 25.380201 
L 260.845313 23.667872 
L 257.777589 22.132327 
L 254.625314 20.778823 
L 251.399277 19.611993 
L 248.110522 18.635831 
L 244.770308 17.85368 
L 241.390069 17.268217 
L 237.981378 16.881446 
L 234.555904 16.694693 
L 231.125372 16.708596 
L 227.701526 16.923107 
L 224.296087 17.337494 
L 220.920713 17.950338 
L 217.586961 18.75954 
L 214.306242 19.762331 
L 211.089787 20.955278 
L 207.948609 22.334298 
L 204.89346 23.89467 
L 201.9348 25.631054 
L 199.082757 27.537504 
L 196.347097 29.607494 
L 193.737184 31.83394 
L 191.261953 34.209218 
L 188.92988 36.725199 
L 186.748948 39.373269 
L 184.726625 42.144363 
L 182.869834 45.028995 
L 181.184932 48.01729 
L 179.677691 51.099018 
L 178.353269 54.263628 
L 177.216204 57.500286 
L 176.270388 60.797911 
L 175.519062 64.145214 
L 174.964798 67.530735 
L 174.609496 70.942882 
L 174.454374 74.369974 
L 174.499964 77.800279 
L 174.746111 81.222052 
L 175.191974 84.623576 
L 175.836029 87.993205 
L 176.676071 91.319402 
L 177.709226 94.590776 
L 178.931959 97.796128 
L 180.340084 100.924481 
L 181.928782 103.965124 
L 183.692615 106.907644 
L 185.625544 109.741964 
L 187.720954 112.45838 
L 189.97167 115.047588 
L 192.369988 117.500721 
L 194.907697 119.809377 
L 197.576106 121.965649 
L 200.366082 123.962152 
L 203.268069 125.792047 
L 206.272133 127.449066 
L 209.367987 128.927533 
L 212.54503 130.222383 
L 215.792384 131.32918 
L 219.098928 132.244132 
L 222.453339 132.964104 
L 225.84413 133.486627 
L 229.259688 133.809911 
L 232.688316 133.932846 
L 236.118273 133.855009 
L 239.537811 133.576665 
L 242.93522 133.098766 
L 246.298863 132.422945 
L 249.617222 131.551517 
L 252.878929 130.487463 
L 256.072814 129.234426 
L 259.187937 127.796696 
L 262.213628 126.179197 
L 265.139523 124.387465 
L 267.955597 122.427639 
L 270.652207 120.306428 
L 273.220115 118.031096 
L 275.650524 115.609437 
L 277.935109 113.049742 
L 280.066044 110.36078 
L 282.036028 107.551761 
L 283.838312 104.632305 
L 285.466722 101.612412 
L 286.915679 98.502426 
L 288.18022 95.312999 
L 289.256012 92.055055 
L 290.139369 88.739754 
L 290.827265 85.37845 
L 291.317342 81.98266 
L 291.607921 78.564013 
L 291.698006 75.134221 
L 291.587287 71.705031 
L 291.276144 68.288191 
L 290.765642 64.895405 
L 290.057529 61.538293 
L 289.154229 58.228358 
L 288.058838 54.976937 
L 286.775107 51.79517 
L 285.307434 48.693956 
L 283.660845 45.683917 
L 281.840981 42.775365 
L 279.854076 39.978263 
L 277.706935 37.302192 
L 275.406914 34.75632 
L 272.961891 32.349368 
L 270.380241 30.089582 
L 267.67081 27.984702 
L 264.842879 26.041941 
L 261.906136 24.267953 
L 258.87064 22.668816 
L 255.746789 21.250006 
L 252.545286 20.016386 
L 249.277096 18.97218 
L 245.953416 18.120966 
L 242.58563 17.46566 
L 239.185276 17.008507 
L 235.764004 16.751073 
L 232.333533 16.69424 
L 228.905615 16.838203 
L 225.491993 17.18247 
L 222.10436 17.72586 
L 218.754322 18.466513 
L 215.453355 19.401893 
L 212.212765 20.528795 
L 209.043655 21.84336 
L 205.956881 23.341084 
L 202.963019 25.016837 
L 200.072325 26.86488 
L 197.294702 28.878881 
L 194.639666 31.051942 
L 192.116313 33.37662 
L 189.73329 35.844949 
L 187.49876 38.448476 
L 185.420381 41.17828 
L 183.505272 44.02501 
L 181.759997 46.978914 
L 180.190535 50.029872 
L 178.802265 53.167432 
L 177.599943 56.380846 
L 176.58769 59.659105 
L 175.768976 62.990978 
L 175.146606 66.36505 
L 174.722714 69.769762 
L 174.498754 73.193448 
L 174.475494 76.62438 
L 174.653017 80.0508 
L 175.030716 83.460971 
L 175.607297 86.843206 
L 176.380788 90.185918 
L 177.348539 93.477651 
L 178.507237 96.707127 
L 179.852913 99.86328 
L 181.380957 102.935294 
L 183.086136 105.912644 
L 184.96261 108.785125 
L 187.003949 111.542896 
L 189.203161 114.176504 
L 191.552712 116.676924 
L 194.044552 119.035587 
L 196.670144 121.244407 
L 199.420492 123.295816 
L 202.286172 125.182781 
L 205.257367 126.898833 
L 208.323893 128.43809 
L 211.475245 129.795275 
L 214.700622 130.965736 
L 217.988974 131.945457 
L 221.329031 132.731081 
L 224.709347 133.319911 
L 228.118338 133.709928 
L 231.544319 133.899793 
L 234.975551 133.888852 
L 238.400272 133.677142 
L 241.806745 133.265384 
L 245.183295 132.654989 
L 248.518349 131.848045 
L 251.800474 130.847317 
L 255.018422 129.656233 
L 258.16116 128.278873 
L 261.217917 126.719957 
L 264.178213 124.984825 
L 267.031902 123.079424 
L 269.7692 121.010282 
L 272.380725 118.78449 
L 274.857524 116.409677 
L 277.191104 113.893981 
L 279.373466 111.246025 
L 281.397127 108.474884 
L 283.255149 105.590056 
L 284.941161 102.60143 
L 286.449381 99.519251 
L 287.774639 96.354085 
L 288.912388 93.116782 
L 289.858728 89.818439 
L 290.610414 86.470361 
L 291.164868 83.084027 
L 291.520186 79.671045 
L 291.675151 76.243116 
L 291.62923 72.811991 
L 291.382579 69.389432 
L 290.936043 65.987173 
L 290.291152 62.616878 
L 289.450115 59.290103 
L 288.415816 56.018251 
L 287.191799 52.812542 
L 285.78226 49.683965 
L 284.19203 46.643247 
L 282.426562 43.700812 
L 280.491906 40.866748 
L 278.394694 38.150773 
L 276.142117 35.562197 
L 273.741897 33.109898 
L 271.202263 30.802282 
L 268.531921 28.647263 
L 265.740025 26.652229 
L 262.836149 24.824021 
L 259.830248 23.168908 
L 256.732627 21.692564 
L 253.553907 20.400054 
L 250.304987 19.295808 
L 246.997006 18.383613 
L 243.641305 17.666599 
L 240.249389 17.147223 
L 236.832888 16.827268 
L 233.403514 16.70783 
L 229.973028 16.789321 
L 226.553192 17.071462 
L 223.155731 17.553286 
L 219.792296 18.233142 
L 216.474418 19.108701 
L 213.213476 20.17696 
L 210.020649 21.434258 
L 206.906887 22.876285 
L 203.882866 24.498098 
L 200.958957 26.294135 
L 198.145186 28.25824 
L 195.451202 30.383679 
L 192.886243 32.663165 
L 190.459106 35.088883 
L 188.178114 37.652515 
L 186.051091 40.345271 
L 184.085332 43.15792 
L 182.287578 46.080815 
L 180.663998 49.103935 
L 179.220158 52.216915 
L 177.961012 55.409079 
L 176.89088 58.669482 
L 176.013433 61.986943 
L 175.331683 65.350085 
L 174.84797 68.747376 
L 174.563954 72.167164 
L 174.480612 75.597721 
L 174.598232 79.027284 
L 174.916412 82.444089 
L 175.434064 85.836419 
L 176.149414 89.192641 
L 177.060013 92.501242 
L 178.162738 95.750874 
L 179.453811 98.93039 
L 180.928804 102.028883 
L 182.582662 105.035725 
L 184.409714 107.940601 
L 186.403696 110.733546 
L 188.557769 113.404978 
L 190.864548 115.945733 
L 193.316121 118.347093 
L 195.90408 120.600819 
L 198.61955 122.699179 
L 201.453218 124.634971 
L 204.395365 126.401555 
L 207.4359 127.992867 
L 210.564392 129.403446 
L 213.770109 130.628451 
L 217.042055 131.663676 
L 220.369006 132.505569 
L 223.739549 133.151237 
L 227.142121 133.598465 
L 230.565049 133.845715 
L 233.99659 133.892137 
L 237.424972 133.737569 
L 240.838434 133.38254 
L 244.225263 132.828265 
L 247.573839 132.076643 
L 250.872672 131.130252 
L 254.110442 129.992336 
L 257.27604 128.666798 
L 260.358602 127.158185 
L 263.347551 125.471672 
L 266.232628 123.613043 
L 269.003936 121.588675 
L 271.651963 119.405512 
L 274.167623 117.071042 
L 276.542284 114.593276 
L 278.767794 111.980714 
L 280.836516 109.242321 
L 282.741348 106.387493 
L 284.475755 103.426025 
L 286.033783 100.368078 
L 287.410084 97.224145 
L 288.599934 94.005016 
L 289.599248 90.721735 
L 290.404596 87.385571 
L 291.013213 84.00797 
L 291.423009 80.600524 
L 291.632576 77.174925 
L 291.641195 73.742929 
L 291.448833 70.316316 
L 291.056151 66.906844 
L 290.464495 63.526215 
L 289.675894 60.18603 
L 288.693052 56.897753 
L 287.519343 53.672668 
L 286.158792 50.521844 
L 284.616068 47.456096 
L 282.896466 44.485946 
L 281.005884 41.621587 
L 278.950812 38.872853 
L 276.738303 36.249178 
L 274.37595 33.759568 
L 271.871858 31.412568 
L 269.234622 29.216234 
L 266.473293 27.178106 
L 263.597347 25.305179 
L 260.616654 23.603883 
L 257.541445 22.080057 
L 254.382273 20.738934 
L 251.149981 19.585118 
L 247.855664 18.622571 
L 244.510626 17.854597 
L 241.126351 17.283833 
L 237.714453 16.912241 
L 234.286643 16.741098 
L 230.854688 16.770992 
L 227.430369 17.001823 
L 224.025443 17.432799 
L 220.651598 18.062443 
L 217.320414 18.888596 
L 214.043327 19.908422 
L 210.831585 21.118424 
L 207.696216 22.514449 
L 204.647982 24.091706 
L 201.697349 25.844782 
L 198.854448 27.767662 
L 196.129039 29.853745 
L 193.53048 32.095872 
L 191.067692 34.486347 
L 188.749133 37.016965 
L 186.582763 39.679039 
L 184.576023 42.463431 
L 182.735803 45.360584 
L 181.068424 48.360553 
L 179.579611 51.453039 
L 178.27448 54.627425 
L 177.157512 57.872813 
L 176.232546 61.178061 
L 175.502761 64.531822 
L 174.970663 67.922582 
L 174.638084 71.338698 
L 174.506168 74.76844 
L 174.57537 78.200033 
L 174.845457 81.621691 
L 175.315502 85.021666 
L 175.983896 88.38828 
L 176.848345 91.709973 
L 177.905884 94.975338 
L 179.152884 98.173161 
L 180.585066 101.292458 
L 182.197513 104.322516 
L 183.984692 107.252928 
L 185.940467 110.07363 
L 188.058124 112.774932 
L 190.330393 115.347554 
L 192.749471 117.782658 
L 195.30705 120.071878 
L 197.994349 122.207349 
L 200.802138 124.181733 
L 203.720778 125.988249 
L 206.740246 127.620688 
L 209.850169 129.07344 
L 213.039866 130.341512 
L 216.298382 131.420546 
L 219.614524 132.306832 
L 222.976903 132.997323 
L 226.37397 133.489645 
L 229.794057 133.782103 
L 233.225414 133.873691 
L 236.656255 133.76409 
L 240.074794 133.453673 
L 243.469288 132.943505 
L 246.828073 132.235335 
L 250.13961 131.331592 
L 253.39252 130.235381 
L 256.575624 128.950463 
L 259.677987 127.481251 
L 262.688949 125.83279 
L 265.598163 124.010741 
L 268.395632 122.021363 
L 271.071741 119.87149 
L 273.617293 117.568506 
L 276.023539 115.120324 
L 278.28221 112.535352 
L 280.385544 109.822472 
L 282.32631 106.991005 
L 284.097836 104.05068 
L 285.694034 101.011599 
L 287.109416 97.884204 
L 288.339116 94.67924 
L 289.378908 91.407721 
L 290.225214 88.080888 
L 290.875124 84.710174 
L 291.326403 81.307161 
L 291.577497 77.883543 
L 291.627542 74.451085 
L 291.476361 71.021584 
L 291.124474 67.606829 
L 290.573087 64.218555 
L 289.824092 60.868408 
L 288.880061 57.567901 
L 287.744237 54.32838 
L 286.420521 51.160979 
L 284.913461 48.076587 
L 283.228237 45.08581 
L 281.370638 42.198927 
L 279.34705 39.425865 
L 277.164425 36.776157 
L 274.830265 34.258911 
L 272.352591 31.882782 
L 269.739918 29.655938 
L 267.001224 27.586036 
L 264.145923 25.680191 
L 261.183828 23.94496 
L 258.125122 22.386307 
L 254.980316 21.009595 
L 251.760223 19.819557 
L 248.475912 18.820289 
L 245.138675 18.015227 
L 241.759985 17.407144 
L 238.351457 16.998131 
L 234.924809 16.789597 
L 231.491823 16.782262 
L 228.064298 16.976155 
L 224.654019 17.370611 
L 221.272712 17.964278 
L 217.932003 18.755116 
L 214.643384 19.740411 
L 211.418162 20.916776 
L 208.267428 22.28017 
L 205.202019 23.825907 
L 202.232477 25.548675 
L 199.369016 27.442552 
L 196.621487 29.501028 
L 193.999338 31.717026 
L 191.511589 34.082932 
L 189.166797 36.590609 
L 186.97303 39.231436 
L 184.937837 41.996332 
L 183.06822 44.87579 
L 181.370613 47.859908 
L 179.850857 50.938427 
L 178.514183 54.100759 
L 177.365192 57.336031 
L 176.407842 60.633114 
L 175.645429 63.980668 
L 175.080581 67.367177 
L 174.715245 70.780993 
L 174.550682 74.210373 
L 174.587463 77.643518 
L 174.825467 81.068617 
L 175.263878 84.473886 
L 175.901194 87.84761 
L 176.735228 91.178184 
L 177.763113 94.454147 
L 178.981319 97.664223 
L 180.385658 100.797365 
L 181.971301 103.842789 
L 183.732798 106.790014 
L 185.664092 109.628897 
L 187.75854 112.349664 
L 190.008941 114.942952 
L 192.407555 117.399832 
L 194.946128 119.711844 
L 197.615926 121.871026 
L 200.407766 123.869942 
L 203.312039 125.701709 
L 206.318755 127.360019 
L 209.417569 128.839159 
L 212.597814 130.134032 
L 215.848545 131.240176 
L 219.158571 132.153777 
L 222.5165 132.871686 
L 225.910772 133.391426 
L 229.329703 133.711202 
L 232.761521 133.82991 
L 236.194411 133.747134 
L 239.616555 133.463156 
L 243.016167 132.978948 
L 246.381541 132.296173 
L 249.70109 131.417177 
L 252.963381 130.344982 
L 256.15718 129.083276 
L 259.271487 127.6364 
L 262.295577 126.009332 
L 265.219036 124.207668 
L 268.031794 122.237609 
L 270.72416 120.105939 
L 273.286855 117.819996 
L 275.711053 115.38765 
L 277.9884 112.817274 
L 280.111051 110.11772 
L 282.07169 107.298283 
L 283.86356 104.368673 
L 285.480485 101.338982 
L 286.916891 98.219642 
L 288.167828 95.021398 
L 289.228983 91.755263 
L 290.096698 88.432486 
L 290.76798 85.064512 
L 291.240513 81.662946 
L 291.512664 78.239507 
L 291.583493 74.805989 
L 291.452752 71.374221 
L 291.120889 67.956029 
L 290.589042 64.563192 
L 289.859042 61.207397 
L 288.933399 57.900205 
L 287.815299 54.653011 
L 286.508592 51.477007 
L 285.017779 48.383141 
L 283.347995 45.382079 
L 281.504992 42.484164 
L 279.495117 39.699383 
L 277.325296 37.037337 
L 275.003005 34.507203 
L 272.536242 32.117699 
L 269.933505 29.877063 
L 267.203762 27.793019 
L 264.356419 25.872753 
L 261.401284 24.122884 
L 258.348538 22.549447 
L 255.208704 21.157868 
L 251.992601 19.952948 
L 248.711319 18.938847 
L 245.376167 18.119065 
L 241.99864 17.49643 
L 238.590382 17.073095 
L 235.163142 16.850524 
L 231.728737 16.829488 
L 228.299006 17.010064 
L 224.885773 17.391637 
L 221.500807 17.972894 
L 218.155774 18.751839 
L 214.862212 19.725791 
L 211.63148 20.891397 
L 208.474722 22.244642 
L 205.402829 23.780864 
L 202.426394 25.494774 
L 199.555685 27.380466 
L 196.800608 29.431441 
L 194.170668 31.640631 
L 191.674943 34.000421 
L 189.322044 36.502678 
L 187.120092 39.138776 
L 185.076688 41.899628 
L 183.19889 44.775712 
L 181.493184 47.757105 
L 179.965462 50.833528 
L 178.621001 53.994371 
L 177.464449 57.228731 
L 176.499803 60.525449 
L 175.7304 63.873157 
L 175.158905 67.260304 
L 174.787298 70.675202 
L 174.616872 74.106064 
L 174.648226 77.541053 
L 174.88126 80.968309 
L 175.31518 84.376 
L 175.948498 87.752362 
L 176.779038 91.085734 
L 177.803945 94.364612 
L 179.019691 97.577675 
L 180.422089 100.713826 
L 182.006305 103.762226 
L 183.766875 106.712337 
L 185.697729 109.553965 
L 187.792202 112.277283 
L 190.043067 114.872877 
L 192.442556 117.331773 
L 194.982393 119.645472 
L 197.653812 121.805976 
L 200.44759 123.805809 
L 203.354078 125.638052 
L 206.363239 127.296363 
L 209.464682 128.775002 
L 212.647695 130.06885 
L 215.901277 131.173422 
L 219.214183 132.084889 
L 222.574968 132.800088 
L 225.972007 133.316534 
L 229.393554 133.632431 
L 232.827778 133.746673 
L 236.26281 133.658855 
L 239.686767 133.369268 
L 243.087802 132.878903 
L 246.454153 132.189444 
L 249.77418 131.303262 
L 253.036394 130.22341 
L 256.229504 128.953612 
L 259.342461 127.498249 
L 262.364496 125.862339 
L 265.285146 124.051531 
L 268.094299 122.072076 
L 270.782219 119.930816 
L 273.339596 117.635149 
L 275.757577 115.193 
L 278.027777 112.612814 
L 280.142319 109.903518 
L 282.093867 107.074486 
L 283.875641 104.135517 
L 285.481455 101.096783 
L 286.905732 97.968804 
L 288.143523 94.762407 
L 289.190526 91.488691 
L 290.0431 88.15898 
L 290.698273 84.784809 
L 291.153753 81.377885 
L 291.407944 77.950016 
L 291.459944 74.513089 
L 291.309556 71.079023 
L 290.957282 67.65971 
L 290.404321 64.267004 
L 289.652577 60.912695 
L 288.704636 57.608425 
L 287.563765 54.365654 
L 286.233904 51.195643 
L 284.719649 48.109406 
L 283.026242 45.117677 
L 281.159541 42.230851 
L 279.126002 39.458952 
L 276.932664 36.811617 
L 274.587131 34.298064 
L 272.097554 31.927063 
L 269.472573 29.706877 
L 266.721298 27.645243 
L 263.85327 25.749344 
L 260.87844 24.02579 
L 257.807134 22.480597 
L 254.650023 21.119167 
L 251.41806 19.946259 
L 248.12246 18.965979 
L 244.774692 18.181777 
L 241.38645 17.596428 
L 237.969536 17.212009 
L 234.535856 17.029897 
L 231.0974 17.050764 
L 227.666184 17.274577 
L 224.254203 17.700591 
L 220.873447 18.327347 
L 217.53574 19.15269 
L 214.252723 20.173783 
L 211.035906 21.38709 
L 209.770254 21.925312 
L 209.770254 21.925312 
" clip-path="url(#pc8af6ca2a9)" style="fill: none; stroke: #aa0000; stroke-linecap: square"/>
   </g>
   <g id="patch_4">
    <path d="M 62.946719 139.811563 
L 62.946719 10.8 
" style="fill: none; stroke: #000000; stroke-width: 0.8; stroke-linejoin: miter; stroke-linecap: square"/>
   </g>
   <g id="patch_5">
    <path d="M 403.2 139.811563 
L 403.2 10.8 
" style="fill: none; stroke: #000000; stroke-width: 0.8; stroke-linejoin: miter; stroke-linecap: square"/>
   </g>
   <g id="patch_6">
    <path d="M 62.946719 139.811563 
L 403.2 139.811563 
" style="fill: none; stroke: #000000; stroke-width: 0.8; stroke-linejoin: miter; stroke-linecap: square"/>
   </g>
   <g id="patch_7">
    <path d="M 62.946719 10.8 
L 403.2 10.8 
" style="fill: none; stroke: #000000; stroke-width: 0.8; stroke-linejoin: miter; stroke-linecap: square"/>
   </g>
  </g>
 </g>
 <defs>
  <clipPath id="pc8af6ca2a9">
   <rect x="62.946719" y="10.8" width="340.253281" height="129.011562"/>
  </clipPath>
 </defs>
</svg>
