<?xml version="1.0" encoding="utf-8" standalone="no"?>
<!DOCTYPE svg PUBLIC "-//W3C//DTD SVG 1.1//EN"
  "http://www.w3.org/Graphics/SVG/1.1/DTD/svg11.dtd">
<svg xmlns:xlink="http://www.w3.org/1999/xlink" width="414pt" height="288pt" viewBox="0 0 414 288" xmlns="http://www.w3.org/2000/svg" version="1.1">
 <metadata>
  <rdf:RDF xmlns:dc="http://purl.org/dc/elements/1.1/" xmlns:cc="http://creativecommons.org/ns#" xmlns:rdf="http://www.w3.org/1999/02/22-rdf-syntax-ns#">
   <cc:Work>
    <dc:type rdf:resource="http://purl.org/dc/dcmitype/StillImage"/>
    <dc:date>2024-10-14T15:09:21.756588</dc:date>
    <dc:format>image/svg+xml</dc:format>
    <dc:creator>
     <cc:Agent>
      <dc:title>Matplotlib v3.9.2, https://matplotlib.org/</dc:title>
     </cc:Agent>
    </dc:creator>
   </cc:Work>
  </rdf:RDF>
 </metadata>
 <defs>
  <style type="text/css">*{stroke-linejoin: round; stroke-linecap: butt}</style>
 </defs>
 <g id="figure_1">
  <g id="patch_1">
   <path d="M 0 288 
L 414 288 
L 414 0 
L 0 0 
L 0 288 
z
" style="fill: none"/>
  </g>
  <g id="axes_1">
   <g id="patch_2">
    <path d="M 76.14 241.036875 
L 403.2 241.036875 
L 403.2 25.918125 
L 76.14 25.918125 
L 76.14 241.036875 
z
" style="fill: none"/>
   </g>
   <g id="matplotlib.axis_1">
    <g id="xtick_1">
     <g id="line2d_1">
      <defs>
       <path id="m7dbc603321" d="M 0 0 
L 0 3.5 
" style="stroke: #000000; stroke-width: 0.8"/>
      </defs>
      <g>
       <use xlink:href="#m7dbc603321" x="91.006364" y="241.036875" style="stroke: #000000; stroke-width: 0.8"/>
      </g>
     </g>
     <g id="text_1">
      <!-- 0 -->
      <g transform="translate(85.916364 260.194375) scale(0.16 -0.16)">
       <defs>
        <path id="DejaVuSans-30" d="M 2034 4250 
Q 1547 4250 1301 3770 
Q 1056 3291 1056 2328 
Q 1056 1369 1301 889 
Q 1547 409 2034 409 
Q 2525 409 2770 889 
Q 3016 1369 3016 2328 
Q 3016 3291 2770 3770 
Q 2525 4250 2034 4250 
z
M 2034 4750 
Q 2819 4750 3233 4129 
Q 3647 3509 3647 2328 
Q 3647 1150 3233 529 
Q 2819 -91 2034 -91 
Q 1250 -91 836 529 
Q 422 1150 422 2328 
Q 422 3509 836 4129 
Q 1250 4750 2034 4750 
z
" transform="scale(0.015625)"/>
       </defs>
       <use xlink:href="#DejaVuSans-30"/>
      </g>
     </g>
    </g>
    <g id="xtick_2">
     <g id="line2d_2">
      <g>
       <use xlink:href="#m7dbc603321" x="190.115455" y="241.036875" style="stroke: #000000; stroke-width: 0.8"/>
      </g>
     </g>
     <g id="text_2">
      <!-- 20 -->
      <g transform="translate(179.935455 260.194375) scale(0.16 -0.16)">
       <defs>
        <path id="DejaVuSans-32" d="M 1228 531 
L 3431 531 
L 3431 0 
L 469 0 
L 469 531 
Q 828 903 1448 1529 
Q 2069 2156 2228 2338 
Q 2531 2678 2651 2914 
Q 2772 3150 2772 3378 
Q 2772 3750 2511 3984 
Q 2250 4219 1831 4219 
Q 1534 4219 1204 4116 
Q 875 4013 500 3803 
L 500 4441 
Q 881 4594 1212 4672 
Q 1544 4750 1819 4750 
Q 2544 4750 2975 4387 
Q 3406 4025 3406 3419 
Q 3406 3131 3298 2873 
Q 3191 2616 2906 2266 
Q 2828 2175 2409 1742 
Q 1991 1309 1228 531 
z
" transform="scale(0.015625)"/>
       </defs>
       <use xlink:href="#DejaVuSans-32"/>
       <use xlink:href="#DejaVuSans-30" x="63.623047"/>
      </g>
     </g>
    </g>
    <g id="xtick_3">
     <g id="line2d_3">
      <g>
       <use xlink:href="#m7dbc603321" x="289.224545" y="241.036875" style="stroke: #000000; stroke-width: 0.8"/>
      </g>
     </g>
     <g id="text_3">
      <!-- 40 -->
      <g transform="translate(279.044545 260.194375) scale(0.16 -0.16)">
       <defs>
        <path id="DejaVuSans-34" d="M 2419 4116 
L 825 1625 
L 2419 1625 
L 2419 4116 
z
M 2253 4666 
L 3047 4666 
L 3047 1625 
L 3713 1625 
L 3713 1100 
L 3047 1100 
L 3047 0 
L 2419 0 
L 2419 1100 
L 313 1100 
L 313 1709 
L 2253 4666 
z
" transform="scale(0.015625)"/>
       </defs>
       <use xlink:href="#DejaVuSans-34"/>
       <use xlink:href="#DejaVuSans-30" x="63.623047"/>
      </g>
     </g>
    </g>
    <g id="xtick_4">
     <g id="line2d_4">
      <g>
       <use xlink:href="#m7dbc603321" x="388.333636" y="241.036875" style="stroke: #000000; stroke-width: 0.8"/>
      </g>
     </g>
     <g id="text_4">
      <!-- 60 -->
      <g transform="translate(378.153636 260.194375) scale(0.16 -0.16)">
       <defs>
        <path id="DejaVuSans-36" d="M 2113 2584 
Q 1688 2584 1439 2293 
Q 1191 2003 1191 1497 
Q 1191 994 1439 701 
Q 1688 409 2113 409 
Q 2538 409 2786 701 
Q 3034 994 3034 1497 
Q 3034 2003 2786 2293 
Q 2538 2584 2113 2584 
z
M 3366 4563 
L 3366 3988 
Q 3128 4100 2886 4159 
Q 2644 4219 2406 4219 
Q 1781 4219 1451 3797 
Q 1122 3375 1075 2522 
Q 1259 2794 1537 2939 
Q 1816 3084 2150 3084 
Q 2853 3084 3261 2657 
Q 3669 2231 3669 1497 
Q 3669 778 3244 343 
Q 2819 -91 2113 -91 
Q 1303 -91 875 529 
Q 447 1150 447 2328 
Q 447 3434 972 4092 
Q 1497 4750 2381 4750 
Q 2619 4750 2861 4703 
Q 3103 4656 3366 4563 
z
" transform="scale(0.015625)"/>
       </defs>
       <use xlink:href="#DejaVuSans-36"/>
       <use xlink:href="#DejaVuSans-30" x="63.623047"/>
      </g>
     </g>
    </g>
    <g id="text_5">
     <!-- time (seconds) -->
     <g transform="translate(202.445781 275.120313) scale(0.1 -0.1)">
      <defs>
       <path id="DejaVuSans-74" d="M 1172 4494 
L 1172 3500 
L 2356 3500 
L 2356 3053 
L 1172 3053 
L 1172 1153 
Q 1172 725 1289 603 
Q 1406 481 1766 481 
L 2356 481 
L 2356 0 
L 1766 0 
Q 1100 0 847 248 
Q 594 497 594 1153 
L 594 3053 
L 172 3053 
L 172 3500 
L 594 3500 
L 594 4494 
L 1172 4494 
z
" transform="scale(0.015625)"/>
       <path id="DejaVuSans-69" d="M 603 3500 
L 1178 3500 
L 1178 0 
L 603 0 
L 603 3500 
z
M 603 4863 
L 1178 4863 
L 1178 4134 
L 603 4134 
L 603 4863 
z
" transform="scale(0.015625)"/>
       <path id="DejaVuSans-6d" d="M 3328 2828 
Q 3544 3216 3844 3400 
Q 4144 3584 4550 3584 
Q 5097 3584 5394 3201 
Q 5691 2819 5691 2113 
L 5691 0 
L 5113 0 
L 5113 2094 
Q 5113 2597 4934 2840 
Q 4756 3084 4391 3084 
Q 3944 3084 3684 2787 
Q 3425 2491 3425 1978 
L 3425 0 
L 2847 0 
L 2847 2094 
Q 2847 2600 2669 2842 
Q 2491 3084 2119 3084 
Q 1678 3084 1418 2786 
Q 1159 2488 1159 1978 
L 1159 0 
L 581 0 
L 581 3500 
L 1159 3500 
L 1159 2956 
Q 1356 3278 1631 3431 
Q 1906 3584 2284 3584 
Q 2666 3584 2933 3390 
Q 3200 3197 3328 2828 
z
" transform="scale(0.015625)"/>
       <path id="DejaVuSans-65" d="M 3597 1894 
L 3597 1613 
L 953 1613 
Q 991 1019 1311 708 
Q 1631 397 2203 397 
Q 2534 397 2845 478 
Q 3156 559 3463 722 
L 3463 178 
Q 3153 47 2828 -22 
Q 2503 -91 2169 -91 
Q 1331 -91 842 396 
Q 353 884 353 1716 
Q 353 2575 817 3079 
Q 1281 3584 2069 3584 
Q 2775 3584 3186 3129 
Q 3597 2675 3597 1894 
z
M 3022 2063 
Q 3016 2534 2758 2815 
Q 2500 3097 2075 3097 
Q 1594 3097 1305 2825 
Q 1016 2553 972 2059 
L 3022 2063 
z
" transform="scale(0.015625)"/>
       <path id="DejaVuSans-20" transform="scale(0.015625)"/>
       <path id="DejaVuSans-28" d="M 1984 4856 
Q 1566 4138 1362 3434 
Q 1159 2731 1159 2009 
Q 1159 1288 1364 580 
Q 1569 -128 1984 -844 
L 1484 -844 
Q 1016 -109 783 600 
Q 550 1309 550 2009 
Q 550 2706 781 3412 
Q 1013 4119 1484 4856 
L 1984 4856 
z
" transform="scale(0.015625)"/>
       <path id="DejaVuSans-73" d="M 2834 3397 
L 2834 2853 
Q 2591 2978 2328 3040 
Q 2066 3103 1784 3103 
Q 1356 3103 1142 2972 
Q 928 2841 928 2578 
Q 928 2378 1081 2264 
Q 1234 2150 1697 2047 
L 1894 2003 
Q 2506 1872 2764 1633 
Q 3022 1394 3022 966 
Q 3022 478 2636 193 
Q 2250 -91 1575 -91 
Q 1294 -91 989 -36 
Q 684 19 347 128 
L 347 722 
Q 666 556 975 473 
Q 1284 391 1588 391 
Q 1994 391 2212 530 
Q 2431 669 2431 922 
Q 2431 1156 2273 1281 
Q 2116 1406 1581 1522 
L 1381 1569 
Q 847 1681 609 1914 
Q 372 2147 372 2553 
Q 372 3047 722 3315 
Q 1072 3584 1716 3584 
Q 2034 3584 2315 3537 
Q 2597 3491 2834 3397 
z
" transform="scale(0.015625)"/>
       <path id="DejaVuSans-63" d="M 3122 3366 
L 3122 2828 
Q 2878 2963 2633 3030 
Q 2388 3097 2138 3097 
Q 1578 3097 1268 2742 
Q 959 2388 959 1747 
Q 959 1106 1268 751 
Q 1578 397 2138 397 
Q 2388 397 2633 464 
Q 2878 531 3122 666 
L 3122 134 
Q 2881 22 2623 -34 
Q 2366 -91 2075 -91 
Q 1284 -91 818 406 
Q 353 903 353 1747 
Q 353 2603 823 3093 
Q 1294 3584 2113 3584 
Q 2378 3584 2631 3529 
Q 2884 3475 3122 3366 
z
" transform="scale(0.015625)"/>
       <path id="DejaVuSans-6f" d="M 1959 3097 
Q 1497 3097 1228 2736 
Q 959 2375 959 1747 
Q 959 1119 1226 758 
Q 1494 397 1959 397 
Q 2419 397 2687 759 
Q 2956 1122 2956 1747 
Q 2956 2369 2687 2733 
Q 2419 3097 1959 3097 
z
M 1959 3584 
Q 2709 3584 3137 3096 
Q 3566 2609 3566 1747 
Q 3566 888 3137 398 
Q 2709 -91 1959 -91 
Q 1206 -91 779 398 
Q 353 888 353 1747 
Q 353 2609 779 3096 
Q 1206 3584 1959 3584 
z
" transform="scale(0.015625)"/>
       <path id="DejaVuSans-6e" d="M 3513 2113 
L 3513 0 
L 2938 0 
L 2938 2094 
Q 2938 2591 2744 2837 
Q 2550 3084 2163 3084 
Q 1697 3084 1428 2787 
Q 1159 2491 1159 1978 
L 1159 0 
L 581 0 
L 581 3500 
L 1159 3500 
L 1159 2956 
Q 1366 3272 1645 3428 
Q 1925 3584 2291 3584 
Q 2894 3584 3203 3211 
Q 3513 2838 3513 2113 
z
" transform="scale(0.015625)"/>
       <path id="DejaVuSans-64" d="M 2906 2969 
L 2906 4863 
L 3481 4863 
L 3481 0 
L 2906 0 
L 2906 525 
Q 2725 213 2448 61 
Q 2172 -91 1784 -91 
Q 1150 -91 751 415 
Q 353 922 353 1747 
Q 353 2572 751 3078 
Q 1150 3584 1784 3584 
Q 2172 3584 2448 3432 
Q 2725 3281 2906 2969 
z
M 947 1747 
Q 947 1113 1208 752 
Q 1469 391 1925 391 
Q 2381 391 2643 752 
Q 2906 1113 2906 1747 
Q 2906 2381 2643 2742 
Q 2381 3103 1925 3103 
Q 1469 3103 1208 2742 
Q 947 2381 947 1747 
z
" transform="scale(0.015625)"/>
       <path id="DejaVuSans-29" d="M 513 4856 
L 1013 4856 
Q 1481 4119 1714 3412 
Q 1947 2706 1947 2009 
Q 1947 1309 1714 600 
Q 1481 -109 1013 -844 
L 513 -844 
Q 928 -128 1133 580 
Q 1338 1288 1338 2009 
Q 1338 2731 1133 3434 
Q 928 4138 513 4856 
z
" transform="scale(0.015625)"/>
      </defs>
      <use xlink:href="#DejaVuSans-74"/>
      <use xlink:href="#DejaVuSans-69" x="39.208984"/>
      <use xlink:href="#DejaVuSans-6d" x="66.992188"/>
      <use xlink:href="#DejaVuSans-65" x="164.404297"/>
      <use xlink:href="#DejaVuSans-20" x="225.927734"/>
      <use xlink:href="#DejaVuSans-28" x="257.714844"/>
      <use xlink:href="#DejaVuSans-73" x="296.728516"/>
      <use xlink:href="#DejaVuSans-65" x="348.828125"/>
      <use xlink:href="#DejaVuSans-63" x="410.351562"/>
      <use xlink:href="#DejaVuSans-6f" x="465.332031"/>
      <use xlink:href="#DejaVuSans-6e" x="526.513672"/>
      <use xlink:href="#DejaVuSans-64" x="589.892578"/>
      <use xlink:href="#DejaVuSans-73" x="653.369141"/>
      <use xlink:href="#DejaVuSans-29" x="705.46875"/>
     </g>
    </g>
   </g>
   <g id="matplotlib.axis_2">
    <g id="ytick_1">
     <g id="line2d_5">
      <defs>
       <path id="m4b48a07b50" d="M 0 0 
L -3.5 0 
" style="stroke: #000000; stroke-width: 0.8"/>
      </defs>
      <g>
       <use xlink:href="#m4b48a07b50" x="76.14" y="204.509999" style="stroke: #000000; stroke-width: 0.8"/>
      </g>
     </g>
     <g id="text_6">
      <!-- $\mathdefault{10^{-11}}$ -->
      <g transform="translate(24.5 210.588749) scale(0.16 -0.16)">
       <defs>
        <path id="DejaVuSans-31" d="M 794 531 
L 1825 531 
L 1825 4091 
L 703 3866 
L 703 4441 
L 1819 4666 
L 2450 4666 
L 2450 531 
L 3481 531 
L 3481 0 
L 794 0 
L 794 531 
z
" transform="scale(0.015625)"/>
        <path id="DejaVuSans-2212" d="M 678 2272 
L 4684 2272 
L 4684 1741 
L 678 1741 
L 678 2272 
z
" transform="scale(0.015625)"/>
       </defs>
       <use xlink:href="#DejaVuSans-31" transform="translate(0 0.684375)"/>
       <use xlink:href="#DejaVuSans-30" transform="translate(63.623047 0.684375)"/>
       <use xlink:href="#DejaVuSans-2212" transform="translate(128.203125 38.965625) scale(0.7)"/>
       <use xlink:href="#DejaVuSans-31" transform="translate(186.855469 38.965625) scale(0.7)"/>
       <use xlink:href="#DejaVuSans-31" transform="translate(231.391602 38.965625) scale(0.7)"/>
      </g>
     </g>
    </g>
    <g id="ytick_2">
     <g id="line2d_6">
      <g>
       <use xlink:href="#m4b48a07b50" x="76.14" y="162.372175" style="stroke: #000000; stroke-width: 0.8"/>
      </g>
     </g>
     <g id="text_7">
      <!-- $\mathdefault{10^{-9}}$ -->
      <g transform="translate(31.54 168.450925) scale(0.16 -0.16)">
       <defs>
        <path id="DejaVuSans-39" d="M 703 97 
L 703 672 
Q 941 559 1184 500 
Q 1428 441 1663 441 
Q 2288 441 2617 861 
Q 2947 1281 2994 2138 
Q 2813 1869 2534 1725 
Q 2256 1581 1919 1581 
Q 1219 1581 811 2004 
Q 403 2428 403 3163 
Q 403 3881 828 4315 
Q 1253 4750 1959 4750 
Q 2769 4750 3195 4129 
Q 3622 3509 3622 2328 
Q 3622 1225 3098 567 
Q 2575 -91 1691 -91 
Q 1453 -91 1209 -44 
Q 966 3 703 97 
z
M 1959 2075 
Q 2384 2075 2632 2365 
Q 2881 2656 2881 3163 
Q 2881 3666 2632 3958 
Q 2384 4250 1959 4250 
Q 1534 4250 1286 3958 
Q 1038 3666 1038 3163 
Q 1038 2656 1286 2365 
Q 1534 2075 1959 2075 
z
" transform="scale(0.015625)"/>
       </defs>
       <use xlink:href="#DejaVuSans-31" transform="translate(0 0.765625)"/>
       <use xlink:href="#DejaVuSans-30" transform="translate(63.623047 0.765625)"/>
       <use xlink:href="#DejaVuSans-2212" transform="translate(128.203125 39.046875) scale(0.7)"/>
       <use xlink:href="#DejaVuSans-39" transform="translate(186.855469 39.046875) scale(0.7)"/>
      </g>
     </g>
    </g>
    <g id="ytick_3">
     <g id="line2d_7">
      <g>
       <use xlink:href="#m4b48a07b50" x="76.14" y="120.234351" style="stroke: #000000; stroke-width: 0.8"/>
      </g>
     </g>
     <g id="text_8">
      <!-- $\mathdefault{10^{-7}}$ -->
      <g transform="translate(31.54 126.313101) scale(0.16 -0.16)">
       <defs>
        <path id="DejaVuSans-37" d="M 525 4666 
L 3525 4666 
L 3525 4397 
L 1831 0 
L 1172 0 
L 2766 4134 
L 525 4134 
L 525 4666 
z
" transform="scale(0.015625)"/>
       </defs>
       <use xlink:href="#DejaVuSans-31" transform="translate(0 0.684375)"/>
       <use xlink:href="#DejaVuSans-30" transform="translate(63.623047 0.684375)"/>
       <use xlink:href="#DejaVuSans-2212" transform="translate(128.203125 38.965625) scale(0.7)"/>
       <use xlink:href="#DejaVuSans-37" transform="translate(186.855469 38.965625) scale(0.7)"/>
      </g>
     </g>
    </g>
    <g id="ytick_4">
     <g id="line2d_8">
      <g>
       <use xlink:href="#m4b48a07b50" x="76.14" y="78.096527" style="stroke: #000000; stroke-width: 0.8"/>
      </g>
     </g>
     <g id="text_9">
      <!-- $\mathdefault{10^{-5}}$ -->
      <g transform="translate(31.54 84.175277) scale(0.16 -0.16)">
       <defs>
        <path id="DejaVuSans-35" d="M 691 4666 
L 3169 4666 
L 3169 4134 
L 1269 4134 
L 1269 2991 
Q 1406 3038 1543 3061 
Q 1681 3084 1819 3084 
Q 2600 3084 3056 2656 
Q 3513 2228 3513 1497 
Q 3513 744 3044 326 
Q 2575 -91 1722 -91 
Q 1428 -91 1123 -41 
Q 819 9 494 109 
L 494 744 
Q 775 591 1075 516 
Q 1375 441 1709 441 
Q 2250 441 2565 725 
Q 2881 1009 2881 1497 
Q 2881 1984 2565 2268 
Q 2250 2553 1709 2553 
Q 1456 2553 1204 2497 
Q 953 2441 691 2322 
L 691 4666 
z
" transform="scale(0.015625)"/>
       </defs>
       <use xlink:href="#DejaVuSans-31" transform="translate(0 0.684375)"/>
       <use xlink:href="#DejaVuSans-30" transform="translate(63.623047 0.684375)"/>
       <use xlink:href="#DejaVuSans-2212" transform="translate(128.203125 38.965625) scale(0.7)"/>
       <use xlink:href="#DejaVuSans-35" transform="translate(186.855469 38.965625) scale(0.7)"/>
      </g>
     </g>
    </g>
    <g id="ytick_5">
     <g id="line2d_9">
      <g>
       <use xlink:href="#m4b48a07b50" x="76.14" y="35.958702" style="stroke: #000000; stroke-width: 0.8"/>
      </g>
     </g>
     <g id="text_10">
      <!-- $\mathdefault{10^{-3}}$ -->
      <g transform="translate(31.54 42.037452) scale(0.16 -0.16)">
       <defs>
        <path id="DejaVuSans-33" d="M 2597 2516 
Q 3050 2419 3304 2112 
Q 3559 1806 3559 1356 
Q 3559 666 3084 287 
Q 2609 -91 1734 -91 
Q 1441 -91 1130 -33 
Q 819 25 488 141 
L 488 750 
Q 750 597 1062 519 
Q 1375 441 1716 441 
Q 2309 441 2620 675 
Q 2931 909 2931 1356 
Q 2931 1769 2642 2001 
Q 2353 2234 1838 2234 
L 1294 2234 
L 1294 2753 
L 1863 2753 
Q 2328 2753 2575 2939 
Q 2822 3125 2822 3475 
Q 2822 3834 2567 4026 
Q 2313 4219 1838 4219 
Q 1578 4219 1281 4162 
Q 984 4106 628 3988 
L 628 4550 
Q 988 4650 1302 4700 
Q 1616 4750 1894 4750 
Q 2613 4750 3031 4423 
Q 3450 4097 3450 3541 
Q 3450 3153 3228 2886 
Q 3006 2619 2597 2516 
z
" transform="scale(0.015625)"/>
       </defs>
       <use xlink:href="#DejaVuSans-31" transform="translate(0 0.765625)"/>
       <use xlink:href="#DejaVuSans-30" transform="translate(63.623047 0.765625)"/>
       <use xlink:href="#DejaVuSans-2212" transform="translate(128.203125 39.046875) scale(0.7)"/>
       <use xlink:href="#DejaVuSans-33" transform="translate(186.855469 39.046875) scale(0.7)"/>
      </g>
     </g>
    </g>
    <g id="text_11">
     <!-- relative attitude angle: $\phi$ (deg) -->
     <g transform="translate(18.4 210.7775) rotate(-90) scale(0.1 -0.1)">
      <defs>
       <path id="DejaVuSans-72" d="M 2631 2963 
Q 2534 3019 2420 3045 
Q 2306 3072 2169 3072 
Q 1681 3072 1420 2755 
Q 1159 2438 1159 1844 
L 1159 0 
L 581 0 
L 581 3500 
L 1159 3500 
L 1159 2956 
Q 1341 3275 1631 3429 
Q 1922 3584 2338 3584 
Q 2397 3584 2469 3576 
Q 2541 3569 2628 3553 
L 2631 2963 
z
" transform="scale(0.015625)"/>
       <path id="DejaVuSans-6c" d="M 603 4863 
L 1178 4863 
L 1178 0 
L 603 0 
L 603 4863 
z
" transform="scale(0.015625)"/>
       <path id="DejaVuSans-61" d="M 2194 1759 
Q 1497 1759 1228 1600 
Q 959 1441 959 1056 
Q 959 750 1161 570 
Q 1363 391 1709 391 
Q 2188 391 2477 730 
Q 2766 1069 2766 1631 
L 2766 1759 
L 2194 1759 
z
M 3341 1997 
L 3341 0 
L 2766 0 
L 2766 531 
Q 2569 213 2275 61 
Q 1981 -91 1556 -91 
Q 1019 -91 701 211 
Q 384 513 384 1019 
Q 384 1609 779 1909 
Q 1175 2209 1959 2209 
L 2766 2209 
L 2766 2266 
Q 2766 2663 2505 2880 
Q 2244 3097 1772 3097 
Q 1472 3097 1187 3025 
Q 903 2953 641 2809 
L 641 3341 
Q 956 3463 1253 3523 
Q 1550 3584 1831 3584 
Q 2591 3584 2966 3190 
Q 3341 2797 3341 1997 
z
" transform="scale(0.015625)"/>
       <path id="DejaVuSans-76" d="M 191 3500 
L 800 3500 
L 1894 563 
L 2988 3500 
L 3597 3500 
L 2284 0 
L 1503 0 
L 191 3500 
z
" transform="scale(0.015625)"/>
       <path id="DejaVuSans-75" d="M 544 1381 
L 544 3500 
L 1119 3500 
L 1119 1403 
Q 1119 906 1312 657 
Q 1506 409 1894 409 
Q 2359 409 2629 706 
Q 2900 1003 2900 1516 
L 2900 3500 
L 3475 3500 
L 3475 0 
L 2900 0 
L 2900 538 
Q 2691 219 2414 64 
Q 2138 -91 1772 -91 
Q 1169 -91 856 284 
Q 544 659 544 1381 
z
M 1991 3584 
L 1991 3584 
z
" transform="scale(0.015625)"/>
       <path id="DejaVuSans-67" d="M 2906 1791 
Q 2906 2416 2648 2759 
Q 2391 3103 1925 3103 
Q 1463 3103 1205 2759 
Q 947 2416 947 1791 
Q 947 1169 1205 825 
Q 1463 481 1925 481 
Q 2391 481 2648 825 
Q 2906 1169 2906 1791 
z
M 3481 434 
Q 3481 -459 3084 -895 
Q 2688 -1331 1869 -1331 
Q 1566 -1331 1297 -1286 
Q 1028 -1241 775 -1147 
L 775 -588 
Q 1028 -725 1275 -790 
Q 1522 -856 1778 -856 
Q 2344 -856 2625 -561 
Q 2906 -266 2906 331 
L 2906 616 
Q 2728 306 2450 153 
Q 2172 0 1784 0 
Q 1141 0 747 490 
Q 353 981 353 1791 
Q 353 2603 747 3093 
Q 1141 3584 1784 3584 
Q 2172 3584 2450 3431 
Q 2728 3278 2906 2969 
L 2906 3500 
L 3481 3500 
L 3481 434 
z
" transform="scale(0.015625)"/>
       <path id="DejaVuSans-3a" d="M 750 794 
L 1409 794 
L 1409 0 
L 750 0 
L 750 794 
z
M 750 3309 
L 1409 3309 
L 1409 2516 
L 750 2516 
L 750 3309 
z
" transform="scale(0.015625)"/>
       <path id="DejaVuSans-Oblique-3d5" d="M 2991 4863 
L 2738 3572 
Q 3363 3572 3684 3094 
Q 4016 2606 3850 1747 
Q 3681 888 3159 400 
Q 2653 -78 2028 -78 
L 1784 -1331 
L 1213 -1331 
L 1456 -78 
Q 834 -78 509 400 
Q 178 888 347 1747 
Q 513 2606 1034 3094 
Q 1544 3572 2166 3572 
L 2419 4863 
L 2991 4863 
z
M 2128 434 
Q 2481 434 2784 756 
Q 3116 1116 3244 1747 
Q 3369 2372 3169 2738 
Q 2991 3059 2638 3059 
L 2128 434 
z
M 1556 434 
L 2066 3059 
Q 1716 3059 1413 2738 
Q 1072 2372 953 1747 
Q 834 1116 1028 756 
Q 1203 434 1556 434 
z
" transform="scale(0.015625)"/>
      </defs>
      <use xlink:href="#DejaVuSans-72" transform="translate(0 0.015625)"/>
      <use xlink:href="#DejaVuSans-65" transform="translate(41.113281 0.015625)"/>
      <use xlink:href="#DejaVuSans-6c" transform="translate(102.636719 0.015625)"/>
      <use xlink:href="#DejaVuSans-61" transform="translate(130.419922 0.015625)"/>
      <use xlink:href="#DejaVuSans-74" transform="translate(191.699219 0.015625)"/>
      <use xlink:href="#DejaVuSans-69" transform="translate(230.908203 0.015625)"/>
      <use xlink:href="#DejaVuSans-76" transform="translate(258.691406 0.015625)"/>
      <use xlink:href="#DejaVuSans-65" transform="translate(317.871094 0.015625)"/>
      <use xlink:href="#DejaVuSans-20" transform="translate(379.394531 0.015625)"/>
      <use xlink:href="#DejaVuSans-61" transform="translate(411.181641 0.015625)"/>
      <use xlink:href="#DejaVuSans-74" transform="translate(472.460938 0.015625)"/>
      <use xlink:href="#DejaVuSans-74" transform="translate(511.669922 0.015625)"/>
      <use xlink:href="#DejaVuSans-69" transform="translate(550.878906 0.015625)"/>
      <use xlink:href="#DejaVuSans-74" transform="translate(578.662109 0.015625)"/>
      <use xlink:href="#DejaVuSans-75" transform="translate(617.871094 0.015625)"/>
      <use xlink:href="#DejaVuSans-64" transform="translate(681.25 0.015625)"/>
      <use xlink:href="#DejaVuSans-65" transform="translate(744.726562 0.015625)"/>
      <use xlink:href="#DejaVuSans-20" transform="translate(806.25 0.015625)"/>
      <use xlink:href="#DejaVuSans-61" transform="translate(838.037109 0.015625)"/>
      <use xlink:href="#DejaVuSans-6e" transform="translate(899.316406 0.015625)"/>
      <use xlink:href="#DejaVuSans-67" transform="translate(962.695312 0.015625)"/>
      <use xlink:href="#DejaVuSans-6c" transform="translate(1026.171875 0.015625)"/>
      <use xlink:href="#DejaVuSans-65" transform="translate(1053.955078 0.015625)"/>
      <use xlink:href="#DejaVuSans-3a" transform="translate(1115.478516 0.015625)"/>
      <use xlink:href="#DejaVuSans-20" transform="translate(1149.169922 0.015625)"/>
      <use xlink:href="#DejaVuSans-Oblique-3d5" transform="translate(1180.957031 0.015625)"/>
      <use xlink:href="#DejaVuSans-20" transform="translate(1246.923828 0.015625)"/>
      <use xlink:href="#DejaVuSans-28" transform="translate(1278.710938 0.015625)"/>
      <use xlink:href="#DejaVuSans-64" transform="translate(1317.724609 0.015625)"/>
      <use xlink:href="#DejaVuSans-65" transform="translate(1381.201172 0.015625)"/>
      <use xlink:href="#DejaVuSans-67" transform="translate(1442.724609 0.015625)"/>
      <use xlink:href="#DejaVuSans-29" transform="translate(1506.201172 0.015625)"/>
     </g>
    </g>
   </g>
   <g id="line2d_10">
    <path d="M 91.497381 289 
L 91.501909 97.642407 
L 91.997455 80.578047 
L 92.493 71.373431 
L 92.988545 65.347807 
L 93.484091 61.029242 
L 94.475182 55.217166 
L 95.466273 51.542399 
L 96.457364 49.14096 
L 97.448455 47.623754 
L 98.439545 46.788569 
L 98.935091 46.58784 
L 99.430636 46.517023 
L 99.926182 46.567629 
L 100.917273 47.003597 
L 101.908364 47.840057 
L 102.899455 49.014996 
L 104.386091 51.201899 
L 105.872727 53.381228 
L 106.863818 54.406 
L 107.359364 54.693973 
L 107.854909 54.808997 
L 108.350455 54.75156 
L 108.846 54.537038 
L 109.837091 53.751444 
L 113.305909 50.316966 
L 114.297 49.700194 
L 115.288091 49.324898 
L 116.279182 49.185323 
L 117.270273 49.261577 
L 118.261364 49.521442 
L 119.748 50.158112 
L 122.721273 51.573255 
L 123.712364 51.852916 
L 124.703455 51.965643 
L 125.694545 51.912228 
L 127.181182 51.590512 
L 131.145545 50.468092 
L 132.632182 50.284287 
L 134.118818 50.285647 
L 136.101 50.511979 
L 140.560909 51.14681 
L 142.543091 51.174152 
L 145.516364 50.936382 
L 148.985182 50.664858 
L 151.958455 50.672168 
L 160.382727 50.919128 
L 169.798091 50.781531 
L 178.717909 50.831447 
L 190.115455 50.814095 
L 215.388273 50.796131 
L 335.310273 50.791219 
L 388.333636 50.810943 
L 388.333636 50.810943 
" clip-path="url(#paf236ff847)" style="fill: none; stroke: #1f77b4; stroke-width: 1.5; stroke-linecap: square"/>
   </g>
   <g id="line2d_11">
    <path d="M 91.497136 289 
L 91.501909 87.146494 
L 91.997455 70.118222 
L 92.493 60.934126 
L 92.988545 54.924411 
L 93.484091 50.619393 
L 94.475182 44.828167 
L 95.466273 41.169197 
L 96.457364 38.778483 
L 97.448455 37.26737 
L 98.439545 36.430715 
L 98.935091 36.2256 
L 99.430636 36.147548 
L 100.421727 36.338003 
L 101.412818 36.940359 
L 102.403909 37.893521 
L 103.890545 39.802235 
L 105.872727 42.502947 
L 106.863818 43.442369 
L 107.359364 43.714467 
L 107.854909 43.83634 
L 108.350455 43.807944 
L 109.341545 43.358133 
L 110.332636 42.553753 
L 112.810364 40.301087 
L 113.801455 39.628465 
L 114.792545 39.16395 
L 115.783636 38.914459 
L 116.774727 38.86947 
L 117.765818 39.005576 
L 119.252455 39.469442 
L 123.216818 41.027094 
L 124.703455 41.248455 
L 126.190091 41.166915 
L 128.172273 40.741339 
L 131.145545 40.058847 
L 133.127727 39.870401 
L 135.109909 39.940298 
L 142.543091 40.598446 
L 145.516364 40.430298 
L 149.976273 40.195116 
L 153.445091 40.259759 
L 159.887182 40.411857 
L 175.249091 40.359177 
L 222.821455 40.343864 
L 388.333636 40.389452 
L 388.333636 40.389452 
" clip-path="url(#paf236ff847)" style="fill: none; stroke: #ff7f0e; stroke-width: 1.5; stroke-linecap: square"/>
   </g>
   <g id="line2d_12">
    <path d="M 91.49901 289 
L 91.501909 166.887018 
L 91.997455 143.155547 
L 92.493 130.308322 
L 92.988545 121.830507 
L 93.484091 115.752535 
L 93.979636 111.205226 
L 94.475182 107.730797 
L 94.970727 105.062383 
L 95.466273 103.033856 
L 95.961818 101.538382 
L 96.457364 100.507673 
L 96.952909 99.900837 
L 97.448455 99.699066 
L 97.944 99.904772 
L 98.439545 100.545881 
L 98.935091 101.687959 
L 99.430636 103.464959 
L 99.926182 106.164094 
L 100.421727 110.532769 
L 100.917273 119.839531 
L 101.412818 122.494487 
L 101.908364 111.850192 
L 102.403909 107.471233 
L 102.899455 104.939216 
L 103.395 103.375831 
L 103.890545 102.454866 
L 104.386091 102.024921 
L 104.881636 102.011175 
L 105.377182 102.381786 
L 105.872727 103.136448 
L 106.368273 104.306996 
L 106.863818 105.97014 
L 107.359364 108.284776 
L 107.854909 111.602536 
L 108.350455 116.910625 
L 108.846 129.933546 
L 109.341545 123.959546 
L 109.837091 116.135144 
L 110.332636 112.504251 
L 110.828182 110.378286 
L 111.323727 109.081861 
L 111.819273 108.34364 
L 112.314818 108.031725 
L 112.810364 108.077366 
L 113.305909 108.447385 
L 113.801455 109.13386 
L 114.297 110.151724 
L 114.792545 111.544484 
L 115.288091 113.400147 
L 115.783636 115.893526 
L 116.279182 119.411017 
L 116.774727 125.075271 
L 117.270273 140.655584 
L 117.765818 130.154668 
L 118.261364 123.031415 
L 118.756909 119.534133 
L 119.252455 117.414937 
L 119.748 116.066201 
L 120.243545 115.237296 
L 120.739091 114.804299 
L 121.234636 114.70131 
L 121.730182 114.895687 
L 122.225727 115.378289 
L 122.721273 116.159056 
L 123.216818 117.269851 
L 123.712364 118.775266 
L 124.207909 120.798324 
L 124.703455 123.585113 
L 125.199 127.725153 
L 125.694545 135.359033 
L 126.190091 148.097865 
L 126.685636 132.237313 
L 127.181182 127.185329 
L 127.676727 124.343782 
L 128.172273 122.547481 
L 128.667818 121.398215 
L 129.163364 120.715576 
L 129.658909 120.408574 
L 130.154455 120.430639 
L 130.65 120.76157 
L 131.145545 121.401835 
L 131.641091 122.374911 
L 132.136636 123.732528 
L 132.632182 125.574789 
L 133.127727 128.101428 
L 133.623273 131.768158 
L 134.118818 138.00019 
L 134.614364 164.636755 
L 135.109909 139.700045 
L 135.605455 133.541167 
L 136.101 130.310339 
L 136.596545 128.315385 
L 137.092091 127.04666 
L 137.587636 126.284078 
L 138.083182 125.917492 
L 138.578727 125.889449 
L 139.074273 126.173935 
L 139.569818 126.768624 
L 140.065364 127.695105 
L 140.560909 129.00153 
L 141.056455 130.777961 
L 141.552 133.199308 
L 142.047545 136.651565 
L 142.543091 142.263059 
L 143.038636 157.900272 
L 143.534182 147.153163 
L 144.029727 140.012536 
L 144.525273 136.484603 
L 145.020818 134.338078 
L 145.516364 132.97359 
L 146.011909 132.140186 
L 146.507455 131.717124 
L 147.003 131.646582 
L 147.498545 131.897862 
L 147.994091 132.46395 
L 148.489636 133.357619 
L 148.985182 134.619406 
L 149.480727 136.326906 
L 149.976273 138.637536 
L 150.471818 141.888593 
L 150.967364 147.003844 
L 151.462909 158.910007 
L 151.958455 155.098202 
L 152.454 146.672441 
L 152.949545 142.787589 
L 153.445091 140.458503 
L 153.940636 138.977097 
L 154.436182 138.05681 
L 154.931727 137.554392 
L 155.427273 137.398894 
L 155.922818 137.555435 
L 156.418364 138.009658 
L 156.913909 138.769275 
L 157.409455 139.865283 
L 157.905 141.368898 
L 158.400545 143.40648 
L 158.896091 146.230982 
L 159.391636 150.435433 
L 159.887182 158.211883 
L 160.382727 170.226674 
L 160.878273 154.953741 
L 161.373818 150.00227 
L 161.869364 147.220909 
L 162.364909 145.450762 
L 162.860455 144.313195 
L 163.356 143.648605 
L 163.851545 143.368164 
L 164.347091 143.426158 
L 164.842636 143.805165 
L 165.338182 144.508277 
L 165.833727 145.561472 
L 166.329273 147.026241 
L 166.824818 149.041981 
L 167.320364 151.850696 
L 167.815909 156.037384 
L 168.311455 163.820602 
L 168.807 175.429825 
L 169.302545 160.347981 
L 169.798091 155.408551 
L 170.293636 152.641852 
L 170.789182 150.924289 
L 171.284727 149.873555 
L 171.780273 149.284494 
L 172.275818 149.050919 
L 172.771364 149.123606 
L 173.266909 149.463747 
L 173.762455 150.061538 
L 174.258 150.942735 
L 174.753545 152.157826 
L 175.249091 153.811611 
L 175.744636 156.057847 
L 176.240182 159.157409 
L 176.735727 163.851097 
L 177.231273 173.454565 
L 177.726818 176.62943 
L 178.222364 166.103537 
L 178.717909 161.891823 
L 179.213455 159.497473 
L 179.709 158.024181 
L 180.204545 157.124861 
L 180.700091 156.657212 
L 181.195636 156.504194 
L 181.691182 156.610318 
L 182.186727 156.991757 
L 182.682273 157.687159 
L 183.177818 158.782659 
L 183.673364 160.400612 
L 184.168909 162.669417 
L 184.664455 165.781256 
L 185.16 170.254782 
L 186.151091 185.671668 
L 186.646636 172.726051 
L 187.142182 167.73211 
L 187.637727 164.598933 
L 188.133273 162.519728 
L 188.628818 161.095742 
L 189.124364 160.130499 
L 189.619909 159.593066 
L 190.115455 159.463429 
L 190.611 159.690286 
L 191.106545 160.262716 
L 191.602091 161.25069 
L 192.097636 162.81703 
L 192.593182 164.995435 
L 193.088727 167.847826 
L 193.584273 171.619448 
L 194.079818 177.140761 
L 194.575364 190.47663 
L 195.566455 175.954016 
L 196.062 172.104609 
L 196.557545 169.833757 
L 197.053091 168.475586 
L 197.548636 167.674923 
L 198.044182 167.402045 
L 198.539727 167.841522 
L 199.035273 169.161516 
L 199.530818 171.887142 
L 200.026364 176.898745 
L 200.521909 189.17683 
L 201.017455 185.700629 
L 201.513 177.372941 
L 202.008545 173.426361 
L 202.504091 171.188365 
L 202.999636 169.935757 
L 203.495182 169.429613 
L 203.990727 169.530893 
L 204.486273 170.146977 
L 204.981818 171.301909 
L 205.477364 172.991879 
L 205.972909 175.580359 
L 206.468455 179.291936 
L 206.964 184.657566 
L 207.955091 197.199955 
L 208.450636 196.73761 
L 209.441727 186.132977 
L 209.937273 182.750772 
L 210.928364 178.340707 
L 211.423909 176.792266 
L 211.919455 175.980036 
L 212.415 175.917414 
L 213.901636 176.763293 
L 214.397182 176.341393 
L 214.892727 175.628533 
L 215.388273 175.159272 
L 215.883818 175.030506 
L 216.379364 175.231913 
L 216.874909 175.956201 
L 217.370455 177.721493 
L 218.361545 183.184648 
L 219.848182 191.403335 
L 220.343727 192.786082 
L 220.839273 191.79557 
L 221.334818 189.15958 
L 221.830364 187.314492 
L 222.325909 186.943383 
L 222.821455 187.992579 
L 223.317 189.729177 
L 224.308091 194.001237 
L 224.803636 194.509593 
L 225.299182 192.338737 
L 226.290273 186.245934 
L 227.281364 179.193953 
L 227.776909 176.565875 
L 228.768 172.753427 
L 229.263545 171.177149 
L 229.759091 170.226767 
L 230.254636 169.964204 
L 230.750182 170.189466 
L 231.245727 170.829584 
L 231.741273 171.927952 
L 232.236818 173.819592 
L 232.732364 177.049899 
L 233.227909 183.113267 
L 233.723455 208.618255 
L 234.219 185.038577 
L 234.714545 179.399584 
L 235.210091 177.393355 
L 235.705636 177.353955 
L 236.201182 178.524043 
L 236.696727 180.290888 
L 237.192273 183.046979 
L 237.687818 188.078546 
L 238.183364 204.250191 
L 238.678909 190.422741 
L 239.174455 183.001177 
L 239.67 179.108036 
L 240.165545 176.395104 
L 240.661091 174.410948 
L 241.156636 173.238202 
L 241.652182 172.671548 
L 242.147727 172.573073 
L 242.643273 172.927454 
L 244.129909 174.630464 
L 244.625455 174.983565 
L 245.121 175.070598 
L 245.616545 175.479022 
L 246.112091 176.276182 
L 247.103182 178.513622 
L 247.598727 178.818042 
L 248.094273 178.247703 
L 248.589818 177.872985 
L 249.085364 177.87126 
L 249.580909 178.05783 
L 250.076455 178.771741 
L 250.572 180.527861 
L 251.067545 183.725042 
L 251.563091 188.897751 
L 252.554182 208.24244 
L 253.049727 201.477184 
L 253.545273 204.327347 
L 254.040818 213.70375 
L 254.536364 205.940628 
L 255.031909 194.424865 
L 255.527455 188.155725 
L 256.023 184.043791 
L 256.518545 181.059304 
L 257.014091 179.324813 
L 258.996273 176.037102 
L 259.491818 175.655426 
L 259.987364 176.123145 
L 260.482909 177.464721 
L 260.978455 179.399058 
L 261.969545 184.196404 
L 262.465091 185.349343 
L 262.960636 184.795827 
L 263.456182 183.823871 
L 263.951727 183.520738 
L 264.447273 183.77129 
L 264.942818 183.804053 
L 265.438364 183.400163 
L 265.933909 182.557818 
L 266.429455 181.423794 
L 267.420545 178.184852 
L 268.907182 172.934154 
L 269.402727 171.986736 
L 269.898273 171.715832 
L 270.393818 172.14282 
L 270.889364 173.227414 
L 271.384909 175.178299 
L 271.880455 178.12507 
L 272.871545 186.966304 
L 273.367091 191.988092 
L 273.862636 198.188132 
L 274.358182 213.79331 
L 275.349273 195.230536 
L 275.844818 191.047189 
L 276.340364 189.492281 
L 276.835909 190.459722 
L 277.331455 197.870211 
L 277.827 198.453097 
L 278.322545 187.558749 
L 278.818091 182.367345 
L 279.313636 178.62204 
L 279.809182 176.016147 
L 280.304727 174.547507 
L 280.800273 174.363442 
L 281.295818 175.296733 
L 281.791364 176.973895 
L 282.782455 181.574578 
L 283.773545 186.291432 
L 284.269091 188.153101 
L 284.764636 187.917589 
L 286.251273 180.908806 
L 286.746818 179.659487 
L 287.242364 179.023396 
L 287.737909 178.88584 
L 288.233455 178.477797 
L 288.729 177.363377 
L 289.720091 174.352158 
L 290.215636 173.374302 
L 290.711182 173.081456 
L 291.206727 173.665773 
L 291.702273 175.292741 
L 292.197818 178.041985 
L 292.693364 182.709888 
L 293.188909 192.918943 
L 293.684455 195.508714 
L 294.18 187.169376 
L 294.675545 184.672618 
L 295.171091 184.054844 
L 295.666636 184.618701 
L 296.162182 187.243114 
L 297.153273 200.437589 
L 297.648818 186.644385 
L 298.144364 181.264112 
L 298.639909 177.897304 
L 299.135455 175.56059 
L 300.126545 172.618883 
L 300.622091 171.781276 
L 301.117636 171.269521 
L 301.613182 171.01871 
L 302.108727 171.261283 
L 302.604273 172.122439 
L 303.099818 173.416768 
L 303.595364 175.083824 
L 304.586455 180.043839 
L 305.082 183.459978 
L 305.577545 188.561013 
L 306.073091 198.835171 
L 306.568636 200.106735 
L 307.064182 188.784172 
L 307.559727 183.961379 
L 308.055273 181.479661 
L 308.550818 180.615609 
L 309.046364 181.256206 
L 309.541909 184.098976 
L 310.037455 190.778827 
L 310.533 231.25875 
L 311.028545 193.633491 
L 311.524091 189.478261 
L 312.019636 187.298226 
L 313.506273 178.98266 
L 314.497364 175.587729 
L 314.992909 174.249687 
L 315.488455 173.268547 
L 315.984 172.718987 
L 316.479545 172.709518 
L 316.975091 173.551986 
L 317.966182 177.421998 
L 318.461727 179.829931 
L 319.452818 185.722238 
L 320.939455 192.583134 
L 321.435 193.158022 
L 321.930545 191.855803 
L 323.417182 182.183763 
L 324.408273 178.128138 
L 324.903818 176.827763 
L 325.399364 176.06657 
L 325.894909 175.909356 
L 326.390455 176.287336 
L 326.886 177.341541 
L 327.381545 179.138096 
L 327.877091 181.468717 
L 328.372636 185.026631 
L 328.868182 190.536227 
L 329.363727 202.245444 
L 329.859273 203.984873 
L 330.354818 197.495139 
L 330.850364 196.133619 
L 331.345909 197.783793 
L 331.841455 199.882341 
L 332.337 199.216179 
L 332.832545 199.666328 
L 333.328091 209.632906 
L 334.319182 186.951558 
L 334.814727 181.702865 
L 335.310273 178.251608 
L 335.805818 175.718115 
L 336.301364 173.987815 
L 336.796909 172.919454 
L 337.292455 172.364673 
L 337.788 172.376994 
L 338.283545 172.853838 
L 338.779091 173.727858 
L 339.274636 174.988448 
L 339.770182 176.748609 
L 340.265727 179.116845 
L 340.761273 182.214378 
L 341.256818 186.634776 
L 341.752364 193.871264 
L 342.247909 215.858028 
L 342.743455 193.912263 
L 343.239 189.061111 
L 343.734545 187.315481 
L 344.230091 187.717527 
L 344.725636 190.160655 
L 345.221182 194.823249 
L 345.716727 219.652529 
L 346.212273 194.222253 
L 346.707818 186.648882 
L 347.203364 182.545043 
L 347.698909 180.085132 
L 348.194455 178.558702 
L 348.69 177.852142 
L 349.185545 178.055061 
L 349.681091 178.859326 
L 350.176636 180.008496 
L 351.663273 184.365481 
L 352.158818 183.885042 
L 353.149909 180.448859 
L 353.645455 178.832479 
L 354.141 177.765936 
L 354.636545 177.065483 
L 355.132091 176.864078 
L 355.627636 177.025508 
L 356.123182 177.48169 
L 356.618727 178.116336 
L 357.114273 179.084713 
L 357.609818 181.075754 
L 358.105364 185.376761 
L 358.600909 199.431481 
L 359.096455 189.695565 
L 359.592 182.963316 
L 360.087545 180.507245 
L 360.583091 179.909431 
L 361.078636 180.664347 
L 361.574182 182.562179 
L 362.069727 186.438427 
L 362.565273 196.119713 
L 363.060818 195.22153 
L 363.556364 185.278616 
L 364.051909 180.488022 
L 364.547455 177.212337 
L 365.043 174.852945 
L 365.538545 173.294765 
L 366.034091 172.266999 
L 366.529636 171.695659 
L 367.025182 171.521048 
L 367.520727 171.671561 
L 368.016273 172.138891 
L 368.511818 173.176161 
L 369.007364 175.040441 
L 369.502909 178.053015 
L 369.998455 183.427317 
L 370.494 196.80603 
L 370.989545 191.375152 
L 371.485091 184.027906 
L 371.980636 180.899677 
L 372.476182 179.250038 
L 372.971727 178.27941 
L 373.467273 177.654362 
L 373.962818 177.73655 
L 374.458364 178.552237 
L 374.953909 180.245056 
L 375.449455 183.434081 
L 376.440545 197.285828 
L 376.936091 184.088865 
L 377.431636 179.049353 
L 377.927182 175.935101 
L 378.422727 173.630985 
L 378.918273 172.014024 
L 379.413818 170.960942 
L 379.909364 170.462798 
L 380.404909 170.435693 
L 380.900455 170.847657 
L 381.396 171.774768 
L 381.891545 173.213643 
L 382.387091 175.040144 
L 382.882636 177.531008 
L 383.378182 181.59594 
L 383.873727 190.64184 
L 384.369273 193.156027 
L 384.864818 182.500294 
L 385.360364 178.350044 
L 385.855909 176.258181 
L 386.351455 175.359303 
L 386.847 175.173975 
L 387.342545 175.588476 
L 387.838091 176.755431 
L 388.333636 179.208655 
L 388.333636 179.208655 
" clip-path="url(#paf236ff847)" style="fill: none; stroke: #2ca02c; stroke-width: 1.5; stroke-linecap: square"/>
   </g>
   <g id="line2d_13">
    <path d="M 91.497125 289 
L 91.501909 86.706927 
L 91.997455 69.675337 
L 92.493 60.489343 
L 92.988545 54.478151 
L 93.484091 50.171872 
L 94.475182 44.378697 
L 95.466273 40.718245 
L 96.457364 38.326524 
L 97.448455 36.814838 
L 98.439545 35.978323 
L 98.935091 35.773622 
L 99.430636 35.69625 
L 100.421727 35.889016 
L 101.412818 36.495173 
L 102.403909 37.453996 
L 103.890545 39.375368 
L 105.872727 42.097101 
L 106.863818 43.043709 
L 107.359364 43.317131 
L 107.854909 43.438436 
L 108.350455 43.407614 
L 108.846 43.236974 
L 109.837091 42.570433 
L 113.801455 39.175361 
L 114.792545 38.707837 
L 115.783636 38.45774 
L 116.774727 38.414335 
L 117.765818 38.553897 
L 119.252455 39.025887 
L 123.216818 40.606349 
L 124.703455 40.828719 
L 126.190091 40.742545 
L 128.172273 40.306346 
L 131.145545 39.611272 
L 133.127727 39.421457 
L 135.109909 39.495009 
L 142.543091 40.166131 
L 145.516364 39.991662 
L 149.480727 39.75942 
L 152.949545 39.79952 
L 159.887182 39.97422 
L 174.258 39.914758 
L 191.602091 39.903182 
L 388.333636 39.943017 
L 388.333636 39.943017 
" clip-path="url(#paf236ff847)" style="fill: none; stroke: #d62728; stroke-width: 1.5; stroke-linecap: square"/>
   </g>
   <g id="patch_3">
    <path d="M 76.14 241.036875 
L 76.14 25.918125 
" style="fill: none; stroke: #000000; stroke-width: 0.8; stroke-linejoin: miter; stroke-linecap: square"/>
   </g>
   <g id="patch_4">
    <path d="M 403.2 241.036875 
L 403.2 25.918125 
" style="fill: none; stroke: #000000; stroke-width: 0.8; stroke-linejoin: miter; stroke-linecap: square"/>
   </g>
   <g id="patch_5">
    <path d="M 76.14 241.036875 
L 403.2 241.036875 
" style="fill: none; stroke: #000000; stroke-width: 0.8; stroke-linejoin: miter; stroke-linecap: square"/>
   </g>
   <g id="patch_6">
    <path d="M 76.14 25.918125 
L 403.2 25.918125 
" style="fill: none; stroke: #000000; stroke-width: 0.8; stroke-linejoin: miter; stroke-linecap: square"/>
   </g>
   <g id="text_12">
    <!-- Attitude Constraint Violation Components -->
    <g transform="translate(114.7125 19.918125) scale(0.12 -0.12)">
     <defs>
      <path id="DejaVuSans-41" d="M 2188 4044 
L 1331 1722 
L 3047 1722 
L 2188 4044 
z
M 1831 4666 
L 2547 4666 
L 4325 0 
L 3669 0 
L 3244 1197 
L 1141 1197 
L 716 0 
L 50 0 
L 1831 4666 
z
" transform="scale(0.015625)"/>
      <path id="DejaVuSans-43" d="M 4122 4306 
L 4122 3641 
Q 3803 3938 3442 4084 
Q 3081 4231 2675 4231 
Q 1875 4231 1450 3742 
Q 1025 3253 1025 2328 
Q 1025 1406 1450 917 
Q 1875 428 2675 428 
Q 3081 428 3442 575 
Q 3803 722 4122 1019 
L 4122 359 
Q 3791 134 3420 21 
Q 3050 -91 2638 -91 
Q 1578 -91 968 557 
Q 359 1206 359 2328 
Q 359 3453 968 4101 
Q 1578 4750 2638 4750 
Q 3056 4750 3426 4639 
Q 3797 4528 4122 4306 
z
" transform="scale(0.015625)"/>
      <path id="DejaVuSans-56" d="M 1831 0 
L 50 4666 
L 709 4666 
L 2188 738 
L 3669 4666 
L 4325 4666 
L 2547 0 
L 1831 0 
z
" transform="scale(0.015625)"/>
      <path id="DejaVuSans-70" d="M 1159 525 
L 1159 -1331 
L 581 -1331 
L 581 3500 
L 1159 3500 
L 1159 2969 
Q 1341 3281 1617 3432 
Q 1894 3584 2278 3584 
Q 2916 3584 3314 3078 
Q 3713 2572 3713 1747 
Q 3713 922 3314 415 
Q 2916 -91 2278 -91 
Q 1894 -91 1617 61 
Q 1341 213 1159 525 
z
M 3116 1747 
Q 3116 2381 2855 2742 
Q 2594 3103 2138 3103 
Q 1681 3103 1420 2742 
Q 1159 2381 1159 1747 
Q 1159 1113 1420 752 
Q 1681 391 2138 391 
Q 2594 391 2855 752 
Q 3116 1113 3116 1747 
z
" transform="scale(0.015625)"/>
     </defs>
     <use xlink:href="#DejaVuSans-41"/>
     <use xlink:href="#DejaVuSans-74" x="66.658203"/>
     <use xlink:href="#DejaVuSans-74" x="105.867188"/>
     <use xlink:href="#DejaVuSans-69" x="145.076172"/>
     <use xlink:href="#DejaVuSans-74" x="172.859375"/>
     <use xlink:href="#DejaVuSans-75" x="212.068359"/>
     <use xlink:href="#DejaVuSans-64" x="275.447266"/>
     <use xlink:href="#DejaVuSans-65" x="338.923828"/>
     <use xlink:href="#DejaVuSans-20" x="400.447266"/>
     <use xlink:href="#DejaVuSans-43" x="432.234375"/>
     <use xlink:href="#DejaVuSans-6f" x="502.058594"/>
     <use xlink:href="#DejaVuSans-6e" x="563.240234"/>
     <use xlink:href="#DejaVuSans-73" x="626.619141"/>
     <use xlink:href="#DejaVuSans-74" x="678.71875"/>
     <use xlink:href="#DejaVuSans-72" x="717.927734"/>
     <use xlink:href="#DejaVuSans-61" x="759.041016"/>
     <use xlink:href="#DejaVuSans-69" x="820.320312"/>
     <use xlink:href="#DejaVuSans-6e" x="848.103516"/>
     <use xlink:href="#DejaVuSans-74" x="911.482422"/>
     <use xlink:href="#DejaVuSans-20" x="950.691406"/>
     <use xlink:href="#DejaVuSans-56" x="982.478516"/>
     <use xlink:href="#DejaVuSans-69" x="1048.636719"/>
     <use xlink:href="#DejaVuSans-6f" x="1076.419922"/>
     <use xlink:href="#DejaVuSans-6c" x="1137.601562"/>
     <use xlink:href="#DejaVuSans-61" x="1165.384766"/>
     <use xlink:href="#DejaVuSans-74" x="1226.664062"/>
     <use xlink:href="#DejaVuSans-69" x="1265.873047"/>
     <use xlink:href="#DejaVuSans-6f" x="1293.65625"/>
     <use xlink:href="#DejaVuSans-6e" x="1354.837891"/>
     <use xlink:href="#DejaVuSans-20" x="1418.216797"/>
     <use xlink:href="#DejaVuSans-43" x="1450.003906"/>
     <use xlink:href="#DejaVuSans-6f" x="1519.828125"/>
     <use xlink:href="#DejaVuSans-6d" x="1581.009766"/>
     <use xlink:href="#DejaVuSans-70" x="1678.421875"/>
     <use xlink:href="#DejaVuSans-6f" x="1741.898438"/>
     <use xlink:href="#DejaVuSans-6e" x="1803.080078"/>
     <use xlink:href="#DejaVuSans-65" x="1866.458984"/>
     <use xlink:href="#DejaVuSans-6e" x="1927.982422"/>
     <use xlink:href="#DejaVuSans-74" x="1991.361328"/>
     <use xlink:href="#DejaVuSans-73" x="2030.570312"/>
    </g>
   </g>
   <g id="legend_1">
    <g id="patch_7">
     <path d="M 310.59 236.536875 
L 396.9 236.536875 
Q 398.7 236.536875 398.7 234.736875 
L 398.7 182.716875 
Q 398.7 180.916875 396.9 180.916875 
L 310.59 180.916875 
Q 308.79 180.916875 308.79 182.716875 
L 308.79 234.736875 
Q 308.79 236.536875 310.59 236.536875 
z
" style="fill: #ffffff; opacity: 0.8; stroke: #cccccc; stroke-linejoin: miter"/>
    </g>
    <g id="line2d_14">
     <path d="M 312.39 188.206875 
L 321.39 188.206875 
L 330.39 188.206875 
" style="fill: none; stroke: #1f77b4; stroke-width: 1.5; stroke-linecap: square"/>
    </g>
    <g id="text_13">
     <!-- $\phi_1$ -->
     <g transform="translate(337.59 191.356875) scale(0.09 -0.09)">
      <use xlink:href="#DejaVuSans-Oblique-3d5" transform="translate(0 0.015625)"/>
      <use xlink:href="#DejaVuSans-31" transform="translate(65.966797 -16.390625) scale(0.7)"/>
     </g>
    </g>
    <g id="line2d_15">
     <path d="M 312.39 201.436875 
L 321.39 201.436875 
L 330.39 201.436875 
" style="fill: none; stroke: #ff7f0e; stroke-width: 1.5; stroke-linecap: square"/>
    </g>
    <g id="text_14">
     <!-- $\phi_2$ -->
     <g transform="translate(337.59 204.586875) scale(0.09 -0.09)">
      <use xlink:href="#DejaVuSans-Oblique-3d5" transform="translate(0 0.015625)"/>
      <use xlink:href="#DejaVuSans-32" transform="translate(65.966797 -16.390625) scale(0.7)"/>
     </g>
    </g>
    <g id="line2d_16">
     <path d="M 312.39 214.666875 
L 321.39 214.666875 
L 330.39 214.666875 
" style="fill: none; stroke: #2ca02c; stroke-width: 1.5; stroke-linecap: square"/>
    </g>
    <g id="text_15">
     <!-- $\phi_3$ -->
     <g transform="translate(337.59 217.816875) scale(0.09 -0.09)">
      <use xlink:href="#DejaVuSans-Oblique-3d5" transform="translate(0 0.015625)"/>
      <use xlink:href="#DejaVuSans-33" transform="translate(65.966797 -16.390625) scale(0.7)"/>
     </g>
    </g>
    <g id="line2d_17">
     <path d="M 312.39 227.896875 
L 321.39 227.896875 
L 330.39 227.896875 
" style="fill: none; stroke: #d62728; stroke-width: 1.5; stroke-linecap: square"/>
    </g>
    <g id="text_16">
     <!-- $\phi$ magnitude -->
     <g transform="translate(337.59 231.046875) scale(0.09 -0.09)">
      <use xlink:href="#DejaVuSans-Oblique-3d5" transform="translate(0 0.015625)"/>
      <use xlink:href="#DejaVuSans-20" transform="translate(65.966797 0.015625)"/>
      <use xlink:href="#DejaVuSans-6d" transform="translate(97.753906 0.015625)"/>
      <use xlink:href="#DejaVuSans-61" transform="translate(195.166016 0.015625)"/>
      <use xlink:href="#DejaVuSans-67" transform="translate(256.445312 0.015625)"/>
      <use xlink:href="#DejaVuSans-6e" transform="translate(319.921875 0.015625)"/>
      <use xlink:href="#DejaVuSans-69" transform="translate(383.300781 0.015625)"/>
      <use xlink:href="#DejaVuSans-74" transform="translate(411.083984 0.015625)"/>
      <use xlink:href="#DejaVuSans-75" transform="translate(450.292969 0.015625)"/>
      <use xlink:href="#DejaVuSans-64" transform="translate(513.671875 0.015625)"/>
      <use xlink:href="#DejaVuSans-65" transform="translate(577.148438 0.015625)"/>
     </g>
    </g>
   </g>
  </g>
 </g>
 <defs>
  <clipPath id="paf236ff847">
   <rect x="76.14" y="25.918125" width="327.06" height="215.11875"/>
  </clipPath>
 </defs>
</svg>
