<?xml version="1.0" encoding="utf-8" standalone="no"?>
<!DOCTYPE svg PUBLIC "-//W3C//DTD SVG 1.1//EN"
  "http://www.w3.org/Graphics/SVG/1.1/DTD/svg11.dtd">
<svg xmlns:xlink="http://www.w3.org/1999/xlink" width="414pt" height="288pt" viewBox="0 0 414 288" xmlns="http://www.w3.org/2000/svg" version="1.1">
 <metadata>
  <rdf:RDF xmlns:dc="http://purl.org/dc/elements/1.1/" xmlns:cc="http://creativecommons.org/ns#" xmlns:rdf="http://www.w3.org/1999/02/22-rdf-syntax-ns#">
   <cc:Work>
    <dc:type rdf:resource="http://purl.org/dc/dcmitype/StillImage"/>
    <dc:date>2025-02-28T04:20:54.772370</dc:date>
    <dc:format>image/svg+xml</dc:format>
    <dc:creator>
     <cc:Agent>
      <dc:title>Matplotlib v3.10.1, https://matplotlib.org/</dc:title>
     </cc:Agent>
    </dc:creator>
   </cc:Work>
  </rdf:RDF>
 </metadata>
 <defs>
  <style type="text/css">*{stroke-linejoin: round; stroke-linecap: butt}</style>
 </defs>
 <g id="figure_1">
  <g id="patch_1">
   <path d="M 0 288 
L 414 288 
L 414 0 
L 0 0 
L 0 288 
z
" style="fill: none"/>
  </g>
  <g id="axes_1">
   <g id="patch_2">
    <path d="M 85.605625 241.036875 
L 403.2 241.036875 
L 403.2 10.8 
L 85.605625 10.8 
L 85.605625 241.036875 
z
" style="fill: none"/>
   </g>
   <g id="matplotlib.axis_1">
    <g id="xtick_1">
     <g id="line2d_1">
      <defs>
       <path id="m1a6d5e4dd1" d="M 0 0 
L 0 3.5 
" style="stroke: #000000; stroke-width: 0.8"/>
      </defs>
      <g>
       <use xlink:href="#m1a6d5e4dd1" x="100.041733" y="241.036875" style="stroke: #000000; stroke-width: 0.8"/>
      </g>
     </g>
     <g id="text_1">
      <!-- 0 -->
      <g transform="translate(94.951733 260.194375) scale(0.16 -0.16)">
       <defs>
        <path id="DejaVuSans-30" d="M 2034 4250 
Q 1547 4250 1301 3770 
Q 1056 3291 1056 2328 
Q 1056 1369 1301 889 
Q 1547 409 2034 409 
Q 2525 409 2770 889 
Q 3016 1369 3016 2328 
Q 3016 3291 2770 3770 
Q 2525 4250 2034 4250 
z
M 2034 4750 
Q 2819 4750 3233 4129 
Q 3647 3509 3647 2328 
Q 3647 1150 3233 529 
Q 2819 -91 2034 -91 
Q 1250 -91 836 529 
Q 422 1150 422 2328 
Q 422 3509 836 4129 
Q 1250 4750 2034 4750 
z
" transform="scale(0.015625)"/>
       </defs>
       <use xlink:href="#DejaVuSans-30"/>
      </g>
     </g>
    </g>
    <g id="xtick_2">
     <g id="line2d_2">
      <g>
       <use xlink:href="#m1a6d5e4dd1" x="157.786165" y="241.036875" style="stroke: #000000; stroke-width: 0.8"/>
      </g>
     </g>
     <g id="text_2">
      <!-- 2 -->
      <g transform="translate(152.696165 260.194375) scale(0.16 -0.16)">
       <defs>
        <path id="DejaVuSans-32" d="M 1228 531 
L 3431 531 
L 3431 0 
L 469 0 
L 469 531 
Q 828 903 1448 1529 
Q 2069 2156 2228 2338 
Q 2531 2678 2651 2914 
Q 2772 3150 2772 3378 
Q 2772 3750 2511 3984 
Q 2250 4219 1831 4219 
Q 1534 4219 1204 4116 
Q 875 4013 500 3803 
L 500 4441 
Q 881 4594 1212 4672 
Q 1544 4750 1819 4750 
Q 2544 4750 2975 4387 
Q 3406 4025 3406 3419 
Q 3406 3131 3298 2873 
Q 3191 2616 2906 2266 
Q 2828 2175 2409 1742 
Q 1991 1309 1228 531 
z
" transform="scale(0.015625)"/>
       </defs>
       <use xlink:href="#DejaVuSans-32"/>
      </g>
     </g>
    </g>
    <g id="xtick_3">
     <g id="line2d_3">
      <g>
       <use xlink:href="#m1a6d5e4dd1" x="215.530597" y="241.036875" style="stroke: #000000; stroke-width: 0.8"/>
      </g>
     </g>
     <g id="text_3">
      <!-- 4 -->
      <g transform="translate(210.440597 260.194375) scale(0.16 -0.16)">
       <defs>
        <path id="DejaVuSans-34" d="M 2419 4116 
L 825 1625 
L 2419 1625 
L 2419 4116 
z
M 2253 4666 
L 3047 4666 
L 3047 1625 
L 3713 1625 
L 3713 1100 
L 3047 1100 
L 3047 0 
L 2419 0 
L 2419 1100 
L 313 1100 
L 313 1709 
L 2253 4666 
z
" transform="scale(0.015625)"/>
       </defs>
       <use xlink:href="#DejaVuSans-34"/>
      </g>
     </g>
    </g>
    <g id="xtick_4">
     <g id="line2d_4">
      <g>
       <use xlink:href="#m1a6d5e4dd1" x="273.275028" y="241.036875" style="stroke: #000000; stroke-width: 0.8"/>
      </g>
     </g>
     <g id="text_4">
      <!-- 6 -->
      <g transform="translate(268.185028 260.194375) scale(0.16 -0.16)">
       <defs>
        <path id="DejaVuSans-36" d="M 2113 2584 
Q 1688 2584 1439 2293 
Q 1191 2003 1191 1497 
Q 1191 994 1439 701 
Q 1688 409 2113 409 
Q 2538 409 2786 701 
Q 3034 994 3034 1497 
Q 3034 2003 2786 2293 
Q 2538 2584 2113 2584 
z
M 3366 4563 
L 3366 3988 
Q 3128 4100 2886 4159 
Q 2644 4219 2406 4219 
Q 1781 4219 1451 3797 
Q 1122 3375 1075 2522 
Q 1259 2794 1537 2939 
Q 1816 3084 2150 3084 
Q 2853 3084 3261 2657 
Q 3669 2231 3669 1497 
Q 3669 778 3244 343 
Q 2819 -91 2113 -91 
Q 1303 -91 875 529 
Q 447 1150 447 2328 
Q 447 3434 972 4092 
Q 1497 4750 2381 4750 
Q 2619 4750 2861 4703 
Q 3103 4656 3366 4563 
z
" transform="scale(0.015625)"/>
       </defs>
       <use xlink:href="#DejaVuSans-36"/>
      </g>
     </g>
    </g>
    <g id="xtick_5">
     <g id="line2d_5">
      <g>
       <use xlink:href="#m1a6d5e4dd1" x="331.01946" y="241.036875" style="stroke: #000000; stroke-width: 0.8"/>
      </g>
     </g>
     <g id="text_5">
      <!-- 8 -->
      <g transform="translate(325.92946 260.194375) scale(0.16 -0.16)">
       <defs>
        <path id="DejaVuSans-38" d="M 2034 2216 
Q 1584 2216 1326 1975 
Q 1069 1734 1069 1313 
Q 1069 891 1326 650 
Q 1584 409 2034 409 
Q 2484 409 2743 651 
Q 3003 894 3003 1313 
Q 3003 1734 2745 1975 
Q 2488 2216 2034 2216 
z
M 1403 2484 
Q 997 2584 770 2862 
Q 544 3141 544 3541 
Q 544 4100 942 4425 
Q 1341 4750 2034 4750 
Q 2731 4750 3128 4425 
Q 3525 4100 3525 3541 
Q 3525 3141 3298 2862 
Q 3072 2584 2669 2484 
Q 3125 2378 3379 2068 
Q 3634 1759 3634 1313 
Q 3634 634 3220 271 
Q 2806 -91 2034 -91 
Q 1263 -91 848 271 
Q 434 634 434 1313 
Q 434 1759 690 2068 
Q 947 2378 1403 2484 
z
M 1172 3481 
Q 1172 3119 1398 2916 
Q 1625 2713 2034 2713 
Q 2441 2713 2670 2916 
Q 2900 3119 2900 3481 
Q 2900 3844 2670 4047 
Q 2441 4250 2034 4250 
Q 1625 4250 1398 4047 
Q 1172 3844 1172 3481 
z
" transform="scale(0.015625)"/>
       </defs>
       <use xlink:href="#DejaVuSans-38"/>
      </g>
     </g>
    </g>
    <g id="xtick_6">
     <g id="line2d_6">
      <g>
       <use xlink:href="#m1a6d5e4dd1" x="388.763892" y="241.036875" style="stroke: #000000; stroke-width: 0.8"/>
      </g>
     </g>
     <g id="text_6">
      <!-- 10 -->
      <g transform="translate(378.583892 260.194375) scale(0.16 -0.16)">
       <defs>
        <path id="DejaVuSans-31" d="M 794 531 
L 1825 531 
L 1825 4091 
L 703 3866 
L 703 4441 
L 1819 4666 
L 2450 4666 
L 2450 531 
L 3481 531 
L 3481 0 
L 794 0 
L 794 531 
z
" transform="scale(0.015625)"/>
       </defs>
       <use xlink:href="#DejaVuSans-31"/>
       <use xlink:href="#DejaVuSans-30" transform="translate(63.623047 0)"/>
      </g>
     </g>
    </g>
    <g id="text_7">
     <!-- Time [min] -->
     <g transform="translate(217.250469 275.120313) scale(0.1 -0.1)">
      <defs>
       <path id="DejaVuSans-54" d="M -19 4666 
L 3928 4666 
L 3928 4134 
L 2272 4134 
L 2272 0 
L 1638 0 
L 1638 4134 
L -19 4134 
L -19 4666 
z
" transform="scale(0.015625)"/>
       <path id="DejaVuSans-69" d="M 603 3500 
L 1178 3500 
L 1178 0 
L 603 0 
L 603 3500 
z
M 603 4863 
L 1178 4863 
L 1178 4134 
L 603 4134 
L 603 4863 
z
" transform="scale(0.015625)"/>
       <path id="DejaVuSans-6d" d="M 3328 2828 
Q 3544 3216 3844 3400 
Q 4144 3584 4550 3584 
Q 5097 3584 5394 3201 
Q 5691 2819 5691 2113 
L 5691 0 
L 5113 0 
L 5113 2094 
Q 5113 2597 4934 2840 
Q 4756 3084 4391 3084 
Q 3944 3084 3684 2787 
Q 3425 2491 3425 1978 
L 3425 0 
L 2847 0 
L 2847 2094 
Q 2847 2600 2669 2842 
Q 2491 3084 2119 3084 
Q 1678 3084 1418 2786 
Q 1159 2488 1159 1978 
L 1159 0 
L 581 0 
L 581 3500 
L 1159 3500 
L 1159 2956 
Q 1356 3278 1631 3431 
Q 1906 3584 2284 3584 
Q 2666 3584 2933 3390 
Q 3200 3197 3328 2828 
z
" transform="scale(0.015625)"/>
       <path id="DejaVuSans-65" d="M 3597 1894 
L 3597 1613 
L 953 1613 
Q 991 1019 1311 708 
Q 1631 397 2203 397 
Q 2534 397 2845 478 
Q 3156 559 3463 722 
L 3463 178 
Q 3153 47 2828 -22 
Q 2503 -91 2169 -91 
Q 1331 -91 842 396 
Q 353 884 353 1716 
Q 353 2575 817 3079 
Q 1281 3584 2069 3584 
Q 2775 3584 3186 3129 
Q 3597 2675 3597 1894 
z
M 3022 2063 
Q 3016 2534 2758 2815 
Q 2500 3097 2075 3097 
Q 1594 3097 1305 2825 
Q 1016 2553 972 2059 
L 3022 2063 
z
" transform="scale(0.015625)"/>
       <path id="DejaVuSans-20" transform="scale(0.015625)"/>
       <path id="DejaVuSans-5b" d="M 550 4863 
L 1875 4863 
L 1875 4416 
L 1125 4416 
L 1125 -397 
L 1875 -397 
L 1875 -844 
L 550 -844 
L 550 4863 
z
" transform="scale(0.015625)"/>
       <path id="DejaVuSans-6e" d="M 3513 2113 
L 3513 0 
L 2938 0 
L 2938 2094 
Q 2938 2591 2744 2837 
Q 2550 3084 2163 3084 
Q 1697 3084 1428 2787 
Q 1159 2491 1159 1978 
L 1159 0 
L 581 0 
L 581 3500 
L 1159 3500 
L 1159 2956 
Q 1366 3272 1645 3428 
Q 1925 3584 2291 3584 
Q 2894 3584 3203 3211 
Q 3513 2838 3513 2113 
z
" transform="scale(0.015625)"/>
       <path id="DejaVuSans-5d" d="M 1947 4863 
L 1947 -844 
L 622 -844 
L 622 -397 
L 1369 -397 
L 1369 4416 
L 622 4416 
L 622 4863 
L 1947 4863 
z
" transform="scale(0.015625)"/>
      </defs>
      <use xlink:href="#DejaVuSans-54"/>
      <use xlink:href="#DejaVuSans-69" transform="translate(57.958984 0)"/>
      <use xlink:href="#DejaVuSans-6d" transform="translate(85.742188 0)"/>
      <use xlink:href="#DejaVuSans-65" transform="translate(183.154297 0)"/>
      <use xlink:href="#DejaVuSans-20" transform="translate(244.677734 0)"/>
      <use xlink:href="#DejaVuSans-5b" transform="translate(276.464844 0)"/>
      <use xlink:href="#DejaVuSans-6d" transform="translate(315.478516 0)"/>
      <use xlink:href="#DejaVuSans-69" transform="translate(412.890625 0)"/>
      <use xlink:href="#DejaVuSans-6e" transform="translate(440.673828 0)"/>
      <use xlink:href="#DejaVuSans-5d" transform="translate(504.052734 0)"/>
     </g>
    </g>
   </g>
   <g id="matplotlib.axis_2">
    <g id="ytick_1">
     <g id="line2d_7">
      <defs>
       <path id="m0d8772a176" d="M 0 0 
L -3.5 0 
" style="stroke: #000000; stroke-width: 0.8"/>
      </defs>
      <g>
       <use xlink:href="#m0d8772a176" x="85.605625" y="239.811418" style="stroke: #000000; stroke-width: 0.8"/>
      </g>
     </g>
     <g id="text_8">
      <!-- −2000 -->
      <g transform="translate(24.478125 245.890168) scale(0.16 -0.16)">
       <defs>
        <path id="DejaVuSans-2212" d="M 678 2272 
L 4684 2272 
L 4684 1741 
L 678 1741 
L 678 2272 
z
" transform="scale(0.015625)"/>
       </defs>
       <use xlink:href="#DejaVuSans-2212"/>
       <use xlink:href="#DejaVuSans-32" transform="translate(83.789062 0)"/>
       <use xlink:href="#DejaVuSans-30" transform="translate(147.412109 0)"/>
       <use xlink:href="#DejaVuSans-30" transform="translate(211.035156 0)"/>
       <use xlink:href="#DejaVuSans-30" transform="translate(274.658203 0)"/>
      </g>
     </g>
    </g>
    <g id="ytick_2">
     <g id="line2d_8">
      <g>
       <use xlink:href="#m0d8772a176" x="85.605625" y="203.055707" style="stroke: #000000; stroke-width: 0.8"/>
      </g>
     </g>
     <g id="text_9">
      <!-- −1000 -->
      <g transform="translate(24.478125 209.134457) scale(0.16 -0.16)">
       <use xlink:href="#DejaVuSans-2212"/>
       <use xlink:href="#DejaVuSans-31" transform="translate(83.789062 0)"/>
       <use xlink:href="#DejaVuSans-30" transform="translate(147.412109 0)"/>
       <use xlink:href="#DejaVuSans-30" transform="translate(211.035156 0)"/>
       <use xlink:href="#DejaVuSans-30" transform="translate(274.658203 0)"/>
      </g>
     </g>
    </g>
    <g id="ytick_3">
     <g id="line2d_9">
      <g>
       <use xlink:href="#m0d8772a176" x="85.605625" y="166.299997" style="stroke: #000000; stroke-width: 0.8"/>
      </g>
     </g>
     <g id="text_10">
      <!-- 0 -->
      <g transform="translate(68.425625 172.378747) scale(0.16 -0.16)">
       <use xlink:href="#DejaVuSans-30"/>
      </g>
     </g>
    </g>
    <g id="ytick_4">
     <g id="line2d_10">
      <g>
       <use xlink:href="#m0d8772a176" x="85.605625" y="129.544287" style="stroke: #000000; stroke-width: 0.8"/>
      </g>
     </g>
     <g id="text_11">
      <!-- 1000 -->
      <g transform="translate(37.885625 135.623037) scale(0.16 -0.16)">
       <use xlink:href="#DejaVuSans-31"/>
       <use xlink:href="#DejaVuSans-30" transform="translate(63.623047 0)"/>
       <use xlink:href="#DejaVuSans-30" transform="translate(127.246094 0)"/>
       <use xlink:href="#DejaVuSans-30" transform="translate(190.869141 0)"/>
      </g>
     </g>
    </g>
    <g id="ytick_5">
     <g id="line2d_11">
      <g>
       <use xlink:href="#m0d8772a176" x="85.605625" y="92.788577" style="stroke: #000000; stroke-width: 0.8"/>
      </g>
     </g>
     <g id="text_12">
      <!-- 2000 -->
      <g transform="translate(37.885625 98.867327) scale(0.16 -0.16)">
       <use xlink:href="#DejaVuSans-32"/>
       <use xlink:href="#DejaVuSans-30" transform="translate(63.623047 0)"/>
       <use xlink:href="#DejaVuSans-30" transform="translate(127.246094 0)"/>
       <use xlink:href="#DejaVuSans-30" transform="translate(190.869141 0)"/>
      </g>
     </g>
    </g>
    <g id="ytick_6">
     <g id="line2d_12">
      <g>
       <use xlink:href="#m0d8772a176" x="85.605625" y="56.032867" style="stroke: #000000; stroke-width: 0.8"/>
      </g>
     </g>
     <g id="text_13">
      <!-- 3000 -->
      <g transform="translate(37.885625 62.111617) scale(0.16 -0.16)">
       <defs>
        <path id="DejaVuSans-33" d="M 2597 2516 
Q 3050 2419 3304 2112 
Q 3559 1806 3559 1356 
Q 3559 666 3084 287 
Q 2609 -91 1734 -91 
Q 1441 -91 1130 -33 
Q 819 25 488 141 
L 488 750 
Q 750 597 1062 519 
Q 1375 441 1716 441 
Q 2309 441 2620 675 
Q 2931 909 2931 1356 
Q 2931 1769 2642 2001 
Q 2353 2234 1838 2234 
L 1294 2234 
L 1294 2753 
L 1863 2753 
Q 2328 2753 2575 2939 
Q 2822 3125 2822 3475 
Q 2822 3834 2567 4026 
Q 2313 4219 1838 4219 
Q 1578 4219 1281 4162 
Q 984 4106 628 3988 
L 628 4550 
Q 988 4650 1302 4700 
Q 1616 4750 1894 4750 
Q 2613 4750 3031 4423 
Q 3450 4097 3450 3541 
Q 3450 3153 3228 2886 
Q 3006 2619 2597 2516 
z
" transform="scale(0.015625)"/>
       </defs>
       <use xlink:href="#DejaVuSans-33"/>
       <use xlink:href="#DejaVuSans-30" transform="translate(63.623047 0)"/>
       <use xlink:href="#DejaVuSans-30" transform="translate(127.246094 0)"/>
       <use xlink:href="#DejaVuSans-30" transform="translate(190.869141 0)"/>
      </g>
     </g>
    </g>
    <g id="ytick_7">
     <g id="line2d_13">
      <g>
       <use xlink:href="#m0d8772a176" x="85.605625" y="19.277157" style="stroke: #000000; stroke-width: 0.8"/>
      </g>
     </g>
     <g id="text_14">
      <!-- 4000 -->
      <g transform="translate(37.885625 25.355907) scale(0.16 -0.16)">
       <use xlink:href="#DejaVuSans-34"/>
       <use xlink:href="#DejaVuSans-30" transform="translate(63.623047 0)"/>
       <use xlink:href="#DejaVuSans-30" transform="translate(127.246094 0)"/>
       <use xlink:href="#DejaVuSans-30" transform="translate(190.869141 0)"/>
      </g>
     </g>
    </g>
    <g id="text_15">
     <!-- RW Speed (RPM)  -->
     <g transform="translate(18.398438 169.284062) rotate(-90) scale(0.1 -0.1)">
      <defs>
       <path id="DejaVuSans-52" d="M 2841 2188 
Q 3044 2119 3236 1894 
Q 3428 1669 3622 1275 
L 4263 0 
L 3584 0 
L 2988 1197 
Q 2756 1666 2539 1819 
Q 2322 1972 1947 1972 
L 1259 1972 
L 1259 0 
L 628 0 
L 628 4666 
L 2053 4666 
Q 2853 4666 3247 4331 
Q 3641 3997 3641 3322 
Q 3641 2881 3436 2590 
Q 3231 2300 2841 2188 
z
M 1259 4147 
L 1259 2491 
L 2053 2491 
Q 2509 2491 2742 2702 
Q 2975 2913 2975 3322 
Q 2975 3731 2742 3939 
Q 2509 4147 2053 4147 
L 1259 4147 
z
" transform="scale(0.015625)"/>
       <path id="DejaVuSans-57" d="M 213 4666 
L 850 4666 
L 1831 722 
L 2809 4666 
L 3519 4666 
L 4500 722 
L 5478 4666 
L 6119 4666 
L 4947 0 
L 4153 0 
L 3169 4050 
L 2175 0 
L 1381 0 
L 213 4666 
z
" transform="scale(0.015625)"/>
       <path id="DejaVuSans-53" d="M 3425 4513 
L 3425 3897 
Q 3066 4069 2747 4153 
Q 2428 4238 2131 4238 
Q 1616 4238 1336 4038 
Q 1056 3838 1056 3469 
Q 1056 3159 1242 3001 
Q 1428 2844 1947 2747 
L 2328 2669 
Q 3034 2534 3370 2195 
Q 3706 1856 3706 1288 
Q 3706 609 3251 259 
Q 2797 -91 1919 -91 
Q 1588 -91 1214 -16 
Q 841 59 441 206 
L 441 856 
Q 825 641 1194 531 
Q 1563 422 1919 422 
Q 2459 422 2753 634 
Q 3047 847 3047 1241 
Q 3047 1584 2836 1778 
Q 2625 1972 2144 2069 
L 1759 2144 
Q 1053 2284 737 2584 
Q 422 2884 422 3419 
Q 422 4038 858 4394 
Q 1294 4750 2059 4750 
Q 2388 4750 2728 4690 
Q 3069 4631 3425 4513 
z
" transform="scale(0.015625)"/>
       <path id="DejaVuSans-70" d="M 1159 525 
L 1159 -1331 
L 581 -1331 
L 581 3500 
L 1159 3500 
L 1159 2969 
Q 1341 3281 1617 3432 
Q 1894 3584 2278 3584 
Q 2916 3584 3314 3078 
Q 3713 2572 3713 1747 
Q 3713 922 3314 415 
Q 2916 -91 2278 -91 
Q 1894 -91 1617 61 
Q 1341 213 1159 525 
z
M 3116 1747 
Q 3116 2381 2855 2742 
Q 2594 3103 2138 3103 
Q 1681 3103 1420 2742 
Q 1159 2381 1159 1747 
Q 1159 1113 1420 752 
Q 1681 391 2138 391 
Q 2594 391 2855 752 
Q 3116 1113 3116 1747 
z
" transform="scale(0.015625)"/>
       <path id="DejaVuSans-64" d="M 2906 2969 
L 2906 4863 
L 3481 4863 
L 3481 0 
L 2906 0 
L 2906 525 
Q 2725 213 2448 61 
Q 2172 -91 1784 -91 
Q 1150 -91 751 415 
Q 353 922 353 1747 
Q 353 2572 751 3078 
Q 1150 3584 1784 3584 
Q 2172 3584 2448 3432 
Q 2725 3281 2906 2969 
z
M 947 1747 
Q 947 1113 1208 752 
Q 1469 391 1925 391 
Q 2381 391 2643 752 
Q 2906 1113 2906 1747 
Q 2906 2381 2643 2742 
Q 2381 3103 1925 3103 
Q 1469 3103 1208 2742 
Q 947 2381 947 1747 
z
" transform="scale(0.015625)"/>
       <path id="DejaVuSans-28" d="M 1984 4856 
Q 1566 4138 1362 3434 
Q 1159 2731 1159 2009 
Q 1159 1288 1364 580 
Q 1569 -128 1984 -844 
L 1484 -844 
Q 1016 -109 783 600 
Q 550 1309 550 2009 
Q 550 2706 781 3412 
Q 1013 4119 1484 4856 
L 1984 4856 
z
" transform="scale(0.015625)"/>
       <path id="DejaVuSans-50" d="M 1259 4147 
L 1259 2394 
L 2053 2394 
Q 2494 2394 2734 2622 
Q 2975 2850 2975 3272 
Q 2975 3691 2734 3919 
Q 2494 4147 2053 4147 
L 1259 4147 
z
M 628 4666 
L 2053 4666 
Q 2838 4666 3239 4311 
Q 3641 3956 3641 3272 
Q 3641 2581 3239 2228 
Q 2838 1875 2053 1875 
L 1259 1875 
L 1259 0 
L 628 0 
L 628 4666 
z
" transform="scale(0.015625)"/>
       <path id="DejaVuSans-4d" d="M 628 4666 
L 1569 4666 
L 2759 1491 
L 3956 4666 
L 4897 4666 
L 4897 0 
L 4281 0 
L 4281 4097 
L 3078 897 
L 2444 897 
L 1241 4097 
L 1241 0 
L 628 0 
L 628 4666 
z
" transform="scale(0.015625)"/>
       <path id="DejaVuSans-29" d="M 513 4856 
L 1013 4856 
Q 1481 4119 1714 3412 
Q 1947 2706 1947 2009 
Q 1947 1309 1714 600 
Q 1481 -109 1013 -844 
L 513 -844 
Q 928 -128 1133 580 
Q 1338 1288 1338 2009 
Q 1338 2731 1133 3434 
Q 928 4138 513 4856 
z
" transform="scale(0.015625)"/>
      </defs>
      <use xlink:href="#DejaVuSans-52"/>
      <use xlink:href="#DejaVuSans-57" transform="translate(65.482422 0)"/>
      <use xlink:href="#DejaVuSans-20" transform="translate(164.359375 0)"/>
      <use xlink:href="#DejaVuSans-53" transform="translate(196.146484 0)"/>
      <use xlink:href="#DejaVuSans-70" transform="translate(259.623047 0)"/>
      <use xlink:href="#DejaVuSans-65" transform="translate(323.099609 0)"/>
      <use xlink:href="#DejaVuSans-65" transform="translate(384.623047 0)"/>
      <use xlink:href="#DejaVuSans-64" transform="translate(446.146484 0)"/>
      <use xlink:href="#DejaVuSans-20" transform="translate(509.623047 0)"/>
      <use xlink:href="#DejaVuSans-28" transform="translate(541.410156 0)"/>
      <use xlink:href="#DejaVuSans-52" transform="translate(580.423828 0)"/>
      <use xlink:href="#DejaVuSans-50" transform="translate(649.90625 0)"/>
      <use xlink:href="#DejaVuSans-4d" transform="translate(710.208984 0)"/>
      <use xlink:href="#DejaVuSans-29" transform="translate(796.488281 0)"/>
      <use xlink:href="#DejaVuSans-20" transform="translate(835.501953 0)"/>
     </g>
    </g>
   </g>
   <g id="line2d_14">
    <path d="M 100.041733 131.209349 
L 101.822186 134.385563 
L 130.165078 186.149674 
L 131.897411 188.708788 
L 133.629744 190.890149 
L 135.362077 192.733703 
L 137.09441 194.274578 
L 138.826743 195.542886 
L 140.559076 196.563793 
L 142.291409 197.35848 
L 144.023742 197.945047 
L 145.756075 198.338472 
L 147.488408 198.550604 
L 149.268861 198.58888 
L 151.578638 198.376531 
L 153.888416 197.872581 
L 156.198193 197.074437 
L 158.50797 195.978603 
L 160.817747 194.585602 
L 163.127525 192.901239 
L 165.437302 190.937215 
L 167.747079 188.711222 
L 170.634301 185.596405 
L 173.569643 182.106007 
L 177.611753 176.89683 
L 185.118529 166.687437 
L 190.315528 159.815461 
L 194.357638 154.848311 
L 197.870425 150.88766 
L 201.33509 147.339768 
L 204.799756 144.156937 
L 207.686978 141.779157 
L 210.5742 139.641846 
L 214.038865 137.378763 
L 217.503531 135.425317 
L 221.016318 133.740387 
L 224.480984 132.351692 
L 227.945649 131.217846 
L 231.410315 130.323961 
L 234.874981 129.655901 
L 238.339647 129.199562 
L 242.381757 128.915123 
L 246.471988 128.874703 
L 250.514098 129.051866 
L 255.133653 129.48115 
L 260.330652 130.198888 
L 266.682539 131.321502 
L 275.969769 133.225281 
L 289.828432 136.06346 
L 297.383329 137.390245 
L 304.312661 138.397468 
L 311.241992 139.183134 
L 318.219445 139.750028 
L 325.726221 140.125889 
L 333.810441 140.29568 
L 343.097671 140.254049 
L 354.646557 139.966743 
L 388.763892 138.768204 
L 388.763892 138.768204 
" clip-path="url(#p29458eb1e4)" style="fill: none; stroke: #1f77b4; stroke-width: 1.5; stroke-linecap: square"/>
   </g>
   <g id="line2d_15">
    <path d="M 100.041733 95.14216 
L 101.822186 98.318281 
L 114.525961 121.493045 
L 115.68085 123.016539 
L 116.835739 124.05848 
L 117.990627 124.64227 
L 119.145516 124.793103 
L 120.300404 124.537536 
L 121.455293 123.903087 
L 122.610182 122.917873 
L 123.76507 121.610279 
L 124.968079 119.93596 
L 126.700412 117.028213 
L 174.724531 29.181591 
L 176.456864 26.731974 
L 178.189197 24.785825 
L 179.92153 23.307003 
L 181.076419 22.562231 
L 182.231308 21.997119 
L 183.386196 21.600222 
L 185.118529 21.295238 
L 186.850862 21.304615 
L 188.583195 21.59072 
L 190.315528 22.117057 
L 192.047861 22.848615 
L 194.357638 24.086097 
L 197.29298 25.985881 
L 200.757646 28.531622 
L 213.461421 38.17355 
L 216.926087 40.434024 
L 220.438873 42.459494 
L 223.903539 44.177147 
L 227.368205 45.615115 
L 230.832871 46.783606 
L 234.297537 47.701207 
L 237.762203 48.39207 
L 241.804313 48.948106 
L 245.894544 49.281057 
L 250.514098 49.436969 
L 256.288541 49.392891 
L 263.795318 49.091506 
L 280.011879 48.136028 
L 296.805884 47.2583 
L 313.55177 46.619423 
L 331.500664 46.161203 
L 349.449558 45.924345 
L 369.70823 45.889238 
L 388.763892 45.992383 
L 388.763892 45.992383 
" clip-path="url(#p29458eb1e4)" style="fill: none; stroke: #ff7f0e; stroke-width: 1.5; stroke-linecap: square"/>
   </g>
   <g id="line2d_16">
    <path d="M 100.041733 60.086753 
L 103.554519 62.214594 
L 108.751518 64.848609 
L 112.216184 66.725958 
L 115.103406 68.518592 
L 117.990627 70.57807 
L 120.877849 72.954419 
L 123.187626 75.118883 
L 125.545524 77.599205 
L 127.855301 80.317285 
L 130.165078 83.338929 
L 132.474855 86.674977 
L 135.362077 91.271803 
L 138.249299 96.281383 
L 146.910963 112.140248 
L 156.775637 130.000622 
L 159.662859 134.628129 
L 162.55008 138.787682 
L 164.859858 141.776489 
L 167.169635 144.472312 
L 169.479412 146.889306 
L 171.789189 149.046278 
L 174.724531 151.447454 
L 177.611753 153.483146 
L 180.498975 155.242511 
L 183.386196 156.764694 
L 186.850862 158.314816 
L 190.315528 159.582287 
L 193.20275 160.422882 
L 196.089971 161.060552 
L 199.025313 161.492429 
L 201.912535 161.698149 
L 204.799756 161.684853 
L 207.686978 161.456401 
L 210.5742 161.022436 
L 214.038865 160.251714 
L 217.503531 159.24044 
L 221.593762 157.791171 
L 226.213316 155.905468 
L 233.142648 152.792141 
L 245.317099 147.286008 
L 251.091543 144.936319 
L 256.288541 143.059099 
L 260.908096 141.607647 
L 265.52765 140.373499 
L 270.195325 139.350441 
L 274.81488 138.555155 
L 279.434434 137.965359 
L 284.631433 137.528095 
L 289.828432 137.304045 
L 295.650996 137.268271 
L 302.580328 137.461406 
L 310.664548 137.915781 
L 323.416443 138.888534 
L 343.097671 140.373704 
L 354.646557 141.011827 
L 366.243564 141.424248 
L 378.369894 141.628274 
L 388.763892 141.656003 
L 388.763892 141.656003 
" clip-path="url(#p29458eb1e4)" style="fill: none; stroke: #2ca02c; stroke-width: 1.5; stroke-linecap: square"/>
   </g>
   <g id="line2d_17">
    <path d="M 100.041733 130.382562 
L 101.822186 133.558706 
L 104.709408 138.744439 
L 105.864296 140.441807 
L 107.019185 141.851577 
L 108.174074 143.005767 
L 109.328962 143.936522 
L 111.061295 144.983333 
L 112.793628 145.703986 
L 115.103406 146.328255 
L 118.568071 146.937227 
L 122.610182 147.689417 
L 125.545524 148.480438 
L 128.432745 149.516795 
L 131.319967 150.792213 
L 135.362077 152.866671 
L 144.023742 157.462015 
L 147.488408 158.988169 
L 150.42375 160.031366 
L 153.310971 160.803429 
L 156.198193 161.313978 
L 159.085414 161.568752 
L 161.972636 161.58538 
L 164.859858 161.38976 
L 168.324524 160.918172 
L 172.414754 160.10099 
L 177.034309 158.94218 
L 183.963641 156.952322 
L 200.180202 152.229287 
L 207.686978 150.321025 
L 214.038865 148.925496 
L 220.438873 147.753003 
L 226.213316 146.909627 
L 231.98776 146.27155 
L 238.339647 145.796894 
L 244.739655 145.537322 
L 252.246431 145.469841 
L 260.908096 145.636242 
L 271.927658 146.088564 
L 311.241992 147.903126 
L 325.148776 148.216353 
L 340.787893 148.335863 
L 361.575889 148.24683 
L 388.763892 148.004597 
L 388.763892 148.004597 
" clip-path="url(#p29458eb1e4)" style="fill: none; stroke: #d62728; stroke-width: 1.5; stroke-linecap: square"/>
   </g>
   <g id="line2d_18">
    <path d="M 100.041733 95.664355 
L 101.822186 98.840511 
L 113.371073 119.903565 
L 114.525961 121.508304 
L 115.68085 122.719139 
L 116.835739 123.561474 
L 117.990627 124.06199 
L 119.145516 124.248143 
L 120.300404 124.14772 
L 121.455293 123.788451 
L 122.610182 123.197679 
L 123.76507 122.402074 
L 125.545524 120.833469 
L 127.277857 118.983306 
L 129.587634 116.149885 
L 133.0523 111.427175 
L 141.13652 100.191694 
L 144.601186 95.872813 
L 147.488408 92.633997 
L 150.42375 89.701552 
L 153.310971 87.170629 
L 156.198193 84.974209 
L 159.085414 83.087282 
L 161.972636 81.480406 
L 164.859858 80.123065 
L 167.747079 78.985907 
L 171.211745 77.874302 
L 174.724531 76.989872 
L 178.766642 76.228464 
L 182.808752 75.698532 
L 187.428306 75.329058 
L 192.625305 75.159773 
L 198.447869 75.213973 
L 205.377201 75.525238 
L 214.038865 76.156584 
L 229.677982 77.571877 
L 246.471988 79.014022 
L 258.598319 79.823192 
L 269.617881 80.334238 
L 280.589323 80.625837 
L 292.763774 80.727455 
L 308.354771 80.616634 
L 377.79245 79.823526 
L 388.763892 79.819485 
L 388.763892 79.819485 
" clip-path="url(#p29458eb1e4)" style="fill: none; stroke: #9467bd; stroke-width: 1.5; stroke-linecap: square"/>
   </g>
   <g id="line2d_19">
    <path d="M 100.041733 60.14588 
L 103.554519 63.059843 
L 109.906407 68.142171 
L 113.371073 70.693111 
L 116.258294 72.568278 
L 119.145516 74.14416 
L 121.455293 75.168881 
L 123.76507 75.982454 
L 126.122968 76.604563 
L 129.01019 77.104617 
L 131.897411 77.355335 
L 135.362077 77.394264 
L 139.404187 77.190704 
L 152.733527 76.284959 
L 156.775637 76.353002 
L 160.240303 76.620487 
L 164.282413 77.176931 
L 168.324524 77.964855 
L 173.569643 79.235344 
L 189.160639 83.215728 
L 194.357638 84.212279 
L 199.025313 84.884345 
L 203.644868 85.339681 
L 208.841867 85.621178 
L 214.61631 85.688929 
L 221.016318 85.528848 
L 229.100538 85.086135 
L 242.381757 84.085897 
L 259.753207 82.814317 
L 271.350214 82.192228 
L 282.8991 81.799181 
L 295.073551 81.607176 
L 310.087104 81.60414 
L 333.810441 81.860602 
L 370.863118 82.234062 
L 388.763892 82.291072 
L 388.763892 82.291072 
" clip-path="url(#p29458eb1e4)" style="fill: none; stroke: #8c564b; stroke-width: 1.5; stroke-linecap: square"/>
   </g>
   <g id="line2d_20">
    <path d="M 100.041733 130.635915 
L 101.822186 133.811719 
L 151.001194 223.842553 
L 152.156083 225.536555 
L 153.310971 226.94935 
L 154.46586 228.099081 
L 155.620749 229.004361 
L 156.775637 229.684369 
L 157.930526 230.158598 
L 159.085414 230.446589 
L 160.240303 230.567679 
L 161.972636 230.477519 
L 163.704969 230.114884 
L 165.437302 229.535577 
L 167.747079 228.510834 
L 170.634301 226.957682 
L 174.724531 224.472559 
L 179.344086 221.424117 
L 182.808752 218.914659 
L 185.695973 216.573376 
L 188.005751 214.465562 
L 190.315528 212.093078 
L 192.625305 209.423431 
L 194.935083 206.455336 
L 197.870425 202.294365 
L 201.33509 196.947491 
L 207.109534 187.518511 
L 212.883977 178.235083 
L 216.926087 172.198258 
L 220.438873 167.390782 
L 223.326095 163.78068 
L 226.213316 160.489487 
L 229.100538 157.516955 
L 231.98776 154.856404 
L 234.874981 152.497425 
L 237.762203 150.427822 
L 240.649424 148.634833 
L 243.536646 147.105756 
L 246.471988 145.808891 
L 249.35921 144.774255 
L 252.246431 143.966083 
L 255.133653 143.371547 
L 258.020874 142.977204 
L 261.48554 142.748217 
L 264.950206 142.761066 
L 268.414872 142.988402 
L 272.505103 143.494231 
L 277.124657 144.318544 
L 282.321656 145.487147 
L 289.250988 147.295579 
L 309.509659 152.74818 
L 316.438991 154.305157 
L 322.838999 155.512975 
L 329.190887 156.475654 
L 335.542774 157.202384 
L 341.942782 157.707792 
L 348.872114 158.023164 
L 356.37889 158.133168 
L 365.088675 158.024819 
L 376.060117 157.647327 
L 388.763892 157.052869 
L 388.763892 157.052869 
" clip-path="url(#p29458eb1e4)" style="fill: none; stroke: #e377c2; stroke-width: 1.5; stroke-linecap: square"/>
   </g>
   <g id="line2d_21">
    <path d="M 100.041733 97.781019 
L 101.822186 100.957179 
L 112.793628 120.959808 
L 113.948517 122.51339 
L 115.103406 123.618582 
L 116.258294 124.304045 
L 117.413183 124.598706 
L 118.568071 124.531452 
L 119.72296 124.130858 
L 120.877849 123.424956 
L 122.032737 122.441034 
L 123.187626 121.205475 
L 124.968079 118.865898 
L 126.700412 116.156188 
L 129.01019 112.037941 
L 168.901968 39.061237 
L 170.634301 36.503068 
L 172.414754 34.340067 
L 174.147087 32.659544 
L 175.87942 31.362609 
L 177.611753 30.410941 
L 179.344086 29.763607 
L 181.076419 29.378434 
L 182.808752 29.213326 
L 185.118529 29.265317 
L 187.428306 29.546627 
L 190.892972 30.234106 
L 196.089971 31.55203 
L 214.61631 36.492256 
L 219.235864 37.419752 
L 223.903539 38.125156 
L 228.523094 38.587356 
L 233.720093 38.856058 
L 239.494536 38.91321 
L 247.049432 38.75142 
L 286.941211 37.561597 
L 338.429996 36.839229 
L 364.46311 36.636032 
L 388.763892 36.635508 
L 388.763892 36.635508 
" clip-path="url(#p29458eb1e4)" style="fill: none; stroke: #7f7f7f; stroke-width: 1.5; stroke-linecap: square"/>
   </g>
   <g id="line2d_22">
    <path d="M 100.041733 59.180866 
L 104.131964 64.568466 
L 106.441741 67.115218 
L 108.751518 69.325566 
L 111.061295 71.245685 
L 113.948517 73.316614 
L 117.413183 75.478411 
L 129.587634 82.740257 
L 133.0523 85.151823 
L 136.516966 87.849366 
L 139.404187 90.388338 
L 142.291409 93.27083 
L 144.601186 95.881696 
L 146.910963 98.814768 
L 149.268861 102.191552 
L 151.578638 105.92198 
L 154.46586 111.127957 
L 189.160639 174.580863 
L 190.892972 177.155531 
L 192.625305 179.330328 
L 194.357638 181.166116 
L 196.089971 182.718737 
L 198.447869 184.464302 
L 200.757646 185.85063 
L 203.067423 186.98797 
L 205.954645 188.131203 
L 208.841867 189.01341 
L 211.729088 189.655495 
L 214.61631 190.058212 
L 217.503531 190.213293 
L 220.438873 190.108012 
L 223.326095 189.742034 
L 226.213316 189.120155 
L 229.100538 188.255617 
L 231.98776 187.169837 
L 235.452426 185.614528 
L 239.494536 183.523709 
L 244.739655 180.515932 
L 261.48554 170.661146 
L 266.682539 167.971307 
L 271.350214 165.805442 
L 275.969769 163.918036 
L 280.589323 162.296468 
L 284.631433 161.097785 
L 289.250988 159.975736 
L 293.918663 159.100671 
L 298.538217 158.475363 
L 303.157772 158.070072 
L 308.354771 157.8488 
L 314.129214 157.852594 
L 320.529222 158.104104 
L 328.035998 158.640892 
L 338.429996 159.634095 
L 361.575889 161.914189 
L 372.018007 162.681199 
L 381.83456 163.186798 
L 388.763892 163.419355 
L 388.763892 163.419355 
" clip-path="url(#p29458eb1e4)" style="fill: none; stroke: #bcbd22; stroke-width: 1.5; stroke-linecap: square"/>
   </g>
   <g id="patch_3">
    <path d="M 85.605625 241.036875 
L 85.605625 10.8 
" style="fill: none; stroke: #000000; stroke-width: 0.8; stroke-linejoin: miter; stroke-linecap: square"/>
   </g>
   <g id="patch_4">
    <path d="M 403.2 241.036875 
L 403.2 10.8 
" style="fill: none; stroke: #000000; stroke-width: 0.8; stroke-linejoin: miter; stroke-linecap: square"/>
   </g>
   <g id="patch_5">
    <path d="M 85.605625 241.036875 
L 403.2 241.036875 
" style="fill: none; stroke: #000000; stroke-width: 0.8; stroke-linejoin: miter; stroke-linecap: square"/>
   </g>
   <g id="patch_6">
    <path d="M 85.605625 10.8 
L 403.2 10.8 
" style="fill: none; stroke: #000000; stroke-width: 0.8; stroke-linejoin: miter; stroke-linecap: square"/>
   </g>
  </g>
 </g>
 <defs>
  <clipPath id="p29458eb1e4">
   <rect x="85.605625" y="10.8" width="317.594375" height="230.236875"/>
  </clipPath>
 </defs>
</svg>
