<?xml version="1.0" encoding="utf-8" standalone="no"?>
<!DOCTYPE svg PUBLIC "-//W3C//DTD SVG 1.1//EN"
  "http://www.w3.org/Graphics/SVG/1.1/DTD/svg11.dtd">
<svg xmlns:xlink="http://www.w3.org/1999/xlink" width="414pt" height="180pt" viewBox="0 0 414 180" xmlns="http://www.w3.org/2000/svg" version="1.1">
 <metadata>
  <rdf:RDF xmlns:dc="http://purl.org/dc/elements/1.1/" xmlns:cc="http://creativecommons.org/ns#" xmlns:rdf="http://www.w3.org/1999/02/22-rdf-syntax-ns#">
   <cc:Work>
    <dc:type rdf:resource="http://purl.org/dc/dcmitype/StillImage"/>
    <dc:date>2026-04-02T22:59:30.072310</dc:date>
    <dc:format>image/svg+xml</dc:format>
    <dc:creator>
     <cc:Agent>
      <dc:title>Matplotlib v3.10.7, https://matplotlib.org/</dc:title>
     </cc:Agent>
    </dc:creator>
   </cc:Work>
  </rdf:RDF>
 </metadata>
 <defs>
  <style type="text/css">*{stroke-linejoin: round; stroke-linecap: butt}</style>
 </defs>
 <g id="figure_1">
  <g id="patch_1">
   <path d="M 0 180 
L 414 180 
L 414 0 
L 0 0 
L 0 180 
z
" style="fill: none"/>
  </g>
  <g id="axes_1">
   <g id="patch_2">
    <path d="M 67.651094 139.811563 
L 403.2 139.811563 
L 403.2 10.8 
L 67.651094 10.8 
L 67.651094 139.811563 
z
" style="fill: none"/>
   </g>
   <g id="matplotlib.axis_1">
    <g id="xtick_1">
     <g id="line2d_1">
      <defs>
       <path id="m642275fac3" d="M 0 0 
L 0 3.5 
" style="stroke: #000000; stroke-width: 0.8"/>
      </defs>
      <g>
       <use xlink:href="#m642275fac3" x="82.903317" y="139.811563" style="stroke: #000000; stroke-width: 0.8"/>
      </g>
     </g>
     <g id="text_1">
      <!-- 0.0 -->
      <g transform="translate(75.746911 153.650156) scale(0.09 -0.09)">
       <defs>
        <path id="DejaVuSans-30" d="M 2034 4250 
Q 1547 4250 1301 3770 
Q 1056 3291 1056 2328 
Q 1056 1369 1301 889 
Q 1547 409 2034 409 
Q 2525 409 2770 889 
Q 3016 1369 3016 2328 
Q 3016 3291 2770 3770 
Q 2525 4250 2034 4250 
z
M 2034 4750 
Q 2819 4750 3233 4129 
Q 3647 3509 3647 2328 
Q 3647 1150 3233 529 
Q 2819 -91 2034 -91 
Q 1250 -91 836 529 
Q 422 1150 422 2328 
Q 422 3509 836 4129 
Q 1250 4750 2034 4750 
z
" transform="scale(0.015625)"/>
        <path id="DejaVuSans-2e" d="M 684 794 
L 1344 794 
L 1344 0 
L 684 0 
L 684 794 
z
" transform="scale(0.015625)"/>
       </defs>
       <use xlink:href="#DejaVuSans-30"/>
       <use xlink:href="#DejaVuSans-2e" transform="translate(63.623047 0)"/>
       <use xlink:href="#DejaVuSans-30" transform="translate(95.410156 0)"/>
      </g>
     </g>
    </g>
    <g id="xtick_2">
     <g id="line2d_2">
      <g>
       <use xlink:href="#m642275fac3" x="123.666215" y="139.811563" style="stroke: #000000; stroke-width: 0.8"/>
      </g>
     </g>
     <g id="text_2">
      <!-- 0.1 -->
      <g transform="translate(116.509808 153.650156) scale(0.09 -0.09)">
       <defs>
        <path id="DejaVuSans-31" d="M 794 531 
L 1825 531 
L 1825 4091 
L 703 3866 
L 703 4441 
L 1819 4666 
L 2450 4666 
L 2450 531 
L 3481 531 
L 3481 0 
L 794 0 
L 794 531 
z
" transform="scale(0.015625)"/>
       </defs>
       <use xlink:href="#DejaVuSans-30"/>
       <use xlink:href="#DejaVuSans-2e" transform="translate(63.623047 0)"/>
       <use xlink:href="#DejaVuSans-31" transform="translate(95.410156 0)"/>
      </g>
     </g>
    </g>
    <g id="xtick_3">
     <g id="line2d_3">
      <g>
       <use xlink:href="#m642275fac3" x="164.429112" y="139.811563" style="stroke: #000000; stroke-width: 0.8"/>
      </g>
     </g>
     <g id="text_3">
      <!-- 0.2 -->
      <g transform="translate(157.272706 153.650156) scale(0.09 -0.09)">
       <defs>
        <path id="DejaVuSans-32" d="M 1228 531 
L 3431 531 
L 3431 0 
L 469 0 
L 469 531 
Q 828 903 1448 1529 
Q 2069 2156 2228 2338 
Q 2531 2678 2651 2914 
Q 2772 3150 2772 3378 
Q 2772 3750 2511 3984 
Q 2250 4219 1831 4219 
Q 1534 4219 1204 4116 
Q 875 4013 500 3803 
L 500 4441 
Q 881 4594 1212 4672 
Q 1544 4750 1819 4750 
Q 2544 4750 2975 4387 
Q 3406 4025 3406 3419 
Q 3406 3131 3298 2873 
Q 3191 2616 2906 2266 
Q 2828 2175 2409 1742 
Q 1991 1309 1228 531 
z
" transform="scale(0.015625)"/>
       </defs>
       <use xlink:href="#DejaVuSans-30"/>
       <use xlink:href="#DejaVuSans-2e" transform="translate(63.623047 0)"/>
       <use xlink:href="#DejaVuSans-32" transform="translate(95.410156 0)"/>
      </g>
     </g>
    </g>
    <g id="xtick_4">
     <g id="line2d_4">
      <g>
       <use xlink:href="#m642275fac3" x="205.19201" y="139.811563" style="stroke: #000000; stroke-width: 0.8"/>
      </g>
     </g>
     <g id="text_4">
      <!-- 0.3 -->
      <g transform="translate(198.035604 153.650156) scale(0.09 -0.09)">
       <defs>
        <path id="DejaVuSans-33" d="M 2597 2516 
Q 3050 2419 3304 2112 
Q 3559 1806 3559 1356 
Q 3559 666 3084 287 
Q 2609 -91 1734 -91 
Q 1441 -91 1130 -33 
Q 819 25 488 141 
L 488 750 
Q 750 597 1062 519 
Q 1375 441 1716 441 
Q 2309 441 2620 675 
Q 2931 909 2931 1356 
Q 2931 1769 2642 2001 
Q 2353 2234 1838 2234 
L 1294 2234 
L 1294 2753 
L 1863 2753 
Q 2328 2753 2575 2939 
Q 2822 3125 2822 3475 
Q 2822 3834 2567 4026 
Q 2313 4219 1838 4219 
Q 1578 4219 1281 4162 
Q 984 4106 628 3988 
L 628 4550 
Q 988 4650 1302 4700 
Q 1616 4750 1894 4750 
Q 2613 4750 3031 4423 
Q 3450 4097 3450 3541 
Q 3450 3153 3228 2886 
Q 3006 2619 2597 2516 
z
" transform="scale(0.015625)"/>
       </defs>
       <use xlink:href="#DejaVuSans-30"/>
       <use xlink:href="#DejaVuSans-2e" transform="translate(63.623047 0)"/>
       <use xlink:href="#DejaVuSans-33" transform="translate(95.410156 0)"/>
      </g>
     </g>
    </g>
    <g id="xtick_5">
     <g id="line2d_5">
      <g>
       <use xlink:href="#m642275fac3" x="245.954908" y="139.811563" style="stroke: #000000; stroke-width: 0.8"/>
      </g>
     </g>
     <g id="text_5">
      <!-- 0.4 -->
      <g transform="translate(238.798501 153.650156) scale(0.09 -0.09)">
       <defs>
        <path id="DejaVuSans-34" d="M 2419 4116 
L 825 1625 
L 2419 1625 
L 2419 4116 
z
M 2253 4666 
L 3047 4666 
L 3047 1625 
L 3713 1625 
L 3713 1100 
L 3047 1100 
L 3047 0 
L 2419 0 
L 2419 1100 
L 313 1100 
L 313 1709 
L 2253 4666 
z
" transform="scale(0.015625)"/>
       </defs>
       <use xlink:href="#DejaVuSans-30"/>
       <use xlink:href="#DejaVuSans-2e" transform="translate(63.623047 0)"/>
       <use xlink:href="#DejaVuSans-34" transform="translate(95.410156 0)"/>
      </g>
     </g>
    </g>
    <g id="xtick_6">
     <g id="line2d_6">
      <g>
       <use xlink:href="#m642275fac3" x="286.717805" y="139.811563" style="stroke: #000000; stroke-width: 0.8"/>
      </g>
     </g>
     <g id="text_6">
      <!-- 0.5 -->
      <g transform="translate(279.561399 153.650156) scale(0.09 -0.09)">
       <defs>
        <path id="DejaVuSans-35" d="M 691 4666 
L 3169 4666 
L 3169 4134 
L 1269 4134 
L 1269 2991 
Q 1406 3038 1543 3061 
Q 1681 3084 1819 3084 
Q 2600 3084 3056 2656 
Q 3513 2228 3513 1497 
Q 3513 744 3044 326 
Q 2575 -91 1722 -91 
Q 1428 -91 1123 -41 
Q 819 9 494 109 
L 494 744 
Q 775 591 1075 516 
Q 1375 441 1709 441 
Q 2250 441 2565 725 
Q 2881 1009 2881 1497 
Q 2881 1984 2565 2268 
Q 2250 2553 1709 2553 
Q 1456 2553 1204 2497 
Q 953 2441 691 2322 
L 691 4666 
z
" transform="scale(0.015625)"/>
       </defs>
       <use xlink:href="#DejaVuSans-30"/>
       <use xlink:href="#DejaVuSans-2e" transform="translate(63.623047 0)"/>
       <use xlink:href="#DejaVuSans-35" transform="translate(95.410156 0)"/>
      </g>
     </g>
    </g>
    <g id="xtick_7">
     <g id="line2d_7">
      <g>
       <use xlink:href="#m642275fac3" x="327.480703" y="139.811563" style="stroke: #000000; stroke-width: 0.8"/>
      </g>
     </g>
     <g id="text_7">
      <!-- 0.6 -->
      <g transform="translate(320.324297 153.650156) scale(0.09 -0.09)">
       <defs>
        <path id="DejaVuSans-36" d="M 2113 2584 
Q 1688 2584 1439 2293 
Q 1191 2003 1191 1497 
Q 1191 994 1439 701 
Q 1688 409 2113 409 
Q 2538 409 2786 701 
Q 3034 994 3034 1497 
Q 3034 2003 2786 2293 
Q 2538 2584 2113 2584 
z
M 3366 4563 
L 3366 3988 
Q 3128 4100 2886 4159 
Q 2644 4219 2406 4219 
Q 1781 4219 1451 3797 
Q 1122 3375 1075 2522 
Q 1259 2794 1537 2939 
Q 1816 3084 2150 3084 
Q 2853 3084 3261 2657 
Q 3669 2231 3669 1497 
Q 3669 778 3244 343 
Q 2819 -91 2113 -91 
Q 1303 -91 875 529 
Q 447 1150 447 2328 
Q 447 3434 972 4092 
Q 1497 4750 2381 4750 
Q 2619 4750 2861 4703 
Q 3103 4656 3366 4563 
z
" transform="scale(0.015625)"/>
       </defs>
       <use xlink:href="#DejaVuSans-30"/>
       <use xlink:href="#DejaVuSans-2e" transform="translate(63.623047 0)"/>
       <use xlink:href="#DejaVuSans-36" transform="translate(95.410156 0)"/>
      </g>
     </g>
    </g>
    <g id="xtick_8">
     <g id="line2d_8">
      <g>
       <use xlink:href="#m642275fac3" x="368.243601" y="139.811563" style="stroke: #000000; stroke-width: 0.8"/>
      </g>
     </g>
     <g id="text_8">
      <!-- 0.7 -->
      <g transform="translate(361.087195 153.650156) scale(0.09 -0.09)">
       <defs>
        <path id="DejaVuSans-37" d="M 525 4666 
L 3525 4666 
L 3525 4397 
L 1831 0 
L 1172 0 
L 2766 4134 
L 525 4134 
L 525 4666 
z
" transform="scale(0.015625)"/>
       </defs>
       <use xlink:href="#DejaVuSans-30"/>
       <use xlink:href="#DejaVuSans-2e" transform="translate(63.623047 0)"/>
       <use xlink:href="#DejaVuSans-37" transform="translate(95.410156 0)"/>
      </g>
     </g>
    </g>
    <g id="text_9">
     <!-- Time [orbits] -->
     <g transform="translate(203.458359 167.120313) scale(0.1 -0.1)">
      <defs>
       <path id="DejaVuSans-54" d="M -19 4666 
L 3928 4666 
L 3928 4134 
L 2272 4134 
L 2272 0 
L 1638 0 
L 1638 4134 
L -19 4134 
L -19 4666 
z
" transform="scale(0.015625)"/>
       <path id="DejaVuSans-69" d="M 603 3500 
L 1178 3500 
L 1178 0 
L 603 0 
L 603 3500 
z
M 603 4863 
L 1178 4863 
L 1178 4134 
L 603 4134 
L 603 4863 
z
" transform="scale(0.015625)"/>
       <path id="DejaVuSans-6d" d="M 3328 2828 
Q 3544 3216 3844 3400 
Q 4144 3584 4550 3584 
Q 5097 3584 5394 3201 
Q 5691 2819 5691 2113 
L 5691 0 
L 5113 0 
L 5113 2094 
Q 5113 2597 4934 2840 
Q 4756 3084 4391 3084 
Q 3944 3084 3684 2787 
Q 3425 2491 3425 1978 
L 3425 0 
L 2847 0 
L 2847 2094 
Q 2847 2600 2669 2842 
Q 2491 3084 2119 3084 
Q 1678 3084 1418 2786 
Q 1159 2488 1159 1978 
L 1159 0 
L 581 0 
L 581 3500 
L 1159 3500 
L 1159 2956 
Q 1356 3278 1631 3431 
Q 1906 3584 2284 3584 
Q 2666 3584 2933 3390 
Q 3200 3197 3328 2828 
z
" transform="scale(0.015625)"/>
       <path id="DejaVuSans-65" d="M 3597 1894 
L 3597 1613 
L 953 1613 
Q 991 1019 1311 708 
Q 1631 397 2203 397 
Q 2534 397 2845 478 
Q 3156 559 3463 722 
L 3463 178 
Q 3153 47 2828 -22 
Q 2503 -91 2169 -91 
Q 1331 -91 842 396 
Q 353 884 353 1716 
Q 353 2575 817 3079 
Q 1281 3584 2069 3584 
Q 2775 3584 3186 3129 
Q 3597 2675 3597 1894 
z
M 3022 2063 
Q 3016 2534 2758 2815 
Q 2500 3097 2075 3097 
Q 1594 3097 1305 2825 
Q 1016 2553 972 2059 
L 3022 2063 
z
" transform="scale(0.015625)"/>
       <path id="DejaVuSans-20" transform="scale(0.015625)"/>
       <path id="DejaVuSans-5b" d="M 550 4863 
L 1875 4863 
L 1875 4416 
L 1125 4416 
L 1125 -397 
L 1875 -397 
L 1875 -844 
L 550 -844 
L 550 4863 
z
" transform="scale(0.015625)"/>
       <path id="DejaVuSans-6f" d="M 1959 3097 
Q 1497 3097 1228 2736 
Q 959 2375 959 1747 
Q 959 1119 1226 758 
Q 1494 397 1959 397 
Q 2419 397 2687 759 
Q 2956 1122 2956 1747 
Q 2956 2369 2687 2733 
Q 2419 3097 1959 3097 
z
M 1959 3584 
Q 2709 3584 3137 3096 
Q 3566 2609 3566 1747 
Q 3566 888 3137 398 
Q 2709 -91 1959 -91 
Q 1206 -91 779 398 
Q 353 888 353 1747 
Q 353 2609 779 3096 
Q 1206 3584 1959 3584 
z
" transform="scale(0.015625)"/>
       <path id="DejaVuSans-72" d="M 2631 2963 
Q 2534 3019 2420 3045 
Q 2306 3072 2169 3072 
Q 1681 3072 1420 2755 
Q 1159 2438 1159 1844 
L 1159 0 
L 581 0 
L 581 3500 
L 1159 3500 
L 1159 2956 
Q 1341 3275 1631 3429 
Q 1922 3584 2338 3584 
Q 2397 3584 2469 3576 
Q 2541 3569 2628 3553 
L 2631 2963 
z
" transform="scale(0.015625)"/>
       <path id="DejaVuSans-62" d="M 3116 1747 
Q 3116 2381 2855 2742 
Q 2594 3103 2138 3103 
Q 1681 3103 1420 2742 
Q 1159 2381 1159 1747 
Q 1159 1113 1420 752 
Q 1681 391 2138 391 
Q 2594 391 2855 752 
Q 3116 1113 3116 1747 
z
M 1159 2969 
Q 1341 3281 1617 3432 
Q 1894 3584 2278 3584 
Q 2916 3584 3314 3078 
Q 3713 2572 3713 1747 
Q 3713 922 3314 415 
Q 2916 -91 2278 -91 
Q 1894 -91 1617 61 
Q 1341 213 1159 525 
L 1159 0 
L 581 0 
L 581 4863 
L 1159 4863 
L 1159 2969 
z
" transform="scale(0.015625)"/>
       <path id="DejaVuSans-74" d="M 1172 4494 
L 1172 3500 
L 2356 3500 
L 2356 3053 
L 1172 3053 
L 1172 1153 
Q 1172 725 1289 603 
Q 1406 481 1766 481 
L 2356 481 
L 2356 0 
L 1766 0 
Q 1100 0 847 248 
Q 594 497 594 1153 
L 594 3053 
L 172 3053 
L 172 3500 
L 594 3500 
L 594 4494 
L 1172 4494 
z
" transform="scale(0.015625)"/>
       <path id="DejaVuSans-73" d="M 2834 3397 
L 2834 2853 
Q 2591 2978 2328 3040 
Q 2066 3103 1784 3103 
Q 1356 3103 1142 2972 
Q 928 2841 928 2578 
Q 928 2378 1081 2264 
Q 1234 2150 1697 2047 
L 1894 2003 
Q 2506 1872 2764 1633 
Q 3022 1394 3022 966 
Q 3022 478 2636 193 
Q 2250 -91 1575 -91 
Q 1294 -91 989 -36 
Q 684 19 347 128 
L 347 722 
Q 666 556 975 473 
Q 1284 391 1588 391 
Q 1994 391 2212 530 
Q 2431 669 2431 922 
Q 2431 1156 2273 1281 
Q 2116 1406 1581 1522 
L 1381 1569 
Q 847 1681 609 1914 
Q 372 2147 372 2553 
Q 372 3047 722 3315 
Q 1072 3584 1716 3584 
Q 2034 3584 2315 3537 
Q 2597 3491 2834 3397 
z
" transform="scale(0.015625)"/>
       <path id="DejaVuSans-5d" d="M 1947 4863 
L 1947 -844 
L 622 -844 
L 622 -397 
L 1369 -397 
L 1369 4416 
L 622 4416 
L 622 4863 
L 1947 4863 
z
" transform="scale(0.015625)"/>
      </defs>
      <use xlink:href="#DejaVuSans-54"/>
      <use xlink:href="#DejaVuSans-69" transform="translate(57.958984 0)"/>
      <use xlink:href="#DejaVuSans-6d" transform="translate(85.742188 0)"/>
      <use xlink:href="#DejaVuSans-65" transform="translate(183.154297 0)"/>
      <use xlink:href="#DejaVuSans-20" transform="translate(244.677734 0)"/>
      <use xlink:href="#DejaVuSans-5b" transform="translate(276.464844 0)"/>
      <use xlink:href="#DejaVuSans-6f" transform="translate(315.478516 0)"/>
      <use xlink:href="#DejaVuSans-72" transform="translate(376.660156 0)"/>
      <use xlink:href="#DejaVuSans-62" transform="translate(417.773438 0)"/>
      <use xlink:href="#DejaVuSans-69" transform="translate(481.25 0)"/>
      <use xlink:href="#DejaVuSans-74" transform="translate(509.033203 0)"/>
      <use xlink:href="#DejaVuSans-73" transform="translate(548.242188 0)"/>
      <use xlink:href="#DejaVuSans-5d" transform="translate(600.341797 0)"/>
     </g>
    </g>
   </g>
   <g id="matplotlib.axis_2">
    <g id="ytick_1">
     <g id="line2d_9">
      <defs>
       <path id="m4a22a9f97b" d="M 0 0 
L -3.5 0 
" style="stroke: #000000; stroke-width: 0.8"/>
      </defs>
      <g>
       <use xlink:href="#m4a22a9f97b" x="67.651094" y="117.678111" style="stroke: #000000; stroke-width: 0.8"/>
      </g>
     </g>
     <g id="text_10">
      <!-- −30000 -->
      <g transform="translate(24.478125 121.097407) scale(0.09 -0.09)">
       <defs>
        <path id="DejaVuSans-2212" d="M 678 2272 
L 4684 2272 
L 4684 1741 
L 678 1741 
L 678 2272 
z
" transform="scale(0.015625)"/>
       </defs>
       <use xlink:href="#DejaVuSans-2212"/>
       <use xlink:href="#DejaVuSans-33" transform="translate(83.789062 0)"/>
       <use xlink:href="#DejaVuSans-30" transform="translate(147.412109 0)"/>
       <use xlink:href="#DejaVuSans-30" transform="translate(211.035156 0)"/>
       <use xlink:href="#DejaVuSans-30" transform="translate(274.658203 0)"/>
       <use xlink:href="#DejaVuSans-30" transform="translate(338.28125 0)"/>
      </g>
     </g>
    </g>
    <g id="ytick_2">
     <g id="line2d_10">
      <g>
       <use xlink:href="#m4a22a9f97b" x="67.651094" y="92.225184" style="stroke: #000000; stroke-width: 0.8"/>
      </g>
     </g>
     <g id="text_11">
      <!-- −20000 -->
      <g transform="translate(24.478125 95.644481) scale(0.09 -0.09)">
       <use xlink:href="#DejaVuSans-2212"/>
       <use xlink:href="#DejaVuSans-32" transform="translate(83.789062 0)"/>
       <use xlink:href="#DejaVuSans-30" transform="translate(147.412109 0)"/>
       <use xlink:href="#DejaVuSans-30" transform="translate(211.035156 0)"/>
       <use xlink:href="#DejaVuSans-30" transform="translate(274.658203 0)"/>
       <use xlink:href="#DejaVuSans-30" transform="translate(338.28125 0)"/>
      </g>
     </g>
    </g>
    <g id="ytick_3">
     <g id="line2d_11">
      <g>
       <use xlink:href="#m4a22a9f97b" x="67.651094" y="66.772257" style="stroke: #000000; stroke-width: 0.8"/>
      </g>
     </g>
     <g id="text_12">
      <!-- −10000 -->
      <g transform="translate(24.478125 70.191554) scale(0.09 -0.09)">
       <use xlink:href="#DejaVuSans-2212"/>
       <use xlink:href="#DejaVuSans-31" transform="translate(83.789062 0)"/>
       <use xlink:href="#DejaVuSans-30" transform="translate(147.412109 0)"/>
       <use xlink:href="#DejaVuSans-30" transform="translate(211.035156 0)"/>
       <use xlink:href="#DejaVuSans-30" transform="translate(274.658203 0)"/>
       <use xlink:href="#DejaVuSans-30" transform="translate(338.28125 0)"/>
      </g>
     </g>
    </g>
    <g id="ytick_4">
     <g id="line2d_12">
      <g>
       <use xlink:href="#m4a22a9f97b" x="67.651094" y="41.31933" style="stroke: #000000; stroke-width: 0.8"/>
      </g>
     </g>
     <g id="text_13">
      <!-- 0 -->
      <g transform="translate(54.924844 44.738627) scale(0.09 -0.09)">
       <use xlink:href="#DejaVuSans-30"/>
      </g>
     </g>
    </g>
    <g id="ytick_5">
     <g id="line2d_13">
      <g>
       <use xlink:href="#m4a22a9f97b" x="67.651094" y="15.866403" style="stroke: #000000; stroke-width: 0.8"/>
      </g>
     </g>
     <g id="text_14">
      <!-- 10000 -->
      <g transform="translate(32.019844 19.2857) scale(0.09 -0.09)">
       <use xlink:href="#DejaVuSans-31"/>
       <use xlink:href="#DejaVuSans-30" transform="translate(63.623047 0)"/>
       <use xlink:href="#DejaVuSans-30" transform="translate(127.246094 0)"/>
       <use xlink:href="#DejaVuSans-30" transform="translate(190.869141 0)"/>
       <use xlink:href="#DejaVuSans-30" transform="translate(254.492188 0)"/>
      </g>
     </g>
    </g>
    <g id="text_15">
     <!-- Inertial Position [km] -->
     <g transform="translate(18.398438 127.193281) rotate(-90) scale(0.1 -0.1)">
      <defs>
       <path id="DejaVuSans-49" d="M 628 4666 
L 1259 4666 
L 1259 0 
L 628 0 
L 628 4666 
z
" transform="scale(0.015625)"/>
       <path id="DejaVuSans-6e" d="M 3513 2113 
L 3513 0 
L 2938 0 
L 2938 2094 
Q 2938 2591 2744 2837 
Q 2550 3084 2163 3084 
Q 1697 3084 1428 2787 
Q 1159 2491 1159 1978 
L 1159 0 
L 581 0 
L 581 3500 
L 1159 3500 
L 1159 2956 
Q 1366 3272 1645 3428 
Q 1925 3584 2291 3584 
Q 2894 3584 3203 3211 
Q 3513 2838 3513 2113 
z
" transform="scale(0.015625)"/>
       <path id="DejaVuSans-61" d="M 2194 1759 
Q 1497 1759 1228 1600 
Q 959 1441 959 1056 
Q 959 750 1161 570 
Q 1363 391 1709 391 
Q 2188 391 2477 730 
Q 2766 1069 2766 1631 
L 2766 1759 
L 2194 1759 
z
M 3341 1997 
L 3341 0 
L 2766 0 
L 2766 531 
Q 2569 213 2275 61 
Q 1981 -91 1556 -91 
Q 1019 -91 701 211 
Q 384 513 384 1019 
Q 384 1609 779 1909 
Q 1175 2209 1959 2209 
L 2766 2209 
L 2766 2266 
Q 2766 2663 2505 2880 
Q 2244 3097 1772 3097 
Q 1472 3097 1187 3025 
Q 903 2953 641 2809 
L 641 3341 
Q 956 3463 1253 3523 
Q 1550 3584 1831 3584 
Q 2591 3584 2966 3190 
Q 3341 2797 3341 1997 
z
" transform="scale(0.015625)"/>
       <path id="DejaVuSans-6c" d="M 603 4863 
L 1178 4863 
L 1178 0 
L 603 0 
L 603 4863 
z
" transform="scale(0.015625)"/>
       <path id="DejaVuSans-50" d="M 1259 4147 
L 1259 2394 
L 2053 2394 
Q 2494 2394 2734 2622 
Q 2975 2850 2975 3272 
Q 2975 3691 2734 3919 
Q 2494 4147 2053 4147 
L 1259 4147 
z
M 628 4666 
L 2053 4666 
Q 2838 4666 3239 4311 
Q 3641 3956 3641 3272 
Q 3641 2581 3239 2228 
Q 2838 1875 2053 1875 
L 1259 1875 
L 1259 0 
L 628 0 
L 628 4666 
z
" transform="scale(0.015625)"/>
       <path id="DejaVuSans-6b" d="M 581 4863 
L 1159 4863 
L 1159 1991 
L 2875 3500 
L 3609 3500 
L 1753 1863 
L 3688 0 
L 2938 0 
L 1159 1709 
L 1159 0 
L 581 0 
L 581 4863 
z
" transform="scale(0.015625)"/>
      </defs>
      <use xlink:href="#DejaVuSans-49"/>
      <use xlink:href="#DejaVuSans-6e" transform="translate(29.492188 0)"/>
      <use xlink:href="#DejaVuSans-65" transform="translate(92.871094 0)"/>
      <use xlink:href="#DejaVuSans-72" transform="translate(154.394531 0)"/>
      <use xlink:href="#DejaVuSans-74" transform="translate(195.507812 0)"/>
      <use xlink:href="#DejaVuSans-69" transform="translate(234.716797 0)"/>
      <use xlink:href="#DejaVuSans-61" transform="translate(262.5 0)"/>
      <use xlink:href="#DejaVuSans-6c" transform="translate(323.779297 0)"/>
      <use xlink:href="#DejaVuSans-20" transform="translate(351.5625 0)"/>
      <use xlink:href="#DejaVuSans-50" transform="translate(383.349609 0)"/>
      <use xlink:href="#DejaVuSans-6f" transform="translate(440.027344 0)"/>
      <use xlink:href="#DejaVuSans-73" transform="translate(501.208984 0)"/>
      <use xlink:href="#DejaVuSans-69" transform="translate(553.308594 0)"/>
      <use xlink:href="#DejaVuSans-74" transform="translate(581.091797 0)"/>
      <use xlink:href="#DejaVuSans-69" transform="translate(620.300781 0)"/>
      <use xlink:href="#DejaVuSans-6f" transform="translate(648.083984 0)"/>
      <use xlink:href="#DejaVuSans-6e" transform="translate(709.265625 0)"/>
      <use xlink:href="#DejaVuSans-20" transform="translate(772.644531 0)"/>
      <use xlink:href="#DejaVuSans-5b" transform="translate(804.431641 0)"/>
      <use xlink:href="#DejaVuSans-6b" transform="translate(843.445312 0)"/>
      <use xlink:href="#DejaVuSans-6d" transform="translate(901.355469 0)"/>
      <use xlink:href="#DejaVuSans-5d" transform="translate(998.767578 0)"/>
     </g>
    </g>
   </g>
   <g id="line2d_14">
    <path d="M 82.903317 56.309907 
L 85.893949 61.382192 
L 88.884581 66.133864 
L 91.875213 70.579936 
L 94.865845 74.741587 
L 97.856477 78.641153 
L 100.847109 82.299988 
L 103.837741 85.737644 
L 106.828372 88.971674 
L 109.819004 92.017695 
L 112.809636 94.889548 
L 115.800268 97.599505 
L 118.7909 100.158459 
L 121.781532 102.576104 
L 124.772164 104.861095 
L 127.762796 107.021181 
L 130.753428 109.06333 
L 133.74406 110.993822 
L 136.734692 112.818339 
L 139.725324 114.542036 
L 142.715956 116.16961 
L 145.706588 117.705344 
L 148.69722 119.153163 
L 151.687852 120.516668 
L 154.678484 121.799172 
L 157.669116 123.00373 
L 160.659748 124.133169 
L 163.65038 125.190104 
L 166.641012 126.176964 
L 169.631644 127.096006 
L 172.622276 127.949332 
L 175.612908 128.738905 
L 178.60354 129.466558 
L 181.594172 130.134003 
L 184.584804 130.74285 
L 187.575435 131.294604 
L 190.566067 131.790682 
L 193.556699 132.232414 
L 196.547331 132.621052 
L 199.537963 132.957779 
L 202.528595 133.243705 
L 205.519227 133.479882 
L 208.509859 133.6673 
L 211.500491 133.806899 
L 214.491123 133.899564 
L 217.481755 133.946133 
L 220.472387 133.947401 
L 223.463019 133.904119 
L 226.453651 133.816999 
L 229.444283 133.686717 
L 232.434915 133.513913 
L 235.425547 133.299191 
L 238.416179 133.043128 
L 241.406811 132.746269 
L 244.397443 132.409129 
L 247.388075 132.032199 
L 250.378707 131.615942 
L 253.369339 131.160799 
L 256.359971 130.667185 
L 259.350603 130.135494 
L 262.341235 129.566099 
L 265.331867 128.959352 
L 268.322498 128.315586 
L 271.31313 127.635113 
L 274.303762 126.91823 
L 277.294394 126.165215 
L 280.285026 125.376328 
L 283.275658 124.551816 
L 286.26629 123.691908 
L 289.256922 122.796818 
L 292.247554 121.866745 
L 295.238186 120.901876 
L 298.228818 119.902383 
L 301.21945 118.868423 
L 304.210082 117.800143 
L 307.200714 116.697676 
L 310.191346 115.561144 
L 313.181978 114.390657 
L 316.17261 113.186311 
L 319.163242 111.948196 
L 322.153874 110.676389 
L 325.144506 109.370955 
L 328.135138 108.031954 
L 331.12577 106.659432 
L 334.116402 105.25343 
L 337.107034 103.813979 
L 340.097666 102.341104 
L 343.088298 100.834821 
L 346.07893 99.295142 
L 349.069561 97.722075 
L 352.060193 96.11562 
L 355.050825 94.475777 
L 358.041457 92.802545 
L 361.032089 91.095921 
L 364.022721 89.355907 
L 367.013353 87.582506 
L 370.003985 85.775731 
L 372.994617 83.935605 
L 375.985249 82.062163 
L 378.975881 80.15546 
L 381.966513 78.215578 
L 384.957145 76.242626 
L 387.947777 74.236756 
" clip-path="url(#pd2140a4ded)" style="fill: none; stroke: #2b737e; stroke-width: 1.5; stroke-linecap: square"/>
   </g>
   <g id="line2d_15">
    <path d="M 82.903317 16.664162 
L 85.893949 16.664905 
L 88.884581 17.0643 
L 91.875213 17.765027 
L 94.865845 18.696293 
L 97.856477 19.805971 
L 100.847109 21.055093 
L 103.837741 22.414055 
L 106.828372 23.860022 
L 109.819004 25.375125 
L 112.809636 26.94519 
L 115.800268 28.558842 
L 118.7909 30.206846 
L 121.781532 31.881629 
L 124.772164 33.576924 
L 127.762796 35.287499 
L 130.753428 37.008951 
L 133.74406 38.73755 
L 136.734692 40.470112 
L 139.725324 42.203902 
L 142.715956 43.936556 
L 145.706588 45.666021 
L 148.69722 47.390504 
L 151.687852 49.108427 
L 154.678484 50.818398 
L 157.669116 52.519183 
L 160.659748 54.209681 
L 163.65038 55.888903 
L 166.641012 57.555961 
L 169.631644 59.210052 
L 172.622276 60.850444 
L 175.612908 62.47647 
L 178.60354 64.087516 
L 181.594172 65.683017 
L 184.584804 67.262447 
L 187.575435 68.82532 
L 190.566067 70.371175 
L 193.556699 71.899584 
L 196.547331 73.410138 
L 199.537963 74.902448 
L 202.528595 76.376145 
L 205.519227 77.830872 
L 208.509859 79.266285 
L 211.500491 80.682051 
L 214.491123 82.077843 
L 217.481755 83.453345 
L 220.472387 84.808241 
L 223.463019 86.142223 
L 226.453651 87.454984 
L 229.444283 88.746218 
L 232.434915 90.015619 
L 235.425547 91.262882 
L 238.416179 92.487698 
L 241.406811 93.689757 
L 244.397443 94.868743 
L 247.388075 96.024339 
L 250.378707 97.156219 
L 253.369339 98.264053 
L 256.359971 99.347504 
L 259.350603 100.406226 
L 262.341235 101.439864 
L 265.331867 102.448056 
L 268.322498 103.430427 
L 271.31313 104.386591 
L 274.303762 105.316152 
L 277.294394 106.218699 
L 280.285026 107.093808 
L 283.275658 107.941039 
L 286.26629 108.759938 
L 289.256922 109.550032 
L 292.247554 110.31083 
L 295.238186 111.041824 
L 298.228818 111.742481 
L 301.21945 112.412251 
L 304.210082 113.050557 
L 307.200714 113.656797 
L 310.191346 114.230345 
L 313.181978 114.770544 
L 316.17261 115.276708 
L 319.163242 115.748118 
L 322.153874 116.184021 
L 325.144506 116.583625 
L 328.135138 116.9461 
L 331.12577 117.270573 
L 334.116402 117.556126 
L 337.107034 117.801789 
L 340.097666 118.006543 
L 343.088298 118.169308 
L 346.07893 118.288946 
L 349.069561 118.36425 
L 352.060193 118.393942 
L 355.050825 118.376665 
L 358.041457 118.310978 
L 361.032089 118.195346 
L 364.022721 118.028135 
L 367.013353 117.807599 
L 370.003985 117.531872 
L 372.994617 117.198955 
L 375.985249 116.806702 
L 378.975881 116.352808 
L 381.966513 115.834785 
L 384.957145 115.249952 
L 387.947777 114.595403 
" clip-path="url(#pd2140a4ded)" style="fill: none; stroke: #5ea04b; stroke-width: 1.5; stroke-linecap: square"/>
   </g>
   <g id="line2d_16">
    <path d="M 82.903317 41.31933 
L 85.893949 41.31933 
L 88.884581 41.31933 
L 91.875213 41.31933 
L 94.865845 41.31933 
L 97.856477 41.31933 
L 100.847109 41.31933 
L 103.837741 41.31933 
L 106.828372 41.31933 
L 109.819004 41.31933 
L 112.809636 41.31933 
L 115.800268 41.31933 
L 118.7909 41.31933 
L 121.781532 41.31933 
L 124.772164 41.31933 
L 127.762796 41.31933 
L 130.753428 41.31933 
L 133.74406 41.31933 
L 136.734692 41.31933 
L 139.725324 41.31933 
L 142.715956 41.31933 
L 145.706588 41.31933 
L 148.69722 41.31933 
L 151.687852 41.31933 
L 154.678484 41.31933 
L 157.669116 41.31933 
L 160.659748 41.31933 
L 163.65038 41.31933 
L 166.641012 41.31933 
L 169.631644 41.31933 
L 172.622276 41.31933 
L 175.612908 41.31933 
L 178.60354 41.31933 
L 181.594172 41.31933 
L 184.584804 41.31933 
L 187.575435 41.31933 
L 190.566067 41.31933 
L 193.556699 41.31933 
L 196.547331 41.31933 
L 199.537963 41.31933 
L 202.528595 41.31933 
L 205.519227 41.31933 
L 208.509859 41.31933 
L 211.500491 41.31933 
L 214.491123 41.31933 
L 217.481755 41.31933 
L 220.472387 41.31933 
L 223.463019 41.31933 
L 226.453651 41.31933 
L 229.444283 41.31933 
L 232.434915 41.31933 
L 235.425547 41.31933 
L 238.416179 41.31933 
L 241.406811 41.31933 
L 244.397443 41.31933 
L 247.388075 41.31933 
L 250.378707 41.31933 
L 253.369339 41.31933 
L 256.359971 41.31933 
L 259.350603 41.31933 
L 262.341235 41.31933 
L 265.331867 41.31933 
L 268.322498 41.31933 
L 271.31313 41.31933 
L 274.303762 41.31933 
L 277.294394 41.31933 
L 280.285026 41.31933 
L 283.275658 41.31933 
L 286.26629 41.31933 
L 289.256922 41.31933 
L 292.247554 41.31933 
L 295.238186 41.31933 
L 298.228818 41.31933 
L 301.21945 41.31933 
L 304.210082 41.31933 
L 307.200714 41.31933 
L 310.191346 41.31933 
L 313.181978 41.31933 
L 316.17261 41.31933 
L 319.163242 41.31933 
L 322.153874 41.31933 
L 325.144506 41.31933 
L 328.135138 41.31933 
L 331.12577 41.31933 
L 334.116402 41.31933 
L 337.107034 41.31933 
L 340.097666 41.31933 
L 343.088298 41.31933 
L 346.07893 41.31933 
L 349.069561 41.31933 
L 352.060193 41.31933 
L 355.050825 41.31933 
L 358.041457 41.31933 
L 361.032089 41.31933 
L 364.022721 41.31933 
L 367.013353 41.31933 
L 370.003985 41.31933 
L 372.994617 41.31933 
L 375.985249 41.31933 
L 378.975881 41.31933 
L 381.966513 41.31933 
L 384.957145 41.31933 
L 387.947777 41.31933 
" clip-path="url(#pd2140a4ded)" style="fill: none; stroke: #bdab62; stroke-width: 1.5; stroke-linecap: square"/>
   </g>
   <g id="patch_3">
    <path d="M 67.651094 139.811563 
L 67.651094 10.8 
" style="fill: none; stroke: #000000; stroke-width: 0.8; stroke-linejoin: miter; stroke-linecap: square"/>
   </g>
   <g id="patch_4">
    <path d="M 403.2 139.811563 
L 403.2 10.8 
" style="fill: none; stroke: #000000; stroke-width: 0.8; stroke-linejoin: miter; stroke-linecap: square"/>
   </g>
   <g id="patch_5">
    <path d="M 67.651094 139.811563 
L 403.2 139.811563 
" style="fill: none; stroke: #000000; stroke-width: 0.8; stroke-linejoin: miter; stroke-linecap: square"/>
   </g>
   <g id="patch_6">
    <path d="M 67.651094 10.8 
L 403.2 10.8 
" style="fill: none; stroke: #000000; stroke-width: 0.8; stroke-linejoin: miter; stroke-linecap: square"/>
   </g>
   <g id="legend_1">
    <g id="patch_7">
     <path d="M 347.85 135.311563 
L 396.9 135.311563 
Q 398.7 135.311563 398.7 133.511563 
L 398.7 93.645781 
Q 398.7 91.845781 396.9 91.845781 
L 347.85 91.845781 
Q 346.05 91.845781 346.05 93.645781 
L 346.05 133.511563 
Q 346.05 135.311563 347.85 135.311563 
z
" style="fill: #ffffff; opacity: 0.8; stroke: #cccccc; stroke-linejoin: miter"/>
    </g>
    <g id="line2d_17">
     <path d="M 349.65 99.134375 
L 358.65 99.134375 
L 367.65 99.134375 
" style="fill: none; stroke: #2b737e; stroke-width: 1.5; stroke-linecap: square"/>
    </g>
    <g id="text_16">
     <!-- $r_{BN,0}$ -->
     <g transform="translate(374.85 102.284375) scale(0.09 -0.09)">
      <defs>
       <path id="DejaVuSans-Oblique-72" d="M 2853 2969 
Q 2766 3016 2653 3041 
Q 2541 3066 2413 3066 
Q 1953 3066 1609 2717 
Q 1266 2369 1153 1784 
L 800 0 
L 225 0 
L 909 3500 
L 1484 3500 
L 1375 2956 
Q 1603 3259 1920 3421 
Q 2238 3584 2597 3584 
Q 2691 3584 2781 3573 
Q 2872 3563 2963 3538 
L 2853 2969 
z
" transform="scale(0.015625)"/>
       <path id="DejaVuSans-Oblique-42" d="M 1081 4666 
L 2694 4666 
Q 3350 4666 3675 4422 
Q 4000 4178 4000 3688 
Q 4000 3238 3720 2911 
Q 3441 2584 2988 2516 
Q 3375 2428 3569 2181 
Q 3763 1934 3763 1522 
Q 3763 819 3242 409 
Q 2722 0 1819 0 
L 172 0 
L 1081 4666 
z
M 1234 2228 
L 903 519 
L 1919 519 
Q 2491 519 2800 781 
Q 3109 1044 3109 1522 
Q 3109 1891 2904 2059 
Q 2700 2228 2247 2228 
L 1234 2228 
z
M 1606 4147 
L 1331 2741 
L 2272 2741 
Q 2775 2741 3058 2959 
Q 3341 3178 3341 3566 
Q 3341 3869 3150 4008 
Q 2959 4147 2541 4147 
L 1606 4147 
z
" transform="scale(0.015625)"/>
       <path id="DejaVuSans-Oblique-4e" d="M 1081 4666 
L 1931 4666 
L 3219 666 
L 4000 4666 
L 4616 4666 
L 3706 0 
L 2853 0 
L 1569 4025 
L 788 0 
L 172 0 
L 1081 4666 
z
" transform="scale(0.015625)"/>
       <path id="DejaVuSans-2c" d="M 750 794 
L 1409 794 
L 1409 256 
L 897 -744 
L 494 -744 
L 750 256 
L 750 794 
z
" transform="scale(0.015625)"/>
      </defs>
      <use xlink:href="#DejaVuSans-Oblique-72"/>
      <use xlink:href="#DejaVuSans-Oblique-42" transform="translate(41.113281 -16.40625) scale(0.7)"/>
      <use xlink:href="#DejaVuSans-Oblique-4e" transform="translate(89.135742 -16.40625) scale(0.7)"/>
      <use xlink:href="#DejaVuSans-2c" transform="translate(141.499023 -16.40625) scale(0.7)"/>
      <use xlink:href="#DejaVuSans-30" transform="translate(177.387695 -16.40625) scale(0.7)"/>
     </g>
    </g>
    <g id="line2d_18">
     <path d="M 349.65 112.722969 
L 358.65 112.722969 
L 367.65 112.722969 
" style="fill: none; stroke: #5ea04b; stroke-width: 1.5; stroke-linecap: square"/>
    </g>
    <g id="text_17">
     <!-- $r_{BN,1}$ -->
     <g transform="translate(374.85 115.872969) scale(0.09 -0.09)">
      <use xlink:href="#DejaVuSans-Oblique-72"/>
      <use xlink:href="#DejaVuSans-Oblique-42" transform="translate(41.113281 -16.40625) scale(0.7)"/>
      <use xlink:href="#DejaVuSans-Oblique-4e" transform="translate(89.135742 -16.40625) scale(0.7)"/>
      <use xlink:href="#DejaVuSans-2c" transform="translate(141.499023 -16.40625) scale(0.7)"/>
      <use xlink:href="#DejaVuSans-31" transform="translate(177.387695 -16.40625) scale(0.7)"/>
     </g>
    </g>
    <g id="line2d_19">
     <path d="M 349.65 126.311563 
L 358.65 126.311563 
L 367.65 126.311563 
" style="fill: none; stroke: #bdab62; stroke-width: 1.5; stroke-linecap: square"/>
    </g>
    <g id="text_18">
     <!-- $r_{BN,2}$ -->
     <g transform="translate(374.85 129.461563) scale(0.09 -0.09)">
      <use xlink:href="#DejaVuSans-Oblique-72"/>
      <use xlink:href="#DejaVuSans-Oblique-42" transform="translate(41.113281 -16.40625) scale(0.7)"/>
      <use xlink:href="#DejaVuSans-Oblique-4e" transform="translate(89.135742 -16.40625) scale(0.7)"/>
      <use xlink:href="#DejaVuSans-2c" transform="translate(141.499023 -16.40625) scale(0.7)"/>
      <use xlink:href="#DejaVuSans-32" transform="translate(177.387695 -16.40625) scale(0.7)"/>
     </g>
    </g>
   </g>
  </g>
 </g>
 <defs>
  <clipPath id="pd2140a4ded">
   <rect x="67.651094" y="10.8" width="335.548906" height="129.011562"/>
  </clipPath>
 </defs>
</svg>
