<?xml version="1.0" encoding="utf-8" standalone="no"?>
<!DOCTYPE svg PUBLIC "-//W3C//DTD SVG 1.1//EN"
  "http://www.w3.org/Graphics/SVG/1.1/DTD/svg11.dtd">
<svg xmlns:xlink="http://www.w3.org/1999/xlink" width="414pt" height="288pt" viewBox="0 0 414 288" xmlns="http://www.w3.org/2000/svg" version="1.1">
 <metadata>
  <rdf:RDF xmlns:dc="http://purl.org/dc/elements/1.1/" xmlns:cc="http://creativecommons.org/ns#" xmlns:rdf="http://www.w3.org/1999/02/22-rdf-syntax-ns#">
   <cc:Work>
    <dc:type rdf:resource="http://purl.org/dc/dcmitype/StillImage"/>
    <dc:date>2025-04-24T17:22:39.999075</dc:date>
    <dc:format>image/svg+xml</dc:format>
    <dc:creator>
     <cc:Agent>
      <dc:title>Matplotlib v3.10.1, https://matplotlib.org/</dc:title>
     </cc:Agent>
    </dc:creator>
   </cc:Work>
  </rdf:RDF>
 </metadata>
 <defs>
  <style type="text/css">*{stroke-linejoin: round; stroke-linecap: butt}</style>
 </defs>
 <g id="figure_1">
  <g id="patch_1">
   <path d="M 0 288 
L 414 288 
L 414 0 
L 0 0 
L 0 288 
z
" style="fill: none"/>
  </g>
  <g id="axes_1">
   <g id="patch_2">
    <path d="M 67.103125 241.036875 
L 403.2 241.036875 
L 403.2 10.8 
L 67.103125 10.8 
L 67.103125 241.036875 
z
" style="fill: none"/>
   </g>
   <g id="matplotlib.axis_1">
    <g id="xtick_1">
     <g id="line2d_1">
      <defs>
       <path id="m9c81fb6c92" d="M 0 0 
L 0 3.5 
" style="stroke: #000000; stroke-width: 0.8"/>
      </defs>
      <g>
       <use xlink:href="#m9c81fb6c92" x="82.36328" y="241.036875" style="stroke: #000000; stroke-width: 0.8"/>
      </g>
     </g>
     <g id="text_1">
      <!-- 0 -->
      <g transform="translate(77.27328 260.194375) scale(0.16 -0.16)">
       <defs>
        <path id="DejaVuSans-30" d="M 2034 4250 
Q 1547 4250 1301 3770 
Q 1056 3291 1056 2328 
Q 1056 1369 1301 889 
Q 1547 409 2034 409 
Q 2525 409 2770 889 
Q 3016 1369 3016 2328 
Q 3016 3291 2770 3770 
Q 2525 4250 2034 4250 
z
M 2034 4750 
Q 2819 4750 3233 4129 
Q 3647 3509 3647 2328 
Q 3647 1150 3233 529 
Q 2819 -91 2034 -91 
Q 1250 -91 836 529 
Q 422 1150 422 2328 
Q 422 3509 836 4129 
Q 1250 4750 2034 4750 
z
" transform="scale(0.015625)"/>
       </defs>
       <use xlink:href="#DejaVuSans-30"/>
      </g>
     </g>
    </g>
    <g id="xtick_2">
     <g id="line2d_2">
      <g>
       <use xlink:href="#m9c81fb6c92" x="133.289878" y="241.036875" style="stroke: #000000; stroke-width: 0.8"/>
      </g>
     </g>
     <g id="text_2">
      <!-- 5 -->
      <g transform="translate(128.199878 260.194375) scale(0.16 -0.16)">
       <defs>
        <path id="DejaVuSans-35" d="M 691 4666 
L 3169 4666 
L 3169 4134 
L 1269 4134 
L 1269 2991 
Q 1406 3038 1543 3061 
Q 1681 3084 1819 3084 
Q 2600 3084 3056 2656 
Q 3513 2228 3513 1497 
Q 3513 744 3044 326 
Q 2575 -91 1722 -91 
Q 1428 -91 1123 -41 
Q 819 9 494 109 
L 494 744 
Q 775 591 1075 516 
Q 1375 441 1709 441 
Q 2250 441 2565 725 
Q 2881 1009 2881 1497 
Q 2881 1984 2565 2268 
Q 2250 2553 1709 2553 
Q 1456 2553 1204 2497 
Q 953 2441 691 2322 
L 691 4666 
z
" transform="scale(0.015625)"/>
       </defs>
       <use xlink:href="#DejaVuSans-35"/>
      </g>
     </g>
    </g>
    <g id="xtick_3">
     <g id="line2d_3">
      <g>
       <use xlink:href="#m9c81fb6c92" x="184.216477" y="241.036875" style="stroke: #000000; stroke-width: 0.8"/>
      </g>
     </g>
     <g id="text_3">
      <!-- 10 -->
      <g transform="translate(174.036477 260.194375) scale(0.16 -0.16)">
       <defs>
        <path id="DejaVuSans-31" d="M 794 531 
L 1825 531 
L 1825 4091 
L 703 3866 
L 703 4441 
L 1819 4666 
L 2450 4666 
L 2450 531 
L 3481 531 
L 3481 0 
L 794 0 
L 794 531 
z
" transform="scale(0.015625)"/>
       </defs>
       <use xlink:href="#DejaVuSans-31"/>
       <use xlink:href="#DejaVuSans-30" transform="translate(63.623047 0)"/>
      </g>
     </g>
    </g>
    <g id="xtick_4">
     <g id="line2d_4">
      <g>
       <use xlink:href="#m9c81fb6c92" x="235.143075" y="241.036875" style="stroke: #000000; stroke-width: 0.8"/>
      </g>
     </g>
     <g id="text_4">
      <!-- 15 -->
      <g transform="translate(224.963075 260.194375) scale(0.16 -0.16)">
       <use xlink:href="#DejaVuSans-31"/>
       <use xlink:href="#DejaVuSans-35" transform="translate(63.623047 0)"/>
      </g>
     </g>
    </g>
    <g id="xtick_5">
     <g id="line2d_5">
      <g>
       <use xlink:href="#m9c81fb6c92" x="286.069673" y="241.036875" style="stroke: #000000; stroke-width: 0.8"/>
      </g>
     </g>
     <g id="text_5">
      <!-- 20 -->
      <g transform="translate(275.889673 260.194375) scale(0.16 -0.16)">
       <defs>
        <path id="DejaVuSans-32" d="M 1228 531 
L 3431 531 
L 3431 0 
L 469 0 
L 469 531 
Q 828 903 1448 1529 
Q 2069 2156 2228 2338 
Q 2531 2678 2651 2914 
Q 2772 3150 2772 3378 
Q 2772 3750 2511 3984 
Q 2250 4219 1831 4219 
Q 1534 4219 1204 4116 
Q 875 4013 500 3803 
L 500 4441 
Q 881 4594 1212 4672 
Q 1544 4750 1819 4750 
Q 2544 4750 2975 4387 
Q 3406 4025 3406 3419 
Q 3406 3131 3298 2873 
Q 3191 2616 2906 2266 
Q 2828 2175 2409 1742 
Q 1991 1309 1228 531 
z
" transform="scale(0.015625)"/>
       </defs>
       <use xlink:href="#DejaVuSans-32"/>
       <use xlink:href="#DejaVuSans-30" transform="translate(63.623047 0)"/>
      </g>
     </g>
    </g>
    <g id="xtick_6">
     <g id="line2d_6">
      <g>
       <use xlink:href="#m9c81fb6c92" x="336.996271" y="241.036875" style="stroke: #000000; stroke-width: 0.8"/>
      </g>
     </g>
     <g id="text_6">
      <!-- 25 -->
      <g transform="translate(326.816271 260.194375) scale(0.16 -0.16)">
       <use xlink:href="#DejaVuSans-32"/>
       <use xlink:href="#DejaVuSans-35" transform="translate(63.623047 0)"/>
      </g>
     </g>
    </g>
    <g id="xtick_7">
     <g id="line2d_7">
      <g>
       <use xlink:href="#m9c81fb6c92" x="387.922869" y="241.036875" style="stroke: #000000; stroke-width: 0.8"/>
      </g>
     </g>
     <g id="text_7">
      <!-- 30 -->
      <g transform="translate(377.742869 260.194375) scale(0.16 -0.16)">
       <defs>
        <path id="DejaVuSans-33" d="M 2597 2516 
Q 3050 2419 3304 2112 
Q 3559 1806 3559 1356 
Q 3559 666 3084 287 
Q 2609 -91 1734 -91 
Q 1441 -91 1130 -33 
Q 819 25 488 141 
L 488 750 
Q 750 597 1062 519 
Q 1375 441 1716 441 
Q 2309 441 2620 675 
Q 2931 909 2931 1356 
Q 2931 1769 2642 2001 
Q 2353 2234 1838 2234 
L 1294 2234 
L 1294 2753 
L 1863 2753 
Q 2328 2753 2575 2939 
Q 2822 3125 2822 3475 
Q 2822 3834 2567 4026 
Q 2313 4219 1838 4219 
Q 1578 4219 1281 4162 
Q 984 4106 628 3988 
L 628 4550 
Q 988 4650 1302 4700 
Q 1616 4750 1894 4750 
Q 2613 4750 3031 4423 
Q 3450 4097 3450 3541 
Q 3450 3153 3228 2886 
Q 3006 2619 2597 2516 
z
" transform="scale(0.015625)"/>
       </defs>
       <use xlink:href="#DejaVuSans-33"/>
       <use xlink:href="#DejaVuSans-30" transform="translate(63.623047 0)"/>
      </g>
     </g>
    </g>
    <g id="text_8">
     <!-- Time [min] -->
     <g transform="translate(207.999219 275.120313) scale(0.1 -0.1)">
      <defs>
       <path id="DejaVuSans-54" d="M -19 4666 
L 3928 4666 
L 3928 4134 
L 2272 4134 
L 2272 0 
L 1638 0 
L 1638 4134 
L -19 4134 
L -19 4666 
z
" transform="scale(0.015625)"/>
       <path id="DejaVuSans-69" d="M 603 3500 
L 1178 3500 
L 1178 0 
L 603 0 
L 603 3500 
z
M 603 4863 
L 1178 4863 
L 1178 4134 
L 603 4134 
L 603 4863 
z
" transform="scale(0.015625)"/>
       <path id="DejaVuSans-6d" d="M 3328 2828 
Q 3544 3216 3844 3400 
Q 4144 3584 4550 3584 
Q 5097 3584 5394 3201 
Q 5691 2819 5691 2113 
L 5691 0 
L 5113 0 
L 5113 2094 
Q 5113 2597 4934 2840 
Q 4756 3084 4391 3084 
Q 3944 3084 3684 2787 
Q 3425 2491 3425 1978 
L 3425 0 
L 2847 0 
L 2847 2094 
Q 2847 2600 2669 2842 
Q 2491 3084 2119 3084 
Q 1678 3084 1418 2786 
Q 1159 2488 1159 1978 
L 1159 0 
L 581 0 
L 581 3500 
L 1159 3500 
L 1159 2956 
Q 1356 3278 1631 3431 
Q 1906 3584 2284 3584 
Q 2666 3584 2933 3390 
Q 3200 3197 3328 2828 
z
" transform="scale(0.015625)"/>
       <path id="DejaVuSans-65" d="M 3597 1894 
L 3597 1613 
L 953 1613 
Q 991 1019 1311 708 
Q 1631 397 2203 397 
Q 2534 397 2845 478 
Q 3156 559 3463 722 
L 3463 178 
Q 3153 47 2828 -22 
Q 2503 -91 2169 -91 
Q 1331 -91 842 396 
Q 353 884 353 1716 
Q 353 2575 817 3079 
Q 1281 3584 2069 3584 
Q 2775 3584 3186 3129 
Q 3597 2675 3597 1894 
z
M 3022 2063 
Q 3016 2534 2758 2815 
Q 2500 3097 2075 3097 
Q 1594 3097 1305 2825 
Q 1016 2553 972 2059 
L 3022 2063 
z
" transform="scale(0.015625)"/>
       <path id="DejaVuSans-20" transform="scale(0.015625)"/>
       <path id="DejaVuSans-5b" d="M 550 4863 
L 1875 4863 
L 1875 4416 
L 1125 4416 
L 1125 -397 
L 1875 -397 
L 1875 -844 
L 550 -844 
L 550 4863 
z
" transform="scale(0.015625)"/>
       <path id="DejaVuSans-6e" d="M 3513 2113 
L 3513 0 
L 2938 0 
L 2938 2094 
Q 2938 2591 2744 2837 
Q 2550 3084 2163 3084 
Q 1697 3084 1428 2787 
Q 1159 2491 1159 1978 
L 1159 0 
L 581 0 
L 581 3500 
L 1159 3500 
L 1159 2956 
Q 1366 3272 1645 3428 
Q 1925 3584 2291 3584 
Q 2894 3584 3203 3211 
Q 3513 2838 3513 2113 
z
" transform="scale(0.015625)"/>
       <path id="DejaVuSans-5d" d="M 1947 4863 
L 1947 -844 
L 622 -844 
L 622 -397 
L 1369 -397 
L 1369 4416 
L 622 4416 
L 622 4863 
L 1947 4863 
z
" transform="scale(0.015625)"/>
      </defs>
      <use xlink:href="#DejaVuSans-54"/>
      <use xlink:href="#DejaVuSans-69" transform="translate(57.958984 0)"/>
      <use xlink:href="#DejaVuSans-6d" transform="translate(85.742188 0)"/>
      <use xlink:href="#DejaVuSans-65" transform="translate(183.154297 0)"/>
      <use xlink:href="#DejaVuSans-20" transform="translate(244.677734 0)"/>
      <use xlink:href="#DejaVuSans-5b" transform="translate(276.464844 0)"/>
      <use xlink:href="#DejaVuSans-6d" transform="translate(315.478516 0)"/>
      <use xlink:href="#DejaVuSans-69" transform="translate(412.890625 0)"/>
      <use xlink:href="#DejaVuSans-6e" transform="translate(440.673828 0)"/>
      <use xlink:href="#DejaVuSans-5d" transform="translate(504.052734 0)"/>
     </g>
    </g>
   </g>
   <g id="matplotlib.axis_2">
    <g id="ytick_1">
     <g id="line2d_8">
      <defs>
       <path id="m67562aabde" d="M 0 0 
L -3.5 0 
" style="stroke: #000000; stroke-width: 0.8"/>
      </defs>
      <g>
       <use xlink:href="#m67562aabde" x="67.103125" y="185.316918" style="stroke: #000000; stroke-width: 0.8"/>
      </g>
     </g>
     <g id="text_9">
      <!-- 0.00 -->
      <g transform="translate(24.478125 191.395668) scale(0.16 -0.16)">
       <defs>
        <path id="DejaVuSans-2e" d="M 684 794 
L 1344 794 
L 1344 0 
L 684 0 
L 684 794 
z
" transform="scale(0.015625)"/>
       </defs>
       <use xlink:href="#DejaVuSans-30"/>
       <use xlink:href="#DejaVuSans-2e" transform="translate(63.623047 0)"/>
       <use xlink:href="#DejaVuSans-30" transform="translate(95.410156 0)"/>
       <use xlink:href="#DejaVuSans-30" transform="translate(159.033203 0)"/>
      </g>
     </g>
    </g>
    <g id="ytick_2">
     <g id="line2d_9">
      <g>
       <use xlink:href="#m67562aabde" x="67.103125" y="119.612962" style="stroke: #000000; stroke-width: 0.8"/>
      </g>
     </g>
     <g id="text_10">
      <!-- 0.02 -->
      <g transform="translate(24.478125 125.691712) scale(0.16 -0.16)">
       <use xlink:href="#DejaVuSans-30"/>
       <use xlink:href="#DejaVuSans-2e" transform="translate(63.623047 0)"/>
       <use xlink:href="#DejaVuSans-30" transform="translate(95.410156 0)"/>
       <use xlink:href="#DejaVuSans-32" transform="translate(159.033203 0)"/>
      </g>
     </g>
    </g>
    <g id="ytick_3">
     <g id="line2d_10">
      <g>
       <use xlink:href="#m67562aabde" x="67.103125" y="53.909005" style="stroke: #000000; stroke-width: 0.8"/>
      </g>
     </g>
     <g id="text_11">
      <!-- 0.04 -->
      <g transform="translate(24.478125 59.987755) scale(0.16 -0.16)">
       <defs>
        <path id="DejaVuSans-34" d="M 2419 4116 
L 825 1625 
L 2419 1625 
L 2419 4116 
z
M 2253 4666 
L 3047 4666 
L 3047 1625 
L 3713 1625 
L 3713 1100 
L 3047 1100 
L 3047 0 
L 2419 0 
L 2419 1100 
L 313 1100 
L 313 1709 
L 2253 4666 
z
" transform="scale(0.015625)"/>
       </defs>
       <use xlink:href="#DejaVuSans-30"/>
       <use xlink:href="#DejaVuSans-2e" transform="translate(63.623047 0)"/>
       <use xlink:href="#DejaVuSans-30" transform="translate(95.410156 0)"/>
       <use xlink:href="#DejaVuSans-34" transform="translate(159.033203 0)"/>
      </g>
     </g>
    </g>
    <g id="text_12">
     <!-- Rate Tracking Error [rad/s]  -->
     <g transform="translate(18.398438 193.219219) rotate(-90) scale(0.1 -0.1)">
      <defs>
       <path id="DejaVuSans-52" d="M 2841 2188 
Q 3044 2119 3236 1894 
Q 3428 1669 3622 1275 
L 4263 0 
L 3584 0 
L 2988 1197 
Q 2756 1666 2539 1819 
Q 2322 1972 1947 1972 
L 1259 1972 
L 1259 0 
L 628 0 
L 628 4666 
L 2053 4666 
Q 2853 4666 3247 4331 
Q 3641 3997 3641 3322 
Q 3641 2881 3436 2590 
Q 3231 2300 2841 2188 
z
M 1259 4147 
L 1259 2491 
L 2053 2491 
Q 2509 2491 2742 2702 
Q 2975 2913 2975 3322 
Q 2975 3731 2742 3939 
Q 2509 4147 2053 4147 
L 1259 4147 
z
" transform="scale(0.015625)"/>
       <path id="DejaVuSans-61" d="M 2194 1759 
Q 1497 1759 1228 1600 
Q 959 1441 959 1056 
Q 959 750 1161 570 
Q 1363 391 1709 391 
Q 2188 391 2477 730 
Q 2766 1069 2766 1631 
L 2766 1759 
L 2194 1759 
z
M 3341 1997 
L 3341 0 
L 2766 0 
L 2766 531 
Q 2569 213 2275 61 
Q 1981 -91 1556 -91 
Q 1019 -91 701 211 
Q 384 513 384 1019 
Q 384 1609 779 1909 
Q 1175 2209 1959 2209 
L 2766 2209 
L 2766 2266 
Q 2766 2663 2505 2880 
Q 2244 3097 1772 3097 
Q 1472 3097 1187 3025 
Q 903 2953 641 2809 
L 641 3341 
Q 956 3463 1253 3523 
Q 1550 3584 1831 3584 
Q 2591 3584 2966 3190 
Q 3341 2797 3341 1997 
z
" transform="scale(0.015625)"/>
       <path id="DejaVuSans-74" d="M 1172 4494 
L 1172 3500 
L 2356 3500 
L 2356 3053 
L 1172 3053 
L 1172 1153 
Q 1172 725 1289 603 
Q 1406 481 1766 481 
L 2356 481 
L 2356 0 
L 1766 0 
Q 1100 0 847 248 
Q 594 497 594 1153 
L 594 3053 
L 172 3053 
L 172 3500 
L 594 3500 
L 594 4494 
L 1172 4494 
z
" transform="scale(0.015625)"/>
       <path id="DejaVuSans-72" d="M 2631 2963 
Q 2534 3019 2420 3045 
Q 2306 3072 2169 3072 
Q 1681 3072 1420 2755 
Q 1159 2438 1159 1844 
L 1159 0 
L 581 0 
L 581 3500 
L 1159 3500 
L 1159 2956 
Q 1341 3275 1631 3429 
Q 1922 3584 2338 3584 
Q 2397 3584 2469 3576 
Q 2541 3569 2628 3553 
L 2631 2963 
z
" transform="scale(0.015625)"/>
       <path id="DejaVuSans-63" d="M 3122 3366 
L 3122 2828 
Q 2878 2963 2633 3030 
Q 2388 3097 2138 3097 
Q 1578 3097 1268 2742 
Q 959 2388 959 1747 
Q 959 1106 1268 751 
Q 1578 397 2138 397 
Q 2388 397 2633 464 
Q 2878 531 3122 666 
L 3122 134 
Q 2881 22 2623 -34 
Q 2366 -91 2075 -91 
Q 1284 -91 818 406 
Q 353 903 353 1747 
Q 353 2603 823 3093 
Q 1294 3584 2113 3584 
Q 2378 3584 2631 3529 
Q 2884 3475 3122 3366 
z
" transform="scale(0.015625)"/>
       <path id="DejaVuSans-6b" d="M 581 4863 
L 1159 4863 
L 1159 1991 
L 2875 3500 
L 3609 3500 
L 1753 1863 
L 3688 0 
L 2938 0 
L 1159 1709 
L 1159 0 
L 581 0 
L 581 4863 
z
" transform="scale(0.015625)"/>
       <path id="DejaVuSans-67" d="M 2906 1791 
Q 2906 2416 2648 2759 
Q 2391 3103 1925 3103 
Q 1463 3103 1205 2759 
Q 947 2416 947 1791 
Q 947 1169 1205 825 
Q 1463 481 1925 481 
Q 2391 481 2648 825 
Q 2906 1169 2906 1791 
z
M 3481 434 
Q 3481 -459 3084 -895 
Q 2688 -1331 1869 -1331 
Q 1566 -1331 1297 -1286 
Q 1028 -1241 775 -1147 
L 775 -588 
Q 1028 -725 1275 -790 
Q 1522 -856 1778 -856 
Q 2344 -856 2625 -561 
Q 2906 -266 2906 331 
L 2906 616 
Q 2728 306 2450 153 
Q 2172 0 1784 0 
Q 1141 0 747 490 
Q 353 981 353 1791 
Q 353 2603 747 3093 
Q 1141 3584 1784 3584 
Q 2172 3584 2450 3431 
Q 2728 3278 2906 2969 
L 2906 3500 
L 3481 3500 
L 3481 434 
z
" transform="scale(0.015625)"/>
       <path id="DejaVuSans-45" d="M 628 4666 
L 3578 4666 
L 3578 4134 
L 1259 4134 
L 1259 2753 
L 3481 2753 
L 3481 2222 
L 1259 2222 
L 1259 531 
L 3634 531 
L 3634 0 
L 628 0 
L 628 4666 
z
" transform="scale(0.015625)"/>
       <path id="DejaVuSans-6f" d="M 1959 3097 
Q 1497 3097 1228 2736 
Q 959 2375 959 1747 
Q 959 1119 1226 758 
Q 1494 397 1959 397 
Q 2419 397 2687 759 
Q 2956 1122 2956 1747 
Q 2956 2369 2687 2733 
Q 2419 3097 1959 3097 
z
M 1959 3584 
Q 2709 3584 3137 3096 
Q 3566 2609 3566 1747 
Q 3566 888 3137 398 
Q 2709 -91 1959 -91 
Q 1206 -91 779 398 
Q 353 888 353 1747 
Q 353 2609 779 3096 
Q 1206 3584 1959 3584 
z
" transform="scale(0.015625)"/>
       <path id="DejaVuSans-64" d="M 2906 2969 
L 2906 4863 
L 3481 4863 
L 3481 0 
L 2906 0 
L 2906 525 
Q 2725 213 2448 61 
Q 2172 -91 1784 -91 
Q 1150 -91 751 415 
Q 353 922 353 1747 
Q 353 2572 751 3078 
Q 1150 3584 1784 3584 
Q 2172 3584 2448 3432 
Q 2725 3281 2906 2969 
z
M 947 1747 
Q 947 1113 1208 752 
Q 1469 391 1925 391 
Q 2381 391 2643 752 
Q 2906 1113 2906 1747 
Q 2906 2381 2643 2742 
Q 2381 3103 1925 3103 
Q 1469 3103 1208 2742 
Q 947 2381 947 1747 
z
" transform="scale(0.015625)"/>
       <path id="DejaVuSans-2f" d="M 1625 4666 
L 2156 4666 
L 531 -594 
L 0 -594 
L 1625 4666 
z
" transform="scale(0.015625)"/>
       <path id="DejaVuSans-73" d="M 2834 3397 
L 2834 2853 
Q 2591 2978 2328 3040 
Q 2066 3103 1784 3103 
Q 1356 3103 1142 2972 
Q 928 2841 928 2578 
Q 928 2378 1081 2264 
Q 1234 2150 1697 2047 
L 1894 2003 
Q 2506 1872 2764 1633 
Q 3022 1394 3022 966 
Q 3022 478 2636 193 
Q 2250 -91 1575 -91 
Q 1294 -91 989 -36 
Q 684 19 347 128 
L 347 722 
Q 666 556 975 473 
Q 1284 391 1588 391 
Q 1994 391 2212 530 
Q 2431 669 2431 922 
Q 2431 1156 2273 1281 
Q 2116 1406 1581 1522 
L 1381 1569 
Q 847 1681 609 1914 
Q 372 2147 372 2553 
Q 372 3047 722 3315 
Q 1072 3584 1716 3584 
Q 2034 3584 2315 3537 
Q 2597 3491 2834 3397 
z
" transform="scale(0.015625)"/>
      </defs>
      <use xlink:href="#DejaVuSans-52"/>
      <use xlink:href="#DejaVuSans-61" transform="translate(67.232422 0)"/>
      <use xlink:href="#DejaVuSans-74" transform="translate(128.511719 0)"/>
      <use xlink:href="#DejaVuSans-65" transform="translate(167.720703 0)"/>
      <use xlink:href="#DejaVuSans-20" transform="translate(229.244141 0)"/>
      <use xlink:href="#DejaVuSans-54" transform="translate(261.03125 0)"/>
      <use xlink:href="#DejaVuSans-72" transform="translate(307.365234 0)"/>
      <use xlink:href="#DejaVuSans-61" transform="translate(348.478516 0)"/>
      <use xlink:href="#DejaVuSans-63" transform="translate(409.757812 0)"/>
      <use xlink:href="#DejaVuSans-6b" transform="translate(464.738281 0)"/>
      <use xlink:href="#DejaVuSans-69" transform="translate(522.648438 0)"/>
      <use xlink:href="#DejaVuSans-6e" transform="translate(550.431641 0)"/>
      <use xlink:href="#DejaVuSans-67" transform="translate(613.810547 0)"/>
      <use xlink:href="#DejaVuSans-20" transform="translate(677.287109 0)"/>
      <use xlink:href="#DejaVuSans-45" transform="translate(709.074219 0)"/>
      <use xlink:href="#DejaVuSans-72" transform="translate(772.257812 0)"/>
      <use xlink:href="#DejaVuSans-72" transform="translate(811.621094 0)"/>
      <use xlink:href="#DejaVuSans-6f" transform="translate(850.484375 0)"/>
      <use xlink:href="#DejaVuSans-72" transform="translate(911.666016 0)"/>
      <use xlink:href="#DejaVuSans-20" transform="translate(952.779297 0)"/>
      <use xlink:href="#DejaVuSans-5b" transform="translate(984.566406 0)"/>
      <use xlink:href="#DejaVuSans-72" transform="translate(1023.580078 0)"/>
      <use xlink:href="#DejaVuSans-61" transform="translate(1064.693359 0)"/>
      <use xlink:href="#DejaVuSans-64" transform="translate(1125.972656 0)"/>
      <use xlink:href="#DejaVuSans-2f" transform="translate(1189.449219 0)"/>
      <use xlink:href="#DejaVuSans-73" transform="translate(1223.140625 0)"/>
      <use xlink:href="#DejaVuSans-5d" transform="translate(1275.240234 0)"/>
      <use xlink:href="#DejaVuSans-20" transform="translate(1314.253906 0)"/>
     </g>
    </g>
   </g>
   <g id="line2d_11">
    <path d="M 82.380256 181.471691 
L 83.059277 182.266615 
L 83.789225 183.044341 
L 84.434295 184.125985 
L 85.181219 185.846478 
L 85.979069 188.265841 
L 86.980625 191.262982 
L 87.744524 192.667083 
L 88.74608 194.119921 
L 89.153493 194.35 
L 89.493004 194.29014 
L 89.832515 193.987855 
L 90.239927 193.291254 
L 91.275435 191.288876 
L 92.192114 190.123814 
L 93.889667 188.05802 
L 94.585664 186.594814 
L 95.519318 184.061286 
L 97.369651 178.875865 
L 98.490036 176.457523 
L 99.661348 174.475391 
L 100.628953 173.243641 
L 101.545632 172.423847 
L 102.42836 171.92348 
L 103.294112 171.682919 
L 104.17684 171.670657 
L 105.093518 171.886469 
L 106.078099 172.356017 
L 107.164533 173.132582 
L 108.403747 174.305842 
L 109.931545 176.0793 
L 110.882175 177.438493 
L 111.66305 179.071742 
L 113.937771 184.163145 
L 114.803523 185.364777 
L 115.6523 186.17882 
L 116.568979 186.753719 
L 117.723315 187.201269 
L 122.391586 188.753222 
L 127.110784 190.742777 
L 128.621607 191.061161 
L 130.030576 191.133982 
L 131.456521 190.984807 
L 133.001294 190.593236 
L 134.783725 189.90238 
L 137.228202 188.692852 
L 143.84866 185.313728 
L 145.93665 184.627911 
L 148.075567 184.16151 
L 150.367264 183.893016 
L 152.981496 183.816233 
L 156.240799 183.95382 
L 161.367409 184.423481 
L 170.092833 185.209343 
L 175.779637 185.474803 
L 182.281266 185.543976 
L 184.403207 185.43289 
L 185.947981 184.673229 
L 187.407877 184.203532 
L 188.918699 183.953189 
L 190.650203 183.899234 
L 192.958876 184.068484 
L 202.193566 184.95731 
L 208.37266 185.014145 
L 225.602825 185.436043 
L 243.274355 185.311553 
L 247.687993 185.152163 
L 253.867087 185.188217 
L 270.282427 185.314826 
L 280.841209 185.235091 
L 284.049585 185.037419 
L 287.987908 185.03555 
L 307.849281 185.319407 
L 316.387974 185.439563 
L 316.608656 185.49189 
L 317.066996 185.588615 
L 319.154986 186.010484 
L 326.539343 186.875676 
L 326.777 186.88395 
L 327.405095 186.905821 
L 328.202945 186.932964 
L 329.238453 186.952468 
L 329.442159 186.953196 
L 331.156688 186.930485 
L 338.914506 186.531565 
L 339.423772 186.48382 
L 339.695381 186.463981 
L 340.187671 186.418592 
L 340.476255 186.40114 
L 340.968546 186.347099 
L 341.25713 186.326908 
L 341.732445 186.274699 
L 342.021029 186.252479 
L 342.479368 186.203489 
L 342.767952 186.179916 
L 343.209316 186.135284 
L 343.4979 186.110977 
L 343.95624 186.05958 
L 344.244824 186.035089 
L 344.703163 185.983821 
L 344.991747 185.95965 
L 345.450086 185.909361 
L 345.73867 185.886021 
L 346.213985 185.831636 
L 346.502569 185.809841 
L 346.99486 185.752448 
L 347.283444 185.732608 
L 347.79271 185.673367 
L 348.064318 185.650474 
L 348.556609 185.601572 
L 350.271138 185.4432 
L 350.848306 185.386862 
L 351.102939 185.370523 
L 351.680107 185.311984 
L 351.93474 185.299774 
L 352.562835 185.238007 
L 352.800492 185.223435 
L 353.445562 185.169321 
L 353.68322 185.159426 
L 354.430143 185.096567 
L 354.650825 185.084311 
L 355.465651 185.02575 
L 355.703308 185.015833 
L 356.687889 184.951032 
L 356.908571 184.939579 
L 358.045932 184.879258 
L 358.266614 184.875177 
L 359.777436 184.804836 
L 359.981142 184.800197 
L 362.357717 184.734106 
L 368.536811 184.731068 
L 369.860902 184.757557 
L 370.081584 184.760943 
L 371.218945 184.78866 
L 371.456603 184.786564 
L 372.543037 184.825711 
L 372.780694 184.826567 
L 373.782251 184.864438 
L 374.019908 184.867416 
L 374.970538 184.90489 
L 375.208195 184.909373 
L 376.14185 184.949288 
L 376.379507 184.954704 
L 377.27921 184.991455 
L 377.516868 184.997335 
L 378.433547 185.037484 
L 378.654228 185.04122 
L 379.503005 185.080928 
L 379.740663 185.086443 
L 380.606415 185.126878 
L 380.844072 185.131637 
L 381.7268 185.17134 
L 381.964457 185.174999 
L 382.932063 185.219728 
L 383.16972 185.22178 
L 384.171277 185.267299 
L 384.408934 185.267428 
L 385.529319 185.314229 
L 386.649704 185.355894 
L 386.870386 185.360404 
L 387.922869 185.393055 
L 387.922869 185.393055 
" clip-path="url(#p6f5246535f)" style="fill: none; stroke: #2b737e; stroke-width: 1.5; stroke-linecap: square"/>
   </g>
   <g id="line2d_12">
    <path d="M 82.380256 218.474863 
L 83.534592 218.736025 
L 85.113316 218.922162 
L 85.996044 218.782784 
L 86.403457 218.523712 
L 86.709017 217.970887 
L 87.099454 216.754796 
L 87.557793 214.533907 
L 88.10101 210.66802 
L 89.05164 201.832554 
L 91.513092 179.977403 
L 92.752306 170.740221 
L 93.736887 165.009887 
L 94.993077 158.910393 
L 96.011608 154.987891 
L 96.656679 153.293789 
L 97.199896 152.415486 
L 97.658235 152.050248 
L 98.048672 152.000281 
L 98.43911 152.181378 
L 98.880473 152.652597 
L 99.491593 153.681158 
L 100.136663 155.253805 
L 100.917537 157.788127 
L 101.868167 161.691223 
L 103.022503 167.43241 
L 104.499375 175.986676 
L 106.604341 189.622644 
L 111.646074 222.748856 
L 112.596704 227.102948 
L 113.241774 229.077656 
L 113.784991 230.087007 
L 114.226355 230.494028 
L 114.599817 230.567053 
L 114.973279 230.406908 
L 115.397667 229.961664 
L 115.923908 229.055076 
L 116.585954 227.425112 
L 117.417755 224.740271 
L 118.53814 220.305615 
L 120.405449 211.850162 
L 123.019681 200.220651 
L 124.530503 194.507401 
L 125.837619 190.393398 
L 127.025907 187.354654 
L 128.129316 185.11309 
L 129.181799 183.45762 
L 130.200331 182.258611 
L 131.201888 181.417879 
L 132.203444 180.863437 
L 133.255927 180.536495 
L 134.393288 180.417922 
L 135.71738 180.509556 
L 137.397957 180.862266 
L 143.169638 182.504466 
L 148.245323 183.832024 
L 152.251548 184.647036 
L 156.138945 185.210422 
L 160.179122 185.567661 
L 164.711589 185.737883 
L 170.466295 185.71694 
L 184.233452 185.359536 
L 185.947981 184.331939 
L 187.458803 183.679445 
L 188.901724 183.294781 
L 190.378595 183.131386 
L 191.991271 183.181523 
L 193.926481 183.475385 
L 196.965102 184.197102 
L 201.158058 185.150085 
L 203.110244 185.393518 
L 206.861837 185.544197 
L 213.00698 185.531874 
L 254.308451 185.170764 
L 266.598737 185.366568 
L 280.247065 185.277361 
L 287.920006 184.930077 
L 293.827491 185.157027 
L 301.347652 185.376589 
L 310.293758 185.370458 
L 316.320072 185.435719 
L 316.523779 185.488926 
L 316.89724 185.573266 
L 317.100947 185.626527 
L 319.239864 186.120551 
L 321.276928 186.538727 
L 321.548536 186.596567 
L 321.769218 186.626645 
L 322.040827 186.679741 
L 322.533117 186.761023 
L 322.821701 186.811022 
L 323.161212 186.858915 
L 323.483747 186.912354 
L 323.806282 186.945902 
L 324.145793 186.996076 
L 324.434377 187.026651 
L 324.807839 187.072787 
L 325.079447 187.093165 
L 325.469884 187.137648 
L 325.707542 187.156768 
L 326.13193 187.190816 
L 326.352612 187.204689 
L 326.861878 187.236887 
L 327.065584 187.24642 
L 327.642753 187.261462 
L 328.3727 187.278838 
L 329.340306 187.285565 
L 330.800202 187.245995 
L 335.010134 186.927295 
L 335.67218 186.851964 
L 335.892861 186.837714 
L 336.503981 186.757929 
L 336.724663 186.735542 
L 337.26788 186.663616 
L 337.505537 186.642945 
L 338.014803 186.572089 
L 338.252461 186.547058 
L 338.744751 186.474193 
L 338.999384 186.451518 
L 339.474699 186.378399 
L 339.729332 186.352634 
L 340.187671 186.285022 
L 340.442304 186.256876 
L 340.883668 186.188769 
L 341.155277 186.164486 
L 341.59664 186.093906 
L 341.868249 186.068397 
L 342.292637 186.003535 
L 342.54727 185.972 
L 342.954683 185.913861 
L 343.226292 185.887807 
L 343.65068 185.822959 
L 343.905313 185.791912 
L 344.312726 185.735386 
L 344.584334 185.710874 
L 345.008723 185.649176 
L 345.263356 185.620493 
L 345.670768 185.56828 
L 345.925401 185.541348 
L 346.34979 185.485676 
L 346.604423 185.460979 
L 347.028811 185.409271 
L 347.283444 185.387112 
L 347.741783 185.327224 
L 347.996416 185.30816 
L 348.471731 185.247983 
L 348.709389 185.231509 
L 349.184704 185.177905 
L 349.422361 185.159146 
L 349.914652 185.107243 
L 350.152309 185.092398 
L 350.661575 185.043371 
L 351.153865 185.005632 
L 351.680107 184.951543 
L 351.900789 184.939052 
L 352.42703 184.895016 
L 352.647712 184.886882 
L 353.22488 184.840614 
L 353.428587 184.828718 
L 354.039706 184.787312 
L 354.243412 184.779993 
L 354.922434 184.738953 
L 355.143116 184.733495 
L 355.940966 184.689444 
L 356.161648 184.690416 
L 357.044375 184.645292 
L 357.248082 184.642903 
L 358.368467 184.606836 
L 358.572173 184.612188 
L 360.06602 184.577668 
L 360.252751 184.580764 
L 362.61235 184.578879 
L 370.081584 184.790362 
L 371.117092 184.83634 
L 371.337774 184.834505 
L 372.33933 184.890327 
L 372.560012 184.890859 
L 373.493666 184.943602 
L 373.714348 184.945852 
L 374.614052 184.998202 
L 374.834734 185.001588 
L 375.68351 185.048222 
L 375.904192 185.052193 
L 376.668091 185.096478 
L 376.888773 185.100688 
L 377.635696 185.141836 
L 377.856378 185.145524 
L 378.620277 185.189611 
L 378.840959 185.193175 
L 379.604858 185.234378 
L 379.82554 185.237189 
L 380.606415 185.278241 
L 380.827097 185.27996 
L 381.641922 185.32262 
L 381.862604 185.322932 
L 382.728356 185.364979 
L 382.949038 185.36353 
L 383.848741 185.406867 
L 384.052448 185.413377 
L 384.935176 185.445469 
L 385.138882 185.449907 
L 386.140438 185.482407 
L 386.344145 185.484394 
L 387.413603 185.518036 
L 387.61731 185.517202 
L 387.922869 185.527651 
L 387.922869 185.527651 
" clip-path="url(#p6f5246535f)" style="fill: none; stroke: #5ea04b; stroke-width: 1.5; stroke-linecap: square"/>
   </g>
   <g id="line2d_13">
    <path d="M 82.380256 88.738373 
L 83.144155 101.453689 
L 83.195081 100.61128 
L 87.099454 37.829854 
L 87.863353 29.587473 
L 88.55935 24.361501 
L 89.034665 22.198371 
L 89.408126 21.393852 
L 89.662759 21.267532 
L 89.883441 21.420762 
L 90.15505 21.928972 
L 90.477585 23.045627 
L 90.969875 25.827405 
L 91.59797 30.795402 
L 92.361869 38.74651 
L 93.329474 51.312069 
L 98.031697 116.055084 
L 99.474617 131.702073 
L 100.951488 145.224743 
L 102.445335 156.907107 
L 104.041035 167.639948 
L 105.874393 178.431403 
L 108.573503 192.841987 
L 111.289588 206.442171 
L 112.104413 209.156226 
L 112.664606 210.41203 
L 113.088994 210.856077 
L 113.445481 210.940144 
L 113.818942 210.789165 
L 114.260306 210.349236 
L 114.85445 209.408668 
L 115.703226 207.593937 
L 117.231024 203.693947 
L 119.709452 197.473815 
L 121.39003 193.876052 
L 122.968754 191.009204 
L 124.462601 188.743859 
L 125.854595 187.024059 
L 127.144735 185.769212 
L 128.383949 184.867265 
L 129.589212 184.262278 
L 130.794475 183.903137 
L 132.06764 183.756029 
L 133.493585 183.820296 
L 135.242065 184.133023 
L 138.144881 184.918474 
L 140.097067 185.359339 
L 144.323975 186.017381 
L 146.972158 186.184201 
L 149.841023 186.134834 
L 153.864224 185.818232 
L 161.723896 185.18093 
L 166.748653 185.03515 
L 173.48794 185.084051 
L 184.335305 185.181254 
L 185.285935 184.397633 
L 186.270516 183.871645 
L 187.322999 183.561382 
L 188.545237 183.440715 
L 190.090011 183.52701 
L 192.551463 183.920772 
L 197.627147 184.743788 
L 201.276887 185.0762 
L 203.195122 185.087962 
L 207.218323 185.090923 
L 223.854345 185.260907 
L 243.613866 185.286906 
L 246.533657 185.148344 
L 251.38866 185.176752 
L 265.936691 185.316009 
L 280.416821 185.220354 
L 282.419933 184.981228 
L 285.000214 184.910179 
L 289.515706 185.048217 
L 298.444836 185.303387 
L 308.884789 185.324526 
L 316.150317 185.406236 
L 316.880265 185.66719 
L 317.134898 185.74389 
L 317.304653 185.809198 
L 317.542311 185.875541 
L 319.138011 186.308677 
L 320.614882 186.612817 
L 320.801613 186.648956 
L 321.209026 186.717542 
L 321.395757 186.758704 
L 321.565512 186.7703 
L 321.752243 186.812848 
L 321.888047 186.823992 
L 322.074778 186.859045 
L 322.380337 186.887572 
L 322.584044 186.925325 
L 322.872628 186.95389 
L 323.076334 186.983113 
L 323.297016 186.998032 
L 323.517698 187.037025 
L 323.73838 187.042673 
L 323.976038 187.081478 
L 324.196719 187.082884 
L 324.451352 187.118998 
L 324.638083 187.128723 
L 324.892716 187.151804 
L 325.079447 187.152009 
L 325.385007 187.187502 
L 325.554762 187.18941 
L 325.826371 187.213421 
L 325.996126 187.206767 
L 326.301686 187.231001 
L 326.471441 187.235642 
L 326.793976 187.249704 
L 326.963731 187.245391 
L 327.371144 187.266257 
L 327.523924 187.267149 
L 327.965288 187.266036 
L 328.474554 187.281711 
L 328.627333 187.265439 
L 329.425184 187.272182 
L 330.511618 187.234367 
L 334.008577 187.031356 
L 334.551794 186.982643 
L 334.72155 186.986123 
L 335.179889 186.930055 
L 335.349644 186.927417 
L 335.757057 186.873872 
L 335.926813 186.865962 
L 336.334225 186.817422 
L 336.487005 186.812136 
L 336.860467 186.767971 
L 337.013247 186.759057 
L 337.369733 186.714641 
L 337.522513 186.702576 
L 337.862023 186.659338 
L 338.031779 186.656017 
L 338.388265 186.598243 
L 338.55802 186.592116 
L 338.880555 186.54605 
L 339.050311 186.537291 
L 339.372846 186.486702 
L 339.542601 186.475909 
L 339.848161 186.430117 
L 340.017916 186.423955 
L 340.323476 186.375679 
L 340.493231 186.36137 
L 340.781815 186.320019 
L 340.95157 186.304503 
L 341.240154 186.261221 
L 341.426885 186.254991 
L 341.732445 186.200404 
L 341.919176 186.193241 
L 342.20776 186.147171 
L 342.377515 186.129192 
L 342.649124 186.092218 
L 342.835854 186.084169 
L 343.124438 186.037006 
L 343.294194 186.018585 
L 343.565802 185.981287 
L 343.752533 185.973271 
L 344.041117 185.926539 
L 344.210873 185.908573 
L 344.482481 185.872289 
L 344.669212 185.86516 
L 344.957796 185.820077 
L 345.127551 185.80333 
L 345.39916 185.769237 
L 345.568915 185.753125 
L 345.857499 185.711046 
L 346.04423 185.706779 
L 346.34979 185.657348 
L 346.519545 185.643864 
L 346.808129 185.606077 
L 346.977884 185.593999 
L 347.266468 185.558711 
L 347.436224 185.548144 
L 347.741783 185.506743 
L 347.911539 185.497987 
L 348.217098 185.459903 
L 348.386854 185.453007 
L 348.692413 185.407541 
L 348.862169 185.402781 
L 349.184704 185.36356 
L 349.354459 185.36091 
L 349.710945 185.310217 
L 349.8807 185.310248 
L 350.237187 185.265088 
L 350.389966 185.255536 
L 350.746453 185.216065 
L 350.899232 185.208913 
L 351.221768 185.189736 
L 351.561278 185.147058 
L 351.748009 185.150228 
L 352.104495 185.106781 
L 352.274251 185.100103 
L 352.613761 185.069822 
L 352.783517 185.066101 
L 353.156978 185.029786 
L 353.326734 185.02953 
L 353.734146 184.989486 
L 353.903902 184.992984 
L 354.345266 184.951069 
L 354.498045 184.943656 
L 354.922434 184.916872 
L 355.075213 184.912915 
L 355.550528 184.882168 
L 355.703308 184.881916 
L 356.246525 184.84651 
L 356.399305 184.850521 
L 357.044375 184.808957 
L 357.197155 184.817808 
L 357.910127 184.774622 
L 358.062907 184.788763 
L 358.894708 184.744057 
L 359.047488 184.74401 
L 360.06602 184.714323 
L 360.2188 184.721097 
L 361.882402 184.695586 
L 365.939554 184.722917 
L 367.093891 184.743963 
L 367.24667 184.745374 
L 368.163349 184.7657 
L 368.316129 184.751042 
L 369.097004 184.788564 
L 369.266759 184.775553 
L 369.979731 184.814265 
L 370.132511 184.805248 
L 370.794557 184.840005 
L 370.947337 184.833143 
L 371.524505 184.861454 
L 371.677284 184.85636 
L 372.237477 184.886826 
L 372.390257 184.883123 
L 372.933474 184.914105 
L 373.086254 184.9116 
L 373.59552 184.938104 
L 373.748299 184.936596 
L 374.24059 184.961693 
L 374.39337 184.960918 
L 374.88566 184.988363 
L 375.03844 184.988253 
L 375.513755 185.013521 
L 375.666535 185.013871 
L 376.14185 185.039816 
L 376.294629 185.040448 
L 376.752969 185.0626 
L 376.905749 185.063505 
L 377.381063 185.090554 
L 377.533843 185.091414 
L 377.992183 185.113342 
L 378.144962 185.114129 
L 378.620277 185.141852 
L 378.773057 185.142412 
L 379.231397 185.16365 
L 379.384176 185.163935 
L 379.876467 185.192856 
L 380.029247 185.192649 
L 380.504562 185.215477 
L 380.657341 185.214726 
L 381.166607 185.244168 
L 381.319387 185.242698 
L 381.828653 185.269525 
L 381.981433 185.267251 
L 382.507674 185.295208 
L 382.660454 185.291888 
L 383.237622 185.322716 
L 383.390402 185.318229 
L 383.950595 185.346096 
L 384.103374 185.340381 
L 384.714494 185.374575 
L 384.867273 185.367447 
L 385.546295 185.399412 
L 385.699075 185.390639 
L 386.395071 185.427218 
L 386.547851 185.416587 
L 387.277799 185.451864 
L 387.430579 185.43921 
L 387.922869 185.464879 
L 387.922869 185.464879 
" clip-path="url(#p6f5246535f)" style="fill: none; stroke: #bdab62; stroke-width: 1.5; stroke-linecap: square"/>
   </g>
   <g id="patch_3">
    <path d="M 67.103125 241.036875 
L 67.103125 10.8 
" style="fill: none; stroke: #000000; stroke-width: 0.8; stroke-linejoin: miter; stroke-linecap: square"/>
   </g>
   <g id="patch_4">
    <path d="M 403.2 241.036875 
L 403.2 10.8 
" style="fill: none; stroke: #000000; stroke-width: 0.8; stroke-linejoin: miter; stroke-linecap: square"/>
   </g>
   <g id="patch_5">
    <path d="M 67.103125 241.036875 
L 403.2 241.036875 
" style="fill: none; stroke: #000000; stroke-width: 0.8; stroke-linejoin: miter; stroke-linecap: square"/>
   </g>
   <g id="patch_6">
    <path d="M 67.103125 10.8 
L 403.2 10.8 
" style="fill: none; stroke: #000000; stroke-width: 0.8; stroke-linejoin: miter; stroke-linecap: square"/>
   </g>
   <g id="legend_1">
    <g id="patch_7">
     <path d="M 344.34 236.536875 
L 396.9 236.536875 
Q 398.7 236.536875 398.7 234.736875 
L 398.7 194.871094 
Q 398.7 193.071094 396.9 193.071094 
L 344.34 193.071094 
Q 342.54 193.071094 342.54 194.871094 
L 342.54 234.736875 
Q 342.54 236.536875 344.34 236.536875 
z
" style="fill: #ffffff; opacity: 0.8; stroke: #cccccc; stroke-linejoin: miter"/>
    </g>
    <g id="line2d_14">
     <path d="M 346.14 200.359687 
L 355.14 200.359687 
L 364.14 200.359687 
" style="fill: none; stroke: #2b737e; stroke-width: 1.5; stroke-linecap: square"/>
    </g>
    <g id="text_13">
     <!-- $\omega_{BR,0}$ -->
     <g transform="translate(371.34 203.509687) scale(0.09 -0.09)">
      <defs>
       <path id="DejaVuSans-Oblique-3c9" d="M 1369 -91 
Q 72 -91 434 1766 
Q 575 2500 1256 3500 
L 1875 3500 
Q 1231 2500 1088 1750 
Q 819 397 1519 397 
Q 2166 397 2478 2078 
L 3009 2078 
Q 2669 388 3316 397 
Q 4013 403 4275 1750 
Q 4419 2500 4169 3500 
L 4788 3500 
Q 5075 2500 4934 1766 
Q 4578 -94 3278 -91 
Q 2428 -88 2503 844 
Q 2194 -91 1369 -91 
z
" transform="scale(0.015625)"/>
       <path id="DejaVuSans-Oblique-42" d="M 1081 4666 
L 2694 4666 
Q 3350 4666 3675 4422 
Q 4000 4178 4000 3688 
Q 4000 3238 3720 2911 
Q 3441 2584 2988 2516 
Q 3375 2428 3569 2181 
Q 3763 1934 3763 1522 
Q 3763 819 3242 409 
Q 2722 0 1819 0 
L 172 0 
L 1081 4666 
z
M 1234 2228 
L 903 519 
L 1919 519 
Q 2491 519 2800 781 
Q 3109 1044 3109 1522 
Q 3109 1891 2904 2059 
Q 2700 2228 2247 2228 
L 1234 2228 
z
M 1606 4147 
L 1331 2741 
L 2272 2741 
Q 2775 2741 3058 2959 
Q 3341 3178 3341 3566 
Q 3341 3869 3150 4008 
Q 2959 4147 2541 4147 
L 1606 4147 
z
" transform="scale(0.015625)"/>
       <path id="DejaVuSans-Oblique-52" d="M 1613 4147 
L 1294 2491 
L 2106 2491 
Q 2584 2491 2879 2755 
Q 3175 3019 3175 3444 
Q 3175 3784 2976 3965 
Q 2778 4147 2406 4147 
L 1613 4147 
z
M 2772 2241 
Q 2972 2194 3105 2009 
Q 3238 1825 3413 1275 
L 3809 0 
L 3144 0 
L 2778 1197 
Q 2638 1659 2453 1815 
Q 2269 1972 1888 1972 
L 1191 1972 
L 806 0 
L 172 0 
L 1081 4666 
L 2503 4666 
Q 3150 4666 3495 4373 
Q 3841 4081 3841 3531 
Q 3841 3044 3547 2687 
Q 3253 2331 2772 2241 
z
" transform="scale(0.015625)"/>
       <path id="DejaVuSans-2c" d="M 750 794 
L 1409 794 
L 1409 256 
L 897 -744 
L 494 -744 
L 750 256 
L 750 794 
z
" transform="scale(0.015625)"/>
      </defs>
      <use xlink:href="#DejaVuSans-Oblique-3c9" transform="translate(0 0.3125)"/>
      <use xlink:href="#DejaVuSans-Oblique-42" transform="translate(83.740234 -16.09375) scale(0.7)"/>
      <use xlink:href="#DejaVuSans-Oblique-52" transform="translate(131.762695 -16.09375) scale(0.7)"/>
      <use xlink:href="#DejaVuSans-2c" transform="translate(180.400391 -16.09375) scale(0.7)"/>
      <use xlink:href="#DejaVuSans-30" transform="translate(216.289062 -16.09375) scale(0.7)"/>
     </g>
    </g>
    <g id="line2d_15">
     <path d="M 346.14 213.948281 
L 355.14 213.948281 
L 364.14 213.948281 
" style="fill: none; stroke: #5ea04b; stroke-width: 1.5; stroke-linecap: square"/>
    </g>
    <g id="text_14">
     <!-- $\omega_{BR,1}$ -->
     <g transform="translate(371.34 217.098281) scale(0.09 -0.09)">
      <use xlink:href="#DejaVuSans-Oblique-3c9" transform="translate(0 0.3125)"/>
      <use xlink:href="#DejaVuSans-Oblique-42" transform="translate(83.740234 -16.09375) scale(0.7)"/>
      <use xlink:href="#DejaVuSans-Oblique-52" transform="translate(131.762695 -16.09375) scale(0.7)"/>
      <use xlink:href="#DejaVuSans-2c" transform="translate(180.400391 -16.09375) scale(0.7)"/>
      <use xlink:href="#DejaVuSans-31" transform="translate(216.289062 -16.09375) scale(0.7)"/>
     </g>
    </g>
    <g id="line2d_16">
     <path d="M 346.14 227.536875 
L 355.14 227.536875 
L 364.14 227.536875 
" style="fill: none; stroke: #bdab62; stroke-width: 1.5; stroke-linecap: square"/>
    </g>
    <g id="text_15">
     <!-- $\omega_{BR,2}$ -->
     <g transform="translate(371.34 230.686875) scale(0.09 -0.09)">
      <use xlink:href="#DejaVuSans-Oblique-3c9" transform="translate(0 0.3125)"/>
      <use xlink:href="#DejaVuSans-Oblique-42" transform="translate(83.740234 -16.09375) scale(0.7)"/>
      <use xlink:href="#DejaVuSans-Oblique-52" transform="translate(131.762695 -16.09375) scale(0.7)"/>
      <use xlink:href="#DejaVuSans-2c" transform="translate(180.400391 -16.09375) scale(0.7)"/>
      <use xlink:href="#DejaVuSans-32" transform="translate(216.289062 -16.09375) scale(0.7)"/>
     </g>
    </g>
   </g>
  </g>
 </g>
 <defs>
  <clipPath id="p6f5246535f">
   <rect x="67.103125" y="10.8" width="336.096875" height="230.236875"/>
  </clipPath>
 </defs>
</svg>
