<?xml version="1.0" encoding="utf-8" standalone="no"?>
<!DOCTYPE svg PUBLIC "-//W3C//DTD SVG 1.1//EN"
  "http://www.w3.org/Graphics/SVG/1.1/DTD/svg11.dtd">
<svg xmlns:xlink="http://www.w3.org/1999/xlink" width="414pt" height="288pt" viewBox="0 0 414 288" xmlns="http://www.w3.org/2000/svg" version="1.1">
 <metadata>
  <rdf:RDF xmlns:dc="http://purl.org/dc/elements/1.1/" xmlns:cc="http://creativecommons.org/ns#" xmlns:rdf="http://www.w3.org/1999/02/22-rdf-syntax-ns#">
   <cc:Work>
    <dc:type rdf:resource="http://purl.org/dc/dcmitype/StillImage"/>
    <dc:date>2024-10-09T18:02:51.998800</dc:date>
    <dc:format>image/svg+xml</dc:format>
    <dc:creator>
     <cc:Agent>
      <dc:title>Matplotlib v3.9.2, https://matplotlib.org/</dc:title>
     </cc:Agent>
    </dc:creator>
   </cc:Work>
  </rdf:RDF>
 </metadata>
 <defs>
  <style type="text/css">*{stroke-linejoin: round; stroke-linecap: butt}</style>
 </defs>
 <g id="figure_1">
  <g id="patch_1">
   <path d="M 0 288 
L 414 288 
L 414 0 
L 0 0 
L 0 288 
z
" style="fill: none"/>
  </g>
  <g id="axes_1">
   <g id="patch_2">
    <path d="M 55.065625 241.036875 
L 403.2 241.036875 
L 403.2 10.8 
L 55.065625 10.8 
L 55.065625 241.036875 
z
" style="fill: none"/>
   </g>
   <g id="matplotlib.axis_1">
    <g id="xtick_1">
     <g id="line2d_1">
      <defs>
       <path id="m69bff9c1fc" d="M 0 0 
L 0 3.5 
" style="stroke: #000000; stroke-width: 0.8"/>
      </defs>
      <g>
       <use xlink:href="#m69bff9c1fc" x="70.889915" y="241.036875" style="stroke: #000000; stroke-width: 0.8"/>
      </g>
     </g>
     <g id="text_1">
      <!-- 0 -->
      <g transform="translate(65.799915 260.194375) scale(0.16 -0.16)">
       <defs>
        <path id="DejaVuSans-30" d="M 2034 4250 
Q 1547 4250 1301 3770 
Q 1056 3291 1056 2328 
Q 1056 1369 1301 889 
Q 1547 409 2034 409 
Q 2525 409 2770 889 
Q 3016 1369 3016 2328 
Q 3016 3291 2770 3770 
Q 2525 4250 2034 4250 
z
M 2034 4750 
Q 2819 4750 3233 4129 
Q 3647 3509 3647 2328 
Q 3647 1150 3233 529 
Q 2819 -91 2034 -91 
Q 1250 -91 836 529 
Q 422 1150 422 2328 
Q 422 3509 836 4129 
Q 1250 4750 2034 4750 
z
" transform="scale(0.015625)"/>
       </defs>
       <use xlink:href="#DejaVuSans-30"/>
      </g>
     </g>
    </g>
    <g id="xtick_2">
     <g id="line2d_2">
      <g>
       <use xlink:href="#m69bff9c1fc" x="134.187074" y="241.036875" style="stroke: #000000; stroke-width: 0.8"/>
      </g>
     </g>
     <g id="text_2">
      <!-- 2 -->
      <g transform="translate(129.097074 260.194375) scale(0.16 -0.16)">
       <defs>
        <path id="DejaVuSans-32" d="M 1228 531 
L 3431 531 
L 3431 0 
L 469 0 
L 469 531 
Q 828 903 1448 1529 
Q 2069 2156 2228 2338 
Q 2531 2678 2651 2914 
Q 2772 3150 2772 3378 
Q 2772 3750 2511 3984 
Q 2250 4219 1831 4219 
Q 1534 4219 1204 4116 
Q 875 4013 500 3803 
L 500 4441 
Q 881 4594 1212 4672 
Q 1544 4750 1819 4750 
Q 2544 4750 2975 4387 
Q 3406 4025 3406 3419 
Q 3406 3131 3298 2873 
Q 3191 2616 2906 2266 
Q 2828 2175 2409 1742 
Q 1991 1309 1228 531 
z
" transform="scale(0.015625)"/>
       </defs>
       <use xlink:href="#DejaVuSans-32"/>
      </g>
     </g>
    </g>
    <g id="xtick_3">
     <g id="line2d_3">
      <g>
       <use xlink:href="#m69bff9c1fc" x="197.484233" y="241.036875" style="stroke: #000000; stroke-width: 0.8"/>
      </g>
     </g>
     <g id="text_3">
      <!-- 4 -->
      <g transform="translate(192.394233 260.194375) scale(0.16 -0.16)">
       <defs>
        <path id="DejaVuSans-34" d="M 2419 4116 
L 825 1625 
L 2419 1625 
L 2419 4116 
z
M 2253 4666 
L 3047 4666 
L 3047 1625 
L 3713 1625 
L 3713 1100 
L 3047 1100 
L 3047 0 
L 2419 0 
L 2419 1100 
L 313 1100 
L 313 1709 
L 2253 4666 
z
" transform="scale(0.015625)"/>
       </defs>
       <use xlink:href="#DejaVuSans-34"/>
      </g>
     </g>
    </g>
    <g id="xtick_4">
     <g id="line2d_4">
      <g>
       <use xlink:href="#m69bff9c1fc" x="260.781392" y="241.036875" style="stroke: #000000; stroke-width: 0.8"/>
      </g>
     </g>
     <g id="text_4">
      <!-- 6 -->
      <g transform="translate(255.691392 260.194375) scale(0.16 -0.16)">
       <defs>
        <path id="DejaVuSans-36" d="M 2113 2584 
Q 1688 2584 1439 2293 
Q 1191 2003 1191 1497 
Q 1191 994 1439 701 
Q 1688 409 2113 409 
Q 2538 409 2786 701 
Q 3034 994 3034 1497 
Q 3034 2003 2786 2293 
Q 2538 2584 2113 2584 
z
M 3366 4563 
L 3366 3988 
Q 3128 4100 2886 4159 
Q 2644 4219 2406 4219 
Q 1781 4219 1451 3797 
Q 1122 3375 1075 2522 
Q 1259 2794 1537 2939 
Q 1816 3084 2150 3084 
Q 2853 3084 3261 2657 
Q 3669 2231 3669 1497 
Q 3669 778 3244 343 
Q 2819 -91 2113 -91 
Q 1303 -91 875 529 
Q 447 1150 447 2328 
Q 447 3434 972 4092 
Q 1497 4750 2381 4750 
Q 2619 4750 2861 4703 
Q 3103 4656 3366 4563 
z
" transform="scale(0.015625)"/>
       </defs>
       <use xlink:href="#DejaVuSans-36"/>
      </g>
     </g>
    </g>
    <g id="xtick_5">
     <g id="line2d_5">
      <g>
       <use xlink:href="#m69bff9c1fc" x="324.078551" y="241.036875" style="stroke: #000000; stroke-width: 0.8"/>
      </g>
     </g>
     <g id="text_5">
      <!-- 8 -->
      <g transform="translate(318.988551 260.194375) scale(0.16 -0.16)">
       <defs>
        <path id="DejaVuSans-38" d="M 2034 2216 
Q 1584 2216 1326 1975 
Q 1069 1734 1069 1313 
Q 1069 891 1326 650 
Q 1584 409 2034 409 
Q 2484 409 2743 651 
Q 3003 894 3003 1313 
Q 3003 1734 2745 1975 
Q 2488 2216 2034 2216 
z
M 1403 2484 
Q 997 2584 770 2862 
Q 544 3141 544 3541 
Q 544 4100 942 4425 
Q 1341 4750 2034 4750 
Q 2731 4750 3128 4425 
Q 3525 4100 3525 3541 
Q 3525 3141 3298 2862 
Q 3072 2584 2669 2484 
Q 3125 2378 3379 2068 
Q 3634 1759 3634 1313 
Q 3634 634 3220 271 
Q 2806 -91 2034 -91 
Q 1263 -91 848 271 
Q 434 634 434 1313 
Q 434 1759 690 2068 
Q 947 2378 1403 2484 
z
M 1172 3481 
Q 1172 3119 1398 2916 
Q 1625 2713 2034 2713 
Q 2441 2713 2670 2916 
Q 2900 3119 2900 3481 
Q 2900 3844 2670 4047 
Q 2441 4250 2034 4250 
Q 1625 4250 1398 4047 
Q 1172 3844 1172 3481 
z
" transform="scale(0.015625)"/>
       </defs>
       <use xlink:href="#DejaVuSans-38"/>
      </g>
     </g>
    </g>
    <g id="xtick_6">
     <g id="line2d_6">
      <g>
       <use xlink:href="#m69bff9c1fc" x="387.37571" y="241.036875" style="stroke: #000000; stroke-width: 0.8"/>
      </g>
     </g>
     <g id="text_6">
      <!-- 10 -->
      <g transform="translate(377.19571 260.194375) scale(0.16 -0.16)">
       <defs>
        <path id="DejaVuSans-31" d="M 794 531 
L 1825 531 
L 1825 4091 
L 703 3866 
L 703 4441 
L 1819 4666 
L 2450 4666 
L 2450 531 
L 3481 531 
L 3481 0 
L 794 0 
L 794 531 
z
" transform="scale(0.015625)"/>
       </defs>
       <use xlink:href="#DejaVuSans-31"/>
       <use xlink:href="#DejaVuSans-30" x="63.623047"/>
      </g>
     </g>
    </g>
    <g id="text_7">
     <!-- Time [min] -->
     <g transform="translate(201.980469 275.120313) scale(0.1 -0.1)">
      <defs>
       <path id="DejaVuSans-54" d="M -19 4666 
L 3928 4666 
L 3928 4134 
L 2272 4134 
L 2272 0 
L 1638 0 
L 1638 4134 
L -19 4134 
L -19 4666 
z
" transform="scale(0.015625)"/>
       <path id="DejaVuSans-69" d="M 603 3500 
L 1178 3500 
L 1178 0 
L 603 0 
L 603 3500 
z
M 603 4863 
L 1178 4863 
L 1178 4134 
L 603 4134 
L 603 4863 
z
" transform="scale(0.015625)"/>
       <path id="DejaVuSans-6d" d="M 3328 2828 
Q 3544 3216 3844 3400 
Q 4144 3584 4550 3584 
Q 5097 3584 5394 3201 
Q 5691 2819 5691 2113 
L 5691 0 
L 5113 0 
L 5113 2094 
Q 5113 2597 4934 2840 
Q 4756 3084 4391 3084 
Q 3944 3084 3684 2787 
Q 3425 2491 3425 1978 
L 3425 0 
L 2847 0 
L 2847 2094 
Q 2847 2600 2669 2842 
Q 2491 3084 2119 3084 
Q 1678 3084 1418 2786 
Q 1159 2488 1159 1978 
L 1159 0 
L 581 0 
L 581 3500 
L 1159 3500 
L 1159 2956 
Q 1356 3278 1631 3431 
Q 1906 3584 2284 3584 
Q 2666 3584 2933 3390 
Q 3200 3197 3328 2828 
z
" transform="scale(0.015625)"/>
       <path id="DejaVuSans-65" d="M 3597 1894 
L 3597 1613 
L 953 1613 
Q 991 1019 1311 708 
Q 1631 397 2203 397 
Q 2534 397 2845 478 
Q 3156 559 3463 722 
L 3463 178 
Q 3153 47 2828 -22 
Q 2503 -91 2169 -91 
Q 1331 -91 842 396 
Q 353 884 353 1716 
Q 353 2575 817 3079 
Q 1281 3584 2069 3584 
Q 2775 3584 3186 3129 
Q 3597 2675 3597 1894 
z
M 3022 2063 
Q 3016 2534 2758 2815 
Q 2500 3097 2075 3097 
Q 1594 3097 1305 2825 
Q 1016 2553 972 2059 
L 3022 2063 
z
" transform="scale(0.015625)"/>
       <path id="DejaVuSans-20" transform="scale(0.015625)"/>
       <path id="DejaVuSans-5b" d="M 550 4863 
L 1875 4863 
L 1875 4416 
L 1125 4416 
L 1125 -397 
L 1875 -397 
L 1875 -844 
L 550 -844 
L 550 4863 
z
" transform="scale(0.015625)"/>
       <path id="DejaVuSans-6e" d="M 3513 2113 
L 3513 0 
L 2938 0 
L 2938 2094 
Q 2938 2591 2744 2837 
Q 2550 3084 2163 3084 
Q 1697 3084 1428 2787 
Q 1159 2491 1159 1978 
L 1159 0 
L 581 0 
L 581 3500 
L 1159 3500 
L 1159 2956 
Q 1366 3272 1645 3428 
Q 1925 3584 2291 3584 
Q 2894 3584 3203 3211 
Q 3513 2838 3513 2113 
z
" transform="scale(0.015625)"/>
       <path id="DejaVuSans-5d" d="M 1947 4863 
L 1947 -844 
L 622 -844 
L 622 -397 
L 1369 -397 
L 1369 4416 
L 622 4416 
L 622 4863 
L 1947 4863 
z
" transform="scale(0.015625)"/>
      </defs>
      <use xlink:href="#DejaVuSans-54"/>
      <use xlink:href="#DejaVuSans-69" x="57.958984"/>
      <use xlink:href="#DejaVuSans-6d" x="85.742188"/>
      <use xlink:href="#DejaVuSans-65" x="183.154297"/>
      <use xlink:href="#DejaVuSans-20" x="244.677734"/>
      <use xlink:href="#DejaVuSans-5b" x="276.464844"/>
      <use xlink:href="#DejaVuSans-6d" x="315.478516"/>
      <use xlink:href="#DejaVuSans-69" x="412.890625"/>
      <use xlink:href="#DejaVuSans-6e" x="440.673828"/>
      <use xlink:href="#DejaVuSans-5d" x="504.052734"/>
     </g>
    </g>
   </g>
   <g id="matplotlib.axis_2">
    <g id="ytick_1">
     <g id="line2d_7">
      <defs>
       <path id="m9130e4a8e5" d="M 0 0 
L -3.5 0 
" style="stroke: #000000; stroke-width: 0.8"/>
      </defs>
      <g>
       <use xlink:href="#m9130e4a8e5" x="55.065625" y="235.684212" style="stroke: #000000; stroke-width: 0.8"/>
      </g>
     </g>
     <g id="text_8">
      <!-- −5 -->
      <g transform="translate(24.478125 241.762962) scale(0.16 -0.16)">
       <defs>
        <path id="DejaVuSans-2212" d="M 678 2272 
L 4684 2272 
L 4684 1741 
L 678 1741 
L 678 2272 
z
" transform="scale(0.015625)"/>
        <path id="DejaVuSans-35" d="M 691 4666 
L 3169 4666 
L 3169 4134 
L 1269 4134 
L 1269 2991 
Q 1406 3038 1543 3061 
Q 1681 3084 1819 3084 
Q 2600 3084 3056 2656 
Q 3513 2228 3513 1497 
Q 3513 744 3044 326 
Q 2575 -91 1722 -91 
Q 1428 -91 1123 -41 
Q 819 9 494 109 
L 494 744 
Q 775 591 1075 516 
Q 1375 441 1709 441 
Q 2250 441 2565 725 
Q 2881 1009 2881 1497 
Q 2881 1984 2565 2268 
Q 2250 2553 1709 2553 
Q 1456 2553 1204 2497 
Q 953 2441 691 2322 
L 691 4666 
z
" transform="scale(0.015625)"/>
       </defs>
       <use xlink:href="#DejaVuSans-2212"/>
       <use xlink:href="#DejaVuSans-35" x="83.789062"/>
      </g>
     </g>
    </g>
    <g id="ytick_2">
     <g id="line2d_8">
      <g>
       <use xlink:href="#m9130e4a8e5" x="55.065625" y="192.800432" style="stroke: #000000; stroke-width: 0.8"/>
      </g>
     </g>
     <g id="text_9">
      <!-- −4 -->
      <g transform="translate(24.478125 198.879182) scale(0.16 -0.16)">
       <use xlink:href="#DejaVuSans-2212"/>
       <use xlink:href="#DejaVuSans-34" x="83.789062"/>
      </g>
     </g>
    </g>
    <g id="ytick_3">
     <g id="line2d_9">
      <g>
       <use xlink:href="#m9130e4a8e5" x="55.065625" y="149.916652" style="stroke: #000000; stroke-width: 0.8"/>
      </g>
     </g>
     <g id="text_10">
      <!-- −3 -->
      <g transform="translate(24.478125 155.995402) scale(0.16 -0.16)">
       <defs>
        <path id="DejaVuSans-33" d="M 2597 2516 
Q 3050 2419 3304 2112 
Q 3559 1806 3559 1356 
Q 3559 666 3084 287 
Q 2609 -91 1734 -91 
Q 1441 -91 1130 -33 
Q 819 25 488 141 
L 488 750 
Q 750 597 1062 519 
Q 1375 441 1716 441 
Q 2309 441 2620 675 
Q 2931 909 2931 1356 
Q 2931 1769 2642 2001 
Q 2353 2234 1838 2234 
L 1294 2234 
L 1294 2753 
L 1863 2753 
Q 2328 2753 2575 2939 
Q 2822 3125 2822 3475 
Q 2822 3834 2567 4026 
Q 2313 4219 1838 4219 
Q 1578 4219 1281 4162 
Q 984 4106 628 3988 
L 628 4550 
Q 988 4650 1302 4700 
Q 1616 4750 1894 4750 
Q 2613 4750 3031 4423 
Q 3450 4097 3450 3541 
Q 3450 3153 3228 2886 
Q 3006 2619 2597 2516 
z
" transform="scale(0.015625)"/>
       </defs>
       <use xlink:href="#DejaVuSans-2212"/>
       <use xlink:href="#DejaVuSans-33" x="83.789062"/>
      </g>
     </g>
    </g>
    <g id="ytick_4">
     <g id="line2d_10">
      <g>
       <use xlink:href="#m9130e4a8e5" x="55.065625" y="107.032872" style="stroke: #000000; stroke-width: 0.8"/>
      </g>
     </g>
     <g id="text_11">
      <!-- −2 -->
      <g transform="translate(24.478125 113.111622) scale(0.16 -0.16)">
       <use xlink:href="#DejaVuSans-2212"/>
       <use xlink:href="#DejaVuSans-32" x="83.789062"/>
      </g>
     </g>
    </g>
    <g id="ytick_5">
     <g id="line2d_11">
      <g>
       <use xlink:href="#m9130e4a8e5" x="55.065625" y="64.149092" style="stroke: #000000; stroke-width: 0.8"/>
      </g>
     </g>
     <g id="text_12">
      <!-- −1 -->
      <g transform="translate(24.478125 70.227842) scale(0.16 -0.16)">
       <use xlink:href="#DejaVuSans-2212"/>
       <use xlink:href="#DejaVuSans-31" x="83.789062"/>
      </g>
     </g>
    </g>
    <g id="ytick_6">
     <g id="line2d_12">
      <g>
       <use xlink:href="#m9130e4a8e5" x="55.065625" y="21.265312" style="stroke: #000000; stroke-width: 0.8"/>
      </g>
     </g>
     <g id="text_13">
      <!-- 0 -->
      <g transform="translate(37.885625 27.344063) scale(0.16 -0.16)">
       <use xlink:href="#DejaVuSans-30"/>
      </g>
     </g>
    </g>
    <g id="text_14">
     <!-- Force requested [N] -->
     <g transform="translate(18.398438 175.516094) rotate(-90) scale(0.1 -0.1)">
      <defs>
       <path id="DejaVuSans-46" d="M 628 4666 
L 3309 4666 
L 3309 4134 
L 1259 4134 
L 1259 2759 
L 3109 2759 
L 3109 2228 
L 1259 2228 
L 1259 0 
L 628 0 
L 628 4666 
z
" transform="scale(0.015625)"/>
       <path id="DejaVuSans-6f" d="M 1959 3097 
Q 1497 3097 1228 2736 
Q 959 2375 959 1747 
Q 959 1119 1226 758 
Q 1494 397 1959 397 
Q 2419 397 2687 759 
Q 2956 1122 2956 1747 
Q 2956 2369 2687 2733 
Q 2419 3097 1959 3097 
z
M 1959 3584 
Q 2709 3584 3137 3096 
Q 3566 2609 3566 1747 
Q 3566 888 3137 398 
Q 2709 -91 1959 -91 
Q 1206 -91 779 398 
Q 353 888 353 1747 
Q 353 2609 779 3096 
Q 1206 3584 1959 3584 
z
" transform="scale(0.015625)"/>
       <path id="DejaVuSans-72" d="M 2631 2963 
Q 2534 3019 2420 3045 
Q 2306 3072 2169 3072 
Q 1681 3072 1420 2755 
Q 1159 2438 1159 1844 
L 1159 0 
L 581 0 
L 581 3500 
L 1159 3500 
L 1159 2956 
Q 1341 3275 1631 3429 
Q 1922 3584 2338 3584 
Q 2397 3584 2469 3576 
Q 2541 3569 2628 3553 
L 2631 2963 
z
" transform="scale(0.015625)"/>
       <path id="DejaVuSans-63" d="M 3122 3366 
L 3122 2828 
Q 2878 2963 2633 3030 
Q 2388 3097 2138 3097 
Q 1578 3097 1268 2742 
Q 959 2388 959 1747 
Q 959 1106 1268 751 
Q 1578 397 2138 397 
Q 2388 397 2633 464 
Q 2878 531 3122 666 
L 3122 134 
Q 2881 22 2623 -34 
Q 2366 -91 2075 -91 
Q 1284 -91 818 406 
Q 353 903 353 1747 
Q 353 2603 823 3093 
Q 1294 3584 2113 3584 
Q 2378 3584 2631 3529 
Q 2884 3475 3122 3366 
z
" transform="scale(0.015625)"/>
       <path id="DejaVuSans-71" d="M 947 1747 
Q 947 1113 1208 752 
Q 1469 391 1925 391 
Q 2381 391 2643 752 
Q 2906 1113 2906 1747 
Q 2906 2381 2643 2742 
Q 2381 3103 1925 3103 
Q 1469 3103 1208 2742 
Q 947 2381 947 1747 
z
M 2906 525 
Q 2725 213 2448 61 
Q 2172 -91 1784 -91 
Q 1150 -91 751 415 
Q 353 922 353 1747 
Q 353 2572 751 3078 
Q 1150 3584 1784 3584 
Q 2172 3584 2448 3432 
Q 2725 3281 2906 2969 
L 2906 3500 
L 3481 3500 
L 3481 -1331 
L 2906 -1331 
L 2906 525 
z
" transform="scale(0.015625)"/>
       <path id="DejaVuSans-75" d="M 544 1381 
L 544 3500 
L 1119 3500 
L 1119 1403 
Q 1119 906 1312 657 
Q 1506 409 1894 409 
Q 2359 409 2629 706 
Q 2900 1003 2900 1516 
L 2900 3500 
L 3475 3500 
L 3475 0 
L 2900 0 
L 2900 538 
Q 2691 219 2414 64 
Q 2138 -91 1772 -91 
Q 1169 -91 856 284 
Q 544 659 544 1381 
z
M 1991 3584 
L 1991 3584 
z
" transform="scale(0.015625)"/>
       <path id="DejaVuSans-73" d="M 2834 3397 
L 2834 2853 
Q 2591 2978 2328 3040 
Q 2066 3103 1784 3103 
Q 1356 3103 1142 2972 
Q 928 2841 928 2578 
Q 928 2378 1081 2264 
Q 1234 2150 1697 2047 
L 1894 2003 
Q 2506 1872 2764 1633 
Q 3022 1394 3022 966 
Q 3022 478 2636 193 
Q 2250 -91 1575 -91 
Q 1294 -91 989 -36 
Q 684 19 347 128 
L 347 722 
Q 666 556 975 473 
Q 1284 391 1588 391 
Q 1994 391 2212 530 
Q 2431 669 2431 922 
Q 2431 1156 2273 1281 
Q 2116 1406 1581 1522 
L 1381 1569 
Q 847 1681 609 1914 
Q 372 2147 372 2553 
Q 372 3047 722 3315 
Q 1072 3584 1716 3584 
Q 2034 3584 2315 3537 
Q 2597 3491 2834 3397 
z
" transform="scale(0.015625)"/>
       <path id="DejaVuSans-74" d="M 1172 4494 
L 1172 3500 
L 2356 3500 
L 2356 3053 
L 1172 3053 
L 1172 1153 
Q 1172 725 1289 603 
Q 1406 481 1766 481 
L 2356 481 
L 2356 0 
L 1766 0 
Q 1100 0 847 248 
Q 594 497 594 1153 
L 594 3053 
L 172 3053 
L 172 3500 
L 594 3500 
L 594 4494 
L 1172 4494 
z
" transform="scale(0.015625)"/>
       <path id="DejaVuSans-64" d="M 2906 2969 
L 2906 4863 
L 3481 4863 
L 3481 0 
L 2906 0 
L 2906 525 
Q 2725 213 2448 61 
Q 2172 -91 1784 -91 
Q 1150 -91 751 415 
Q 353 922 353 1747 
Q 353 2572 751 3078 
Q 1150 3584 1784 3584 
Q 2172 3584 2448 3432 
Q 2725 3281 2906 2969 
z
M 947 1747 
Q 947 1113 1208 752 
Q 1469 391 1925 391 
Q 2381 391 2643 752 
Q 2906 1113 2906 1747 
Q 2906 2381 2643 2742 
Q 2381 3103 1925 3103 
Q 1469 3103 1208 2742 
Q 947 2381 947 1747 
z
" transform="scale(0.015625)"/>
       <path id="DejaVuSans-4e" d="M 628 4666 
L 1478 4666 
L 3547 763 
L 3547 4666 
L 4159 4666 
L 4159 0 
L 3309 0 
L 1241 3903 
L 1241 0 
L 628 0 
L 628 4666 
z
" transform="scale(0.015625)"/>
      </defs>
      <use xlink:href="#DejaVuSans-46"/>
      <use xlink:href="#DejaVuSans-6f" x="53.894531"/>
      <use xlink:href="#DejaVuSans-72" x="115.076172"/>
      <use xlink:href="#DejaVuSans-63" x="153.939453"/>
      <use xlink:href="#DejaVuSans-65" x="208.919922"/>
      <use xlink:href="#DejaVuSans-20" x="270.443359"/>
      <use xlink:href="#DejaVuSans-72" x="302.230469"/>
      <use xlink:href="#DejaVuSans-65" x="341.09375"/>
      <use xlink:href="#DejaVuSans-71" x="402.617188"/>
      <use xlink:href="#DejaVuSans-75" x="466.09375"/>
      <use xlink:href="#DejaVuSans-65" x="529.472656"/>
      <use xlink:href="#DejaVuSans-73" x="590.996094"/>
      <use xlink:href="#DejaVuSans-74" x="643.095703"/>
      <use xlink:href="#DejaVuSans-65" x="682.304688"/>
      <use xlink:href="#DejaVuSans-64" x="743.828125"/>
      <use xlink:href="#DejaVuSans-20" x="807.304688"/>
      <use xlink:href="#DejaVuSans-5b" x="839.091797"/>
      <use xlink:href="#DejaVuSans-4e" x="878.105469"/>
      <use xlink:href="#DejaVuSans-5d" x="952.910156"/>
     </g>
    </g>
   </g>
   <g id="line2d_13">
    <path d="M 70.889915 137.247129 
L 74.054773 21.265312 
L 77.219631 21.265312 
L 80.384489 21.265312 
L 83.549347 21.265312 
L 86.714205 55.653729 
L 89.879063 56.413655 
L 93.04392 67.92048 
L 96.208778 61.424357 
L 99.373636 74.303753 
L 102.538494 68.880918 
L 105.703352 53.154222 
L 108.86821 21.265312 
L 112.033068 21.265312 
L 115.197926 50.157062 
L 118.362784 44.458527 
L 121.527642 38.757883 
L 124.6925 46.070688 
L 127.857358 25.547957 
L 131.022216 21.265312 
L 134.187074 21.265312 
L 137.351932 21.265312 
L 140.51679 21.265312 
L 143.681648 21.265312 
L 146.846506 21.265312 
L 150.011364 21.265312 
L 153.176222 53.383151 
L 156.34108 59.783565 
L 159.505938 72.894626 
L 162.670795 49.660671 
L 165.835653 36.118232 
L 169.000511 24.155402 
L 172.165369 44.638472 
L 175.330227 53.744005 
L 178.495085 89.306182 
L 181.659943 98.507706 
L 184.824801 76.156801 
L 187.989659 23.610227 
L 191.154517 44.767353 
L 194.319375 24.30488 
L 197.484233 44.657642 
L 200.649091 46.513161 
L 203.813949 47.975572 
L 206.978807 57.243544 
L 210.143665 63.601863 
L 213.308523 82.557331 
L 216.473381 69.99407 
L 219.638239 75.361526 
L 222.803097 85.858853 
L 225.967955 92.350477 
L 229.132812 73.681807 
L 232.29767 26.949953 
L 235.462528 28.679799 
L 238.627386 21.265312 
L 241.792244 37.000886 
L 244.957102 30.134192 
L 248.12196 47.45421 
L 251.286818 56.618058 
L 254.451676 71.368924 
L 257.616534 71.029624 
L 260.781392 81.176612 
L 263.94625 97.896952 
L 267.111108 53.887901 
L 270.275966 60.549931 
L 273.440824 27.187485 
L 276.605682 35.998361 
L 279.77054 34.996297 
L 282.935398 47.009404 
L 286.100256 66.328144 
L 289.265114 70.731737 
L 292.429972 74.885872 
L 295.59483 82.278906 
L 298.759688 99.373193 
L 301.924545 82.822638 
L 305.089403 23.64539 
L 308.254261 21.265312 
L 311.419119 21.265312 
L 314.583977 21.265312 
L 317.748835 22.830918 
L 320.913693 65.024018 
L 324.078551 63.100131 
L 327.243409 73.795991 
L 330.408267 21.265312 
L 333.573125 21.265312 
L 336.737983 21.265312 
L 339.902841 21.265312 
L 343.067699 21.265312 
L 346.232557 21.265312 
L 349.397415 24.328874 
L 352.562273 26.696136 
L 355.727131 21.265312 
L 358.891989 21.265312 
L 362.056847 21.265312 
L 365.221705 21.265312 
L 368.386562 21.265312 
L 371.55142 21.265312 
L 374.716278 21.265312 
L 377.881136 21.265312 
L 381.045994 21.265312 
L 384.210852 21.265312 
L 387.37571 21.265312 
" clip-path="url(#p9db786e0fe)" style="fill: none; stroke: #184179; stroke-width: 1.5; stroke-linecap: square"/>
   </g>
   <g id="line2d_14">
    <path d="M 70.889915 21.265312 
L 74.054773 21.265312 
L 77.219631 21.265312 
L 80.384489 21.265312 
L 83.549347 21.265312 
L 86.714205 21.265312 
L 89.879063 21.265312 
L 93.04392 21.265312 
L 96.208778 21.265312 
L 99.373636 25.17933 
L 102.538494 60.728943 
L 105.703352 86.011351 
L 108.86821 21.265312 
L 112.033068 43.484722 
L 115.197926 45.125214 
L 118.362784 37.226342 
L 121.527642 30.943863 
L 124.6925 27.791329 
L 127.857358 230.571562 
L 131.022216 91.658208 
L 134.187074 51.544994 
L 137.351932 27.126332 
L 140.51679 21.265312 
L 143.681648 21.313136 
L 146.846506 48.601241 
L 150.011364 66.056343 
L 153.176222 65.796985 
L 156.34108 57.353694 
L 159.505938 45.371575 
L 162.670795 21.265312 
L 165.835653 21.265312 
L 169.000511 21.265312 
L 172.165369 21.265312 
L 175.330227 21.265312 
L 178.495085 23.270827 
L 181.659943 117.501485 
L 184.824801 92.172186 
L 187.989659 81.696977 
L 191.154517 91.015703 
L 194.319375 73.796036 
L 197.484233 81.098075 
L 200.649091 84.141232 
L 203.813949 83.257006 
L 206.978807 48.991749 
L 210.143665 34.061185 
L 213.308523 37.551981 
L 216.473381 21.265312 
L 219.638239 25.995427 
L 222.803097 51.07955 
L 225.967955 62.865835 
L 229.132812 104.641353 
L 232.29767 77.817452 
L 235.462528 89.095104 
L 238.627386 76.843397 
L 241.792244 73.00555 
L 244.957102 71.573426 
L 248.12196 52.716557 
L 251.286818 75.768634 
L 254.451676 40.552269 
L 257.616534 21.265312 
L 260.781392 37.435841 
L 263.94625 68.647271 
L 267.111108 64.631378 
L 270.275966 93.950755 
L 273.440824 83.523602 
L 276.605682 96.470855 
L 279.77054 78.800064 
L 282.935398 63.352574 
L 286.100256 51.947057 
L 289.265114 47.70871 
L 292.429972 42.420165 
L 295.59483 29.610278 
L 298.759688 63.744091 
L 301.924545 100.835035 
L 305.089403 95.355279 
L 308.254261 73.265188 
L 311.419119 66.54002 
L 314.583977 64.043023 
L 317.748835 68.1333 
L 320.913693 83.410462 
L 324.078551 76.457562 
L 327.243409 98.107718 
L 330.408267 95.830248 
L 333.573125 56.857611 
L 336.737983 33.586905 
L 339.902841 30.921647 
L 343.067699 51.375866 
L 346.232557 62.01732 
L 349.397415 99.685264 
L 352.562273 80.460976 
L 355.727131 84.740422 
L 358.891989 69.659047 
L 362.056847 42.174627 
L 365.221705 21.265312 
L 368.386562 21.265312 
L 371.55142 28.187109 
L 374.716278 47.850055 
L 377.881136 49.980538 
L 381.045994 47.045788 
L 384.210852 21.265312 
L 387.37571 21.265312 
" clip-path="url(#p9db786e0fe)" style="fill: none; stroke: #30817e; stroke-width: 1.5; stroke-linecap: square"/>
   </g>
   <g id="line2d_15">
    <path d="M 70.889915 21.265312 
L 74.054773 48.354771 
L 77.219631 21.265312 
L 80.384489 21.265312 
L 83.549347 21.265312 
L 86.714205 21.265312 
L 89.879063 21.265312 
L 93.04392 21.265312 
L 96.208778 21.265312 
L 99.373636 21.265312 
L 102.538494 21.265312 
L 105.703352 54.122441 
L 108.86821 21.265312 
L 112.033068 44.847094 
L 115.197926 21.265312 
L 118.362784 21.265312 
L 121.527642 21.265312 
L 124.6925 21.265312 
L 127.857358 226.288918 
L 131.022216 99.477877 
L 134.187074 87.600218 
L 137.351932 72.329067 
L 140.51679 60.609836 
L 143.681648 64.94321 
L 146.846506 77.154335 
L 150.011364 71.784832 
L 153.176222 33.679146 
L 156.34108 21.265312 
L 159.505938 21.265312 
L 162.670795 21.265312 
L 165.835653 21.265312 
L 169.000511 21.265312 
L 172.165369 21.265312 
L 175.330227 21.265312 
L 178.495085 21.265312 
L 181.659943 40.259091 
L 184.824801 37.280697 
L 187.989659 79.352063 
L 191.154517 67.513662 
L 194.319375 70.756469 
L 197.484233 57.705745 
L 200.649091 58.893384 
L 203.813949 56.546746 
L 206.978807 21.265312 
L 210.143665 21.265312 
L 213.308523 21.265312 
L 216.473381 21.265312 
L 219.638239 21.265312 
L 222.803097 21.265312 
L 225.967955 21.265312 
L 229.132812 52.224858 
L 232.29767 72.132812 
L 235.462528 81.680617 
L 238.627386 95.031746 
L 241.792244 57.269976 
L 244.957102 62.704546 
L 248.12196 26.527659 
L 251.286818 40.415889 
L 254.451676 21.265312 
L 257.616534 21.265312 
L 260.781392 21.265312 
L 263.94625 21.265312 
L 267.111108 32.00879 
L 270.275966 54.666136 
L 273.440824 77.601429 
L 276.605682 81.737807 
L 279.77054 65.06908 
L 282.935398 37.608482 
L 286.100256 21.265312 
L 289.265114 21.265312 
L 292.429972 21.265312 
L 295.59483 21.265312 
L 298.759688 21.265312 
L 301.924545 39.277709 
L 305.089403 92.975202 
L 308.254261 86.653789 
L 311.419119 73.713812 
L 314.583977 67.998121 
L 317.748835 66.567694 
L 320.913693 39.651757 
L 324.078551 34.622744 
L 327.243409 45.577039 
L 330.408267 100.212684 
L 333.573125 93.309641 
L 336.737983 83.619408 
L 339.902841 81.393419 
L 343.067699 92.159819 
L 346.232557 73.972384 
L 349.397415 96.621702 
L 352.562273 75.030152 
L 355.727131 96.764567 
L 358.891989 86.180314 
L 362.056847 84.981855 
L 365.221705 65.459035 
L 368.386562 49.917701 
L 371.55142 65.8965 
L 374.716278 85.363328 
L 377.881136 69.529265 
L 381.045994 92.699646 
L 384.210852 59.946057 
L 387.37571 49.29707 
" clip-path="url(#p9db786e0fe)" style="fill: none; stroke: #419552; stroke-width: 1.5; stroke-linecap: square"/>
   </g>
   <g id="line2d_16">
    <path d="M 70.889915 21.265312 
L 74.054773 75.344146 
L 77.219631 57.889619 
L 80.384489 40.952554 
L 83.549347 24.26581 
L 86.714205 21.265312 
L 89.879063 21.265312 
L 93.04392 21.265312 
L 96.208778 21.265312 
L 99.373636 21.265312 
L 102.538494 21.265312 
L 105.703352 21.265312 
L 108.86821 25.325667 
L 112.033068 22.627685 
L 115.197926 21.265312 
L 118.362784 21.265312 
L 121.527642 21.265312 
L 124.6925 21.265312 
L 127.857358 21.265312 
L 131.022216 29.084982 
L 134.187074 57.320537 
L 137.351932 66.468048 
L 140.51679 67.592707 
L 143.681648 64.895386 
L 146.846506 49.818406 
L 150.011364 26.993802 
L 153.176222 21.265312 
L 156.34108 21.265312 
L 159.505938 21.265312 
L 162.670795 21.265312 
L 165.835653 21.265312 
L 169.000511 21.265312 
L 172.165369 21.265312 
L 175.330227 21.265312 
L 178.495085 21.265312 
L 181.659943 21.265312 
L 184.824801 21.265312 
L 187.989659 21.265312 
L 191.154517 21.265312 
L 194.319375 21.265312 
L 197.484233 21.265312 
L 200.649091 21.265312 
L 203.813949 21.265312 
L 206.978807 21.265312 
L 210.143665 21.265312 
L 213.308523 21.265312 
L 216.473381 21.265312 
L 219.638239 21.265312 
L 222.803097 21.265312 
L 225.967955 21.265312 
L 229.132812 21.265312 
L 232.29767 21.265312 
L 235.462528 21.265312 
L 238.627386 39.453662 
L 241.792244 21.265312 
L 244.957102 21.265312 
L 248.12196 21.265312 
L 251.286818 21.265312 
L 254.451676 21.265312 
L 257.616534 21.265312 
L 260.781392 21.265312 
L 263.94625 21.265312 
L 267.111108 21.265312 
L 270.275966 21.265312 
L 273.440824 21.265312 
L 276.605682 21.265312 
L 279.77054 21.265312 
L 282.935398 21.265312 
L 286.100256 21.265312 
L 289.265114 21.265312 
L 292.429972 21.265312 
L 295.59483 21.265312 
L 298.759688 21.265312 
L 301.924545 21.265312 
L 305.089403 21.265312 
L 308.254261 34.653913 
L 311.419119 28.439105 
L 314.583977 25.22041 
L 317.748835 21.265312 
L 320.913693 21.265312 
L 324.078551 21.265312 
L 327.243409 21.265312 
L 330.408267 25.647749 
L 333.573125 57.717342 
L 336.737983 71.297815 
L 339.902841 71.737085 
L 343.067699 62.049266 
L 346.232557 33.220377 
L 349.397415 21.265312 
L 352.562273 21.265312 
L 355.727131 33.289457 
L 358.891989 37.786579 
L 362.056847 64.072541 
L 365.221705 74.93506 
L 368.386562 70.553967 
L 371.55142 58.974704 
L 374.716278 58.778586 
L 377.881136 40.814039 
L 381.045994 66.91917 
L 384.210852 85.040285 
L 387.37571 92.785635 
" clip-path="url(#p9db786e0fe)" style="fill: none; stroke: #82a954; stroke-width: 1.5; stroke-linecap: square"/>
   </g>
   <g id="line2d_17">
    <path d="M 70.889915 55.012874 
L 74.054773 48.254688 
L 77.219631 69.997112 
L 80.384489 79.198919 
L 83.549347 80.952546 
L 86.714205 42.355884 
L 89.879063 24.384609 
L 93.04392 28.521934 
L 96.208778 21.404623 
L 99.373636 21.265312 
L 102.538494 21.265312 
L 105.703352 21.265312 
L 108.86821 39.633827 
L 112.033068 21.265312 
L 115.197926 21.265312 
L 118.362784 21.265312 
L 121.527642 21.265312 
L 124.6925 21.265312 
L 127.857358 21.265312 
L 131.022216 21.265312 
L 134.187074 21.265312 
L 137.351932 21.265312 
L 140.51679 28.248184 
L 143.681648 21.265312 
L 146.846506 21.265312 
L 150.011364 21.265312 
L 153.176222 21.265312 
L 156.34108 21.265312 
L 159.505938 21.265312 
L 162.670795 53.093905 
L 165.835653 80.527713 
L 169.000511 77.052829 
L 172.165369 74.716915 
L 175.330227 61.285808 
L 178.495085 21.265312 
L 181.659943 21.265312 
L 184.824801 21.265312 
L 187.989659 21.265312 
L 191.154517 21.265312 
L 194.319375 21.265312 
L 197.484233 21.265312 
L 200.649091 21.265312 
L 203.813949 21.265312 
L 206.978807 21.265312 
L 210.143665 21.265312 
L 213.308523 21.265312 
L 216.473381 35.433451 
L 219.638239 21.265312 
L 222.803097 21.265312 
L 225.967955 21.265312 
L 229.132812 21.265312 
L 232.29767 21.265312 
L 235.462528 21.265312 
L 238.627386 21.265312 
L 241.792244 21.265312 
L 244.957102 21.265312 
L 248.12196 21.265312 
L 251.286818 21.265312 
L 254.451676 21.265312 
L 257.616534 23.064923 
L 260.781392 21.265312 
L 263.94625 21.265312 
L 267.111108 21.265312 
L 270.275966 21.265312 
L 273.440824 21.265312 
L 276.605682 21.265312 
L 279.77054 21.265312 
L 282.935398 21.265312 
L 286.100256 21.265312 
L 289.265114 21.265312 
L 292.429972 21.265312 
L 295.59483 21.265312 
L 298.759688 21.265312 
L 301.924545 21.265312 
L 305.089403 21.265312 
L 308.254261 21.265312 
L 311.419119 21.265312 
L 314.583977 21.265312 
L 317.748835 21.265312 
L 320.913693 21.265312 
L 324.078551 21.265312 
L 327.243409 21.265312 
L 330.408267 21.265312 
L 333.573125 21.265312 
L 336.737983 21.265312 
L 339.902841 21.265312 
L 343.067699 21.265312 
L 346.232557 21.265312 
L 349.397415 21.265312 
L 352.562273 21.265312 
L 355.727131 21.265312 
L 358.891989 21.265312 
L 362.056847 21.265312 
L 365.221705 30.741338 
L 368.386562 41.901579 
L 371.55142 21.265312 
L 374.716278 21.265312 
L 377.881136 21.265312 
L 381.045994 21.265312 
L 384.210852 46.359541 
L 387.37571 64.753878 
" clip-path="url(#p9db786e0fe)" style="fill: none; stroke: #b9b35f; stroke-width: 1.5; stroke-linecap: square"/>
   </g>
   <g id="line2d_18">
    <path d="M 70.889915 170.99469 
L 74.054773 21.265312 
L 77.219631 33.372806 
L 80.384489 59.511678 
L 83.549347 77.952049 
L 86.714205 76.744301 
L 89.879063 59.532952 
L 93.04392 75.177102 
L 96.208778 61.563668 
L 99.373636 70.389736 
L 102.538494 29.417288 
L 105.703352 21.265312 
L 108.86821 35.573473 
L 112.033068 21.265312 
L 115.197926 26.29716 
L 118.362784 28.497498 
L 121.527642 29.079333 
L 124.6925 39.544671 
L 127.857358 21.265312 
L 131.022216 21.265312 
L 134.187074 21.265312 
L 137.351932 21.265312 
L 140.51679 21.265312 
L 143.681648 21.265312 
L 146.846506 21.265312 
L 150.011364 21.265312 
L 153.176222 21.265312 
L 156.34108 23.695183 
L 159.505938 48.788364 
L 162.670795 81.489264 
L 165.835653 95.380633 
L 169.000511 79.942918 
L 172.165369 98.090074 
L 175.330227 93.764501 
L 178.495085 87.300668 
L 181.659943 21.265312 
L 184.824801 21.265312 
L 187.989659 21.265312 
L 191.154517 21.265312 
L 194.319375 21.265312 
L 197.484233 21.265312 
L 200.649091 21.265312 
L 203.813949 21.265312 
L 206.978807 29.517107 
L 210.143665 50.805991 
L 213.308523 66.270662 
L 216.473381 84.162208 
L 219.638239 70.631412 
L 222.803097 56.044615 
L 225.967955 50.749955 
L 229.132812 21.265312 
L 232.29767 21.265312 
L 235.462528 21.265312 
L 238.627386 21.265312 
L 241.792244 21.265312 
L 244.957102 21.265312 
L 248.12196 21.265312 
L 251.286818 21.265312 
L 254.451676 52.081968 
L 257.616534 72.829234 
L 260.781392 65.006083 
L 263.94625 50.514993 
L 267.111108 21.265312 
L 270.275966 21.265312 
L 273.440824 21.265312 
L 276.605682 21.265312 
L 279.77054 21.265312 
L 282.935398 21.265312 
L 286.100256 35.6464 
L 289.265114 44.28834 
L 292.429972 53.73102 
L 295.59483 73.933941 
L 298.759688 56.894414 
L 301.924545 21.265312 
L 305.089403 21.265312 
L 308.254261 21.265312 
L 311.419119 21.265312 
L 314.583977 21.265312 
L 317.748835 21.265312 
L 320.913693 21.265312 
L 324.078551 21.265312 
L 327.243409 21.265312 
L 330.408267 21.265312 
L 333.573125 21.265312 
L 336.737983 21.265312 
L 339.902841 21.265312 
L 343.067699 21.265312 
L 346.232557 21.265312 
L 349.397415 21.265312 
L 352.562273 21.265312 
L 355.727131 21.265312 
L 358.891989 21.265312 
L 362.056847 21.265312 
L 365.221705 21.265312 
L 368.386562 21.265312 
L 371.55142 21.265312 
L 374.716278 21.265312 
L 377.881136 21.265312 
L 381.045994 21.265312 
L 384.210852 21.265312 
L 387.37571 21.265312 
" clip-path="url(#p9db786e0fe)" style="fill: none; stroke: #d5b194; stroke-width: 1.5; stroke-linecap: square"/>
   </g>
   <g id="patch_3">
    <path d="M 55.065625 241.036875 
L 55.065625 10.8 
" style="fill: none; stroke: #000000; stroke-width: 0.8; stroke-linejoin: miter; stroke-linecap: square"/>
   </g>
   <g id="patch_4">
    <path d="M 403.2 241.036875 
L 403.2 10.8 
" style="fill: none; stroke: #000000; stroke-width: 0.8; stroke-linejoin: miter; stroke-linecap: square"/>
   </g>
   <g id="patch_5">
    <path d="M 55.065625 241.036875 
L 403.2 241.036875 
" style="fill: none; stroke: #000000; stroke-width: 0.8; stroke-linejoin: miter; stroke-linecap: square"/>
   </g>
   <g id="patch_6">
    <path d="M 55.065625 10.8 
L 403.2 10.8 
" style="fill: none; stroke: #000000; stroke-width: 0.8; stroke-linejoin: miter; stroke-linecap: square"/>
   </g>
   <g id="legend_1">
    <g id="patch_7">
     <path d="M 325.98 236.536875 
L 396.9 236.536875 
Q 398.7 236.536875 398.7 234.736875 
L 398.7 156.375 
Q 398.7 154.575 396.9 154.575 
L 325.98 154.575 
Q 324.18 154.575 324.18 156.375 
L 324.18 234.736875 
Q 324.18 236.536875 325.98 236.536875 
z
" style="fill: #ffffff; opacity: 0.8; stroke: #cccccc; stroke-linejoin: miter"/>
    </g>
    <g id="line2d_19">
     <path d="M 327.78 161.863594 
L 336.78 161.863594 
L 345.78 161.863594 
" style="fill: none; stroke: #184179; stroke-width: 1.5; stroke-linecap: square"/>
    </g>
    <g id="text_15">
     <!-- $thrForce_{0}$ -->
     <g transform="translate(352.98 165.013594) scale(0.09 -0.09)">
      <defs>
       <path id="DejaVuSans-Oblique-74" d="M 2706 3500 
L 2619 3053 
L 1472 3053 
L 1100 1153 
Q 1081 1047 1072 975 
Q 1063 903 1063 863 
Q 1063 663 1183 572 
Q 1303 481 1569 481 
L 2150 481 
L 2053 0 
L 1503 0 
Q 991 0 739 200 
Q 488 400 488 806 
Q 488 878 497 964 
Q 506 1050 525 1153 
L 897 3053 
L 409 3053 
L 500 3500 
L 978 3500 
L 1172 4494 
L 1747 4494 
L 1556 3500 
L 2706 3500 
z
" transform="scale(0.015625)"/>
       <path id="DejaVuSans-Oblique-68" d="M 3566 2113 
L 3156 0 
L 2578 0 
L 2988 2091 
Q 3016 2238 3031 2350 
Q 3047 2463 3047 2528 
Q 3047 2791 2881 2937 
Q 2716 3084 2419 3084 
Q 1956 3084 1617 2771 
Q 1278 2459 1178 1941 
L 800 0 
L 225 0 
L 1172 4863 
L 1747 4863 
L 1375 2950 
Q 1594 3244 1934 3414 
Q 2275 3584 2650 3584 
Q 3113 3584 3367 3334 
Q 3622 3084 3622 2631 
Q 3622 2519 3608 2391 
Q 3594 2263 3566 2113 
z
" transform="scale(0.015625)"/>
       <path id="DejaVuSans-Oblique-72" d="M 2853 2969 
Q 2766 3016 2653 3041 
Q 2541 3066 2413 3066 
Q 1953 3066 1609 2717 
Q 1266 2369 1153 1784 
L 800 0 
L 225 0 
L 909 3500 
L 1484 3500 
L 1375 2956 
Q 1603 3259 1920 3421 
Q 2238 3584 2597 3584 
Q 2691 3584 2781 3573 
Q 2872 3563 2963 3538 
L 2853 2969 
z
" transform="scale(0.015625)"/>
       <path id="DejaVuSans-Oblique-46" d="M 1081 4666 
L 3756 4666 
L 3653 4134 
L 1606 4134 
L 1338 2759 
L 3188 2759 
L 3084 2228 
L 1234 2228 
L 800 0 
L 172 0 
L 1081 4666 
z
" transform="scale(0.015625)"/>
       <path id="DejaVuSans-Oblique-6f" d="M 1625 -91 
Q 1009 -91 651 289 
Q 294 669 294 1325 
Q 294 1706 417 2101 
Q 541 2497 738 2766 
Q 1047 3184 1428 3384 
Q 1809 3584 2291 3584 
Q 2888 3584 3255 3212 
Q 3622 2841 3622 2241 
Q 3622 1825 3500 1412 
Q 3378 1000 3181 728 
Q 2875 309 2494 109 
Q 2113 -91 1625 -91 
z
M 891 1344 
Q 891 869 1089 633 
Q 1288 397 1691 397 
Q 2269 397 2648 901 
Q 3028 1406 3028 2181 
Q 3028 2634 2825 2865 
Q 2622 3097 2228 3097 
Q 1903 3097 1650 2945 
Q 1397 2794 1197 2484 
Q 1050 2253 970 1956 
Q 891 1659 891 1344 
z
" transform="scale(0.015625)"/>
       <path id="DejaVuSans-Oblique-63" d="M 3431 3366 
L 3316 2797 
Q 3109 2947 2876 3022 
Q 2644 3097 2394 3097 
Q 2119 3097 1870 3000 
Q 1622 2903 1453 2725 
Q 1184 2453 1037 2087 
Q 891 1722 891 1331 
Q 891 859 1127 628 
Q 1363 397 1844 397 
Q 2081 397 2348 469 
Q 2616 541 2906 684 
L 2797 116 
Q 2547 13 2283 -39 
Q 2019 -91 1741 -91 
Q 1044 -91 669 257 
Q 294 606 294 1253 
Q 294 1797 489 2255 
Q 684 2713 1069 3078 
Q 1331 3328 1684 3456 
Q 2038 3584 2456 3584 
Q 2700 3584 2940 3529 
Q 3181 3475 3431 3366 
z
" transform="scale(0.015625)"/>
       <path id="DejaVuSans-Oblique-65" d="M 3078 2063 
Q 3088 2113 3092 2166 
Q 3097 2219 3097 2272 
Q 3097 2653 2873 2875 
Q 2650 3097 2266 3097 
Q 1838 3097 1509 2826 
Q 1181 2556 1013 2059 
L 3078 2063 
z
M 3578 1613 
L 903 1613 
Q 884 1494 878 1425 
Q 872 1356 872 1306 
Q 872 872 1139 634 
Q 1406 397 1894 397 
Q 2269 397 2603 481 
Q 2938 566 3225 728 
L 3116 159 
Q 2806 34 2476 -28 
Q 2147 -91 1806 -91 
Q 1078 -91 686 257 
Q 294 606 294 1247 
Q 294 1794 489 2264 
Q 684 2734 1063 3103 
Q 1306 3334 1642 3459 
Q 1978 3584 2356 3584 
Q 2950 3584 3301 3228 
Q 3653 2872 3653 2272 
Q 3653 2128 3634 1964 
Q 3616 1800 3578 1613 
z
" transform="scale(0.015625)"/>
      </defs>
      <use xlink:href="#DejaVuSans-Oblique-74" transform="translate(0 0.015625)"/>
      <use xlink:href="#DejaVuSans-Oblique-68" transform="translate(39.208984 0.015625)"/>
      <use xlink:href="#DejaVuSans-Oblique-72" transform="translate(102.587891 0.015625)"/>
      <use xlink:href="#DejaVuSans-Oblique-46" transform="translate(143.701172 0.015625)"/>
      <use xlink:href="#DejaVuSans-Oblique-6f" transform="translate(201.220703 0.015625)"/>
      <use xlink:href="#DejaVuSans-Oblique-72" transform="translate(262.402344 0.015625)"/>
      <use xlink:href="#DejaVuSans-Oblique-63" transform="translate(303.515625 0.015625)"/>
      <use xlink:href="#DejaVuSans-Oblique-65" transform="translate(358.496094 0.015625)"/>
      <use xlink:href="#DejaVuSans-30" transform="translate(420.019531 -16.390625) scale(0.7)"/>
     </g>
    </g>
    <g id="line2d_20">
     <path d="M 327.78 175.073906 
L 336.78 175.073906 
L 345.78 175.073906 
" style="fill: none; stroke: #30817e; stroke-width: 1.5; stroke-linecap: square"/>
    </g>
    <g id="text_16">
     <!-- $thrForce_{1}$ -->
     <g transform="translate(352.98 178.223906) scale(0.09 -0.09)">
      <use xlink:href="#DejaVuSans-Oblique-74" transform="translate(0 0.015625)"/>
      <use xlink:href="#DejaVuSans-Oblique-68" transform="translate(39.208984 0.015625)"/>
      <use xlink:href="#DejaVuSans-Oblique-72" transform="translate(102.587891 0.015625)"/>
      <use xlink:href="#DejaVuSans-Oblique-46" transform="translate(143.701172 0.015625)"/>
      <use xlink:href="#DejaVuSans-Oblique-6f" transform="translate(201.220703 0.015625)"/>
      <use xlink:href="#DejaVuSans-Oblique-72" transform="translate(262.402344 0.015625)"/>
      <use xlink:href="#DejaVuSans-Oblique-63" transform="translate(303.515625 0.015625)"/>
      <use xlink:href="#DejaVuSans-Oblique-65" transform="translate(358.496094 0.015625)"/>
      <use xlink:href="#DejaVuSans-31" transform="translate(420.019531 -16.390625) scale(0.7)"/>
     </g>
    </g>
    <g id="line2d_21">
     <path d="M 327.78 188.284219 
L 336.78 188.284219 
L 345.78 188.284219 
" style="fill: none; stroke: #419552; stroke-width: 1.5; stroke-linecap: square"/>
    </g>
    <g id="text_17">
     <!-- $thrForce_{2}$ -->
     <g transform="translate(352.98 191.434219) scale(0.09 -0.09)">
      <use xlink:href="#DejaVuSans-Oblique-74" transform="translate(0 0.015625)"/>
      <use xlink:href="#DejaVuSans-Oblique-68" transform="translate(39.208984 0.015625)"/>
      <use xlink:href="#DejaVuSans-Oblique-72" transform="translate(102.587891 0.015625)"/>
      <use xlink:href="#DejaVuSans-Oblique-46" transform="translate(143.701172 0.015625)"/>
      <use xlink:href="#DejaVuSans-Oblique-6f" transform="translate(201.220703 0.015625)"/>
      <use xlink:href="#DejaVuSans-Oblique-72" transform="translate(262.402344 0.015625)"/>
      <use xlink:href="#DejaVuSans-Oblique-63" transform="translate(303.515625 0.015625)"/>
      <use xlink:href="#DejaVuSans-Oblique-65" transform="translate(358.496094 0.015625)"/>
      <use xlink:href="#DejaVuSans-32" transform="translate(420.019531 -16.390625) scale(0.7)"/>
     </g>
    </g>
    <g id="line2d_22">
     <path d="M 327.78 201.494531 
L 336.78 201.494531 
L 345.78 201.494531 
" style="fill: none; stroke: #82a954; stroke-width: 1.5; stroke-linecap: square"/>
    </g>
    <g id="text_18">
     <!-- $thrForce_{3}$ -->
     <g transform="translate(352.98 204.644531) scale(0.09 -0.09)">
      <use xlink:href="#DejaVuSans-Oblique-74" transform="translate(0 0.015625)"/>
      <use xlink:href="#DejaVuSans-Oblique-68" transform="translate(39.208984 0.015625)"/>
      <use xlink:href="#DejaVuSans-Oblique-72" transform="translate(102.587891 0.015625)"/>
      <use xlink:href="#DejaVuSans-Oblique-46" transform="translate(143.701172 0.015625)"/>
      <use xlink:href="#DejaVuSans-Oblique-6f" transform="translate(201.220703 0.015625)"/>
      <use xlink:href="#DejaVuSans-Oblique-72" transform="translate(262.402344 0.015625)"/>
      <use xlink:href="#DejaVuSans-Oblique-63" transform="translate(303.515625 0.015625)"/>
      <use xlink:href="#DejaVuSans-Oblique-65" transform="translate(358.496094 0.015625)"/>
      <use xlink:href="#DejaVuSans-33" transform="translate(420.019531 -16.390625) scale(0.7)"/>
     </g>
    </g>
    <g id="line2d_23">
     <path d="M 327.78 214.704844 
L 336.78 214.704844 
L 345.78 214.704844 
" style="fill: none; stroke: #b9b35f; stroke-width: 1.5; stroke-linecap: square"/>
    </g>
    <g id="text_19">
     <!-- $thrForce_{4}$ -->
     <g transform="translate(352.98 217.854844) scale(0.09 -0.09)">
      <use xlink:href="#DejaVuSans-Oblique-74" transform="translate(0 0.015625)"/>
      <use xlink:href="#DejaVuSans-Oblique-68" transform="translate(39.208984 0.015625)"/>
      <use xlink:href="#DejaVuSans-Oblique-72" transform="translate(102.587891 0.015625)"/>
      <use xlink:href="#DejaVuSans-Oblique-46" transform="translate(143.701172 0.015625)"/>
      <use xlink:href="#DejaVuSans-Oblique-6f" transform="translate(201.220703 0.015625)"/>
      <use xlink:href="#DejaVuSans-Oblique-72" transform="translate(262.402344 0.015625)"/>
      <use xlink:href="#DejaVuSans-Oblique-63" transform="translate(303.515625 0.015625)"/>
      <use xlink:href="#DejaVuSans-Oblique-65" transform="translate(358.496094 0.015625)"/>
      <use xlink:href="#DejaVuSans-34" transform="translate(420.019531 -16.390625) scale(0.7)"/>
     </g>
    </g>
    <g id="line2d_24">
     <path d="M 327.78 227.915156 
L 336.78 227.915156 
L 345.78 227.915156 
" style="fill: none; stroke: #d5b194; stroke-width: 1.5; stroke-linecap: square"/>
    </g>
    <g id="text_20">
     <!-- $thrForce_{5}$ -->
     <g transform="translate(352.98 231.065156) scale(0.09 -0.09)">
      <use xlink:href="#DejaVuSans-Oblique-74" transform="translate(0 0.015625)"/>
      <use xlink:href="#DejaVuSans-Oblique-68" transform="translate(39.208984 0.015625)"/>
      <use xlink:href="#DejaVuSans-Oblique-72" transform="translate(102.587891 0.015625)"/>
      <use xlink:href="#DejaVuSans-Oblique-46" transform="translate(143.701172 0.015625)"/>
      <use xlink:href="#DejaVuSans-Oblique-6f" transform="translate(201.220703 0.015625)"/>
      <use xlink:href="#DejaVuSans-Oblique-72" transform="translate(262.402344 0.015625)"/>
      <use xlink:href="#DejaVuSans-Oblique-63" transform="translate(303.515625 0.015625)"/>
      <use xlink:href="#DejaVuSans-Oblique-65" transform="translate(358.496094 0.015625)"/>
      <use xlink:href="#DejaVuSans-35" transform="translate(420.019531 -16.390625) scale(0.7)"/>
     </g>
    </g>
   </g>
  </g>
 </g>
 <defs>
  <clipPath id="p9db786e0fe">
   <rect x="55.065625" y="10.8" width="348.134375" height="230.236875"/>
  </clipPath>
 </defs>
</svg>
