<?xml version="1.0" encoding="utf-8" standalone="no"?>
<!DOCTYPE svg PUBLIC "-//W3C//DTD SVG 1.1//EN"
  "http://www.w3.org/Graphics/SVG/1.1/DTD/svg11.dtd">
<svg xmlns:xlink="http://www.w3.org/1999/xlink" width="414pt" height="180pt" viewBox="0 0 414 180" xmlns="http://www.w3.org/2000/svg" version="1.1">
 <metadata>
  <rdf:RDF xmlns:dc="http://purl.org/dc/elements/1.1/" xmlns:cc="http://creativecommons.org/ns#" xmlns:rdf="http://www.w3.org/1999/02/22-rdf-syntax-ns#">
   <cc:Work>
    <dc:type rdf:resource="http://purl.org/dc/dcmitype/StillImage"/>
    <dc:date>2026-04-02T23:00:04.604564</dc:date>
    <dc:format>image/svg+xml</dc:format>
    <dc:creator>
     <cc:Agent>
      <dc:title>Matplotlib v3.10.7, https://matplotlib.org/</dc:title>
     </cc:Agent>
    </dc:creator>
   </cc:Work>
  </rdf:RDF>
 </metadata>
 <defs>
  <style type="text/css">*{stroke-linejoin: round; stroke-linecap: butt}</style>
 </defs>
 <g id="figure_1">
  <g id="patch_1">
   <path d="M 0 180 
L 414 180 
L 414 0 
L 0 0 
L 0 180 
z
" style="fill: none"/>
  </g>
  <g id="axes_1">
   <g id="patch_2">
    <path d="M 66.216719 139.811563 
L 403.2 139.811563 
L 403.2 25.918125 
L 66.216719 25.918125 
L 66.216719 139.811563 
z
" style="fill: none"/>
   </g>
   <g id="matplotlib.axis_1">
    <g id="xtick_1">
     <g id="line2d_1">
      <defs>
       <path id="m71d95864c6" d="M 0 0 
L 0 3.5 
" style="stroke: #000000; stroke-width: 0.8"/>
      </defs>
      <g>
       <use xlink:href="#m71d95864c6" x="81.534141" y="139.811563" style="stroke: #000000; stroke-width: 0.8"/>
      </g>
     </g>
     <g id="text_1">
      <!-- 0.0 -->
      <g transform="translate(74.377734 153.650156) scale(0.09 -0.09)">
       <defs>
        <path id="DejaVuSans-30" d="M 2034 4250 
Q 1547 4250 1301 3770 
Q 1056 3291 1056 2328 
Q 1056 1369 1301 889 
Q 1547 409 2034 409 
Q 2525 409 2770 889 
Q 3016 1369 3016 2328 
Q 3016 3291 2770 3770 
Q 2525 4250 2034 4250 
z
M 2034 4750 
Q 2819 4750 3233 4129 
Q 3647 3509 3647 2328 
Q 3647 1150 3233 529 
Q 2819 -91 2034 -91 
Q 1250 -91 836 529 
Q 422 1150 422 2328 
Q 422 3509 836 4129 
Q 1250 4750 2034 4750 
z
" transform="scale(0.015625)"/>
        <path id="DejaVuSans-2e" d="M 684 794 
L 1344 794 
L 1344 0 
L 684 0 
L 684 794 
z
" transform="scale(0.015625)"/>
       </defs>
       <use xlink:href="#DejaVuSans-30"/>
       <use xlink:href="#DejaVuSans-2e" transform="translate(63.623047 0)"/>
       <use xlink:href="#DejaVuSans-30" transform="translate(95.410156 0)"/>
      </g>
     </g>
    </g>
    <g id="xtick_2">
     <g id="line2d_2">
      <g>
       <use xlink:href="#m71d95864c6" x="142.812463" y="139.811563" style="stroke: #000000; stroke-width: 0.8"/>
      </g>
     </g>
     <g id="text_2">
      <!-- 0.2 -->
      <g transform="translate(135.656057 153.650156) scale(0.09 -0.09)">
       <defs>
        <path id="DejaVuSans-32" d="M 1228 531 
L 3431 531 
L 3431 0 
L 469 0 
L 469 531 
Q 828 903 1448 1529 
Q 2069 2156 2228 2338 
Q 2531 2678 2651 2914 
Q 2772 3150 2772 3378 
Q 2772 3750 2511 3984 
Q 2250 4219 1831 4219 
Q 1534 4219 1204 4116 
Q 875 4013 500 3803 
L 500 4441 
Q 881 4594 1212 4672 
Q 1544 4750 1819 4750 
Q 2544 4750 2975 4387 
Q 3406 4025 3406 3419 
Q 3406 3131 3298 2873 
Q 3191 2616 2906 2266 
Q 2828 2175 2409 1742 
Q 1991 1309 1228 531 
z
" transform="scale(0.015625)"/>
       </defs>
       <use xlink:href="#DejaVuSans-30"/>
       <use xlink:href="#DejaVuSans-2e" transform="translate(63.623047 0)"/>
       <use xlink:href="#DejaVuSans-32" transform="translate(95.410156 0)"/>
      </g>
     </g>
    </g>
    <g id="xtick_3">
     <g id="line2d_3">
      <g>
       <use xlink:href="#m71d95864c6" x="204.090785" y="139.811563" style="stroke: #000000; stroke-width: 0.8"/>
      </g>
     </g>
     <g id="text_3">
      <!-- 0.4 -->
      <g transform="translate(196.934379 153.650156) scale(0.09 -0.09)">
       <defs>
        <path id="DejaVuSans-34" d="M 2419 4116 
L 825 1625 
L 2419 1625 
L 2419 4116 
z
M 2253 4666 
L 3047 4666 
L 3047 1625 
L 3713 1625 
L 3713 1100 
L 3047 1100 
L 3047 0 
L 2419 0 
L 2419 1100 
L 313 1100 
L 313 1709 
L 2253 4666 
z
" transform="scale(0.015625)"/>
       </defs>
       <use xlink:href="#DejaVuSans-30"/>
       <use xlink:href="#DejaVuSans-2e" transform="translate(63.623047 0)"/>
       <use xlink:href="#DejaVuSans-34" transform="translate(95.410156 0)"/>
      </g>
     </g>
    </g>
    <g id="xtick_4">
     <g id="line2d_4">
      <g>
       <use xlink:href="#m71d95864c6" x="265.369108" y="139.811563" style="stroke: #000000; stroke-width: 0.8"/>
      </g>
     </g>
     <g id="text_4">
      <!-- 0.6 -->
      <g transform="translate(258.212701 153.650156) scale(0.09 -0.09)">
       <defs>
        <path id="DejaVuSans-36" d="M 2113 2584 
Q 1688 2584 1439 2293 
Q 1191 2003 1191 1497 
Q 1191 994 1439 701 
Q 1688 409 2113 409 
Q 2538 409 2786 701 
Q 3034 994 3034 1497 
Q 3034 2003 2786 2293 
Q 2538 2584 2113 2584 
z
M 3366 4563 
L 3366 3988 
Q 3128 4100 2886 4159 
Q 2644 4219 2406 4219 
Q 1781 4219 1451 3797 
Q 1122 3375 1075 2522 
Q 1259 2794 1537 2939 
Q 1816 3084 2150 3084 
Q 2853 3084 3261 2657 
Q 3669 2231 3669 1497 
Q 3669 778 3244 343 
Q 2819 -91 2113 -91 
Q 1303 -91 875 529 
Q 447 1150 447 2328 
Q 447 3434 972 4092 
Q 1497 4750 2381 4750 
Q 2619 4750 2861 4703 
Q 3103 4656 3366 4563 
z
" transform="scale(0.015625)"/>
       </defs>
       <use xlink:href="#DejaVuSans-30"/>
       <use xlink:href="#DejaVuSans-2e" transform="translate(63.623047 0)"/>
       <use xlink:href="#DejaVuSans-36" transform="translate(95.410156 0)"/>
      </g>
     </g>
    </g>
    <g id="xtick_5">
     <g id="line2d_5">
      <g>
       <use xlink:href="#m71d95864c6" x="326.64743" y="139.811563" style="stroke: #000000; stroke-width: 0.8"/>
      </g>
     </g>
     <g id="text_5">
      <!-- 0.8 -->
      <g transform="translate(319.491024 153.650156) scale(0.09 -0.09)">
       <defs>
        <path id="DejaVuSans-38" d="M 2034 2216 
Q 1584 2216 1326 1975 
Q 1069 1734 1069 1313 
Q 1069 891 1326 650 
Q 1584 409 2034 409 
Q 2484 409 2743 651 
Q 3003 894 3003 1313 
Q 3003 1734 2745 1975 
Q 2488 2216 2034 2216 
z
M 1403 2484 
Q 997 2584 770 2862 
Q 544 3141 544 3541 
Q 544 4100 942 4425 
Q 1341 4750 2034 4750 
Q 2731 4750 3128 4425 
Q 3525 4100 3525 3541 
Q 3525 3141 3298 2862 
Q 3072 2584 2669 2484 
Q 3125 2378 3379 2068 
Q 3634 1759 3634 1313 
Q 3634 634 3220 271 
Q 2806 -91 2034 -91 
Q 1263 -91 848 271 
Q 434 634 434 1313 
Q 434 1759 690 2068 
Q 947 2378 1403 2484 
z
M 1172 3481 
Q 1172 3119 1398 2916 
Q 1625 2713 2034 2713 
Q 2441 2713 2670 2916 
Q 2900 3119 2900 3481 
Q 2900 3844 2670 4047 
Q 2441 4250 2034 4250 
Q 1625 4250 1398 4047 
Q 1172 3844 1172 3481 
z
" transform="scale(0.015625)"/>
       </defs>
       <use xlink:href="#DejaVuSans-30"/>
       <use xlink:href="#DejaVuSans-2e" transform="translate(63.623047 0)"/>
       <use xlink:href="#DejaVuSans-38" transform="translate(95.410156 0)"/>
      </g>
     </g>
    </g>
    <g id="xtick_6">
     <g id="line2d_6">
      <g>
       <use xlink:href="#m71d95864c6" x="387.925752" y="139.811563" style="stroke: #000000; stroke-width: 0.8"/>
      </g>
     </g>
     <g id="text_6">
      <!-- 1.0 -->
      <g transform="translate(380.769346 153.650156) scale(0.09 -0.09)">
       <defs>
        <path id="DejaVuSans-31" d="M 794 531 
L 1825 531 
L 1825 4091 
L 703 3866 
L 703 4441 
L 1819 4666 
L 2450 4666 
L 2450 531 
L 3481 531 
L 3481 0 
L 794 0 
L 794 531 
z
" transform="scale(0.015625)"/>
       </defs>
       <use xlink:href="#DejaVuSans-31"/>
       <use xlink:href="#DejaVuSans-2e" transform="translate(63.623047 0)"/>
       <use xlink:href="#DejaVuSans-30" transform="translate(95.410156 0)"/>
      </g>
     </g>
    </g>
    <g id="text_7">
     <!-- Time [orbits] -->
     <g transform="translate(202.741172 167.120313) scale(0.1 -0.1)">
      <defs>
       <path id="DejaVuSans-54" d="M -19 4666 
L 3928 4666 
L 3928 4134 
L 2272 4134 
L 2272 0 
L 1638 0 
L 1638 4134 
L -19 4134 
L -19 4666 
z
" transform="scale(0.015625)"/>
       <path id="DejaVuSans-69" d="M 603 3500 
L 1178 3500 
L 1178 0 
L 603 0 
L 603 3500 
z
M 603 4863 
L 1178 4863 
L 1178 4134 
L 603 4134 
L 603 4863 
z
" transform="scale(0.015625)"/>
       <path id="DejaVuSans-6d" d="M 3328 2828 
Q 3544 3216 3844 3400 
Q 4144 3584 4550 3584 
Q 5097 3584 5394 3201 
Q 5691 2819 5691 2113 
L 5691 0 
L 5113 0 
L 5113 2094 
Q 5113 2597 4934 2840 
Q 4756 3084 4391 3084 
Q 3944 3084 3684 2787 
Q 3425 2491 3425 1978 
L 3425 0 
L 2847 0 
L 2847 2094 
Q 2847 2600 2669 2842 
Q 2491 3084 2119 3084 
Q 1678 3084 1418 2786 
Q 1159 2488 1159 1978 
L 1159 0 
L 581 0 
L 581 3500 
L 1159 3500 
L 1159 2956 
Q 1356 3278 1631 3431 
Q 1906 3584 2284 3584 
Q 2666 3584 2933 3390 
Q 3200 3197 3328 2828 
z
" transform="scale(0.015625)"/>
       <path id="DejaVuSans-65" d="M 3597 1894 
L 3597 1613 
L 953 1613 
Q 991 1019 1311 708 
Q 1631 397 2203 397 
Q 2534 397 2845 478 
Q 3156 559 3463 722 
L 3463 178 
Q 3153 47 2828 -22 
Q 2503 -91 2169 -91 
Q 1331 -91 842 396 
Q 353 884 353 1716 
Q 353 2575 817 3079 
Q 1281 3584 2069 3584 
Q 2775 3584 3186 3129 
Q 3597 2675 3597 1894 
z
M 3022 2063 
Q 3016 2534 2758 2815 
Q 2500 3097 2075 3097 
Q 1594 3097 1305 2825 
Q 1016 2553 972 2059 
L 3022 2063 
z
" transform="scale(0.015625)"/>
       <path id="DejaVuSans-20" transform="scale(0.015625)"/>
       <path id="DejaVuSans-5b" d="M 550 4863 
L 1875 4863 
L 1875 4416 
L 1125 4416 
L 1125 -397 
L 1875 -397 
L 1875 -844 
L 550 -844 
L 550 4863 
z
" transform="scale(0.015625)"/>
       <path id="DejaVuSans-6f" d="M 1959 3097 
Q 1497 3097 1228 2736 
Q 959 2375 959 1747 
Q 959 1119 1226 758 
Q 1494 397 1959 397 
Q 2419 397 2687 759 
Q 2956 1122 2956 1747 
Q 2956 2369 2687 2733 
Q 2419 3097 1959 3097 
z
M 1959 3584 
Q 2709 3584 3137 3096 
Q 3566 2609 3566 1747 
Q 3566 888 3137 398 
Q 2709 -91 1959 -91 
Q 1206 -91 779 398 
Q 353 888 353 1747 
Q 353 2609 779 3096 
Q 1206 3584 1959 3584 
z
" transform="scale(0.015625)"/>
       <path id="DejaVuSans-72" d="M 2631 2963 
Q 2534 3019 2420 3045 
Q 2306 3072 2169 3072 
Q 1681 3072 1420 2755 
Q 1159 2438 1159 1844 
L 1159 0 
L 581 0 
L 581 3500 
L 1159 3500 
L 1159 2956 
Q 1341 3275 1631 3429 
Q 1922 3584 2338 3584 
Q 2397 3584 2469 3576 
Q 2541 3569 2628 3553 
L 2631 2963 
z
" transform="scale(0.015625)"/>
       <path id="DejaVuSans-62" d="M 3116 1747 
Q 3116 2381 2855 2742 
Q 2594 3103 2138 3103 
Q 1681 3103 1420 2742 
Q 1159 2381 1159 1747 
Q 1159 1113 1420 752 
Q 1681 391 2138 391 
Q 2594 391 2855 752 
Q 3116 1113 3116 1747 
z
M 1159 2969 
Q 1341 3281 1617 3432 
Q 1894 3584 2278 3584 
Q 2916 3584 3314 3078 
Q 3713 2572 3713 1747 
Q 3713 922 3314 415 
Q 2916 -91 2278 -91 
Q 1894 -91 1617 61 
Q 1341 213 1159 525 
L 1159 0 
L 581 0 
L 581 4863 
L 1159 4863 
L 1159 2969 
z
" transform="scale(0.015625)"/>
       <path id="DejaVuSans-74" d="M 1172 4494 
L 1172 3500 
L 2356 3500 
L 2356 3053 
L 1172 3053 
L 1172 1153 
Q 1172 725 1289 603 
Q 1406 481 1766 481 
L 2356 481 
L 2356 0 
L 1766 0 
Q 1100 0 847 248 
Q 594 497 594 1153 
L 594 3053 
L 172 3053 
L 172 3500 
L 594 3500 
L 594 4494 
L 1172 4494 
z
" transform="scale(0.015625)"/>
       <path id="DejaVuSans-73" d="M 2834 3397 
L 2834 2853 
Q 2591 2978 2328 3040 
Q 2066 3103 1784 3103 
Q 1356 3103 1142 2972 
Q 928 2841 928 2578 
Q 928 2378 1081 2264 
Q 1234 2150 1697 2047 
L 1894 2003 
Q 2506 1872 2764 1633 
Q 3022 1394 3022 966 
Q 3022 478 2636 193 
Q 2250 -91 1575 -91 
Q 1294 -91 989 -36 
Q 684 19 347 128 
L 347 722 
Q 666 556 975 473 
Q 1284 391 1588 391 
Q 1994 391 2212 530 
Q 2431 669 2431 922 
Q 2431 1156 2273 1281 
Q 2116 1406 1581 1522 
L 1381 1569 
Q 847 1681 609 1914 
Q 372 2147 372 2553 
Q 372 3047 722 3315 
Q 1072 3584 1716 3584 
Q 2034 3584 2315 3537 
Q 2597 3491 2834 3397 
z
" transform="scale(0.015625)"/>
       <path id="DejaVuSans-5d" d="M 1947 4863 
L 1947 -844 
L 622 -844 
L 622 -397 
L 1369 -397 
L 1369 4416 
L 622 4416 
L 622 4863 
L 1947 4863 
z
" transform="scale(0.015625)"/>
      </defs>
      <use xlink:href="#DejaVuSans-54"/>
      <use xlink:href="#DejaVuSans-69" transform="translate(57.958984 0)"/>
      <use xlink:href="#DejaVuSans-6d" transform="translate(85.742188 0)"/>
      <use xlink:href="#DejaVuSans-65" transform="translate(183.154297 0)"/>
      <use xlink:href="#DejaVuSans-20" transform="translate(244.677734 0)"/>
      <use xlink:href="#DejaVuSans-5b" transform="translate(276.464844 0)"/>
      <use xlink:href="#DejaVuSans-6f" transform="translate(315.478516 0)"/>
      <use xlink:href="#DejaVuSans-72" transform="translate(376.660156 0)"/>
      <use xlink:href="#DejaVuSans-62" transform="translate(417.773438 0)"/>
      <use xlink:href="#DejaVuSans-69" transform="translate(481.25 0)"/>
      <use xlink:href="#DejaVuSans-74" transform="translate(509.033203 0)"/>
      <use xlink:href="#DejaVuSans-73" transform="translate(548.242188 0)"/>
      <use xlink:href="#DejaVuSans-5d" transform="translate(600.341797 0)"/>
     </g>
    </g>
   </g>
   <g id="matplotlib.axis_2">
    <g id="ytick_1">
     <g id="line2d_7">
      <defs>
       <path id="m8e429fbd85" d="M 0 0 
L -3.5 0 
" style="stroke: #000000; stroke-width: 0.8"/>
      </defs>
      <g>
       <use xlink:href="#m8e429fbd85" x="66.216719" y="121.514747" style="stroke: #000000; stroke-width: 0.8"/>
      </g>
     </g>
     <g id="text_8">
      <!-- -20,000 -->
      <g transform="translate(24.478125 124.934044) scale(0.09 -0.09)">
       <defs>
        <path id="DejaVuSans-2d" d="M 313 2009 
L 1997 2009 
L 1997 1497 
L 313 1497 
L 313 2009 
z
" transform="scale(0.015625)"/>
        <path id="DejaVuSans-2c" d="M 750 794 
L 1409 794 
L 1409 256 
L 897 -744 
L 494 -744 
L 750 256 
L 750 794 
z
" transform="scale(0.015625)"/>
       </defs>
       <use xlink:href="#DejaVuSans-2d"/>
       <use xlink:href="#DejaVuSans-32" transform="translate(36.083984 0)"/>
       <use xlink:href="#DejaVuSans-30" transform="translate(99.707031 0)"/>
       <use xlink:href="#DejaVuSans-2c" transform="translate(163.330078 0)"/>
       <use xlink:href="#DejaVuSans-30" transform="translate(195.117188 0)"/>
       <use xlink:href="#DejaVuSans-30" transform="translate(258.740234 0)"/>
       <use xlink:href="#DejaVuSans-30" transform="translate(322.363281 0)"/>
      </g>
     </g>
    </g>
    <g id="ytick_2">
     <g id="line2d_8">
      <g>
       <use xlink:href="#m8e429fbd85" x="66.216719" y="90.449833" style="stroke: #000000; stroke-width: 0.8"/>
      </g>
     </g>
     <g id="text_9">
      <!-- -10,000 -->
      <g transform="translate(24.478125 93.86913) scale(0.09 -0.09)">
       <use xlink:href="#DejaVuSans-2d"/>
       <use xlink:href="#DejaVuSans-31" transform="translate(36.083984 0)"/>
       <use xlink:href="#DejaVuSans-30" transform="translate(99.707031 0)"/>
       <use xlink:href="#DejaVuSans-2c" transform="translate(163.330078 0)"/>
       <use xlink:href="#DejaVuSans-30" transform="translate(195.117188 0)"/>
       <use xlink:href="#DejaVuSans-30" transform="translate(258.740234 0)"/>
       <use xlink:href="#DejaVuSans-30" transform="translate(322.363281 0)"/>
      </g>
     </g>
    </g>
    <g id="ytick_3">
     <g id="line2d_9">
      <g>
       <use xlink:href="#m8e429fbd85" x="66.216719" y="59.38492" style="stroke: #000000; stroke-width: 0.8"/>
      </g>
     </g>
     <g id="text_10">
      <!-- 0 -->
      <g transform="translate(53.490469 62.804217) scale(0.09 -0.09)">
       <use xlink:href="#DejaVuSans-30"/>
      </g>
     </g>
    </g>
    <g id="ytick_4">
     <g id="line2d_10">
      <g>
       <use xlink:href="#m8e429fbd85" x="66.216719" y="28.320006" style="stroke: #000000; stroke-width: 0.8"/>
      </g>
     </g>
     <g id="text_11">
      <!-- 10,000 -->
      <g transform="translate(27.725156 31.739303) scale(0.09 -0.09)">
       <use xlink:href="#DejaVuSans-31"/>
       <use xlink:href="#DejaVuSans-30" transform="translate(63.623047 0)"/>
       <use xlink:href="#DejaVuSans-2c" transform="translate(127.246094 0)"/>
       <use xlink:href="#DejaVuSans-30" transform="translate(159.033203 0)"/>
       <use xlink:href="#DejaVuSans-30" transform="translate(222.65625 0)"/>
       <use xlink:href="#DejaVuSans-30" transform="translate(286.279297 0)"/>
      </g>
     </g>
    </g>
    <g id="text_12">
     <!-- Magnetic Field [nT]  -->
     <g transform="translate(18.398438 132.194531) rotate(-90) scale(0.1 -0.1)">
      <defs>
       <path id="DejaVuSans-4d" d="M 628 4666 
L 1569 4666 
L 2759 1491 
L 3956 4666 
L 4897 4666 
L 4897 0 
L 4281 0 
L 4281 4097 
L 3078 897 
L 2444 897 
L 1241 4097 
L 1241 0 
L 628 0 
L 628 4666 
z
" transform="scale(0.015625)"/>
       <path id="DejaVuSans-61" d="M 2194 1759 
Q 1497 1759 1228 1600 
Q 959 1441 959 1056 
Q 959 750 1161 570 
Q 1363 391 1709 391 
Q 2188 391 2477 730 
Q 2766 1069 2766 1631 
L 2766 1759 
L 2194 1759 
z
M 3341 1997 
L 3341 0 
L 2766 0 
L 2766 531 
Q 2569 213 2275 61 
Q 1981 -91 1556 -91 
Q 1019 -91 701 211 
Q 384 513 384 1019 
Q 384 1609 779 1909 
Q 1175 2209 1959 2209 
L 2766 2209 
L 2766 2266 
Q 2766 2663 2505 2880 
Q 2244 3097 1772 3097 
Q 1472 3097 1187 3025 
Q 903 2953 641 2809 
L 641 3341 
Q 956 3463 1253 3523 
Q 1550 3584 1831 3584 
Q 2591 3584 2966 3190 
Q 3341 2797 3341 1997 
z
" transform="scale(0.015625)"/>
       <path id="DejaVuSans-67" d="M 2906 1791 
Q 2906 2416 2648 2759 
Q 2391 3103 1925 3103 
Q 1463 3103 1205 2759 
Q 947 2416 947 1791 
Q 947 1169 1205 825 
Q 1463 481 1925 481 
Q 2391 481 2648 825 
Q 2906 1169 2906 1791 
z
M 3481 434 
Q 3481 -459 3084 -895 
Q 2688 -1331 1869 -1331 
Q 1566 -1331 1297 -1286 
Q 1028 -1241 775 -1147 
L 775 -588 
Q 1028 -725 1275 -790 
Q 1522 -856 1778 -856 
Q 2344 -856 2625 -561 
Q 2906 -266 2906 331 
L 2906 616 
Q 2728 306 2450 153 
Q 2172 0 1784 0 
Q 1141 0 747 490 
Q 353 981 353 1791 
Q 353 2603 747 3093 
Q 1141 3584 1784 3584 
Q 2172 3584 2450 3431 
Q 2728 3278 2906 2969 
L 2906 3500 
L 3481 3500 
L 3481 434 
z
" transform="scale(0.015625)"/>
       <path id="DejaVuSans-6e" d="M 3513 2113 
L 3513 0 
L 2938 0 
L 2938 2094 
Q 2938 2591 2744 2837 
Q 2550 3084 2163 3084 
Q 1697 3084 1428 2787 
Q 1159 2491 1159 1978 
L 1159 0 
L 581 0 
L 581 3500 
L 1159 3500 
L 1159 2956 
Q 1366 3272 1645 3428 
Q 1925 3584 2291 3584 
Q 2894 3584 3203 3211 
Q 3513 2838 3513 2113 
z
" transform="scale(0.015625)"/>
       <path id="DejaVuSans-63" d="M 3122 3366 
L 3122 2828 
Q 2878 2963 2633 3030 
Q 2388 3097 2138 3097 
Q 1578 3097 1268 2742 
Q 959 2388 959 1747 
Q 959 1106 1268 751 
Q 1578 397 2138 397 
Q 2388 397 2633 464 
Q 2878 531 3122 666 
L 3122 134 
Q 2881 22 2623 -34 
Q 2366 -91 2075 -91 
Q 1284 -91 818 406 
Q 353 903 353 1747 
Q 353 2603 823 3093 
Q 1294 3584 2113 3584 
Q 2378 3584 2631 3529 
Q 2884 3475 3122 3366 
z
" transform="scale(0.015625)"/>
       <path id="DejaVuSans-46" d="M 628 4666 
L 3309 4666 
L 3309 4134 
L 1259 4134 
L 1259 2759 
L 3109 2759 
L 3109 2228 
L 1259 2228 
L 1259 0 
L 628 0 
L 628 4666 
z
" transform="scale(0.015625)"/>
       <path id="DejaVuSans-6c" d="M 603 4863 
L 1178 4863 
L 1178 0 
L 603 0 
L 603 4863 
z
" transform="scale(0.015625)"/>
       <path id="DejaVuSans-64" d="M 2906 2969 
L 2906 4863 
L 3481 4863 
L 3481 0 
L 2906 0 
L 2906 525 
Q 2725 213 2448 61 
Q 2172 -91 1784 -91 
Q 1150 -91 751 415 
Q 353 922 353 1747 
Q 353 2572 751 3078 
Q 1150 3584 1784 3584 
Q 2172 3584 2448 3432 
Q 2725 3281 2906 2969 
z
M 947 1747 
Q 947 1113 1208 752 
Q 1469 391 1925 391 
Q 2381 391 2643 752 
Q 2906 1113 2906 1747 
Q 2906 2381 2643 2742 
Q 2381 3103 1925 3103 
Q 1469 3103 1208 2742 
Q 947 2381 947 1747 
z
" transform="scale(0.015625)"/>
      </defs>
      <use xlink:href="#DejaVuSans-4d"/>
      <use xlink:href="#DejaVuSans-61" transform="translate(86.279297 0)"/>
      <use xlink:href="#DejaVuSans-67" transform="translate(147.558594 0)"/>
      <use xlink:href="#DejaVuSans-6e" transform="translate(211.035156 0)"/>
      <use xlink:href="#DejaVuSans-65" transform="translate(274.414062 0)"/>
      <use xlink:href="#DejaVuSans-74" transform="translate(335.9375 0)"/>
      <use xlink:href="#DejaVuSans-69" transform="translate(375.146484 0)"/>
      <use xlink:href="#DejaVuSans-63" transform="translate(402.929688 0)"/>
      <use xlink:href="#DejaVuSans-20" transform="translate(457.910156 0)"/>
      <use xlink:href="#DejaVuSans-46" transform="translate(489.697266 0)"/>
      <use xlink:href="#DejaVuSans-69" transform="translate(539.966797 0)"/>
      <use xlink:href="#DejaVuSans-65" transform="translate(567.75 0)"/>
      <use xlink:href="#DejaVuSans-6c" transform="translate(629.273438 0)"/>
      <use xlink:href="#DejaVuSans-64" transform="translate(657.056641 0)"/>
      <use xlink:href="#DejaVuSans-20" transform="translate(720.533203 0)"/>
      <use xlink:href="#DejaVuSans-5b" transform="translate(752.320312 0)"/>
      <use xlink:href="#DejaVuSans-6e" transform="translate(791.333984 0)"/>
      <use xlink:href="#DejaVuSans-54" transform="translate(854.712891 0)"/>
      <use xlink:href="#DejaVuSans-5d" transform="translate(915.796875 0)"/>
      <use xlink:href="#DejaVuSans-20" transform="translate(954.810547 0)"/>
     </g>
    </g>
   </g>
   <g id="line2d_11">
    <path d="M 81.534141 66.006962 
L 84.479799 63.440061 
L 87.425457 59.758063 
L 90.371115 56.573806 
L 93.316773 54.781192 
L 96.262431 51.233611 
L 99.208089 49.84232 
L 102.153747 51.342986 
L 105.099405 49.775473 
L 108.045063 49.096991 
L 110.990721 46.920966 
L 113.936379 47.978678 
L 116.882037 48.872793 
L 119.827695 48.380292 
L 122.773353 49.384187 
L 125.719011 50.890034 
L 128.664669 49.364407 
L 131.610328 48.462196 
L 134.555986 50.154643 
L 137.501644 51.393515 
L 140.447302 53.192521 
L 143.39296 53.612702 
L 146.338618 53.001249 
L 149.284276 52.709707 
L 152.229934 53.817136 
L 155.175592 52.339091 
L 158.12125 49.628653 
L 161.066908 50.684378 
L 164.012566 51.074623 
L 166.958224 51.692503 
L 169.903882 53.485791 
L 172.84954 53.316189 
L 175.795198 54.352732 
L 178.740856 54.864284 
L 181.686514 56.566289 
L 184.632172 57.118235 
L 187.577831 57.374951 
L 190.523489 60.325241 
L 193.469147 61.7537 
L 196.414805 60.845667 
L 199.360463 59.687833 
L 202.306121 61.422825 
L 205.251779 61.311048 
L 208.197437 63.904311 
L 211.143095 63.230444 
L 214.088753 64.747966 
L 217.034411 65.014415 
L 219.980069 65.677526 
L 222.925727 65.913279 
L 225.871385 65.291614 
L 228.817043 65.301706 
L 231.762701 64.599646 
L 234.708359 64.871217 
L 237.654017 63.814374 
L 240.599675 64.171078 
L 243.545334 63.159405 
L 246.490992 63.963997 
L 249.43665 64.068948 
L 252.382308 62.758284 
L 255.327966 63.008286 
L 258.273624 66.10187 
L 261.219282 66.242717 
L 264.16494 64.473516 
L 267.110598 63.39942 
L 270.056256 64.536708 
L 273.001914 63.772187 
L 275.947572 64.029012 
L 278.89323 62.272584 
L 281.838888 62.680393 
L 284.784546 63.235071 
L 287.730204 64.330058 
L 290.675862 65.291318 
L 293.62152 65.200081 
L 296.567178 64.318064 
L 299.512837 65.85541 
L 302.458495 66.645415 
L 305.404153 70.761453 
L 308.349811 73.857842 
L 311.295469 75.10593 
L 314.241127 74.441263 
L 317.186785 77.25309 
L 320.132443 80.082572 
L 323.078101 80.272419 
L 326.023759 79.289056 
L 328.969417 79.073532 
L 331.915075 75.105971 
L 334.860733 72.551071 
L 337.806391 67.928252 
L 340.752049 60.012291 
L 343.697707 49.904846 
L 346.643365 34.166037 
L 349.589023 70.93928 
L 352.534681 71.079391 
L 355.48034 70.294399 
L 358.425998 69.957291 
L 361.371656 70.85846 
L 364.317314 69.662918 
L 367.262972 69.230057 
L 370.20863 69.292897 
L 373.154288 71.377827 
L 376.099946 69.118768 
L 379.045604 96.014627 
L 381.991262 87.191081 
L 384.93692 81.058767 
L 387.882578 77.612392 
" clip-path="url(#p73effe1761)" style="fill: none; stroke: #2b737e; stroke-width: 1.5; stroke-linecap: square"/>
   </g>
   <g id="line2d_12">
    <path d="M 81.534141 81.162347 
L 84.479799 76.202809 
L 87.425457 70.723714 
L 90.371115 68.567225 
L 93.316773 64.575049 
L 96.262431 64.374033 
L 99.208089 61.910688 
L 102.153747 62.296622 
L 105.099405 61.779217 
L 108.045063 61.401516 
L 110.990721 62.318707 
L 113.936379 61.970841 
L 116.882037 60.537215 
L 119.827695 60.908347 
L 122.773353 61.808728 
L 125.719011 62.330415 
L 128.664669 62.868392 
L 131.610328 61.70837 
L 134.555986 62.495683 
L 137.501644 62.485386 
L 140.447302 66.03474 
L 143.39296 64.183411 
L 146.338618 66.240663 
L 149.284276 67.119724 
L 152.229934 68.715531 
L 155.175592 69.754103 
L 158.12125 70.260486 
L 161.066908 69.223214 
L 164.012566 68.796822 
L 166.958224 69.968159 
L 169.903882 71.046277 
L 172.84954 71.63666 
L 175.795198 72.717737 
L 178.740856 72.334979 
L 181.686514 71.332179 
L 184.632172 69.568111 
L 187.577831 70.645763 
L 190.523489 72.724297 
L 193.469147 71.300823 
L 196.414805 71.573285 
L 199.360463 73.41888 
L 202.306121 72.690741 
L 205.251779 74.147437 
L 208.197437 72.090851 
L 211.143095 72.172046 
L 214.088753 70.032844 
L 217.034411 69.990471 
L 219.980069 72.161611 
L 222.925727 74.371533 
L 225.871385 74.340661 
L 228.817043 75.093308 
L 231.762701 75.863049 
L 234.708359 74.979365 
L 237.654017 75.722849 
L 240.599675 74.274124 
L 243.545334 76.16336 
L 246.490992 77.242204 
L 249.43665 77.094487 
L 252.382308 77.416984 
L 255.327966 77.840828 
L 258.273624 77.175992 
L 261.219282 76.776974 
L 264.16494 75.888638 
L 267.110598 78.364742 
L 270.056256 79.216602 
L 273.001914 78.640874 
L 275.947572 77.588806 
L 278.89323 78.743592 
L 281.838888 78.233167 
L 284.784546 78.820715 
L 287.730204 79.563701 
L 290.675862 81.090441 
L 293.62152 79.404722 
L 296.567178 80.956241 
L 299.512837 81.040341 
L 302.458495 80.004176 
L 305.404153 81.7587 
L 308.349811 83.299344 
L 311.295469 86.586057 
L 314.241127 87.770938 
L 317.186785 91.252876 
L 320.132443 91.03849 
L 323.078101 92.53007 
L 326.023759 93.191909 
L 328.969417 94.317085 
L 331.915075 95.014032 
L 334.860733 93.552192 
L 337.806391 89.447322 
L 340.752049 85.758998 
L 343.697707 77.52463 
L 346.643365 65.204092 
L 349.589023 78.582294 
L 352.534681 78.242583 
L 355.48034 78.204153 
L 358.425998 78.285432 
L 361.371656 75.340327 
L 364.317314 75.089563 
L 367.262972 74.22414 
L 370.20863 72.578378 
L 373.154288 72.71077 
L 376.099946 74.793635 
L 379.045604 123.553856 
L 381.991262 112.599629 
L 384.93692 104.328042 
L 387.882578 95.237712 
" clip-path="url(#p73effe1761)" style="fill: none; stroke: #5ea04b; stroke-width: 1.5; stroke-linecap: square"/>
   </g>
   <g id="line2d_13">
    <path d="M 81.534141 100.018291 
L 84.479799 96.878037 
L 87.425457 93.964555 
L 90.371115 92.300988 
L 93.316773 89.995856 
L 96.262431 86.308552 
L 99.208089 81.825846 
L 102.153747 79.645712 
L 105.099405 77.538605 
L 108.045063 74.542808 
L 110.990721 73.420912 
L 113.936379 69.841251 
L 116.882037 66.200786 
L 119.827695 66.9154 
L 122.773353 67.175075 
L 125.719011 65.974438 
L 128.664669 63.216277 
L 131.610328 61.641612 
L 134.555986 62.536711 
L 137.501644 62.170182 
L 140.447302 63.838857 
L 143.39296 63.787745 
L 146.338618 62.405446 
L 149.284276 64.696869 
L 152.229934 64.445581 
L 155.175592 64.851897 
L 158.12125 67.462179 
L 161.066908 66.894614 
L 164.012566 63.59146 
L 166.958224 61.432447 
L 169.903882 60.276572 
L 172.84954 59.892579 
L 175.795198 59.36063 
L 178.740856 58.585317 
L 181.686514 60.099722 
L 184.632172 58.872843 
L 187.577831 58.499164 
L 190.523489 59.754532 
L 193.469147 60.519329 
L 196.414805 61.380671 
L 199.360463 60.333091 
L 202.306121 60.321639 
L 205.251779 61.502449 
L 208.197437 61.9316 
L 211.143095 59.537849 
L 214.088753 60.962114 
L 217.034411 60.316073 
L 219.980069 59.475409 
L 222.925727 59.573691 
L 225.871385 60.889286 
L 228.817043 59.726823 
L 231.762701 58.637431 
L 234.708359 58.829703 
L 237.654017 60.784114 
L 240.599675 59.331343 
L 243.545334 59.175457 
L 246.490992 61.021576 
L 249.43665 63.348737 
L 252.382308 62.39311 
L 255.327966 61.816911 
L 258.273624 61.197067 
L 261.219282 61.62695 
L 264.16494 61.602435 
L 267.110598 64.152842 
L 270.056256 64.288593 
L 273.001914 62.476153 
L 275.947572 61.771619 
L 278.89323 62.465704 
L 281.838888 63.117047 
L 284.784546 60.884197 
L 287.730204 62.532003 
L 290.675862 64.156409 
L 293.62152 64.277251 
L 296.567178 64.708574 
L 299.512837 62.987321 
L 302.458495 64.761649 
L 305.404153 64.681781 
L 308.349811 66.138232 
L 311.295469 68.696045 
L 314.241127 69.106104 
L 317.186785 69.158546 
L 320.132443 72.714505 
L 323.078101 77.635784 
L 326.023759 83.082326 
L 328.969417 88.274599 
L 331.915075 94.172518 
L 334.860733 102.495746 
L 337.806391 112.207139 
L 340.752049 121.538029 
L 343.697707 129.776508 
L 346.643365 134.634588 
L 349.589023 64.792984 
L 352.534681 65.821361 
L 355.48034 67.269671 
L 358.425998 67.760175 
L 361.371656 66.772552 
L 364.317314 67.346803 
L 367.262972 68.135993 
L 370.20863 69.798501 
L 373.154288 71.112957 
L 376.099946 69.597289 
L 379.045604 95.017788 
L 381.991262 105.564737 
L 384.93692 108.310389 
L 387.882578 108.160331 
" clip-path="url(#p73effe1761)" style="fill: none; stroke: #bdab62; stroke-width: 1.5; stroke-linecap: square"/>
   </g>
   <g id="line2d_14">
    <path d="M 81.534141 59.409198 
L 84.479799 61.270276 
L 87.425457 60.827472 
L 90.371115 59.920717 
L 93.316773 59.669239 
L 96.262431 57.117478 
L 99.208089 56.32705 
L 102.153747 58.147245 
L 105.099405 56.701768 
L 108.045063 56.008789 
L 110.990721 53.725646 
L 113.936379 54.615027 
L 116.882037 55.301942 
L 119.827695 54.579169 
L 122.773353 55.340813 
L 125.719011 56.600146 
L 128.664669 54.829034 
L 131.610328 53.685926 
L 134.555986 55.144384 
L 137.501644 56.15761 
L 140.447302 57.740122 
L 143.39296 57.953328 
L 146.338618 57.144478 
L 149.284276 56.664961 
L 152.229934 57.593542 
L 155.175592 55.945385 
L 158.12125 53.073121 
L 161.066908 53.974825 
L 164.012566 54.218356 
L 166.958224 54.696332 
L 169.903882 56.35603 
L 172.84954 56.05867 
L 175.795198 56.972816 
L 178.740856 57.366878 
L 181.686514 58.955863 
L 184.632172 59.398836 
L 187.577831 59.550219 
L 190.523489 62.398421 
L 193.469147 63.727657 
L 196.414805 62.722894 
L 199.360463 61.47046 
L 202.306121 63.112623 
L 205.251779 62.909437 
L 208.197437 65.412357 
L 211.143095 64.648862 
L 214.088753 66.077112 
L 217.034411 66.254281 
L 219.980069 66.827731 
L 222.925727 66.973057 
L 225.871385 66.259795 
L 228.817043 66.176697 
L 231.762701 65.379408 
L 234.708359 65.553232 
L 237.654017 64.395617 
L 240.599675 64.647974 
L 243.545334 63.527783 
L 246.490992 64.219041 
L 249.43665 64.205136 
L 252.382308 62.769319 
L 255.327966 62.887023 
L 258.273624 65.840229 
L 261.219282 65.831588 
L 264.16494 63.902648 
L 267.110598 62.65731 
L 270.056256 63.61047 
L 273.001914 62.647415 
L 275.947572 62.68964 
L 278.89323 60.700742 
L 281.838888 60.856274 
L 284.784546 61.13682 
L 287.730204 61.933707 
L 290.675862 62.570804 
L 293.62152 62.127408 
L 296.567178 60.863683 
L 299.512837 61.988963 
L 302.458495 62.337039 
L 305.404153 65.983962 
L 308.349811 68.59025 
L 311.295469 69.339051 
L 314.241127 68.186491 
L 317.186785 70.556007 
L 320.132443 73.043891 
L 323.078101 73.079866 
L 326.023759 72.265285 
L 328.969417 72.746646 
L 331.915075 70.309798 
L 334.860733 70.55926 
L 337.806391 70.613033 
L 340.752049 69.982439 
L 343.697707 70.497496 
L 346.643365 69.030146 
L 349.589023 45.003843 
L 352.534681 36.886585 
L 355.48034 31.095099 
L 358.425998 32.439888 
L 361.371656 43.116941 
L 364.317314 57.097265 
L 367.262972 71.661508 
L 370.20863 81.922068 
L 373.154288 88.160225 
L 376.099946 85.430066 
L 379.045604 69.243713 
L 381.991262 67.78199 
L 384.93692 68.609892 
L 387.882578 70.939972 
" clip-path="url(#p73effe1761)" style="fill: none; stroke-dasharray: 5.55,2.4; stroke-dashoffset: 0; stroke: #2b737e; stroke-width: 1.5"/>
   </g>
   <g id="line2d_15">
    <path d="M 81.534141 59.566273 
L 84.479799 61.173726 
L 87.425457 60.809992 
L 90.371115 62.53737 
L 93.316773 61.443138 
L 96.262431 63.376 
L 99.208089 62.465485 
L 102.153747 63.967248 
L 105.099405 64.239139 
L 108.045063 64.407685 
L 110.990721 65.69067 
L 113.936379 65.574895 
L 116.882037 64.274524 
L 119.827695 64.706075 
L 122.773353 65.613445 
L 125.719011 66.103185 
L 128.664669 66.581122 
L 131.610328 65.341072 
L 134.555986 66.034437 
L 137.501644 65.920802 
L 140.447302 69.360805 
L 143.39296 67.396617 
L 146.338618 69.339345 
L 149.284276 70.103564 
L 152.229934 71.585174 
L 155.175592 72.510867 
L 158.12125 72.906145 
L 161.066908 71.759825 
L 164.012566 71.2266 
L 166.958224 72.293376 
L 169.903882 73.269185 
L 172.84954 73.759439 
L 175.795198 74.742443 
L 178.740856 74.263513 
L 181.686514 73.166257 
L 184.632172 71.309245 
L 187.577831 72.295239 
L 190.523489 74.283164 
L 193.469147 72.769875 
L 196.414805 72.953048 
L 199.360463 74.709599 
L 202.306121 73.892367 
L 205.251779 75.259611 
L 208.197437 73.112889 
L 211.143095 73.102918 
L 214.088753 70.871156 
L 217.034411 70.734438 
L 219.980069 72.809032 
L 222.925727 74.919759 
L 225.871385 74.786558 
L 228.817043 75.433217 
L 231.762701 76.092741 
L 234.708359 75.09398 
L 237.654017 75.716842 
L 240.599675 74.141188 
L 243.545334 75.896348 
L 246.490992 76.833034 
L 249.43665 76.534037 
L 252.382308 76.694968 
L 255.327966 76.945654 
L 258.273624 76.094604 
L 261.219282 75.494665 
L 264.16494 74.388842 
L 267.110598 76.628786 
L 270.056256 77.223435 
L 273.001914 76.366751 
L 275.947572 75.006929 
L 278.89323 75.823712 
L 281.838888 74.941134 
L 284.784546 75.117985 
L 287.730204 75.406803 
L 290.675862 76.430428 
L 293.62152 74.186621 
L 296.567178 75.118575 
L 299.512837 74.514805 
L 302.458495 72.715629 
L 305.404153 73.625731 
L 308.349811 74.235828 
L 311.295469 76.50438 
L 314.241127 76.587951 
L 317.186785 78.900277 
L 320.132443 77.480269 
L 323.078101 77.791056 
L 326.023759 77.403421 
L 328.969417 77.788083 
L 331.915075 78.338323 
L 334.860733 77.761603 
L 337.806391 76.210845 
L 340.752049 77.594329 
L 343.697707 77.905777 
L 346.643365 78.291413 
L 349.589023 63.820289 
L 352.534681 54.813437 
L 355.48034 48.711241 
L 358.425998 49.241045 
L 361.371656 55.423824 
L 364.317314 70.781384 
L 367.262972 86.185146 
L 370.20863 96.083907 
L 373.154288 101.130802 
L 376.099946 102.709571 
L 379.045604 74.929437 
L 381.991262 73.440622 
L 384.93692 74.506522 
L 387.882578 73.533892 
" clip-path="url(#p73effe1761)" style="fill: none; stroke-dasharray: 5.55,2.4; stroke-dashoffset: 0; stroke: #5ea04b; stroke-width: 1.5"/>
   </g>
   <g id="line2d_16">
    <path d="M 81.534141 62.810603 
L 84.479799 61.786009 
L 87.425457 61.92584 
L 90.371115 63.633811 
L 93.316773 64.66908 
L 96.262431 64.11168 
L 99.208089 62.469956 
L 102.153747 62.820364 
L 105.099405 62.942029 
L 108.045063 61.896464 
L 110.990721 62.475224 
L 113.936379 60.37655 
L 116.882037 58.025818 
L 119.827695 59.864732 
L 122.773353 61.106129 
L 125.719011 60.764553 
L 128.664669 58.75997 
L 131.610328 57.848136 
L 134.555986 59.32791 
L 137.501644 59.478648 
L 140.447302 61.606348 
L 143.39296 61.963844 
L 146.338618 60.946421 
L 149.284276 63.564707 
L 152.229934 63.607178 
L 155.175592 64.278362 
L 158.12125 67.12825 
L 161.066908 66.778165 
L 164.012566 63.673075 
L 166.958224 61.695063 
L 169.903882 60.70517 
L 172.84954 60.473923 
L 175.795198 60.083041 
L 178.740856 59.438478 
L 181.686514 61.074514 
L 184.632172 59.961197 
L 187.577831 59.693935 
L 190.523489 61.049392 
L 193.469147 61.908669 
L 196.414805 62.859516 
L 199.360463 61.897024 
L 202.306121 61.966735 
L 205.251779 63.225215 
L 208.197437 63.728917 
L 211.143095 61.406924 
L 214.088753 62.900428 
L 217.034411 62.321338 
L 219.980069 61.545522 
L 222.925727 61.706687 
L 225.871385 63.083293 
L 228.817043 61.980014 
L 231.762701 60.947969 
L 234.708359 61.195686 
L 237.654017 63.203508 
L 240.599675 61.801911 
L 243.545334 61.694669 
L 246.490992 63.586514 
L 249.43665 65.955974 
L 252.382308 65.038569 
L 255.327966 64.495694 
L 258.273624 63.903249 
L 261.219282 64.353329 
L 264.16494 64.340221 
L 267.110598 66.891283 
L 270.056256 67.014502 
L 273.001914 65.17333 
L 275.947572 64.420128 
L 278.89323 65.040963 
L 281.838888 65.588695 
L 284.784546 63.214656 
L 287.730204 64.674658 
L 290.675862 66.053306 
L 293.62152 65.856148 
L 296.567178 65.879183 
L 299.512837 63.636488 
L 302.458495 64.747173 
L 305.404153 63.824498 
L 308.349811 64.211884 
L 311.295469 65.414418 
L 314.241127 64.106884 
L 317.186785 61.983468 
L 320.132443 62.785865 
L 323.078101 64.230542 
L 326.023759 65.307675 
L 328.969417 65.054252 
L 331.915075 64.263349 
L 334.860733 64.573136 
L 337.806391 65.087542 
L 340.752049 64.646769 
L 343.697707 63.993266 
L 346.643365 63.576245 
L 349.589023 99.067295 
L 352.534681 92.6262 
L 355.48034 79.32843 
L 358.425998 60.175434 
L 361.371656 41.141678 
L 364.317314 32.599241 
L 367.262972 36.050874 
L 370.20863 48.877389 
L 373.154288 63.922857 
L 376.099946 74.181568 
L 379.045604 69.813242 
L 381.991262 71.572083 
L 384.93692 70.957422 
L 387.882578 70.93309 
" clip-path="url(#p73effe1761)" style="fill: none; stroke-dasharray: 5.55,2.4; stroke-dashoffset: 0; stroke: #bdab62; stroke-width: 1.5"/>
   </g>
   <g id="patch_3">
    <path d="M 66.216719 139.811563 
L 66.216719 25.918125 
" style="fill: none; stroke: #000000; stroke-width: 0.8; stroke-linejoin: miter; stroke-linecap: square"/>
   </g>
   <g id="patch_4">
    <path d="M 403.2 139.811563 
L 403.2 25.918125 
" style="fill: none; stroke: #000000; stroke-width: 0.8; stroke-linejoin: miter; stroke-linecap: square"/>
   </g>
   <g id="patch_5">
    <path d="M 66.216719 139.811563 
L 403.2 139.811563 
" style="fill: none; stroke: #000000; stroke-width: 0.8; stroke-linejoin: miter; stroke-linecap: square"/>
   </g>
   <g id="patch_6">
    <path d="M 66.216719 25.918125 
L 403.2 25.918125 
" style="fill: none; stroke: #000000; stroke-width: 0.8; stroke-linejoin: miter; stroke-linecap: square"/>
   </g>
   <g id="text_13">
    <!-- Centered Dipole Model -->
    <g transform="translate(166.192109 19.918125) scale(0.12 -0.12)">
     <defs>
      <path id="DejaVuSans-43" d="M 4122 4306 
L 4122 3641 
Q 3803 3938 3442 4084 
Q 3081 4231 2675 4231 
Q 1875 4231 1450 3742 
Q 1025 3253 1025 2328 
Q 1025 1406 1450 917 
Q 1875 428 2675 428 
Q 3081 428 3442 575 
Q 3803 722 4122 1019 
L 4122 359 
Q 3791 134 3420 21 
Q 3050 -91 2638 -91 
Q 1578 -91 968 557 
Q 359 1206 359 2328 
Q 359 3453 968 4101 
Q 1578 4750 2638 4750 
Q 3056 4750 3426 4639 
Q 3797 4528 4122 4306 
z
" transform="scale(0.015625)"/>
      <path id="DejaVuSans-44" d="M 1259 4147 
L 1259 519 
L 2022 519 
Q 2988 519 3436 956 
Q 3884 1394 3884 2338 
Q 3884 3275 3436 3711 
Q 2988 4147 2022 4147 
L 1259 4147 
z
M 628 4666 
L 1925 4666 
Q 3281 4666 3915 4102 
Q 4550 3538 4550 2338 
Q 4550 1131 3912 565 
Q 3275 0 1925 0 
L 628 0 
L 628 4666 
z
" transform="scale(0.015625)"/>
      <path id="DejaVuSans-70" d="M 1159 525 
L 1159 -1331 
L 581 -1331 
L 581 3500 
L 1159 3500 
L 1159 2969 
Q 1341 3281 1617 3432 
Q 1894 3584 2278 3584 
Q 2916 3584 3314 3078 
Q 3713 2572 3713 1747 
Q 3713 922 3314 415 
Q 2916 -91 2278 -91 
Q 1894 -91 1617 61 
Q 1341 213 1159 525 
z
M 3116 1747 
Q 3116 2381 2855 2742 
Q 2594 3103 2138 3103 
Q 1681 3103 1420 2742 
Q 1159 2381 1159 1747 
Q 1159 1113 1420 752 
Q 1681 391 2138 391 
Q 2594 391 2855 752 
Q 3116 1113 3116 1747 
z
" transform="scale(0.015625)"/>
     </defs>
     <use xlink:href="#DejaVuSans-43"/>
     <use xlink:href="#DejaVuSans-65" transform="translate(69.824219 0)"/>
     <use xlink:href="#DejaVuSans-6e" transform="translate(131.347656 0)"/>
     <use xlink:href="#DejaVuSans-74" transform="translate(194.726562 0)"/>
     <use xlink:href="#DejaVuSans-65" transform="translate(233.935547 0)"/>
     <use xlink:href="#DejaVuSans-72" transform="translate(295.458984 0)"/>
     <use xlink:href="#DejaVuSans-65" transform="translate(334.322266 0)"/>
     <use xlink:href="#DejaVuSans-64" transform="translate(395.845703 0)"/>
     <use xlink:href="#DejaVuSans-20" transform="translate(459.322266 0)"/>
     <use xlink:href="#DejaVuSans-44" transform="translate(491.109375 0)"/>
     <use xlink:href="#DejaVuSans-69" transform="translate(568.111328 0)"/>
     <use xlink:href="#DejaVuSans-70" transform="translate(595.894531 0)"/>
     <use xlink:href="#DejaVuSans-6f" transform="translate(659.371094 0)"/>
     <use xlink:href="#DejaVuSans-6c" transform="translate(720.552734 0)"/>
     <use xlink:href="#DejaVuSans-65" transform="translate(748.335938 0)"/>
     <use xlink:href="#DejaVuSans-20" transform="translate(809.859375 0)"/>
     <use xlink:href="#DejaVuSans-4d" transform="translate(841.646484 0)"/>
     <use xlink:href="#DejaVuSans-6f" transform="translate(927.925781 0)"/>
     <use xlink:href="#DejaVuSans-64" transform="translate(989.107422 0)"/>
     <use xlink:href="#DejaVuSans-65" transform="translate(1052.583984 0)"/>
     <use xlink:href="#DejaVuSans-6c" transform="translate(1114.107422 0)"/>
    </g>
   </g>
   <g id="legend_1">
    <g id="patch_7">
     <path d="M 344.34 135.311562 
L 396.9 135.311562 
Q 398.7 135.311562 398.7 133.511562 
L 398.7 94.780625 
Q 398.7 92.980625 396.9 92.980625 
L 344.34 92.980625 
Q 342.54 92.980625 342.54 94.780625 
L 342.54 133.511562 
Q 342.54 135.311562 344.34 135.311562 
z
" style="fill: #ffffff; opacity: 0.8; stroke: #cccccc; stroke-linejoin: miter"/>
    </g>
    <g id="line2d_17">
     <path d="M 346.14 100.269219 
L 355.14 100.269219 
L 364.14 100.269219 
" style="fill: none; stroke: #2b737e; stroke-width: 1.5; stroke-linecap: square"/>
    </g>
    <g id="text_14">
     <!-- $TAM_{0}$ -->
     <g transform="translate(371.34 103.419219) scale(0.09 -0.09)">
      <defs>
       <path id="DejaVuSans-Oblique-54" d="M 378 4666 
L 4325 4666 
L 4225 4134 
L 2559 4134 
L 1759 0 
L 1125 0 
L 1925 4134 
L 275 4134 
L 378 4666 
z
" transform="scale(0.015625)"/>
       <path id="DejaVuSans-Oblique-41" d="M 2356 4666 
L 3072 4666 
L 3938 0 
L 3278 0 
L 3084 1197 
L 984 1197 
L 325 0 
L -341 0 
L 2356 4666 
z
M 2584 4044 
L 1275 1722 
L 2988 1722 
L 2584 4044 
z
" transform="scale(0.015625)"/>
       <path id="DejaVuSans-Oblique-4d" d="M 1081 4666 
L 2028 4666 
L 2572 1522 
L 4378 4666 
L 5350 4666 
L 4441 0 
L 3828 0 
L 4622 4091 
L 2791 897 
L 2175 897 
L 1581 4103 
L 788 0 
L 172 0 
L 1081 4666 
z
" transform="scale(0.015625)"/>
      </defs>
      <use xlink:href="#DejaVuSans-Oblique-54" transform="translate(0 0.09375)"/>
      <use xlink:href="#DejaVuSans-Oblique-41" transform="translate(61.083984 0.09375)"/>
      <use xlink:href="#DejaVuSans-Oblique-4d" transform="translate(129.492188 0.09375)"/>
      <use xlink:href="#DejaVuSans-30" transform="translate(215.771484 -16.3125) scale(0.7)"/>
     </g>
    </g>
    <g id="line2d_18">
     <path d="M 346.14 113.479531 
L 355.14 113.479531 
L 364.14 113.479531 
" style="fill: none; stroke: #5ea04b; stroke-width: 1.5; stroke-linecap: square"/>
    </g>
    <g id="text_15">
     <!-- $TAM_{1}$ -->
     <g transform="translate(371.34 116.629531) scale(0.09 -0.09)">
      <use xlink:href="#DejaVuSans-Oblique-54" transform="translate(0 0.09375)"/>
      <use xlink:href="#DejaVuSans-Oblique-41" transform="translate(61.083984 0.09375)"/>
      <use xlink:href="#DejaVuSans-Oblique-4d" transform="translate(129.492188 0.09375)"/>
      <use xlink:href="#DejaVuSans-31" transform="translate(215.771484 -16.3125) scale(0.7)"/>
     </g>
    </g>
    <g id="line2d_19">
     <path d="M 346.14 126.689844 
L 355.14 126.689844 
L 364.14 126.689844 
" style="fill: none; stroke: #bdab62; stroke-width: 1.5; stroke-linecap: square"/>
    </g>
    <g id="text_16">
     <!-- $TAM_{2}$ -->
     <g transform="translate(371.34 129.839844) scale(0.09 -0.09)">
      <use xlink:href="#DejaVuSans-Oblique-54" transform="translate(0 0.09375)"/>
      <use xlink:href="#DejaVuSans-Oblique-41" transform="translate(61.083984 0.09375)"/>
      <use xlink:href="#DejaVuSans-Oblique-4d" transform="translate(129.492188 0.09375)"/>
      <use xlink:href="#DejaVuSans-32" transform="translate(215.771484 -16.3125) scale(0.7)"/>
     </g>
    </g>
   </g>
  </g>
 </g>
 <defs>
  <clipPath id="p73effe1761">
   <rect x="66.216719" y="25.918125" width="336.983281" height="113.893437"/>
  </clipPath>
 </defs>
</svg>
