<?xml version="1.0" encoding="utf-8" standalone="no"?>
<!DOCTYPE svg PUBLIC "-//W3C//DTD SVG 1.1//EN"
  "http://www.w3.org/Graphics/SVG/1.1/DTD/svg11.dtd">
<svg xmlns:xlink="http://www.w3.org/1999/xlink" width="360pt" height="288pt" viewBox="0 0 360 288" xmlns="http://www.w3.org/2000/svg" version="1.1">
 <metadata>
  <rdf:RDF xmlns:dc="http://purl.org/dc/elements/1.1/" xmlns:cc="http://creativecommons.org/ns#" xmlns:rdf="http://www.w3.org/1999/02/22-rdf-syntax-ns#">
   <cc:Work>
    <dc:type rdf:resource="http://purl.org/dc/dcmitype/StillImage"/>
    <dc:date>2024-10-24T14:01:41.034545</dc:date>
    <dc:format>image/svg+xml</dc:format>
    <dc:creator>
     <cc:Agent>
      <dc:title>Matplotlib v3.9.2, https://matplotlib.org/</dc:title>
     </cc:Agent>
    </dc:creator>
   </cc:Work>
  </rdf:RDF>
 </metadata>
 <defs>
  <style type="text/css">*{stroke-linejoin: round; stroke-linecap: butt}</style>
 </defs>
 <g id="figure_1">
  <g id="patch_1">
   <path d="M 0 288 
L 360 288 
L 360 0 
L 0 0 
L 0 288 
z
" style="fill: none"/>
  </g>
  <g id="axes_1">
   <g id="patch_2">
    <path d="M 55.065625 241.036875 
L 349.2 241.036875 
L 349.2 25.9575 
L 55.065625 25.9575 
L 55.065625 241.036875 
z
" style="fill: none"/>
   </g>
   <g id="matplotlib.axis_1">
    <g id="xtick_1">
     <g id="line2d_1">
      <defs>
       <path id="m6ee95ebcee" d="M 0 0 
L 0 3.5 
" style="stroke: #000000; stroke-width: 0.8"/>
      </defs>
      <g>
       <use xlink:href="#m6ee95ebcee" x="68.435369" y="241.036875" style="stroke: #000000; stroke-width: 0.8"/>
      </g>
     </g>
     <g id="text_1">
      <!-- 0 -->
      <g transform="translate(63.345369 260.194375) scale(0.16 -0.16)">
       <defs>
        <path id="DejaVuSans-30" d="M 2034 4250 
Q 1547 4250 1301 3770 
Q 1056 3291 1056 2328 
Q 1056 1369 1301 889 
Q 1547 409 2034 409 
Q 2525 409 2770 889 
Q 3016 1369 3016 2328 
Q 3016 3291 2770 3770 
Q 2525 4250 2034 4250 
z
M 2034 4750 
Q 2819 4750 3233 4129 
Q 3647 3509 3647 2328 
Q 3647 1150 3233 529 
Q 2819 -91 2034 -91 
Q 1250 -91 836 529 
Q 422 1150 422 2328 
Q 422 3509 836 4129 
Q 1250 4750 2034 4750 
z
" transform="scale(0.015625)"/>
       </defs>
       <use xlink:href="#DejaVuSans-30"/>
      </g>
     </g>
    </g>
    <g id="xtick_2">
     <g id="line2d_2">
      <g>
       <use xlink:href="#m6ee95ebcee" x="166.436061" y="241.036875" style="stroke: #000000; stroke-width: 0.8"/>
      </g>
     </g>
     <g id="text_2">
      <!-- 500 -->
      <g transform="translate(151.166061 260.194375) scale(0.16 -0.16)">
       <defs>
        <path id="DejaVuSans-35" d="M 691 4666 
L 3169 4666 
L 3169 4134 
L 1269 4134 
L 1269 2991 
Q 1406 3038 1543 3061 
Q 1681 3084 1819 3084 
Q 2600 3084 3056 2656 
Q 3513 2228 3513 1497 
Q 3513 744 3044 326 
Q 2575 -91 1722 -91 
Q 1428 -91 1123 -41 
Q 819 9 494 109 
L 494 744 
Q 775 591 1075 516 
Q 1375 441 1709 441 
Q 2250 441 2565 725 
Q 2881 1009 2881 1497 
Q 2881 1984 2565 2268 
Q 2250 2553 1709 2553 
Q 1456 2553 1204 2497 
Q 953 2441 691 2322 
L 691 4666 
z
" transform="scale(0.015625)"/>
       </defs>
       <use xlink:href="#DejaVuSans-35"/>
       <use xlink:href="#DejaVuSans-30" x="63.623047"/>
       <use xlink:href="#DejaVuSans-30" x="127.246094"/>
      </g>
     </g>
    </g>
    <g id="xtick_3">
     <g id="line2d_3">
      <g>
       <use xlink:href="#m6ee95ebcee" x="264.436752" y="241.036875" style="stroke: #000000; stroke-width: 0.8"/>
      </g>
     </g>
     <g id="text_3">
      <!-- 1000 -->
      <g transform="translate(244.076752 260.194375) scale(0.16 -0.16)">
       <defs>
        <path id="DejaVuSans-31" d="M 794 531 
L 1825 531 
L 1825 4091 
L 703 3866 
L 703 4441 
L 1819 4666 
L 2450 4666 
L 2450 531 
L 3481 531 
L 3481 0 
L 794 0 
L 794 531 
z
" transform="scale(0.015625)"/>
       </defs>
       <use xlink:href="#DejaVuSans-31"/>
       <use xlink:href="#DejaVuSans-30" x="63.623047"/>
       <use xlink:href="#DejaVuSans-30" x="127.246094"/>
       <use xlink:href="#DejaVuSans-30" x="190.869141"/>
      </g>
     </g>
    </g>
    <g id="text_4">
     <!-- Time (s) -->
     <g transform="translate(181.803906 275.120313) scale(0.1 -0.1)">
      <defs>
       <path id="DejaVuSans-54" d="M -19 4666 
L 3928 4666 
L 3928 4134 
L 2272 4134 
L 2272 0 
L 1638 0 
L 1638 4134 
L -19 4134 
L -19 4666 
z
" transform="scale(0.015625)"/>
       <path id="DejaVuSans-69" d="M 603 3500 
L 1178 3500 
L 1178 0 
L 603 0 
L 603 3500 
z
M 603 4863 
L 1178 4863 
L 1178 4134 
L 603 4134 
L 603 4863 
z
" transform="scale(0.015625)"/>
       <path id="DejaVuSans-6d" d="M 3328 2828 
Q 3544 3216 3844 3400 
Q 4144 3584 4550 3584 
Q 5097 3584 5394 3201 
Q 5691 2819 5691 2113 
L 5691 0 
L 5113 0 
L 5113 2094 
Q 5113 2597 4934 2840 
Q 4756 3084 4391 3084 
Q 3944 3084 3684 2787 
Q 3425 2491 3425 1978 
L 3425 0 
L 2847 0 
L 2847 2094 
Q 2847 2600 2669 2842 
Q 2491 3084 2119 3084 
Q 1678 3084 1418 2786 
Q 1159 2488 1159 1978 
L 1159 0 
L 581 0 
L 581 3500 
L 1159 3500 
L 1159 2956 
Q 1356 3278 1631 3431 
Q 1906 3584 2284 3584 
Q 2666 3584 2933 3390 
Q 3200 3197 3328 2828 
z
" transform="scale(0.015625)"/>
       <path id="DejaVuSans-65" d="M 3597 1894 
L 3597 1613 
L 953 1613 
Q 991 1019 1311 708 
Q 1631 397 2203 397 
Q 2534 397 2845 478 
Q 3156 559 3463 722 
L 3463 178 
Q 3153 47 2828 -22 
Q 2503 -91 2169 -91 
Q 1331 -91 842 396 
Q 353 884 353 1716 
Q 353 2575 817 3079 
Q 1281 3584 2069 3584 
Q 2775 3584 3186 3129 
Q 3597 2675 3597 1894 
z
M 3022 2063 
Q 3016 2534 2758 2815 
Q 2500 3097 2075 3097 
Q 1594 3097 1305 2825 
Q 1016 2553 972 2059 
L 3022 2063 
z
" transform="scale(0.015625)"/>
       <path id="DejaVuSans-20" transform="scale(0.015625)"/>
       <path id="DejaVuSans-28" d="M 1984 4856 
Q 1566 4138 1362 3434 
Q 1159 2731 1159 2009 
Q 1159 1288 1364 580 
Q 1569 -128 1984 -844 
L 1484 -844 
Q 1016 -109 783 600 
Q 550 1309 550 2009 
Q 550 2706 781 3412 
Q 1013 4119 1484 4856 
L 1984 4856 
z
" transform="scale(0.015625)"/>
       <path id="DejaVuSans-73" d="M 2834 3397 
L 2834 2853 
Q 2591 2978 2328 3040 
Q 2066 3103 1784 3103 
Q 1356 3103 1142 2972 
Q 928 2841 928 2578 
Q 928 2378 1081 2264 
Q 1234 2150 1697 2047 
L 1894 2003 
Q 2506 1872 2764 1633 
Q 3022 1394 3022 966 
Q 3022 478 2636 193 
Q 2250 -91 1575 -91 
Q 1294 -91 989 -36 
Q 684 19 347 128 
L 347 722 
Q 666 556 975 473 
Q 1284 391 1588 391 
Q 1994 391 2212 530 
Q 2431 669 2431 922 
Q 2431 1156 2273 1281 
Q 2116 1406 1581 1522 
L 1381 1569 
Q 847 1681 609 1914 
Q 372 2147 372 2553 
Q 372 3047 722 3315 
Q 1072 3584 1716 3584 
Q 2034 3584 2315 3537 
Q 2597 3491 2834 3397 
z
" transform="scale(0.015625)"/>
       <path id="DejaVuSans-29" d="M 513 4856 
L 1013 4856 
Q 1481 4119 1714 3412 
Q 1947 2706 1947 2009 
Q 1947 1309 1714 600 
Q 1481 -109 1013 -844 
L 513 -844 
Q 928 -128 1133 580 
Q 1338 1288 1338 2009 
Q 1338 2731 1133 3434 
Q 928 4138 513 4856 
z
" transform="scale(0.015625)"/>
      </defs>
      <use xlink:href="#DejaVuSans-54"/>
      <use xlink:href="#DejaVuSans-69" x="57.958984"/>
      <use xlink:href="#DejaVuSans-6d" x="85.742188"/>
      <use xlink:href="#DejaVuSans-65" x="183.154297"/>
      <use xlink:href="#DejaVuSans-20" x="244.677734"/>
      <use xlink:href="#DejaVuSans-28" x="276.464844"/>
      <use xlink:href="#DejaVuSans-73" x="315.478516"/>
      <use xlink:href="#DejaVuSans-29" x="367.578125"/>
     </g>
    </g>
   </g>
   <g id="matplotlib.axis_2">
    <g id="ytick_1">
     <g id="line2d_4">
      <defs>
       <path id="m520bbadf60" d="M 0 0 
L -3.5 0 
" style="stroke: #000000; stroke-width: 0.8"/>
      </defs>
      <g>
       <use xlink:href="#m520bbadf60" x="55.065625" y="177.938564" style="stroke: #000000; stroke-width: 0.8"/>
      </g>
     </g>
     <g id="text_5">
      <!-- −5 -->
      <g transform="translate(24.478125 184.017314) scale(0.16 -0.16)">
       <defs>
        <path id="DejaVuSans-2212" d="M 678 2272 
L 4684 2272 
L 4684 1741 
L 678 1741 
L 678 2272 
z
" transform="scale(0.015625)"/>
       </defs>
       <use xlink:href="#DejaVuSans-2212"/>
       <use xlink:href="#DejaVuSans-35" x="83.789062"/>
      </g>
     </g>
    </g>
    <g id="ytick_2">
     <g id="line2d_5">
      <g>
       <use xlink:href="#m520bbadf60" x="55.065625" y="110.193722" style="stroke: #000000; stroke-width: 0.8"/>
      </g>
     </g>
     <g id="text_6">
      <!-- 0 -->
      <g transform="translate(37.885625 116.272472) scale(0.16 -0.16)">
       <use xlink:href="#DejaVuSans-30"/>
      </g>
     </g>
    </g>
    <g id="ytick_3">
     <g id="line2d_6">
      <g>
       <use xlink:href="#m520bbadf60" x="55.065625" y="42.448881" style="stroke: #000000; stroke-width: 0.8"/>
      </g>
     </g>
     <g id="text_7">
      <!-- 5 -->
      <g transform="translate(37.885625 48.527631) scale(0.16 -0.16)">
       <use xlink:href="#DejaVuSans-35"/>
      </g>
     </g>
    </g>
    <g id="text_8">
     <!-- Relative Orbital Energy Variation -->
     <g transform="translate(18.398438 215.085469) rotate(-90) scale(0.1 -0.1)">
      <defs>
       <path id="DejaVuSans-52" d="M 2841 2188 
Q 3044 2119 3236 1894 
Q 3428 1669 3622 1275 
L 4263 0 
L 3584 0 
L 2988 1197 
Q 2756 1666 2539 1819 
Q 2322 1972 1947 1972 
L 1259 1972 
L 1259 0 
L 628 0 
L 628 4666 
L 2053 4666 
Q 2853 4666 3247 4331 
Q 3641 3997 3641 3322 
Q 3641 2881 3436 2590 
Q 3231 2300 2841 2188 
z
M 1259 4147 
L 1259 2491 
L 2053 2491 
Q 2509 2491 2742 2702 
Q 2975 2913 2975 3322 
Q 2975 3731 2742 3939 
Q 2509 4147 2053 4147 
L 1259 4147 
z
" transform="scale(0.015625)"/>
       <path id="DejaVuSans-6c" d="M 603 4863 
L 1178 4863 
L 1178 0 
L 603 0 
L 603 4863 
z
" transform="scale(0.015625)"/>
       <path id="DejaVuSans-61" d="M 2194 1759 
Q 1497 1759 1228 1600 
Q 959 1441 959 1056 
Q 959 750 1161 570 
Q 1363 391 1709 391 
Q 2188 391 2477 730 
Q 2766 1069 2766 1631 
L 2766 1759 
L 2194 1759 
z
M 3341 1997 
L 3341 0 
L 2766 0 
L 2766 531 
Q 2569 213 2275 61 
Q 1981 -91 1556 -91 
Q 1019 -91 701 211 
Q 384 513 384 1019 
Q 384 1609 779 1909 
Q 1175 2209 1959 2209 
L 2766 2209 
L 2766 2266 
Q 2766 2663 2505 2880 
Q 2244 3097 1772 3097 
Q 1472 3097 1187 3025 
Q 903 2953 641 2809 
L 641 3341 
Q 956 3463 1253 3523 
Q 1550 3584 1831 3584 
Q 2591 3584 2966 3190 
Q 3341 2797 3341 1997 
z
" transform="scale(0.015625)"/>
       <path id="DejaVuSans-74" d="M 1172 4494 
L 1172 3500 
L 2356 3500 
L 2356 3053 
L 1172 3053 
L 1172 1153 
Q 1172 725 1289 603 
Q 1406 481 1766 481 
L 2356 481 
L 2356 0 
L 1766 0 
Q 1100 0 847 248 
Q 594 497 594 1153 
L 594 3053 
L 172 3053 
L 172 3500 
L 594 3500 
L 594 4494 
L 1172 4494 
z
" transform="scale(0.015625)"/>
       <path id="DejaVuSans-76" d="M 191 3500 
L 800 3500 
L 1894 563 
L 2988 3500 
L 3597 3500 
L 2284 0 
L 1503 0 
L 191 3500 
z
" transform="scale(0.015625)"/>
       <path id="DejaVuSans-4f" d="M 2522 4238 
Q 1834 4238 1429 3725 
Q 1025 3213 1025 2328 
Q 1025 1447 1429 934 
Q 1834 422 2522 422 
Q 3209 422 3611 934 
Q 4013 1447 4013 2328 
Q 4013 3213 3611 3725 
Q 3209 4238 2522 4238 
z
M 2522 4750 
Q 3503 4750 4090 4092 
Q 4678 3434 4678 2328 
Q 4678 1225 4090 567 
Q 3503 -91 2522 -91 
Q 1538 -91 948 565 
Q 359 1222 359 2328 
Q 359 3434 948 4092 
Q 1538 4750 2522 4750 
z
" transform="scale(0.015625)"/>
       <path id="DejaVuSans-72" d="M 2631 2963 
Q 2534 3019 2420 3045 
Q 2306 3072 2169 3072 
Q 1681 3072 1420 2755 
Q 1159 2438 1159 1844 
L 1159 0 
L 581 0 
L 581 3500 
L 1159 3500 
L 1159 2956 
Q 1341 3275 1631 3429 
Q 1922 3584 2338 3584 
Q 2397 3584 2469 3576 
Q 2541 3569 2628 3553 
L 2631 2963 
z
" transform="scale(0.015625)"/>
       <path id="DejaVuSans-62" d="M 3116 1747 
Q 3116 2381 2855 2742 
Q 2594 3103 2138 3103 
Q 1681 3103 1420 2742 
Q 1159 2381 1159 1747 
Q 1159 1113 1420 752 
Q 1681 391 2138 391 
Q 2594 391 2855 752 
Q 3116 1113 3116 1747 
z
M 1159 2969 
Q 1341 3281 1617 3432 
Q 1894 3584 2278 3584 
Q 2916 3584 3314 3078 
Q 3713 2572 3713 1747 
Q 3713 922 3314 415 
Q 2916 -91 2278 -91 
Q 1894 -91 1617 61 
Q 1341 213 1159 525 
L 1159 0 
L 581 0 
L 581 4863 
L 1159 4863 
L 1159 2969 
z
" transform="scale(0.015625)"/>
       <path id="DejaVuSans-45" d="M 628 4666 
L 3578 4666 
L 3578 4134 
L 1259 4134 
L 1259 2753 
L 3481 2753 
L 3481 2222 
L 1259 2222 
L 1259 531 
L 3634 531 
L 3634 0 
L 628 0 
L 628 4666 
z
" transform="scale(0.015625)"/>
       <path id="DejaVuSans-6e" d="M 3513 2113 
L 3513 0 
L 2938 0 
L 2938 2094 
Q 2938 2591 2744 2837 
Q 2550 3084 2163 3084 
Q 1697 3084 1428 2787 
Q 1159 2491 1159 1978 
L 1159 0 
L 581 0 
L 581 3500 
L 1159 3500 
L 1159 2956 
Q 1366 3272 1645 3428 
Q 1925 3584 2291 3584 
Q 2894 3584 3203 3211 
Q 3513 2838 3513 2113 
z
" transform="scale(0.015625)"/>
       <path id="DejaVuSans-67" d="M 2906 1791 
Q 2906 2416 2648 2759 
Q 2391 3103 1925 3103 
Q 1463 3103 1205 2759 
Q 947 2416 947 1791 
Q 947 1169 1205 825 
Q 1463 481 1925 481 
Q 2391 481 2648 825 
Q 2906 1169 2906 1791 
z
M 3481 434 
Q 3481 -459 3084 -895 
Q 2688 -1331 1869 -1331 
Q 1566 -1331 1297 -1286 
Q 1028 -1241 775 -1147 
L 775 -588 
Q 1028 -725 1275 -790 
Q 1522 -856 1778 -856 
Q 2344 -856 2625 -561 
Q 2906 -266 2906 331 
L 2906 616 
Q 2728 306 2450 153 
Q 2172 0 1784 0 
Q 1141 0 747 490 
Q 353 981 353 1791 
Q 353 2603 747 3093 
Q 1141 3584 1784 3584 
Q 2172 3584 2450 3431 
Q 2728 3278 2906 2969 
L 2906 3500 
L 3481 3500 
L 3481 434 
z
" transform="scale(0.015625)"/>
       <path id="DejaVuSans-79" d="M 2059 -325 
Q 1816 -950 1584 -1140 
Q 1353 -1331 966 -1331 
L 506 -1331 
L 506 -850 
L 844 -850 
Q 1081 -850 1212 -737 
Q 1344 -625 1503 -206 
L 1606 56 
L 191 3500 
L 800 3500 
L 1894 763 
L 2988 3500 
L 3597 3500 
L 2059 -325 
z
" transform="scale(0.015625)"/>
       <path id="DejaVuSans-56" d="M 1831 0 
L 50 4666 
L 709 4666 
L 2188 738 
L 3669 4666 
L 4325 4666 
L 2547 0 
L 1831 0 
z
" transform="scale(0.015625)"/>
       <path id="DejaVuSans-6f" d="M 1959 3097 
Q 1497 3097 1228 2736 
Q 959 2375 959 1747 
Q 959 1119 1226 758 
Q 1494 397 1959 397 
Q 2419 397 2687 759 
Q 2956 1122 2956 1747 
Q 2956 2369 2687 2733 
Q 2419 3097 1959 3097 
z
M 1959 3584 
Q 2709 3584 3137 3096 
Q 3566 2609 3566 1747 
Q 3566 888 3137 398 
Q 2709 -91 1959 -91 
Q 1206 -91 779 398 
Q 353 888 353 1747 
Q 353 2609 779 3096 
Q 1206 3584 1959 3584 
z
" transform="scale(0.015625)"/>
      </defs>
      <use xlink:href="#DejaVuSans-52"/>
      <use xlink:href="#DejaVuSans-65" x="64.982422"/>
      <use xlink:href="#DejaVuSans-6c" x="126.505859"/>
      <use xlink:href="#DejaVuSans-61" x="154.289062"/>
      <use xlink:href="#DejaVuSans-74" x="215.568359"/>
      <use xlink:href="#DejaVuSans-69" x="254.777344"/>
      <use xlink:href="#DejaVuSans-76" x="282.560547"/>
      <use xlink:href="#DejaVuSans-65" x="341.740234"/>
      <use xlink:href="#DejaVuSans-20" x="403.263672"/>
      <use xlink:href="#DejaVuSans-4f" x="435.050781"/>
      <use xlink:href="#DejaVuSans-72" x="513.761719"/>
      <use xlink:href="#DejaVuSans-62" x="554.875"/>
      <use xlink:href="#DejaVuSans-69" x="618.351562"/>
      <use xlink:href="#DejaVuSans-74" x="646.134766"/>
      <use xlink:href="#DejaVuSans-61" x="685.34375"/>
      <use xlink:href="#DejaVuSans-6c" x="746.623047"/>
      <use xlink:href="#DejaVuSans-20" x="774.40625"/>
      <use xlink:href="#DejaVuSans-45" x="806.193359"/>
      <use xlink:href="#DejaVuSans-6e" x="869.376953"/>
      <use xlink:href="#DejaVuSans-65" x="932.755859"/>
      <use xlink:href="#DejaVuSans-72" x="994.279297"/>
      <use xlink:href="#DejaVuSans-67" x="1033.642578"/>
      <use xlink:href="#DejaVuSans-79" x="1097.119141"/>
      <use xlink:href="#DejaVuSans-20" x="1156.298828"/>
      <use xlink:href="#DejaVuSans-56" x="1188.085938"/>
      <use xlink:href="#DejaVuSans-61" x="1248.744141"/>
      <use xlink:href="#DejaVuSans-72" x="1310.023438"/>
      <use xlink:href="#DejaVuSans-69" x="1351.136719"/>
      <use xlink:href="#DejaVuSans-61" x="1378.919922"/>
      <use xlink:href="#DejaVuSans-74" x="1440.199219"/>
      <use xlink:href="#DejaVuSans-69" x="1479.408203"/>
      <use xlink:href="#DejaVuSans-6f" x="1507.191406"/>
      <use xlink:href="#DejaVuSans-6e" x="1568.373047"/>
     </g>
    </g>
    <g id="text_9">
     <!-- 1e−12 -->
     <g transform="translate(55.065625 22.9575) scale(0.16 -0.16)">
      <defs>
       <path id="DejaVuSans-32" d="M 1228 531 
L 3431 531 
L 3431 0 
L 469 0 
L 469 531 
Q 828 903 1448 1529 
Q 2069 2156 2228 2338 
Q 2531 2678 2651 2914 
Q 2772 3150 2772 3378 
Q 2772 3750 2511 3984 
Q 2250 4219 1831 4219 
Q 1534 4219 1204 4116 
Q 875 4013 500 3803 
L 500 4441 
Q 881 4594 1212 4672 
Q 1544 4750 1819 4750 
Q 2544 4750 2975 4387 
Q 3406 4025 3406 3419 
Q 3406 3131 3298 2873 
Q 3191 2616 2906 2266 
Q 2828 2175 2409 1742 
Q 1991 1309 1228 531 
z
" transform="scale(0.015625)"/>
      </defs>
      <use xlink:href="#DejaVuSans-31"/>
      <use xlink:href="#DejaVuSans-65" x="63.623047"/>
      <use xlink:href="#DejaVuSans-2212" x="125.146484"/>
      <use xlink:href="#DejaVuSans-31" x="208.935547"/>
      <use xlink:href="#DejaVuSans-32" x="272.558594"/>
     </g>
    </g>
   </g>
   <g id="line2d_7">
    <path d="M 68.435369 110.193722 
L 69.758379 179.998157 
L 69.90538 177.518895 
L 70.199382 162.249104 
L 70.640385 134.469067 
L 70.787386 130.456218 
L 70.934387 130.007308 
L 71.228389 136.46068 
L 71.816393 153.058973 
L 72.257396 159.988601 
L 72.698399 163.914858 
L 73.139403 166.138902 
L 73.580406 167.367139 
L 74.021409 168.03025 
L 74.756414 168.504227 
L 75.63842 168.693362 
L 77.108431 168.784511 
L 80.342453 168.782232 
L 82.253467 168.791347 
L 84.605483 168.793626 
L 89.162516 168.761724 
L 89.456518 169.09214 
L 89.75052 169.935271 
L 90.044522 171.91549 
L 90.338524 176.349905 
L 90.632526 185.202784 
L 91.22053 210.761056 
L 91.367531 211.943718 
L 91.514532 208.110889 
L 91.808534 187.000704 
L 92.249537 154.957158 
L 92.396538 152.518913 
L 92.543539 154.895632 
L 92.837541 169.502312 
L 93.425546 200.19457 
L 93.719548 205.431099 
L 93.866549 205.779745 
L 94.01355 205.128027 
L 95.189558 195.491264 
L 95.630561 194.370128 
L 96.071564 193.962234 
L 96.659568 193.841461 
L 104.891627 193.989579 
L 107.684646 193.905266 
L 109.007656 193.506488 
L 109.448659 193.139612 
L 110.036663 192.328383 
L 110.771668 190.82214 
L 111.506673 188.782674 
L 111.653674 188.810018 
L 111.947676 189.630362 
L 112.094677 190.0656 
L 112.241678 190.10206 
L 112.388679 189.500475 
L 113.123685 183.484619 
L 113.270686 184.751595 
L 113.711689 194.338225 
L 114.005691 198.613129 
L 114.152692 198.118644 
L 114.446694 191.567286 
L 115.034698 173.35565 
L 115.3287 170.821698 
L 115.475701 171.446071 
L 116.357707 181.597828 
L 116.651709 182.192577 
L 116.798711 182.019393 
L 117.239714 180.58607 
L 117.974719 177.988314 
L 118.562723 176.714503 
L 119.150727 175.971635 
L 119.738731 175.540955 
L 120.767739 175.144455 
L 122.38475 174.930254 
L 127.823788 174.941648 
L 128.852796 175.133062 
L 130.469807 175.814403 
L 130.763809 175.654892 
L 131.057811 175.240162 
L 131.498814 174.173715 
L 132.527821 171.436956 
L 132.968825 170.780681 
L 133.262827 170.659908 
L 133.556829 170.810305 
L 134.144833 171.655715 
L 134.732837 172.280088 
L 135.17384 172.407697 
L 135.908845 172.193496 
L 136.202847 172.61734 
L 136.790852 173.62454 
L 137.084854 173.711132 
L 137.819859 173.42629 
L 138.848866 173.189302 
L 140.318876 173.111825 
L 141.200883 173.093595 
L 145.02291 172.993331 
L 148.991938 172.535306 
L 150.167946 172.002082 
L 150.902951 171.708126 
L 151.343954 171.812947 
L 151.784957 172.259579 
L 152.519963 173.168794 
L 152.666964 173.171072 
L 152.813965 173.048021 
L 153.107967 172.264137 
L 153.401969 170.628006 
L 153.842972 166.39412 
L 154.430976 157.951413 
L 155.312982 144.768941 
L 155.606984 143.442719 
L 155.753985 144.010123 
L 156.047987 147.858904 
L 156.488991 158.810496 
L 157.076995 172.804196 
L 157.370997 176.106081 
L 157.517998 176.691715 
L 157.664999 176.684879 
L 157.959001 175.33359 
L 158.694006 170.614334 
L 158.988008 169.985403 
L 159.135009 169.971731 
L 159.429011 170.395575 
L 160.752021 173.326026 
L 161.487026 174.064336 
L 162.07503 174.365129 
L 163.104037 174.618068 
L 164.86805 174.841384 
L 166.191059 175.076093 
L 166.779063 175.317639 
L 167.367067 175.81896 
L 167.955071 176.668928 
L 168.543076 177.427746 
L 168.690077 177.398122 
L 168.837078 177.170249 
L 169.13108 175.869092 
L 169.572083 171.619255 
L 170.013086 167.412713 
L 170.160087 167.232694 
L 170.307088 168.119121 
L 170.60109 173.259943 
L 171.483096 194.144533 
L 171.630097 194.821317 
L 171.777098 194.572935 
L 172.0711 192.216725 
L 172.659105 186.597369 
L 173.100108 184.621707 
L 173.39411 184.225207 
L 173.688112 184.232043 
L 174.276116 184.747037 
L 175.158122 185.877289 
L 175.599125 186.706748 
L 176.481132 188.759886 
L 176.628133 188.796346 
L 176.775134 188.550243 
L 177.069136 186.934621 
L 177.510139 181.388184 
L 178.098143 173.94812 
L 178.245144 173.46275 
L 178.392145 173.713411 
L 178.686147 175.976193 
L 179.274151 181.866718 
L 179.568153 183.199777 
L 179.715154 183.379797 
L 179.862155 183.300042 
L 180.156157 182.643766 
L 181.185165 179.663183 
L 181.773169 178.820052 
L 182.361173 178.405323 
L 183.243179 178.202515 
L 183.831183 178.175171 
L 185.007192 178.289107 
L 186.1832 178.726624 
L 186.918205 179.214273 
L 187.800211 180.196407 
L 188.535217 181.105621 
L 188.97622 181.271969 
L 189.270222 180.96434 
L 189.564224 180.203243 
L 190.005227 178.093136 
L 190.593231 174.743398 
L 190.740232 174.706939 
L 190.887233 174.971272 
L 191.181235 176.507138 
L 191.622238 181.1079 
L 192.357244 189.270323 
L 192.651246 190.243342 
L 192.798247 190.040534 
L 193.092249 188.399847 
L 194.268257 178.87702 
L 194.562259 178.359748 
L 194.70926 178.39165 
L 195.003262 178.945382 
L 196.326272 182.363482 
L 196.473273 182.406778 
L 196.620274 182.27689 
L 196.914276 181.410972 
L 197.208278 179.250733 
L 197.50228 175.021404 
L 198.237285 160.107095 
L 198.384286 162.916773 
L 198.678288 184.519164 
L 198.97229 212.032589 
L 199.119291 215.193192 
L 199.266292 207.620961 
L 199.854296 155.203261 
L 200.001297 153.56713 
L 200.148299 155.695467 
L 200.883304 173.419454 
L 201.177306 176.550434 
L 201.471308 178.138711 
L 201.76531 178.933989 
L 202.206313 179.464934 
L 202.794317 179.715594 
L 203.823324 179.854597 
L 205.734338 179.925238 
L 207.645351 179.963976 
L 210.438371 179.961697 
L 211.467378 179.888778 
L 212.202384 179.982206 
L 213.525393 180.449346 
L 215.289405 180.668105 
L 216.02441 181.185377 
L 216.906417 182.247267 
L 217.641422 183.076726 
L 217.935424 183.010642 
L 218.229426 182.429565 
L 218.523428 181.062326 
L 219.258433 175.926061 
L 219.405434 175.882765 
L 219.552435 176.839833 
L 219.846437 182.757703 
L 220.287441 201.527629 
L 220.875445 225.98983 
L 221.169447 229.068398 
L 221.316448 228.211595 
L 221.757451 221.099668 
L 222.198454 215.293456 
L 222.492456 214.156368 
L 222.639457 214.26119 
L 222.933459 215.28662 
L 223.962466 220.056008 
L 224.40347 221.252343 
L 224.991474 222.220805 
L 225.579478 222.754029 
L 226.461484 223.234841 
L 227.196489 223.503732 
L 229.107503 223.982266 
L 229.989509 223.973151 
L 232.194525 223.706539 
L 232.488527 223.968593 
L 232.92953 224.750199 
L 233.517534 226.402281 
L 234.546541 229.540096 
L 234.987544 230.469819 
L 235.428547 230.991649 
L 235.86955 231.226359 
L 236.457555 231.219523 
L 237.19256 230.957468 
L 237.633563 230.592871 
L 237.927565 230.130288 
L 238.221567 229.289436 
L 238.66257 226.96057 
L 239.103573 223.184709 
L 239.98558 215.325358 
L 240.279582 214.38652 
L 240.426583 214.334109 
L 240.573584 214.505014 
L 240.867586 214.999499 
L 241.749592 216.273311 
L 242.043594 216.309771 
L 242.484597 216.091013 
L 243.807606 215.225094 
L 244.836614 214.956204 
L 246.306624 214.792135 
L 248.364639 214.616672 
L 249.246645 214.646296 
L 250.128651 214.760232 
L 250.422653 214.614394 
L 250.716655 214.245239 
L 251.157658 213.156004 
L 252.039665 210.562806 
L 252.333667 210.246062 
L 252.627669 210.289358 
L 253.215673 210.966142 
L 253.803677 211.606466 
L 254.24468 211.882192 
L 254.979685 211.980178 
L 255.861692 211.852569 
L 256.596697 211.538104 
L 257.0377 211.171228 
L 257.478703 210.560527 
L 257.919706 209.544212 
L 258.360709 207.953656 
L 258.948713 204.815841 
L 259.536717 201.696255 
L 259.683718 201.340773 
L 259.83072 201.299755 
L 259.977721 201.607384 
L 260.565725 204.537835 
L 260.712726 204.127663 
L 260.859727 202.218085 
L 261.153729 191.665271 
L 261.594732 157.374894 
L 262.182736 108.336555 
L 262.476738 99.255803 
L 262.623739 99.034766 
L 262.917741 103.68566 
L 263.358744 112.123809 
L 263.652746 114.163275 
L 263.799748 114.067569 
L 264.09375 112.424602 
L 265.122757 104.569809 
L 265.56376 102.721756 
L 266.004763 101.607455 
L 266.592767 100.82585 
L 267.327772 100.34048 
L 268.503781 100.021457 
L 269.679789 99.859667 
L 276.000834 99.367461 
L 278.205849 98.818286 
L 278.940854 98.259996 
L 279.528858 97.492063 
L 280.851868 95.416137 
L 280.998869 95.561976 
L 281.292871 96.521323 
L 281.733874 99.777633 
L 282.174877 102.787839 
L 282.321878 102.559966 
L 282.468879 101.190447 
L 282.762881 94.005601 
L 283.203884 73.244063 
L 283.791889 46.28437 
L 284.085891 41.699559 
L 284.232892 41.943383 
L 284.526894 45.767098 
L 285.114898 55.036984 
L 285.4089 56.634376 
L 285.555901 56.641213 
L 285.849903 55.590717 
L 287.172912 48.811485 
L 287.760917 47.227766 
L 288.348921 46.172712 
L 288.789924 45.739753 
L 289.083926 45.730638 
L 289.377928 45.999528 
L 289.818931 46.901907 
L 290.259934 47.656167 
L 290.406935 47.642495 
L 290.553936 47.45336 
L 290.847938 46.521358 
L 291.582944 43.447347 
L 291.876946 43.080471 
L 292.023947 43.139718 
L 292.317949 43.631925 
L 293.640958 46.667197 
L 294.228962 47.284734 
L 294.816966 47.619708 
L 295.698973 47.833909 
L 296.72798 47.95696 
L 298.19799 47.995699 
L 307.606057 47.749596 
L 308.782065 47.451081 
L 310.105074 46.794806 
L 310.399076 46.988499 
L 310.693078 47.467033 
L 311.428084 48.925422 
L 311.575085 49.01885 
L 311.869087 48.854781 
L 312.31009 48.102799 
L 312.898094 47.175355 
L 313.339097 46.899628 
L 314.074102 46.897349 
L 315.544113 47.214093 
L 317.602127 47.373605 
L 319.513141 47.252832 
L 320.689149 46.956596 
L 321.277153 46.674033 
L 321.865157 46.102071 
L 322.453161 45.047018 
L 323.62917 42.232782 
L 323.776171 42.305702 
L 323.923172 42.617888 
L 324.217174 44.023867 
L 324.952179 48.597284 
L 325.09918 48.727172 
L 325.246181 48.451445 
L 325.540183 46.851775 
L 326.275188 41.7702 
L 326.716191 40.364221 
L 327.010193 40.036084 
L 327.451197 39.985951 
L 328.039201 40.004181 
L 328.480204 39.858342 
L 329.656212 39.3593 
L 329.950214 39.272708 
L 330.244216 38.823797 
L 330.685219 37.383638 
L 331.126222 36.096154 
L 331.420225 35.765737 
L 331.714227 35.747508 
L 332.449232 36.064252 
L 333.184237 36.303519 
L 335.536254 36.519998 
L 335.830256 36.535949 
L 335.830256 36.535949 
" clip-path="url(#p1f1763cae3)" style="fill: none; stroke: #1f77b4; stroke-width: 1.5; stroke-linecap: square"/>
   </g>
   <g id="patch_3">
    <path d="M 55.065625 241.036875 
L 55.065625 25.9575 
" style="fill: none; stroke: #000000; stroke-width: 0.8; stroke-linejoin: miter; stroke-linecap: square"/>
   </g>
   <g id="patch_4">
    <path d="M 349.2 241.036875 
L 349.2 25.9575 
" style="fill: none; stroke: #000000; stroke-width: 0.8; stroke-linejoin: miter; stroke-linecap: square"/>
   </g>
   <g id="patch_5">
    <path d="M 55.065625 241.036875 
L 349.2 241.036875 
" style="fill: none; stroke: #000000; stroke-width: 0.8; stroke-linejoin: miter; stroke-linecap: square"/>
   </g>
   <g id="patch_6">
    <path d="M 55.065625 25.9575 
L 349.2 25.9575 
" style="fill: none; stroke: #000000; stroke-width: 0.8; stroke-linejoin: miter; stroke-linecap: square"/>
   </g>
  </g>
 </g>
 <defs>
  <clipPath id="p1f1763cae3">
   <rect x="55.065625" y="25.9575" width="294.134375" height="215.079375"/>
  </clipPath>
 </defs>
</svg>
