<?xml version="1.0" encoding="utf-8" standalone="no"?>
<!DOCTYPE svg PUBLIC "-//W3C//DTD SVG 1.1//EN"
  "http://www.w3.org/Graphics/SVG/1.1/DTD/svg11.dtd">
<svg xmlns:xlink="http://www.w3.org/1999/xlink" width="414pt" height="288pt" viewBox="0 0 414 288" xmlns="http://www.w3.org/2000/svg" version="1.1">
 <metadata>
  <rdf:RDF xmlns:dc="http://purl.org/dc/elements/1.1/" xmlns:cc="http://creativecommons.org/ns#" xmlns:rdf="http://www.w3.org/1999/02/22-rdf-syntax-ns#">
   <cc:Work>
    <dc:type rdf:resource="http://purl.org/dc/dcmitype/StillImage"/>
    <dc:date>2025-09-02T14:04:40.563010</dc:date>
    <dc:format>image/svg+xml</dc:format>
    <dc:creator>
     <cc:Agent>
      <dc:title>Matplotlib v3.10.1, https://matplotlib.org/</dc:title>
     </cc:Agent>
    </dc:creator>
   </cc:Work>
  </rdf:RDF>
 </metadata>
 <defs>
  <style type="text/css">*{stroke-linejoin: round; stroke-linecap: butt}</style>
 </defs>
 <g id="figure_1">
  <g id="patch_1">
   <path d="M 0 288 
L 414 288 
L 414 0 
L 0 0 
L 0 288 
z
" style="fill: none"/>
  </g>
  <g id="axes_1">
   <g id="patch_2">
    <path d="M 51.838125 241.036875 
L 403.2 241.036875 
L 403.2 10.8 
L 51.838125 10.8 
L 51.838125 241.036875 
z
" style="fill: none"/>
   </g>
   <g id="matplotlib.axis_1">
    <g id="xtick_1">
     <g id="line2d_1">
      <defs>
       <path id="md301a53f7b" d="M 0 0 
L 0 3.5 
" style="stroke: #000000; stroke-width: 0.8"/>
      </defs>
      <g>
       <use xlink:href="#md301a53f7b" x="67.809119" y="241.036875" style="stroke: #000000; stroke-width: 0.8"/>
      </g>
     </g>
     <g id="text_1">
      <!-- 0 -->
      <g transform="translate(62.719119 260.194375) scale(0.16 -0.16)">
       <defs>
        <path id="DejaVuSans-30" d="M 2034 4250 
Q 1547 4250 1301 3770 
Q 1056 3291 1056 2328 
Q 1056 1369 1301 889 
Q 1547 409 2034 409 
Q 2525 409 2770 889 
Q 3016 1369 3016 2328 
Q 3016 3291 2770 3770 
Q 2525 4250 2034 4250 
z
M 2034 4750 
Q 2819 4750 3233 4129 
Q 3647 3509 3647 2328 
Q 3647 1150 3233 529 
Q 2819 -91 2034 -91 
Q 1250 -91 836 529 
Q 422 1150 422 2328 
Q 422 3509 836 4129 
Q 1250 4750 2034 4750 
z
" transform="scale(0.015625)"/>
       </defs>
       <use xlink:href="#DejaVuSans-30"/>
      </g>
     </g>
    </g>
    <g id="xtick_2">
     <g id="line2d_2">
      <g>
       <use xlink:href="#md301a53f7b" x="131.693097" y="241.036875" style="stroke: #000000; stroke-width: 0.8"/>
      </g>
     </g>
     <g id="text_2">
      <!-- 2 -->
      <g transform="translate(126.603097 260.194375) scale(0.16 -0.16)">
       <defs>
        <path id="DejaVuSans-32" d="M 1228 531 
L 3431 531 
L 3431 0 
L 469 0 
L 469 531 
Q 828 903 1448 1529 
Q 2069 2156 2228 2338 
Q 2531 2678 2651 2914 
Q 2772 3150 2772 3378 
Q 2772 3750 2511 3984 
Q 2250 4219 1831 4219 
Q 1534 4219 1204 4116 
Q 875 4013 500 3803 
L 500 4441 
Q 881 4594 1212 4672 
Q 1544 4750 1819 4750 
Q 2544 4750 2975 4387 
Q 3406 4025 3406 3419 
Q 3406 3131 3298 2873 
Q 3191 2616 2906 2266 
Q 2828 2175 2409 1742 
Q 1991 1309 1228 531 
z
" transform="scale(0.015625)"/>
       </defs>
       <use xlink:href="#DejaVuSans-32"/>
      </g>
     </g>
    </g>
    <g id="xtick_3">
     <g id="line2d_3">
      <g>
       <use xlink:href="#md301a53f7b" x="195.577074" y="241.036875" style="stroke: #000000; stroke-width: 0.8"/>
      </g>
     </g>
     <g id="text_3">
      <!-- 4 -->
      <g transform="translate(190.487074 260.194375) scale(0.16 -0.16)">
       <defs>
        <path id="DejaVuSans-34" d="M 2419 4116 
L 825 1625 
L 2419 1625 
L 2419 4116 
z
M 2253 4666 
L 3047 4666 
L 3047 1625 
L 3713 1625 
L 3713 1100 
L 3047 1100 
L 3047 0 
L 2419 0 
L 2419 1100 
L 313 1100 
L 313 1709 
L 2253 4666 
z
" transform="scale(0.015625)"/>
       </defs>
       <use xlink:href="#DejaVuSans-34"/>
      </g>
     </g>
    </g>
    <g id="xtick_4">
     <g id="line2d_4">
      <g>
       <use xlink:href="#md301a53f7b" x="259.461051" y="241.036875" style="stroke: #000000; stroke-width: 0.8"/>
      </g>
     </g>
     <g id="text_4">
      <!-- 6 -->
      <g transform="translate(254.371051 260.194375) scale(0.16 -0.16)">
       <defs>
        <path id="DejaVuSans-36" d="M 2113 2584 
Q 1688 2584 1439 2293 
Q 1191 2003 1191 1497 
Q 1191 994 1439 701 
Q 1688 409 2113 409 
Q 2538 409 2786 701 
Q 3034 994 3034 1497 
Q 3034 2003 2786 2293 
Q 2538 2584 2113 2584 
z
M 3366 4563 
L 3366 3988 
Q 3128 4100 2886 4159 
Q 2644 4219 2406 4219 
Q 1781 4219 1451 3797 
Q 1122 3375 1075 2522 
Q 1259 2794 1537 2939 
Q 1816 3084 2150 3084 
Q 2853 3084 3261 2657 
Q 3669 2231 3669 1497 
Q 3669 778 3244 343 
Q 2819 -91 2113 -91 
Q 1303 -91 875 529 
Q 447 1150 447 2328 
Q 447 3434 972 4092 
Q 1497 4750 2381 4750 
Q 2619 4750 2861 4703 
Q 3103 4656 3366 4563 
z
" transform="scale(0.015625)"/>
       </defs>
       <use xlink:href="#DejaVuSans-36"/>
      </g>
     </g>
    </g>
    <g id="xtick_5">
     <g id="line2d_5">
      <g>
       <use xlink:href="#md301a53f7b" x="323.345028" y="241.036875" style="stroke: #000000; stroke-width: 0.8"/>
      </g>
     </g>
     <g id="text_5">
      <!-- 8 -->
      <g transform="translate(318.255028 260.194375) scale(0.16 -0.16)">
       <defs>
        <path id="DejaVuSans-38" d="M 2034 2216 
Q 1584 2216 1326 1975 
Q 1069 1734 1069 1313 
Q 1069 891 1326 650 
Q 1584 409 2034 409 
Q 2484 409 2743 651 
Q 3003 894 3003 1313 
Q 3003 1734 2745 1975 
Q 2488 2216 2034 2216 
z
M 1403 2484 
Q 997 2584 770 2862 
Q 544 3141 544 3541 
Q 544 4100 942 4425 
Q 1341 4750 2034 4750 
Q 2731 4750 3128 4425 
Q 3525 4100 3525 3541 
Q 3525 3141 3298 2862 
Q 3072 2584 2669 2484 
Q 3125 2378 3379 2068 
Q 3634 1759 3634 1313 
Q 3634 634 3220 271 
Q 2806 -91 2034 -91 
Q 1263 -91 848 271 
Q 434 634 434 1313 
Q 434 1759 690 2068 
Q 947 2378 1403 2484 
z
M 1172 3481 
Q 1172 3119 1398 2916 
Q 1625 2713 2034 2713 
Q 2441 2713 2670 2916 
Q 2900 3119 2900 3481 
Q 2900 3844 2670 4047 
Q 2441 4250 2034 4250 
Q 1625 4250 1398 4047 
Q 1172 3844 1172 3481 
z
" transform="scale(0.015625)"/>
       </defs>
       <use xlink:href="#DejaVuSans-38"/>
      </g>
     </g>
    </g>
    <g id="xtick_6">
     <g id="line2d_6">
      <g>
       <use xlink:href="#md301a53f7b" x="387.229006" y="241.036875" style="stroke: #000000; stroke-width: 0.8"/>
      </g>
     </g>
     <g id="text_6">
      <!-- 10 -->
      <g transform="translate(377.049006 260.194375) scale(0.16 -0.16)">
       <defs>
        <path id="DejaVuSans-31" d="M 794 531 
L 1825 531 
L 1825 4091 
L 703 3866 
L 703 4441 
L 1819 4666 
L 2450 4666 
L 2450 531 
L 3481 531 
L 3481 0 
L 794 0 
L 794 531 
z
" transform="scale(0.015625)"/>
       </defs>
       <use xlink:href="#DejaVuSans-31"/>
       <use xlink:href="#DejaVuSans-30" transform="translate(63.623047 0)"/>
      </g>
     </g>
    </g>
    <g id="text_7">
     <!-- Time [min] -->
     <g transform="translate(200.366719 275.120313) scale(0.1 -0.1)">
      <defs>
       <path id="DejaVuSans-54" d="M -19 4666 
L 3928 4666 
L 3928 4134 
L 2272 4134 
L 2272 0 
L 1638 0 
L 1638 4134 
L -19 4134 
L -19 4666 
z
" transform="scale(0.015625)"/>
       <path id="DejaVuSans-69" d="M 603 3500 
L 1178 3500 
L 1178 0 
L 603 0 
L 603 3500 
z
M 603 4863 
L 1178 4863 
L 1178 4134 
L 603 4134 
L 603 4863 
z
" transform="scale(0.015625)"/>
       <path id="DejaVuSans-6d" d="M 3328 2828 
Q 3544 3216 3844 3400 
Q 4144 3584 4550 3584 
Q 5097 3584 5394 3201 
Q 5691 2819 5691 2113 
L 5691 0 
L 5113 0 
L 5113 2094 
Q 5113 2597 4934 2840 
Q 4756 3084 4391 3084 
Q 3944 3084 3684 2787 
Q 3425 2491 3425 1978 
L 3425 0 
L 2847 0 
L 2847 2094 
Q 2847 2600 2669 2842 
Q 2491 3084 2119 3084 
Q 1678 3084 1418 2786 
Q 1159 2488 1159 1978 
L 1159 0 
L 581 0 
L 581 3500 
L 1159 3500 
L 1159 2956 
Q 1356 3278 1631 3431 
Q 1906 3584 2284 3584 
Q 2666 3584 2933 3390 
Q 3200 3197 3328 2828 
z
" transform="scale(0.015625)"/>
       <path id="DejaVuSans-65" d="M 3597 1894 
L 3597 1613 
L 953 1613 
Q 991 1019 1311 708 
Q 1631 397 2203 397 
Q 2534 397 2845 478 
Q 3156 559 3463 722 
L 3463 178 
Q 3153 47 2828 -22 
Q 2503 -91 2169 -91 
Q 1331 -91 842 396 
Q 353 884 353 1716 
Q 353 2575 817 3079 
Q 1281 3584 2069 3584 
Q 2775 3584 3186 3129 
Q 3597 2675 3597 1894 
z
M 3022 2063 
Q 3016 2534 2758 2815 
Q 2500 3097 2075 3097 
Q 1594 3097 1305 2825 
Q 1016 2553 972 2059 
L 3022 2063 
z
" transform="scale(0.015625)"/>
       <path id="DejaVuSans-20" transform="scale(0.015625)"/>
       <path id="DejaVuSans-5b" d="M 550 4863 
L 1875 4863 
L 1875 4416 
L 1125 4416 
L 1125 -397 
L 1875 -397 
L 1875 -844 
L 550 -844 
L 550 4863 
z
" transform="scale(0.015625)"/>
       <path id="DejaVuSans-6e" d="M 3513 2113 
L 3513 0 
L 2938 0 
L 2938 2094 
Q 2938 2591 2744 2837 
Q 2550 3084 2163 3084 
Q 1697 3084 1428 2787 
Q 1159 2491 1159 1978 
L 1159 0 
L 581 0 
L 581 3500 
L 1159 3500 
L 1159 2956 
Q 1366 3272 1645 3428 
Q 1925 3584 2291 3584 
Q 2894 3584 3203 3211 
Q 3513 2838 3513 2113 
z
" transform="scale(0.015625)"/>
       <path id="DejaVuSans-5d" d="M 1947 4863 
L 1947 -844 
L 622 -844 
L 622 -397 
L 1369 -397 
L 1369 4416 
L 622 4416 
L 622 4863 
L 1947 4863 
z
" transform="scale(0.015625)"/>
      </defs>
      <use xlink:href="#DejaVuSans-54"/>
      <use xlink:href="#DejaVuSans-69" transform="translate(57.958984 0)"/>
      <use xlink:href="#DejaVuSans-6d" transform="translate(85.742188 0)"/>
      <use xlink:href="#DejaVuSans-65" transform="translate(183.154297 0)"/>
      <use xlink:href="#DejaVuSans-20" transform="translate(244.677734 0)"/>
      <use xlink:href="#DejaVuSans-5b" transform="translate(276.464844 0)"/>
      <use xlink:href="#DejaVuSans-6d" transform="translate(315.478516 0)"/>
      <use xlink:href="#DejaVuSans-69" transform="translate(412.890625 0)"/>
      <use xlink:href="#DejaVuSans-6e" transform="translate(440.673828 0)"/>
      <use xlink:href="#DejaVuSans-5d" transform="translate(504.052734 0)"/>
     </g>
    </g>
   </g>
   <g id="matplotlib.axis_2">
    <g id="ytick_1">
     <g id="line2d_7">
      <defs>
       <path id="m69120f57e4" d="M 0 0 
L -3.5 0 
" style="stroke: #000000; stroke-width: 0.8"/>
      </defs>
      <g>
       <use xlink:href="#m69120f57e4" x="51.838125" y="229.905269" style="stroke: #000000; stroke-width: 0.8"/>
      </g>
     </g>
     <g id="text_8">
      <!-- 20 -->
      <g transform="translate(24.478125 235.984019) scale(0.16 -0.16)">
       <use xlink:href="#DejaVuSans-32"/>
       <use xlink:href="#DejaVuSans-30" transform="translate(63.623047 0)"/>
      </g>
     </g>
    </g>
    <g id="ytick_2">
     <g id="line2d_8">
      <g>
       <use xlink:href="#m69120f57e4" x="51.838125" y="196.590591" style="stroke: #000000; stroke-width: 0.8"/>
      </g>
     </g>
     <g id="text_9">
      <!-- 25 -->
      <g transform="translate(24.478125 202.669341) scale(0.16 -0.16)">
       <defs>
        <path id="DejaVuSans-35" d="M 691 4666 
L 3169 4666 
L 3169 4134 
L 1269 4134 
L 1269 2991 
Q 1406 3038 1543 3061 
Q 1681 3084 1819 3084 
Q 2600 3084 3056 2656 
Q 3513 2228 3513 1497 
Q 3513 744 3044 326 
Q 2575 -91 1722 -91 
Q 1428 -91 1123 -41 
Q 819 9 494 109 
L 494 744 
Q 775 591 1075 516 
Q 1375 441 1709 441 
Q 2250 441 2565 725 
Q 2881 1009 2881 1497 
Q 2881 1984 2565 2268 
Q 2250 2553 1709 2553 
Q 1456 2553 1204 2497 
Q 953 2441 691 2322 
L 691 4666 
z
" transform="scale(0.015625)"/>
       </defs>
       <use xlink:href="#DejaVuSans-32"/>
       <use xlink:href="#DejaVuSans-35" transform="translate(63.623047 0)"/>
      </g>
     </g>
    </g>
    <g id="ytick_3">
     <g id="line2d_9">
      <g>
       <use xlink:href="#m69120f57e4" x="51.838125" y="163.275913" style="stroke: #000000; stroke-width: 0.8"/>
      </g>
     </g>
     <g id="text_10">
      <!-- 30 -->
      <g transform="translate(24.478125 169.354663) scale(0.16 -0.16)">
       <defs>
        <path id="DejaVuSans-33" d="M 2597 2516 
Q 3050 2419 3304 2112 
Q 3559 1806 3559 1356 
Q 3559 666 3084 287 
Q 2609 -91 1734 -91 
Q 1441 -91 1130 -33 
Q 819 25 488 141 
L 488 750 
Q 750 597 1062 519 
Q 1375 441 1716 441 
Q 2309 441 2620 675 
Q 2931 909 2931 1356 
Q 2931 1769 2642 2001 
Q 2353 2234 1838 2234 
L 1294 2234 
L 1294 2753 
L 1863 2753 
Q 2328 2753 2575 2939 
Q 2822 3125 2822 3475 
Q 2822 3834 2567 4026 
Q 2313 4219 1838 4219 
Q 1578 4219 1281 4162 
Q 984 4106 628 3988 
L 628 4550 
Q 988 4650 1302 4700 
Q 1616 4750 1894 4750 
Q 2613 4750 3031 4423 
Q 3450 4097 3450 3541 
Q 3450 3153 3228 2886 
Q 3006 2619 2597 2516 
z
" transform="scale(0.015625)"/>
       </defs>
       <use xlink:href="#DejaVuSans-33"/>
       <use xlink:href="#DejaVuSans-30" transform="translate(63.623047 0)"/>
      </g>
     </g>
    </g>
    <g id="ytick_4">
     <g id="line2d_10">
      <g>
       <use xlink:href="#m69120f57e4" x="51.838125" y="129.961235" style="stroke: #000000; stroke-width: 0.8"/>
      </g>
     </g>
     <g id="text_11">
      <!-- 35 -->
      <g transform="translate(24.478125 136.039985) scale(0.16 -0.16)">
       <use xlink:href="#DejaVuSans-33"/>
       <use xlink:href="#DejaVuSans-35" transform="translate(63.623047 0)"/>
      </g>
     </g>
    </g>
    <g id="ytick_5">
     <g id="line2d_11">
      <g>
       <use xlink:href="#m69120f57e4" x="51.838125" y="96.646557" style="stroke: #000000; stroke-width: 0.8"/>
      </g>
     </g>
     <g id="text_12">
      <!-- 40 -->
      <g transform="translate(24.478125 102.725307) scale(0.16 -0.16)">
       <use xlink:href="#DejaVuSans-34"/>
       <use xlink:href="#DejaVuSans-30" transform="translate(63.623047 0)"/>
      </g>
     </g>
    </g>
    <g id="ytick_6">
     <g id="line2d_12">
      <g>
       <use xlink:href="#m69120f57e4" x="51.838125" y="63.331878" style="stroke: #000000; stroke-width: 0.8"/>
      </g>
     </g>
     <g id="text_13">
      <!-- 45 -->
      <g transform="translate(24.478125 69.410628) scale(0.16 -0.16)">
       <use xlink:href="#DejaVuSans-34"/>
       <use xlink:href="#DejaVuSans-35" transform="translate(63.623047 0)"/>
      </g>
     </g>
    </g>
    <g id="ytick_7">
     <g id="line2d_13">
      <g>
       <use xlink:href="#m69120f57e4" x="51.838125" y="30.0172" style="stroke: #000000; stroke-width: 0.8"/>
      </g>
     </g>
     <g id="text_14">
      <!-- 50 -->
      <g transform="translate(24.478125 36.09595) scale(0.16 -0.16)">
       <use xlink:href="#DejaVuSans-35"/>
       <use xlink:href="#DejaVuSans-30" transform="translate(63.623047 0)"/>
      </g>
     </g>
    </g>
    <g id="text_15">
     <!-- Temp Measurements [ºC] -->
     <g transform="translate(18.398438 189.098906) rotate(-90) scale(0.1 -0.1)">
      <defs>
       <path id="DejaVuSans-70" d="M 1159 525 
L 1159 -1331 
L 581 -1331 
L 581 3500 
L 1159 3500 
L 1159 2969 
Q 1341 3281 1617 3432 
Q 1894 3584 2278 3584 
Q 2916 3584 3314 3078 
Q 3713 2572 3713 1747 
Q 3713 922 3314 415 
Q 2916 -91 2278 -91 
Q 1894 -91 1617 61 
Q 1341 213 1159 525 
z
M 3116 1747 
Q 3116 2381 2855 2742 
Q 2594 3103 2138 3103 
Q 1681 3103 1420 2742 
Q 1159 2381 1159 1747 
Q 1159 1113 1420 752 
Q 1681 391 2138 391 
Q 2594 391 2855 752 
Q 3116 1113 3116 1747 
z
" transform="scale(0.015625)"/>
       <path id="DejaVuSans-4d" d="M 628 4666 
L 1569 4666 
L 2759 1491 
L 3956 4666 
L 4897 4666 
L 4897 0 
L 4281 0 
L 4281 4097 
L 3078 897 
L 2444 897 
L 1241 4097 
L 1241 0 
L 628 0 
L 628 4666 
z
" transform="scale(0.015625)"/>
       <path id="DejaVuSans-61" d="M 2194 1759 
Q 1497 1759 1228 1600 
Q 959 1441 959 1056 
Q 959 750 1161 570 
Q 1363 391 1709 391 
Q 2188 391 2477 730 
Q 2766 1069 2766 1631 
L 2766 1759 
L 2194 1759 
z
M 3341 1997 
L 3341 0 
L 2766 0 
L 2766 531 
Q 2569 213 2275 61 
Q 1981 -91 1556 -91 
Q 1019 -91 701 211 
Q 384 513 384 1019 
Q 384 1609 779 1909 
Q 1175 2209 1959 2209 
L 2766 2209 
L 2766 2266 
Q 2766 2663 2505 2880 
Q 2244 3097 1772 3097 
Q 1472 3097 1187 3025 
Q 903 2953 641 2809 
L 641 3341 
Q 956 3463 1253 3523 
Q 1550 3584 1831 3584 
Q 2591 3584 2966 3190 
Q 3341 2797 3341 1997 
z
" transform="scale(0.015625)"/>
       <path id="DejaVuSans-73" d="M 2834 3397 
L 2834 2853 
Q 2591 2978 2328 3040 
Q 2066 3103 1784 3103 
Q 1356 3103 1142 2972 
Q 928 2841 928 2578 
Q 928 2378 1081 2264 
Q 1234 2150 1697 2047 
L 1894 2003 
Q 2506 1872 2764 1633 
Q 3022 1394 3022 966 
Q 3022 478 2636 193 
Q 2250 -91 1575 -91 
Q 1294 -91 989 -36 
Q 684 19 347 128 
L 347 722 
Q 666 556 975 473 
Q 1284 391 1588 391 
Q 1994 391 2212 530 
Q 2431 669 2431 922 
Q 2431 1156 2273 1281 
Q 2116 1406 1581 1522 
L 1381 1569 
Q 847 1681 609 1914 
Q 372 2147 372 2553 
Q 372 3047 722 3315 
Q 1072 3584 1716 3584 
Q 2034 3584 2315 3537 
Q 2597 3491 2834 3397 
z
" transform="scale(0.015625)"/>
       <path id="DejaVuSans-75" d="M 544 1381 
L 544 3500 
L 1119 3500 
L 1119 1403 
Q 1119 906 1312 657 
Q 1506 409 1894 409 
Q 2359 409 2629 706 
Q 2900 1003 2900 1516 
L 2900 3500 
L 3475 3500 
L 3475 0 
L 2900 0 
L 2900 538 
Q 2691 219 2414 64 
Q 2138 -91 1772 -91 
Q 1169 -91 856 284 
Q 544 659 544 1381 
z
M 1991 3584 
L 1991 3584 
z
" transform="scale(0.015625)"/>
       <path id="DejaVuSans-72" d="M 2631 2963 
Q 2534 3019 2420 3045 
Q 2306 3072 2169 3072 
Q 1681 3072 1420 2755 
Q 1159 2438 1159 1844 
L 1159 0 
L 581 0 
L 581 3500 
L 1159 3500 
L 1159 2956 
Q 1341 3275 1631 3429 
Q 1922 3584 2338 3584 
Q 2397 3584 2469 3576 
Q 2541 3569 2628 3553 
L 2631 2963 
z
" transform="scale(0.015625)"/>
       <path id="DejaVuSans-74" d="M 1172 4494 
L 1172 3500 
L 2356 3500 
L 2356 3053 
L 1172 3053 
L 1172 1153 
Q 1172 725 1289 603 
Q 1406 481 1766 481 
L 2356 481 
L 2356 0 
L 1766 0 
Q 1100 0 847 248 
Q 594 497 594 1153 
L 594 3053 
L 172 3053 
L 172 3500 
L 594 3500 
L 594 4494 
L 1172 4494 
z
" transform="scale(0.015625)"/>
       <path id="DejaVuSans-ba" d="M 434 1850 
L 2584 1850 
L 2584 1466 
L 434 1466 
L 434 1850 
z
M 1509 4750 
Q 2069 4750 2391 4404 
Q 2713 4059 2713 3463 
Q 2713 2866 2391 2523 
Q 2069 2181 1509 2181 
Q 950 2181 625 2525 
Q 300 2869 300 3463 
Q 300 4059 625 4404 
Q 950 4750 1509 4750 
z
M 1509 4391 
Q 1181 4391 984 4139 
Q 788 3888 788 3463 
Q 788 3047 986 2797 
Q 1184 2547 1509 2547 
Q 1838 2547 2033 2797 
Q 2228 3047 2228 3463 
Q 2228 3891 2034 4141 
Q 1841 4391 1509 4391 
z
" transform="scale(0.015625)"/>
       <path id="DejaVuSans-43" d="M 4122 4306 
L 4122 3641 
Q 3803 3938 3442 4084 
Q 3081 4231 2675 4231 
Q 1875 4231 1450 3742 
Q 1025 3253 1025 2328 
Q 1025 1406 1450 917 
Q 1875 428 2675 428 
Q 3081 428 3442 575 
Q 3803 722 4122 1019 
L 4122 359 
Q 3791 134 3420 21 
Q 3050 -91 2638 -91 
Q 1578 -91 968 557 
Q 359 1206 359 2328 
Q 359 3453 968 4101 
Q 1578 4750 2638 4750 
Q 3056 4750 3426 4639 
Q 3797 4528 4122 4306 
z
" transform="scale(0.015625)"/>
      </defs>
      <use xlink:href="#DejaVuSans-54"/>
      <use xlink:href="#DejaVuSans-65" transform="translate(44.083984 0)"/>
      <use xlink:href="#DejaVuSans-6d" transform="translate(105.607422 0)"/>
      <use xlink:href="#DejaVuSans-70" transform="translate(203.019531 0)"/>
      <use xlink:href="#DejaVuSans-20" transform="translate(266.496094 0)"/>
      <use xlink:href="#DejaVuSans-4d" transform="translate(298.283203 0)"/>
      <use xlink:href="#DejaVuSans-65" transform="translate(384.5625 0)"/>
      <use xlink:href="#DejaVuSans-61" transform="translate(446.085938 0)"/>
      <use xlink:href="#DejaVuSans-73" transform="translate(507.365234 0)"/>
      <use xlink:href="#DejaVuSans-75" transform="translate(559.464844 0)"/>
      <use xlink:href="#DejaVuSans-72" transform="translate(622.84375 0)"/>
      <use xlink:href="#DejaVuSans-65" transform="translate(661.707031 0)"/>
      <use xlink:href="#DejaVuSans-6d" transform="translate(723.230469 0)"/>
      <use xlink:href="#DejaVuSans-65" transform="translate(820.642578 0)"/>
      <use xlink:href="#DejaVuSans-6e" transform="translate(882.166016 0)"/>
      <use xlink:href="#DejaVuSans-74" transform="translate(945.544922 0)"/>
      <use xlink:href="#DejaVuSans-73" transform="translate(984.753906 0)"/>
      <use xlink:href="#DejaVuSans-20" transform="translate(1036.853516 0)"/>
      <use xlink:href="#DejaVuSans-5b" transform="translate(1068.640625 0)"/>
      <use xlink:href="#DejaVuSans-ba" transform="translate(1107.654297 0)"/>
      <use xlink:href="#DejaVuSans-43" transform="translate(1154.773438 0)"/>
      <use xlink:href="#DejaVuSans-5d" transform="translate(1224.597656 0)"/>
     </g>
    </g>
   </g>
   <g id="line2d_14">
    <path d="M 67.809119 229.238975 
L 71.003318 228.025455 
L 74.197517 225.819293 
L 77.391716 222.644045 
L 80.585915 218.522704 
L 83.780114 214.810295 
L 86.974313 209.205445 
L 90.168511 204.595418 
L 93.36271 201.361423 
L 96.556909 199.437528 
L 99.751108 198.525316 
L 102.945307 196.900566 
L 106.139506 196.869646 
L 109.333705 197.192799 
L 112.527903 197.951158 
L 115.722102 197.505467 
L 118.916301 196.851 
L 122.1105 196.082413 
L 125.304699 194.012035 
L 128.498898 194.812744 
L 131.693097 194.671194 
L 134.887295 193.760211 
L 138.081494 195.320805 
L 141.275693 194.02011 
L 144.469892 194.10738 
L 147.664091 190.847294 
L 150.85829 189.404506 
L 154.052489 184.689024 
L 157.246688 182.267267 
L 160.440886 177.274673 
L 163.635085 173.46207 
L 166.829284 171.615771 
L 170.023483 167.822396 
L 173.217682 165.919814 
L 176.411881 164.844672 
L 179.60608 165.794065 
L 182.800278 166.007727 
L 185.994477 166.699845 
L 189.188676 167.746838 
L 192.382875 167.700706 
L 195.577074 170.453442 
L 198.771273 171.816411 
L 201.965472 173.107841 
L 205.15967 173.34331 
L 208.353869 175.621786 
L 211.548068 175.547648 
L 214.742267 176.810489 
L 217.936466 179.361369 
L 221.130665 180.525239 
L 224.324864 181.645503 
L 227.519063 182.733128 
L 230.713261 183.025935 
L 233.90746 183.516495 
L 237.101659 185.892369 
L 240.295858 185.59985 
L 243.490057 186.694199 
L 246.684256 187.718814 
L 249.878455 188.545875 
L 253.072653 190.770822 
L 256.266852 191.624233 
L 259.461051 192.443489 
L 262.65525 193.233598 
L 265.849449 193.999509 
L 269.043648 193.413303 
L 272.237847 195.476953 
L 275.432045 196.196331 
L 278.626244 196.887994 
L 281.820443 197.61131 
L 285.014642 198.310879 
L 288.208841 197.674164 
L 291.40304 198.366818 
L 294.597239 200.388842 
L 297.791438 199.742084 
L 300.985636 200.423612 
L 304.179835 201.099928 
L 307.374034 201.764293 
L 310.568233 202.957463 
L 313.762432 203.022971 
L 316.956631 203.620542 
L 320.15083 204.199278 
L 323.345028 204.760794 
L 326.539227 205.306568 
L 329.733426 207.170521 
L 332.927625 206.356074 
L 336.121824 206.995389 
L 339.316023 207.356681 
L 342.510222 207.840809 
L 345.70442 208.315056 
L 348.898619 210.112547 
L 352.092818 210.568553 
L 355.287017 209.683437 
L 358.481216 210.122666 
L 361.675415 211.12426 
L 364.869614 210.977293 
L 368.063813 211.393023 
L 371.258011 211.801195 
L 374.45221 212.201897 
L 377.646409 213.927786 
L 380.840608 214.135407 
L 384.034807 214.692397 
L 387.229006 215.063786 
" clip-path="url(#p73acae11c8)" style="fill: none; stroke: #2b737e; stroke-width: 1.5; stroke-linecap: square"/>
   </g>
   <g id="line2d_15">
    <path d="M 67.809119 229.238975 
L 71.003318 228.648748 
L 74.197517 225.177158 
L 77.391716 226.041542 
L 80.585915 223.207207 
L 83.780114 221.187773 
L 86.974313 220.094517 
L 90.168511 221.287399 
L 93.36271 219.449748 
L 96.556909 219.234617 
L 99.751108 216.702221 
L 102.945307 211.875904 
L 106.139506 208.776218 
L 109.333705 202.095063 
L 112.527903 197.184511 
L 115.722102 188.735423 
L 118.916301 182.098858 
L 122.1105 173.297275 
L 125.304699 162.350418 
L 128.498898 151.942736 
L 131.693097 142.093052 
L 134.887295 128.821979 
L 138.081494 116.145218 
L 141.275693 103.205594 
L 144.469892 89.931977 
L 147.664091 75.190945 
L 150.85829 60.950857 
L 154.052489 52.493028 
L 157.246688 49.823879 
L 160.440886 52.008914 
L 163.635085 54.484598 
L 166.829284 53.189265 
L 170.023483 50.078344 
L 173.217682 47.173665 
L 176.411881 43.14147 
L 179.60608 37.235088 
L 182.800278 32.890347 
L 185.994477 29.225548 
L 189.188676 27.104505 
L 192.382875 23.230249 
L 195.577074 21.704119 
L 198.771273 21.666028 
L 201.965472 21.265312 
L 205.15967 21.500784 
L 208.353869 21.979366 
L 211.548068 22.944195 
L 214.742267 24.09417 
L 217.936466 27.606971 
L 221.130665 28.79633 
L 224.324864 31.609945 
L 227.519063 34.669896 
L 230.713261 39.102654 
L 233.90746 42.703112 
L 237.101659 46.275385 
L 240.295858 49.201679 
L 243.490057 53.721426 
L 246.684256 56.215552 
L 249.878455 60.084706 
L 253.072653 63.979305 
L 256.266852 68.705471 
L 259.461051 72.957743 
L 262.65525 75.210085 
L 265.849449 78.642408 
L 269.043648 83.268137 
L 272.237847 85.101885 
L 275.432045 88.152872 
L 278.626244 91.099163 
L 281.820443 95.283271 
L 285.014642 97.76586 
L 288.208841 99.405793 
L 291.40304 103.358586 
L 294.597239 105.917279 
L 297.791438 107.088639 
L 300.985636 109.543981 
L 304.179835 111.956222 
L 307.374034 115.662807 
L 310.568233 118.002771 
L 313.762432 120.312263 
L 316.956631 122.594213 
L 320.15083 124.850933 
L 323.345028 126.616703 
L 326.539227 127.962435 
L 329.733426 131.484225 
L 332.927625 132.319364 
L 336.121824 135.797991 
L 339.316023 137.921783 
L 342.510222 140.022469 
L 345.70442 142.098954 
L 348.898619 144.149963 
L 352.092818 146.174095 
L 355.287017 146.83676 
L 358.481216 150.112407 
L 361.675415 151.554775 
L 364.869614 153.818053 
L 368.063813 154.255193 
L 371.258011 155.974028 
L 374.45221 158.977719 
L 377.646409 159.271466 
L 380.840608 161.565024 
L 384.034807 163.617522 
L 387.229006 165.107432 
" clip-path="url(#p73acae11c8)" style="fill: none; stroke: #5ea04b; stroke-width: 1.5; stroke-linecap: square"/>
   </g>
   <g id="line2d_16">
    <path d="M 67.809119 230.571562 
L 71.003318 228.779419 
L 74.197517 229.116151 
L 77.391716 225.437514 
L 80.585915 221.879054 
L 83.780114 217.383462 
L 86.974313 211.972955 
L 90.168511 205.768267 
L 93.36271 199.826033 
L 96.556909 190.467033 
L 99.751108 183.224098 
L 102.945307 179.861261 
L 106.139506 177.985964 
L 109.333705 177.121654 
L 112.527903 177.222469 
L 115.722102 177.110292 
L 118.916301 174.631331 
L 122.1105 171.299074 
L 125.304699 170.419536 
L 128.498898 167.288159 
L 131.693097 167.38796 
L 134.887295 166.717752 
L 138.081494 165.490284 
L 141.275693 166.23807 
L 144.469892 167.432401 
L 147.664091 168.59256 
L 150.85829 170.772867 
L 154.052489 171.283107 
L 157.246688 171.599695 
L 160.440886 171.873584 
L 163.635085 172.231979 
L 166.829284 172.534909 
L 170.023483 173.483226 
L 173.217682 174.39021 
L 176.411881 174.09256 
L 179.60608 175.606392 
L 182.800278 176.307426 
L 185.994477 177.193279 
L 189.188676 177.98098 
L 192.382875 179.890637 
L 195.577074 178.899442 
L 198.771273 180.330877 
L 201.965472 178.863902 
L 205.15967 179.85178 
L 208.353869 177.997851 
L 211.548068 177.341426 
L 214.742267 176.596434 
L 217.936466 177.144131 
L 221.130665 176.367547 
L 224.324864 174.312093 
L 227.519063 174.928179 
L 230.713261 174.384296 
L 233.90746 173.440497 
L 237.101659 172.673099 
L 240.295858 172.693509 
L 243.490057 174.239279 
L 246.684256 173.31096 
L 249.878455 173.89901 
L 253.072653 174.658956 
L 256.266852 176.793346 
L 259.461051 176.630438 
L 262.65525 177.804668 
L 265.849449 178.996438 
L 269.043648 180.000641 
L 272.237847 182.246986 
L 275.432045 181.731934 
L 278.626244 183.804224 
L 281.820443 183.150293 
L 285.014642 183.782954 
L 288.208841 185.715479 
L 291.40304 184.961608 
L 294.597239 186.861471 
L 297.791438 186.092872 
L 300.985636 187.992793 
L 304.179835 187.236117 
L 307.374034 187.824574 
L 310.568233 188.428412 
L 313.762432 190.382051 
L 316.956631 191.02128 
L 320.15083 191.215234 
L 323.345028 192.354488 
L 326.539227 191.980946 
L 329.733426 192.422778 
L 332.927625 194.477568 
L 336.121824 195.211745 
L 339.316023 195.955746 
L 342.510222 195.374718 
L 345.70442 196.131507 
L 348.898619 198.223773 
L 352.092818 198.98389 
L 355.287017 199.723745 
L 358.481216 200.43187 
L 361.675415 201.111136 
L 364.869614 201.764254 
L 368.063813 202.393766 
L 371.258011 203.002029 
L 374.45221 202.258625 
L 377.646409 202.830709 
L 380.840608 203.387483 
L 384.034807 205.263133 
L 387.229006 205.793905 
" clip-path="url(#p73acae11c8)" style="fill: none; stroke: #bdab62; stroke-width: 1.5; stroke-linecap: square"/>
   </g>
   <g id="patch_3">
    <path d="M 51.838125 241.036875 
L 51.838125 10.8 
" style="fill: none; stroke: #000000; stroke-width: 0.8; stroke-linejoin: miter; stroke-linecap: square"/>
   </g>
   <g id="patch_4">
    <path d="M 403.2 241.036875 
L 403.2 10.8 
" style="fill: none; stroke: #000000; stroke-width: 0.8; stroke-linejoin: miter; stroke-linecap: square"/>
   </g>
   <g id="patch_5">
    <path d="M 51.838125 241.036875 
L 403.2 241.036875 
" style="fill: none; stroke: #000000; stroke-width: 0.8; stroke-linejoin: miter; stroke-linecap: square"/>
   </g>
   <g id="patch_6">
    <path d="M 51.838125 10.8 
L 403.2 10.8 
" style="fill: none; stroke: #000000; stroke-width: 0.8; stroke-linejoin: miter; stroke-linecap: square"/>
   </g>
   <g id="legend_1">
    <g id="patch_7">
     <path d="M 347.31 236.536875 
L 396.9 236.536875 
Q 398.7 236.536875 398.7 234.736875 
L 398.7 194.871094 
Q 398.7 193.071094 396.9 193.071094 
L 347.31 193.071094 
Q 345.51 193.071094 345.51 194.871094 
L 345.51 234.736875 
Q 345.51 236.536875 347.31 236.536875 
z
" style="fill: #ffffff; opacity: 0.8; stroke: #cccccc; stroke-linejoin: miter"/>
    </g>
    <g id="line2d_17">
     <path d="M 349.11 200.359687 
L 358.11 200.359687 
L 367.11 200.359687 
" style="fill: none; stroke: #2b737e; stroke-width: 1.5; stroke-linecap: square"/>
    </g>
    <g id="text_16">
     <!-- $T_{rw,1}$ -->
     <g transform="translate(374.31 203.509687) scale(0.09 -0.09)">
      <defs>
       <path id="DejaVuSans-Oblique-54" d="M 378 4666 
L 4325 4666 
L 4225 4134 
L 2559 4134 
L 1759 0 
L 1125 0 
L 1925 4134 
L 275 4134 
L 378 4666 
z
" transform="scale(0.015625)"/>
       <path id="DejaVuSans-Oblique-72" d="M 2853 2969 
Q 2766 3016 2653 3041 
Q 2541 3066 2413 3066 
Q 1953 3066 1609 2717 
Q 1266 2369 1153 1784 
L 800 0 
L 225 0 
L 909 3500 
L 1484 3500 
L 1375 2956 
Q 1603 3259 1920 3421 
Q 2238 3584 2597 3584 
Q 2691 3584 2781 3573 
Q 2872 3563 2963 3538 
L 2853 2969 
z
" transform="scale(0.015625)"/>
       <path id="DejaVuSans-Oblique-77" d="M 544 3500 
L 1113 3500 
L 1259 684 
L 2566 3500 
L 3231 3500 
L 3425 684 
L 4666 3500 
L 5241 3500 
L 3641 0 
L 2969 0 
L 2797 2900 
L 1459 0 
L 781 0 
L 544 3500 
z
" transform="scale(0.015625)"/>
       <path id="DejaVuSans-2c" d="M 750 794 
L 1409 794 
L 1409 256 
L 897 -744 
L 494 -744 
L 750 256 
L 750 794 
z
" transform="scale(0.015625)"/>
      </defs>
      <use xlink:href="#DejaVuSans-Oblique-54" transform="translate(0 0.09375)"/>
      <use xlink:href="#DejaVuSans-Oblique-72" transform="translate(61.083984 -16.3125) scale(0.7)"/>
      <use xlink:href="#DejaVuSans-Oblique-77" transform="translate(89.863281 -16.3125) scale(0.7)"/>
      <use xlink:href="#DejaVuSans-2c" transform="translate(147.114258 -16.3125) scale(0.7)"/>
      <use xlink:href="#DejaVuSans-31" transform="translate(183.00293 -16.3125) scale(0.7)"/>
     </g>
    </g>
    <g id="line2d_18">
     <path d="M 349.11 213.948281 
L 358.11 213.948281 
L 367.11 213.948281 
" style="fill: none; stroke: #5ea04b; stroke-width: 1.5; stroke-linecap: square"/>
    </g>
    <g id="text_17">
     <!-- $T_{rw,2}$ -->
     <g transform="translate(374.31 217.098281) scale(0.09 -0.09)">
      <use xlink:href="#DejaVuSans-Oblique-54" transform="translate(0 0.09375)"/>
      <use xlink:href="#DejaVuSans-Oblique-72" transform="translate(61.083984 -16.3125) scale(0.7)"/>
      <use xlink:href="#DejaVuSans-Oblique-77" transform="translate(89.863281 -16.3125) scale(0.7)"/>
      <use xlink:href="#DejaVuSans-2c" transform="translate(147.114258 -16.3125) scale(0.7)"/>
      <use xlink:href="#DejaVuSans-32" transform="translate(183.00293 -16.3125) scale(0.7)"/>
     </g>
    </g>
    <g id="line2d_19">
     <path d="M 349.11 227.536875 
L 358.11 227.536875 
L 367.11 227.536875 
" style="fill: none; stroke: #bdab62; stroke-width: 1.5; stroke-linecap: square"/>
    </g>
    <g id="text_18">
     <!-- $T_{rw,3}$ -->
     <g transform="translate(374.31 230.686875) scale(0.09 -0.09)">
      <use xlink:href="#DejaVuSans-Oblique-54" transform="translate(0 0.09375)"/>
      <use xlink:href="#DejaVuSans-Oblique-72" transform="translate(61.083984 -16.3125) scale(0.7)"/>
      <use xlink:href="#DejaVuSans-Oblique-77" transform="translate(89.863281 -16.3125) scale(0.7)"/>
      <use xlink:href="#DejaVuSans-2c" transform="translate(147.114258 -16.3125) scale(0.7)"/>
      <use xlink:href="#DejaVuSans-33" transform="translate(183.00293 -16.3125) scale(0.7)"/>
     </g>
    </g>
   </g>
  </g>
 </g>
 <defs>
  <clipPath id="p73acae11c8">
   <rect x="51.838125" y="10.8" width="351.361875" height="230.236875"/>
  </clipPath>
 </defs>
</svg>
