<?xml version="1.0" encoding="UTF-8" standalone="no"?>
<!DOCTYPE svg PUBLIC "-//W3C//DTD SVG 1.1//EN"
 "http://www.w3.org/Graphics/SVG/1.1/DTD/svg11.dtd">
<!-- Generated by graphviz version 15.1.0 (20260618.0150)
 -->
<!-- Title: prescribedRot2DOFIO Pages: 1 -->
<svg width="437pt" height="98pt"
 viewBox="0.00 0.00 437.00 98.00" xmlns="http://www.w3.org/2000/svg" xmlns:xlink="http://www.w3.org/1999/xlink">
<g id="graph0" class="graph" transform="scale(1 1) rotate(0) translate(4 94)">
<title>prescribedRot2DOFIO</title>
<!-- module -->
<g id="node1" class="node">
<title>module</title>
<path fill="#8a7f73" stroke="#555555" stroke-width="2" d="M258,-63C258,-63 168.5,-63 168.5,-63 162.5,-63 156.5,-57 156.5,-51 156.5,-51 156.5,-39 156.5,-39 156.5,-33 162.5,-27 168.5,-27 168.5,-27 258,-27 258,-27 264,-27 270,-33 270,-39 270,-39 270,-51 270,-51 270,-57 264,-63 258,-63"/>
<text xml:space="preserve" text-anchor="middle" x="213.25" y="-40.36" font-family="Helvetica,sans-Serif" font-size="11.20" fill="white">prescribedRot2DOF</text>
</g>
<!-- msg_2 -->
<g id="node4" class="node">
<title>msg_2</title>
<path fill="white" stroke="#555555" d="M416.75,-63C416.75,-63 318,-63 318,-63 312,-63 306,-57 306,-51 306,-51 306,-39 306,-39 306,-33 312,-27 318,-27 318,-27 416.75,-27 416.75,-27 422.75,-27 428.75,-33 428.75,-39 428.75,-39 428.75,-51 428.75,-51 428.75,-57 422.75,-63 416.75,-63"/>
<text xml:space="preserve" text-anchor="start" x="316" y="-48.5" font-family="Helvetica,sans-Serif" font-size="9.00">prescribedMotionOutMsg</text>
<text xml:space="preserve" text-anchor="start" x="316" y="-36.6" font-family="Helvetica,sans-Serif" font-style="italic" font-size="7.00">PrescribedRotationMsgPayload</text>
</g>
<!-- module&#45;&gt;msg_2 -->
<g id="edge3" class="edge">
<title>module&#45;&gt;msg_2</title>
<path fill="none" stroke="#555555" d="M270.46,-45C278.23,-45 286.29,-45 294.3,-45"/>
<polygon fill="#555555" stroke="#555555" points="294.02,-48.5 304.02,-45 294.02,-41.5 294.02,-48.5"/>
</g>
<!-- msg_0 -->
<g id="node2" class="node">
<title>msg_0</title>
<path fill="white" stroke="#555555" d="M108.5,-90C108.5,-90 12,-90 12,-90 6,-90 0,-84 0,-78 0,-78 0,-66 0,-66 0,-60 6,-54 12,-54 12,-54 108.5,-54 108.5,-54 114.5,-54 120.5,-60 120.5,-66 120.5,-66 120.5,-78 120.5,-78 120.5,-84 114.5,-90 108.5,-90"/>
<text xml:space="preserve" text-anchor="start" x="10" y="-75.5" font-family="Helvetica,sans-Serif" font-size="9.00">spinningBodyRef1InMsg</text>
<text xml:space="preserve" text-anchor="start" x="10" y="-63.6" font-family="Helvetica,sans-Serif" font-style="italic" font-size="7.00">HingedRigidBodyMsgPayload</text>
</g>
<!-- msg_0&#45;&gt;module -->
<g id="edge1" class="edge">
<title>msg_0&#45;&gt;module</title>
<path fill="none" stroke="#555555" d="M120.93,-61.33C128.89,-59.91 137.09,-58.44 145.16,-57"/>
<polygon fill="#555555" stroke="#555555" points="145.73,-60.45 154.96,-55.24 144.5,-53.56 145.73,-60.45"/>
</g>
<!-- msg_1 -->
<g id="node3" class="node">
<title>msg_1</title>
<path fill="white" stroke="#555555" d="M108.5,-36C108.5,-36 12,-36 12,-36 6,-36 0,-30 0,-24 0,-24 0,-12 0,-12 0,-6 6,0 12,0 12,0 108.5,0 108.5,0 114.5,0 120.5,-6 120.5,-12 120.5,-12 120.5,-24 120.5,-24 120.5,-30 114.5,-36 108.5,-36"/>
<text xml:space="preserve" text-anchor="start" x="10" y="-21.5" font-family="Helvetica,sans-Serif" font-size="9.00">spinningBodyRef2InMsg</text>
<text xml:space="preserve" text-anchor="start" x="10" y="-9.6" font-family="Helvetica,sans-Serif" font-style="italic" font-size="7.00">HingedRigidBodyMsgPayload</text>
</g>
<!-- msg_1&#45;&gt;module -->
<g id="edge2" class="edge">
<title>msg_1&#45;&gt;module</title>
<path fill="none" stroke="#555555" d="M120.93,-28.67C128.89,-30.09 137.09,-31.56 145.16,-33"/>
<polygon fill="#555555" stroke="#555555" points="144.5,-36.44 154.96,-34.76 145.73,-29.55 144.5,-36.44"/>
</g>
</g>
</svg>
