<?xml version="1.0" encoding="UTF-8" standalone="no"?>
<!DOCTYPE svg PUBLIC "-//W3C//DTD SVG 1.1//EN"
 "http://www.w3.org/Graphics/SVG/1.1/DTD/svg11.dtd">
<!-- Generated by graphviz version 15.1.0 (20260618.0150)
 -->
<!-- Title: autoCModuleIO Pages: 1 -->
<svg width="342pt" height="152pt"
 viewBox="0.00 0.00 342.00 152.00" xmlns="http://www.w3.org/2000/svg" xmlns:xlink="http://www.w3.org/1999/xlink">
<g id="graph0" class="graph" transform="scale(1 1) rotate(0) translate(4 148)">
<title>autoCModuleIO</title>
<!-- module -->
<g id="node1" class="node">
<title>module</title>
<path fill="#8a7f73" stroke="#555555" stroke-width="2" d="M197.25,-90C197.25,-90 140.75,-90 140.75,-90 134.75,-90 128.75,-84 128.75,-78 128.75,-78 128.75,-66 128.75,-66 128.75,-60 134.75,-54 140.75,-54 140.75,-54 197.25,-54 197.25,-54 203.25,-54 209.25,-60 209.25,-66 209.25,-66 209.25,-78 209.25,-78 209.25,-84 203.25,-90 197.25,-90"/>
<text xml:space="preserve" text-anchor="middle" x="169" y="-67.36" font-family="Helvetica,sans-Serif" font-size="11.20" fill="white">autoCModule</text>
</g>
<!-- msg_3 -->
<g id="node5" class="node">
<title>msg_3</title>
<path fill="white" stroke="#555555" d="M317,-117C317,-117 261.75,-117 261.75,-117 255.75,-117 249.75,-111 249.75,-105 249.75,-105 249.75,-93 249.75,-93 249.75,-87 255.75,-81 261.75,-81 261.75,-81 317,-81 317,-81 323,-81 329,-87 329,-93 329,-93 329,-105 329,-105 329,-111 323,-117 317,-117"/>
<text xml:space="preserve" text-anchor="start" x="259.75" y="-102.5" font-family="Helvetica,sans-Serif" font-size="9.00">some2OutMsg</text>
<text xml:space="preserve" text-anchor="start" x="259.75" y="-90.6" font-family="Helvetica,sans-Serif" font-style="italic" font-size="7.00">AttRefMsgPayload</text>
</g>
<!-- module&#45;&gt;msg_3 -->
<g id="edge4" class="edge">
<title>module&#45;&gt;msg_3</title>
<path fill="none" stroke="#555555" d="M209.75,-81.07C218.92,-83.16 228.79,-85.41 238.34,-87.59"/>
<polygon fill="#555555" stroke="#555555" points="237.33,-90.95 247.86,-89.76 238.89,-84.12 237.33,-90.95"/>
</g>
<!-- msg_4 -->
<g id="node6" class="node">
<title>msg_4</title>
<path fill="white" stroke="#555555" d="M321.5,-63C321.5,-63 257.25,-63 257.25,-63 251.25,-63 245.25,-57 245.25,-51 245.25,-51 245.25,-39 245.25,-39 245.25,-33 251.25,-27 257.25,-27 257.25,-27 321.5,-27 321.5,-27 327.5,-27 333.5,-33 333.5,-39 333.5,-39 333.5,-51 333.5,-51 333.5,-57 327.5,-63 321.5,-63"/>
<text xml:space="preserve" text-anchor="start" x="255.25" y="-48.5" font-family="Helvetica,sans-Serif" font-size="9.00">someOutMsg</text>
<text xml:space="preserve" text-anchor="start" x="255.25" y="-36.6" font-family="Helvetica,sans-Serif" font-style="italic" font-size="7.00">SCStatesMsgPayload</text>
</g>
<!-- module&#45;&gt;msg_4 -->
<g id="edge5" class="edge">
<title>module&#45;&gt;msg_4</title>
<path fill="none" stroke="#555555" d="M209.75,-62.93C217.5,-61.16 225.76,-59.28 233.9,-57.42"/>
<polygon fill="#555555" stroke="#555555" points="234.42,-60.9 243.39,-55.26 232.87,-54.07 234.42,-60.9"/>
</g>
<!-- msg_0 -->
<g id="node2" class="node">
<title>msg_0</title>
<path fill="white" stroke="#555555" d="M73.62,-144C73.62,-144 19.12,-144 19.12,-144 13.12,-144 7.12,-138 7.12,-132 7.12,-132 7.12,-120 7.12,-120 7.12,-114 13.12,-108 19.12,-108 19.12,-108 73.62,-108 73.62,-108 79.62,-108 85.62,-114 85.62,-120 85.62,-120 85.62,-132 85.62,-132 85.62,-138 79.62,-144 73.62,-144"/>
<text xml:space="preserve" text-anchor="start" x="17.12" y="-129.5" font-family="Helvetica,sans-Serif" font-size="9.00">someInMsg</text>
<text xml:space="preserve" text-anchor="start" x="17.12" y="-117.6" font-family="Helvetica,sans-Serif" font-style="italic" font-size="7.00">AttRefMsgPayload</text>
</g>
<!-- msg_0&#45;&gt;module -->
<g id="edge1" class="edge">
<title>msg_0&#45;&gt;module</title>
<path fill="none" stroke="#555555" d="M85.87,-108.77C96.22,-104.13 107.55,-99.06 118.41,-94.2"/>
<polygon fill="#555555" stroke="#555555" points="119.55,-97.53 127.24,-90.25 116.69,-91.14 119.55,-97.53"/>
</g>
<!-- msg_1 -->
<g id="node3" class="node">
<title>msg_1</title>
<path fill="white" stroke="#555555" d="M73.62,-90C73.62,-90 19.12,-90 19.12,-90 13.12,-90 7.12,-84 7.12,-78 7.12,-78 7.12,-66 7.12,-66 7.12,-60 13.12,-54 19.12,-54 19.12,-54 73.62,-54 73.62,-54 79.62,-54 85.62,-60 85.62,-66 85.62,-66 85.62,-78 85.62,-78 85.62,-84 79.62,-90 73.62,-90"/>
<text xml:space="preserve" text-anchor="start" x="17.12" y="-75.5" font-family="Helvetica,sans-Serif" font-size="9.00">some2InMsg</text>
<text xml:space="preserve" text-anchor="start" x="17.12" y="-63.6" font-family="Helvetica,sans-Serif" font-style="italic" font-size="7.00">AttRefMsgPayload</text>
</g>
<!-- msg_1&#45;&gt;module -->
<g id="edge2" class="edge">
<title>msg_1&#45;&gt;module</title>
<path fill="none" stroke="#555555" d="M85.87,-72C95.9,-72 106.85,-72 117.4,-72"/>
<polygon fill="#555555" stroke="#555555" points="117.11,-75.5 127.11,-72 117.11,-68.5 117.11,-75.5"/>
</g>
<!-- msg_2 -->
<g id="node4" class="node">
<title>msg_2</title>
<path fill="white" stroke="#555555" d="M80.75,-36C80.75,-36 12,-36 12,-36 6,-36 0,-30 0,-24 0,-24 0,-12 0,-12 0,-6 6,0 12,0 12,0 80.75,0 80.75,0 86.75,0 92.75,-6 92.75,-12 92.75,-12 92.75,-24 92.75,-24 92.75,-30 86.75,-36 80.75,-36"/>
<text xml:space="preserve" text-anchor="start" x="10" y="-21.5" font-family="Helvetica,sans-Serif" font-size="9.00">anotherInMsg</text>
<text xml:space="preserve" text-anchor="start" x="10" y="-9.6" font-family="Helvetica,sans-Serif" font-style="italic" font-size="7.00">CSSConfigMsgPayload</text>
</g>
<!-- msg_2&#45;&gt;module -->
<g id="edge3" class="edge">
<title>msg_2&#45;&gt;module</title>
<path fill="none" stroke="#555555" d="M88.55,-36.43C98.07,-40.7 108.31,-45.28 118.16,-49.69"/>
<polygon fill="#555555" stroke="#555555" points="116.7,-52.87 127.26,-53.76 119.56,-46.48 116.7,-52.87"/>
</g>
</g>
</svg>
