<?xml version="1.0" encoding="UTF-8" standalone="no"?>
<!DOCTYPE svg PUBLIC "-//W3C//DTD SVG 1.1//EN"
 "http://www.w3.org/Graphics/SVG/1.1/DTD/svg11.dtd">
<!-- Generated by graphviz version 15.1.0 (20260618.0150)
 -->
<!-- Title: NBodyGravityIO Pages: 1 -->
<svg width="456pt" height="152pt"
 viewBox="0.00 0.00 456.00 152.00" xmlns="http://www.w3.org/2000/svg" xmlns:xlink="http://www.w3.org/1999/xlink">
<g id="graph0" class="graph" transform="scale(1 1) rotate(0) translate(4 148)">
<title>NBodyGravityIO</title>
<!-- module -->
<g id="node1" class="node">
<title>module</title>
<path fill="#5a9fcd" stroke="#555555" stroke-width="2" d="M255,-90C255,-90 195.5,-90 195.5,-90 189.5,-90 183.5,-84 183.5,-78 183.5,-78 183.5,-66 183.5,-66 183.5,-60 189.5,-54 195.5,-54 195.5,-54 255,-54 255,-54 261,-54 267,-60 267,-66 267,-66 267,-78 267,-78 267,-84 261,-90 255,-90"/>
<text xml:space="preserve" text-anchor="middle" x="225.25" y="-67.36" font-family="Helvetica,sans-Serif" font-size="11.20" fill="white">NBodyGravity</text>
</g>
<!-- msg_3 -->
<g id="node5" class="node">
<title>msg_3</title>
<path fill="white" stroke="#555555" d="M435.5,-90C435.5,-90 315,-90 315,-90 309,-90 303,-84 303,-78 303,-78 303,-66 303,-66 303,-60 309,-54 315,-54 315,-54 435.5,-54 435.5,-54 441.5,-54 447.5,-60 447.5,-66 447.5,-66 447.5,-78 447.5,-78 447.5,-84 441.5,-90 435.5,-90"/>
<text xml:space="preserve" text-anchor="start" x="313" y="-75.5" font-family="Helvetica,sans-Serif" font-size="9.00">target.massFixedForceOutMsg</text>
<text xml:space="preserve" text-anchor="start" x="313" y="-63.6" font-family="Helvetica,sans-Serif" font-style="italic" font-size="7.00">ForceAtSiteMsgPayload</text>
</g>
<!-- module&#45;&gt;msg_3 -->
<g id="edge4" class="edge">
<title>module&#45;&gt;msg_3</title>
<path fill="none" stroke="#555555" d="M267.48,-72C275,-72 283.1,-72 291.34,-72"/>
<polygon fill="#555555" stroke="#555555" points="291.12,-75.5 301.12,-72 291.12,-68.5 291.12,-75.5"/>
</g>
<!-- msg_0 -->
<g id="node2" class="node">
<title>msg_0</title>
<path fill="white" stroke="#555555" d="M117.5,-144C117.5,-144 30,-144 30,-144 24,-144 18,-138 18,-132 18,-132 18,-120 18,-120 18,-114 24,-108 30,-108 30,-108 117.5,-108 117.5,-108 123.5,-108 129.5,-114 129.5,-120 129.5,-120 129.5,-132 129.5,-132 129.5,-138 123.5,-144 117.5,-144"/>
<text xml:space="preserve" text-anchor="start" x="28" y="-129.5" font-family="Helvetica,sans-Serif" font-size="9.00">source.stateInMsg</text>
<text xml:space="preserve" text-anchor="start" x="28" y="-117.6" font-family="Helvetica,sans-Serif" font-style="italic" font-size="7.00">SpicePlanetStateMsgPayload</text>
</g>
<!-- msg_0&#45;&gt;module -->
<g id="edge1" class="edge">
<title>msg_0&#45;&gt;module</title>
<path fill="none" stroke="#555555" d="M125.78,-107.57C140.89,-102.11 157.45,-96.13 172.6,-90.66"/>
<polygon fill="#555555" stroke="#555555" points="173.7,-93.98 181.91,-87.29 171.32,-87.4 173.7,-93.98"/>
</g>
<!-- msg_1 -->
<g id="node3" class="node">
<title>msg_1</title>
<path fill="white" stroke="#555555" d="M128.75,-90C128.75,-90 18.75,-90 18.75,-90 12.75,-90 6.75,-84 6.75,-78 6.75,-78 6.75,-66 6.75,-66 6.75,-60 12.75,-54 18.75,-54 18.75,-54 128.75,-54 128.75,-54 134.75,-54 140.75,-60 140.75,-66 140.75,-66 140.75,-78 140.75,-78 140.75,-84 134.75,-90 128.75,-90"/>
<text xml:space="preserve" text-anchor="start" x="16.75" y="-75.5" font-family="Helvetica,sans-Serif" font-size="9.00">target.massPropertiesInMsg</text>
<text xml:space="preserve" text-anchor="start" x="16.75" y="-63.6" font-family="Helvetica,sans-Serif" font-style="italic" font-size="7.00">SCMassPropsMsgPayload</text>
</g>
<!-- msg_1&#45;&gt;module -->
<g id="edge2" class="edge">
<title>msg_1&#45;&gt;module</title>
<path fill="none" stroke="#555555" d="M141.19,-72C151.51,-72 162.03,-72 171.98,-72"/>
<polygon fill="#555555" stroke="#555555" points="171.82,-75.5 181.82,-72 171.82,-68.5 171.82,-75.5"/>
</g>
<!-- msg_2 -->
<g id="node4" class="node">
<title>msg_2</title>
<path fill="white" stroke="#555555" d="M135.5,-36C135.5,-36 12,-36 12,-36 6,-36 0,-30 0,-24 0,-24 0,-12 0,-12 0,-6 6,0 12,0 12,0 135.5,0 135.5,0 141.5,0 147.5,-6 147.5,-12 147.5,-12 147.5,-24 147.5,-24 147.5,-30 141.5,-36 135.5,-36"/>
<text xml:space="preserve" text-anchor="start" x="10" y="-21.5" font-family="Helvetica,sans-Serif" font-size="9.00">target.centerOfMassStateInMsg</text>
<text xml:space="preserve" text-anchor="start" x="10" y="-9.6" font-family="Helvetica,sans-Serif" font-style="italic" font-size="7.00">SCStatesMsgPayload</text>
</g>
<!-- msg_2&#45;&gt;module -->
<g id="edge3" class="edge">
<title>msg_2&#45;&gt;module</title>
<path fill="none" stroke="#555555" d="M125.78,-36.43C140.89,-41.89 157.45,-47.87 172.6,-53.34"/>
<polygon fill="#555555" stroke="#555555" points="171.32,-56.6 181.91,-56.71 173.7,-50.02 171.32,-56.6"/>
</g>
</g>
</svg>
