<?xml version="1.0" encoding="UTF-8" standalone="no"?>
<!DOCTYPE svg PUBLIC "-//W3C//DTD SVG 1.1//EN"
 "http://www.w3.org/Graphics/SVG/1.1/DTD/svg11.dtd">
<!-- Generated by graphviz version 15.1.0 (20260618.0150)
 -->
<!-- Title: MJJointReactionForcesIO Pages: 1 -->
<svg width="287pt" height="44pt"
 viewBox="0.00 0.00 287.00 44.00" xmlns="http://www.w3.org/2000/svg" xmlns:xlink="http://www.w3.org/1999/xlink">
<g id="graph0" class="graph" transform="scale(1 1) rotate(0) translate(4 40)">
<title>MJJointReactionForcesIO</title>
<!-- module -->
<g id="node1" class="node">
<title>module</title>
<path fill="#5a9fcd" stroke="#555555" stroke-width="2" d="M116.5,-36C116.5,-36 12,-36 12,-36 6,-36 0,-30 0,-24 0,-24 0,-12 0,-12 0,-6 6,0 12,0 12,0 116.5,0 116.5,0 122.5,0 128.5,-6 128.5,-12 128.5,-12 128.5,-24 128.5,-24 128.5,-30 122.5,-36 116.5,-36"/>
<text xml:space="preserve" text-anchor="middle" x="64.25" y="-13.36" font-family="Helvetica,sans-Serif" font-size="11.20" fill="white">MJJointReactionForces</text>
</g>
<!-- msg_0 -->
<g id="node2" class="node">
<title>msg_0</title>
<path fill="white" stroke="#555555" d="M267,-36C267,-36 176.5,-36 176.5,-36 170.5,-36 164.5,-30 164.5,-24 164.5,-24 164.5,-12 164.5,-12 164.5,-6 170.5,0 176.5,0 176.5,0 267,0 267,0 273,0 279,-6 279,-12 279,-12 279,-24 279,-24 279,-30 273,-36 267,-36"/>
<text xml:space="preserve" text-anchor="start" x="174.5" y="-21.5" font-family="Helvetica,sans-Serif" font-size="9.00">reactionForcesOutMsg</text>
<text xml:space="preserve" text-anchor="start" x="174.5" y="-9.6" font-family="Helvetica,sans-Serif" font-style="italic" font-size="7.00">MJJointReactionsMsgPayload</text>
</g>
<!-- module&#45;&gt;msg_0 -->
<g id="edge1" class="edge">
<title>module&#45;&gt;msg_0</title>
<path fill="none" stroke="#555555" d="M128.95,-18C136.84,-18 144.92,-18 152.87,-18"/>
<polygon fill="#555555" stroke="#555555" points="152.87,-21.5 162.87,-18 152.87,-14.5 152.87,-21.5"/>
</g>
</g>
</svg>
