<?xml version="1.0" encoding="UTF-8" standalone="no"?>
<!DOCTYPE svg PUBLIC "-//W3C//DTD SVG 1.1//EN"
 "http://www.w3.org/Graphics/SVG/1.1/DTD/svg11.dtd">
<!-- Generated by graphviz version 15.1.0 (20260618.0150)
 -->
<!-- Title: powerStorageBaseIO Pages: 1 -->
<svg width="426pt" height="44pt"
 viewBox="0.00 0.00 426.00 44.00" xmlns="http://www.w3.org/2000/svg" xmlns:xlink="http://www.w3.org/1999/xlink">
<g id="graph0" class="graph" transform="scale(1 1) rotate(0) translate(4 40)">
<title>powerStorageBaseIO</title>
<!-- module -->
<g id="node1" class="node">
<title>module</title>
<path fill="#5a9fcd" stroke="#555555" stroke-width="2" d="M247.5,-36C247.5,-36 162.5,-36 162.5,-36 156.5,-36 150.5,-30 150.5,-24 150.5,-24 150.5,-12 150.5,-12 150.5,-6 156.5,0 162.5,0 162.5,0 247.5,0 247.5,0 253.5,0 259.5,-6 259.5,-12 259.5,-12 259.5,-24 259.5,-24 259.5,-30 253.5,-36 247.5,-36"/>
<text xml:space="preserve" text-anchor="middle" x="205" y="-13.36" font-family="Helvetica,sans-Serif" font-size="11.20" fill="white">powerStorageBase</text>
</g>
<!-- msg_0 -->
<g id="node2" class="node">
<title>msg_0</title>
<path fill="white" stroke="#555555" d="M405.5,-36C405.5,-36 307.5,-36 307.5,-36 301.5,-36 295.5,-30 295.5,-24 295.5,-24 295.5,-12 295.5,-12 295.5,-6 301.5,0 307.5,0 307.5,0 405.5,0 405.5,0 411.5,0 417.5,-6 417.5,-12 417.5,-12 417.5,-24 417.5,-24 417.5,-30 411.5,-36 405.5,-36"/>
<text xml:space="preserve" text-anchor="start" x="305.5" y="-21.5" font-family="Helvetica,sans-Serif" font-size="9.00">batPowerOutMsg</text>
<text xml:space="preserve" text-anchor="start" x="305.5" y="-9.6" font-family="Helvetica,sans-Serif" font-style="italic" font-size="7.00">PowerStorageStatusMsgPayload</text>
</g>
<!-- module&#45;&gt;msg_0 -->
<g id="edge1" class="edge">
<title>module&#45;&gt;msg_0</title>
<path fill="none" stroke="#555555" d="M259.97,-18C267.7,-18 275.76,-18 283.76,-18"/>
<polygon fill="#555555" stroke="#555555" points="283.5,-21.5 293.5,-18 283.5,-14.5 283.5,-21.5"/>
</g>
<!-- msg_1 -->
<g id="node3" class="node">
<title>msg_1</title>
<path fill="white" stroke="#555555" d="M102.5,-36C102.5,-36 12,-36 12,-36 6,-36 0,-30 0,-24 0,-24 0,-12 0,-12 0,-6 6,0 12,0 12,0 102.5,0 102.5,0 108.5,0 114.5,-6 114.5,-12 114.5,-12 114.5,-24 114.5,-24 114.5,-30 108.5,-36 102.5,-36"/>
<text xml:space="preserve" text-anchor="start" x="10" y="-21.5" font-family="Helvetica,sans-Serif" font-size="9.00">nodePowerUseInMsgs</text>
<text xml:space="preserve" text-anchor="start" x="10" y="-9.6" font-family="Helvetica,sans-Serif" font-style="italic" font-size="7.00">PowerNodeUsageMsgPayload</text>
</g>
<!-- msg_1&#45;&gt;module -->
<g id="edge2" class="edge">
<title>msg_1&#45;&gt;module</title>
<path fill="none" stroke="#555555" d="M114.6,-18C122.55,-18 130.78,-18 138.87,-18"/>
<polygon fill="#555555" stroke="#555555" points="138.68,-21.5 148.68,-18 138.68,-14.5 138.68,-21.5"/>
</g>
</g>
</svg>
