<?xml version="1.0" encoding="UTF-8" standalone="no"?>
<!DOCTYPE svg PUBLIC "-//W3C//DTD SVG 1.1//EN"
 "http://www.w3.org/Graphics/SVG/1.1/DTD/svg11.dtd">
<!-- Generated by graphviz version 15.1.0 (20260618.0150)
 -->
<!-- Title: vscmgGimbalRateServoIO Pages: 1 -->
<svg width="455pt" height="206pt"
 viewBox="0.00 0.00 455.00 206.00" xmlns="http://www.w3.org/2000/svg" xmlns:xlink="http://www.w3.org/1999/xlink">
<g id="graph0" class="graph" transform="scale(1 1) rotate(0) translate(4 202)">
<title>vscmgGimbalRateServoIO</title>
<!-- module -->
<g id="node1" class="node">
<title>module</title>
<path fill="#5a9fcd" stroke="#555555" stroke-width="2" d="M277.5,-117C277.5,-117 168.5,-117 168.5,-117 162.5,-117 156.5,-111 156.5,-105 156.5,-105 156.5,-93 156.5,-93 156.5,-87 162.5,-81 168.5,-81 168.5,-81 277.5,-81 277.5,-81 283.5,-81 289.5,-87 289.5,-93 289.5,-93 289.5,-105 289.5,-105 289.5,-111 283.5,-117 277.5,-117"/>
<text xml:space="preserve" text-anchor="middle" x="223" y="-94.36" font-family="Helvetica,sans-Serif" font-size="11.20" fill="white">vscmgGimbalRateServo</text>
</g>
<!-- msg_4 -->
<g id="node6" class="node">
<title>msg_4</title>
<path fill="white" stroke="#555555" d="M434.75,-117C434.75,-117 337.5,-117 337.5,-117 331.5,-117 325.5,-111 325.5,-105 325.5,-105 325.5,-93 325.5,-93 325.5,-87 331.5,-81 337.5,-81 337.5,-81 434.75,-81 434.75,-81 440.75,-81 446.75,-87 446.75,-93 446.75,-93 446.75,-105 446.75,-105 446.75,-111 440.75,-117 434.75,-117"/>
<text xml:space="preserve" text-anchor="start" x="335.5" y="-102.5" font-family="Helvetica,sans-Serif" font-size="9.00">cmdsOutMsg</text>
<text xml:space="preserve" text-anchor="start" x="335.5" y="-90.6" font-family="Helvetica,sans-Serif" font-style="italic" font-size="7.00">VSCMGArrayTorqueMsgPayload</text>
</g>
<!-- module&#45;&gt;msg_4 -->
<g id="edge5" class="edge">
<title>module&#45;&gt;msg_4</title>
<path fill="none" stroke="#555555" d="M289.54,-99C297.53,-99 305.73,-99 313.8,-99"/>
<polygon fill="#555555" stroke="#555555" points="313.59,-102.5 323.59,-99 313.59,-95.5 313.59,-102.5"/>
</g>
<!-- msg_0 -->
<g id="node2" class="node">
<title>msg_0</title>
<path fill="white" stroke="#555555" d="M108.5,-198C108.5,-198 12,-198 12,-198 6,-198 0,-192 0,-186 0,-186 0,-174 0,-174 0,-168 6,-162 12,-162 12,-162 108.5,-162 108.5,-162 114.5,-162 120.5,-168 120.5,-174 120.5,-174 120.5,-186 120.5,-186 120.5,-192 114.5,-198 108.5,-198"/>
<text xml:space="preserve" text-anchor="start" x="10" y="-183.5" font-family="Helvetica,sans-Serif" font-size="9.00">vscmgParamsInMsg</text>
<text xml:space="preserve" text-anchor="start" x="10" y="-171.6" font-family="Helvetica,sans-Serif" font-style="italic" font-size="7.00">VSCMGArrayConfigMsgPayload</text>
</g>
<!-- msg_0&#45;&gt;module -->
<g id="edge1" class="edge">
<title>msg_0&#45;&gt;module</title>
<path fill="none" stroke="#555555" d="M102.52,-161.59C108.58,-158.77 114.72,-155.85 120.5,-153 139.89,-143.43 161.05,-132.29 179.01,-122.62"/>
<polygon fill="#555555" stroke="#555555" points="180.43,-125.83 187.56,-117.99 177.1,-119.67 180.43,-125.83"/>
</g>
<!-- msg_1 -->
<g id="node3" class="node">
<title>msg_1</title>
<path fill="white" stroke="#555555" d="M105.88,-144C105.88,-144 14.63,-144 14.63,-144 8.62,-144 2.62,-138 2.62,-132 2.62,-132 2.62,-120 2.62,-120 2.62,-114 8.62,-108 14.62,-108 14.62,-108 105.88,-108 105.88,-108 111.88,-108 117.88,-114 117.88,-120 117.88,-120 117.88,-132 117.88,-132 117.88,-138 111.88,-144 105.88,-144"/>
<text xml:space="preserve" text-anchor="start" x="12.62" y="-129.5" font-family="Helvetica,sans-Serif" font-size="9.00">vscmgRefStatesInMsg</text>
<text xml:space="preserve" text-anchor="start" x="12.62" y="-117.6" font-family="Helvetica,sans-Serif" font-style="italic" font-size="7.00">VSCMGRefStatesMsgPayload</text>
</g>
<!-- msg_1&#45;&gt;module -->
<g id="edge2" class="edge">
<title>msg_1&#45;&gt;module</title>
<path fill="none" stroke="#555555" d="M117.92,-116.48C126.73,-115 135.95,-113.45 145.11,-111.91"/>
<polygon fill="#555555" stroke="#555555" points="145.45,-115.41 154.73,-110.3 144.29,-108.5 145.45,-115.41"/>
</g>
<!-- msg_2 -->
<g id="node4" class="node">
<title>msg_2</title>
<path fill="white" stroke="#555555" d="M87.5,-90C87.5,-90 33,-90 33,-90 27,-90 21,-84 21,-78 21,-78 21,-66 21,-66 21,-60 27,-54 33,-54 33,-54 87.5,-54 87.5,-54 93.5,-54 99.5,-60 99.5,-66 99.5,-66 99.5,-78 99.5,-78 99.5,-84 93.5,-90 87.5,-90"/>
<text xml:space="preserve" text-anchor="start" x="31" y="-75.5" font-family="Helvetica,sans-Serif" font-size="9.00">attInMsg</text>
<text xml:space="preserve" text-anchor="start" x="31" y="-63.6" font-family="Helvetica,sans-Serif" font-style="italic" font-size="7.00">AttRefMsgPayload</text>
</g>
<!-- msg_2&#45;&gt;module -->
<g id="edge3" class="edge">
<title>msg_2&#45;&gt;module</title>
<path fill="none" stroke="#555555" d="M99.75,-78.47C113.36,-80.75 129.18,-83.41 144.84,-86.04"/>
<polygon fill="#555555" stroke="#555555" points="144.25,-89.49 154.69,-87.69 145.41,-82.59 144.25,-89.49"/>
</g>
<!-- msg_3 -->
<g id="node5" class="node">
<title>msg_3</title>
<path fill="white" stroke="#555555" d="M99.88,-36C99.88,-36 20.62,-36 20.62,-36 14.63,-36 8.62,-30 8.62,-24 8.62,-24 8.62,-12 8.62,-12 8.62,-6 14.62,0 20.62,0 20.62,0 99.88,0 99.88,0 105.88,0 111.88,-6 111.88,-12 111.88,-12 111.88,-24 111.88,-24 111.88,-30 105.88,-36 99.88,-36"/>
<text xml:space="preserve" text-anchor="start" x="18.62" y="-21.5" font-family="Helvetica,sans-Serif" font-size="9.00">speedsInMsg</text>
<text xml:space="preserve" text-anchor="start" x="18.62" y="-9.6" font-family="Helvetica,sans-Serif" font-style="italic" font-size="7.00">VSCMGSpeedMsgPayload</text>
</g>
<!-- msg_3&#45;&gt;module -->
<g id="edge4" class="edge">
<title>msg_3&#45;&gt;module</title>
<path fill="none" stroke="#555555" d="M102.52,-36.41C108.58,-39.23 114.72,-42.15 120.5,-45 139.89,-54.57 161.05,-65.71 179.01,-75.38"/>
<polygon fill="#555555" stroke="#555555" points="177.1,-78.33 187.56,-80.01 180.43,-72.17 177.1,-78.33"/>
</g>
</g>
</svg>
