<?xml version="1.0" encoding="UTF-8" standalone="no"?>
<!DOCTYPE svg PUBLIC "-//W3C//DTD SVG 1.1//EN"
 "http://www.w3.org/Graphics/SVG/1.1/DTD/svg11.dtd">
<!-- Generated by graphviz version 15.1.0 (20260618.0150)
 -->
<!-- Title: mrpSteeringIO Pages: 1 -->
<svg width="325pt" height="44pt"
 viewBox="0.00 0.00 325.00 44.00" xmlns="http://www.w3.org/2000/svg" xmlns:xlink="http://www.w3.org/1999/xlink">
<g id="graph0" class="graph" transform="scale(1 1) rotate(0) translate(4 40)">
<title>mrpSteeringIO</title>
<!-- module -->
<g id="node1" class="node">
<title>module</title>
<path fill="#8a7f73" stroke="#555555" stroke-width="2" d="M180.75,-36C180.75,-36 129.5,-36 129.5,-36 123.5,-36 117.5,-30 117.5,-24 117.5,-24 117.5,-12 117.5,-12 117.5,-6 123.5,0 129.5,0 129.5,0 180.75,0 180.75,0 186.75,0 192.75,-6 192.75,-12 192.75,-12 192.75,-24 192.75,-24 192.75,-30 186.75,-36 180.75,-36"/>
<text xml:space="preserve" text-anchor="middle" x="155.12" y="-13.36" font-family="Helvetica,sans-Serif" font-size="11.20" fill="white">mrpSteering</text>
</g>
<!-- msg_1 -->
<g id="node3" class="node">
<title>msg_1</title>
<path fill="white" stroke="#555555" d="M305,-36C305,-36 240.75,-36 240.75,-36 234.75,-36 228.75,-30 228.75,-24 228.75,-24 228.75,-12 228.75,-12 228.75,-6 234.75,0 240.75,0 240.75,0 305,0 305,0 311,0 317,-6 317,-12 317,-12 317,-24 317,-24 317,-30 311,-36 305,-36"/>
<text xml:space="preserve" text-anchor="start" x="238.75" y="-21.5" font-family="Helvetica,sans-Serif" font-size="9.00">rateCmdOutMsg</text>
<text xml:space="preserve" text-anchor="start" x="238.75" y="-9.6" font-family="Helvetica,sans-Serif" font-style="italic" font-size="7.00">RateCmdMsgPayload</text>
</g>
<!-- module&#45;&gt;msg_1 -->
<g id="edge2" class="edge">
<title>module&#45;&gt;msg_1</title>
<path fill="none" stroke="#555555" d="M193.07,-18C200.71,-18 208.92,-18 217.05,-18"/>
<polygon fill="#555555" stroke="#555555" points="216.9,-21.5 226.9,-18 216.9,-14.5 216.9,-21.5"/>
</g>
<!-- msg_0 -->
<g id="node2" class="node">
<title>msg_0</title>
<path fill="white" stroke="#555555" d="M69.5,-36C69.5,-36 12,-36 12,-36 6,-36 0,-30 0,-24 0,-24 0,-12 0,-12 0,-6 6,0 12,0 12,0 69.5,0 69.5,0 75.5,0 81.5,-6 81.5,-12 81.5,-12 81.5,-24 81.5,-24 81.5,-30 75.5,-36 69.5,-36"/>
<text xml:space="preserve" text-anchor="start" x="10" y="-21.5" font-family="Helvetica,sans-Serif" font-size="9.00">guidInMsg</text>
<text xml:space="preserve" text-anchor="start" x="10" y="-9.6" font-family="Helvetica,sans-Serif" font-style="italic" font-size="7.00">AttGuidMsgPayload</text>
</g>
<!-- msg_0&#45;&gt;module -->
<g id="edge1" class="edge">
<title>msg_0&#45;&gt;module</title>
<path fill="none" stroke="#555555" d="M81.69,-18C89.58,-18 97.93,-18 106.06,-18"/>
<polygon fill="#555555" stroke="#555555" points="105.81,-21.5 115.81,-18 105.81,-14.5 105.81,-21.5"/>
</g>
</g>
</svg>
