<?xml version="1.0" encoding="UTF-8" standalone="no"?>
<!DOCTYPE svg PUBLIC "-//W3C//DTD SVG 1.1//EN"
 "http://www.w3.org/Graphics/SVG/1.1/DTD/svg11.dtd">
<!-- Generated by graphviz version 15.1.0 (20260618.0150)
 -->
<!-- Title: facetDragDynamicEffectorIO Pages: 1 -->
<svg width="280pt" height="98pt"
 viewBox="0.00 0.00 280.00 98.00" xmlns="http://www.w3.org/2000/svg" xmlns:xlink="http://www.w3.org/1999/xlink">
<g id="graph0" class="graph" transform="scale(1 1) rotate(0) translate(4 94)">
<title>facetDragDynamicEffectorIO</title>
<!-- module -->
<g id="node1" class="node">
<title>module</title>
<path fill="#5a9fcd" stroke="#555555" stroke-width="2" d="M259.5,-63C259.5,-63 140.75,-63 140.75,-63 134.75,-63 128.75,-57 128.75,-51 128.75,-51 128.75,-39 128.75,-39 128.75,-33 134.75,-27 140.75,-27 140.75,-27 259.5,-27 259.5,-27 265.5,-27 271.5,-33 271.5,-39 271.5,-39 271.5,-51 271.5,-51 271.5,-57 265.5,-63 259.5,-63"/>
<text xml:space="preserve" text-anchor="middle" x="200.12" y="-40.36" font-family="Helvetica,sans-Serif" font-size="11.20" fill="white">facetDragDynamicEffector</text>
</g>
<!-- msg_0 -->
<g id="node2" class="node">
<title>msg_0</title>
<path fill="white" stroke="#555555" d="M80.75,-90C80.75,-90 12,-90 12,-90 6,-90 0,-84 0,-78 0,-78 0,-66 0,-66 0,-60 6,-54 12,-54 12,-54 80.75,-54 80.75,-54 86.75,-54 92.75,-60 92.75,-66 92.75,-66 92.75,-78 92.75,-78 92.75,-84 86.75,-90 80.75,-90"/>
<text xml:space="preserve" text-anchor="start" x="10" y="-75.5" font-family="Helvetica,sans-Serif" font-size="9.00">atmoDensInMsg</text>
<text xml:space="preserve" text-anchor="start" x="10" y="-63.6" font-family="Helvetica,sans-Serif" font-style="italic" font-size="7.00">AtmoPropsMsgPayload</text>
</g>
<!-- msg_0&#45;&gt;module -->
<g id="edge1" class="edge">
<title>msg_0&#45;&gt;module</title>
<path fill="none" stroke="#555555" d="M92.91,-63.9C100.59,-62.53 108.77,-61.08 117.05,-59.6"/>
<polygon fill="#555555" stroke="#555555" points="117.64,-63.05 126.87,-57.86 116.41,-56.16 117.64,-63.05"/>
</g>
<!-- msg_1 -->
<g id="node3" class="node">
<title>msg_1</title>
<path fill="white" stroke="#555555" d="M72.88,-36C72.88,-36 19.88,-36 19.88,-36 13.88,-36 7.88,-30 7.88,-24 7.88,-24 7.88,-12 7.88,-12 7.88,-6 13.88,0 19.88,0 19.88,0 72.88,0 72.88,0 78.88,0 84.88,-6 84.88,-12 84.88,-12 84.88,-24 84.88,-24 84.88,-30 78.88,-36 72.88,-36"/>
<text xml:space="preserve" text-anchor="start" x="17.88" y="-21.5" font-family="Helvetica,sans-Serif" font-size="9.00">windVelInMsg</text>
<text xml:space="preserve" text-anchor="start" x="17.88" y="-9.6" font-family="Helvetica,sans-Serif" font-style="italic" font-size="7.00">WindMsgPayload</text>
</g>
<!-- msg_1&#45;&gt;module -->
<g id="edge2" class="edge">
<title>msg_1&#45;&gt;module</title>
<path fill="none" stroke="#555555" d="M85.28,-24.74C95.09,-26.49 106.04,-28.44 117.17,-30.42"/>
<polygon fill="#555555" stroke="#555555" points="116.37,-33.83 126.82,-32.14 117.59,-26.94 116.37,-33.83"/>
</g>
</g>
</svg>
