<?xml version="1.0" encoding="UTF-8" standalone="no"?>
<!DOCTYPE svg PUBLIC "-//W3C//DTD SVG 1.1//EN"
 "http://www.w3.org/Graphics/SVG/1.1/DTD/svg11.dtd">
<!-- Generated by graphviz version 15.1.0 (20260618.0150)
 -->
<!-- Title: inertialCartFeedbackIO Pages: 1 -->
<svg width="438pt" height="152pt"
 viewBox="0.00 0.00 438.00 152.00" xmlns="http://www.w3.org/2000/svg" xmlns:xlink="http://www.w3.org/1999/xlink">
<g id="graph0" class="graph" transform="scale(1 1) rotate(0) translate(4 148)">
<title>inertialCartFeedbackIO</title>
<!-- module -->
<g id="node1" class="node">
<title>module</title>
<path fill="#5a9fcd" stroke="#555555" stroke-width="2" d="M269.25,-90C269.25,-90 177.5,-90 177.5,-90 171.5,-90 165.5,-84 165.5,-78 165.5,-78 165.5,-66 165.5,-66 165.5,-60 171.5,-54 177.5,-54 177.5,-54 269.25,-54 269.25,-54 275.25,-54 281.25,-60 281.25,-66 281.25,-66 281.25,-78 281.25,-78 281.25,-84 275.25,-90 269.25,-90"/>
<text xml:space="preserve" text-anchor="middle" x="223.38" y="-67.36" font-family="Helvetica,sans-Serif" font-size="11.20" fill="white">inertialCartFeedback</text>
</g>
<!-- msg_3 -->
<g id="node5" class="node">
<title>msg_3</title>
<path fill="white" stroke="#555555" d="M417.5,-90C417.5,-90 329.25,-90 329.25,-90 323.25,-90 317.25,-84 317.25,-78 317.25,-78 317.25,-66 317.25,-66 317.25,-60 323.25,-54 329.25,-54 329.25,-54 417.5,-54 417.5,-54 423.5,-54 429.5,-60 429.5,-66 429.5,-66 429.5,-78 429.5,-78 429.5,-84 423.5,-90 417.5,-90"/>
<text xml:space="preserve" text-anchor="start" x="327.25" y="-75.5" font-family="Helvetica,sans-Serif" font-size="9.00">forceOutMsg</text>
<text xml:space="preserve" text-anchor="start" x="327.25" y="-63.6" font-family="Helvetica,sans-Serif" font-style="italic" font-size="7.00">CmdForceInertialMsgPayload</text>
</g>
<!-- module&#45;&gt;msg_3 -->
<g id="edge4" class="edge">
<title>module&#45;&gt;msg_3</title>
<path fill="none" stroke="#555555" d="M281.6,-72C289.36,-72 297.38,-72 305.29,-72"/>
<polygon fill="#555555" stroke="#555555" points="305.25,-75.5 315.25,-72 305.25,-68.5 305.25,-75.5"/>
</g>
<!-- msg_0 -->
<g id="node2" class="node">
<title>msg_0</title>
<path fill="white" stroke="#555555" d="M97.25,-144C97.25,-144 32.25,-144 32.25,-144 26.25,-144 20.25,-138 20.25,-132 20.25,-132 20.25,-120 20.25,-120 20.25,-114 26.25,-108 32.25,-108 32.25,-108 97.25,-108 97.25,-108 103.25,-108 109.25,-114 109.25,-120 109.25,-120 109.25,-132 109.25,-132 109.25,-138 103.25,-144 97.25,-144"/>
<text xml:space="preserve" text-anchor="start" x="30.25" y="-129.5" font-family="Helvetica,sans-Serif" font-size="9.00">deputyNavInMsg</text>
<text xml:space="preserve" text-anchor="start" x="30.25" y="-117.6" font-family="Helvetica,sans-Serif" font-style="italic" font-size="7.00">NavTransMsgPayload</text>
</g>
<!-- msg_0&#45;&gt;module -->
<g id="edge1" class="edge">
<title>msg_0&#45;&gt;module</title>
<path fill="none" stroke="#555555" d="M109.38,-110.96C124.53,-105.74 141.84,-99.77 158.29,-94.09"/>
<polygon fill="#555555" stroke="#555555" points="159.2,-97.48 167.51,-90.91 156.92,-90.86 159.2,-97.48"/>
</g>
<!-- msg_1 -->
<g id="node3" class="node">
<title>msg_1</title>
<path fill="white" stroke="#555555" d="M96.5,-90C96.5,-90 33,-90 33,-90 27,-90 21,-84 21,-78 21,-78 21,-66 21,-66 21,-60 27,-54 33,-54 33,-54 96.5,-54 96.5,-54 102.5,-54 108.5,-60 108.5,-66 108.5,-66 108.5,-78 108.5,-78 108.5,-84 102.5,-90 96.5,-90"/>
<text xml:space="preserve" text-anchor="start" x="31" y="-75.5" font-family="Helvetica,sans-Serif" font-size="9.00">deputyRefInMsg</text>
<text xml:space="preserve" text-anchor="start" x="31" y="-63.6" font-family="Helvetica,sans-Serif" font-style="italic" font-size="7.00">TransRefMsgPayload</text>
</g>
<!-- msg_1&#45;&gt;module -->
<g id="edge2" class="edge">
<title>msg_1&#45;&gt;module</title>
<path fill="none" stroke="#555555" d="M108.96,-72C122.82,-72 138.52,-72 153.73,-72"/>
<polygon fill="#555555" stroke="#555555" points="153.71,-75.5 163.71,-72 153.71,-68.5 153.71,-75.5"/>
</g>
<!-- msg_2 -->
<g id="node4" class="node">
<title>msg_2</title>
<path fill="white" stroke="#555555" d="M117.5,-36C117.5,-36 12,-36 12,-36 6,-36 0,-30 0,-24 0,-24 0,-12 0,-12 0,-6 6,0 12,0 12,0 117.5,0 117.5,0 123.5,0 129.5,-6 129.5,-12 129.5,-12 129.5,-24 129.5,-24 129.5,-30 123.5,-36 117.5,-36"/>
<text xml:space="preserve" text-anchor="start" x="10" y="-21.5" font-family="Helvetica,sans-Serif" font-size="9.00">deputyVehicleConfigInMsg</text>
<text xml:space="preserve" text-anchor="start" x="10" y="-9.6" font-family="Helvetica,sans-Serif" font-style="italic" font-size="7.00">VehicleConfigMsgPayload</text>
</g>
<!-- msg_2&#45;&gt;module -->
<g id="edge3" class="edge">
<title>msg_2&#45;&gt;module</title>
<path fill="none" stroke="#555555" d="M119.21,-36.43C131.74,-40.75 145.22,-45.4 158.17,-49.86"/>
<polygon fill="#555555" stroke="#555555" points="156.86,-53.11 167.46,-53.07 159.14,-46.5 156.86,-53.11"/>
</g>
</g>
</svg>
