<?xml version="1.0" encoding="UTF-8" standalone="no"?>
<!DOCTYPE svg PUBLIC "-//W3C//DTD SVG 1.1//EN"
 "http://www.w3.org/Graphics/SVG/1.1/DTD/svg11.dtd">
<!-- Generated by graphviz version 15.1.0 (20260618.0150)
 -->
<!-- Title: horizonOpNavIO Pages: 1 -->
<svg width="349pt" height="152pt"
 viewBox="0.00 0.00 349.00 152.00" xmlns="http://www.w3.org/2000/svg" xmlns:xlink="http://www.w3.org/1999/xlink">
<g id="graph0" class="graph" transform="scale(1 1) rotate(0) translate(4 148)">
<title>horizonOpNavIO</title>
<!-- module -->
<g id="node1" class="node">
<title>module</title>
<path fill="#8a7f73" stroke="#555555" stroke-width="2" d="M213,-90C213,-90 151.25,-90 151.25,-90 145.25,-90 139.25,-84 139.25,-78 139.25,-78 139.25,-66 139.25,-66 139.25,-60 145.25,-54 151.25,-54 151.25,-54 213,-54 213,-54 219,-54 225,-60 225,-66 225,-66 225,-78 225,-78 225,-84 219,-90 213,-90"/>
<text xml:space="preserve" text-anchor="middle" x="182.12" y="-67.36" font-family="Helvetica,sans-Serif" font-size="11.20" fill="white">horizonOpNav</text>
</g>
<!-- msg_0 -->
<g id="node2" class="node">
<title>msg_0</title>
<path fill="white" stroke="#555555" d="M329,-90C329,-90 273,-90 273,-90 267,-90 261,-84 261,-78 261,-78 261,-66 261,-66 261,-60 267,-54 273,-54 273,-54 329,-54 329,-54 335,-54 341,-60 341,-66 341,-66 341,-78 341,-78 341,-84 335,-90 329,-90"/>
<text xml:space="preserve" text-anchor="start" x="271" y="-75.5" font-family="Helvetica,sans-Serif" font-size="9.00">opNavOutMsg</text>
<text xml:space="preserve" text-anchor="start" x="271" y="-63.6" font-family="Helvetica,sans-Serif" font-style="italic" font-size="7.00">OpNavMsgPayload</text>
</g>
<!-- module&#45;&gt;msg_0 -->
<g id="edge1" class="edge">
<title>module&#45;&gt;msg_0</title>
<path fill="none" stroke="#555555" d="M225.32,-72C233.05,-72 241.2,-72 249.15,-72"/>
<polygon fill="#555555" stroke="#555555" points="249.08,-75.5 259.08,-72 249.08,-68.5 249.08,-75.5"/>
</g>
<!-- msg_1 -->
<g id="node3" class="node">
<title>msg_1</title>
<path fill="white" stroke="#555555" d="M91.25,-144C91.25,-144 12,-144 12,-144 6,-144 0,-138 0,-132 0,-132 0,-120 0,-120 0,-114 6,-108 12,-108 12,-108 91.25,-108 91.25,-108 97.25,-108 103.25,-114 103.25,-120 103.25,-120 103.25,-132 103.25,-132 103.25,-138 97.25,-144 91.25,-144"/>
<text xml:space="preserve" text-anchor="start" x="10" y="-129.5" font-family="Helvetica,sans-Serif" font-size="9.00">cameraConfigInMsg</text>
<text xml:space="preserve" text-anchor="start" x="10" y="-117.6" font-family="Helvetica,sans-Serif" font-style="italic" font-size="7.00">CameraConfigMsgPayload</text>
</g>
<!-- msg_1&#45;&gt;module -->
<g id="edge2" class="edge">
<title>msg_1&#45;&gt;module</title>
<path fill="none" stroke="#555555" d="M96.49,-107.57C106.74,-103.26 117.76,-98.63 128.36,-94.17"/>
<polygon fill="#555555" stroke="#555555" points="129.5,-97.49 137.37,-90.39 126.79,-91.04 129.5,-97.49"/>
</g>
<!-- msg_2 -->
<g id="node4" class="node">
<title>msg_2</title>
<path fill="white" stroke="#555555" d="M79.62,-90C79.62,-90 23.62,-90 23.62,-90 17.62,-90 11.62,-84 11.62,-78 11.62,-78 11.62,-66 11.62,-66 11.62,-60 17.62,-54 23.62,-54 23.62,-54 79.62,-54 79.62,-54 85.62,-54 91.62,-60 91.62,-66 91.62,-66 91.62,-78 91.62,-78 91.62,-84 85.62,-90 79.62,-90"/>
<text xml:space="preserve" text-anchor="start" x="21.62" y="-75.5" font-family="Helvetica,sans-Serif" font-size="9.00">attInMsg</text>
<text xml:space="preserve" text-anchor="start" x="21.62" y="-63.6" font-family="Helvetica,sans-Serif" font-style="italic" font-size="7.00">NavAttMsgPayload</text>
</g>
<!-- msg_2&#45;&gt;module -->
<g id="edge3" class="edge">
<title>msg_2&#45;&gt;module</title>
<path fill="none" stroke="#555555" d="M91.88,-72C103.18,-72 115.7,-72 127.7,-72"/>
<polygon fill="#555555" stroke="#555555" points="127.47,-75.5 137.47,-72 127.47,-68.5 127.47,-75.5"/>
</g>
<!-- msg_3 -->
<g id="node5" class="node">
<title>msg_3</title>
<path fill="white" stroke="#555555" d="M87.12,-36C87.12,-36 16.12,-36 16.12,-36 10.12,-36 4.12,-30 4.12,-24 4.12,-24 4.12,-12 4.12,-12 4.12,-6 10.12,0 16.12,0 16.12,0 87.12,0 87.12,0 93.12,0 99.12,-6 99.12,-12 99.12,-12 99.12,-24 99.12,-24 99.12,-30 93.12,-36 87.12,-36"/>
<text xml:space="preserve" text-anchor="start" x="14.12" y="-21.5" font-family="Helvetica,sans-Serif" font-size="9.00">limbInMsg</text>
<text xml:space="preserve" text-anchor="start" x="14.12" y="-9.6" font-family="Helvetica,sans-Serif" font-style="italic" font-size="7.00">OpNavLimbMsgPayload</text>
</g>
<!-- msg_3&#45;&gt;module -->
<g id="edge4" class="edge">
<title>msg_3&#45;&gt;module</title>
<path fill="none" stroke="#555555" d="M96.49,-36.43C106.74,-40.74 117.76,-45.37 128.36,-49.83"/>
<polygon fill="#555555" stroke="#555555" points="126.79,-52.96 137.37,-53.61 129.5,-46.51 126.79,-52.96"/>
</g>
</g>
</svg>
