<?xml version="1.0" encoding="UTF-8" standalone="no"?>
<!DOCTYPE svg PUBLIC "-//W3C//DTD SVG 1.1//EN"
 "http://www.w3.org/Graphics/SVG/1.1/DTD/svg11.dtd">
<!-- Generated by graphviz version 15.1.0 (20260618.0150)
 -->
<!-- Title: groundMappingIO Pages: 1 -->
<svg width="419pt" height="98pt"
 viewBox="0.00 0.00 419.00 98.00" xmlns="http://www.w3.org/2000/svg" xmlns:xlink="http://www.w3.org/1999/xlink">
<g id="graph0" class="graph" transform="scale(1 1) rotate(0) translate(4 94)">
<title>groundMappingIO</title>
<!-- module -->
<g id="node1" class="node">
<title>module</title>
<path fill="#5a9fcd" stroke="#555555" stroke-width="2" d="M226.5,-63C226.5,-63 159.5,-63 159.5,-63 153.5,-63 147.5,-57 147.5,-51 147.5,-51 147.5,-39 147.5,-39 147.5,-33 153.5,-27 159.5,-27 159.5,-27 226.5,-27 226.5,-27 232.5,-27 238.5,-33 238.5,-39 238.5,-39 238.5,-51 238.5,-51 238.5,-57 232.5,-63 226.5,-63"/>
<text xml:space="preserve" text-anchor="middle" x="193" y="-40.36" font-family="Helvetica,sans-Serif" font-size="11.20" fill="white">groundMapping</text>
</g>
<!-- msg_2 -->
<g id="node4" class="node">
<title>msg_2</title>
<path fill="white" stroke="#555555" d="M372.88,-90C372.88,-90 312.38,-90 312.38,-90 306.38,-90 300.38,-84 300.38,-78 300.38,-78 300.38,-66 300.38,-66 300.38,-60 306.38,-54 312.38,-54 312.38,-54 372.88,-54 372.88,-54 378.88,-54 384.88,-60 384.88,-66 384.88,-66 384.88,-78 384.88,-78 384.88,-84 378.88,-90 372.88,-90"/>
<text xml:space="preserve" text-anchor="start" x="310.38" y="-75.5" font-family="Helvetica,sans-Serif" font-size="9.00">accessOutMsgs</text>
<text xml:space="preserve" text-anchor="start" x="310.38" y="-63.6" font-family="Helvetica,sans-Serif" font-style="italic" font-size="7.00">AccessMsgPayload</text>
</g>
<!-- module&#45;&gt;msg_2 -->
<g id="edge3" class="edge">
<title>module&#45;&gt;msg_2</title>
<path fill="none" stroke="#555555" d="M238.69,-53.17C254.55,-56.07 272.55,-59.37 289,-62.38"/>
<polygon fill="#555555" stroke="#555555" points="288.15,-65.78 298.62,-64.13 289.41,-58.89 288.15,-65.78"/>
</g>
<!-- msg_3 -->
<g id="node5" class="node">
<title>msg_3</title>
<path fill="white" stroke="#555555" d="M398.75,-36C398.75,-36 286.5,-36 286.5,-36 280.5,-36 274.5,-30 274.5,-24 274.5,-24 274.5,-12 274.5,-12 274.5,-6 280.5,0 286.5,0 286.5,0 398.75,0 398.75,0 404.75,0 410.75,-6 410.75,-12 410.75,-12 410.75,-24 410.75,-24 410.75,-30 404.75,-36 398.75,-36"/>
<text xml:space="preserve" text-anchor="start" x="284.5" y="-21.5" font-family="Helvetica,sans-Serif" font-size="9.00">currentGroundStateOutMsgs</text>
<text xml:space="preserve" text-anchor="start" x="284.5" y="-9.6" font-family="Helvetica,sans-Serif" font-style="italic" font-size="7.00">GroundStateMsgPayload</text>
</g>
<!-- module&#45;&gt;msg_3 -->
<g id="edge4" class="edge">
<title>module&#45;&gt;msg_3</title>
<path fill="none" stroke="#555555" d="M238.69,-36.83C246.39,-35.42 254.6,-33.92 262.89,-32.4"/>
<polygon fill="#555555" stroke="#555555" points="263.51,-35.85 272.71,-30.6 262.25,-28.96 263.51,-35.85"/>
</g>
<!-- msg_0 -->
<g id="node2" class="node">
<title>msg_0</title>
<path fill="white" stroke="#555555" d="M99.5,-90C99.5,-90 12,-90 12,-90 6,-90 0,-84 0,-78 0,-78 0,-66 0,-66 0,-60 6,-54 12,-54 12,-54 99.5,-54 99.5,-54 105.5,-54 111.5,-60 111.5,-66 111.5,-66 111.5,-78 111.5,-78 111.5,-84 105.5,-90 99.5,-90"/>
<text xml:space="preserve" text-anchor="start" x="10" y="-75.5" font-family="Helvetica,sans-Serif" font-size="9.00">planetInMsg</text>
<text xml:space="preserve" text-anchor="start" x="10" y="-63.6" font-family="Helvetica,sans-Serif" font-style="italic" font-size="7.00">SpicePlanetStateMsgPayload</text>
</g>
<!-- msg_0&#45;&gt;module -->
<g id="edge1" class="edge">
<title>msg_0&#45;&gt;module</title>
<path fill="none" stroke="#555555" d="M111.76,-61.02C119.81,-59.41 128.11,-57.75 136.18,-56.14"/>
<polygon fill="#555555" stroke="#555555" points="136.78,-59.59 145.9,-54.2 135.41,-52.73 136.78,-59.59"/>
</g>
<!-- msg_1 -->
<g id="node3" class="node">
<title>msg_1</title>
<path fill="white" stroke="#555555" d="M87.88,-36C87.88,-36 23.62,-36 23.62,-36 17.62,-36 11.62,-30 11.62,-24 11.62,-24 11.62,-12 11.62,-12 11.62,-6 17.62,0 23.62,0 23.62,0 87.88,0 87.88,0 93.88,0 99.88,-6 99.88,-12 99.88,-12 99.88,-24 99.88,-24 99.88,-30 93.88,-36 87.88,-36"/>
<text xml:space="preserve" text-anchor="start" x="21.62" y="-21.5" font-family="Helvetica,sans-Serif" font-size="9.00">scStateInMsg</text>
<text xml:space="preserve" text-anchor="start" x="21.62" y="-9.6" font-family="Helvetica,sans-Serif" font-style="italic" font-size="7.00">SCStatesMsgPayload</text>
</g>
<!-- msg_1&#45;&gt;module -->
<g id="edge2" class="edge">
<title>msg_1&#45;&gt;module</title>
<path fill="none" stroke="#555555" d="M100.29,-26.69C111.64,-28.96 124.04,-31.43 135.94,-33.81"/>
<polygon fill="#555555" stroke="#555555" points="135.17,-37.22 145.66,-35.75 136.54,-30.36 135.17,-37.22"/>
</g>
</g>
</svg>
