<?xml version="1.0" encoding="UTF-8" standalone="no"?>
<!DOCTYPE svg PUBLIC "-//W3C//DTD SVG 1.1//EN"
 "http://www.w3.org/Graphics/SVG/1.1/DTD/svg11.dtd">
<!-- Generated by graphviz version 15.1.0 (20260618.0150)
 -->
<!-- Title: navAggregateIO Pages: 1 -->
<svg width="342pt" height="98pt"
 viewBox="0.00 0.00 342.00 98.00" xmlns="http://www.w3.org/2000/svg" xmlns:xlink="http://www.w3.org/1999/xlink">
<g id="graph0" class="graph" transform="scale(1 1) rotate(0) translate(4 94)">
<title>navAggregateIO</title>
<!-- module -->
<g id="node1" class="node">
<title>module</title>
<path fill="#8a7f73" stroke="#555555" stroke-width="2" d="M196.5,-63C196.5,-63 137,-63 137,-63 131,-63 125,-57 125,-51 125,-51 125,-39 125,-39 125,-33 131,-27 137,-27 137,-27 196.5,-27 196.5,-27 202.5,-27 208.5,-33 208.5,-39 208.5,-39 208.5,-51 208.5,-51 208.5,-57 202.5,-63 196.5,-63"/>
<text xml:space="preserve" text-anchor="middle" x="166.75" y="-40.36" font-family="Helvetica,sans-Serif" font-size="11.20" fill="white">navAggregate</text>
</g>
<!-- msg_0 -->
<g id="node2" class="node">
<title>msg_0</title>
<path fill="white" stroke="#555555" d="M317.38,-90C317.38,-90 261.38,-90 261.38,-90 255.38,-90 249.38,-84 249.38,-78 249.38,-78 249.38,-66 249.38,-66 249.38,-60 255.38,-54 261.38,-54 261.38,-54 317.38,-54 317.38,-54 323.38,-54 329.38,-60 329.38,-66 329.38,-66 329.38,-78 329.38,-78 329.38,-84 323.38,-90 317.38,-90"/>
<text xml:space="preserve" text-anchor="start" x="259.38" y="-75.5" font-family="Helvetica,sans-Serif" font-size="9.00">navAttOutMsg</text>
<text xml:space="preserve" text-anchor="start" x="259.38" y="-63.6" font-family="Helvetica,sans-Serif" font-style="italic" font-size="7.00">NavAttMsgPayload</text>
</g>
<!-- module&#45;&gt;msg_0 -->
<g id="edge1" class="edge">
<title>module&#45;&gt;msg_0</title>
<path fill="none" stroke="#555555" d="M208.92,-54.22C218.25,-56.3 228.25,-58.54 237.9,-60.7"/>
<polygon fill="#555555" stroke="#555555" points="237.01,-64.09 247.54,-62.86 238.54,-57.26 237.01,-64.09"/>
</g>
<!-- msg_1 -->
<g id="node3" class="node">
<title>msg_1</title>
<path fill="white" stroke="#555555" d="M322.25,-36C322.25,-36 256.5,-36 256.5,-36 250.5,-36 244.5,-30 244.5,-24 244.5,-24 244.5,-12 244.5,-12 244.5,-6 250.5,0 256.5,0 256.5,0 322.25,0 322.25,0 328.25,0 334.25,-6 334.25,-12 334.25,-12 334.25,-24 334.25,-24 334.25,-30 328.25,-36 322.25,-36"/>
<text xml:space="preserve" text-anchor="start" x="254.5" y="-21.5" font-family="Helvetica,sans-Serif" font-size="9.00">navTransOutMsg</text>
<text xml:space="preserve" text-anchor="start" x="254.5" y="-9.6" font-family="Helvetica,sans-Serif" font-style="italic" font-size="7.00">NavTransMsgPayload</text>
</g>
<!-- module&#45;&gt;msg_1 -->
<g id="edge2" class="edge">
<title>module&#45;&gt;msg_1</title>
<path fill="none" stroke="#555555" d="M208.92,-35.78C216.71,-34.04 224.98,-32.19 233.12,-30.37"/>
<polygon fill="#555555" stroke="#555555" points="233.62,-33.84 242.61,-28.24 232.09,-27.01 233.62,-33.84"/>
</g>
<!-- msg_2 -->
<g id="node4" class="node">
<title>msg_2</title>
<path fill="white" stroke="#555555" d="M72.5,-90C72.5,-90 16.5,-90 16.5,-90 10.5,-90 4.5,-84 4.5,-78 4.5,-78 4.5,-66 4.5,-66 4.5,-60 10.5,-54 16.5,-54 16.5,-54 72.5,-54 72.5,-54 78.5,-54 84.5,-60 84.5,-66 84.5,-66 84.5,-78 84.5,-78 84.5,-84 78.5,-90 72.5,-90"/>
<text xml:space="preserve" text-anchor="start" x="14.5" y="-75.5" font-family="Helvetica,sans-Serif" font-size="9.00">navAttInMsg</text>
<text xml:space="preserve" text-anchor="start" x="14.5" y="-63.6" font-family="Helvetica,sans-Serif" font-style="italic" font-size="7.00">NavAttMsgPayload</text>
</g>
<!-- msg_2&#45;&gt;module -->
<g id="edge3" class="edge">
<title>msg_2&#45;&gt;module</title>
<path fill="none" stroke="#555555" d="M84.87,-63.16C94.03,-61.1 103.92,-58.88 113.53,-56.72"/>
<polygon fill="#555555" stroke="#555555" points="114.17,-60.17 123.16,-54.56 112.63,-53.34 114.17,-60.17"/>
</g>
<!-- msg_3 -->
<g id="node5" class="node">
<title>msg_3</title>
<path fill="white" stroke="#555555" d="M77,-36C77,-36 12,-36 12,-36 6,-36 0,-30 0,-24 0,-24 0,-12 0,-12 0,-6 6,0 12,0 12,0 77,0 77,0 83,0 89,-6 89,-12 89,-12 89,-24 89,-24 89,-30 83,-36 77,-36"/>
<text xml:space="preserve" text-anchor="start" x="10" y="-21.5" font-family="Helvetica,sans-Serif" font-size="9.00">navTransInMsg</text>
<text xml:space="preserve" text-anchor="start" x="10" y="-9.6" font-family="Helvetica,sans-Serif" font-style="italic" font-size="7.00">NavTransMsgPayload</text>
</g>
<!-- msg_3&#45;&gt;module -->
<g id="edge4" class="edge">
<title>msg_3&#45;&gt;module</title>
<path fill="none" stroke="#555555" d="M89.25,-27.82C97.1,-29.59 105.36,-31.44 113.42,-33.25"/>
<polygon fill="#555555" stroke="#555555" points="112.63,-36.66 123.16,-35.44 114.17,-29.83 112.63,-36.66"/>
</g>
</g>
</svg>
