<?xml version="1.0" encoding="UTF-8" standalone="no"?>
<!DOCTYPE svg PUBLIC "-//W3C//DTD SVG 1.1//EN"
 "http://www.w3.org/Graphics/SVG/1.1/DTD/svg11.dtd">
<!-- Generated by graphviz version 15.1.0 (20260618.0150)
 -->
<!-- Title: stochasticAtmDensityIO Pages: 1 -->
<svg width="385pt" height="44pt"
 viewBox="0.00 0.00 385.00 44.00" xmlns="http://www.w3.org/2000/svg" xmlns:xlink="http://www.w3.org/1999/xlink">
<g id="graph0" class="graph" transform="scale(1 1) rotate(0) translate(4 40)">
<title>stochasticAtmDensityIO</title>
<!-- module -->
<g id="node1" class="node">
<title>module</title>
<path fill="#5a9fcd" stroke="#555555" stroke-width="2" d="M235.5,-36C235.5,-36 140.75,-36 140.75,-36 134.75,-36 128.75,-30 128.75,-24 128.75,-24 128.75,-12 128.75,-12 128.75,-6 134.75,0 140.75,0 140.75,0 235.5,0 235.5,0 241.5,0 247.5,-6 247.5,-12 247.5,-12 247.5,-24 247.5,-24 247.5,-30 241.5,-36 235.5,-36"/>
<text xml:space="preserve" text-anchor="middle" x="188.12" y="-13.36" font-family="Helvetica,sans-Serif" font-size="11.20" fill="white">stochasticAtmDensity</text>
</g>
<!-- msg_1 -->
<g id="node3" class="node">
<title>msg_1</title>
<path fill="white" stroke="#555555" d="M365,-36C365,-36 295.5,-36 295.5,-36 289.5,-36 283.5,-30 283.5,-24 283.5,-24 283.5,-12 283.5,-12 283.5,-6 289.5,0 295.5,0 295.5,0 365,0 365,0 371,0 377,-6 377,-12 377,-12 377,-24 377,-24 377,-30 371,-36 365,-36"/>
<text xml:space="preserve" text-anchor="start" x="293.5" y="-21.5" font-family="Helvetica,sans-Serif" font-size="9.00">atmoDensOutMsg</text>
<text xml:space="preserve" text-anchor="start" x="293.5" y="-9.6" font-family="Helvetica,sans-Serif" font-style="italic" font-size="7.00">AtmoPropsMsgPayload</text>
</g>
<!-- module&#45;&gt;msg_1 -->
<g id="edge2" class="edge">
<title>module&#45;&gt;msg_1</title>
<path fill="none" stroke="#555555" d="M247.74,-18C255.7,-18 263.86,-18 271.8,-18"/>
<polygon fill="#555555" stroke="#555555" points="271.71,-21.5 281.71,-18 271.71,-14.5 271.71,-21.5"/>
</g>
<!-- msg_0 -->
<g id="node2" class="node">
<title>msg_0</title>
<path fill="white" stroke="#555555" d="M80.75,-36C80.75,-36 12,-36 12,-36 6,-36 0,-30 0,-24 0,-24 0,-12 0,-12 0,-6 6,0 12,0 12,0 80.75,0 80.75,0 86.75,0 92.75,-6 92.75,-12 92.75,-12 92.75,-24 92.75,-24 92.75,-30 86.75,-36 80.75,-36"/>
<text xml:space="preserve" text-anchor="start" x="10" y="-21.5" font-family="Helvetica,sans-Serif" font-size="9.00">atmoDensInMsg</text>
<text xml:space="preserve" text-anchor="start" x="10" y="-9.6" font-family="Helvetica,sans-Serif" font-style="italic" font-size="7.00">AtmoPropsMsgPayload</text>
</g>
<!-- msg_0&#45;&gt;module -->
<g id="edge1" class="edge">
<title>msg_0&#45;&gt;module</title>
<path fill="none" stroke="#555555" d="M93.13,-18C100.82,-18 108.94,-18 117.07,-18"/>
<polygon fill="#555555" stroke="#555555" points="117.01,-21.5 127.01,-18 117.01,-14.5 117.01,-21.5"/>
</g>
</g>
</svg>
