<?xml version="1.0" encoding="utf-8" standalone="no"?>
<!DOCTYPE svg PUBLIC "-//W3C//DTD SVG 1.1//EN"
  "http://www.w3.org/Graphics/SVG/1.1/DTD/svg11.dtd">
<svg xmlns:xlink="http://www.w3.org/1999/xlink" width="504pt" height="432pt" viewBox="0 0 504 432" xmlns="http://www.w3.org/2000/svg" version="1.1">
 <metadata>
  <rdf:RDF xmlns:dc="http://purl.org/dc/elements/1.1/" xmlns:cc="http://creativecommons.org/ns#" xmlns:rdf="http://www.w3.org/1999/02/22-rdf-syntax-ns#">
   <cc:Work>
    <dc:type rdf:resource="http://purl.org/dc/dcmitype/StillImage"/>
    <dc:date>2026-01-30T03:14:20.656784</dc:date>
    <dc:format>image/svg+xml</dc:format>
    <dc:creator>
     <cc:Agent>
      <dc:title>Matplotlib v3.10.7, https://matplotlib.org/</dc:title>
     </cc:Agent>
    </dc:creator>
   </cc:Work>
  </rdf:RDF>
 </metadata>
 <defs>
  <style type="text/css">*{stroke-linejoin: round; stroke-linecap: butt}</style>
 </defs>
 <g id="figure_1">
  <g id="patch_1">
   <path d="M 0 432 
L 504 432 
L 504 0 
L 0 0 
L 0 432 
z
" style="fill: none"/>
  </g>
  <g id="axes_1">
   <g id="patch_2">
    <path d="M 107.561563 362.623125 
L 482.4 362.623125 
L 482.4 21.6 
L 107.561563 21.6 
L 107.561563 362.623125 
z
" style="fill: none"/>
   </g>
   <g id="matplotlib.axis_1">
    <g id="xtick_1">
     <g id="line2d_1">
      <defs>
       <path id="mcbe6599c8f" d="M 0 0 
L 0 3.5 
" style="stroke: #000000; stroke-width: 0.8"/>
      </defs>
      <g>
       <use xlink:href="#mcbe6599c8f" x="124.599673" y="362.623125" style="stroke: #000000; stroke-width: 0.8"/>
      </g>
     </g>
     <g id="text_1">
      <!-- 0 -->
      <g transform="translate(118.873423 383.300313) scale(0.18 -0.18)">
       <defs>
        <path id="DejaVuSerif-30" d="M 2034 219 
Q 2513 219 2750 744 
Q 2988 1269 2988 2328 
Q 2988 3391 2750 3916 
Q 2513 4441 2034 4441 
Q 1556 4441 1318 3916 
Q 1081 3391 1081 2328 
Q 1081 1269 1318 744 
Q 1556 219 2034 219 
z
M 2034 -91 
Q 1275 -91 848 546 
Q 422 1184 422 2328 
Q 422 3475 848 4112 
Q 1275 4750 2034 4750 
Q 2797 4750 3222 4112 
Q 3647 3475 3647 2328 
Q 3647 1184 3222 546 
Q 2797 -91 2034 -91 
z
" transform="scale(0.015625)"/>
       </defs>
       <use xlink:href="#DejaVuSerif-30"/>
      </g>
     </g>
    </g>
    <g id="xtick_2">
     <g id="line2d_2">
      <g>
       <use xlink:href="#mcbe6599c8f" x="190.664469" y="362.623125" style="stroke: #000000; stroke-width: 0.8"/>
      </g>
     </g>
     <g id="text_2">
      <!-- 100 -->
      <g transform="translate(173.485719 383.300313) scale(0.18 -0.18)">
       <defs>
        <path id="DejaVuSerif-31" d="M 909 0 
L 909 331 
L 1722 331 
L 1722 4213 
L 781 3603 
L 781 4013 
L 1919 4750 
L 2350 4750 
L 2350 331 
L 3163 331 
L 3163 0 
L 909 0 
z
" transform="scale(0.015625)"/>
       </defs>
       <use xlink:href="#DejaVuSerif-31"/>
       <use xlink:href="#DejaVuSerif-30" transform="translate(63.623047 0)"/>
       <use xlink:href="#DejaVuSerif-30" transform="translate(127.246094 0)"/>
      </g>
     </g>
    </g>
    <g id="xtick_3">
     <g id="line2d_3">
      <g>
       <use xlink:href="#mcbe6599c8f" x="256.729265" y="362.623125" style="stroke: #000000; stroke-width: 0.8"/>
      </g>
     </g>
     <g id="text_3">
      <!-- 200 -->
      <g transform="translate(239.550515 383.300313) scale(0.18 -0.18)">
       <defs>
        <path id="DejaVuSerif-32" d="M 819 3553 
L 469 3553 
L 469 4384 
Q 803 4563 1142 4656 
Q 1481 4750 1806 4750 
Q 2534 4750 2956 4397 
Q 3378 4044 3378 3438 
Q 3378 2753 2422 1800 
Q 2347 1728 2309 1691 
L 1131 513 
L 3078 513 
L 3078 1088 
L 3444 1088 
L 3444 0 
L 434 0 
L 434 341 
L 1850 1753 
Q 2319 2222 2519 2614 
Q 2719 3006 2719 3438 
Q 2719 3909 2473 4175 
Q 2228 4441 1797 4441 
Q 1350 4441 1106 4219 
Q 863 3997 819 3553 
z
" transform="scale(0.015625)"/>
       </defs>
       <use xlink:href="#DejaVuSerif-32"/>
       <use xlink:href="#DejaVuSerif-30" transform="translate(63.623047 0)"/>
       <use xlink:href="#DejaVuSerif-30" transform="translate(127.246094 0)"/>
      </g>
     </g>
    </g>
    <g id="xtick_4">
     <g id="line2d_4">
      <g>
       <use xlink:href="#mcbe6599c8f" x="322.79406" y="362.623125" style="stroke: #000000; stroke-width: 0.8"/>
      </g>
     </g>
     <g id="text_4">
      <!-- 300 -->
      <g transform="translate(305.61531 383.300313) scale(0.18 -0.18)">
       <defs>
        <path id="DejaVuSerif-33" d="M 622 4469 
Q 988 4606 1323 4678 
Q 1659 4750 1953 4750 
Q 2638 4750 3022 4454 
Q 3406 4159 3406 3634 
Q 3406 3213 3140 2930 
Q 2875 2647 2388 2547 
Q 2963 2466 3280 2130 
Q 3597 1794 3597 1259 
Q 3597 606 3158 257 
Q 2719 -91 1894 -91 
Q 1528 -91 1179 -12 
Q 831 66 488 225 
L 488 1131 
L 838 1131 
Q 869 681 1141 450 
Q 1413 219 1906 219 
Q 2384 219 2661 495 
Q 2938 772 2938 1253 
Q 2938 1803 2653 2086 
Q 2369 2369 1819 2369 
L 1522 2369 
L 1522 2688 
L 1678 2688 
Q 2225 2688 2498 2914 
Q 2772 3141 2772 3597 
Q 2772 4006 2547 4223 
Q 2322 4441 1900 4441 
Q 1478 4441 1245 4241 
Q 1013 4041 972 3647 
L 622 3647 
L 622 4469 
z
" transform="scale(0.015625)"/>
       </defs>
       <use xlink:href="#DejaVuSerif-33"/>
       <use xlink:href="#DejaVuSerif-30" transform="translate(63.623047 0)"/>
       <use xlink:href="#DejaVuSerif-30" transform="translate(127.246094 0)"/>
      </g>
     </g>
    </g>
    <g id="xtick_5">
     <g id="line2d_5">
      <g>
       <use xlink:href="#mcbe6599c8f" x="388.858856" y="362.623125" style="stroke: #000000; stroke-width: 0.8"/>
      </g>
     </g>
     <g id="text_5">
      <!-- 400 -->
      <g transform="translate(371.680106 383.300313) scale(0.18 -0.18)">
       <defs>
        <path id="DejaVuSerif-34" d="M 2234 1581 
L 2234 4063 
L 641 1581 
L 2234 1581 
z
M 3609 0 
L 1484 0 
L 1484 331 
L 2234 331 
L 2234 1247 
L 197 1247 
L 197 1588 
L 2241 4750 
L 2859 4750 
L 2859 1581 
L 3750 1581 
L 3750 1247 
L 2859 1247 
L 2859 331 
L 3609 331 
L 3609 0 
z
" transform="scale(0.015625)"/>
       </defs>
       <use xlink:href="#DejaVuSerif-34"/>
       <use xlink:href="#DejaVuSerif-30" transform="translate(63.623047 0)"/>
       <use xlink:href="#DejaVuSerif-30" transform="translate(127.246094 0)"/>
      </g>
     </g>
    </g>
    <g id="xtick_6">
     <g id="line2d_6">
      <g>
       <use xlink:href="#mcbe6599c8f" x="454.923651" y="362.623125" style="stroke: #000000; stroke-width: 0.8"/>
      </g>
     </g>
     <g id="text_6">
      <!-- 500 -->
      <g transform="translate(437.744901 383.300313) scale(0.18 -0.18)">
       <defs>
        <path id="DejaVuSerif-35" d="M 3219 4666 
L 3219 4153 
L 1081 4153 
L 1081 2816 
Q 1244 2928 1461 2984 
Q 1678 3041 1947 3041 
Q 2703 3041 3140 2622 
Q 3578 2203 3578 1478 
Q 3578 738 3136 323 
Q 2694 -91 1894 -91 
Q 1572 -91 1234 -12 
Q 897 66 544 225 
L 544 1131 
L 897 1131 
Q 925 688 1179 453 
Q 1434 219 1894 219 
Q 2388 219 2653 544 
Q 2919 869 2919 1478 
Q 2919 2084 2655 2407 
Q 2391 2731 1894 2731 
Q 1613 2731 1398 2631 
Q 1184 2531 1019 2322 
L 750 2322 
L 750 4666 
L 3219 4666 
z
" transform="scale(0.015625)"/>
       </defs>
       <use xlink:href="#DejaVuSerif-35"/>
       <use xlink:href="#DejaVuSerif-30" transform="translate(63.623047 0)"/>
       <use xlink:href="#DejaVuSerif-30" transform="translate(127.246094 0)"/>
      </g>
     </g>
    </g>
    <g id="text_7">
     <!-- Time [min] -->
     <g transform="translate(239.607344 406.240625) scale(0.2 -0.2)">
      <defs>
       <path id="DejaVuSerif-54" d="M 1222 0 
L 1222 331 
L 1819 331 
L 1819 4294 
L 447 4294 
L 447 3566 
L 63 3566 
L 63 4666 
L 4206 4666 
L 4206 3566 
L 3822 3566 
L 3822 4294 
L 2450 4294 
L 2450 331 
L 3047 331 
L 3047 0 
L 1222 0 
z
" transform="scale(0.015625)"/>
       <path id="DejaVuSerif-69" d="M 622 4353 
Q 622 4497 726 4603 
Q 831 4709 978 4709 
Q 1122 4709 1226 4603 
Q 1331 4497 1331 4353 
Q 1331 4206 1228 4103 
Q 1125 4000 978 4000 
Q 831 4000 726 4103 
Q 622 4206 622 4353 
z
M 1356 331 
L 1900 331 
L 1900 0 
L 231 0 
L 231 331 
L 781 331 
L 781 2988 
L 231 2988 
L 231 3322 
L 1356 3322 
L 1356 331 
z
" transform="scale(0.015625)"/>
       <path id="DejaVuSerif-6d" d="M 3316 2675 
Q 3481 3041 3739 3227 
Q 3997 3413 4341 3413 
Q 4863 3413 5119 3089 
Q 5375 2766 5375 2113 
L 5375 331 
L 5894 331 
L 5894 0 
L 4300 0 
L 4300 331 
L 4800 331 
L 4800 2047 
Q 4800 2556 4650 2772 
Q 4500 2988 4153 2988 
Q 3769 2988 3567 2697 
Q 3366 2406 3366 1850 
L 3366 331 
L 3866 331 
L 3866 0 
L 2291 0 
L 2291 331 
L 2791 331 
L 2791 2069 
Q 2791 2566 2641 2777 
Q 2491 2988 2144 2988 
Q 1759 2988 1557 2697 
Q 1356 2406 1356 1850 
L 1356 331 
L 1856 331 
L 1856 0 
L 263 0 
L 263 331 
L 781 331 
L 781 2994 
L 231 2994 
L 231 3322 
L 1356 3322 
L 1356 2731 
Q 1516 3063 1762 3238 
Q 2009 3413 2322 3413 
Q 2709 3413 2968 3220 
Q 3228 3028 3316 2675 
z
" transform="scale(0.015625)"/>
       <path id="DejaVuSerif-65" d="M 3469 1600 
L 991 1600 
L 991 1575 
Q 991 903 1244 561 
Q 1497 219 1991 219 
Q 2369 219 2611 417 
Q 2853 616 2950 1006 
L 3413 1006 
Q 3275 459 2904 184 
Q 2534 -91 1931 -91 
Q 1203 -91 761 389 
Q 319 869 319 1663 
Q 319 2450 753 2931 
Q 1188 3413 1894 3413 
Q 2647 3413 3050 2948 
Q 3453 2484 3469 1600 
z
M 2791 1931 
Q 2772 2513 2545 2808 
Q 2319 3103 1894 3103 
Q 1497 3103 1269 2806 
Q 1041 2509 991 1931 
L 2791 1931 
z
" transform="scale(0.015625)"/>
       <path id="DejaVuSerif-20" transform="scale(0.015625)"/>
       <path id="DejaVuSerif-5b" d="M 550 4863 
L 2003 4863 
L 2003 4531 
L 1147 4531 
L 1147 -513 
L 2003 -513 
L 2003 -844 
L 550 -844 
L 550 4863 
z
" transform="scale(0.015625)"/>
       <path id="DejaVuSerif-6e" d="M 263 0 
L 263 331 
L 781 331 
L 781 2988 
L 231 2988 
L 231 3322 
L 1356 3322 
L 1356 2731 
Q 1516 3069 1770 3241 
Q 2025 3413 2363 3413 
Q 2913 3413 3172 3097 
Q 3431 2781 3431 2113 
L 3431 331 
L 3944 331 
L 3944 0 
L 2356 0 
L 2356 331 
L 2853 331 
L 2853 1931 
Q 2853 2541 2703 2767 
Q 2553 2994 2175 2994 
Q 1775 2994 1565 2701 
Q 1356 2409 1356 1850 
L 1356 331 
L 1856 331 
L 1856 0 
L 263 0 
z
" transform="scale(0.015625)"/>
       <path id="DejaVuSerif-5d" d="M 1947 4863 
L 1947 -844 
L 494 -844 
L 494 -513 
L 1350 -513 
L 1350 4531 
L 494 4531 
L 494 4863 
L 1947 4863 
z
" transform="scale(0.015625)"/>
      </defs>
      <use xlink:href="#DejaVuSerif-54"/>
      <use xlink:href="#DejaVuSerif-69" transform="translate(66.699219 0)"/>
      <use xlink:href="#DejaVuSerif-6d" transform="translate(98.681641 0)"/>
      <use xlink:href="#DejaVuSerif-65" transform="translate(193.505859 0)"/>
      <use xlink:href="#DejaVuSerif-20" transform="translate(252.685547 0)"/>
      <use xlink:href="#DejaVuSerif-5b" transform="translate(284.472656 0)"/>
      <use xlink:href="#DejaVuSerif-6d" transform="translate(323.486328 0)"/>
      <use xlink:href="#DejaVuSerif-69" transform="translate(418.310547 0)"/>
      <use xlink:href="#DejaVuSerif-6e" transform="translate(450.292969 0)"/>
      <use xlink:href="#DejaVuSerif-5d" transform="translate(514.697266 0)"/>
     </g>
    </g>
   </g>
   <g id="matplotlib.axis_2">
    <g id="ytick_1">
     <g id="line2d_7">
      <defs>
       <path id="me770817b2b" d="M 0 0 
L -3.5 0 
" style="stroke: #000000; stroke-width: 0.8"/>
      </defs>
      <g>
       <use xlink:href="#me770817b2b" x="107.561563" y="326.186469" style="stroke: #000000; stroke-width: 0.8"/>
      </g>
     </g>
     <g id="text_8">
      <!-- −0.75 -->
      <g transform="translate(45.4 333.025063) scale(0.18 -0.18)">
       <defs>
        <path id="DejaVuSerif-2212" d="M 678 2259 
L 4684 2259 
L 4684 1753 
L 678 1753 
L 678 2259 
z
" transform="scale(0.015625)"/>
        <path id="DejaVuSerif-2e" d="M 603 325 
Q 603 500 722 622 
Q 841 744 1019 744 
Q 1191 744 1312 622 
Q 1434 500 1434 325 
Q 1434 153 1312 31 
Q 1191 -91 1019 -91 
Q 841 -91 722 29 
Q 603 150 603 325 
z
" transform="scale(0.015625)"/>
        <path id="DejaVuSerif-37" d="M 3609 4347 
L 1784 0 
L 1319 0 
L 3059 4153 
L 903 4153 
L 903 3578 
L 538 3578 
L 538 4666 
L 3609 4666 
L 3609 4347 
z
" transform="scale(0.015625)"/>
       </defs>
       <use xlink:href="#DejaVuSerif-2212"/>
       <use xlink:href="#DejaVuSerif-30" transform="translate(83.789062 0)"/>
       <use xlink:href="#DejaVuSerif-2e" transform="translate(147.412109 0)"/>
       <use xlink:href="#DejaVuSerif-37" transform="translate(179.199219 0)"/>
       <use xlink:href="#DejaVuSerif-35" transform="translate(242.822266 0)"/>
      </g>
     </g>
    </g>
    <g id="ytick_2">
     <g id="line2d_8">
      <g>
       <use xlink:href="#me770817b2b" x="107.561563" y="281.484264" style="stroke: #000000; stroke-width: 0.8"/>
      </g>
     </g>
     <g id="text_9">
      <!-- −0.50 -->
      <g transform="translate(45.4 288.322857) scale(0.18 -0.18)">
       <use xlink:href="#DejaVuSerif-2212"/>
       <use xlink:href="#DejaVuSerif-30" transform="translate(83.789062 0)"/>
       <use xlink:href="#DejaVuSerif-2e" transform="translate(147.412109 0)"/>
       <use xlink:href="#DejaVuSerif-35" transform="translate(179.199219 0)"/>
       <use xlink:href="#DejaVuSerif-30" transform="translate(242.822266 0)"/>
      </g>
     </g>
    </g>
    <g id="ytick_3">
     <g id="line2d_9">
      <g>
       <use xlink:href="#me770817b2b" x="107.561563" y="236.782058" style="stroke: #000000; stroke-width: 0.8"/>
      </g>
     </g>
     <g id="text_10">
      <!-- −0.25 -->
      <g transform="translate(45.4 243.620652) scale(0.18 -0.18)">
       <use xlink:href="#DejaVuSerif-2212"/>
       <use xlink:href="#DejaVuSerif-30" transform="translate(83.789062 0)"/>
       <use xlink:href="#DejaVuSerif-2e" transform="translate(147.412109 0)"/>
       <use xlink:href="#DejaVuSerif-32" transform="translate(179.199219 0)"/>
       <use xlink:href="#DejaVuSerif-35" transform="translate(242.822266 0)"/>
      </g>
     </g>
    </g>
    <g id="ytick_4">
     <g id="line2d_10">
      <g>
       <use xlink:href="#me770817b2b" x="107.561563" y="192.079852" style="stroke: #000000; stroke-width: 0.8"/>
      </g>
     </g>
     <g id="text_11">
      <!-- 0.00 -->
      <g transform="translate(60.483438 198.918446) scale(0.18 -0.18)">
       <use xlink:href="#DejaVuSerif-30"/>
       <use xlink:href="#DejaVuSerif-2e" transform="translate(63.623047 0)"/>
       <use xlink:href="#DejaVuSerif-30" transform="translate(95.410156 0)"/>
       <use xlink:href="#DejaVuSerif-30" transform="translate(159.033203 0)"/>
      </g>
     </g>
    </g>
    <g id="ytick_5">
     <g id="line2d_11">
      <g>
       <use xlink:href="#me770817b2b" x="107.561563" y="147.377646" style="stroke: #000000; stroke-width: 0.8"/>
      </g>
     </g>
     <g id="text_12">
      <!-- 0.25 -->
      <g transform="translate(60.483438 154.21624) scale(0.18 -0.18)">
       <use xlink:href="#DejaVuSerif-30"/>
       <use xlink:href="#DejaVuSerif-2e" transform="translate(63.623047 0)"/>
       <use xlink:href="#DejaVuSerif-32" transform="translate(95.410156 0)"/>
       <use xlink:href="#DejaVuSerif-35" transform="translate(159.033203 0)"/>
      </g>
     </g>
    </g>
    <g id="ytick_6">
     <g id="line2d_12">
      <g>
       <use xlink:href="#me770817b2b" x="107.561563" y="102.675441" style="stroke: #000000; stroke-width: 0.8"/>
      </g>
     </g>
     <g id="text_13">
      <!-- 0.50 -->
      <g transform="translate(60.483438 109.514034) scale(0.18 -0.18)">
       <use xlink:href="#DejaVuSerif-30"/>
       <use xlink:href="#DejaVuSerif-2e" transform="translate(63.623047 0)"/>
       <use xlink:href="#DejaVuSerif-35" transform="translate(95.410156 0)"/>
       <use xlink:href="#DejaVuSerif-30" transform="translate(159.033203 0)"/>
      </g>
     </g>
    </g>
    <g id="ytick_7">
     <g id="line2d_13">
      <g>
       <use xlink:href="#me770817b2b" x="107.561563" y="57.973235" style="stroke: #000000; stroke-width: 0.8"/>
      </g>
     </g>
     <g id="text_14">
      <!-- 0.75 -->
      <g transform="translate(60.483438 64.811829) scale(0.18 -0.18)">
       <use xlink:href="#DejaVuSerif-30"/>
       <use xlink:href="#DejaVuSerif-2e" transform="translate(63.623047 0)"/>
       <use xlink:href="#DejaVuSerif-37" transform="translate(95.410156 0)"/>
       <use xlink:href="#DejaVuSerif-35" transform="translate(159.033203 0)"/>
      </g>
     </g>
    </g>
    <g id="text_15">
     <!-- Attitude $\sigma_{B/N}$ -->
     <g transform="translate(36.8 255.611563) rotate(-90) scale(0.2 -0.2)">
      <defs>
       <path id="DejaVuSerif-41" d="M 1281 1691 
L 2994 1691 
L 2138 3909 
L 1281 1691 
z
M -38 0 
L -38 331 
L 372 331 
L 2034 4666 
L 2559 4666 
L 4225 331 
L 4684 331 
L 4684 0 
L 2988 0 
L 2988 331 
L 3506 331 
L 3116 1356 
L 1153 1356 
L 763 331 
L 1275 331 
L 1275 0 
L -38 0 
z
" transform="scale(0.015625)"/>
       <path id="DejaVuSerif-74" d="M 691 2988 
L 184 2988 
L 184 3322 
L 691 3322 
L 691 4353 
L 1269 4353 
L 1269 3322 
L 2350 3322 
L 2350 2988 
L 1269 2988 
L 1269 878 
Q 1269 456 1350 337 
Q 1431 219 1650 219 
Q 1875 219 1978 351 
Q 2081 484 2088 781 
L 2522 781 
Q 2497 328 2275 118 
Q 2053 -91 1600 -91 
Q 1103 -91 897 129 
Q 691 350 691 878 
L 691 2988 
z
" transform="scale(0.015625)"/>
       <path id="DejaVuSerif-75" d="M 2266 3322 
L 3341 3322 
L 3341 331 
L 3884 331 
L 3884 0 
L 2766 0 
L 2766 588 
Q 2606 256 2353 82 
Q 2100 -91 1766 -91 
Q 1213 -91 952 223 
Q 691 538 691 1209 
L 691 2988 
L 172 2988 
L 172 3322 
L 1269 3322 
L 1269 1388 
Q 1269 781 1417 556 
Q 1566 331 1947 331 
Q 2347 331 2556 625 
Q 2766 919 2766 1478 
L 2766 2988 
L 2266 2988 
L 2266 3322 
z
" transform="scale(0.015625)"/>
       <path id="DejaVuSerif-64" d="M 3359 331 
L 3909 331 
L 3909 0 
L 2784 0 
L 2784 519 
Q 2616 206 2355 57 
Q 2094 -91 1709 -91 
Q 1097 -91 708 395 
Q 319 881 319 1663 
Q 319 2444 706 2928 
Q 1094 3413 1709 3413 
Q 2094 3413 2355 3264 
Q 2616 3116 2784 2803 
L 2784 4531 
L 2241 4531 
L 2241 4863 
L 3359 4863 
L 3359 331 
z
M 2784 1497 
L 2784 1825 
Q 2784 2422 2554 2737 
Q 2325 3053 1888 3053 
Q 1444 3053 1217 2703 
Q 991 2353 991 1663 
Q 991 975 1217 622 
Q 1444 269 1888 269 
Q 2325 269 2554 583 
Q 2784 897 2784 1497 
z
" transform="scale(0.015625)"/>
       <path id="DejaVuSans-Oblique-3c3" d="M 2219 3044 
Q 1744 3044 1422 2700 
Q 1081 2341 969 1747 
Q 844 1119 1044 756 
Q 1241 397 1706 397 
Q 2166 397 2503 759 
Q 2844 1122 2966 1747 
Q 3075 2319 2881 2700 
Q 2700 3044 2219 3044 
z
M 2309 3503 
L 4219 3500 
L 4106 2925 
L 3463 2925 
Q 3706 2438 3575 1747 
Q 3406 888 2884 400 
Q 2359 -91 1609 -91 
Q 856 -91 525 400 
Q 194 888 363 1747 
Q 528 2609 1050 3097 
Q 1484 3503 2309 3503 
z
" transform="scale(0.015625)"/>
       <path id="DejaVuSans-Oblique-42" d="M 1081 4666 
L 2694 4666 
Q 3350 4666 3675 4422 
Q 4000 4178 4000 3688 
Q 4000 3238 3720 2911 
Q 3441 2584 2988 2516 
Q 3375 2428 3569 2181 
Q 3763 1934 3763 1522 
Q 3763 819 3242 409 
Q 2722 0 1819 0 
L 172 0 
L 1081 4666 
z
M 1234 2228 
L 903 519 
L 1919 519 
Q 2491 519 2800 781 
Q 3109 1044 3109 1522 
Q 3109 1891 2904 2059 
Q 2700 2228 2247 2228 
L 1234 2228 
z
M 1606 4147 
L 1331 2741 
L 2272 2741 
Q 2775 2741 3058 2959 
Q 3341 3178 3341 3566 
Q 3341 3869 3150 4008 
Q 2959 4147 2541 4147 
L 1606 4147 
z
" transform="scale(0.015625)"/>
       <path id="DejaVuSans-2f" d="M 1625 4666 
L 2156 4666 
L 531 -594 
L 0 -594 
L 1625 4666 
z
" transform="scale(0.015625)"/>
       <path id="DejaVuSans-Oblique-4e" d="M 1081 4666 
L 1931 4666 
L 3219 666 
L 4000 4666 
L 4616 4666 
L 3706 0 
L 2853 0 
L 1569 4025 
L 788 0 
L 172 0 
L 1081 4666 
z
" transform="scale(0.015625)"/>
      </defs>
      <use xlink:href="#DejaVuSerif-41" transform="translate(0 0.015625)"/>
      <use xlink:href="#DejaVuSerif-74" transform="translate(72.216797 0.015625)"/>
      <use xlink:href="#DejaVuSerif-74" transform="translate(112.402344 0.015625)"/>
      <use xlink:href="#DejaVuSerif-69" transform="translate(152.587891 0.015625)"/>
      <use xlink:href="#DejaVuSerif-74" transform="translate(184.570312 0.015625)"/>
      <use xlink:href="#DejaVuSerif-75" transform="translate(224.755859 0.015625)"/>
      <use xlink:href="#DejaVuSerif-64" transform="translate(289.160156 0.015625)"/>
      <use xlink:href="#DejaVuSerif-65" transform="translate(353.173828 0.015625)"/>
      <use xlink:href="#DejaVuSerif-20" transform="translate(412.353516 0.015625)"/>
      <use xlink:href="#DejaVuSans-Oblique-3c3" transform="translate(444.140625 0.015625)"/>
      <use xlink:href="#DejaVuSans-Oblique-42" transform="translate(507.519531 -16.390625) scale(0.7)"/>
      <use xlink:href="#DejaVuSans-2f" transform="translate(555.541992 -16.390625) scale(0.7)"/>
      <use xlink:href="#DejaVuSans-Oblique-4e" transform="translate(579.125977 -16.390625) scale(0.7)"/>
     </g>
    </g>
   </g>
   <g id="line2d_14">
    <path d="M 124.599673 174.19897 
L 124.952019 169.585602 
L 125.194256 168.640747 
L 125.293354 168.704954 
L 125.447505 169.23747 
L 125.898948 170.931428 
L 125.909958 170.925731 
L 126.009056 170.723378 
L 126.251293 169.495647 
L 126.647682 167.807019 
L 126.878909 167.582201 
L 127.110136 167.678451 
L 129.003993 168.955766 
L 129.807781 169.006146 
L 131.085034 169.130565 
L 133.397302 169.686891 
L 135.907764 170.468808 
L 138.352162 171.465353 
L 140.664429 172.647499 
L 142.866589 174.023195 
L 144.958641 175.592924 
L 146.951596 177.367429 
L 148.856464 179.363344 
L 150.331911 181.194347 
L 151.036602 183.09584 
L 151.058624 183.085391 
L 151.157721 182.878825 
L 151.289851 181.943328 
L 151.488045 178.535325 
L 152.049596 165.372449 
L 152.126671 165.862236 
L 152.24779 168.985267 
L 152.52306 184.309612 
L 152.93046 202.440051 
L 153.238762 207.835162 
L 153.503021 209.346825 
L 153.613129 209.417304 
L 153.646162 209.384107 
L 153.789302 208.979789 
L 154.042551 207.420765 
L 155.672149 195.487751 
L 156.542002 192.409054 
L 156.696153 191.856094 
L 156.817272 192.722484 
L 158.612032 198.215271 
L 160.087479 202.374373 
L 161.717078 206.295324 
L 163.313644 209.576601 
L 164.92122 212.377782 
L 166.57284 214.814355 
L 168.301536 216.970546 
L 170.129328 218.896977 
L 172.100261 220.651619 
L 174.258378 222.272827 
L 176.647721 223.785756 
L 179.323346 225.21249 
L 182.351315 226.571213 
L 184.289216 227.292902 
L 184.366292 226.610638 
L 184.531454 222.431144 
L 185.423328 188.375501 
L 185.984879 159.553464 
L 186.216106 156.329518 
L 186.260149 156.289361 
L 186.304192 156.390117 
L 186.447333 157.391173 
L 187.008884 163.863116 
L 187.64751 169.777609 
L 188.032888 171.608362 
L 188.319169 172.085066 
L 188.528374 172.075862 
L 188.792633 171.789401 
L 190.058875 170.114636 
L 190.499307 170.033736 
L 191.391182 170.178469 
L 192.316089 170.201733 
L 200.486102 169.688729 
L 211.629031 169.284741 
L 227.528625 168.945472 
L 250.849498 168.685867 
L 267.046383 168.475619 
L 267.156491 167.396089 
L 267.332664 162.911304 
L 267.618945 148.712258 
L 268.202517 105.436568 
L 268.565874 88.528595 
L 268.885187 83.128352 
L 269.47977 77.341204 
L 269.556846 77.218169 
L 269.600889 77.281705 
L 269.722008 77.978538 
L 269.975256 81.188977 
L 270.657926 90.040801 
L 270.99926 91.88199 
L 271.26352 92.332485 
L 271.439692 92.298521 
L 271.68193 91.967346 
L 272.948172 89.857408 
L 273.355571 89.756907 
L 274.060263 89.873092 
L 274.941127 89.93372 
L 276.6478 89.71531 
L 280.90898 89.356048 
L 287.38333 88.987026 
L 293.747572 88.84639 
L 302.853503 88.916315 
L 313.137589 89.205754 
L 323.399654 89.716669 
L 333.628687 90.448354 
L 343.802665 91.398678 
L 351.521236 92.294623 
L 351.609322 92.883992 
L 351.785495 96.064566 
L 352.082786 106.113267 
L 352.523218 129.45372 
L 353.018704 153.680487 
L 353.293974 157.643156 
L 353.800471 162.337377 
L 354.141806 169.22396 
L 354.593249 177.199383 
L 354.758411 177.816502 
L 354.780432 177.805115 
L 354.879529 177.534284 
L 355.099745 176.034786 
L 356.024652 169.002334 
L 356.365987 168.054151 
L 356.619236 167.880543 
L 356.850462 167.997469 
L 357.268873 168.534624 
L 357.940531 169.320004 
L 358.391974 169.512689 
L 358.942514 169.485244 
L 360.506048 169.312291 
L 399.605396 170.66463 
L 420.294688 171.660633 
L 439.662684 172.812933 
L 457.742416 174.108637 
L 465.361889 174.726136 
L 465.361889 174.726136 
" clip-path="url(#p78eb2b7f0a)" style="fill: none; stroke: #2b737e; stroke-width: 1.5; stroke-linecap: square"/>
   </g>
   <g id="line2d_15">
    <path d="M 124.599673 156.318088 
L 125.183246 194.438347 
L 125.491548 201.937271 
L 125.689742 203.07763 
L 125.755807 202.961592 
L 125.887937 202.104558 
L 126.174218 198.293127 
L 126.603639 193.578442 
L 126.823855 192.971193 
L 126.933963 193.063809 
L 127.143168 193.682049 
L 127.913924 196.208571 
L 128.332334 196.729091 
L 130.193159 198.51882 
L 136.502347 206.175736 
L 140.719483 211.624807 
L 144.331026 216.650208 
L 147.546179 221.503112 
L 150.287868 226.012908 
L 150.375954 226.720395 
L 150.541116 230.555801 
L 150.794365 242.580422 
L 151.201764 274.228663 
L 151.906455 329.242379 
L 152.181725 334.824705 
L 152.368909 335.787201 
L 152.390931 335.772333 
L 152.479017 335.463582 
L 152.677211 333.640645 
L 153.238762 328.278604 
L 153.425946 327.979662 
L 153.436957 327.983762 
L 153.569086 328.180359 
L 153.822335 329.077941 
L 154.58208 332.918733 
L 155.374857 337.925563 
L 156.696153 347.122074 
L 156.707164 37.101051 
L 156.817272 37.813855 
L 157.543985 41.65159 
L 161.221592 58.768345 
L 163.159492 66.517724 
L 165.031328 73.108969 
L 166.892153 78.864679 
L 168.786011 84.010367 
L 170.734922 88.67096 
L 172.77192 92.971576 
L 174.919026 96.988171 
L 177.198261 100.78215 
L 179.642659 104.418908 
L 182.27424 107.934947 
L 184.322249 110.649685 
L 184.454378 112.935723 
L 184.685605 121.840904 
L 185.687588 167.333942 
L 185.973868 170.99213 
L 186.205095 171.697487 
L 186.326214 172.08181 
L 186.524408 173.684802 
L 187.339208 181.136956 
L 187.592456 181.665852 
L 187.746607 181.618664 
L 187.955812 181.238383 
L 189.167 178.505335 
L 189.464292 178.483454 
L 189.860681 178.71579 
L 191.148944 179.600167 
L 192.05183 179.820074 
L 194.110849 180.307585 
L 198.129791 181.264284 
L 204.229774 182.505995 
L 211.540944 183.761314 
L 220.327562 185.037094 
L 231.04107 186.359998 
L 244.375148 187.77343 
L 261.695135 189.374032 
L 267.046383 189.927652 
L 267.233567 191.008755 
L 267.420751 191.6598 
L 267.442772 191.647825 
L 267.530859 191.386561 
L 267.707031 189.939763 
L 267.949269 185.9707 
L 268.279593 176.248818 
L 268.65396 166.955608 
L 268.686993 166.862977 
L 268.731036 167.008667 
L 268.830133 168.539721 
L 269.006306 175.530475 
L 269.655943 204.5123 
L 269.964245 208.715919 
L 270.228504 209.878144 
L 270.349623 209.919665 
L 270.371645 209.899643 
L 270.525796 209.555475 
L 270.823088 208.177569 
L 271.670919 204.055064 
L 272.045286 203.289519 
L 272.37561 203.062809 
L 272.771999 203.08106 
L 273.641852 203.164506 
L 274.225425 202.940738 
L 294.936738 191.929215 
L 307.742298 187.750155 
L 351.565279 173.4399 
L 351.675387 174.139681 
L 351.86257 177.235694 
L 352.203905 187.650239 
L 353.415093 227.427581 
L 353.558233 228.089314 
L 353.591266 228.059485 
L 353.690363 227.559716 
L 353.866536 225.14599 
L 354.141806 217.649547 
L 354.681335 203.819259 
L 355.066713 199.273729 
L 355.397037 197.552511 
L 355.628264 197.23088 
L 355.782415 197.332217 
L 356.024652 197.839745 
L 357.147754 200.57319 
L 357.51111 200.795977 
L 357.91851 200.771419 
L 359.349914 200.505338 
L 360.561102 200.730601 
L 362.664164 201.023418 
L 376.295534 202.867581 
L 410.660238 207.665087 
L 439.288317 211.881164 
L 464.293842 215.784181 
L 465.361889 215.956322 
L 465.361889 215.956322 
" clip-path="url(#p78eb2b7f0a)" style="fill: none; stroke: #5ea04b; stroke-width: 1.5; stroke-linecap: square"/>
   </g>
   <g id="line2d_16">
    <path d="M 124.599673 245.722499 
L 125.194256 186.712086 
L 125.557613 169.72472 
L 125.777829 166.867525 
L 125.832883 167.070252 
L 125.954002 168.795018 
L 126.702736 182.707588 
L 126.823855 182.854281 
L 126.856887 182.825792 
L 127.000028 182.461324 
L 127.363384 180.699431 
L 128.365367 175.936834 
L 133.639539 152.589448 
L 137.966784 132.567665 
L 141.567315 114.860853 
L 144.760447 98.047864 
L 147.678309 81.491365 
L 150.530106 64.842627 
L 150.59617 64.899239 
L 150.7283 65.305314 
L 150.893462 66.623948 
L 151.091656 70.334937 
L 151.333894 79.80661 
L 152.225769 121.583328 
L 152.820352 128.878411 
L 152.93046 129.192173 
L 152.974503 129.129947 
L 153.084611 128.512682 
L 153.304827 125.641779 
L 154.394896 109.093639 
L 154.747242 107.35752 
L 155.088576 106.665827 
L 155.980451 105.342196 
L 156.464926 103.880162 
L 156.696153 103.016291 
L 156.707164 281.108117 
L 156.817272 280.726593 
L 157.466909 279.004073 
L 158.788205 275.459074 
L 160.957332 269.695332 
L 162.98332 264.957433 
L 164.92122 260.977965 
L 166.859121 257.499841 
L 168.852076 254.376739 
L 170.933117 251.527554 
L 173.135276 248.887681 
L 175.513609 246.384988 
L 178.101147 243.987841 
L 180.941933 241.661996 
L 184.102033 239.365662 
L 184.311238 239.128666 
L 184.410335 238.057347 
L 184.586508 233.028177 
L 185.059972 219.188881 
L 185.280188 217.876422 
L 185.654555 216.847801 
L 185.797696 216.476374 
L 185.841739 216.529615 
L 185.940836 217.123664 
L 186.094987 219.788221 
L 186.348236 229.215754 
L 186.810689 244.740376 
L 187.063938 247.457107 
L 187.174046 247.647594 
L 187.218089 247.607002 
L 187.361229 247.15199 
L 187.79065 244.680085 
L 188.319169 242.279872 
L 188.770611 241.164386 
L 189.244076 240.557265 
L 189.981799 240.038193 
L 190.829631 239.341845 
L 197.0177 233.380401 
L 200.431048 230.601691 
L 204.130676 227.879246 
L 208.160629 225.192962 
L 212.564949 222.527604 
L 217.39869 219.865432 
L 222.738927 217.181908 
L 228.662737 214.457947 
L 235.280228 211.6638 
L 242.745549 208.757474 
L 251.28993 205.674983 
L 261.309757 202.303639 
L 267.013351 200.506869 
L 267.024362 200.547477 
L 267.123459 201.538631 
L 267.839161 210.629078 
L 267.916237 210.497807 
L 268.059377 209.627468 
L 268.51082 206.721334 
L 268.587895 206.850197 
L 268.742047 207.754938 
L 269.083381 211.595311 
L 269.710997 217.861513 
L 269.810094 217.996202 
L 269.854137 217.954967 
L 269.986267 217.524838 
L 270.349623 215.248223 
L 270.779044 213.20353 
L 271.098358 212.610037 
L 271.40666 212.468997 
L 272.562794 212.255693 
L 273.234453 211.68433 
L 276.306466 208.833594 
L 285.588569 200.374462 
L 295.223019 191.663923 
L 296.962725 190.720956 
L 315.868267 179.9521 
L 351.697408 159.429405 
L 351.906613 158.718014 
L 352.336035 157.162977 
L 352.358056 157.178451 
L 352.446143 157.438218 
L 352.578272 158.674777 
L 352.798488 163.421763 
L 353.382061 176.627334 
L 353.470147 176.893269 
L 353.51419 176.833286 
L 353.624298 176.193763 
L 353.866536 173.075832 
L 354.417076 166.046244 
L 354.791443 164.619507 
L 355.209853 162.428459 
L 355.628264 160.757823 
L 355.881512 160.477756 
L 356.090717 160.551614 
L 356.509128 161.027109 
L 357.037646 161.495426 
L 357.412013 161.547817 
L 357.852445 161.36409 
L 360.902436 159.584795 
L 365.758199 157.149258 
L 386.733772 146.473353 
L 404.956644 136.95161 
L 421.483854 128.068263 
L 436.7228 119.627747 
L 450.926731 111.508933 
L 464.27182 103.627309 
L 465.361889 102.971644 
L 465.361889 102.971644 
" clip-path="url(#p78eb2b7f0a)" style="fill: none; stroke: #bdab62; stroke-width: 1.5; stroke-linecap: square"/>
   </g>
   <g id="patch_3">
    <path d="M 107.561563 362.623125 
L 107.561563 21.6 
" style="fill: none; stroke: #000000; stroke-width: 0.8; stroke-linejoin: miter; stroke-linecap: square"/>
   </g>
   <g id="patch_4">
    <path d="M 482.4 362.623125 
L 482.4 21.6 
" style="fill: none; stroke: #000000; stroke-width: 0.8; stroke-linejoin: miter; stroke-linecap: square"/>
   </g>
   <g id="patch_5">
    <path d="M 107.561562 362.623125 
L 482.4 362.623125 
" style="fill: none; stroke: #000000; stroke-width: 0.8; stroke-linejoin: miter; stroke-linecap: square"/>
   </g>
   <g id="patch_6">
    <path d="M 107.561562 21.6 
L 482.4 21.6 
" style="fill: none; stroke: #000000; stroke-width: 0.8; stroke-linejoin: miter; stroke-linecap: square"/>
   </g>
   <g id="legend_1">
    <g id="patch_7">
     <path d="M 392.22 353.623125 
L 469.8 353.623125 
Q 473.4 353.623125 473.4 350.023125 
L 473.4 272.56125 
Q 473.4 268.96125 469.8 268.96125 
L 392.22 268.96125 
Q 388.62 268.96125 388.62 272.56125 
L 388.62 350.023125 
Q 388.62 353.623125 392.22 353.623125 
z
" style="fill: #ffffff; opacity: 0.8; stroke: #cccccc; stroke-linejoin: miter"/>
    </g>
    <g id="line2d_17">
     <path d="M 395.82 283.538438 
L 413.82 283.538438 
L 431.82 283.538438 
" style="fill: none; stroke: #2b737e; stroke-width: 1.5; stroke-linecap: square"/>
    </g>
    <g id="text_16">
     <!-- $\sigma_0$ -->
     <g transform="translate(446.22 289.838438) scale(0.18 -0.18)">
      <defs>
       <path id="DejaVuSans-30" d="M 2034 4250 
Q 1547 4250 1301 3770 
Q 1056 3291 1056 2328 
Q 1056 1369 1301 889 
Q 1547 409 2034 409 
Q 2525 409 2770 889 
Q 3016 1369 3016 2328 
Q 3016 3291 2770 3770 
Q 2525 4250 2034 4250 
z
M 2034 4750 
Q 2819 4750 3233 4129 
Q 3647 3509 3647 2328 
Q 3647 1150 3233 529 
Q 2819 -91 2034 -91 
Q 1250 -91 836 529 
Q 422 1150 422 2328 
Q 422 3509 836 4129 
Q 1250 4750 2034 4750 
z
" transform="scale(0.015625)"/>
      </defs>
      <use xlink:href="#DejaVuSans-Oblique-3c3" transform="translate(0 0.265625)"/>
      <use xlink:href="#DejaVuSans-30" transform="translate(63.378906 -16.140625) scale(0.7)"/>
     </g>
    </g>
    <g id="line2d_18">
     <path d="M 395.82 309.959063 
L 413.82 309.959063 
L 431.82 309.959063 
" style="fill: none; stroke: #5ea04b; stroke-width: 1.5; stroke-linecap: square"/>
    </g>
    <g id="text_17">
     <!-- $\sigma_1$ -->
     <g transform="translate(446.22 316.259063) scale(0.18 -0.18)">
      <defs>
       <path id="DejaVuSans-31" d="M 794 531 
L 1825 531 
L 1825 4091 
L 703 3866 
L 703 4441 
L 1819 4666 
L 2450 4666 
L 2450 531 
L 3481 531 
L 3481 0 
L 794 0 
L 794 531 
z
" transform="scale(0.015625)"/>
      </defs>
      <use xlink:href="#DejaVuSans-Oblique-3c3" transform="translate(0 0.265625)"/>
      <use xlink:href="#DejaVuSans-31" transform="translate(63.378906 -16.140625) scale(0.7)"/>
     </g>
    </g>
    <g id="line2d_19">
     <path d="M 395.82 336.379687 
L 413.82 336.379687 
L 431.82 336.379687 
" style="fill: none; stroke: #bdab62; stroke-width: 1.5; stroke-linecap: square"/>
    </g>
    <g id="text_18">
     <!-- $\sigma_2$ -->
     <g transform="translate(446.22 342.679688) scale(0.18 -0.18)">
      <defs>
       <path id="DejaVuSans-32" d="M 1228 531 
L 3431 531 
L 3431 0 
L 469 0 
L 469 531 
Q 828 903 1448 1529 
Q 2069 2156 2228 2338 
Q 2531 2678 2651 2914 
Q 2772 3150 2772 3378 
Q 2772 3750 2511 3984 
Q 2250 4219 1831 4219 
Q 1534 4219 1204 4116 
Q 875 4013 500 3803 
L 500 4441 
Q 881 4594 1212 4672 
Q 1544 4750 1819 4750 
Q 2544 4750 2975 4387 
Q 3406 4025 3406 3419 
Q 3406 3131 3298 2873 
Q 3191 2616 2906 2266 
Q 2828 2175 2409 1742 
Q 1991 1309 1228 531 
z
" transform="scale(0.015625)"/>
      </defs>
      <use xlink:href="#DejaVuSans-Oblique-3c3" transform="translate(0 0.265625)"/>
      <use xlink:href="#DejaVuSans-32" transform="translate(63.378906 -16.140625) scale(0.7)"/>
     </g>
    </g>
   </g>
  </g>
 </g>
 <defs>
  <clipPath id="p78eb2b7f0a">
   <rect x="107.561563" y="21.6" width="374.838438" height="341.023125"/>
  </clipPath>
 </defs>
</svg>
