<?xml version="1.0" encoding="utf-8" standalone="no"?>
<!DOCTYPE svg PUBLIC "-//W3C//DTD SVG 1.1//EN"
  "http://www.w3.org/Graphics/SVG/1.1/DTD/svg11.dtd">
<svg xmlns:xlink="http://www.w3.org/1999/xlink" width="414pt" height="288pt" viewBox="0 0 414 288" xmlns="http://www.w3.org/2000/svg" version="1.1">
 <metadata>
  <rdf:RDF xmlns:dc="http://purl.org/dc/elements/1.1/" xmlns:cc="http://creativecommons.org/ns#" xmlns:rdf="http://www.w3.org/1999/02/22-rdf-syntax-ns#">
   <cc:Work>
    <dc:type rdf:resource="http://purl.org/dc/dcmitype/StillImage"/>
    <dc:date>2026-01-12T23:11:41.135987</dc:date>
    <dc:format>image/svg+xml</dc:format>
    <dc:creator>
     <cc:Agent>
      <dc:title>Matplotlib v3.10.7, https://matplotlib.org/</dc:title>
     </cc:Agent>
    </dc:creator>
   </cc:Work>
  </rdf:RDF>
 </metadata>
 <defs>
  <style type="text/css">*{stroke-linejoin: round; stroke-linecap: butt}</style>
 </defs>
 <g id="figure_1">
  <g id="patch_1">
   <path d="M 0 288 
L 414 288 
L 414 0 
L 0 0 
L 0 288 
z
" style="fill: none"/>
  </g>
  <g id="patch_2">
   <path d="M 73.8 277.2 
L 340.2 277.2 
L 340.2 10.8 
L 73.8 10.8 
L 73.8 277.2 
z
" style="fill: none"/>
  </g>
  <g id="pane3d_1">
   <g id="patch_3">
    <path d="M 93.915037 211.514297 
L 181.889017 137.772763 
L 180.666095 31.424287 
L 88.482106 98.695964 
" style="fill: #f2f2f2; opacity: 0.5; stroke: #f2f2f2; stroke-linejoin: miter"/>
   </g>
  </g>
  <g id="pane3d_2">
   <g id="patch_4">
    <path d="M 181.889017 137.772763 
L 323.055866 178.804393 
L 328.093614 68.792866 
L 180.666095 31.424287 
" style="fill: #e6e6e6; opacity: 0.5; stroke: #e6e6e6; stroke-linejoin: miter"/>
   </g>
  </g>
  <g id="pane3d_3">
   <g id="patch_5">
    <path d="M 93.915037 211.514297 
L 243.558792 260.387947 
L 323.055866 178.804393 
L 181.889017 137.772763 
" style="fill: #ececec; opacity: 0.5; stroke: #ececec; stroke-linejoin: miter"/>
   </g>
  </g>
  <g id="grid3d_1">
   <g id="Line3DCollection_1">
    <path d="M 102.388626 214.281772 
L 189.91596 140.105878 
L 189.032353 33.54489 
" style="fill: none; stroke: #b0b0b0; stroke-width: 0.8"/>
    <path d="M 134.240731 224.684669 
L 220.053191 148.865581 
L 220.461464 41.511254 
" style="fill: none; stroke: #b0b0b0; stroke-width: 0.8"/>
    <path d="M 166.833404 235.329436 
L 250.832482 157.811906 
L 252.5894 49.654749 
" style="fill: none; stroke: #b0b0b0; stroke-width: 0.8"/>
    <path d="M 200.192778 246.224608 
L 282.274574 166.950881 
L 285.439729 57.98135 
" style="fill: none; stroke: #b0b0b0; stroke-width: 0.8"/>
    <path d="M 234.346229 257.379124 
L 314.401108 176.288796 
L 319.037094 66.497302 
" style="fill: none; stroke: #b0b0b0; stroke-width: 0.8"/>
   </g>
  </g>
  <g id="grid3d_2">
   <g id="Line3DCollection_2">
    <path d="M 104.420051 87.065178 
L 109.077391 198.804912 
L 257.310286 246.275531 
" style="fill: none; stroke: #b0b0b0; stroke-width: 0.8"/>
    <path d="M 136.631759 63.55854 
L 139.782359 173.067398 
L 285.094055 217.76255 
" style="fill: none; stroke: #b0b0b0; stroke-width: 0.8"/>
    <path d="M 166.954169 41.430626 
L 168.760956 148.776964 
L 311.237277 190.933173 
" style="fill: none; stroke: #b0b0b0; stroke-width: 0.8"/>
   </g>
  </g>
  <g id="grid3d_3">
   <g id="Line3DCollection_3">
    <path d="M 323.291621 173.656115 
L 181.831672 132.785883 
L 93.661197 206.243147 
" style="fill: none; stroke: #b0b0b0; stroke-width: 0.8"/>
    <path d="M 324.394387 149.574514 
L 181.563585 109.472327 
L 92.473303 181.575753 
" style="fill: none; stroke: #b0b0b0; stroke-width: 0.8"/>
    <path d="M 325.51895 125.016944 
L 181.290454 85.720173 
L 91.261027 156.402061 
" style="fill: none; stroke: #b0b0b0; stroke-width: 0.8"/>
    <path d="M 326.665961 99.969154 
L 181.012136 61.516927 
L 90.023611 130.706321 
" style="fill: none; stroke: #b0b0b0; stroke-width: 0.8"/>
    <path d="M 327.836099 74.416316 
L 180.728482 36.849615 
L 88.760265 104.472123 
" style="fill: none; stroke: #b0b0b0; stroke-width: 0.8"/>
   </g>
  </g>
  <g id="axis3d_1">
   <g id="line2d_1">
    <path d="M 93.915037 211.514297 
L 243.558792 260.387947 
" style="fill: none; stroke: #000000; stroke-width: 0.8; stroke-linecap: square"/>
   </g>
   <g id="xtick_1">
    <g id="line2d_2">
     <path d="M 103.150796 213.635863 
L 100.861017 215.576359 
" style="fill: none; stroke: #000000; stroke-width: 0.8; stroke-linecap: square"/>
    </g>
    <g id="text_1">
     <!-- −5000 -->
     <g transform="translate(67.795275 242.145851) scale(0.16 -0.16)">
      <defs>
       <path id="DejaVuSans-2212" d="M 678 2272 
L 4684 2272 
L 4684 1741 
L 678 1741 
L 678 2272 
z
" transform="scale(0.015625)"/>
       <path id="DejaVuSans-35" d="M 691 4666 
L 3169 4666 
L 3169 4134 
L 1269 4134 
L 1269 2991 
Q 1406 3038 1543 3061 
Q 1681 3084 1819 3084 
Q 2600 3084 3056 2656 
Q 3513 2228 3513 1497 
Q 3513 744 3044 326 
Q 2575 -91 1722 -91 
Q 1428 -91 1123 -41 
Q 819 9 494 109 
L 494 744 
Q 775 591 1075 516 
Q 1375 441 1709 441 
Q 2250 441 2565 725 
Q 2881 1009 2881 1497 
Q 2881 1984 2565 2268 
Q 2250 2553 1709 2553 
Q 1456 2553 1204 2497 
Q 953 2441 691 2322 
L 691 4666 
z
" transform="scale(0.015625)"/>
       <path id="DejaVuSans-30" d="M 2034 4250 
Q 1547 4250 1301 3770 
Q 1056 3291 1056 2328 
Q 1056 1369 1301 889 
Q 1547 409 2034 409 
Q 2525 409 2770 889 
Q 3016 1369 3016 2328 
Q 3016 3291 2770 3770 
Q 2525 4250 2034 4250 
z
M 2034 4750 
Q 2819 4750 3233 4129 
Q 3647 3509 3647 2328 
Q 3647 1150 3233 529 
Q 2819 -91 2034 -91 
Q 1250 -91 836 529 
Q 422 1150 422 2328 
Q 422 3509 836 4129 
Q 1250 4750 2034 4750 
z
" transform="scale(0.015625)"/>
      </defs>
      <use xlink:href="#DejaVuSans-2212"/>
      <use xlink:href="#DejaVuSans-35" transform="translate(83.789062 0)"/>
      <use xlink:href="#DejaVuSans-30" transform="translate(147.412109 0)"/>
      <use xlink:href="#DejaVuSans-30" transform="translate(211.035156 0)"/>
      <use xlink:href="#DejaVuSans-30" transform="translate(274.658203 0)"/>
     </g>
    </g>
   </g>
   <g id="xtick_2">
    <g id="line2d_3">
     <path d="M 134.988665 224.023836 
L 132.741616 226.009203 
" style="fill: none; stroke: #000000; stroke-width: 0.8; stroke-linecap: square"/>
    </g>
    <g id="text_2">
     <!-- −2500 -->
     <g transform="translate(99.680141 252.768985) scale(0.16 -0.16)">
      <defs>
       <path id="DejaVuSans-32" d="M 1228 531 
L 3431 531 
L 3431 0 
L 469 0 
L 469 531 
Q 828 903 1448 1529 
Q 2069 2156 2228 2338 
Q 2531 2678 2651 2914 
Q 2772 3150 2772 3378 
Q 2772 3750 2511 3984 
Q 2250 4219 1831 4219 
Q 1534 4219 1204 4116 
Q 875 4013 500 3803 
L 500 4441 
Q 881 4594 1212 4672 
Q 1544 4750 1819 4750 
Q 2544 4750 2975 4387 
Q 3406 4025 3406 3419 
Q 3406 3131 3298 2873 
Q 3191 2616 2906 2266 
Q 2828 2175 2409 1742 
Q 1991 1309 1228 531 
z
" transform="scale(0.015625)"/>
      </defs>
      <use xlink:href="#DejaVuSans-2212"/>
      <use xlink:href="#DejaVuSans-32" transform="translate(83.789062 0)"/>
      <use xlink:href="#DejaVuSans-35" transform="translate(147.412109 0)"/>
      <use xlink:href="#DejaVuSans-30" transform="translate(211.035156 0)"/>
      <use xlink:href="#DejaVuSans-30" transform="translate(274.658203 0)"/>
     </g>
    </g>
   </g>
   <g id="xtick_3">
    <g id="line2d_4">
     <path d="M 167.566232 234.653155 
L 165.364531 236.684968 
" style="fill: none; stroke: #000000; stroke-width: 0.8; stroke-linecap: square"/>
    </g>
    <g id="text_3">
     <!-- 0 -->
     <g transform="translate(154.282904 263.640047) scale(0.16 -0.16)">
      <use xlink:href="#DejaVuSans-30"/>
     </g>
    </g>
   </g>
   <g id="xtick_4">
    <g id="line2d_5">
     <path d="M 200.909578 245.53233 
L 198.755995 247.612238 
" style="fill: none; stroke: #000000; stroke-width: 0.8; stroke-linecap: square"/>
    </g>
    <g id="text_4">
     <!-- 2500 -->
     <g transform="translate(172.412423 274.767819) scale(0.16 -0.16)">
      <use xlink:href="#DejaVuSans-32"/>
      <use xlink:href="#DejaVuSans-35" transform="translate(63.623047 0)"/>
      <use xlink:href="#DejaVuSans-30" transform="translate(127.246094 0)"/>
      <use xlink:href="#DejaVuSans-30" transform="translate(190.869141 0)"/>
     </g>
    </g>
   </g>
   <g id="xtick_5">
    <g id="line2d_6">
     <path d="M 235.046026 256.670276 
L 232.94349 258.800007 
" style="fill: none; stroke: #000000; stroke-width: 0.8; stroke-linecap: square"/>
    </g>
    <g id="text_5">
     <!-- 5000 -->
     <g transform="translate(206.610066 286.161505) scale(0.16 -0.16)">
      <use xlink:href="#DejaVuSans-35"/>
      <use xlink:href="#DejaVuSans-30" transform="translate(63.623047 0)"/>
      <use xlink:href="#DejaVuSans-30" transform="translate(127.246094 0)"/>
      <use xlink:href="#DejaVuSans-30" transform="translate(190.869141 0)"/>
     </g>
    </g>
   </g>
  </g>
  <g id="axis3d_2">
   <g id="line2d_7">
    <path d="M 323.055866 178.804393 
L 243.558792 260.387947 
" style="fill: none; stroke: #000000; stroke-width: 0.8; stroke-linecap: square"/>
   </g>
   <g id="xtick_6">
    <g id="line2d_8">
     <path d="M 256.06169 245.875676 
L 259.81068 247.076266 
" style="fill: none; stroke: #000000; stroke-width: 0.8; stroke-linecap: square"/>
    </g>
    <g id="text_6">
     <!-- −5000 -->
     <g transform="translate(243.016659 271.731041) scale(0.16 -0.16)">
      <use xlink:href="#DejaVuSans-2212"/>
      <use xlink:href="#DejaVuSans-35" transform="translate(83.789062 0)"/>
      <use xlink:href="#DejaVuSans-30" transform="translate(147.412109 0)"/>
      <use xlink:href="#DejaVuSans-30" transform="translate(211.035156 0)"/>
      <use xlink:href="#DejaVuSans-30" transform="translate(274.658203 0)"/>
     </g>
    </g>
   </g>
   <g id="xtick_7">
    <g id="line2d_9">
     <path d="M 283.871935 217.386648 
L 287.541333 218.515286 
" style="fill: none; stroke: #000000; stroke-width: 0.8; stroke-linecap: square"/>
    </g>
    <g id="text_7">
     <!-- 0 -->
     <g transform="translate(292.401435 242.796892) scale(0.16 -0.16)">
      <use xlink:href="#DejaVuSans-30"/>
     </g>
    </g>
   </g>
   <g id="xtick_8">
    <g id="line2d_10">
     <path d="M 310.040728 190.579136 
L 313.63326 191.642102 
" style="fill: none; stroke: #000000; stroke-width: 0.8; stroke-linecap: square"/>
    </g>
    <g id="text_8">
     <!-- 5000 -->
     <g transform="translate(302.923019 215.572171) scale(0.16 -0.16)">
      <use xlink:href="#DejaVuSans-35"/>
      <use xlink:href="#DejaVuSans-30" transform="translate(63.623047 0)"/>
      <use xlink:href="#DejaVuSans-30" transform="translate(127.246094 0)"/>
      <use xlink:href="#DejaVuSans-30" transform="translate(190.869141 0)"/>
     </g>
    </g>
   </g>
  </g>
  <g id="axis3d_3">
   <g id="line2d_11">
    <path d="M 323.055866 178.804393 
L 328.093614 68.792866 
" style="fill: none; stroke: #000000; stroke-width: 0.8; stroke-linecap: square"/>
   </g>
   <g id="xtick_9">
    <g id="line2d_12">
     <path d="M 322.104266 173.313068 
L 325.669161 174.343028 
" style="fill: none; stroke: #000000; stroke-width: 0.8; stroke-linecap: square"/>
    </g>
    <g id="text_9">
     <!-- −5000 -->
     <g transform="translate(314.514004 183.218616) scale(0.16 -0.16)">
      <use xlink:href="#DejaVuSans-2212"/>
      <use xlink:href="#DejaVuSans-35" transform="translate(83.789062 0)"/>
      <use xlink:href="#DejaVuSans-30" transform="translate(147.412109 0)"/>
      <use xlink:href="#DejaVuSans-30" transform="translate(211.035156 0)"/>
      <use xlink:href="#DejaVuSans-30" transform="translate(274.658203 0)"/>
     </g>
    </g>
   </g>
   <g id="xtick_10">
    <g id="line2d_13">
     <path d="M 323.194976 149.237759 
L 326.796097 150.248835 
" style="fill: none; stroke: #000000; stroke-width: 0.8; stroke-linecap: square"/>
    </g>
    <g id="text_10">
     <!-- −2500 -->
     <g transform="translate(315.791829 159.184678) scale(0.16 -0.16)">
      <use xlink:href="#DejaVuSans-2212"/>
      <use xlink:href="#DejaVuSans-32" transform="translate(83.789062 0)"/>
      <use xlink:href="#DejaVuSans-35" transform="translate(147.412109 0)"/>
      <use xlink:href="#DejaVuSans-30" transform="translate(211.035156 0)"/>
      <use xlink:href="#DejaVuSans-30" transform="translate(274.658203 0)"/>
     </g>
    </g>
   </g>
   <g id="xtick_11">
    <g id="line2d_14">
     <path d="M 324.307235 124.686798 
L 327.945324 125.678039 
" style="fill: none; stroke: #000000; stroke-width: 0.8; stroke-linecap: square"/>
    </g>
    <g id="text_11">
     <!-- 0 -->
     <g transform="translate(339.068582 134.677166) scale(0.16 -0.16)">
      <use xlink:href="#DejaVuSans-30"/>
     </g>
    </g>
   </g>
   <g id="xtick_12">
    <g id="line2d_15">
     <path d="M 325.441688 99.645949 
L 329.117511 100.616357 
" style="fill: none; stroke: #000000; stroke-width: 0.8; stroke-linecap: square"/>
    </g>
    <g id="text_12">
     <!-- 2500 -->
     <g transform="translate(325.127516 109.681946) scale(0.16 -0.16)">
      <use xlink:href="#DejaVuSans-32"/>
      <use xlink:href="#DejaVuSans-35" transform="translate(63.623047 0)"/>
      <use xlink:href="#DejaVuSans-30" transform="translate(127.246094 0)"/>
      <use xlink:href="#DejaVuSans-30" transform="translate(190.869141 0)"/>
     </g>
    </g>
   </g>
   <g id="xtick_13">
    <g id="line2d_16">
     <path d="M 326.599006 74.100401 
L 330.313353 75.04893 
" style="fill: none; stroke: #000000; stroke-width: 0.8; stroke-linecap: square"/>
    </g>
    <g id="text_13">
     <!-- 5000 -->
     <g transform="translate(326.483162 84.184313) scale(0.16 -0.16)">
      <use xlink:href="#DejaVuSans-35"/>
      <use xlink:href="#DejaVuSans-30" transform="translate(63.623047 0)"/>
      <use xlink:href="#DejaVuSans-30" transform="translate(127.246094 0)"/>
      <use xlink:href="#DejaVuSans-30" transform="translate(190.869141 0)"/>
     </g>
    </g>
   </g>
  </g>
  <g id="axes_1">
   <g id="line2d_17">
    <path d="M 202.069998 99.964797 
L 196.288057 94.592225 
L 190.622772 89.648013 
L 185.726486 85.651112 
L 180.99885 82.061457 
L 176.47524 78.908364 
L 172.711772 76.528864 
L 169.153862 74.520956 
L 165.823643 72.899641 
L 163.166632 71.827755 
L 160.705602 71.056963 
L 158.452983 70.593469 
L 156.743548 70.445654 
L 155.193541 70.517069 
L 153.809083 70.809391 
L 152.5959 71.32366 
L 151.752251 71.895151 
L 151.024127 72.608814 
L 150.413837 73.464233 
L 149.819852 74.731731 
L 149.416858 76.217511 
L 149.207899 77.918737 
L 149.195418 79.831793 
L 149.381225 81.952267 
L 149.867508 84.763222 
L 150.641623 87.854744 
L 151.70276 91.214589 
L 153.300292 95.45488 
L 155.278763 100.016447 
L 157.628716 104.871402 
L 160.337663 109.989039 
L 163.853148 116.116531 
L 167.789247 122.489895 
L 172.113139 129.051971 
L 176.78736 135.742663 
L 181.770178 142.49965 
L 187.016044 149.259167 
L 192.476135 155.956841 
L 198.098977 162.528558 
L 203.83112 168.911346 
L 209.61786 175.044237 
L 215.403991 180.869109 
L 221.13456 186.331457 
L 226.755606 191.381106 
L 232.214878 195.972816 
L 237.462487 200.06679 
L 241.843546 203.213874 
L 245.997312 205.934869 
L 249.896795 208.214523 
L 253.018153 209.808387 
L 255.920694 211.064335 
L 258.591942 211.979211 
L 261.020911 212.551773 
L 262.853096 212.767808 
L 264.505742 212.747828 
L 265.974894 212.493968 
L 267.257315 212.009158 
L 268.147083 211.457474 
L 268.914738 210.762541 
L 269.559584 209.926852 
L 270.192323 208.688531 
L 270.632288 207.240544 
L 270.87986 205.589396 
L 270.936022 203.742115 
L 270.752989 201.277089 
L 270.300334 198.554278 
L 269.582867 195.588301 
L 268.418938 191.841151 
L 266.913364 187.809321 
L 265.078585 183.519177 
L 262.596483 178.334711 
L 259.725465 172.889849 
L 256.490425 167.226886 
L 252.918062 161.388643 
L 248.531236 154.664801 
L 243.795747 147.835229 
L 238.755962 140.961289 
L 233.457928 134.103891 
L 227.949127 127.323231 
L 222.278249 120.678554 
L 216.49498 114.227916 
L 210.649802 108.02796 
L 204.793789 102.13368 
L 198.978406 96.598169 
L 193.255288 91.472352 
L 188.287227 87.299252 
L 183.468838 83.520395 
L 178.835777 80.166049 
L 174.423161 77.264334 
L 170.770007 75.116929 
L 167.334413 73.351418 
L 164.138143 71.981728 
L 161.604871 71.131984 
L 159.275479 70.588466 
L 157.49878 70.373363 
L 155.878682 70.377133 
L 154.42147 70.601645 
L 153.13305 71.048136 
L 152.018918 71.717182 
L 151.256509 72.412613 
L 150.611254 73.250046 
L 149.972704 74.495467 
L 149.524312 75.959693 
L 149.269255 77.639965 
L 149.210118 79.532745 
L 149.348861 81.6337 
L 149.778343 84.422347 
L 150.495564 87.492906 
L 151.499997 90.833271 
L 153.032007 95.052889 
L 154.946091 99.596192 
L 157.233271 104.43549 
L 159.881545 109.540259 
L 163.330879 115.656675 
L 167.204902 122.023038 
L 171.471471 128.582362 
L 176.093763 135.274673 
L 181.030633 142.037721 
L 186.237058 148.807754 
L 191.664672 155.52035 
L 197.262374 162.111286 
L 202.976998 168.517415 
L 208.75403 174.677537 
L 214.538358 180.533238 
L 220.275018 186.029675 
L 225.909947 191.116282 
L 231.39069 195.747396 
L 236.020347 199.394193 
L 240.46167 202.638027 
L 244.684801 205.459137 
L 248.662081 207.841421 
L 251.85629 209.524607 
L 254.836863 210.870568 
L 257.590823 211.875628 
L 260.106667 212.538044 
L 262.014049 212.828354 
L 263.744109 212.881814 
L 265.292586 212.700305 
L 266.655937 212.28651 
L 267.6114 211.790524 
L 268.445429 211.150175 
L 269.157177 210.367854 
L 269.746073 209.446219 
L 270.308994 208.102734 
L 270.679485 206.552372 
L 270.85814 204.801908 
L 270.846146 202.85862 
L 270.582598 200.283076 
L 270.051111 197.455207 
L 269.256779 194.389954 
L 268.006013 190.534672 
L 266.417023 186.403372 
L 264.502592 182.022757 
L 261.934458 176.746275 
L 258.983129 171.221863 
L 255.673851 165.492079 
L 252.033629 159.59994 
L 247.578418 152.831074 
L 242.783281 145.973098 
L 237.692862 139.087394 
L 232.353443 132.234815 
L 226.812708 125.47543 
L 221.119515 118.868286 
L 215.323692 112.471177 
L 209.475832 106.340412 
L 203.627094 100.530577 
L 197.828995 95.094278 
L 192.133188 90.081869 
L 187.197803 86.020955 
L 182.419946 82.364439 
L 177.835189 79.141982 
L 174.009457 76.700025 
L 170.381333 74.628284 
L 166.973208 72.942034 
L 164.243524 71.81383 
L 161.704607 70.986311 
L 159.369127 70.465883 
L 157.587036 70.270616 
L 155.961275 70.294704 
L 154.498148 70.539956 
L 153.203578 71.007548 
L 152.293003 71.542073 
L 151.496462 72.219183 
L 150.816382 73.038538 
L 150.254988 73.999496 
L 149.723186 75.39836 
L 149.383381 77.014458 
L 149.238419 78.844488 
L 149.290531 80.884356 
L 149.615394 83.602235 
L 150.227759 86.60519 
L 151.127633 89.881533 
L 152.313504 93.417895 
L 154.054301 97.852146 
L 156.172485 102.593136 
L 158.657404 107.611325 
L 161.495372 112.874448 
L 165.149516 119.144638 
L 169.213253 125.633725 
L 173.652137 132.282927 
L 178.427211 139.030855 
L 183.495407 145.814265 
L 188.810034 152.568866 
L 194.321357 159.230176 
L 199.977228 165.734395 
L 205.723791 172.019289 
L 211.506207 178.025038 
L 217.269411 183.695053 
L 222.958857 188.97672 
L 228.521252 193.822063 
L 233.905244 198.188306 
L 238.431472 201.586432 
L 242.753001 204.568126 
L 246.841208 207.115907 
L 250.669786 209.215989 
L 253.726652 210.651986 
L 256.561752 211.747395 
L 259.163071 212.499963 
L 261.144615 212.864898 
L 262.95118 212.992235 
L 264.578195 212.883592 
L 266.021811 212.541406 
L 267.042526 212.101643 
L 267.942563 211.516449 
L 268.720924 210.788105 
L 269.376888 209.91917 
L 270.02406 208.639615 
L 270.479001 207.150863 
L 270.742035 205.459528 
L 270.814084 203.572746 
L 270.650589 201.061364 
L 270.217886 198.293494 
L 269.520671 195.283908 
L 268.380602 191.487907 
L 266.898968 187.409612 
L 265.088032 183.075586 
L 262.632837 177.844363 
L 259.788124 172.356603 
L 256.578547 166.654824 
L 253.030578 160.782049 
L 248.669657 154.024706 
L 243.958183 147.16751 
L 238.94028 140.272021 
L 233.661781 133.399313 
L 228.169992 126.609718 
L 222.513456 119.962581 
L 216.741748 113.516027 
L 210.905271 107.32673 
L 205.055052 101.449676 
L 199.242543 95.937909 
L 193.519396 90.84226 
L 188.548907 86.701252 
L 183.725881 82.959313 
L 179.08604 79.64654 
L 175.204135 77.121913 
L 171.512575 74.964458 
L 168.033963 73.189819 
L 165.238439 71.984021 
L 162.628868 71.077498 
L 160.218127 70.476936 
L 158.369964 70.214241 
L 156.67524 70.170503 
L 155.140418 70.34772 
L 153.771595 70.747262 
L 152.574473 71.369845 
L 151.743955 72.02855 
L 151.029194 72.829733 
L 150.432474 73.772794 
L 149.85571 75.14973 
L 149.470169 76.744464 
L 149.278837 78.553775 
L 149.284089 80.573648 
L 149.487665 82.799267 
L 149.995206 85.733619 
L 150.790371 88.944836 
L 151.872196 92.419966 
L 153.493185 96.788244 
L 155.494128 101.469744 
L 157.865285 106.435523 
L 160.59389 111.653871 
L 163.664151 117.090509 
L 167.567177 123.524054 
L 171.859254 130.136975 
L 176.50315 136.868582 
L 181.45736 143.656081 
L 186.676566 150.435365 
L 192.112177 157.141855 
L 197.712944 163.711377 
L 203.425642 170.081037 
L 209.19578 176.190087 
L 214.968356 181.980757 
L 220.688602 187.39902 
L 226.302726 192.395289 
L 231.758612 196.925009 
L 236.363507 200.474973 
L 240.77757 203.615315 
L 244.971257 206.327183 
L 248.917246 208.595406 
L 252.083421 210.177702 
L 255.035068 211.420517 
L 257.759425 212.320762 
L 259.847905 212.808379 
L 261.764932 213.057569 
L 263.505483 213.069515 
L 265.06526 212.846238 
L 266.44068 212.390559 
L 267.406322 211.861073 
L 268.25097 211.187301 
L 268.97375 210.371698 
L 269.574066 209.416986 
L 270.151764 208.032533 
L 270.537534 206.44173 
L 270.731913 204.651458 
L 270.736025 202.6691 
L 270.492224 200.047785 
L 269.980833 197.175506 
L 269.206837 194.067358 
L 267.979951 190.164132 
L 266.414835 185.987347 
L 264.524098 181.563897 
L 261.982605 176.241931 
L 259.057214 170.675965 
L 255.772935 164.908774 
L 252.156555 158.983569 
L 247.726528 152.182911 
L 242.954589 145.299076 
L 237.885148 138.393633 
L 232.564288 131.52759 
L 227.039526 124.761142 
L 221.359585 118.153428 
L 215.574194 111.762299 
L 209.733879 105.644084 
L 203.889764 99.85335 
L 198.093365 94.442641 
L 193.022847 89.992831 
L 188.067122 85.916595 
L 183.262251 82.245692 
L 178.643939 79.009869 
L 174.783611 76.557111 
L 171.116151 74.475451 
L 167.664109 72.780201 
L 164.893279 71.645042 
L 162.310122 70.811289 
L 159.927455 70.285363 
L 158.103906 70.086086 
L 156.434854 70.106694 
L 154.92671 70.349 
L 153.585512 70.814185 
L 152.416898 71.502766 
L 151.609776 72.214385 
L 150.918891 73.068468 
L 150.222141 74.335297 
L 149.714409 75.821521 
L 149.399049 77.524308 
L 149.278825 79.44004 
L 149.355881 81.564303 
L 149.710818 84.381276 
L 150.353247 87.480409 
L 151.28299 90.849451 
L 152.498347 94.474468 
L 154.272789 99.0063 
L 156.423497 103.837758 
L 158.939485 108.938483 
L 161.806738 114.27544 
L 165.491746 120.618453 
L 169.583123 127.167142 
L 174.04599 133.861935 
L 178.841001 140.640822 
L 183.924756 147.44012 
L 189.250301 154.195295 
L 194.767709 160.841821 
L 200.424724 167.316066 
L 206.167467 173.556158 
L 211.941164 179.50284 
L 217.690895 185.100266 
L 223.362344 190.296732 
L 228.902517 195.045314 
L 233.602339 198.800077 
L 238.130048 202.155725 
L 242.454949 205.091527 
L 246.548428 207.5904 
L 249.852916 209.37429 
L 252.952869 210.821029 
L 255.83455 211.92635 
L 258.485664 212.687939 
L 260.510947 213.059671 
L 262.363104 213.193118 
L 264.037386 213.089875 
L 265.52976 212.752357 
L 266.590431 212.315789 
L 267.531166 211.733302 
L 268.350872 211.007172 
L 269.048731 210.139953 
L 269.748905 208.861839 
L 270.257379 207.373742 
L 270.574295 205.682281 
L 270.700398 203.794593 
L 270.637009 201.718299 
L 270.313492 198.989162 
L 269.724071 196.014731 
L 268.874011 192.810404 
L 267.561209 188.802881 
L 265.913574 184.530667 
L 263.944051 180.020972 
L 261.317471 174.612018 
L 258.312656 168.971706 
L 254.954967 163.143048 
L 251.271495 157.169421 
L 246.773873 150.330012 
L 241.943 143.424136 
L 236.823573 136.513349 
L 231.461917 129.658574 
L 225.905761 122.919848 
L 220.204009 116.356083 
L 214.40654 110.024836 
L 208.564006 103.98207 
L 202.727627 98.281909 
L 196.948978 92.976372 
L 191.902669 88.63181 
L 186.979078 84.671377 
L 182.214224 81.126272 
L 177.643735 78.025607 
L 173.831564 75.698235 
L 170.218039 73.748059 
L 166.825571 72.189816 
L 164.110163 71.176009 
L 161.586313 70.466777 
L 159.266688 70.068083 
L 157.4984 69.976554 
L 155.886967 70.106157 
L 154.438675 70.458395 
L 153.159423 71.034123 
L 152.261431 71.655762 
L 151.477747 72.420332 
L 150.810778 73.327308 
L 150.144529 74.659999 
L 149.667891 76.211592 
L 149.38412 77.979021 
L 149.295879 79.95843 
L 149.405206 82.145165 
L 149.799083 85.035169 
L 150.480495 88.204823 
L 151.449044 91.641451 
L 152.702804 95.330702 
L 154.521231 99.932688 
L 156.714679 104.828545 
L 159.271781 109.987314 
L 162.178138 115.375402 
L 165.416353 120.956808 
L 169.497328 127.523278 
L 173.950307 134.232602 
L 178.736019 141.022604 
L 183.811134 147.829472 
L 189.128771 154.588593 
L 194.639073 161.235407 
L 200.289856 167.706292 
L 206.027306 173.93944 
L 211.796711 179.875697 
L 217.543213 185.459364 
L 223.212545 190.638922 
L 228.751759 195.367667 
L 233.451717 199.102865 
L 237.980492 202.437076 
L 242.307397 205.349761 
L 246.403818 207.824036 
L 249.711572 209.585818 
L 252.815467 211.009642 
L 255.701753 212.091373 
L 258.358116 212.828824 
L 260.38825 213.180114 
L 262.245673 213.292902 
L 263.925619 213.168852 
L 265.424037 212.810449 
L 266.4898 212.357163 
L 267.435845 211.757983 
L 268.261063 211.015219 
L 268.964626 210.131456 
L 269.672177 208.832836 
L 270.188275 207.32448 
L 270.513034 205.613059 
L 270.647168 203.705764 
L 270.591968 201.610267 
L 270.27844 198.858683 
L 269.699135 195.862529 
L 268.85926 192.637278 
L 267.558355 188.606439 
L 265.92255 184.312186 
L 263.964701 179.781818 
L 261.351167 174.351019 
L 258.358968 168.690874 
L 255.013351 162.844494 
L 251.341302 156.855352 
L 247.37135 150.767061 
L 242.586342 143.853464 
L 237.506564 136.93122 
L 232.17808 130.061408 
L 226.648396 123.304231 
L 220.966237 116.718782 
L 215.181341 110.3628 
L 209.344258 104.292445 
L 203.506146 98.56204 
L 198.35752 93.796012 
L 193.285144 89.375004 
L 188.325318 85.332472 
L 183.514168 81.700028 
L 178.887475 78.507234 
L 175.018163 76.095702 
L 171.340251 74.058424 
L 167.876368 72.410516 
L 165.094347 71.318122 
L 162.499096 70.528991 
L 160.103491 70.049375 
L 158.268562 69.889849 
L 156.587622 69.951141 
L 155.067122 70.234948 
L 153.713139 70.742323 
L 152.753673 71.309475 
L 151.907123 72.019852 
L 151.176006 72.87304 
L 150.562639 73.868327 
L 149.9647 75.310684 
L 149.557634 76.97078 
L 149.344486 78.845157 
L 149.32769 80.929562 
L 149.509045 83.218938 
L 149.989773 86.228426 
L 150.758062 89.51288 
L 151.813042 93.05892 
L 153.152298 96.851503 
L 155.068618 101.565458 
L 157.357192 106.563054 
L 160.005835 111.812359 
L 162.999336 117.278876 
L 166.319502 122.925797 
L 170.486792 129.550422 
L 175.017225 136.29925 
L 179.870541 143.109465 
L 185.002547 149.916865 
L 190.365628 156.656699 
L 195.909352 163.264544 
L 201.581128 169.677176 
L 207.326911 175.833447 
L 213.091943 181.675115 
L 218.821497 187.14762 
L 224.461621 192.200788 
L 229.282067 196.242671 
L 233.960009 199.90199 
L 238.463192 203.15534 
L 242.761218 205.982892 
L 246.825788 208.368491 
L 250.104125 210.052004 
L 253.176881 211.395961 
L 256.030527 212.396683 
L 258.652973 213.052436 
L 260.654027 213.335434 
L 262.481766 213.379999 
L 264.131547 213.188034 
L 265.599442 212.762252 
L 266.640609 212.255594 
L 267.561963 211.603633 
L 268.362453 210.80878 
L 269.041304 209.873718 
L 269.718069 208.512228 
L 270.203589 206.942556 
L 270.49807 205.171535 
L 270.602311 203.206507 
L 270.517687 201.055281 
L 270.169574 198.23965 
L 269.556586 195.182724 
L 268.684039 191.900158 
L 267.346426 187.807035 
L 265.675561 183.455648 
L 263.684425 178.873489 
L 261.035154 173.390251 
L 258.009807 167.685058 
L 254.63375 161.80118 
L 250.934067 155.782208 
L 246.939374 149.671841 
L 242.130084 142.742741 
L 237.029871 135.814904 
L 231.684883 128.949392 
L 226.142698 122.206355 
L 220.452109 115.644781 
L 214.662915 109.322269 
L 208.825724 103.294786 
L 202.991741 97.616417 
L 197.850377 92.904104 
L 192.788665 88.543579 
L 187.842919 84.568018 
L 183.049265 81.00871 
L 179.007712 78.258778 
L 175.133627 75.868036 
L 171.450217 73.853111 
L 167.980155 72.22902 
L 165.192327 71.158121 
L 162.590829 70.391398 
L 160.188568 69.93502 
L 158.347801 69.795427 
L 156.66078 69.877107 
L 155.133974 70.181698 
L 153.77348 70.71019 
L 152.80867 71.294432 
L 151.956669 72.022034 
L 151.220004 72.892547 
L 150.601 73.905222 
L 149.995907 75.369342 
L 149.581587 77.051163 
L 149.361104 78.947149 
L 149.336913 81.052966 
L 149.510832 83.363476 
L 149.982611 86.397843 
L 150.741953 89.706516 
L 151.788024 93.275975 
L 153.118439 97.091034 
L 155.024574 101.829837 
L 157.303151 106.850603 
L 159.942035 112.121197 
L 162.926063 117.606936 
L 166.237088 123.270842 
L 170.394403 129.911944 
L 174.91543 136.673936 
L 179.75998 143.493849 
L 184.883927 150.307374 
L 190.239726 157.049697 
L 195.777013 163.656377 
L 201.44326 170.064225 
L 207.184484 176.21217 
L 212.945987 182.04209 
L 218.673093 187.49959 
L 224.311894 192.534692 
L 229.132137 196.558438 
L 233.810784 200.197626 
L 238.315595 203.429035 
L 242.616175 206.23303 
L 246.684224 208.593657 
L 249.966272 210.254795 
L 253.043398 211.575617 
L 255.902059 212.552578 
L 258.108611 213.102823 
L 260.148783 213.413199 
L 262.017057 213.484662 
L 263.708628 213.319018 
L 265.219406 212.918889 
L 266.295557 212.432216 
L 267.252406 211.799717 
L 268.088822 211.023766 
L 268.803948 210.10701 
L 269.526423 208.767513 
L 270.057917 207.218792 
L 270.398483 205.467625 
L 270.548775 203.521309 
L 270.510021 201.387612 
L 270.216522 198.591403 
L 269.657459 195.552095 
L 268.837929 192.285302 
L 267.560741 188.208213 
L 265.948467 183.870283 
L 264.013793 179.298992 
L 261.77081 174.52246 
L 258.849647 168.848971 
L 255.570696 162.988052 
L 251.960528 156.983327 
L 248.047296 150.878569 
L 243.319513 143.945588 
L 238.289584 137.003271 
L 233.003215 130.112927 
L 227.507611 123.334985 
L 221.851258 116.728751 
L 216.083709 110.352178 
L 210.255385 104.26162 
L 204.417371 98.511588 
L 199.261548 93.728736 
L 194.175142 89.291604 
L 189.194517 85.233753 
L 184.355895 81.586887 
L 180.266835 78.756373 
L 176.337765 76.281686 
L 172.592063 74.179806 
L 169.052606 72.466123 
L 166.199829 71.316639 
L 163.528523 70.469963 
L 161.051799 69.93255 
L 159.145587 69.724818 
L 157.390193 69.738003 
L 155.792244 69.973932 
L 154.358008 70.433796 
L 153.093365 71.118121 
L 152.20744 71.827108 
L 151.436141 72.679249 
L 150.781857 73.673835 
L 150.131851 75.115801 
L 149.671839 76.776048 
L 149.405022 78.65112 
L 149.334001 80.736765 
L 149.460741 83.027924 
L 149.875668 86.040269 
L 150.578159 89.328361 
L 151.567668 92.878817 
L 152.842103 96.676587 
L 154.684067 101.397559 
L 156.900155 106.403198 
L 159.478716 111.66155 
L 162.405066 117.138096 
L 165.661528 122.795995 
L 169.76088 129.434281 
L 174.229246 136.197894 
L 179.027031 143.023934 
L 184.110642 149.848103 
L 189.432997 156.60554 
L 194.944115 163.23169 
L 200.591763 169.663189 
L 206.322162 175.83873 
L 212.080717 181.699897 
L 217.81276 187.191951 
L 223.464292 192.264523 
L 228.301925 196.323111 
L 233.003607 199.99874 
L 237.536867 203.26787 
L 241.871037 206.110541 
L 245.9775 208.51047 
L 249.296049 210.205545 
L 252.412728 211.560322 
L 255.313737 212.571054 
L 257.557529 213.149166 
L 259.636545 213.487044 
L 261.545109 213.585542 
L 263.278254 213.446369 
L 264.831728 213.072055 
L 265.942734 212.605504 
L 266.93497 211.992612 
L 267.807222 211.235714 
L 268.55855 210.337419 
L 269.188287 209.300604 
L 269.803883 207.814573 
L 270.228661 206.123619 
L 270.463008 204.234888 
L 270.507895 202.156014 
L 270.313865 199.42178 
L 269.852905 196.440115 
L 269.129721 193.226481 
L 268.150001 189.796979 
L 266.691626 185.545312 
L 264.905071 181.049768 
L 262.803753 176.338297 
L 260.03581 170.725933 
L 256.90002 164.911942 
L 253.422202 158.939933 
L 249.629841 152.853731 
L 245.551902 146.697179 
L 240.660618 139.741345 
L 235.491127 132.813446 
L 230.089916 125.974394 
L 224.504867 119.284073 
L 218.785036 112.801095 
L 212.980457 106.582565 
L 207.141934 100.683836 
L 201.965156 95.752171 
L 196.838455 91.151327 
L 191.798232 86.915668 
L 186.88083 83.077783 
L 182.12238 79.668288 
L 178.117242 77.0588 
L 174.284769 74.816636 
L 170.648109 72.957793 
L 167.703957 71.680494 
L 164.934089 70.703332 
L 162.351891 70.033225 
L 160.352727 69.713584 
L 158.499997 69.613965 
L 156.800545 69.736509 
L 155.260879 70.082731 
L 153.887136 70.653497 
L 152.911474 71.27193 
L 152.048419 72.033979 
L 151.300517 72.939121 
L 150.531132 74.27049 
L 149.949443 75.821843 
L 149.559019 77.590118 
L 149.362843 79.571461 
L 149.363288 81.761219 
L 149.562079 84.153928 
L 150.06388 87.284175 
L 150.853265 90.685185 
L 151.929211 94.342874 
L 153.289136 98.241508 
L 155.228966 103.071212 
L 157.54013 108.174988 
L 160.210155 113.519932 
L 163.223546 119.070651 
L 166.561831 124.789528 
L 170.747326 131.480496 
L 175.292947 138.277889 
L 180.158127 145.118243 
L 185.298413 151.936942 
L 190.666006 158.669069 
L 196.210362 165.250282 
L 201.878855 171.617694 
L 207.617489 177.710734 
L 213.371633 183.471969 
L 219.086767 188.84786 
L 224.013273 193.197045 
L 228.83377 197.184048 
L 233.514481 200.782555 
L 238.023185 203.969715 
L 242.329493 206.726282 
L 245.838005 208.73445 
L 249.160481 210.407167 
L 252.281734 211.738831 
L 255.187949 212.725829 
L 257.436546 213.283778 
L 259.520776 213.601224 
L 261.434946 213.67909 
L 263.17407 213.519158 
L 264.733876 213.124026 
L 265.850187 212.640823 
L 266.847927 212.011316 
L 267.725869 211.237872 
L 268.483061 210.323132 
L 269.258732 208.985462 
L 269.843933 207.437791 
L 270.238537 205.6869 
L 270.443017 203.740087 
L 270.458428 201.605126 
L 270.229652 198.806407 
L 269.734745 195.763525 
L 268.978524 192.492125 
L 267.966782 189.008474 
L 266.472453 184.698397 
L 264.65158 180.149765 
L 262.517697 175.390697 
L 259.714813 169.730843 
L 256.546636 163.876892 
L 253.0391 157.872585 
L 249.219788 151.761841 
L 245.117753 145.588566 
L 240.202871 138.623304 
L 235.013592 131.695915 
L 229.596494 124.867267 
L 223.999541 118.197159 
L 218.271867 111.744074 
L 212.463578 105.564943 
L 207.274086 100.346981 
L 202.097189 95.42643 
L 196.969215 90.839209 
L 191.926592 86.619632 
L 187.005695 82.800218 
L 182.242699 79.411495 
L 178.232758 76.82199 
L 174.394752 74.60141 
L 170.75187 72.765656 
L 167.801869 71.509265 
L 165.02571 70.553964 
L 162.436808 69.906593 
L 160.431767 69.6065 
L 158.572914 69.526921 
L 156.867116 69.669938 
L 155.320898 70.037006 
L 153.94042 70.628926 
L 152.959252 71.264459 
L 152.090596 72.043727 
L 151.33701 72.966172 
L 150.560419 74.319229 
L 149.971433 75.892266 
L 149.573638 77.682141 
L 149.370041 79.684925 
L 149.363033 81.895884 
L 149.55436 84.309471 
L 150.047217 87.464231 
L 150.827705 90.889031 
L 151.894834 94.569646 
L 153.246054 98.490204 
L 155.17591 103.344039 
L 157.477345 108.470193 
L 160.137935 113.835565 
L 163.142229 119.404583 
L 166.471804 125.139467 
L 170.105352 131.000531 
L 174.599217 137.800431 
L 179.418619 144.647824 
L 184.519632 151.478093 
L 189.854905 158.226258 
L 195.374264 164.827853 
L 201.025363 171.219802 
L 206.754393 177.341286 
L 212.506815 183.134567 
L 218.228097 188.54575 
L 223.16636 192.928166 
L 228.00443 196.95029 
L 232.708349 200.585498 
L 237.245665 203.81062 
L 241.585713 206.606085 
L 245.126986 208.648085 
L 248.48554 210.354873 
L 251.645951 211.720641 
L 254.594155 212.741577 
L 256.879717 213.327543 
L 259.002542 213.672648 
L 260.956776 213.777717 
L 262.737277 213.644431 
L 264.339605 213.275296 
L 265.490653 212.812366 
L 266.523677 212.202619 
L 267.437368 211.448384 
L 268.230693 210.552265 
L 268.902888 209.517133 
L 269.57206 208.032511 
L 270.050807 206.342192 
L 270.339332 204.453322 
L 270.438432 202.373542 
L 270.349464 200.110939 
L 269.997163 197.166477 
L 269.381058 193.986372 
L 268.506408 190.58666 
L 267.167531 186.364958 
L 265.496569 181.894181 
L 263.506372 177.202265 
L 261.211164 172.317727 
L 258.234502 166.536673 
L 254.90465 160.585508 
L 251.248291 154.508173 
L 247.293674 148.348683 
L 243.070447 142.150936 
L 238.036744 135.187031 
L 232.747833 128.291324 
L 227.250868 121.52429 
L 221.594309 114.945207 
L 215.827718 108.611914 
L 210.650258 103.234107 
L 205.461617 98.133075 
L 200.298011 93.345631 
L 195.195842 88.90707 
L 190.191565 84.850994 
L 185.321539 81.209122 
L 181.198782 78.385614 
L 177.23037 75.920366 
L 173.439857 73.830316 
L 169.850325 72.130796 
L 166.950616 70.995251 
L 164.228845 70.164115 
L 161.698301 69.643776 
L 159.744818 69.45139 
L 157.940077 69.480885 
L 156.290834 69.734036 
L 154.803492 70.211977 
L 153.484073 70.915175 
L 152.553225 71.639791 
L 151.736109 72.507995 
L 151.035195 73.519043 
L 150.325892 74.98209 
L 149.80562 76.663911 
L 149.477759 78.560972 
L 149.345092 80.668942 
L 149.409778 82.982684 
L 149.749969 86.022352 
L 150.37776 89.337877 
L 151.292954 92.915732 
L 152.493819 96.740724 
L 153.977042 100.796033 
L 156.057674 105.793693 
L 158.505213 111.04795 
L 161.305983 116.524428 
L 164.443296 122.186401 
L 167.897524 127.99508 
L 171.646208 133.909935 
L 176.25862 140.745973 
L 181.181259 147.601843 
L 186.368912 154.412611 
L 191.773157 161.113357 
L 197.342984 167.640047 
L 203.02547 173.930415 
L 208.766496 179.924811 
L 214.511487 185.567 
L 219.498902 190.173935 
L 224.411996 194.439359 
L 229.215945 198.334465 
L 233.877201 201.833774 
L 238.363801 204.91532 
L 242.645636 207.560776 
L 246.13151 209.470039 
L 249.43002 211.041096 
L 252.526175 212.268937 
L 255.406358 213.150536 
L 257.632686 213.619864 
L 259.694244 213.848318 
L 261.585443 213.837139 
L 263.301403 213.588414 
L 264.837947 213.105035 
L 265.935643 212.551819 
L 266.914812 211.852969 
L 267.77427 211.010986 
L 268.513104 210.028639 
L 269.266066 208.607956 
L 269.828886 206.979146 
L 270.201498 205.149203 
L 270.384433 203.125624 
L 270.378797 200.916371 
L 270.125484 198.032007 
L 269.606886 194.907562 
L 268.827878 191.558931 
L 267.794299 188.002605 
L 266.275744 183.613767 
L 264.432034 178.993131 
L 262.276738 174.169063 
L 259.451154 168.443768 
L 256.26219 162.534063 
L 252.735794 156.483902 
L 248.899556 150.337374 
L 244.782536 144.138513 
L 240.415102 137.931118 
L 235.241713 130.991631 
L 229.837759 124.15726 
L 224.251092 117.487885 
L 218.530773 111.042039 
L 213.374296 105.546125 
L 208.187461 100.310626 
L 203.006351 95.37303 
L 197.867308 90.769374 
L 192.806806 86.534076 
L 187.861306 82.699752 
L 183.656871 79.697766 
L 179.592387 77.045379 
L 175.691664 74.760306 
L 171.978113 72.858719 
L 168.961409 71.545052 
L 166.113088 70.531892 
L 163.446782 69.826275 
L 161.373407 69.477501 
L 159.442901 69.349242 
L 157.662296 69.44371 
L 156.0383 69.762495 
L 154.577263 70.306535 
L 153.529785 70.904153 
L 152.593284 71.645931 
L 151.770437 72.531388 
L 151.063724 73.55974 
L 150.347094 75.044435 
L 149.819427 76.74785 
L 149.484123 78.666373 
L 149.343988 80.795595 
L 149.401198 83.130296 
L 149.732441 86.194616 
L 150.351337 89.534114 
L 151.257725 93.135122 
L 152.449905 96.982309 
L 153.924595 101.058718 
L 155.995505 106.079438 
L 158.433621 111.354887 
L 161.225312 116.850503 
L 164.353937 122.52939 
L 167.79991 128.352608 
L 171.540818 134.279497 
L 176.14498 141.126085 
L 181.060113 147.988972 
L 186.241063 154.803154 
L 191.639465 161.503679 
L 197.204367 168.026534 
L 202.8829 174.309518 
L 208.620994 180.293089 
L 214.364118 185.921165 
L 219.350804 190.513202 
L 224.264036 194.761501 
L 229.069005 198.637419 
L 233.732175 202.115657 
L 238.221583 205.174437 
L 242.507121 207.79563 
L 245.996872 209.683057 
L 249.299896 211.231457 
L 252.401187 212.43595 
L 255.287108 213.293638 
L 257.518661 213.742702 
L 259.585829 213.950663 
L 261.483005 213.918832 
L 263.205289 213.649365 
L 264.748483 213.145223 
L 265.851718 212.575423 
L 266.836607 211.86005 
L 267.701951 211.001634 
L 268.446825 210.002976 
L 269.207531 208.562119 
L 269.778283 206.913425 
L 270.158985 205.063941 
L 270.350139 203.021213 
L 270.352817 200.79325 
L 270.109565 197.887077 
L 269.601067 194.741595 
L 268.832143 191.372766 
L 267.808576 187.797145 
L 266.30154 183.387018 
L 264.469097 178.74649 
L 262.324736 173.904008 
L 259.88326 168.888496 
L 256.749768 162.982157 
L 253.274776 156.932061 
L 249.485588 150.782372 
L 245.411006 144.577208 
L 241.081171 138.36047 
L 236.527412 132.175679 
L 231.782113 126.065825 
L 226.25621 119.334485 
L 220.578713 112.810571 
L 215.444964 107.232203 
L 210.266237 101.902416 
L 205.07849 96.859184 
L 199.917997 92.139071 
L 194.821226 87.777078 
L 189.824694 83.806453 
L 185.563592 80.677866 
L 181.431362 77.892558 
L 177.451993 75.468788 
L 173.649123 73.423315 
L 170.547579 71.982664 
L 167.606996 70.839599 
L 164.841252 70.001607 
L 162.263782 69.475095 
L 160.269052 69.278098 
L 158.421227 69.303474 
L 156.727168 69.553005 
L 155.193393 70.027831 
L 153.826045 70.728426 
L 152.855863 71.45133 
L 151.998607 72.318155 
L 151.256819 73.328156 
L 150.495503 74.790368 
L 149.922337 76.471881 
L 149.540859 78.369163 
L 149.354016 80.477885 
L 149.364133 82.792911 
L 149.572886 85.308288 
L 150.086939 88.581615 
L 150.888796 92.120408 
L 151.977308 95.909749 
L 153.349756 99.933081 
L 155.303951 104.898414 
L 157.628988 110.126062 
L 160.312151 115.581987 
L 163.337699 121.229759 
L 166.686921 127.030834 
L 170.338242 132.944874 
L 174.267357 138.9301 
L 179.063386 145.802554 
L 184.143365 152.647136 
L 189.460123 159.398728 
L 194.963656 165.992869 
L 200.601785 172.366628 
L 206.320853 178.459464 
L 211.348672 183.515089 
L 216.360334 188.275735 
L 221.319731 192.708126 
L 226.191494 196.781966 
L 230.941331 200.470191 
L 235.53635 203.749175 
L 239.945352 206.598886 
L 243.554213 208.687342 
L 246.987723 210.440242 
L 250.229981 211.851502 
L 253.266413 212.917034 
L 255.629985 213.539294 
L 257.834554 213.919749 
L 259.873934 214.059087 
L 261.742644 213.958863 
L 263.435901 213.621463 
L 264.949626 213.050071 
L 266.029043 212.427109 
L 266.989961 211.659252 
L 267.831236 210.74913 
L 268.551998 209.69964 
L 269.282577 208.196609 
L 269.823308 206.487415 
L 270.174187 204.579259 
L 270.3358 202.479832 
L 270.309299 200.197278 
L 270.031618 197.22855 
L 269.489441 194.023917 
L 268.687699 190.599513 
L 267.632276 186.972047 
L 266.089412 182.506326 
L 264.222702 177.81565 
L 262.045751 172.928619 
L 259.573467 167.874287 
L 256.407063 161.930729 
L 252.901725 155.851148 
L 249.084864 149.679793 
L 244.985379 143.460832 
L 240.633497 137.238186 
L 236.060629 131.055367 
L 231.299233 124.955329 
L 226.38269 118.980336 
L 221.345188 113.171818 
L 216.221601 107.570244 
L 211.047385 102.214977 
L 205.858455 97.144137 
L 200.691069 92.394443 
L 195.581704 88.001052 
L 190.566913 83.997378 
L 186.285237 80.838656 
L 182.128208 78.022202 
L 178.119895 75.566403 
L 174.284034 73.488153 
L 171.151081 72.018918 
L 168.176293 70.846915 
L 165.373646 69.979729 
L 162.756688 69.423867 
L 160.727166 69.202371 
L 158.842919 69.203277 
L 157.110894 69.428436 
L 155.537703 69.879055 
L 154.129587 70.555678 
L 153.125888 71.259624 
L 152.234375 72.107727 
L 151.457649 73.099281 
L 150.651802 74.538881 
L 150.033269 76.198353 
L 149.605725 78.074245 
L 149.372256 80.16231 
L 149.335338 82.457493 
L 149.496797 84.953924 
L 149.953981 88.205814 
L 150.699106 91.72472 
L 151.731316 95.495862 
L 153.048187 99.502815 
L 154.645697 103.727561 
L 156.856522 108.905547 
L 159.429767 114.319813 
L 162.350594 119.934411 
L 165.601177 125.711212 
L 169.16079 131.610216 
L 173.00593 137.589902 
L 177.110499 143.607609 
L 182.082464 150.475865 
L 187.310103 157.271907 
L 192.744456 163.930915 
L 198.334132 170.389318 
L 204.025991 176.585664 
L 209.047623 181.746423 
L 214.069529 186.624822 
L 219.055421 191.186533 
L 223.969588 195.4001 
L 228.777249 199.23721 
L 233.44488 202.672922 
L 237.940526 205.685841 
L 241.634163 207.918289 
L 245.161514 209.818036 
L 248.506027 211.378117 
L 251.65244 212.593578 
L 254.586844 213.461452 
L 256.86116 213.918362 
L 258.973054 214.133548 
L 260.916742 214.108292 
L 262.687142 213.84472 
L 264.279872 213.34577 
L 265.423634 212.779605 
L 266.449744 212.067394 
L 267.356909 211.211663 
L 268.144108 210.215205 
L 268.958284 208.77641 
L 269.582961 207.129011 
L 270.017861 205.280052 
L 270.263308 203.237083 
L 270.3202 201.008119 
L 270.141659 198.099754 
L 269.697224 194.951021 
L 268.991441 191.577911 
L 268.029828 187.997014 
L 266.593233 183.579527 
L 264.828889 178.930411 
L 262.749927 174.078195 
L 260.370819 169.05189 
L 257.304497 163.132039 
L 253.891888 157.067316 
L 250.159915 150.902039 
L 246.13704 144.680482 
L 241.853102 138.446706 
L 237.339167 132.244389 
L 232.627396 126.11668 
L 227.750912 120.106058 
L 222.743686 114.254197 
L 217.640415 108.601826 
L 212.476414 103.188597 
L 207.287501 98.052938 
L 202.109874 93.231902 
L 196.979993 88.76101 
L 191.934441 84.674068 
L 187.617503 81.438087 
L 183.417506 78.540592 
L 179.358635 76.000296 
L 175.464774 73.834448 
L 172.276324 72.287947 
L 169.240845 71.036932 
L 166.372476 70.089258 
L 163.684949 69.451717 
L 161.593068 69.16146 
L 159.643374 69.093172 
L 157.842963 69.24889 
L 156.198606 69.630022 
L 154.716717 70.237316 
L 153.652247 70.886055 
L 152.698516 71.6793 
L 151.858232 72.61646 
L 151.133911 73.696641 
L 150.395076 75.246122 
L 149.845051 77.014107 
L 149.487299 78.996751 
L 149.324687 81.189404 
L 149.359456 83.586606 
L 149.593186 86.182078 
L 150.137503 89.548312 
L 150.969767 93.175985 
L 152.088635 97.049627 
L 153.491188 101.152141 
L 155.479907 106.202692 
L 157.838501 111.507101 
L 160.553909 117.030603 
L 163.61005 122.736113 
L 166.987884 128.584511 
L 170.665516 134.534973 
L 174.61835 140.545336 
L 178.819272 146.572494 
L 183.886307 153.425275 
L 189.191858 160.177823 
L 194.686025 166.765696 
L 200.316727 173.126073 
L 205.313507 178.457276 
L 210.337438 183.529675 
L 215.352068 188.307203 
L 220.321257 192.75646 
L 222.428177 194.55514 
L 222.428177 194.55514 
" clip-path="url(#pbc48b64a15)" style="fill: none; stroke: #1f77b4; stroke-width: 1.5; stroke-linecap: square"/>
   </g>
   <g id="line2d_18">
    <path d="M 269.320635 94.880786 
L 116.143501 104.41828 
L 304.097601 92.715646 
L 268.062415 94.959133 
" clip-path="url(#pbc48b64a15)" style="fill: none; stroke: #ff7f0e; stroke-width: 1.5; stroke-linecap: square"/>
   </g>
   <g id="legend_1">
    <g id="patch_6">
     <path d="M 199.24875 272.7 
L 333.9 272.7 
Q 335.7 272.7 335.7 270.9 
L 335.7 245.379375 
Q 335.7 243.579375 333.9 243.579375 
L 199.24875 243.579375 
Q 197.44875 243.579375 197.44875 245.379375 
L 197.44875 270.9 
Q 197.44875 272.7 199.24875 272.7 
z
" style="fill: #ffffff; opacity: 0.8; stroke: #cccccc; stroke-linejoin: miter"/>
    </g>
    <g id="line2d_19">
     <path d="M 201.04875 250.867969 
L 210.04875 250.867969 
L 219.04875 250.867969 
" style="fill: none; stroke: #1f77b4; stroke-width: 1.5; stroke-linecap: square"/>
    </g>
    <g id="text_14">
     <!-- S/C Position -->
     <g transform="translate(226.24875 254.017969) scale(0.09 -0.09)">
      <defs>
       <path id="DejaVuSans-53" d="M 3425 4513 
L 3425 3897 
Q 3066 4069 2747 4153 
Q 2428 4238 2131 4238 
Q 1616 4238 1336 4038 
Q 1056 3838 1056 3469 
Q 1056 3159 1242 3001 
Q 1428 2844 1947 2747 
L 2328 2669 
Q 3034 2534 3370 2195 
Q 3706 1856 3706 1288 
Q 3706 609 3251 259 
Q 2797 -91 1919 -91 
Q 1588 -91 1214 -16 
Q 841 59 441 206 
L 441 856 
Q 825 641 1194 531 
Q 1563 422 1919 422 
Q 2459 422 2753 634 
Q 3047 847 3047 1241 
Q 3047 1584 2836 1778 
Q 2625 1972 2144 2069 
L 1759 2144 
Q 1053 2284 737 2584 
Q 422 2884 422 3419 
Q 422 4038 858 4394 
Q 1294 4750 2059 4750 
Q 2388 4750 2728 4690 
Q 3069 4631 3425 4513 
z
" transform="scale(0.015625)"/>
       <path id="DejaVuSans-2f" d="M 1625 4666 
L 2156 4666 
L 531 -594 
L 0 -594 
L 1625 4666 
z
" transform="scale(0.015625)"/>
       <path id="DejaVuSans-43" d="M 4122 4306 
L 4122 3641 
Q 3803 3938 3442 4084 
Q 3081 4231 2675 4231 
Q 1875 4231 1450 3742 
Q 1025 3253 1025 2328 
Q 1025 1406 1450 917 
Q 1875 428 2675 428 
Q 3081 428 3442 575 
Q 3803 722 4122 1019 
L 4122 359 
Q 3791 134 3420 21 
Q 3050 -91 2638 -91 
Q 1578 -91 968 557 
Q 359 1206 359 2328 
Q 359 3453 968 4101 
Q 1578 4750 2638 4750 
Q 3056 4750 3426 4639 
Q 3797 4528 4122 4306 
z
" transform="scale(0.015625)"/>
       <path id="DejaVuSans-20" transform="scale(0.015625)"/>
       <path id="DejaVuSans-50" d="M 1259 4147 
L 1259 2394 
L 2053 2394 
Q 2494 2394 2734 2622 
Q 2975 2850 2975 3272 
Q 2975 3691 2734 3919 
Q 2494 4147 2053 4147 
L 1259 4147 
z
M 628 4666 
L 2053 4666 
Q 2838 4666 3239 4311 
Q 3641 3956 3641 3272 
Q 3641 2581 3239 2228 
Q 2838 1875 2053 1875 
L 1259 1875 
L 1259 0 
L 628 0 
L 628 4666 
z
" transform="scale(0.015625)"/>
       <path id="DejaVuSans-6f" d="M 1959 3097 
Q 1497 3097 1228 2736 
Q 959 2375 959 1747 
Q 959 1119 1226 758 
Q 1494 397 1959 397 
Q 2419 397 2687 759 
Q 2956 1122 2956 1747 
Q 2956 2369 2687 2733 
Q 2419 3097 1959 3097 
z
M 1959 3584 
Q 2709 3584 3137 3096 
Q 3566 2609 3566 1747 
Q 3566 888 3137 398 
Q 2709 -91 1959 -91 
Q 1206 -91 779 398 
Q 353 888 353 1747 
Q 353 2609 779 3096 
Q 1206 3584 1959 3584 
z
" transform="scale(0.015625)"/>
       <path id="DejaVuSans-73" d="M 2834 3397 
L 2834 2853 
Q 2591 2978 2328 3040 
Q 2066 3103 1784 3103 
Q 1356 3103 1142 2972 
Q 928 2841 928 2578 
Q 928 2378 1081 2264 
Q 1234 2150 1697 2047 
L 1894 2003 
Q 2506 1872 2764 1633 
Q 3022 1394 3022 966 
Q 3022 478 2636 193 
Q 2250 -91 1575 -91 
Q 1294 -91 989 -36 
Q 684 19 347 128 
L 347 722 
Q 666 556 975 473 
Q 1284 391 1588 391 
Q 1994 391 2212 530 
Q 2431 669 2431 922 
Q 2431 1156 2273 1281 
Q 2116 1406 1581 1522 
L 1381 1569 
Q 847 1681 609 1914 
Q 372 2147 372 2553 
Q 372 3047 722 3315 
Q 1072 3584 1716 3584 
Q 2034 3584 2315 3537 
Q 2597 3491 2834 3397 
z
" transform="scale(0.015625)"/>
       <path id="DejaVuSans-69" d="M 603 3500 
L 1178 3500 
L 1178 0 
L 603 0 
L 603 3500 
z
M 603 4863 
L 1178 4863 
L 1178 4134 
L 603 4134 
L 603 4863 
z
" transform="scale(0.015625)"/>
       <path id="DejaVuSans-74" d="M 1172 4494 
L 1172 3500 
L 2356 3500 
L 2356 3053 
L 1172 3053 
L 1172 1153 
Q 1172 725 1289 603 
Q 1406 481 1766 481 
L 2356 481 
L 2356 0 
L 1766 0 
Q 1100 0 847 248 
Q 594 497 594 1153 
L 594 3053 
L 172 3053 
L 172 3500 
L 594 3500 
L 594 4494 
L 1172 4494 
z
" transform="scale(0.015625)"/>
       <path id="DejaVuSans-6e" d="M 3513 2113 
L 3513 0 
L 2938 0 
L 2938 2094 
Q 2938 2591 2744 2837 
Q 2550 3084 2163 3084 
Q 1697 3084 1428 2787 
Q 1159 2491 1159 1978 
L 1159 0 
L 581 0 
L 581 3500 
L 1159 3500 
L 1159 2956 
Q 1366 3272 1645 3428 
Q 1925 3584 2291 3584 
Q 2894 3584 3203 3211 
Q 3513 2838 3513 2113 
z
" transform="scale(0.015625)"/>
      </defs>
      <use xlink:href="#DejaVuSans-53"/>
      <use xlink:href="#DejaVuSans-2f" transform="translate(63.476562 0)"/>
      <use xlink:href="#DejaVuSans-43" transform="translate(97.167969 0)"/>
      <use xlink:href="#DejaVuSans-20" transform="translate(166.992188 0)"/>
      <use xlink:href="#DejaVuSans-50" transform="translate(198.779297 0)"/>
      <use xlink:href="#DejaVuSans-6f" transform="translate(255.457031 0)"/>
      <use xlink:href="#DejaVuSans-73" transform="translate(316.638672 0)"/>
      <use xlink:href="#DejaVuSans-69" transform="translate(368.738281 0)"/>
      <use xlink:href="#DejaVuSans-74" transform="translate(396.521484 0)"/>
      <use xlink:href="#DejaVuSans-69" transform="translate(435.730469 0)"/>
      <use xlink:href="#DejaVuSans-6f" transform="translate(463.513672 0)"/>
      <use xlink:href="#DejaVuSans-6e" transform="translate(524.695312 0)"/>
     </g>
    </g>
    <g id="line2d_20">
     <path d="M 201.04875 264.078281 
L 210.04875 264.078281 
L 219.04875 264.078281 
" style="fill: none; stroke: #ff7f0e; stroke-width: 1.5; stroke-linecap: square"/>
    </g>
    <g id="text_15">
     <!-- Ground Station Position -->
     <g transform="translate(226.24875 267.228281) scale(0.09 -0.09)">
      <defs>
       <path id="DejaVuSans-47" d="M 3809 666 
L 3809 1919 
L 2778 1919 
L 2778 2438 
L 4434 2438 
L 4434 434 
Q 4069 175 3628 42 
Q 3188 -91 2688 -91 
Q 1594 -91 976 548 
Q 359 1188 359 2328 
Q 359 3472 976 4111 
Q 1594 4750 2688 4750 
Q 3144 4750 3555 4637 
Q 3966 4525 4313 4306 
L 4313 3634 
Q 3963 3931 3569 4081 
Q 3175 4231 2741 4231 
Q 1884 4231 1454 3753 
Q 1025 3275 1025 2328 
Q 1025 1384 1454 906 
Q 1884 428 2741 428 
Q 3075 428 3337 486 
Q 3600 544 3809 666 
z
" transform="scale(0.015625)"/>
       <path id="DejaVuSans-72" d="M 2631 2963 
Q 2534 3019 2420 3045 
Q 2306 3072 2169 3072 
Q 1681 3072 1420 2755 
Q 1159 2438 1159 1844 
L 1159 0 
L 581 0 
L 581 3500 
L 1159 3500 
L 1159 2956 
Q 1341 3275 1631 3429 
Q 1922 3584 2338 3584 
Q 2397 3584 2469 3576 
Q 2541 3569 2628 3553 
L 2631 2963 
z
" transform="scale(0.015625)"/>
       <path id="DejaVuSans-75" d="M 544 1381 
L 544 3500 
L 1119 3500 
L 1119 1403 
Q 1119 906 1312 657 
Q 1506 409 1894 409 
Q 2359 409 2629 706 
Q 2900 1003 2900 1516 
L 2900 3500 
L 3475 3500 
L 3475 0 
L 2900 0 
L 2900 538 
Q 2691 219 2414 64 
Q 2138 -91 1772 -91 
Q 1169 -91 856 284 
Q 544 659 544 1381 
z
M 1991 3584 
L 1991 3584 
z
" transform="scale(0.015625)"/>
       <path id="DejaVuSans-64" d="M 2906 2969 
L 2906 4863 
L 3481 4863 
L 3481 0 
L 2906 0 
L 2906 525 
Q 2725 213 2448 61 
Q 2172 -91 1784 -91 
Q 1150 -91 751 415 
Q 353 922 353 1747 
Q 353 2572 751 3078 
Q 1150 3584 1784 3584 
Q 2172 3584 2448 3432 
Q 2725 3281 2906 2969 
z
M 947 1747 
Q 947 1113 1208 752 
Q 1469 391 1925 391 
Q 2381 391 2643 752 
Q 2906 1113 2906 1747 
Q 2906 2381 2643 2742 
Q 2381 3103 1925 3103 
Q 1469 3103 1208 2742 
Q 947 2381 947 1747 
z
" transform="scale(0.015625)"/>
       <path id="DejaVuSans-61" d="M 2194 1759 
Q 1497 1759 1228 1600 
Q 959 1441 959 1056 
Q 959 750 1161 570 
Q 1363 391 1709 391 
Q 2188 391 2477 730 
Q 2766 1069 2766 1631 
L 2766 1759 
L 2194 1759 
z
M 3341 1997 
L 3341 0 
L 2766 0 
L 2766 531 
Q 2569 213 2275 61 
Q 1981 -91 1556 -91 
Q 1019 -91 701 211 
Q 384 513 384 1019 
Q 384 1609 779 1909 
Q 1175 2209 1959 2209 
L 2766 2209 
L 2766 2266 
Q 2766 2663 2505 2880 
Q 2244 3097 1772 3097 
Q 1472 3097 1187 3025 
Q 903 2953 641 2809 
L 641 3341 
Q 956 3463 1253 3523 
Q 1550 3584 1831 3584 
Q 2591 3584 2966 3190 
Q 3341 2797 3341 1997 
z
" transform="scale(0.015625)"/>
      </defs>
      <use xlink:href="#DejaVuSans-47"/>
      <use xlink:href="#DejaVuSans-72" transform="translate(77.490234 0)"/>
      <use xlink:href="#DejaVuSans-6f" transform="translate(116.353516 0)"/>
      <use xlink:href="#DejaVuSans-75" transform="translate(177.535156 0)"/>
      <use xlink:href="#DejaVuSans-6e" transform="translate(240.914062 0)"/>
      <use xlink:href="#DejaVuSans-64" transform="translate(304.292969 0)"/>
      <use xlink:href="#DejaVuSans-20" transform="translate(367.769531 0)"/>
      <use xlink:href="#DejaVuSans-53" transform="translate(399.556641 0)"/>
      <use xlink:href="#DejaVuSans-74" transform="translate(463.033203 0)"/>
      <use xlink:href="#DejaVuSans-61" transform="translate(502.242188 0)"/>
      <use xlink:href="#DejaVuSans-74" transform="translate(563.521484 0)"/>
      <use xlink:href="#DejaVuSans-69" transform="translate(602.730469 0)"/>
      <use xlink:href="#DejaVuSans-6f" transform="translate(630.513672 0)"/>
      <use xlink:href="#DejaVuSans-6e" transform="translate(691.695312 0)"/>
      <use xlink:href="#DejaVuSans-20" transform="translate(755.074219 0)"/>
      <use xlink:href="#DejaVuSans-50" transform="translate(786.861328 0)"/>
      <use xlink:href="#DejaVuSans-6f" transform="translate(843.539062 0)"/>
      <use xlink:href="#DejaVuSans-73" transform="translate(904.720703 0)"/>
      <use xlink:href="#DejaVuSans-69" transform="translate(956.820312 0)"/>
      <use xlink:href="#DejaVuSans-74" transform="translate(984.603516 0)"/>
      <use xlink:href="#DejaVuSans-69" transform="translate(1023.8125 0)"/>
      <use xlink:href="#DejaVuSans-6f" transform="translate(1051.595703 0)"/>
      <use xlink:href="#DejaVuSans-6e" transform="translate(1112.777344 0)"/>
     </g>
    </g>
   </g>
  </g>
 </g>
 <defs>
  <clipPath id="pbc48b64a15">
   <rect x="73.8" y="10.8" width="266.4" height="266.4"/>
  </clipPath>
 </defs>
</svg>
