<?xml version="1.0" encoding="utf-8" standalone="no"?>
<!DOCTYPE svg PUBLIC "-//W3C//DTD SVG 1.1//EN"
  "http://www.w3.org/Graphics/SVG/1.1/DTD/svg11.dtd">
<svg xmlns:xlink="http://www.w3.org/1999/xlink" width="414pt" height="288pt" viewBox="0 0 414 288" xmlns="http://www.w3.org/2000/svg" version="1.1">
 <metadata>
  <rdf:RDF xmlns:dc="http://purl.org/dc/elements/1.1/" xmlns:cc="http://creativecommons.org/ns#" xmlns:rdf="http://www.w3.org/1999/02/22-rdf-syntax-ns#">
   <cc:Work>
    <dc:type rdf:resource="http://purl.org/dc/dcmitype/StillImage"/>
    <dc:date>2026-01-15T03:04:34.358549</dc:date>
    <dc:format>image/svg+xml</dc:format>
    <dc:creator>
     <cc:Agent>
      <dc:title>Matplotlib v3.10.7, https://matplotlib.org/</dc:title>
     </cc:Agent>
    </dc:creator>
   </cc:Work>
  </rdf:RDF>
 </metadata>
 <defs>
  <style type="text/css">*{stroke-linejoin: round; stroke-linecap: butt}</style>
 </defs>
 <g id="figure_1">
  <g id="patch_1">
   <path d="M 0 288 
L 414 288 
L 414 0 
L 0 0 
L 0 288 
z
" style="fill: none"/>
  </g>
  <g id="axes_1">
   <g id="patch_2">
    <path d="M 56.923125 241.036875 
L 403.2 241.036875 
L 403.2 10.8 
L 56.923125 10.8 
L 56.923125 241.036875 
z
" style="fill: none"/>
   </g>
   <g id="matplotlib.axis_1">
    <g id="xtick_1">
     <g id="line2d_1">
      <defs>
       <path id="ma1faebf612" d="M 0 0 
L 0 3.5 
" style="stroke: #000000; stroke-width: 0.8"/>
      </defs>
      <g>
       <use xlink:href="#ma1faebf612" x="72.662983" y="241.036875" style="stroke: #000000; stroke-width: 0.8"/>
      </g>
     </g>
     <g id="text_1">
      <!-- 0 -->
      <g transform="translate(67.572983 260.194375) scale(0.16 -0.16)">
       <defs>
        <path id="DejaVuSans-30" d="M 2034 4250 
Q 1547 4250 1301 3770 
Q 1056 3291 1056 2328 
Q 1056 1369 1301 889 
Q 1547 409 2034 409 
Q 2525 409 2770 889 
Q 3016 1369 3016 2328 
Q 3016 3291 2770 3770 
Q 2525 4250 2034 4250 
z
M 2034 4750 
Q 2819 4750 3233 4129 
Q 3647 3509 3647 2328 
Q 3647 1150 3233 529 
Q 2819 -91 2034 -91 
Q 1250 -91 836 529 
Q 422 1150 422 2328 
Q 422 3509 836 4129 
Q 1250 4750 2034 4750 
z
" transform="scale(0.015625)"/>
       </defs>
       <use xlink:href="#DejaVuSans-30"/>
      </g>
     </g>
    </g>
    <g id="xtick_2">
     <g id="line2d_2">
      <g>
       <use xlink:href="#ma1faebf612" x="128.379294" y="241.036875" style="stroke: #000000; stroke-width: 0.8"/>
      </g>
     </g>
     <g id="text_2">
      <!-- 500 -->
      <g transform="translate(113.109294 260.194375) scale(0.16 -0.16)">
       <defs>
        <path id="DejaVuSans-35" d="M 691 4666 
L 3169 4666 
L 3169 4134 
L 1269 4134 
L 1269 2991 
Q 1406 3038 1543 3061 
Q 1681 3084 1819 3084 
Q 2600 3084 3056 2656 
Q 3513 2228 3513 1497 
Q 3513 744 3044 326 
Q 2575 -91 1722 -91 
Q 1428 -91 1123 -41 
Q 819 9 494 109 
L 494 744 
Q 775 591 1075 516 
Q 1375 441 1709 441 
Q 2250 441 2565 725 
Q 2881 1009 2881 1497 
Q 2881 1984 2565 2268 
Q 2250 2553 1709 2553 
Q 1456 2553 1204 2497 
Q 953 2441 691 2322 
L 691 4666 
z
" transform="scale(0.015625)"/>
       </defs>
       <use xlink:href="#DejaVuSans-35"/>
       <use xlink:href="#DejaVuSans-30" transform="translate(63.623047 0)"/>
       <use xlink:href="#DejaVuSans-30" transform="translate(127.246094 0)"/>
      </g>
     </g>
    </g>
    <g id="xtick_3">
     <g id="line2d_3">
      <g>
       <use xlink:href="#ma1faebf612" x="184.095606" y="241.036875" style="stroke: #000000; stroke-width: 0.8"/>
      </g>
     </g>
     <g id="text_3">
      <!-- 1000 -->
      <g transform="translate(163.735606 260.194375) scale(0.16 -0.16)">
       <defs>
        <path id="DejaVuSans-31" d="M 794 531 
L 1825 531 
L 1825 4091 
L 703 3866 
L 703 4441 
L 1819 4666 
L 2450 4666 
L 2450 531 
L 3481 531 
L 3481 0 
L 794 0 
L 794 531 
z
" transform="scale(0.015625)"/>
       </defs>
       <use xlink:href="#DejaVuSans-31"/>
       <use xlink:href="#DejaVuSans-30" transform="translate(63.623047 0)"/>
       <use xlink:href="#DejaVuSans-30" transform="translate(127.246094 0)"/>
       <use xlink:href="#DejaVuSans-30" transform="translate(190.869141 0)"/>
      </g>
     </g>
    </g>
    <g id="xtick_4">
     <g id="line2d_4">
      <g>
       <use xlink:href="#ma1faebf612" x="239.811917" y="241.036875" style="stroke: #000000; stroke-width: 0.8"/>
      </g>
     </g>
     <g id="text_4">
      <!-- 1500 -->
      <g transform="translate(219.451917 260.194375) scale(0.16 -0.16)">
       <use xlink:href="#DejaVuSans-31"/>
       <use xlink:href="#DejaVuSans-35" transform="translate(63.623047 0)"/>
       <use xlink:href="#DejaVuSans-30" transform="translate(127.246094 0)"/>
       <use xlink:href="#DejaVuSans-30" transform="translate(190.869141 0)"/>
      </g>
     </g>
    </g>
    <g id="xtick_5">
     <g id="line2d_5">
      <g>
       <use xlink:href="#ma1faebf612" x="295.528228" y="241.036875" style="stroke: #000000; stroke-width: 0.8"/>
      </g>
     </g>
     <g id="text_5">
      <!-- 2000 -->
      <g transform="translate(275.168228 260.194375) scale(0.16 -0.16)">
       <defs>
        <path id="DejaVuSans-32" d="M 1228 531 
L 3431 531 
L 3431 0 
L 469 0 
L 469 531 
Q 828 903 1448 1529 
Q 2069 2156 2228 2338 
Q 2531 2678 2651 2914 
Q 2772 3150 2772 3378 
Q 2772 3750 2511 3984 
Q 2250 4219 1831 4219 
Q 1534 4219 1204 4116 
Q 875 4013 500 3803 
L 500 4441 
Q 881 4594 1212 4672 
Q 1544 4750 1819 4750 
Q 2544 4750 2975 4387 
Q 3406 4025 3406 3419 
Q 3406 3131 3298 2873 
Q 3191 2616 2906 2266 
Q 2828 2175 2409 1742 
Q 1991 1309 1228 531 
z
" transform="scale(0.015625)"/>
       </defs>
       <use xlink:href="#DejaVuSans-32"/>
       <use xlink:href="#DejaVuSans-30" transform="translate(63.623047 0)"/>
       <use xlink:href="#DejaVuSans-30" transform="translate(127.246094 0)"/>
       <use xlink:href="#DejaVuSans-30" transform="translate(190.869141 0)"/>
      </g>
     </g>
    </g>
    <g id="xtick_6">
     <g id="line2d_6">
      <g>
       <use xlink:href="#ma1faebf612" x="351.24454" y="241.036875" style="stroke: #000000; stroke-width: 0.8"/>
      </g>
     </g>
     <g id="text_6">
      <!-- 2500 -->
      <g transform="translate(330.88454 260.194375) scale(0.16 -0.16)">
       <use xlink:href="#DejaVuSans-32"/>
       <use xlink:href="#DejaVuSans-35" transform="translate(63.623047 0)"/>
       <use xlink:href="#DejaVuSans-30" transform="translate(127.246094 0)"/>
       <use xlink:href="#DejaVuSans-30" transform="translate(190.869141 0)"/>
      </g>
     </g>
    </g>
    <g id="text_7">
     <!-- Time [s] -->
     <g transform="translate(209.732656 275.120313) scale(0.1 -0.1)">
      <defs>
       <path id="DejaVuSans-54" d="M -19 4666 
L 3928 4666 
L 3928 4134 
L 2272 4134 
L 2272 0 
L 1638 0 
L 1638 4134 
L -19 4134 
L -19 4666 
z
" transform="scale(0.015625)"/>
       <path id="DejaVuSans-69" d="M 603 3500 
L 1178 3500 
L 1178 0 
L 603 0 
L 603 3500 
z
M 603 4863 
L 1178 4863 
L 1178 4134 
L 603 4134 
L 603 4863 
z
" transform="scale(0.015625)"/>
       <path id="DejaVuSans-6d" d="M 3328 2828 
Q 3544 3216 3844 3400 
Q 4144 3584 4550 3584 
Q 5097 3584 5394 3201 
Q 5691 2819 5691 2113 
L 5691 0 
L 5113 0 
L 5113 2094 
Q 5113 2597 4934 2840 
Q 4756 3084 4391 3084 
Q 3944 3084 3684 2787 
Q 3425 2491 3425 1978 
L 3425 0 
L 2847 0 
L 2847 2094 
Q 2847 2600 2669 2842 
Q 2491 3084 2119 3084 
Q 1678 3084 1418 2786 
Q 1159 2488 1159 1978 
L 1159 0 
L 581 0 
L 581 3500 
L 1159 3500 
L 1159 2956 
Q 1356 3278 1631 3431 
Q 1906 3584 2284 3584 
Q 2666 3584 2933 3390 
Q 3200 3197 3328 2828 
z
" transform="scale(0.015625)"/>
       <path id="DejaVuSans-65" d="M 3597 1894 
L 3597 1613 
L 953 1613 
Q 991 1019 1311 708 
Q 1631 397 2203 397 
Q 2534 397 2845 478 
Q 3156 559 3463 722 
L 3463 178 
Q 3153 47 2828 -22 
Q 2503 -91 2169 -91 
Q 1331 -91 842 396 
Q 353 884 353 1716 
Q 353 2575 817 3079 
Q 1281 3584 2069 3584 
Q 2775 3584 3186 3129 
Q 3597 2675 3597 1894 
z
M 3022 2063 
Q 3016 2534 2758 2815 
Q 2500 3097 2075 3097 
Q 1594 3097 1305 2825 
Q 1016 2553 972 2059 
L 3022 2063 
z
" transform="scale(0.015625)"/>
       <path id="DejaVuSans-20" transform="scale(0.015625)"/>
       <path id="DejaVuSans-5b" d="M 550 4863 
L 1875 4863 
L 1875 4416 
L 1125 4416 
L 1125 -397 
L 1875 -397 
L 1875 -844 
L 550 -844 
L 550 4863 
z
" transform="scale(0.015625)"/>
       <path id="DejaVuSans-73" d="M 2834 3397 
L 2834 2853 
Q 2591 2978 2328 3040 
Q 2066 3103 1784 3103 
Q 1356 3103 1142 2972 
Q 928 2841 928 2578 
Q 928 2378 1081 2264 
Q 1234 2150 1697 2047 
L 1894 2003 
Q 2506 1872 2764 1633 
Q 3022 1394 3022 966 
Q 3022 478 2636 193 
Q 2250 -91 1575 -91 
Q 1294 -91 989 -36 
Q 684 19 347 128 
L 347 722 
Q 666 556 975 473 
Q 1284 391 1588 391 
Q 1994 391 2212 530 
Q 2431 669 2431 922 
Q 2431 1156 2273 1281 
Q 2116 1406 1581 1522 
L 1381 1569 
Q 847 1681 609 1914 
Q 372 2147 372 2553 
Q 372 3047 722 3315 
Q 1072 3584 1716 3584 
Q 2034 3584 2315 3537 
Q 2597 3491 2834 3397 
z
" transform="scale(0.015625)"/>
       <path id="DejaVuSans-5d" d="M 1947 4863 
L 1947 -844 
L 622 -844 
L 622 -397 
L 1369 -397 
L 1369 4416 
L 622 4416 
L 622 4863 
L 1947 4863 
z
" transform="scale(0.015625)"/>
      </defs>
      <use xlink:href="#DejaVuSans-54"/>
      <use xlink:href="#DejaVuSans-69" transform="translate(57.958984 0)"/>
      <use xlink:href="#DejaVuSans-6d" transform="translate(85.742188 0)"/>
      <use xlink:href="#DejaVuSans-65" transform="translate(183.154297 0)"/>
      <use xlink:href="#DejaVuSans-20" transform="translate(244.677734 0)"/>
      <use xlink:href="#DejaVuSans-5b" transform="translate(276.464844 0)"/>
      <use xlink:href="#DejaVuSans-73" transform="translate(315.478516 0)"/>
      <use xlink:href="#DejaVuSans-5d" transform="translate(367.578125 0)"/>
     </g>
    </g>
   </g>
   <g id="matplotlib.axis_2">
    <g id="ytick_1">
     <g id="line2d_7">
      <defs>
       <path id="m12b2550698" d="M 0 0 
L -3.5 0 
" style="stroke: #000000; stroke-width: 0.8"/>
      </defs>
      <g>
       <use xlink:href="#m12b2550698" x="56.923125" y="230.571562" style="stroke: #000000; stroke-width: 0.8"/>
      </g>
     </g>
     <g id="text_8">
      <!-- 0.0 -->
      <g transform="translate(24.478125 236.650312) scale(0.16 -0.16)">
       <defs>
        <path id="DejaVuSans-2e" d="M 684 794 
L 1344 794 
L 1344 0 
L 684 0 
L 684 794 
z
" transform="scale(0.015625)"/>
       </defs>
       <use xlink:href="#DejaVuSans-30"/>
       <use xlink:href="#DejaVuSans-2e" transform="translate(63.623047 0)"/>
       <use xlink:href="#DejaVuSans-30" transform="translate(95.410156 0)"/>
      </g>
     </g>
    </g>
    <g id="ytick_2">
     <g id="line2d_8">
      <g>
       <use xlink:href="#m12b2550698" x="56.923125" y="188.710312" style="stroke: #000000; stroke-width: 0.8"/>
      </g>
     </g>
     <g id="text_9">
      <!-- 0.2 -->
      <g transform="translate(24.478125 194.789062) scale(0.16 -0.16)">
       <use xlink:href="#DejaVuSans-30"/>
       <use xlink:href="#DejaVuSans-2e" transform="translate(63.623047 0)"/>
       <use xlink:href="#DejaVuSans-32" transform="translate(95.410156 0)"/>
      </g>
     </g>
    </g>
    <g id="ytick_3">
     <g id="line2d_9">
      <g>
       <use xlink:href="#m12b2550698" x="56.923125" y="146.849063" style="stroke: #000000; stroke-width: 0.8"/>
      </g>
     </g>
     <g id="text_10">
      <!-- 0.4 -->
      <g transform="translate(24.478125 152.927813) scale(0.16 -0.16)">
       <defs>
        <path id="DejaVuSans-34" d="M 2419 4116 
L 825 1625 
L 2419 1625 
L 2419 4116 
z
M 2253 4666 
L 3047 4666 
L 3047 1625 
L 3713 1625 
L 3713 1100 
L 3047 1100 
L 3047 0 
L 2419 0 
L 2419 1100 
L 313 1100 
L 313 1709 
L 2253 4666 
z
" transform="scale(0.015625)"/>
       </defs>
       <use xlink:href="#DejaVuSans-30"/>
       <use xlink:href="#DejaVuSans-2e" transform="translate(63.623047 0)"/>
       <use xlink:href="#DejaVuSans-34" transform="translate(95.410156 0)"/>
      </g>
     </g>
    </g>
    <g id="ytick_4">
     <g id="line2d_10">
      <g>
       <use xlink:href="#m12b2550698" x="56.923125" y="104.987812" style="stroke: #000000; stroke-width: 0.8"/>
      </g>
     </g>
     <g id="text_11">
      <!-- 0.6 -->
      <g transform="translate(24.478125 111.066563) scale(0.16 -0.16)">
       <defs>
        <path id="DejaVuSans-36" d="M 2113 2584 
Q 1688 2584 1439 2293 
Q 1191 2003 1191 1497 
Q 1191 994 1439 701 
Q 1688 409 2113 409 
Q 2538 409 2786 701 
Q 3034 994 3034 1497 
Q 3034 2003 2786 2293 
Q 2538 2584 2113 2584 
z
M 3366 4563 
L 3366 3988 
Q 3128 4100 2886 4159 
Q 2644 4219 2406 4219 
Q 1781 4219 1451 3797 
Q 1122 3375 1075 2522 
Q 1259 2794 1537 2939 
Q 1816 3084 2150 3084 
Q 2853 3084 3261 2657 
Q 3669 2231 3669 1497 
Q 3669 778 3244 343 
Q 2819 -91 2113 -91 
Q 1303 -91 875 529 
Q 447 1150 447 2328 
Q 447 3434 972 4092 
Q 1497 4750 2381 4750 
Q 2619 4750 2861 4703 
Q 3103 4656 3366 4563 
z
" transform="scale(0.015625)"/>
       </defs>
       <use xlink:href="#DejaVuSans-30"/>
       <use xlink:href="#DejaVuSans-2e" transform="translate(63.623047 0)"/>
       <use xlink:href="#DejaVuSans-36" transform="translate(95.410156 0)"/>
      </g>
     </g>
    </g>
    <g id="ytick_5">
     <g id="line2d_11">
      <g>
       <use xlink:href="#m12b2550698" x="56.923125" y="63.126563" style="stroke: #000000; stroke-width: 0.8"/>
      </g>
     </g>
     <g id="text_12">
      <!-- 0.8 -->
      <g transform="translate(24.478125 69.205313) scale(0.16 -0.16)">
       <defs>
        <path id="DejaVuSans-38" d="M 2034 2216 
Q 1584 2216 1326 1975 
Q 1069 1734 1069 1313 
Q 1069 891 1326 650 
Q 1584 409 2034 409 
Q 2484 409 2743 651 
Q 3003 894 3003 1313 
Q 3003 1734 2745 1975 
Q 2488 2216 2034 2216 
z
M 1403 2484 
Q 997 2584 770 2862 
Q 544 3141 544 3541 
Q 544 4100 942 4425 
Q 1341 4750 2034 4750 
Q 2731 4750 3128 4425 
Q 3525 4100 3525 3541 
Q 3525 3141 3298 2862 
Q 3072 2584 2669 2484 
Q 3125 2378 3379 2068 
Q 3634 1759 3634 1313 
Q 3634 634 3220 271 
Q 2806 -91 2034 -91 
Q 1263 -91 848 271 
Q 434 634 434 1313 
Q 434 1759 690 2068 
Q 947 2378 1403 2484 
z
M 1172 3481 
Q 1172 3119 1398 2916 
Q 1625 2713 2034 2713 
Q 2441 2713 2670 2916 
Q 2900 3119 2900 3481 
Q 2900 3844 2670 4047 
Q 2441 4250 2034 4250 
Q 1625 4250 1398 4047 
Q 1172 3844 1172 3481 
z
" transform="scale(0.015625)"/>
       </defs>
       <use xlink:href="#DejaVuSans-30"/>
       <use xlink:href="#DejaVuSans-2e" transform="translate(63.623047 0)"/>
       <use xlink:href="#DejaVuSans-38" transform="translate(95.410156 0)"/>
      </g>
     </g>
    </g>
    <g id="ytick_6">
     <g id="line2d_12">
      <g>
       <use xlink:href="#m12b2550698" x="56.923125" y="21.265312" style="stroke: #000000; stroke-width: 0.8"/>
      </g>
     </g>
     <g id="text_13">
      <!-- 1.0 -->
      <g transform="translate(24.478125 27.344062) scale(0.16 -0.16)">
       <use xlink:href="#DejaVuSans-31"/>
       <use xlink:href="#DejaVuSans-2e" transform="translate(63.623047 0)"/>
       <use xlink:href="#DejaVuSans-30" transform="translate(95.410156 0)"/>
      </g>
     </g>
    </g>
    <g id="text_14">
     <!-- Instrument's signal -->
     <g transform="translate(18.398438 173.784844) rotate(-90) scale(0.1 -0.1)">
      <defs>
       <path id="DejaVuSans-49" d="M 628 4666 
L 1259 4666 
L 1259 0 
L 628 0 
L 628 4666 
z
" transform="scale(0.015625)"/>
       <path id="DejaVuSans-6e" d="M 3513 2113 
L 3513 0 
L 2938 0 
L 2938 2094 
Q 2938 2591 2744 2837 
Q 2550 3084 2163 3084 
Q 1697 3084 1428 2787 
Q 1159 2491 1159 1978 
L 1159 0 
L 581 0 
L 581 3500 
L 1159 3500 
L 1159 2956 
Q 1366 3272 1645 3428 
Q 1925 3584 2291 3584 
Q 2894 3584 3203 3211 
Q 3513 2838 3513 2113 
z
" transform="scale(0.015625)"/>
       <path id="DejaVuSans-74" d="M 1172 4494 
L 1172 3500 
L 2356 3500 
L 2356 3053 
L 1172 3053 
L 1172 1153 
Q 1172 725 1289 603 
Q 1406 481 1766 481 
L 2356 481 
L 2356 0 
L 1766 0 
Q 1100 0 847 248 
Q 594 497 594 1153 
L 594 3053 
L 172 3053 
L 172 3500 
L 594 3500 
L 594 4494 
L 1172 4494 
z
" transform="scale(0.015625)"/>
       <path id="DejaVuSans-72" d="M 2631 2963 
Q 2534 3019 2420 3045 
Q 2306 3072 2169 3072 
Q 1681 3072 1420 2755 
Q 1159 2438 1159 1844 
L 1159 0 
L 581 0 
L 581 3500 
L 1159 3500 
L 1159 2956 
Q 1341 3275 1631 3429 
Q 1922 3584 2338 3584 
Q 2397 3584 2469 3576 
Q 2541 3569 2628 3553 
L 2631 2963 
z
" transform="scale(0.015625)"/>
       <path id="DejaVuSans-75" d="M 544 1381 
L 544 3500 
L 1119 3500 
L 1119 1403 
Q 1119 906 1312 657 
Q 1506 409 1894 409 
Q 2359 409 2629 706 
Q 2900 1003 2900 1516 
L 2900 3500 
L 3475 3500 
L 3475 0 
L 2900 0 
L 2900 538 
Q 2691 219 2414 64 
Q 2138 -91 1772 -91 
Q 1169 -91 856 284 
Q 544 659 544 1381 
z
M 1991 3584 
L 1991 3584 
z
" transform="scale(0.015625)"/>
       <path id="DejaVuSans-27" d="M 1147 4666 
L 1147 2931 
L 616 2931 
L 616 4666 
L 1147 4666 
z
" transform="scale(0.015625)"/>
       <path id="DejaVuSans-67" d="M 2906 1791 
Q 2906 2416 2648 2759 
Q 2391 3103 1925 3103 
Q 1463 3103 1205 2759 
Q 947 2416 947 1791 
Q 947 1169 1205 825 
Q 1463 481 1925 481 
Q 2391 481 2648 825 
Q 2906 1169 2906 1791 
z
M 3481 434 
Q 3481 -459 3084 -895 
Q 2688 -1331 1869 -1331 
Q 1566 -1331 1297 -1286 
Q 1028 -1241 775 -1147 
L 775 -588 
Q 1028 -725 1275 -790 
Q 1522 -856 1778 -856 
Q 2344 -856 2625 -561 
Q 2906 -266 2906 331 
L 2906 616 
Q 2728 306 2450 153 
Q 2172 0 1784 0 
Q 1141 0 747 490 
Q 353 981 353 1791 
Q 353 2603 747 3093 
Q 1141 3584 1784 3584 
Q 2172 3584 2450 3431 
Q 2728 3278 2906 2969 
L 2906 3500 
L 3481 3500 
L 3481 434 
z
" transform="scale(0.015625)"/>
       <path id="DejaVuSans-61" d="M 2194 1759 
Q 1497 1759 1228 1600 
Q 959 1441 959 1056 
Q 959 750 1161 570 
Q 1363 391 1709 391 
Q 2188 391 2477 730 
Q 2766 1069 2766 1631 
L 2766 1759 
L 2194 1759 
z
M 3341 1997 
L 3341 0 
L 2766 0 
L 2766 531 
Q 2569 213 2275 61 
Q 1981 -91 1556 -91 
Q 1019 -91 701 211 
Q 384 513 384 1019 
Q 384 1609 779 1909 
Q 1175 2209 1959 2209 
L 2766 2209 
L 2766 2266 
Q 2766 2663 2505 2880 
Q 2244 3097 1772 3097 
Q 1472 3097 1187 3025 
Q 903 2953 641 2809 
L 641 3341 
Q 956 3463 1253 3523 
Q 1550 3584 1831 3584 
Q 2591 3584 2966 3190 
Q 3341 2797 3341 1997 
z
" transform="scale(0.015625)"/>
       <path id="DejaVuSans-6c" d="M 603 4863 
L 1178 4863 
L 1178 0 
L 603 0 
L 603 4863 
z
" transform="scale(0.015625)"/>
      </defs>
      <use xlink:href="#DejaVuSans-49"/>
      <use xlink:href="#DejaVuSans-6e" transform="translate(29.492188 0)"/>
      <use xlink:href="#DejaVuSans-73" transform="translate(92.871094 0)"/>
      <use xlink:href="#DejaVuSans-74" transform="translate(144.970703 0)"/>
      <use xlink:href="#DejaVuSans-72" transform="translate(184.179688 0)"/>
      <use xlink:href="#DejaVuSans-75" transform="translate(225.292969 0)"/>
      <use xlink:href="#DejaVuSans-6d" transform="translate(288.671875 0)"/>
      <use xlink:href="#DejaVuSans-65" transform="translate(386.083984 0)"/>
      <use xlink:href="#DejaVuSans-6e" transform="translate(447.607422 0)"/>
      <use xlink:href="#DejaVuSans-74" transform="translate(510.986328 0)"/>
      <use xlink:href="#DejaVuSans-27" transform="translate(550.195312 0)"/>
      <use xlink:href="#DejaVuSans-73" transform="translate(577.685547 0)"/>
      <use xlink:href="#DejaVuSans-20" transform="translate(629.785156 0)"/>
      <use xlink:href="#DejaVuSans-73" transform="translate(661.572266 0)"/>
      <use xlink:href="#DejaVuSans-69" transform="translate(713.671875 0)"/>
      <use xlink:href="#DejaVuSans-67" transform="translate(741.455078 0)"/>
      <use xlink:href="#DejaVuSans-6e" transform="translate(804.931641 0)"/>
      <use xlink:href="#DejaVuSans-61" transform="translate(868.310547 0)"/>
      <use xlink:href="#DejaVuSans-6c" transform="translate(929.589844 0)"/>
     </g>
    </g>
   </g>
   <g id="line2d_13">
    <path d="M 72.662983 141.717124 
L 75.448799 143.330371 
L 78.234614 149.022128 
L 81.02043 156.5524 
L 83.806245 165.943536 
L 86.592061 173.937745 
L 89.377876 183.277844 
L 92.163692 194.151506 
L 94.949507 201.68109 
L 97.735323 210.344232 
L 100.521139 218.201852 
L 103.306954 223.905109 
L 106.09277 227.591804 
L 108.878585 230.007893 
L 111.664401 230.571562 
L 114.450216 230.571562 
L 117.236032 230.571562 
L 120.021848 230.571562 
L 122.807663 230.571562 
L 125.593479 230.571562 
L 128.379294 230.157002 
L 131.16511 228.334172 
L 133.950925 225.590423 
L 136.736741 221.430127 
L 139.522557 215.757943 
L 142.308372 209.836526 
L 145.094188 204.90699 
L 147.880003 197.974245 
L 150.665819 192.792378 
L 153.451634 187.834327 
L 156.23745 183.066721 
L 159.023266 178.759645 
L 161.809081 176.074125 
L 164.594897 176.227808 
L 167.380712 178.352077 
L 170.166528 182.630025 
L 172.952343 187.883191 
L 175.738159 194.198337 
L 178.523975 199.410326 
L 181.30979 205.286447 
L 184.095606 211.584968 
L 186.881421 215.801626 
L 189.667237 220.52552 
L 192.453052 224.531538 
L 195.238868 227.065732 
L 198.024683 229.137548 
L 200.810499 230.291041 
L 203.596315 230.571562 
L 206.38213 230.571562 
L 209.167946 230.571562 
L 211.953761 230.571562 
L 214.739577 230.571562 
L 217.525392 230.571562 
L 220.311208 230.571562 
L 223.097024 230.571562 
L 225.882839 230.571562 
L 228.668655 230.571562 
L 231.45447 230.571562 
L 234.240286 230.571562 
L 237.026101 230.571562 
L 239.811917 230.571562 
L 242.597733 230.571562 
L 245.383548 230.571562 
L 248.169364 230.571562 
L 250.955179 230.571562 
L 253.740995 230.55665 
L 256.52681 230.559142 
L 259.312626 230.5644 
L 262.098442 230.568685 
L 264.884257 230.570914 
L 267.670073 230.571526 
L 270.455888 230.571562 
L 273.241704 230.571562 
L 276.027519 230.571562 
L 278.813335 230.571562 
L 281.59915 230.571562 
L 284.384966 230.571562 
L 287.170782 230.571562 
L 289.956597 230.571562 
L 292.742413 230.571562 
L 295.528228 230.571562 
L 298.314044 230.571562 
L 301.099859 230.571562 
L 303.885675 230.571562 
L 306.671491 230.571562 
L 309.457306 230.571562 
L 312.243122 230.571562 
L 315.028937 230.571562 
L 317.814753 230.571562 
L 320.600568 230.571562 
L 323.386384 230.571562 
L 326.1722 230.571562 
L 328.958015 230.571562 
L 331.743831 230.571562 
L 334.529646 230.571562 
L 337.315462 230.571562 
L 340.101277 230.571562 
L 342.887093 230.571562 
L 345.672909 230.571562 
L 348.458724 230.571562 
L 351.24454 230.571562 
L 354.030355 230.571562 
L 356.816171 230.571562 
L 359.601986 230.571562 
L 362.387802 230.571562 
L 365.173618 230.571562 
L 367.959433 230.571562 
L 370.745249 230.571562 
L 373.531064 230.571562 
L 376.31688 230.571562 
L 379.102695 230.571562 
L 381.888511 230.571562 
L 384.674326 230.571562 
L 387.460142 230.571562 
" clip-path="url(#pbed348fa31)" style="fill: none; stroke: #2b737e; stroke-opacity: 0.7; stroke-width: 2; stroke-linecap: square"/>
   </g>
   <g id="line2d_14">
    <path d="M 72.662983 141.717124 
L 75.448799 143.330371 
L 78.234614 149.022128 
L 81.02043 156.5524 
L 83.806245 165.943536 
L 86.592061 173.937745 
L 89.377876 183.277844 
L 92.163692 194.151506 
L 94.949507 165.330111 
L 97.735323 130.236875 
L 100.521139 98.135947 
L 103.306954 69.572864 
L 106.09277 46.30994 
L 108.878585 30.370766 
L 111.664401 22.043711 
L 114.450216 23.039002 
L 117.236032 33.873106 
L 120.021848 54.032368 
L 122.807663 82.561041 
L 125.593479 118.106597 
L 128.379294 158.569289 
L 131.16511 228.334172 
L 133.950925 225.590423 
L 136.736741 221.430127 
L 139.522557 215.757943 
L 142.308372 209.836526 
L 145.094188 204.90699 
L 147.880003 197.974245 
L 150.665819 192.792378 
L 153.451634 187.834327 
L 156.23745 183.066721 
L 159.023266 178.759645 
L 161.809081 176.074125 
L 164.594897 176.227808 
L 167.380712 178.352077 
L 170.166528 182.630025 
L 172.952343 187.883191 
L 175.738159 148.885904 
L 178.523975 110.941997 
L 181.30979 77.856542 
L 184.095606 51.234885 
L 186.881421 30.133422 
L 189.667237 21.265313 
L 192.453052 21.265313 
L 195.238868 21.265313 
L 198.024683 35.76164 
L 200.810499 58.838134 
L 203.596315 89.169797 
L 206.38213 125.924367 
L 209.167946 167.639865 
L 211.953761 230.571562 
L 214.739577 230.571562 
L 217.525392 230.571562 
L 220.311208 230.571562 
L 223.097024 230.571562 
L 225.882839 230.571562 
L 228.668655 230.571562 
L 231.45447 230.571562 
L 234.240286 230.571562 
L 237.026101 230.571562 
L 239.811917 230.571562 
L 242.597733 230.571562 
L 245.383548 230.571562 
L 248.169364 230.571562 
L 250.955179 230.571562 
L 253.740995 230.55665 
L 256.52681 176.3788 
L 259.312626 133.911661 
L 262.098442 96.025847 
L 264.884257 64.516531 
L 267.670073 40.878005 
L 270.455888 26.231946 
L 273.241704 21.273182 
L 276.027519 26.236787 
L 278.813335 40.887397 
L 281.59915 64.530412 
L 284.384966 96.044931 
L 287.170782 133.936888 
L 289.956597 176.409888 
L 292.742413 230.571562 
L 295.528228 230.571562 
L 298.314044 230.571562 
L 301.099859 230.571562 
L 303.885675 230.571562 
L 306.671491 230.571562 
L 309.457306 230.571562 
L 312.243122 230.571562 
L 315.028937 230.571562 
L 317.814753 230.571562 
L 320.600568 230.571562 
L 323.386384 230.571562 
L 326.1722 230.571562 
L 328.958015 230.571562 
L 331.743831 230.571562 
L 334.529646 230.571562 
L 337.315462 167.632242 
L 340.101277 125.922826 
L 342.887093 89.174634 
L 345.672909 59.129785 
L 348.458724 37.212608 
L 351.24454 24.462118 
L 354.030355 21.482761 
L 356.816171 28.415764 
L 359.601986 44.932435 
L 362.387802 70.249746 
L 365.173618 103.167457 
L 367.959433 142.12502 
L 370.745249 185.275556 
L 373.531064 230.571562 
L 376.31688 230.571562 
L 379.102695 230.571562 
L 381.888511 230.571562 
L 384.674326 230.571562 
L 387.460142 230.571562 
" clip-path="url(#pbed348fa31)" style="fill: none; stroke-dasharray: 5.55,2.4; stroke-dashoffset: 0; stroke: #2b737e; stroke-width: 1.5"/>
   </g>
   <g id="line2d_15">
    <path d="M 72.662983 230.571562 
L 75.448799 230.571562 
L 78.234614 230.571562 
L 81.02043 230.55391 
L 83.806245 229.065589 
L 86.592061 225.565193 
L 89.377876 220.61486 
L 92.163692 214.189333 
L 94.949507 208.549099 
L 97.735323 198.942547 
L 100.521139 190.632522 
L 103.306954 182.691814 
L 106.09277 173.513606 
L 108.878585 165.732201 
L 111.664401 159.354788 
L 114.450216 153.489661 
L 117.236032 150.845675 
L 120.021848 151.498658 
L 122.807663 155.264184 
L 125.593479 161.971626 
L 128.379294 169.160437 
L 131.16511 177.460357 
L 133.950925 186.803537 
L 136.736741 194.379381 
L 139.522557 202.683827 
L 142.308372 211.459816 
L 145.094188 216.411522 
L 147.880003 222.181004 
L 150.665819 226.383334 
L 153.451634 229.299577 
L 156.23745 230.564948 
L 159.023266 230.571562 
L 161.809081 230.571562 
L 164.594897 230.571562 
L 167.380712 230.571562 
L 170.166528 230.571562 
L 172.952343 230.564922 
L 175.738159 230.025012 
L 178.523975 228.738892 
L 181.30979 226.918866 
L 184.095606 224.737547 
L 186.881421 222.930735 
L 189.667237 219.957647 
L 192.453052 217.936454 
L 195.238868 215.976392 
L 198.024683 214.042778 
L 200.810499 212.787161 
L 203.596315 212.148176 
L 206.38213 211.621157 
L 209.167946 212.107322 
L 211.953761 213.511155 
L 214.739577 215.459376 
L 217.525392 217.745283 
L 220.311208 220.128635 
L 223.097024 222.444197 
L 225.882839 224.56509 
L 228.668655 226.338318 
L 231.45447 227.771062 
L 234.240286 228.836628 
L 237.026101 229.565882 
L 239.811917 230.03208 
L 242.597733 230.312494 
L 245.383548 230.471742 
L 248.169364 230.570725 
L 250.955179 230.571562 
L 253.740995 230.571562 
L 256.52681 230.571562 
L 259.312626 230.571562 
L 262.098442 230.571562 
L 264.884257 230.571562 
L 267.670073 230.571562 
L 270.455888 230.571562 
L 273.241704 230.571562 
L 276.027519 230.571562 
L 278.813335 230.571562 
L 281.59915 230.571562 
L 284.384966 230.571562 
L 287.170782 230.571562 
L 289.956597 230.571562 
L 292.742413 230.571562 
L 295.528228 230.571562 
L 298.314044 230.571562 
L 301.099859 230.571562 
L 303.885675 230.571562 
L 306.671491 230.571562 
L 309.457306 230.571562 
L 312.243122 230.571562 
L 315.028937 230.571562 
L 317.814753 230.571562 
L 320.600568 230.571562 
L 323.386384 230.571562 
L 326.1722 230.571562 
L 328.958015 230.571562 
L 331.743831 230.571562 
L 334.529646 230.571562 
L 337.315462 230.571562 
L 340.101277 230.571562 
L 342.887093 230.571562 
L 345.672909 230.571562 
L 348.458724 230.571562 
L 351.24454 230.571562 
L 354.030355 230.571562 
L 356.816171 230.571562 
L 359.601986 230.571562 
L 362.387802 230.571562 
L 365.173618 230.571562 
L 367.959433 230.571562 
L 370.745249 230.571562 
L 373.531064 230.571562 
L 376.31688 230.571562 
L 379.102695 230.571562 
L 381.888511 230.571562 
L 384.674326 230.571562 
L 387.460142 230.571562 
" clip-path="url(#pbed348fa31)" style="fill: none; stroke: #5ea04b; stroke-opacity: 0.7; stroke-width: 2; stroke-linecap: square"/>
   </g>
   <g id="line2d_16">
    <path d="M 72.662983 21.265313 
L 75.448799 26.207977 
L 78.234614 40.858481 
L 81.02043 64.485358 
L 83.806245 94.514632 
L 86.592061 128.910684 
L 89.377876 166.439025 
L 92.163692 214.189333 
L 94.949507 208.549099 
L 97.735323 198.942547 
L 100.521139 190.632522 
L 103.306954 182.691814 
L 106.09277 173.513606 
L 108.878585 165.732201 
L 111.664401 159.354788 
L 114.450216 153.489661 
L 117.236032 150.845675 
L 120.021848 151.498658 
L 122.807663 155.264184 
L 125.593479 161.971626 
L 128.379294 169.160437 
L 131.16511 177.460357 
L 133.950925 186.803537 
L 136.736741 131.429569 
L 139.522557 98.017897 
L 142.308372 70.039946 
L 145.094188 44.942324 
L 147.880003 28.791655 
L 150.665819 21.265313 
L 153.451634 21.265313 
L 156.23745 28.379948 
L 159.023266 44.906881 
L 161.809081 70.229179 
L 164.594897 103.152931 
L 167.380712 142.117243 
L 170.166528 185.274854 
L 172.952343 230.564922 
L 175.738159 230.025012 
L 178.523975 228.738892 
L 181.30979 226.918866 
L 184.095606 224.737547 
L 186.881421 222.930735 
L 189.667237 219.957647 
L 192.453052 217.936454 
L 195.238868 215.976392 
L 198.024683 214.042778 
L 200.810499 212.787161 
L 203.596315 212.148176 
L 206.38213 211.621157 
L 209.167946 212.107322 
L 211.953761 213.511155 
L 214.739577 215.459376 
L 217.525392 146.148318 
L 220.311208 107.659157 
L 223.097024 74.434365 
L 225.882839 48.031927 
L 228.668655 29.651038 
L 231.45447 21.265313 
L 234.240286 21.265313 
L 237.026101 29.951033 
L 239.811917 48.773913 
L 242.597733 76.003965 
L 245.383548 110.428136 
L 248.169364 150.482864 
L 250.955179 230.571562 
L 253.740995 230.571562 
L 256.52681 230.571562 
L 259.312626 230.571562 
L 262.098442 230.571562 
L 264.884257 230.571562 
L 267.670073 230.571562 
L 270.455888 230.571562 
L 273.241704 230.571562 
L 276.027519 230.571562 
L 278.813335 230.571562 
L 281.59915 230.571562 
L 284.384966 230.571562 
L 287.170782 230.571562 
L 289.956597 230.571562 
L 292.742413 230.571562 
L 295.528228 194.220047 
L 298.314044 150.47087 
L 301.099859 110.519249 
L 303.885675 76.259167 
L 306.671491 49.314782 
L 309.457306 30.963425 
L 312.243122 22.075051 
L 315.028937 23.070995 
L 317.814753 33.904006 
L 320.600568 54.060483 
L 323.386384 82.584828 
L 326.1722 118.124752 
L 328.958015 158.995379 
L 331.743831 230.571562 
L 334.529646 230.571562 
L 337.315462 230.571562 
L 340.101277 230.571562 
L 342.887093 230.571562 
L 345.672909 230.571562 
L 348.458724 230.571562 
L 351.24454 230.571562 
L 354.030355 230.571562 
L 356.816171 230.571562 
L 359.601986 230.571562 
L 362.387802 230.571562 
L 365.173618 230.571562 
L 367.959433 230.571562 
L 370.745249 230.571562 
L 373.531064 230.571562 
L 376.31688 185.271979 
L 379.102695 142.121812 
L 381.888511 103.164836 
L 384.674326 70.247892 
L 387.460142 44.931477 
" clip-path="url(#pbed348fa31)" style="fill: none; stroke-dasharray: 5.55,2.4; stroke-dashoffset: 0; stroke: #5ea04b; stroke-width: 1.5"/>
   </g>
   <g id="line2d_17">
    <path d="M 72.662983 204.691121 
L 75.448799 195.637499 
L 78.234614 185.641035 
L 81.02043 178.342222 
L 83.806245 168.141292 
L 86.592061 159.679334 
L 89.377876 151.851186 
L 92.163692 146.153934 
L 94.949507 144.034096 
L 97.735323 145.15504 
L 100.521139 149.908711 
L 103.306954 156.871939 
L 106.09277 165.117005 
L 108.878585 173.947346 
L 111.664401 183.622622 
L 114.450216 194.712514 
L 117.236032 201.07663 
L 120.021848 210.235443 
L 122.807663 216.575325 
L 125.593479 222.213732 
L 128.379294 226.751884 
L 131.16511 229.616535 
L 133.950925 230.571562 
L 136.736741 230.571562 
L 139.522557 230.571562 
L 142.308372 230.571562 
L 145.094188 230.571562 
L 147.880003 230.571562 
L 150.665819 230.466698 
L 153.451634 229.237042 
L 156.23745 227.175365 
L 159.023266 224.176695 
L 161.809081 220.172411 
L 164.594897 217.602939 
L 167.380712 212.234464 
L 170.166528 207.703987 
L 172.952343 204.648444 
L 175.738159 200.4456 
L 178.523975 197.349907 
L 181.30979 194.666921 
L 184.095606 193.034504 
L 186.881421 193.250068 
L 189.667237 194.903923 
L 192.453052 197.841587 
L 195.238868 201.608781 
L 198.024683 205.727437 
L 200.810499 209.902819 
L 203.596315 214.134579 
L 206.38213 218.038289 
L 209.167946 221.108763 
L 211.953761 224.265023 
L 214.739577 226.353127 
L 217.525392 228.172398 
L 220.311208 229.475508 
L 223.097024 230.280317 
L 225.882839 230.571562 
L 228.668655 230.571562 
L 231.45447 230.571562 
L 234.240286 230.571562 
L 237.026101 230.571562 
L 239.811917 230.571562 
L 242.597733 230.571562 
L 245.383548 230.571562 
L 248.169364 230.571562 
L 250.955179 230.571562 
L 253.740995 230.571562 
L 256.52681 230.571562 
L 259.312626 230.571562 
L 262.098442 230.571562 
L 264.884257 230.571562 
L 267.670073 230.571562 
L 270.455888 230.571562 
L 273.241704 230.571562 
L 276.027519 230.571562 
L 278.813335 230.571562 
L 281.59915 230.571562 
L 284.384966 230.571562 
L 287.170782 230.571562 
L 289.956597 230.571562 
L 292.742413 230.571562 
L 295.528228 230.571562 
L 298.314044 230.571562 
L 301.099859 230.571562 
L 303.885675 230.571562 
L 306.671491 230.571562 
L 309.457306 230.571562 
L 312.243122 230.571562 
L 315.028937 230.571562 
L 317.814753 230.571562 
L 320.600568 230.571562 
L 323.386384 230.571562 
L 326.1722 230.571562 
L 328.958015 230.571562 
L 331.743831 230.571562 
L 334.529646 230.571562 
L 337.315462 230.571562 
L 340.101277 230.571562 
L 342.887093 230.571562 
L 345.672909 230.571562 
L 348.458724 230.571562 
L 351.24454 230.571562 
L 354.030355 230.571562 
L 356.816171 230.571562 
L 359.601986 230.571562 
L 362.387802 230.571562 
L 365.173618 230.571562 
L 367.959433 230.571562 
L 370.745249 230.571562 
L 373.531064 230.571562 
L 376.31688 230.571562 
L 379.102695 230.571562 
L 381.888511 230.571562 
L 384.674326 230.571562 
L 387.460142 230.571562 
" clip-path="url(#pbed348fa31)" style="fill: none; stroke: #bdab62; stroke-opacity: 0.7; stroke-width: 2; stroke-linecap: square"/>
   </g>
   <g id="line2d_18">
    <path d="M 72.662983 204.691121 
L 75.448799 195.637499 
L 78.234614 185.641035 
L 81.02043 178.342222 
L 83.806245 168.141292 
L 86.592061 159.679334 
L 89.377876 151.851186 
L 92.163692 146.153934 
L 94.949507 144.034096 
L 97.735323 145.15504 
L 100.521139 149.908711 
L 103.306954 156.871939 
L 106.09277 165.117005 
L 108.878585 173.947346 
L 111.664401 183.622622 
L 114.450216 194.712514 
L 117.236032 129.479805 
L 120.021848 97.762322 
L 122.807663 68.558192 
L 125.593479 45.669946 
L 128.379294 30.051194 
L 131.16511 22.084273 
L 133.950925 22.046542 
L 136.736741 30.939629 
L 139.522557 49.296921 
L 142.308372 76.248093 
L 145.094188 110.5154 
L 147.880003 150.474254 
L 150.665819 230.466698 
L 153.451634 229.237042 
L 156.23745 227.175365 
L 159.023266 224.176695 
L 161.809081 220.172411 
L 164.594897 217.602939 
L 167.380712 212.234464 
L 170.166528 207.703987 
L 172.952343 204.648444 
L 175.738159 200.4456 
L 178.523975 197.349907 
L 181.30979 194.666921 
L 184.095606 193.034504 
L 186.881421 193.250068 
L 189.667237 194.903923 
L 192.453052 197.841587 
L 195.238868 165.252959 
L 198.024683 125.61849 
L 200.810499 89.838778 
L 203.596315 59.807653 
L 206.38213 36.764992 
L 209.167946 21.483043 
L 211.953761 21.265313 
L 214.739577 21.265313 
L 217.525392 31.489805 
L 220.311208 52.95196 
L 223.097024 82.284323 
L 225.882839 118.119153 
L 228.668655 158.993681 
L 231.45447 230.571562 
L 234.240286 230.571562 
L 237.026101 230.571562 
L 239.811917 230.571562 
L 242.597733 230.571562 
L 245.383548 230.571562 
L 248.169364 230.571562 
L 250.955179 230.571562 
L 253.740995 230.571562 
L 256.52681 230.571562 
L 259.312626 230.571562 
L 262.098442 230.571562 
L 264.884257 230.571562 
L 267.670073 230.571562 
L 270.455888 230.571562 
L 273.241704 230.571562 
L 276.027519 185.262521 
L 278.813335 142.11068 
L 281.59915 103.152763 
L 284.384966 70.235648 
L 287.170782 44.919821 
L 289.956597 28.405404 
L 292.742413 21.475263 
L 295.528228 24.457891 
L 298.314044 37.211844 
L 301.099859 59.132445 
L 303.885675 89.180456 
L 306.671491 125.931344 
L 309.457306 167.642819 
L 312.243122 230.571562 
L 315.028937 230.571562 
L 317.814753 230.571562 
L 320.600568 230.571562 
L 323.386384 230.571562 
L 326.1722 230.571562 
L 328.958015 230.571562 
L 331.743831 230.571562 
L 334.529646 230.571562 
L 337.315462 230.571562 
L 340.101277 230.571562 
L 342.887093 230.571562 
L 345.672909 230.571562 
L 348.458724 230.571562 
L 351.24454 230.571562 
L 354.030355 230.571562 
L 356.816171 176.400615 
L 359.601986 133.930445 
L 362.387802 96.041844 
L 365.173618 64.530999 
L 367.959433 40.891741 
L 370.745249 26.24473 
L 373.531064 21.28433 
L 376.31688 26.24569 
L 379.102695 40.893595 
L 381.888511 64.533624 
L 384.674326 96.045063 
L 387.460142 133.93404 
" clip-path="url(#pbed348fa31)" style="fill: none; stroke-dasharray: 5.55,2.4; stroke-dashoffset: 0; stroke: #bdab62; stroke-width: 1.5"/>
   </g>
   <g id="patch_3">
    <path d="M 56.923125 241.036875 
L 56.923125 10.8 
" style="fill: none; stroke: #000000; stroke-width: 0.8; stroke-linejoin: miter; stroke-linecap: square"/>
   </g>
   <g id="patch_4">
    <path d="M 403.2 241.036875 
L 403.2 10.8 
" style="fill: none; stroke: #000000; stroke-width: 0.8; stroke-linejoin: miter; stroke-linecap: square"/>
   </g>
   <g id="patch_5">
    <path d="M 56.923125 241.036875 
L 403.2 241.036875 
" style="fill: none; stroke: #000000; stroke-width: 0.8; stroke-linejoin: miter; stroke-linecap: square"/>
   </g>
   <g id="patch_6">
    <path d="M 56.923125 10.8 
L 403.2 10.8 
" style="fill: none; stroke: #000000; stroke-width: 0.8; stroke-linejoin: miter; stroke-linecap: square"/>
   </g>
   <g id="legend_1">
    <g id="patch_7">
     <path d="M 332.55 97.261875 
L 396.9 97.261875 
Q 398.7 97.261875 398.7 95.461875 
L 398.7 17.1 
Q 398.7 15.3 396.9 15.3 
L 332.55 15.3 
Q 330.75 15.3 330.75 17.1 
L 330.75 95.461875 
Q 330.75 97.261875 332.55 97.261875 
z
" style="fill: #ffffff; opacity: 0.8; stroke: #cccccc; stroke-linejoin: miter"/>
    </g>
    <g id="line2d_19">
     <path d="M 334.35 22.588594 
L 343.35 22.588594 
L 352.35 22.588594 
" style="fill: none; stroke: #2b737e; stroke-opacity: 0.7; stroke-width: 2; stroke-linecap: square"/>
    </g>
    <g id="text_15">
     <!-- Albedo$_{0}$ -->
     <g transform="translate(359.55 25.738594) scale(0.09 -0.09)">
      <defs>
       <path id="DejaVuSans-41" d="M 2188 4044 
L 1331 1722 
L 3047 1722 
L 2188 4044 
z
M 1831 4666 
L 2547 4666 
L 4325 0 
L 3669 0 
L 3244 1197 
L 1141 1197 
L 716 0 
L 50 0 
L 1831 4666 
z
" transform="scale(0.015625)"/>
       <path id="DejaVuSans-62" d="M 3116 1747 
Q 3116 2381 2855 2742 
Q 2594 3103 2138 3103 
Q 1681 3103 1420 2742 
Q 1159 2381 1159 1747 
Q 1159 1113 1420 752 
Q 1681 391 2138 391 
Q 2594 391 2855 752 
Q 3116 1113 3116 1747 
z
M 1159 2969 
Q 1341 3281 1617 3432 
Q 1894 3584 2278 3584 
Q 2916 3584 3314 3078 
Q 3713 2572 3713 1747 
Q 3713 922 3314 415 
Q 2916 -91 2278 -91 
Q 1894 -91 1617 61 
Q 1341 213 1159 525 
L 1159 0 
L 581 0 
L 581 4863 
L 1159 4863 
L 1159 2969 
z
" transform="scale(0.015625)"/>
       <path id="DejaVuSans-64" d="M 2906 2969 
L 2906 4863 
L 3481 4863 
L 3481 0 
L 2906 0 
L 2906 525 
Q 2725 213 2448 61 
Q 2172 -91 1784 -91 
Q 1150 -91 751 415 
Q 353 922 353 1747 
Q 353 2572 751 3078 
Q 1150 3584 1784 3584 
Q 2172 3584 2448 3432 
Q 2725 3281 2906 2969 
z
M 947 1747 
Q 947 1113 1208 752 
Q 1469 391 1925 391 
Q 2381 391 2643 752 
Q 2906 1113 2906 1747 
Q 2906 2381 2643 2742 
Q 2381 3103 1925 3103 
Q 1469 3103 1208 2742 
Q 947 2381 947 1747 
z
" transform="scale(0.015625)"/>
       <path id="DejaVuSans-6f" d="M 1959 3097 
Q 1497 3097 1228 2736 
Q 959 2375 959 1747 
Q 959 1119 1226 758 
Q 1494 397 1959 397 
Q 2419 397 2687 759 
Q 2956 1122 2956 1747 
Q 2956 2369 2687 2733 
Q 2419 3097 1959 3097 
z
M 1959 3584 
Q 2709 3584 3137 3096 
Q 3566 2609 3566 1747 
Q 3566 888 3137 398 
Q 2709 -91 1959 -91 
Q 1206 -91 779 398 
Q 353 888 353 1747 
Q 353 2609 779 3096 
Q 1206 3584 1959 3584 
z
" transform="scale(0.015625)"/>
      </defs>
      <use xlink:href="#DejaVuSans-41" transform="translate(0 0.015625)"/>
      <use xlink:href="#DejaVuSans-6c" transform="translate(68.408203 0.015625)"/>
      <use xlink:href="#DejaVuSans-62" transform="translate(96.191406 0.015625)"/>
      <use xlink:href="#DejaVuSans-65" transform="translate(159.667969 0.015625)"/>
      <use xlink:href="#DejaVuSans-64" transform="translate(221.191406 0.015625)"/>
      <use xlink:href="#DejaVuSans-6f" transform="translate(284.667969 0.015625)"/>
      <use xlink:href="#DejaVuSans-30" transform="translate(346.806641 -16.390625) scale(0.7)"/>
     </g>
    </g>
    <g id="line2d_20">
     <path d="M 334.35 35.798906 
L 343.35 35.798906 
L 352.35 35.798906 
" style="fill: none; stroke-dasharray: 5.55,2.4; stroke-dashoffset: 0; stroke: #2b737e; stroke-width: 1.5"/>
    </g>
    <g id="text_16">
     <!-- CSS$_{0}$ -->
     <g transform="translate(359.55 38.948906) scale(0.09 -0.09)">
      <defs>
       <path id="DejaVuSans-43" d="M 4122 4306 
L 4122 3641 
Q 3803 3938 3442 4084 
Q 3081 4231 2675 4231 
Q 1875 4231 1450 3742 
Q 1025 3253 1025 2328 
Q 1025 1406 1450 917 
Q 1875 428 2675 428 
Q 3081 428 3442 575 
Q 3803 722 4122 1019 
L 4122 359 
Q 3791 134 3420 21 
Q 3050 -91 2638 -91 
Q 1578 -91 968 557 
Q 359 1206 359 2328 
Q 359 3453 968 4101 
Q 1578 4750 2638 4750 
Q 3056 4750 3426 4639 
Q 3797 4528 4122 4306 
z
" transform="scale(0.015625)"/>
       <path id="DejaVuSans-53" d="M 3425 4513 
L 3425 3897 
Q 3066 4069 2747 4153 
Q 2428 4238 2131 4238 
Q 1616 4238 1336 4038 
Q 1056 3838 1056 3469 
Q 1056 3159 1242 3001 
Q 1428 2844 1947 2747 
L 2328 2669 
Q 3034 2534 3370 2195 
Q 3706 1856 3706 1288 
Q 3706 609 3251 259 
Q 2797 -91 1919 -91 
Q 1588 -91 1214 -16 
Q 841 59 441 206 
L 441 856 
Q 825 641 1194 531 
Q 1563 422 1919 422 
Q 2459 422 2753 634 
Q 3047 847 3047 1241 
Q 3047 1584 2836 1778 
Q 2625 1972 2144 2069 
L 1759 2144 
Q 1053 2284 737 2584 
Q 422 2884 422 3419 
Q 422 4038 858 4394 
Q 1294 4750 2059 4750 
Q 2388 4750 2728 4690 
Q 3069 4631 3425 4513 
z
" transform="scale(0.015625)"/>
      </defs>
      <use xlink:href="#DejaVuSans-43" transform="translate(0 0.78125)"/>
      <use xlink:href="#DejaVuSans-53" transform="translate(69.824219 0.78125)"/>
      <use xlink:href="#DejaVuSans-53" transform="translate(133.300781 0.78125)"/>
      <use xlink:href="#DejaVuSans-30" transform="translate(197.734375 -15.625) scale(0.7)"/>
     </g>
    </g>
    <g id="line2d_21">
     <path d="M 334.35 49.009219 
L 343.35 49.009219 
L 352.35 49.009219 
" style="fill: none; stroke: #5ea04b; stroke-opacity: 0.7; stroke-width: 2; stroke-linecap: square"/>
    </g>
    <g id="text_17">
     <!-- Albedo$_{1}$ -->
     <g transform="translate(359.55 52.159219) scale(0.09 -0.09)">
      <use xlink:href="#DejaVuSans-41" transform="translate(0 0.015625)"/>
      <use xlink:href="#DejaVuSans-6c" transform="translate(68.408203 0.015625)"/>
      <use xlink:href="#DejaVuSans-62" transform="translate(96.191406 0.015625)"/>
      <use xlink:href="#DejaVuSans-65" transform="translate(159.667969 0.015625)"/>
      <use xlink:href="#DejaVuSans-64" transform="translate(221.191406 0.015625)"/>
      <use xlink:href="#DejaVuSans-6f" transform="translate(284.667969 0.015625)"/>
      <use xlink:href="#DejaVuSans-31" transform="translate(346.806641 -16.390625) scale(0.7)"/>
     </g>
    </g>
    <g id="line2d_22">
     <path d="M 334.35 62.219531 
L 343.35 62.219531 
L 352.35 62.219531 
" style="fill: none; stroke-dasharray: 5.55,2.4; stroke-dashoffset: 0; stroke: #5ea04b; stroke-width: 1.5"/>
    </g>
    <g id="text_18">
     <!-- CSS$_{1}$ -->
     <g transform="translate(359.55 65.369531) scale(0.09 -0.09)">
      <use xlink:href="#DejaVuSans-43" transform="translate(0 0.78125)"/>
      <use xlink:href="#DejaVuSans-53" transform="translate(69.824219 0.78125)"/>
      <use xlink:href="#DejaVuSans-53" transform="translate(133.300781 0.78125)"/>
      <use xlink:href="#DejaVuSans-31" transform="translate(197.734375 -15.625) scale(0.7)"/>
     </g>
    </g>
    <g id="line2d_23">
     <path d="M 334.35 75.429844 
L 343.35 75.429844 
L 352.35 75.429844 
" style="fill: none; stroke: #bdab62; stroke-opacity: 0.7; stroke-width: 2; stroke-linecap: square"/>
    </g>
    <g id="text_19">
     <!-- Albedo$_{2}$ -->
     <g transform="translate(359.55 78.579844) scale(0.09 -0.09)">
      <use xlink:href="#DejaVuSans-41" transform="translate(0 0.015625)"/>
      <use xlink:href="#DejaVuSans-6c" transform="translate(68.408203 0.015625)"/>
      <use xlink:href="#DejaVuSans-62" transform="translate(96.191406 0.015625)"/>
      <use xlink:href="#DejaVuSans-65" transform="translate(159.667969 0.015625)"/>
      <use xlink:href="#DejaVuSans-64" transform="translate(221.191406 0.015625)"/>
      <use xlink:href="#DejaVuSans-6f" transform="translate(284.667969 0.015625)"/>
      <use xlink:href="#DejaVuSans-32" transform="translate(346.806641 -16.390625) scale(0.7)"/>
     </g>
    </g>
    <g id="line2d_24">
     <path d="M 334.35 88.640156 
L 343.35 88.640156 
L 352.35 88.640156 
" style="fill: none; stroke-dasharray: 5.55,2.4; stroke-dashoffset: 0; stroke: #bdab62; stroke-width: 1.5"/>
    </g>
    <g id="text_20">
     <!-- CSS$_{2}$ -->
     <g transform="translate(359.55 91.790156) scale(0.09 -0.09)">
      <use xlink:href="#DejaVuSans-43" transform="translate(0 0.78125)"/>
      <use xlink:href="#DejaVuSans-53" transform="translate(69.824219 0.78125)"/>
      <use xlink:href="#DejaVuSans-53" transform="translate(133.300781 0.78125)"/>
      <use xlink:href="#DejaVuSans-32" transform="translate(197.734375 -15.625) scale(0.7)"/>
     </g>
    </g>
   </g>
  </g>
 </g>
 <defs>
  <clipPath id="pbed348fa31">
   <rect x="56.923125" y="10.8" width="346.276875" height="230.236875"/>
  </clipPath>
 </defs>
</svg>
