<?xml version="1.0" encoding="utf-8" standalone="no"?>
<!DOCTYPE svg PUBLIC "-//W3C//DTD SVG 1.1//EN"
  "http://www.w3.org/Graphics/SVG/1.1/DTD/svg11.dtd">
<svg xmlns:xlink="http://www.w3.org/1999/xlink" width="414pt" height="180pt" viewBox="0 0 414 180" xmlns="http://www.w3.org/2000/svg" version="1.1">
 <metadata>
  <rdf:RDF xmlns:dc="http://purl.org/dc/elements/1.1/" xmlns:cc="http://creativecommons.org/ns#" xmlns:rdf="http://www.w3.org/1999/02/22-rdf-syntax-ns#">
   <cc:Work>
    <dc:type rdf:resource="http://purl.org/dc/dcmitype/StillImage"/>
    <dc:date>2026-04-03T00:23:01.873830</dc:date>
    <dc:format>image/svg+xml</dc:format>
    <dc:creator>
     <cc:Agent>
      <dc:title>Matplotlib v3.10.7, https://matplotlib.org/</dc:title>
     </cc:Agent>
    </dc:creator>
   </cc:Work>
  </rdf:RDF>
 </metadata>
 <defs>
  <style type="text/css">*{stroke-linejoin: round; stroke-linecap: butt}</style>
 </defs>
 <g id="figure_1">
  <g id="patch_1">
   <path d="M 0 180 
L 414 180 
L 414 0 
L 0 0 
L 0 180 
z
" style="fill: none"/>
  </g>
  <g id="axes_1">
   <g id="patch_2">
    <path d="M 67.651094 139.811563 
L 403.2 139.811563 
L 403.2 13.495066 
L 67.651094 13.495066 
L 67.651094 139.811563 
z
" style="fill: none"/>
   </g>
   <g id="matplotlib.axis_1">
    <g id="xtick_1">
     <g id="line2d_1">
      <path d="M 82.903317 139.811563 
L 82.903317 13.495066 
" clip-path="url(#p8751974420)" style="fill: none; stroke: #b0b0b0; stroke-width: 0.8; stroke-linecap: square"/>
     </g>
     <g id="line2d_2">
      <defs>
       <path id="mf2c7ce4c53" d="M 0 0 
L 0 3.5 
" style="stroke: #000000; stroke-width: 0.8"/>
      </defs>
      <g>
       <use xlink:href="#mf2c7ce4c53" x="82.903317" y="139.811563" style="stroke: #000000; stroke-width: 0.8"/>
      </g>
     </g>
     <g id="text_1">
      <!-- 0 -->
      <g transform="translate(80.040192 153.650156) scale(0.09 -0.09)">
       <defs>
        <path id="DejaVuSans-30" d="M 2034 4250 
Q 1547 4250 1301 3770 
Q 1056 3291 1056 2328 
Q 1056 1369 1301 889 
Q 1547 409 2034 409 
Q 2525 409 2770 889 
Q 3016 1369 3016 2328 
Q 3016 3291 2770 3770 
Q 2525 4250 2034 4250 
z
M 2034 4750 
Q 2819 4750 3233 4129 
Q 3647 3509 3647 2328 
Q 3647 1150 3233 529 
Q 2819 -91 2034 -91 
Q 1250 -91 836 529 
Q 422 1150 422 2328 
Q 422 3509 836 4129 
Q 1250 4750 2034 4750 
z
" transform="scale(0.015625)"/>
       </defs>
       <use xlink:href="#DejaVuSans-30"/>
      </g>
     </g>
    </g>
    <g id="xtick_2">
     <g id="line2d_3">
      <path d="M 133.74406 139.811563 
L 133.74406 13.495066 
" clip-path="url(#p8751974420)" style="fill: none; stroke: #b0b0b0; stroke-width: 0.8; stroke-linecap: square"/>
     </g>
     <g id="line2d_4">
      <g>
       <use xlink:href="#mf2c7ce4c53" x="133.74406" y="139.811563" style="stroke: #000000; stroke-width: 0.8"/>
      </g>
     </g>
     <g id="text_2">
      <!-- 20 -->
      <g transform="translate(128.01781 153.650156) scale(0.09 -0.09)">
       <defs>
        <path id="DejaVuSans-32" d="M 1228 531 
L 3431 531 
L 3431 0 
L 469 0 
L 469 531 
Q 828 903 1448 1529 
Q 2069 2156 2228 2338 
Q 2531 2678 2651 2914 
Q 2772 3150 2772 3378 
Q 2772 3750 2511 3984 
Q 2250 4219 1831 4219 
Q 1534 4219 1204 4116 
Q 875 4013 500 3803 
L 500 4441 
Q 881 4594 1212 4672 
Q 1544 4750 1819 4750 
Q 2544 4750 2975 4387 
Q 3406 4025 3406 3419 
Q 3406 3131 3298 2873 
Q 3191 2616 2906 2266 
Q 2828 2175 2409 1742 
Q 1991 1309 1228 531 
z
" transform="scale(0.015625)"/>
       </defs>
       <use xlink:href="#DejaVuSans-32"/>
       <use xlink:href="#DejaVuSans-30" transform="translate(63.623047 0)"/>
      </g>
     </g>
    </g>
    <g id="xtick_3">
     <g id="line2d_5">
      <path d="M 184.584804 139.811563 
L 184.584804 13.495066 
" clip-path="url(#p8751974420)" style="fill: none; stroke: #b0b0b0; stroke-width: 0.8; stroke-linecap: square"/>
     </g>
     <g id="line2d_6">
      <g>
       <use xlink:href="#mf2c7ce4c53" x="184.584804" y="139.811563" style="stroke: #000000; stroke-width: 0.8"/>
      </g>
     </g>
     <g id="text_3">
      <!-- 40 -->
      <g transform="translate(178.858554 153.650156) scale(0.09 -0.09)">
       <defs>
        <path id="DejaVuSans-34" d="M 2419 4116 
L 825 1625 
L 2419 1625 
L 2419 4116 
z
M 2253 4666 
L 3047 4666 
L 3047 1625 
L 3713 1625 
L 3713 1100 
L 3047 1100 
L 3047 0 
L 2419 0 
L 2419 1100 
L 313 1100 
L 313 1709 
L 2253 4666 
z
" transform="scale(0.015625)"/>
       </defs>
       <use xlink:href="#DejaVuSans-34"/>
       <use xlink:href="#DejaVuSans-30" transform="translate(63.623047 0)"/>
      </g>
     </g>
    </g>
    <g id="xtick_4">
     <g id="line2d_7">
      <path d="M 235.425547 139.811563 
L 235.425547 13.495066 
" clip-path="url(#p8751974420)" style="fill: none; stroke: #b0b0b0; stroke-width: 0.8; stroke-linecap: square"/>
     </g>
     <g id="line2d_8">
      <g>
       <use xlink:href="#mf2c7ce4c53" x="235.425547" y="139.811563" style="stroke: #000000; stroke-width: 0.8"/>
      </g>
     </g>
     <g id="text_4">
      <!-- 60 -->
      <g transform="translate(229.699297 153.650156) scale(0.09 -0.09)">
       <defs>
        <path id="DejaVuSans-36" d="M 2113 2584 
Q 1688 2584 1439 2293 
Q 1191 2003 1191 1497 
Q 1191 994 1439 701 
Q 1688 409 2113 409 
Q 2538 409 2786 701 
Q 3034 994 3034 1497 
Q 3034 2003 2786 2293 
Q 2538 2584 2113 2584 
z
M 3366 4563 
L 3366 3988 
Q 3128 4100 2886 4159 
Q 2644 4219 2406 4219 
Q 1781 4219 1451 3797 
Q 1122 3375 1075 2522 
Q 1259 2794 1537 2939 
Q 1816 3084 2150 3084 
Q 2853 3084 3261 2657 
Q 3669 2231 3669 1497 
Q 3669 778 3244 343 
Q 2819 -91 2113 -91 
Q 1303 -91 875 529 
Q 447 1150 447 2328 
Q 447 3434 972 4092 
Q 1497 4750 2381 4750 
Q 2619 4750 2861 4703 
Q 3103 4656 3366 4563 
z
" transform="scale(0.015625)"/>
       </defs>
       <use xlink:href="#DejaVuSans-36"/>
       <use xlink:href="#DejaVuSans-30" transform="translate(63.623047 0)"/>
      </g>
     </g>
    </g>
    <g id="xtick_5">
     <g id="line2d_9">
      <path d="M 286.26629 139.811563 
L 286.26629 13.495066 
" clip-path="url(#p8751974420)" style="fill: none; stroke: #b0b0b0; stroke-width: 0.8; stroke-linecap: square"/>
     </g>
     <g id="line2d_10">
      <g>
       <use xlink:href="#mf2c7ce4c53" x="286.26629" y="139.811563" style="stroke: #000000; stroke-width: 0.8"/>
      </g>
     </g>
     <g id="text_5">
      <!-- 80 -->
      <g transform="translate(280.54004 153.650156) scale(0.09 -0.09)">
       <defs>
        <path id="DejaVuSans-38" d="M 2034 2216 
Q 1584 2216 1326 1975 
Q 1069 1734 1069 1313 
Q 1069 891 1326 650 
Q 1584 409 2034 409 
Q 2484 409 2743 651 
Q 3003 894 3003 1313 
Q 3003 1734 2745 1975 
Q 2488 2216 2034 2216 
z
M 1403 2484 
Q 997 2584 770 2862 
Q 544 3141 544 3541 
Q 544 4100 942 4425 
Q 1341 4750 2034 4750 
Q 2731 4750 3128 4425 
Q 3525 4100 3525 3541 
Q 3525 3141 3298 2862 
Q 3072 2584 2669 2484 
Q 3125 2378 3379 2068 
Q 3634 1759 3634 1313 
Q 3634 634 3220 271 
Q 2806 -91 2034 -91 
Q 1263 -91 848 271 
Q 434 634 434 1313 
Q 434 1759 690 2068 
Q 947 2378 1403 2484 
z
M 1172 3481 
Q 1172 3119 1398 2916 
Q 1625 2713 2034 2713 
Q 2441 2713 2670 2916 
Q 2900 3119 2900 3481 
Q 2900 3844 2670 4047 
Q 2441 4250 2034 4250 
Q 1625 4250 1398 4047 
Q 1172 3844 1172 3481 
z
" transform="scale(0.015625)"/>
       </defs>
       <use xlink:href="#DejaVuSans-38"/>
       <use xlink:href="#DejaVuSans-30" transform="translate(63.623047 0)"/>
      </g>
     </g>
    </g>
    <g id="xtick_6">
     <g id="line2d_11">
      <path d="M 337.107034 139.811563 
L 337.107034 13.495066 
" clip-path="url(#p8751974420)" style="fill: none; stroke: #b0b0b0; stroke-width: 0.8; stroke-linecap: square"/>
     </g>
     <g id="line2d_12">
      <g>
       <use xlink:href="#mf2c7ce4c53" x="337.107034" y="139.811563" style="stroke: #000000; stroke-width: 0.8"/>
      </g>
     </g>
     <g id="text_6">
      <!-- 100 -->
      <g transform="translate(328.517659 153.650156) scale(0.09 -0.09)">
       <defs>
        <path id="DejaVuSans-31" d="M 794 531 
L 1825 531 
L 1825 4091 
L 703 3866 
L 703 4441 
L 1819 4666 
L 2450 4666 
L 2450 531 
L 3481 531 
L 3481 0 
L 794 0 
L 794 531 
z
" transform="scale(0.015625)"/>
       </defs>
       <use xlink:href="#DejaVuSans-31"/>
       <use xlink:href="#DejaVuSans-30" transform="translate(63.623047 0)"/>
       <use xlink:href="#DejaVuSans-30" transform="translate(127.246094 0)"/>
      </g>
     </g>
    </g>
    <g id="xtick_7">
     <g id="line2d_13">
      <path d="M 387.947777 139.811563 
L 387.947777 13.495066 
" clip-path="url(#p8751974420)" style="fill: none; stroke: #b0b0b0; stroke-width: 0.8; stroke-linecap: square"/>
     </g>
     <g id="line2d_14">
      <g>
       <use xlink:href="#mf2c7ce4c53" x="387.947777" y="139.811563" style="stroke: #000000; stroke-width: 0.8"/>
      </g>
     </g>
     <g id="text_7">
      <!-- 120 -->
      <g transform="translate(379.358402 153.650156) scale(0.09 -0.09)">
       <use xlink:href="#DejaVuSans-31"/>
       <use xlink:href="#DejaVuSans-32" transform="translate(63.623047 0)"/>
       <use xlink:href="#DejaVuSans-30" transform="translate(127.246094 0)"/>
      </g>
     </g>
    </g>
    <g id="text_8">
     <!-- Time [min] -->
     <g transform="translate(208.273203 167.120313) scale(0.1 -0.1)">
      <defs>
       <path id="DejaVuSans-54" d="M -19 4666 
L 3928 4666 
L 3928 4134 
L 2272 4134 
L 2272 0 
L 1638 0 
L 1638 4134 
L -19 4134 
L -19 4666 
z
" transform="scale(0.015625)"/>
       <path id="DejaVuSans-69" d="M 603 3500 
L 1178 3500 
L 1178 0 
L 603 0 
L 603 3500 
z
M 603 4863 
L 1178 4863 
L 1178 4134 
L 603 4134 
L 603 4863 
z
" transform="scale(0.015625)"/>
       <path id="DejaVuSans-6d" d="M 3328 2828 
Q 3544 3216 3844 3400 
Q 4144 3584 4550 3584 
Q 5097 3584 5394 3201 
Q 5691 2819 5691 2113 
L 5691 0 
L 5113 0 
L 5113 2094 
Q 5113 2597 4934 2840 
Q 4756 3084 4391 3084 
Q 3944 3084 3684 2787 
Q 3425 2491 3425 1978 
L 3425 0 
L 2847 0 
L 2847 2094 
Q 2847 2600 2669 2842 
Q 2491 3084 2119 3084 
Q 1678 3084 1418 2786 
Q 1159 2488 1159 1978 
L 1159 0 
L 581 0 
L 581 3500 
L 1159 3500 
L 1159 2956 
Q 1356 3278 1631 3431 
Q 1906 3584 2284 3584 
Q 2666 3584 2933 3390 
Q 3200 3197 3328 2828 
z
" transform="scale(0.015625)"/>
       <path id="DejaVuSans-65" d="M 3597 1894 
L 3597 1613 
L 953 1613 
Q 991 1019 1311 708 
Q 1631 397 2203 397 
Q 2534 397 2845 478 
Q 3156 559 3463 722 
L 3463 178 
Q 3153 47 2828 -22 
Q 2503 -91 2169 -91 
Q 1331 -91 842 396 
Q 353 884 353 1716 
Q 353 2575 817 3079 
Q 1281 3584 2069 3584 
Q 2775 3584 3186 3129 
Q 3597 2675 3597 1894 
z
M 3022 2063 
Q 3016 2534 2758 2815 
Q 2500 3097 2075 3097 
Q 1594 3097 1305 2825 
Q 1016 2553 972 2059 
L 3022 2063 
z
" transform="scale(0.015625)"/>
       <path id="DejaVuSans-20" transform="scale(0.015625)"/>
       <path id="DejaVuSans-5b" d="M 550 4863 
L 1875 4863 
L 1875 4416 
L 1125 4416 
L 1125 -397 
L 1875 -397 
L 1875 -844 
L 550 -844 
L 550 4863 
z
" transform="scale(0.015625)"/>
       <path id="DejaVuSans-6e" d="M 3513 2113 
L 3513 0 
L 2938 0 
L 2938 2094 
Q 2938 2591 2744 2837 
Q 2550 3084 2163 3084 
Q 1697 3084 1428 2787 
Q 1159 2491 1159 1978 
L 1159 0 
L 581 0 
L 581 3500 
L 1159 3500 
L 1159 2956 
Q 1366 3272 1645 3428 
Q 1925 3584 2291 3584 
Q 2894 3584 3203 3211 
Q 3513 2838 3513 2113 
z
" transform="scale(0.015625)"/>
       <path id="DejaVuSans-5d" d="M 1947 4863 
L 1947 -844 
L 622 -844 
L 622 -397 
L 1369 -397 
L 1369 4416 
L 622 4416 
L 622 4863 
L 1947 4863 
z
" transform="scale(0.015625)"/>
      </defs>
      <use xlink:href="#DejaVuSans-54"/>
      <use xlink:href="#DejaVuSans-69" transform="translate(57.958984 0)"/>
      <use xlink:href="#DejaVuSans-6d" transform="translate(85.742188 0)"/>
      <use xlink:href="#DejaVuSans-65" transform="translate(183.154297 0)"/>
      <use xlink:href="#DejaVuSans-20" transform="translate(244.677734 0)"/>
      <use xlink:href="#DejaVuSans-5b" transform="translate(276.464844 0)"/>
      <use xlink:href="#DejaVuSans-6d" transform="translate(315.478516 0)"/>
      <use xlink:href="#DejaVuSans-69" transform="translate(412.890625 0)"/>
      <use xlink:href="#DejaVuSans-6e" transform="translate(440.673828 0)"/>
      <use xlink:href="#DejaVuSans-5d" transform="translate(504.052734 0)"/>
     </g>
    </g>
   </g>
   <g id="matplotlib.axis_2">
    <g id="ytick_1">
     <g id="line2d_15">
      <path d="M 67.651094 131.836846 
L 403.2 131.836846 
" clip-path="url(#p8751974420)" style="fill: none; stroke: #b0b0b0; stroke-width: 0.8; stroke-linecap: square"/>
     </g>
     <g id="line2d_16">
      <defs>
       <path id="m2558c3fbee" d="M 0 0 
L -3.5 0 
" style="stroke: #000000; stroke-width: 0.8"/>
      </defs>
      <g>
       <use xlink:href="#m2558c3fbee" x="67.651094" y="131.836846" style="stroke: #000000; stroke-width: 0.8"/>
      </g>
     </g>
     <g id="text_9">
      <!-- −40000 -->
      <g transform="translate(24.478125 135.256143) scale(0.09 -0.09)">
       <defs>
        <path id="DejaVuSans-2212" d="M 678 2272 
L 4684 2272 
L 4684 1741 
L 678 1741 
L 678 2272 
z
" transform="scale(0.015625)"/>
       </defs>
       <use xlink:href="#DejaVuSans-2212"/>
       <use xlink:href="#DejaVuSans-34" transform="translate(83.789062 0)"/>
       <use xlink:href="#DejaVuSans-30" transform="translate(147.412109 0)"/>
       <use xlink:href="#DejaVuSans-30" transform="translate(211.035156 0)"/>
       <use xlink:href="#DejaVuSans-30" transform="translate(274.658203 0)"/>
       <use xlink:href="#DejaVuSans-30" transform="translate(338.28125 0)"/>
      </g>
     </g>
    </g>
    <g id="ytick_2">
     <g id="line2d_17">
      <path d="M 67.651094 102.416413 
L 403.2 102.416413 
" clip-path="url(#p8751974420)" style="fill: none; stroke: #b0b0b0; stroke-width: 0.8; stroke-linecap: square"/>
     </g>
     <g id="line2d_18">
      <g>
       <use xlink:href="#m2558c3fbee" x="67.651094" y="102.416413" style="stroke: #000000; stroke-width: 0.8"/>
      </g>
     </g>
     <g id="text_10">
      <!-- −20000 -->
      <g transform="translate(24.478125 105.83571) scale(0.09 -0.09)">
       <use xlink:href="#DejaVuSans-2212"/>
       <use xlink:href="#DejaVuSans-32" transform="translate(83.789062 0)"/>
       <use xlink:href="#DejaVuSans-30" transform="translate(147.412109 0)"/>
       <use xlink:href="#DejaVuSans-30" transform="translate(211.035156 0)"/>
       <use xlink:href="#DejaVuSans-30" transform="translate(274.658203 0)"/>
       <use xlink:href="#DejaVuSans-30" transform="translate(338.28125 0)"/>
      </g>
     </g>
    </g>
    <g id="ytick_3">
     <g id="line2d_19">
      <path d="M 67.651094 72.995979 
L 403.2 72.995979 
" clip-path="url(#p8751974420)" style="fill: none; stroke: #b0b0b0; stroke-width: 0.8; stroke-linecap: square"/>
     </g>
     <g id="line2d_20">
      <g>
       <use xlink:href="#m2558c3fbee" x="67.651094" y="72.995979" style="stroke: #000000; stroke-width: 0.8"/>
      </g>
     </g>
     <g id="text_11">
      <!-- 0 -->
      <g transform="translate(54.924844 76.415276) scale(0.09 -0.09)">
       <use xlink:href="#DejaVuSans-30"/>
      </g>
     </g>
    </g>
    <g id="ytick_4">
     <g id="line2d_21">
      <path d="M 67.651094 43.575545 
L 403.2 43.575545 
" clip-path="url(#p8751974420)" style="fill: none; stroke: #b0b0b0; stroke-width: 0.8; stroke-linecap: square"/>
     </g>
     <g id="line2d_22">
      <g>
       <use xlink:href="#m2558c3fbee" x="67.651094" y="43.575545" style="stroke: #000000; stroke-width: 0.8"/>
      </g>
     </g>
     <g id="text_12">
      <!-- 20000 -->
      <g transform="translate(32.019844 46.994842) scale(0.09 -0.09)">
       <use xlink:href="#DejaVuSans-32"/>
       <use xlink:href="#DejaVuSans-30" transform="translate(63.623047 0)"/>
       <use xlink:href="#DejaVuSans-30" transform="translate(127.246094 0)"/>
       <use xlink:href="#DejaVuSans-30" transform="translate(190.869141 0)"/>
       <use xlink:href="#DejaVuSans-30" transform="translate(254.492188 0)"/>
      </g>
     </g>
    </g>
    <g id="ytick_5">
     <g id="line2d_23">
      <path d="M 67.651094 14.155112 
L 403.2 14.155112 
" clip-path="url(#p8751974420)" style="fill: none; stroke: #b0b0b0; stroke-width: 0.8; stroke-linecap: square"/>
     </g>
     <g id="line2d_24">
      <g>
       <use xlink:href="#m2558c3fbee" x="67.651094" y="14.155112" style="stroke: #000000; stroke-width: 0.8"/>
      </g>
     </g>
     <g id="text_13">
      <!-- 40000 -->
      <g transform="translate(32.019844 17.574408) scale(0.09 -0.09)">
       <use xlink:href="#DejaVuSans-34"/>
       <use xlink:href="#DejaVuSans-30" transform="translate(63.623047 0)"/>
       <use xlink:href="#DejaVuSans-30" transform="translate(127.246094 0)"/>
       <use xlink:href="#DejaVuSans-30" transform="translate(190.869141 0)"/>
       <use xlink:href="#DejaVuSans-30" transform="translate(254.492188 0)"/>
      </g>
     </g>
    </g>
    <g id="text_14">
     <!-- Magnetic Field [nT] -->
     <g transform="translate(18.398438 124.393939) rotate(-90) scale(0.1 -0.1)">
      <defs>
       <path id="DejaVuSans-4d" d="M 628 4666 
L 1569 4666 
L 2759 1491 
L 3956 4666 
L 4897 4666 
L 4897 0 
L 4281 0 
L 4281 4097 
L 3078 897 
L 2444 897 
L 1241 4097 
L 1241 0 
L 628 0 
L 628 4666 
z
" transform="scale(0.015625)"/>
       <path id="DejaVuSans-61" d="M 2194 1759 
Q 1497 1759 1228 1600 
Q 959 1441 959 1056 
Q 959 750 1161 570 
Q 1363 391 1709 391 
Q 2188 391 2477 730 
Q 2766 1069 2766 1631 
L 2766 1759 
L 2194 1759 
z
M 3341 1997 
L 3341 0 
L 2766 0 
L 2766 531 
Q 2569 213 2275 61 
Q 1981 -91 1556 -91 
Q 1019 -91 701 211 
Q 384 513 384 1019 
Q 384 1609 779 1909 
Q 1175 2209 1959 2209 
L 2766 2209 
L 2766 2266 
Q 2766 2663 2505 2880 
Q 2244 3097 1772 3097 
Q 1472 3097 1187 3025 
Q 903 2953 641 2809 
L 641 3341 
Q 956 3463 1253 3523 
Q 1550 3584 1831 3584 
Q 2591 3584 2966 3190 
Q 3341 2797 3341 1997 
z
" transform="scale(0.015625)"/>
       <path id="DejaVuSans-67" d="M 2906 1791 
Q 2906 2416 2648 2759 
Q 2391 3103 1925 3103 
Q 1463 3103 1205 2759 
Q 947 2416 947 1791 
Q 947 1169 1205 825 
Q 1463 481 1925 481 
Q 2391 481 2648 825 
Q 2906 1169 2906 1791 
z
M 3481 434 
Q 3481 -459 3084 -895 
Q 2688 -1331 1869 -1331 
Q 1566 -1331 1297 -1286 
Q 1028 -1241 775 -1147 
L 775 -588 
Q 1028 -725 1275 -790 
Q 1522 -856 1778 -856 
Q 2344 -856 2625 -561 
Q 2906 -266 2906 331 
L 2906 616 
Q 2728 306 2450 153 
Q 2172 0 1784 0 
Q 1141 0 747 490 
Q 353 981 353 1791 
Q 353 2603 747 3093 
Q 1141 3584 1784 3584 
Q 2172 3584 2450 3431 
Q 2728 3278 2906 2969 
L 2906 3500 
L 3481 3500 
L 3481 434 
z
" transform="scale(0.015625)"/>
       <path id="DejaVuSans-74" d="M 1172 4494 
L 1172 3500 
L 2356 3500 
L 2356 3053 
L 1172 3053 
L 1172 1153 
Q 1172 725 1289 603 
Q 1406 481 1766 481 
L 2356 481 
L 2356 0 
L 1766 0 
Q 1100 0 847 248 
Q 594 497 594 1153 
L 594 3053 
L 172 3053 
L 172 3500 
L 594 3500 
L 594 4494 
L 1172 4494 
z
" transform="scale(0.015625)"/>
       <path id="DejaVuSans-63" d="M 3122 3366 
L 3122 2828 
Q 2878 2963 2633 3030 
Q 2388 3097 2138 3097 
Q 1578 3097 1268 2742 
Q 959 2388 959 1747 
Q 959 1106 1268 751 
Q 1578 397 2138 397 
Q 2388 397 2633 464 
Q 2878 531 3122 666 
L 3122 134 
Q 2881 22 2623 -34 
Q 2366 -91 2075 -91 
Q 1284 -91 818 406 
Q 353 903 353 1747 
Q 353 2603 823 3093 
Q 1294 3584 2113 3584 
Q 2378 3584 2631 3529 
Q 2884 3475 3122 3366 
z
" transform="scale(0.015625)"/>
       <path id="DejaVuSans-46" d="M 628 4666 
L 3309 4666 
L 3309 4134 
L 1259 4134 
L 1259 2759 
L 3109 2759 
L 3109 2228 
L 1259 2228 
L 1259 0 
L 628 0 
L 628 4666 
z
" transform="scale(0.015625)"/>
       <path id="DejaVuSans-6c" d="M 603 4863 
L 1178 4863 
L 1178 0 
L 603 0 
L 603 4863 
z
" transform="scale(0.015625)"/>
       <path id="DejaVuSans-64" d="M 2906 2969 
L 2906 4863 
L 3481 4863 
L 3481 0 
L 2906 0 
L 2906 525 
Q 2725 213 2448 61 
Q 2172 -91 1784 -91 
Q 1150 -91 751 415 
Q 353 922 353 1747 
Q 353 2572 751 3078 
Q 1150 3584 1784 3584 
Q 2172 3584 2448 3432 
Q 2725 3281 2906 2969 
z
M 947 1747 
Q 947 1113 1208 752 
Q 1469 391 1925 391 
Q 2381 391 2643 752 
Q 2906 1113 2906 1747 
Q 2906 2381 2643 2742 
Q 2381 3103 1925 3103 
Q 1469 3103 1208 2742 
Q 947 2381 947 1747 
z
" transform="scale(0.015625)"/>
      </defs>
      <use xlink:href="#DejaVuSans-4d"/>
      <use xlink:href="#DejaVuSans-61" transform="translate(86.279297 0)"/>
      <use xlink:href="#DejaVuSans-67" transform="translate(147.558594 0)"/>
      <use xlink:href="#DejaVuSans-6e" transform="translate(211.035156 0)"/>
      <use xlink:href="#DejaVuSans-65" transform="translate(274.414062 0)"/>
      <use xlink:href="#DejaVuSans-74" transform="translate(335.9375 0)"/>
      <use xlink:href="#DejaVuSans-69" transform="translate(375.146484 0)"/>
      <use xlink:href="#DejaVuSans-63" transform="translate(402.929688 0)"/>
      <use xlink:href="#DejaVuSans-20" transform="translate(457.910156 0)"/>
      <use xlink:href="#DejaVuSans-46" transform="translate(489.697266 0)"/>
      <use xlink:href="#DejaVuSans-69" transform="translate(539.966797 0)"/>
      <use xlink:href="#DejaVuSans-65" transform="translate(567.75 0)"/>
      <use xlink:href="#DejaVuSans-6c" transform="translate(629.273438 0)"/>
      <use xlink:href="#DejaVuSans-64" transform="translate(657.056641 0)"/>
      <use xlink:href="#DejaVuSans-20" transform="translate(720.533203 0)"/>
      <use xlink:href="#DejaVuSans-5b" transform="translate(752.320312 0)"/>
      <use xlink:href="#DejaVuSans-6e" transform="translate(791.333984 0)"/>
      <use xlink:href="#DejaVuSans-54" transform="translate(854.712891 0)"/>
      <use xlink:href="#DejaVuSans-5d" transform="translate(915.796875 0)"/>
     </g>
    </g>
   </g>
   <g id="line2d_25">
    <path d="M 82.903317 108.100006 
L 84.428539 86.512898 
L 85.953761 73.686176 
L 87.478984 69.21922 
L 89.004206 68.897327 
L 90.529428 70.429481 
L 93.579873 74.816241 
L 95.105095 76.65326 
L 96.630317 77.977872 
L 98.15554 78.756058 
L 99.680762 79.016043 
L 101.205984 78.808341 
L 102.731207 78.184418 
L 104.256429 77.188287 
L 105.781651 75.855191 
L 107.306874 74.213379 
L 108.832096 72.286804 
L 110.357318 70.097779 
L 111.88254 67.66922 
L 114.932985 62.198052 
L 117.98343 56.121266 
L 125.609541 40.42677 
L 128.659986 34.855408 
L 130.185208 32.362372 
L 131.71043 30.092202 
L 133.235653 28.055981 
L 134.760875 26.257429 
L 136.286097 24.693866 
L 137.81132 23.357511 
L 139.336542 22.236931 
L 140.861764 21.31846 
L 142.386987 20.587409 
L 143.912209 20.02898 
L 145.437431 19.628853 
L 146.962653 19.373474 
L 148.487876 19.250144 
L 151.53832 19.353181 
L 154.588765 19.854946 
L 157.63921 20.693853 
L 160.689654 21.840092 
L 163.740099 23.300587 
L 166.790543 25.110016 
L 169.840988 27.309626 
L 172.891433 29.925413 
L 175.941877 32.957491 
L 178.992322 36.382435 
L 182.042766 40.159369 
L 186.618433 46.346153 
L 195.769767 59.10568 
L 198.820212 62.836232 
L 201.870656 66.013561 
L 203.395879 67.355759 
L 204.921101 68.519609 
L 206.446323 69.498761 
L 207.971545 70.289976 
L 209.496768 70.892929 
L 211.02199 71.310077 
L 212.547212 71.546616 
L 214.072435 71.610509 
L 215.597657 71.512531 
L 217.122879 71.26626 
L 220.173324 70.396013 
L 223.223768 69.153221 
L 227.799435 66.94866 
L 235.425547 63.284831 
L 241.526436 60.346941 
L 244.576881 58.661628 
L 247.627325 56.763032 
L 252.202992 53.604951 
L 256.778659 50.422044 
L 259.829104 48.511389 
L 262.879548 46.877324 
L 265.929993 45.542507 
L 268.980437 44.472035 
L 273.556104 43.200192 
L 288.808327 39.437525 
L 291.858772 38.997892 
L 293.383994 38.93927 
L 294.909217 39.025015 
L 296.434439 39.281597 
L 297.959661 39.732711 
L 299.484884 40.397931 
L 301.010106 41.291591 
L 302.535328 42.421941 
L 304.06055 43.790598 
L 305.585773 45.392251 
L 307.110995 47.214631 
L 310.16144 51.438965 
L 313.211884 56.237944 
L 320.837996 68.640683 
L 323.88844 72.842233 
L 325.413663 74.62232 
L 326.938885 76.148461 
L 328.464107 77.397252 
L 329.98933 78.350691 
L 331.514552 78.995889 
L 333.039774 79.32459 
L 334.564996 79.332585 
L 336.090219 79.019137 
L 337.615441 78.386472 
L 339.140663 77.439441 
L 340.665886 76.185361 
L 342.191108 74.634074 
L 343.71633 72.7982 
L 345.241553 70.693534 
L 346.766775 68.339531 
L 349.817219 62.982361 
L 352.867664 56.969991 
L 360.493776 41.222451 
L 363.54422 35.557163 
L 365.069442 33.007153 
L 366.594665 30.675941 
L 368.119887 28.576584 
L 369.645109 26.71463 
L 371.170332 25.088948 
L 372.695554 23.692956 
L 374.220776 22.516046 
L 375.745999 21.545016 
L 377.271221 20.765351 
L 378.796443 20.162217 
L 380.321665 19.721134 
L 381.846888 19.42833 
L 383.37211 19.270882 
L 384.897332 19.236725 
L 387.947777 19.494512 
L 387.947777 19.494512 
" clip-path="url(#p8751974420)" style="fill: none; stroke: #2b737e; stroke-width: 1.5; stroke-linecap: square"/>
   </g>
   <g id="line2d_26">
    <path d="M 82.903317 66.213465 
L 84.428539 54.913911 
L 85.953761 59.391375 
L 89.004206 73.545226 
L 90.529428 79.978329 
L 92.054651 85.668641 
L 93.579873 90.76584 
L 96.630317 99.874241 
L 99.680762 108.074112 
L 102.731207 115.44697 
L 105.781651 121.859425 
L 107.306874 124.646994 
L 108.832096 127.121001 
L 110.357318 129.255209 
L 111.88254 131.024417 
L 113.407763 132.405745 
L 114.932985 133.38 
L 116.458207 133.933056 
L 117.98343 134.057152 
L 119.508652 133.752011 
L 121.033874 133.025674 
L 122.559097 131.894928 
L 124.084319 130.385223 
L 125.609541 128.530021 
L 127.134763 126.369571 
L 128.659986 123.949175 
L 131.71043 118.522227 
L 136.286097 109.616131 
L 142.386987 97.805799 
L 145.437431 92.29221 
L 148.487876 87.124711 
L 151.53832 82.313959 
L 154.588765 77.844651 
L 157.63921 73.68556 
L 160.689654 69.80612 
L 163.740099 66.199202 
L 166.790543 62.899093 
L 169.840988 59.982738 
L 172.891433 57.552948 
L 174.416655 56.553868 
L 175.941877 55.715147 
L 177.467099 55.047914 
L 178.992322 54.56238 
L 180.517544 54.268029 
L 182.042766 54.173757 
L 183.567989 54.287858 
L 185.093211 54.617744 
L 186.618433 55.169402 
L 188.143656 55.94662 
L 189.668878 56.950119 
L 191.1941 58.176717 
L 192.719322 59.618704 
L 194.244545 61.263548 
L 197.294989 65.088579 
L 200.345434 69.46826 
L 204.921101 76.590894 
L 209.496768 83.704087 
L 212.547212 88.099534 
L 215.597657 92.009181 
L 217.122879 93.735081 
L 218.648102 95.289031 
L 220.173324 96.661321 
L 221.698546 97.846906 
L 223.223768 98.845876 
L 224.748991 99.663596 
L 226.274213 100.310466 
L 227.799435 100.801255 
L 229.324658 101.154051 
L 232.375102 101.526227 
L 235.425547 101.58227 
L 238.475991 101.434744 
L 241.526436 101.119589 
L 244.576881 100.590551 
L 247.627325 99.745538 
L 250.67777 98.475315 
L 253.728214 96.714511 
L 256.778659 94.473278 
L 259.829104 91.837278 
L 264.404771 87.436889 
L 273.556104 78.46949 
L 287.283105 65.484388 
L 296.434439 56.215511 
L 297.959661 54.863596 
L 299.484884 53.66048 
L 301.010106 52.647942 
L 302.535328 51.8676 
L 304.06055 51.359298 
L 305.585773 51.159614 
L 307.110995 51.300528 
L 308.636217 51.808281 
L 310.16144 52.702401 
L 311.686662 53.994932 
L 313.211884 55.689847 
L 314.737107 57.782686 
L 316.262329 60.260454 
L 317.787551 63.101812 
L 319.312773 66.277601 
L 322.363218 73.482129 
L 325.413663 81.523569 
L 334.564996 106.730856 
L 337.615441 114.294019 
L 340.665886 120.945519 
L 342.191108 123.853374 
L 343.71633 126.445294 
L 345.241553 128.695158 
L 346.766775 130.578686 
L 348.291997 132.074055 
L 349.817219 133.162791 
L 351.342442 133.830867 
L 352.867664 134.069904 
L 354.392886 133.87834 
L 355.918109 133.262419 
L 357.443331 132.236822 
L 358.968553 130.824816 
L 360.493776 129.057833 
L 362.018998 126.974436 
L 363.54422 124.618735 
L 366.594665 119.282309 
L 371.170332 110.423073 
L 377.271221 98.567185 
L 380.321665 93.010047 
L 383.37211 87.795 
L 386.422555 82.936954 
L 387.947777 80.638772 
L 387.947777 80.638772 
" clip-path="url(#p8751974420)" style="fill: none; stroke: #5ea04b; stroke-width: 1.5; stroke-linecap: square"/>
   </g>
   <g id="line2d_27">
    <path d="M 82.903317 46.049588 
L 84.428539 33.926246 
L 85.953761 29.569132 
L 87.478984 27.66892 
L 89.004206 26.736163 
L 90.529428 26.587858 
L 92.054651 27.090886 
L 93.579873 28.104122 
L 95.105095 29.517487 
L 96.630317 31.251111 
L 98.15554 33.247599 
L 101.205984 37.882719 
L 104.256429 43.224918 
L 107.306874 49.129346 
L 111.88254 58.631503 
L 116.458207 68.128538 
L 119.508652 73.948113 
L 122.559097 79.014245 
L 124.084319 81.190225 
L 125.609541 83.099849 
L 127.134763 84.730524 
L 128.659986 86.076983 
L 130.185208 87.141114 
L 131.71043 87.931352 
L 133.235653 88.461677 
L 134.760875 88.750325 
L 136.286097 88.818366 
L 137.81132 88.688292 
L 139.336542 88.382761 
L 140.861764 87.923609 
L 143.912209 86.62388 
L 146.962653 84.928481 
L 150.013098 82.945027 
L 154.588765 79.587293 
L 159.164432 75.856654 
L 162.214876 73.140168 
L 165.265321 70.198483 
L 168.315766 67.007866 
L 172.891433 61.78696 
L 180.517544 52.473684 
L 185.093211 47.071443 
L 188.143656 43.815564 
L 191.1941 41.016234 
L 192.719322 39.836404 
L 194.244545 38.826194 
L 195.769767 37.999492 
L 197.294989 37.36659 
L 198.820212 36.933787 
L 200.345434 36.70332 
L 201.870656 36.673609 
L 203.395879 36.839733 
L 204.921101 37.194038 
L 206.446323 37.726769 
L 207.971545 38.426605 
L 209.496768 39.28105 
L 212.547212 41.399065 
L 215.597657 43.962414 
L 218.648102 46.838507 
L 230.84988 58.847074 
L 235.425547 62.896437 
L 244.576881 70.585021 
L 249.152548 74.284228 
L 252.202992 76.539323 
L 255.253437 78.496786 
L 258.303881 80.068752 
L 261.354326 81.212243 
L 264.404771 81.931017 
L 267.455215 82.26081 
L 270.50566 82.248174 
L 273.556104 81.932242 
L 276.606549 81.332261 
L 279.656994 80.438162 
L 282.707438 79.20214 
L 285.757883 77.534847 
L 287.283105 76.50197 
L 288.808327 75.314105 
L 290.33355 73.955231 
L 291.858772 72.411459 
L 293.383994 70.672468 
L 294.909217 68.732826 
L 296.434439 66.593083 
L 299.484884 61.749621 
L 302.535328 56.285587 
L 311.686662 39.026002 
L 313.211884 36.496276 
L 314.737107 34.188821 
L 316.262329 32.144358 
L 317.787551 30.398733 
L 319.312773 28.981918 
L 320.837996 27.917251 
L 322.363218 27.220946 
L 323.88844 26.901932 
L 325.413663 26.962019 
L 326.938885 27.396365 
L 328.464107 28.194195 
L 329.98933 29.339688 
L 331.514552 30.812949 
L 333.039774 32.590953 
L 334.564996 34.648393 
L 336.090219 36.95836 
L 339.140663 42.222871 
L 342.191108 48.15015 
L 346.766775 57.73396 
L 351.342442 67.321214 
L 354.392886 73.222516 
L 357.443331 78.398681 
L 358.968553 80.63981 
L 360.493776 82.619704 
L 362.018998 84.323973 
L 363.54422 85.745348 
L 365.069442 86.883725 
L 366.594665 87.745727 
L 368.119887 88.343837 
L 369.645109 88.695185 
L 371.170332 88.820154 
L 372.695554 88.740941 
L 374.220776 88.480247 
L 375.745999 88.060195 
L 377.271221 87.501565 
L 380.321665 86.042478 
L 383.37211 84.230739 
L 386.422555 82.162537 
L 387.947777 81.053677 
L 387.947777 81.053677 
" clip-path="url(#p8751974420)" style="fill: none; stroke: #bdab62; stroke-width: 1.5; stroke-linecap: square"/>
   </g>
   <g id="patch_3">
    <path d="M 67.651094 139.811562 
L 67.651094 13.495066 
" style="fill: none; stroke: #000000; stroke-width: 0.8; stroke-linejoin: miter; stroke-linecap: square"/>
   </g>
   <g id="patch_4">
    <path d="M 403.2 139.811562 
L 403.2 13.495066 
" style="fill: none; stroke: #000000; stroke-width: 0.8; stroke-linejoin: miter; stroke-linecap: square"/>
   </g>
   <g id="patch_5">
    <path d="M 67.651094 139.811563 
L 403.2 139.811563 
" style="fill: none; stroke: #000000; stroke-width: 0.8; stroke-linejoin: miter; stroke-linecap: square"/>
   </g>
   <g id="patch_6">
    <path d="M 67.651094 13.495066 
L 403.2 13.495066 
" style="fill: none; stroke: #000000; stroke-width: 0.8; stroke-linejoin: miter; stroke-linecap: square"/>
   </g>
   <g id="legend_1">
    <g id="patch_7">
     <path d="M 333.72 135.311562 
L 396.9 135.311562 
Q 398.7 135.311562 398.7 133.511562 
L 398.7 93.915781 
Q 398.7 92.115781 396.9 92.115781 
L 333.72 92.115781 
Q 331.92 92.115781 331.92 93.915781 
L 331.92 133.511562 
Q 331.92 135.311562 333.72 135.311562 
z
" style="fill: #ffffff; opacity: 0.8; stroke: #cccccc; stroke-linejoin: miter"/>
    </g>
    <g id="line2d_28">
     <path d="M 335.52 99.404375 
L 344.52 99.404375 
L 353.52 99.404375 
" style="fill: none; stroke: #2b737e; stroke-width: 1.5; stroke-linecap: square"/>
    </g>
    <g id="text_15">
     <!-- $TAM\_B_{0}$ -->
     <g transform="translate(360.72 102.554375) scale(0.09 -0.09)">
      <defs>
       <path id="DejaVuSans-Oblique-54" d="M 378 4666 
L 4325 4666 
L 4225 4134 
L 2559 4134 
L 1759 0 
L 1125 0 
L 1925 4134 
L 275 4134 
L 378 4666 
z
" transform="scale(0.015625)"/>
       <path id="DejaVuSans-Oblique-41" d="M 2356 4666 
L 3072 4666 
L 3938 0 
L 3278 0 
L 3084 1197 
L 984 1197 
L 325 0 
L -341 0 
L 2356 4666 
z
M 2584 4044 
L 1275 1722 
L 2988 1722 
L 2584 4044 
z
" transform="scale(0.015625)"/>
       <path id="DejaVuSans-Oblique-4d" d="M 1081 4666 
L 2028 4666 
L 2572 1522 
L 4378 4666 
L 5350 4666 
L 4441 0 
L 3828 0 
L 4622 4091 
L 2791 897 
L 2175 897 
L 1581 4103 
L 788 0 
L 172 0 
L 1081 4666 
z
" transform="scale(0.015625)"/>
       <path id="DejaVuSans-5f" d="M 3263 -1063 
L 3263 -1509 
L -63 -1509 
L -63 -1063 
L 3263 -1063 
z
" transform="scale(0.015625)"/>
       <path id="DejaVuSans-Oblique-42" d="M 1081 4666 
L 2694 4666 
Q 3350 4666 3675 4422 
Q 4000 4178 4000 3688 
Q 4000 3238 3720 2911 
Q 3441 2584 2988 2516 
Q 3375 2428 3569 2181 
Q 3763 1934 3763 1522 
Q 3763 819 3242 409 
Q 2722 0 1819 0 
L 172 0 
L 1081 4666 
z
M 1234 2228 
L 903 519 
L 1919 519 
Q 2491 519 2800 781 
Q 3109 1044 3109 1522 
Q 3109 1891 2904 2059 
Q 2700 2228 2247 2228 
L 1234 2228 
z
M 1606 4147 
L 1331 2741 
L 2272 2741 
Q 2775 2741 3058 2959 
Q 3341 3178 3341 3566 
Q 3341 3869 3150 4008 
Q 2959 4147 2541 4147 
L 1606 4147 
z
" transform="scale(0.015625)"/>
      </defs>
      <use xlink:href="#DejaVuSans-Oblique-54" transform="translate(0 0.09375)"/>
      <use xlink:href="#DejaVuSans-Oblique-41" transform="translate(61.083984 0.09375)"/>
      <use xlink:href="#DejaVuSans-Oblique-4d" transform="translate(129.492188 0.09375)"/>
      <use xlink:href="#DejaVuSans-5f" transform="translate(215.771484 0.09375)"/>
      <use xlink:href="#DejaVuSans-Oblique-42" transform="translate(265.771484 0.09375)"/>
      <use xlink:href="#DejaVuSans-30" transform="translate(334.375 -16.3125) scale(0.7)"/>
     </g>
    </g>
    <g id="line2d_29">
     <path d="M 335.52 112.902969 
L 344.52 112.902969 
L 353.52 112.902969 
" style="fill: none; stroke: #5ea04b; stroke-width: 1.5; stroke-linecap: square"/>
    </g>
    <g id="text_16">
     <!-- $TAM\_B_{1}$ -->
     <g transform="translate(360.72 116.052969) scale(0.09 -0.09)">
      <use xlink:href="#DejaVuSans-Oblique-54" transform="translate(0 0.09375)"/>
      <use xlink:href="#DejaVuSans-Oblique-41" transform="translate(61.083984 0.09375)"/>
      <use xlink:href="#DejaVuSans-Oblique-4d" transform="translate(129.492188 0.09375)"/>
      <use xlink:href="#DejaVuSans-5f" transform="translate(215.771484 0.09375)"/>
      <use xlink:href="#DejaVuSans-Oblique-42" transform="translate(265.771484 0.09375)"/>
      <use xlink:href="#DejaVuSans-31" transform="translate(334.375 -16.3125) scale(0.7)"/>
     </g>
    </g>
    <g id="line2d_30">
     <path d="M 335.52 126.401562 
L 344.52 126.401562 
L 353.52 126.401562 
" style="fill: none; stroke: #bdab62; stroke-width: 1.5; stroke-linecap: square"/>
    </g>
    <g id="text_17">
     <!-- $TAM\_B_{2}$ -->
     <g transform="translate(360.72 129.551562) scale(0.09 -0.09)">
      <use xlink:href="#DejaVuSans-Oblique-54" transform="translate(0 0.09375)"/>
      <use xlink:href="#DejaVuSans-Oblique-41" transform="translate(61.083984 0.09375)"/>
      <use xlink:href="#DejaVuSans-Oblique-4d" transform="translate(129.492188 0.09375)"/>
      <use xlink:href="#DejaVuSans-5f" transform="translate(215.771484 0.09375)"/>
      <use xlink:href="#DejaVuSans-Oblique-42" transform="translate(265.771484 0.09375)"/>
      <use xlink:href="#DejaVuSans-32" transform="translate(334.375 -16.3125) scale(0.7)"/>
     </g>
    </g>
   </g>
  </g>
 </g>
 <defs>
  <clipPath id="p8751974420">
   <rect x="67.651094" y="13.495066" width="335.548906" height="126.316496"/>
  </clipPath>
 </defs>
</svg>
