<?xml version="1.0" encoding="utf-8" standalone="no"?>
<!DOCTYPE svg PUBLIC "-//W3C//DTD SVG 1.1//EN"
  "http://www.w3.org/Graphics/SVG/1.1/DTD/svg11.dtd">
<svg xmlns:xlink="http://www.w3.org/1999/xlink" width="504pt" height="432pt" viewBox="0 0 504 432" xmlns="http://www.w3.org/2000/svg" version="1.1">
 <metadata>
  <rdf:RDF xmlns:dc="http://purl.org/dc/elements/1.1/" xmlns:cc="http://creativecommons.org/ns#" xmlns:rdf="http://www.w3.org/1999/02/22-rdf-syntax-ns#">
   <cc:Work>
    <dc:type rdf:resource="http://purl.org/dc/dcmitype/StillImage"/>
    <dc:date>2026-01-26T15:36:17.282167</dc:date>
    <dc:format>image/svg+xml</dc:format>
    <dc:creator>
     <cc:Agent>
      <dc:title>Matplotlib v3.10.7, https://matplotlib.org/</dc:title>
     </cc:Agent>
    </dc:creator>
   </cc:Work>
  </rdf:RDF>
 </metadata>
 <defs>
  <style type="text/css">*{stroke-linejoin: round; stroke-linecap: butt}</style>
 </defs>
 <g id="figure_1">
  <g id="patch_1">
   <path d="M 0 432 
L 504 432 
L 504 0 
L 0 0 
L 0 432 
z
" style="fill: none"/>
  </g>
  <g id="axes_1">
   <g id="patch_2">
    <path d="M 118.854688 362.623125 
L 482.4 362.623125 
L 482.4 21.6 
L 118.854688 21.6 
L 118.854688 362.623125 
z
" style="fill: none"/>
   </g>
   <g id="matplotlib.axis_1">
    <g id="xtick_1">
     <g id="line2d_1">
      <defs>
       <path id="m659b08d27c" d="M 0 0 
L 0 3.5 
" style="stroke: #000000; stroke-width: 0.8"/>
      </defs>
      <g>
       <use xlink:href="#m659b08d27c" x="118.854688" y="362.623125" style="stroke: #000000; stroke-width: 0.8"/>
      </g>
     </g>
     <g id="text_1">
      <!-- 0 -->
      <g transform="translate(113.128438 383.300313) scale(0.18 -0.18)">
       <defs>
        <path id="DejaVuSerif-30" d="M 2034 219 
Q 2513 219 2750 744 
Q 2988 1269 2988 2328 
Q 2988 3391 2750 3916 
Q 2513 4441 2034 4441 
Q 1556 4441 1318 3916 
Q 1081 3391 1081 2328 
Q 1081 1269 1318 744 
Q 1556 219 2034 219 
z
M 2034 -91 
Q 1275 -91 848 546 
Q 422 1184 422 2328 
Q 422 3475 848 4112 
Q 1275 4750 2034 4750 
Q 2797 4750 3222 4112 
Q 3647 3475 3647 2328 
Q 3647 1184 3222 546 
Q 2797 -91 2034 -91 
z
" transform="scale(0.015625)"/>
       </defs>
       <use xlink:href="#DejaVuSerif-30"/>
      </g>
     </g>
    </g>
    <g id="xtick_2">
     <g id="line2d_2">
      <g>
       <use xlink:href="#m659b08d27c" x="194.593294" y="362.623125" style="stroke: #000000; stroke-width: 0.8"/>
      </g>
     </g>
     <g id="text_2">
      <!-- 50 -->
      <g transform="translate(183.140794 383.300313) scale(0.18 -0.18)">
       <defs>
        <path id="DejaVuSerif-35" d="M 3219 4666 
L 3219 4153 
L 1081 4153 
L 1081 2816 
Q 1244 2928 1461 2984 
Q 1678 3041 1947 3041 
Q 2703 3041 3140 2622 
Q 3578 2203 3578 1478 
Q 3578 738 3136 323 
Q 2694 -91 1894 -91 
Q 1572 -91 1234 -12 
Q 897 66 544 225 
L 544 1131 
L 897 1131 
Q 925 688 1179 453 
Q 1434 219 1894 219 
Q 2388 219 2653 544 
Q 2919 869 2919 1478 
Q 2919 2084 2655 2407 
Q 2391 2731 1894 2731 
Q 1613 2731 1398 2631 
Q 1184 2531 1019 2322 
L 750 2322 
L 750 4666 
L 3219 4666 
z
" transform="scale(0.015625)"/>
       </defs>
       <use xlink:href="#DejaVuSerif-35"/>
       <use xlink:href="#DejaVuSerif-30" transform="translate(63.623047 0)"/>
      </g>
     </g>
    </g>
    <g id="xtick_3">
     <g id="line2d_3">
      <g>
       <use xlink:href="#m659b08d27c" x="270.331901" y="362.623125" style="stroke: #000000; stroke-width: 0.8"/>
      </g>
     </g>
     <g id="text_3">
      <!-- 100 -->
      <g transform="translate(253.153151 383.300313) scale(0.18 -0.18)">
       <defs>
        <path id="DejaVuSerif-31" d="M 909 0 
L 909 331 
L 1722 331 
L 1722 4213 
L 781 3603 
L 781 4013 
L 1919 4750 
L 2350 4750 
L 2350 331 
L 3163 331 
L 3163 0 
L 909 0 
z
" transform="scale(0.015625)"/>
       </defs>
       <use xlink:href="#DejaVuSerif-31"/>
       <use xlink:href="#DejaVuSerif-30" transform="translate(63.623047 0)"/>
       <use xlink:href="#DejaVuSerif-30" transform="translate(127.246094 0)"/>
      </g>
     </g>
    </g>
    <g id="xtick_4">
     <g id="line2d_4">
      <g>
       <use xlink:href="#m659b08d27c" x="346.070508" y="362.623125" style="stroke: #000000; stroke-width: 0.8"/>
      </g>
     </g>
     <g id="text_4">
      <!-- 150 -->
      <g transform="translate(328.891758 383.300313) scale(0.18 -0.18)">
       <use xlink:href="#DejaVuSerif-31"/>
       <use xlink:href="#DejaVuSerif-35" transform="translate(63.623047 0)"/>
       <use xlink:href="#DejaVuSerif-30" transform="translate(127.246094 0)"/>
      </g>
     </g>
    </g>
    <g id="xtick_5">
     <g id="line2d_5">
      <g>
       <use xlink:href="#m659b08d27c" x="421.809115" y="362.623125" style="stroke: #000000; stroke-width: 0.8"/>
      </g>
     </g>
     <g id="text_5">
      <!-- 200 -->
      <g transform="translate(404.630365 383.300313) scale(0.18 -0.18)">
       <defs>
        <path id="DejaVuSerif-32" d="M 819 3553 
L 469 3553 
L 469 4384 
Q 803 4563 1142 4656 
Q 1481 4750 1806 4750 
Q 2534 4750 2956 4397 
Q 3378 4044 3378 3438 
Q 3378 2753 2422 1800 
Q 2347 1728 2309 1691 
L 1131 513 
L 3078 513 
L 3078 1088 
L 3444 1088 
L 3444 0 
L 434 0 
L 434 341 
L 1850 1753 
Q 2319 2222 2519 2614 
Q 2719 3006 2719 3438 
Q 2719 3909 2473 4175 
Q 2228 4441 1797 4441 
Q 1350 4441 1106 4219 
Q 863 3997 819 3553 
z
" transform="scale(0.015625)"/>
       </defs>
       <use xlink:href="#DejaVuSerif-32"/>
       <use xlink:href="#DejaVuSerif-30" transform="translate(63.623047 0)"/>
       <use xlink:href="#DejaVuSerif-30" transform="translate(127.246094 0)"/>
      </g>
     </g>
    </g>
    <g id="text_6">
     <!-- Time [min] -->
     <g transform="translate(245.253906 406.240625) scale(0.2 -0.2)">
      <defs>
       <path id="DejaVuSerif-54" d="M 1222 0 
L 1222 331 
L 1819 331 
L 1819 4294 
L 447 4294 
L 447 3566 
L 63 3566 
L 63 4666 
L 4206 4666 
L 4206 3566 
L 3822 3566 
L 3822 4294 
L 2450 4294 
L 2450 331 
L 3047 331 
L 3047 0 
L 1222 0 
z
" transform="scale(0.015625)"/>
       <path id="DejaVuSerif-69" d="M 622 4353 
Q 622 4497 726 4603 
Q 831 4709 978 4709 
Q 1122 4709 1226 4603 
Q 1331 4497 1331 4353 
Q 1331 4206 1228 4103 
Q 1125 4000 978 4000 
Q 831 4000 726 4103 
Q 622 4206 622 4353 
z
M 1356 331 
L 1900 331 
L 1900 0 
L 231 0 
L 231 331 
L 781 331 
L 781 2988 
L 231 2988 
L 231 3322 
L 1356 3322 
L 1356 331 
z
" transform="scale(0.015625)"/>
       <path id="DejaVuSerif-6d" d="M 3316 2675 
Q 3481 3041 3739 3227 
Q 3997 3413 4341 3413 
Q 4863 3413 5119 3089 
Q 5375 2766 5375 2113 
L 5375 331 
L 5894 331 
L 5894 0 
L 4300 0 
L 4300 331 
L 4800 331 
L 4800 2047 
Q 4800 2556 4650 2772 
Q 4500 2988 4153 2988 
Q 3769 2988 3567 2697 
Q 3366 2406 3366 1850 
L 3366 331 
L 3866 331 
L 3866 0 
L 2291 0 
L 2291 331 
L 2791 331 
L 2791 2069 
Q 2791 2566 2641 2777 
Q 2491 2988 2144 2988 
Q 1759 2988 1557 2697 
Q 1356 2406 1356 1850 
L 1356 331 
L 1856 331 
L 1856 0 
L 263 0 
L 263 331 
L 781 331 
L 781 2994 
L 231 2994 
L 231 3322 
L 1356 3322 
L 1356 2731 
Q 1516 3063 1762 3238 
Q 2009 3413 2322 3413 
Q 2709 3413 2968 3220 
Q 3228 3028 3316 2675 
z
" transform="scale(0.015625)"/>
       <path id="DejaVuSerif-65" d="M 3469 1600 
L 991 1600 
L 991 1575 
Q 991 903 1244 561 
Q 1497 219 1991 219 
Q 2369 219 2611 417 
Q 2853 616 2950 1006 
L 3413 1006 
Q 3275 459 2904 184 
Q 2534 -91 1931 -91 
Q 1203 -91 761 389 
Q 319 869 319 1663 
Q 319 2450 753 2931 
Q 1188 3413 1894 3413 
Q 2647 3413 3050 2948 
Q 3453 2484 3469 1600 
z
M 2791 1931 
Q 2772 2513 2545 2808 
Q 2319 3103 1894 3103 
Q 1497 3103 1269 2806 
Q 1041 2509 991 1931 
L 2791 1931 
z
" transform="scale(0.015625)"/>
       <path id="DejaVuSerif-20" transform="scale(0.015625)"/>
       <path id="DejaVuSerif-5b" d="M 550 4863 
L 2003 4863 
L 2003 4531 
L 1147 4531 
L 1147 -513 
L 2003 -513 
L 2003 -844 
L 550 -844 
L 550 4863 
z
" transform="scale(0.015625)"/>
       <path id="DejaVuSerif-6e" d="M 263 0 
L 263 331 
L 781 331 
L 781 2988 
L 231 2988 
L 231 3322 
L 1356 3322 
L 1356 2731 
Q 1516 3069 1770 3241 
Q 2025 3413 2363 3413 
Q 2913 3413 3172 3097 
Q 3431 2781 3431 2113 
L 3431 331 
L 3944 331 
L 3944 0 
L 2356 0 
L 2356 331 
L 2853 331 
L 2853 1931 
Q 2853 2541 2703 2767 
Q 2553 2994 2175 2994 
Q 1775 2994 1565 2701 
Q 1356 2409 1356 1850 
L 1356 331 
L 1856 331 
L 1856 0 
L 263 0 
z
" transform="scale(0.015625)"/>
       <path id="DejaVuSerif-5d" d="M 1947 4863 
L 1947 -844 
L 494 -844 
L 494 -513 
L 1350 -513 
L 1350 4531 
L 494 4531 
L 494 4863 
L 1947 4863 
z
" transform="scale(0.015625)"/>
      </defs>
      <use xlink:href="#DejaVuSerif-54"/>
      <use xlink:href="#DejaVuSerif-69" transform="translate(66.699219 0)"/>
      <use xlink:href="#DejaVuSerif-6d" transform="translate(98.681641 0)"/>
      <use xlink:href="#DejaVuSerif-65" transform="translate(193.505859 0)"/>
      <use xlink:href="#DejaVuSerif-20" transform="translate(252.685547 0)"/>
      <use xlink:href="#DejaVuSerif-5b" transform="translate(284.472656 0)"/>
      <use xlink:href="#DejaVuSerif-6d" transform="translate(323.486328 0)"/>
      <use xlink:href="#DejaVuSerif-69" transform="translate(418.310547 0)"/>
      <use xlink:href="#DejaVuSerif-6e" transform="translate(450.292969 0)"/>
      <use xlink:href="#DejaVuSerif-5d" transform="translate(514.697266 0)"/>
     </g>
    </g>
   </g>
   <g id="matplotlib.axis_2">
    <g id="ytick_1">
     <g id="line2d_6">
      <defs>
       <path id="m6c828c6a09" d="M 0 0 
L -3.5 0 
" style="stroke: #000000; stroke-width: 0.8"/>
      </defs>
      <g>
       <use xlink:href="#m6c828c6a09" x="118.854688" y="349.960758" style="stroke: #000000; stroke-width: 0.8"/>
      </g>
     </g>
     <g id="text_7">
      <!-- −0.015 -->
      <g transform="translate(45.240625 356.799352) scale(0.18 -0.18)">
       <defs>
        <path id="DejaVuSerif-2212" d="M 678 2259 
L 4684 2259 
L 4684 1753 
L 678 1753 
L 678 2259 
z
" transform="scale(0.015625)"/>
        <path id="DejaVuSerif-2e" d="M 603 325 
Q 603 500 722 622 
Q 841 744 1019 744 
Q 1191 744 1312 622 
Q 1434 500 1434 325 
Q 1434 153 1312 31 
Q 1191 -91 1019 -91 
Q 841 -91 722 29 
Q 603 150 603 325 
z
" transform="scale(0.015625)"/>
       </defs>
       <use xlink:href="#DejaVuSerif-2212"/>
       <use xlink:href="#DejaVuSerif-30" transform="translate(83.789062 0)"/>
       <use xlink:href="#DejaVuSerif-2e" transform="translate(147.412109 0)"/>
       <use xlink:href="#DejaVuSerif-30" transform="translate(179.199219 0)"/>
       <use xlink:href="#DejaVuSerif-31" transform="translate(242.822266 0)"/>
       <use xlink:href="#DejaVuSerif-35" transform="translate(306.445312 0)"/>
      </g>
     </g>
    </g>
    <g id="ytick_2">
     <g id="line2d_7">
      <g>
       <use xlink:href="#m6c828c6a09" x="118.854688" y="297.585868" style="stroke: #000000; stroke-width: 0.8"/>
      </g>
     </g>
     <g id="text_8">
      <!-- −0.010 -->
      <g transform="translate(45.240625 304.424461) scale(0.18 -0.18)">
       <use xlink:href="#DejaVuSerif-2212"/>
       <use xlink:href="#DejaVuSerif-30" transform="translate(83.789062 0)"/>
       <use xlink:href="#DejaVuSerif-2e" transform="translate(147.412109 0)"/>
       <use xlink:href="#DejaVuSerif-30" transform="translate(179.199219 0)"/>
       <use xlink:href="#DejaVuSerif-31" transform="translate(242.822266 0)"/>
       <use xlink:href="#DejaVuSerif-30" transform="translate(306.445312 0)"/>
      </g>
     </g>
    </g>
    <g id="ytick_3">
     <g id="line2d_8">
      <g>
       <use xlink:href="#m6c828c6a09" x="118.854688" y="245.210977" style="stroke: #000000; stroke-width: 0.8"/>
      </g>
     </g>
     <g id="text_9">
      <!-- −0.005 -->
      <g transform="translate(45.240625 252.049571) scale(0.18 -0.18)">
       <use xlink:href="#DejaVuSerif-2212"/>
       <use xlink:href="#DejaVuSerif-30" transform="translate(83.789062 0)"/>
       <use xlink:href="#DejaVuSerif-2e" transform="translate(147.412109 0)"/>
       <use xlink:href="#DejaVuSerif-30" transform="translate(179.199219 0)"/>
       <use xlink:href="#DejaVuSerif-30" transform="translate(242.822266 0)"/>
       <use xlink:href="#DejaVuSerif-35" transform="translate(306.445312 0)"/>
      </g>
     </g>
    </g>
    <g id="ytick_4">
     <g id="line2d_9">
      <g>
       <use xlink:href="#m6c828c6a09" x="118.854688" y="192.836086" style="stroke: #000000; stroke-width: 0.8"/>
      </g>
     </g>
     <g id="text_10">
      <!-- 0.000 -->
      <g transform="translate(60.324063 199.67468) scale(0.18 -0.18)">
       <use xlink:href="#DejaVuSerif-30"/>
       <use xlink:href="#DejaVuSerif-2e" transform="translate(63.623047 0)"/>
       <use xlink:href="#DejaVuSerif-30" transform="translate(95.410156 0)"/>
       <use xlink:href="#DejaVuSerif-30" transform="translate(159.033203 0)"/>
       <use xlink:href="#DejaVuSerif-30" transform="translate(222.65625 0)"/>
      </g>
     </g>
    </g>
    <g id="ytick_5">
     <g id="line2d_10">
      <g>
       <use xlink:href="#m6c828c6a09" x="118.854688" y="140.461195" style="stroke: #000000; stroke-width: 0.8"/>
      </g>
     </g>
     <g id="text_11">
      <!-- 0.005 -->
      <g transform="translate(60.324063 147.299789) scale(0.18 -0.18)">
       <use xlink:href="#DejaVuSerif-30"/>
       <use xlink:href="#DejaVuSerif-2e" transform="translate(63.623047 0)"/>
       <use xlink:href="#DejaVuSerif-30" transform="translate(95.410156 0)"/>
       <use xlink:href="#DejaVuSerif-30" transform="translate(159.033203 0)"/>
       <use xlink:href="#DejaVuSerif-35" transform="translate(222.65625 0)"/>
      </g>
     </g>
    </g>
    <g id="ytick_6">
     <g id="line2d_11">
      <g>
       <use xlink:href="#m6c828c6a09" x="118.854688" y="88.086304" style="stroke: #000000; stroke-width: 0.8"/>
      </g>
     </g>
     <g id="text_12">
      <!-- 0.010 -->
      <g transform="translate(60.324063 94.924898) scale(0.18 -0.18)">
       <use xlink:href="#DejaVuSerif-30"/>
       <use xlink:href="#DejaVuSerif-2e" transform="translate(63.623047 0)"/>
       <use xlink:href="#DejaVuSerif-30" transform="translate(95.410156 0)"/>
       <use xlink:href="#DejaVuSerif-31" transform="translate(159.033203 0)"/>
       <use xlink:href="#DejaVuSerif-30" transform="translate(222.65625 0)"/>
      </g>
     </g>
    </g>
    <g id="ytick_7">
     <g id="line2d_12">
      <g>
       <use xlink:href="#m6c828c6a09" x="118.854688" y="35.711413" style="stroke: #000000; stroke-width: 0.8"/>
      </g>
     </g>
     <g id="text_13">
      <!-- 0.015 -->
      <g transform="translate(60.324063 42.550007) scale(0.18 -0.18)">
       <use xlink:href="#DejaVuSerif-30"/>
       <use xlink:href="#DejaVuSerif-2e" transform="translate(63.623047 0)"/>
       <use xlink:href="#DejaVuSerif-30" transform="translate(95.410156 0)"/>
       <use xlink:href="#DejaVuSerif-31" transform="translate(159.033203 0)"/>
       <use xlink:href="#DejaVuSerif-35" transform="translate(222.65625 0)"/>
      </g>
     </g>
    </g>
    <g id="text_14">
     <!-- Rate Tracking Error (rad/s) -->
     <g transform="translate(36.796875 331.519375) rotate(-90) scale(0.2 -0.2)">
      <defs>
       <path id="DejaVuSerif-52" d="M 3066 2316 
Q 3284 2256 3442 2114 
Q 3600 1972 3725 1716 
L 4403 331 
L 4972 331 
L 4972 0 
L 3872 0 
L 3144 1484 
Q 2934 1916 2759 2042 
Q 2584 2169 2278 2169 
L 1581 2169 
L 1581 331 
L 2241 331 
L 2241 0 
L 353 0 
L 353 331 
L 947 331 
L 947 4331 
L 353 4331 
L 353 4666 
L 2719 4666 
Q 3400 4666 3770 4341 
Q 4141 4016 4141 3419 
Q 4141 2938 3870 2661 
Q 3600 2384 3066 2316 
z
M 1581 2503 
L 2503 2503 
Q 2975 2503 3200 2726 
Q 3425 2950 3425 3419 
Q 3425 3888 3200 4109 
Q 2975 4331 2503 4331 
L 1581 4331 
L 1581 2503 
z
" transform="scale(0.015625)"/>
       <path id="DejaVuSerif-61" d="M 2547 1044 
L 2547 1747 
L 1806 1747 
Q 1378 1747 1168 1562 
Q 959 1378 959 997 
Q 959 650 1171 447 
Q 1384 244 1747 244 
Q 2106 244 2326 466 
Q 2547 688 2547 1044 
z
M 3122 2075 
L 3122 331 
L 3634 331 
L 3634 0 
L 2547 0 
L 2547 359 
Q 2356 128 2106 18 
Q 1856 -91 1522 -91 
Q 969 -91 644 203 
Q 319 497 319 997 
Q 319 1513 691 1797 
Q 1063 2081 1741 2081 
L 2547 2081 
L 2547 2309 
Q 2547 2688 2317 2895 
Q 2088 3103 1672 3103 
Q 1328 3103 1125 2947 
Q 922 2791 872 2484 
L 575 2484 
L 575 3156 
Q 875 3284 1158 3348 
Q 1441 3413 1709 3413 
Q 2400 3413 2761 3070 
Q 3122 2728 3122 2075 
z
" transform="scale(0.015625)"/>
       <path id="DejaVuSerif-74" d="M 691 2988 
L 184 2988 
L 184 3322 
L 691 3322 
L 691 4353 
L 1269 4353 
L 1269 3322 
L 2350 3322 
L 2350 2988 
L 1269 2988 
L 1269 878 
Q 1269 456 1350 337 
Q 1431 219 1650 219 
Q 1875 219 1978 351 
Q 2081 484 2088 781 
L 2522 781 
Q 2497 328 2275 118 
Q 2053 -91 1600 -91 
Q 1103 -91 897 129 
Q 691 350 691 878 
L 691 2988 
z
" transform="scale(0.015625)"/>
       <path id="DejaVuSerif-72" d="M 3059 3328 
L 3059 2497 
L 2728 2497 
Q 2713 2744 2591 2866 
Q 2469 2988 2234 2988 
Q 1809 2988 1582 2694 
Q 1356 2400 1356 1850 
L 1356 331 
L 2022 331 
L 2022 0 
L 263 0 
L 263 331 
L 781 331 
L 781 2994 
L 231 2994 
L 231 3322 
L 1356 3322 
L 1356 2731 
Q 1525 3078 1790 3245 
Q 2056 3413 2438 3413 
Q 2578 3413 2733 3391 
Q 2888 3369 3059 3328 
z
" transform="scale(0.015625)"/>
       <path id="DejaVuSerif-63" d="M 3291 997 
Q 3169 466 2822 187 
Q 2475 -91 1925 -91 
Q 1200 -91 759 389 
Q 319 869 319 1663 
Q 319 2459 759 2936 
Q 1200 3413 1925 3413 
Q 2241 3413 2553 3339 
Q 2866 3266 3181 3116 
L 3181 2266 
L 2847 2266 
Q 2781 2703 2561 2903 
Q 2341 3103 1931 3103 
Q 1466 3103 1228 2742 
Q 991 2381 991 1663 
Q 991 944 1227 581 
Q 1463 219 1931 219 
Q 2303 219 2525 412 
Q 2747 606 2828 997 
L 3291 997 
z
" transform="scale(0.015625)"/>
       <path id="DejaVuSerif-6b" d="M 1831 0 
L 219 0 
L 219 331 
L 738 331 
L 738 4531 
L 184 4531 
L 184 4863 
L 1313 4863 
L 1313 1697 
L 2713 2988 
L 2234 2988 
L 2234 3322 
L 3738 3322 
L 3738 2988 
L 3169 2988 
L 2181 2075 
L 3444 331 
L 3922 331 
L 3922 0 
L 2284 0 
L 2284 331 
L 2759 331 
L 1766 1697 
L 1313 1275 
L 1313 331 
L 1831 331 
L 1831 0 
z
" transform="scale(0.015625)"/>
       <path id="DejaVuSerif-67" d="M 3359 2988 
L 3359 72 
Q 3359 -644 2965 -1033 
Q 2572 -1422 1844 -1422 
Q 1516 -1422 1216 -1362 
Q 916 -1303 641 -1184 
L 641 -488 
L 941 -488 
Q 997 -813 1206 -963 
Q 1416 -1113 1806 -1113 
Q 2313 -1113 2548 -827 
Q 2784 -541 2784 72 
L 2784 519 
Q 2616 206 2355 57 
Q 2094 -91 1709 -91 
Q 1097 -91 708 395 
Q 319 881 319 1663 
Q 319 2444 706 2928 
Q 1094 3413 1709 3413 
Q 2094 3413 2355 3264 
Q 2616 3116 2784 2803 
L 2784 3322 
L 3909 3322 
L 3909 2988 
L 3359 2988 
z
M 2784 1825 
Q 2784 2422 2554 2737 
Q 2325 3053 1888 3053 
Q 1444 3053 1217 2703 
Q 991 2353 991 1663 
Q 991 975 1217 622 
Q 1444 269 1888 269 
Q 2325 269 2554 583 
Q 2784 897 2784 1497 
L 2784 1825 
z
" transform="scale(0.015625)"/>
       <path id="DejaVuSerif-45" d="M 353 0 
L 353 331 
L 947 331 
L 947 4331 
L 353 4331 
L 353 4666 
L 4109 4666 
L 4109 3628 
L 3725 3628 
L 3725 4281 
L 1581 4281 
L 1581 2719 
L 3109 2719 
L 3109 3303 
L 3494 3303 
L 3494 1753 
L 3109 1753 
L 3109 2338 
L 1581 2338 
L 1581 384 
L 3775 384 
L 3775 1038 
L 4159 1038 
L 4159 0 
L 353 0 
z
" transform="scale(0.015625)"/>
       <path id="DejaVuSerif-6f" d="M 1925 219 
Q 2388 219 2623 584 
Q 2859 950 2859 1663 
Q 2859 2375 2623 2739 
Q 2388 3103 1925 3103 
Q 1463 3103 1227 2739 
Q 991 2375 991 1663 
Q 991 950 1228 584 
Q 1466 219 1925 219 
z
M 1925 -91 
Q 1200 -91 759 389 
Q 319 869 319 1663 
Q 319 2456 758 2934 
Q 1197 3413 1925 3413 
Q 2653 3413 3092 2934 
Q 3531 2456 3531 1663 
Q 3531 869 3092 389 
Q 2653 -91 1925 -91 
z
" transform="scale(0.015625)"/>
       <path id="DejaVuSerif-28" d="M 2041 -997 
Q 1281 -656 893 83 
Q 506 822 506 1931 
Q 506 3044 893 3783 
Q 1281 4522 2041 4863 
L 2041 4556 
Q 1559 4225 1350 3623 
Q 1141 3022 1141 1931 
Q 1141 844 1350 242 
Q 1559 -359 2041 -691 
L 2041 -997 
z
" transform="scale(0.015625)"/>
       <path id="DejaVuSerif-64" d="M 3359 331 
L 3909 331 
L 3909 0 
L 2784 0 
L 2784 519 
Q 2616 206 2355 57 
Q 2094 -91 1709 -91 
Q 1097 -91 708 395 
Q 319 881 319 1663 
Q 319 2444 706 2928 
Q 1094 3413 1709 3413 
Q 2094 3413 2355 3264 
Q 2616 3116 2784 2803 
L 2784 4531 
L 2241 4531 
L 2241 4863 
L 3359 4863 
L 3359 331 
z
M 2784 1497 
L 2784 1825 
Q 2784 2422 2554 2737 
Q 2325 3053 1888 3053 
Q 1444 3053 1217 2703 
Q 991 2353 991 1663 
Q 991 975 1217 622 
Q 1444 269 1888 269 
Q 2325 269 2554 583 
Q 2784 897 2784 1497 
z
" transform="scale(0.015625)"/>
       <path id="DejaVuSerif-2f" d="M 1656 4666 
L 2156 4666 
L 500 -594 
L 0 -594 
L 1656 4666 
z
" transform="scale(0.015625)"/>
       <path id="DejaVuSerif-73" d="M 359 184 
L 359 959 
L 691 959 
Q 703 588 923 403 
Q 1144 219 1575 219 
Q 1963 219 2166 364 
Q 2369 509 2369 788 
Q 2369 1006 2220 1140 
Q 2072 1275 1594 1428 
L 1178 1569 
Q 750 1706 558 1912 
Q 366 2119 366 2438 
Q 366 2894 700 3153 
Q 1034 3413 1625 3413 
Q 1888 3413 2178 3344 
Q 2469 3275 2778 3144 
L 2778 2419 
L 2447 2419 
Q 2434 2741 2221 2922 
Q 2009 3103 1644 3103 
Q 1281 3103 1095 2975 
Q 909 2847 909 2591 
Q 909 2381 1050 2254 
Q 1191 2128 1613 1997 
L 2069 1856 
Q 2541 1709 2748 1489 
Q 2956 1269 2956 922 
Q 2956 450 2595 179 
Q 2234 -91 1600 -91 
Q 1278 -91 972 -22 
Q 666 47 359 184 
z
" transform="scale(0.015625)"/>
       <path id="DejaVuSerif-29" d="M 453 -997 
L 453 -691 
Q 934 -359 1145 242 
Q 1356 844 1356 1931 
Q 1356 3022 1145 3623 
Q 934 4225 453 4556 
L 453 4863 
Q 1216 4522 1603 3783 
Q 1991 3044 1991 1931 
Q 1991 822 1603 83 
Q 1216 -656 453 -997 
z
" transform="scale(0.015625)"/>
      </defs>
      <use xlink:href="#DejaVuSerif-52"/>
      <use xlink:href="#DejaVuSerif-61" transform="translate(77.542969 0)"/>
      <use xlink:href="#DejaVuSerif-74" transform="translate(137.162109 0)"/>
      <use xlink:href="#DejaVuSerif-65" transform="translate(177.347656 0)"/>
      <use xlink:href="#DejaVuSerif-20" transform="translate(236.527344 0)"/>
      <use xlink:href="#DejaVuSerif-54" transform="translate(268.314453 0)"/>
      <use xlink:href="#DejaVuSerif-72" transform="translate(335.013672 0)"/>
      <use xlink:href="#DejaVuSerif-61" transform="translate(382.816406 0)"/>
      <use xlink:href="#DejaVuSerif-63" transform="translate(442.435547 0)"/>
      <use xlink:href="#DejaVuSerif-6b" transform="translate(498.441406 0)"/>
      <use xlink:href="#DejaVuSerif-69" transform="translate(559.037109 0)"/>
      <use xlink:href="#DejaVuSerif-6e" transform="translate(591.019531 0)"/>
      <use xlink:href="#DejaVuSerif-67" transform="translate(655.423828 0)"/>
      <use xlink:href="#DejaVuSerif-20" transform="translate(719.4375 0)"/>
      <use xlink:href="#DejaVuSerif-45" transform="translate(751.224609 0)"/>
      <use xlink:href="#DejaVuSerif-72" transform="translate(824.222656 0)"/>
      <use xlink:href="#DejaVuSerif-72" transform="translate(872.025391 0)"/>
      <use xlink:href="#DejaVuSerif-6f" transform="translate(919.828125 0)"/>
      <use xlink:href="#DejaVuSerif-72" transform="translate(980.033203 0)"/>
      <use xlink:href="#DejaVuSerif-20" transform="translate(1027.835938 0)"/>
      <use xlink:href="#DejaVuSerif-28" transform="translate(1059.623047 0)"/>
      <use xlink:href="#DejaVuSerif-72" transform="translate(1098.636719 0)"/>
      <use xlink:href="#DejaVuSerif-61" transform="translate(1146.439453 0)"/>
      <use xlink:href="#DejaVuSerif-64" transform="translate(1206.058594 0)"/>
      <use xlink:href="#DejaVuSerif-2f" transform="translate(1270.072266 0)"/>
      <use xlink:href="#DejaVuSerif-73" transform="translate(1303.763672 0)"/>
      <use xlink:href="#DejaVuSerif-29" transform="translate(1355.082031 0)"/>
     </g>
    </g>
   </g>
   <g id="line2d_13">
    <path d="M 118.854688 192.836086 
L 119.359612 196.957494 
L 120.116998 204.551975 
L 120.36946 205.398879 
L 120.621922 205.483155 
L 120.874384 205.001519 
L 121.379308 203.042129 
L 122.641618 197.395035 
L 123.399004 195.178043 
L 123.903928 194.231421 
L 124.408852 193.60927 
L 125.166238 193.092571 
L 125.923624 192.871734 
L 127.185934 192.78483 
L 177.678339 192.836086 
L 177.930801 168.074133 
L 178.435725 88.929308 
L 178.688187 71.327862 
L 178.940649 65.179542 
L 179.193111 66.829216 
L 179.445573 73.502399 
L 180.202959 105.942039 
L 181.212807 146.983903 
L 181.970193 167.469706 
L 182.475117 176.554435 
L 182.980041 182.811259 
L 183.484965 186.955601 
L 183.989889 189.595455 
L 184.494813 191.207037 
L 184.999737 192.142514 
L 185.504661 192.650637 
L 186.009586 192.900189 
L 186.766972 193.018874 
L 188.534206 192.942757 
L 190.30144 192.865062 
L 190.553902 217.714343 
L 191.058826 297.010734 
L 191.311288 314.536095 
L 191.56375 320.582343 
L 191.816212 318.831844 
L 192.321136 302.363844 
L 193.835908 238.529472 
L 194.593294 218.124056 
L 195.098218 209.083582 
L 195.603142 202.858626 
L 196.108066 198.734219 
L 196.61299 196.104613 
L 197.117914 194.496323 
L 197.622839 193.5597 
L 198.127763 193.047998 
L 198.632687 192.793897 
L 199.390073 192.668337 
L 201.157307 192.733735 
L 204.691775 192.831422 
L 227.665819 192.836086 
L 283.712388 192.836086 
L 283.96485 201.367025 
L 284.469774 235.708648 
L 284.974698 276.73567 
L 285.22716 284.855485 
L 285.479622 285.536596 
L 285.732084 281.511412 
L 286.237008 266.599722 
L 287.246857 234.039891 
L 288.004243 216.504227 
L 288.761629 205.356237 
L 289.266553 200.648697 
L 289.771477 197.504606 
L 290.276401 195.479711 
L 290.781325 194.225399 
L 291.286249 193.48261 
L 291.791173 193.067068 
L 292.548559 192.793616 
L 293.558407 192.723296 
L 296.335489 192.809888 
L 296.840413 161.228663 
L 297.597799 101.160983 
L 297.850262 95.933821 
L 298.102724 97.183864 
L 298.355186 102.523618 
L 299.112572 128.179388 
L 299.869958 152.974108 
L 300.879806 181.429174 
L 301.637192 283.247811 
L 301.889654 301.051063 
L 302.142116 307.311829 
L 302.394578 305.95299 
L 302.64704 299.837833 
L 303.404426 270.33138 
L 304.414274 233.721312 
L 305.17166 215.659544 
L 305.676584 207.668787 
L 306.181508 202.153452 
L 306.686432 198.476747 
L 307.191356 196.106407 
L 307.69628 194.630089 
L 308.201204 193.745002 
L 308.706128 193.238005 
L 309.463515 192.884041 
L 310.473363 192.761589 
L 313.755369 192.819848 
L 324.106312 192.836095 
L 389.746438 192.836072 
L 389.9989 197.193505 
L 390.503824 223.247388 
L 390.756286 229.55252 
L 391.008748 231.984976 
L 391.26121 231.794133 
L 391.513672 229.918406 
L 392.271058 220.078362 
L 393.280906 207.351787 
L 394.038292 200.94181 
L 394.543216 198.081776 
L 395.04814 196.101111 
L 395.553064 194.780406 
L 396.057988 193.932033 
L 396.562912 193.408301 
L 397.320298 193.000261 
L 398.330146 192.815722 
L 399.844919 192.792963 
L 400.097381 185.793159 
L 400.602305 167.833474 
L 400.854767 164.594695 
L 401.107229 163.706366 
L 401.359691 164.392478 
L 401.864615 168.341377 
L 403.379387 182.607941 
L 404.136773 187.123315 
L 404.641697 189.126658 
L 405.146621 190.510882 
L 405.651545 191.433746 
L 406.156469 192.028146 
L 406.913855 192.52261 
L 407.671241 192.743654 
L 408.933551 192.851193 
L 413.982792 192.837462 
L 482.4 192.836086 
L 482.4 192.836086 
" clip-path="url(#p4ee1947dd0)" style="fill: none; stroke: #2b737e; stroke-width: 1.5; stroke-linecap: square"/>
   </g>
   <g id="line2d_14">
    <path d="M 118.854688 192.836086 
L 119.10715 205.685449 
L 119.864536 267.179188 
L 120.116998 271.822345 
L 120.36946 270.519049 
L 120.874384 259.056075 
L 122.136694 224.619263 
L 122.89408 211.11105 
L 123.399004 205.098137 
L 123.903928 200.897432 
L 124.408852 198.037167 
L 124.913776 196.13185 
L 125.4187 194.887435 
L 125.923624 194.089561 
L 126.68101 193.412789 
L 127.438396 193.087786 
L 128.448244 192.910459 
L 130.467941 192.837643 
L 150.664902 192.836086 
L 177.930801 192.836086 
L 178.183263 197.159702 
L 178.688187 211.641036 
L 178.940649 213.973469 
L 179.193111 214.371054 
L 179.445573 213.555692 
L 179.950497 210.159986 
L 180.960345 202.597297 
L 181.717731 198.556937 
L 182.475117 195.999672 
L 182.980041 194.91188 
L 183.737427 193.900913 
L 184.494813 193.360374 
L 185.252199 193.083528 
L 186.51451 192.899416 
L 189.03913 192.837641 
L 190.553902 192.835686 
L 190.806364 188.483333 
L 191.311288 174.227554 
L 191.56375 171.964842 
L 191.816212 171.596345 
L 192.068674 172.415961 
L 192.573598 175.793705 
L 193.583446 183.315679 
L 194.340832 187.317316 
L 195.098218 189.825717 
L 195.603142 190.880654 
L 196.108066 191.590547 
L 196.865452 192.224665 
L 197.622839 192.548425 
L 198.632687 192.738381 
L 200.652383 192.828724 
L 212.77056 192.836086 
L 283.712388 192.836086 
L 283.96485 216.746104 
L 284.722236 320.334315 
L 284.974698 341.328496 
L 285.22716 347.122074 
L 285.479622 342.809461 
L 285.984546 319.082769 
L 287.246857 252.044378 
L 288.004243 226.305913 
L 288.509167 215.009505 
L 289.014091 207.216599 
L 289.519015 201.982461 
L 290.023939 198.545845 
L 290.528863 196.334748 
L 291.033787 194.938847 
L 291.538711 194.073704 
L 292.043635 193.547365 
L 292.801021 193.129309 
L 293.810869 192.91298 
L 295.578103 192.835837 
L 296.335489 192.832636 
L 297.092875 84.697032 
L 297.345337 58.510381 
L 297.597799 46.143947 
L 297.850262 46.592117 
L 298.102724 54.698108 
L 299.112572 108.585613 
L 299.869958 142.107293 
L 300.627344 164.114342 
L 300.879806 197.780913 
L 301.889654 261.268275 
L 302.142116 264.572344 
L 302.394578 263.185811 
L 302.899502 252.97785 
L 304.161812 221.845738 
L 304.919198 209.494229 
L 305.424122 204.002045 
L 305.929046 200.174285 
L 306.43397 197.574468 
L 306.938894 195.846018 
L 307.443818 194.718172 
L 307.948742 193.994695 
L 308.706128 193.379111 
L 309.463515 193.080877 
L 310.725825 192.894492 
L 313.250445 192.837483 
L 358.946071 192.836083 
L 389.746438 192.836139 
L 390.251362 193.735319 
L 390.756286 195.217009 
L 391.26121 196.038466 
L 391.513672 196.140522 
L 391.766134 196.068277 
L 392.271058 195.577705 
L 393.78583 193.740063 
L 394.543216 193.237676 
L 395.300602 192.982363 
L 396.562912 192.840125 
L 399.844919 192.830478 
L 400.097381 186.877089 
L 400.349843 177.311391 
L 400.602305 172.124397 
L 400.854767 169.900324 
L 401.107229 169.61973 
L 401.359691 170.557099 
L 401.864615 174.211111 
L 402.874463 182.273763 
L 403.631849 186.594681 
L 404.389235 189.340505 
L 404.894159 190.514556 
L 405.651545 191.614508 
L 406.408931 192.211979 
L 407.166317 192.525629 
L 408.428627 192.744482 
L 410.700786 192.827736 
L 425.091121 192.83615 
L 482.4 192.836086 
L 482.4 192.836086 
" clip-path="url(#p4ee1947dd0)" style="fill: none; stroke: #5ea04b; stroke-width: 1.5; stroke-linecap: square"/>
   </g>
   <g id="line2d_15">
    <path d="M 118.854688 192.836086 
L 119.612074 52.248022 
L 119.864536 37.101051 
L 120.116998 38.97332 
L 120.621922 64.256361 
L 121.63177 121.530441 
L 122.389156 149.814752 
L 123.146542 167.265684 
L 123.651466 174.814028 
L 124.15639 180.145922 
L 124.661314 183.903827 
L 125.166238 186.549766 
L 125.671162 188.412024 
L 126.428548 190.224071 
L 127.185934 191.293819 
L 127.94332 191.925403 
L 128.953168 192.384924 
L 130.215479 192.648562 
L 132.235175 192.790057 
L 137.536877 192.834933 
L 177.930801 192.836086 
L 178.688187 197.939631 
L 178.940649 198.044015 
L 179.193111 197.723484 
L 180.707883 194.778698 
L 181.465269 193.936241 
L 182.222655 193.450345 
L 183.232503 193.119973 
L 184.747275 192.928755 
L 187.77682 192.846958 
L 190.553902 192.837806 
L 190.806364 190.845576 
L 191.311288 186.129165 
L 191.56375 185.547395 
L 191.816212 185.631349 
L 192.321136 186.707366 
L 193.330984 189.270117 
L 194.08837 190.606329 
L 194.845756 191.467931 
L 195.603142 192.005693 
L 196.61299 192.414437 
L 197.875301 192.657666 
L 199.894997 192.791657 
L 205.196699 192.834948 
L 283.712388 192.836086 
L 283.96485 207.750664 
L 284.469774 248.448898 
L 284.974698 265.679449 
L 285.22716 264.72006 
L 285.732084 251.85391 
L 286.48947 230.222117 
L 287.246857 215.299282 
L 287.751781 208.744971 
L 288.256705 204.102392 
L 288.761629 200.817768 
L 289.266553 198.491073 
L 290.023939 196.205889 
L 290.781325 194.841101 
L 291.538711 194.027235 
L 292.296097 193.542726 
L 293.305945 193.18789 
L 294.820717 192.959635 
L 296.335489 192.879523 
L 296.840413 145.369136 
L 297.345337 118.104627 
L 297.597799 111.175318 
L 297.850262 112.393522 
L 298.355186 125.439988 
L 299.365034 155.307911 
L 300.12242 170.268234 
L 300.627344 176.928618 
L 300.879806 183.960685 
L 301.38473 190.161901 
L 301.637192 191.507185 
L 302.142116 192.191224 
L 302.899502 192.811656 
L 303.404426 192.986577 
L 304.161812 193.000432 
L 307.191356 192.841183 
L 325.11616 192.836086 
L 389.746438 192.836086 
L 389.9989 216.975633 
L 390.251362 277.9003 
L 390.503824 310.022003 
L 390.756286 319.69673 
L 391.008748 316.924301 
L 391.513672 295.965553 
L 392.52352 250.39298 
L 393.280906 227.833252 
L 394.038292 213.797627 
L 394.543216 207.681778 
L 395.04814 203.338233 
L 395.553064 200.261186 
L 396.057988 198.084133 
L 396.815374 195.953747 
L 397.57276 194.687928 
L 398.330146 193.936 
L 399.087533 193.489377 
L 399.844919 193.224104 
L 400.097381 192.767389 
L 400.602305 192.655661 
L 402.622001 192.858352 
L 434.432216 192.836086 
L 482.4 192.836086 
L 482.4 192.836086 
" clip-path="url(#p4ee1947dd0)" style="fill: none; stroke: #bdab62; stroke-width: 1.5; stroke-linecap: square"/>
   </g>
   <g id="patch_3">
    <path d="M 118.854688 362.623125 
L 118.854688 21.6 
" style="fill: none; stroke: #000000; stroke-width: 0.8; stroke-linejoin: miter; stroke-linecap: square"/>
   </g>
   <g id="patch_4">
    <path d="M 482.4 362.623125 
L 482.4 21.6 
" style="fill: none; stroke: #000000; stroke-width: 0.8; stroke-linejoin: miter; stroke-linecap: square"/>
   </g>
   <g id="patch_5">
    <path d="M 118.854688 362.623125 
L 482.4 362.623125 
" style="fill: none; stroke: #000000; stroke-width: 0.8; stroke-linejoin: miter; stroke-linecap: square"/>
   </g>
   <g id="patch_6">
    <path d="M 118.854688 21.6 
L 482.4 21.6 
" style="fill: none; stroke: #000000; stroke-width: 0.8; stroke-linejoin: miter; stroke-linecap: square"/>
   </g>
   <g id="legend_1">
    <g id="patch_7">
     <path d="M 364.68 353.623125 
L 469.8 353.623125 
Q 473.4 353.623125 473.4 350.023125 
L 473.4 270.291563 
Q 473.4 266.691563 469.8 266.691563 
L 364.68 266.691563 
Q 361.08 266.691563 361.08 270.291563 
L 361.08 350.023125 
Q 361.08 353.623125 364.68 353.623125 
z
" style="fill: #ffffff; opacity: 0.8; stroke: #cccccc; stroke-linejoin: miter"/>
    </g>
    <g id="line2d_16">
     <path d="M 368.28 281.26875 
L 386.28 281.26875 
L 404.28 281.26875 
" style="fill: none; stroke: #2b737e; stroke-width: 1.5; stroke-linecap: square"/>
    </g>
    <g id="text_15">
     <!-- $\omega_{BR,1}$ -->
     <g transform="translate(418.68 287.56875) scale(0.18 -0.18)">
      <defs>
       <path id="DejaVuSans-Oblique-3c9" d="M 1369 -91 
Q 72 -91 434 1766 
Q 575 2500 1256 3500 
L 1875 3500 
Q 1231 2500 1088 1750 
Q 819 397 1519 397 
Q 2166 397 2478 2078 
L 3009 2078 
Q 2669 388 3316 397 
Q 4013 403 4275 1750 
Q 4419 2500 4169 3500 
L 4788 3500 
Q 5075 2500 4934 1766 
Q 4578 -94 3278 -91 
Q 2428 -88 2503 844 
Q 2194 -91 1369 -91 
z
" transform="scale(0.015625)"/>
       <path id="DejaVuSans-Oblique-42" d="M 1081 4666 
L 2694 4666 
Q 3350 4666 3675 4422 
Q 4000 4178 4000 3688 
Q 4000 3238 3720 2911 
Q 3441 2584 2988 2516 
Q 3375 2428 3569 2181 
Q 3763 1934 3763 1522 
Q 3763 819 3242 409 
Q 2722 0 1819 0 
L 172 0 
L 1081 4666 
z
M 1234 2228 
L 903 519 
L 1919 519 
Q 2491 519 2800 781 
Q 3109 1044 3109 1522 
Q 3109 1891 2904 2059 
Q 2700 2228 2247 2228 
L 1234 2228 
z
M 1606 4147 
L 1331 2741 
L 2272 2741 
Q 2775 2741 3058 2959 
Q 3341 3178 3341 3566 
Q 3341 3869 3150 4008 
Q 2959 4147 2541 4147 
L 1606 4147 
z
" transform="scale(0.015625)"/>
       <path id="DejaVuSans-Oblique-52" d="M 1613 4147 
L 1294 2491 
L 2106 2491 
Q 2584 2491 2879 2755 
Q 3175 3019 3175 3444 
Q 3175 3784 2976 3965 
Q 2778 4147 2406 4147 
L 1613 4147 
z
M 2772 2241 
Q 2972 2194 3105 2009 
Q 3238 1825 3413 1275 
L 3809 0 
L 3144 0 
L 2778 1197 
Q 2638 1659 2453 1815 
Q 2269 1972 1888 1972 
L 1191 1972 
L 806 0 
L 172 0 
L 1081 4666 
L 2503 4666 
Q 3150 4666 3495 4373 
Q 3841 4081 3841 3531 
Q 3841 3044 3547 2687 
Q 3253 2331 2772 2241 
z
" transform="scale(0.015625)"/>
       <path id="DejaVuSans-2c" d="M 750 794 
L 1409 794 
L 1409 256 
L 897 -744 
L 494 -744 
L 750 256 
L 750 794 
z
" transform="scale(0.015625)"/>
       <path id="DejaVuSans-31" d="M 794 531 
L 1825 531 
L 1825 4091 
L 703 3866 
L 703 4441 
L 1819 4666 
L 2450 4666 
L 2450 531 
L 3481 531 
L 3481 0 
L 794 0 
L 794 531 
z
" transform="scale(0.015625)"/>
      </defs>
      <use xlink:href="#DejaVuSans-Oblique-3c9" transform="translate(0 0.3125)"/>
      <use xlink:href="#DejaVuSans-Oblique-42" transform="translate(83.740234 -16.09375) scale(0.7)"/>
      <use xlink:href="#DejaVuSans-Oblique-52" transform="translate(131.762695 -16.09375) scale(0.7)"/>
      <use xlink:href="#DejaVuSans-2c" transform="translate(180.400391 -16.09375) scale(0.7)"/>
      <use xlink:href="#DejaVuSans-31" transform="translate(216.289062 -16.09375) scale(0.7)"/>
     </g>
    </g>
    <g id="line2d_17">
     <path d="M 368.28 308.445938 
L 386.28 308.445938 
L 404.28 308.445938 
" style="fill: none; stroke: #5ea04b; stroke-width: 1.5; stroke-linecap: square"/>
    </g>
    <g id="text_16">
     <!-- $\omega_{BR,2}$ -->
     <g transform="translate(418.68 314.745938) scale(0.18 -0.18)">
      <defs>
       <path id="DejaVuSans-32" d="M 1228 531 
L 3431 531 
L 3431 0 
L 469 0 
L 469 531 
Q 828 903 1448 1529 
Q 2069 2156 2228 2338 
Q 2531 2678 2651 2914 
Q 2772 3150 2772 3378 
Q 2772 3750 2511 3984 
Q 2250 4219 1831 4219 
Q 1534 4219 1204 4116 
Q 875 4013 500 3803 
L 500 4441 
Q 881 4594 1212 4672 
Q 1544 4750 1819 4750 
Q 2544 4750 2975 4387 
Q 3406 4025 3406 3419 
Q 3406 3131 3298 2873 
Q 3191 2616 2906 2266 
Q 2828 2175 2409 1742 
Q 1991 1309 1228 531 
z
" transform="scale(0.015625)"/>
      </defs>
      <use xlink:href="#DejaVuSans-Oblique-3c9" transform="translate(0 0.3125)"/>
      <use xlink:href="#DejaVuSans-Oblique-42" transform="translate(83.740234 -16.09375) scale(0.7)"/>
      <use xlink:href="#DejaVuSans-Oblique-52" transform="translate(131.762695 -16.09375) scale(0.7)"/>
      <use xlink:href="#DejaVuSans-2c" transform="translate(180.400391 -16.09375) scale(0.7)"/>
      <use xlink:href="#DejaVuSans-32" transform="translate(216.289062 -16.09375) scale(0.7)"/>
     </g>
    </g>
    <g id="line2d_18">
     <path d="M 368.28 335.623125 
L 386.28 335.623125 
L 404.28 335.623125 
" style="fill: none; stroke: #bdab62; stroke-width: 1.5; stroke-linecap: square"/>
    </g>
    <g id="text_17">
     <!-- $\omega_{BR,3}$ -->
     <g transform="translate(418.68 341.923125) scale(0.18 -0.18)">
      <defs>
       <path id="DejaVuSans-33" d="M 2597 2516 
Q 3050 2419 3304 2112 
Q 3559 1806 3559 1356 
Q 3559 666 3084 287 
Q 2609 -91 1734 -91 
Q 1441 -91 1130 -33 
Q 819 25 488 141 
L 488 750 
Q 750 597 1062 519 
Q 1375 441 1716 441 
Q 2309 441 2620 675 
Q 2931 909 2931 1356 
Q 2931 1769 2642 2001 
Q 2353 2234 1838 2234 
L 1294 2234 
L 1294 2753 
L 1863 2753 
Q 2328 2753 2575 2939 
Q 2822 3125 2822 3475 
Q 2822 3834 2567 4026 
Q 2313 4219 1838 4219 
Q 1578 4219 1281 4162 
Q 984 4106 628 3988 
L 628 4550 
Q 988 4650 1302 4700 
Q 1616 4750 1894 4750 
Q 2613 4750 3031 4423 
Q 3450 4097 3450 3541 
Q 3450 3153 3228 2886 
Q 3006 2619 2597 2516 
z
" transform="scale(0.015625)"/>
      </defs>
      <use xlink:href="#DejaVuSans-Oblique-3c9" transform="translate(0 0.3125)"/>
      <use xlink:href="#DejaVuSans-Oblique-42" transform="translate(83.740234 -16.09375) scale(0.7)"/>
      <use xlink:href="#DejaVuSans-Oblique-52" transform="translate(131.762695 -16.09375) scale(0.7)"/>
      <use xlink:href="#DejaVuSans-2c" transform="translate(180.400391 -16.09375) scale(0.7)"/>
      <use xlink:href="#DejaVuSans-33" transform="translate(216.289062 -16.09375) scale(0.7)"/>
     </g>
    </g>
   </g>
  </g>
 </g>
 <defs>
  <clipPath id="p4ee1947dd0">
   <rect x="118.854688" y="21.6" width="363.545313" height="341.023125"/>
  </clipPath>
 </defs>
</svg>
