<?xml version="1.0" encoding="utf-8" standalone="no"?>
<!DOCTYPE svg PUBLIC "-//W3C//DTD SVG 1.1//EN"
  "http://www.w3.org/Graphics/SVG/1.1/DTD/svg11.dtd">
<svg xmlns:xlink="http://www.w3.org/1999/xlink" width="414pt" height="288pt" viewBox="0 0 414 288" xmlns="http://www.w3.org/2000/svg" version="1.1">
 <metadata>
  <rdf:RDF xmlns:dc="http://purl.org/dc/elements/1.1/" xmlns:cc="http://creativecommons.org/ns#" xmlns:rdf="http://www.w3.org/1999/02/22-rdf-syntax-ns#">
   <cc:Work>
    <dc:type rdf:resource="http://purl.org/dc/dcmitype/StillImage"/>
    <dc:date>2026-01-06T16:25:17.603569</dc:date>
    <dc:format>image/svg+xml</dc:format>
    <dc:creator>
     <cc:Agent>
      <dc:title>Matplotlib v3.10.7, https://matplotlib.org/</dc:title>
     </cc:Agent>
    </dc:creator>
   </cc:Work>
  </rdf:RDF>
 </metadata>
 <defs>
  <style type="text/css">*{stroke-linejoin: round; stroke-linecap: butt}</style>
 </defs>
 <g id="figure_1">
  <g id="patch_1">
   <path d="M 0 288 
L 414 288 
L 414 0 
L 0 0 
L 0 288 
z
" style="fill: none"/>
  </g>
  <g id="axes_1">
   <g id="patch_2">
    <path d="M 65.245625 241.036875 
L 403.2 241.036875 
L 403.2 10.8 
L 65.245625 10.8 
L 65.245625 241.036875 
z
" style="fill: none"/>
   </g>
   <g id="matplotlib.axis_1">
    <g id="xtick_1">
     <g id="line2d_1">
      <defs>
       <path id="maee699f568" d="M 0 0 
L 0 3.5 
" style="stroke: #000000; stroke-width: 0.8"/>
      </defs>
      <g>
       <use xlink:href="#maee699f568" x="80.607188" y="241.036875" style="stroke: #000000; stroke-width: 0.8"/>
      </g>
     </g>
     <g id="text_1">
      <!-- 0 -->
      <g transform="translate(75.517188 260.194375) scale(0.16 -0.16)">
       <defs>
        <path id="DejaVuSans-30" d="M 2034 4250 
Q 1547 4250 1301 3770 
Q 1056 3291 1056 2328 
Q 1056 1369 1301 889 
Q 1547 409 2034 409 
Q 2525 409 2770 889 
Q 3016 1369 3016 2328 
Q 3016 3291 2770 3770 
Q 2525 4250 2034 4250 
z
M 2034 4750 
Q 2819 4750 3233 4129 
Q 3647 3509 3647 2328 
Q 3647 1150 3233 529 
Q 2819 -91 2034 -91 
Q 1250 -91 836 529 
Q 422 1150 422 2328 
Q 422 3509 836 4129 
Q 1250 4750 2034 4750 
z
" transform="scale(0.015625)"/>
       </defs>
       <use xlink:href="#DejaVuSans-30"/>
      </g>
     </g>
    </g>
    <g id="xtick_2">
     <g id="line2d_2">
      <g>
       <use xlink:href="#maee699f568" x="142.053438" y="241.036875" style="stroke: #000000; stroke-width: 0.8"/>
      </g>
     </g>
     <g id="text_2">
      <!-- 2 -->
      <g transform="translate(136.963437 260.194375) scale(0.16 -0.16)">
       <defs>
        <path id="DejaVuSans-32" d="M 1228 531 
L 3431 531 
L 3431 0 
L 469 0 
L 469 531 
Q 828 903 1448 1529 
Q 2069 2156 2228 2338 
Q 2531 2678 2651 2914 
Q 2772 3150 2772 3378 
Q 2772 3750 2511 3984 
Q 2250 4219 1831 4219 
Q 1534 4219 1204 4116 
Q 875 4013 500 3803 
L 500 4441 
Q 881 4594 1212 4672 
Q 1544 4750 1819 4750 
Q 2544 4750 2975 4387 
Q 3406 4025 3406 3419 
Q 3406 3131 3298 2873 
Q 3191 2616 2906 2266 
Q 2828 2175 2409 1742 
Q 1991 1309 1228 531 
z
" transform="scale(0.015625)"/>
       </defs>
       <use xlink:href="#DejaVuSans-32"/>
      </g>
     </g>
    </g>
    <g id="xtick_3">
     <g id="line2d_3">
      <g>
       <use xlink:href="#maee699f568" x="203.499687" y="241.036875" style="stroke: #000000; stroke-width: 0.8"/>
      </g>
     </g>
     <g id="text_3">
      <!-- 4 -->
      <g transform="translate(198.409687 260.194375) scale(0.16 -0.16)">
       <defs>
        <path id="DejaVuSans-34" d="M 2419 4116 
L 825 1625 
L 2419 1625 
L 2419 4116 
z
M 2253 4666 
L 3047 4666 
L 3047 1625 
L 3713 1625 
L 3713 1100 
L 3047 1100 
L 3047 0 
L 2419 0 
L 2419 1100 
L 313 1100 
L 313 1709 
L 2253 4666 
z
" transform="scale(0.015625)"/>
       </defs>
       <use xlink:href="#DejaVuSans-34"/>
      </g>
     </g>
    </g>
    <g id="xtick_4">
     <g id="line2d_4">
      <g>
       <use xlink:href="#maee699f568" x="264.945938" y="241.036875" style="stroke: #000000; stroke-width: 0.8"/>
      </g>
     </g>
     <g id="text_4">
      <!-- 6 -->
      <g transform="translate(259.855938 260.194375) scale(0.16 -0.16)">
       <defs>
        <path id="DejaVuSans-36" d="M 2113 2584 
Q 1688 2584 1439 2293 
Q 1191 2003 1191 1497 
Q 1191 994 1439 701 
Q 1688 409 2113 409 
Q 2538 409 2786 701 
Q 3034 994 3034 1497 
Q 3034 2003 2786 2293 
Q 2538 2584 2113 2584 
z
M 3366 4563 
L 3366 3988 
Q 3128 4100 2886 4159 
Q 2644 4219 2406 4219 
Q 1781 4219 1451 3797 
Q 1122 3375 1075 2522 
Q 1259 2794 1537 2939 
Q 1816 3084 2150 3084 
Q 2853 3084 3261 2657 
Q 3669 2231 3669 1497 
Q 3669 778 3244 343 
Q 2819 -91 2113 -91 
Q 1303 -91 875 529 
Q 447 1150 447 2328 
Q 447 3434 972 4092 
Q 1497 4750 2381 4750 
Q 2619 4750 2861 4703 
Q 3103 4656 3366 4563 
z
" transform="scale(0.015625)"/>
       </defs>
       <use xlink:href="#DejaVuSans-36"/>
      </g>
     </g>
    </g>
    <g id="xtick_5">
     <g id="line2d_5">
      <g>
       <use xlink:href="#maee699f568" x="326.392187" y="241.036875" style="stroke: #000000; stroke-width: 0.8"/>
      </g>
     </g>
     <g id="text_5">
      <!-- 8 -->
      <g transform="translate(321.302188 260.194375) scale(0.16 -0.16)">
       <defs>
        <path id="DejaVuSans-38" d="M 2034 2216 
Q 1584 2216 1326 1975 
Q 1069 1734 1069 1313 
Q 1069 891 1326 650 
Q 1584 409 2034 409 
Q 2484 409 2743 651 
Q 3003 894 3003 1313 
Q 3003 1734 2745 1975 
Q 2488 2216 2034 2216 
z
M 1403 2484 
Q 997 2584 770 2862 
Q 544 3141 544 3541 
Q 544 4100 942 4425 
Q 1341 4750 2034 4750 
Q 2731 4750 3128 4425 
Q 3525 4100 3525 3541 
Q 3525 3141 3298 2862 
Q 3072 2584 2669 2484 
Q 3125 2378 3379 2068 
Q 3634 1759 3634 1313 
Q 3634 634 3220 271 
Q 2806 -91 2034 -91 
Q 1263 -91 848 271 
Q 434 634 434 1313 
Q 434 1759 690 2068 
Q 947 2378 1403 2484 
z
M 1172 3481 
Q 1172 3119 1398 2916 
Q 1625 2713 2034 2713 
Q 2441 2713 2670 2916 
Q 2900 3119 2900 3481 
Q 2900 3844 2670 4047 
Q 2441 4250 2034 4250 
Q 1625 4250 1398 4047 
Q 1172 3844 1172 3481 
z
" transform="scale(0.015625)"/>
       </defs>
       <use xlink:href="#DejaVuSans-38"/>
      </g>
     </g>
    </g>
    <g id="xtick_6">
     <g id="line2d_6">
      <g>
       <use xlink:href="#maee699f568" x="387.838437" y="241.036875" style="stroke: #000000; stroke-width: 0.8"/>
      </g>
     </g>
     <g id="text_6">
      <!-- 10 -->
      <g transform="translate(377.658437 260.194375) scale(0.16 -0.16)">
       <defs>
        <path id="DejaVuSans-31" d="M 794 531 
L 1825 531 
L 1825 4091 
L 703 3866 
L 703 4441 
L 1819 4666 
L 2450 4666 
L 2450 531 
L 3481 531 
L 3481 0 
L 794 0 
L 794 531 
z
" transform="scale(0.015625)"/>
       </defs>
       <use xlink:href="#DejaVuSans-31"/>
       <use xlink:href="#DejaVuSans-30" transform="translate(63.623047 0)"/>
      </g>
     </g>
    </g>
    <g id="text_7">
     <!-- Time [min] -->
     <g transform="translate(207.070469 275.120313) scale(0.1 -0.1)">
      <defs>
       <path id="DejaVuSans-54" d="M -19 4666 
L 3928 4666 
L 3928 4134 
L 2272 4134 
L 2272 0 
L 1638 0 
L 1638 4134 
L -19 4134 
L -19 4666 
z
" transform="scale(0.015625)"/>
       <path id="DejaVuSans-69" d="M 603 3500 
L 1178 3500 
L 1178 0 
L 603 0 
L 603 3500 
z
M 603 4863 
L 1178 4863 
L 1178 4134 
L 603 4134 
L 603 4863 
z
" transform="scale(0.015625)"/>
       <path id="DejaVuSans-6d" d="M 3328 2828 
Q 3544 3216 3844 3400 
Q 4144 3584 4550 3584 
Q 5097 3584 5394 3201 
Q 5691 2819 5691 2113 
L 5691 0 
L 5113 0 
L 5113 2094 
Q 5113 2597 4934 2840 
Q 4756 3084 4391 3084 
Q 3944 3084 3684 2787 
Q 3425 2491 3425 1978 
L 3425 0 
L 2847 0 
L 2847 2094 
Q 2847 2600 2669 2842 
Q 2491 3084 2119 3084 
Q 1678 3084 1418 2786 
Q 1159 2488 1159 1978 
L 1159 0 
L 581 0 
L 581 3500 
L 1159 3500 
L 1159 2956 
Q 1356 3278 1631 3431 
Q 1906 3584 2284 3584 
Q 2666 3584 2933 3390 
Q 3200 3197 3328 2828 
z
" transform="scale(0.015625)"/>
       <path id="DejaVuSans-65" d="M 3597 1894 
L 3597 1613 
L 953 1613 
Q 991 1019 1311 708 
Q 1631 397 2203 397 
Q 2534 397 2845 478 
Q 3156 559 3463 722 
L 3463 178 
Q 3153 47 2828 -22 
Q 2503 -91 2169 -91 
Q 1331 -91 842 396 
Q 353 884 353 1716 
Q 353 2575 817 3079 
Q 1281 3584 2069 3584 
Q 2775 3584 3186 3129 
Q 3597 2675 3597 1894 
z
M 3022 2063 
Q 3016 2534 2758 2815 
Q 2500 3097 2075 3097 
Q 1594 3097 1305 2825 
Q 1016 2553 972 2059 
L 3022 2063 
z
" transform="scale(0.015625)"/>
       <path id="DejaVuSans-20" transform="scale(0.015625)"/>
       <path id="DejaVuSans-5b" d="M 550 4863 
L 1875 4863 
L 1875 4416 
L 1125 4416 
L 1125 -397 
L 1875 -397 
L 1875 -844 
L 550 -844 
L 550 4863 
z
" transform="scale(0.015625)"/>
       <path id="DejaVuSans-6e" d="M 3513 2113 
L 3513 0 
L 2938 0 
L 2938 2094 
Q 2938 2591 2744 2837 
Q 2550 3084 2163 3084 
Q 1697 3084 1428 2787 
Q 1159 2491 1159 1978 
L 1159 0 
L 581 0 
L 581 3500 
L 1159 3500 
L 1159 2956 
Q 1366 3272 1645 3428 
Q 1925 3584 2291 3584 
Q 2894 3584 3203 3211 
Q 3513 2838 3513 2113 
z
" transform="scale(0.015625)"/>
       <path id="DejaVuSans-5d" d="M 1947 4863 
L 1947 -844 
L 622 -844 
L 622 -397 
L 1369 -397 
L 1369 4416 
L 622 4416 
L 622 4863 
L 1947 4863 
z
" transform="scale(0.015625)"/>
      </defs>
      <use xlink:href="#DejaVuSans-54"/>
      <use xlink:href="#DejaVuSans-69" transform="translate(57.958984 0)"/>
      <use xlink:href="#DejaVuSans-6d" transform="translate(85.742188 0)"/>
      <use xlink:href="#DejaVuSans-65" transform="translate(183.154297 0)"/>
      <use xlink:href="#DejaVuSans-20" transform="translate(244.677734 0)"/>
      <use xlink:href="#DejaVuSans-5b" transform="translate(276.464844 0)"/>
      <use xlink:href="#DejaVuSans-6d" transform="translate(315.478516 0)"/>
      <use xlink:href="#DejaVuSans-69" transform="translate(412.890625 0)"/>
      <use xlink:href="#DejaVuSans-6e" transform="translate(440.673828 0)"/>
      <use xlink:href="#DejaVuSans-5d" transform="translate(504.052734 0)"/>
     </g>
    </g>
   </g>
   <g id="matplotlib.axis_2">
    <g id="ytick_1">
     <g id="line2d_7">
      <defs>
       <path id="mcfcccc6b42" d="M 0 0 
L -3.5 0 
" style="stroke: #000000; stroke-width: 0.8"/>
      </defs>
      <g>
       <use xlink:href="#mcfcccc6b42" x="65.245625" y="230.571563" style="stroke: #000000; stroke-width: 0.8"/>
      </g>
     </g>
     <g id="text_8">
      <!-- −10 -->
      <g transform="translate(24.478125 236.650313) scale(0.16 -0.16)">
       <defs>
        <path id="DejaVuSans-2212" d="M 678 2272 
L 4684 2272 
L 4684 1741 
L 678 1741 
L 678 2272 
z
" transform="scale(0.015625)"/>
       </defs>
       <use xlink:href="#DejaVuSans-2212"/>
       <use xlink:href="#DejaVuSans-31" transform="translate(83.789062 0)"/>
       <use xlink:href="#DejaVuSans-30" transform="translate(147.412109 0)"/>
      </g>
     </g>
    </g>
    <g id="ytick_2">
     <g id="line2d_8">
      <g>
       <use xlink:href="#mcfcccc6b42" x="65.245625" y="178.245" style="stroke: #000000; stroke-width: 0.8"/>
      </g>
     </g>
     <g id="text_9">
      <!-- −5 -->
      <g transform="translate(34.658125 184.32375) scale(0.16 -0.16)">
       <defs>
        <path id="DejaVuSans-35" d="M 691 4666 
L 3169 4666 
L 3169 4134 
L 1269 4134 
L 1269 2991 
Q 1406 3038 1543 3061 
Q 1681 3084 1819 3084 
Q 2600 3084 3056 2656 
Q 3513 2228 3513 1497 
Q 3513 744 3044 326 
Q 2575 -91 1722 -91 
Q 1428 -91 1123 -41 
Q 819 9 494 109 
L 494 744 
Q 775 591 1075 516 
Q 1375 441 1709 441 
Q 2250 441 2565 725 
Q 2881 1009 2881 1497 
Q 2881 1984 2565 2268 
Q 2250 2553 1709 2553 
Q 1456 2553 1204 2497 
Q 953 2441 691 2322 
L 691 4666 
z
" transform="scale(0.015625)"/>
       </defs>
       <use xlink:href="#DejaVuSans-2212"/>
       <use xlink:href="#DejaVuSans-35" transform="translate(83.789062 0)"/>
      </g>
     </g>
    </g>
    <g id="ytick_3">
     <g id="line2d_9">
      <g>
       <use xlink:href="#mcfcccc6b42" x="65.245625" y="125.918438" style="stroke: #000000; stroke-width: 0.8"/>
      </g>
     </g>
     <g id="text_10">
      <!-- 0 -->
      <g transform="translate(48.065625 131.997188) scale(0.16 -0.16)">
       <use xlink:href="#DejaVuSans-30"/>
      </g>
     </g>
    </g>
    <g id="ytick_4">
     <g id="line2d_10">
      <g>
       <use xlink:href="#mcfcccc6b42" x="65.245625" y="73.591875" style="stroke: #000000; stroke-width: 0.8"/>
      </g>
     </g>
     <g id="text_11">
      <!-- 5 -->
      <g transform="translate(48.065625 79.670625) scale(0.16 -0.16)">
       <use xlink:href="#DejaVuSans-35"/>
      </g>
     </g>
    </g>
    <g id="ytick_5">
     <g id="line2d_11">
      <g>
       <use xlink:href="#mcfcccc6b42" x="65.245625" y="21.265313" style="stroke: #000000; stroke-width: 0.8"/>
      </g>
     </g>
     <g id="text_12">
      <!-- 10 -->
      <g transform="translate(37.885625 27.344063) scale(0.16 -0.16)">
       <use xlink:href="#DejaVuSans-31"/>
       <use xlink:href="#DejaVuSans-30" transform="translate(63.623047 0)"/>
      </g>
     </g>
    </g>
    <g id="text_13">
     <!-- RW Voltage (V)  -->
     <g transform="translate(18.398438 164.981719) rotate(-90) scale(0.1 -0.1)">
      <defs>
       <path id="DejaVuSans-52" d="M 2841 2188 
Q 3044 2119 3236 1894 
Q 3428 1669 3622 1275 
L 4263 0 
L 3584 0 
L 2988 1197 
Q 2756 1666 2539 1819 
Q 2322 1972 1947 1972 
L 1259 1972 
L 1259 0 
L 628 0 
L 628 4666 
L 2053 4666 
Q 2853 4666 3247 4331 
Q 3641 3997 3641 3322 
Q 3641 2881 3436 2590 
Q 3231 2300 2841 2188 
z
M 1259 4147 
L 1259 2491 
L 2053 2491 
Q 2509 2491 2742 2702 
Q 2975 2913 2975 3322 
Q 2975 3731 2742 3939 
Q 2509 4147 2053 4147 
L 1259 4147 
z
" transform="scale(0.015625)"/>
       <path id="DejaVuSans-57" d="M 213 4666 
L 850 4666 
L 1831 722 
L 2809 4666 
L 3519 4666 
L 4500 722 
L 5478 4666 
L 6119 4666 
L 4947 0 
L 4153 0 
L 3169 4050 
L 2175 0 
L 1381 0 
L 213 4666 
z
" transform="scale(0.015625)"/>
       <path id="DejaVuSans-56" d="M 1831 0 
L 50 4666 
L 709 4666 
L 2188 738 
L 3669 4666 
L 4325 4666 
L 2547 0 
L 1831 0 
z
" transform="scale(0.015625)"/>
       <path id="DejaVuSans-6f" d="M 1959 3097 
Q 1497 3097 1228 2736 
Q 959 2375 959 1747 
Q 959 1119 1226 758 
Q 1494 397 1959 397 
Q 2419 397 2687 759 
Q 2956 1122 2956 1747 
Q 2956 2369 2687 2733 
Q 2419 3097 1959 3097 
z
M 1959 3584 
Q 2709 3584 3137 3096 
Q 3566 2609 3566 1747 
Q 3566 888 3137 398 
Q 2709 -91 1959 -91 
Q 1206 -91 779 398 
Q 353 888 353 1747 
Q 353 2609 779 3096 
Q 1206 3584 1959 3584 
z
" transform="scale(0.015625)"/>
       <path id="DejaVuSans-6c" d="M 603 4863 
L 1178 4863 
L 1178 0 
L 603 0 
L 603 4863 
z
" transform="scale(0.015625)"/>
       <path id="DejaVuSans-74" d="M 1172 4494 
L 1172 3500 
L 2356 3500 
L 2356 3053 
L 1172 3053 
L 1172 1153 
Q 1172 725 1289 603 
Q 1406 481 1766 481 
L 2356 481 
L 2356 0 
L 1766 0 
Q 1100 0 847 248 
Q 594 497 594 1153 
L 594 3053 
L 172 3053 
L 172 3500 
L 594 3500 
L 594 4494 
L 1172 4494 
z
" transform="scale(0.015625)"/>
       <path id="DejaVuSans-61" d="M 2194 1759 
Q 1497 1759 1228 1600 
Q 959 1441 959 1056 
Q 959 750 1161 570 
Q 1363 391 1709 391 
Q 2188 391 2477 730 
Q 2766 1069 2766 1631 
L 2766 1759 
L 2194 1759 
z
M 3341 1997 
L 3341 0 
L 2766 0 
L 2766 531 
Q 2569 213 2275 61 
Q 1981 -91 1556 -91 
Q 1019 -91 701 211 
Q 384 513 384 1019 
Q 384 1609 779 1909 
Q 1175 2209 1959 2209 
L 2766 2209 
L 2766 2266 
Q 2766 2663 2505 2880 
Q 2244 3097 1772 3097 
Q 1472 3097 1187 3025 
Q 903 2953 641 2809 
L 641 3341 
Q 956 3463 1253 3523 
Q 1550 3584 1831 3584 
Q 2591 3584 2966 3190 
Q 3341 2797 3341 1997 
z
" transform="scale(0.015625)"/>
       <path id="DejaVuSans-67" d="M 2906 1791 
Q 2906 2416 2648 2759 
Q 2391 3103 1925 3103 
Q 1463 3103 1205 2759 
Q 947 2416 947 1791 
Q 947 1169 1205 825 
Q 1463 481 1925 481 
Q 2391 481 2648 825 
Q 2906 1169 2906 1791 
z
M 3481 434 
Q 3481 -459 3084 -895 
Q 2688 -1331 1869 -1331 
Q 1566 -1331 1297 -1286 
Q 1028 -1241 775 -1147 
L 775 -588 
Q 1028 -725 1275 -790 
Q 1522 -856 1778 -856 
Q 2344 -856 2625 -561 
Q 2906 -266 2906 331 
L 2906 616 
Q 2728 306 2450 153 
Q 2172 0 1784 0 
Q 1141 0 747 490 
Q 353 981 353 1791 
Q 353 2603 747 3093 
Q 1141 3584 1784 3584 
Q 2172 3584 2450 3431 
Q 2728 3278 2906 2969 
L 2906 3500 
L 3481 3500 
L 3481 434 
z
" transform="scale(0.015625)"/>
       <path id="DejaVuSans-28" d="M 1984 4856 
Q 1566 4138 1362 3434 
Q 1159 2731 1159 2009 
Q 1159 1288 1364 580 
Q 1569 -128 1984 -844 
L 1484 -844 
Q 1016 -109 783 600 
Q 550 1309 550 2009 
Q 550 2706 781 3412 
Q 1013 4119 1484 4856 
L 1984 4856 
z
" transform="scale(0.015625)"/>
       <path id="DejaVuSans-29" d="M 513 4856 
L 1013 4856 
Q 1481 4119 1714 3412 
Q 1947 2706 1947 2009 
Q 1947 1309 1714 600 
Q 1481 -109 1013 -844 
L 513 -844 
Q 928 -128 1133 580 
Q 1338 1288 1338 2009 
Q 1338 2731 1133 3434 
Q 928 4138 513 4856 
z
" transform="scale(0.015625)"/>
      </defs>
      <use xlink:href="#DejaVuSans-52"/>
      <use xlink:href="#DejaVuSans-57" transform="translate(65.482422 0)"/>
      <use xlink:href="#DejaVuSans-20" transform="translate(164.359375 0)"/>
      <use xlink:href="#DejaVuSans-56" transform="translate(196.146484 0)"/>
      <use xlink:href="#DejaVuSans-6f" transform="translate(256.804688 0)"/>
      <use xlink:href="#DejaVuSans-6c" transform="translate(317.986328 0)"/>
      <use xlink:href="#DejaVuSans-74" transform="translate(345.769531 0)"/>
      <use xlink:href="#DejaVuSans-61" transform="translate(384.978516 0)"/>
      <use xlink:href="#DejaVuSans-67" transform="translate(446.257812 0)"/>
      <use xlink:href="#DejaVuSans-65" transform="translate(509.734375 0)"/>
      <use xlink:href="#DejaVuSans-20" transform="translate(571.257812 0)"/>
      <use xlink:href="#DejaVuSans-28" transform="translate(603.044922 0)"/>
      <use xlink:href="#DejaVuSans-56" transform="translate(642.058594 0)"/>
      <use xlink:href="#DejaVuSans-29" transform="translate(710.466797 0)"/>
      <use xlink:href="#DejaVuSans-20" transform="translate(749.480469 0)"/>
     </g>
    </g>
   </g>
   <g id="line2d_12">
    <path d="M 80.607188 21.265313 
L 96.634418 21.265313 
L 97.24888 21.694227 
L 99.70673 43.536791 
L 102.16458 63.33279 
L 104.007968 76.460325 
L 105.851355 87.861689 
L 107.131485 94.664062 
L 108.36041 100.27996 
L 109.589335 104.976268 
L 110.81826 108.783209 
L 112.047185 111.753808 
L 113.27611 113.952206 
L 114.505035 115.451418 
L 115.73396 116.331074 
L 116.348423 116.564712 
L 117.577348 116.673362 
L 118.806273 116.376161 
L 120.035198 115.759216 
L 121.264123 114.906398 
L 123.721973 112.809193 
L 126.794285 110.177341 
L 128.637673 108.945604 
L 129.866598 108.365997 
L 131.095523 108.021304 
L 132.375653 107.942062 
L 133.604578 108.156514 
L 134.833503 108.670665 
L 136.062428 109.493604 
L 137.291353 110.629176 
L 138.520278 112.0765 
L 139.749203 113.830491 
L 140.978128 115.88239 
L 142.821516 119.491994 
L 144.664903 123.693445 
L 146.508291 128.425741 
L 148.966141 135.443397 
L 152.038453 145.112102 
L 155.725228 157.585818 
L 163.764446 185.219381 
L 165.607833 190.785667 
L 167.451221 195.727307 
L 169.294608 199.9254 
L 170.523533 202.266796 
L 171.752458 204.220893 
L 172.981383 205.776596 
L 174.210308 206.929012 
L 175.439233 207.679053 
L 176.668158 208.032948 
L 177.897083 208.001673 
L 179.126008 207.600343 
L 180.354933 206.847571 
L 181.583858 205.764829 
L 182.812783 204.375821 
L 184.092914 202.630599 
L 185.936301 199.642326 
L 187.779689 196.175205 
L 190.237539 190.963831 
L 193.309851 183.7899 
L 198.840014 170.078057 
L 203.755714 158.103973 
L 207.442489 149.736078 
L 210.566006 143.21971 
L 213.638319 137.391457 
L 216.096169 133.16521 
L 218.554019 129.332189 
L 221.011869 125.889421 
L 223.469719 122.828407 
L 225.927569 120.136614 
L 228.385419 117.798657 
L 230.843269 115.797218 
L 233.301119 114.113734 
L 235.810174 112.703092 
L 238.268024 111.602859 
L 240.725874 110.761426 
L 243.183724 110.159083 
L 245.641574 109.776305 
L 248.099424 109.593844 
L 251.171736 109.618699 
L 254.244049 109.891 
L 257.316361 110.375847 
L 261.054342 111.203909 
L 265.355579 112.410151 
L 270.885742 114.235066 
L 280.102679 117.582274 
L 288.756359 120.651571 
L 294.900984 122.606761 
L 300.431147 124.140378 
L 305.961309 125.432043 
L 310.877009 126.369689 
L 316.458377 127.198394 
L 321.98854 127.786633 
L 328.133165 128.195821 
L 334.27779 128.384055 
L 341.702545 128.374984 
L 350.30502 128.130331 
L 362.645475 127.534879 
L 387.838437 126.261101 
L 387.838437 126.261101 
" clip-path="url(#pe0fd52eca5)" style="fill: none; stroke: #1f77b4; stroke-width: 1.5; stroke-linecap: square"/>
   </g>
   <g id="line2d_13">
    <path d="M 80.607188 21.265313 
L 84.345168 21.265313 
L 85.574093 52.84019 
L 87.41748 99.708768 
L 89.260868 141.319095 
L 91.104255 177.825624 
L 92.947643 209.496504 
L 94.176568 228.064686 
L 94.79103 230.571563 
L 158.234283 230.571563 
L 158.848746 229.836627 
L 160.692133 207.147101 
L 162.535521 186.605391 
L 164.378908 168.181833 
L 166.222296 151.813647 
L 168.065683 137.413495 
L 169.909071 124.876602 
L 171.752458 114.08652 
L 173.595846 104.919697 
L 175.439233 97.249026 
L 176.668158 92.903243 
L 177.897083 89.127893 
L 179.126008 85.885822 
L 180.354933 83.140552 
L 181.583858 80.856445 
L 182.812783 78.998835 
L 184.092914 77.481155 
L 185.321839 76.391309 
L 186.550764 75.629563 
L 187.779689 75.166149 
L 189.008614 74.972672 
L 190.237539 75.02215 
L 191.466464 75.289033 
L 192.695389 75.749226 
L 194.538776 76.752839 
L 196.382164 78.070491 
L 198.225551 79.639096 
L 200.683401 82.024999 
L 203.755714 85.323171 
L 210.566006 93.094334 
L 215.481706 98.551036 
L 219.782944 102.983354 
L 223.469719 106.461153 
L 227.156494 109.620725 
L 230.843269 112.461164 
L 234.581249 115.026441 
L 238.268024 117.264436 
L 241.954799 119.234099 
L 245.641574 120.958655 
L 249.328349 122.461384 
L 253.629586 123.963932 
L 257.930824 125.227593 
L 262.283267 126.292678 
L 267.198967 127.26911 
L 272.729129 128.116586 
L 278.259292 128.731262 
L 284.403917 129.174303 
L 290.599747 129.396067 
L 297.358834 129.415403 
L 304.732384 129.21727 
L 314.000527 128.727532 
L 328.133165 127.710068 
L 346.618245 126.416844 
L 358.293032 125.83409 
L 369.404562 125.495974 
L 381.693813 125.34479 
L 387.838437 125.338806 
L 387.838437 125.338806 
" clip-path="url(#pe0fd52eca5)" style="fill: none; stroke: #ff7f0e; stroke-width: 1.5; stroke-linecap: square"/>
   </g>
   <g id="line2d_14">
    <path d="M 80.607188 204.408281 
L 82.50178 145.86663 
L 83.730705 113.597065 
L 84.95963 85.794194 
L 86.188555 62.223211 
L 87.41748 42.603042 
L 88.646405 26.639645 
L 89.260868 21.265313 
L 107.745948 21.265313 
L 108.36041 22.323181 
L 112.661648 66.150328 
L 115.119498 88.937156 
L 116.962885 104.373215 
L 118.806273 118.158831 
L 120.64966 130.162213 
L 122.493048 140.31684 
L 123.721973 146.053123 
L 124.950898 150.972993 
L 126.179823 155.095271 
L 127.408748 158.446371 
L 128.637673 161.059193 
L 129.866598 162.97204 
L 131.095523 164.227592 
L 131.709985 164.623174 
L 132.375653 164.88622 
L 132.990116 164.982842 
L 133.604578 164.945548 
L 134.219041 164.780666 
L 135.447966 164.093708 
L 136.676891 162.973299 
L 137.905816 161.470655 
L 139.134741 159.636311 
L 140.978128 156.370439 
L 142.821516 152.628575 
L 145.893828 145.734215 
L 152.652916 130.225212 
L 155.110766 125.19394 
L 156.954153 121.804113 
L 158.848746 118.724943 
L 160.692133 116.190235 
L 161.921058 114.819113 
L 163.149983 113.73777 
L 164.378908 112.959624 
L 165.607833 112.48514 
L 166.836758 112.303565 
L 168.065683 112.394768 
L 169.294608 112.731131 
L 170.523533 113.279422 
L 172.366921 114.417524 
L 174.824771 116.316854 
L 179.740471 120.296754 
L 181.583858 121.527589 
L 183.478451 122.519687 
L 185.321839 123.173452 
L 187.165226 123.496169 
L 189.008614 123.483601 
L 190.852001 123.148041 
L 192.695389 122.515279 
L 194.538776 121.621447 
L 196.382164 120.509939 
L 198.840014 118.772252 
L 202.526789 115.856165 
L 207.442489 111.965813 
L 210.566006 109.794014 
L 213.023856 108.357636 
L 215.481706 107.208941 
L 217.325094 106.552143 
L 219.168481 106.076825 
L 221.011869 105.783608 
L 222.855256 105.669269 
L 224.698644 105.727302 
L 227.156494 106.05653 
L 229.614344 106.647856 
L 232.072194 107.468862 
L 235.195711 108.788055 
L 238.882486 110.647454 
L 243.798186 113.440405 
L 255.472974 120.222714 
L 259.774211 122.43436 
L 264.126654 124.406198 
L 267.813429 125.843672 
L 271.500204 127.060231 
L 275.186979 128.058133 
L 278.873754 128.846307 
L 283.174992 129.519318 
L 287.527434 129.95684 
L 292.443134 130.196173 
L 297.358834 130.210975 
L 303.503459 129.984736 
L 310.877009 129.465205 
L 322.603002 128.368614 
L 339.244695 126.842578 
L 349.690557 126.120463 
L 360.13642 125.632835 
L 371.24795 125.354352 
L 384.151663 125.274819 
L 387.838437 125.287324 
L 387.838437 125.287324 
" clip-path="url(#pe0fd52eca5)" style="fill: none; stroke: #2ca02c; stroke-width: 1.5; stroke-linecap: square"/>
   </g>
   <g id="line2d_15">
    <path d="M 80.607188 21.265313 
L 96.634418 21.265313 
L 97.24888 21.694227 
L 99.70673 43.536791 
L 102.16458 63.33279 
L 104.007968 76.460325 
L 105.851355 87.861689 
L 107.131485 94.664062 
L 108.36041 100.27996 
L 109.589335 104.976268 
L 110.81826 108.783209 
L 112.047185 111.753808 
L 113.27611 113.952206 
L 114.505035 115.451418 
L 115.73396 116.331074 
L 116.348423 116.564712 
L 117.577348 116.673362 
L 118.806273 116.376161 
L 120.035198 115.759216 
L 121.264123 114.906398 
L 123.721973 112.809193 
L 126.794285 110.177341 
L 128.637673 108.945604 
L 129.866598 108.365997 
L 131.095523 108.021304 
L 132.375653 107.942062 
L 133.604578 108.156514 
L 134.833503 108.670665 
L 136.062428 109.493604 
L 137.291353 110.629176 
L 138.520278 112.0765 
L 139.749203 113.830491 
L 140.978128 115.88239 
L 142.821516 119.491994 
L 144.664903 123.693445 
L 146.508291 128.425741 
L 148.966141 135.443397 
L 152.038453 145.112102 
L 155.725228 157.585818 
L 163.764446 185.219381 
L 165.607833 190.785667 
L 167.451221 195.727307 
L 169.294608 199.9254 
L 170.523533 202.266796 
L 171.752458 204.220893 
L 172.981383 205.776596 
L 174.210308 206.929012 
L 175.439233 207.679053 
L 176.668158 208.032948 
L 177.897083 208.001673 
L 179.126008 207.600343 
L 180.354933 206.847571 
L 181.583858 205.764829 
L 182.812783 204.375821 
L 184.092914 202.630599 
L 185.936301 199.642326 
L 187.779689 196.175205 
L 190.237539 190.963831 
L 193.309851 183.7899 
L 198.840014 170.078057 
L 203.755714 158.103973 
L 207.442489 149.736078 
L 210.566006 143.21971 
L 213.638319 137.391457 
L 216.096169 133.16521 
L 218.554019 129.332189 
L 221.011869 125.889421 
L 223.469719 122.828407 
L 225.927569 120.136614 
L 228.385419 117.798657 
L 230.843269 115.797218 
L 233.301119 114.113734 
L 235.810174 112.703092 
L 238.268024 111.602859 
L 240.725874 110.761426 
L 243.183724 110.159083 
L 245.641574 109.776305 
L 248.099424 109.593844 
L 251.171736 109.618699 
L 254.244049 109.891 
L 257.316361 110.375847 
L 261.054342 111.203909 
L 265.355579 112.410151 
L 270.885742 114.235066 
L 280.102679 117.582274 
L 288.756359 120.651571 
L 294.900984 122.606761 
L 300.431147 124.140378 
L 305.961309 125.432043 
L 310.877009 126.369689 
L 316.458377 127.198394 
L 321.98854 127.786633 
L 328.133165 128.195821 
L 334.27779 128.384055 
L 341.702545 128.374984 
L 350.30502 128.130331 
L 362.645475 127.534879 
L 387.838437 126.261101 
L 387.838437 126.261101 
" clip-path="url(#pe0fd52eca5)" style="fill: none; stroke: #d62728; stroke-width: 1.5; stroke-linecap: square"/>
   </g>
   <g id="line2d_16">
    <path d="M 80.607188 21.265313 
L 84.345168 21.265313 
L 85.574093 52.84019 
L 87.41748 99.708768 
L 89.260868 141.319095 
L 91.104255 177.825624 
L 92.947643 209.496504 
L 94.176568 228.064686 
L 94.79103 230.571563 
L 158.234283 230.571563 
L 158.848746 229.836627 
L 160.692133 207.147101 
L 162.535521 186.605391 
L 164.378908 168.181833 
L 166.222296 151.813647 
L 168.065683 137.413495 
L 169.909071 124.876602 
L 171.752458 114.08652 
L 173.595846 104.919697 
L 175.439233 97.249026 
L 176.668158 92.903243 
L 177.897083 89.127893 
L 179.126008 85.885822 
L 180.354933 83.140552 
L 181.583858 80.856445 
L 182.812783 78.998835 
L 184.092914 77.481155 
L 185.321839 76.391309 
L 186.550764 75.629563 
L 187.779689 75.166149 
L 189.008614 74.972672 
L 190.237539 75.02215 
L 191.466464 75.289033 
L 192.695389 75.749226 
L 194.538776 76.752839 
L 196.382164 78.070491 
L 198.225551 79.639096 
L 200.683401 82.024999 
L 203.755714 85.323171 
L 210.566006 93.094334 
L 215.481706 98.551036 
L 219.782944 102.983354 
L 223.469719 106.461153 
L 227.156494 109.620725 
L 230.843269 112.461164 
L 234.581249 115.026441 
L 238.268024 117.264436 
L 241.954799 119.234099 
L 245.641574 120.958655 
L 249.328349 122.461384 
L 253.629586 123.963932 
L 257.930824 125.227593 
L 262.283267 126.292678 
L 267.198967 127.26911 
L 272.729129 128.116586 
L 278.259292 128.731262 
L 284.403917 129.174303 
L 290.599747 129.396067 
L 297.358834 129.415403 
L 304.732384 129.21727 
L 314.000527 128.727532 
L 328.133165 127.710068 
L 346.618245 126.416844 
L 358.293032 125.83409 
L 369.404562 125.495974 
L 381.693813 125.34479 
L 387.838437 125.338806 
L 387.838437 125.338806 
" clip-path="url(#pe0fd52eca5)" style="fill: none; stroke: #9467bd; stroke-width: 1.5; stroke-linecap: square"/>
   </g>
   <g id="line2d_17">
    <path d="M 80.607188 204.408281 
L 82.50178 145.86663 
L 83.730705 113.597065 
L 84.95963 85.794194 
L 86.188555 62.223211 
L 87.41748 42.603042 
L 88.646405 26.639645 
L 89.260868 21.265313 
L 107.745948 21.265313 
L 108.36041 22.323181 
L 112.661648 66.150328 
L 115.119498 88.937156 
L 116.962885 104.373215 
L 118.806273 118.158831 
L 120.64966 130.162213 
L 122.493048 140.31684 
L 123.721973 146.053123 
L 124.950898 150.972993 
L 126.179823 155.095271 
L 127.408748 158.446371 
L 128.637673 161.059193 
L 129.866598 162.97204 
L 131.095523 164.227592 
L 131.709985 164.623174 
L 132.375653 164.88622 
L 132.990116 164.982842 
L 133.604578 164.945548 
L 134.219041 164.780666 
L 135.447966 164.093708 
L 136.676891 162.973299 
L 137.905816 161.470655 
L 139.134741 159.636311 
L 140.978128 156.370439 
L 142.821516 152.628575 
L 145.893828 145.734215 
L 152.652916 130.225212 
L 155.110766 125.19394 
L 156.954153 121.804113 
L 158.848746 118.724943 
L 160.692133 116.190235 
L 161.921058 114.819113 
L 163.149983 113.73777 
L 164.378908 112.959624 
L 165.607833 112.48514 
L 166.836758 112.303565 
L 168.065683 112.394768 
L 169.294608 112.731131 
L 170.523533 113.279422 
L 172.366921 114.417524 
L 174.824771 116.316854 
L 179.740471 120.296754 
L 181.583858 121.527589 
L 183.478451 122.519687 
L 185.321839 123.173452 
L 187.165226 123.496169 
L 189.008614 123.483601 
L 190.852001 123.148041 
L 192.695389 122.515279 
L 194.538776 121.621447 
L 196.382164 120.509939 
L 198.840014 118.772252 
L 202.526789 115.856165 
L 207.442489 111.965813 
L 210.566006 109.794014 
L 213.023856 108.357636 
L 215.481706 107.208941 
L 217.325094 106.552143 
L 219.168481 106.076825 
L 221.011869 105.783608 
L 222.855256 105.669269 
L 224.698644 105.727302 
L 227.156494 106.05653 
L 229.614344 106.647856 
L 232.072194 107.468862 
L 235.195711 108.788055 
L 238.882486 110.647454 
L 243.798186 113.440405 
L 255.472974 120.222714 
L 259.774211 122.43436 
L 264.126654 124.406198 
L 267.813429 125.843672 
L 271.500204 127.060231 
L 275.186979 128.058133 
L 278.873754 128.846307 
L 283.174992 129.519318 
L 287.527434 129.95684 
L 292.443134 130.196173 
L 297.358834 130.210975 
L 303.503459 129.984736 
L 310.877009 129.465205 
L 322.603002 128.368614 
L 339.244695 126.842578 
L 349.690557 126.120463 
L 360.13642 125.632835 
L 371.24795 125.354352 
L 384.151663 125.274819 
L 387.838437 125.287324 
L 387.838437 125.287324 
" clip-path="url(#pe0fd52eca5)" style="fill: none; stroke: #8c564b; stroke-width: 1.5; stroke-linecap: square"/>
   </g>
   <g id="line2d_18">
    <path d="M 80.607188 21.265313 
L 96.634418 21.265313 
L 97.24888 21.694227 
L 99.70673 43.536791 
L 102.16458 63.33279 
L 104.007968 76.460325 
L 105.851355 87.861689 
L 107.131485 94.664062 
L 108.36041 100.27996 
L 109.589335 104.976268 
L 110.81826 108.783209 
L 112.047185 111.753808 
L 113.27611 113.952206 
L 114.505035 115.451418 
L 115.73396 116.331074 
L 116.348423 116.564712 
L 117.577348 116.673362 
L 118.806273 116.376161 
L 120.035198 115.759216 
L 121.264123 114.906398 
L 123.721973 112.809193 
L 126.794285 110.177341 
L 128.637673 108.945604 
L 129.866598 108.365997 
L 131.095523 108.021304 
L 132.375653 107.942062 
L 133.604578 108.156514 
L 134.833503 108.670665 
L 136.062428 109.493604 
L 137.291353 110.629176 
L 138.520278 112.0765 
L 139.749203 113.830491 
L 140.978128 115.88239 
L 142.821516 119.491994 
L 144.664903 123.693445 
L 146.508291 128.425741 
L 148.966141 135.443397 
L 152.038453 145.112102 
L 155.725228 157.585818 
L 163.764446 185.219381 
L 165.607833 190.785667 
L 167.451221 195.727307 
L 169.294608 199.9254 
L 170.523533 202.266796 
L 171.752458 204.220893 
L 172.981383 205.776596 
L 174.210308 206.929012 
L 175.439233 207.679053 
L 176.668158 208.032948 
L 177.897083 208.001673 
L 179.126008 207.600343 
L 180.354933 206.847571 
L 181.583858 205.764829 
L 182.812783 204.375821 
L 184.092914 202.630599 
L 185.936301 199.642326 
L 187.779689 196.175205 
L 190.237539 190.963831 
L 193.309851 183.7899 
L 198.840014 170.078057 
L 203.755714 158.103973 
L 207.442489 149.736078 
L 210.566006 143.21971 
L 213.638319 137.391457 
L 216.096169 133.16521 
L 218.554019 129.332189 
L 221.011869 125.889421 
L 223.469719 122.828407 
L 225.927569 120.136614 
L 228.385419 117.798657 
L 230.843269 115.797218 
L 233.301119 114.113734 
L 235.810174 112.703092 
L 238.268024 111.602859 
L 240.725874 110.761426 
L 243.183724 110.159083 
L 245.641574 109.776305 
L 248.099424 109.593844 
L 251.171736 109.618699 
L 254.244049 109.891 
L 257.316361 110.375847 
L 261.054342 111.203909 
L 265.355579 112.410151 
L 270.885742 114.235066 
L 280.102679 117.582274 
L 288.756359 120.651571 
L 294.900984 122.606761 
L 300.431147 124.140378 
L 305.961309 125.432043 
L 310.877009 126.369689 
L 316.458377 127.198394 
L 321.98854 127.786633 
L 328.133165 128.195821 
L 334.27779 128.384055 
L 341.702545 128.374984 
L 350.30502 128.130331 
L 362.645475 127.534879 
L 387.838437 126.261101 
L 387.838437 126.261101 
" clip-path="url(#pe0fd52eca5)" style="fill: none; stroke: #e377c2; stroke-width: 1.5; stroke-linecap: square"/>
   </g>
   <g id="line2d_19">
    <path d="M 80.607188 21.265313 
L 84.345168 21.265313 
L 85.574093 52.84019 
L 87.41748 99.708768 
L 89.260868 141.319095 
L 91.104255 177.825624 
L 92.947643 209.496504 
L 94.176568 228.064686 
L 94.79103 230.571563 
L 158.234283 230.571563 
L 158.848746 229.836627 
L 160.692133 207.147101 
L 162.535521 186.605391 
L 164.378908 168.181833 
L 166.222296 151.813647 
L 168.065683 137.413495 
L 169.909071 124.876602 
L 171.752458 114.08652 
L 173.595846 104.919697 
L 175.439233 97.249026 
L 176.668158 92.903243 
L 177.897083 89.127893 
L 179.126008 85.885822 
L 180.354933 83.140552 
L 181.583858 80.856445 
L 182.812783 78.998835 
L 184.092914 77.481155 
L 185.321839 76.391309 
L 186.550764 75.629563 
L 187.779689 75.166149 
L 189.008614 74.972672 
L 190.237539 75.02215 
L 191.466464 75.289033 
L 192.695389 75.749226 
L 194.538776 76.752839 
L 196.382164 78.070491 
L 198.225551 79.639096 
L 200.683401 82.024999 
L 203.755714 85.323171 
L 210.566006 93.094334 
L 215.481706 98.551036 
L 219.782944 102.983354 
L 223.469719 106.461153 
L 227.156494 109.620725 
L 230.843269 112.461164 
L 234.581249 115.026441 
L 238.268024 117.264436 
L 241.954799 119.234099 
L 245.641574 120.958655 
L 249.328349 122.461384 
L 253.629586 123.963932 
L 257.930824 125.227593 
L 262.283267 126.292678 
L 267.198967 127.26911 
L 272.729129 128.116586 
L 278.259292 128.731262 
L 284.403917 129.174303 
L 290.599747 129.396067 
L 297.358834 129.415403 
L 304.732384 129.21727 
L 314.000527 128.727532 
L 328.133165 127.710068 
L 346.618245 126.416844 
L 358.293032 125.83409 
L 369.404562 125.495974 
L 381.693813 125.34479 
L 387.838437 125.338806 
L 387.838437 125.338806 
" clip-path="url(#pe0fd52eca5)" style="fill: none; stroke: #7f7f7f; stroke-width: 1.5; stroke-linecap: square"/>
   </g>
   <g id="line2d_20">
    <path d="M 80.607188 204.408281 
L 82.50178 145.86663 
L 83.730705 113.597065 
L 84.95963 85.794194 
L 86.188555 62.223211 
L 87.41748 42.603042 
L 88.646405 26.639645 
L 89.260868 21.265313 
L 107.745948 21.265313 
L 108.36041 22.323181 
L 112.661648 66.150328 
L 115.119498 88.937156 
L 116.962885 104.373215 
L 118.806273 118.158831 
L 120.64966 130.162213 
L 122.493048 140.31684 
L 123.721973 146.053123 
L 124.950898 150.972993 
L 126.179823 155.095271 
L 127.408748 158.446371 
L 128.637673 161.059193 
L 129.866598 162.97204 
L 131.095523 164.227592 
L 131.709985 164.623174 
L 132.375653 164.88622 
L 132.990116 164.982842 
L 133.604578 164.945548 
L 134.219041 164.780666 
L 135.447966 164.093708 
L 136.676891 162.973299 
L 137.905816 161.470655 
L 139.134741 159.636311 
L 140.978128 156.370439 
L 142.821516 152.628575 
L 145.893828 145.734215 
L 152.652916 130.225212 
L 155.110766 125.19394 
L 156.954153 121.804113 
L 158.848746 118.724943 
L 160.692133 116.190235 
L 161.921058 114.819113 
L 163.149983 113.73777 
L 164.378908 112.959624 
L 165.607833 112.48514 
L 166.836758 112.303565 
L 168.065683 112.394768 
L 169.294608 112.731131 
L 170.523533 113.279422 
L 172.366921 114.417524 
L 174.824771 116.316854 
L 179.740471 120.296754 
L 181.583858 121.527589 
L 183.478451 122.519687 
L 185.321839 123.173452 
L 187.165226 123.496169 
L 189.008614 123.483601 
L 190.852001 123.148041 
L 192.695389 122.515279 
L 194.538776 121.621447 
L 196.382164 120.509939 
L 198.840014 118.772252 
L 202.526789 115.856165 
L 207.442489 111.965813 
L 210.566006 109.794014 
L 213.023856 108.357636 
L 215.481706 107.208941 
L 217.325094 106.552143 
L 219.168481 106.076825 
L 221.011869 105.783608 
L 222.855256 105.669269 
L 224.698644 105.727302 
L 227.156494 106.05653 
L 229.614344 106.647856 
L 232.072194 107.468862 
L 235.195711 108.788055 
L 238.882486 110.647454 
L 243.798186 113.440405 
L 255.472974 120.222714 
L 259.774211 122.43436 
L 264.126654 124.406198 
L 267.813429 125.843672 
L 271.500204 127.060231 
L 275.186979 128.058133 
L 278.873754 128.846307 
L 283.174992 129.519318 
L 287.527434 129.95684 
L 292.443134 130.196173 
L 297.358834 130.210975 
L 303.503459 129.984736 
L 310.877009 129.465205 
L 322.603002 128.368614 
L 339.244695 126.842578 
L 349.690557 126.120463 
L 360.13642 125.632835 
L 371.24795 125.354352 
L 384.151663 125.274819 
L 387.838437 125.287324 
L 387.838437 125.287324 
" clip-path="url(#pe0fd52eca5)" style="fill: none; stroke: #bcbd22; stroke-width: 1.5; stroke-linecap: square"/>
   </g>
   <g id="patch_3">
    <path d="M 65.245625 241.036875 
L 65.245625 10.8 
" style="fill: none; stroke: #000000; stroke-width: 0.8; stroke-linejoin: miter; stroke-linecap: square"/>
   </g>
   <g id="patch_4">
    <path d="M 403.2 241.036875 
L 403.2 10.8 
" style="fill: none; stroke: #000000; stroke-width: 0.8; stroke-linejoin: miter; stroke-linecap: square"/>
   </g>
   <g id="patch_5">
    <path d="M 65.245625 241.036875 
L 403.2 241.036875 
" style="fill: none; stroke: #000000; stroke-width: 0.8; stroke-linejoin: miter; stroke-linecap: square"/>
   </g>
   <g id="patch_6">
    <path d="M 65.245625 10.8 
L 403.2 10.8 
" style="fill: none; stroke: #000000; stroke-width: 0.8; stroke-linejoin: miter; stroke-linecap: square"/>
   </g>
  </g>
 </g>
 <defs>
  <clipPath id="pe0fd52eca5">
   <rect x="65.245625" y="10.8" width="337.954375" height="230.236875"/>
  </clipPath>
 </defs>
</svg>
