<?xml version="1.0" encoding="utf-8" standalone="no"?>
<!DOCTYPE svg PUBLIC "-//W3C//DTD SVG 1.1//EN"
  "http://www.w3.org/Graphics/SVG/1.1/DTD/svg11.dtd">
<svg xmlns:xlink="http://www.w3.org/1999/xlink" width="414pt" height="288pt" viewBox="0 0 414 288" xmlns="http://www.w3.org/2000/svg" version="1.1">
 <metadata>
  <rdf:RDF xmlns:dc="http://purl.org/dc/elements/1.1/" xmlns:cc="http://creativecommons.org/ns#" xmlns:rdf="http://www.w3.org/1999/02/22-rdf-syntax-ns#">
   <cc:Work>
    <dc:type rdf:resource="http://purl.org/dc/dcmitype/StillImage"/>
    <dc:date>2026-01-09T20:56:35.300288</dc:date>
    <dc:format>image/svg+xml</dc:format>
    <dc:creator>
     <cc:Agent>
      <dc:title>Matplotlib v3.10.7, https://matplotlib.org/</dc:title>
     </cc:Agent>
    </dc:creator>
   </cc:Work>
  </rdf:RDF>
 </metadata>
 <defs>
  <style type="text/css">*{stroke-linejoin: round; stroke-linecap: butt}</style>
 </defs>
 <g id="figure_1">
  <g id="patch_1">
   <path d="M 0 288 
L 414 288 
L 414 0 
L 0 0 
L 0 288 
z
" style="fill: none"/>
  </g>
  <g id="axes_1">
   <g id="patch_2">
    <path d="M 86.3175 235.23 
L 403.2 235.23 
L 403.2 28.9575 
L 86.3175 28.9575 
L 86.3175 235.23 
z
" style="fill: none"/>
   </g>
   <g id="matplotlib.axis_1">
    <g id="xtick_1">
     <g id="line2d_1">
      <path d="M 100.72125 235.23 
L 100.72125 28.9575 
" clip-path="url(#p331b6aeb57)" style="fill: none; stroke: #b0b0b0; stroke-width: 0.8; stroke-linecap: square"/>
     </g>
     <g id="line2d_2">
      <defs>
       <path id="m7b93dfe240" d="M 0 0 
L 0 3.5 
" style="stroke: #000000; stroke-width: 0.8"/>
      </defs>
      <g>
       <use xlink:href="#m7b93dfe240" x="100.72125" y="235.23" style="stroke: #000000; stroke-width: 0.8"/>
      </g>
     </g>
     <g id="text_1">
      <!-- 0 -->
      <g transform="translate(95.63125 254.3875) scale(0.16 -0.16)">
       <defs>
        <path id="DejaVuSans-30" d="M 2034 4250 
Q 1547 4250 1301 3770 
Q 1056 3291 1056 2328 
Q 1056 1369 1301 889 
Q 1547 409 2034 409 
Q 2525 409 2770 889 
Q 3016 1369 3016 2328 
Q 3016 3291 2770 3770 
Q 2525 4250 2034 4250 
z
M 2034 4750 
Q 2819 4750 3233 4129 
Q 3647 3509 3647 2328 
Q 3647 1150 3233 529 
Q 2819 -91 2034 -91 
Q 1250 -91 836 529 
Q 422 1150 422 2328 
Q 422 3509 836 4129 
Q 1250 4750 2034 4750 
z
" transform="scale(0.015625)"/>
       </defs>
       <use xlink:href="#DejaVuSans-30"/>
      </g>
     </g>
    </g>
    <g id="xtick_2">
     <g id="line2d_3">
      <path d="M 164.737917 235.23 
L 164.737917 28.9575 
" clip-path="url(#p331b6aeb57)" style="fill: none; stroke: #b0b0b0; stroke-width: 0.8; stroke-linecap: square"/>
     </g>
     <g id="line2d_4">
      <g>
       <use xlink:href="#m7b93dfe240" x="164.737917" y="235.23" style="stroke: #000000; stroke-width: 0.8"/>
      </g>
     </g>
     <g id="text_2">
      <!-- 20 -->
      <g transform="translate(154.557917 254.3875) scale(0.16 -0.16)">
       <defs>
        <path id="DejaVuSans-32" d="M 1228 531 
L 3431 531 
L 3431 0 
L 469 0 
L 469 531 
Q 828 903 1448 1529 
Q 2069 2156 2228 2338 
Q 2531 2678 2651 2914 
Q 2772 3150 2772 3378 
Q 2772 3750 2511 3984 
Q 2250 4219 1831 4219 
Q 1534 4219 1204 4116 
Q 875 4013 500 3803 
L 500 4441 
Q 881 4594 1212 4672 
Q 1544 4750 1819 4750 
Q 2544 4750 2975 4387 
Q 3406 4025 3406 3419 
Q 3406 3131 3298 2873 
Q 3191 2616 2906 2266 
Q 2828 2175 2409 1742 
Q 1991 1309 1228 531 
z
" transform="scale(0.015625)"/>
       </defs>
       <use xlink:href="#DejaVuSans-32"/>
       <use xlink:href="#DejaVuSans-30" transform="translate(63.623047 0)"/>
      </g>
     </g>
    </g>
    <g id="xtick_3">
     <g id="line2d_5">
      <path d="M 228.754583 235.23 
L 228.754583 28.9575 
" clip-path="url(#p331b6aeb57)" style="fill: none; stroke: #b0b0b0; stroke-width: 0.8; stroke-linecap: square"/>
     </g>
     <g id="line2d_6">
      <g>
       <use xlink:href="#m7b93dfe240" x="228.754583" y="235.23" style="stroke: #000000; stroke-width: 0.8"/>
      </g>
     </g>
     <g id="text_3">
      <!-- 40 -->
      <g transform="translate(218.574583 254.3875) scale(0.16 -0.16)">
       <defs>
        <path id="DejaVuSans-34" d="M 2419 4116 
L 825 1625 
L 2419 1625 
L 2419 4116 
z
M 2253 4666 
L 3047 4666 
L 3047 1625 
L 3713 1625 
L 3713 1100 
L 3047 1100 
L 3047 0 
L 2419 0 
L 2419 1100 
L 313 1100 
L 313 1709 
L 2253 4666 
z
" transform="scale(0.015625)"/>
       </defs>
       <use xlink:href="#DejaVuSans-34"/>
       <use xlink:href="#DejaVuSans-30" transform="translate(63.623047 0)"/>
      </g>
     </g>
    </g>
    <g id="xtick_4">
     <g id="line2d_7">
      <path d="M 292.77125 235.23 
L 292.77125 28.9575 
" clip-path="url(#p331b6aeb57)" style="fill: none; stroke: #b0b0b0; stroke-width: 0.8; stroke-linecap: square"/>
     </g>
     <g id="line2d_8">
      <g>
       <use xlink:href="#m7b93dfe240" x="292.77125" y="235.23" style="stroke: #000000; stroke-width: 0.8"/>
      </g>
     </g>
     <g id="text_4">
      <!-- 60 -->
      <g transform="translate(282.59125 254.3875) scale(0.16 -0.16)">
       <defs>
        <path id="DejaVuSans-36" d="M 2113 2584 
Q 1688 2584 1439 2293 
Q 1191 2003 1191 1497 
Q 1191 994 1439 701 
Q 1688 409 2113 409 
Q 2538 409 2786 701 
Q 3034 994 3034 1497 
Q 3034 2003 2786 2293 
Q 2538 2584 2113 2584 
z
M 3366 4563 
L 3366 3988 
Q 3128 4100 2886 4159 
Q 2644 4219 2406 4219 
Q 1781 4219 1451 3797 
Q 1122 3375 1075 2522 
Q 1259 2794 1537 2939 
Q 1816 3084 2150 3084 
Q 2853 3084 3261 2657 
Q 3669 2231 3669 1497 
Q 3669 778 3244 343 
Q 2819 -91 2113 -91 
Q 1303 -91 875 529 
Q 447 1150 447 2328 
Q 447 3434 972 4092 
Q 1497 4750 2381 4750 
Q 2619 4750 2861 4703 
Q 3103 4656 3366 4563 
z
" transform="scale(0.015625)"/>
       </defs>
       <use xlink:href="#DejaVuSans-36"/>
       <use xlink:href="#DejaVuSans-30" transform="translate(63.623047 0)"/>
      </g>
     </g>
    </g>
    <g id="xtick_5">
     <g id="line2d_9">
      <path d="M 356.787917 235.23 
L 356.787917 28.9575 
" clip-path="url(#p331b6aeb57)" style="fill: none; stroke: #b0b0b0; stroke-width: 0.8; stroke-linecap: square"/>
     </g>
     <g id="line2d_10">
      <g>
       <use xlink:href="#m7b93dfe240" x="356.787917" y="235.23" style="stroke: #000000; stroke-width: 0.8"/>
      </g>
     </g>
     <g id="text_5">
      <!-- 80 -->
      <g transform="translate(346.607917 254.3875) scale(0.16 -0.16)">
       <defs>
        <path id="DejaVuSans-38" d="M 2034 2216 
Q 1584 2216 1326 1975 
Q 1069 1734 1069 1313 
Q 1069 891 1326 650 
Q 1584 409 2034 409 
Q 2484 409 2743 651 
Q 3003 894 3003 1313 
Q 3003 1734 2745 1975 
Q 2488 2216 2034 2216 
z
M 1403 2484 
Q 997 2584 770 2862 
Q 544 3141 544 3541 
Q 544 4100 942 4425 
Q 1341 4750 2034 4750 
Q 2731 4750 3128 4425 
Q 3525 4100 3525 3541 
Q 3525 3141 3298 2862 
Q 3072 2584 2669 2484 
Q 3125 2378 3379 2068 
Q 3634 1759 3634 1313 
Q 3634 634 3220 271 
Q 2806 -91 2034 -91 
Q 1263 -91 848 271 
Q 434 634 434 1313 
Q 434 1759 690 2068 
Q 947 2378 1403 2484 
z
M 1172 3481 
Q 1172 3119 1398 2916 
Q 1625 2713 2034 2713 
Q 2441 2713 2670 2916 
Q 2900 3119 2900 3481 
Q 2900 3844 2670 4047 
Q 2441 4250 2034 4250 
Q 1625 4250 1398 4047 
Q 1172 3844 1172 3481 
z
" transform="scale(0.015625)"/>
       </defs>
       <use xlink:href="#DejaVuSans-38"/>
       <use xlink:href="#DejaVuSans-30" transform="translate(63.623047 0)"/>
      </g>
     </g>
    </g>
    <g id="text_6">
     <!-- Time (s) -->
     <g transform="translate(212.2325 273.8725) scale(0.16 -0.16)">
      <defs>
       <path id="DejaVuSans-54" d="M -19 4666 
L 3928 4666 
L 3928 4134 
L 2272 4134 
L 2272 0 
L 1638 0 
L 1638 4134 
L -19 4134 
L -19 4666 
z
" transform="scale(0.015625)"/>
       <path id="DejaVuSans-69" d="M 603 3500 
L 1178 3500 
L 1178 0 
L 603 0 
L 603 3500 
z
M 603 4863 
L 1178 4863 
L 1178 4134 
L 603 4134 
L 603 4863 
z
" transform="scale(0.015625)"/>
       <path id="DejaVuSans-6d" d="M 3328 2828 
Q 3544 3216 3844 3400 
Q 4144 3584 4550 3584 
Q 5097 3584 5394 3201 
Q 5691 2819 5691 2113 
L 5691 0 
L 5113 0 
L 5113 2094 
Q 5113 2597 4934 2840 
Q 4756 3084 4391 3084 
Q 3944 3084 3684 2787 
Q 3425 2491 3425 1978 
L 3425 0 
L 2847 0 
L 2847 2094 
Q 2847 2600 2669 2842 
Q 2491 3084 2119 3084 
Q 1678 3084 1418 2786 
Q 1159 2488 1159 1978 
L 1159 0 
L 581 0 
L 581 3500 
L 1159 3500 
L 1159 2956 
Q 1356 3278 1631 3431 
Q 1906 3584 2284 3584 
Q 2666 3584 2933 3390 
Q 3200 3197 3328 2828 
z
" transform="scale(0.015625)"/>
       <path id="DejaVuSans-65" d="M 3597 1894 
L 3597 1613 
L 953 1613 
Q 991 1019 1311 708 
Q 1631 397 2203 397 
Q 2534 397 2845 478 
Q 3156 559 3463 722 
L 3463 178 
Q 3153 47 2828 -22 
Q 2503 -91 2169 -91 
Q 1331 -91 842 396 
Q 353 884 353 1716 
Q 353 2575 817 3079 
Q 1281 3584 2069 3584 
Q 2775 3584 3186 3129 
Q 3597 2675 3597 1894 
z
M 3022 2063 
Q 3016 2534 2758 2815 
Q 2500 3097 2075 3097 
Q 1594 3097 1305 2825 
Q 1016 2553 972 2059 
L 3022 2063 
z
" transform="scale(0.015625)"/>
       <path id="DejaVuSans-20" transform="scale(0.015625)"/>
       <path id="DejaVuSans-28" d="M 1984 4856 
Q 1566 4138 1362 3434 
Q 1159 2731 1159 2009 
Q 1159 1288 1364 580 
Q 1569 -128 1984 -844 
L 1484 -844 
Q 1016 -109 783 600 
Q 550 1309 550 2009 
Q 550 2706 781 3412 
Q 1013 4119 1484 4856 
L 1984 4856 
z
" transform="scale(0.015625)"/>
       <path id="DejaVuSans-73" d="M 2834 3397 
L 2834 2853 
Q 2591 2978 2328 3040 
Q 2066 3103 1784 3103 
Q 1356 3103 1142 2972 
Q 928 2841 928 2578 
Q 928 2378 1081 2264 
Q 1234 2150 1697 2047 
L 1894 2003 
Q 2506 1872 2764 1633 
Q 3022 1394 3022 966 
Q 3022 478 2636 193 
Q 2250 -91 1575 -91 
Q 1294 -91 989 -36 
Q 684 19 347 128 
L 347 722 
Q 666 556 975 473 
Q 1284 391 1588 391 
Q 1994 391 2212 530 
Q 2431 669 2431 922 
Q 2431 1156 2273 1281 
Q 2116 1406 1581 1522 
L 1381 1569 
Q 847 1681 609 1914 
Q 372 2147 372 2553 
Q 372 3047 722 3315 
Q 1072 3584 1716 3584 
Q 2034 3584 2315 3537 
Q 2597 3491 2834 3397 
z
" transform="scale(0.015625)"/>
       <path id="DejaVuSans-29" d="M 513 4856 
L 1013 4856 
Q 1481 4119 1714 3412 
Q 1947 2706 1947 2009 
Q 1947 1309 1714 600 
Q 1481 -109 1013 -844 
L 513 -844 
Q 928 -128 1133 580 
Q 1338 1288 1338 2009 
Q 1338 2731 1133 3434 
Q 928 4138 513 4856 
z
" transform="scale(0.015625)"/>
      </defs>
      <use xlink:href="#DejaVuSans-54"/>
      <use xlink:href="#DejaVuSans-69" transform="translate(57.958984 0)"/>
      <use xlink:href="#DejaVuSans-6d" transform="translate(85.742188 0)"/>
      <use xlink:href="#DejaVuSans-65" transform="translate(183.154297 0)"/>
      <use xlink:href="#DejaVuSans-20" transform="translate(244.677734 0)"/>
      <use xlink:href="#DejaVuSans-28" transform="translate(276.464844 0)"/>
      <use xlink:href="#DejaVuSans-73" transform="translate(315.478516 0)"/>
      <use xlink:href="#DejaVuSans-29" transform="translate(367.578125 0)"/>
     </g>
    </g>
   </g>
   <g id="matplotlib.axis_2">
    <g id="ytick_1">
     <g id="line2d_11">
      <path d="M 86.3175 227.470074 
L 403.2 227.470074 
" clip-path="url(#p331b6aeb57)" style="fill: none; stroke: #b0b0b0; stroke-width: 0.8; stroke-linecap: square"/>
     </g>
     <g id="line2d_12">
      <defs>
       <path id="md5c939d9bf" d="M 0 0 
L -3.5 0 
" style="stroke: #000000; stroke-width: 0.8"/>
      </defs>
      <g>
       <use xlink:href="#md5c939d9bf" x="86.3175" y="227.470074" style="stroke: #000000; stroke-width: 0.8"/>
      </g>
     </g>
     <g id="text_7">
      <!-- −0.04 -->
      <g transform="translate(30.285 233.548824) scale(0.16 -0.16)">
       <defs>
        <path id="DejaVuSans-2212" d="M 678 2272 
L 4684 2272 
L 4684 1741 
L 678 1741 
L 678 2272 
z
" transform="scale(0.015625)"/>
        <path id="DejaVuSans-2e" d="M 684 794 
L 1344 794 
L 1344 0 
L 684 0 
L 684 794 
z
" transform="scale(0.015625)"/>
       </defs>
       <use xlink:href="#DejaVuSans-2212"/>
       <use xlink:href="#DejaVuSans-30" transform="translate(83.789062 0)"/>
       <use xlink:href="#DejaVuSans-2e" transform="translate(147.412109 0)"/>
       <use xlink:href="#DejaVuSans-30" transform="translate(179.199219 0)"/>
       <use xlink:href="#DejaVuSans-34" transform="translate(242.822266 0)"/>
      </g>
     </g>
    </g>
    <g id="ytick_2">
     <g id="line2d_13">
      <path d="M 86.3175 179.781912 
L 403.2 179.781912 
" clip-path="url(#p331b6aeb57)" style="fill: none; stroke: #b0b0b0; stroke-width: 0.8; stroke-linecap: square"/>
     </g>
     <g id="line2d_14">
      <g>
       <use xlink:href="#md5c939d9bf" x="86.3175" y="179.781912" style="stroke: #000000; stroke-width: 0.8"/>
      </g>
     </g>
     <g id="text_8">
      <!-- −0.02 -->
      <g transform="translate(30.285 185.860662) scale(0.16 -0.16)">
       <use xlink:href="#DejaVuSans-2212"/>
       <use xlink:href="#DejaVuSans-30" transform="translate(83.789062 0)"/>
       <use xlink:href="#DejaVuSans-2e" transform="translate(147.412109 0)"/>
       <use xlink:href="#DejaVuSans-30" transform="translate(179.199219 0)"/>
       <use xlink:href="#DejaVuSans-32" transform="translate(242.822266 0)"/>
      </g>
     </g>
    </g>
    <g id="ytick_3">
     <g id="line2d_15">
      <path d="M 86.3175 132.09375 
L 403.2 132.09375 
" clip-path="url(#p331b6aeb57)" style="fill: none; stroke: #b0b0b0; stroke-width: 0.8; stroke-linecap: square"/>
     </g>
     <g id="line2d_16">
      <g>
       <use xlink:href="#md5c939d9bf" x="86.3175" y="132.09375" style="stroke: #000000; stroke-width: 0.8"/>
      </g>
     </g>
     <g id="text_9">
      <!-- 0.00 -->
      <g transform="translate(43.6925 138.1725) scale(0.16 -0.16)">
       <use xlink:href="#DejaVuSans-30"/>
       <use xlink:href="#DejaVuSans-2e" transform="translate(63.623047 0)"/>
       <use xlink:href="#DejaVuSans-30" transform="translate(95.410156 0)"/>
       <use xlink:href="#DejaVuSans-30" transform="translate(159.033203 0)"/>
      </g>
     </g>
    </g>
    <g id="ytick_4">
     <g id="line2d_17">
      <path d="M 86.3175 84.405588 
L 403.2 84.405588 
" clip-path="url(#p331b6aeb57)" style="fill: none; stroke: #b0b0b0; stroke-width: 0.8; stroke-linecap: square"/>
     </g>
     <g id="line2d_18">
      <g>
       <use xlink:href="#md5c939d9bf" x="86.3175" y="84.405588" style="stroke: #000000; stroke-width: 0.8"/>
      </g>
     </g>
     <g id="text_10">
      <!-- 0.02 -->
      <g transform="translate(43.6925 90.484338) scale(0.16 -0.16)">
       <use xlink:href="#DejaVuSans-30"/>
       <use xlink:href="#DejaVuSans-2e" transform="translate(63.623047 0)"/>
       <use xlink:href="#DejaVuSans-30" transform="translate(95.410156 0)"/>
       <use xlink:href="#DejaVuSans-32" transform="translate(159.033203 0)"/>
      </g>
     </g>
    </g>
    <g id="ytick_5">
     <g id="line2d_19">
      <path d="M 86.3175 36.717426 
L 403.2 36.717426 
" clip-path="url(#p331b6aeb57)" style="fill: none; stroke: #b0b0b0; stroke-width: 0.8; stroke-linecap: square"/>
     </g>
     <g id="line2d_20">
      <g>
       <use xlink:href="#md5c939d9bf" x="86.3175" y="36.717426" style="stroke: #000000; stroke-width: 0.8"/>
      </g>
     </g>
     <g id="text_11">
      <!-- 0.04 -->
      <g transform="translate(43.6925 42.796176) scale(0.16 -0.16)">
       <use xlink:href="#DejaVuSans-30"/>
       <use xlink:href="#DejaVuSans-2e" transform="translate(63.623047 0)"/>
       <use xlink:href="#DejaVuSans-30" transform="translate(95.410156 0)"/>
       <use xlink:href="#DejaVuSans-34" transform="translate(159.033203 0)"/>
      </g>
     </g>
    </g>
    <g id="text_12">
     <!-- (deg) -->
     <g transform="translate(22.9575 153.41625) rotate(-90) scale(0.16 -0.16)">
      <defs>
       <path id="DejaVuSans-64" d="M 2906 2969 
L 2906 4863 
L 3481 4863 
L 3481 0 
L 2906 0 
L 2906 525 
Q 2725 213 2448 61 
Q 2172 -91 1784 -91 
Q 1150 -91 751 415 
Q 353 922 353 1747 
Q 353 2572 751 3078 
Q 1150 3584 1784 3584 
Q 2172 3584 2448 3432 
Q 2725 3281 2906 2969 
z
M 947 1747 
Q 947 1113 1208 752 
Q 1469 391 1925 391 
Q 2381 391 2643 752 
Q 2906 1113 2906 1747 
Q 2906 2381 2643 2742 
Q 2381 3103 1925 3103 
Q 1469 3103 1208 2742 
Q 947 2381 947 1747 
z
" transform="scale(0.015625)"/>
       <path id="DejaVuSans-67" d="M 2906 1791 
Q 2906 2416 2648 2759 
Q 2391 3103 1925 3103 
Q 1463 3103 1205 2759 
Q 947 2416 947 1791 
Q 947 1169 1205 825 
Q 1463 481 1925 481 
Q 2391 481 2648 825 
Q 2906 1169 2906 1791 
z
M 3481 434 
Q 3481 -459 3084 -895 
Q 2688 -1331 1869 -1331 
Q 1566 -1331 1297 -1286 
Q 1028 -1241 775 -1147 
L 775 -588 
Q 1028 -725 1275 -790 
Q 1522 -856 1778 -856 
Q 2344 -856 2625 -561 
Q 2906 -266 2906 331 
L 2906 616 
Q 2728 306 2450 153 
Q 2172 0 1784 0 
Q 1141 0 747 490 
Q 353 981 353 1791 
Q 353 2603 747 3093 
Q 1141 3584 1784 3584 
Q 2172 3584 2450 3431 
Q 2728 3278 2906 2969 
L 2906 3500 
L 3481 3500 
L 3481 434 
z
" transform="scale(0.015625)"/>
      </defs>
      <use xlink:href="#DejaVuSans-28"/>
      <use xlink:href="#DejaVuSans-64" transform="translate(39.013672 0)"/>
      <use xlink:href="#DejaVuSans-65" transform="translate(102.490234 0)"/>
      <use xlink:href="#DejaVuSans-67" transform="translate(164.013672 0)"/>
      <use xlink:href="#DejaVuSans-29" transform="translate(227.490234 0)"/>
     </g>
    </g>
   </g>
   <g id="line2d_21">
    <path d="M 100.72125 132.09375 
L 101.361417 132.158993 
L 101.6815 132.440274 
L 102.001583 133.176686 
L 102.321667 134.638801 
L 102.64175 137.090126 
L 102.961833 140.747084 
L 103.602 152.092665 
L 104.56225 177.289513 
L 105.842583 211.147471 
L 106.48275 221.766433 
L 106.802833 224.673748 
L 107.122917 225.853977 
L 107.443 225.306566 
L 107.763083 223.053089 
L 108.083167 219.0804 
L 108.723333 205.879215 
L 109.3635 185.829524 
L 110.32375 146.036577 
L 111.284 105.195122 
L 111.924167 84.81973 
L 112.24425 77.982614 
L 112.564333 73.716217 
L 112.884417 72.126107 
L 113.2045 73.197967 
L 113.524583 76.801969 
L 114.16475 90.569434 
L 115.125 121.678424 
L 116.08525 153.804123 
L 116.725417 169.713556 
L 117.0455 175.005758 
L 117.365583 178.263346 
L 117.685667 179.407956 
L 118.00575 178.455718 
L 118.325833 175.5136 
L 118.966 164.493416 
L 119.92625 139.849359 
L 120.8865 114.582538 
L 121.526667 102.162799 
L 121.84675 98.068293 
L 122.166833 95.583879 
L 122.486917 94.767499 
L 122.807 95.602621 
L 123.127083 98.001287 
L 123.76725 106.819322 
L 124.7275 126.339173 
L 125.68775 146.209044 
L 126.327917 155.902471 
L 126.648 159.068836 
L 126.968083 160.961223 
L 127.288167 161.536984 
L 127.60825 160.812157 
L 127.928333 158.858937 
L 128.5685 151.805395 
L 129.52875 136.346465 
L 130.489 120.722704 
L 131.129167 113.158771 
L 131.44925 110.711363 
L 131.769333 109.271849 
L 132.089417 108.87146 
L 132.4095 109.495185 
L 132.729583 111.083869 
L 133.36975 116.724136 
L 134.33 128.965266 
L 135.29025 141.248763 
L 135.930417 147.149705 
L 136.2505 149.040436 
L 136.570583 150.133885 
L 136.890667 150.407321 
L 137.21075 149.874441 
L 137.530833 148.583642 
L 138.171 144.074926 
L 139.13125 134.383149 
L 140.0915 124.726998 
L 140.731667 120.12447 
L 141.05175 118.664576 
L 141.371833 117.835278 
L 141.691917 117.653007 
L 142.012 118.105496 
L 142.332083 119.15321 
L 142.97225 122.756264 
L 143.9325 130.428563 
L 144.89275 138.018382 
L 145.532917 141.60736 
L 145.853 142.733965 
L 146.173083 143.361877 
L 146.493167 143.479315 
L 146.81325 143.097108 
L 147.133333 142.24751 
L 147.7735 139.369069 
L 148.73375 133.296277 
L 149.694 127.33137 
L 150.334167 124.533404 
L 150.65425 123.664502 
L 150.974333 123.189932 
L 151.294417 123.118052 
L 151.6145 123.439416 
L 151.934583 124.127743 
L 152.57475 126.426619 
L 153.855083 132.904791 
L 154.815333 137.139315 
L 155.4555 138.7705 
L 155.775583 139.128471 
L 156.095667 139.168816 
L 156.41575 138.899696 
L 156.735833 138.342501 
L 157.376 136.507023 
L 158.656333 131.387065 
L 159.616583 128.068904 
L 160.25675 126.805891 
L 160.576833 126.53645 
L 160.896917 126.517512 
L 161.217 126.742077 
L 161.537083 127.192758 
L 162.17725 128.657838 
L 164.737917 135.88391 
L 165.058 136.281047 
L 165.378083 136.483374 
L 165.698167 136.488161 
L 166.01825 136.30137 
L 166.658417 135.416821 
L 167.298583 134.02297 
L 168.899 130.114902 
L 169.539167 129.083917 
L 169.85925 128.778416 
L 170.179333 128.62688 
L 170.499417 128.631099 
L 170.8195 128.786027 
L 171.459667 129.496476 
L 172.419917 131.241194 
L 173.70025 133.680763 
L 174.340417 134.4835 
L 174.980583 134.831507 
L 175.300667 134.821881 
L 175.940833 134.456287 
L 176.581 133.712417 
L 178.821583 130.468157 
L 179.46175 130.016277 
L 180.101917 129.944583 
L 180.742083 130.241858 
L 181.38225 130.83499 
L 183.622833 133.388887 
L 184.263 133.737936 
L 184.903167 133.78662 
L 185.543333 133.545151 
L 186.503583 132.777754 
L 188.104 131.277097 
L 188.744167 130.898817 
L 189.384333 130.746492 
L 190.0245 130.832068 
L 190.664667 131.1264 
L 191.945 132.069376 
L 192.90525 132.747673 
L 193.545417 133.041872 
L 194.185583 133.157153 
L 194.82575 133.084961 
L 195.786 132.684615 
L 198.026583 131.439664 
L 198.986833 131.254497 
L 199.947083 131.395673 
L 201.227417 131.937159 
L 202.827833 132.614405 
L 203.788083 132.756021 
L 204.748333 132.640523 
L 206.028667 132.210834 
L 207.629083 131.679394 
L 208.589333 131.571201 
L 209.549583 131.665556 
L 211.15 132.104445 
L 212.750417 132.468945 
L 214.03075 132.470856 
L 215.631167 132.158584 
L 217.551667 131.796284 
L 218.832 131.79768 
L 220.7525 132.106637 
L 222.673 132.34564 
L 224.273417 132.264137 
L 227.794333 131.89146 
L 229.714833 132.02999 
L 232.2755 132.251136 
L 234.196 132.171181 
L 237.396833 131.967977 
L 239.9575 132.103536 
L 242.518167 132.189426 
L 245.078833 132.064487 
L 245.398917 131.986491 
L 245.719 131.6917 
L 246.039083 130.944618 
L 246.359167 129.475051 
L 246.67925 127.019715 
L 246.999333 123.362254 
L 247.6395 112.025695 
L 248.59975 86.862093 
L 249.880083 53.061369 
L 250.52025 42.465365 
L 250.840333 39.566342 
L 251.160417 38.391853 
L 251.4805 38.942285 
L 251.800583 41.196016 
L 252.120667 45.166266 
L 252.760833 58.355362 
L 253.401 78.38572 
L 254.36125 118.144357 
L 255.3215 158.957036 
L 255.961667 179.32157 
L 256.28175 186.156418 
L 256.601833 190.422729 
L 256.921917 192.014873 
L 257.242 190.947009 
L 257.562083 187.348731 
L 258.20225 173.596632 
L 259.1625 142.514723 
L 260.12275 110.411566 
L 260.762917 94.510531 
L 261.083 89.220027 
L 261.403083 85.962416 
L 261.723167 84.816117 
L 262.04325 85.765125 
L 262.363333 88.702661 
L 263.0035 99.710634 
L 263.96375 124.333318 
L 264.924 149.582485 
L 265.564167 161.995731 
L 265.88425 166.088969 
L 266.204333 168.573472 
L 266.524417 169.391252 
L 266.8445 168.558739 
L 267.164583 166.163738 
L 267.80475 157.355406 
L 268.765 137.852421 
L 269.72525 117.996375 
L 270.365417 108.307964 
L 270.6855 105.142543 
L 271.005583 103.25003 
L 271.325667 102.673112 
L 271.64575 103.395833 
L 271.965833 105.346121 
L 272.606 112.391956 
L 273.56625 127.837578 
L 274.5265 143.450515 
L 275.166667 151.010574 
L 275.48675 153.457282 
L 275.806833 154.89694 
L 276.126917 155.298283 
L 276.447 154.676256 
L 276.767083 153.089917 
L 277.40725 147.455772 
L 278.3675 135.225139 
L 279.32775 122.950116 
L 279.967917 117.052164 
L 280.288 115.16195 
L 280.608083 114.068353 
L 280.928167 113.794132 
L 281.24825 114.325643 
L 281.568333 115.614568 
L 282.2085 120.118423 
L 283.16875 129.801918 
L 284.129 139.451437 
L 284.769167 144.051658 
L 285.08925 145.511172 
L 285.409333 146.340615 
L 285.729417 146.523531 
L 286.0495 146.072145 
L 286.369583 145.025929 
L 287.00975 141.426733 
L 287.97 133.760966 
L 288.93025 126.176338 
L 289.570417 122.589138 
L 289.8905 121.46281 
L 290.210583 120.834764 
L 290.530667 120.716796 
L 290.85075 121.098115 
L 291.170833 121.946517 
L 291.811 124.821894 
L 292.77125 130.889535 
L 293.7315 136.850382 
L 294.371667 139.646978 
L 294.69175 140.515677 
L 295.011833 140.990371 
L 295.331917 141.062685 
L 295.652 140.742035 
L 295.972083 140.054664 
L 296.61225 137.758219 
L 297.892583 131.285334 
L 298.852833 127.053413 
L 299.493 125.422777 
L 299.813083 125.064695 
L 300.133167 125.023996 
L 300.45325 125.292541 
L 300.773333 125.848973 
L 301.4135 127.682521 
L 302.693833 132.798316 
L 303.654083 136.11445 
L 304.29425 137.377051 
L 304.614333 137.64659 
L 304.934417 137.665817 
L 305.2545 137.441714 
L 305.574583 136.991642 
L 306.21475 135.528093 
L 308.775417 128.307112 
L 309.0955 127.910049 
L 309.415583 127.707636 
L 309.735667 127.702613 
L 310.05575 127.889034 
L 310.695917 128.77252 
L 311.336083 130.165062 
L 312.9365 134.070292 
L 313.576667 135.100798 
L 313.89675 135.406247 
L 314.216833 135.557858 
L 314.536917 135.55383 
L 314.857 135.3992 
L 315.497167 134.689597 
L 316.457417 132.946445 
L 317.73775 130.508571 
L 318.377917 129.706202 
L 319.018083 129.358167 
L 319.338167 129.367637 
L 319.978333 129.732682 
L 320.6185 130.475788 
L 322.859083 133.717705 
L 323.49925 134.169458 
L 324.139417 134.241334 
L 324.779583 133.944497 
L 325.41975 133.35197 
L 327.660333 130.799911 
L 328.3005 130.450955 
L 328.940667 130.402122 
L 329.580833 130.643242 
L 330.541083 131.409897 
L 332.1415 132.909482 
L 332.781667 133.287596 
L 333.421833 133.43995 
L 334.062 133.354581 
L 334.702167 133.060587 
L 335.9825 132.118415 
L 336.94275 131.44056 
L 337.582917 131.146487 
L 338.223083 131.031179 
L 338.86325 131.103205 
L 339.8235 131.503124 
L 342.064083 132.747191 
L 343.024333 132.932348 
L 343.984583 132.791406 
L 345.264917 132.250414 
L 346.865333 131.573606 
L 347.825583 131.431993 
L 348.785833 131.547305 
L 350.066167 131.976603 
L 351.666583 132.507701 
L 352.626833 132.615894 
L 353.587083 132.521689 
L 355.1875 132.083182 
L 356.787917 131.71889 
L 358.06825 131.716892 
L 359.668667 132.02887 
L 361.589167 132.390951 
L 362.8695 132.389626 
L 364.79 132.080947 
L 366.7105 131.842067 
L 368.310917 131.923447 
L 371.831833 132.295885 
L 373.752333 132.157507 
L 376.313 131.936492 
L 378.2335 132.016344 
L 381.434333 132.219428 
L 383.995 132.084 
L 386.555667 131.998141 
L 388.79625 132.10238 
L 388.79625 132.10238 
" clip-path="url(#p331b6aeb57)" style="fill: none; stroke: #008080; stroke-width: 1.5; stroke-linecap: square"/>
   </g>
   <g id="line2d_22">
    <path d="M 100.72125 132.09375 
L 101.361417 132.028507 
L 101.6815 131.747226 
L 102.001583 131.010814 
L 102.321667 129.548699 
L 102.64175 127.097374 
L 102.961833 123.440416 
L 103.602 112.094835 
L 104.56225 86.897987 
L 105.842583 53.040029 
L 106.48275 42.421067 
L 106.802833 39.513752 
L 107.122917 38.333523 
L 107.443 38.880934 
L 107.763083 41.134411 
L 108.083167 45.1071 
L 108.723333 58.308285 
L 109.3635 78.357976 
L 110.32375 118.150923 
L 111.284 158.992378 
L 111.924167 179.36777 
L 112.24425 186.204886 
L 112.564333 190.471283 
L 112.884417 192.061393 
L 113.2045 190.989533 
L 113.524583 187.385531 
L 114.16475 173.618066 
L 115.125 142.509076 
L 116.08525 110.383377 
L 116.725417 94.473944 
L 117.0455 89.181742 
L 117.365583 85.924154 
L 117.685667 84.779544 
L 118.00575 85.731782 
L 118.325833 88.6739 
L 118.966 99.694084 
L 119.92625 124.338141 
L 120.8865 149.604962 
L 121.526667 162.024701 
L 121.84675 166.119207 
L 122.166833 168.603621 
L 122.486917 169.420001 
L 122.807 168.584879 
L 123.127083 166.186213 
L 123.76725 157.368178 
L 124.7275 137.848327 
L 125.68775 117.978456 
L 126.327917 108.285029 
L 126.648 105.118664 
L 126.968083 103.226277 
L 127.288167 102.650516 
L 127.60825 103.375343 
L 127.928333 105.328563 
L 128.5685 112.382105 
L 129.52875 127.841035 
L 130.489 143.464796 
L 131.129167 151.028729 
L 131.44925 153.476137 
L 131.769333 154.915651 
L 132.089417 155.31604 
L 132.4095 154.692315 
L 132.729583 153.103631 
L 133.36975 147.463364 
L 134.33 135.222234 
L 135.29025 122.938737 
L 135.930417 117.037795 
L 136.2505 115.147064 
L 136.570583 114.053615 
L 136.890667 113.780179 
L 137.21075 114.313059 
L 137.530833 115.603858 
L 138.171 120.112574 
L 139.13125 129.804351 
L 140.0915 139.460502 
L 140.731667 144.06303 
L 141.05175 145.522924 
L 141.371833 146.352222 
L 141.691917 146.534493 
L 142.012 146.082004 
L 142.332083 145.03429 
L 142.97225 141.431236 
L 143.9325 133.758937 
L 144.89275 126.169118 
L 145.532917 122.58014 
L 145.853 121.453535 
L 146.173083 120.825623 
L 146.493167 120.708185 
L 146.81325 121.090392 
L 147.133333 121.93999 
L 147.7735 124.818431 
L 148.73375 130.891223 
L 149.694 136.85613 
L 150.334167 139.654096 
L 150.65425 140.522998 
L 150.974333 140.997568 
L 151.294417 141.069448 
L 151.6145 140.748084 
L 151.934583 140.059757 
L 152.57475 137.760881 
L 153.855083 131.282709 
L 154.815333 127.048185 
L 155.4555 125.417 
L 155.775583 125.059029 
L 156.095667 125.018684 
L 156.41575 125.287804 
L 156.735833 125.844999 
L 157.376 127.680477 
L 158.656333 132.800435 
L 159.616583 136.118596 
L 160.25675 137.381609 
L 160.576833 137.65105 
L 160.896917 137.669988 
L 161.217 137.445423 
L 161.537083 136.994742 
L 162.17725 135.529662 
L 164.737917 128.30359 
L 165.058 127.906453 
L 165.378083 127.704126 
L 165.698167 127.699339 
L 166.01825 127.88613 
L 166.658417 128.770679 
L 167.298583 130.16453 
L 168.899 134.072598 
L 169.539167 135.103583 
L 169.85925 135.409084 
L 170.179333 135.56062 
L 170.499417 135.556401 
L 170.8195 135.401473 
L 171.459667 134.691024 
L 172.419917 132.946306 
L 173.70025 130.506737 
L 174.340417 129.704 
L 174.980583 129.355993 
L 175.300667 129.365619 
L 175.940833 129.731213 
L 176.581 130.475083 
L 178.821583 133.719343 
L 179.46175 134.171223 
L 180.101917 134.242917 
L 180.742083 133.945642 
L 181.38225 133.35251 
L 183.622833 130.798613 
L 184.263 130.449564 
L 184.903167 130.40088 
L 185.543333 130.642349 
L 186.503583 131.409746 
L 188.104 132.910403 
L 188.744167 133.288683 
L 189.384333 133.441008 
L 190.0245 133.355432 
L 190.664667 133.0611 
L 191.945 132.118124 
L 192.90525 131.439827 
L 193.545417 131.145628 
L 194.185583 131.030347 
L 194.82575 131.102539 
L 195.786 131.502885 
L 198.026583 132.747836 
L 198.986833 132.933003 
L 199.947083 132.791827 
L 201.227417 132.250341 
L 202.827833 131.573095 
L 203.788083 131.431479 
L 204.748333 131.546977 
L 206.028667 131.976666 
L 207.629083 132.508106 
L 208.589333 132.616299 
L 209.549583 132.521944 
L 211.15 132.083055 
L 212.750417 131.718555 
L 214.03075 131.716644 
L 215.631167 132.028916 
L 217.551667 132.391216 
L 218.832 132.38982 
L 220.7525 132.080863 
L 222.673 131.84186 
L 224.273417 131.923363 
L 227.794333 132.29604 
L 229.714833 132.15751 
L 232.2755 131.936364 
L 234.196 132.016319 
L 237.396833 132.219523 
L 239.9575 132.083964 
L 242.518167 131.998074 
L 245.078833 132.123013 
L 245.398917 132.201009 
L 245.719 132.4958 
L 246.039083 133.242882 
L 246.359167 134.712449 
L 246.67925 137.167785 
L 246.999333 140.825246 
L 247.6395 152.161805 
L 248.59975 177.325407 
L 249.880083 211.126131 
L 250.52025 221.722135 
L 250.840333 224.621158 
L 251.160417 225.795647 
L 251.4805 225.245215 
L 251.800583 222.991484 
L 252.120667 219.021234 
L 252.760833 205.832138 
L 253.401 185.80178 
L 254.36125 146.043143 
L 255.3215 105.230464 
L 255.961667 84.86593 
L 256.28175 78.031082 
L 256.601833 73.764771 
L 256.921917 72.172627 
L 257.242 73.240491 
L 257.562083 76.838769 
L 258.20225 90.590868 
L 259.1625 121.672777 
L 260.12275 153.775934 
L 260.762917 169.676969 
L 261.083 174.967473 
L 261.403083 178.225084 
L 261.723167 179.371383 
L 262.04325 178.422375 
L 262.363333 175.484839 
L 263.0035 164.476866 
L 263.96375 139.854182 
L 264.924 114.605015 
L 265.564167 102.191769 
L 265.88425 98.098531 
L 266.204333 95.614028 
L 266.524417 94.796248 
L 266.8445 95.628761 
L 267.164583 98.023762 
L 267.80475 106.832094 
L 268.765 126.335079 
L 269.72525 146.191125 
L 270.365417 155.879536 
L 270.6855 159.044957 
L 271.005583 160.93747 
L 271.325667 161.514388 
L 271.64575 160.791667 
L 271.965833 158.841379 
L 272.606 151.795544 
L 273.56625 136.349922 
L 274.5265 120.736985 
L 275.166667 113.176926 
L 275.48675 110.730218 
L 275.806833 109.29056 
L 276.126917 108.889217 
L 276.447 109.511244 
L 276.767083 111.097583 
L 277.40725 116.731728 
L 278.3675 128.962361 
L 279.32775 141.237384 
L 279.967917 147.135336 
L 280.288 149.02555 
L 280.608083 150.119147 
L 280.928167 150.393368 
L 281.24825 149.861857 
L 281.568333 148.572932 
L 282.2085 144.069077 
L 283.16875 134.385582 
L 284.129 124.736063 
L 284.769167 120.135842 
L 285.08925 118.676328 
L 285.409333 117.846885 
L 285.729417 117.663969 
L 286.0495 118.115355 
L 286.369583 119.161571 
L 287.00975 122.760767 
L 287.97 130.426534 
L 288.93025 138.011162 
L 289.570417 141.598362 
L 289.8905 142.72469 
L 290.210583 143.352736 
L 290.530667 143.470704 
L 290.85075 143.089385 
L 291.170833 142.240983 
L 291.811 139.365606 
L 292.77125 133.297965 
L 293.7315 127.337118 
L 294.371667 124.540522 
L 294.69175 123.671823 
L 295.011833 123.197129 
L 295.331917 123.124815 
L 295.652 123.445465 
L 295.972083 124.132836 
L 296.61225 126.429281 
L 297.892583 132.902166 
L 298.852833 137.134087 
L 299.493 138.764723 
L 299.813083 139.122805 
L 300.133167 139.163504 
L 300.45325 138.894959 
L 300.773333 138.338527 
L 301.4135 136.504979 
L 302.693833 131.389184 
L 303.654083 128.07305 
L 304.29425 126.810449 
L 304.614333 126.54091 
L 304.934417 126.521683 
L 305.2545 126.745786 
L 305.574583 127.195858 
L 306.21475 128.659407 
L 308.775417 135.880388 
L 309.0955 136.277451 
L 309.415583 136.479864 
L 309.735667 136.484887 
L 310.05575 136.298466 
L 310.695917 135.41498 
L 311.336083 134.022438 
L 312.9365 130.117208 
L 313.576667 129.086702 
L 313.89675 128.781253 
L 314.216833 128.629642 
L 314.536917 128.63367 
L 314.857 128.7883 
L 315.497167 129.497903 
L 316.457417 131.241055 
L 317.73775 133.678929 
L 318.377917 134.481298 
L 319.018083 134.829333 
L 319.338167 134.819863 
L 319.978333 134.454818 
L 320.6185 133.711712 
L 322.859083 130.469795 
L 323.49925 130.018042 
L 324.139417 129.946166 
L 324.779583 130.243003 
L 325.41975 130.83553 
L 327.660333 133.387589 
L 328.3005 133.736545 
L 328.940667 133.785378 
L 329.580833 133.544258 
L 330.541083 132.777603 
L 332.1415 131.278018 
L 332.781667 130.899904 
L 333.421833 130.74755 
L 334.062 130.832919 
L 334.702167 131.126913 
L 335.9825 132.069085 
L 336.94275 132.74694 
L 337.582917 133.041013 
L 338.223083 133.156321 
L 338.86325 133.084295 
L 339.8235 132.684376 
L 342.064083 131.440309 
L 343.024333 131.255152 
L 343.984583 131.396094 
L 345.264917 131.937086 
L 346.865333 132.613894 
L 347.825583 132.755507 
L 348.785833 132.640195 
L 350.066167 132.210897 
L 351.666583 131.679799 
L 352.626833 131.571606 
L 353.587083 131.665811 
L 355.1875 132.104318 
L 356.787917 132.46861 
L 358.06825 132.470608 
L 359.668667 132.15863 
L 361.589167 131.796549 
L 362.8695 131.797874 
L 364.79 132.106553 
L 366.7105 132.345433 
L 368.310917 132.264053 
L 371.831833 131.891615 
L 373.752333 132.029993 
L 376.313 132.251008 
L 378.2335 132.171156 
L 381.434333 131.968072 
L 383.995 132.1035 
L 386.555667 132.189359 
L 388.79625 132.08512 
L 388.79625 132.08512 
" clip-path="url(#p331b6aeb57)" style="fill: none; stroke: #9400d3; stroke-width: 1.5; stroke-linecap: square"/>
   </g>
   <g id="patch_3">
    <path d="M 86.3175 235.23 
L 86.3175 28.9575 
" style="fill: none; stroke: #000000; stroke-width: 0.8; stroke-linejoin: miter; stroke-linecap: square"/>
   </g>
   <g id="patch_4">
    <path d="M 403.2 235.23 
L 403.2 28.9575 
" style="fill: none; stroke: #000000; stroke-width: 0.8; stroke-linejoin: miter; stroke-linecap: square"/>
   </g>
   <g id="patch_5">
    <path d="M 86.3175 235.23 
L 403.2 235.23 
" style="fill: none; stroke: #000000; stroke-width: 0.8; stroke-linejoin: miter; stroke-linecap: square"/>
   </g>
   <g id="patch_6">
    <path d="M 86.3175 28.9575 
L 403.2 28.9575 
" style="fill: none; stroke: #000000; stroke-width: 0.8; stroke-linejoin: miter; stroke-linecap: square"/>
   </g>
   <g id="text_13">
    <!-- Solar Array Angles -->
    <g transform="translate(170.805 22.9575) scale(0.16 -0.16)">
     <defs>
      <path id="DejaVuSans-53" d="M 3425 4513 
L 3425 3897 
Q 3066 4069 2747 4153 
Q 2428 4238 2131 4238 
Q 1616 4238 1336 4038 
Q 1056 3838 1056 3469 
Q 1056 3159 1242 3001 
Q 1428 2844 1947 2747 
L 2328 2669 
Q 3034 2534 3370 2195 
Q 3706 1856 3706 1288 
Q 3706 609 3251 259 
Q 2797 -91 1919 -91 
Q 1588 -91 1214 -16 
Q 841 59 441 206 
L 441 856 
Q 825 641 1194 531 
Q 1563 422 1919 422 
Q 2459 422 2753 634 
Q 3047 847 3047 1241 
Q 3047 1584 2836 1778 
Q 2625 1972 2144 2069 
L 1759 2144 
Q 1053 2284 737 2584 
Q 422 2884 422 3419 
Q 422 4038 858 4394 
Q 1294 4750 2059 4750 
Q 2388 4750 2728 4690 
Q 3069 4631 3425 4513 
z
" transform="scale(0.015625)"/>
      <path id="DejaVuSans-6f" d="M 1959 3097 
Q 1497 3097 1228 2736 
Q 959 2375 959 1747 
Q 959 1119 1226 758 
Q 1494 397 1959 397 
Q 2419 397 2687 759 
Q 2956 1122 2956 1747 
Q 2956 2369 2687 2733 
Q 2419 3097 1959 3097 
z
M 1959 3584 
Q 2709 3584 3137 3096 
Q 3566 2609 3566 1747 
Q 3566 888 3137 398 
Q 2709 -91 1959 -91 
Q 1206 -91 779 398 
Q 353 888 353 1747 
Q 353 2609 779 3096 
Q 1206 3584 1959 3584 
z
" transform="scale(0.015625)"/>
      <path id="DejaVuSans-6c" d="M 603 4863 
L 1178 4863 
L 1178 0 
L 603 0 
L 603 4863 
z
" transform="scale(0.015625)"/>
      <path id="DejaVuSans-61" d="M 2194 1759 
Q 1497 1759 1228 1600 
Q 959 1441 959 1056 
Q 959 750 1161 570 
Q 1363 391 1709 391 
Q 2188 391 2477 730 
Q 2766 1069 2766 1631 
L 2766 1759 
L 2194 1759 
z
M 3341 1997 
L 3341 0 
L 2766 0 
L 2766 531 
Q 2569 213 2275 61 
Q 1981 -91 1556 -91 
Q 1019 -91 701 211 
Q 384 513 384 1019 
Q 384 1609 779 1909 
Q 1175 2209 1959 2209 
L 2766 2209 
L 2766 2266 
Q 2766 2663 2505 2880 
Q 2244 3097 1772 3097 
Q 1472 3097 1187 3025 
Q 903 2953 641 2809 
L 641 3341 
Q 956 3463 1253 3523 
Q 1550 3584 1831 3584 
Q 2591 3584 2966 3190 
Q 3341 2797 3341 1997 
z
" transform="scale(0.015625)"/>
      <path id="DejaVuSans-72" d="M 2631 2963 
Q 2534 3019 2420 3045 
Q 2306 3072 2169 3072 
Q 1681 3072 1420 2755 
Q 1159 2438 1159 1844 
L 1159 0 
L 581 0 
L 581 3500 
L 1159 3500 
L 1159 2956 
Q 1341 3275 1631 3429 
Q 1922 3584 2338 3584 
Q 2397 3584 2469 3576 
Q 2541 3569 2628 3553 
L 2631 2963 
z
" transform="scale(0.015625)"/>
      <path id="DejaVuSans-41" d="M 2188 4044 
L 1331 1722 
L 3047 1722 
L 2188 4044 
z
M 1831 4666 
L 2547 4666 
L 4325 0 
L 3669 0 
L 3244 1197 
L 1141 1197 
L 716 0 
L 50 0 
L 1831 4666 
z
" transform="scale(0.015625)"/>
      <path id="DejaVuSans-79" d="M 2059 -325 
Q 1816 -950 1584 -1140 
Q 1353 -1331 966 -1331 
L 506 -1331 
L 506 -850 
L 844 -850 
Q 1081 -850 1212 -737 
Q 1344 -625 1503 -206 
L 1606 56 
L 191 3500 
L 800 3500 
L 1894 763 
L 2988 3500 
L 3597 3500 
L 2059 -325 
z
" transform="scale(0.015625)"/>
      <path id="DejaVuSans-6e" d="M 3513 2113 
L 3513 0 
L 2938 0 
L 2938 2094 
Q 2938 2591 2744 2837 
Q 2550 3084 2163 3084 
Q 1697 3084 1428 2787 
Q 1159 2491 1159 1978 
L 1159 0 
L 581 0 
L 581 3500 
L 1159 3500 
L 1159 2956 
Q 1366 3272 1645 3428 
Q 1925 3584 2291 3584 
Q 2894 3584 3203 3211 
Q 3513 2838 3513 2113 
z
" transform="scale(0.015625)"/>
     </defs>
     <use xlink:href="#DejaVuSans-53"/>
     <use xlink:href="#DejaVuSans-6f" transform="translate(63.476562 0)"/>
     <use xlink:href="#DejaVuSans-6c" transform="translate(124.658203 0)"/>
     <use xlink:href="#DejaVuSans-61" transform="translate(152.441406 0)"/>
     <use xlink:href="#DejaVuSans-72" transform="translate(213.720703 0)"/>
     <use xlink:href="#DejaVuSans-20" transform="translate(254.833984 0)"/>
     <use xlink:href="#DejaVuSans-41" transform="translate(286.621094 0)"/>
     <use xlink:href="#DejaVuSans-72" transform="translate(355.029297 0)"/>
     <use xlink:href="#DejaVuSans-72" transform="translate(394.392578 0)"/>
     <use xlink:href="#DejaVuSans-61" transform="translate(435.505859 0)"/>
     <use xlink:href="#DejaVuSans-79" transform="translate(496.785156 0)"/>
     <use xlink:href="#DejaVuSans-20" transform="translate(555.964844 0)"/>
     <use xlink:href="#DejaVuSans-41" transform="translate(587.751953 0)"/>
     <use xlink:href="#DejaVuSans-6e" transform="translate(656.160156 0)"/>
     <use xlink:href="#DejaVuSans-67" transform="translate(719.539062 0)"/>
     <use xlink:href="#DejaVuSans-6c" transform="translate(783.015625 0)"/>
     <use xlink:href="#DejaVuSans-65" transform="translate(810.798828 0)"/>
     <use xlink:href="#DejaVuSans-73" transform="translate(872.322266 0)"/>
    </g>
   </g>
   <g id="legend_1">
    <g id="patch_7">
     <path d="M 291.04 93.2775 
L 392 93.2775 
Q 395.2 93.2775 395.2 90.0775 
L 395.2 40.1575 
Q 395.2 36.9575 392 36.9575 
L 291.04 36.9575 
Q 287.84 36.9575 287.84 40.1575 
L 287.84 90.0775 
Q 287.84 93.2775 291.04 93.2775 
z
" style="fill: #ffffff; opacity: 0.8; stroke: #cccccc; stroke-linejoin: miter"/>
    </g>
    <g id="line2d_23">
     <path d="M 294.24 50.0775 
L 310.24 50.0775 
L 326.24 50.0775 
" style="fill: none; stroke: #008080; stroke-width: 1.5; stroke-linecap: square"/>
    </g>
    <g id="text_14">
     <!-- $\theta_{S_{1,2,5,6}}$ -->
     <g transform="translate(339.04 55.6775) scale(0.16 -0.16)">
      <defs>
       <path id="DejaVuSans-Oblique-3b8" d="M 2913 2219 
L 925 2219 
Q 791 1284 928 888 
Q 1100 400 1566 400 
Q 2034 400 2391 891 
Q 2703 1322 2913 2219 
z
M 3009 2750 
Q 3094 3638 2984 3950 
Q 2813 4444 2353 4444 
Q 1875 4444 1525 3956 
Q 1250 3563 1034 2750 
L 3009 2750 
z
M 2444 4913 
Q 3194 4913 3494 4250 
Q 3794 3591 3566 2422 
Q 3341 1256 2781 594 
Q 2225 -72 1475 -72 
Q 722 -72 425 594 
Q 128 1256 353 2422 
Q 581 3591 1134 4250 
Q 1691 4913 2444 4913 
z
" transform="scale(0.015625)"/>
       <path id="DejaVuSans-Oblique-53" d="M 3859 4513 
L 3738 3897 
Q 3422 4066 3111 4152 
Q 2800 4238 2509 4238 
Q 1944 4238 1609 3991 
Q 1275 3744 1275 3334 
Q 1275 3109 1398 2989 
Q 1522 2869 2034 2731 
L 2413 2638 
Q 3053 2472 3303 2217 
Q 3553 1963 3553 1503 
Q 3553 797 2998 353 
Q 2444 -91 1538 -91 
Q 1166 -91 791 -17 
Q 416 56 38 206 
L 166 856 
Q 513 641 861 531 
Q 1209 422 1556 422 
Q 2147 422 2503 684 
Q 2859 947 2859 1369 
Q 2859 1650 2717 1795 
Q 2575 1941 2106 2059 
L 1728 2156 
Q 1081 2325 845 2545 
Q 609 2766 609 3163 
Q 609 3859 1145 4304 
Q 1681 4750 2541 4750 
Q 2875 4750 3203 4690 
Q 3531 4631 3859 4513 
z
" transform="scale(0.015625)"/>
       <path id="DejaVuSans-31" d="M 794 531 
L 1825 531 
L 1825 4091 
L 703 3866 
L 703 4441 
L 1819 4666 
L 2450 4666 
L 2450 531 
L 3481 531 
L 3481 0 
L 794 0 
L 794 531 
z
" transform="scale(0.015625)"/>
       <path id="DejaVuSans-2c" d="M 750 794 
L 1409 794 
L 1409 256 
L 897 -744 
L 494 -744 
L 750 256 
L 750 794 
z
" transform="scale(0.015625)"/>
       <path id="DejaVuSans-35" d="M 691 4666 
L 3169 4666 
L 3169 4134 
L 1269 4134 
L 1269 2991 
Q 1406 3038 1543 3061 
Q 1681 3084 1819 3084 
Q 2600 3084 3056 2656 
Q 3513 2228 3513 1497 
Q 3513 744 3044 326 
Q 2575 -91 1722 -91 
Q 1428 -91 1123 -41 
Q 819 9 494 109 
L 494 744 
Q 775 591 1075 516 
Q 1375 441 1709 441 
Q 2250 441 2565 725 
Q 2881 1009 2881 1497 
Q 2881 1984 2565 2268 
Q 2250 2553 1709 2553 
Q 1456 2553 1204 2497 
Q 953 2441 691 2322 
L 691 4666 
z
" transform="scale(0.015625)"/>
      </defs>
      <use xlink:href="#DejaVuSans-Oblique-3b8" transform="translate(0 0.234375)"/>
      <use xlink:href="#DejaVuSans-Oblique-53" transform="translate(61.181641 -16.171875) scale(0.7)"/>
      <use xlink:href="#DejaVuSans-31" transform="translate(105.615234 -27.65625) scale(0.49)"/>
      <use xlink:href="#DejaVuSans-2c" transform="translate(136.790527 -27.65625) scale(0.49)"/>
      <use xlink:href="#DejaVuSans-32" transform="translate(161.912598 -27.65625) scale(0.49)"/>
      <use xlink:href="#DejaVuSans-2c" transform="translate(193.087891 -27.65625) scale(0.49)"/>
      <use xlink:href="#DejaVuSans-35" transform="translate(218.209961 -27.65625) scale(0.49)"/>
      <use xlink:href="#DejaVuSans-2c" transform="translate(249.385254 -27.65625) scale(0.49)"/>
      <use xlink:href="#DejaVuSans-36" transform="translate(274.507324 -27.65625) scale(0.49)"/>
     </g>
    </g>
    <g id="line2d_24">
     <path d="M 294.24 75.8375 
L 310.24 75.8375 
L 326.24 75.8375 
" style="fill: none; stroke: #9400d3; stroke-width: 1.5; stroke-linecap: square"/>
    </g>
    <g id="text_15">
     <!-- $\theta_{S_{3,4,7,8}}$ -->
     <g transform="translate(339.04 81.4375) scale(0.16 -0.16)">
      <defs>
       <path id="DejaVuSans-33" d="M 2597 2516 
Q 3050 2419 3304 2112 
Q 3559 1806 3559 1356 
Q 3559 666 3084 287 
Q 2609 -91 1734 -91 
Q 1441 -91 1130 -33 
Q 819 25 488 141 
L 488 750 
Q 750 597 1062 519 
Q 1375 441 1716 441 
Q 2309 441 2620 675 
Q 2931 909 2931 1356 
Q 2931 1769 2642 2001 
Q 2353 2234 1838 2234 
L 1294 2234 
L 1294 2753 
L 1863 2753 
Q 2328 2753 2575 2939 
Q 2822 3125 2822 3475 
Q 2822 3834 2567 4026 
Q 2313 4219 1838 4219 
Q 1578 4219 1281 4162 
Q 984 4106 628 3988 
L 628 4550 
Q 988 4650 1302 4700 
Q 1616 4750 1894 4750 
Q 2613 4750 3031 4423 
Q 3450 4097 3450 3541 
Q 3450 3153 3228 2886 
Q 3006 2619 2597 2516 
z
" transform="scale(0.015625)"/>
       <path id="DejaVuSans-37" d="M 525 4666 
L 3525 4666 
L 3525 4397 
L 1831 0 
L 1172 0 
L 2766 4134 
L 525 4134 
L 525 4666 
z
" transform="scale(0.015625)"/>
      </defs>
      <use xlink:href="#DejaVuSans-Oblique-3b8" transform="translate(0 0.234375)"/>
      <use xlink:href="#DejaVuSans-Oblique-53" transform="translate(61.181641 -16.171875) scale(0.7)"/>
      <use xlink:href="#DejaVuSans-33" transform="translate(105.615234 -27.65625) scale(0.49)"/>
      <use xlink:href="#DejaVuSans-2c" transform="translate(136.790527 -27.65625) scale(0.49)"/>
      <use xlink:href="#DejaVuSans-34" transform="translate(161.912598 -27.65625) scale(0.49)"/>
      <use xlink:href="#DejaVuSans-2c" transform="translate(193.087891 -27.65625) scale(0.49)"/>
      <use xlink:href="#DejaVuSans-37" transform="translate(218.209961 -27.65625) scale(0.49)"/>
      <use xlink:href="#DejaVuSans-2c" transform="translate(249.385254 -27.65625) scale(0.49)"/>
      <use xlink:href="#DejaVuSans-38" transform="translate(274.507324 -27.65625) scale(0.49)"/>
     </g>
    </g>
   </g>
  </g>
 </g>
 <defs>
  <clipPath id="p331b6aeb57">
   <rect x="86.3175" y="28.9575" width="316.8825" height="206.2725"/>
  </clipPath>
 </defs>
</svg>
