<?xml version="1.0" encoding="utf-8" standalone="no"?>
<!DOCTYPE svg PUBLIC "-//W3C//DTD SVG 1.1//EN"
  "http://www.w3.org/Graphics/SVG/1.1/DTD/svg11.dtd">
<svg xmlns:xlink="http://www.w3.org/1999/xlink" width="414pt" height="288pt" viewBox="0 0 414 288" xmlns="http://www.w3.org/2000/svg" version="1.1">
 <metadata>
  <rdf:RDF xmlns:dc="http://purl.org/dc/elements/1.1/" xmlns:cc="http://creativecommons.org/ns#" xmlns:rdf="http://www.w3.org/1999/02/22-rdf-syntax-ns#">
   <cc:Work>
    <dc:type rdf:resource="http://purl.org/dc/dcmitype/StillImage"/>
    <dc:date>2026-01-14T20:43:37.039455</dc:date>
    <dc:format>image/svg+xml</dc:format>
    <dc:creator>
     <cc:Agent>
      <dc:title>Matplotlib v3.10.7, https://matplotlib.org/</dc:title>
     </cc:Agent>
    </dc:creator>
   </cc:Work>
  </rdf:RDF>
 </metadata>
 <defs>
  <style type="text/css">*{stroke-linejoin: round; stroke-linecap: butt}</style>
 </defs>
 <g id="figure_1">
  <g id="patch_1">
   <path d="M 0 288 
L 414 288 
L 414 0 
L 0 0 
L 0 288 
z
" style="fill: none"/>
  </g>
  <g id="axes_1">
   <g id="patch_2">
    <path d="M 69.5 241.036875 
L 403.2 241.036875 
L 403.2 10.8 
L 69.5 10.8 
L 69.5 241.036875 
z
" style="fill: none"/>
   </g>
   <g id="matplotlib.axis_1">
    <g id="xtick_1">
     <g id="line2d_1">
      <defs>
       <path id="m4cca80c517" d="M 0 0 
L 0 3.5 
" style="stroke: #000000; stroke-width: 0.8"/>
      </defs>
      <g>
       <use xlink:href="#m4cca80c517" x="84.668182" y="241.036875" style="stroke: #000000; stroke-width: 0.8"/>
      </g>
     </g>
     <g id="text_1">
      <!-- 0 -->
      <g transform="translate(79.578182 260.194375) scale(0.16 -0.16)">
       <defs>
        <path id="DejaVuSans-30" d="M 2034 4250 
Q 1547 4250 1301 3770 
Q 1056 3291 1056 2328 
Q 1056 1369 1301 889 
Q 1547 409 2034 409 
Q 2525 409 2770 889 
Q 3016 1369 3016 2328 
Q 3016 3291 2770 3770 
Q 2525 4250 2034 4250 
z
M 2034 4750 
Q 2819 4750 3233 4129 
Q 3647 3509 3647 2328 
Q 3647 1150 3233 529 
Q 2819 -91 2034 -91 
Q 1250 -91 836 529 
Q 422 1150 422 2328 
Q 422 3509 836 4129 
Q 1250 4750 2034 4750 
z
" transform="scale(0.015625)"/>
       </defs>
       <use xlink:href="#DejaVuSans-30"/>
      </g>
     </g>
    </g>
    <g id="xtick_2">
     <g id="line2d_2">
      <g>
       <use xlink:href="#m4cca80c517" x="160.509091" y="241.036875" style="stroke: #000000; stroke-width: 0.8"/>
      </g>
     </g>
     <g id="text_2">
      <!-- 20 -->
      <g transform="translate(150.329091 260.194375) scale(0.16 -0.16)">
       <defs>
        <path id="DejaVuSans-32" d="M 1228 531 
L 3431 531 
L 3431 0 
L 469 0 
L 469 531 
Q 828 903 1448 1529 
Q 2069 2156 2228 2338 
Q 2531 2678 2651 2914 
Q 2772 3150 2772 3378 
Q 2772 3750 2511 3984 
Q 2250 4219 1831 4219 
Q 1534 4219 1204 4116 
Q 875 4013 500 3803 
L 500 4441 
Q 881 4594 1212 4672 
Q 1544 4750 1819 4750 
Q 2544 4750 2975 4387 
Q 3406 4025 3406 3419 
Q 3406 3131 3298 2873 
Q 3191 2616 2906 2266 
Q 2828 2175 2409 1742 
Q 1991 1309 1228 531 
z
" transform="scale(0.015625)"/>
       </defs>
       <use xlink:href="#DejaVuSans-32"/>
       <use xlink:href="#DejaVuSans-30" transform="translate(63.623047 0)"/>
      </g>
     </g>
    </g>
    <g id="xtick_3">
     <g id="line2d_3">
      <g>
       <use xlink:href="#m4cca80c517" x="236.35" y="241.036875" style="stroke: #000000; stroke-width: 0.8"/>
      </g>
     </g>
     <g id="text_3">
      <!-- 40 -->
      <g transform="translate(226.17 260.194375) scale(0.16 -0.16)">
       <defs>
        <path id="DejaVuSans-34" d="M 2419 4116 
L 825 1625 
L 2419 1625 
L 2419 4116 
z
M 2253 4666 
L 3047 4666 
L 3047 1625 
L 3713 1625 
L 3713 1100 
L 3047 1100 
L 3047 0 
L 2419 0 
L 2419 1100 
L 313 1100 
L 313 1709 
L 2253 4666 
z
" transform="scale(0.015625)"/>
       </defs>
       <use xlink:href="#DejaVuSans-34"/>
       <use xlink:href="#DejaVuSans-30" transform="translate(63.623047 0)"/>
      </g>
     </g>
    </g>
    <g id="xtick_4">
     <g id="line2d_4">
      <g>
       <use xlink:href="#m4cca80c517" x="312.190909" y="241.036875" style="stroke: #000000; stroke-width: 0.8"/>
      </g>
     </g>
     <g id="text_4">
      <!-- 60 -->
      <g transform="translate(302.010909 260.194375) scale(0.16 -0.16)">
       <defs>
        <path id="DejaVuSans-36" d="M 2113 2584 
Q 1688 2584 1439 2293 
Q 1191 2003 1191 1497 
Q 1191 994 1439 701 
Q 1688 409 2113 409 
Q 2538 409 2786 701 
Q 3034 994 3034 1497 
Q 3034 2003 2786 2293 
Q 2538 2584 2113 2584 
z
M 3366 4563 
L 3366 3988 
Q 3128 4100 2886 4159 
Q 2644 4219 2406 4219 
Q 1781 4219 1451 3797 
Q 1122 3375 1075 2522 
Q 1259 2794 1537 2939 
Q 1816 3084 2150 3084 
Q 2853 3084 3261 2657 
Q 3669 2231 3669 1497 
Q 3669 778 3244 343 
Q 2819 -91 2113 -91 
Q 1303 -91 875 529 
Q 447 1150 447 2328 
Q 447 3434 972 4092 
Q 1497 4750 2381 4750 
Q 2619 4750 2861 4703 
Q 3103 4656 3366 4563 
z
" transform="scale(0.015625)"/>
       </defs>
       <use xlink:href="#DejaVuSans-36"/>
       <use xlink:href="#DejaVuSans-30" transform="translate(63.623047 0)"/>
      </g>
     </g>
    </g>
    <g id="xtick_5">
     <g id="line2d_5">
      <g>
       <use xlink:href="#m4cca80c517" x="388.031818" y="241.036875" style="stroke: #000000; stroke-width: 0.8"/>
      </g>
     </g>
     <g id="text_5">
      <!-- 80 -->
      <g transform="translate(377.851818 260.194375) scale(0.16 -0.16)">
       <defs>
        <path id="DejaVuSans-38" d="M 2034 2216 
Q 1584 2216 1326 1975 
Q 1069 1734 1069 1313 
Q 1069 891 1326 650 
Q 1584 409 2034 409 
Q 2484 409 2743 651 
Q 3003 894 3003 1313 
Q 3003 1734 2745 1975 
Q 2488 2216 2034 2216 
z
M 1403 2484 
Q 997 2584 770 2862 
Q 544 3141 544 3541 
Q 544 4100 942 4425 
Q 1341 4750 2034 4750 
Q 2731 4750 3128 4425 
Q 3525 4100 3525 3541 
Q 3525 3141 3298 2862 
Q 3072 2584 2669 2484 
Q 3125 2378 3379 2068 
Q 3634 1759 3634 1313 
Q 3634 634 3220 271 
Q 2806 -91 2034 -91 
Q 1263 -91 848 271 
Q 434 634 434 1313 
Q 434 1759 690 2068 
Q 947 2378 1403 2484 
z
M 1172 3481 
Q 1172 3119 1398 2916 
Q 1625 2713 2034 2713 
Q 2441 2713 2670 2916 
Q 2900 3119 2900 3481 
Q 2900 3844 2670 4047 
Q 2441 4250 2034 4250 
Q 1625 4250 1398 4047 
Q 1172 3844 1172 3481 
z
" transform="scale(0.015625)"/>
       </defs>
       <use xlink:href="#DejaVuSans-38"/>
       <use xlink:href="#DejaVuSans-30" transform="translate(63.623047 0)"/>
      </g>
     </g>
    </g>
    <g id="text_6">
     <!-- Time [min] -->
     <g transform="translate(209.197656 275.120313) scale(0.1 -0.1)">
      <defs>
       <path id="DejaVuSans-54" d="M -19 4666 
L 3928 4666 
L 3928 4134 
L 2272 4134 
L 2272 0 
L 1638 0 
L 1638 4134 
L -19 4134 
L -19 4666 
z
" transform="scale(0.015625)"/>
       <path id="DejaVuSans-69" d="M 603 3500 
L 1178 3500 
L 1178 0 
L 603 0 
L 603 3500 
z
M 603 4863 
L 1178 4863 
L 1178 4134 
L 603 4134 
L 603 4863 
z
" transform="scale(0.015625)"/>
       <path id="DejaVuSans-6d" d="M 3328 2828 
Q 3544 3216 3844 3400 
Q 4144 3584 4550 3584 
Q 5097 3584 5394 3201 
Q 5691 2819 5691 2113 
L 5691 0 
L 5113 0 
L 5113 2094 
Q 5113 2597 4934 2840 
Q 4756 3084 4391 3084 
Q 3944 3084 3684 2787 
Q 3425 2491 3425 1978 
L 3425 0 
L 2847 0 
L 2847 2094 
Q 2847 2600 2669 2842 
Q 2491 3084 2119 3084 
Q 1678 3084 1418 2786 
Q 1159 2488 1159 1978 
L 1159 0 
L 581 0 
L 581 3500 
L 1159 3500 
L 1159 2956 
Q 1356 3278 1631 3431 
Q 1906 3584 2284 3584 
Q 2666 3584 2933 3390 
Q 3200 3197 3328 2828 
z
" transform="scale(0.015625)"/>
       <path id="DejaVuSans-65" d="M 3597 1894 
L 3597 1613 
L 953 1613 
Q 991 1019 1311 708 
Q 1631 397 2203 397 
Q 2534 397 2845 478 
Q 3156 559 3463 722 
L 3463 178 
Q 3153 47 2828 -22 
Q 2503 -91 2169 -91 
Q 1331 -91 842 396 
Q 353 884 353 1716 
Q 353 2575 817 3079 
Q 1281 3584 2069 3584 
Q 2775 3584 3186 3129 
Q 3597 2675 3597 1894 
z
M 3022 2063 
Q 3016 2534 2758 2815 
Q 2500 3097 2075 3097 
Q 1594 3097 1305 2825 
Q 1016 2553 972 2059 
L 3022 2063 
z
" transform="scale(0.015625)"/>
       <path id="DejaVuSans-20" transform="scale(0.015625)"/>
       <path id="DejaVuSans-5b" d="M 550 4863 
L 1875 4863 
L 1875 4416 
L 1125 4416 
L 1125 -397 
L 1875 -397 
L 1875 -844 
L 550 -844 
L 550 4863 
z
" transform="scale(0.015625)"/>
       <path id="DejaVuSans-6e" d="M 3513 2113 
L 3513 0 
L 2938 0 
L 2938 2094 
Q 2938 2591 2744 2837 
Q 2550 3084 2163 3084 
Q 1697 3084 1428 2787 
Q 1159 2491 1159 1978 
L 1159 0 
L 581 0 
L 581 3500 
L 1159 3500 
L 1159 2956 
Q 1366 3272 1645 3428 
Q 1925 3584 2291 3584 
Q 2894 3584 3203 3211 
Q 3513 2838 3513 2113 
z
" transform="scale(0.015625)"/>
       <path id="DejaVuSans-5d" d="M 1947 4863 
L 1947 -844 
L 622 -844 
L 622 -397 
L 1369 -397 
L 1369 4416 
L 622 4416 
L 622 4863 
L 1947 4863 
z
" transform="scale(0.015625)"/>
      </defs>
      <use xlink:href="#DejaVuSans-54"/>
      <use xlink:href="#DejaVuSans-69" transform="translate(57.958984 0)"/>
      <use xlink:href="#DejaVuSans-6d" transform="translate(85.742188 0)"/>
      <use xlink:href="#DejaVuSans-65" transform="translate(183.154297 0)"/>
      <use xlink:href="#DejaVuSans-20" transform="translate(244.677734 0)"/>
      <use xlink:href="#DejaVuSans-5b" transform="translate(276.464844 0)"/>
      <use xlink:href="#DejaVuSans-6d" transform="translate(315.478516 0)"/>
      <use xlink:href="#DejaVuSans-69" transform="translate(412.890625 0)"/>
      <use xlink:href="#DejaVuSans-6e" transform="translate(440.673828 0)"/>
      <use xlink:href="#DejaVuSans-5d" transform="translate(504.052734 0)"/>
     </g>
    </g>
   </g>
   <g id="matplotlib.axis_2">
    <g id="ytick_1">
     <g id="line2d_6">
      <defs>
       <path id="md64ece3953" d="M 0 0 
L -3.5 0 
" style="stroke: #000000; stroke-width: 0.8"/>
      </defs>
      <g>
       <use xlink:href="#md64ece3953" x="69.5" y="208.614504" style="stroke: #000000; stroke-width: 0.8"/>
      </g>
     </g>
     <g id="text_7">
      <!-- $\mathdefault{10^{-3}}$ -->
      <g transform="translate(24.9 214.693254) scale(0.16 -0.16)">
       <defs>
        <path id="DejaVuSans-31" d="M 794 531 
L 1825 531 
L 1825 4091 
L 703 3866 
L 703 4441 
L 1819 4666 
L 2450 4666 
L 2450 531 
L 3481 531 
L 3481 0 
L 794 0 
L 794 531 
z
" transform="scale(0.015625)"/>
        <path id="DejaVuSans-2212" d="M 678 2272 
L 4684 2272 
L 4684 1741 
L 678 1741 
L 678 2272 
z
" transform="scale(0.015625)"/>
        <path id="DejaVuSans-33" d="M 2597 2516 
Q 3050 2419 3304 2112 
Q 3559 1806 3559 1356 
Q 3559 666 3084 287 
Q 2609 -91 1734 -91 
Q 1441 -91 1130 -33 
Q 819 25 488 141 
L 488 750 
Q 750 597 1062 519 
Q 1375 441 1716 441 
Q 2309 441 2620 675 
Q 2931 909 2931 1356 
Q 2931 1769 2642 2001 
Q 2353 2234 1838 2234 
L 1294 2234 
L 1294 2753 
L 1863 2753 
Q 2328 2753 2575 2939 
Q 2822 3125 2822 3475 
Q 2822 3834 2567 4026 
Q 2313 4219 1838 4219 
Q 1578 4219 1281 4162 
Q 984 4106 628 3988 
L 628 4550 
Q 988 4650 1302 4700 
Q 1616 4750 1894 4750 
Q 2613 4750 3031 4423 
Q 3450 4097 3450 3541 
Q 3450 3153 3228 2886 
Q 3006 2619 2597 2516 
z
" transform="scale(0.015625)"/>
       </defs>
       <use xlink:href="#DejaVuSans-31" transform="translate(0 0.765625)"/>
       <use xlink:href="#DejaVuSans-30" transform="translate(63.623047 0.765625)"/>
       <use xlink:href="#DejaVuSans-2212" transform="translate(128.203125 39.046875) scale(0.7)"/>
       <use xlink:href="#DejaVuSans-33" transform="translate(186.855469 39.046875) scale(0.7)"/>
      </g>
     </g>
    </g>
    <g id="ytick_2">
     <g id="line2d_7">
      <g>
       <use xlink:href="#md64ece3953" x="69.5" y="140.735477" style="stroke: #000000; stroke-width: 0.8"/>
      </g>
     </g>
     <g id="text_8">
      <!-- $\mathdefault{10^{-2}}$ -->
      <g transform="translate(24.9 146.814227) scale(0.16 -0.16)">
       <use xlink:href="#DejaVuSans-31" transform="translate(0 0.765625)"/>
       <use xlink:href="#DejaVuSans-30" transform="translate(63.623047 0.765625)"/>
       <use xlink:href="#DejaVuSans-2212" transform="translate(128.203125 39.046875) scale(0.7)"/>
       <use xlink:href="#DejaVuSans-32" transform="translate(186.855469 39.046875) scale(0.7)"/>
      </g>
     </g>
    </g>
    <g id="ytick_3">
     <g id="line2d_8">
      <g>
       <use xlink:href="#md64ece3953" x="69.5" y="72.85645" style="stroke: #000000; stroke-width: 0.8"/>
      </g>
     </g>
     <g id="text_9">
      <!-- $\mathdefault{10^{-1}}$ -->
      <g transform="translate(24.9 78.9352) scale(0.16 -0.16)">
       <use xlink:href="#DejaVuSans-31" transform="translate(0 0.684375)"/>
       <use xlink:href="#DejaVuSans-30" transform="translate(63.623047 0.684375)"/>
       <use xlink:href="#DejaVuSans-2212" transform="translate(128.203125 38.965625) scale(0.7)"/>
       <use xlink:href="#DejaVuSans-31" transform="translate(186.855469 38.965625) scale(0.7)"/>
      </g>
     </g>
    </g>
    <g id="ytick_4">
     <g id="line2d_9">
      <defs>
       <path id="m183197cc9c" d="M 0 0 
L -2 0 
" style="stroke: #000000; stroke-width: 0.6"/>
      </defs>
      <g>
       <use xlink:href="#m183197cc9c" x="69.5" y="235.626284" style="stroke: #000000; stroke-width: 0.6"/>
      </g>
     </g>
    </g>
    <g id="ytick_5">
     <g id="line2d_10">
      <g>
       <use xlink:href="#m183197cc9c" x="69.5" y="229.048127" style="stroke: #000000; stroke-width: 0.6"/>
      </g>
     </g>
    </g>
    <g id="ytick_6">
     <g id="line2d_11">
      <g>
       <use xlink:href="#m183197cc9c" x="69.5" y="223.673381" style="stroke: #000000; stroke-width: 0.6"/>
      </g>
     </g>
    </g>
    <g id="ytick_7">
     <g id="line2d_12">
      <g>
       <use xlink:href="#m183197cc9c" x="69.5" y="219.129098" style="stroke: #000000; stroke-width: 0.6"/>
      </g>
     </g>
    </g>
    <g id="ytick_8">
     <g id="line2d_13">
      <g>
       <use xlink:href="#m183197cc9c" x="69.5" y="215.192661" style="stroke: #000000; stroke-width: 0.6"/>
      </g>
     </g>
    </g>
    <g id="ytick_9">
     <g id="line2d_14">
      <g>
       <use xlink:href="#m183197cc9c" x="69.5" y="211.720478" style="stroke: #000000; stroke-width: 0.6"/>
      </g>
     </g>
    </g>
    <g id="ytick_10">
     <g id="line2d_15">
      <g>
       <use xlink:href="#m183197cc9c" x="69.5" y="188.180881" style="stroke: #000000; stroke-width: 0.6"/>
      </g>
     </g>
    </g>
    <g id="ytick_11">
     <g id="line2d_16">
      <g>
       <use xlink:href="#m183197cc9c" x="69.5" y="176.227977" style="stroke: #000000; stroke-width: 0.6"/>
      </g>
     </g>
    </g>
    <g id="ytick_12">
     <g id="line2d_17">
      <g>
       <use xlink:href="#m183197cc9c" x="69.5" y="167.747258" style="stroke: #000000; stroke-width: 0.6"/>
      </g>
     </g>
    </g>
    <g id="ytick_13">
     <g id="line2d_18">
      <g>
       <use xlink:href="#m183197cc9c" x="69.5" y="161.1691" style="stroke: #000000; stroke-width: 0.6"/>
      </g>
     </g>
    </g>
    <g id="ytick_14">
     <g id="line2d_19">
      <g>
       <use xlink:href="#m183197cc9c" x="69.5" y="155.794354" style="stroke: #000000; stroke-width: 0.6"/>
      </g>
     </g>
    </g>
    <g id="ytick_15">
     <g id="line2d_20">
      <g>
       <use xlink:href="#m183197cc9c" x="69.5" y="151.250071" style="stroke: #000000; stroke-width: 0.6"/>
      </g>
     </g>
    </g>
    <g id="ytick_16">
     <g id="line2d_21">
      <g>
       <use xlink:href="#m183197cc9c" x="69.5" y="147.313634" style="stroke: #000000; stroke-width: 0.6"/>
      </g>
     </g>
    </g>
    <g id="ytick_17">
     <g id="line2d_22">
      <g>
       <use xlink:href="#m183197cc9c" x="69.5" y="143.841451" style="stroke: #000000; stroke-width: 0.6"/>
      </g>
     </g>
    </g>
    <g id="ytick_18">
     <g id="line2d_23">
      <g>
       <use xlink:href="#m183197cc9c" x="69.5" y="120.301854" style="stroke: #000000; stroke-width: 0.6"/>
      </g>
     </g>
    </g>
    <g id="ytick_19">
     <g id="line2d_24">
      <g>
       <use xlink:href="#m183197cc9c" x="69.5" y="108.348951" style="stroke: #000000; stroke-width: 0.6"/>
      </g>
     </g>
    </g>
    <g id="ytick_20">
     <g id="line2d_25">
      <g>
       <use xlink:href="#m183197cc9c" x="69.5" y="99.868231" style="stroke: #000000; stroke-width: 0.6"/>
      </g>
     </g>
    </g>
    <g id="ytick_21">
     <g id="line2d_26">
      <g>
       <use xlink:href="#m183197cc9c" x="69.5" y="93.290073" style="stroke: #000000; stroke-width: 0.6"/>
      </g>
     </g>
    </g>
    <g id="ytick_22">
     <g id="line2d_27">
      <g>
       <use xlink:href="#m183197cc9c" x="69.5" y="87.915327" style="stroke: #000000; stroke-width: 0.6"/>
      </g>
     </g>
    </g>
    <g id="ytick_23">
     <g id="line2d_28">
      <g>
       <use xlink:href="#m183197cc9c" x="69.5" y="83.371044" style="stroke: #000000; stroke-width: 0.6"/>
      </g>
     </g>
    </g>
    <g id="ytick_24">
     <g id="line2d_29">
      <g>
       <use xlink:href="#m183197cc9c" x="69.5" y="79.434607" style="stroke: #000000; stroke-width: 0.6"/>
      </g>
     </g>
    </g>
    <g id="ytick_25">
     <g id="line2d_30">
      <g>
       <use xlink:href="#m183197cc9c" x="69.5" y="75.962424" style="stroke: #000000; stroke-width: 0.6"/>
      </g>
     </g>
    </g>
    <g id="ytick_26">
     <g id="line2d_31">
      <g>
       <use xlink:href="#m183197cc9c" x="69.5" y="52.422827" style="stroke: #000000; stroke-width: 0.6"/>
      </g>
     </g>
    </g>
    <g id="ytick_27">
     <g id="line2d_32">
      <g>
       <use xlink:href="#m183197cc9c" x="69.5" y="40.469924" style="stroke: #000000; stroke-width: 0.6"/>
      </g>
     </g>
    </g>
    <g id="ytick_28">
     <g id="line2d_33">
      <g>
       <use xlink:href="#m183197cc9c" x="69.5" y="31.989204" style="stroke: #000000; stroke-width: 0.6"/>
      </g>
     </g>
    </g>
    <g id="ytick_29">
     <g id="line2d_34">
      <g>
       <use xlink:href="#m183197cc9c" x="69.5" y="25.411046" style="stroke: #000000; stroke-width: 0.6"/>
      </g>
     </g>
    </g>
    <g id="ytick_30">
     <g id="line2d_35">
      <g>
       <use xlink:href="#m183197cc9c" x="69.5" y="20.0363" style="stroke: #000000; stroke-width: 0.6"/>
      </g>
     </g>
    </g>
    <g id="ytick_31">
     <g id="line2d_36">
      <g>
       <use xlink:href="#m183197cc9c" x="69.5" y="15.492018" style="stroke: #000000; stroke-width: 0.6"/>
      </g>
     </g>
    </g>
    <g id="ytick_32">
     <g id="line2d_37">
      <g>
       <use xlink:href="#m183197cc9c" x="69.5" y="11.555581" style="stroke: #000000; stroke-width: 0.6"/>
      </g>
     </g>
    </g>
    <g id="text_10">
     <!-- Attitude Error Norm $|\sigma_{B/R}|$ -->
     <g transform="translate(18.5 189.568437) rotate(-90) scale(0.1 -0.1)">
      <defs>
       <path id="DejaVuSans-41" d="M 2188 4044 
L 1331 1722 
L 3047 1722 
L 2188 4044 
z
M 1831 4666 
L 2547 4666 
L 4325 0 
L 3669 0 
L 3244 1197 
L 1141 1197 
L 716 0 
L 50 0 
L 1831 4666 
z
" transform="scale(0.015625)"/>
       <path id="DejaVuSans-74" d="M 1172 4494 
L 1172 3500 
L 2356 3500 
L 2356 3053 
L 1172 3053 
L 1172 1153 
Q 1172 725 1289 603 
Q 1406 481 1766 481 
L 2356 481 
L 2356 0 
L 1766 0 
Q 1100 0 847 248 
Q 594 497 594 1153 
L 594 3053 
L 172 3053 
L 172 3500 
L 594 3500 
L 594 4494 
L 1172 4494 
z
" transform="scale(0.015625)"/>
       <path id="DejaVuSans-75" d="M 544 1381 
L 544 3500 
L 1119 3500 
L 1119 1403 
Q 1119 906 1312 657 
Q 1506 409 1894 409 
Q 2359 409 2629 706 
Q 2900 1003 2900 1516 
L 2900 3500 
L 3475 3500 
L 3475 0 
L 2900 0 
L 2900 538 
Q 2691 219 2414 64 
Q 2138 -91 1772 -91 
Q 1169 -91 856 284 
Q 544 659 544 1381 
z
M 1991 3584 
L 1991 3584 
z
" transform="scale(0.015625)"/>
       <path id="DejaVuSans-64" d="M 2906 2969 
L 2906 4863 
L 3481 4863 
L 3481 0 
L 2906 0 
L 2906 525 
Q 2725 213 2448 61 
Q 2172 -91 1784 -91 
Q 1150 -91 751 415 
Q 353 922 353 1747 
Q 353 2572 751 3078 
Q 1150 3584 1784 3584 
Q 2172 3584 2448 3432 
Q 2725 3281 2906 2969 
z
M 947 1747 
Q 947 1113 1208 752 
Q 1469 391 1925 391 
Q 2381 391 2643 752 
Q 2906 1113 2906 1747 
Q 2906 2381 2643 2742 
Q 2381 3103 1925 3103 
Q 1469 3103 1208 2742 
Q 947 2381 947 1747 
z
" transform="scale(0.015625)"/>
       <path id="DejaVuSans-45" d="M 628 4666 
L 3578 4666 
L 3578 4134 
L 1259 4134 
L 1259 2753 
L 3481 2753 
L 3481 2222 
L 1259 2222 
L 1259 531 
L 3634 531 
L 3634 0 
L 628 0 
L 628 4666 
z
" transform="scale(0.015625)"/>
       <path id="DejaVuSans-72" d="M 2631 2963 
Q 2534 3019 2420 3045 
Q 2306 3072 2169 3072 
Q 1681 3072 1420 2755 
Q 1159 2438 1159 1844 
L 1159 0 
L 581 0 
L 581 3500 
L 1159 3500 
L 1159 2956 
Q 1341 3275 1631 3429 
Q 1922 3584 2338 3584 
Q 2397 3584 2469 3576 
Q 2541 3569 2628 3553 
L 2631 2963 
z
" transform="scale(0.015625)"/>
       <path id="DejaVuSans-6f" d="M 1959 3097 
Q 1497 3097 1228 2736 
Q 959 2375 959 1747 
Q 959 1119 1226 758 
Q 1494 397 1959 397 
Q 2419 397 2687 759 
Q 2956 1122 2956 1747 
Q 2956 2369 2687 2733 
Q 2419 3097 1959 3097 
z
M 1959 3584 
Q 2709 3584 3137 3096 
Q 3566 2609 3566 1747 
Q 3566 888 3137 398 
Q 2709 -91 1959 -91 
Q 1206 -91 779 398 
Q 353 888 353 1747 
Q 353 2609 779 3096 
Q 1206 3584 1959 3584 
z
" transform="scale(0.015625)"/>
       <path id="DejaVuSans-4e" d="M 628 4666 
L 1478 4666 
L 3547 763 
L 3547 4666 
L 4159 4666 
L 4159 0 
L 3309 0 
L 1241 3903 
L 1241 0 
L 628 0 
L 628 4666 
z
" transform="scale(0.015625)"/>
       <path id="DejaVuSans-7c" d="M 1344 4891 
L 1344 -1509 
L 813 -1509 
L 813 4891 
L 1344 4891 
z
" transform="scale(0.015625)"/>
       <path id="DejaVuSans-Oblique-3c3" d="M 2219 3044 
Q 1744 3044 1422 2700 
Q 1081 2341 969 1747 
Q 844 1119 1044 756 
Q 1241 397 1706 397 
Q 2166 397 2503 759 
Q 2844 1122 2966 1747 
Q 3075 2319 2881 2700 
Q 2700 3044 2219 3044 
z
M 2309 3503 
L 4219 3500 
L 4106 2925 
L 3463 2925 
Q 3706 2438 3575 1747 
Q 3406 888 2884 400 
Q 2359 -91 1609 -91 
Q 856 -91 525 400 
Q 194 888 363 1747 
Q 528 2609 1050 3097 
Q 1484 3503 2309 3503 
z
" transform="scale(0.015625)"/>
       <path id="DejaVuSans-Oblique-42" d="M 1081 4666 
L 2694 4666 
Q 3350 4666 3675 4422 
Q 4000 4178 4000 3688 
Q 4000 3238 3720 2911 
Q 3441 2584 2988 2516 
Q 3375 2428 3569 2181 
Q 3763 1934 3763 1522 
Q 3763 819 3242 409 
Q 2722 0 1819 0 
L 172 0 
L 1081 4666 
z
M 1234 2228 
L 903 519 
L 1919 519 
Q 2491 519 2800 781 
Q 3109 1044 3109 1522 
Q 3109 1891 2904 2059 
Q 2700 2228 2247 2228 
L 1234 2228 
z
M 1606 4147 
L 1331 2741 
L 2272 2741 
Q 2775 2741 3058 2959 
Q 3341 3178 3341 3566 
Q 3341 3869 3150 4008 
Q 2959 4147 2541 4147 
L 1606 4147 
z
" transform="scale(0.015625)"/>
       <path id="DejaVuSans-2f" d="M 1625 4666 
L 2156 4666 
L 531 -594 
L 0 -594 
L 1625 4666 
z
" transform="scale(0.015625)"/>
       <path id="DejaVuSans-Oblique-52" d="M 1613 4147 
L 1294 2491 
L 2106 2491 
Q 2584 2491 2879 2755 
Q 3175 3019 3175 3444 
Q 3175 3784 2976 3965 
Q 2778 4147 2406 4147 
L 1613 4147 
z
M 2772 2241 
Q 2972 2194 3105 2009 
Q 3238 1825 3413 1275 
L 3809 0 
L 3144 0 
L 2778 1197 
Q 2638 1659 2453 1815 
Q 2269 1972 1888 1972 
L 1191 1972 
L 806 0 
L 172 0 
L 1081 4666 
L 2503 4666 
Q 3150 4666 3495 4373 
Q 3841 4081 3841 3531 
Q 3841 3044 3547 2687 
Q 3253 2331 2772 2241 
z
" transform="scale(0.015625)"/>
      </defs>
      <use xlink:href="#DejaVuSans-41" transform="translate(0 0.578125)"/>
      <use xlink:href="#DejaVuSans-74" transform="translate(68.408203 0.578125)"/>
      <use xlink:href="#DejaVuSans-74" transform="translate(107.617188 0.578125)"/>
      <use xlink:href="#DejaVuSans-69" transform="translate(146.826172 0.578125)"/>
      <use xlink:href="#DejaVuSans-74" transform="translate(174.609375 0.578125)"/>
      <use xlink:href="#DejaVuSans-75" transform="translate(213.818359 0.578125)"/>
      <use xlink:href="#DejaVuSans-64" transform="translate(277.197266 0.578125)"/>
      <use xlink:href="#DejaVuSans-65" transform="translate(340.673828 0.578125)"/>
      <use xlink:href="#DejaVuSans-20" transform="translate(402.197266 0.578125)"/>
      <use xlink:href="#DejaVuSans-45" transform="translate(433.984375 0.578125)"/>
      <use xlink:href="#DejaVuSans-72" transform="translate(497.167969 0.578125)"/>
      <use xlink:href="#DejaVuSans-72" transform="translate(538.28125 0.578125)"/>
      <use xlink:href="#DejaVuSans-6f" transform="translate(579.394531 0.578125)"/>
      <use xlink:href="#DejaVuSans-72" transform="translate(640.576172 0.578125)"/>
      <use xlink:href="#DejaVuSans-20" transform="translate(681.689453 0.578125)"/>
      <use xlink:href="#DejaVuSans-4e" transform="translate(713.476562 0.578125)"/>
      <use xlink:href="#DejaVuSans-6f" transform="translate(788.28125 0.578125)"/>
      <use xlink:href="#DejaVuSans-72" transform="translate(849.462891 0.578125)"/>
      <use xlink:href="#DejaVuSans-6d" transform="translate(890.576172 0.578125)"/>
      <use xlink:href="#DejaVuSans-20" transform="translate(987.988281 0.578125)"/>
      <use xlink:href="#DejaVuSans-7c" transform="translate(1019.775391 0.578125)"/>
      <use xlink:href="#DejaVuSans-Oblique-3c3" transform="translate(1053.466797 0.578125)"/>
      <use xlink:href="#DejaVuSans-Oblique-42" transform="translate(1116.845703 -15.828125) scale(0.7)"/>
      <use xlink:href="#DejaVuSans-2f" transform="translate(1164.868164 -15.828125) scale(0.7)"/>
      <use xlink:href="#DejaVuSans-Oblique-52" transform="translate(1187.227148 -15.828125) scale(0.7)"/>
      <use xlink:href="#DejaVuSans-7c" transform="translate(1238.599219 0.578125)"/>
     </g>
    </g>
   </g>
   <g id="line2d_38">
    <path d="M 84.668182 34.249333 
L 84.857784 33.862865 
L 84.984186 33.909607 
L 85.173788 34.407618 
L 85.426591 35.811034 
L 85.805795 39.372198 
L 86.311402 46.729075 
L 86.817008 57.412495 
L 87.322614 72.868416 
L 87.765019 93.25592 
L 88.207424 112.860588 
L 88.333826 110.117089 
L 89.029034 87.824773 
L 89.408239 82.660512 
L 89.724242 80.703264 
L 89.977045 80.271035 
L 90.103447 80.375008 
L 90.293049 80.892482 
L 90.609053 82.644973 
L 90.988258 86.120135 
L 91.493864 93.015182 
L 92.125871 105.086761 
L 92.82108 117.880448 
L 93.010682 118.963788 
L 93.073883 118.984699 
L 93.200284 118.577474 
L 93.453087 116.509139 
L 94.401098 107.636429 
L 94.780303 105.901414 
L 95.096307 105.279478 
L 95.285909 105.230578 
L 95.475511 105.405774 
L 95.728314 105.964831 
L 96.107519 107.44869 
L 96.613125 110.537757 
L 97.181932 115.461145 
L 97.813939 122.844461 
L 98.445947 132.843307 
L 99.014754 145.582926 
L 99.457159 160.615668 
L 99.773163 178.212444 
L 100.025966 204.589633 
L 100.152367 220.613906 
L 100.215568 216.906858 
L 100.594773 177.141895 
L 100.973977 160.237704 
L 101.479583 147.799723 
L 102.04839 139.503961 
L 102.617197 134.378861 
L 103.122803 131.544964 
L 103.565208 130.059232 
L 103.944413 129.3918 
L 104.260417 129.20693 
L 104.51322 129.278405 
L 104.829223 129.619287 
L 105.271629 130.525347 
L 105.840436 132.347339 
L 106.535644 135.443056 
L 107.420455 140.497964 
L 109.063674 151.578814 
L 110.074886 157.665018 
L 110.770095 160.630951 
L 111.338902 162.159895 
L 111.844508 162.920052 
L 112.350114 163.263979 
L 112.91892 163.346506 
L 115.257348 163.357197 
L 115.952557 163.735267 
L 116.647765 164.36982 
L 117.406174 165.374696 
L 118.227784 166.851001 
L 119.112595 168.915615 
L 120.060606 171.704297 
L 121.071818 175.368033 
L 122.209432 180.3413 
L 123.852652 188.688287 
L 125.053466 194.340203 
L 125.685473 196.371395 
L 126.127879 197.183602 
L 126.507083 197.446715 
L 126.823087 197.377099 
L 127.202292 196.995409 
L 127.707898 196.106241 
L 128.655909 193.869823 
L 129.919924 191.027876 
L 130.678333 189.807406 
L 131.310341 189.152723 
L 131.879148 188.863583 
L 132.384754 188.851238 
L 132.89036 189.072096 
L 133.459167 189.601806 
L 134.091174 190.542531 
L 134.786383 192.00841 
L 135.607992 194.320945 
L 136.556004 197.730525 
L 137.94642 203.730845 
L 139.020833 208.02203 
L 139.58964 209.492656 
L 139.968845 209.97948 
L 140.284848 210.049328 
L 140.600852 209.820253 
L 140.980057 209.194293 
L 141.548864 207.714197 
L 142.812879 203.507324 
L 143.887292 200.302021 
L 144.708902 198.507907 
L 145.40411 197.513158 
L 145.972917 197.07082 
L 146.478523 196.962129 
L 146.920928 197.088006 
L 147.426534 197.485489 
L 147.995341 198.257006 
L 148.627348 199.516498 
L 149.385758 201.576115 
L 150.270568 204.670861 
L 152.798598 214.043224 
L 153.177803 214.58782 
L 153.493807 214.694971 
L 153.74661 214.549401 
L 154.062614 214.096194 
L 154.505019 213.034856 
L 155.263428 210.482085 
L 157.09625 204.090409 
L 157.91786 202.073925 
L 158.613068 200.929981 
L 159.181875 200.392009 
L 159.687481 200.217628 
L 160.129886 200.300419 
L 160.509091 200.546503 
L 160.572292 21.265313 
L 160.635492 21.849542 
L 161.204299 34.516632 
L 161.709905 50.375569 
L 162.152311 71.887767 
L 162.468314 98.935824 
L 162.657917 112.597304 
L 163.479527 68.439103 
L 163.858731 62.278099 
L 164.237936 59.490683 
L 164.490739 58.916288 
L 164.61714 58.943985 
L 164.806742 59.33838 
L 165.059545 60.472529 
L 165.43875 63.388588 
L 165.881155 68.604585 
L 166.386761 77.225937 
L 166.892367 89.6836 
L 167.334773 106.043951 
L 167.713977 129.45137 
L 168.029981 157.339052 
L 168.093182 155.42694 
L 168.598788 121.669076 
L 168.977992 111.188975 
L 169.357197 105.920801 
L 169.673201 103.824518 
L 169.926004 103.226323 
L 170.052405 103.229026 
L 170.242008 103.572207 
L 170.494811 104.615327 
L 170.874015 107.347057 
L 171.31642 112.244025 
L 171.885227 121.320163 
L 172.643636 137.828053 
L 173.086042 145.913381 
L 173.275644 147.169113 
L 173.338845 147.222784 
L 173.465246 146.853487 
L 173.718049 144.818125 
L 174.60286 136.859375 
L 174.982064 135.354448 
L 175.234867 135.018581 
L 175.42447 135.087057 
L 175.677273 135.573378 
L 175.993277 136.765562 
L 176.435682 139.407878 
L 177.067689 144.750859 
L 178.078902 153.461293 
L 178.331705 154.360289 
L 178.458106 154.461687 
L 178.584508 154.322259 
L 178.77411 153.685189 
L 179.090114 151.690644 
L 179.785322 145.31956 
L 180.922936 135.375227 
L 181.681345 130.574199 
L 182.313352 127.864213 
L 182.818958 126.612089 
L 183.134962 126.276374 
L 183.387765 126.271328 
L 183.640568 126.511942 
L 183.956572 127.173438 
L 184.335777 128.516376 
L 184.841383 131.241636 
L 185.599792 136.882576 
L 186.231799 141.160862 
L 186.547803 142.082454 
L 186.674205 142.11429 
L 186.863807 141.796875 
L 187.11661 140.779376 
L 187.622216 137.535803 
L 188.570227 131.513994 
L 189.075833 129.517812 
L 189.518239 128.589537 
L 189.834242 128.377784 
L 190.087045 128.465967 
L 190.403049 128.882361 
L 190.782254 129.806113 
L 191.28786 131.704748 
L 191.919867 135.043474 
L 192.741477 140.741833 
L 193.879091 150.399572 
L 195.838314 167.165937 
L 196.659924 172.211721 
L 197.291932 174.837991 
L 197.860739 176.328582 
L 198.429545 177.198853 
L 199.124754 177.810144 
L 200.199167 178.729076 
L 200.831174 179.613415 
L 201.526383 181.016403 
L 202.284792 183.076405 
L 203.232803 186.337146 
L 204.560019 191.786067 
L 207.214451 202.834916 
L 208.288864 206.249171 
L 209.236875 208.520318 
L 210.121686 210.086615 
L 211.006496 211.23521 
L 211.891307 212.052384 
L 212.776117 212.570445 
L 213.534527 212.773407 
L 214.292936 212.749793 
L 215.114545 212.483604 
L 216.062557 211.926263 
L 217.832178 210.554615 
L 219.285795 209.560093 
L 220.297008 209.121573 
L 221.181818 208.964495 
L 222.066629 209.041498 
L 222.888239 209.331429 
L 223.773049 209.881648 
L 224.721061 210.742865 
L 225.732273 211.962901 
L 226.869886 213.685245 
L 228.260303 216.221047 
L 232.052348 223.451481 
L 232.810758 224.303253 
L 233.442765 224.69514 
L 234.011572 224.778301 
L 234.580379 224.609056 
L 235.212386 224.152719 
L 235.970795 223.304355 
L 237.108409 221.647545 
L 239.826042 217.576665 
L 240.963655 216.321877 
L 241.911667 215.584162 
L 242.796477 215.170371 
L 243.618087 215.032681 
L 244.376496 215.119786 
L 245.198106 215.44707 
L 246.019716 216.014716 
L 246.967727 216.960917 
L 247.978939 218.294409 
L 249.242955 220.366028 
L 253.098201 227.055005 
L 253.793409 227.670476 
L 254.362216 227.89864 
L 254.867822 227.879299 
L 255.436629 227.612857 
L 256.068636 227.043396 
L 256.890246 225.964682 
L 258.217462 223.769806 
L 260.366288 220.234711 
L 261.503902 218.774488 
L 262.515114 217.823 
L 263.399924 217.283986 
L 264.221534 217.038697 
L 264.979943 217.03395 
L 265.738352 217.242686 
L 266.559962 217.70788 
L 267.444773 218.480652 
L 268.455985 219.691258 
L 269.593598 221.422318 
L 271.236818 224.384207 
L 273.006439 227.466987 
L 273.828049 228.50064 
L 274.460057 228.994344 
L 275.028864 229.171615 
L 275.53447 229.105129 
L 276.103277 228.785571 
L 276.735284 228.159697 
L 277.556894 227.015675 
L 278.947311 224.627043 
L 280.969735 221.227066 
L 282.107348 219.728547 
L 283.118561 218.74869 
L 284.003371 218.18892 
L 284.824981 217.927503 
L 285.58339 217.910346 
L 286.341799 218.108843 
L 287.163409 218.565104 
L 288.04822 219.33029 
L 288.996231 220.448917 
L 290.133845 222.152157 
L 291.777064 225.079664 
L 293.546686 228.12867 
L 294.368295 229.145579 
L 295.000303 229.625289 
L 295.56911 229.789078 
L 296.074716 229.710037 
L 296.643523 229.376004 
L 297.27553 228.73409 
L 298.160341 227.469084 
L 299.677159 224.809258 
L 301.509981 221.720855 
L 302.647595 220.209846 
L 303.658807 219.221418 
L 304.543617 218.655844 
L 305.365227 218.390297 
L 306.123636 218.370296 
L 306.882045 218.566773 
L 307.703655 219.021634 
L 308.588466 219.78598 
L 309.536477 220.90401 
L 310.674091 222.605773 
L 312.317311 225.524751 
L 314.023731 228.452477 
L 314.845341 229.474823 
L 315.477348 229.961247 
L 316.046155 230.131987 
L 316.551761 230.059018 
L 317.120568 229.730833 
L 317.752576 229.093338 
L 318.574186 227.93109 
L 319.964602 225.50624 
L 321.987027 222.051666 
L 323.12464 220.525001 
L 324.135852 219.522468 
L 325.020663 218.944776 
L 325.842273 218.668309 
L 326.600682 218.638577 
L 327.359091 218.825698 
L 328.180701 219.270883 
L 329.065511 220.02541 
L 330.013523 221.133733 
L 331.151136 222.825284 
L 332.794356 225.733631 
L 334.500777 228.65828 
L 335.322386 229.682586 
L 335.954394 230.171716 
L 336.523201 230.345347 
L 337.028807 230.274936 
L 337.597614 229.949211 
L 338.229621 229.313527 
L 339.051231 228.151796 
L 340.441648 225.723293 
L 342.464072 222.257088 
L 343.664886 220.64921 
L 344.676098 219.661723 
L 345.560909 219.098332 
L 346.382519 218.835691 
L 347.140928 218.818972 
L 347.899337 219.019176 
L 348.720947 219.478403 
L 349.605758 220.247539 
L 350.61697 221.455362 
L 351.754583 223.179968 
L 353.524205 226.336919 
L 355.041023 228.887273 
L 355.862633 229.88242 
L 356.49464 230.343069 
L 357.063447 230.488516 
L 357.569053 230.392821 
L 358.13786 230.04041 
L 358.833068 229.299791 
L 359.717879 227.987467 
L 361.424299 224.944545 
L 363.067519 222.200631 
L 364.205133 220.704851 
L 365.216345 219.734853 
L 366.101155 219.187725 
L 366.922765 218.940566 
L 367.681174 218.938239 
L 368.439583 219.152758 
L 369.261193 219.627185 
L 370.146004 220.411958 
L 371.157216 221.635902 
L 372.35803 223.480343 
L 374.443655 227.217186 
L 375.70767 229.231335 
L 376.46608 230.079279 
L 377.098087 230.480465 
L 377.603693 230.571321 
L 378.109299 230.450321 
L 378.678106 230.071468 
L 379.373314 229.30389 
L 380.321326 227.862015 
L 384.492576 220.996979 
L 385.503788 219.955175 
L 386.388598 219.341686 
L 387.210208 219.031426 
L 387.968617 218.970351 
L 388.031818 218.975061 
L 388.031818 218.975061 
" clip-path="url(#pc9c68f5aac)" style="fill: none; stroke: #5ea04b; stroke-width: 1.5; stroke-linecap: square"/>
   </g>
   <g id="patch_3">
    <path d="M 69.5 241.036875 
L 69.5 10.8 
" style="fill: none; stroke: #000000; stroke-width: 0.8; stroke-linejoin: miter; stroke-linecap: square"/>
   </g>
   <g id="patch_4">
    <path d="M 403.2 241.036875 
L 403.2 10.8 
" style="fill: none; stroke: #000000; stroke-width: 0.8; stroke-linejoin: miter; stroke-linecap: square"/>
   </g>
   <g id="patch_5">
    <path d="M 69.5 241.036875 
L 403.2 241.036875 
" style="fill: none; stroke: #000000; stroke-width: 0.8; stroke-linejoin: miter; stroke-linecap: square"/>
   </g>
   <g id="patch_6">
    <path d="M 69.5 10.8 
L 403.2 10.8 
" style="fill: none; stroke: #000000; stroke-width: 0.8; stroke-linejoin: miter; stroke-linecap: square"/>
   </g>
  </g>
 </g>
 <defs>
  <clipPath id="pc9c68f5aac">
   <rect x="69.5" y="10.8" width="333.7" height="230.236875"/>
  </clipPath>
 </defs>
</svg>
