<?xml version="1.0" encoding="utf-8" standalone="no"?>
<!DOCTYPE svg PUBLIC "-//W3C//DTD SVG 1.1//EN"
  "http://www.w3.org/Graphics/SVG/1.1/DTD/svg11.dtd">
<svg xmlns:xlink="http://www.w3.org/1999/xlink" width="504pt" height="432pt" viewBox="0 0 504 432" xmlns="http://www.w3.org/2000/svg" version="1.1">
 <metadata>
  <rdf:RDF xmlns:dc="http://purl.org/dc/elements/1.1/" xmlns:cc="http://creativecommons.org/ns#" xmlns:rdf="http://www.w3.org/1999/02/22-rdf-syntax-ns#">
   <cc:Work>
    <dc:type rdf:resource="http://purl.org/dc/dcmitype/StillImage"/>
    <dc:date>2026-01-20T08:36:25.955760</dc:date>
    <dc:format>image/svg+xml</dc:format>
    <dc:creator>
     <cc:Agent>
      <dc:title>Matplotlib v3.10.7, https://matplotlib.org/</dc:title>
     </cc:Agent>
    </dc:creator>
   </cc:Work>
  </rdf:RDF>
 </metadata>
 <defs>
  <style type="text/css">*{stroke-linejoin: round; stroke-linecap: butt}</style>
 </defs>
 <g id="figure_1">
  <g id="patch_1">
   <path d="M 0 432 
L 504 432 
L 504 0 
L 0 0 
L 0 432 
z
" style="fill: none"/>
  </g>
  <g id="axes_1">
   <g id="patch_2">
    <path d="M 102.62 362.623125 
L 470.9475 362.623125 
L 470.9475 45.83625 
L 102.62 45.83625 
L 102.62 362.623125 
z
" style="fill: none"/>
   </g>
   <g id="matplotlib.axis_1">
    <g id="xtick_1">
     <g id="line2d_1">
      <defs>
       <path id="meecbe4132b" d="M 0 0 
L 0 3.5 
" style="stroke: #000000; stroke-width: 0.8"/>
      </defs>
      <g>
       <use xlink:href="#meecbe4132b" x="102.62" y="362.623125" style="stroke: #000000; stroke-width: 0.8"/>
      </g>
     </g>
     <g id="text_1">
      <!-- 0 -->
      <g transform="translate(96.89375 383.300313) scale(0.18 -0.18)">
       <defs>
        <path id="DejaVuSerif-30" d="M 2034 219 
Q 2513 219 2750 744 
Q 2988 1269 2988 2328 
Q 2988 3391 2750 3916 
Q 2513 4441 2034 4441 
Q 1556 4441 1318 3916 
Q 1081 3391 1081 2328 
Q 1081 1269 1318 744 
Q 1556 219 2034 219 
z
M 2034 -91 
Q 1275 -91 848 546 
Q 422 1184 422 2328 
Q 422 3475 848 4112 
Q 1275 4750 2034 4750 
Q 2797 4750 3222 4112 
Q 3647 3475 3647 2328 
Q 3647 1184 3222 546 
Q 2797 -91 2034 -91 
z
" transform="scale(0.015625)"/>
       </defs>
       <use xlink:href="#DejaVuSerif-30"/>
      </g>
     </g>
    </g>
    <g id="xtick_2">
     <g id="line2d_2">
      <g>
       <use xlink:href="#meecbe4132b" x="225.395833" y="362.623125" style="stroke: #000000; stroke-width: 0.8"/>
      </g>
     </g>
     <g id="text_2">
      <!-- 20 -->
      <g transform="translate(213.943333 383.300313) scale(0.18 -0.18)">
       <defs>
        <path id="DejaVuSerif-32" d="M 819 3553 
L 469 3553 
L 469 4384 
Q 803 4563 1142 4656 
Q 1481 4750 1806 4750 
Q 2534 4750 2956 4397 
Q 3378 4044 3378 3438 
Q 3378 2753 2422 1800 
Q 2347 1728 2309 1691 
L 1131 513 
L 3078 513 
L 3078 1088 
L 3444 1088 
L 3444 0 
L 434 0 
L 434 341 
L 1850 1753 
Q 2319 2222 2519 2614 
Q 2719 3006 2719 3438 
Q 2719 3909 2473 4175 
Q 2228 4441 1797 4441 
Q 1350 4441 1106 4219 
Q 863 3997 819 3553 
z
" transform="scale(0.015625)"/>
       </defs>
       <use xlink:href="#DejaVuSerif-32"/>
       <use xlink:href="#DejaVuSerif-30" transform="translate(63.623047 0)"/>
      </g>
     </g>
    </g>
    <g id="xtick_3">
     <g id="line2d_3">
      <g>
       <use xlink:href="#meecbe4132b" x="348.171667" y="362.623125" style="stroke: #000000; stroke-width: 0.8"/>
      </g>
     </g>
     <g id="text_3">
      <!-- 40 -->
      <g transform="translate(336.719167 383.300313) scale(0.18 -0.18)">
       <defs>
        <path id="DejaVuSerif-34" d="M 2234 1581 
L 2234 4063 
L 641 1581 
L 2234 1581 
z
M 3609 0 
L 1484 0 
L 1484 331 
L 2234 331 
L 2234 1247 
L 197 1247 
L 197 1588 
L 2241 4750 
L 2859 4750 
L 2859 1581 
L 3750 1581 
L 3750 1247 
L 2859 1247 
L 2859 331 
L 3609 331 
L 3609 0 
z
" transform="scale(0.015625)"/>
       </defs>
       <use xlink:href="#DejaVuSerif-34"/>
       <use xlink:href="#DejaVuSerif-30" transform="translate(63.623047 0)"/>
      </g>
     </g>
    </g>
    <g id="xtick_4">
     <g id="line2d_4">
      <g>
       <use xlink:href="#meecbe4132b" x="470.9475" y="362.623125" style="stroke: #000000; stroke-width: 0.8"/>
      </g>
     </g>
     <g id="text_4">
      <!-- 60 -->
      <g transform="translate(459.495 383.300313) scale(0.18 -0.18)">
       <defs>
        <path id="DejaVuSerif-36" d="M 2094 219 
Q 2534 219 2771 542 
Q 3009 866 3009 1472 
Q 3009 2078 2771 2401 
Q 2534 2725 2094 2725 
Q 1647 2725 1412 2412 
Q 1178 2100 1178 1509 
Q 1178 888 1415 553 
Q 1653 219 2094 219 
z
M 1075 2569 
Q 1288 2803 1556 2918 
Q 1825 3034 2163 3034 
Q 2859 3034 3264 2615 
Q 3669 2197 3669 1472 
Q 3669 763 3233 336 
Q 2797 -91 2069 -91 
Q 1278 -91 853 498 
Q 428 1088 428 2181 
Q 428 3406 931 4078 
Q 1434 4750 2350 4750 
Q 2597 4750 2869 4703 
Q 3141 4656 3425 4563 
L 3425 3794 
L 3072 3794 
Q 3034 4109 2831 4275 
Q 2628 4441 2284 4441 
Q 1678 4441 1381 3981 
Q 1084 3522 1075 2569 
z
" transform="scale(0.015625)"/>
       </defs>
       <use xlink:href="#DejaVuSerif-36"/>
       <use xlink:href="#DejaVuSerif-30" transform="translate(63.623047 0)"/>
      </g>
     </g>
    </g>
    <g id="text_5">
     <!-- time (seconds) -->
     <g transform="translate(212.54 406.240625) scale(0.2 -0.2)">
      <defs>
       <path id="DejaVuSerif-74" d="M 691 2988 
L 184 2988 
L 184 3322 
L 691 3322 
L 691 4353 
L 1269 4353 
L 1269 3322 
L 2350 3322 
L 2350 2988 
L 1269 2988 
L 1269 878 
Q 1269 456 1350 337 
Q 1431 219 1650 219 
Q 1875 219 1978 351 
Q 2081 484 2088 781 
L 2522 781 
Q 2497 328 2275 118 
Q 2053 -91 1600 -91 
Q 1103 -91 897 129 
Q 691 350 691 878 
L 691 2988 
z
" transform="scale(0.015625)"/>
       <path id="DejaVuSerif-69" d="M 622 4353 
Q 622 4497 726 4603 
Q 831 4709 978 4709 
Q 1122 4709 1226 4603 
Q 1331 4497 1331 4353 
Q 1331 4206 1228 4103 
Q 1125 4000 978 4000 
Q 831 4000 726 4103 
Q 622 4206 622 4353 
z
M 1356 331 
L 1900 331 
L 1900 0 
L 231 0 
L 231 331 
L 781 331 
L 781 2988 
L 231 2988 
L 231 3322 
L 1356 3322 
L 1356 331 
z
" transform="scale(0.015625)"/>
       <path id="DejaVuSerif-6d" d="M 3316 2675 
Q 3481 3041 3739 3227 
Q 3997 3413 4341 3413 
Q 4863 3413 5119 3089 
Q 5375 2766 5375 2113 
L 5375 331 
L 5894 331 
L 5894 0 
L 4300 0 
L 4300 331 
L 4800 331 
L 4800 2047 
Q 4800 2556 4650 2772 
Q 4500 2988 4153 2988 
Q 3769 2988 3567 2697 
Q 3366 2406 3366 1850 
L 3366 331 
L 3866 331 
L 3866 0 
L 2291 0 
L 2291 331 
L 2791 331 
L 2791 2069 
Q 2791 2566 2641 2777 
Q 2491 2988 2144 2988 
Q 1759 2988 1557 2697 
Q 1356 2406 1356 1850 
L 1356 331 
L 1856 331 
L 1856 0 
L 263 0 
L 263 331 
L 781 331 
L 781 2994 
L 231 2994 
L 231 3322 
L 1356 3322 
L 1356 2731 
Q 1516 3063 1762 3238 
Q 2009 3413 2322 3413 
Q 2709 3413 2968 3220 
Q 3228 3028 3316 2675 
z
" transform="scale(0.015625)"/>
       <path id="DejaVuSerif-65" d="M 3469 1600 
L 991 1600 
L 991 1575 
Q 991 903 1244 561 
Q 1497 219 1991 219 
Q 2369 219 2611 417 
Q 2853 616 2950 1006 
L 3413 1006 
Q 3275 459 2904 184 
Q 2534 -91 1931 -91 
Q 1203 -91 761 389 
Q 319 869 319 1663 
Q 319 2450 753 2931 
Q 1188 3413 1894 3413 
Q 2647 3413 3050 2948 
Q 3453 2484 3469 1600 
z
M 2791 1931 
Q 2772 2513 2545 2808 
Q 2319 3103 1894 3103 
Q 1497 3103 1269 2806 
Q 1041 2509 991 1931 
L 2791 1931 
z
" transform="scale(0.015625)"/>
       <path id="DejaVuSerif-20" transform="scale(0.015625)"/>
       <path id="DejaVuSerif-28" d="M 2041 -997 
Q 1281 -656 893 83 
Q 506 822 506 1931 
Q 506 3044 893 3783 
Q 1281 4522 2041 4863 
L 2041 4556 
Q 1559 4225 1350 3623 
Q 1141 3022 1141 1931 
Q 1141 844 1350 242 
Q 1559 -359 2041 -691 
L 2041 -997 
z
" transform="scale(0.015625)"/>
       <path id="DejaVuSerif-73" d="M 359 184 
L 359 959 
L 691 959 
Q 703 588 923 403 
Q 1144 219 1575 219 
Q 1963 219 2166 364 
Q 2369 509 2369 788 
Q 2369 1006 2220 1140 
Q 2072 1275 1594 1428 
L 1178 1569 
Q 750 1706 558 1912 
Q 366 2119 366 2438 
Q 366 2894 700 3153 
Q 1034 3413 1625 3413 
Q 1888 3413 2178 3344 
Q 2469 3275 2778 3144 
L 2778 2419 
L 2447 2419 
Q 2434 2741 2221 2922 
Q 2009 3103 1644 3103 
Q 1281 3103 1095 2975 
Q 909 2847 909 2591 
Q 909 2381 1050 2254 
Q 1191 2128 1613 1997 
L 2069 1856 
Q 2541 1709 2748 1489 
Q 2956 1269 2956 922 
Q 2956 450 2595 179 
Q 2234 -91 1600 -91 
Q 1278 -91 972 -22 
Q 666 47 359 184 
z
" transform="scale(0.015625)"/>
       <path id="DejaVuSerif-63" d="M 3291 997 
Q 3169 466 2822 187 
Q 2475 -91 1925 -91 
Q 1200 -91 759 389 
Q 319 869 319 1663 
Q 319 2459 759 2936 
Q 1200 3413 1925 3413 
Q 2241 3413 2553 3339 
Q 2866 3266 3181 3116 
L 3181 2266 
L 2847 2266 
Q 2781 2703 2561 2903 
Q 2341 3103 1931 3103 
Q 1466 3103 1228 2742 
Q 991 2381 991 1663 
Q 991 944 1227 581 
Q 1463 219 1931 219 
Q 2303 219 2525 412 
Q 2747 606 2828 997 
L 3291 997 
z
" transform="scale(0.015625)"/>
       <path id="DejaVuSerif-6f" d="M 1925 219 
Q 2388 219 2623 584 
Q 2859 950 2859 1663 
Q 2859 2375 2623 2739 
Q 2388 3103 1925 3103 
Q 1463 3103 1227 2739 
Q 991 2375 991 1663 
Q 991 950 1228 584 
Q 1466 219 1925 219 
z
M 1925 -91 
Q 1200 -91 759 389 
Q 319 869 319 1663 
Q 319 2456 758 2934 
Q 1197 3413 1925 3413 
Q 2653 3413 3092 2934 
Q 3531 2456 3531 1663 
Q 3531 869 3092 389 
Q 2653 -91 1925 -91 
z
" transform="scale(0.015625)"/>
       <path id="DejaVuSerif-6e" d="M 263 0 
L 263 331 
L 781 331 
L 781 2988 
L 231 2988 
L 231 3322 
L 1356 3322 
L 1356 2731 
Q 1516 3069 1770 3241 
Q 2025 3413 2363 3413 
Q 2913 3413 3172 3097 
Q 3431 2781 3431 2113 
L 3431 331 
L 3944 331 
L 3944 0 
L 2356 0 
L 2356 331 
L 2853 331 
L 2853 1931 
Q 2853 2541 2703 2767 
Q 2553 2994 2175 2994 
Q 1775 2994 1565 2701 
Q 1356 2409 1356 1850 
L 1356 331 
L 1856 331 
L 1856 0 
L 263 0 
z
" transform="scale(0.015625)"/>
       <path id="DejaVuSerif-64" d="M 3359 331 
L 3909 331 
L 3909 0 
L 2784 0 
L 2784 519 
Q 2616 206 2355 57 
Q 2094 -91 1709 -91 
Q 1097 -91 708 395 
Q 319 881 319 1663 
Q 319 2444 706 2928 
Q 1094 3413 1709 3413 
Q 2094 3413 2355 3264 
Q 2616 3116 2784 2803 
L 2784 4531 
L 2241 4531 
L 2241 4863 
L 3359 4863 
L 3359 331 
z
M 2784 1497 
L 2784 1825 
Q 2784 2422 2554 2737 
Q 2325 3053 1888 3053 
Q 1444 3053 1217 2703 
Q 991 2353 991 1663 
Q 991 975 1217 622 
Q 1444 269 1888 269 
Q 2325 269 2554 583 
Q 2784 897 2784 1497 
z
" transform="scale(0.015625)"/>
       <path id="DejaVuSerif-29" d="M 453 -997 
L 453 -691 
Q 934 -359 1145 242 
Q 1356 844 1356 1931 
Q 1356 3022 1145 3623 
Q 934 4225 453 4556 
L 453 4863 
Q 1216 4522 1603 3783 
Q 1991 3044 1991 1931 
Q 1991 822 1603 83 
Q 1216 -656 453 -997 
z
" transform="scale(0.015625)"/>
      </defs>
      <use xlink:href="#DejaVuSerif-74"/>
      <use xlink:href="#DejaVuSerif-69" transform="translate(40.185547 0)"/>
      <use xlink:href="#DejaVuSerif-6d" transform="translate(72.167969 0)"/>
      <use xlink:href="#DejaVuSerif-65" transform="translate(166.992188 0)"/>
      <use xlink:href="#DejaVuSerif-20" transform="translate(226.171875 0)"/>
      <use xlink:href="#DejaVuSerif-28" transform="translate(257.958984 0)"/>
      <use xlink:href="#DejaVuSerif-73" transform="translate(296.972656 0)"/>
      <use xlink:href="#DejaVuSerif-65" transform="translate(348.291016 0)"/>
      <use xlink:href="#DejaVuSerif-63" transform="translate(407.470703 0)"/>
      <use xlink:href="#DejaVuSerif-6f" transform="translate(463.476562 0)"/>
      <use xlink:href="#DejaVuSerif-6e" transform="translate(523.681641 0)"/>
      <use xlink:href="#DejaVuSerif-64" transform="translate(588.085938 0)"/>
      <use xlink:href="#DejaVuSerif-73" transform="translate(652.099609 0)"/>
      <use xlink:href="#DejaVuSerif-29" transform="translate(703.417969 0)"/>
     </g>
    </g>
   </g>
   <g id="matplotlib.axis_2">
    <g id="ytick_1">
     <g id="line2d_5">
      <defs>
       <path id="m5e8e02f0b6" d="M 0 0 
L -3.5 0 
" style="stroke: #000000; stroke-width: 0.8"/>
      </defs>
      <g>
       <use xlink:href="#m5e8e02f0b6" x="102.62" y="316.537075" style="stroke: #000000; stroke-width: 0.8"/>
      </g>
     </g>
     <g id="text_6">
      <!-- $\mathdefault{10^{-11}}$ -->
      <g transform="translate(45.4 323.375669) scale(0.18 -0.18)">
       <defs>
        <path id="DejaVuSerif-31" d="M 909 0 
L 909 331 
L 1722 331 
L 1722 4213 
L 781 3603 
L 781 4013 
L 1919 4750 
L 2350 4750 
L 2350 331 
L 3163 331 
L 3163 0 
L 909 0 
z
" transform="scale(0.015625)"/>
        <path id="DejaVuSerif-2212" d="M 678 2259 
L 4684 2259 
L 4684 1753 
L 678 1753 
L 678 2259 
z
" transform="scale(0.015625)"/>
       </defs>
       <use xlink:href="#DejaVuSerif-31" transform="translate(0 0.7125)"/>
       <use xlink:href="#DejaVuSerif-30" transform="translate(63.623047 0.7125)"/>
       <use xlink:href="#DejaVuSerif-2212" transform="translate(128.154453 37.046875) scale(0.7)"/>
       <use xlink:href="#DejaVuSerif-31" transform="translate(186.806797 37.046875) scale(0.7)"/>
       <use xlink:href="#DejaVuSerif-31" transform="translate(231.34293 37.046875) scale(0.7)"/>
      </g>
     </g>
    </g>
    <g id="ytick_2">
     <g id="line2d_6">
      <g>
       <use xlink:href="#m5e8e02f0b6" x="102.62" y="252.561514" style="stroke: #000000; stroke-width: 0.8"/>
      </g>
     </g>
     <g id="text_7">
      <!-- $\mathdefault{10^{-9}}$ -->
      <g transform="translate(53.5 259.400108) scale(0.18 -0.18)">
       <defs>
        <path id="DejaVuSerif-39" d="M 2994 2091 
Q 2784 1856 2512 1740 
Q 2241 1625 1900 1625 
Q 1206 1625 804 2044 
Q 403 2463 403 3188 
Q 403 3897 839 4323 
Q 1275 4750 2003 4750 
Q 2794 4750 3217 4161 
Q 3641 3572 3641 2478 
Q 3641 1253 3137 581 
Q 2634 -91 1722 -91 
Q 1475 -91 1203 -44 
Q 931 3 647 97 
L 647 872 
L 997 872 
Q 1038 556 1241 387 
Q 1444 219 1784 219 
Q 2391 219 2687 676 
Q 2984 1134 2994 2091 
z
M 1978 4441 
Q 1534 4441 1298 4117 
Q 1063 3794 1063 3188 
Q 1063 2581 1298 2256 
Q 1534 1931 1978 1931 
Q 2422 1931 2658 2245 
Q 2894 2559 2894 3150 
Q 2894 3772 2656 4106 
Q 2419 4441 1978 4441 
z
" transform="scale(0.015625)"/>
       </defs>
       <use xlink:href="#DejaVuSerif-31" transform="translate(0 0.7125)"/>
       <use xlink:href="#DejaVuSerif-30" transform="translate(63.623047 0.7125)"/>
       <use xlink:href="#DejaVuSerif-2212" transform="translate(128.154453 37.046875) scale(0.7)"/>
       <use xlink:href="#DejaVuSerif-39" transform="translate(186.806797 37.046875) scale(0.7)"/>
      </g>
     </g>
    </g>
    <g id="ytick_3">
     <g id="line2d_7">
      <g>
       <use xlink:href="#m5e8e02f0b6" x="102.62" y="188.585953" style="stroke: #000000; stroke-width: 0.8"/>
      </g>
     </g>
     <g id="text_8">
      <!-- $\mathdefault{10^{-7}}$ -->
      <g transform="translate(53.5 195.424547) scale(0.18 -0.18)">
       <defs>
        <path id="DejaVuSerif-37" d="M 3609 4347 
L 1784 0 
L 1319 0 
L 3059 4153 
L 903 4153 
L 903 3578 
L 538 3578 
L 538 4666 
L 3609 4666 
L 3609 4347 
z
" transform="scale(0.015625)"/>
       </defs>
       <use xlink:href="#DejaVuSerif-31" transform="translate(0 0.63125)"/>
       <use xlink:href="#DejaVuSerif-30" transform="translate(63.623047 0.63125)"/>
       <use xlink:href="#DejaVuSerif-2212" transform="translate(128.154453 36.965625) scale(0.7)"/>
       <use xlink:href="#DejaVuSerif-37" transform="translate(186.806797 36.965625) scale(0.7)"/>
      </g>
     </g>
    </g>
    <g id="ytick_4">
     <g id="line2d_8">
      <g>
       <use xlink:href="#m5e8e02f0b6" x="102.62" y="124.610392" style="stroke: #000000; stroke-width: 0.8"/>
      </g>
     </g>
     <g id="text_9">
      <!-- $\mathdefault{10^{-5}}$ -->
      <g transform="translate(53.5 131.448986) scale(0.18 -0.18)">
       <defs>
        <path id="DejaVuSerif-35" d="M 3219 4666 
L 3219 4153 
L 1081 4153 
L 1081 2816 
Q 1244 2928 1461 2984 
Q 1678 3041 1947 3041 
Q 2703 3041 3140 2622 
Q 3578 2203 3578 1478 
Q 3578 738 3136 323 
Q 2694 -91 1894 -91 
Q 1572 -91 1234 -12 
Q 897 66 544 225 
L 544 1131 
L 897 1131 
Q 925 688 1179 453 
Q 1434 219 1894 219 
Q 2388 219 2653 544 
Q 2919 869 2919 1478 
Q 2919 2084 2655 2407 
Q 2391 2731 1894 2731 
Q 1613 2731 1398 2631 
Q 1184 2531 1019 2322 
L 750 2322 
L 750 4666 
L 3219 4666 
z
" transform="scale(0.015625)"/>
       </defs>
       <use xlink:href="#DejaVuSerif-31" transform="translate(0 0.63125)"/>
       <use xlink:href="#DejaVuSerif-30" transform="translate(63.623047 0.63125)"/>
       <use xlink:href="#DejaVuSerif-2212" transform="translate(128.154453 36.965625) scale(0.7)"/>
       <use xlink:href="#DejaVuSerif-35" transform="translate(186.806797 36.965625) scale(0.7)"/>
      </g>
     </g>
    </g>
    <g id="ytick_5">
     <g id="line2d_9">
      <g>
       <use xlink:href="#m5e8e02f0b6" x="102.62" y="60.634831" style="stroke: #000000; stroke-width: 0.8"/>
      </g>
     </g>
     <g id="text_10">
      <!-- $\mathdefault{10^{-3}}$ -->
      <g transform="translate(53.5 67.473425) scale(0.18 -0.18)">
       <defs>
        <path id="DejaVuSerif-33" d="M 622 4469 
Q 988 4606 1323 4678 
Q 1659 4750 1953 4750 
Q 2638 4750 3022 4454 
Q 3406 4159 3406 3634 
Q 3406 3213 3140 2930 
Q 2875 2647 2388 2547 
Q 2963 2466 3280 2130 
Q 3597 1794 3597 1259 
Q 3597 606 3158 257 
Q 2719 -91 1894 -91 
Q 1528 -91 1179 -12 
Q 831 66 488 225 
L 488 1131 
L 838 1131 
Q 869 681 1141 450 
Q 1413 219 1906 219 
Q 2384 219 2661 495 
Q 2938 772 2938 1253 
Q 2938 1803 2653 2086 
Q 2369 2369 1819 2369 
L 1522 2369 
L 1522 2688 
L 1678 2688 
Q 2225 2688 2498 2914 
Q 2772 3141 2772 3597 
Q 2772 4006 2547 4223 
Q 2322 4441 1900 4441 
Q 1478 4441 1245 4241 
Q 1013 4041 972 3647 
L 622 3647 
L 622 4469 
z
" transform="scale(0.015625)"/>
       </defs>
       <use xlink:href="#DejaVuSerif-31" transform="translate(0 0.7125)"/>
       <use xlink:href="#DejaVuSerif-30" transform="translate(63.623047 0.7125)"/>
       <use xlink:href="#DejaVuSerif-2212" transform="translate(128.154453 37.046875) scale(0.7)"/>
       <use xlink:href="#DejaVuSerif-33" transform="translate(186.806797 37.046875) scale(0.7)"/>
      </g>
     </g>
    </g>
    <g id="text_11">
     <!-- relative attitude angle: $\phi$ (deg) -->
     <g transform="translate(36.8 360.029688) rotate(-90) scale(0.2 -0.2)">
      <defs>
       <path id="DejaVuSerif-72" d="M 3059 3328 
L 3059 2497 
L 2728 2497 
Q 2713 2744 2591 2866 
Q 2469 2988 2234 2988 
Q 1809 2988 1582 2694 
Q 1356 2400 1356 1850 
L 1356 331 
L 2022 331 
L 2022 0 
L 263 0 
L 263 331 
L 781 331 
L 781 2994 
L 231 2994 
L 231 3322 
L 1356 3322 
L 1356 2731 
Q 1525 3078 1790 3245 
Q 2056 3413 2438 3413 
Q 2578 3413 2733 3391 
Q 2888 3369 3059 3328 
z
" transform="scale(0.015625)"/>
       <path id="DejaVuSerif-6c" d="M 1313 331 
L 1856 331 
L 1856 0 
L 184 0 
L 184 331 
L 738 331 
L 738 4531 
L 184 4531 
L 184 4863 
L 1313 4863 
L 1313 331 
z
" transform="scale(0.015625)"/>
       <path id="DejaVuSerif-61" d="M 2547 1044 
L 2547 1747 
L 1806 1747 
Q 1378 1747 1168 1562 
Q 959 1378 959 997 
Q 959 650 1171 447 
Q 1384 244 1747 244 
Q 2106 244 2326 466 
Q 2547 688 2547 1044 
z
M 3122 2075 
L 3122 331 
L 3634 331 
L 3634 0 
L 2547 0 
L 2547 359 
Q 2356 128 2106 18 
Q 1856 -91 1522 -91 
Q 969 -91 644 203 
Q 319 497 319 997 
Q 319 1513 691 1797 
Q 1063 2081 1741 2081 
L 2547 2081 
L 2547 2309 
Q 2547 2688 2317 2895 
Q 2088 3103 1672 3103 
Q 1328 3103 1125 2947 
Q 922 2791 872 2484 
L 575 2484 
L 575 3156 
Q 875 3284 1158 3348 
Q 1441 3413 1709 3413 
Q 2400 3413 2761 3070 
Q 3122 2728 3122 2075 
z
" transform="scale(0.015625)"/>
       <path id="DejaVuSerif-76" d="M 1581 0 
L 359 2988 
L -19 2988 
L -19 3322 
L 1509 3322 
L 1509 2988 
L 978 2988 
L 1913 703 
L 2847 2988 
L 2350 2988 
L 2350 3322 
L 3597 3322 
L 3597 2988 
L 3225 2988 
L 2003 0 
L 1581 0 
z
" transform="scale(0.015625)"/>
       <path id="DejaVuSerif-75" d="M 2266 3322 
L 3341 3322 
L 3341 331 
L 3884 331 
L 3884 0 
L 2766 0 
L 2766 588 
Q 2606 256 2353 82 
Q 2100 -91 1766 -91 
Q 1213 -91 952 223 
Q 691 538 691 1209 
L 691 2988 
L 172 2988 
L 172 3322 
L 1269 3322 
L 1269 1388 
Q 1269 781 1417 556 
Q 1566 331 1947 331 
Q 2347 331 2556 625 
Q 2766 919 2766 1478 
L 2766 2988 
L 2266 2988 
L 2266 3322 
z
" transform="scale(0.015625)"/>
       <path id="DejaVuSerif-67" d="M 3359 2988 
L 3359 72 
Q 3359 -644 2965 -1033 
Q 2572 -1422 1844 -1422 
Q 1516 -1422 1216 -1362 
Q 916 -1303 641 -1184 
L 641 -488 
L 941 -488 
Q 997 -813 1206 -963 
Q 1416 -1113 1806 -1113 
Q 2313 -1113 2548 -827 
Q 2784 -541 2784 72 
L 2784 519 
Q 2616 206 2355 57 
Q 2094 -91 1709 -91 
Q 1097 -91 708 395 
Q 319 881 319 1663 
Q 319 2444 706 2928 
Q 1094 3413 1709 3413 
Q 2094 3413 2355 3264 
Q 2616 3116 2784 2803 
L 2784 3322 
L 3909 3322 
L 3909 2988 
L 3359 2988 
z
M 2784 1825 
Q 2784 2422 2554 2737 
Q 2325 3053 1888 3053 
Q 1444 3053 1217 2703 
Q 991 2353 991 1663 
Q 991 975 1217 622 
Q 1444 269 1888 269 
Q 2325 269 2554 583 
Q 2784 897 2784 1497 
L 2784 1825 
z
" transform="scale(0.015625)"/>
       <path id="DejaVuSerif-3a" d="M 666 325 
Q 666 500 786 622 
Q 906 744 1081 744 
Q 1256 744 1376 622 
Q 1497 500 1497 325 
Q 1497 150 1378 29 
Q 1259 -91 1081 -91 
Q 903 -91 784 29 
Q 666 150 666 325 
z
M 666 2363 
Q 666 2538 786 2658 
Q 906 2778 1081 2778 
Q 1259 2778 1378 2659 
Q 1497 2541 1497 2363 
Q 1497 2184 1378 2065 
Q 1259 1947 1081 1947 
Q 906 1947 786 2067 
Q 666 2188 666 2363 
z
" transform="scale(0.015625)"/>
       <path id="DejaVuSans-Oblique-3d5" d="M 2991 4863 
L 2738 3572 
Q 3363 3572 3684 3094 
Q 4016 2606 3850 1747 
Q 3681 888 3159 400 
Q 2653 -78 2028 -78 
L 1784 -1331 
L 1213 -1331 
L 1456 -78 
Q 834 -78 509 400 
Q 178 888 347 1747 
Q 513 2606 1034 3094 
Q 1544 3572 2166 3572 
L 2419 4863 
L 2991 4863 
z
M 2128 434 
Q 2481 434 2784 756 
Q 3116 1116 3244 1747 
Q 3369 2372 3169 2738 
Q 2991 3059 2638 3059 
L 2128 434 
z
M 1556 434 
L 2066 3059 
Q 1716 3059 1413 2738 
Q 1072 2372 953 1747 
Q 834 1116 1028 756 
Q 1203 434 1556 434 
z
" transform="scale(0.015625)"/>
      </defs>
      <use xlink:href="#DejaVuSerif-72" transform="translate(0 0.015625)"/>
      <use xlink:href="#DejaVuSerif-65" transform="translate(47.802734 0.015625)"/>
      <use xlink:href="#DejaVuSerif-6c" transform="translate(106.982422 0.015625)"/>
      <use xlink:href="#DejaVuSerif-61" transform="translate(138.964844 0.015625)"/>
      <use xlink:href="#DejaVuSerif-74" transform="translate(198.583984 0.015625)"/>
      <use xlink:href="#DejaVuSerif-69" transform="translate(238.769531 0.015625)"/>
      <use xlink:href="#DejaVuSerif-76" transform="translate(270.751953 0.015625)"/>
      <use xlink:href="#DejaVuSerif-65" transform="translate(327.246094 0.015625)"/>
      <use xlink:href="#DejaVuSerif-20" transform="translate(386.425781 0.015625)"/>
      <use xlink:href="#DejaVuSerif-61" transform="translate(418.212891 0.015625)"/>
      <use xlink:href="#DejaVuSerif-74" transform="translate(477.832031 0.015625)"/>
      <use xlink:href="#DejaVuSerif-74" transform="translate(518.017578 0.015625)"/>
      <use xlink:href="#DejaVuSerif-69" transform="translate(558.203125 0.015625)"/>
      <use xlink:href="#DejaVuSerif-74" transform="translate(590.185547 0.015625)"/>
      <use xlink:href="#DejaVuSerif-75" transform="translate(630.371094 0.015625)"/>
      <use xlink:href="#DejaVuSerif-64" transform="translate(694.775391 0.015625)"/>
      <use xlink:href="#DejaVuSerif-65" transform="translate(758.789062 0.015625)"/>
      <use xlink:href="#DejaVuSerif-20" transform="translate(817.96875 0.015625)"/>
      <use xlink:href="#DejaVuSerif-61" transform="translate(849.755859 0.015625)"/>
      <use xlink:href="#DejaVuSerif-6e" transform="translate(909.375 0.015625)"/>
      <use xlink:href="#DejaVuSerif-67" transform="translate(973.779297 0.015625)"/>
      <use xlink:href="#DejaVuSerif-6c" transform="translate(1037.792969 0.015625)"/>
      <use xlink:href="#DejaVuSerif-65" transform="translate(1069.775391 0.015625)"/>
      <use xlink:href="#DejaVuSerif-3a" transform="translate(1128.955078 0.015625)"/>
      <use xlink:href="#DejaVuSerif-20" transform="translate(1162.646484 0.015625)"/>
      <use xlink:href="#DejaVuSans-Oblique-3d5" transform="translate(1194.433594 0.015625)"/>
      <use xlink:href="#DejaVuSerif-20" transform="translate(1260.400391 0.015625)"/>
      <use xlink:href="#DejaVuSerif-28" transform="translate(1292.1875 0.015625)"/>
      <use xlink:href="#DejaVuSerif-64" transform="translate(1331.201172 0.015625)"/>
      <use xlink:href="#DejaVuSerif-65" transform="translate(1395.214844 0.015625)"/>
      <use xlink:href="#DejaVuSerif-67" transform="translate(1454.394531 0.015625)"/>
      <use xlink:href="#DejaVuSerif-29" transform="translate(1518.408203 0.015625)"/>
     </g>
    </g>
   </g>
   <g id="line2d_10">
    <path d="M 103.228495 433 
L 103.233879 154.127201 
L 103.847758 128.341911 
L 104.461638 114.390601 
L 105.075517 105.249252 
L 105.689396 98.69576 
L 106.303275 93.743065 
L 106.917154 89.873153 
L 107.531033 86.785596 
L 108.144913 84.293732 
L 108.758792 82.275388 
L 109.372671 80.647385 
L 109.98655 79.351142 
L 110.600429 78.343931 
L 111.214308 77.593727 
L 111.828188 77.075905 
L 112.442067 76.771106 
L 113.055946 76.66364 
L 113.669825 76.740381 
L 114.283704 76.990237 
L 114.897583 77.402619 
L 116.125342 78.67354 
L 117.3531 80.458203 
L 119.194738 83.778879 
L 121.036375 87.087294 
L 121.650254 87.964865 
L 122.264133 88.641973 
L 122.878013 89.078129 
L 123.491892 89.251584 
L 124.105771 89.163781 
L 124.71965 88.838057 
L 125.333529 88.315588 
L 126.561288 86.881348 
L 129.016804 83.710825 
L 130.244563 82.432597 
L 131.472321 81.496141 
L 132.700079 80.926497 
L 133.927838 80.714879 
L 135.155596 80.830814 
L 136.383354 81.225675 
L 138.224992 82.192778 
L 141.294388 84.047781 
L 142.522146 84.583536 
L 143.749904 84.88414 
L 144.977663 84.926288 
L 146.205421 84.733657 
L 148.047058 84.142928 
L 151.730333 82.816202 
L 153.571971 82.443884 
L 155.413608 82.355661 
L 157.255246 82.520359 
L 160.324642 83.110697 
L 163.394038 83.636006 
L 165.235675 83.753382 
L 167.691192 83.652291 
L 175.671621 82.92492 
L 178.741017 83.005011 
L 186.721446 83.376045 
L 191.632479 83.232149 
L 197.157392 83.10393 
L 205.7517 83.239022 
L 213.11825 83.190545 
L 222.326438 83.170901 
L 237.059538 83.163979 
L 299.061333 83.146911 
L 470.9475 83.186817 
L 470.9475 83.186817 
" clip-path="url(#p575b66ddf3)" style="fill: none; stroke: #1f77b4; stroke-width: 1.5; stroke-linecap: square"/>
   </g>
   <g id="line2d_11">
    <path d="M 103.228191 433 
L 103.233879 138.206143 
L 103.847758 112.465299 
L 104.461638 98.543122 
L 105.075517 89.424446 
L 105.689396 82.889361 
L 106.303275 77.953515 
L 106.917154 74.098276 
L 107.531033 71.023931 
L 108.144913 68.543552 
L 108.758792 66.534877 
L 109.372671 64.914703 
L 109.98655 63.624247 
L 110.600429 62.620424 
L 111.214308 61.870857 
L 111.828188 61.350438 
L 112.442067 61.039163 
L 113.055946 60.920897 
L 113.669825 60.981985 
L 114.283704 61.210412 
L 114.897583 61.595023 
L 116.125342 62.788175 
L 117.3531 64.460174 
L 119.194738 67.540029 
L 121.036375 70.570272 
L 122.264133 71.996506 
L 122.878013 72.409549 
L 123.491892 72.594013 
L 124.105771 72.550628 
L 124.71965 72.297962 
L 125.947408 71.304306 
L 127.789046 69.218238 
L 129.630683 67.225713 
L 130.858442 66.204348 
L 132.0862 65.499169 
L 133.313958 65.120848 
L 134.541717 65.052572 
L 135.769475 65.258267 
L 136.997233 65.686236 
L 138.838871 66.593453 
L 141.294388 67.860925 
L 142.522146 68.330339 
L 143.749904 68.607852 
L 144.977663 68.673049 
L 146.205421 68.541764 
L 148.047058 68.084667 
L 152.344213 66.857613 
L 154.18585 66.606452 
L 156.027488 66.584251 
L 158.483004 66.839411 
L 164.007917 67.619744 
L 166.463433 67.676988 
L 169.532829 67.4793 
L 174.443863 67.098517 
L 177.513258 67.073952 
L 184.265929 67.36087 
L 188.563083 67.386532 
L 201.454546 67.252369 
L 211.276613 67.304094 
L 226.009713 67.29119 
L 267.139617 67.294118 
L 470.9475 67.36297 
L 470.9475 67.36297 
" clip-path="url(#p575b66ddf3)" style="fill: none; stroke: #ff7f0e; stroke-width: 1.5; stroke-linecap: square"/>
   </g>
   <g id="line2d_12">
    <path d="M 103.230537 433 
L 103.233879 260.45852 
L 103.847758 223.474227 
L 104.461638 203.898817 
L 105.075517 191.014385 
L 105.689396 181.782026 
L 106.303275 174.875969 
L 106.917154 169.600232 
L 107.531033 165.548656 
L 108.144913 162.468912 
L 108.758792 160.198834 
L 109.372671 158.634582 
L 109.98655 157.713845 
L 110.600429 157.407875 
L 111.214308 157.720567 
L 111.828188 158.694397 
L 112.442067 160.429046 
L 113.055946 163.127984 
L 113.669825 167.227818 
L 114.283704 173.864584 
L 114.897583 188.010801 
L 115.511463 191.986538 
L 116.125342 175.849174 
L 116.739221 169.205609 
L 117.3531 165.363338 
L 117.966979 162.990562 
L 118.580858 161.592629 
L 119.194738 160.940171 
L 119.808617 160.919688 
L 120.422496 161.482707 
L 121.036375 162.628792 
L 121.650254 164.406204 
L 122.264133 166.931464 
L 122.878013 170.445308 
L 123.491892 175.481664 
L 124.105771 183.539716 
L 124.71965 203.305096 
L 125.333529 194.251876 
L 125.947408 182.370366 
L 126.561288 176.856975 
L 127.175167 173.628089 
L 127.789046 171.658358 
L 128.402925 170.535622 
L 129.016804 170.05965 
L 129.630683 170.126317 
L 130.244563 170.685638 
L 130.858442 171.725467 
L 131.472321 173.268726 
L 132.0862 175.381356 
L 132.700079 178.196719 
L 133.313958 181.980889 
L 133.927838 187.320804 
L 134.541717 195.91975 
L 135.155596 219.540549 
L 135.769475 203.661088 
L 136.383354 192.840539 
L 136.997233 187.52907 
L 137.611113 184.308783 
L 138.224992 182.257317 
L 138.838871 180.993854 
L 139.45275 180.330469 
L 140.066629 180.168408 
L 140.680508 180.45946 
L 141.294388 181.188896 
L 141.908267 182.371199 
L 142.522146 184.056019 
L 143.136025 186.341227 
L 143.749904 189.413041 
L 144.363783 193.642926 
L 144.977663 199.928037 
L 145.591542 211.528525 
L 146.205421 230.73747 
L 146.8193 206.740937 
L 147.433179 199.079591 
L 148.047058 194.772043 
L 148.660938 192.051076 
L 149.274817 190.311475 
L 149.888696 189.280177 
L 150.502575 188.818386 
L 151.116454 188.85421 
L 151.730333 189.358389 
L 152.344213 190.335259 
L 152.958092 191.822244 
L 153.571971 193.900437 
L 154.18585 196.726383 
L 154.799729 200.609968 
L 155.413608 206.260264 
L 156.027488 215.927199 
L 156.641367 264.962624 
L 157.255246 217.760902 
L 157.869125 208.633787 
L 158.483004 203.813364 
L 159.096883 200.830549 
L 159.710763 198.931805 
L 160.324642 197.793528 
L 160.938521 197.25404 
L 161.5524 197.229183 
L 162.166279 197.67816 
L 162.780158 198.59651 
L 163.394038 200.014773 
L 164.007917 202.002851 
L 164.621796 204.695938 
L 165.235675 208.361714 
L 165.849554 213.593875 
L 166.463433 222.110459 
L 167.077313 245.888949 
L 167.691192 229.507623 
L 168.305071 218.67475 
L 168.91895 213.328372 
L 169.532829 210.079665 
L 170.146708 208.013759 
L 170.760588 206.75248 
L 171.374467 206.112009 
L 171.988346 205.996061 
L 172.602225 206.360498 
L 173.216104 207.197265 
L 173.829983 208.530067 
L 174.443863 210.423114 
L 175.057742 212.996792 
L 175.671621 216.500668 
L 176.2855 221.458905 
L 176.899379 229.307603 
L 177.513258 247.865536 
L 178.127138 241.010747 
L 178.741017 228.488159 
L 179.354896 222.686455 
L 179.968775 219.212069 
L 180.582654 216.992025 
L 181.196533 215.606781 
L 181.810413 214.850321 
L 182.424292 214.619904 
L 183.038171 214.862168 
L 183.65205 215.557049 
L 184.265929 216.712911 
L 184.879808 218.380127 
L 185.493688 220.671208 
L 186.107567 223.769513 
L 186.721446 228.055735 
L 187.335325 234.454356 
L 187.949204 246.422785 
L 188.563083 262.950875 
L 189.176963 240.758605 
L 189.790842 233.328078 
L 190.404721 229.145095 
L 191.0186 226.527822 
L 191.632479 224.900416 
L 192.246358 223.992151 
L 192.860238 223.6522 
L 193.474117 223.807841 
L 194.087996 224.411571 
L 194.701875 225.482107 
L 195.315754 227.070675 
L 195.929633 229.273519 
L 196.543513 232.280863 
L 197.157392 236.431795 
L 197.771271 242.573775 
L 198.38515 253.795634 
L 198.999029 275.846742 
L 199.612908 249.911625 
L 200.226788 242.097988 
L 200.840667 237.78017 
L 201.454546 235.065838 
L 202.068425 233.337684 
L 202.682304 232.301654 
L 203.296183 231.822752 
L 203.910063 231.828342 
L 204.523942 232.269528 
L 205.137821 233.150478 
L 205.7517 234.510132 
L 206.365579 236.398434 
L 206.979458 238.934586 
L 207.593338 242.340489 
L 208.207217 247.008717 
L 208.821096 254.11125 
L 209.434975 268.58653 
L 210.048854 273.053464 
L 210.662733 257.061107 
L 211.276613 250.454663 
L 211.890492 246.565567 
L 212.504371 244.072114 
L 213.11825 242.494511 
L 213.732129 241.653308 
L 214.346008 241.432364 
L 214.959888 241.792822 
L 215.573767 242.733088 
L 216.187646 244.221647 
L 216.801525 246.303501 
L 217.415404 249.128039 
L 218.029283 252.965432 
L 218.643163 258.555419 
L 219.257042 268.044871 
L 219.870921 309.104451 
L 220.4848 270.055897 
L 221.098679 260.718881 
L 221.712558 255.692308 
L 222.326438 252.544531 
L 222.940317 250.423118 
L 223.554196 249.038903 
L 224.168075 248.197712 
L 224.781954 247.792773 
L 225.395833 247.818828 
L 226.009713 248.298797 
L 226.623592 249.275731 
L 227.237471 250.766102 
L 227.85135 252.910311 
L 228.465229 255.703971 
L 229.079108 259.378782 
L 229.692988 264.245669 
L 230.306867 271.700646 
L 230.920746 287.273526 
L 231.534625 288.617218 
L 232.148504 273.798042 
L 232.762383 267.905491 
L 233.376263 264.6821 
L 233.990142 262.896424 
L 234.604021 261.812938 
L 235.2179 261.215062 
L 235.831779 261.101255 
L 236.445658 261.545815 
L 237.059538 262.567321 
L 237.673417 264.384284 
L 238.287296 267.437591 
L 238.901175 272.427228 
L 239.515054 280.867482 
L 240.128933 313.775395 
L 240.742813 283.614024 
L 241.356692 274.26307 
L 241.970571 269.227803 
L 242.58445 266.112668 
L 243.198329 264.043251 
L 243.812208 262.72607 
L 244.426088 261.807918 
L 245.039967 261.377998 
L 245.653846 261.455357 
L 246.267725 261.901497 
L 246.881604 262.623544 
L 247.495483 263.714111 
L 248.109363 265.177739 
L 249.337121 269.565265 
L 250.564879 275.38563 
L 252.406517 286.322147 
L 254.862033 306.492615 
L 255.475913 316.431537 
L 256.089792 343.306698 
L 256.703671 341.527662 
L 258.545308 300.198218 
L 259.159188 293.655705 
L 259.773067 290.134564 
L 260.386946 288.288025 
L 261.000825 289.293071 
L 261.614704 294.394788 
L 262.228583 315.333463 
L 262.842463 297.972712 
L 263.456342 285.119111 
L 264.070221 277.924656 
L 264.6841 272.772064 
L 265.297979 269.108102 
L 265.911858 266.398024 
L 266.525738 264.311821 
L 267.139617 262.935685 
L 267.753496 262.299537 
L 268.367375 262.505813 
L 268.981254 263.402819 
L 269.595133 265.024194 
L 270.209013 267.196937 
L 270.822892 270.195953 
L 271.436771 274.072726 
L 272.05065 279.265084 
L 272.664529 286.034985 
L 273.278408 296.034898 
L 273.892288 321.534872 
L 274.506167 307.76901 
L 275.120046 300.083221 
L 275.733925 298.763525 
L 276.347804 303.490424 
L 276.961683 312.953985 
L 277.575563 335.018916 
L 278.189442 307.061201 
L 278.803321 300.225293 
L 280.031079 290.58848 
L 281.258838 282.659845 
L 281.872717 278.997468 
L 282.486596 276.475569 
L 283.100475 275.286227 
L 283.714354 274.706745 
L 284.328233 274.68176 
L 284.942113 274.893213 
L 286.169871 274.356934 
L 287.397629 273.375032 
L 288.011508 272.87585 
L 288.625388 272.525575 
L 289.853146 273.043069 
L 290.467025 273.683602 
L 291.080904 274.644206 
L 291.694783 275.933063 
L 294.764179 284.78521 
L 296.605817 292.413586 
L 297.219696 293.677835 
L 297.833575 295.847888 
L 298.447454 301.607881 
L 299.061333 311.351478 
L 299.675213 348.223722 
L 300.289092 325.876915 
L 300.902971 332.02222 
L 301.51685 311.045255 
L 302.130729 294.141231 
L 302.744608 284.001854 
L 303.358488 277.812738 
L 303.972367 273.925397 
L 304.586246 271.262143 
L 305.200125 269.560293 
L 305.814004 268.696796 
L 306.427883 268.2691 
L 307.041763 268.229731 
L 308.8834 269.006171 
L 309.497279 269.540361 
L 310.111158 270.583428 
L 310.725038 272.169887 
L 311.338917 274.346465 
L 311.952796 277.169141 
L 313.180554 285.107974 
L 314.408313 294.59419 
L 315.022192 298.195763 
L 315.636071 298.309536 
L 316.24995 296.583535 
L 316.863829 294.184028 
L 317.477708 293.673169 
L 318.091588 293.467178 
L 318.705467 294.086458 
L 319.319346 293.168182 
L 320.547104 287.911628 
L 321.774863 282.938824 
L 322.388742 281.212669 
L 323.6165 278.484896 
L 324.844258 275.772708 
L 325.458138 274.803268 
L 326.072017 274.463132 
L 326.685896 274.742447 
L 327.299775 275.749041 
L 327.913654 277.25225 
L 328.527533 279.818135 
L 329.141413 283.267896 
L 330.369171 291.614714 
L 330.98305 293.544119 
L 331.596929 291.611899 
L 333.438567 279.091703 
L 334.052446 276.256309 
L 334.666325 274.348228 
L 335.280204 273.088274 
L 335.894083 272.425246 
L 336.507963 272.129302 
L 337.121842 272.48164 
L 337.735721 273.314816 
L 338.3496 274.568929 
L 338.963479 276.314548 
L 339.577358 278.555314 
L 340.191238 281.375631 
L 340.805117 285.406826 
L 341.418996 291.212223 
L 342.032875 298.800727 
L 342.646754 304.206183 
L 343.260633 303.717363 
L 343.874513 298.247748 
L 344.488392 290.78207 
L 345.102271 285.107621 
L 345.71615 281.17465 
L 346.330029 278.551388 
L 346.943908 276.536921 
L 347.557788 275.231808 
L 348.171667 274.658056 
L 348.785546 274.736767 
L 349.399425 275.030509 
L 350.013304 275.558903 
L 350.627183 276.30683 
L 351.854942 279.012029 
L 353.0827 282.318901 
L 354.310458 283.694634 
L 354.924338 284.422955 
L 356.152096 286.771933 
L 356.765975 287.310065 
L 357.379854 286.41442 
L 358.607613 281.807294 
L 359.221492 280.397506 
L 359.835371 279.809032 
L 360.44925 280.049386 
L 361.063129 280.594292 
L 361.677008 280.190681 
L 362.290888 279.492662 
L 362.904767 278.565327 
L 363.518646 277.328257 
L 364.746404 275.972537 
L 365.360283 275.94704 
L 365.974163 276.266163 
L 366.588042 276.832451 
L 367.201921 277.70395 
L 368.429679 280.669138 
L 369.043558 281.5244 
L 369.657438 281.563034 
L 370.885196 281.378798 
L 371.499075 281.887056 
L 372.112954 283.13994 
L 372.726833 285.177525 
L 373.340713 288.111219 
L 373.954592 292.164927 
L 375.18235 302.288232 
L 375.796229 304.765732 
L 376.410108 303.177148 
L 377.023988 298.047285 
L 378.251746 285.676761 
L 378.865625 280.774792 
L 379.479504 277.198962 
L 380.093383 274.739771 
L 380.707263 273.216104 
L 381.321142 272.534071 
L 381.935021 272.350885 
L 382.5489 272.743273 
L 383.162779 273.805011 
L 383.776658 275.315647 
L 384.390538 277.199467 
L 385.004417 279.935862 
L 386.232175 287.161228 
L 387.459933 296.539914 
L 388.073813 297.573723 
L 388.687692 293.713446 
L 389.301571 288.599062 
L 389.91545 284.640818 
L 390.529329 282.675323 
L 391.143208 281.978188 
L 391.757088 281.777778 
L 392.984846 282.530805 
L 393.598725 283.182316 
L 394.212604 283.412251 
L 394.826483 282.907624 
L 396.054242 279.552063 
L 396.668121 278.572774 
L 397.282 278.167102 
L 398.509758 278.470851 
L 399.123638 278.931733 
L 399.737517 279.963382 
L 401.579154 283.712064 
L 402.193033 283.874142 
L 402.806913 283.073407 
L 403.420792 281.639136 
L 404.034671 280.506922 
L 404.64855 280.102406 
L 405.262429 280.197863 
L 405.876308 280.955371 
L 406.490188 282.095254 
L 407.104067 283.531941 
L 408.945704 289.421787 
L 409.559583 292.42395 
L 410.787342 300.272281 
L 411.401221 300.752153 
L 412.0151 296.834479 
L 413.242858 285.338703 
L 413.856738 281.902537 
L 414.470617 279.142149 
L 415.084496 276.984347 
L 415.698375 275.478108 
L 416.312254 274.467218 
L 416.926133 273.981767 
L 417.540013 273.913058 
L 418.153892 274.569694 
L 418.767771 275.727233 
L 419.38165 277.405467 
L 420.609408 282.610583 
L 421.223288 285.288177 
L 421.837167 287.236924 
L 423.064925 290.497793 
L 423.678804 292.362385 
L 424.292683 293.259059 
L 424.906563 293.308674 
L 425.520442 292.917242 
L 427.975958 286.132096 
L 428.589838 285.152754 
L 431.045354 283.935972 
L 431.659233 283.746517 
L 432.273113 283.690809 
L 432.886992 283.472818 
L 433.500871 282.986554 
L 434.11475 281.912284 
L 434.728629 281.34642 
L 435.342508 281.93408 
L 435.956388 283.440614 
L 436.570267 285.632174 
L 437.798025 291.448284 
L 438.411904 294.072335 
L 439.025783 295.076318 
L 439.639663 294.440088 
L 440.253542 291.19672 
L 441.4813 283.211564 
L 442.095179 280.101379 
L 442.709058 277.918757 
L 443.322938 276.282589 
L 443.936817 275.517132 
L 444.550696 275.416876 
L 445.164575 275.681511 
L 445.778454 276.30095 
L 446.392333 277.38355 
L 447.006213 279.565287 
L 448.233971 286.678478 
L 449.461729 295.577156 
L 450.075608 298.469983 
L 450.689488 300.552081 
L 451.917246 303.387431 
L 452.531125 308.791632 
L 453.145004 318.6366 
L 453.758883 344.471071 
L 454.372763 335.504557 
L 454.986642 330.788397 
L 455.600521 348.060022 
L 456.2144 320.455787 
L 456.828279 304.723368 
L 457.442158 294.725518 
L 458.056038 287.907399 
L 458.669917 282.67254 
L 459.283796 279.20322 
L 459.897675 276.946016 
L 460.511554 275.22995 
L 461.125433 273.94319 
L 461.739313 273.208194 
L 462.353192 272.836629 
L 462.967071 272.831276 
L 463.58095 273.294167 
L 464.194829 274.390063 
L 464.808708 275.927618 
L 465.422588 278.075057 
L 466.036467 280.88461 
L 466.650346 284.634488 
L 467.264225 289.851402 
L 467.878104 297.9603 
L 468.491983 317.258216 
L 469.105863 311.89804 
L 469.719742 303.080238 
L 470.333621 301.06617 
L 470.9475 302.726633 
L 470.9475 302.726633 
" clip-path="url(#p575b66ddf3)" style="fill: none; stroke: #2ca02c; stroke-width: 1.5; stroke-linecap: square"/>
   </g>
   <g id="line2d_13">
    <path d="M 103.228178 433 
L 103.233879 137.53746 
L 103.847758 111.792525 
L 104.461638 97.867652 
L 105.075517 88.746871 
L 105.689396 82.210072 
L 106.303275 77.272653 
L 106.917154 73.416041 
L 107.531033 70.340458 
L 108.144913 67.859001 
L 108.758792 65.849418 
L 109.372671 64.228508 
L 109.98655 62.937508 
L 110.600429 61.933367 
L 111.214308 61.183741 
L 111.828188 60.663568 
L 112.442067 60.352904 
L 113.055946 60.235653 
L 113.669825 60.298212 
L 114.283704 60.528646 
L 114.897583 60.915849 
L 116.125342 62.116209 
L 117.3531 63.798517 
L 119.194738 66.899905 
L 121.036375 69.954194 
L 122.264133 71.391241 
L 122.878013 71.806212 
L 123.491892 71.989762 
L 124.105771 71.942668 
L 124.71965 71.683849 
L 125.333529 71.24681 
L 126.561288 70.007201 
L 129.630683 66.546453 
L 130.858442 65.51647 
L 132.0862 64.806709 
L 133.313958 64.427459 
L 134.541717 64.361601 
L 135.769475 64.572656 
L 136.997233 65.008367 
L 138.838871 65.930107 
L 141.294388 67.216217 
L 142.522146 67.691486 
L 143.749904 67.971025 
L 144.977663 68.0342 
L 146.205421 67.897502 
L 148.047058 67.428464 
L 152.344213 66.178093 
L 154.18585 65.924389 
L 156.027488 65.904511 
L 158.483004 66.167945 
L 164.007917 66.965055 
L 166.463433 67.020774 
L 169.532829 66.815069 
L 174.443863 66.424319 
L 177.513258 66.401028 
L 183.65205 66.675786 
L 187.949204 66.730295 
L 203.296183 66.611889 
L 211.890492 66.629147 
L 224.781954 66.616049 
L 253.020396 66.619255 
L 424.292683 66.666355 
L 470.9475 66.685308 
L 470.9475 66.685308 
" clip-path="url(#p575b66ddf3)" style="fill: none; stroke: #d62728; stroke-width: 1.5; stroke-linecap: square"/>
   </g>
   <g id="patch_3">
    <path d="M 102.62 362.623125 
L 102.62 45.83625 
" style="fill: none; stroke: #000000; stroke-width: 0.8; stroke-linejoin: miter; stroke-linecap: square"/>
   </g>
   <g id="patch_4">
    <path d="M 470.9475 362.623125 
L 470.9475 45.83625 
" style="fill: none; stroke: #000000; stroke-width: 0.8; stroke-linejoin: miter; stroke-linecap: square"/>
   </g>
   <g id="patch_5">
    <path d="M 102.62 362.623125 
L 470.9475 362.623125 
" style="fill: none; stroke: #000000; stroke-width: 0.8; stroke-linejoin: miter; stroke-linecap: square"/>
   </g>
   <g id="patch_6">
    <path d="M 102.62 45.83625 
L 470.9475 45.83625 
" style="fill: none; stroke: #000000; stroke-width: 0.8; stroke-linejoin: miter; stroke-linecap: square"/>
   </g>
   <g id="text_12">
    <!-- Attitude Constraint Violation Components -->
    <g transform="translate(31.315 39.83625) scale(0.24 -0.24)">
     <defs>
      <path id="DejaVuSerif-41" d="M 1281 1691 
L 2994 1691 
L 2138 3909 
L 1281 1691 
z
M -38 0 
L -38 331 
L 372 331 
L 2034 4666 
L 2559 4666 
L 4225 331 
L 4684 331 
L 4684 0 
L 2988 0 
L 2988 331 
L 3506 331 
L 3116 1356 
L 1153 1356 
L 763 331 
L 1275 331 
L 1275 0 
L -38 0 
z
" transform="scale(0.015625)"/>
      <path id="DejaVuSerif-43" d="M 4513 1234 
Q 4306 581 3820 245 
Q 3334 -91 2591 -91 
Q 2134 -91 1743 65 
Q 1353 222 1050 525 
Q 700 875 529 1320 
Q 359 1766 359 2328 
Q 359 3416 987 4083 
Q 1616 4750 2644 4750 
Q 3025 4750 3456 4650 
Q 3888 4550 4384 4347 
L 4384 3272 
L 4031 3272 
Q 3916 3859 3567 4137 
Q 3219 4416 2591 4416 
Q 1844 4416 1459 3886 
Q 1075 3356 1075 2328 
Q 1075 1303 1459 773 
Q 1844 244 2591 244 
Q 3113 244 3450 492 
Q 3788 741 3938 1234 
L 4513 1234 
z
" transform="scale(0.015625)"/>
      <path id="DejaVuSerif-56" d="M 1119 4331 
L 2497 750 
L 3872 4331 
L 3347 4331 
L 3347 4666 
L 4716 4666 
L 4716 4331 
L 4263 4331 
L 2597 0 
L 2059 0 
L 403 4331 
L -63 4331 
L -63 4666 
L 1638 4666 
L 1638 4331 
L 1119 4331 
z
" transform="scale(0.015625)"/>
      <path id="DejaVuSerif-70" d="M 1313 1825 
L 1313 1497 
Q 1313 897 1542 583 
Q 1772 269 2209 269 
Q 2650 269 2876 622 
Q 3103 975 3103 1663 
Q 3103 2353 2876 2703 
Q 2650 3053 2209 3053 
Q 1772 3053 1542 2737 
Q 1313 2422 1313 1825 
z
M 738 2988 
L 184 2988 
L 184 3322 
L 1313 3322 
L 1313 2803 
Q 1481 3116 1742 3264 
Q 2003 3413 2388 3413 
Q 3000 3413 3387 2928 
Q 3775 2444 3775 1663 
Q 3775 881 3387 395 
Q 3000 -91 2388 -91 
Q 2003 -91 1742 57 
Q 1481 206 1313 519 
L 1313 -997 
L 1856 -997 
L 1856 -1331 
L 184 -1331 
L 184 -997 
L 738 -997 
L 738 2988 
z
" transform="scale(0.015625)"/>
     </defs>
     <use xlink:href="#DejaVuSerif-41"/>
     <use xlink:href="#DejaVuSerif-74" transform="translate(70.466797 0)"/>
     <use xlink:href="#DejaVuSerif-74" transform="translate(110.652344 0)"/>
     <use xlink:href="#DejaVuSerif-69" transform="translate(150.837891 0)"/>
     <use xlink:href="#DejaVuSerif-74" transform="translate(182.820312 0)"/>
     <use xlink:href="#DejaVuSerif-75" transform="translate(223.005859 0)"/>
     <use xlink:href="#DejaVuSerif-64" transform="translate(287.410156 0)"/>
     <use xlink:href="#DejaVuSerif-65" transform="translate(351.423828 0)"/>
     <use xlink:href="#DejaVuSerif-20" transform="translate(410.603516 0)"/>
     <use xlink:href="#DejaVuSerif-43" transform="translate(442.390625 0)"/>
     <use xlink:href="#DejaVuSerif-6f" transform="translate(518.904297 0)"/>
     <use xlink:href="#DejaVuSerif-6e" transform="translate(579.109375 0)"/>
     <use xlink:href="#DejaVuSerif-73" transform="translate(643.513672 0)"/>
     <use xlink:href="#DejaVuSerif-74" transform="translate(694.832031 0)"/>
     <use xlink:href="#DejaVuSerif-72" transform="translate(735.017578 0)"/>
     <use xlink:href="#DejaVuSerif-61" transform="translate(782.820312 0)"/>
     <use xlink:href="#DejaVuSerif-69" transform="translate(842.439453 0)"/>
     <use xlink:href="#DejaVuSerif-6e" transform="translate(874.421875 0)"/>
     <use xlink:href="#DejaVuSerif-74" transform="translate(938.826172 0)"/>
     <use xlink:href="#DejaVuSerif-20" transform="translate(979.011719 0)"/>
     <use xlink:href="#DejaVuSerif-56" transform="translate(1010.798828 0)"/>
     <use xlink:href="#DejaVuSerif-69" transform="translate(1081.265625 0)"/>
     <use xlink:href="#DejaVuSerif-6f" transform="translate(1113.248047 0)"/>
     <use xlink:href="#DejaVuSerif-6c" transform="translate(1173.453125 0)"/>
     <use xlink:href="#DejaVuSerif-61" transform="translate(1205.435547 0)"/>
     <use xlink:href="#DejaVuSerif-74" transform="translate(1265.054688 0)"/>
     <use xlink:href="#DejaVuSerif-69" transform="translate(1305.240234 0)"/>
     <use xlink:href="#DejaVuSerif-6f" transform="translate(1337.222656 0)"/>
     <use xlink:href="#DejaVuSerif-6e" transform="translate(1397.427734 0)"/>
     <use xlink:href="#DejaVuSerif-20" transform="translate(1461.832031 0)"/>
     <use xlink:href="#DejaVuSerif-43" transform="translate(1493.619141 0)"/>
     <use xlink:href="#DejaVuSerif-6f" transform="translate(1570.132812 0)"/>
     <use xlink:href="#DejaVuSerif-6d" transform="translate(1630.337891 0)"/>
     <use xlink:href="#DejaVuSerif-70" transform="translate(1725.162109 0)"/>
     <use xlink:href="#DejaVuSerif-6f" transform="translate(1789.175781 0)"/>
     <use xlink:href="#DejaVuSerif-6e" transform="translate(1849.380859 0)"/>
     <use xlink:href="#DejaVuSerif-65" transform="translate(1913.785156 0)"/>
     <use xlink:href="#DejaVuSerif-6e" transform="translate(1972.964844 0)"/>
     <use xlink:href="#DejaVuSerif-74" transform="translate(2037.369141 0)"/>
     <use xlink:href="#DejaVuSerif-73" transform="translate(2077.554688 0)"/>
    </g>
   </g>
   <g id="legend_1">
    <g id="patch_7">
     <path d="M 285.3675 353.623125 
L 458.3475 353.623125 
Q 461.9475 353.623125 461.9475 350.023125 
L 461.9475 245.623125 
Q 461.9475 242.023125 458.3475 242.023125 
L 285.3675 242.023125 
Q 281.7675 242.023125 281.7675 245.623125 
L 281.7675 350.023125 
Q 281.7675 353.623125 285.3675 353.623125 
z
" style="fill: #ffffff; opacity: 0.8; stroke: #cccccc; stroke-linejoin: miter"/>
    </g>
    <g id="line2d_14">
     <path d="M 288.9675 256.603125 
L 306.9675 256.603125 
L 324.9675 256.603125 
" style="fill: none; stroke: #1f77b4; stroke-width: 1.5; stroke-linecap: square"/>
    </g>
    <g id="text_13">
     <!-- $\phi_1$ -->
     <g transform="translate(339.3675 262.903125) scale(0.18 -0.18)">
      <defs>
       <path id="DejaVuSans-31" d="M 794 531 
L 1825 531 
L 1825 4091 
L 703 3866 
L 703 4441 
L 1819 4666 
L 2450 4666 
L 2450 531 
L 3481 531 
L 3481 0 
L 794 0 
L 794 531 
z
" transform="scale(0.015625)"/>
      </defs>
      <use xlink:href="#DejaVuSans-Oblique-3d5" transform="translate(0 0.015625)"/>
      <use xlink:href="#DejaVuSans-31" transform="translate(65.966797 -16.390625) scale(0.7)"/>
     </g>
    </g>
    <g id="line2d_15">
     <path d="M 288.9675 283.063125 
L 306.9675 283.063125 
L 324.9675 283.063125 
" style="fill: none; stroke: #ff7f0e; stroke-width: 1.5; stroke-linecap: square"/>
    </g>
    <g id="text_14">
     <!-- $\phi_2$ -->
     <g transform="translate(339.3675 289.363125) scale(0.18 -0.18)">
      <defs>
       <path id="DejaVuSans-32" d="M 1228 531 
L 3431 531 
L 3431 0 
L 469 0 
L 469 531 
Q 828 903 1448 1529 
Q 2069 2156 2228 2338 
Q 2531 2678 2651 2914 
Q 2772 3150 2772 3378 
Q 2772 3750 2511 3984 
Q 2250 4219 1831 4219 
Q 1534 4219 1204 4116 
Q 875 4013 500 3803 
L 500 4441 
Q 881 4594 1212 4672 
Q 1544 4750 1819 4750 
Q 2544 4750 2975 4387 
Q 3406 4025 3406 3419 
Q 3406 3131 3298 2873 
Q 3191 2616 2906 2266 
Q 2828 2175 2409 1742 
Q 1991 1309 1228 531 
z
" transform="scale(0.015625)"/>
      </defs>
      <use xlink:href="#DejaVuSans-Oblique-3d5" transform="translate(0 0.015625)"/>
      <use xlink:href="#DejaVuSans-32" transform="translate(65.966797 -16.390625) scale(0.7)"/>
     </g>
    </g>
    <g id="line2d_16">
     <path d="M 288.9675 309.523125 
L 306.9675 309.523125 
L 324.9675 309.523125 
" style="fill: none; stroke: #2ca02c; stroke-width: 1.5; stroke-linecap: square"/>
    </g>
    <g id="text_15">
     <!-- $\phi_3$ -->
     <g transform="translate(339.3675 315.823125) scale(0.18 -0.18)">
      <defs>
       <path id="DejaVuSans-33" d="M 2597 2516 
Q 3050 2419 3304 2112 
Q 3559 1806 3559 1356 
Q 3559 666 3084 287 
Q 2609 -91 1734 -91 
Q 1441 -91 1130 -33 
Q 819 25 488 141 
L 488 750 
Q 750 597 1062 519 
Q 1375 441 1716 441 
Q 2309 441 2620 675 
Q 2931 909 2931 1356 
Q 2931 1769 2642 2001 
Q 2353 2234 1838 2234 
L 1294 2234 
L 1294 2753 
L 1863 2753 
Q 2328 2753 2575 2939 
Q 2822 3125 2822 3475 
Q 2822 3834 2567 4026 
Q 2313 4219 1838 4219 
Q 1578 4219 1281 4162 
Q 984 4106 628 3988 
L 628 4550 
Q 988 4650 1302 4700 
Q 1616 4750 1894 4750 
Q 2613 4750 3031 4423 
Q 3450 4097 3450 3541 
Q 3450 3153 3228 2886 
Q 3006 2619 2597 2516 
z
" transform="scale(0.015625)"/>
      </defs>
      <use xlink:href="#DejaVuSans-Oblique-3d5" transform="translate(0 0.015625)"/>
      <use xlink:href="#DejaVuSans-33" transform="translate(65.966797 -16.390625) scale(0.7)"/>
     </g>
    </g>
    <g id="line2d_17">
     <path d="M 288.9675 335.983125 
L 306.9675 335.983125 
L 324.9675 335.983125 
" style="fill: none; stroke: #d62728; stroke-width: 1.5; stroke-linecap: square"/>
    </g>
    <g id="text_16">
     <!-- $\phi$ magnitude -->
     <g transform="translate(339.3675 342.283125) scale(0.18 -0.18)">
      <use xlink:href="#DejaVuSans-Oblique-3d5" transform="translate(0 0.015625)"/>
      <use xlink:href="#DejaVuSerif-20" transform="translate(65.966797 0.015625)"/>
      <use xlink:href="#DejaVuSerif-6d" transform="translate(97.753906 0.015625)"/>
      <use xlink:href="#DejaVuSerif-61" transform="translate(192.578125 0.015625)"/>
      <use xlink:href="#DejaVuSerif-67" transform="translate(252.197266 0.015625)"/>
      <use xlink:href="#DejaVuSerif-6e" transform="translate(316.210938 0.015625)"/>
      <use xlink:href="#DejaVuSerif-69" transform="translate(380.615234 0.015625)"/>
      <use xlink:href="#DejaVuSerif-74" transform="translate(412.597656 0.015625)"/>
      <use xlink:href="#DejaVuSerif-75" transform="translate(452.783203 0.015625)"/>
      <use xlink:href="#DejaVuSerif-64" transform="translate(517.1875 0.015625)"/>
      <use xlink:href="#DejaVuSerif-65" transform="translate(581.201172 0.015625)"/>
     </g>
    </g>
   </g>
  </g>
 </g>
 <defs>
  <clipPath id="p575b66ddf3">
   <rect x="102.62" y="45.83625" width="368.3275" height="316.786875"/>
  </clipPath>
 </defs>
</svg>
