<?xml version="1.0" encoding="utf-8" standalone="no"?>
<!DOCTYPE svg PUBLIC "-//W3C//DTD SVG 1.1//EN"
  "http://www.w3.org/Graphics/SVG/1.1/DTD/svg11.dtd">
<svg xmlns:xlink="http://www.w3.org/1999/xlink" width="414pt" height="288pt" viewBox="0 0 414 288" xmlns="http://www.w3.org/2000/svg" version="1.1">
 <metadata>
  <rdf:RDF xmlns:dc="http://purl.org/dc/elements/1.1/" xmlns:cc="http://creativecommons.org/ns#" xmlns:rdf="http://www.w3.org/1999/02/22-rdf-syntax-ns#">
   <cc:Work>
    <dc:type rdf:resource="http://purl.org/dc/dcmitype/StillImage"/>
    <dc:date>2026-01-25T19:33:15.650599</dc:date>
    <dc:format>image/svg+xml</dc:format>
    <dc:creator>
     <cc:Agent>
      <dc:title>Matplotlib v3.10.7, https://matplotlib.org/</dc:title>
     </cc:Agent>
    </dc:creator>
   </cc:Work>
  </rdf:RDF>
 </metadata>
 <defs>
  <style type="text/css">*{stroke-linejoin: round; stroke-linecap: butt}</style>
 </defs>
 <g id="figure_1">
  <g id="patch_1">
   <path d="M 0 288 
L 414 288 
L 414 0 
L 0 0 
L 0 288 
z
" style="fill: none"/>
  </g>
  <g id="axes_1">
   <g id="patch_2">
    <path d="M 72.198125 241.036875 
L 390.360682 241.036875 
L 390.360682 10.8 
L 72.198125 10.8 
L 72.198125 241.036875 
z
" style="fill: none"/>
   </g>
   <g id="matplotlib.axis_1">
    <g id="xtick_1">
     <g id="line2d_1">
      <path d="M 86.660059 241.036875 
L 86.660059 10.8 
" clip-path="url(#pa6866d58d1)" style="fill: none; stroke: #b0b0b0; stroke-width: 0.8; stroke-linecap: square"/>
     </g>
     <g id="line2d_2">
      <defs>
       <path id="m308ce4d59a" d="M 0 0 
L 0 3.5 
" style="stroke: #000000; stroke-width: 0.8"/>
      </defs>
      <g>
       <use xlink:href="#m308ce4d59a" x="86.660059" y="241.036875" style="stroke: #000000; stroke-width: 0.8"/>
      </g>
     </g>
     <g id="text_1">
      <!-- 0 -->
      <g transform="translate(81.570059 260.194375) scale(0.16 -0.16)">
       <defs>
        <path id="DejaVuSans-30" d="M 2034 4250 
Q 1547 4250 1301 3770 
Q 1056 3291 1056 2328 
Q 1056 1369 1301 889 
Q 1547 409 2034 409 
Q 2525 409 2770 889 
Q 3016 1369 3016 2328 
Q 3016 3291 2770 3770 
Q 2525 4250 2034 4250 
z
M 2034 4750 
Q 2819 4750 3233 4129 
Q 3647 3509 3647 2328 
Q 3647 1150 3233 529 
Q 2819 -91 2034 -91 
Q 1250 -91 836 529 
Q 422 1150 422 2328 
Q 422 3509 836 4129 
Q 1250 4750 2034 4750 
z
" transform="scale(0.015625)"/>
       </defs>
       <use xlink:href="#DejaVuSans-30"/>
      </g>
     </g>
    </g>
    <g id="xtick_2">
     <g id="line2d_3">
      <path d="M 146.918119 241.036875 
L 146.918119 10.8 
" clip-path="url(#pa6866d58d1)" style="fill: none; stroke: #b0b0b0; stroke-width: 0.8; stroke-linecap: square"/>
     </g>
     <g id="line2d_4">
      <g>
       <use xlink:href="#m308ce4d59a" x="146.918119" y="241.036875" style="stroke: #000000; stroke-width: 0.8"/>
      </g>
     </g>
     <g id="text_2">
      <!-- 25 -->
      <g transform="translate(136.738119 260.194375) scale(0.16 -0.16)">
       <defs>
        <path id="DejaVuSans-32" d="M 1228 531 
L 3431 531 
L 3431 0 
L 469 0 
L 469 531 
Q 828 903 1448 1529 
Q 2069 2156 2228 2338 
Q 2531 2678 2651 2914 
Q 2772 3150 2772 3378 
Q 2772 3750 2511 3984 
Q 2250 4219 1831 4219 
Q 1534 4219 1204 4116 
Q 875 4013 500 3803 
L 500 4441 
Q 881 4594 1212 4672 
Q 1544 4750 1819 4750 
Q 2544 4750 2975 4387 
Q 3406 4025 3406 3419 
Q 3406 3131 3298 2873 
Q 3191 2616 2906 2266 
Q 2828 2175 2409 1742 
Q 1991 1309 1228 531 
z
" transform="scale(0.015625)"/>
        <path id="DejaVuSans-35" d="M 691 4666 
L 3169 4666 
L 3169 4134 
L 1269 4134 
L 1269 2991 
Q 1406 3038 1543 3061 
Q 1681 3084 1819 3084 
Q 2600 3084 3056 2656 
Q 3513 2228 3513 1497 
Q 3513 744 3044 326 
Q 2575 -91 1722 -91 
Q 1428 -91 1123 -41 
Q 819 9 494 109 
L 494 744 
Q 775 591 1075 516 
Q 1375 441 1709 441 
Q 2250 441 2565 725 
Q 2881 1009 2881 1497 
Q 2881 1984 2565 2268 
Q 2250 2553 1709 2553 
Q 1456 2553 1204 2497 
Q 953 2441 691 2322 
L 691 4666 
z
" transform="scale(0.015625)"/>
       </defs>
       <use xlink:href="#DejaVuSans-32"/>
       <use xlink:href="#DejaVuSans-35" transform="translate(63.623047 0)"/>
      </g>
     </g>
    </g>
    <g id="xtick_3">
     <g id="line2d_5">
      <path d="M 207.176179 241.036875 
L 207.176179 10.8 
" clip-path="url(#pa6866d58d1)" style="fill: none; stroke: #b0b0b0; stroke-width: 0.8; stroke-linecap: square"/>
     </g>
     <g id="line2d_6">
      <g>
       <use xlink:href="#m308ce4d59a" x="207.176179" y="241.036875" style="stroke: #000000; stroke-width: 0.8"/>
      </g>
     </g>
     <g id="text_3">
      <!-- 50 -->
      <g transform="translate(196.996179 260.194375) scale(0.16 -0.16)">
       <use xlink:href="#DejaVuSans-35"/>
       <use xlink:href="#DejaVuSans-30" transform="translate(63.623047 0)"/>
      </g>
     </g>
    </g>
    <g id="xtick_4">
     <g id="line2d_7">
      <path d="M 267.434239 241.036875 
L 267.434239 10.8 
" clip-path="url(#pa6866d58d1)" style="fill: none; stroke: #b0b0b0; stroke-width: 0.8; stroke-linecap: square"/>
     </g>
     <g id="line2d_8">
      <g>
       <use xlink:href="#m308ce4d59a" x="267.434239" y="241.036875" style="stroke: #000000; stroke-width: 0.8"/>
      </g>
     </g>
     <g id="text_4">
      <!-- 75 -->
      <g transform="translate(257.254239 260.194375) scale(0.16 -0.16)">
       <defs>
        <path id="DejaVuSans-37" d="M 525 4666 
L 3525 4666 
L 3525 4397 
L 1831 0 
L 1172 0 
L 2766 4134 
L 525 4134 
L 525 4666 
z
" transform="scale(0.015625)"/>
       </defs>
       <use xlink:href="#DejaVuSans-37"/>
       <use xlink:href="#DejaVuSans-35" transform="translate(63.623047 0)"/>
      </g>
     </g>
    </g>
    <g id="xtick_5">
     <g id="line2d_9">
      <path d="M 327.692299 241.036875 
L 327.692299 10.8 
" clip-path="url(#pa6866d58d1)" style="fill: none; stroke: #b0b0b0; stroke-width: 0.8; stroke-linecap: square"/>
     </g>
     <g id="line2d_10">
      <g>
       <use xlink:href="#m308ce4d59a" x="327.692299" y="241.036875" style="stroke: #000000; stroke-width: 0.8"/>
      </g>
     </g>
     <g id="text_5">
      <!-- 100 -->
      <g transform="translate(312.422299 260.194375) scale(0.16 -0.16)">
       <defs>
        <path id="DejaVuSans-31" d="M 794 531 
L 1825 531 
L 1825 4091 
L 703 3866 
L 703 4441 
L 1819 4666 
L 2450 4666 
L 2450 531 
L 3481 531 
L 3481 0 
L 794 0 
L 794 531 
z
" transform="scale(0.015625)"/>
       </defs>
       <use xlink:href="#DejaVuSans-31"/>
       <use xlink:href="#DejaVuSans-30" transform="translate(63.623047 0)"/>
       <use xlink:href="#DejaVuSans-30" transform="translate(127.246094 0)"/>
      </g>
     </g>
    </g>
    <g id="xtick_6">
     <g id="line2d_11">
      <path d="M 387.950359 241.036875 
L 387.950359 10.8 
" clip-path="url(#pa6866d58d1)" style="fill: none; stroke: #b0b0b0; stroke-width: 0.8; stroke-linecap: square"/>
     </g>
     <g id="line2d_12">
      <g>
       <use xlink:href="#m308ce4d59a" x="387.950359" y="241.036875" style="stroke: #000000; stroke-width: 0.8"/>
      </g>
     </g>
     <g id="text_6">
      <!-- 125 -->
      <g transform="translate(372.680359 260.194375) scale(0.16 -0.16)">
       <use xlink:href="#DejaVuSans-31"/>
       <use xlink:href="#DejaVuSans-32" transform="translate(63.623047 0)"/>
       <use xlink:href="#DejaVuSans-35" transform="translate(127.246094 0)"/>
      </g>
     </g>
    </g>
    <g id="text_7">
     <!-- Time [min] -->
     <g transform="translate(204.12706 275.120313) scale(0.1 -0.1)">
      <defs>
       <path id="DejaVuSans-54" d="M -19 4666 
L 3928 4666 
L 3928 4134 
L 2272 4134 
L 2272 0 
L 1638 0 
L 1638 4134 
L -19 4134 
L -19 4666 
z
" transform="scale(0.015625)"/>
       <path id="DejaVuSans-69" d="M 603 3500 
L 1178 3500 
L 1178 0 
L 603 0 
L 603 3500 
z
M 603 4863 
L 1178 4863 
L 1178 4134 
L 603 4134 
L 603 4863 
z
" transform="scale(0.015625)"/>
       <path id="DejaVuSans-6d" d="M 3328 2828 
Q 3544 3216 3844 3400 
Q 4144 3584 4550 3584 
Q 5097 3584 5394 3201 
Q 5691 2819 5691 2113 
L 5691 0 
L 5113 0 
L 5113 2094 
Q 5113 2597 4934 2840 
Q 4756 3084 4391 3084 
Q 3944 3084 3684 2787 
Q 3425 2491 3425 1978 
L 3425 0 
L 2847 0 
L 2847 2094 
Q 2847 2600 2669 2842 
Q 2491 3084 2119 3084 
Q 1678 3084 1418 2786 
Q 1159 2488 1159 1978 
L 1159 0 
L 581 0 
L 581 3500 
L 1159 3500 
L 1159 2956 
Q 1356 3278 1631 3431 
Q 1906 3584 2284 3584 
Q 2666 3584 2933 3390 
Q 3200 3197 3328 2828 
z
" transform="scale(0.015625)"/>
       <path id="DejaVuSans-65" d="M 3597 1894 
L 3597 1613 
L 953 1613 
Q 991 1019 1311 708 
Q 1631 397 2203 397 
Q 2534 397 2845 478 
Q 3156 559 3463 722 
L 3463 178 
Q 3153 47 2828 -22 
Q 2503 -91 2169 -91 
Q 1331 -91 842 396 
Q 353 884 353 1716 
Q 353 2575 817 3079 
Q 1281 3584 2069 3584 
Q 2775 3584 3186 3129 
Q 3597 2675 3597 1894 
z
M 3022 2063 
Q 3016 2534 2758 2815 
Q 2500 3097 2075 3097 
Q 1594 3097 1305 2825 
Q 1016 2553 972 2059 
L 3022 2063 
z
" transform="scale(0.015625)"/>
       <path id="DejaVuSans-20" transform="scale(0.015625)"/>
       <path id="DejaVuSans-5b" d="M 550 4863 
L 1875 4863 
L 1875 4416 
L 1125 4416 
L 1125 -397 
L 1875 -397 
L 1875 -844 
L 550 -844 
L 550 4863 
z
" transform="scale(0.015625)"/>
       <path id="DejaVuSans-6e" d="M 3513 2113 
L 3513 0 
L 2938 0 
L 2938 2094 
Q 2938 2591 2744 2837 
Q 2550 3084 2163 3084 
Q 1697 3084 1428 2787 
Q 1159 2491 1159 1978 
L 1159 0 
L 581 0 
L 581 3500 
L 1159 3500 
L 1159 2956 
Q 1366 3272 1645 3428 
Q 1925 3584 2291 3584 
Q 2894 3584 3203 3211 
Q 3513 2838 3513 2113 
z
" transform="scale(0.015625)"/>
       <path id="DejaVuSans-5d" d="M 1947 4863 
L 1947 -844 
L 622 -844 
L 622 -397 
L 1369 -397 
L 1369 4416 
L 622 4416 
L 622 4863 
L 1947 4863 
z
" transform="scale(0.015625)"/>
      </defs>
      <use xlink:href="#DejaVuSans-54"/>
      <use xlink:href="#DejaVuSans-69" transform="translate(57.958984 0)"/>
      <use xlink:href="#DejaVuSans-6d" transform="translate(85.742188 0)"/>
      <use xlink:href="#DejaVuSans-65" transform="translate(183.154297 0)"/>
      <use xlink:href="#DejaVuSans-20" transform="translate(244.677734 0)"/>
      <use xlink:href="#DejaVuSans-5b" transform="translate(276.464844 0)"/>
      <use xlink:href="#DejaVuSans-6d" transform="translate(315.478516 0)"/>
      <use xlink:href="#DejaVuSans-69" transform="translate(412.890625 0)"/>
      <use xlink:href="#DejaVuSans-6e" transform="translate(440.673828 0)"/>
      <use xlink:href="#DejaVuSans-5d" transform="translate(504.052734 0)"/>
     </g>
    </g>
   </g>
   <g id="matplotlib.axis_2">
    <g id="ytick_1">
     <g id="line2d_13">
      <path d="M 72.198125 230.571562 
L 390.360682 230.571562 
" clip-path="url(#pa6866d58d1)" style="fill: none; stroke: #b0b0b0; stroke-width: 0.8; stroke-linecap: square"/>
     </g>
     <g id="line2d_14">
      <defs>
       <path id="mf05713d298" d="M 0 0 
L -3.5 0 
" style="stroke: #000000; stroke-width: 0.8"/>
      </defs>
      <g>
       <use xlink:href="#mf05713d298" x="72.198125" y="230.571562" style="stroke: #000000; stroke-width: 0.8"/>
      </g>
     </g>
     <g id="text_8">
      <!-- 0 -->
      <g transform="translate(55.018125 236.650312) scale(0.16 -0.16)">
       <use xlink:href="#DejaVuSans-30"/>
      </g>
     </g>
    </g>
    <g id="ytick_2">
     <g id="line2d_15">
      <path d="M 72.198125 194.708311 
L 390.360682 194.708311 
" clip-path="url(#pa6866d58d1)" style="fill: none; stroke: #b0b0b0; stroke-width: 0.8; stroke-linecap: square"/>
     </g>
     <g id="line2d_16">
      <g>
       <use xlink:href="#mf05713d298" x="72.198125" y="194.708311" style="stroke: #000000; stroke-width: 0.8"/>
      </g>
     </g>
     <g id="text_9">
      <!-- 200 -->
      <g transform="translate(34.658125 200.787061) scale(0.16 -0.16)">
       <use xlink:href="#DejaVuSans-32"/>
       <use xlink:href="#DejaVuSans-30" transform="translate(63.623047 0)"/>
       <use xlink:href="#DejaVuSans-30" transform="translate(127.246094 0)"/>
      </g>
     </g>
    </g>
    <g id="ytick_3">
     <g id="line2d_17">
      <path d="M 72.198125 158.845059 
L 390.360682 158.845059 
" clip-path="url(#pa6866d58d1)" style="fill: none; stroke: #b0b0b0; stroke-width: 0.8; stroke-linecap: square"/>
     </g>
     <g id="line2d_18">
      <g>
       <use xlink:href="#mf05713d298" x="72.198125" y="158.845059" style="stroke: #000000; stroke-width: 0.8"/>
      </g>
     </g>
     <g id="text_10">
      <!-- 400 -->
      <g transform="translate(34.658125 164.923809) scale(0.16 -0.16)">
       <defs>
        <path id="DejaVuSans-34" d="M 2419 4116 
L 825 1625 
L 2419 1625 
L 2419 4116 
z
M 2253 4666 
L 3047 4666 
L 3047 1625 
L 3713 1625 
L 3713 1100 
L 3047 1100 
L 3047 0 
L 2419 0 
L 2419 1100 
L 313 1100 
L 313 1709 
L 2253 4666 
z
" transform="scale(0.015625)"/>
       </defs>
       <use xlink:href="#DejaVuSans-34"/>
       <use xlink:href="#DejaVuSans-30" transform="translate(63.623047 0)"/>
       <use xlink:href="#DejaVuSans-30" transform="translate(127.246094 0)"/>
      </g>
     </g>
    </g>
    <g id="ytick_4">
     <g id="line2d_19">
      <path d="M 72.198125 122.981808 
L 390.360682 122.981808 
" clip-path="url(#pa6866d58d1)" style="fill: none; stroke: #b0b0b0; stroke-width: 0.8; stroke-linecap: square"/>
     </g>
     <g id="line2d_20">
      <g>
       <use xlink:href="#mf05713d298" x="72.198125" y="122.981808" style="stroke: #000000; stroke-width: 0.8"/>
      </g>
     </g>
     <g id="text_11">
      <!-- 600 -->
      <g transform="translate(34.658125 129.060558) scale(0.16 -0.16)">
       <defs>
        <path id="DejaVuSans-36" d="M 2113 2584 
Q 1688 2584 1439 2293 
Q 1191 2003 1191 1497 
Q 1191 994 1439 701 
Q 1688 409 2113 409 
Q 2538 409 2786 701 
Q 3034 994 3034 1497 
Q 3034 2003 2786 2293 
Q 2538 2584 2113 2584 
z
M 3366 4563 
L 3366 3988 
Q 3128 4100 2886 4159 
Q 2644 4219 2406 4219 
Q 1781 4219 1451 3797 
Q 1122 3375 1075 2522 
Q 1259 2794 1537 2939 
Q 1816 3084 2150 3084 
Q 2853 3084 3261 2657 
Q 3669 2231 3669 1497 
Q 3669 778 3244 343 
Q 2819 -91 2113 -91 
Q 1303 -91 875 529 
Q 447 1150 447 2328 
Q 447 3434 972 4092 
Q 1497 4750 2381 4750 
Q 2619 4750 2861 4703 
Q 3103 4656 3366 4563 
z
" transform="scale(0.015625)"/>
       </defs>
       <use xlink:href="#DejaVuSans-36"/>
       <use xlink:href="#DejaVuSans-30" transform="translate(63.623047 0)"/>
       <use xlink:href="#DejaVuSans-30" transform="translate(127.246094 0)"/>
      </g>
     </g>
    </g>
    <g id="ytick_5">
     <g id="line2d_21">
      <path d="M 72.198125 87.118556 
L 390.360682 87.118556 
" clip-path="url(#pa6866d58d1)" style="fill: none; stroke: #b0b0b0; stroke-width: 0.8; stroke-linecap: square"/>
     </g>
     <g id="line2d_22">
      <g>
       <use xlink:href="#mf05713d298" x="72.198125" y="87.118556" style="stroke: #000000; stroke-width: 0.8"/>
      </g>
     </g>
     <g id="text_12">
      <!-- 800 -->
      <g transform="translate(34.658125 93.197306) scale(0.16 -0.16)">
       <defs>
        <path id="DejaVuSans-38" d="M 2034 2216 
Q 1584 2216 1326 1975 
Q 1069 1734 1069 1313 
Q 1069 891 1326 650 
Q 1584 409 2034 409 
Q 2484 409 2743 651 
Q 3003 894 3003 1313 
Q 3003 1734 2745 1975 
Q 2488 2216 2034 2216 
z
M 1403 2484 
Q 997 2584 770 2862 
Q 544 3141 544 3541 
Q 544 4100 942 4425 
Q 1341 4750 2034 4750 
Q 2731 4750 3128 4425 
Q 3525 4100 3525 3541 
Q 3525 3141 3298 2862 
Q 3072 2584 2669 2484 
Q 3125 2378 3379 2068 
Q 3634 1759 3634 1313 
Q 3634 634 3220 271 
Q 2806 -91 2034 -91 
Q 1263 -91 848 271 
Q 434 634 434 1313 
Q 434 1759 690 2068 
Q 947 2378 1403 2484 
z
M 1172 3481 
Q 1172 3119 1398 2916 
Q 1625 2713 2034 2713 
Q 2441 2713 2670 2916 
Q 2900 3119 2900 3481 
Q 2900 3844 2670 4047 
Q 2441 4250 2034 4250 
Q 1625 4250 1398 4047 
Q 1172 3844 1172 3481 
z
" transform="scale(0.015625)"/>
       </defs>
       <use xlink:href="#DejaVuSans-38"/>
       <use xlink:href="#DejaVuSans-30" transform="translate(63.623047 0)"/>
       <use xlink:href="#DejaVuSans-30" transform="translate(127.246094 0)"/>
      </g>
     </g>
    </g>
    <g id="ytick_6">
     <g id="line2d_23">
      <path d="M 72.198125 51.255305 
L 390.360682 51.255305 
" clip-path="url(#pa6866d58d1)" style="fill: none; stroke: #b0b0b0; stroke-width: 0.8; stroke-linecap: square"/>
     </g>
     <g id="line2d_24">
      <g>
       <use xlink:href="#mf05713d298" x="72.198125" y="51.255305" style="stroke: #000000; stroke-width: 0.8"/>
      </g>
     </g>
     <g id="text_13">
      <!-- 1000 -->
      <g transform="translate(24.478125 57.334055) scale(0.16 -0.16)">
       <use xlink:href="#DejaVuSans-31"/>
       <use xlink:href="#DejaVuSans-30" transform="translate(63.623047 0)"/>
       <use xlink:href="#DejaVuSans-30" transform="translate(127.246094 0)"/>
       <use xlink:href="#DejaVuSans-30" transform="translate(190.869141 0)"/>
      </g>
     </g>
    </g>
    <g id="ytick_7">
     <g id="line2d_25">
      <path d="M 72.198125 15.392053 
L 390.360682 15.392053 
" clip-path="url(#pa6866d58d1)" style="fill: none; stroke: #b0b0b0; stroke-width: 0.8; stroke-linecap: square"/>
     </g>
     <g id="line2d_26">
      <g>
       <use xlink:href="#mf05713d298" x="72.198125" y="15.392053" style="stroke: #000000; stroke-width: 0.8"/>
      </g>
     </g>
     <g id="text_14">
      <!-- 1200 -->
      <g transform="translate(24.478125 21.470803) scale(0.16 -0.16)">
       <use xlink:href="#DejaVuSans-31"/>
       <use xlink:href="#DejaVuSans-32" transform="translate(63.623047 0)"/>
       <use xlink:href="#DejaVuSans-30" transform="translate(127.246094 0)"/>
       <use xlink:href="#DejaVuSans-30" transform="translate(190.869141 0)"/>
      </g>
     </g>
    </g>
    <g id="text_15">
     <!-- RW Speed [RPM]  -->
     <g transform="translate(18.398438 169.284062) rotate(-90) scale(0.1 -0.1)">
      <defs>
       <path id="DejaVuSans-52" d="M 2841 2188 
Q 3044 2119 3236 1894 
Q 3428 1669 3622 1275 
L 4263 0 
L 3584 0 
L 2988 1197 
Q 2756 1666 2539 1819 
Q 2322 1972 1947 1972 
L 1259 1972 
L 1259 0 
L 628 0 
L 628 4666 
L 2053 4666 
Q 2853 4666 3247 4331 
Q 3641 3997 3641 3322 
Q 3641 2881 3436 2590 
Q 3231 2300 2841 2188 
z
M 1259 4147 
L 1259 2491 
L 2053 2491 
Q 2509 2491 2742 2702 
Q 2975 2913 2975 3322 
Q 2975 3731 2742 3939 
Q 2509 4147 2053 4147 
L 1259 4147 
z
" transform="scale(0.015625)"/>
       <path id="DejaVuSans-57" d="M 213 4666 
L 850 4666 
L 1831 722 
L 2809 4666 
L 3519 4666 
L 4500 722 
L 5478 4666 
L 6119 4666 
L 4947 0 
L 4153 0 
L 3169 4050 
L 2175 0 
L 1381 0 
L 213 4666 
z
" transform="scale(0.015625)"/>
       <path id="DejaVuSans-53" d="M 3425 4513 
L 3425 3897 
Q 3066 4069 2747 4153 
Q 2428 4238 2131 4238 
Q 1616 4238 1336 4038 
Q 1056 3838 1056 3469 
Q 1056 3159 1242 3001 
Q 1428 2844 1947 2747 
L 2328 2669 
Q 3034 2534 3370 2195 
Q 3706 1856 3706 1288 
Q 3706 609 3251 259 
Q 2797 -91 1919 -91 
Q 1588 -91 1214 -16 
Q 841 59 441 206 
L 441 856 
Q 825 641 1194 531 
Q 1563 422 1919 422 
Q 2459 422 2753 634 
Q 3047 847 3047 1241 
Q 3047 1584 2836 1778 
Q 2625 1972 2144 2069 
L 1759 2144 
Q 1053 2284 737 2584 
Q 422 2884 422 3419 
Q 422 4038 858 4394 
Q 1294 4750 2059 4750 
Q 2388 4750 2728 4690 
Q 3069 4631 3425 4513 
z
" transform="scale(0.015625)"/>
       <path id="DejaVuSans-70" d="M 1159 525 
L 1159 -1331 
L 581 -1331 
L 581 3500 
L 1159 3500 
L 1159 2969 
Q 1341 3281 1617 3432 
Q 1894 3584 2278 3584 
Q 2916 3584 3314 3078 
Q 3713 2572 3713 1747 
Q 3713 922 3314 415 
Q 2916 -91 2278 -91 
Q 1894 -91 1617 61 
Q 1341 213 1159 525 
z
M 3116 1747 
Q 3116 2381 2855 2742 
Q 2594 3103 2138 3103 
Q 1681 3103 1420 2742 
Q 1159 2381 1159 1747 
Q 1159 1113 1420 752 
Q 1681 391 2138 391 
Q 2594 391 2855 752 
Q 3116 1113 3116 1747 
z
" transform="scale(0.015625)"/>
       <path id="DejaVuSans-64" d="M 2906 2969 
L 2906 4863 
L 3481 4863 
L 3481 0 
L 2906 0 
L 2906 525 
Q 2725 213 2448 61 
Q 2172 -91 1784 -91 
Q 1150 -91 751 415 
Q 353 922 353 1747 
Q 353 2572 751 3078 
Q 1150 3584 1784 3584 
Q 2172 3584 2448 3432 
Q 2725 3281 2906 2969 
z
M 947 1747 
Q 947 1113 1208 752 
Q 1469 391 1925 391 
Q 2381 391 2643 752 
Q 2906 1113 2906 1747 
Q 2906 2381 2643 2742 
Q 2381 3103 1925 3103 
Q 1469 3103 1208 2742 
Q 947 2381 947 1747 
z
" transform="scale(0.015625)"/>
       <path id="DejaVuSans-50" d="M 1259 4147 
L 1259 2394 
L 2053 2394 
Q 2494 2394 2734 2622 
Q 2975 2850 2975 3272 
Q 2975 3691 2734 3919 
Q 2494 4147 2053 4147 
L 1259 4147 
z
M 628 4666 
L 2053 4666 
Q 2838 4666 3239 4311 
Q 3641 3956 3641 3272 
Q 3641 2581 3239 2228 
Q 2838 1875 2053 1875 
L 1259 1875 
L 1259 0 
L 628 0 
L 628 4666 
z
" transform="scale(0.015625)"/>
       <path id="DejaVuSans-4d" d="M 628 4666 
L 1569 4666 
L 2759 1491 
L 3956 4666 
L 4897 4666 
L 4897 0 
L 4281 0 
L 4281 4097 
L 3078 897 
L 2444 897 
L 1241 4097 
L 1241 0 
L 628 0 
L 628 4666 
z
" transform="scale(0.015625)"/>
      </defs>
      <use xlink:href="#DejaVuSans-52"/>
      <use xlink:href="#DejaVuSans-57" transform="translate(65.482422 0)"/>
      <use xlink:href="#DejaVuSans-20" transform="translate(164.359375 0)"/>
      <use xlink:href="#DejaVuSans-53" transform="translate(196.146484 0)"/>
      <use xlink:href="#DejaVuSans-70" transform="translate(259.623047 0)"/>
      <use xlink:href="#DejaVuSans-65" transform="translate(323.099609 0)"/>
      <use xlink:href="#DejaVuSans-65" transform="translate(384.623047 0)"/>
      <use xlink:href="#DejaVuSans-64" transform="translate(446.146484 0)"/>
      <use xlink:href="#DejaVuSans-20" transform="translate(509.623047 0)"/>
      <use xlink:href="#DejaVuSans-5b" transform="translate(541.410156 0)"/>
      <use xlink:href="#DejaVuSans-52" transform="translate(580.423828 0)"/>
      <use xlink:href="#DejaVuSans-50" transform="translate(649.90625 0)"/>
      <use xlink:href="#DejaVuSans-4d" transform="translate(710.208984 0)"/>
      <use xlink:href="#DejaVuSans-5d" transform="translate(796.488281 0)"/>
      <use xlink:href="#DejaVuSans-20" transform="translate(835.501953 0)"/>
     </g>
    </g>
   </g>
   <g id="line2d_27">
    <path d="M 86.660059 230.571562 
L 88.106253 150.409135 
L 89.552446 109.500304 
L 90.99864 85.752574 
L 92.444833 70.2157 
L 93.891027 59.235161 
L 95.33722 51.231204 
L 96.783413 45.418098 
L 98.229607 41.32693 
L 99.6758 38.629415 
L 101.121994 37.071258 
L 102.568187 36.44542 
L 104.014381 36.579508 
L 105.460574 37.328023 
L 106.906768 38.566643 
L 108.352961 40.187917 
L 109.799154 42.098208 
L 112.691541 46.46908 
L 119.922509 57.923448 
L 122.814895 61.935786 
L 125.707282 65.390378 
L 128.599669 68.235637 
L 130.045863 69.427938 
L 131.492056 70.470651 
L 132.938249 71.369056 
L 134.384443 72.129796 
L 135.830636 72.760511 
L 138.723023 73.665486 
L 141.61541 74.153578 
L 144.507797 74.293672 
L 147.400184 74.149555 
L 150.292571 73.777766 
L 153.184958 73.226834 
L 157.523538 72.150643 
L 163.308312 70.400316 
L 170.539279 67.920459 
L 182.108826 63.913465 
L 186.447407 62.642573 
L 190.785987 61.634505 
L 193.678374 61.149074 
L 196.570761 60.833286 
L 199.463148 60.69383 
L 202.355535 60.725621 
L 206.694115 61.055814 
L 211.032695 61.643139 
L 218.263662 62.912757 
L 228.387017 64.689459 
L 235.617984 65.735332 
L 242.848951 66.578202 
L 250.079918 67.206594 
L 257.310885 67.590795 
L 264.541853 67.745593 
L 273.219013 67.706503 
L 284.788561 67.407076 
L 309.373849 66.633223 
L 319.497203 66.685072 
L 352.759652 67.091524 
L 375.898747 67.131848 
L 375.898747 67.131848 
" clip-path="url(#pa6866d58d1)" style="fill: none; stroke: #225e7c; stroke-width: 1.5; stroke-linecap: square"/>
   </g>
   <g id="line2d_28">
    <path d="M 86.660059 230.571562 
L 88.106253 194.024367 
L 89.552446 161.188937 
L 90.99864 134.15653 
L 92.444833 113.805382 
L 93.891027 99.315739 
L 95.33722 89.312404 
L 96.783413 82.502506 
L 98.229607 77.872785 
L 99.6758 74.689138 
L 101.121994 72.437602 
L 102.568187 70.762692 
L 104.014381 69.41931 
L 111.245348 63.409574 
L 114.137735 60.467538 
L 117.030122 57.170758 
L 122.814895 50.019501 
L 127.153476 44.693587 
L 130.045863 41.359883 
L 132.938249 38.280581 
L 135.830636 35.495804 
L 138.723023 33.023472 
L 141.61541 30.863913 
L 144.507797 29.004814 
L 147.400184 27.425812 
L 150.292571 26.102254 
L 153.184958 25.008 
L 156.077345 24.117493 
L 158.969731 23.407409 
L 163.308312 22.63843 
L 167.646892 22.182645 
L 171.985472 22.007716 
L 176.324053 22.086756 
L 180.662633 22.387133 
L 186.447407 23.053162 
L 202.355535 25.172386 
L 206.694115 25.47917 
L 211.032695 25.601358 
L 216.817469 25.511993 
L 224.048436 25.122755 
L 235.617984 24.222278 
L 263.095659 21.992295 
L 271.77282 21.570563 
L 281.896174 21.310816 
L 292.019528 21.277228 
L 306.481462 21.494087 
L 319.497203 21.61861 
L 339.743911 21.504119 
L 374.452554 21.379481 
L 375.898747 21.377786 
L 375.898747 21.377786 
" clip-path="url(#pa6866d58d1)" style="fill: none; stroke: #3e915b; stroke-width: 1.5; stroke-linecap: square"/>
   </g>
   <g id="line2d_29">
    <path d="M 86.660059 230.571562 
L 88.106253 168.504094 
L 89.552446 123.985825 
L 90.99864 95.569221 
L 92.444833 78.253876 
L 93.891027 67.906388 
L 95.33722 61.815851 
L 96.783413 58.293454 
L 98.229607 56.287193 
L 99.6758 55.137442 
L 101.121994 54.433002 
L 108.352961 51.794744 
L 111.245348 50.332173 
L 115.583928 47.822545 
L 121.368702 44.478349 
L 124.261089 43.010243 
L 127.153476 41.759649 
L 130.045863 40.76017 
L 132.938249 40.024706 
L 135.830636 39.548775 
L 138.723023 39.315306 
L 141.61541 39.29988 
L 144.507797 39.475331 
L 148.846377 40.038823 
L 153.184958 40.893983 
L 157.523538 41.980194 
L 163.308312 43.718303 
L 169.093085 45.733128 
L 176.324053 48.548933 
L 192.232181 54.928322 
L 196.570761 56.398822 
L 200.909341 57.626156 
L 205.247921 58.576094 
L 209.586502 59.250659 
L 213.925082 59.681478 
L 219.709856 59.960952 
L 226.940823 60.010146 
L 263.095659 59.790256 
L 276.1114 60.137031 
L 292.019528 60.765404 
L 315.158623 61.738508 
L 326.72817 61.943846 
L 346.974879 62.039679 
L 375.898747 62.058545 
L 375.898747 62.058545 
" clip-path="url(#pa6866d58d1)" style="fill: none; stroke: #8eac56; stroke-width: 1.5; stroke-linecap: square"/>
   </g>
   <g id="line2d_30">
    <path d="M 86.660059 230.571562 
L 88.106253 178.067194 
L 89.552446 140.147186 
L 90.99864 113.544614 
L 92.444833 94.713676 
L 93.891027 81.292052 
L 95.33722 71.652745 
L 96.783413 64.659408 
L 98.229607 59.518812 
L 99.6758 55.682308 
L 101.121994 52.775166 
L 102.568187 50.544956 
L 104.014381 48.824148 
L 105.460574 47.503318 
L 106.906768 46.512049 
L 108.352961 45.805325 
L 109.799154 45.353881 
L 111.245348 45.137472 
L 112.691541 45.140325 
L 114.137735 45.348223 
L 115.583928 45.7468 
L 117.030122 46.320696 
L 118.476315 47.053289 
L 121.368702 48.922582 
L 124.261089 51.204598 
L 128.599669 55.074927 
L 135.830636 61.669474 
L 140.169217 65.233033 
L 143.061604 67.345385 
L 145.95399 69.225055 
L 148.846377 70.867429 
L 151.738764 72.275904 
L 154.631151 73.458651 
L 157.523538 74.426096 
L 160.415925 75.18883 
L 163.308312 75.755908 
L 166.200699 76.133837 
L 169.093085 76.326574 
L 171.985472 76.33648 
L 174.877859 76.165785 
L 177.770246 75.817953 
L 180.662633 75.298687 
L 183.55502 74.616819 
L 187.8936 73.319408 
L 192.232181 71.757597 
L 206.694115 66.182688 
L 211.032695 64.872355 
L 215.371276 63.849346 
L 219.709856 63.109213 
L 224.048436 62.617272 
L 228.387017 62.323971 
L 234.17179 62.156147 
L 241.402757 62.18853 
L 250.079918 62.470331 
L 274.665207 63.47007 
L 284.788561 63.613193 
L 293.465721 63.546471 
L 302.142882 63.274521 
L 326.72817 62.310467 
L 339.743911 62.162334 
L 367.221587 62.144345 
L 375.898747 62.152666 
L 375.898747 62.152666 
" clip-path="url(#pa6866d58d1)" style="fill: none; stroke: #c4a46f; stroke-width: 1.5; stroke-linecap: square"/>
   </g>
   <g id="patch_3">
    <path d="M 72.198125 241.036875 
L 72.198125 10.8 
" style="fill: none; stroke: #000000; stroke-width: 0.8; stroke-linejoin: miter; stroke-linecap: square"/>
   </g>
   <g id="patch_4">
    <path d="M 390.360682 241.036875 
L 390.360682 10.8 
" style="fill: none; stroke: #000000; stroke-width: 0.8; stroke-linejoin: miter; stroke-linecap: square"/>
   </g>
   <g id="patch_5">
    <path d="M 72.198125 241.036875 
L 390.360682 241.036875 
" style="fill: none; stroke: #000000; stroke-width: 0.8; stroke-linejoin: miter; stroke-linecap: square"/>
   </g>
   <g id="patch_6">
    <path d="M 72.198125 10.8 
L 390.360682 10.8 
" style="fill: none; stroke: #000000; stroke-width: 0.8; stroke-linejoin: miter; stroke-linecap: square"/>
   </g>
   <g id="legend_1">
    <g id="patch_7">
     <path d="M 344.010682 236.536875 
L 384.060682 236.536875 
Q 385.860682 236.536875 385.860682 234.736875 
L 385.860682 182.795625 
Q 385.860682 180.995625 384.060682 180.995625 
L 344.010682 180.995625 
Q 342.210682 180.995625 342.210682 182.795625 
L 342.210682 234.736875 
Q 342.210682 236.536875 344.010682 236.536875 
z
" style="fill: #ffffff; opacity: 0.8; stroke: #cccccc; stroke-linejoin: miter"/>
    </g>
    <g id="line2d_31">
     <path d="M 345.810682 188.284219 
L 354.810682 188.284219 
L 363.810682 188.284219 
" style="fill: none; stroke: #225e7c; stroke-width: 1.5; stroke-linecap: square"/>
    </g>
    <g id="text_16">
     <!-- $\Omega_{0}$ -->
     <g transform="translate(371.010682 191.434219) scale(0.09 -0.09)">
      <defs>
       <path id="DejaVuSans-3a9" d="M 4647 556 
L 4647 0 
L 2772 0 
L 2772 556 
Q 3325 859 3634 1378 
Q 3944 1897 3944 2528 
Q 3944 3278 3531 3731 
Q 3119 4184 2444 4184 
Q 1769 4184 1355 3729 
Q 941 3275 941 2528 
Q 941 1897 1250 1378 
Q 1563 859 2119 556 
L 2119 0 
L 244 0 
L 244 556 
L 1241 556 
Q 747 991 519 1456 
Q 294 1922 294 2497 
Q 294 3491 894 4106 
Q 1491 4722 2444 4722 
Q 3391 4722 3994 4106 
Q 4594 3494 4594 2528 
Q 4594 1922 4372 1459 
Q 4150 997 3647 556 
L 4647 556 
z
" transform="scale(0.015625)"/>
      </defs>
      <use xlink:href="#DejaVuSans-3a9" transform="translate(0 0.21875)"/>
      <use xlink:href="#DejaVuSans-30" transform="translate(77.373047 -16.1875) scale(0.7)"/>
     </g>
    </g>
    <g id="line2d_32">
     <path d="M 345.810682 201.494531 
L 354.810682 201.494531 
L 363.810682 201.494531 
" style="fill: none; stroke: #3e915b; stroke-width: 1.5; stroke-linecap: square"/>
    </g>
    <g id="text_17">
     <!-- $\Omega_{1}$ -->
     <g transform="translate(371.010682 204.644531) scale(0.09 -0.09)">
      <use xlink:href="#DejaVuSans-3a9" transform="translate(0 0.21875)"/>
      <use xlink:href="#DejaVuSans-31" transform="translate(77.373047 -16.1875) scale(0.7)"/>
     </g>
    </g>
    <g id="line2d_33">
     <path d="M 345.810682 214.704844 
L 354.810682 214.704844 
L 363.810682 214.704844 
" style="fill: none; stroke: #8eac56; stroke-width: 1.5; stroke-linecap: square"/>
    </g>
    <g id="text_18">
     <!-- $\Omega_{2}$ -->
     <g transform="translate(371.010682 217.854844) scale(0.09 -0.09)">
      <use xlink:href="#DejaVuSans-3a9" transform="translate(0 0.21875)"/>
      <use xlink:href="#DejaVuSans-32" transform="translate(77.373047 -16.1875) scale(0.7)"/>
     </g>
    </g>
    <g id="line2d_34">
     <path d="M 345.810682 227.915156 
L 354.810682 227.915156 
L 363.810682 227.915156 
" style="fill: none; stroke: #c4a46f; stroke-width: 1.5; stroke-linecap: square"/>
    </g>
    <g id="text_19">
     <!-- $\Omega_{3}$ -->
     <g transform="translate(371.010682 231.065156) scale(0.09 -0.09)">
      <defs>
       <path id="DejaVuSans-33" d="M 2597 2516 
Q 3050 2419 3304 2112 
Q 3559 1806 3559 1356 
Q 3559 666 3084 287 
Q 2609 -91 1734 -91 
Q 1441 -91 1130 -33 
Q 819 25 488 141 
L 488 750 
Q 750 597 1062 519 
Q 1375 441 1716 441 
Q 2309 441 2620 675 
Q 2931 909 2931 1356 
Q 2931 1769 2642 2001 
Q 2353 2234 1838 2234 
L 1294 2234 
L 1294 2753 
L 1863 2753 
Q 2328 2753 2575 2939 
Q 2822 3125 2822 3475 
Q 2822 3834 2567 4026 
Q 2313 4219 1838 4219 
Q 1578 4219 1281 4162 
Q 984 4106 628 3988 
L 628 4550 
Q 988 4650 1302 4700 
Q 1616 4750 1894 4750 
Q 2613 4750 3031 4423 
Q 3450 4097 3450 3541 
Q 3450 3153 3228 2886 
Q 3006 2619 2597 2516 
z
" transform="scale(0.015625)"/>
      </defs>
      <use xlink:href="#DejaVuSans-3a9" transform="translate(0 0.21875)"/>
      <use xlink:href="#DejaVuSans-33" transform="translate(77.373047 -16.1875) scale(0.7)"/>
     </g>
    </g>
   </g>
  </g>
 </g>
 <defs>
  <clipPath id="pa6866d58d1">
   <rect x="72.198125" y="10.8" width="318.162557" height="230.236875"/>
  </clipPath>
 </defs>
</svg>
