<?xml version="1.0" encoding="utf-8" standalone="no"?>
<!DOCTYPE svg PUBLIC "-//W3C//DTD SVG 1.1//EN"
  "http://www.w3.org/Graphics/SVG/1.1/DTD/svg11.dtd">
<svg xmlns:xlink="http://www.w3.org/1999/xlink" width="414pt" height="288pt" viewBox="0 0 414 288" xmlns="http://www.w3.org/2000/svg" version="1.1">
 <metadata>
  <rdf:RDF xmlns:dc="http://purl.org/dc/elements/1.1/" xmlns:cc="http://creativecommons.org/ns#" xmlns:rdf="http://www.w3.org/1999/02/22-rdf-syntax-ns#">
   <cc:Work>
    <dc:type rdf:resource="http://purl.org/dc/dcmitype/StillImage"/>
    <dc:date>2026-01-13T05:16:18.463882</dc:date>
    <dc:format>image/svg+xml</dc:format>
    <dc:creator>
     <cc:Agent>
      <dc:title>Matplotlib v3.10.7, https://matplotlib.org/</dc:title>
     </cc:Agent>
    </dc:creator>
   </cc:Work>
  </rdf:RDF>
 </metadata>
 <defs>
  <style type="text/css">*{stroke-linejoin: round; stroke-linecap: butt}</style>
 </defs>
 <g id="figure_1">
  <g id="patch_1">
   <path d="M 0 288 
L 414 288 
L 414 0 
L 0 0 
L 0 288 
z
" style="fill: none"/>
  </g>
  <g id="axes_1">
   <g id="patch_2">
    <path d="M 75.425625 241.036875 
L 403.2 241.036875 
L 403.2 10.8 
L 75.425625 10.8 
L 75.425625 241.036875 
z
" style="fill: none"/>
   </g>
   <g id="matplotlib.axis_1">
    <g id="xtick_1">
     <g id="line2d_1">
      <defs>
       <path id="ma973decff4" d="M 0 0 
L 0 3.5 
" style="stroke: #000000; stroke-width: 0.8"/>
      </defs>
      <g>
       <use xlink:href="#ma973decff4" x="90.32446" y="241.036875" style="stroke: #000000; stroke-width: 0.8"/>
      </g>
     </g>
     <g id="text_1">
      <!-- 0 -->
      <g transform="translate(85.23446 260.194375) scale(0.16 -0.16)">
       <defs>
        <path id="DejaVuSans-30" d="M 2034 4250 
Q 1547 4250 1301 3770 
Q 1056 3291 1056 2328 
Q 1056 1369 1301 889 
Q 1547 409 2034 409 
Q 2525 409 2770 889 
Q 3016 1369 3016 2328 
Q 3016 3291 2770 3770 
Q 2525 4250 2034 4250 
z
M 2034 4750 
Q 2819 4750 3233 4129 
Q 3647 3509 3647 2328 
Q 3647 1150 3233 529 
Q 2819 -91 2034 -91 
Q 1250 -91 836 529 
Q 422 1150 422 2328 
Q 422 3509 836 4129 
Q 1250 4750 2034 4750 
z
" transform="scale(0.015625)"/>
       </defs>
       <use xlink:href="#DejaVuSans-30"/>
      </g>
     </g>
    </g>
    <g id="xtick_2">
     <g id="line2d_2">
      <g>
       <use xlink:href="#ma973decff4" x="158.761921" y="241.036875" style="stroke: #000000; stroke-width: 0.8"/>
      </g>
     </g>
     <g id="text_2">
      <!-- 100 -->
      <g transform="translate(143.491921 260.194375) scale(0.16 -0.16)">
       <defs>
        <path id="DejaVuSans-31" d="M 794 531 
L 1825 531 
L 1825 4091 
L 703 3866 
L 703 4441 
L 1819 4666 
L 2450 4666 
L 2450 531 
L 3481 531 
L 3481 0 
L 794 0 
L 794 531 
z
" transform="scale(0.015625)"/>
       </defs>
       <use xlink:href="#DejaVuSans-31"/>
       <use xlink:href="#DejaVuSans-30" transform="translate(63.623047 0)"/>
       <use xlink:href="#DejaVuSans-30" transform="translate(127.246094 0)"/>
      </g>
     </g>
    </g>
    <g id="xtick_3">
     <g id="line2d_3">
      <g>
       <use xlink:href="#ma973decff4" x="227.199382" y="241.036875" style="stroke: #000000; stroke-width: 0.8"/>
      </g>
     </g>
     <g id="text_3">
      <!-- 200 -->
      <g transform="translate(211.929382 260.194375) scale(0.16 -0.16)">
       <defs>
        <path id="DejaVuSans-32" d="M 1228 531 
L 3431 531 
L 3431 0 
L 469 0 
L 469 531 
Q 828 903 1448 1529 
Q 2069 2156 2228 2338 
Q 2531 2678 2651 2914 
Q 2772 3150 2772 3378 
Q 2772 3750 2511 3984 
Q 2250 4219 1831 4219 
Q 1534 4219 1204 4116 
Q 875 4013 500 3803 
L 500 4441 
Q 881 4594 1212 4672 
Q 1544 4750 1819 4750 
Q 2544 4750 2975 4387 
Q 3406 4025 3406 3419 
Q 3406 3131 3298 2873 
Q 3191 2616 2906 2266 
Q 2828 2175 2409 1742 
Q 1991 1309 1228 531 
z
" transform="scale(0.015625)"/>
       </defs>
       <use xlink:href="#DejaVuSans-32"/>
       <use xlink:href="#DejaVuSans-30" transform="translate(63.623047 0)"/>
       <use xlink:href="#DejaVuSans-30" transform="translate(127.246094 0)"/>
      </g>
     </g>
    </g>
    <g id="xtick_4">
     <g id="line2d_4">
      <g>
       <use xlink:href="#ma973decff4" x="295.636843" y="241.036875" style="stroke: #000000; stroke-width: 0.8"/>
      </g>
     </g>
     <g id="text_4">
      <!-- 300 -->
      <g transform="translate(280.366843 260.194375) scale(0.16 -0.16)">
       <defs>
        <path id="DejaVuSans-33" d="M 2597 2516 
Q 3050 2419 3304 2112 
Q 3559 1806 3559 1356 
Q 3559 666 3084 287 
Q 2609 -91 1734 -91 
Q 1441 -91 1130 -33 
Q 819 25 488 141 
L 488 750 
Q 750 597 1062 519 
Q 1375 441 1716 441 
Q 2309 441 2620 675 
Q 2931 909 2931 1356 
Q 2931 1769 2642 2001 
Q 2353 2234 1838 2234 
L 1294 2234 
L 1294 2753 
L 1863 2753 
Q 2328 2753 2575 2939 
Q 2822 3125 2822 3475 
Q 2822 3834 2567 4026 
Q 2313 4219 1838 4219 
Q 1578 4219 1281 4162 
Q 984 4106 628 3988 
L 628 4550 
Q 988 4650 1302 4700 
Q 1616 4750 1894 4750 
Q 2613 4750 3031 4423 
Q 3450 4097 3450 3541 
Q 3450 3153 3228 2886 
Q 3006 2619 2597 2516 
z
" transform="scale(0.015625)"/>
       </defs>
       <use xlink:href="#DejaVuSans-33"/>
       <use xlink:href="#DejaVuSans-30" transform="translate(63.623047 0)"/>
       <use xlink:href="#DejaVuSans-30" transform="translate(127.246094 0)"/>
      </g>
     </g>
    </g>
    <g id="xtick_5">
     <g id="line2d_5">
      <g>
       <use xlink:href="#ma973decff4" x="364.074304" y="241.036875" style="stroke: #000000; stroke-width: 0.8"/>
      </g>
     </g>
     <g id="text_5">
      <!-- 400 -->
      <g transform="translate(348.804304 260.194375) scale(0.16 -0.16)">
       <defs>
        <path id="DejaVuSans-34" d="M 2419 4116 
L 825 1625 
L 2419 1625 
L 2419 4116 
z
M 2253 4666 
L 3047 4666 
L 3047 1625 
L 3713 1625 
L 3713 1100 
L 3047 1100 
L 3047 0 
L 2419 0 
L 2419 1100 
L 313 1100 
L 313 1709 
L 2253 4666 
z
" transform="scale(0.015625)"/>
       </defs>
       <use xlink:href="#DejaVuSans-34"/>
       <use xlink:href="#DejaVuSans-30" transform="translate(63.623047 0)"/>
       <use xlink:href="#DejaVuSans-30" transform="translate(127.246094 0)"/>
      </g>
     </g>
    </g>
    <g id="text_6">
     <!-- Time [min] -->
     <g transform="translate(212.160469 275.120313) scale(0.1 -0.1)">
      <defs>
       <path id="DejaVuSans-54" d="M -19 4666 
L 3928 4666 
L 3928 4134 
L 2272 4134 
L 2272 0 
L 1638 0 
L 1638 4134 
L -19 4134 
L -19 4666 
z
" transform="scale(0.015625)"/>
       <path id="DejaVuSans-69" d="M 603 3500 
L 1178 3500 
L 1178 0 
L 603 0 
L 603 3500 
z
M 603 4863 
L 1178 4863 
L 1178 4134 
L 603 4134 
L 603 4863 
z
" transform="scale(0.015625)"/>
       <path id="DejaVuSans-6d" d="M 3328 2828 
Q 3544 3216 3844 3400 
Q 4144 3584 4550 3584 
Q 5097 3584 5394 3201 
Q 5691 2819 5691 2113 
L 5691 0 
L 5113 0 
L 5113 2094 
Q 5113 2597 4934 2840 
Q 4756 3084 4391 3084 
Q 3944 3084 3684 2787 
Q 3425 2491 3425 1978 
L 3425 0 
L 2847 0 
L 2847 2094 
Q 2847 2600 2669 2842 
Q 2491 3084 2119 3084 
Q 1678 3084 1418 2786 
Q 1159 2488 1159 1978 
L 1159 0 
L 581 0 
L 581 3500 
L 1159 3500 
L 1159 2956 
Q 1356 3278 1631 3431 
Q 1906 3584 2284 3584 
Q 2666 3584 2933 3390 
Q 3200 3197 3328 2828 
z
" transform="scale(0.015625)"/>
       <path id="DejaVuSans-65" d="M 3597 1894 
L 3597 1613 
L 953 1613 
Q 991 1019 1311 708 
Q 1631 397 2203 397 
Q 2534 397 2845 478 
Q 3156 559 3463 722 
L 3463 178 
Q 3153 47 2828 -22 
Q 2503 -91 2169 -91 
Q 1331 -91 842 396 
Q 353 884 353 1716 
Q 353 2575 817 3079 
Q 1281 3584 2069 3584 
Q 2775 3584 3186 3129 
Q 3597 2675 3597 1894 
z
M 3022 2063 
Q 3016 2534 2758 2815 
Q 2500 3097 2075 3097 
Q 1594 3097 1305 2825 
Q 1016 2553 972 2059 
L 3022 2063 
z
" transform="scale(0.015625)"/>
       <path id="DejaVuSans-20" transform="scale(0.015625)"/>
       <path id="DejaVuSans-5b" d="M 550 4863 
L 1875 4863 
L 1875 4416 
L 1125 4416 
L 1125 -397 
L 1875 -397 
L 1875 -844 
L 550 -844 
L 550 4863 
z
" transform="scale(0.015625)"/>
       <path id="DejaVuSans-6e" d="M 3513 2113 
L 3513 0 
L 2938 0 
L 2938 2094 
Q 2938 2591 2744 2837 
Q 2550 3084 2163 3084 
Q 1697 3084 1428 2787 
Q 1159 2491 1159 1978 
L 1159 0 
L 581 0 
L 581 3500 
L 1159 3500 
L 1159 2956 
Q 1366 3272 1645 3428 
Q 1925 3584 2291 3584 
Q 2894 3584 3203 3211 
Q 3513 2838 3513 2113 
z
" transform="scale(0.015625)"/>
       <path id="DejaVuSans-5d" d="M 1947 4863 
L 1947 -844 
L 622 -844 
L 622 -397 
L 1369 -397 
L 1369 4416 
L 622 4416 
L 622 4863 
L 1947 4863 
z
" transform="scale(0.015625)"/>
      </defs>
      <use xlink:href="#DejaVuSans-54"/>
      <use xlink:href="#DejaVuSans-69" transform="translate(57.958984 0)"/>
      <use xlink:href="#DejaVuSans-6d" transform="translate(85.742188 0)"/>
      <use xlink:href="#DejaVuSans-65" transform="translate(183.154297 0)"/>
      <use xlink:href="#DejaVuSans-20" transform="translate(244.677734 0)"/>
      <use xlink:href="#DejaVuSans-5b" transform="translate(276.464844 0)"/>
      <use xlink:href="#DejaVuSans-6d" transform="translate(315.478516 0)"/>
      <use xlink:href="#DejaVuSans-69" transform="translate(412.890625 0)"/>
      <use xlink:href="#DejaVuSans-6e" transform="translate(440.673828 0)"/>
      <use xlink:href="#DejaVuSans-5d" transform="translate(504.052734 0)"/>
     </g>
    </g>
   </g>
   <g id="matplotlib.axis_2">
    <g id="ytick_1">
     <g id="line2d_6">
      <defs>
       <path id="m53dd613997" d="M 0 0 
L -3.5 0 
" style="stroke: #000000; stroke-width: 0.8"/>
      </defs>
      <g>
       <use xlink:href="#m53dd613997" x="75.425625" y="239.550512" style="stroke: #000000; stroke-width: 0.8"/>
      </g>
     </g>
     <g id="text_7">
      <!-- −500 -->
      <g transform="translate(24.478125 245.629262) scale(0.16 -0.16)">
       <defs>
        <path id="DejaVuSans-2212" d="M 678 2272 
L 4684 2272 
L 4684 1741 
L 678 1741 
L 678 2272 
z
" transform="scale(0.015625)"/>
        <path id="DejaVuSans-35" d="M 691 4666 
L 3169 4666 
L 3169 4134 
L 1269 4134 
L 1269 2991 
Q 1406 3038 1543 3061 
Q 1681 3084 1819 3084 
Q 2600 3084 3056 2656 
Q 3513 2228 3513 1497 
Q 3513 744 3044 326 
Q 2575 -91 1722 -91 
Q 1428 -91 1123 -41 
Q 819 9 494 109 
L 494 744 
Q 775 591 1075 516 
Q 1375 441 1709 441 
Q 2250 441 2565 725 
Q 2881 1009 2881 1497 
Q 2881 1984 2565 2268 
Q 2250 2553 1709 2553 
Q 1456 2553 1204 2497 
Q 953 2441 691 2322 
L 691 4666 
z
" transform="scale(0.015625)"/>
       </defs>
       <use xlink:href="#DejaVuSans-2212"/>
       <use xlink:href="#DejaVuSans-35" transform="translate(83.789062 0)"/>
       <use xlink:href="#DejaVuSans-30" transform="translate(147.412109 0)"/>
       <use xlink:href="#DejaVuSans-30" transform="translate(211.035156 0)"/>
      </g>
     </g>
    </g>
    <g id="ytick_2">
     <g id="line2d_7">
      <g>
       <use xlink:href="#m53dd613997" x="75.425625" y="197.205438" style="stroke: #000000; stroke-width: 0.8"/>
      </g>
     </g>
     <g id="text_8">
      <!-- 0 -->
      <g transform="translate(58.245625 203.284188) scale(0.16 -0.16)">
       <use xlink:href="#DejaVuSans-30"/>
      </g>
     </g>
    </g>
    <g id="ytick_3">
     <g id="line2d_8">
      <g>
       <use xlink:href="#m53dd613997" x="75.425625" y="154.860365" style="stroke: #000000; stroke-width: 0.8"/>
      </g>
     </g>
     <g id="text_9">
      <!-- 500 -->
      <g transform="translate(37.885625 160.939115) scale(0.16 -0.16)">
       <use xlink:href="#DejaVuSans-35"/>
       <use xlink:href="#DejaVuSans-30" transform="translate(63.623047 0)"/>
       <use xlink:href="#DejaVuSans-30" transform="translate(127.246094 0)"/>
      </g>
     </g>
    </g>
    <g id="ytick_4">
     <g id="line2d_9">
      <g>
       <use xlink:href="#m53dd613997" x="75.425625" y="112.515291" style="stroke: #000000; stroke-width: 0.8"/>
      </g>
     </g>
     <g id="text_10">
      <!-- 1000 -->
      <g transform="translate(27.705625 118.594041) scale(0.16 -0.16)">
       <use xlink:href="#DejaVuSans-31"/>
       <use xlink:href="#DejaVuSans-30" transform="translate(63.623047 0)"/>
       <use xlink:href="#DejaVuSans-30" transform="translate(127.246094 0)"/>
       <use xlink:href="#DejaVuSans-30" transform="translate(190.869141 0)"/>
      </g>
     </g>
    </g>
    <g id="ytick_5">
     <g id="line2d_10">
      <g>
       <use xlink:href="#m53dd613997" x="75.425625" y="70.170218" style="stroke: #000000; stroke-width: 0.8"/>
      </g>
     </g>
     <g id="text_11">
      <!-- 1500 -->
      <g transform="translate(27.705625 76.248968) scale(0.16 -0.16)">
       <use xlink:href="#DejaVuSans-31"/>
       <use xlink:href="#DejaVuSans-35" transform="translate(63.623047 0)"/>
       <use xlink:href="#DejaVuSans-30" transform="translate(127.246094 0)"/>
       <use xlink:href="#DejaVuSans-30" transform="translate(190.869141 0)"/>
      </g>
     </g>
    </g>
    <g id="ytick_6">
     <g id="line2d_11">
      <g>
       <use xlink:href="#m53dd613997" x="75.425625" y="27.825144" style="stroke: #000000; stroke-width: 0.8"/>
      </g>
     </g>
     <g id="text_12">
      <!-- 2000 -->
      <g transform="translate(27.705625 33.903894) scale(0.16 -0.16)">
       <use xlink:href="#DejaVuSans-32"/>
       <use xlink:href="#DejaVuSans-30" transform="translate(63.623047 0)"/>
       <use xlink:href="#DejaVuSans-30" transform="translate(127.246094 0)"/>
       <use xlink:href="#DejaVuSans-30" transform="translate(190.869141 0)"/>
      </g>
     </g>
    </g>
    <g id="text_13">
     <!-- RW Speed (RPM)  -->
     <g transform="translate(18.398437 169.284062) rotate(-90) scale(0.1 -0.1)">
      <defs>
       <path id="DejaVuSans-52" d="M 2841 2188 
Q 3044 2119 3236 1894 
Q 3428 1669 3622 1275 
L 4263 0 
L 3584 0 
L 2988 1197 
Q 2756 1666 2539 1819 
Q 2322 1972 1947 1972 
L 1259 1972 
L 1259 0 
L 628 0 
L 628 4666 
L 2053 4666 
Q 2853 4666 3247 4331 
Q 3641 3997 3641 3322 
Q 3641 2881 3436 2590 
Q 3231 2300 2841 2188 
z
M 1259 4147 
L 1259 2491 
L 2053 2491 
Q 2509 2491 2742 2702 
Q 2975 2913 2975 3322 
Q 2975 3731 2742 3939 
Q 2509 4147 2053 4147 
L 1259 4147 
z
" transform="scale(0.015625)"/>
       <path id="DejaVuSans-57" d="M 213 4666 
L 850 4666 
L 1831 722 
L 2809 4666 
L 3519 4666 
L 4500 722 
L 5478 4666 
L 6119 4666 
L 4947 0 
L 4153 0 
L 3169 4050 
L 2175 0 
L 1381 0 
L 213 4666 
z
" transform="scale(0.015625)"/>
       <path id="DejaVuSans-53" d="M 3425 4513 
L 3425 3897 
Q 3066 4069 2747 4153 
Q 2428 4238 2131 4238 
Q 1616 4238 1336 4038 
Q 1056 3838 1056 3469 
Q 1056 3159 1242 3001 
Q 1428 2844 1947 2747 
L 2328 2669 
Q 3034 2534 3370 2195 
Q 3706 1856 3706 1288 
Q 3706 609 3251 259 
Q 2797 -91 1919 -91 
Q 1588 -91 1214 -16 
Q 841 59 441 206 
L 441 856 
Q 825 641 1194 531 
Q 1563 422 1919 422 
Q 2459 422 2753 634 
Q 3047 847 3047 1241 
Q 3047 1584 2836 1778 
Q 2625 1972 2144 2069 
L 1759 2144 
Q 1053 2284 737 2584 
Q 422 2884 422 3419 
Q 422 4038 858 4394 
Q 1294 4750 2059 4750 
Q 2388 4750 2728 4690 
Q 3069 4631 3425 4513 
z
" transform="scale(0.015625)"/>
       <path id="DejaVuSans-70" d="M 1159 525 
L 1159 -1331 
L 581 -1331 
L 581 3500 
L 1159 3500 
L 1159 2969 
Q 1341 3281 1617 3432 
Q 1894 3584 2278 3584 
Q 2916 3584 3314 3078 
Q 3713 2572 3713 1747 
Q 3713 922 3314 415 
Q 2916 -91 2278 -91 
Q 1894 -91 1617 61 
Q 1341 213 1159 525 
z
M 3116 1747 
Q 3116 2381 2855 2742 
Q 2594 3103 2138 3103 
Q 1681 3103 1420 2742 
Q 1159 2381 1159 1747 
Q 1159 1113 1420 752 
Q 1681 391 2138 391 
Q 2594 391 2855 752 
Q 3116 1113 3116 1747 
z
" transform="scale(0.015625)"/>
       <path id="DejaVuSans-64" d="M 2906 2969 
L 2906 4863 
L 3481 4863 
L 3481 0 
L 2906 0 
L 2906 525 
Q 2725 213 2448 61 
Q 2172 -91 1784 -91 
Q 1150 -91 751 415 
Q 353 922 353 1747 
Q 353 2572 751 3078 
Q 1150 3584 1784 3584 
Q 2172 3584 2448 3432 
Q 2725 3281 2906 2969 
z
M 947 1747 
Q 947 1113 1208 752 
Q 1469 391 1925 391 
Q 2381 391 2643 752 
Q 2906 1113 2906 1747 
Q 2906 2381 2643 2742 
Q 2381 3103 1925 3103 
Q 1469 3103 1208 2742 
Q 947 2381 947 1747 
z
" transform="scale(0.015625)"/>
       <path id="DejaVuSans-28" d="M 1984 4856 
Q 1566 4138 1362 3434 
Q 1159 2731 1159 2009 
Q 1159 1288 1364 580 
Q 1569 -128 1984 -844 
L 1484 -844 
Q 1016 -109 783 600 
Q 550 1309 550 2009 
Q 550 2706 781 3412 
Q 1013 4119 1484 4856 
L 1984 4856 
z
" transform="scale(0.015625)"/>
       <path id="DejaVuSans-50" d="M 1259 4147 
L 1259 2394 
L 2053 2394 
Q 2494 2394 2734 2622 
Q 2975 2850 2975 3272 
Q 2975 3691 2734 3919 
Q 2494 4147 2053 4147 
L 1259 4147 
z
M 628 4666 
L 2053 4666 
Q 2838 4666 3239 4311 
Q 3641 3956 3641 3272 
Q 3641 2581 3239 2228 
Q 2838 1875 2053 1875 
L 1259 1875 
L 1259 0 
L 628 0 
L 628 4666 
z
" transform="scale(0.015625)"/>
       <path id="DejaVuSans-4d" d="M 628 4666 
L 1569 4666 
L 2759 1491 
L 3956 4666 
L 4897 4666 
L 4897 0 
L 4281 0 
L 4281 4097 
L 3078 897 
L 2444 897 
L 1241 4097 
L 1241 0 
L 628 0 
L 628 4666 
z
" transform="scale(0.015625)"/>
       <path id="DejaVuSans-29" d="M 513 4856 
L 1013 4856 
Q 1481 4119 1714 3412 
Q 1947 2706 1947 2009 
Q 1947 1309 1714 600 
Q 1481 -109 1013 -844 
L 513 -844 
Q 928 -128 1133 580 
Q 1338 1288 1338 2009 
Q 1338 2731 1133 3434 
Q 928 4138 513 4856 
z
" transform="scale(0.015625)"/>
      </defs>
      <use xlink:href="#DejaVuSans-52"/>
      <use xlink:href="#DejaVuSans-57" transform="translate(65.482422 0)"/>
      <use xlink:href="#DejaVuSans-20" transform="translate(164.359375 0)"/>
      <use xlink:href="#DejaVuSans-53" transform="translate(196.146484 0)"/>
      <use xlink:href="#DejaVuSans-70" transform="translate(259.623047 0)"/>
      <use xlink:href="#DejaVuSans-65" transform="translate(323.099609 0)"/>
      <use xlink:href="#DejaVuSans-65" transform="translate(384.623047 0)"/>
      <use xlink:href="#DejaVuSans-64" transform="translate(446.146484 0)"/>
      <use xlink:href="#DejaVuSans-20" transform="translate(509.623047 0)"/>
      <use xlink:href="#DejaVuSans-28" transform="translate(541.410156 0)"/>
      <use xlink:href="#DejaVuSans-52" transform="translate(580.423828 0)"/>
      <use xlink:href="#DejaVuSans-50" transform="translate(649.90625 0)"/>
      <use xlink:href="#DejaVuSans-4d" transform="translate(710.208984 0)"/>
      <use xlink:href="#DejaVuSans-29" transform="translate(796.488281 0)"/>
      <use xlink:href="#DejaVuSans-20" transform="translate(835.501953 0)"/>
     </g>
    </g>
   </g>
   <g id="line2d_12">
    <path d="M 90.32446 188.736424 
L 90.518366 190.503772 
L 90.541179 190.479619 
L 90.621023 189.995355 
L 91.008835 185.721424 
L 91.111491 186.20482 
L 91.282585 188.850047 
L 92.103834 203.576084 
L 92.274928 203.966742 
L 92.286334 203.963585 
L 92.400397 203.774745 
L 92.639928 202.759517 
L 93.347115 199.646443 
L 93.712115 199.028382 
L 94.191177 198.697054 
L 94.852739 198.185097 
L 95.947738 196.932921 
L 99.369611 193.123116 
L 103.726796 188.509045 
L 104.719139 187.552639 
L 104.764764 187.616799 
L 104.924452 188.172129 
L 105.893983 192.455716 
L 106.099295 192.445101 
L 106.395857 192.140073 
L 108.608669 189.391573 
L 117.619601 178.763369 
L 120.151787 176.16207 
L 122.102255 174.461891 
L 123.75616 173.302798 
L 125.238972 172.526139 
L 126.630533 172.04351 
L 127.987876 171.807021 
L 129.368032 171.79464 
L 130.828031 172.008286 
L 132.447717 172.475974 
L 134.35256 173.266824 
L 136.702246 174.49424 
L 139.473963 176.196087 
L 141.960524 177.972353 
L 143.899586 179.622507 
L 145.49646 181.269233 
L 146.899428 183.035438 
L 148.19974 185.036453 
L 149.454426 187.387238 
L 150.720519 190.245674 
L 152.112081 193.965029 
L 153.971299 199.644829 
L 156.765828 208.134827 
L 158.180203 211.691962 
L 159.457702 214.322804 
L 160.700982 216.385685 
L 161.955669 218.045665 
L 163.267387 219.417731 
L 164.670355 220.566622 
L 166.210198 221.539918 
L 167.921135 222.355551 
L 169.825977 223.013665 
L 171.91332 223.497952 
L 174.171756 223.791925 
L 176.544255 223.875305 
L 178.985191 223.738543 
L 181.483158 223.374988 
L 184.02675 222.778318 
L 186.615968 221.9411 
L 189.273622 220.846512 
L 192.033933 219.465982 
L 194.919713 217.770046 
L 197.976586 215.710503 
L 201.250178 213.231193 
L 204.808926 210.250963 
L 208.74408 206.658138 
L 213.14689 202.328903 
L 218.2797 196.957011 
L 225.80782 189.050576 
L 227.849538 187.267013 
L 229.435006 186.162678 
L 230.803755 185.471691 
L 232.058442 185.083051 
L 233.27891 184.937275 
L 234.533596 185.01316 
L 235.925158 185.326524 
L 237.613282 185.946238 
L 240.213906 187.170276 
L 244.822028 189.332036 
L 247.616558 190.375471 
L 250.479525 191.20371 
L 253.947023 191.961932 
L 260.471394 193.341263 
L 262.581549 194.055853 
L 264.303892 194.870489 
L 265.809516 195.827418 
L 267.189672 196.969804 
L 268.50139 198.350024 
L 269.778889 200.023689 
L 271.079201 202.104358 
L 272.470762 204.767614 
L 274.158886 208.516594 
L 278.082634 217.429969 
L 279.382946 219.71305 
L 280.557789 221.341949 
L 281.698413 222.553179 
L 282.86185 223.468676 
L 284.093724 224.157077 
L 285.462474 224.665242 
L 287.036535 225.007388 
L 288.895753 225.176943 
L 291.085752 225.147573 
L 293.595125 224.887735 
L 296.332624 224.377963 
L 299.195591 223.616456 
L 302.149808 222.598031 
L 305.206681 221.306093 
L 308.423242 219.701317 
L 311.89074 217.717283 
L 315.768863 215.234564 
L 320.445422 211.963666 
L 327.927918 206.413391 
L 331.555103 203.747629 
L 331.999947 143.936807 
L 332.136822 140.093592 
L 332.171041 140.297821 
L 332.262291 142.91975 
L 332.467603 157.270694 
L 333.334477 225.498498 
L 333.562602 229.076509 
L 333.619634 229.191567 
L 333.676665 229.090667 
L 333.824946 228.159096 
L 334.372446 224.461238 
L 334.532133 224.349583 
L 334.543539 224.356297 
L 334.714633 224.61558 
L 335.353383 225.753304 
L 335.581507 225.714595 
L 336.014945 225.315817 
L 336.471194 225.040543 
L 336.904632 225.056069 
L 338.136506 225.205288 
L 341.957598 225.180438 
L 388.301165 225.191218 
L 388.301165 225.191218 
" clip-path="url(#p63f644f74c)" style="fill: none; stroke: #2b737e; stroke-width: 1.5; stroke-linecap: square"/>
   </g>
   <g id="line2d_13">
    <path d="M 90.32446 180.267409 
L 90.68946 133.625152 
L 90.769304 132.310117 
L 90.826335 132.810772 
L 90.96321 137.510812 
L 91.385241 163.441099 
L 91.773053 180.009351 
L 92.023991 183.370197 
L 92.103834 183.506844 
L 92.149459 183.436622 
L 92.286334 182.74384 
L 93.278677 176.356455 
L 93.48399 176.305564 
L 93.75774 176.547715 
L 94.36227 177.075083 
L 94.772895 177.113543 
L 96.632113 176.998238 
L 98.822112 177.277193 
L 100.749767 177.761351 
L 102.734453 178.490577 
L 104.525233 179.342502 
L 104.559452 179.154901 
L 105.32367 175.582822 
L 105.59742 175.211937 
L 105.814139 175.252807 
L 106.213357 175.648593 
L 106.715232 176.022888 
L 107.182888 176.075495 
L 108.654293 176.105097 
L 119.661318 177.330086 
L 122.05663 177.253249 
L 124.372097 176.95517 
L 126.835846 176.408081 
L 129.721625 175.529711 
L 133.405842 174.163982 
L 137.261152 172.506381 
L 140.146932 171.036364 
L 142.42818 169.629537 
L 144.401461 168.152287 
L 146.272084 166.47126 
L 148.405052 164.23513 
L 151.131144 161.396527 
L 152.1463 160.666989 
L 152.933331 160.359837 
L 153.617705 160.326217 
L 154.267861 160.519828 
L 154.94083 160.958907 
L 155.705048 161.737343 
L 156.64036 163.033073 
L 157.940672 165.255532 
L 162.1952 172.789715 
L 163.860512 175.149446 
L 165.514417 177.111875 
L 167.23676 178.812976 
L 169.107384 180.346375 
L 171.194726 181.766604 
L 173.624256 183.144737 
L 176.58988 184.562388 
L 180.490815 186.166951 
L 186.068468 188.203816 
L 192.661277 190.381393 
L 197.828305 191.866615 
L 202.037209 192.850987 
L 205.76705 193.49888 
L 209.302986 193.888434 
L 212.87314 194.056287 
L 217.036419 194.018047 
L 224.119696 193.921106 
L 226.674695 194.146496 
L 229.001568 194.575648 
L 231.522348 195.275924 
L 240.476249 197.995156 
L 243.304998 198.459417 
L 246.475933 198.748359 
L 250.137338 198.853522 
L 254.038273 198.744334 
L 257.688271 198.425557 
L 260.836394 197.933611 
L 263.482642 197.300547 
L 265.729672 196.539543 
L 267.725765 195.63154 
L 269.630608 194.51872 
L 271.8092 192.970731 
L 274.706386 190.923842 
L 275.904042 190.366098 
L 276.930603 190.128306 
L 277.934353 190.125391 
L 279.040759 190.35373 
L 280.455133 190.891365 
L 283.352319 192.299855 
L 287.435754 194.182479 
L 296.412467 198.219731 
L 302.149808 201.133452 
L 311.172146 205.723 
L 315.084488 207.439699 
L 318.426517 208.667582 
L 321.48339 209.557485 
L 324.403389 210.178458 
L 327.25495 210.55877 
L 329.981042 210.700966 
L 331.555103 210.66918 
L 332.672915 21.265312 
L 332.71854 22.984475 
L 332.844009 39.889347 
L 334.018852 229.523004 
L 334.08729 230.571562 
L 334.144321 230.122999 
L 334.281196 225.505106 
L 335.193695 186.630057 
L 335.387601 185.779664 
L 335.467445 185.908353 
L 335.649945 186.78801 
L 336.334319 190.354448 
L 336.596663 190.689354 
L 336.836194 190.660144 
L 338.022444 190.173282 
L 345.938377 190.224347 
L 388.301165 190.227409 
L 388.301165 190.227409 
" clip-path="url(#p63f644f74c)" style="fill: none; stroke: #5ea04b; stroke-width: 1.5; stroke-linecap: square"/>
   </g>
   <g id="line2d_14">
    <path d="M 90.32446 171.798394 
L 90.96321 69.335238 
L 90.997429 70.238298 
L 91.111491 81.049576 
L 91.944147 180.176239 
L 92.160865 183.272235 
L 92.195084 183.290072 
L 92.229303 183.222096 
L 92.354772 182.442454 
L 93.130396 176.624648 
L 93.369927 176.339274 
L 93.620865 176.383856 
L 94.464927 176.669148 
L 96.438207 176.665626 
L 104.525233 176.664591 
L 104.856014 137.157606 
L 104.890233 136.959755 
L 104.935858 137.488266 
L 105.072733 142.84092 
L 105.77992 175.010651 
L 106.019451 177.166934 
L 106.122107 177.274761 
L 106.156326 177.244382 
L 106.316014 176.838694 
L 106.954763 175.028845 
L 107.239919 174.866348 
L 107.639138 174.942001 
L 108.642887 175.144414 
L 111.015386 175.515447 
L 113.228197 176.086527 
L 115.258508 176.838432 
L 117.19757 177.794196 
L 119.113819 178.988944 
L 121.109911 180.502146 
L 123.334129 182.478401 
L 126.425221 185.556774 
L 130.793812 189.872562 
L 133.154904 191.877359 
L 135.322091 193.430253 
L 137.500683 194.718351 
L 139.804744 195.820922 
L 142.302712 196.768781 
L 144.846304 197.500967 
L 147.059115 197.916821 
L 148.872708 198.039109 
L 150.480988 197.926344 
L 152.123487 197.582062 
L 157.849422 196.147391 
L 159.560358 196.112618 
L 161.373951 196.299766 
L 163.301606 196.724756 
L 165.35473 197.408512 
L 167.578947 198.387861 
L 170.054102 199.727273 
L 172.882851 201.519807 
L 176.259099 203.933799 
L 180.787377 207.466099 
L 192.775339 216.94295 
L 196.778931 219.747053 
L 200.337679 221.972726 
L 203.668302 223.796557 
L 206.884862 225.306116 
L 210.067204 226.555148 
L 213.32939 227.595496 
L 216.831107 228.474837 
L 221.04001 229.290782 
L 226.640476 230.141819 
L 229.708755 230.413133 
L 231.944379 230.391143 
L 234.122972 230.143634 
L 236.928908 229.580755 
L 243.362029 228.234234 
L 247.069058 227.734845 
L 251.129681 227.417263 
L 255.543897 227.296736 
L 259.844051 227.397691 
L 263.73358 227.707977 
L 271.524044 228.449239 
L 272.710293 228.222327 
L 273.736855 227.800602 
L 274.706386 227.15811 
L 275.698729 226.224485 
L 276.805135 224.859944 
L 278.219509 222.727651 
L 282.257319 216.426802 
L 283.637475 214.79777 
L 284.92638 213.611959 
L 286.181067 212.752617 
L 287.458566 212.144 
L 288.793097 211.754218 
L 290.230283 211.567915 
L 291.827157 211.589216 
L 293.663563 211.84314 
L 295.853561 212.379885 
L 298.625279 213.300819 
L 302.651683 214.89624 
L 324.334951 224.043981 
L 327.460262 225.690967 
L 330.368854 227.48096 
L 331.555103 228.271954 
L 331.56651 228.148913 
L 331.84026 226.43494 
L 331.977134 226.410572 
L 332.079791 226.346406 
L 332.182447 225.770621 
L 332.330728 223.336487 
L 332.593072 214.349347 
L 333.516977 180.120271 
L 333.790727 177.094671 
L 333.881977 176.911964 
L 333.927602 176.956779 
L 334.053071 177.470856 
L 334.338227 179.901007 
L 334.851508 183.850266 
L 335.136664 184.619375 
L 335.353383 184.692571 
L 335.638539 184.482745 
L 336.254476 184.039751 
L 336.744944 183.999192 
L 339.174474 184.060908 
L 388.301165 184.082988 
L 388.301165 184.082988 
" clip-path="url(#p63f644f74c)" style="fill: none; stroke: #bdab62; stroke-width: 1.5; stroke-linecap: square"/>
   </g>
   <g id="patch_3">
    <path d="M 75.425625 241.036875 
L 75.425625 10.8 
" style="fill: none; stroke: #000000; stroke-width: 0.8; stroke-linejoin: miter; stroke-linecap: square"/>
   </g>
   <g id="patch_4">
    <path d="M 403.2 241.036875 
L 403.2 10.8 
" style="fill: none; stroke: #000000; stroke-width: 0.8; stroke-linejoin: miter; stroke-linecap: square"/>
   </g>
   <g id="patch_5">
    <path d="M 75.425625 241.036875 
L 403.2 241.036875 
" style="fill: none; stroke: #000000; stroke-width: 0.8; stroke-linejoin: miter; stroke-linecap: square"/>
   </g>
   <g id="patch_6">
    <path d="M 75.425625 10.8 
L 403.2 10.8 
" style="fill: none; stroke: #000000; stroke-width: 0.8; stroke-linejoin: miter; stroke-linecap: square"/>
   </g>
   <g id="legend_1">
    <g id="patch_7">
     <path d="M 356.85 236.536875 
L 396.9 236.536875 
Q 398.7 236.536875 398.7 234.736875 
L 398.7 196.005938 
Q 398.7 194.205938 396.9 194.205938 
L 356.85 194.205938 
Q 355.05 194.205938 355.05 196.005938 
L 355.05 234.736875 
Q 355.05 236.536875 356.85 236.536875 
z
" style="fill: #ffffff; opacity: 0.8; stroke: #cccccc; stroke-linejoin: miter"/>
    </g>
    <g id="line2d_15">
     <path d="M 358.65 201.494531 
L 367.65 201.494531 
L 376.65 201.494531 
" style="fill: none; stroke: #2b737e; stroke-width: 1.5; stroke-linecap: square"/>
    </g>
    <g id="text_14">
     <!-- $\Omega_{0}$ -->
     <g transform="translate(383.85 204.644531) scale(0.09 -0.09)">
      <defs>
       <path id="DejaVuSans-3a9" d="M 4647 556 
L 4647 0 
L 2772 0 
L 2772 556 
Q 3325 859 3634 1378 
Q 3944 1897 3944 2528 
Q 3944 3278 3531 3731 
Q 3119 4184 2444 4184 
Q 1769 4184 1355 3729 
Q 941 3275 941 2528 
Q 941 1897 1250 1378 
Q 1563 859 2119 556 
L 2119 0 
L 244 0 
L 244 556 
L 1241 556 
Q 747 991 519 1456 
Q 294 1922 294 2497 
Q 294 3491 894 4106 
Q 1491 4722 2444 4722 
Q 3391 4722 3994 4106 
Q 4594 3494 4594 2528 
Q 4594 1922 4372 1459 
Q 4150 997 3647 556 
L 4647 556 
z
" transform="scale(0.015625)"/>
      </defs>
      <use xlink:href="#DejaVuSans-3a9" transform="translate(0 0.21875)"/>
      <use xlink:href="#DejaVuSans-30" transform="translate(77.373047 -16.1875) scale(0.7)"/>
     </g>
    </g>
    <g id="line2d_16">
     <path d="M 358.65 214.704844 
L 367.65 214.704844 
L 376.65 214.704844 
" style="fill: none; stroke: #5ea04b; stroke-width: 1.5; stroke-linecap: square"/>
    </g>
    <g id="text_15">
     <!-- $\Omega_{1}$ -->
     <g transform="translate(383.85 217.854844) scale(0.09 -0.09)">
      <use xlink:href="#DejaVuSans-3a9" transform="translate(0 0.21875)"/>
      <use xlink:href="#DejaVuSans-31" transform="translate(77.373047 -16.1875) scale(0.7)"/>
     </g>
    </g>
    <g id="line2d_17">
     <path d="M 358.65 227.915156 
L 367.65 227.915156 
L 376.65 227.915156 
" style="fill: none; stroke: #bdab62; stroke-width: 1.5; stroke-linecap: square"/>
    </g>
    <g id="text_16">
     <!-- $\Omega_{2}$ -->
     <g transform="translate(383.85 231.065156) scale(0.09 -0.09)">
      <use xlink:href="#DejaVuSans-3a9" transform="translate(0 0.21875)"/>
      <use xlink:href="#DejaVuSans-32" transform="translate(77.373047 -16.1875) scale(0.7)"/>
     </g>
    </g>
   </g>
  </g>
 </g>
 <defs>
  <clipPath id="p63f644f74c">
   <rect x="75.425625" y="10.8" width="327.774375" height="230.236875"/>
  </clipPath>
 </defs>
</svg>
