<?xml version="1.0" encoding="utf-8" standalone="no"?>
<!DOCTYPE svg PUBLIC "-//W3C//DTD SVG 1.1//EN"
  "http://www.w3.org/Graphics/SVG/1.1/DTD/svg11.dtd">
<svg xmlns:xlink="http://www.w3.org/1999/xlink" width="414pt" height="180pt" viewBox="0 0 414 180" xmlns="http://www.w3.org/2000/svg" version="1.1">
 <metadata>
  <rdf:RDF xmlns:dc="http://purl.org/dc/elements/1.1/" xmlns:cc="http://creativecommons.org/ns#" xmlns:rdf="http://www.w3.org/1999/02/22-rdf-syntax-ns#">
   <cc:Work>
    <dc:type rdf:resource="http://purl.org/dc/dcmitype/StillImage"/>
    <dc:date>2026-07-24T16:31:24.871744</dc:date>
    <dc:format>image/svg+xml</dc:format>
    <dc:creator>
     <cc:Agent>
      <dc:title>Matplotlib v3.10.9, https://matplotlib.org/</dc:title>
     </cc:Agent>
    </dc:creator>
   </cc:Work>
  </rdf:RDF>
 </metadata>
 <defs>
  <style type="text/css">*{stroke-linejoin: round; stroke-linecap: butt}</style>
 </defs>
 <g id="figure_1">
  <g id="patch_1">
   <path d="M 0 180 
L 414 180 
L 414 0 
L 0 0 
L 0 180 
z
" style="fill: none"/>
  </g>
  <g id="axes_1">
   <g id="patch_2">
    <path d="M 67.808125 139.811563 
L 403.2 139.811563 
L 403.2 10.8 
L 67.808125 10.8 
L 67.808125 139.811563 
z
" style="fill: none"/>
   </g>
   <g id="matplotlib.axis_1">
    <g id="xtick_1">
     <g id="line2d_1">
      <defs>
       <path id="m4d734f58ad" d="M 0 0 
L 0 3.5 
" style="stroke: #000000; stroke-width: 0.8"/>
      </defs>
      <g>
       <use xlink:href="#m4d734f58ad" x="83.05321" y="139.811563" style="stroke: #000000; stroke-width: 0.8"/>
      </g>
     </g>
     <g id="text_1">
      <!-- 0 -->
      <g transform="translate(80.190085 153.650156) scale(0.09 -0.09)">
       <defs>
        <path id="DejaVuSans-30" d="M 2034 4250 
Q 1547 4250 1301 3770 
Q 1056 3291 1056 2328 
Q 1056 1369 1301 889 
Q 1547 409 2034 409 
Q 2525 409 2770 889 
Q 3016 1369 3016 2328 
Q 3016 3291 2770 3770 
Q 2525 4250 2034 4250 
z
M 2034 4750 
Q 2819 4750 3233 4129 
Q 3647 3509 3647 2328 
Q 3647 1150 3233 529 
Q 2819 -91 2034 -91 
Q 1250 -91 836 529 
Q 422 1150 422 2328 
Q 422 3509 836 4129 
Q 1250 4750 2034 4750 
z
" transform="scale(0.015625)"/>
       </defs>
       <use xlink:href="#DejaVuSans-30"/>
      </g>
     </g>
    </g>
    <g id="xtick_2">
     <g id="line2d_2">
      <g>
       <use xlink:href="#m4d734f58ad" x="144.033551" y="139.811563" style="stroke: #000000; stroke-width: 0.8"/>
      </g>
     </g>
     <g id="text_2">
      <!-- 2 -->
      <g transform="translate(141.170426 153.650156) scale(0.09 -0.09)">
       <defs>
        <path id="DejaVuSans-32" d="M 1228 531 
L 3431 531 
L 3431 0 
L 469 0 
L 469 531 
Q 828 903 1448 1529 
Q 2069 2156 2228 2338 
Q 2531 2678 2651 2914 
Q 2772 3150 2772 3378 
Q 2772 3750 2511 3984 
Q 2250 4219 1831 4219 
Q 1534 4219 1204 4116 
Q 875 4013 500 3803 
L 500 4441 
Q 881 4594 1212 4672 
Q 1544 4750 1819 4750 
Q 2544 4750 2975 4387 
Q 3406 4025 3406 3419 
Q 3406 3131 3298 2873 
Q 3191 2616 2906 2266 
Q 2828 2175 2409 1742 
Q 1991 1309 1228 531 
z
" transform="scale(0.015625)"/>
       </defs>
       <use xlink:href="#DejaVuSans-32"/>
      </g>
     </g>
    </g>
    <g id="xtick_3">
     <g id="line2d_3">
      <g>
       <use xlink:href="#m4d734f58ad" x="205.013892" y="139.811563" style="stroke: #000000; stroke-width: 0.8"/>
      </g>
     </g>
     <g id="text_3">
      <!-- 4 -->
      <g transform="translate(202.150767 153.650156) scale(0.09 -0.09)">
       <defs>
        <path id="DejaVuSans-34" d="M 2419 4116 
L 825 1625 
L 2419 1625 
L 2419 4116 
z
M 2253 4666 
L 3047 4666 
L 3047 1625 
L 3713 1625 
L 3713 1100 
L 3047 1100 
L 3047 0 
L 2419 0 
L 2419 1100 
L 313 1100 
L 313 1709 
L 2253 4666 
z
" transform="scale(0.015625)"/>
       </defs>
       <use xlink:href="#DejaVuSans-34"/>
      </g>
     </g>
    </g>
    <g id="xtick_4">
     <g id="line2d_4">
      <g>
       <use xlink:href="#m4d734f58ad" x="265.994233" y="139.811563" style="stroke: #000000; stroke-width: 0.8"/>
      </g>
     </g>
     <g id="text_4">
      <!-- 6 -->
      <g transform="translate(263.131108 153.650156) scale(0.09 -0.09)">
       <defs>
        <path id="DejaVuSans-36" d="M 2113 2584 
Q 1688 2584 1439 2293 
Q 1191 2003 1191 1497 
Q 1191 994 1439 701 
Q 1688 409 2113 409 
Q 2538 409 2786 701 
Q 3034 994 3034 1497 
Q 3034 2003 2786 2293 
Q 2538 2584 2113 2584 
z
M 3366 4563 
L 3366 3988 
Q 3128 4100 2886 4159 
Q 2644 4219 2406 4219 
Q 1781 4219 1451 3797 
Q 1122 3375 1075 2522 
Q 1259 2794 1537 2939 
Q 1816 3084 2150 3084 
Q 2853 3084 3261 2657 
Q 3669 2231 3669 1497 
Q 3669 778 3244 343 
Q 2819 -91 2113 -91 
Q 1303 -91 875 529 
Q 447 1150 447 2328 
Q 447 3434 972 4092 
Q 1497 4750 2381 4750 
Q 2619 4750 2861 4703 
Q 3103 4656 3366 4563 
z
" transform="scale(0.015625)"/>
       </defs>
       <use xlink:href="#DejaVuSans-36"/>
      </g>
     </g>
    </g>
    <g id="xtick_5">
     <g id="line2d_5">
      <g>
       <use xlink:href="#m4d734f58ad" x="326.974574" y="139.811563" style="stroke: #000000; stroke-width: 0.8"/>
      </g>
     </g>
     <g id="text_5">
      <!-- 8 -->
      <g transform="translate(324.111449 153.650156) scale(0.09 -0.09)">
       <defs>
        <path id="DejaVuSans-38" d="M 2034 2216 
Q 1584 2216 1326 1975 
Q 1069 1734 1069 1313 
Q 1069 891 1326 650 
Q 1584 409 2034 409 
Q 2484 409 2743 651 
Q 3003 894 3003 1313 
Q 3003 1734 2745 1975 
Q 2488 2216 2034 2216 
z
M 1403 2484 
Q 997 2584 770 2862 
Q 544 3141 544 3541 
Q 544 4100 942 4425 
Q 1341 4750 2034 4750 
Q 2731 4750 3128 4425 
Q 3525 4100 3525 3541 
Q 3525 3141 3298 2862 
Q 3072 2584 2669 2484 
Q 3125 2378 3379 2068 
Q 3634 1759 3634 1313 
Q 3634 634 3220 271 
Q 2806 -91 2034 -91 
Q 1263 -91 848 271 
Q 434 634 434 1313 
Q 434 1759 690 2068 
Q 947 2378 1403 2484 
z
M 1172 3481 
Q 1172 3119 1398 2916 
Q 1625 2713 2034 2713 
Q 2441 2713 2670 2916 
Q 2900 3119 2900 3481 
Q 2900 3844 2670 4047 
Q 2441 4250 2034 4250 
Q 1625 4250 1398 4047 
Q 1172 3844 1172 3481 
z
" transform="scale(0.015625)"/>
       </defs>
       <use xlink:href="#DejaVuSans-38"/>
      </g>
     </g>
    </g>
    <g id="xtick_6">
     <g id="line2d_6">
      <g>
       <use xlink:href="#m4d734f58ad" x="387.954915" y="139.811563" style="stroke: #000000; stroke-width: 0.8"/>
      </g>
     </g>
     <g id="text_6">
      <!-- 10 -->
      <g transform="translate(382.228665 153.650156) scale(0.09 -0.09)">
       <defs>
        <path id="DejaVuSans-31" d="M 794 531 
L 1825 531 
L 1825 4091 
L 703 3866 
L 703 4441 
L 1819 4666 
L 2450 4666 
L 2450 531 
L 3481 531 
L 3481 0 
L 794 0 
L 794 531 
z
" transform="scale(0.015625)"/>
       </defs>
       <use xlink:href="#DejaVuSans-31"/>
       <use xlink:href="#DejaVuSans-30" transform="translate(63.623047 0)"/>
      </g>
     </g>
    </g>
    <g id="text_7">
     <!-- Time [sec] -->
     <g transform="translate(209.349375 167.120313) scale(0.1 -0.1)">
      <defs>
       <path id="DejaVuSans-54" d="M -19 4666 
L 3928 4666 
L 3928 4134 
L 2272 4134 
L 2272 0 
L 1638 0 
L 1638 4134 
L -19 4134 
L -19 4666 
z
" transform="scale(0.015625)"/>
       <path id="DejaVuSans-69" d="M 603 3500 
L 1178 3500 
L 1178 0 
L 603 0 
L 603 3500 
z
M 603 4863 
L 1178 4863 
L 1178 4134 
L 603 4134 
L 603 4863 
z
" transform="scale(0.015625)"/>
       <path id="DejaVuSans-6d" d="M 3328 2828 
Q 3544 3216 3844 3400 
Q 4144 3584 4550 3584 
Q 5097 3584 5394 3201 
Q 5691 2819 5691 2113 
L 5691 0 
L 5113 0 
L 5113 2094 
Q 5113 2597 4934 2840 
Q 4756 3084 4391 3084 
Q 3944 3084 3684 2787 
Q 3425 2491 3425 1978 
L 3425 0 
L 2847 0 
L 2847 2094 
Q 2847 2600 2669 2842 
Q 2491 3084 2119 3084 
Q 1678 3084 1418 2786 
Q 1159 2488 1159 1978 
L 1159 0 
L 581 0 
L 581 3500 
L 1159 3500 
L 1159 2956 
Q 1356 3278 1631 3431 
Q 1906 3584 2284 3584 
Q 2666 3584 2933 3390 
Q 3200 3197 3328 2828 
z
" transform="scale(0.015625)"/>
       <path id="DejaVuSans-65" d="M 3597 1894 
L 3597 1613 
L 953 1613 
Q 991 1019 1311 708 
Q 1631 397 2203 397 
Q 2534 397 2845 478 
Q 3156 559 3463 722 
L 3463 178 
Q 3153 47 2828 -22 
Q 2503 -91 2169 -91 
Q 1331 -91 842 396 
Q 353 884 353 1716 
Q 353 2575 817 3079 
Q 1281 3584 2069 3584 
Q 2775 3584 3186 3129 
Q 3597 2675 3597 1894 
z
M 3022 2063 
Q 3016 2534 2758 2815 
Q 2500 3097 2075 3097 
Q 1594 3097 1305 2825 
Q 1016 2553 972 2059 
L 3022 2063 
z
" transform="scale(0.015625)"/>
       <path id="DejaVuSans-20" transform="scale(0.015625)"/>
       <path id="DejaVuSans-5b" d="M 550 4863 
L 1875 4863 
L 1875 4416 
L 1125 4416 
L 1125 -397 
L 1875 -397 
L 1875 -844 
L 550 -844 
L 550 4863 
z
" transform="scale(0.015625)"/>
       <path id="DejaVuSans-73" d="M 2834 3397 
L 2834 2853 
Q 2591 2978 2328 3040 
Q 2066 3103 1784 3103 
Q 1356 3103 1142 2972 
Q 928 2841 928 2578 
Q 928 2378 1081 2264 
Q 1234 2150 1697 2047 
L 1894 2003 
Q 2506 1872 2764 1633 
Q 3022 1394 3022 966 
Q 3022 478 2636 193 
Q 2250 -91 1575 -91 
Q 1294 -91 989 -36 
Q 684 19 347 128 
L 347 722 
Q 666 556 975 473 
Q 1284 391 1588 391 
Q 1994 391 2212 530 
Q 2431 669 2431 922 
Q 2431 1156 2273 1281 
Q 2116 1406 1581 1522 
L 1381 1569 
Q 847 1681 609 1914 
Q 372 2147 372 2553 
Q 372 3047 722 3315 
Q 1072 3584 1716 3584 
Q 2034 3584 2315 3537 
Q 2597 3491 2834 3397 
z
" transform="scale(0.015625)"/>
       <path id="DejaVuSans-63" d="M 3122 3366 
L 3122 2828 
Q 2878 2963 2633 3030 
Q 2388 3097 2138 3097 
Q 1578 3097 1268 2742 
Q 959 2388 959 1747 
Q 959 1106 1268 751 
Q 1578 397 2138 397 
Q 2388 397 2633 464 
Q 2878 531 3122 666 
L 3122 134 
Q 2881 22 2623 -34 
Q 2366 -91 2075 -91 
Q 1284 -91 818 406 
Q 353 903 353 1747 
Q 353 2603 823 3093 
Q 1294 3584 2113 3584 
Q 2378 3584 2631 3529 
Q 2884 3475 3122 3366 
z
" transform="scale(0.015625)"/>
       <path id="DejaVuSans-5d" d="M 1947 4863 
L 1947 -844 
L 622 -844 
L 622 -397 
L 1369 -397 
L 1369 4416 
L 622 4416 
L 622 4863 
L 1947 4863 
z
" transform="scale(0.015625)"/>
      </defs>
      <use xlink:href="#DejaVuSans-54"/>
      <use xlink:href="#DejaVuSans-69" transform="translate(57.958984 0)"/>
      <use xlink:href="#DejaVuSans-6d" transform="translate(85.742188 0)"/>
      <use xlink:href="#DejaVuSans-65" transform="translate(183.154297 0)"/>
      <use xlink:href="#DejaVuSans-20" transform="translate(244.677734 0)"/>
      <use xlink:href="#DejaVuSans-5b" transform="translate(276.464844 0)"/>
      <use xlink:href="#DejaVuSans-73" transform="translate(315.478516 0)"/>
      <use xlink:href="#DejaVuSans-65" transform="translate(367.578125 0)"/>
      <use xlink:href="#DejaVuSans-63" transform="translate(429.101562 0)"/>
      <use xlink:href="#DejaVuSans-5d" transform="translate(484.082031 0)"/>
     </g>
    </g>
   </g>
   <g id="matplotlib.axis_2">
    <g id="ytick_1">
     <g id="line2d_7">
      <defs>
       <path id="ma82398d49b" d="M 0 0 
L -3.5 0 
" style="stroke: #000000; stroke-width: 0.8"/>
      </defs>
      <g>
       <use xlink:href="#ma82398d49b" x="67.808125" y="114.485883" style="stroke: #000000; stroke-width: 0.8"/>
      </g>
     </g>
     <g id="text_8">
      <!-- $\mathdefault{10^{-10}}$ -->
      <g transform="translate(35.698125 117.90518) scale(0.09 -0.09)">
       <defs>
        <path id="DejaVuSans-2212" d="M 678 2272 
L 4684 2272 
L 4684 1741 
L 678 1741 
L 678 2272 
z
" transform="scale(0.015625)"/>
       </defs>
       <use xlink:href="#DejaVuSans-31" transform="translate(0 0.765625)"/>
       <use xlink:href="#DejaVuSans-30" transform="translate(63.623047 0.765625)"/>
       <use xlink:href="#DejaVuSans-2212" transform="translate(128.203125 39.046875) scale(0.7)"/>
       <use xlink:href="#DejaVuSans-31" transform="translate(186.855469 39.046875) scale(0.7)"/>
       <use xlink:href="#DejaVuSans-30" transform="translate(231.391602 39.046875) scale(0.7)"/>
      </g>
     </g>
    </g>
    <g id="ytick_2">
     <g id="line2d_8">
      <g>
       <use xlink:href="#ma82398d49b" x="67.808125" y="85.737101" style="stroke: #000000; stroke-width: 0.8"/>
      </g>
     </g>
     <g id="text_9">
      <!-- $\mathdefault{10^{-8}}$ -->
      <g transform="translate(39.658125 89.156398) scale(0.09 -0.09)">
       <use xlink:href="#DejaVuSans-31" transform="translate(0 0.765625)"/>
       <use xlink:href="#DejaVuSans-30" transform="translate(63.623047 0.765625)"/>
       <use xlink:href="#DejaVuSans-2212" transform="translate(128.203125 39.046875) scale(0.7)"/>
       <use xlink:href="#DejaVuSans-38" transform="translate(186.855469 39.046875) scale(0.7)"/>
      </g>
     </g>
    </g>
    <g id="ytick_3">
     <g id="line2d_9">
      <g>
       <use xlink:href="#ma82398d49b" x="67.808125" y="56.988318" style="stroke: #000000; stroke-width: 0.8"/>
      </g>
     </g>
     <g id="text_10">
      <!-- $\mathdefault{10^{-6}}$ -->
      <g transform="translate(39.658125 60.407615) scale(0.09 -0.09)">
       <use xlink:href="#DejaVuSans-31" transform="translate(0 0.765625)"/>
       <use xlink:href="#DejaVuSans-30" transform="translate(63.623047 0.765625)"/>
       <use xlink:href="#DejaVuSans-2212" transform="translate(128.203125 39.046875) scale(0.7)"/>
       <use xlink:href="#DejaVuSans-36" transform="translate(186.855469 39.046875) scale(0.7)"/>
      </g>
     </g>
    </g>
    <g id="ytick_4">
     <g id="line2d_10">
      <g>
       <use xlink:href="#ma82398d49b" x="67.808125" y="28.239536" style="stroke: #000000; stroke-width: 0.8"/>
      </g>
     </g>
     <g id="text_11">
      <!-- $\mathdefault{10^{-4}}$ -->
      <g transform="translate(39.658125 31.658833) scale(0.09 -0.09)">
       <use xlink:href="#DejaVuSans-31" transform="translate(0 0.684375)"/>
       <use xlink:href="#DejaVuSans-30" transform="translate(63.623047 0.684375)"/>
       <use xlink:href="#DejaVuSans-2212" transform="translate(128.203125 38.965625) scale(0.7)"/>
       <use xlink:href="#DejaVuSans-34" transform="translate(186.855469 38.965625) scale(0.7)"/>
      </g>
     </g>
    </g>
    <g id="text_12">
     <!-- Attitude Constraint  -->
     <g transform="translate(18.398438 124.427656) rotate(-90) scale(0.1 -0.1)">
      <defs>
       <path id="DejaVuSans-41" d="M 2188 4044 
L 1331 1722 
L 3047 1722 
L 2188 4044 
z
M 1831 4666 
L 2547 4666 
L 4325 0 
L 3669 0 
L 3244 1197 
L 1141 1197 
L 716 0 
L 50 0 
L 1831 4666 
z
" transform="scale(0.015625)"/>
       <path id="DejaVuSans-74" d="M 1172 4494 
L 1172 3500 
L 2356 3500 
L 2356 3053 
L 1172 3053 
L 1172 1153 
Q 1172 725 1289 603 
Q 1406 481 1766 481 
L 2356 481 
L 2356 0 
L 1766 0 
Q 1100 0 847 248 
Q 594 497 594 1153 
L 594 3053 
L 172 3053 
L 172 3500 
L 594 3500 
L 594 4494 
L 1172 4494 
z
" transform="scale(0.015625)"/>
       <path id="DejaVuSans-75" d="M 544 1381 
L 544 3500 
L 1119 3500 
L 1119 1403 
Q 1119 906 1312 657 
Q 1506 409 1894 409 
Q 2359 409 2629 706 
Q 2900 1003 2900 1516 
L 2900 3500 
L 3475 3500 
L 3475 0 
L 2900 0 
L 2900 538 
Q 2691 219 2414 64 
Q 2138 -91 1772 -91 
Q 1169 -91 856 284 
Q 544 659 544 1381 
z
M 1991 3584 
L 1991 3584 
z
" transform="scale(0.015625)"/>
       <path id="DejaVuSans-64" d="M 2906 2969 
L 2906 4863 
L 3481 4863 
L 3481 0 
L 2906 0 
L 2906 525 
Q 2725 213 2448 61 
Q 2172 -91 1784 -91 
Q 1150 -91 751 415 
Q 353 922 353 1747 
Q 353 2572 751 3078 
Q 1150 3584 1784 3584 
Q 2172 3584 2448 3432 
Q 2725 3281 2906 2969 
z
M 947 1747 
Q 947 1113 1208 752 
Q 1469 391 1925 391 
Q 2381 391 2643 752 
Q 2906 1113 2906 1747 
Q 2906 2381 2643 2742 
Q 2381 3103 1925 3103 
Q 1469 3103 1208 2742 
Q 947 2381 947 1747 
z
" transform="scale(0.015625)"/>
       <path id="DejaVuSans-43" d="M 4122 4306 
L 4122 3641 
Q 3803 3938 3442 4084 
Q 3081 4231 2675 4231 
Q 1875 4231 1450 3742 
Q 1025 3253 1025 2328 
Q 1025 1406 1450 917 
Q 1875 428 2675 428 
Q 3081 428 3442 575 
Q 3803 722 4122 1019 
L 4122 359 
Q 3791 134 3420 21 
Q 3050 -91 2638 -91 
Q 1578 -91 968 557 
Q 359 1206 359 2328 
Q 359 3453 968 4101 
Q 1578 4750 2638 4750 
Q 3056 4750 3426 4639 
Q 3797 4528 4122 4306 
z
" transform="scale(0.015625)"/>
       <path id="DejaVuSans-6f" d="M 1959 3097 
Q 1497 3097 1228 2736 
Q 959 2375 959 1747 
Q 959 1119 1226 758 
Q 1494 397 1959 397 
Q 2419 397 2687 759 
Q 2956 1122 2956 1747 
Q 2956 2369 2687 2733 
Q 2419 3097 1959 3097 
z
M 1959 3584 
Q 2709 3584 3137 3096 
Q 3566 2609 3566 1747 
Q 3566 888 3137 398 
Q 2709 -91 1959 -91 
Q 1206 -91 779 398 
Q 353 888 353 1747 
Q 353 2609 779 3096 
Q 1206 3584 1959 3584 
z
" transform="scale(0.015625)"/>
       <path id="DejaVuSans-6e" d="M 3513 2113 
L 3513 0 
L 2938 0 
L 2938 2094 
Q 2938 2591 2744 2837 
Q 2550 3084 2163 3084 
Q 1697 3084 1428 2787 
Q 1159 2491 1159 1978 
L 1159 0 
L 581 0 
L 581 3500 
L 1159 3500 
L 1159 2956 
Q 1366 3272 1645 3428 
Q 1925 3584 2291 3584 
Q 2894 3584 3203 3211 
Q 3513 2838 3513 2113 
z
" transform="scale(0.015625)"/>
       <path id="DejaVuSans-72" d="M 2631 2963 
Q 2534 3019 2420 3045 
Q 2306 3072 2169 3072 
Q 1681 3072 1420 2755 
Q 1159 2438 1159 1844 
L 1159 0 
L 581 0 
L 581 3500 
L 1159 3500 
L 1159 2956 
Q 1341 3275 1631 3429 
Q 1922 3584 2338 3584 
Q 2397 3584 2469 3576 
Q 2541 3569 2628 3553 
L 2631 2963 
z
" transform="scale(0.015625)"/>
       <path id="DejaVuSans-61" d="M 2194 1759 
Q 1497 1759 1228 1600 
Q 959 1441 959 1056 
Q 959 750 1161 570 
Q 1363 391 1709 391 
Q 2188 391 2477 730 
Q 2766 1069 2766 1631 
L 2766 1759 
L 2194 1759 
z
M 3341 1997 
L 3341 0 
L 2766 0 
L 2766 531 
Q 2569 213 2275 61 
Q 1981 -91 1556 -91 
Q 1019 -91 701 211 
Q 384 513 384 1019 
Q 384 1609 779 1909 
Q 1175 2209 1959 2209 
L 2766 2209 
L 2766 2266 
Q 2766 2663 2505 2880 
Q 2244 3097 1772 3097 
Q 1472 3097 1187 3025 
Q 903 2953 641 2809 
L 641 3341 
Q 956 3463 1253 3523 
Q 1550 3584 1831 3584 
Q 2591 3584 2966 3190 
Q 3341 2797 3341 1997 
z
" transform="scale(0.015625)"/>
      </defs>
      <use xlink:href="#DejaVuSans-41"/>
      <use xlink:href="#DejaVuSans-74" transform="translate(66.658203 0)"/>
      <use xlink:href="#DejaVuSans-74" transform="translate(105.867188 0)"/>
      <use xlink:href="#DejaVuSans-69" transform="translate(145.076172 0)"/>
      <use xlink:href="#DejaVuSans-74" transform="translate(172.859375 0)"/>
      <use xlink:href="#DejaVuSans-75" transform="translate(212.068359 0)"/>
      <use xlink:href="#DejaVuSans-64" transform="translate(275.447266 0)"/>
      <use xlink:href="#DejaVuSans-65" transform="translate(338.923828 0)"/>
      <use xlink:href="#DejaVuSans-20" transform="translate(400.447266 0)"/>
      <use xlink:href="#DejaVuSans-43" transform="translate(432.234375 0)"/>
      <use xlink:href="#DejaVuSans-6f" transform="translate(502.058594 0)"/>
      <use xlink:href="#DejaVuSans-6e" transform="translate(563.240234 0)"/>
      <use xlink:href="#DejaVuSans-73" transform="translate(626.619141 0)"/>
      <use xlink:href="#DejaVuSans-74" transform="translate(678.71875 0)"/>
      <use xlink:href="#DejaVuSans-72" transform="translate(717.927734 0)"/>
      <use xlink:href="#DejaVuSans-61" transform="translate(759.041016 0)"/>
      <use xlink:href="#DejaVuSans-69" transform="translate(820.320312 0)"/>
      <use xlink:href="#DejaVuSans-6e" transform="translate(848.103516 0)"/>
      <use xlink:href="#DejaVuSans-74" transform="translate(911.482422 0)"/>
      <use xlink:href="#DejaVuSans-20" transform="translate(950.691406 0)"/>
     </g>
     <!-- Violation $\phi$ [deg] -->
     <g transform="translate(29.598125 117.055781) rotate(-90) scale(0.1 -0.1)">
      <defs>
       <path id="DejaVuSans-56" d="M 1831 0 
L 50 4666 
L 709 4666 
L 2188 738 
L 3669 4666 
L 4325 4666 
L 2547 0 
L 1831 0 
z
" transform="scale(0.015625)"/>
       <path id="DejaVuSans-6c" d="M 603 4863 
L 1178 4863 
L 1178 0 
L 603 0 
L 603 4863 
z
" transform="scale(0.015625)"/>
       <path id="DejaVuSans-Oblique-3d5" d="M 2991 4863 
L 2738 3572 
Q 3363 3572 3684 3094 
Q 4016 2606 3850 1747 
Q 3681 888 3159 400 
Q 2653 -78 2028 -78 
L 1784 -1331 
L 1213 -1331 
L 1456 -78 
Q 834 -78 509 400 
Q 178 888 347 1747 
Q 513 2606 1034 3094 
Q 1544 3572 2166 3572 
L 2419 4863 
L 2991 4863 
z
M 2128 434 
Q 2481 434 2784 756 
Q 3116 1116 3244 1747 
Q 3369 2372 3169 2738 
Q 2991 3059 2638 3059 
L 2128 434 
z
M 1556 434 
L 2066 3059 
Q 1716 3059 1413 2738 
Q 1072 2372 953 1747 
Q 834 1116 1028 756 
Q 1203 434 1556 434 
z
" transform="scale(0.015625)"/>
       <path id="DejaVuSans-67" d="M 2906 1791 
Q 2906 2416 2648 2759 
Q 2391 3103 1925 3103 
Q 1463 3103 1205 2759 
Q 947 2416 947 1791 
Q 947 1169 1205 825 
Q 1463 481 1925 481 
Q 2391 481 2648 825 
Q 2906 1169 2906 1791 
z
M 3481 434 
Q 3481 -459 3084 -895 
Q 2688 -1331 1869 -1331 
Q 1566 -1331 1297 -1286 
Q 1028 -1241 775 -1147 
L 775 -588 
Q 1028 -725 1275 -790 
Q 1522 -856 1778 -856 
Q 2344 -856 2625 -561 
Q 2906 -266 2906 331 
L 2906 616 
Q 2728 306 2450 153 
Q 2172 0 1784 0 
Q 1141 0 747 490 
Q 353 981 353 1791 
Q 353 2603 747 3093 
Q 1141 3584 1784 3584 
Q 2172 3584 2450 3431 
Q 2728 3278 2906 2969 
L 2906 3500 
L 3481 3500 
L 3481 434 
z
" transform="scale(0.015625)"/>
      </defs>
      <use xlink:href="#DejaVuSans-56" transform="translate(0 0.015625)"/>
      <use xlink:href="#DejaVuSans-69" transform="translate(68.408203 0.015625)"/>
      <use xlink:href="#DejaVuSans-6f" transform="translate(96.191406 0.015625)"/>
      <use xlink:href="#DejaVuSans-6c" transform="translate(157.373047 0.015625)"/>
      <use xlink:href="#DejaVuSans-61" transform="translate(185.15625 0.015625)"/>
      <use xlink:href="#DejaVuSans-74" transform="translate(246.435547 0.015625)"/>
      <use xlink:href="#DejaVuSans-69" transform="translate(285.644531 0.015625)"/>
      <use xlink:href="#DejaVuSans-6f" transform="translate(313.427734 0.015625)"/>
      <use xlink:href="#DejaVuSans-6e" transform="translate(374.609375 0.015625)"/>
      <use xlink:href="#DejaVuSans-20" transform="translate(437.988281 0.015625)"/>
      <use xlink:href="#DejaVuSans-Oblique-3d5" transform="translate(469.775391 0.015625)"/>
      <use xlink:href="#DejaVuSans-20" transform="translate(535.742188 0.015625)"/>
      <use xlink:href="#DejaVuSans-5b" transform="translate(567.529297 0.015625)"/>
      <use xlink:href="#DejaVuSans-64" transform="translate(606.542969 0.015625)"/>
      <use xlink:href="#DejaVuSans-65" transform="translate(670.019531 0.015625)"/>
      <use xlink:href="#DejaVuSans-67" transform="translate(731.542969 0.015625)"/>
      <use xlink:href="#DejaVuSans-5d" transform="translate(795.019531 0.015625)"/>
     </g>
    </g>
   </g>
   <g id="line2d_11">
    <path d="M 83.083412 181 
L 83.175171 29.059125 
L 83.388602 19.82804 
L 83.571543 18.151626 
L 83.632523 18.397936 
L 83.784974 20.817784 
L 83.967915 23.393874 
L 83.998406 23.245112 
L 84.150856 20.820521 
L 84.455758 17.035308 
L 84.516738 17.125009 
L 84.669189 18.303475 
L 84.913111 20.103893 
L 84.943601 20.056659 
L 85.065561 19.101726 
L 85.370463 16.680716 
L 85.431444 16.689859 
L 85.461934 16.753167 
L 85.614385 17.554589 
L 85.858306 18.891469 
L 85.888796 18.863751 
L 86.010757 18.300471 
L 86.346149 16.705389 
L 86.437619 16.864891 
L 86.65105 18.114849 
L 86.833991 18.830763 
L 86.864482 18.819581 
L 86.986442 18.408689 
L 87.291344 17.220115 
L 87.382814 17.408577 
L 87.596246 18.790436 
L 87.809677 19.811413 
L 87.901147 19.58093 
L 88.206049 18.279111 
L 88.267029 18.346247 
L 88.38899 18.974415 
L 88.754872 21.790586 
L 88.815852 21.63382 
L 89.120754 20.086816 
L 89.181734 20.171855 
L 89.303695 21.001336 
L 89.669577 25.476463 
L 89.761048 25.122133 
L 90.035459 23.195966 
L 90.065949 23.234283 
L 90.15742 23.830363 
L 90.309871 26.687056 
L 90.614773 36.776676 
L 90.675753 35.615822 
L 90.950164 30.11208 
L 91.011145 30.554223 
L 91.102615 33.150237 
L 91.224576 45.188247 
L 91.255066 37.993183 
L 91.438007 29.06764 
L 91.529478 28.376491 
L 91.590458 28.498467 
L 91.773399 30.310131 
L 91.864869 30.830865 
L 91.89536 30.751268 
L 92.01732 29.167524 
L 92.383202 23.99328 
L 92.505163 23.766436 
L 92.535653 23.803955 
L 92.810065 24.492198 
L 92.871045 24.407712 
L 93.023496 23.596471 
L 93.389378 21.678219 
L 93.511339 21.730035 
L 93.81624 22.211496 
L 93.846731 22.17937 
L 93.999181 21.716985 
L 94.334573 20.669054 
L 94.456534 20.767957 
L 94.791926 21.387817 
L 94.852906 21.32745 
L 95.096828 20.648359 
L 95.279769 20.424221 
L 95.401729 20.617803 
L 95.767611 21.422407 
L 95.798101 21.398314 
L 96.194474 20.819488 
L 96.255454 20.913697 
L 96.499375 21.769181 
L 96.712807 22.18364 
L 96.865257 21.996598 
L 97.048198 21.816606 
L 97.078689 21.836911 
L 97.200649 22.109032 
L 97.688492 23.769004 
L 97.749472 23.732311 
L 97.962904 23.664726 
L 98.084864 23.977938 
L 98.359276 25.658857 
L 98.633687 26.716572 
L 98.908099 27.011888 
L 99.06055 27.909162 
L 99.365451 31.598232 
L 99.639863 33.819697 
L 99.822804 34.928938 
L 99.975255 38.06989 
L 100.066725 43.442549 
L 100.097216 47.745113 
L 100.127706 76.358557 
L 100.188686 43.355172 
L 100.402117 35.140325 
L 100.646039 33.405475 
L 100.85947 32.076359 
L 101.438783 27.645968 
L 101.926626 26.640353 
L 102.353488 25.217941 
L 102.566919 25.209604 
L 102.71937 25.1422 
L 102.932801 24.68615 
L 103.237703 24.134635 
L 103.420644 24.206402 
L 103.664565 24.308246 
L 103.877997 24.061273 
L 104.152408 23.843219 
L 104.335349 24.015886 
L 104.640251 24.282141 
L 105.128094 24.285385 
L 105.798877 25.084579 
L 106.012309 25.311601 
L 106.408681 26.302328 
L 107.231915 28.394237 
L 108.146621 32.832864 
L 108.756424 39.393836 
L 108.908875 43.792022 
L 109.000345 51.78585 
L 109.030835 66.080631 
L 109.091816 48.484801 
L 109.305247 39.445896 
L 109.610149 36.10323 
L 110.341913 31.064622 
L 111.378579 28.45078 
L 111.744461 27.979261 
L 112.140833 27.477338 
L 113.116518 27.19119 
L 114.122694 27.700075 
L 115.12887 29.06509 
L 116.074065 31.420731 
L 116.866809 34.869721 
L 117.263181 38.220108 
L 117.598573 42.487904 
L 117.781514 47.943027 
L 117.872985 56.690213 
L 117.903475 78.139169 
L 117.964455 52.098252 
L 118.177887 43.15028 
L 118.513278 38.865431 
L 119.031611 35.140665 
L 119.458474 33.581147 
L 120.129258 31.862628 
L 120.861022 30.896176 
L 121.287884 30.638311 
L 122.019648 30.484887 
L 122.690432 30.75583 
L 123.086804 31.092058 
L 123.910039 32.19776 
L 124.641803 33.819116 
L 125.129645 35.453266 
L 125.678469 37.969668 
L 126.074841 41.010223 
L 126.410233 45.240783 
L 126.623664 51.235968 
L 126.715134 58.8959 
L 126.745624 69.115975 
L 126.806605 56.745311 
L 127.020036 46.885278 
L 127.355428 42.156949 
L 127.81278 38.864783 
L 128.300623 36.884189 
L 128.910427 35.323814 
L 129.45925 34.51311 
L 130.008073 34.018969 
L 130.617876 33.825188 
L 131.075229 33.887128 
L 131.715522 34.232812 
L 132.264345 34.823313 
L 132.843659 35.724815 
L 133.514442 37.271631 
L 134.063265 39.146376 
L 134.581598 41.724608 
L 134.977971 44.927952 
L 135.282872 49.227183 
L 135.465813 54.719465 
L 135.557284 62.314585 
L 135.587774 72.064406 
L 135.648754 60.368296 
L 135.862185 50.369329 
L 136.197577 45.514003 
L 136.62444 42.426819 
L 137.112282 40.358616 
L 137.691596 38.842142 
L 138.240419 37.972019 
L 138.819732 37.433952 
L 139.368555 37.236282 
L 139.856398 37.265258 
L 140.435711 37.547735 
L 140.984534 38.070231 
L 141.594338 38.959174 
L 142.204141 40.270959 
L 142.783454 42.057337 
L 143.301787 44.392267 
L 143.728649 47.375457 
L 144.064041 51.391561 
L 144.277473 56.523252 
L 144.399433 64.470253 
L 144.460414 72.48754 
L 144.490904 65.041262 
L 144.673845 54.840889 
L 144.978746 49.690921 
L 145.405609 46.275426 
L 145.893452 44.049411 
L 146.442275 42.513625 
L 147.021588 41.514815 
L 147.600901 40.9409 
L 148.149724 40.708149 
L 148.668057 40.717804 
L 149.21688 40.964221 
L 149.765703 41.450794 
L 150.375507 42.301776 
L 150.98531 43.5557 
L 151.564623 45.256748 
L 152.082956 47.463287 
L 152.509819 50.199059 
L 152.84521 53.698245 
L 153.089132 58.475017 
L 153.241583 66.116109 
L 153.302563 84.859965 
L 153.333053 71.485323 
L 153.515994 58.813908 
L 153.820896 53.375492 
L 154.217268 50.049964 
L 154.705111 47.712677 
L 155.253934 46.111462 
L 155.833247 45.068402 
L 156.41256 44.465525 
L 156.961383 44.205759 
L 157.479716 44.194182 
L 158.028539 44.416038 
L 158.607853 44.908457 
L 159.217656 45.741773 
L 159.827459 46.967777 
L 160.406773 48.62936 
L 160.955596 50.924812 
L 161.412948 53.875963 
L 161.74834 57.484982 
L 161.992262 62.57535 
L 162.114222 68.603582 
L 162.175203 78.81273 
L 162.236183 71.747593 
L 162.449614 61.058273 
L 162.785006 56.054658 
L 163.211868 52.939684 
L 163.730201 50.759924 
L 164.279024 49.342497 
L 164.858338 48.42261 
L 165.437651 47.908677 
L 165.986474 47.717235 
L 166.504807 47.765105 
L 167.05363 48.046362 
L 167.632943 48.606037 
L 168.242746 49.520244 
L 168.85255 50.85106 
L 169.431863 52.664133 
L 169.950196 55.043885 
L 170.377058 58.087821 
L 170.71245 62.256886 
L 170.925881 67.853566 
L 171.047842 78.391068 
L 171.078332 93.262766 
L 171.139313 73.288671 
L 171.352744 64.192746 
L 171.688136 59.412176 
L 172.114998 56.370842 
L 172.633331 54.225874 
L 173.182154 52.825589 
L 173.761467 51.914947 
L 174.340781 51.406175 
L 174.889604 51.216316 
L 175.407937 51.264247 
L 175.95676 51.543407 
L 176.536073 52.098543 
L 177.145876 53.004863 
L 177.75568 54.321817 
L 178.334993 56.111629 
L 178.853326 58.450191 
L 179.280188 61.414351 
L 179.61558 65.394069 
L 179.829011 70.462541 
L 179.950972 78.051007 
L 180.011952 88.99025 
L 180.042442 79.791809 
L 180.225383 69.085209 
L 180.530285 63.848934 
L 180.926657 60.582885 
L 181.4145 58.279488 
L 181.963323 56.693558 
L 182.542636 55.661057 
L 183.12195 55.065033 
L 183.670773 54.808051 
L 184.189106 54.799703 
L 184.737929 55.021999 
L 185.317242 55.515405 
L 185.927045 56.348924 
L 186.536849 57.573882 
L 187.116162 59.236784 
L 187.664985 61.535296 
L 188.122338 64.496573 
L 188.457729 68.130403 
L 188.701651 73.307499 
L 188.823612 79.596771 
L 188.884592 91.891904 
L 188.945572 81.694786 
L 189.159003 71.516729 
L 189.494395 66.571081 
L 189.921258 63.470373 
L 190.439591 61.292636 
L 190.988414 59.870519 
L 191.567727 58.941516 
L 192.14704 58.416415 
L 192.695863 58.210775 
L 193.214196 58.24313 
L 193.763019 58.503815 
L 194.342332 59.035916 
L 194.952136 59.911575 
L 195.561939 61.185383 
L 196.141252 62.910673 
L 196.659585 65.143785 
L 197.116938 68.172119 
L 197.45233 71.932482 
L 197.696251 77.475832 
L 197.818212 85.031517 
L 197.879192 96.300496 
L 197.909682 86.883819 
L 198.092623 76.125754 
L 198.397525 70.883428 
L 198.793897 67.616319 
L 199.28174 65.313623 
L 199.830563 63.729029 
L 200.409876 62.698597 
L 200.98919 62.105446 
L 201.538013 61.851931 
L 202.056346 61.848105 
L 202.605169 62.076741 
L 203.184482 62.579734 
L 203.794285 63.428378 
L 204.404089 64.677688 
L 204.983402 66.381363 
L 205.501735 68.59624 
L 205.928597 71.356697 
L 206.263989 74.913402 
L 206.50791 79.886412 
L 206.660361 88.493199 
L 206.721342 99.396137 
L 206.751832 90.219331 
L 206.934773 79.512256 
L 207.239674 74.265922 
L 207.636047 70.986261 
L 208.123889 68.665637 
L 208.672713 67.058939 
L 209.252026 66.002749 
L 209.831339 65.380662 
L 210.380162 65.0957 
L 210.928985 65.061493 
L 211.477808 65.258701 
L 212.057121 65.716739 
L 212.666925 66.498337 
L 213.276728 67.645792 
L 213.886532 69.286075 
L 214.435355 71.419012 
L 214.892707 74.071513 
L 215.258589 77.472539 
L 215.533001 82.210705 
L 215.685452 88.218297 
L 215.746432 94.577653 
L 215.776922 107.789989 
L 215.837903 91.536395 
L 216.051334 81.898206 
L 216.386726 77.040455 
L 216.813588 73.982288 
L 217.331921 71.839269 
L 217.880744 70.450056 
L 218.460057 69.55659 
L 219.00888 69.087927 
L 219.527213 68.913438 
L 220.045546 68.968316 
L 220.594369 69.264986 
L 221.173682 69.853088 
L 221.783486 70.818393 
L 222.393289 72.237751 
L 222.942112 74.085554 
L 223.429955 76.510701 
L 223.826327 79.604434 
L 224.131229 83.804013 
L 224.31417 89.037399 
L 224.40564 95.570459 
L 224.466621 104.944962 
L 224.497111 96.724427 
L 224.680052 86.268528 
L 224.984954 81.042668 
L 225.411816 77.571761 
L 225.899659 75.307781 
L 226.448482 73.720179 
L 227.027795 72.663956 
L 227.607108 72.030649 
L 228.186422 71.717991 
L 228.735245 71.671187 
L 229.284068 71.846985 
L 229.863381 72.270982 
L 230.473184 72.998992 
L 231.113478 74.126885 
L 231.723281 75.654519 
L 232.302595 77.724062 
L 232.790437 80.292564 
L 233.18681 83.570619 
L 233.491711 88.114258 
L 233.674652 94.231802 
L 233.766123 104.813698 
L 233.796613 109.545342 
L 233.827103 100.708528 
L 234.010044 90.109974 
L 234.314946 84.914065 
L 234.711318 81.691197 
L 235.199161 79.441561 
L 235.747984 77.920407 
L 236.296807 77.002295 
L 236.84563 76.492782 
L 237.363963 76.305722 
L 237.851806 76.358188 
L 238.370139 76.64602 
L 238.918962 77.221227 
L 239.498275 78.173352 
L 240.077588 79.583256 
L 240.626411 81.555154 
L 241.083764 84.044007 
L 241.449646 87.237661 
L 241.724057 91.584228 
L 241.906998 98.431331 
L 241.967979 105.177088 
L 241.998469 127.139532 
L 242.059449 101.154505 
L 242.27288 91.745358 
L 242.608272 86.859123 
L 243.035135 83.72419 
L 243.553468 81.473546 
L 244.132781 79.892596 
L 244.742584 78.836168 
L 245.352388 78.198301 
L 245.931701 77.888779 
L 246.511014 77.823122 
L 247.090327 77.97991 
L 247.700131 78.379025 
L 248.340424 79.067463 
L 249.011208 80.123302 
L 249.681992 81.607789 
L 250.322285 83.593958 
L 250.871108 86.025897 
L 251.328461 89.059656 
L 251.694343 93.102626 
L 251.938264 98.480257 
L 252.060225 105.192284 
L 252.121205 123.414341 
L 252.151696 110.6969 
L 252.334637 98.029121 
L 252.639538 92.683029 
L 253.035911 89.492288 
L 253.493263 87.447605 
L 254.011596 86.092391 
L 254.529929 85.332674 
L 254.987281 85.012746 
L 255.414144 84.959273 
L 255.841006 85.124729 
L 256.298359 85.547564 
L 256.786201 86.31031 
L 257.304534 87.566246 
L 257.792377 89.370169 
L 258.219239 91.837356 
L 258.554631 95.068351 
L 258.798553 99.491995 
L 258.951004 106.096793 
L 259.042474 118.632973 
L 259.072964 110.263556 
L 259.255905 99.692181 
L 259.560807 94.336094 
L 259.987669 90.689331 
L 260.506002 88.102886 
L 261.115806 86.165634 
L 261.756099 84.825198 
L 262.426883 83.905449 
L 263.097667 83.34476 
L 263.768451 83.070377 
L 264.439234 83.042295 
L 265.110018 83.239256 
L 265.811292 83.67662 
L 266.573546 84.423335 
L 267.366291 85.520287 
L 268.189525 87.054213 
L 269.01276 89.08496 
L 269.775014 91.563166 
L 270.476288 94.601779 
L 271.086091 98.240019 
L 271.573934 102.462526 
L 271.939816 107.493537 
L 272.183738 113.853754 
L 272.305698 122.007978 
L 272.366679 131.976613 
L 272.397169 123.655415 
L 272.58011 113.906491 
L 272.854521 110.411686 
L 273.098443 109.620251 
L 273.189913 109.662666 
L 273.342364 110.134966 
L 273.525305 111.538761 
L 273.708246 114.669423 
L 273.830207 119.803889 
L 273.921677 133.947401 
L 273.952167 124.142363 
L 274.135108 112.635827 
L 274.4705 105.94454 
L 274.927853 101.193334 
L 275.507166 97.41326 
L 276.17795 94.425136 
L 276.940204 92.01318 
L 277.732949 90.199658 
L 278.556183 88.83656 
L 279.409908 87.843826 
L 280.233143 87.21159 
L 281.056377 86.847874 
L 281.879612 86.718853 
L 282.733337 86.806943 
L 283.648042 87.128194 
L 284.654217 87.724725 
L 285.812844 88.679644 
L 287.520293 90.416619 
L 289.136272 91.962456 
L 290.020487 92.509815 
L 290.752251 92.709605 
L 291.453525 92.671115 
L 292.24627 92.390172 
L 293.313426 91.7451 
L 296.606364 89.596654 
L 297.856461 89.118768 
L 299.076068 88.892024 
L 300.295675 88.890564 
L 301.637242 89.115036 
L 303.283711 89.628239 
L 307.277924 90.97091 
L 308.649981 91.13 
L 310.083019 91.066114 
L 312.0039 90.733938 
L 315.51027 90.111686 
L 317.461641 90.021868 
L 319.534972 90.158054 
L 323.102322 90.672061 
L 325.846438 90.949837 
L 328.316141 90.966807 
L 337.03633 90.801511 
L 347.70789 91.257705 
L 354.995041 91.35495 
L 369.355911 91.782108 
L 385.546191 92.274098 
L 387.954915 92.343107 
L 387.954915 92.343107 
" clip-path="url(#p14c74ed39e)" style="fill: none; stroke: #225e7c; stroke-opacity: 0.8; stroke-width: 1.5; stroke-linecap: square"/>
   </g>
   <g id="line2d_12">
    <path d="M 83.083484 181 
L 83.175171 48.618947 
L 83.388602 31.432151 
L 83.449582 30.856168 
L 83.480073 31.0947 
L 83.571543 34.016268 
L 83.693504 46.388709 
L 83.723994 57.177273 
L 83.815464 50.819349 
L 83.876445 56.318796 
L 84.059386 33.000225 
L 84.242327 28.817992 
L 84.303307 29.502894 
L 84.425268 34.549815 
L 84.547229 49.45393 
L 84.608209 41.204403 
L 84.638699 40.512064 
L 84.669189 40.856598 
L 84.76066 49.398317 
L 84.913111 30.559133 
L 85.065561 27.683881 
L 85.096052 27.808348 
L 85.187522 29.50523 
L 85.309483 36.482183 
L 85.370463 53.008417 
L 85.431444 39.778957 
L 85.492424 37.374946 
L 85.553404 38.855669 
L 85.583894 41.978299 
L 85.614385 57.077334 
L 85.675365 36.660132 
L 85.858306 27.934709 
L 85.919286 27.550055 
L 85.949776 27.652197 
L 86.041247 29.15236 
L 86.163208 35.533695 
L 86.224188 48.323115 
L 86.285168 39.636588 
L 86.346149 36.806014 
L 86.407129 37.768384 
L 86.498599 46.253369 
L 86.52909 38.711403 
L 86.712031 28.818915 
L 86.773011 28.291527 
L 86.833991 28.52001 
L 86.955952 31.506741 
L 87.047423 38.150102 
L 87.108403 52.469206 
L 87.138893 42.240665 
L 87.230364 37.91978 
L 87.260854 38.498764 
L 87.321834 43.792465 
L 87.352324 67.61741 
L 87.413305 38.107285 
L 87.596246 30.260375 
L 87.657226 29.962234 
L 87.687716 30.095431 
L 87.779187 31.697834 
L 87.901147 38.33067 
L 87.962128 50.689514 
L 88.023108 43.345185 
L 88.084088 40.825386 
L 88.145069 42.371149 
L 88.206049 54.706269 
L 88.236539 47.458858 
L 88.41948 33.771815 
L 88.510951 32.972365 
L 88.541441 33.106853 
L 88.632911 34.737937 
L 88.754872 41.195243 
L 88.846343 56.359407 
L 88.907323 46.297207 
L 88.937813 45.630104 
L 88.968303 46.032199 
L 89.029284 51.43379 
L 89.059774 66.622252 
L 89.120754 45.303569 
L 89.303695 38.383351 
L 89.334185 38.390412 
L 89.425656 39.902831 
L 89.547617 47.605092 
L 89.608597 62.797994 
L 89.639087 52.041631 
L 89.730558 47.765087 
L 89.761048 48.288962 
L 89.822028 52.393562 
L 89.852518 59.088804 
L 89.913499 52.053697 
L 90.035459 46.523757 
L 90.065949 46.872562 
L 90.12693 50.156869 
L 90.18791 58.605125 
L 90.2184 49.993827 
L 90.401341 40.252564 
L 90.431831 40.0511 
L 90.492812 40.385763 
L 90.584282 43.003467 
L 90.675753 50.986312 
L 90.706243 60.112586 
L 90.767223 52.094355 
L 90.797714 50.660444 
L 90.828204 50.867861 
L 90.889184 62.29242 
L 90.919674 53.786207 
L 91.102615 37.951461 
L 91.255066 35.927447 
L 91.316046 36.3834 
L 91.438007 39.770184 
L 91.559968 49.813672 
L 91.681928 77.108209 
L 91.834379 40.581258 
L 92.047811 34.380121 
L 92.078301 34.257009 
L 92.108791 34.28859 
L 92.200261 35.331631 
L 92.352712 41.034216 
L 92.505163 52.047294 
L 92.566143 48.23206 
L 92.810065 35.043698 
L 92.932025 33.728622 
L 92.962516 33.769718 
L 93.053986 34.766515 
L 93.206437 39.828217 
L 93.358888 47.782861 
L 93.419868 46.094146 
L 93.72477 34.348569 
L 93.78575 33.991608 
L 93.846731 34.176639 
L 93.968691 36.207577 
L 94.243103 46.080195 
L 94.304083 44.22298 
L 94.608985 35.184971 
L 94.669965 35.050141 
L 94.700455 35.170738 
L 94.822416 36.907263 
L 95.096828 45.327826 
L 95.188298 43.687179 
L 95.4932 37.143133 
L 95.52369 37.123901 
L 95.55418 37.217176 
L 95.676141 38.676163 
L 95.981043 45.202203 
L 96.042023 44.638341 
L 96.346925 40.830883 
L 96.438395 41.333767 
L 96.682316 45.256675 
L 96.804277 46.177389 
L 96.834767 46.13925 
L 96.987218 45.651248 
L 97.017708 45.702131 
L 97.109179 46.531323 
L 97.26163 51.32448 
L 97.444571 65.254965 
L 97.505551 60.73225 
L 97.718982 49.183436 
L 97.779963 48.783583 
L 97.810453 49.031897 
L 97.901923 52.672466 
L 97.962904 70.734845 
L 97.993394 57.02699 
L 98.176335 44.866627 
L 98.237315 44.265406 
L 98.298295 44.475689 
L 98.420256 47.559387 
L 98.542217 58.405218 
L 98.572707 69.082291 
L 98.633687 61.279111 
L 98.664178 62.080053 
L 98.694668 70.754721 
L 98.725158 61.464064 
L 98.908099 44.138786 
L 99.09104 40.869905 
L 99.12153 40.863837 
L 99.213001 41.657492 
L 99.365451 45.697733 
L 99.517902 49.957064 
L 99.548392 49.614156 
L 99.975255 39.666453 
L 100.005745 39.748713 
L 100.127706 41.100834 
L 100.371627 45.661246 
L 100.432607 45.337028 
L 100.82898 39.463299 
L 100.88996 39.683334 
L 101.042411 41.558221 
L 101.255842 44.083878 
L 101.286332 43.953769 
L 101.469273 41.436374 
L 101.682704 39.913071 
L 101.774175 40.332942 
L 102.109567 43.817647 
L 102.201037 43.380745 
L 102.505939 41.011021 
L 102.536429 41.0291 
L 102.6279 41.432192 
L 102.993782 44.408278 
L 103.054762 44.246454 
L 103.329174 43.021737 
L 103.390154 43.098343 
L 103.542605 43.963701 
L 103.877997 45.79175 
L 104.060938 45.922544 
L 104.213389 46.656706 
L 104.51829 48.429308 
L 104.54878 48.420497 
L 104.701231 48.217004 
L 104.762212 48.324828 
L 104.884172 49.431274 
L 105.036623 53.583708 
L 105.189074 64.018532 
L 105.280544 69.766947 
L 105.311035 67.331076 
L 105.554956 53.946952 
L 105.615936 53.599517 
L 105.646427 53.825534 
L 105.737897 56.918164 
L 105.829368 66.598558 
L 105.859858 59.272205 
L 106.042799 49.946292 
L 106.134269 49.425904 
L 106.164759 49.582753 
L 106.28672 51.780983 
L 106.500151 58.679236 
L 106.561132 57.281374 
L 106.896524 46.520342 
L 106.987994 46.038646 
L 107.018484 46.074468 
L 107.109955 46.703756 
L 107.384366 50.016962 
L 107.445347 49.705512 
L 107.872209 44.846062 
L 107.933189 45.006326 
L 108.146621 46.708047 
L 108.268581 47.234342 
L 108.299071 47.187018 
L 108.421032 46.396189 
L 108.695444 44.663856 
L 108.756424 44.689937 
L 108.908875 45.330601 
L 109.152796 46.201369 
L 109.274757 45.854586 
L 109.549168 45.082714 
L 109.671129 45.339134 
L 110.006521 46.288888 
L 110.037011 46.271251 
L 110.341913 45.983631 
L 110.372403 46.024619 
L 110.555344 46.580071 
L 110.829756 47.25999 
L 111.134657 47.493199 
L 111.409069 48.58989 
L 111.65299 49.105944 
L 111.805441 49.317143 
L 111.957892 50.029748 
L 112.384754 52.597825 
L 112.415244 52.568634 
L 112.567695 52.448743 
L 112.659166 52.79635 
L 112.811617 54.82813 
L 113.025048 62.046803 
L 113.147008 66.111497 
L 113.207989 65.55409 
L 113.45191 60.671432 
L 113.4824 60.857275 
L 113.573871 63.650541 
L 113.665341 75.544916 
L 113.695832 66.629231 
L 113.878773 56.118516 
L 114.031223 54.860223 
L 114.122694 55.437681 
L 114.336125 57.724234 
L 114.397105 57.496198 
L 114.580046 54.204668 
L 114.854458 51.01929 
L 114.915438 50.986528 
L 114.945929 51.046343 
L 115.15936 52.148573 
L 115.25083 52.36503 
L 115.28132 52.328304 
L 115.403281 51.664835 
L 115.769163 49.545097 
L 115.860634 49.637371 
L 116.165535 50.288188 
L 116.196026 50.263209 
L 116.348476 49.869428 
L 116.622888 49.247748 
L 116.775339 49.337453 
L 117.110731 49.60055 
L 117.446123 49.636262 
L 118.208377 50.341246 
L 118.574259 51.033677 
L 118.84867 51.172589 
L 119.031611 51.750523 
L 119.458474 53.172919 
L 119.671905 53.42754 
L 119.854846 54.312598 
L 120.312199 56.945035 
L 120.464649 57.279579 
L 120.6171 58.425351 
L 120.830531 62.451593 
L 121.165923 68.645144 
L 121.257394 69.003686 
L 121.348864 70.932414 
L 121.409845 75.323583 
L 121.440335 82.539264 
L 121.501315 73.345936 
L 121.714746 61.934089 
L 121.928178 59.764745 
L 121.989158 59.741539 
L 122.019648 59.775472 
L 122.141609 59.915495 
L 122.172099 59.88715 
L 122.263569 59.50942 
L 122.842883 55.457159 
L 122.903863 55.494707 
L 123.117294 55.59703 
L 123.269745 55.178907 
L 123.696607 53.822469 
L 123.879548 53.864088 
L 124.09298 53.885989 
L 124.367391 53.582912 
L 124.672293 53.368883 
L 124.946704 53.439914 
L 125.586998 53.790686 
L 125.800429 53.835372 
L 125.98337 54.172641 
L 126.410233 55.03566 
L 126.715134 55.223086 
L 126.928566 55.93647 
L 127.324938 57.283234 
L 127.599349 57.819391 
L 127.843271 59.174873 
L 128.696995 66.003762 
L 129.032387 73.983746 
L 129.154348 80.69865 
L 129.215328 93.440679 
L 129.245818 82.382951 
L 129.428759 70.043205 
L 129.703171 64.910294 
L 130.008073 63.244847 
L 130.373955 60.916429 
L 130.678856 59.681593 
L 131.34964 58.30183 
L 131.654542 57.865243 
L 132.721698 57.391989 
L 132.965619 57.583444 
L 133.331501 57.837768 
L 133.666893 57.923895 
L 133.910815 58.410242 
L 134.276697 59.088314 
L 134.581598 59.397987 
L 134.82552 60.183601 
L 135.282872 61.647818 
L 135.557284 62.496617 
L 135.923166 64.805519 
L 136.471989 69.166275 
L 136.71591 73.643668 
L 136.868361 79.570492 
L 136.959832 93.828543 
L 137.020812 84.031838 
L 137.234243 73.628908 
L 137.539145 69.027287 
L 137.996497 65.870862 
L 138.45385 63.821292 
L 139.185614 62.200663 
L 139.551496 61.760194 
L 140.25277 61.387298 
L 140.618652 61.359103 
L 141.076005 61.692947 
L 141.624828 62.074955 
L 142.691984 64.189431 
L 143.728649 68.391752 
L 144.338453 73.456706 
L 144.582374 77.87356 
L 144.734825 84.957679 
L 144.795805 96.268835 
L 144.856786 87.569554 
L 145.070217 77.437641 
L 145.375119 73.210125 
L 145.893452 69.424489 
L 146.289824 67.864564 
L 147.082568 66.084785 
L 147.509431 65.683715 
L 148.119234 65.367675 
L 148.485116 65.406368 
L 149.21688 65.857554 
L 149.521782 66.242493 
L 150.466977 68.084991 
L 151.320702 71.154614 
L 151.686584 73.55829 
L 152.143936 77.940792 
L 152.387858 82.694256 
L 152.509819 88.709946 
L 152.570799 99.642195 
L 152.631779 91.388154 
L 152.84521 81.097097 
L 153.150112 76.917208 
L 153.668445 73.235628 
L 154.064817 71.631149 
L 154.796581 69.952555 
L 155.192954 69.503119 
L 155.955208 69.084111 
L 156.35158 69.165937 
L 157.022364 69.567564 
L 157.418736 70.079539 
L 158.241971 71.617439 
L 158.912754 73.76183 
L 159.309127 75.56204 
L 159.766479 78.864737 
L 160.101871 82.597639 
L 160.315302 87.590071 
L 160.437263 95.691422 
L 160.498243 102.753106 
L 160.528733 95.843429 
L 160.711674 86.042212 
L 161.016576 81.333354 
L 161.504419 77.576153 
L 161.900791 75.874096 
L 162.571575 74.223185 
L 162.967947 73.684088 
L 163.699711 73.214579 
L 164.065593 73.247181 
L 164.736377 73.601011 
L 165.132749 74.064549 
L 165.864513 75.35522 
L 166.321866 76.660529 
L 166.962159 79.172476 
L 167.358532 81.802534 
L 167.754904 85.99389 
L 167.998825 91.244386 
L 168.120786 98.416868 
L 168.181766 113.331713 
L 168.212256 101.216936 
L 168.395197 89.967743 
L 168.700099 84.896864 
L 169.126961 81.61645 
L 169.614804 79.340992 
L 170.133137 78.032428 
L 170.68196 77.096726 
L 171.230783 76.686291 
L 171.688136 76.532689 
L 172.145488 76.663702 
L 172.694311 76.996251 
L 173.212644 77.660367 
L 173.822448 78.739778 
L 174.462741 80.519272 
L 174.950584 82.444766 
L 175.438427 85.388778 
L 175.804309 88.846116 
L 176.04823 93.253911 
L 176.200681 99.491796 
L 176.261661 106.319998 
L 176.292151 129.319283 
L 176.353132 102.358938 
L 176.566563 93.194002 
L 176.901955 88.459193 
L 177.328817 85.353584 
L 177.78617 83.599494 
L 178.395973 82.140101 
L 178.853326 81.615382 
L 179.432639 81.268643 
L 179.798521 81.314646 
L 180.408324 81.639738 
L 180.835187 82.165539 
L 181.505971 83.395073 
L 181.993813 84.840416 
L 182.542636 87.119997 
L 182.939009 89.816102 
L 183.304891 93.96346 
L 183.518322 98.716095 
L 183.640283 105.453747 
L 183.670773 109.649849 
L 183.701263 129.84893 
L 183.762243 105.689782 
L 183.975674 96.245722 
L 184.280576 91.801169 
L 184.707439 88.69162 
L 185.225771 86.435089 
L 185.774594 85.062439 
L 186.323418 84.178421 
L 186.872241 83.73198 
L 187.360083 83.558074 
L 187.878416 83.64693 
L 188.396749 83.925651 
L 189.006553 84.584395 
L 189.555376 85.453104 
L 190.25665 87.066063 
L 190.805473 88.905579 
L 191.384786 91.641641 
L 191.781158 94.595981 
L 192.11655 98.65979 
L 192.329981 103.533382 
L 192.451942 110.28042 
L 192.512922 131.368552 
L 192.543412 115.311373 
L 192.726353 102.860451 
L 193.031255 97.597606 
L 193.427627 94.580832 
L 193.91547 92.487051 
L 194.372823 91.430007 
L 194.891155 90.770654 
L 195.257038 90.599872 
L 195.6839 90.67 
L 196.110762 90.954296 
L 196.537625 91.565512 
L 197.086448 92.763213 
L 197.5438 94.386471 
L 198.001153 96.837668 
L 198.336545 99.820579 
L 198.610956 104.503144 
L 198.763407 110.464351 
L 198.824387 116.697397 
L 198.854878 128.666521 
L 198.915858 113.950347 
L 199.129289 104.129238 
L 199.464681 99.034578 
L 199.891543 95.788989 
L 200.440366 93.376554 
L 201.01968 91.76334 
L 201.659973 90.641883 
L 202.208796 90.061626 
L 202.84909 89.697681 
L 203.397913 89.642835 
L 204.007716 89.79069 
L 204.64801 90.207496 
L 205.288304 90.867326 
L 206.081048 92.037365 
L 206.873792 93.663147 
L 207.605557 95.655118 
L 208.367811 98.359054 
L 209.130065 102.021956 
L 209.709378 105.940465 
L 210.258201 111.072099 
L 210.685064 117.524818 
L 211.294867 128.526629 
L 211.355848 128.36464 
L 211.508298 126.023568 
L 212.209572 112.916577 
L 212.727905 108.006066 
L 213.368199 103.870969 
L 214.069473 100.817946 
L 214.770747 98.62693 
L 215.563491 96.830585 
L 216.386726 95.529444 
L 217.14898 94.71777 
L 217.880744 94.221495 
L 218.673488 93.94788 
L 219.496723 93.921779 
L 220.319958 94.126084 
L 221.204173 94.564938 
L 222.271329 95.339949 
L 223.887308 96.813794 
L 225.381326 98.09027 
L 226.296031 98.592014 
L 227.058285 98.765638 
L 227.790049 98.721014 
L 228.704754 98.429051 
L 230.229263 97.637878 
L 232.241614 96.658319 
L 233.552692 96.285092 
L 234.802789 96.160333 
L 236.144356 96.254121 
L 237.790825 96.605236 
L 241.906998 97.579655 
L 243.553468 97.662449 
L 245.596309 97.525748 
L 249.712482 97.215105 
L 252.151696 97.30012 
L 260.566983 97.811756 
L 267.610212 97.930311 
L 278.220791 98.327647 
L 286.84951 98.664819 
L 330.145552 100.553115 
L 352.525337 101.847043 
L 369.599832 103.063142 
L 384.021683 104.324302 
L 387.954915 104.719398 
L 387.954915 104.719398 
" clip-path="url(#p14c74ed39e)" style="fill: none; stroke: #3e915b; stroke-opacity: 0.8; stroke-width: 1.5; stroke-linecap: square"/>
   </g>
   <g id="line2d_13">
    <path d="M 83.083485 181 
L 83.175171 49.409378 
L 83.388602 31.863328 
L 83.449582 31.093318 
L 83.510563 31.661358 
L 83.632523 37.322287 
L 83.876445 60.717611 
L 84.028896 35.531649 
L 84.242327 29.357797 
L 84.303307 29.694581 
L 84.425268 33.371838 
L 84.516738 40.897761 
L 84.577719 54.395823 
L 84.638699 43.402861 
L 84.669189 43.076293 
L 84.76066 50.613194 
L 84.913111 31.808716 
L 85.096052 28.558109 
L 85.187522 29.643855 
L 85.309483 34.374496 
L 85.400953 45.535154 
L 85.431444 54.76911 
L 85.492424 42.39121 
L 85.522914 41.983812 
L 85.583894 47.690338 
L 85.614385 50.914699 
L 85.766835 31.632944 
L 85.919286 28.74066 
L 85.949776 28.751929 
L 86.041247 29.811417 
L 86.163208 34.332298 
L 86.254678 44.336062 
L 86.285168 67.067736 
L 86.346149 43.861367 
L 86.376639 43.466744 
L 86.437619 51.626858 
L 86.468109 48.122392 
L 86.65105 31.337553 
L 86.773011 29.646659 
L 86.803501 29.673524 
L 86.894972 30.774618 
L 87.016932 35.417944 
L 87.108403 45.541249 
L 87.138893 65.191763 
L 87.199873 45.678763 
L 87.230364 45.547225 
L 87.260854 47.802789 
L 87.291344 60.25514 
L 87.352324 41.790891 
L 87.535265 32.021423 
L 87.626736 31.184631 
L 87.657226 31.258523 
L 87.748696 32.556596 
L 87.870657 37.808976 
L 87.992618 52.905877 
L 88.053598 45.748776 
L 88.084088 46.003844 
L 88.145069 56.547988 
L 88.175559 50.015407 
L 88.3585 34.852387 
L 88.480461 33.591537 
L 88.510951 33.761355 
L 88.602421 35.493092 
L 88.724382 42.490682 
L 88.785362 57.406545 
L 88.846343 46.764615 
L 88.907323 44.691835 
L 88.937813 45.173136 
L 88.998793 50.3354 
L 89.029284 111.923327 
L 89.090264 44.918234 
L 89.273205 37.698363 
L 89.303695 37.666254 
L 89.364676 38.328472 
L 89.486636 43.765078 
L 89.547617 54.436341 
L 89.608597 48.054192 
L 89.730558 43.424838 
L 89.761048 43.73182 
L 89.852518 47.908091 
L 89.913499 62.240404 
L 89.974479 50.048648 
L 90.065949 46.36564 
L 90.09644 46.603446 
L 90.15742 49.545065 
L 90.2184 62.735531 
L 90.24889 50.928567 
L 90.431831 40.629319 
L 90.492812 40.397776 
L 90.523302 40.614172 
L 90.645263 43.789993 
L 90.828204 54.535867 
L 90.889184 50.763262 
L 91.133105 37.910472 
L 91.255066 36.694982 
L 91.285556 36.786693 
L 91.377027 38.028123 
L 91.529478 43.96458 
L 91.651438 49.708705 
L 91.681928 48.949196 
L 92.047811 34.876503 
L 92.078301 34.762572 
L 92.139281 34.951807 
L 92.261242 37.0804 
L 92.505163 47.001865 
L 92.566143 45.455363 
L 92.871045 34.621128 
L 92.932025 34.242693 
L 92.993006 34.383312 
L 93.114966 36.232661 
L 93.389378 44.4538 
L 93.450358 42.972047 
L 93.75526 34.886851 
L 93.81624 34.734504 
L 93.846731 34.834954 
L 93.968691 36.39236 
L 94.243103 42.947752 
L 94.304083 42.236784 
L 94.639475 36.048053 
L 94.669965 36.053075 
L 94.761436 36.692321 
L 94.974867 41.097483 
L 95.096828 42.724626 
L 95.127318 42.579636 
L 95.4932 38.030025 
L 95.55418 38.326667 
L 95.706631 40.640114 
L 95.920062 44.233621 
L 95.950552 44.159197 
L 96.103003 42.083459 
L 96.285944 40.664527 
L 96.377415 41.258132 
L 96.560356 45.188193 
L 96.743297 48.748623 
L 96.773787 48.513684 
L 97.048198 44.571063 
L 97.109179 44.813076 
L 97.231139 47.388971 
L 97.3531 55.424417 
L 97.414081 77.463768 
L 97.475061 58.292987 
L 97.505551 57.2319 
L 97.566531 58.319809 
L 97.627512 67.882099 
L 97.688492 59.271283 
L 97.840943 52.678988 
L 97.901923 54.062801 
L 97.962904 60.227621 
L 97.993394 71.654989 
L 98.054374 53.626517 
L 98.237315 45.987765 
L 98.298295 45.655729 
L 98.328786 45.750864 
L 98.420256 47.018207 
L 98.633687 53.163108 
L 98.694668 52.41108 
L 99.09104 41.881762 
L 99.12153 41.882596 
L 99.213001 42.551145 
L 99.487412 47.505217 
L 99.578883 46.506001 
L 99.944765 40.129356 
L 100.005745 40.275186 
L 100.127706 41.624679 
L 100.371627 45.182246 
L 100.402117 45.053253 
L 100.554568 42.496919 
L 100.798489 39.666769 
L 100.85947 39.743256 
L 100.98143 40.78867 
L 101.255842 43.925976 
L 101.286332 43.824196 
L 101.438783 42.044693 
L 101.682704 40.166458 
L 101.774175 40.478186 
L 102.140057 43.456747 
L 102.231527 43.067002 
L 102.505939 41.522082 
L 102.536429 41.530927 
L 102.6279 41.823503 
L 102.993782 43.856606 
L 103.054762 43.788825 
L 103.268193 43.403522 
L 103.298683 43.432568 
L 103.420644 43.873955 
L 103.756036 45.539948 
L 103.786526 45.527745 
L 103.999957 45.289195 
L 104.030448 45.344176 
L 104.152408 46.028347 
L 104.51829 49.980323 
L 104.609761 49.669383 
L 104.823192 48.649982 
L 104.853682 48.738308 
L 104.975643 50.135923 
L 105.128094 55.379752 
L 105.250054 67.340143 
L 105.280544 77.928829 
L 105.372015 71.778816 
L 105.402505 77.898105 
L 105.432995 74.393931 
L 105.585446 59.157672 
L 105.646427 58.294165 
L 105.676917 58.447792 
L 105.737897 60.316107 
L 105.829368 70.812126 
L 105.859858 62.415738 
L 106.042799 51.790563 
L 106.164759 50.549053 
L 106.19525 50.571164 
L 106.28672 51.235016 
L 106.500151 53.323531 
L 106.530641 53.162979 
L 106.683092 50.485521 
L 106.957504 46.913206 
L 106.987994 46.872787 
L 107.018484 46.900136 
L 107.140445 47.564287 
L 107.353876 48.836103 
L 107.384366 48.75632 
L 107.536817 47.308731 
L 107.811229 45.145427 
L 107.872209 45.199865 
L 108.02466 46.054397 
L 108.207601 47.061365 
L 108.238091 47.056663 
L 108.329562 46.672373 
L 108.695444 44.574567 
L 108.786914 44.802617 
L 109.122306 46.352872 
L 109.183286 46.253826 
L 109.549168 44.946744 
L 109.610149 45.017489 
L 109.79309 45.716053 
L 110.037011 46.401901 
L 110.158972 46.305716 
L 110.372403 46.154444 
L 110.524854 46.39964 
L 111.59201 48.969646 
L 111.65299 48.943081 
L 111.774951 49.010948 
L 111.896911 49.485086 
L 112.110343 51.517534 
L 112.354264 53.347019 
L 112.415244 53.267517 
L 112.628676 52.701509 
L 112.659166 52.759111 
L 112.781126 53.703457 
L 112.933577 57.045176 
L 113.147008 68.022916 
L 113.238479 71.988839 
L 113.268969 71.491585 
L 113.4824 65.226813 
L 113.512891 65.381841 
L 113.573871 67.157618 
L 113.665341 78.161252 
L 113.695832 69.232671 
L 113.878773 57.771326 
L 114.092204 55.327983 
L 114.153184 55.360374 
L 114.336125 55.721285 
L 114.366615 55.65901 
L 114.488576 54.81413 
L 114.884948 51.637119 
L 114.976419 51.631954 
L 115.006909 51.66843 
L 115.18985 51.810852 
L 115.311811 51.456336 
L 115.738673 49.851827 
L 115.891124 50.093036 
L 116.074065 50.27267 
L 116.196026 50.015016 
L 116.561908 49.128367 
L 116.714358 49.366198 
L 116.98877 49.772833 
L 117.141221 49.581936 
L 117.385142 49.308168 
L 117.537593 49.465091 
L 118.025436 50.149798 
L 118.330337 50.441508 
L 118.84867 51.282052 
L 119.458474 52.841778 
L 119.610925 53.008423 
L 119.763375 53.653768 
L 120.281708 56.927783 
L 120.342689 56.902204 
L 120.464649 56.945452 
L 120.58661 57.5426 
L 120.769551 60.256979 
L 121.043963 69.160296 
L 121.226904 72.34113 
L 121.287884 72.530102 
L 121.379354 74.46264 
L 121.440335 80.370911 
L 121.470825 93.133564 
L 121.531805 73.402657 
L 121.745237 62.634213 
L 121.989158 59.564794 
L 123.086804 55.238507 
L 123.666117 54.092287 
L 123.940529 53.879908 
L 124.397881 53.321254 
L 124.977195 53.406748 
L 125.221116 53.358252 
L 125.495528 53.646058 
L 126.745624 55.347627 
L 127.355428 56.817668 
L 127.538369 57.31324 
L 127.81278 58.95717 
L 128.148172 60.596691 
L 128.392094 61.40243 
L 128.575035 63.208918 
L 128.849446 68.885078 
L 129.245818 81.698945 
L 129.306799 92.666949 
L 129.337289 82.516461 
L 129.55072 68.957648 
L 129.825132 64.241818 
L 130.130033 62.568223 
L 131.105719 58.823712 
L 131.532581 58.248816 
L 132.233855 57.480254 
L 132.660718 57.505755 
L 133.0266 57.413638 
L 133.331501 57.708819 
L 134.398657 58.993984 
L 134.8865 60.178147 
L 135.465813 61.843487 
L 136.350028 66.646471 
L 136.59395 70.11218 
L 136.929341 78.458479 
L 137.051302 85.941915 
L 137.112282 94.612445 
L 137.142773 86.421123 
L 137.356204 73.929451 
L 137.661106 68.496674 
L 137.996497 66.318484 
L 138.850222 62.956911 
L 139.216104 62.408296 
L 139.703947 61.651517 
L 139.978358 61.431268 
L 141.045514 61.472941 
L 142.234631 62.863935 
L 143.027376 64.658832 
L 143.423748 66.155337 
L 144.186002 70.157138 
L 144.490904 73.740163 
L 144.826296 80.32659 
L 144.948256 86.045742 
L 145.009237 96.114937 
L 145.070217 88.720021 
L 145.283648 77.44594 
L 145.58855 72.703055 
L 145.954432 70.367357 
L 146.655706 67.433539 
L 147.021588 66.778416 
L 147.905803 65.709509 
L 148.393646 65.623913 
L 148.698547 65.584415 
L 149.003449 65.83835 
L 150.009625 67.014702 
L 150.893839 69.094333 
L 151.412172 71.255325 
L 151.900015 73.936569 
L 152.204917 77.105432 
L 152.509819 82.733555 
L 152.662269 88.846501 
L 152.72325 95.567258 
L 152.75374 120.375346 
L 152.81472 91.279344 
L 153.028151 81.474769 
L 153.333053 76.70294 
L 153.698935 74.173944 
L 154.369719 71.394793 
L 154.766091 70.545275 
L 155.619816 69.436985 
L 156.38207 69.266557 
L 156.656482 69.346787 
L 157.571187 70.1283 
L 158.05903 71.001764 
L 158.729813 72.495923 
L 159.370107 74.850932 
L 159.766479 76.861548 
L 160.162851 80.262158 
L 160.498243 84.787589 
L 160.681184 90.118246 
L 160.772655 97.881557 
L 160.803145 109.274695 
L 160.864125 95.226989 
L 161.077556 85.441174 
L 161.382458 81.235503 
L 161.839811 78.181005 
L 162.327653 76.161958 
L 162.815496 75.14737 
L 163.394809 74.315178 
L 163.791182 74.180329 
L 164.431475 74.129826 
L 164.919318 74.540225 
L 165.437651 75.106336 
L 165.986474 76.257378 
L 166.504807 77.647396 
L 166.992649 79.79469 
L 167.480492 82.788929 
L 167.785394 86.359109 
L 168.029315 91.926967 
L 168.151276 98.511852 
L 168.212256 112.975975 
L 168.273237 99.960371 
L 168.486668 89.907772 
L 168.82206 84.627167 
L 169.218432 81.752392 
L 169.797745 79.390774 
L 170.255098 78.234545 
L 170.925881 77.256918 
L 171.322254 76.955409 
L 172.023528 76.809633 
L 172.38941 76.932329 
L 173.182154 77.551875 
L 173.669997 78.290449 
L 174.371271 79.680518 
L 175.072545 81.861248 
L 175.499407 83.75054 
L 176.01774 87.190378 
L 176.353132 90.724937 
L 176.597053 96.087782 
L 176.719014 102.76745 
L 176.779994 118.055012 
L 176.840975 104.221278 
L 177.054406 94.756465 
L 177.389798 90.044613 
L 177.81666 86.954025 
L 178.243522 85.414442 
L 178.853326 84.082468 
L 179.219208 83.750298 
L 179.829011 83.578431 
L 180.133913 83.713311 
L 180.682736 84.31306 
L 181.079108 84.975714 
L 181.566951 86.350017 
L 182.054794 88.256617 
L 182.420676 90.678866 
L 182.786558 94.644807 
L 182.999989 99.052108 
L 183.12195 104.954485 
L 183.18293 115.312649 
L 183.24391 107.822644 
L 183.457342 97.077736 
L 183.762243 92.450873 
L 184.219596 89.03198 
L 184.737929 86.66643 
L 185.347732 85.033961 
L 185.896555 84.066764 
L 186.597829 83.357671 
L 187.055182 83.153851 
L 187.756456 83.10932 
L 188.274788 83.332559 
L 188.945572 83.832045 
L 189.738317 84.836976 
L 190.34812 85.949118 
L 191.140864 87.832505 
L 191.964099 90.557947 
L 192.573903 93.43225 
L 193.122726 96.903918 
L 193.549588 101.200884 
L 193.88498 106.556712 
L 194.067921 112.883685 
L 194.189882 127.291308 
L 194.220372 119.216137 
L 194.403313 109.238948 
L 194.677724 105.483321 
L 194.982626 104.13428 
L 195.287528 103.639477 
L 195.439979 103.684323 
L 195.592429 104.048719 
L 195.805861 105.279281 
L 196.049782 108.091345 
L 196.263213 113.388378 
L 196.354684 119.485057 
L 196.415664 130.463614 
L 196.446154 121.009272 
L 196.629095 109.60501 
L 196.964487 102.94359 
L 197.391349 98.843973 
L 198.031643 95.0575 
L 198.641446 92.701859 
L 199.403701 90.59724 
L 200.226935 89.067143 
L 200.958699 88.168137 
L 201.659973 87.604106 
L 202.452718 87.264974 
L 203.214972 87.210634 
L 203.916246 87.366797 
L 204.739481 87.760824 
L 205.776146 88.557135 
L 207.117714 89.960205 
L 209.434967 92.42473 
L 210.258201 92.902187 
L 210.928985 93.006022 
L 211.538789 92.890639 
L 212.392513 92.46392 
L 213.886532 91.340237 
L 215.593981 90.15738 
L 216.722118 89.631961 
L 217.789273 89.361859 
L 218.856429 89.304519 
L 220.015056 89.453468 
L 221.448094 89.868444 
L 225.442306 91.173628 
L 226.722893 91.278447 
L 228.125441 91.164355 
L 230.625635 90.673148 
L 232.942888 90.322244 
L 234.833279 90.272515 
L 237.059061 90.457985 
L 242.120429 90.97075 
L 244.742584 90.935918 
L 250.993069 90.764929 
L 256.725221 91.007152 
L 261.603648 91.061898 
L 269.775014 91.141798 
L 282.824807 91.345839 
L 362.373662 92.692711 
L 387.954915 93.182745 
L 387.954915 93.182745 
" clip-path="url(#p14c74ed39e)" style="fill: none; stroke: #8eac56; stroke-opacity: 0.8; stroke-width: 1.5; stroke-linecap: square"/>
   </g>
   <g id="line2d_14">
    <path d="M 83.083412 181 
L 83.175171 29.048614 
L 83.388602 19.68931 
L 83.571543 18.110581 
L 83.663014 18.682818 
L 83.967915 23.360351 
L 84.028896 22.80977 
L 84.455758 17.020782 
L 84.486248 17.038419 
L 84.577719 17.46992 
L 84.88262 19.954305 
L 84.943601 19.808294 
L 85.187522 17.583516 
L 85.400953 16.664162 
L 85.492424 16.847425 
L 85.827816 18.631687 
L 85.949776 18.370321 
L 86.346149 16.699889 
L 86.407129 16.772473 
L 86.59007 17.662729 
L 86.864482 18.622437 
L 86.955952 18.472252 
L 87.291344 17.218077 
L 87.352324 17.310392 
L 87.535265 18.229533 
L 87.809677 19.734193 
L 87.840167 19.729579 
L 87.931638 19.428607 
L 88.206049 18.278259 
L 88.236539 18.289602 
L 88.32801 18.557973 
L 88.510951 20.044992 
L 88.754872 21.783273 
L 88.846343 21.478957 
L 89.120754 20.083327 
L 89.151244 20.096114 
L 89.242715 20.456535 
L 89.425656 22.602041 
L 89.669577 25.467148 
L 89.700067 25.44028 
L 89.822028 24.562077 
L 90.035459 23.192549 
L 90.065949 23.230793 
L 90.15742 23.829413 
L 90.309871 26.657807 
L 90.614773 36.122845 
L 90.675753 35.455542 
L 90.950164 30.081085 
L 91.011145 30.404309 
L 91.194086 34.259061 
L 91.255066 33.330461 
L 91.498987 28.411839 
L 91.529478 28.344595 
L 91.559968 28.37386 
L 91.681928 29.26622 
L 91.834379 30.488595 
L 91.864869 30.385572 
L 92.01732 28.300923 
L 92.383202 23.976361 
L 92.505163 23.764248 
L 92.535653 23.801337 
L 92.779575 24.325911 
L 92.840555 24.244959 
L 93.023496 23.409937 
L 93.389378 21.675297 
L 93.511339 21.715465 
L 93.81624 22.086466 
L 93.846731 22.060671 
L 93.999181 21.6718 
L 94.365063 20.658463 
L 94.487024 20.798516 
L 94.822416 21.328859 
L 94.974867 21.012201 
L 95.279769 20.413485 
L 95.401729 20.594831 
L 95.767611 21.411876 
L 95.798101 21.390169 
L 96.011533 20.949575 
L 96.163984 20.792442 
L 96.194474 20.810973 
L 96.346925 21.165784 
L 96.712807 22.181311 
L 96.865257 21.994102 
L 97.048198 21.813066 
L 97.078689 21.833498 
L 97.200649 22.107129 
L 97.688492 23.768222 
L 97.749472 23.731144 
L 97.962904 23.664699 
L 98.084864 23.975861 
L 98.328786 25.440416 
L 98.603197 26.683398 
L 98.969079 27.233408 
L 99.15202 28.714214 
L 99.670353 33.746608 
L 99.822804 34.13443 
L 99.944765 35.247989 
L 100.158196 39.495394 
L 100.219176 38.787947 
L 100.524078 33.67056 
L 101.499763 27.472974 
L 101.865645 26.835031 
L 102.414468 25.156543 
L 102.780351 25.029738 
L 103.329174 24.12865 
L 103.359664 24.145924 
L 103.695056 24.283141 
L 104.274369 23.934297 
L 104.670741 24.275103 
L 105.097603 24.247109 
L 106.22574 25.820612 
L 106.683092 26.764013 
L 106.957504 27.309635 
L 107.323386 28.781131 
L 108.11613 32.485544 
L 108.847894 39.963119 
L 109.030835 43.913636 
L 109.091816 43.406739 
L 109.488188 36.666945 
L 110.311423 31.10567 
L 111.256618 28.565403 
L 112.384754 27.426955 
L 112.750636 27.257247 
L 113.055538 27.173561 
L 113.878773 27.480177 
L 114.183674 27.774101 
L 115.22034 29.264783 
L 116.074065 31.40577 
L 116.866809 34.814073 
L 117.293672 38.344694 
L 117.659554 42.966386 
L 117.903475 47.809645 
L 117.964455 47.136173 
L 118.391318 39.866056 
L 118.909651 35.771203 
L 119.306023 34.040798 
L 120.068277 31.964502 
L 120.678081 31.107158 
L 121.135433 30.699619 
L 121.897687 30.468804 
L 122.32455 30.595189 
L 122.995334 30.990904 
L 123.788078 31.976615 
L 124.367391 33.153649 
L 124.885724 34.545928 
L 125.526018 37.110198 
L 125.92239 39.610457 
L 126.318762 43.618902 
L 126.593174 48.895205 
L 126.745624 53.136142 
L 126.806605 52.430796 
L 127.202977 43.734931 
L 127.629839 39.948308 
L 128.087192 37.614041 
L 128.666505 35.860306 
L 129.184838 34.870917 
L 129.855622 34.115389 
L 130.373955 33.876946 
L 130.892288 33.832812 
L 131.471601 34.065385 
L 131.959444 34.461448 
L 132.630227 35.337413 
L 133.209541 36.49649 
L 133.788854 38.112112 
L 134.368167 40.502471 
L 134.795029 43.222558 
L 135.160912 47.089074 
L 135.404833 52.025472 
L 135.587774 60.323553 
L 135.648754 58.382583 
L 135.892676 49.654069 
L 136.228068 45.219127 
L 136.68542 42.103013 
L 137.173263 40.164881 
L 137.752576 38.720242 
L 138.301399 37.897758 
L 138.880712 37.397558 
L 139.429535 37.225906 
L 139.917378 37.28131 
L 140.496691 37.588988 
L 141.045514 38.140753 
L 141.655318 39.066147 
L 142.265121 40.424248 
L 142.813944 42.166919 
L 143.332277 44.556282 
L 143.75914 47.645497 
L 144.094531 51.898526 
L 144.307963 57.704108 
L 144.460414 70.044576 
L 144.490904 64.761728 
L 144.704335 54.06543 
L 145.009237 49.36156 
L 145.436099 46.097819 
L 145.923942 43.942272 
L 146.503255 42.380215 
L 147.082568 41.43519 
L 147.661881 40.899016 
L 148.210704 40.695626 
L 148.729037 40.731561 
L 149.27786 41.003609 
L 149.857174 41.555316 
L 150.466977 42.45962 
L 151.076781 43.78394 
L 151.656094 45.588223 
L 152.174427 47.954561 
L 152.601289 50.981586 
L 152.936681 55.104048 
L 153.150112 60.532041 
L 153.272073 69.433729 
L 153.302563 74.00589 
L 153.333053 70.282217 
L 153.515994 58.774994 
L 153.820896 53.363845 
L 154.217268 50.043627 
L 154.705111 47.708289 
L 155.253934 46.108126 
L 155.833247 45.065705 
L 156.41256 44.463288 
L 156.961383 44.203906 
L 157.479716 44.192628 
L 158.028539 44.414801 
L 158.607853 44.907532 
L 159.217656 45.741176 
L 159.827459 46.967492 
L 160.406773 48.62931 
L 160.955596 50.924648 
L 161.412948 53.874121 
L 161.74834 57.474203 
L 161.992262 62.501438 
L 162.144712 70.47418 
L 162.175203 73.100704 
L 162.236183 70.328917 
L 162.449614 60.989479 
L 162.785006 56.037591 
L 163.211868 52.932263 
L 163.730201 50.755864 
L 164.279024 49.339937 
L 164.858338 48.420928 
L 165.437651 47.907552 
L 165.986474 47.716496 
L 166.504807 47.764644 
L 167.05363 48.04613 
L 167.632943 48.605971 
L 168.242746 49.520243 
L 168.85255 50.850902 
L 169.431863 52.663264 
L 169.950196 55.040668 
L 170.377058 58.076453 
L 170.71245 62.206764 
L 170.925881 67.543404 
L 171.078332 74.76759 
L 171.108823 73.627087 
L 171.383234 63.465806 
L 171.718626 59.103573 
L 172.145488 56.202019 
L 172.663821 54.125541 
L 173.243134 52.704369 
L 173.822448 51.843348 
L 174.371271 51.388001 
L 174.920094 51.212852 
L 175.438427 51.273484 
L 175.98725 51.565752 
L 176.566563 52.135595 
L 177.176366 53.059927 
L 177.78617 54.40057 
L 178.365483 56.224628 
L 178.883816 58.618243 
L 179.310678 61.681547 
L 179.64607 65.881696 
L 179.859501 71.47337 
L 180.011952 79.977198 
L 180.042442 77.812052 
L 180.286364 67.548892 
L 180.621756 62.890203 
L 181.048618 59.885374 
L 181.566951 57.758834 
L 182.115774 56.36965 
L 182.695087 55.467433 
L 183.24391 54.984165 
L 183.792733 54.786456 
L 184.311066 54.828738 
L 184.859889 55.10312 
L 185.439203 55.654454 
L 186.049006 56.558428 
L 186.658809 57.875196 
L 187.238123 59.668804 
L 187.756456 62.018186 
L 188.183318 65.005334 
L 188.51871 69.029715 
L 188.732141 74.111124 
L 188.884592 81.795828 
L 188.945572 79.674604 
L 189.189494 70.770593 
L 189.524885 66.262396 
L 189.951748 63.302882 
L 190.470081 61.193198 
L 191.049394 59.748758 
L 191.628707 58.869067 
L 192.20802 58.380436 
L 192.756844 58.203515 
L 193.275176 58.260652 
L 193.823999 58.547084 
L 194.403313 59.108031 
L 195.013116 60.019101 
L 195.62292 61.339438 
L 196.202233 63.131622 
L 196.720566 65.471475 
L 197.147428 68.43508 
L 197.48282 72.410371 
L 197.696251 77.458563 
L 197.818212 84.847304 
L 197.879192 92.631889 
L 197.909682 86.559028 
L 198.092623 76.114517 
L 198.397525 70.881 
L 198.793897 67.615139 
L 199.28174 65.312726 
L 199.830563 63.728183 
L 200.409876 62.697707 
L 200.98919 62.104472 
L 201.538013 61.850844 
L 202.056346 61.84688 
L 202.605169 62.075323 
L 203.184482 62.57803 
L 203.794285 63.426215 
L 204.404089 64.674722 
L 204.983402 66.376856 
L 205.501735 68.588339 
L 205.959087 71.591858 
L 206.294479 75.309414 
L 206.538401 80.638809 
L 206.721342 88.602415 
L 206.751832 87.231794 
L 207.026243 77.330305 
L 207.361635 73.015082 
L 207.818988 69.968701 
L 208.337321 67.947489 
L 208.916634 66.549916 
L 209.495947 65.695085 
L 210.07526 65.220493 
L 210.624083 65.050738 
L 211.172906 65.120628 
L 211.72173 65.419191 
L 212.301043 65.989644 
L 212.910846 66.907394 
L 213.52065 68.230148 
L 214.099963 70.01778 
L 214.618296 72.339411 
L 215.045158 75.253101 
L 215.38055 79.071967 
L 215.624471 84.484183 
L 215.776922 89.666672 
L 215.837903 88.279727 
L 216.142804 79.97061 
L 216.508686 75.923818 
L 216.966039 73.211848 
L 217.484372 71.373176 
L 218.063685 70.107541 
L 218.642998 69.358078 
L 219.191821 68.993061 
L 219.710154 68.902098 
L 220.228487 69.034522 
L 220.77731 69.413281 
L 221.356623 70.095581 
L 221.966427 71.180853 
L 222.54574 72.672086 
L 223.094563 74.716769 
L 223.551916 77.260449 
L 223.948288 80.82169 
L 224.222699 85.250213 
L 224.466621 90.543442 
L 224.497111 90.176593 
L 225.045934 80.279979 
L 225.472796 77.181886 
L 225.991129 74.970607 
L 226.570443 73.443263 
L 227.149756 72.491691 
L 227.729069 71.933366 
L 228.277892 71.687434 
L 228.826715 71.678381 
L 229.375538 71.889795 
L 229.954851 72.351684 
L 230.564655 73.12296 
L 231.204948 74.304828 
L 231.814752 75.899958 
L 232.394065 78.062122 
L 232.881908 80.745944 
L 233.30877 84.431709 
L 233.796613 89.836196 
L 233.857593 89.557297 
L 234.162495 85.903263 
L 234.619848 82.00887 
L 235.10769 79.658308 
L 235.656513 78.05269 
L 236.205336 77.072237 
L 236.754159 76.51197 
L 237.272492 76.281893 
L 237.760335 76.294804 
L 238.278668 76.538336 
L 238.827491 77.059461 
L 239.406804 77.937575 
L 239.986118 79.235759 
L 240.534941 81.01483 
L 241.053274 83.496902 
L 241.510626 86.853427 
L 241.998469 90.61373 
L 242.028959 90.589211 
L 242.15092 90.008417 
L 243.248566 82.428706 
L 243.827879 80.510889 
L 244.437682 79.220234 
L 245.047486 78.408663 
L 245.657289 77.947205 
L 246.236603 77.77232 
L 246.815916 77.823862 
L 247.425719 78.108844 
L 248.066013 78.663832 
L 248.736796 79.54769 
L 249.43807 80.858507 
L 250.139344 82.677288 
L 250.810128 85.078611 
L 251.602873 88.884308 
L 251.999245 90.32423 
L 252.182186 90.414608 
L 252.334637 90.179339 
L 252.670028 89.099706 
L 253.493263 86.451293 
L 254.072576 85.324788 
L 254.621399 84.723012 
L 255.109242 84.496344 
L 255.566595 84.515891 
L 256.054437 84.771592 
L 256.57277 85.311921 
L 257.152084 86.268247 
L 257.792377 87.799081 
L 258.920513 90.672791 
L 259.103454 90.699544 
L 259.316886 90.446697 
L 259.652278 89.602545 
L 261.115806 85.513897 
L 261.84757 84.25432 
L 262.548844 83.458638 
L 263.250118 82.985246 
L 263.920901 82.787106 
L 264.622175 82.815738 
L 265.353939 83.082547 
L 266.116194 83.605376 
L 266.969918 84.479193 
L 267.915114 85.786757 
L 269.195701 87.991192 
L 270.384817 89.907028 
L 271.025111 90.532071 
L 271.604424 90.797777 
L 272.397169 90.884335 
L 274.927853 90.818749 
L 275.598637 90.51655 
L 276.330401 89.92053 
L 277.732949 88.39781 
L 279.013536 87.169394 
L 280.019711 86.504223 
L 280.964907 86.14073 
L 281.910102 86.01833 
L 282.885787 86.122561 
L 283.952943 86.469991 
L 285.233531 87.137096 
L 289.197253 89.39628 
L 290.325389 89.659595 
L 291.453525 89.690053 
L 292.673132 89.494744 
L 294.258621 88.995265 
L 297.429599 87.951359 
L 298.923617 87.727371 
L 300.417635 87.732065 
L 302.094595 87.968487 
L 305.296063 88.713802 
L 307.430375 89.072053 
L 309.290275 89.156375 
L 311.485567 89.017408 
L 316.912818 88.574762 
L 319.473992 88.672383 
L 328.255161 89.227853 
L 338.133976 89.248628 
L 346.854165 89.549211 
L 357.617195 89.760718 
L 369.20346 90.043585 
L 387.954915 90.537836 
L 387.954915 90.537836 
" clip-path="url(#p14c74ed39e)" style="fill: none; stroke: #c4a46f; stroke-width: 1.5; stroke-linecap: square"/>
   </g>
   <g id="patch_3">
    <path d="M 67.808125 139.811563 
L 67.808125 10.8 
" style="fill: none; stroke: #000000; stroke-width: 0.8; stroke-linejoin: miter; stroke-linecap: square"/>
   </g>
   <g id="patch_4">
    <path d="M 403.2 139.811563 
L 403.2 10.8 
" style="fill: none; stroke: #000000; stroke-width: 0.8; stroke-linejoin: miter; stroke-linecap: square"/>
   </g>
   <g id="patch_5">
    <path d="M 67.808125 139.811563 
L 403.2 139.811563 
" style="fill: none; stroke: #000000; stroke-width: 0.8; stroke-linejoin: miter; stroke-linecap: square"/>
   </g>
   <g id="patch_6">
    <path d="M 67.808125 10.8 
L 403.2 10.8 
" style="fill: none; stroke: #000000; stroke-width: 0.8; stroke-linejoin: miter; stroke-linecap: square"/>
   </g>
   <g id="legend_1">
    <g id="patch_7">
     <path d="M 354.78 71.28 
L 396.9 71.28 
Q 398.7 71.28 398.7 69.48 
L 398.7 17.1 
Q 398.7 15.3 396.9 15.3 
L 354.78 15.3 
Q 352.98 15.3 352.98 17.1 
L 352.98 69.48 
Q 352.98 71.28 354.78 71.28 
z
" style="fill: #ffffff; opacity: 0.8; stroke: #cccccc; stroke-linejoin: miter"/>
    </g>
    <g id="line2d_15">
     <path d="M 356.58 22.59 
L 365.58 22.59 
L 374.58 22.59 
" style="fill: none; stroke: #225e7c; stroke-opacity: 0.8; stroke-width: 1.5; stroke-linecap: square"/>
    </g>
    <g id="text_13">
     <!-- $\phi_1$ -->
     <g transform="translate(381.78 25.74) scale(0.09 -0.09)">
      <use xlink:href="#DejaVuSans-Oblique-3d5" transform="translate(0 0.015625)"/>
      <use xlink:href="#DejaVuSans-31" transform="translate(65.966797 -16.390625) scale(0.7)"/>
     </g>
    </g>
    <g id="line2d_16">
     <path d="M 356.58 35.82 
L 365.58 35.82 
L 374.58 35.82 
" style="fill: none; stroke: #3e915b; stroke-opacity: 0.8; stroke-width: 1.5; stroke-linecap: square"/>
    </g>
    <g id="text_14">
     <!-- $\phi_2$ -->
     <g transform="translate(381.78 38.97) scale(0.09 -0.09)">
      <use xlink:href="#DejaVuSans-Oblique-3d5" transform="translate(0 0.015625)"/>
      <use xlink:href="#DejaVuSans-32" transform="translate(65.966797 -16.390625) scale(0.7)"/>
     </g>
    </g>
    <g id="line2d_17">
     <path d="M 356.58 49.05 
L 365.58 49.05 
L 374.58 49.05 
" style="fill: none; stroke: #8eac56; stroke-opacity: 0.8; stroke-width: 1.5; stroke-linecap: square"/>
    </g>
    <g id="text_15">
     <!-- $\phi_3$ -->
     <g transform="translate(381.78 52.2) scale(0.09 -0.09)">
      <defs>
       <path id="DejaVuSans-33" d="M 2597 2516 
Q 3050 2419 3304 2112 
Q 3559 1806 3559 1356 
Q 3559 666 3084 287 
Q 2609 -91 1734 -91 
Q 1441 -91 1130 -33 
Q 819 25 488 141 
L 488 750 
Q 750 597 1062 519 
Q 1375 441 1716 441 
Q 2309 441 2620 675 
Q 2931 909 2931 1356 
Q 2931 1769 2642 2001 
Q 2353 2234 1838 2234 
L 1294 2234 
L 1294 2753 
L 1863 2753 
Q 2328 2753 2575 2939 
Q 2822 3125 2822 3475 
Q 2822 3834 2567 4026 
Q 2313 4219 1838 4219 
Q 1578 4219 1281 4162 
Q 984 4106 628 3988 
L 628 4550 
Q 988 4650 1302 4700 
Q 1616 4750 1894 4750 
Q 2613 4750 3031 4423 
Q 3450 4097 3450 3541 
Q 3450 3153 3228 2886 
Q 3006 2619 2597 2516 
z
" transform="scale(0.015625)"/>
      </defs>
      <use xlink:href="#DejaVuSans-Oblique-3d5" transform="translate(0 0.015625)"/>
      <use xlink:href="#DejaVuSans-33" transform="translate(65.966797 -16.390625) scale(0.7)"/>
     </g>
    </g>
    <g id="line2d_18">
     <path d="M 356.58 62.37 
L 365.58 62.37 
L 374.58 62.37 
" style="fill: none; stroke: #c4a46f; stroke-width: 1.5; stroke-linecap: square"/>
    </g>
    <g id="text_16">
     <!-- $|\mathbf{\phi}|$ -->
     <g transform="translate(381.78 65.52) scale(0.09 -0.09)">
      <defs>
       <path id="DejaVuSans-7c" d="M 1344 4891 
L 1344 -1509 
L 813 -1509 
L 813 4891 
L 1344 4891 
z
" transform="scale(0.015625)"/>
       <path id="DejaVuSans-Bold-3d5" d="M 3081 2709 
L 3081 831 
L 3275 975 
Q 3544 1178 3544 1747 
Q 3544 2234 3275 2575 
Q 3169 2709 3081 2709 
z
M 3081 -75 
L 3081 -1331 
L 1969 -1331 
L 1969 -75 
Q 1303 22 913 400 
Q 384 906 384 1747 
Q 384 2550 813 3097 
Q 1125 3488 1969 3566 
L 1969 4863 
L 3081 4863 
L 3081 3566 
Q 3925 3488 4238 3097 
Q 4666 2550 4666 1747 
Q 4666 906 4138 400 
Q 3747 22 3081 -75 
z
M 1969 831 
L 1969 2709 
Q 1881 2709 1775 2575 
Q 1506 2234 1506 1747 
Q 1506 1178 1775 975 
L 1969 831 
z
" transform="scale(0.015625)"/>
      </defs>
      <use xlink:href="#DejaVuSans-7c" transform="translate(0 0.578125)"/>
      <use xlink:href="#DejaVuSans-Bold-3d5" transform="translate(33.691406 0.578125)"/>
      <use xlink:href="#DejaVuSans-7c" transform="translate(113.330078 0.578125)"/>
     </g>
    </g>
   </g>
  </g>
 </g>
 <defs>
  <clipPath id="p14c74ed39e">
   <rect x="67.808125" y="10.8" width="335.391875" height="129.011562"/>
  </clipPath>
 </defs>
</svg>
