<?xml version="1.0" encoding="utf-8" standalone="no"?>
<!DOCTYPE svg PUBLIC "-//W3C//DTD SVG 1.1//EN"
  "http://www.w3.org/Graphics/SVG/1.1/DTD/svg11.dtd">
<svg xmlns:xlink="http://www.w3.org/1999/xlink" width="504pt" height="432pt" viewBox="0 0 504 432" xmlns="http://www.w3.org/2000/svg" version="1.1">
 <metadata>
  <rdf:RDF xmlns:dc="http://purl.org/dc/elements/1.1/" xmlns:cc="http://creativecommons.org/ns#" xmlns:rdf="http://www.w3.org/1999/02/22-rdf-syntax-ns#">
   <cc:Work>
    <dc:type rdf:resource="http://purl.org/dc/dcmitype/StillImage"/>
    <dc:date>2026-01-06T16:25:23.007009</dc:date>
    <dc:format>image/svg+xml</dc:format>
    <dc:creator>
     <cc:Agent>
      <dc:title>Matplotlib v3.10.7, https://matplotlib.org/</dc:title>
     </cc:Agent>
    </dc:creator>
   </cc:Work>
  </rdf:RDF>
 </metadata>
 <defs>
  <style type="text/css">*{stroke-linejoin: round; stroke-linecap: butt}</style>
 </defs>
 <g id="figure_1">
  <g id="patch_1">
   <path d="M 0 432 
L 504 432 
L 504 0 
L 0 0 
L 0 432 
z
" style="fill: none"/>
  </g>
  <g id="axes_1">
   <g id="patch_2">
    <path d="M 94.92 362.623125 
L 470.9475 362.623125 
L 470.9475 21.6 
L 94.92 21.6 
L 94.92 362.623125 
z
" style="fill: none"/>
   </g>
   <g id="matplotlib.axis_1">
    <g id="xtick_1">
     <g id="line2d_1">
      <defs>
       <path id="m87629c6c75" d="M 0 0 
L 0 3.5 
" style="stroke: #000000; stroke-width: 0.8"/>
      </defs>
      <g>
       <use xlink:href="#m87629c6c75" x="94.92" y="362.623125" style="stroke: #000000; stroke-width: 0.8"/>
      </g>
     </g>
     <g id="text_1">
      <!-- 0 -->
      <g transform="translate(89.19375 383.300313) scale(0.18 -0.18)">
       <defs>
        <path id="DejaVuSerif-30" d="M 2034 219 
Q 2513 219 2750 744 
Q 2988 1269 2988 2328 
Q 2988 3391 2750 3916 
Q 2513 4441 2034 4441 
Q 1556 4441 1318 3916 
Q 1081 3391 1081 2328 
Q 1081 1269 1318 744 
Q 1556 219 2034 219 
z
M 2034 -91 
Q 1275 -91 848 546 
Q 422 1184 422 2328 
Q 422 3475 848 4112 
Q 1275 4750 2034 4750 
Q 2797 4750 3222 4112 
Q 3647 3475 3647 2328 
Q 3647 1184 3222 546 
Q 2797 -91 2034 -91 
z
" transform="scale(0.015625)"/>
       </defs>
       <use xlink:href="#DejaVuSerif-30"/>
      </g>
     </g>
    </g>
    <g id="xtick_2">
     <g id="line2d_2">
      <g>
       <use xlink:href="#m87629c6c75" x="188.926875" y="362.623125" style="stroke: #000000; stroke-width: 0.8"/>
      </g>
     </g>
     <g id="text_2">
      <!-- 10 -->
      <g transform="translate(177.474375 383.300313) scale(0.18 -0.18)">
       <defs>
        <path id="DejaVuSerif-31" d="M 909 0 
L 909 331 
L 1722 331 
L 1722 4213 
L 781 3603 
L 781 4013 
L 1919 4750 
L 2350 4750 
L 2350 331 
L 3163 331 
L 3163 0 
L 909 0 
z
" transform="scale(0.015625)"/>
       </defs>
       <use xlink:href="#DejaVuSerif-31"/>
       <use xlink:href="#DejaVuSerif-30" transform="translate(63.623047 0)"/>
      </g>
     </g>
    </g>
    <g id="xtick_3">
     <g id="line2d_3">
      <g>
       <use xlink:href="#m87629c6c75" x="282.93375" y="362.623125" style="stroke: #000000; stroke-width: 0.8"/>
      </g>
     </g>
     <g id="text_3">
      <!-- 20 -->
      <g transform="translate(271.48125 383.300313) scale(0.18 -0.18)">
       <defs>
        <path id="DejaVuSerif-32" d="M 819 3553 
L 469 3553 
L 469 4384 
Q 803 4563 1142 4656 
Q 1481 4750 1806 4750 
Q 2534 4750 2956 4397 
Q 3378 4044 3378 3438 
Q 3378 2753 2422 1800 
Q 2347 1728 2309 1691 
L 1131 513 
L 3078 513 
L 3078 1088 
L 3444 1088 
L 3444 0 
L 434 0 
L 434 341 
L 1850 1753 
Q 2319 2222 2519 2614 
Q 2719 3006 2719 3438 
Q 2719 3909 2473 4175 
Q 2228 4441 1797 4441 
Q 1350 4441 1106 4219 
Q 863 3997 819 3553 
z
" transform="scale(0.015625)"/>
       </defs>
       <use xlink:href="#DejaVuSerif-32"/>
       <use xlink:href="#DejaVuSerif-30" transform="translate(63.623047 0)"/>
      </g>
     </g>
    </g>
    <g id="xtick_4">
     <g id="line2d_4">
      <g>
       <use xlink:href="#m87629c6c75" x="376.940625" y="362.623125" style="stroke: #000000; stroke-width: 0.8"/>
      </g>
     </g>
     <g id="text_4">
      <!-- 30 -->
      <g transform="translate(365.488125 383.300313) scale(0.18 -0.18)">
       <defs>
        <path id="DejaVuSerif-33" d="M 622 4469 
Q 988 4606 1323 4678 
Q 1659 4750 1953 4750 
Q 2638 4750 3022 4454 
Q 3406 4159 3406 3634 
Q 3406 3213 3140 2930 
Q 2875 2647 2388 2547 
Q 2963 2466 3280 2130 
Q 3597 1794 3597 1259 
Q 3597 606 3158 257 
Q 2719 -91 1894 -91 
Q 1528 -91 1179 -12 
Q 831 66 488 225 
L 488 1131 
L 838 1131 
Q 869 681 1141 450 
Q 1413 219 1906 219 
Q 2384 219 2661 495 
Q 2938 772 2938 1253 
Q 2938 1803 2653 2086 
Q 2369 2369 1819 2369 
L 1522 2369 
L 1522 2688 
L 1678 2688 
Q 2225 2688 2498 2914 
Q 2772 3141 2772 3597 
Q 2772 4006 2547 4223 
Q 2322 4441 1900 4441 
Q 1478 4441 1245 4241 
Q 1013 4041 972 3647 
L 622 3647 
L 622 4469 
z
" transform="scale(0.015625)"/>
       </defs>
       <use xlink:href="#DejaVuSerif-33"/>
       <use xlink:href="#DejaVuSerif-30" transform="translate(63.623047 0)"/>
      </g>
     </g>
    </g>
    <g id="xtick_5">
     <g id="line2d_5">
      <g>
       <use xlink:href="#m87629c6c75" x="470.9475" y="362.623125" style="stroke: #000000; stroke-width: 0.8"/>
      </g>
     </g>
     <g id="text_5">
      <!-- 40 -->
      <g transform="translate(459.495 383.300313) scale(0.18 -0.18)">
       <defs>
        <path id="DejaVuSerif-34" d="M 2234 1581 
L 2234 4063 
L 641 1581 
L 2234 1581 
z
M 3609 0 
L 1484 0 
L 1484 331 
L 2234 331 
L 2234 1247 
L 197 1247 
L 197 1588 
L 2241 4750 
L 2859 4750 
L 2859 1581 
L 3750 1581 
L 3750 1247 
L 2859 1247 
L 2859 331 
L 3609 331 
L 3609 0 
z
" transform="scale(0.015625)"/>
       </defs>
       <use xlink:href="#DejaVuSerif-34"/>
       <use xlink:href="#DejaVuSerif-30" transform="translate(63.623047 0)"/>
      </g>
     </g>
    </g>
    <g id="text_6">
     <!-- Time [min] -->
     <g transform="translate(227.560313 406.240625) scale(0.2 -0.2)">
      <defs>
       <path id="DejaVuSerif-54" d="M 1222 0 
L 1222 331 
L 1819 331 
L 1819 4294 
L 447 4294 
L 447 3566 
L 63 3566 
L 63 4666 
L 4206 4666 
L 4206 3566 
L 3822 3566 
L 3822 4294 
L 2450 4294 
L 2450 331 
L 3047 331 
L 3047 0 
L 1222 0 
z
" transform="scale(0.015625)"/>
       <path id="DejaVuSerif-69" d="M 622 4353 
Q 622 4497 726 4603 
Q 831 4709 978 4709 
Q 1122 4709 1226 4603 
Q 1331 4497 1331 4353 
Q 1331 4206 1228 4103 
Q 1125 4000 978 4000 
Q 831 4000 726 4103 
Q 622 4206 622 4353 
z
M 1356 331 
L 1900 331 
L 1900 0 
L 231 0 
L 231 331 
L 781 331 
L 781 2988 
L 231 2988 
L 231 3322 
L 1356 3322 
L 1356 331 
z
" transform="scale(0.015625)"/>
       <path id="DejaVuSerif-6d" d="M 3316 2675 
Q 3481 3041 3739 3227 
Q 3997 3413 4341 3413 
Q 4863 3413 5119 3089 
Q 5375 2766 5375 2113 
L 5375 331 
L 5894 331 
L 5894 0 
L 4300 0 
L 4300 331 
L 4800 331 
L 4800 2047 
Q 4800 2556 4650 2772 
Q 4500 2988 4153 2988 
Q 3769 2988 3567 2697 
Q 3366 2406 3366 1850 
L 3366 331 
L 3866 331 
L 3866 0 
L 2291 0 
L 2291 331 
L 2791 331 
L 2791 2069 
Q 2791 2566 2641 2777 
Q 2491 2988 2144 2988 
Q 1759 2988 1557 2697 
Q 1356 2406 1356 1850 
L 1356 331 
L 1856 331 
L 1856 0 
L 263 0 
L 263 331 
L 781 331 
L 781 2994 
L 231 2994 
L 231 3322 
L 1356 3322 
L 1356 2731 
Q 1516 3063 1762 3238 
Q 2009 3413 2322 3413 
Q 2709 3413 2968 3220 
Q 3228 3028 3316 2675 
z
" transform="scale(0.015625)"/>
       <path id="DejaVuSerif-65" d="M 3469 1600 
L 991 1600 
L 991 1575 
Q 991 903 1244 561 
Q 1497 219 1991 219 
Q 2369 219 2611 417 
Q 2853 616 2950 1006 
L 3413 1006 
Q 3275 459 2904 184 
Q 2534 -91 1931 -91 
Q 1203 -91 761 389 
Q 319 869 319 1663 
Q 319 2450 753 2931 
Q 1188 3413 1894 3413 
Q 2647 3413 3050 2948 
Q 3453 2484 3469 1600 
z
M 2791 1931 
Q 2772 2513 2545 2808 
Q 2319 3103 1894 3103 
Q 1497 3103 1269 2806 
Q 1041 2509 991 1931 
L 2791 1931 
z
" transform="scale(0.015625)"/>
       <path id="DejaVuSerif-20" transform="scale(0.015625)"/>
       <path id="DejaVuSerif-5b" d="M 550 4863 
L 2003 4863 
L 2003 4531 
L 1147 4531 
L 1147 -513 
L 2003 -513 
L 2003 -844 
L 550 -844 
L 550 4863 
z
" transform="scale(0.015625)"/>
       <path id="DejaVuSerif-6e" d="M 263 0 
L 263 331 
L 781 331 
L 781 2988 
L 231 2988 
L 231 3322 
L 1356 3322 
L 1356 2731 
Q 1516 3069 1770 3241 
Q 2025 3413 2363 3413 
Q 2913 3413 3172 3097 
Q 3431 2781 3431 2113 
L 3431 331 
L 3944 331 
L 3944 0 
L 2356 0 
L 2356 331 
L 2853 331 
L 2853 1931 
Q 2853 2541 2703 2767 
Q 2553 2994 2175 2994 
Q 1775 2994 1565 2701 
Q 1356 2409 1356 1850 
L 1356 331 
L 1856 331 
L 1856 0 
L 263 0 
z
" transform="scale(0.015625)"/>
       <path id="DejaVuSerif-5d" d="M 1947 4863 
L 1947 -844 
L 494 -844 
L 494 -513 
L 1350 -513 
L 1350 4531 
L 494 4531 
L 494 4863 
L 1947 4863 
z
" transform="scale(0.015625)"/>
      </defs>
      <use xlink:href="#DejaVuSerif-54"/>
      <use xlink:href="#DejaVuSerif-69" transform="translate(66.699219 0)"/>
      <use xlink:href="#DejaVuSerif-6d" transform="translate(98.681641 0)"/>
      <use xlink:href="#DejaVuSerif-65" transform="translate(193.505859 0)"/>
      <use xlink:href="#DejaVuSerif-20" transform="translate(252.685547 0)"/>
      <use xlink:href="#DejaVuSerif-5b" transform="translate(284.472656 0)"/>
      <use xlink:href="#DejaVuSerif-6d" transform="translate(323.486328 0)"/>
      <use xlink:href="#DejaVuSerif-69" transform="translate(418.310547 0)"/>
      <use xlink:href="#DejaVuSerif-6e" transform="translate(450.292969 0)"/>
      <use xlink:href="#DejaVuSerif-5d" transform="translate(514.697266 0)"/>
     </g>
    </g>
   </g>
   <g id="matplotlib.axis_2">
    <g id="ytick_1">
     <g id="line2d_6">
      <defs>
       <path id="mbd9e12f659" d="M 0 0 
L -3.5 0 
" style="stroke: #000000; stroke-width: 0.8"/>
      </defs>
      <g>
       <use xlink:href="#mbd9e12f659" x="94.92" y="325.298328" style="stroke: #000000; stroke-width: 0.8"/>
      </g>
     </g>
     <g id="text_7">
      <!-- $\mathdefault{10^{-7}}$ -->
      <g transform="translate(45.8 332.136922) scale(0.18 -0.18)">
       <defs>
        <path id="DejaVuSerif-2212" d="M 678 2259 
L 4684 2259 
L 4684 1753 
L 678 1753 
L 678 2259 
z
" transform="scale(0.015625)"/>
        <path id="DejaVuSerif-37" d="M 3609 4347 
L 1784 0 
L 1319 0 
L 3059 4153 
L 903 4153 
L 903 3578 
L 538 3578 
L 538 4666 
L 3609 4666 
L 3609 4347 
z
" transform="scale(0.015625)"/>
       </defs>
       <use xlink:href="#DejaVuSerif-31" transform="translate(0 0.63125)"/>
       <use xlink:href="#DejaVuSerif-30" transform="translate(63.623047 0.63125)"/>
       <use xlink:href="#DejaVuSerif-2212" transform="translate(128.154453 36.965625) scale(0.7)"/>
       <use xlink:href="#DejaVuSerif-37" transform="translate(186.806797 36.965625) scale(0.7)"/>
      </g>
     </g>
    </g>
    <g id="ytick_2">
     <g id="line2d_7">
      <g>
       <use xlink:href="#mbd9e12f659" x="94.92" y="284.052143" style="stroke: #000000; stroke-width: 0.8"/>
      </g>
     </g>
     <g id="text_8">
      <!-- $\mathdefault{10^{-6}}$ -->
      <g transform="translate(45.8 290.890737) scale(0.18 -0.18)">
       <defs>
        <path id="DejaVuSerif-36" d="M 2094 219 
Q 2534 219 2771 542 
Q 3009 866 3009 1472 
Q 3009 2078 2771 2401 
Q 2534 2725 2094 2725 
Q 1647 2725 1412 2412 
Q 1178 2100 1178 1509 
Q 1178 888 1415 553 
Q 1653 219 2094 219 
z
M 1075 2569 
Q 1288 2803 1556 2918 
Q 1825 3034 2163 3034 
Q 2859 3034 3264 2615 
Q 3669 2197 3669 1472 
Q 3669 763 3233 336 
Q 2797 -91 2069 -91 
Q 1278 -91 853 498 
Q 428 1088 428 2181 
Q 428 3406 931 4078 
Q 1434 4750 2350 4750 
Q 2597 4750 2869 4703 
Q 3141 4656 3425 4563 
L 3425 3794 
L 3072 3794 
Q 3034 4109 2831 4275 
Q 2628 4441 2284 4441 
Q 1678 4441 1381 3981 
Q 1084 3522 1075 2569 
z
" transform="scale(0.015625)"/>
       </defs>
       <use xlink:href="#DejaVuSerif-31" transform="translate(0 0.7125)"/>
       <use xlink:href="#DejaVuSerif-30" transform="translate(63.623047 0.7125)"/>
       <use xlink:href="#DejaVuSerif-2212" transform="translate(128.154453 37.046875) scale(0.7)"/>
       <use xlink:href="#DejaVuSerif-36" transform="translate(186.806797 37.046875) scale(0.7)"/>
      </g>
     </g>
    </g>
    <g id="ytick_3">
     <g id="line2d_8">
      <g>
       <use xlink:href="#mbd9e12f659" x="94.92" y="242.805958" style="stroke: #000000; stroke-width: 0.8"/>
      </g>
     </g>
     <g id="text_9">
      <!-- $\mathdefault{10^{-5}}$ -->
      <g transform="translate(45.8 249.644552) scale(0.18 -0.18)">
       <defs>
        <path id="DejaVuSerif-35" d="M 3219 4666 
L 3219 4153 
L 1081 4153 
L 1081 2816 
Q 1244 2928 1461 2984 
Q 1678 3041 1947 3041 
Q 2703 3041 3140 2622 
Q 3578 2203 3578 1478 
Q 3578 738 3136 323 
Q 2694 -91 1894 -91 
Q 1572 -91 1234 -12 
Q 897 66 544 225 
L 544 1131 
L 897 1131 
Q 925 688 1179 453 
Q 1434 219 1894 219 
Q 2388 219 2653 544 
Q 2919 869 2919 1478 
Q 2919 2084 2655 2407 
Q 2391 2731 1894 2731 
Q 1613 2731 1398 2631 
Q 1184 2531 1019 2322 
L 750 2322 
L 750 4666 
L 3219 4666 
z
" transform="scale(0.015625)"/>
       </defs>
       <use xlink:href="#DejaVuSerif-31" transform="translate(0 0.63125)"/>
       <use xlink:href="#DejaVuSerif-30" transform="translate(63.623047 0.63125)"/>
       <use xlink:href="#DejaVuSerif-2212" transform="translate(128.154453 36.965625) scale(0.7)"/>
       <use xlink:href="#DejaVuSerif-35" transform="translate(186.806797 36.965625) scale(0.7)"/>
      </g>
     </g>
    </g>
    <g id="ytick_4">
     <g id="line2d_9">
      <g>
       <use xlink:href="#mbd9e12f659" x="94.92" y="201.559774" style="stroke: #000000; stroke-width: 0.8"/>
      </g>
     </g>
     <g id="text_10">
      <!-- $\mathdefault{10^{-4}}$ -->
      <g transform="translate(45.8 208.398367) scale(0.18 -0.18)">
       <use xlink:href="#DejaVuSerif-31" transform="translate(0 0.7125)"/>
       <use xlink:href="#DejaVuSerif-30" transform="translate(63.623047 0.7125)"/>
       <use xlink:href="#DejaVuSerif-2212" transform="translate(128.154453 37.046875) scale(0.7)"/>
       <use xlink:href="#DejaVuSerif-34" transform="translate(186.806797 37.046875) scale(0.7)"/>
      </g>
     </g>
    </g>
    <g id="ytick_5">
     <g id="line2d_10">
      <g>
       <use xlink:href="#mbd9e12f659" x="94.92" y="160.313589" style="stroke: #000000; stroke-width: 0.8"/>
      </g>
     </g>
     <g id="text_11">
      <!-- $\mathdefault{10^{-3}}$ -->
      <g transform="translate(45.8 167.152183) scale(0.18 -0.18)">
       <use xlink:href="#DejaVuSerif-31" transform="translate(0 0.7125)"/>
       <use xlink:href="#DejaVuSerif-30" transform="translate(63.623047 0.7125)"/>
       <use xlink:href="#DejaVuSerif-2212" transform="translate(128.154453 37.046875) scale(0.7)"/>
       <use xlink:href="#DejaVuSerif-33" transform="translate(186.806797 37.046875) scale(0.7)"/>
      </g>
     </g>
    </g>
    <g id="ytick_6">
     <g id="line2d_11">
      <g>
       <use xlink:href="#mbd9e12f659" x="94.92" y="119.067404" style="stroke: #000000; stroke-width: 0.8"/>
      </g>
     </g>
     <g id="text_12">
      <!-- $\mathdefault{10^{-2}}$ -->
      <g transform="translate(45.8 125.905998) scale(0.18 -0.18)">
       <use xlink:href="#DejaVuSerif-31" transform="translate(0 0.7125)"/>
       <use xlink:href="#DejaVuSerif-30" transform="translate(63.623047 0.7125)"/>
       <use xlink:href="#DejaVuSerif-2212" transform="translate(128.154453 37.046875) scale(0.7)"/>
       <use xlink:href="#DejaVuSerif-32" transform="translate(186.806797 37.046875) scale(0.7)"/>
      </g>
     </g>
    </g>
    <g id="ytick_7">
     <g id="line2d_12">
      <g>
       <use xlink:href="#mbd9e12f659" x="94.92" y="77.82122" style="stroke: #000000; stroke-width: 0.8"/>
      </g>
     </g>
     <g id="text_13">
      <!-- $\mathdefault{10^{-1}}$ -->
      <g transform="translate(45.8 84.659813) scale(0.18 -0.18)">
       <use xlink:href="#DejaVuSerif-31" transform="translate(0 0.7125)"/>
       <use xlink:href="#DejaVuSerif-30" transform="translate(63.623047 0.7125)"/>
       <use xlink:href="#DejaVuSerif-2212" transform="translate(128.154453 37.046875) scale(0.7)"/>
       <use xlink:href="#DejaVuSerif-31" transform="translate(186.806797 37.046875) scale(0.7)"/>
      </g>
     </g>
    </g>
    <g id="ytick_8">
     <g id="line2d_13">
      <g>
       <use xlink:href="#mbd9e12f659" x="94.92" y="36.575035" style="stroke: #000000; stroke-width: 0.8"/>
      </g>
     </g>
     <g id="text_14">
      <!-- $\mathdefault{10^{0}}$ -->
      <g transform="translate(56.24 43.413629) scale(0.18 -0.18)">
       <use xlink:href="#DejaVuSerif-31" transform="translate(0 0.7125)"/>
       <use xlink:href="#DejaVuSerif-30" transform="translate(63.623047 0.7125)"/>
       <use xlink:href="#DejaVuSerif-30" transform="translate(128.154453 37.046875) scale(0.7)"/>
      </g>
     </g>
    </g>
    <g id="ytick_9">
     <g id="line2d_14">
      <defs>
       <path id="m95807cfb7f" d="M 0 0 
L -2 0 
" style="stroke: #000000; stroke-width: 0.6"/>
      </defs>
      <g>
       <use xlink:href="#m95807cfb7f" x="94.92" y="354.128174" style="stroke: #000000; stroke-width: 0.6"/>
      </g>
     </g>
    </g>
    <g id="ytick_10">
     <g id="line2d_15">
      <g>
       <use xlink:href="#m95807cfb7f" x="94.92" y="346.865081" style="stroke: #000000; stroke-width: 0.6"/>
      </g>
     </g>
    </g>
    <g id="ytick_11">
     <g id="line2d_16">
      <g>
       <use xlink:href="#m95807cfb7f" x="94.92" y="341.711835" style="stroke: #000000; stroke-width: 0.6"/>
      </g>
     </g>
    </g>
    <g id="ytick_12">
     <g id="line2d_17">
      <g>
       <use xlink:href="#m95807cfb7f" x="94.92" y="337.714667" style="stroke: #000000; stroke-width: 0.6"/>
      </g>
     </g>
    </g>
    <g id="ytick_13">
     <g id="line2d_18">
      <g>
       <use xlink:href="#m95807cfb7f" x="94.92" y="334.448742" style="stroke: #000000; stroke-width: 0.6"/>
      </g>
     </g>
    </g>
    <g id="ytick_14">
     <g id="line2d_19">
      <g>
       <use xlink:href="#m95807cfb7f" x="94.92" y="331.687443" style="stroke: #000000; stroke-width: 0.6"/>
      </g>
     </g>
    </g>
    <g id="ytick_15">
     <g id="line2d_20">
      <g>
       <use xlink:href="#m95807cfb7f" x="94.92" y="329.295496" style="stroke: #000000; stroke-width: 0.6"/>
      </g>
     </g>
    </g>
    <g id="ytick_16">
     <g id="line2d_21">
      <g>
       <use xlink:href="#m95807cfb7f" x="94.92" y="327.18565" style="stroke: #000000; stroke-width: 0.6"/>
      </g>
     </g>
    </g>
    <g id="ytick_17">
     <g id="line2d_22">
      <g>
       <use xlink:href="#m95807cfb7f" x="94.92" y="312.881989" style="stroke: #000000; stroke-width: 0.6"/>
      </g>
     </g>
    </g>
    <g id="ytick_18">
     <g id="line2d_23">
      <g>
       <use xlink:href="#m95807cfb7f" x="94.92" y="305.618896" style="stroke: #000000; stroke-width: 0.6"/>
      </g>
     </g>
    </g>
    <g id="ytick_19">
     <g id="line2d_24">
      <g>
       <use xlink:href="#m95807cfb7f" x="94.92" y="300.46565" style="stroke: #000000; stroke-width: 0.6"/>
      </g>
     </g>
    </g>
    <g id="ytick_20">
     <g id="line2d_25">
      <g>
       <use xlink:href="#m95807cfb7f" x="94.92" y="296.468482" style="stroke: #000000; stroke-width: 0.6"/>
      </g>
     </g>
    </g>
    <g id="ytick_21">
     <g id="line2d_26">
      <g>
       <use xlink:href="#m95807cfb7f" x="94.92" y="293.202558" style="stroke: #000000; stroke-width: 0.6"/>
      </g>
     </g>
    </g>
    <g id="ytick_22">
     <g id="line2d_27">
      <g>
       <use xlink:href="#m95807cfb7f" x="94.92" y="290.441258" style="stroke: #000000; stroke-width: 0.6"/>
      </g>
     </g>
    </g>
    <g id="ytick_23">
     <g id="line2d_28">
      <g>
       <use xlink:href="#m95807cfb7f" x="94.92" y="288.049311" style="stroke: #000000; stroke-width: 0.6"/>
      </g>
     </g>
    </g>
    <g id="ytick_24">
     <g id="line2d_29">
      <g>
       <use xlink:href="#m95807cfb7f" x="94.92" y="285.939465" style="stroke: #000000; stroke-width: 0.6"/>
      </g>
     </g>
    </g>
    <g id="ytick_25">
     <g id="line2d_30">
      <g>
       <use xlink:href="#m95807cfb7f" x="94.92" y="271.635804" style="stroke: #000000; stroke-width: 0.6"/>
      </g>
     </g>
    </g>
    <g id="ytick_26">
     <g id="line2d_31">
      <g>
       <use xlink:href="#m95807cfb7f" x="94.92" y="264.372712" style="stroke: #000000; stroke-width: 0.6"/>
      </g>
     </g>
    </g>
    <g id="ytick_27">
     <g id="line2d_32">
      <g>
       <use xlink:href="#m95807cfb7f" x="94.92" y="259.219466" style="stroke: #000000; stroke-width: 0.6"/>
      </g>
     </g>
    </g>
    <g id="ytick_28">
     <g id="line2d_33">
      <g>
       <use xlink:href="#m95807cfb7f" x="94.92" y="255.222297" style="stroke: #000000; stroke-width: 0.6"/>
      </g>
     </g>
    </g>
    <g id="ytick_29">
     <g id="line2d_34">
      <g>
       <use xlink:href="#m95807cfb7f" x="94.92" y="251.956373" style="stroke: #000000; stroke-width: 0.6"/>
      </g>
     </g>
    </g>
    <g id="ytick_30">
     <g id="line2d_35">
      <g>
       <use xlink:href="#m95807cfb7f" x="94.92" y="249.195073" style="stroke: #000000; stroke-width: 0.6"/>
      </g>
     </g>
    </g>
    <g id="ytick_31">
     <g id="line2d_36">
      <g>
       <use xlink:href="#m95807cfb7f" x="94.92" y="246.803127" style="stroke: #000000; stroke-width: 0.6"/>
      </g>
     </g>
    </g>
    <g id="ytick_32">
     <g id="line2d_37">
      <g>
       <use xlink:href="#m95807cfb7f" x="94.92" y="244.69328" style="stroke: #000000; stroke-width: 0.6"/>
      </g>
     </g>
    </g>
    <g id="ytick_33">
     <g id="line2d_38">
      <g>
       <use xlink:href="#m95807cfb7f" x="94.92" y="230.38962" style="stroke: #000000; stroke-width: 0.6"/>
      </g>
     </g>
    </g>
    <g id="ytick_34">
     <g id="line2d_39">
      <g>
       <use xlink:href="#m95807cfb7f" x="94.92" y="223.126527" style="stroke: #000000; stroke-width: 0.6"/>
      </g>
     </g>
    </g>
    <g id="ytick_35">
     <g id="line2d_40">
      <g>
       <use xlink:href="#m95807cfb7f" x="94.92" y="217.973281" style="stroke: #000000; stroke-width: 0.6"/>
      </g>
     </g>
    </g>
    <g id="ytick_36">
     <g id="line2d_41">
      <g>
       <use xlink:href="#m95807cfb7f" x="94.92" y="213.976113" style="stroke: #000000; stroke-width: 0.6"/>
      </g>
     </g>
    </g>
    <g id="ytick_37">
     <g id="line2d_42">
      <g>
       <use xlink:href="#m95807cfb7f" x="94.92" y="210.710188" style="stroke: #000000; stroke-width: 0.6"/>
      </g>
     </g>
    </g>
    <g id="ytick_38">
     <g id="line2d_43">
      <g>
       <use xlink:href="#m95807cfb7f" x="94.92" y="207.948889" style="stroke: #000000; stroke-width: 0.6"/>
      </g>
     </g>
    </g>
    <g id="ytick_39">
     <g id="line2d_44">
      <g>
       <use xlink:href="#m95807cfb7f" x="94.92" y="205.556942" style="stroke: #000000; stroke-width: 0.6"/>
      </g>
     </g>
    </g>
    <g id="ytick_40">
     <g id="line2d_45">
      <g>
       <use xlink:href="#m95807cfb7f" x="94.92" y="203.447096" style="stroke: #000000; stroke-width: 0.6"/>
      </g>
     </g>
    </g>
    <g id="ytick_41">
     <g id="line2d_46">
      <g>
       <use xlink:href="#m95807cfb7f" x="94.92" y="189.143435" style="stroke: #000000; stroke-width: 0.6"/>
      </g>
     </g>
    </g>
    <g id="ytick_42">
     <g id="line2d_47">
      <g>
       <use xlink:href="#m95807cfb7f" x="94.92" y="181.880342" style="stroke: #000000; stroke-width: 0.6"/>
      </g>
     </g>
    </g>
    <g id="ytick_43">
     <g id="line2d_48">
      <g>
       <use xlink:href="#m95807cfb7f" x="94.92" y="176.727096" style="stroke: #000000; stroke-width: 0.6"/>
      </g>
     </g>
    </g>
    <g id="ytick_44">
     <g id="line2d_49">
      <g>
       <use xlink:href="#m95807cfb7f" x="94.92" y="172.729928" style="stroke: #000000; stroke-width: 0.6"/>
      </g>
     </g>
    </g>
    <g id="ytick_45">
     <g id="line2d_50">
      <g>
       <use xlink:href="#m95807cfb7f" x="94.92" y="169.464004" style="stroke: #000000; stroke-width: 0.6"/>
      </g>
     </g>
    </g>
    <g id="ytick_46">
     <g id="line2d_51">
      <g>
       <use xlink:href="#m95807cfb7f" x="94.92" y="166.702704" style="stroke: #000000; stroke-width: 0.6"/>
      </g>
     </g>
    </g>
    <g id="ytick_47">
     <g id="line2d_52">
      <g>
       <use xlink:href="#m95807cfb7f" x="94.92" y="164.310757" style="stroke: #000000; stroke-width: 0.6"/>
      </g>
     </g>
    </g>
    <g id="ytick_48">
     <g id="line2d_53">
      <g>
       <use xlink:href="#m95807cfb7f" x="94.92" y="162.200911" style="stroke: #000000; stroke-width: 0.6"/>
      </g>
     </g>
    </g>
    <g id="ytick_49">
     <g id="line2d_54">
      <g>
       <use xlink:href="#m95807cfb7f" x="94.92" y="147.89725" style="stroke: #000000; stroke-width: 0.6"/>
      </g>
     </g>
    </g>
    <g id="ytick_50">
     <g id="line2d_55">
      <g>
       <use xlink:href="#m95807cfb7f" x="94.92" y="140.634158" style="stroke: #000000; stroke-width: 0.6"/>
      </g>
     </g>
    </g>
    <g id="ytick_51">
     <g id="line2d_56">
      <g>
       <use xlink:href="#m95807cfb7f" x="94.92" y="135.480911" style="stroke: #000000; stroke-width: 0.6"/>
      </g>
     </g>
    </g>
    <g id="ytick_52">
     <g id="line2d_57">
      <g>
       <use xlink:href="#m95807cfb7f" x="94.92" y="131.483743" style="stroke: #000000; stroke-width: 0.6"/>
      </g>
     </g>
    </g>
    <g id="ytick_53">
     <g id="line2d_58">
      <g>
       <use xlink:href="#m95807cfb7f" x="94.92" y="128.217819" style="stroke: #000000; stroke-width: 0.6"/>
      </g>
     </g>
    </g>
    <g id="ytick_54">
     <g id="line2d_59">
      <g>
       <use xlink:href="#m95807cfb7f" x="94.92" y="125.456519" style="stroke: #000000; stroke-width: 0.6"/>
      </g>
     </g>
    </g>
    <g id="ytick_55">
     <g id="line2d_60">
      <g>
       <use xlink:href="#m95807cfb7f" x="94.92" y="123.064573" style="stroke: #000000; stroke-width: 0.6"/>
      </g>
     </g>
    </g>
    <g id="ytick_56">
     <g id="line2d_61">
      <g>
       <use xlink:href="#m95807cfb7f" x="94.92" y="120.954726" style="stroke: #000000; stroke-width: 0.6"/>
      </g>
     </g>
    </g>
    <g id="ytick_57">
     <g id="line2d_62">
      <g>
       <use xlink:href="#m95807cfb7f" x="94.92" y="106.651066" style="stroke: #000000; stroke-width: 0.6"/>
      </g>
     </g>
    </g>
    <g id="ytick_58">
     <g id="line2d_63">
      <g>
       <use xlink:href="#m95807cfb7f" x="94.92" y="99.387973" style="stroke: #000000; stroke-width: 0.6"/>
      </g>
     </g>
    </g>
    <g id="ytick_59">
     <g id="line2d_64">
      <g>
       <use xlink:href="#m95807cfb7f" x="94.92" y="94.234727" style="stroke: #000000; stroke-width: 0.6"/>
      </g>
     </g>
    </g>
    <g id="ytick_60">
     <g id="line2d_65">
      <g>
       <use xlink:href="#m95807cfb7f" x="94.92" y="90.237558" style="stroke: #000000; stroke-width: 0.6"/>
      </g>
     </g>
    </g>
    <g id="ytick_61">
     <g id="line2d_66">
      <g>
       <use xlink:href="#m95807cfb7f" x="94.92" y="86.971634" style="stroke: #000000; stroke-width: 0.6"/>
      </g>
     </g>
    </g>
    <g id="ytick_62">
     <g id="line2d_67">
      <g>
       <use xlink:href="#m95807cfb7f" x="94.92" y="84.210334" style="stroke: #000000; stroke-width: 0.6"/>
      </g>
     </g>
    </g>
    <g id="ytick_63">
     <g id="line2d_68">
      <g>
       <use xlink:href="#m95807cfb7f" x="94.92" y="81.818388" style="stroke: #000000; stroke-width: 0.6"/>
      </g>
     </g>
    </g>
    <g id="ytick_64">
     <g id="line2d_69">
      <g>
       <use xlink:href="#m95807cfb7f" x="94.92" y="79.708542" style="stroke: #000000; stroke-width: 0.6"/>
      </g>
     </g>
    </g>
    <g id="ytick_65">
     <g id="line2d_70">
      <g>
       <use xlink:href="#m95807cfb7f" x="94.92" y="65.404881" style="stroke: #000000; stroke-width: 0.6"/>
      </g>
     </g>
    </g>
    <g id="ytick_66">
     <g id="line2d_71">
      <g>
       <use xlink:href="#m95807cfb7f" x="94.92" y="58.141788" style="stroke: #000000; stroke-width: 0.6"/>
      </g>
     </g>
    </g>
    <g id="ytick_67">
     <g id="line2d_72">
      <g>
       <use xlink:href="#m95807cfb7f" x="94.92" y="52.988542" style="stroke: #000000; stroke-width: 0.6"/>
      </g>
     </g>
    </g>
    <g id="ytick_68">
     <g id="line2d_73">
      <g>
       <use xlink:href="#m95807cfb7f" x="94.92" y="48.991374" style="stroke: #000000; stroke-width: 0.6"/>
      </g>
     </g>
    </g>
    <g id="ytick_69">
     <g id="line2d_74">
      <g>
       <use xlink:href="#m95807cfb7f" x="94.92" y="45.725449" style="stroke: #000000; stroke-width: 0.6"/>
      </g>
     </g>
    </g>
    <g id="ytick_70">
     <g id="line2d_75">
      <g>
       <use xlink:href="#m95807cfb7f" x="94.92" y="42.96415" style="stroke: #000000; stroke-width: 0.6"/>
      </g>
     </g>
    </g>
    <g id="ytick_71">
     <g id="line2d_76">
      <g>
       <use xlink:href="#m95807cfb7f" x="94.92" y="40.572203" style="stroke: #000000; stroke-width: 0.6"/>
      </g>
     </g>
    </g>
    <g id="ytick_72">
     <g id="line2d_77">
      <g>
       <use xlink:href="#m95807cfb7f" x="94.92" y="38.462357" style="stroke: #000000; stroke-width: 0.6"/>
      </g>
     </g>
    </g>
    <g id="ytick_73">
     <g id="line2d_78">
      <g>
       <use xlink:href="#m95807cfb7f" x="94.92" y="24.158696" style="stroke: #000000; stroke-width: 0.6"/>
      </g>
     </g>
    </g>
    <g id="text_15">
     <!-- Attitude Error Norm $|\sigma_{B/R}|$ -->
     <g transform="translate(37 324.911563) rotate(-90) scale(0.2 -0.2)">
      <defs>
       <path id="DejaVuSerif-41" d="M 1281 1691 
L 2994 1691 
L 2138 3909 
L 1281 1691 
z
M -38 0 
L -38 331 
L 372 331 
L 2034 4666 
L 2559 4666 
L 4225 331 
L 4684 331 
L 4684 0 
L 2988 0 
L 2988 331 
L 3506 331 
L 3116 1356 
L 1153 1356 
L 763 331 
L 1275 331 
L 1275 0 
L -38 0 
z
" transform="scale(0.015625)"/>
       <path id="DejaVuSerif-74" d="M 691 2988 
L 184 2988 
L 184 3322 
L 691 3322 
L 691 4353 
L 1269 4353 
L 1269 3322 
L 2350 3322 
L 2350 2988 
L 1269 2988 
L 1269 878 
Q 1269 456 1350 337 
Q 1431 219 1650 219 
Q 1875 219 1978 351 
Q 2081 484 2088 781 
L 2522 781 
Q 2497 328 2275 118 
Q 2053 -91 1600 -91 
Q 1103 -91 897 129 
Q 691 350 691 878 
L 691 2988 
z
" transform="scale(0.015625)"/>
       <path id="DejaVuSerif-75" d="M 2266 3322 
L 3341 3322 
L 3341 331 
L 3884 331 
L 3884 0 
L 2766 0 
L 2766 588 
Q 2606 256 2353 82 
Q 2100 -91 1766 -91 
Q 1213 -91 952 223 
Q 691 538 691 1209 
L 691 2988 
L 172 2988 
L 172 3322 
L 1269 3322 
L 1269 1388 
Q 1269 781 1417 556 
Q 1566 331 1947 331 
Q 2347 331 2556 625 
Q 2766 919 2766 1478 
L 2766 2988 
L 2266 2988 
L 2266 3322 
z
" transform="scale(0.015625)"/>
       <path id="DejaVuSerif-64" d="M 3359 331 
L 3909 331 
L 3909 0 
L 2784 0 
L 2784 519 
Q 2616 206 2355 57 
Q 2094 -91 1709 -91 
Q 1097 -91 708 395 
Q 319 881 319 1663 
Q 319 2444 706 2928 
Q 1094 3413 1709 3413 
Q 2094 3413 2355 3264 
Q 2616 3116 2784 2803 
L 2784 4531 
L 2241 4531 
L 2241 4863 
L 3359 4863 
L 3359 331 
z
M 2784 1497 
L 2784 1825 
Q 2784 2422 2554 2737 
Q 2325 3053 1888 3053 
Q 1444 3053 1217 2703 
Q 991 2353 991 1663 
Q 991 975 1217 622 
Q 1444 269 1888 269 
Q 2325 269 2554 583 
Q 2784 897 2784 1497 
z
" transform="scale(0.015625)"/>
       <path id="DejaVuSerif-45" d="M 353 0 
L 353 331 
L 947 331 
L 947 4331 
L 353 4331 
L 353 4666 
L 4109 4666 
L 4109 3628 
L 3725 3628 
L 3725 4281 
L 1581 4281 
L 1581 2719 
L 3109 2719 
L 3109 3303 
L 3494 3303 
L 3494 1753 
L 3109 1753 
L 3109 2338 
L 1581 2338 
L 1581 384 
L 3775 384 
L 3775 1038 
L 4159 1038 
L 4159 0 
L 353 0 
z
" transform="scale(0.015625)"/>
       <path id="DejaVuSerif-72" d="M 3059 3328 
L 3059 2497 
L 2728 2497 
Q 2713 2744 2591 2866 
Q 2469 2988 2234 2988 
Q 1809 2988 1582 2694 
Q 1356 2400 1356 1850 
L 1356 331 
L 2022 331 
L 2022 0 
L 263 0 
L 263 331 
L 781 331 
L 781 2994 
L 231 2994 
L 231 3322 
L 1356 3322 
L 1356 2731 
Q 1525 3078 1790 3245 
Q 2056 3413 2438 3413 
Q 2578 3413 2733 3391 
Q 2888 3369 3059 3328 
z
" transform="scale(0.015625)"/>
       <path id="DejaVuSerif-6f" d="M 1925 219 
Q 2388 219 2623 584 
Q 2859 950 2859 1663 
Q 2859 2375 2623 2739 
Q 2388 3103 1925 3103 
Q 1463 3103 1227 2739 
Q 991 2375 991 1663 
Q 991 950 1228 584 
Q 1466 219 1925 219 
z
M 1925 -91 
Q 1200 -91 759 389 
Q 319 869 319 1663 
Q 319 2456 758 2934 
Q 1197 3413 1925 3413 
Q 2653 3413 3092 2934 
Q 3531 2456 3531 1663 
Q 3531 869 3092 389 
Q 2653 -91 1925 -91 
z
" transform="scale(0.015625)"/>
       <path id="DejaVuSerif-4e" d="M 313 0 
L 313 331 
L 941 331 
L 941 4331 
L 313 4331 
L 313 4666 
L 1509 4666 
L 4306 984 
L 4306 4331 
L 3681 4331 
L 3681 4666 
L 5319 4666 
L 5319 4331 
L 4691 4331 
L 4691 -91 
L 4313 -91 
L 1325 3841 
L 1325 331 
L 1953 331 
L 1953 0 
L 313 0 
z
" transform="scale(0.015625)"/>
       <path id="DejaVuSans-7c" d="M 1344 4891 
L 1344 -1509 
L 813 -1509 
L 813 4891 
L 1344 4891 
z
" transform="scale(0.015625)"/>
       <path id="DejaVuSans-Oblique-3c3" d="M 2219 3044 
Q 1744 3044 1422 2700 
Q 1081 2341 969 1747 
Q 844 1119 1044 756 
Q 1241 397 1706 397 
Q 2166 397 2503 759 
Q 2844 1122 2966 1747 
Q 3075 2319 2881 2700 
Q 2700 3044 2219 3044 
z
M 2309 3503 
L 4219 3500 
L 4106 2925 
L 3463 2925 
Q 3706 2438 3575 1747 
Q 3406 888 2884 400 
Q 2359 -91 1609 -91 
Q 856 -91 525 400 
Q 194 888 363 1747 
Q 528 2609 1050 3097 
Q 1484 3503 2309 3503 
z
" transform="scale(0.015625)"/>
       <path id="DejaVuSans-Oblique-42" d="M 1081 4666 
L 2694 4666 
Q 3350 4666 3675 4422 
Q 4000 4178 4000 3688 
Q 4000 3238 3720 2911 
Q 3441 2584 2988 2516 
Q 3375 2428 3569 2181 
Q 3763 1934 3763 1522 
Q 3763 819 3242 409 
Q 2722 0 1819 0 
L 172 0 
L 1081 4666 
z
M 1234 2228 
L 903 519 
L 1919 519 
Q 2491 519 2800 781 
Q 3109 1044 3109 1522 
Q 3109 1891 2904 2059 
Q 2700 2228 2247 2228 
L 1234 2228 
z
M 1606 4147 
L 1331 2741 
L 2272 2741 
Q 2775 2741 3058 2959 
Q 3341 3178 3341 3566 
Q 3341 3869 3150 4008 
Q 2959 4147 2541 4147 
L 1606 4147 
z
" transform="scale(0.015625)"/>
       <path id="DejaVuSans-2f" d="M 1625 4666 
L 2156 4666 
L 531 -594 
L 0 -594 
L 1625 4666 
z
" transform="scale(0.015625)"/>
       <path id="DejaVuSans-Oblique-52" d="M 1613 4147 
L 1294 2491 
L 2106 2491 
Q 2584 2491 2879 2755 
Q 3175 3019 3175 3444 
Q 3175 3784 2976 3965 
Q 2778 4147 2406 4147 
L 1613 4147 
z
M 2772 2241 
Q 2972 2194 3105 2009 
Q 3238 1825 3413 1275 
L 3809 0 
L 3144 0 
L 2778 1197 
Q 2638 1659 2453 1815 
Q 2269 1972 1888 1972 
L 1191 1972 
L 806 0 
L 172 0 
L 1081 4666 
L 2503 4666 
Q 3150 4666 3495 4373 
Q 3841 4081 3841 3531 
Q 3841 3044 3547 2687 
Q 3253 2331 2772 2241 
z
" transform="scale(0.015625)"/>
      </defs>
      <use xlink:href="#DejaVuSerif-41" transform="translate(0 0.578125)"/>
      <use xlink:href="#DejaVuSerif-74" transform="translate(72.216797 0.578125)"/>
      <use xlink:href="#DejaVuSerif-74" transform="translate(112.402344 0.578125)"/>
      <use xlink:href="#DejaVuSerif-69" transform="translate(152.587891 0.578125)"/>
      <use xlink:href="#DejaVuSerif-74" transform="translate(184.570312 0.578125)"/>
      <use xlink:href="#DejaVuSerif-75" transform="translate(224.755859 0.578125)"/>
      <use xlink:href="#DejaVuSerif-64" transform="translate(289.160156 0.578125)"/>
      <use xlink:href="#DejaVuSerif-65" transform="translate(353.173828 0.578125)"/>
      <use xlink:href="#DejaVuSerif-20" transform="translate(412.353516 0.578125)"/>
      <use xlink:href="#DejaVuSerif-45" transform="translate(444.140625 0.578125)"/>
      <use xlink:href="#DejaVuSerif-72" transform="translate(517.138672 0.578125)"/>
      <use xlink:href="#DejaVuSerif-72" transform="translate(564.941406 0.578125)"/>
      <use xlink:href="#DejaVuSerif-6f" transform="translate(612.744141 0.578125)"/>
      <use xlink:href="#DejaVuSerif-72" transform="translate(672.949219 0.578125)"/>
      <use xlink:href="#DejaVuSerif-20" transform="translate(720.751953 0.578125)"/>
      <use xlink:href="#DejaVuSerif-4e" transform="translate(752.539062 0.578125)"/>
      <use xlink:href="#DejaVuSerif-6f" transform="translate(840.039062 0.578125)"/>
      <use xlink:href="#DejaVuSerif-72" transform="translate(900.244141 0.578125)"/>
      <use xlink:href="#DejaVuSerif-6d" transform="translate(948.046875 0.578125)"/>
      <use xlink:href="#DejaVuSerif-20" transform="translate(1042.871094 0.578125)"/>
      <use xlink:href="#DejaVuSans-7c" transform="translate(1074.658203 0.578125)"/>
      <use xlink:href="#DejaVuSans-Oblique-3c3" transform="translate(1108.349609 0.578125)"/>
      <use xlink:href="#DejaVuSans-Oblique-42" transform="translate(1171.728516 -15.828125) scale(0.7)"/>
      <use xlink:href="#DejaVuSans-2f" transform="translate(1219.750977 -15.828125) scale(0.7)"/>
      <use xlink:href="#DejaVuSans-Oblique-52" transform="translate(1242.109961 -15.828125) scale(0.7)"/>
      <use xlink:href="#DejaVuSans-7c" transform="translate(1293.482031 0.578125)"/>
     </g>
    </g>
   </g>
   <g id="line2d_79">
    <path d="M 94.92 37.612617 
L 95.860069 37.101051 
L 96.800138 38.298137 
L 97.740206 40.692597 
L 98.680275 43.895517 
L 99.620344 47.68691 
L 100.560413 51.994177 
L 101.500481 56.858487 
L 102.44055 62.423677 
L 103.380619 68.966209 
L 104.320688 76.999584 
L 105.260756 87.498783 
L 106.200825 100.718555 
L 107.140894 101.21057 
L 108.080963 93.557108 
L 109.021031 89.084134 
L 109.9611 86.866904 
L 110.901169 86.070906 
L 111.841238 86.267754 
L 112.781306 87.226302 
L 113.721375 88.816103 
L 114.661444 90.964731 
L 115.601513 93.638272 
L 116.541581 96.833078 
L 117.48165 100.574311 
L 118.421719 104.920122 
L 119.361788 109.971857 
L 120.301856 115.889415 
L 121.241925 122.890856 
L 123.122063 138.919808 
L 124.062131 141.135413 
L 125.942269 135.387196 
L 126.882338 133.697572 
L 127.822406 133.054637 
L 128.762475 133.23882 
L 129.702544 134.090477 
L 130.642613 135.504968 
L 131.582681 137.416463 
L 132.52275 139.786554 
L 133.462819 142.597454 
L 134.402888 145.848067 
L 135.342956 149.551168 
L 137.223094 158.399817 
L 140.0433 173.997595 
L 140.983369 177.474764 
L 141.923438 178.604011 
L 142.863506 178.177112 
L 143.803575 177.393306 
L 144.743644 176.864241 
L 145.683713 176.769611 
L 146.623781 177.125096 
L 147.56385 177.901442 
L 148.503919 179.064468 
L 149.443988 180.58683 
L 150.384056 182.450817 
L 151.324125 184.648528 
L 152.264194 187.181417 
L 153.204263 190.059584 
L 155.0844 196.92347 
L 156.964538 205.314303 
L 158.844675 214.170647 
L 159.784744 217.323381 
L 160.724813 218.643639 
L 161.664881 218.454015 
L 163.545019 216.937873 
L 164.485088 216.535639 
L 165.425156 216.541228 
L 166.365225 216.960964 
L 167.305294 217.780815 
L 168.245363 218.985941 
L 169.185431 220.567672 
L 170.1255 222.526162 
L 171.065569 224.871876 
L 172.005638 227.627098 
L 172.945706 230.827733 
L 173.885775 234.524597 
L 174.825844 238.780095 
L 176.705981 249.049785 
L 177.64605 254.45944 
L 178.586119 258.26429 
L 179.526188 258.845299 
L 180.466256 257.241905 
L 181.406325 255.32391 
L 182.346394 253.875821 
L 183.286463 253.044202 
L 184.226531 252.796992 
L 185.1666 253.074024 
L 186.106669 253.824298 
L 187.046738 255.012885 
L 187.986806 256.62093 
L 188.926875 258.644962 
L 189.866944 142.593668 
L 190.807013 132.438452 
L 191.747081 127.599954 
L 192.68715 125.040069 
L 193.627219 123.811957 
L 194.567288 123.500204 
L 195.507356 123.890774 
L 196.447425 124.865062 
L 197.387494 126.357921 
L 198.327563 128.33941 
L 199.267631 130.807508 
L 200.2077 133.787642 
L 201.147769 137.338788 
L 202.087838 141.569539 
L 203.027906 146.674915 
L 203.967975 153.027179 
L 204.908044 161.446585 
L 205.848113 174.362895 
L 206.788181 209.533243 
L 207.72825 183.675619 
L 208.668319 172.088808 
L 209.608388 166.765488 
L 210.548456 163.951777 
L 211.488525 162.56041 
L 212.428594 162.129367 
L 213.368663 162.42442 
L 214.308731 163.316486 
L 215.2488 164.734063 
L 216.188869 166.642639 
L 217.128938 169.036176 
L 218.069006 171.935705 
L 219.009075 175.394285 
L 219.949144 179.511038 
L 220.889213 184.463256 
L 221.829281 190.583802 
L 222.76935 198.581428 
L 223.709419 210.396055 
L 224.649488 235.460301 
L 225.589556 224.818762 
L 226.529625 211.765628 
L 227.469694 205.938476 
L 228.409763 202.863574 
L 229.349831 201.305533 
L 230.2899 200.753468 
L 231.229969 200.952159 
L 232.170038 201.761723 
L 233.110106 203.104179 
L 234.050175 204.940431 
L 234.990244 207.260496 
L 235.930313 210.081185 
L 236.870381 213.449997 
L 237.81045 217.457307 
L 238.750519 222.264308 
L 239.690588 228.168845 
L 240.630656 235.784163 
L 241.570725 246.666663 
L 242.510794 266.54063 
L 243.450863 265.460024 
L 244.390931 251.359018 
L 245.331 245.052745 
L 246.271069 241.723191 
L 247.211138 240.0013 
L 248.151206 239.329573 
L 249.091275 239.432454 
L 250.031344 240.159541 
L 250.971413 241.42652 
L 251.911481 243.189813 
L 252.85155 245.435599 
L 253.791619 248.176638 
L 254.731688 251.455219 
L 255.671756 255.353813 
L 256.611825 260.019797 
L 257.551894 265.723105 
L 258.491963 273.009526 
L 259.432031 283.22359 
L 260.3721 301.369066 
L 261.312169 309.706609 
L 262.252238 291.760297 
L 263.192306 284.558244 
L 264.132375 280.836852 
L 265.072444 278.889443 
L 266.012513 278.066345 
L 266.952581 278.056584 
L 267.89265 278.692902 
L 268.832719 279.881403 
L 269.772788 281.571812 
L 270.712856 283.744124 
L 271.652925 286.403273 
L 272.592994 289.578662 
L 273.533063 293.327293 
L 274.473131 297.738693 
L 275.4132 302.932257 
L 278.233406 320.72649 
L 279.173475 321.082958 
L 281.053613 315.543087 
L 281.993681 313.558382 
L 282.93375 312.366822 
L 283.873819 130.182593 
L 284.813888 120.024812 
L 285.753956 115.18526 
L 286.694025 112.624789 
L 287.634094 111.396379 
L 288.574163 111.084546 
L 289.514231 111.475208 
L 290.4543 112.449711 
L 291.394369 113.942862 
L 292.334438 115.924669 
L 293.274506 118.393053 
L 294.214575 121.373366 
L 295.154644 124.924467 
L 296.094713 129.15472 
L 297.034781 134.258617 
L 297.97485 140.606914 
L 298.914919 149.014018 
L 299.854988 161.86847 
L 300.795056 193.954637 
L 301.735125 171.086183 
L 302.675194 159.638441 
L 303.615263 154.338426 
L 304.555331 151.532917 
L 305.4954 150.145462 
L 306.435469 149.716579 
L 307.375538 150.012873 
L 308.315606 150.905579 
L 309.255675 152.323308 
L 310.195744 154.231562 
L 311.135813 156.624233 
L 312.075881 159.522195 
L 313.01595 162.97821 
L 313.956019 167.090837 
L 314.896088 172.036194 
L 315.836156 178.144305 
L 316.776225 186.11512 
L 317.716294 197.84464 
L 318.656363 221.925452 
L 319.596431 212.357174 
L 320.5365 199.402492 
L 321.476569 193.574576 
L 322.416638 190.495023 
L 323.356706 188.932712 
L 324.296775 188.376871 
L 325.236844 188.572035 
L 326.176913 189.37808 
L 327.116981 190.716801 
L 328.05705 192.548878 
L 328.997119 194.864064 
L 329.937188 197.678826 
L 330.877256 201.040167 
L 331.817325 205.037683 
L 332.757394 209.831257 
L 333.697463 215.716365 
L 334.637531 223.301902 
L 335.5776 234.141719 
L 336.517669 254.319018 
L 337.457738 254.285713 
L 338.397806 239.355175 
L 339.337875 232.892917 
L 340.277944 229.50098 
L 341.218013 227.745333 
L 342.158081 227.051976 
L 343.09815 227.139296 
L 344.038219 227.85412 
L 344.978288 229.110638 
L 345.918356 230.864334 
L 346.858425 233.100688 
L 347.798494 235.831811 
L 348.738563 239.099251 
L 349.678631 242.98442 
L 350.6187 247.632894 
L 351.558769 253.31097 
L 352.498838 260.555384 
L 353.438906 270.679607 
L 354.378975 288.482801 
L 355.319044 297.862513 
L 356.259113 279.65234 
L 357.199181 272.356211 
L 358.13925 268.58945 
L 359.079319 266.613286 
L 360.019388 265.768662 
L 360.959456 265.740925 
L 361.899525 266.361168 
L 362.839594 267.534842 
L 363.779663 269.211801 
L 364.719731 271.373204 
L 365.6598 274.02705 
L 366.599869 277.209915 
L 367.539938 280.995713 
L 368.480006 285.516302 
L 369.420075 291.007695 
L 370.360144 297.922543 
L 371.300213 307.24183 
L 372.240281 321.179202 
L 373.18035 329.07124 
L 374.120419 317.296011 
L 375.060488 310.418152 
L 376.000556 306.654729 
L 376.940625 304.611543 
L 377.880694 142.597417 
L 378.820763 132.440609 
L 379.760831 127.60156 
L 380.7009 125.041379 
L 381.640969 123.813073 
L 382.581038 123.501174 
L 383.521106 123.891624 
L 384.461175 124.865804 
L 385.401244 126.358564 
L 386.341313 128.339957 
L 387.281381 130.807959 
L 388.22145 133.787996 
L 389.161519 137.339047 
L 390.101588 141.569719 
L 391.041656 146.675073 
L 391.981725 153.027526 
L 392.921794 161.448056 
L 393.861863 174.372436 
L 394.801931 210.204593 
L 395.742 183.718856 
L 396.682069 172.101811 
L 397.622138 166.772851 
L 398.562206 163.956994 
L 399.502275 162.56454 
L 400.442344 162.132854 
L 401.382413 162.427491 
L 402.322481 163.319274 
L 403.26255 164.736657 
L 404.202619 166.645111 
L 405.142688 169.038594 
L 406.082756 171.938152 
L 407.022825 175.396887 
L 407.962894 179.514022 
L 408.902963 184.467107 
L 409.843031 190.589745 
L 410.7831 198.593499 
L 411.723169 210.436094 
L 412.663238 236.089392 
L 413.603306 224.995543 
L 414.543375 211.804224 
L 415.483444 205.957199 
L 416.423513 202.875643 
L 417.363581 201.314489 
L 418.30365 200.760671 
L 419.243719 200.95825 
L 420.183788 201.767048 
L 421.123856 203.108943 
L 422.063925 204.944772 
L 423.003994 207.264527 
L 423.944063 210.085025 
L 424.884131 213.453828 
L 425.8242 217.461481 
L 426.764269 222.269643 
L 427.704338 228.177563 
L 428.644406 235.803847 
L 429.584475 246.736668 
L 430.524544 267.26565 
L 431.464613 266.152301 
L 432.404681 251.505557 
L 433.34475 245.126447 
L 434.284819 241.773362 
L 435.224888 240.040925 
L 436.164956 239.363722 
L 437.105025 239.463637 
L 438.045094 240.189238 
L 438.985163 241.455754 
L 439.925231 243.219409 
L 440.8653 245.46633 
L 441.805369 248.209319 
L 442.745438 251.490793 
L 443.685506 255.393415 
L 444.625575 260.064728 
L 445.565644 265.774306 
L 446.505713 273.063993 
L 447.445781 283.244637 
L 448.38585 300.697642 
L 449.325919 306.857024 
L 450.265988 291.179849 
L 451.206056 284.254117 
L 452.146125 280.621871 
L 453.086194 278.714378 
L 454.026263 277.911595 
L 454.966331 277.912373 
L 455.9064 278.553706 
L 456.846469 279.744064 
L 457.786538 281.435067 
L 458.726606 283.60907 
L 459.666675 286.275065 
L 460.606744 289.470728 
L 461.546813 293.271645 
L 462.486881 297.813031 
L 463.42695 303.33941 
L 464.367019 310.331101 
L 465.307088 319.897804 
L 466.247156 335.387121 
L 467.187225 347.122074 
L 468.127294 330.875241 
L 469.067363 323.336018 
L 470.007431 319.398486 
L 470.9475 317.30289 
L 470.9475 317.30289 
" clip-path="url(#p17605c42bd)" style="fill: none; stroke: #5ea04b; stroke-width: 1.5; stroke-linecap: square"/>
   </g>
   <g id="patch_3">
    <path d="M 94.92 362.623125 
L 94.92 21.6 
" style="fill: none; stroke: #000000; stroke-width: 0.8; stroke-linejoin: miter; stroke-linecap: square"/>
   </g>
   <g id="patch_4">
    <path d="M 470.9475 362.623125 
L 470.9475 21.6 
" style="fill: none; stroke: #000000; stroke-width: 0.8; stroke-linejoin: miter; stroke-linecap: square"/>
   </g>
   <g id="patch_5">
    <path d="M 94.92 362.623125 
L 470.9475 362.623125 
" style="fill: none; stroke: #000000; stroke-width: 0.8; stroke-linejoin: miter; stroke-linecap: square"/>
   </g>
   <g id="patch_6">
    <path d="M 94.92 21.6 
L 470.9475 21.6 
" style="fill: none; stroke: #000000; stroke-width: 0.8; stroke-linejoin: miter; stroke-linecap: square"/>
   </g>
  </g>
 </g>
 <defs>
  <clipPath id="p17605c42bd">
   <rect x="94.92" y="21.6" width="376.0275" height="341.023125"/>
  </clipPath>
 </defs>
</svg>
