<?xml version="1.0" encoding="utf-8" standalone="no"?>
<!DOCTYPE svg PUBLIC "-//W3C//DTD SVG 1.1//EN"
  "http://www.w3.org/Graphics/SVG/1.1/DTD/svg11.dtd">
<svg xmlns:xlink="http://www.w3.org/1999/xlink" width="414pt" height="288pt" viewBox="0 0 414 288" xmlns="http://www.w3.org/2000/svg" version="1.1">
 <metadata>
  <rdf:RDF xmlns:dc="http://purl.org/dc/elements/1.1/" xmlns:cc="http://creativecommons.org/ns#" xmlns:rdf="http://www.w3.org/1999/02/22-rdf-syntax-ns#">
   <cc:Work>
    <dc:type rdf:resource="http://purl.org/dc/dcmitype/StillImage"/>
    <dc:date>2026-01-09T20:58:58.689753</dc:date>
    <dc:format>image/svg+xml</dc:format>
    <dc:creator>
     <cc:Agent>
      <dc:title>Matplotlib v3.10.7, https://matplotlib.org/</dc:title>
     </cc:Agent>
    </dc:creator>
   </cc:Work>
  </rdf:RDF>
 </metadata>
 <defs>
  <style type="text/css">*{stroke-linejoin: round; stroke-linecap: butt}</style>
 </defs>
 <g id="figure_1">
  <g id="patch_1">
   <path d="M 0 288 
L 414 288 
L 414 0 
L 0 0 
L 0 288 
z
" style="fill: none"/>
  </g>
  <g id="axes_1">
   <g id="patch_2">
    <path d="M 55.0875 241.036875 
L 403.2 241.036875 
L 403.2 10.8 
L 55.0875 10.8 
L 55.0875 241.036875 
z
" style="fill: none"/>
   </g>
   <g id="matplotlib.axis_1">
    <g id="xtick_1">
     <g id="line2d_1">
      <defs>
       <path id="m1df0cadbcd" d="M 0 0 
L 0 3.5 
" style="stroke: #000000; stroke-width: 0.8"/>
      </defs>
      <g>
       <use xlink:href="#m1df0cadbcd" x="70.910795" y="241.036875" style="stroke: #000000; stroke-width: 0.8"/>
      </g>
     </g>
     <g id="text_1">
      <!-- 0 -->
      <g transform="translate(65.820795 260.194375) scale(0.16 -0.16)">
       <defs>
        <path id="DejaVuSans-30" d="M 2034 4250 
Q 1547 4250 1301 3770 
Q 1056 3291 1056 2328 
Q 1056 1369 1301 889 
Q 1547 409 2034 409 
Q 2525 409 2770 889 
Q 3016 1369 3016 2328 
Q 3016 3291 2770 3770 
Q 2525 4250 2034 4250 
z
M 2034 4750 
Q 2819 4750 3233 4129 
Q 3647 3509 3647 2328 
Q 3647 1150 3233 529 
Q 2819 -91 2034 -91 
Q 1250 -91 836 529 
Q 422 1150 422 2328 
Q 422 3509 836 4129 
Q 1250 4750 2034 4750 
z
" transform="scale(0.015625)"/>
       </defs>
       <use xlink:href="#DejaVuSans-30"/>
      </g>
     </g>
    </g>
    <g id="xtick_2">
     <g id="line2d_2">
      <g>
       <use xlink:href="#m1df0cadbcd" x="134.203977" y="241.036875" style="stroke: #000000; stroke-width: 0.8"/>
      </g>
     </g>
     <g id="text_2">
      <!-- 2 -->
      <g transform="translate(129.113977 260.194375) scale(0.16 -0.16)">
       <defs>
        <path id="DejaVuSans-32" d="M 1228 531 
L 3431 531 
L 3431 0 
L 469 0 
L 469 531 
Q 828 903 1448 1529 
Q 2069 2156 2228 2338 
Q 2531 2678 2651 2914 
Q 2772 3150 2772 3378 
Q 2772 3750 2511 3984 
Q 2250 4219 1831 4219 
Q 1534 4219 1204 4116 
Q 875 4013 500 3803 
L 500 4441 
Q 881 4594 1212 4672 
Q 1544 4750 1819 4750 
Q 2544 4750 2975 4387 
Q 3406 4025 3406 3419 
Q 3406 3131 3298 2873 
Q 3191 2616 2906 2266 
Q 2828 2175 2409 1742 
Q 1991 1309 1228 531 
z
" transform="scale(0.015625)"/>
       </defs>
       <use xlink:href="#DejaVuSans-32"/>
      </g>
     </g>
    </g>
    <g id="xtick_3">
     <g id="line2d_3">
      <g>
       <use xlink:href="#m1df0cadbcd" x="197.497159" y="241.036875" style="stroke: #000000; stroke-width: 0.8"/>
      </g>
     </g>
     <g id="text_3">
      <!-- 4 -->
      <g transform="translate(192.407159 260.194375) scale(0.16 -0.16)">
       <defs>
        <path id="DejaVuSans-34" d="M 2419 4116 
L 825 1625 
L 2419 1625 
L 2419 4116 
z
M 2253 4666 
L 3047 4666 
L 3047 1625 
L 3713 1625 
L 3713 1100 
L 3047 1100 
L 3047 0 
L 2419 0 
L 2419 1100 
L 313 1100 
L 313 1709 
L 2253 4666 
z
" transform="scale(0.015625)"/>
       </defs>
       <use xlink:href="#DejaVuSans-34"/>
      </g>
     </g>
    </g>
    <g id="xtick_4">
     <g id="line2d_4">
      <g>
       <use xlink:href="#m1df0cadbcd" x="260.790341" y="241.036875" style="stroke: #000000; stroke-width: 0.8"/>
      </g>
     </g>
     <g id="text_4">
      <!-- 6 -->
      <g transform="translate(255.700341 260.194375) scale(0.16 -0.16)">
       <defs>
        <path id="DejaVuSans-36" d="M 2113 2584 
Q 1688 2584 1439 2293 
Q 1191 2003 1191 1497 
Q 1191 994 1439 701 
Q 1688 409 2113 409 
Q 2538 409 2786 701 
Q 3034 994 3034 1497 
Q 3034 2003 2786 2293 
Q 2538 2584 2113 2584 
z
M 3366 4563 
L 3366 3988 
Q 3128 4100 2886 4159 
Q 2644 4219 2406 4219 
Q 1781 4219 1451 3797 
Q 1122 3375 1075 2522 
Q 1259 2794 1537 2939 
Q 1816 3084 2150 3084 
Q 2853 3084 3261 2657 
Q 3669 2231 3669 1497 
Q 3669 778 3244 343 
Q 2819 -91 2113 -91 
Q 1303 -91 875 529 
Q 447 1150 447 2328 
Q 447 3434 972 4092 
Q 1497 4750 2381 4750 
Q 2619 4750 2861 4703 
Q 3103 4656 3366 4563 
z
" transform="scale(0.015625)"/>
       </defs>
       <use xlink:href="#DejaVuSans-36"/>
      </g>
     </g>
    </g>
    <g id="xtick_5">
     <g id="line2d_5">
      <g>
       <use xlink:href="#m1df0cadbcd" x="324.083523" y="241.036875" style="stroke: #000000; stroke-width: 0.8"/>
      </g>
     </g>
     <g id="text_5">
      <!-- 8 -->
      <g transform="translate(318.993523 260.194375) scale(0.16 -0.16)">
       <defs>
        <path id="DejaVuSans-38" d="M 2034 2216 
Q 1584 2216 1326 1975 
Q 1069 1734 1069 1313 
Q 1069 891 1326 650 
Q 1584 409 2034 409 
Q 2484 409 2743 651 
Q 3003 894 3003 1313 
Q 3003 1734 2745 1975 
Q 2488 2216 2034 2216 
z
M 1403 2484 
Q 997 2584 770 2862 
Q 544 3141 544 3541 
Q 544 4100 942 4425 
Q 1341 4750 2034 4750 
Q 2731 4750 3128 4425 
Q 3525 4100 3525 3541 
Q 3525 3141 3298 2862 
Q 3072 2584 2669 2484 
Q 3125 2378 3379 2068 
Q 3634 1759 3634 1313 
Q 3634 634 3220 271 
Q 2806 -91 2034 -91 
Q 1263 -91 848 271 
Q 434 634 434 1313 
Q 434 1759 690 2068 
Q 947 2378 1403 2484 
z
M 1172 3481 
Q 1172 3119 1398 2916 
Q 1625 2713 2034 2713 
Q 2441 2713 2670 2916 
Q 2900 3119 2900 3481 
Q 2900 3844 2670 4047 
Q 2441 4250 2034 4250 
Q 1625 4250 1398 4047 
Q 1172 3844 1172 3481 
z
" transform="scale(0.015625)"/>
       </defs>
       <use xlink:href="#DejaVuSans-38"/>
      </g>
     </g>
    </g>
    <g id="xtick_6">
     <g id="line2d_6">
      <g>
       <use xlink:href="#m1df0cadbcd" x="387.376705" y="241.036875" style="stroke: #000000; stroke-width: 0.8"/>
      </g>
     </g>
     <g id="text_6">
      <!-- 10 -->
      <g transform="translate(377.196705 260.194375) scale(0.16 -0.16)">
       <defs>
        <path id="DejaVuSans-31" d="M 794 531 
L 1825 531 
L 1825 4091 
L 703 3866 
L 703 4441 
L 1819 4666 
L 2450 4666 
L 2450 531 
L 3481 531 
L 3481 0 
L 794 0 
L 794 531 
z
" transform="scale(0.015625)"/>
       </defs>
       <use xlink:href="#DejaVuSans-31"/>
       <use xlink:href="#DejaVuSans-30" transform="translate(63.623047 0)"/>
      </g>
     </g>
    </g>
    <g id="text_7">
     <!-- Time [min] -->
     <g transform="translate(201.991406 275.120313) scale(0.1 -0.1)">
      <defs>
       <path id="DejaVuSans-54" d="M -19 4666 
L 3928 4666 
L 3928 4134 
L 2272 4134 
L 2272 0 
L 1638 0 
L 1638 4134 
L -19 4134 
L -19 4666 
z
" transform="scale(0.015625)"/>
       <path id="DejaVuSans-69" d="M 603 3500 
L 1178 3500 
L 1178 0 
L 603 0 
L 603 3500 
z
M 603 4863 
L 1178 4863 
L 1178 4134 
L 603 4134 
L 603 4863 
z
" transform="scale(0.015625)"/>
       <path id="DejaVuSans-6d" d="M 3328 2828 
Q 3544 3216 3844 3400 
Q 4144 3584 4550 3584 
Q 5097 3584 5394 3201 
Q 5691 2819 5691 2113 
L 5691 0 
L 5113 0 
L 5113 2094 
Q 5113 2597 4934 2840 
Q 4756 3084 4391 3084 
Q 3944 3084 3684 2787 
Q 3425 2491 3425 1978 
L 3425 0 
L 2847 0 
L 2847 2094 
Q 2847 2600 2669 2842 
Q 2491 3084 2119 3084 
Q 1678 3084 1418 2786 
Q 1159 2488 1159 1978 
L 1159 0 
L 581 0 
L 581 3500 
L 1159 3500 
L 1159 2956 
Q 1356 3278 1631 3431 
Q 1906 3584 2284 3584 
Q 2666 3584 2933 3390 
Q 3200 3197 3328 2828 
z
" transform="scale(0.015625)"/>
       <path id="DejaVuSans-65" d="M 3597 1894 
L 3597 1613 
L 953 1613 
Q 991 1019 1311 708 
Q 1631 397 2203 397 
Q 2534 397 2845 478 
Q 3156 559 3463 722 
L 3463 178 
Q 3153 47 2828 -22 
Q 2503 -91 2169 -91 
Q 1331 -91 842 396 
Q 353 884 353 1716 
Q 353 2575 817 3079 
Q 1281 3584 2069 3584 
Q 2775 3584 3186 3129 
Q 3597 2675 3597 1894 
z
M 3022 2063 
Q 3016 2534 2758 2815 
Q 2500 3097 2075 3097 
Q 1594 3097 1305 2825 
Q 1016 2553 972 2059 
L 3022 2063 
z
" transform="scale(0.015625)"/>
       <path id="DejaVuSans-20" transform="scale(0.015625)"/>
       <path id="DejaVuSans-5b" d="M 550 4863 
L 1875 4863 
L 1875 4416 
L 1125 4416 
L 1125 -397 
L 1875 -397 
L 1875 -844 
L 550 -844 
L 550 4863 
z
" transform="scale(0.015625)"/>
       <path id="DejaVuSans-6e" d="M 3513 2113 
L 3513 0 
L 2938 0 
L 2938 2094 
Q 2938 2591 2744 2837 
Q 2550 3084 2163 3084 
Q 1697 3084 1428 2787 
Q 1159 2491 1159 1978 
L 1159 0 
L 581 0 
L 581 3500 
L 1159 3500 
L 1159 2956 
Q 1366 3272 1645 3428 
Q 1925 3584 2291 3584 
Q 2894 3584 3203 3211 
Q 3513 2838 3513 2113 
z
" transform="scale(0.015625)"/>
       <path id="DejaVuSans-5d" d="M 1947 4863 
L 1947 -844 
L 622 -844 
L 622 -397 
L 1369 -397 
L 1369 4416 
L 622 4416 
L 622 4863 
L 1947 4863 
z
" transform="scale(0.015625)"/>
      </defs>
      <use xlink:href="#DejaVuSans-54"/>
      <use xlink:href="#DejaVuSans-69" transform="translate(57.958984 0)"/>
      <use xlink:href="#DejaVuSans-6d" transform="translate(85.742188 0)"/>
      <use xlink:href="#DejaVuSans-65" transform="translate(183.154297 0)"/>
      <use xlink:href="#DejaVuSans-20" transform="translate(244.677734 0)"/>
      <use xlink:href="#DejaVuSans-5b" transform="translate(276.464844 0)"/>
      <use xlink:href="#DejaVuSans-6d" transform="translate(315.478516 0)"/>
      <use xlink:href="#DejaVuSans-69" transform="translate(412.890625 0)"/>
      <use xlink:href="#DejaVuSans-6e" transform="translate(440.673828 0)"/>
      <use xlink:href="#DejaVuSans-5d" transform="translate(504.052734 0)"/>
     </g>
    </g>
   </g>
   <g id="matplotlib.axis_2">
    <g id="ytick_1">
     <g id="line2d_7">
      <defs>
       <path id="mb5726fa6ce" d="M 0 0 
L -3.5 0 
" style="stroke: #000000; stroke-width: 0.8"/>
      </defs>
      <g>
       <use xlink:href="#mb5726fa6ce" x="55.0875" y="235.5303" style="stroke: #000000; stroke-width: 0.8"/>
      </g>
     </g>
     <g id="text_8">
      <!-- −4 -->
      <g transform="translate(24.5 241.60905) scale(0.16 -0.16)">
       <defs>
        <path id="DejaVuSans-2212" d="M 678 2272 
L 4684 2272 
L 4684 1741 
L 678 1741 
L 678 2272 
z
" transform="scale(0.015625)"/>
       </defs>
       <use xlink:href="#DejaVuSans-2212"/>
       <use xlink:href="#DejaVuSans-34" transform="translate(83.789062 0)"/>
      </g>
     </g>
    </g>
    <g id="ytick_2">
     <g id="line2d_8">
      <g>
       <use xlink:href="#mb5726fa6ce" x="55.0875" y="199.217336" style="stroke: #000000; stroke-width: 0.8"/>
      </g>
     </g>
     <g id="text_9">
      <!-- −3 -->
      <g transform="translate(24.5 205.296086) scale(0.16 -0.16)">
       <defs>
        <path id="DejaVuSans-33" d="M 2597 2516 
Q 3050 2419 3304 2112 
Q 3559 1806 3559 1356 
Q 3559 666 3084 287 
Q 2609 -91 1734 -91 
Q 1441 -91 1130 -33 
Q 819 25 488 141 
L 488 750 
Q 750 597 1062 519 
Q 1375 441 1716 441 
Q 2309 441 2620 675 
Q 2931 909 2931 1356 
Q 2931 1769 2642 2001 
Q 2353 2234 1838 2234 
L 1294 2234 
L 1294 2753 
L 1863 2753 
Q 2328 2753 2575 2939 
Q 2822 3125 2822 3475 
Q 2822 3834 2567 4026 
Q 2313 4219 1838 4219 
Q 1578 4219 1281 4162 
Q 984 4106 628 3988 
L 628 4550 
Q 988 4650 1302 4700 
Q 1616 4750 1894 4750 
Q 2613 4750 3031 4423 
Q 3450 4097 3450 3541 
Q 3450 3153 3228 2886 
Q 3006 2619 2597 2516 
z
" transform="scale(0.015625)"/>
       </defs>
       <use xlink:href="#DejaVuSans-2212"/>
       <use xlink:href="#DejaVuSans-33" transform="translate(83.789062 0)"/>
      </g>
     </g>
    </g>
    <g id="ytick_3">
     <g id="line2d_9">
      <g>
       <use xlink:href="#mb5726fa6ce" x="55.0875" y="162.904371" style="stroke: #000000; stroke-width: 0.8"/>
      </g>
     </g>
     <g id="text_10">
      <!-- −2 -->
      <g transform="translate(24.5 168.983121) scale(0.16 -0.16)">
       <use xlink:href="#DejaVuSans-2212"/>
       <use xlink:href="#DejaVuSans-32" transform="translate(83.789062 0)"/>
      </g>
     </g>
    </g>
    <g id="ytick_4">
     <g id="line2d_10">
      <g>
       <use xlink:href="#mb5726fa6ce" x="55.0875" y="126.591406" style="stroke: #000000; stroke-width: 0.8"/>
      </g>
     </g>
     <g id="text_11">
      <!-- −1 -->
      <g transform="translate(24.5 132.670156) scale(0.16 -0.16)">
       <use xlink:href="#DejaVuSans-2212"/>
       <use xlink:href="#DejaVuSans-31" transform="translate(83.789062 0)"/>
      </g>
     </g>
    </g>
    <g id="ytick_5">
     <g id="line2d_11">
      <g>
       <use xlink:href="#mb5726fa6ce" x="55.0875" y="90.278442" style="stroke: #000000; stroke-width: 0.8"/>
      </g>
     </g>
     <g id="text_12">
      <!-- 0 -->
      <g transform="translate(37.9075 96.357192) scale(0.16 -0.16)">
       <use xlink:href="#DejaVuSans-30"/>
      </g>
     </g>
    </g>
    <g id="ytick_6">
     <g id="line2d_12">
      <g>
       <use xlink:href="#mb5726fa6ce" x="55.0875" y="53.965477" style="stroke: #000000; stroke-width: 0.8"/>
      </g>
     </g>
     <g id="text_13">
      <!-- 1 -->
      <g transform="translate(37.9075 60.044227) scale(0.16 -0.16)">
       <use xlink:href="#DejaVuSans-31"/>
      </g>
     </g>
    </g>
    <g id="ytick_7">
     <g id="line2d_13">
      <g>
       <use xlink:href="#mb5726fa6ce" x="55.0875" y="17.652512" style="stroke: #000000; stroke-width: 0.8"/>
      </g>
     </g>
     <g id="text_14">
      <!-- 2 -->
      <g transform="translate(37.9075 23.731262) scale(0.16 -0.16)">
       <use xlink:href="#DejaVuSans-32"/>
      </g>
     </g>
    </g>
    <g id="text_15">
     <!-- Control Torque $L_r$ [Nm] -->
     <g transform="translate(18.4 183.368437) rotate(-90) scale(0.1 -0.1)">
      <defs>
       <path id="DejaVuSans-43" d="M 4122 4306 
L 4122 3641 
Q 3803 3938 3442 4084 
Q 3081 4231 2675 4231 
Q 1875 4231 1450 3742 
Q 1025 3253 1025 2328 
Q 1025 1406 1450 917 
Q 1875 428 2675 428 
Q 3081 428 3442 575 
Q 3803 722 4122 1019 
L 4122 359 
Q 3791 134 3420 21 
Q 3050 -91 2638 -91 
Q 1578 -91 968 557 
Q 359 1206 359 2328 
Q 359 3453 968 4101 
Q 1578 4750 2638 4750 
Q 3056 4750 3426 4639 
Q 3797 4528 4122 4306 
z
" transform="scale(0.015625)"/>
       <path id="DejaVuSans-6f" d="M 1959 3097 
Q 1497 3097 1228 2736 
Q 959 2375 959 1747 
Q 959 1119 1226 758 
Q 1494 397 1959 397 
Q 2419 397 2687 759 
Q 2956 1122 2956 1747 
Q 2956 2369 2687 2733 
Q 2419 3097 1959 3097 
z
M 1959 3584 
Q 2709 3584 3137 3096 
Q 3566 2609 3566 1747 
Q 3566 888 3137 398 
Q 2709 -91 1959 -91 
Q 1206 -91 779 398 
Q 353 888 353 1747 
Q 353 2609 779 3096 
Q 1206 3584 1959 3584 
z
" transform="scale(0.015625)"/>
       <path id="DejaVuSans-74" d="M 1172 4494 
L 1172 3500 
L 2356 3500 
L 2356 3053 
L 1172 3053 
L 1172 1153 
Q 1172 725 1289 603 
Q 1406 481 1766 481 
L 2356 481 
L 2356 0 
L 1766 0 
Q 1100 0 847 248 
Q 594 497 594 1153 
L 594 3053 
L 172 3053 
L 172 3500 
L 594 3500 
L 594 4494 
L 1172 4494 
z
" transform="scale(0.015625)"/>
       <path id="DejaVuSans-72" d="M 2631 2963 
Q 2534 3019 2420 3045 
Q 2306 3072 2169 3072 
Q 1681 3072 1420 2755 
Q 1159 2438 1159 1844 
L 1159 0 
L 581 0 
L 581 3500 
L 1159 3500 
L 1159 2956 
Q 1341 3275 1631 3429 
Q 1922 3584 2338 3584 
Q 2397 3584 2469 3576 
Q 2541 3569 2628 3553 
L 2631 2963 
z
" transform="scale(0.015625)"/>
       <path id="DejaVuSans-6c" d="M 603 4863 
L 1178 4863 
L 1178 0 
L 603 0 
L 603 4863 
z
" transform="scale(0.015625)"/>
       <path id="DejaVuSans-71" d="M 947 1747 
Q 947 1113 1208 752 
Q 1469 391 1925 391 
Q 2381 391 2643 752 
Q 2906 1113 2906 1747 
Q 2906 2381 2643 2742 
Q 2381 3103 1925 3103 
Q 1469 3103 1208 2742 
Q 947 2381 947 1747 
z
M 2906 525 
Q 2725 213 2448 61 
Q 2172 -91 1784 -91 
Q 1150 -91 751 415 
Q 353 922 353 1747 
Q 353 2572 751 3078 
Q 1150 3584 1784 3584 
Q 2172 3584 2448 3432 
Q 2725 3281 2906 2969 
L 2906 3500 
L 3481 3500 
L 3481 -1331 
L 2906 -1331 
L 2906 525 
z
" transform="scale(0.015625)"/>
       <path id="DejaVuSans-75" d="M 544 1381 
L 544 3500 
L 1119 3500 
L 1119 1403 
Q 1119 906 1312 657 
Q 1506 409 1894 409 
Q 2359 409 2629 706 
Q 2900 1003 2900 1516 
L 2900 3500 
L 3475 3500 
L 3475 0 
L 2900 0 
L 2900 538 
Q 2691 219 2414 64 
Q 2138 -91 1772 -91 
Q 1169 -91 856 284 
Q 544 659 544 1381 
z
M 1991 3584 
L 1991 3584 
z
" transform="scale(0.015625)"/>
       <path id="DejaVuSans-Oblique-4c" d="M 1075 4666 
L 1709 4666 
L 909 525 
L 3181 525 
L 3078 0 
L 172 0 
L 1075 4666 
z
" transform="scale(0.015625)"/>
       <path id="DejaVuSans-Oblique-72" d="M 2853 2969 
Q 2766 3016 2653 3041 
Q 2541 3066 2413 3066 
Q 1953 3066 1609 2717 
Q 1266 2369 1153 1784 
L 800 0 
L 225 0 
L 909 3500 
L 1484 3500 
L 1375 2956 
Q 1603 3259 1920 3421 
Q 2238 3584 2597 3584 
Q 2691 3584 2781 3573 
Q 2872 3563 2963 3538 
L 2853 2969 
z
" transform="scale(0.015625)"/>
       <path id="DejaVuSans-4e" d="M 628 4666 
L 1478 4666 
L 3547 763 
L 3547 4666 
L 4159 4666 
L 4159 0 
L 3309 0 
L 1241 3903 
L 1241 0 
L 628 0 
L 628 4666 
z
" transform="scale(0.015625)"/>
      </defs>
      <use xlink:href="#DejaVuSans-43" transform="translate(0 0.015625)"/>
      <use xlink:href="#DejaVuSans-6f" transform="translate(69.824219 0.015625)"/>
      <use xlink:href="#DejaVuSans-6e" transform="translate(131.005859 0.015625)"/>
      <use xlink:href="#DejaVuSans-74" transform="translate(194.384766 0.015625)"/>
      <use xlink:href="#DejaVuSans-72" transform="translate(233.59375 0.015625)"/>
      <use xlink:href="#DejaVuSans-6f" transform="translate(274.707031 0.015625)"/>
      <use xlink:href="#DejaVuSans-6c" transform="translate(335.888672 0.015625)"/>
      <use xlink:href="#DejaVuSans-20" transform="translate(363.671875 0.015625)"/>
      <use xlink:href="#DejaVuSans-54" transform="translate(395.458984 0.015625)"/>
      <use xlink:href="#DejaVuSans-6f" transform="translate(456.542969 0.015625)"/>
      <use xlink:href="#DejaVuSans-72" transform="translate(517.724609 0.015625)"/>
      <use xlink:href="#DejaVuSans-71" transform="translate(558.837891 0.015625)"/>
      <use xlink:href="#DejaVuSans-75" transform="translate(622.314453 0.015625)"/>
      <use xlink:href="#DejaVuSans-65" transform="translate(685.693359 0.015625)"/>
      <use xlink:href="#DejaVuSans-20" transform="translate(747.216797 0.015625)"/>
      <use xlink:href="#DejaVuSans-Oblique-4c" transform="translate(779.003906 0.015625)"/>
      <use xlink:href="#DejaVuSans-Oblique-72" transform="translate(834.716797 -16.390625) scale(0.7)"/>
      <use xlink:href="#DejaVuSans-20" transform="translate(866.230469 0.015625)"/>
      <use xlink:href="#DejaVuSans-5b" transform="translate(898.017578 0.015625)"/>
      <use xlink:href="#DejaVuSans-4e" transform="translate(937.03125 0.015625)"/>
      <use xlink:href="#DejaVuSans-6d" transform="translate(1011.835938 0.015625)"/>
      <use xlink:href="#DejaVuSans-5d" transform="translate(1109.248047 0.015625)"/>
     </g>
    </g>
   </g>
   <g id="line2d_14">
    <path d="M 70.910795 230.228607 
L 74.075455 230.571562 
L 77.240114 169.187939 
L 80.404773 100.106867 
L 83.569432 95.339899 
L 86.734091 92.813369 
L 89.89875 92.680564 
L 93.063409 90.237972 
L 96.228068 91.960475 
L 99.392727 91.221146 
L 102.557386 92.581581 
L 105.722045 94.016309 
L 108.886705 97.126651 
L 112.051364 99.290998 
L 115.216023 102.029496 
L 118.380682 103.818864 
L 121.545341 105.499729 
L 124.71 106.474427 
L 127.874659 106.856777 
L 131.039318 108.003697 
L 134.203977 110.811312 
L 137.368636 114.668583 
L 140.533295 119.080587 
L 143.697955 114.216979 
L 146.862614 112.353027 
L 150.027273 111.091523 
L 153.191932 112.661435 
L 156.356591 113.540557 
L 159.52125 116.232048 
L 162.685909 111.14693 
L 165.850568 108.293985 
L 169.015227 108.366097 
L 172.179886 107.803034 
L 175.344545 107.111991 
L 178.509205 105.728197 
L 181.673864 104.920894 
L 184.838523 104.781319 
L 188.003182 104.8596 
L 191.167841 105.882456 
L 194.3325 107.254796 
L 197.497159 107.454157 
L 200.661818 108.517732 
L 203.826477 107.920327 
L 206.991136 107.157766 
L 210.155795 106.853801 
L 213.320455 106.968863 
L 216.485114 107.886318 
L 219.649773 108.741704 
L 222.814432 109.706801 
L 225.979091 109.769604 
L 229.14375 109.923186 
L 232.308409 109.766621 
L 235.473068 109.77233 
L 238.637727 107.929049 
L 241.802386 107.910516 
L 244.967045 107.000096 
L 248.131705 107.046345 
L 251.296364 106.950536 
L 254.461023 107.821803 
L 257.625682 108.298988 
L 260.790341 108.573713 
L 263.955 108.367845 
L 267.119659 108.541183 
L 270.284318 108.535943 
L 273.448977 108.570075 
L 276.613636 108.291023 
L 279.778295 108.595599 
L 282.942955 108.264826 
L 286.107614 108.230126 
L 289.272273 107.805423 
L 292.436932 106.774626 
L 295.601591 107.13251 
L 298.76625 106.584286 
L 301.930909 106.965454 
L 305.095568 106.916417 
L 308.260227 106.842113 
L 311.424886 107.129629 
L 314.589545 106.925515 
L 317.754205 107.028427 
L 320.918864 107.045123 
L 324.083523 106.729328 
L 327.248182 107.182621 
L 330.412841 106.896754 
L 333.5775 106.980792 
L 336.742159 107.124691 
L 339.906818 107.282673 
L 343.071477 108.369642 
L 346.236136 108.115183 
L 349.400795 108.144146 
L 352.565455 108.291189 
L 355.730114 108.235725 
L 358.894773 108.137743 
L 362.059432 108.280389 
L 365.224091 107.875071 
L 368.38875 107.680431 
L 371.553409 107.389441 
L 374.718068 106.982472 
L 377.882727 107.228673 
L 381.047386 106.849531 
L 384.212045 107.090098 
L 387.376705 107.038525 
" clip-path="url(#p6109d1dca9)" style="fill: none; stroke: #2b737e; stroke-width: 1.5; stroke-linecap: square"/>
   </g>
   <g id="line2d_15">
    <path d="M 70.910795 218.100077 
L 74.075455 180.007062 
L 77.240114 122.368043 
L 80.404773 88.733941 
L 83.569432 72.910234 
L 86.734091 69.212917 
L 89.89875 62.588259 
L 93.063409 57.017835 
L 96.228068 53.732267 
L 99.392727 53.847162 
L 102.557386 54.885596 
L 105.722045 55.429061 
L 108.886705 59.717432 
L 112.051364 61.726337 
L 115.216023 65.348054 
L 118.380682 69.016941 
L 121.545341 74.194442 
L 124.71 75.568325 
L 127.874659 77.953925 
L 131.039318 79.062475 
L 134.203977 81.614637 
L 137.368636 85.751423 
L 140.533295 92.126477 
L 143.697955 96.619878 
L 146.862614 97.124515 
L 150.027273 98.181057 
L 153.191932 95.976907 
L 156.356591 90.971284 
L 159.52125 83.077946 
L 162.685909 75.217116 
L 165.850568 71.39957 
L 169.015227 71.332146 
L 172.179886 69.841284 
L 175.344545 69.166559 
L 178.509205 68.791086 
L 181.673864 67.749295 
L 184.838523 67.53527 
L 188.003182 68.163349 
L 191.167841 68.93129 
L 194.3325 70.461164 
L 197.497159 70.741346 
L 200.661818 72.011426 
L 203.826477 72.29471 
L 206.991136 73.926806 
L 210.155795 73.725138 
L 213.320455 73.772034 
L 216.485114 74.670508 
L 219.649773 75.549325 
L 222.814432 76.447586 
L 225.979091 76.637181 
L 229.14375 76.619243 
L 232.308409 76.392482 
L 235.473068 76.451242 
L 238.637727 74.594033 
L 241.802386 74.638595 
L 244.967045 73.617238 
L 248.131705 73.61453 
L 251.296364 73.179708 
L 254.461023 72.302523 
L 257.625682 72.020899 
L 260.790341 71.801188 
L 263.955 71.621438 
L 267.119659 71.780214 
L 270.284318 71.777586 
L 273.448977 71.802428 
L 276.613636 71.573173 
L 279.778295 71.995964 
L 282.942955 71.877393 
L 286.107614 72.368659 
L 289.272273 72.754467 
L 292.436932 73.857175 
L 295.601591 73.857645 
L 298.76625 73.317969 
L 301.930909 73.609131 
L 305.095568 73.676399 
L 308.260227 73.666827 
L 311.424886 73.70803 
L 314.589545 73.579258 
L 317.754205 73.641278 
L 320.918864 73.696408 
L 324.083523 73.47825 
L 327.248182 73.694514 
L 330.412841 73.446096 
L 333.5775 73.485302 
L 336.742159 73.475599 
L 339.906818 73.371976 
L 343.071477 72.833347 
L 346.236136 72.283122 
L 349.400795 72.23852 
L 352.565455 72.326489 
L 355.730114 72.234131 
L 358.894773 72.176764 
L 362.059432 72.505089 
L 365.224091 72.392681 
L 368.38875 72.71236 
L 371.553409 73.16653 
L 374.718068 73.540559 
L 377.882727 73.897745 
L 381.047386 73.393678 
L 384.212045 73.858943 
L 387.376705 73.762439 
" clip-path="url(#p6109d1dca9)" style="fill: none; stroke: #5ea04b; stroke-width: 1.5; stroke-linecap: square"/>
   </g>
   <g id="line2d_16">
    <path d="M 70.910795 75.026997 
L 74.075455 21.265312 
L 77.240114 40.09065 
L 80.404773 93.472638 
L 83.569432 122.265092 
L 86.734091 126.51617 
L 89.89875 125.800689 
L 93.063409 129.923395 
L 96.228068 127.393635 
L 99.392727 129.011356 
L 102.557386 126.78529 
L 105.722045 124.522836 
L 108.886705 120.354592 
L 112.051364 117.085932 
L 115.216023 112.94205 
L 118.380682 110.807015 
L 121.545341 106.789377 
L 124.71 103.128328 
L 127.874659 101.767128 
L 131.039318 96.476223 
L 134.203977 94.340977 
L 137.368636 88.342577 
L 140.533295 81.484587 
L 143.697955 70.913294 
L 146.862614 70.936894 
L 150.027273 75.403091 
L 153.191932 78.724798 
L 156.356591 82.342409 
L 159.52125 95.462979 
L 162.685909 101.545641 
L 165.850568 104.869557 
L 169.015227 104.896982 
L 172.179886 106.12972 
L 175.344545 107.031128 
L 178.509205 108.908824 
L 181.673864 109.783147 
L 184.838523 109.40934 
L 188.003182 109.998952 
L 191.167841 108.106939 
L 194.3325 106.445535 
L 197.497159 106.221465 
L 200.661818 104.832688 
L 203.826477 105.553295 
L 206.991136 106.786755 
L 210.155795 106.784638 
L 213.320455 106.675408 
L 216.485114 105.306965 
L 219.649773 104.139464 
L 222.814432 103.116328 
L 225.979091 102.648089 
L 229.14375 102.729608 
L 232.308409 103.382171 
L 235.473068 103.358534 
L 238.637727 104.982994 
L 241.802386 105.708117 
L 244.967045 106.524106 
L 248.131705 106.974338 
L 251.296364 106.535155 
L 254.461023 105.502467 
L 257.625682 105.149256 
L 260.790341 104.818338 
L 263.955 104.844328 
L 267.119659 104.705141 
L 270.284318 104.438694 
L 273.448977 104.553631 
L 276.613636 104.735515 
L 279.778295 104.543847 
L 282.942955 104.611172 
L 286.107614 105.201925 
L 289.272273 105.733215 
L 292.436932 106.928825 
L 295.601591 106.900017 
L 298.76625 106.794021 
L 301.930909 106.91693 
L 305.095568 106.948957 
L 308.260227 106.934154 
L 311.424886 106.906511 
L 314.589545 107.143323 
L 317.754205 106.703034 
L 320.918864 106.975049 
L 324.083523 106.859353 
L 327.248182 106.875298 
L 330.412841 106.708276 
L 333.5775 106.205883 
L 336.742159 106.893632 
L 339.906818 106.498448 
L 343.071477 105.285526 
L 346.236136 105.336261 
L 349.400795 104.841549 
L 352.565455 105.15847 
L 355.730114 105.181814 
L 358.894773 104.903719 
L 362.059432 104.951422 
L 365.224091 105.07066 
L 368.38875 105.736281 
L 371.553409 106.499288 
L 374.718068 107.072593 
L 377.882727 106.925241 
L 381.047386 106.705768 
L 384.212045 106.821453 
L 387.376705 106.71633 
" clip-path="url(#p6109d1dca9)" style="fill: none; stroke: #bdab62; stroke-width: 1.5; stroke-linecap: square"/>
   </g>
   <g id="patch_3">
    <path d="M 55.0875 241.036875 
L 55.0875 10.8 
" style="fill: none; stroke: #000000; stroke-width: 0.8; stroke-linejoin: miter; stroke-linecap: square"/>
   </g>
   <g id="patch_4">
    <path d="M 403.2 241.036875 
L 403.2 10.8 
" style="fill: none; stroke: #000000; stroke-width: 0.8; stroke-linejoin: miter; stroke-linecap: square"/>
   </g>
   <g id="patch_5">
    <path d="M 55.0875 241.036875 
L 403.2 241.036875 
" style="fill: none; stroke: #000000; stroke-width: 0.8; stroke-linejoin: miter; stroke-linecap: square"/>
   </g>
   <g id="patch_6">
    <path d="M 55.0875 10.8 
L 403.2 10.8 
" style="fill: none; stroke: #000000; stroke-width: 0.8; stroke-linejoin: miter; stroke-linecap: square"/>
   </g>
   <g id="legend_1">
    <g id="patch_7">
     <path d="M 352.98 236.536875 
L 396.9 236.536875 
Q 398.7 236.536875 398.7 234.736875 
L 398.7 194.871094 
Q 398.7 193.071094 396.9 193.071094 
L 352.98 193.071094 
Q 351.18 193.071094 351.18 194.871094 
L 351.18 234.736875 
Q 351.18 236.536875 352.98 236.536875 
z
" style="fill: #ffffff; opacity: 0.8; stroke: #cccccc; stroke-linejoin: miter"/>
    </g>
    <g id="line2d_17">
     <path d="M 354.78 200.359687 
L 363.78 200.359687 
L 372.78 200.359687 
" style="fill: none; stroke: #2b737e; stroke-width: 1.5; stroke-linecap: square"/>
    </g>
    <g id="text_16">
     <!-- $L_{r,0}$ -->
     <g transform="translate(379.98 203.509687) scale(0.09 -0.09)">
      <defs>
       <path id="DejaVuSans-2c" d="M 750 794 
L 1409 794 
L 1409 256 
L 897 -744 
L 494 -744 
L 750 256 
L 750 794 
z
" transform="scale(0.015625)"/>
      </defs>
      <use xlink:href="#DejaVuSans-Oblique-4c" transform="translate(0 0.09375)"/>
      <use xlink:href="#DejaVuSans-Oblique-72" transform="translate(55.712891 -16.3125) scale(0.7)"/>
      <use xlink:href="#DejaVuSans-2c" transform="translate(84.492188 -16.3125) scale(0.7)"/>
      <use xlink:href="#DejaVuSans-30" transform="translate(120.380859 -16.3125) scale(0.7)"/>
     </g>
    </g>
    <g id="line2d_18">
     <path d="M 354.78 213.948281 
L 363.78 213.948281 
L 372.78 213.948281 
" style="fill: none; stroke: #5ea04b; stroke-width: 1.5; stroke-linecap: square"/>
    </g>
    <g id="text_17">
     <!-- $L_{r,1}$ -->
     <g transform="translate(379.98 217.098281) scale(0.09 -0.09)">
      <use xlink:href="#DejaVuSans-Oblique-4c" transform="translate(0 0.09375)"/>
      <use xlink:href="#DejaVuSans-Oblique-72" transform="translate(55.712891 -16.3125) scale(0.7)"/>
      <use xlink:href="#DejaVuSans-2c" transform="translate(84.492188 -16.3125) scale(0.7)"/>
      <use xlink:href="#DejaVuSans-31" transform="translate(120.380859 -16.3125) scale(0.7)"/>
     </g>
    </g>
    <g id="line2d_19">
     <path d="M 354.78 227.536875 
L 363.78 227.536875 
L 372.78 227.536875 
" style="fill: none; stroke: #bdab62; stroke-width: 1.5; stroke-linecap: square"/>
    </g>
    <g id="text_18">
     <!-- $L_{r,2}$ -->
     <g transform="translate(379.98 230.686875) scale(0.09 -0.09)">
      <use xlink:href="#DejaVuSans-Oblique-4c" transform="translate(0 0.09375)"/>
      <use xlink:href="#DejaVuSans-Oblique-72" transform="translate(55.712891 -16.3125) scale(0.7)"/>
      <use xlink:href="#DejaVuSans-2c" transform="translate(84.492188 -16.3125) scale(0.7)"/>
      <use xlink:href="#DejaVuSans-32" transform="translate(120.380859 -16.3125) scale(0.7)"/>
     </g>
    </g>
   </g>
  </g>
 </g>
 <defs>
  <clipPath id="p6109d1dca9">
   <rect x="55.0875" y="10.8" width="348.1125" height="230.236875"/>
  </clipPath>
 </defs>
</svg>
