<?xml version="1.0" encoding="utf-8" standalone="no"?>
<!DOCTYPE svg PUBLIC "-//W3C//DTD SVG 1.1//EN"
  "http://www.w3.org/Graphics/SVG/1.1/DTD/svg11.dtd">
<svg xmlns:xlink="http://www.w3.org/1999/xlink" width="414pt" height="180pt" viewBox="0 0 414 180" xmlns="http://www.w3.org/2000/svg" version="1.1">
 <metadata>
  <rdf:RDF xmlns:dc="http://purl.org/dc/elements/1.1/" xmlns:cc="http://creativecommons.org/ns#" xmlns:rdf="http://www.w3.org/1999/02/22-rdf-syntax-ns#">
   <cc:Work>
    <dc:type rdf:resource="http://purl.org/dc/dcmitype/StillImage"/>
    <dc:date>2026-04-03T00:23:32.315897</dc:date>
    <dc:format>image/svg+xml</dc:format>
    <dc:creator>
     <cc:Agent>
      <dc:title>Matplotlib v3.10.7, https://matplotlib.org/</dc:title>
     </cc:Agent>
    </dc:creator>
   </cc:Work>
  </rdf:RDF>
 </metadata>
 <defs>
  <style type="text/css">*{stroke-linejoin: round; stroke-linecap: butt}</style>
 </defs>
 <g id="figure_1">
  <g id="patch_1">
   <path d="M 0 180 
L 414 180 
L 414 0 
L 0 0 
L 0 180 
z
" style="fill: none"/>
  </g>
  <g id="axes_1">
   <g id="patch_2">
    <path d="M 64.865781 134.004687 
L 403.2 134.004687 
L 403.2 28.9575 
L 64.865781 28.9575 
L 64.865781 134.004687 
z
" style="fill: none"/>
   </g>
   <g id="matplotlib.axis_1">
    <g id="xtick_1">
     <g id="line2d_1">
      <path d="M 80.244609 134.004687 
L 80.244609 28.9575 
" clip-path="url(#pd41370730b)" style="fill: none; stroke: #b0b0b0; stroke-width: 0.8; stroke-linecap: square"/>
     </g>
     <g id="line2d_2">
      <defs>
       <path id="mc8c8b29f6e" d="M 0 0 
L 0 3.5 
" style="stroke: #000000; stroke-width: 0.8"/>
      </defs>
      <g>
       <use xlink:href="#mc8c8b29f6e" x="80.244609" y="134.004687" style="stroke: #000000; stroke-width: 0.8"/>
      </g>
     </g>
     <g id="text_1">
      <!-- 0 -->
      <g transform="translate(77.381484 147.843281) scale(0.09 -0.09)">
       <defs>
        <path id="DejaVuSans-30" d="M 2034 4250 
Q 1547 4250 1301 3770 
Q 1056 3291 1056 2328 
Q 1056 1369 1301 889 
Q 1547 409 2034 409 
Q 2525 409 2770 889 
Q 3016 1369 3016 2328 
Q 3016 3291 2770 3770 
Q 2525 4250 2034 4250 
z
M 2034 4750 
Q 2819 4750 3233 4129 
Q 3647 3509 3647 2328 
Q 3647 1150 3233 529 
Q 2819 -91 2034 -91 
Q 1250 -91 836 529 
Q 422 1150 422 2328 
Q 422 3509 836 4129 
Q 1250 4750 2034 4750 
z
" transform="scale(0.015625)"/>
       </defs>
       <use xlink:href="#DejaVuSans-30"/>
      </g>
     </g>
    </g>
    <g id="xtick_2">
     <g id="line2d_3">
      <path d="M 148.594957 134.004687 
L 148.594957 28.9575 
" clip-path="url(#pd41370730b)" style="fill: none; stroke: #b0b0b0; stroke-width: 0.8; stroke-linecap: square"/>
     </g>
     <g id="line2d_4">
      <g>
       <use xlink:href="#mc8c8b29f6e" x="148.594957" y="134.004687" style="stroke: #000000; stroke-width: 0.8"/>
      </g>
     </g>
     <g id="text_2">
      <!-- 20 -->
      <g transform="translate(142.868707 147.843281) scale(0.09 -0.09)">
       <defs>
        <path id="DejaVuSans-32" d="M 1228 531 
L 3431 531 
L 3431 0 
L 469 0 
L 469 531 
Q 828 903 1448 1529 
Q 2069 2156 2228 2338 
Q 2531 2678 2651 2914 
Q 2772 3150 2772 3378 
Q 2772 3750 2511 3984 
Q 2250 4219 1831 4219 
Q 1534 4219 1204 4116 
Q 875 4013 500 3803 
L 500 4441 
Q 881 4594 1212 4672 
Q 1544 4750 1819 4750 
Q 2544 4750 2975 4387 
Q 3406 4025 3406 3419 
Q 3406 3131 3298 2873 
Q 3191 2616 2906 2266 
Q 2828 2175 2409 1742 
Q 1991 1309 1228 531 
z
" transform="scale(0.015625)"/>
       </defs>
       <use xlink:href="#DejaVuSans-32"/>
       <use xlink:href="#DejaVuSans-30" transform="translate(63.623047 0)"/>
      </g>
     </g>
    </g>
    <g id="xtick_3">
     <g id="line2d_5">
      <path d="M 216.945304 134.004687 
L 216.945304 28.9575 
" clip-path="url(#pd41370730b)" style="fill: none; stroke: #b0b0b0; stroke-width: 0.8; stroke-linecap: square"/>
     </g>
     <g id="line2d_6">
      <g>
       <use xlink:href="#mc8c8b29f6e" x="216.945304" y="134.004687" style="stroke: #000000; stroke-width: 0.8"/>
      </g>
     </g>
     <g id="text_3">
      <!-- 40 -->
      <g transform="translate(211.219054 147.843281) scale(0.09 -0.09)">
       <defs>
        <path id="DejaVuSans-34" d="M 2419 4116 
L 825 1625 
L 2419 1625 
L 2419 4116 
z
M 2253 4666 
L 3047 4666 
L 3047 1625 
L 3713 1625 
L 3713 1100 
L 3047 1100 
L 3047 0 
L 2419 0 
L 2419 1100 
L 313 1100 
L 313 1709 
L 2253 4666 
z
" transform="scale(0.015625)"/>
       </defs>
       <use xlink:href="#DejaVuSans-34"/>
       <use xlink:href="#DejaVuSans-30" transform="translate(63.623047 0)"/>
      </g>
     </g>
    </g>
    <g id="xtick_4">
     <g id="line2d_7">
      <path d="M 285.295651 134.004687 
L 285.295651 28.9575 
" clip-path="url(#pd41370730b)" style="fill: none; stroke: #b0b0b0; stroke-width: 0.8; stroke-linecap: square"/>
     </g>
     <g id="line2d_8">
      <g>
       <use xlink:href="#mc8c8b29f6e" x="285.295651" y="134.004687" style="stroke: #000000; stroke-width: 0.8"/>
      </g>
     </g>
     <g id="text_4">
      <!-- 60 -->
      <g transform="translate(279.569401 147.843281) scale(0.09 -0.09)">
       <defs>
        <path id="DejaVuSans-36" d="M 2113 2584 
Q 1688 2584 1439 2293 
Q 1191 2003 1191 1497 
Q 1191 994 1439 701 
Q 1688 409 2113 409 
Q 2538 409 2786 701 
Q 3034 994 3034 1497 
Q 3034 2003 2786 2293 
Q 2538 2584 2113 2584 
z
M 3366 4563 
L 3366 3988 
Q 3128 4100 2886 4159 
Q 2644 4219 2406 4219 
Q 1781 4219 1451 3797 
Q 1122 3375 1075 2522 
Q 1259 2794 1537 2939 
Q 1816 3084 2150 3084 
Q 2853 3084 3261 2657 
Q 3669 2231 3669 1497 
Q 3669 778 3244 343 
Q 2819 -91 2113 -91 
Q 1303 -91 875 529 
Q 447 1150 447 2328 
Q 447 3434 972 4092 
Q 1497 4750 2381 4750 
Q 2619 4750 2861 4703 
Q 3103 4656 3366 4563 
z
" transform="scale(0.015625)"/>
       </defs>
       <use xlink:href="#DejaVuSans-36"/>
       <use xlink:href="#DejaVuSans-30" transform="translate(63.623047 0)"/>
      </g>
     </g>
    </g>
    <g id="xtick_5">
     <g id="line2d_9">
      <path d="M 353.645998 134.004687 
L 353.645998 28.9575 
" clip-path="url(#pd41370730b)" style="fill: none; stroke: #b0b0b0; stroke-width: 0.8; stroke-linecap: square"/>
     </g>
     <g id="line2d_10">
      <g>
       <use xlink:href="#mc8c8b29f6e" x="353.645998" y="134.004687" style="stroke: #000000; stroke-width: 0.8"/>
      </g>
     </g>
     <g id="text_5">
      <!-- 80 -->
      <g transform="translate(347.919748 147.843281) scale(0.09 -0.09)">
       <defs>
        <path id="DejaVuSans-38" d="M 2034 2216 
Q 1584 2216 1326 1975 
Q 1069 1734 1069 1313 
Q 1069 891 1326 650 
Q 1584 409 2034 409 
Q 2484 409 2743 651 
Q 3003 894 3003 1313 
Q 3003 1734 2745 1975 
Q 2488 2216 2034 2216 
z
M 1403 2484 
Q 997 2584 770 2862 
Q 544 3141 544 3541 
Q 544 4100 942 4425 
Q 1341 4750 2034 4750 
Q 2731 4750 3128 4425 
Q 3525 4100 3525 3541 
Q 3525 3141 3298 2862 
Q 3072 2584 2669 2484 
Q 3125 2378 3379 2068 
Q 3634 1759 3634 1313 
Q 3634 634 3220 271 
Q 2806 -91 2034 -91 
Q 1263 -91 848 271 
Q 434 634 434 1313 
Q 434 1759 690 2068 
Q 947 2378 1403 2484 
z
M 1172 3481 
Q 1172 3119 1398 2916 
Q 1625 2713 2034 2713 
Q 2441 2713 2670 2916 
Q 2900 3119 2900 3481 
Q 2900 3844 2670 4047 
Q 2441 4250 2034 4250 
Q 1625 4250 1398 4047 
Q 1172 3844 1172 3481 
z
" transform="scale(0.015625)"/>
       </defs>
       <use xlink:href="#DejaVuSans-38"/>
       <use xlink:href="#DejaVuSans-30" transform="translate(63.623047 0)"/>
      </g>
     </g>
    </g>
    <g id="text_6">
     <!-- Time (s) -->
     <g transform="translate(201.506641 165.8725) scale(0.16 -0.16)">
      <defs>
       <path id="DejaVuSans-54" d="M -19 4666 
L 3928 4666 
L 3928 4134 
L 2272 4134 
L 2272 0 
L 1638 0 
L 1638 4134 
L -19 4134 
L -19 4666 
z
" transform="scale(0.015625)"/>
       <path id="DejaVuSans-69" d="M 603 3500 
L 1178 3500 
L 1178 0 
L 603 0 
L 603 3500 
z
M 603 4863 
L 1178 4863 
L 1178 4134 
L 603 4134 
L 603 4863 
z
" transform="scale(0.015625)"/>
       <path id="DejaVuSans-6d" d="M 3328 2828 
Q 3544 3216 3844 3400 
Q 4144 3584 4550 3584 
Q 5097 3584 5394 3201 
Q 5691 2819 5691 2113 
L 5691 0 
L 5113 0 
L 5113 2094 
Q 5113 2597 4934 2840 
Q 4756 3084 4391 3084 
Q 3944 3084 3684 2787 
Q 3425 2491 3425 1978 
L 3425 0 
L 2847 0 
L 2847 2094 
Q 2847 2600 2669 2842 
Q 2491 3084 2119 3084 
Q 1678 3084 1418 2786 
Q 1159 2488 1159 1978 
L 1159 0 
L 581 0 
L 581 3500 
L 1159 3500 
L 1159 2956 
Q 1356 3278 1631 3431 
Q 1906 3584 2284 3584 
Q 2666 3584 2933 3390 
Q 3200 3197 3328 2828 
z
" transform="scale(0.015625)"/>
       <path id="DejaVuSans-65" d="M 3597 1894 
L 3597 1613 
L 953 1613 
Q 991 1019 1311 708 
Q 1631 397 2203 397 
Q 2534 397 2845 478 
Q 3156 559 3463 722 
L 3463 178 
Q 3153 47 2828 -22 
Q 2503 -91 2169 -91 
Q 1331 -91 842 396 
Q 353 884 353 1716 
Q 353 2575 817 3079 
Q 1281 3584 2069 3584 
Q 2775 3584 3186 3129 
Q 3597 2675 3597 1894 
z
M 3022 2063 
Q 3016 2534 2758 2815 
Q 2500 3097 2075 3097 
Q 1594 3097 1305 2825 
Q 1016 2553 972 2059 
L 3022 2063 
z
" transform="scale(0.015625)"/>
       <path id="DejaVuSans-20" transform="scale(0.015625)"/>
       <path id="DejaVuSans-28" d="M 1984 4856 
Q 1566 4138 1362 3434 
Q 1159 2731 1159 2009 
Q 1159 1288 1364 580 
Q 1569 -128 1984 -844 
L 1484 -844 
Q 1016 -109 783 600 
Q 550 1309 550 2009 
Q 550 2706 781 3412 
Q 1013 4119 1484 4856 
L 1984 4856 
z
" transform="scale(0.015625)"/>
       <path id="DejaVuSans-73" d="M 2834 3397 
L 2834 2853 
Q 2591 2978 2328 3040 
Q 2066 3103 1784 3103 
Q 1356 3103 1142 2972 
Q 928 2841 928 2578 
Q 928 2378 1081 2264 
Q 1234 2150 1697 2047 
L 1894 2003 
Q 2506 1872 2764 1633 
Q 3022 1394 3022 966 
Q 3022 478 2636 193 
Q 2250 -91 1575 -91 
Q 1294 -91 989 -36 
Q 684 19 347 128 
L 347 722 
Q 666 556 975 473 
Q 1284 391 1588 391 
Q 1994 391 2212 530 
Q 2431 669 2431 922 
Q 2431 1156 2273 1281 
Q 2116 1406 1581 1522 
L 1381 1569 
Q 847 1681 609 1914 
Q 372 2147 372 2553 
Q 372 3047 722 3315 
Q 1072 3584 1716 3584 
Q 2034 3584 2315 3537 
Q 2597 3491 2834 3397 
z
" transform="scale(0.015625)"/>
       <path id="DejaVuSans-29" d="M 513 4856 
L 1013 4856 
Q 1481 4119 1714 3412 
Q 1947 2706 1947 2009 
Q 1947 1309 1714 600 
Q 1481 -109 1013 -844 
L 513 -844 
Q 928 -128 1133 580 
Q 1338 1288 1338 2009 
Q 1338 2731 1133 3434 
Q 928 4138 513 4856 
z
" transform="scale(0.015625)"/>
      </defs>
      <use xlink:href="#DejaVuSans-54"/>
      <use xlink:href="#DejaVuSans-69" transform="translate(57.958984 0)"/>
      <use xlink:href="#DejaVuSans-6d" transform="translate(85.742188 0)"/>
      <use xlink:href="#DejaVuSans-65" transform="translate(183.154297 0)"/>
      <use xlink:href="#DejaVuSans-20" transform="translate(244.677734 0)"/>
      <use xlink:href="#DejaVuSans-28" transform="translate(276.464844 0)"/>
      <use xlink:href="#DejaVuSans-73" transform="translate(315.478516 0)"/>
      <use xlink:href="#DejaVuSans-29" transform="translate(367.578125 0)"/>
     </g>
    </g>
   </g>
   <g id="matplotlib.axis_2">
    <g id="ytick_1">
     <g id="line2d_11">
      <path d="M 64.865781 130.052835 
L 403.2 130.052835 
" clip-path="url(#pd41370730b)" style="fill: none; stroke: #b0b0b0; stroke-width: 0.8; stroke-linecap: square"/>
     </g>
     <g id="line2d_12">
      <defs>
       <path id="m43e5de2fb8" d="M 0 0 
L -3.5 0 
" style="stroke: #000000; stroke-width: 0.8"/>
      </defs>
      <g>
       <use xlink:href="#m43e5de2fb8" x="64.865781" y="130.052835" style="stroke: #000000; stroke-width: 0.8"/>
      </g>
     </g>
     <g id="text_7">
      <!-- −0.04 -->
      <g transform="translate(30.285 133.472132) scale(0.09 -0.09)">
       <defs>
        <path id="DejaVuSans-2212" d="M 678 2272 
L 4684 2272 
L 4684 1741 
L 678 1741 
L 678 2272 
z
" transform="scale(0.015625)"/>
        <path id="DejaVuSans-2e" d="M 684 794 
L 1344 794 
L 1344 0 
L 684 0 
L 684 794 
z
" transform="scale(0.015625)"/>
       </defs>
       <use xlink:href="#DejaVuSans-2212"/>
       <use xlink:href="#DejaVuSans-30" transform="translate(83.789062 0)"/>
       <use xlink:href="#DejaVuSans-2e" transform="translate(147.412109 0)"/>
       <use xlink:href="#DejaVuSans-30" transform="translate(179.199219 0)"/>
       <use xlink:href="#DejaVuSans-34" transform="translate(242.822266 0)"/>
      </g>
     </g>
    </g>
    <g id="ytick_2">
     <g id="line2d_13">
      <path d="M 64.865781 105.766965 
L 403.2 105.766965 
" clip-path="url(#pd41370730b)" style="fill: none; stroke: #b0b0b0; stroke-width: 0.8; stroke-linecap: square"/>
     </g>
     <g id="line2d_14">
      <g>
       <use xlink:href="#m43e5de2fb8" x="64.865781" y="105.766965" style="stroke: #000000; stroke-width: 0.8"/>
      </g>
     </g>
     <g id="text_8">
      <!-- −0.02 -->
      <g transform="translate(30.285 109.186261) scale(0.09 -0.09)">
       <use xlink:href="#DejaVuSans-2212"/>
       <use xlink:href="#DejaVuSans-30" transform="translate(83.789062 0)"/>
       <use xlink:href="#DejaVuSans-2e" transform="translate(147.412109 0)"/>
       <use xlink:href="#DejaVuSans-30" transform="translate(179.199219 0)"/>
       <use xlink:href="#DejaVuSans-32" transform="translate(242.822266 0)"/>
      </g>
     </g>
    </g>
    <g id="ytick_3">
     <g id="line2d_15">
      <path d="M 64.865781 81.481094 
L 403.2 81.481094 
" clip-path="url(#pd41370730b)" style="fill: none; stroke: #b0b0b0; stroke-width: 0.8; stroke-linecap: square"/>
     </g>
     <g id="line2d_16">
      <g>
       <use xlink:href="#m43e5de2fb8" x="64.865781" y="81.481094" style="stroke: #000000; stroke-width: 0.8"/>
      </g>
     </g>
     <g id="text_9">
      <!-- 0.00 -->
      <g transform="translate(37.826719 84.900391) scale(0.09 -0.09)">
       <use xlink:href="#DejaVuSans-30"/>
       <use xlink:href="#DejaVuSans-2e" transform="translate(63.623047 0)"/>
       <use xlink:href="#DejaVuSans-30" transform="translate(95.410156 0)"/>
       <use xlink:href="#DejaVuSans-30" transform="translate(159.033203 0)"/>
      </g>
     </g>
    </g>
    <g id="ytick_4">
     <g id="line2d_17">
      <path d="M 64.865781 57.195223 
L 403.2 57.195223 
" clip-path="url(#pd41370730b)" style="fill: none; stroke: #b0b0b0; stroke-width: 0.8; stroke-linecap: square"/>
     </g>
     <g id="line2d_18">
      <g>
       <use xlink:href="#m43e5de2fb8" x="64.865781" y="57.195223" style="stroke: #000000; stroke-width: 0.8"/>
      </g>
     </g>
     <g id="text_10">
      <!-- 0.02 -->
      <g transform="translate(37.826719 60.61452) scale(0.09 -0.09)">
       <use xlink:href="#DejaVuSans-30"/>
       <use xlink:href="#DejaVuSans-2e" transform="translate(63.623047 0)"/>
       <use xlink:href="#DejaVuSans-30" transform="translate(95.410156 0)"/>
       <use xlink:href="#DejaVuSans-32" transform="translate(159.033203 0)"/>
      </g>
     </g>
    </g>
    <g id="ytick_5">
     <g id="line2d_19">
      <path d="M 64.865781 32.909352 
L 403.2 32.909352 
" clip-path="url(#pd41370730b)" style="fill: none; stroke: #b0b0b0; stroke-width: 0.8; stroke-linecap: square"/>
     </g>
     <g id="line2d_20">
      <g>
       <use xlink:href="#m43e5de2fb8" x="64.865781" y="32.909352" style="stroke: #000000; stroke-width: 0.8"/>
      </g>
     </g>
     <g id="text_11">
      <!-- 0.04 -->
      <g transform="translate(37.826719 36.328649) scale(0.09 -0.09)">
       <use xlink:href="#DejaVuSans-30"/>
       <use xlink:href="#DejaVuSans-2e" transform="translate(63.623047 0)"/>
       <use xlink:href="#DejaVuSans-30" transform="translate(95.410156 0)"/>
       <use xlink:href="#DejaVuSans-34" transform="translate(159.033203 0)"/>
      </g>
     </g>
    </g>
    <g id="text_12">
     <!-- (deg) -->
     <g transform="translate(22.9575 102.803594) rotate(-90) scale(0.16 -0.16)">
      <defs>
       <path id="DejaVuSans-64" d="M 2906 2969 
L 2906 4863 
L 3481 4863 
L 3481 0 
L 2906 0 
L 2906 525 
Q 2725 213 2448 61 
Q 2172 -91 1784 -91 
Q 1150 -91 751 415 
Q 353 922 353 1747 
Q 353 2572 751 3078 
Q 1150 3584 1784 3584 
Q 2172 3584 2448 3432 
Q 2725 3281 2906 2969 
z
M 947 1747 
Q 947 1113 1208 752 
Q 1469 391 1925 391 
Q 2381 391 2643 752 
Q 2906 1113 2906 1747 
Q 2906 2381 2643 2742 
Q 2381 3103 1925 3103 
Q 1469 3103 1208 2742 
Q 947 2381 947 1747 
z
" transform="scale(0.015625)"/>
       <path id="DejaVuSans-67" d="M 2906 1791 
Q 2906 2416 2648 2759 
Q 2391 3103 1925 3103 
Q 1463 3103 1205 2759 
Q 947 2416 947 1791 
Q 947 1169 1205 825 
Q 1463 481 1925 481 
Q 2391 481 2648 825 
Q 2906 1169 2906 1791 
z
M 3481 434 
Q 3481 -459 3084 -895 
Q 2688 -1331 1869 -1331 
Q 1566 -1331 1297 -1286 
Q 1028 -1241 775 -1147 
L 775 -588 
Q 1028 -725 1275 -790 
Q 1522 -856 1778 -856 
Q 2344 -856 2625 -561 
Q 2906 -266 2906 331 
L 2906 616 
Q 2728 306 2450 153 
Q 2172 0 1784 0 
Q 1141 0 747 490 
Q 353 981 353 1791 
Q 353 2603 747 3093 
Q 1141 3584 1784 3584 
Q 2172 3584 2450 3431 
Q 2728 3278 2906 2969 
L 2906 3500 
L 3481 3500 
L 3481 434 
z
" transform="scale(0.015625)"/>
      </defs>
      <use xlink:href="#DejaVuSans-28"/>
      <use xlink:href="#DejaVuSans-64" transform="translate(39.013672 0)"/>
      <use xlink:href="#DejaVuSans-65" transform="translate(102.490234 0)"/>
      <use xlink:href="#DejaVuSans-67" transform="translate(164.013672 0)"/>
      <use xlink:href="#DejaVuSans-29" transform="translate(227.490234 0)"/>
     </g>
    </g>
   </g>
   <g id="line2d_21">
    <path d="M 80.244609 81.481094 
L 80.928113 81.51432 
L 81.269865 81.657566 
L 81.611616 82.032594 
L 81.953368 82.777197 
L 82.29512 84.025569 
L 82.636872 85.887927 
L 83.320375 91.665824 
L 84.34563 104.497675 
L 85.370885 118.004471 
L 86.054389 124.826265 
L 86.396141 127.148176 
L 86.737892 128.628767 
L 87.079644 129.229815 
L 87.421396 128.951039 
L 87.763148 127.803423 
L 88.104899 125.780275 
L 88.788403 119.057385 
L 89.471906 108.846797 
L 90.497161 88.581676 
L 91.522417 67.782587 
L 92.20592 57.406131 
L 92.547672 53.924233 
L 92.889424 51.75151 
L 93.231175 50.941723 
L 93.572927 51.487583 
L 93.914679 53.322972 
L 94.256431 56.327664 
L 94.939934 65.136902 
L 96.990444 96.996014 
L 97.673948 103.334641 
L 98.0157 104.993613 
L 98.357451 105.576522 
L 98.699203 105.091582 
L 99.040955 103.593267 
L 99.724458 97.981082 
L 100.749714 85.430747 
L 101.774969 72.563261 
L 102.458472 66.238334 
L 102.800224 64.153149 
L 103.141976 62.887926 
L 103.483727 62.472173 
L 103.825479 62.89747 
L 104.167231 64.119025 
L 104.850734 68.609734 
L 105.87599 78.550494 
L 106.901245 88.669507 
L 107.584748 93.606022 
L 107.9265 95.218538 
L 108.268252 96.182262 
L 108.610003 96.475477 
L 108.951755 96.106349 
L 109.293507 95.111644 
L 109.97701 91.519528 
L 111.002266 83.646849 
L 112.027521 75.690228 
L 112.711024 71.838188 
L 113.052776 70.591811 
L 113.394528 69.858718 
L 113.73628 69.654814 
L 114.078031 69.972455 
L 114.419783 70.781515 
L 115.103286 73.6539 
L 116.128542 79.887869 
L 117.153797 86.143414 
L 117.8373 89.148552 
L 118.179052 90.111433 
L 118.520804 90.668288 
L 118.862556 90.807539 
L 119.204307 90.536162 
L 119.546059 89.878804 
L 120.229563 87.582677 
L 121.254818 82.647003 
L 122.280073 77.729471 
L 122.963576 75.385569 
L 123.305328 74.642097 
L 123.64708 74.219765 
L 123.988832 74.126941 
L 124.330583 74.357378 
L 124.672335 74.890941 
L 125.355839 76.725847 
L 126.381094 80.633074 
L 127.406349 84.498296 
L 128.089852 86.326034 
L 128.431604 86.899774 
L 128.773356 87.219547 
L 129.115108 87.279354 
L 129.456859 87.08471 
L 129.798611 86.65204 
L 130.482115 85.186153 
L 131.50737 82.093498 
L 132.532625 79.055784 
L 133.216128 77.630881 
L 133.55788 77.18838 
L 133.899632 76.946699 
L 134.241384 76.910093 
L 134.583135 77.073752 
L 134.924887 77.424292 
L 135.608391 78.595027 
L 136.975398 81.894128 
L 138.000653 84.050619 
L 138.684156 84.881323 
L 139.025908 85.063625 
L 139.36766 85.084171 
L 139.709411 84.947118 
L 140.392915 84.249836 
L 141.076418 83.125767 
L 143.126929 79.431384 
L 143.810432 78.788177 
L 144.152184 78.65096 
L 144.493936 78.641316 
L 145.177439 78.985194 
L 145.860943 79.731307 
L 148.594957 83.411286 
L 149.27846 83.716572 
L 149.961964 83.623884 
L 150.645467 83.173415 
L 151.670722 82.053204 
L 153.037729 80.473337 
L 153.721233 79.948294 
L 154.404736 79.715541 
L 155.08824 79.796589 
L 155.771743 80.158395 
L 156.796998 81.046917 
L 158.164005 82.289303 
L 158.847509 82.698108 
L 159.531012 82.875335 
L 160.214516 82.805161 
L 160.898019 82.514702 
L 161.923274 81.810059 
L 163.290281 80.833186 
L 163.973785 80.514972 
L 164.657288 80.380207 
L 165.340792 80.440471 
L 166.366047 80.840053 
L 169.100061 82.247917 
L 169.783564 82.350243 
L 170.808819 82.22024 
L 171.834075 81.829432 
L 173.884585 80.955727 
L 174.90984 80.794984 
L 175.935095 80.901884 
L 177.302102 81.339589 
L 179.010861 81.899471 
L 180.036116 82.022647 
L 181.061372 81.934905 
L 182.77013 81.485652 
L 184.478889 81.098041 
L 185.504144 81.06006 
L 186.871151 81.247391 
L 189.946917 81.809172 
L 191.313924 81.759545 
L 196.098448 81.236515 
L 198.148958 81.486541 
L 200.199469 81.686294 
L 201.908227 81.623764 
L 206.009248 81.319439 
L 208.743262 81.517399 
L 211.135524 81.608305 
L 214.553042 81.41147 
L 216.945304 81.399208 
L 222.413332 81.533818 
L 227.539608 81.44001 
L 233.007635 81.504724 
L 234.716394 81.42647 
L 235.058146 81.276344 
L 235.399898 80.895882 
L 235.741649 80.147484 
L 236.083401 78.897069 
L 236.425153 77.034456 
L 237.108656 71.261153 
L 238.133911 58.446233 
L 239.159167 44.961573 
L 239.84267 38.153109 
L 240.184422 35.836571 
L 240.526174 34.360203 
L 240.867925 33.762078 
L 241.209677 34.042393 
L 241.551429 35.190137 
L 241.893181 37.212043 
L 242.576684 43.928777 
L 243.260188 54.12952 
L 244.285443 74.377168 
L 245.310698 95.161602 
L 245.994201 105.532529 
L 246.335953 109.013272 
L 246.677705 111.185951 
L 247.019457 111.996773 
L 247.361208 111.452948 
L 247.70296 109.620474 
L 248.044712 106.619423 
L 248.728215 97.818899 
L 250.778726 65.983075 
L 251.462229 59.647044 
L 251.803981 57.98806 
L 252.145733 57.40429 
L 252.487484 57.887586 
L 252.829236 59.383568 
L 253.51274 64.989534 
L 254.537995 77.528984 
L 255.56325 90.38748 
L 256.246753 96.7091 
L 256.588505 98.79364 
L 256.930257 100.058908 
L 257.272009 100.475374 
L 257.61376 100.051405 
L 257.955512 98.831717 
L 258.639016 94.345949 
L 259.664271 84.413778 
L 260.689526 74.301806 
L 261.37303 69.367846 
L 261.714781 67.755811 
L 262.056533 66.792022 
L 262.398285 66.498218 
L 262.740036 66.866274 
L 263.081788 67.859485 
L 263.765292 71.447677 
L 264.790547 79.313578 
L 265.815802 87.264687 
L 266.499306 91.114754 
L 266.841057 92.360775 
L 267.182809 93.093941 
L 267.524561 93.29833 
L 267.866313 92.981554 
L 268.208064 92.173689 
L 268.891568 89.30442 
L 269.916823 83.075798 
L 270.942078 76.824569 
L 271.625582 73.820953 
L 271.967333 72.858335 
L 272.309085 72.301405 
L 272.650837 72.161754 
L 272.992589 72.432434 
L 273.33434 73.088837 
L 274.017844 75.382489 
L 275.043099 80.313946 
L 276.068354 85.2281 
L 276.751858 87.570828 
L 277.093609 88.314106 
L 277.435361 88.736511 
L 277.777113 88.829664 
L 278.118865 88.599789 
L 278.460616 88.066989 
L 279.14412 86.234048 
L 280.169375 82.330147 
L 281.19463 78.467568 
L 281.878134 76.640735 
L 282.219885 76.067137 
L 282.561637 75.747296 
L 282.903389 75.687219 
L 283.245141 75.881411 
L 283.586892 76.313472 
L 284.270396 77.777798 
L 285.295651 80.86783 
L 286.320906 83.903476 
L 287.00441 85.327682 
L 287.346161 85.770079 
L 287.687913 86.011824 
L 288.029665 86.048651 
L 288.371417 85.885355 
L 288.713168 85.535302 
L 289.396672 84.365805 
L 290.763679 81.069396 
L 291.788934 78.914231 
L 292.472438 78.083806 
L 292.814189 77.901448 
L 293.155941 77.880722 
L 293.497693 78.017482 
L 294.181196 78.713911 
L 294.8647 79.836914 
L 296.91521 83.528692 
L 297.598714 84.17169 
L 297.940465 84.308956 
L 298.282217 84.318748 
L 298.96572 83.975414 
L 299.649224 83.230082 
L 302.383238 79.552695 
L 303.066741 79.247403 
L 303.750245 79.339782 
L 304.433748 79.789711 
L 305.459003 80.908912 
L 306.82601 82.487676 
L 307.509514 83.012476 
L 308.193017 83.24524 
L 308.876521 83.164441 
L 309.560024 82.803065 
L 310.58528 81.915341 
L 311.952286 80.673819 
L 312.63579 80.265201 
L 313.319293 80.087959 
L 314.002797 80.157932 
L 314.6863 80.448049 
L 315.711556 81.152061 
L 317.078563 82.128259 
L 317.762066 82.446329 
L 318.445569 82.581109 
L 319.129073 82.521008 
L 320.154328 82.12186 
L 322.888342 80.714971 
L 323.571845 80.61263 
L 324.597101 80.742402 
L 325.622356 81.132832 
L 327.672866 82.005937 
L 328.698122 82.166665 
L 329.723377 82.05995 
L 331.090384 81.622647 
L 332.799142 81.063131 
L 333.824398 80.939965 
L 334.849653 81.027558 
L 336.558411 81.476415 
L 338.26717 81.8638 
L 339.292425 81.901822 
L 340.659432 81.714704 
L 343.735198 81.153289 
L 345.102205 81.202809 
L 349.886729 81.72551 
L 351.93724 81.475712 
L 353.98775 81.276063 
L 355.696509 81.338495 
L 359.79753 81.642633 
L 362.531543 81.444852 
L 364.923806 81.353973 
L 368.341323 81.550643 
L 370.733585 81.562932 
L 376.201613 81.428394 
L 381.327889 81.522158 
L 386.795917 81.457471 
L 387.821172 81.485489 
L 387.821172 81.485489 
" clip-path="url(#pd41370730b)" style="fill: none; stroke: #008080; stroke-width: 1.5; stroke-linecap: square"/>
   </g>
   <g id="line2d_22">
    <path d="M 80.244609 81.481094 
L 80.928113 81.447868 
L 81.269865 81.304622 
L 81.611616 80.929593 
L 81.953368 80.18499 
L 82.29512 78.936618 
L 82.636872 77.074261 
L 83.320375 71.296364 
L 84.34563 58.464513 
L 85.370885 44.957717 
L 86.054389 38.135923 
L 86.396141 35.814012 
L 86.737892 34.333421 
L 87.079644 33.732372 
L 87.421396 34.011149 
L 87.763148 35.158764 
L 88.104899 37.181912 
L 88.788403 43.904802 
L 89.471906 54.115391 
L 90.497161 74.380512 
L 91.522417 95.1796 
L 92.20592 105.556057 
L 92.547672 109.037955 
L 92.889424 111.210678 
L 93.231175 112.020464 
L 93.572927 111.474604 
L 93.914679 109.639215 
L 94.256431 106.634524 
L 94.939934 97.825286 
L 96.990444 65.966173 
L 97.673948 59.627547 
L 98.0157 57.968574 
L 98.357451 57.385665 
L 98.699203 57.870606 
L 99.040955 59.368921 
L 99.724458 64.981106 
L 100.749714 77.53144 
L 101.774969 90.398926 
L 102.458472 96.723854 
L 102.800224 98.809039 
L 103.141976 100.074262 
L 103.483727 100.490015 
L 103.825479 100.064717 
L 104.167231 98.843162 
L 104.850734 94.352454 
L 105.87599 84.411693 
L 106.901245 74.292681 
L 107.584748 69.356166 
L 107.9265 67.74365 
L 108.268252 66.779925 
L 108.610003 66.486711 
L 108.951755 66.855839 
L 109.293507 67.850544 
L 109.97701 71.44266 
L 111.002266 79.315338 
L 112.027521 87.27196 
L 112.711024 91.124 
L 113.052776 92.370377 
L 113.394528 93.10347 
L 113.73628 93.307373 
L 114.078031 92.989732 
L 114.419783 92.180673 
L 115.103286 89.308287 
L 116.128542 83.074318 
L 117.153797 76.818774 
L 117.8373 73.813636 
L 118.179052 72.850754 
L 118.520804 72.2939 
L 118.862556 72.154649 
L 119.204307 72.426025 
L 119.546059 73.083383 
L 120.229563 75.379511 
L 121.254818 80.315185 
L 122.280073 85.232716 
L 122.963576 87.576619 
L 123.305328 88.32009 
L 123.64708 88.742422 
L 123.988832 88.835246 
L 124.330583 88.60481 
L 124.672335 88.071247 
L 125.355839 86.23634 
L 126.381094 82.329114 
L 127.406349 78.463891 
L 128.089852 76.636153 
L 128.431604 76.062414 
L 128.773356 75.742641 
L 129.115108 75.682834 
L 129.456859 75.877478 
L 129.798611 76.310148 
L 130.482115 77.776035 
L 131.50737 80.86869 
L 132.532625 83.906403 
L 133.216128 85.331307 
L 133.55788 85.773807 
L 133.899632 86.015489 
L 134.241384 86.052095 
L 134.583135 85.888436 
L 134.924887 85.537896 
L 135.608391 84.36716 
L 136.975398 81.068059 
L 138.000653 78.911568 
L 138.684156 78.080865 
L 139.025908 77.898563 
L 139.36766 77.878017 
L 139.709411 78.015069 
L 140.392915 78.712352 
L 141.076418 79.83642 
L 143.126929 83.530803 
L 143.810432 84.174011 
L 144.152184 84.311227 
L 144.493936 84.320872 
L 145.177439 83.976993 
L 145.860943 83.230881 
L 148.594957 79.550901 
L 149.27846 79.245616 
L 149.961964 79.338304 
L 150.645467 79.788773 
L 151.670722 80.908983 
L 153.037729 82.48885 
L 153.721233 83.013894 
L 154.404736 83.246647 
L 155.08824 83.165598 
L 155.771743 82.803792 
L 156.796998 81.91527 
L 158.164005 80.672885 
L 158.847509 80.26408 
L 159.531012 80.086852 
L 160.214516 80.157026 
L 160.898019 80.447486 
L 161.923274 81.152128 
L 163.290281 82.129002 
L 163.973785 82.447215 
L 164.657288 82.58198 
L 165.340792 82.521716 
L 166.366047 82.122135 
L 169.100061 80.714271 
L 169.783564 80.611944 
L 170.808819 80.741948 
L 171.834075 81.132755 
L 173.884585 82.006461 
L 174.90984 82.167204 
L 175.935095 82.060304 
L 177.302102 81.622598 
L 179.010861 81.062716 
L 180.036116 80.939541 
L 181.061372 81.027283 
L 182.77013 81.476536 
L 184.478889 81.864146 
L 185.504144 81.902127 
L 186.871151 81.714797 
L 189.946917 81.153016 
L 191.313924 81.202642 
L 196.098448 81.725672 
L 198.148958 81.475647 
L 200.199469 81.275894 
L 201.908227 81.338423 
L 206.009248 81.642749 
L 208.743262 81.444788 
L 211.135524 81.353882 
L 214.553042 81.550717 
L 216.945304 81.56298 
L 222.413332 81.428369 
L 227.539608 81.522178 
L 233.007635 81.457463 
L 234.716394 81.535717 
L 235.058146 81.685844 
L 235.399898 82.066305 
L 235.741649 82.814703 
L 236.083401 84.065118 
L 236.425153 85.927732 
L 237.108656 91.701035 
L 238.133911 104.515955 
L 239.159167 118.000615 
L 239.84267 124.809078 
L 240.184422 127.125616 
L 240.526174 128.601985 
L 240.867925 129.20011 
L 241.209677 128.919795 
L 241.551429 127.77205 
L 241.893181 125.750144 
L 242.576684 119.033411 
L 243.260188 108.832667 
L 244.285443 88.58502 
L 245.310698 67.800585 
L 245.994201 57.429659 
L 246.335953 53.948915 
L 246.677705 51.776236 
L 247.019457 50.965415 
L 247.361208 51.509239 
L 247.70296 53.341713 
L 248.044712 56.342764 
L 248.728215 65.143288 
L 250.778726 96.979112 
L 251.462229 103.315144 
L 251.803981 104.974128 
L 252.145733 105.557897 
L 252.487484 105.074601 
L 252.829236 103.578619 
L 253.51274 97.972653 
L 254.537995 85.433204 
L 255.56325 72.574708 
L 256.246753 66.253087 
L 256.588505 64.168548 
L 256.930257 62.903279 
L 257.272009 62.486813 
L 257.61376 62.910783 
L 257.955512 64.13047 
L 258.639016 68.616238 
L 259.664271 78.548409 
L 260.689526 88.660381 
L 261.37303 93.594342 
L 261.714781 95.206377 
L 262.056533 96.170166 
L 262.398285 96.46397 
L 262.740036 96.095914 
L 263.081788 95.102702 
L 263.765292 91.514511 
L 264.790547 83.648609 
L 265.815802 75.6975 
L 266.499306 71.847434 
L 266.841057 70.601413 
L 267.182809 69.868247 
L 267.524561 69.663857 
L 267.866313 69.980633 
L 268.208064 70.788499 
L 268.891568 73.657767 
L 269.916823 79.886389 
L 270.942078 86.137619 
L 271.625582 89.141234 
L 271.967333 90.103852 
L 272.309085 90.660782 
L 272.650837 90.800433 
L 272.992589 90.529754 
L 273.33434 89.87335 
L 274.017844 87.579698 
L 275.043099 82.648242 
L 276.068354 77.734088 
L 276.751858 75.39136 
L 277.093609 74.648082 
L 277.435361 74.225676 
L 277.777113 74.132524 
L 278.118865 74.362399 
L 278.460616 74.895199 
L 279.14412 76.72814 
L 280.169375 80.63204 
L 281.19463 84.49462 
L 281.878134 86.321452 
L 282.219885 86.89505 
L 282.561637 87.214892 
L 282.903389 87.274969 
L 283.245141 87.080776 
L 283.586892 86.648716 
L 284.270396 85.184389 
L 285.295651 82.094357 
L 286.320906 79.058712 
L 287.00441 77.634506 
L 287.346161 77.192108 
L 287.687913 76.950364 
L 288.029665 76.913537 
L 288.371417 77.076832 
L 288.713168 77.426886 
L 289.396672 78.596383 
L 290.763679 81.892791 
L 291.788934 84.047957 
L 292.472438 84.878381 
L 292.814189 85.060739 
L 293.155941 85.081466 
L 293.497693 84.944706 
L 294.181196 84.248277 
L 294.8647 83.125273 
L 296.91521 79.433496 
L 297.598714 78.790498 
L 297.940465 78.653232 
L 298.282217 78.64344 
L 298.96572 78.986773 
L 299.649224 79.732106 
L 302.383238 83.409492 
L 303.066741 83.714784 
L 303.750245 83.622405 
L 304.433748 83.172477 
L 305.459003 82.053276 
L 306.82601 80.474512 
L 307.509514 79.949712 
L 308.193017 79.716948 
L 308.876521 79.797746 
L 309.560024 80.159122 
L 310.58528 81.046847 
L 311.952286 82.288369 
L 312.63579 82.696986 
L 313.319293 82.874228 
L 314.002797 82.804256 
L 314.6863 82.514138 
L 315.711556 81.810126 
L 317.078563 80.833928 
L 317.762066 80.515859 
L 318.445569 80.381078 
L 319.129073 80.44118 
L 320.154328 80.840327 
L 322.888342 82.247216 
L 323.571845 82.349558 
L 324.597101 82.219786 
L 325.622356 81.829355 
L 327.672866 80.956251 
L 328.698122 80.795523 
L 329.723377 80.902237 
L 331.090384 81.33954 
L 332.799142 81.899056 
L 333.824398 82.022223 
L 334.849653 81.934629 
L 336.558411 81.485772 
L 338.26717 81.098387 
L 339.292425 81.060366 
L 340.659432 81.247484 
L 343.735198 81.808898 
L 345.102205 81.759379 
L 349.886729 81.236677 
L 351.93724 81.486476 
L 353.98775 81.686124 
L 355.696509 81.623692 
L 359.79753 81.319554 
L 362.531543 81.517336 
L 364.923806 81.608215 
L 368.341323 81.411545 
L 370.733585 81.399255 
L 376.201613 81.533793 
L 381.327889 81.440029 
L 386.795917 81.504717 
L 387.821172 81.476699 
L 387.821172 81.476699 
" clip-path="url(#pd41370730b)" style="fill: none; stroke: #9400d3; stroke-width: 1.5; stroke-linecap: square"/>
   </g>
   <g id="patch_3">
    <path d="M 64.865781 134.004688 
L 64.865781 28.9575 
" style="fill: none; stroke: #000000; stroke-width: 0.8; stroke-linejoin: miter; stroke-linecap: square"/>
   </g>
   <g id="patch_4">
    <path d="M 403.2 134.004688 
L 403.2 28.9575 
" style="fill: none; stroke: #000000; stroke-width: 0.8; stroke-linejoin: miter; stroke-linecap: square"/>
   </g>
   <g id="patch_5">
    <path d="M 64.865781 134.004687 
L 403.2 134.004687 
" style="fill: none; stroke: #000000; stroke-width: 0.8; stroke-linejoin: miter; stroke-linecap: square"/>
   </g>
   <g id="patch_6">
    <path d="M 64.865781 28.9575 
L 403.2 28.9575 
" style="fill: none; stroke: #000000; stroke-width: 0.8; stroke-linejoin: miter; stroke-linecap: square"/>
   </g>
   <g id="text_13">
    <!-- Solar Array Angles -->
    <g transform="translate(160.079141 22.9575) scale(0.16 -0.16)">
     <defs>
      <path id="DejaVuSans-53" d="M 3425 4513 
L 3425 3897 
Q 3066 4069 2747 4153 
Q 2428 4238 2131 4238 
Q 1616 4238 1336 4038 
Q 1056 3838 1056 3469 
Q 1056 3159 1242 3001 
Q 1428 2844 1947 2747 
L 2328 2669 
Q 3034 2534 3370 2195 
Q 3706 1856 3706 1288 
Q 3706 609 3251 259 
Q 2797 -91 1919 -91 
Q 1588 -91 1214 -16 
Q 841 59 441 206 
L 441 856 
Q 825 641 1194 531 
Q 1563 422 1919 422 
Q 2459 422 2753 634 
Q 3047 847 3047 1241 
Q 3047 1584 2836 1778 
Q 2625 1972 2144 2069 
L 1759 2144 
Q 1053 2284 737 2584 
Q 422 2884 422 3419 
Q 422 4038 858 4394 
Q 1294 4750 2059 4750 
Q 2388 4750 2728 4690 
Q 3069 4631 3425 4513 
z
" transform="scale(0.015625)"/>
      <path id="DejaVuSans-6f" d="M 1959 3097 
Q 1497 3097 1228 2736 
Q 959 2375 959 1747 
Q 959 1119 1226 758 
Q 1494 397 1959 397 
Q 2419 397 2687 759 
Q 2956 1122 2956 1747 
Q 2956 2369 2687 2733 
Q 2419 3097 1959 3097 
z
M 1959 3584 
Q 2709 3584 3137 3096 
Q 3566 2609 3566 1747 
Q 3566 888 3137 398 
Q 2709 -91 1959 -91 
Q 1206 -91 779 398 
Q 353 888 353 1747 
Q 353 2609 779 3096 
Q 1206 3584 1959 3584 
z
" transform="scale(0.015625)"/>
      <path id="DejaVuSans-6c" d="M 603 4863 
L 1178 4863 
L 1178 0 
L 603 0 
L 603 4863 
z
" transform="scale(0.015625)"/>
      <path id="DejaVuSans-61" d="M 2194 1759 
Q 1497 1759 1228 1600 
Q 959 1441 959 1056 
Q 959 750 1161 570 
Q 1363 391 1709 391 
Q 2188 391 2477 730 
Q 2766 1069 2766 1631 
L 2766 1759 
L 2194 1759 
z
M 3341 1997 
L 3341 0 
L 2766 0 
L 2766 531 
Q 2569 213 2275 61 
Q 1981 -91 1556 -91 
Q 1019 -91 701 211 
Q 384 513 384 1019 
Q 384 1609 779 1909 
Q 1175 2209 1959 2209 
L 2766 2209 
L 2766 2266 
Q 2766 2663 2505 2880 
Q 2244 3097 1772 3097 
Q 1472 3097 1187 3025 
Q 903 2953 641 2809 
L 641 3341 
Q 956 3463 1253 3523 
Q 1550 3584 1831 3584 
Q 2591 3584 2966 3190 
Q 3341 2797 3341 1997 
z
" transform="scale(0.015625)"/>
      <path id="DejaVuSans-72" d="M 2631 2963 
Q 2534 3019 2420 3045 
Q 2306 3072 2169 3072 
Q 1681 3072 1420 2755 
Q 1159 2438 1159 1844 
L 1159 0 
L 581 0 
L 581 3500 
L 1159 3500 
L 1159 2956 
Q 1341 3275 1631 3429 
Q 1922 3584 2338 3584 
Q 2397 3584 2469 3576 
Q 2541 3569 2628 3553 
L 2631 2963 
z
" transform="scale(0.015625)"/>
      <path id="DejaVuSans-41" d="M 2188 4044 
L 1331 1722 
L 3047 1722 
L 2188 4044 
z
M 1831 4666 
L 2547 4666 
L 4325 0 
L 3669 0 
L 3244 1197 
L 1141 1197 
L 716 0 
L 50 0 
L 1831 4666 
z
" transform="scale(0.015625)"/>
      <path id="DejaVuSans-79" d="M 2059 -325 
Q 1816 -950 1584 -1140 
Q 1353 -1331 966 -1331 
L 506 -1331 
L 506 -850 
L 844 -850 
Q 1081 -850 1212 -737 
Q 1344 -625 1503 -206 
L 1606 56 
L 191 3500 
L 800 3500 
L 1894 763 
L 2988 3500 
L 3597 3500 
L 2059 -325 
z
" transform="scale(0.015625)"/>
      <path id="DejaVuSans-6e" d="M 3513 2113 
L 3513 0 
L 2938 0 
L 2938 2094 
Q 2938 2591 2744 2837 
Q 2550 3084 2163 3084 
Q 1697 3084 1428 2787 
Q 1159 2491 1159 1978 
L 1159 0 
L 581 0 
L 581 3500 
L 1159 3500 
L 1159 2956 
Q 1366 3272 1645 3428 
Q 1925 3584 2291 3584 
Q 2894 3584 3203 3211 
Q 3513 2838 3513 2113 
z
" transform="scale(0.015625)"/>
     </defs>
     <use xlink:href="#DejaVuSans-53"/>
     <use xlink:href="#DejaVuSans-6f" transform="translate(63.476562 0)"/>
     <use xlink:href="#DejaVuSans-6c" transform="translate(124.658203 0)"/>
     <use xlink:href="#DejaVuSans-61" transform="translate(152.441406 0)"/>
     <use xlink:href="#DejaVuSans-72" transform="translate(213.720703 0)"/>
     <use xlink:href="#DejaVuSans-20" transform="translate(254.833984 0)"/>
     <use xlink:href="#DejaVuSans-41" transform="translate(286.621094 0)"/>
     <use xlink:href="#DejaVuSans-72" transform="translate(355.029297 0)"/>
     <use xlink:href="#DejaVuSans-72" transform="translate(394.392578 0)"/>
     <use xlink:href="#DejaVuSans-61" transform="translate(435.505859 0)"/>
     <use xlink:href="#DejaVuSans-79" transform="translate(496.785156 0)"/>
     <use xlink:href="#DejaVuSans-20" transform="translate(555.964844 0)"/>
     <use xlink:href="#DejaVuSans-41" transform="translate(587.751953 0)"/>
     <use xlink:href="#DejaVuSans-6e" transform="translate(656.160156 0)"/>
     <use xlink:href="#DejaVuSans-67" transform="translate(719.539062 0)"/>
     <use xlink:href="#DejaVuSans-6c" transform="translate(783.015625 0)"/>
     <use xlink:href="#DejaVuSans-65" transform="translate(810.798828 0)"/>
     <use xlink:href="#DejaVuSans-73" transform="translate(872.322266 0)"/>
    </g>
   </g>
   <g id="legend_1">
    <g id="patch_7">
     <path d="M 291.04 93.2775 
L 392 93.2775 
Q 395.2 93.2775 395.2 90.0775 
L 395.2 40.1575 
Q 395.2 36.9575 392 36.9575 
L 291.04 36.9575 
Q 287.84 36.9575 287.84 40.1575 
L 287.84 90.0775 
Q 287.84 93.2775 291.04 93.2775 
z
" style="fill: #ffffff; opacity: 0.8; stroke: #cccccc; stroke-linejoin: miter"/>
    </g>
    <g id="line2d_23">
     <path d="M 294.24 50.0775 
L 310.24 50.0775 
L 326.24 50.0775 
" style="fill: none; stroke: #008080; stroke-width: 1.5; stroke-linecap: square"/>
    </g>
    <g id="text_14">
     <!-- $\theta_{S_{1,2,5,6}}$ -->
     <g transform="translate(339.04 55.6775) scale(0.16 -0.16)">
      <defs>
       <path id="DejaVuSans-Oblique-3b8" d="M 2913 2219 
L 925 2219 
Q 791 1284 928 888 
Q 1100 400 1566 400 
Q 2034 400 2391 891 
Q 2703 1322 2913 2219 
z
M 3009 2750 
Q 3094 3638 2984 3950 
Q 2813 4444 2353 4444 
Q 1875 4444 1525 3956 
Q 1250 3563 1034 2750 
L 3009 2750 
z
M 2444 4913 
Q 3194 4913 3494 4250 
Q 3794 3591 3566 2422 
Q 3341 1256 2781 594 
Q 2225 -72 1475 -72 
Q 722 -72 425 594 
Q 128 1256 353 2422 
Q 581 3591 1134 4250 
Q 1691 4913 2444 4913 
z
" transform="scale(0.015625)"/>
       <path id="DejaVuSans-Oblique-53" d="M 3859 4513 
L 3738 3897 
Q 3422 4066 3111 4152 
Q 2800 4238 2509 4238 
Q 1944 4238 1609 3991 
Q 1275 3744 1275 3334 
Q 1275 3109 1398 2989 
Q 1522 2869 2034 2731 
L 2413 2638 
Q 3053 2472 3303 2217 
Q 3553 1963 3553 1503 
Q 3553 797 2998 353 
Q 2444 -91 1538 -91 
Q 1166 -91 791 -17 
Q 416 56 38 206 
L 166 856 
Q 513 641 861 531 
Q 1209 422 1556 422 
Q 2147 422 2503 684 
Q 2859 947 2859 1369 
Q 2859 1650 2717 1795 
Q 2575 1941 2106 2059 
L 1728 2156 
Q 1081 2325 845 2545 
Q 609 2766 609 3163 
Q 609 3859 1145 4304 
Q 1681 4750 2541 4750 
Q 2875 4750 3203 4690 
Q 3531 4631 3859 4513 
z
" transform="scale(0.015625)"/>
       <path id="DejaVuSans-31" d="M 794 531 
L 1825 531 
L 1825 4091 
L 703 3866 
L 703 4441 
L 1819 4666 
L 2450 4666 
L 2450 531 
L 3481 531 
L 3481 0 
L 794 0 
L 794 531 
z
" transform="scale(0.015625)"/>
       <path id="DejaVuSans-2c" d="M 750 794 
L 1409 794 
L 1409 256 
L 897 -744 
L 494 -744 
L 750 256 
L 750 794 
z
" transform="scale(0.015625)"/>
       <path id="DejaVuSans-35" d="M 691 4666 
L 3169 4666 
L 3169 4134 
L 1269 4134 
L 1269 2991 
Q 1406 3038 1543 3061 
Q 1681 3084 1819 3084 
Q 2600 3084 3056 2656 
Q 3513 2228 3513 1497 
Q 3513 744 3044 326 
Q 2575 -91 1722 -91 
Q 1428 -91 1123 -41 
Q 819 9 494 109 
L 494 744 
Q 775 591 1075 516 
Q 1375 441 1709 441 
Q 2250 441 2565 725 
Q 2881 1009 2881 1497 
Q 2881 1984 2565 2268 
Q 2250 2553 1709 2553 
Q 1456 2553 1204 2497 
Q 953 2441 691 2322 
L 691 4666 
z
" transform="scale(0.015625)"/>
      </defs>
      <use xlink:href="#DejaVuSans-Oblique-3b8" transform="translate(0 0.234375)"/>
      <use xlink:href="#DejaVuSans-Oblique-53" transform="translate(61.181641 -16.171875) scale(0.7)"/>
      <use xlink:href="#DejaVuSans-31" transform="translate(105.615234 -27.65625) scale(0.49)"/>
      <use xlink:href="#DejaVuSans-2c" transform="translate(136.790527 -27.65625) scale(0.49)"/>
      <use xlink:href="#DejaVuSans-32" transform="translate(161.912598 -27.65625) scale(0.49)"/>
      <use xlink:href="#DejaVuSans-2c" transform="translate(193.087891 -27.65625) scale(0.49)"/>
      <use xlink:href="#DejaVuSans-35" transform="translate(218.209961 -27.65625) scale(0.49)"/>
      <use xlink:href="#DejaVuSans-2c" transform="translate(249.385254 -27.65625) scale(0.49)"/>
      <use xlink:href="#DejaVuSans-36" transform="translate(274.507324 -27.65625) scale(0.49)"/>
     </g>
    </g>
    <g id="line2d_24">
     <path d="M 294.24 75.8375 
L 310.24 75.8375 
L 326.24 75.8375 
" style="fill: none; stroke: #9400d3; stroke-width: 1.5; stroke-linecap: square"/>
    </g>
    <g id="text_15">
     <!-- $\theta_{S_{3,4,7,8}}$ -->
     <g transform="translate(339.04 81.4375) scale(0.16 -0.16)">
      <defs>
       <path id="DejaVuSans-33" d="M 2597 2516 
Q 3050 2419 3304 2112 
Q 3559 1806 3559 1356 
Q 3559 666 3084 287 
Q 2609 -91 1734 -91 
Q 1441 -91 1130 -33 
Q 819 25 488 141 
L 488 750 
Q 750 597 1062 519 
Q 1375 441 1716 441 
Q 2309 441 2620 675 
Q 2931 909 2931 1356 
Q 2931 1769 2642 2001 
Q 2353 2234 1838 2234 
L 1294 2234 
L 1294 2753 
L 1863 2753 
Q 2328 2753 2575 2939 
Q 2822 3125 2822 3475 
Q 2822 3834 2567 4026 
Q 2313 4219 1838 4219 
Q 1578 4219 1281 4162 
Q 984 4106 628 3988 
L 628 4550 
Q 988 4650 1302 4700 
Q 1616 4750 1894 4750 
Q 2613 4750 3031 4423 
Q 3450 4097 3450 3541 
Q 3450 3153 3228 2886 
Q 3006 2619 2597 2516 
z
" transform="scale(0.015625)"/>
       <path id="DejaVuSans-37" d="M 525 4666 
L 3525 4666 
L 3525 4397 
L 1831 0 
L 1172 0 
L 2766 4134 
L 525 4134 
L 525 4666 
z
" transform="scale(0.015625)"/>
      </defs>
      <use xlink:href="#DejaVuSans-Oblique-3b8" transform="translate(0 0.234375)"/>
      <use xlink:href="#DejaVuSans-Oblique-53" transform="translate(61.181641 -16.171875) scale(0.7)"/>
      <use xlink:href="#DejaVuSans-33" transform="translate(105.615234 -27.65625) scale(0.49)"/>
      <use xlink:href="#DejaVuSans-2c" transform="translate(136.790527 -27.65625) scale(0.49)"/>
      <use xlink:href="#DejaVuSans-34" transform="translate(161.912598 -27.65625) scale(0.49)"/>
      <use xlink:href="#DejaVuSans-2c" transform="translate(193.087891 -27.65625) scale(0.49)"/>
      <use xlink:href="#DejaVuSans-37" transform="translate(218.209961 -27.65625) scale(0.49)"/>
      <use xlink:href="#DejaVuSans-2c" transform="translate(249.385254 -27.65625) scale(0.49)"/>
      <use xlink:href="#DejaVuSans-38" transform="translate(274.507324 -27.65625) scale(0.49)"/>
     </g>
    </g>
   </g>
  </g>
 </g>
 <defs>
  <clipPath id="pd41370730b">
   <rect x="64.865781" y="28.9575" width="338.334219" height="105.047187"/>
  </clipPath>
 </defs>
</svg>
