<?xml version="1.0" encoding="utf-8" standalone="no"?>
<!DOCTYPE svg PUBLIC "-//W3C//DTD SVG 1.1//EN"
  "http://www.w3.org/Graphics/SVG/1.1/DTD/svg11.dtd">
<svg xmlns:xlink="http://www.w3.org/1999/xlink" width="414pt" height="288pt" viewBox="0 0 414 288" xmlns="http://www.w3.org/2000/svg" version="1.1">
 <metadata>
  <rdf:RDF xmlns:dc="http://purl.org/dc/elements/1.1/" xmlns:cc="http://creativecommons.org/ns#" xmlns:rdf="http://www.w3.org/1999/02/22-rdf-syntax-ns#">
   <cc:Work>
    <dc:type rdf:resource="http://purl.org/dc/dcmitype/StillImage"/>
    <dc:date>2026-01-21T21:01:25.877975</dc:date>
    <dc:format>image/svg+xml</dc:format>
    <dc:creator>
     <cc:Agent>
      <dc:title>Matplotlib v3.10.7, https://matplotlib.org/</dc:title>
     </cc:Agent>
    </dc:creator>
   </cc:Work>
  </rdf:RDF>
 </metadata>
 <defs>
  <style type="text/css">*{stroke-linejoin: round; stroke-linecap: butt}</style>
 </defs>
 <g id="figure_1">
  <g id="patch_1">
   <path d="M 0 288 
L 414 288 
L 414 0 
L 0 0 
L 0 288 
z
" style="fill: none"/>
  </g>
  <g id="axes_1">
   <g id="patch_2">
    <path d="M 77.283125 241.036875 
L 397.424091 241.036875 
L 397.424091 10.8 
L 77.283125 10.8 
L 77.283125 241.036875 
z
" style="fill: none"/>
   </g>
   <g id="matplotlib.axis_1">
    <g id="xtick_1">
     <g id="line2d_1">
      <defs>
       <path id="m7ada6d740c" d="M 0 0 
L 0 3.5 
" style="stroke: #000000; stroke-width: 0.8"/>
      </defs>
      <g>
       <use xlink:href="#m7ada6d740c" x="91.834987" y="241.036875" style="stroke: #000000; stroke-width: 0.8"/>
      </g>
     </g>
     <g id="text_1">
      <!-- 0 -->
      <g transform="translate(86.744987 260.194375) scale(0.16 -0.16)">
       <defs>
        <path id="DejaVuSans-30" d="M 2034 4250 
Q 1547 4250 1301 3770 
Q 1056 3291 1056 2328 
Q 1056 1369 1301 889 
Q 1547 409 2034 409 
Q 2525 409 2770 889 
Q 3016 1369 3016 2328 
Q 3016 3291 2770 3770 
Q 2525 4250 2034 4250 
z
M 2034 4750 
Q 2819 4750 3233 4129 
Q 3647 3509 3647 2328 
Q 3647 1150 3233 529 
Q 2819 -91 2034 -91 
Q 1250 -91 836 529 
Q 422 1150 422 2328 
Q 422 3509 836 4129 
Q 1250 4750 2034 4750 
z
" transform="scale(0.015625)"/>
       </defs>
       <use xlink:href="#DejaVuSans-30"/>
      </g>
     </g>
    </g>
    <g id="xtick_2">
     <g id="line2d_2">
      <g>
       <use xlink:href="#m7ada6d740c" x="164.594298" y="241.036875" style="stroke: #000000; stroke-width: 0.8"/>
      </g>
     </g>
     <g id="text_2">
      <!-- 500 -->
      <g transform="translate(149.324298 260.194375) scale(0.16 -0.16)">
       <defs>
        <path id="DejaVuSans-35" d="M 691 4666 
L 3169 4666 
L 3169 4134 
L 1269 4134 
L 1269 2991 
Q 1406 3038 1543 3061 
Q 1681 3084 1819 3084 
Q 2600 3084 3056 2656 
Q 3513 2228 3513 1497 
Q 3513 744 3044 326 
Q 2575 -91 1722 -91 
Q 1428 -91 1123 -41 
Q 819 9 494 109 
L 494 744 
Q 775 591 1075 516 
Q 1375 441 1709 441 
Q 2250 441 2565 725 
Q 2881 1009 2881 1497 
Q 2881 1984 2565 2268 
Q 2250 2553 1709 2553 
Q 1456 2553 1204 2497 
Q 953 2441 691 2322 
L 691 4666 
z
" transform="scale(0.015625)"/>
       </defs>
       <use xlink:href="#DejaVuSans-35"/>
       <use xlink:href="#DejaVuSans-30" transform="translate(63.623047 0)"/>
       <use xlink:href="#DejaVuSans-30" transform="translate(127.246094 0)"/>
      </g>
     </g>
    </g>
    <g id="xtick_3">
     <g id="line2d_3">
      <g>
       <use xlink:href="#m7ada6d740c" x="237.353608" y="241.036875" style="stroke: #000000; stroke-width: 0.8"/>
      </g>
     </g>
     <g id="text_3">
      <!-- 1000 -->
      <g transform="translate(216.993608 260.194375) scale(0.16 -0.16)">
       <defs>
        <path id="DejaVuSans-31" d="M 794 531 
L 1825 531 
L 1825 4091 
L 703 3866 
L 703 4441 
L 1819 4666 
L 2450 4666 
L 2450 531 
L 3481 531 
L 3481 0 
L 794 0 
L 794 531 
z
" transform="scale(0.015625)"/>
       </defs>
       <use xlink:href="#DejaVuSans-31"/>
       <use xlink:href="#DejaVuSans-30" transform="translate(63.623047 0)"/>
       <use xlink:href="#DejaVuSans-30" transform="translate(127.246094 0)"/>
       <use xlink:href="#DejaVuSans-30" transform="translate(190.869141 0)"/>
      </g>
     </g>
    </g>
    <g id="xtick_4">
     <g id="line2d_4">
      <g>
       <use xlink:href="#m7ada6d740c" x="310.112918" y="241.036875" style="stroke: #000000; stroke-width: 0.8"/>
      </g>
     </g>
     <g id="text_4">
      <!-- 1500 -->
      <g transform="translate(289.752918 260.194375) scale(0.16 -0.16)">
       <use xlink:href="#DejaVuSans-31"/>
       <use xlink:href="#DejaVuSans-35" transform="translate(63.623047 0)"/>
       <use xlink:href="#DejaVuSans-30" transform="translate(127.246094 0)"/>
       <use xlink:href="#DejaVuSans-30" transform="translate(190.869141 0)"/>
      </g>
     </g>
    </g>
    <g id="xtick_5">
     <g id="line2d_5">
      <g>
       <use xlink:href="#m7ada6d740c" x="382.872229" y="241.036875" style="stroke: #000000; stroke-width: 0.8"/>
      </g>
     </g>
     <g id="text_5">
      <!-- 2000 -->
      <g transform="translate(362.512229 260.194375) scale(0.16 -0.16)">
       <defs>
        <path id="DejaVuSans-32" d="M 1228 531 
L 3431 531 
L 3431 0 
L 469 0 
L 469 531 
Q 828 903 1448 1529 
Q 2069 2156 2228 2338 
Q 2531 2678 2651 2914 
Q 2772 3150 2772 3378 
Q 2772 3750 2511 3984 
Q 2250 4219 1831 4219 
Q 1534 4219 1204 4116 
Q 875 4013 500 3803 
L 500 4441 
Q 881 4594 1212 4672 
Q 1544 4750 1819 4750 
Q 2544 4750 2975 4387 
Q 3406 4025 3406 3419 
Q 3406 3131 3298 2873 
Q 3191 2616 2906 2266 
Q 2828 2175 2409 1742 
Q 1991 1309 1228 531 
z
" transform="scale(0.015625)"/>
       </defs>
       <use xlink:href="#DejaVuSans-32"/>
       <use xlink:href="#DejaVuSans-30" transform="translate(63.623047 0)"/>
       <use xlink:href="#DejaVuSans-30" transform="translate(127.246094 0)"/>
       <use xlink:href="#DejaVuSans-30" transform="translate(190.869141 0)"/>
      </g>
     </g>
    </g>
    <g id="text_6">
     <!-- Time [s] -->
     <g transform="translate(217.024702 275.120313) scale(0.1 -0.1)">
      <defs>
       <path id="DejaVuSans-54" d="M -19 4666 
L 3928 4666 
L 3928 4134 
L 2272 4134 
L 2272 0 
L 1638 0 
L 1638 4134 
L -19 4134 
L -19 4666 
z
" transform="scale(0.015625)"/>
       <path id="DejaVuSans-69" d="M 603 3500 
L 1178 3500 
L 1178 0 
L 603 0 
L 603 3500 
z
M 603 4863 
L 1178 4863 
L 1178 4134 
L 603 4134 
L 603 4863 
z
" transform="scale(0.015625)"/>
       <path id="DejaVuSans-6d" d="M 3328 2828 
Q 3544 3216 3844 3400 
Q 4144 3584 4550 3584 
Q 5097 3584 5394 3201 
Q 5691 2819 5691 2113 
L 5691 0 
L 5113 0 
L 5113 2094 
Q 5113 2597 4934 2840 
Q 4756 3084 4391 3084 
Q 3944 3084 3684 2787 
Q 3425 2491 3425 1978 
L 3425 0 
L 2847 0 
L 2847 2094 
Q 2847 2600 2669 2842 
Q 2491 3084 2119 3084 
Q 1678 3084 1418 2786 
Q 1159 2488 1159 1978 
L 1159 0 
L 581 0 
L 581 3500 
L 1159 3500 
L 1159 2956 
Q 1356 3278 1631 3431 
Q 1906 3584 2284 3584 
Q 2666 3584 2933 3390 
Q 3200 3197 3328 2828 
z
" transform="scale(0.015625)"/>
       <path id="DejaVuSans-65" d="M 3597 1894 
L 3597 1613 
L 953 1613 
Q 991 1019 1311 708 
Q 1631 397 2203 397 
Q 2534 397 2845 478 
Q 3156 559 3463 722 
L 3463 178 
Q 3153 47 2828 -22 
Q 2503 -91 2169 -91 
Q 1331 -91 842 396 
Q 353 884 353 1716 
Q 353 2575 817 3079 
Q 1281 3584 2069 3584 
Q 2775 3584 3186 3129 
Q 3597 2675 3597 1894 
z
M 3022 2063 
Q 3016 2534 2758 2815 
Q 2500 3097 2075 3097 
Q 1594 3097 1305 2825 
Q 1016 2553 972 2059 
L 3022 2063 
z
" transform="scale(0.015625)"/>
       <path id="DejaVuSans-20" transform="scale(0.015625)"/>
       <path id="DejaVuSans-5b" d="M 550 4863 
L 1875 4863 
L 1875 4416 
L 1125 4416 
L 1125 -397 
L 1875 -397 
L 1875 -844 
L 550 -844 
L 550 4863 
z
" transform="scale(0.015625)"/>
       <path id="DejaVuSans-73" d="M 2834 3397 
L 2834 2853 
Q 2591 2978 2328 3040 
Q 2066 3103 1784 3103 
Q 1356 3103 1142 2972 
Q 928 2841 928 2578 
Q 928 2378 1081 2264 
Q 1234 2150 1697 2047 
L 1894 2003 
Q 2506 1872 2764 1633 
Q 3022 1394 3022 966 
Q 3022 478 2636 193 
Q 2250 -91 1575 -91 
Q 1294 -91 989 -36 
Q 684 19 347 128 
L 347 722 
Q 666 556 975 473 
Q 1284 391 1588 391 
Q 1994 391 2212 530 
Q 2431 669 2431 922 
Q 2431 1156 2273 1281 
Q 2116 1406 1581 1522 
L 1381 1569 
Q 847 1681 609 1914 
Q 372 2147 372 2553 
Q 372 3047 722 3315 
Q 1072 3584 1716 3584 
Q 2034 3584 2315 3537 
Q 2597 3491 2834 3397 
z
" transform="scale(0.015625)"/>
       <path id="DejaVuSans-5d" d="M 1947 4863 
L 1947 -844 
L 622 -844 
L 622 -397 
L 1369 -397 
L 1369 4416 
L 622 4416 
L 622 4863 
L 1947 4863 
z
" transform="scale(0.015625)"/>
      </defs>
      <use xlink:href="#DejaVuSans-54"/>
      <use xlink:href="#DejaVuSans-69" transform="translate(57.958984 0)"/>
      <use xlink:href="#DejaVuSans-6d" transform="translate(85.742188 0)"/>
      <use xlink:href="#DejaVuSans-65" transform="translate(183.154297 0)"/>
      <use xlink:href="#DejaVuSans-20" transform="translate(244.677734 0)"/>
      <use xlink:href="#DejaVuSans-5b" transform="translate(276.464844 0)"/>
      <use xlink:href="#DejaVuSans-73" transform="translate(315.478516 0)"/>
      <use xlink:href="#DejaVuSans-5d" transform="translate(367.578125 0)"/>
     </g>
    </g>
   </g>
   <g id="matplotlib.axis_2">
    <g id="ytick_1">
     <g id="line2d_6">
      <defs>
       <path id="m21f5082323" d="M 0 0 
L -3.5 0 
" style="stroke: #000000; stroke-width: 0.8"/>
      </defs>
      <g>
       <use xlink:href="#m21f5082323" x="77.283125" y="230.571562" style="stroke: #000000; stroke-width: 0.8"/>
      </g>
     </g>
     <g id="text_7">
      <!-- 0.000 -->
      <g transform="translate(24.478125 236.650312) scale(0.16 -0.16)">
       <defs>
        <path id="DejaVuSans-2e" d="M 684 794 
L 1344 794 
L 1344 0 
L 684 0 
L 684 794 
z
" transform="scale(0.015625)"/>
       </defs>
       <use xlink:href="#DejaVuSans-30"/>
       <use xlink:href="#DejaVuSans-2e" transform="translate(63.623047 0)"/>
       <use xlink:href="#DejaVuSans-30" transform="translate(95.410156 0)"/>
       <use xlink:href="#DejaVuSans-30" transform="translate(159.033203 0)"/>
       <use xlink:href="#DejaVuSans-30" transform="translate(222.65625 0)"/>
      </g>
     </g>
    </g>
    <g id="ytick_2">
     <g id="line2d_7">
      <g>
       <use xlink:href="#m21f5082323" x="77.283125" y="170.988941" style="stroke: #000000; stroke-width: 0.8"/>
      </g>
     </g>
     <g id="text_8">
      <!-- 0.005 -->
      <g transform="translate(24.478125 177.067691) scale(0.16 -0.16)">
       <use xlink:href="#DejaVuSans-30"/>
       <use xlink:href="#DejaVuSans-2e" transform="translate(63.623047 0)"/>
       <use xlink:href="#DejaVuSans-30" transform="translate(95.410156 0)"/>
       <use xlink:href="#DejaVuSans-30" transform="translate(159.033203 0)"/>
       <use xlink:href="#DejaVuSans-35" transform="translate(222.65625 0)"/>
      </g>
     </g>
    </g>
    <g id="ytick_3">
     <g id="line2d_8">
      <g>
       <use xlink:href="#m21f5082323" x="77.283125" y="111.406319" style="stroke: #000000; stroke-width: 0.8"/>
      </g>
     </g>
     <g id="text_9">
      <!-- 0.010 -->
      <g transform="translate(24.478125 117.485069) scale(0.16 -0.16)">
       <use xlink:href="#DejaVuSans-30"/>
       <use xlink:href="#DejaVuSans-2e" transform="translate(63.623047 0)"/>
       <use xlink:href="#DejaVuSans-30" transform="translate(95.410156 0)"/>
       <use xlink:href="#DejaVuSans-31" transform="translate(159.033203 0)"/>
       <use xlink:href="#DejaVuSans-30" transform="translate(222.65625 0)"/>
      </g>
     </g>
    </g>
    <g id="ytick_4">
     <g id="line2d_9">
      <g>
       <use xlink:href="#m21f5082323" x="77.283125" y="51.823697" style="stroke: #000000; stroke-width: 0.8"/>
      </g>
     </g>
     <g id="text_10">
      <!-- 0.015 -->
      <g transform="translate(24.478125 57.902447) scale(0.16 -0.16)">
       <use xlink:href="#DejaVuSans-30"/>
       <use xlink:href="#DejaVuSans-2e" transform="translate(63.623047 0)"/>
       <use xlink:href="#DejaVuSans-30" transform="translate(95.410156 0)"/>
       <use xlink:href="#DejaVuSans-31" transform="translate(159.033203 0)"/>
       <use xlink:href="#DejaVuSans-35" transform="translate(222.65625 0)"/>
      </g>
     </g>
    </g>
    <g id="text_11">
     <!-- Instrument's signal -->
     <g transform="translate(18.398438 173.784844) rotate(-90) scale(0.1 -0.1)">
      <defs>
       <path id="DejaVuSans-49" d="M 628 4666 
L 1259 4666 
L 1259 0 
L 628 0 
L 628 4666 
z
" transform="scale(0.015625)"/>
       <path id="DejaVuSans-6e" d="M 3513 2113 
L 3513 0 
L 2938 0 
L 2938 2094 
Q 2938 2591 2744 2837 
Q 2550 3084 2163 3084 
Q 1697 3084 1428 2787 
Q 1159 2491 1159 1978 
L 1159 0 
L 581 0 
L 581 3500 
L 1159 3500 
L 1159 2956 
Q 1366 3272 1645 3428 
Q 1925 3584 2291 3584 
Q 2894 3584 3203 3211 
Q 3513 2838 3513 2113 
z
" transform="scale(0.015625)"/>
       <path id="DejaVuSans-74" d="M 1172 4494 
L 1172 3500 
L 2356 3500 
L 2356 3053 
L 1172 3053 
L 1172 1153 
Q 1172 725 1289 603 
Q 1406 481 1766 481 
L 2356 481 
L 2356 0 
L 1766 0 
Q 1100 0 847 248 
Q 594 497 594 1153 
L 594 3053 
L 172 3053 
L 172 3500 
L 594 3500 
L 594 4494 
L 1172 4494 
z
" transform="scale(0.015625)"/>
       <path id="DejaVuSans-72" d="M 2631 2963 
Q 2534 3019 2420 3045 
Q 2306 3072 2169 3072 
Q 1681 3072 1420 2755 
Q 1159 2438 1159 1844 
L 1159 0 
L 581 0 
L 581 3500 
L 1159 3500 
L 1159 2956 
Q 1341 3275 1631 3429 
Q 1922 3584 2338 3584 
Q 2397 3584 2469 3576 
Q 2541 3569 2628 3553 
L 2631 2963 
z
" transform="scale(0.015625)"/>
       <path id="DejaVuSans-75" d="M 544 1381 
L 544 3500 
L 1119 3500 
L 1119 1403 
Q 1119 906 1312 657 
Q 1506 409 1894 409 
Q 2359 409 2629 706 
Q 2900 1003 2900 1516 
L 2900 3500 
L 3475 3500 
L 3475 0 
L 2900 0 
L 2900 538 
Q 2691 219 2414 64 
Q 2138 -91 1772 -91 
Q 1169 -91 856 284 
Q 544 659 544 1381 
z
M 1991 3584 
L 1991 3584 
z
" transform="scale(0.015625)"/>
       <path id="DejaVuSans-27" d="M 1147 4666 
L 1147 2931 
L 616 2931 
L 616 4666 
L 1147 4666 
z
" transform="scale(0.015625)"/>
       <path id="DejaVuSans-67" d="M 2906 1791 
Q 2906 2416 2648 2759 
Q 2391 3103 1925 3103 
Q 1463 3103 1205 2759 
Q 947 2416 947 1791 
Q 947 1169 1205 825 
Q 1463 481 1925 481 
Q 2391 481 2648 825 
Q 2906 1169 2906 1791 
z
M 3481 434 
Q 3481 -459 3084 -895 
Q 2688 -1331 1869 -1331 
Q 1566 -1331 1297 -1286 
Q 1028 -1241 775 -1147 
L 775 -588 
Q 1028 -725 1275 -790 
Q 1522 -856 1778 -856 
Q 2344 -856 2625 -561 
Q 2906 -266 2906 331 
L 2906 616 
Q 2728 306 2450 153 
Q 2172 0 1784 0 
Q 1141 0 747 490 
Q 353 981 353 1791 
Q 353 2603 747 3093 
Q 1141 3584 1784 3584 
Q 2172 3584 2450 3431 
Q 2728 3278 2906 2969 
L 2906 3500 
L 3481 3500 
L 3481 434 
z
" transform="scale(0.015625)"/>
       <path id="DejaVuSans-61" d="M 2194 1759 
Q 1497 1759 1228 1600 
Q 959 1441 959 1056 
Q 959 750 1161 570 
Q 1363 391 1709 391 
Q 2188 391 2477 730 
Q 2766 1069 2766 1631 
L 2766 1759 
L 2194 1759 
z
M 3341 1997 
L 3341 0 
L 2766 0 
L 2766 531 
Q 2569 213 2275 61 
Q 1981 -91 1556 -91 
Q 1019 -91 701 211 
Q 384 513 384 1019 
Q 384 1609 779 1909 
Q 1175 2209 1959 2209 
L 2766 2209 
L 2766 2266 
Q 2766 2663 2505 2880 
Q 2244 3097 1772 3097 
Q 1472 3097 1187 3025 
Q 903 2953 641 2809 
L 641 3341 
Q 956 3463 1253 3523 
Q 1550 3584 1831 3584 
Q 2591 3584 2966 3190 
Q 3341 2797 3341 1997 
z
" transform="scale(0.015625)"/>
       <path id="DejaVuSans-6c" d="M 603 4863 
L 1178 4863 
L 1178 0 
L 603 0 
L 603 4863 
z
" transform="scale(0.015625)"/>
      </defs>
      <use xlink:href="#DejaVuSans-49"/>
      <use xlink:href="#DejaVuSans-6e" transform="translate(29.492188 0)"/>
      <use xlink:href="#DejaVuSans-73" transform="translate(92.871094 0)"/>
      <use xlink:href="#DejaVuSans-74" transform="translate(144.970703 0)"/>
      <use xlink:href="#DejaVuSans-72" transform="translate(184.179688 0)"/>
      <use xlink:href="#DejaVuSans-75" transform="translate(225.292969 0)"/>
      <use xlink:href="#DejaVuSans-6d" transform="translate(288.671875 0)"/>
      <use xlink:href="#DejaVuSans-65" transform="translate(386.083984 0)"/>
      <use xlink:href="#DejaVuSans-6e" transform="translate(447.607422 0)"/>
      <use xlink:href="#DejaVuSans-74" transform="translate(510.986328 0)"/>
      <use xlink:href="#DejaVuSans-27" transform="translate(550.195312 0)"/>
      <use xlink:href="#DejaVuSans-73" transform="translate(577.685547 0)"/>
      <use xlink:href="#DejaVuSans-20" transform="translate(629.785156 0)"/>
      <use xlink:href="#DejaVuSans-73" transform="translate(661.572266 0)"/>
      <use xlink:href="#DejaVuSans-69" transform="translate(713.671875 0)"/>
      <use xlink:href="#DejaVuSans-67" transform="translate(741.455078 0)"/>
      <use xlink:href="#DejaVuSans-6e" transform="translate(804.931641 0)"/>
      <use xlink:href="#DejaVuSans-61" transform="translate(868.310547 0)"/>
      <use xlink:href="#DejaVuSans-6c" transform="translate(929.589844 0)"/>
     </g>
    </g>
   </g>
   <g id="line2d_10">
    <path d="M 91.834987 230.571562 
L 95.472953 230.568791 
L 99.110918 230.566521 
L 102.748884 230.565196 
L 106.386849 230.565063 
L 110.024815 227.702343 
L 113.66278 166.302493 
L 117.300746 92.699478 
L 120.938711 37.962019 
L 124.576677 21.265313 
L 128.214642 43.795686 
L 131.852608 101.325056 
L 135.490573 187.424925 
L 139.128539 223.774274 
L 142.766504 230.571562 
L 146.40447 230.569872 
L 150.042435 230.567336 
L 153.680401 230.565592 
L 157.318366 230.564966 
L 160.956332 230.565577 
L 164.594298 195.472559 
L 168.232263 230.569749 
L 171.870229 209.581137 
L 175.508194 206.1306 
L 179.14616 209.11017 
L 182.784125 214.142021 
L 186.422091 219.512052 
L 190.060056 224.402523 
L 193.698022 228.401313 
L 197.335987 230.571562 
L 200.973953 230.565764 
L 204.611918 230.561366 
L 208.249884 230.558396 
L 211.887849 230.557661 
L 215.525815 230.559654 
L 219.16378 230.564422 
L 222.801746 230.571562 
L 226.439711 229.770471 
L 230.077677 229.306633 
L 233.715642 229.15016 
L 237.353608 229.268997 
L 240.991573 229.594 
L 244.629539 230.035494 
L 248.267505 230.571562 
L 251.90547 230.558017 
L 255.543436 230.539411 
L 259.181401 230.522433 
L 262.819367 230.511135 
L 266.457332 230.509866 
L 270.095298 230.522724 
L 273.733263 230.552949 
L 277.371229 230.416938 
L 281.009194 230.221737 
L 284.64716 230.111109 
L 288.285125 230.094821 
L 291.923091 230.165339 
L 295.561056 230.300977 
L 299.199022 230.47107 
L 302.836987 230.571562 
L 306.474953 227.398839 
L 310.112918 196.790329 
L 313.750884 170.809197 
L 317.388849 156.411702 
L 321.026815 155.910629 
L 324.66478 169.3999 
L 328.302746 195.198229 
L 331.940712 223.393568 
L 335.578677 230.285171 
L 339.216643 230.22902 
L 342.854608 230.237057 
L 346.492574 230.307775 
L 350.130539 230.427922 
L 353.768505 230.571562 
L 357.40647 229.05638 
L 361.044436 211.429775 
L 364.682401 179.933096 
L 368.320367 160.598946 
L 371.958332 154.376579 
L 375.596298 162.432005 
L 379.234263 183.496206 
L 382.872229 213.180622 
" clip-path="url(#p323ea52ba5)" style="fill: none; stroke: #2b737e; stroke-opacity: 0.7; stroke-width: 2; stroke-linecap: square"/>
   </g>
   <g id="line2d_11">
    <path d="M 91.834987 79.414577 
L 95.472953 31.525288 
L 99.110918 22.663826 
L 102.748884 52.760987 
L 106.386849 116.1771 
L 110.024815 196.040803 
L 113.66278 225.256628 
L 117.300746 230.571562 
L 120.938711 230.569323 
L 124.576677 230.566911 
L 128.214642 230.56537 
L 131.852608 230.56499 
L 135.490573 230.565841 
L 139.128539 183.120699 
L 142.766504 105.690897 
L 146.40447 45.906458 
L 150.042435 21.45962 
L 153.680401 36.251069 
L 157.318366 87.455143 
L 160.956332 172.201097 
L 164.594298 222.476957 
L 168.232263 228.969536 
L 171.870229 230.571562 
L 175.508194 230.567164 
L 179.14616 230.564533 
L 182.784125 230.563 
L 186.422091 230.562995 
L 190.060056 230.564708 
L 193.698022 230.568018 
L 197.335987 230.571562 
L 200.973953 227.985721 
L 204.611918 227.15058 
L 208.249884 227.132169 
L 211.887849 227.703127 
L 215.525815 228.62088 
L 219.16378 229.656879 
L 222.801746 230.571562 
L 226.439711 230.563304 
L 230.077677 230.555122 
L 233.715642 230.548777 
L 237.353608 230.545926 
L 240.991573 230.5479 
L 244.629539 230.555395 
L 248.267505 230.571562 
L 251.90547 230.237277 
L 255.543436 229.950412 
L 259.181401 229.813867 
L 262.819367 229.829769 
L 266.457332 229.974579 
L 270.095298 230.206318 
L 273.733263 230.571562 
L 277.371229 230.540874 
L 281.009194 230.473033 
L 284.64716 230.39034 
L 288.285125 230.30111 
L 291.923091 230.221746 
L 295.561056 230.186654 
L 299.199022 230.283934 
L 302.836987 230.500999 
L 306.474953 230.359286 
L 310.112918 230.269149 
L 313.750884 230.225363 
L 317.388849 230.246449 
L 321.026815 230.328457 
L 324.66478 230.456019 
L 328.302746 230.571562 
L 331.940712 227.238255 
L 335.578677 204.49262 
L 339.216643 175.160033 
L 342.854608 158.229932 
L 346.492574 154.85555 
L 350.130539 165.669155 
L 353.768505 189.202838 
L 357.40647 218.559029 
L 361.044436 230.303374 
L 364.682401 230.235285 
L 368.320367 230.230209 
L 371.958332 230.289097 
L 375.596298 230.400915 
L 379.234263 230.571562 
L 382.872229 229.913622 
" clip-path="url(#p323ea52ba5)" style="fill: none; stroke: #5ea04b; stroke-opacity: 0.7; stroke-width: 2; stroke-linecap: square"/>
   </g>
   <g id="line2d_12">
    <path d="M 91.834987 87.454511 
L 95.472953 172.20056 
L 99.110918 222.47687 
L 102.748884 230.571562 
L 106.386849 230.571562 
L 110.024815 230.567794 
L 113.66278 230.565859 
L 117.300746 230.564993 
L 120.938711 230.565358 
L 124.576677 208.163436 
L 128.214642 138.209076 
L 131.852608 66.310549 
L 135.490573 26.60896 
L 139.128539 25.64497 
L 142.766504 63.080965 
L 146.40447 135.316044 
L 150.042435 207.203742 
L 153.680401 227.01954 
L 157.318366 230.571562 
L 160.956332 230.568791 
L 164.594298 230.566521 
L 168.232263 230.564867 
L 171.870229 230.564366 
L 175.508194 230.565242 
L 179.14616 230.567476 
L 182.784125 230.571562 
L 186.422091 225.778893 
L 190.060056 223.724355 
L 193.698022 223.629976 
L 197.335987 224.734651 
L 200.973953 226.456449 
L 204.611918 228.346613 
L 208.249884 230.571562 
L 211.887849 230.567897 
L 215.525815 230.561654 
L 219.16378 230.556421 
L 222.801746 230.553415 
L 226.439711 230.553634 
L 230.077677 230.55763 
L 233.715642 230.565332 
L 237.353608 230.315813 
L 240.991573 229.859827 
L 244.629539 229.604043 
L 248.267505 229.55844 
L 251.90547 229.697477 
L 255.543436 229.969473 
L 259.181401 230.308584 
L 262.819367 230.571562 
L 266.457332 230.536669 
L 270.095298 230.503231 
L 273.733263 230.472186 
L 277.371229 230.451384 
L 281.009194 230.450937 
L 284.64716 230.483713 
L 288.285125 230.571562 
L 291.923091 230.376555 
L 295.561056 230.241844 
L 299.199022 230.179909 
L 302.836987 230.19427 
L 306.474953 230.274823 
L 310.112918 230.400913 
L 313.750884 230.571562 
L 317.388849 229.913648 
L 321.026815 217.099111 
L 324.66478 185.091826 
L 328.302746 163.500636 
L 331.940712 154.477521 
L 335.578677 159.713426 
L 339.216643 178.264128 
L 342.854608 207.400969 
L 346.492574 230.00488 
L 350.130539 230.255425 
L 353.768505 230.224339 
L 357.40647 230.258318 
L 361.044436 230.350994 
L 364.682401 230.485 
L 368.320367 230.571562 
L 371.958332 224.695926 
L 375.596298 196.78976 
L 379.234263 170.808743 
L 382.872229 156.411533 
" clip-path="url(#p323ea52ba5)" style="fill: none; stroke: #bdab62; stroke-opacity: 0.7; stroke-width: 2; stroke-linecap: square"/>
   </g>
   <g id="patch_3">
    <path d="M 77.283125 241.036875 
L 77.283125 10.8 
" style="fill: none; stroke: #000000; stroke-width: 0.8; stroke-linejoin: miter; stroke-linecap: square"/>
   </g>
   <g id="patch_4">
    <path d="M 397.424091 241.036875 
L 397.424091 10.8 
" style="fill: none; stroke: #000000; stroke-width: 0.8; stroke-linejoin: miter; stroke-linecap: square"/>
   </g>
   <g id="patch_5">
    <path d="M 77.283125 241.036875 
L 397.424091 241.036875 
" style="fill: none; stroke: #000000; stroke-width: 0.8; stroke-linejoin: miter; stroke-linecap: square"/>
   </g>
   <g id="patch_6">
    <path d="M 77.283125 10.8 
L 397.424091 10.8 
" style="fill: none; stroke: #000000; stroke-width: 0.8; stroke-linejoin: miter; stroke-linecap: square"/>
   </g>
   <g id="legend_1">
    <g id="patch_7">
     <path d="M 205.178608 57.630938 
L 269.528608 57.630938 
Q 271.328608 57.630938 271.328608 55.830938 
L 271.328608 17.1 
Q 271.328608 15.3 269.528608 15.3 
L 205.178608 15.3 
Q 203.378608 15.3 203.378608 17.1 
L 203.378608 55.830938 
Q 203.378608 57.630938 205.178608 57.630938 
z
" style="fill: #ffffff; opacity: 0.8; stroke: #cccccc; stroke-linejoin: miter"/>
    </g>
    <g id="line2d_13">
     <path d="M 206.978608 22.588594 
L 215.978608 22.588594 
L 224.978608 22.588594 
" style="fill: none; stroke: #2b737e; stroke-opacity: 0.7; stroke-width: 2; stroke-linecap: square"/>
    </g>
    <g id="text_12">
     <!-- Albedo$_{0}$ -->
     <g transform="translate(232.178608 25.738594) scale(0.09 -0.09)">
      <defs>
       <path id="DejaVuSans-41" d="M 2188 4044 
L 1331 1722 
L 3047 1722 
L 2188 4044 
z
M 1831 4666 
L 2547 4666 
L 4325 0 
L 3669 0 
L 3244 1197 
L 1141 1197 
L 716 0 
L 50 0 
L 1831 4666 
z
" transform="scale(0.015625)"/>
       <path id="DejaVuSans-62" d="M 3116 1747 
Q 3116 2381 2855 2742 
Q 2594 3103 2138 3103 
Q 1681 3103 1420 2742 
Q 1159 2381 1159 1747 
Q 1159 1113 1420 752 
Q 1681 391 2138 391 
Q 2594 391 2855 752 
Q 3116 1113 3116 1747 
z
M 1159 2969 
Q 1341 3281 1617 3432 
Q 1894 3584 2278 3584 
Q 2916 3584 3314 3078 
Q 3713 2572 3713 1747 
Q 3713 922 3314 415 
Q 2916 -91 2278 -91 
Q 1894 -91 1617 61 
Q 1341 213 1159 525 
L 1159 0 
L 581 0 
L 581 4863 
L 1159 4863 
L 1159 2969 
z
" transform="scale(0.015625)"/>
       <path id="DejaVuSans-64" d="M 2906 2969 
L 2906 4863 
L 3481 4863 
L 3481 0 
L 2906 0 
L 2906 525 
Q 2725 213 2448 61 
Q 2172 -91 1784 -91 
Q 1150 -91 751 415 
Q 353 922 353 1747 
Q 353 2572 751 3078 
Q 1150 3584 1784 3584 
Q 2172 3584 2448 3432 
Q 2725 3281 2906 2969 
z
M 947 1747 
Q 947 1113 1208 752 
Q 1469 391 1925 391 
Q 2381 391 2643 752 
Q 2906 1113 2906 1747 
Q 2906 2381 2643 2742 
Q 2381 3103 1925 3103 
Q 1469 3103 1208 2742 
Q 947 2381 947 1747 
z
" transform="scale(0.015625)"/>
       <path id="DejaVuSans-6f" d="M 1959 3097 
Q 1497 3097 1228 2736 
Q 959 2375 959 1747 
Q 959 1119 1226 758 
Q 1494 397 1959 397 
Q 2419 397 2687 759 
Q 2956 1122 2956 1747 
Q 2956 2369 2687 2733 
Q 2419 3097 1959 3097 
z
M 1959 3584 
Q 2709 3584 3137 3096 
Q 3566 2609 3566 1747 
Q 3566 888 3137 398 
Q 2709 -91 1959 -91 
Q 1206 -91 779 398 
Q 353 888 353 1747 
Q 353 2609 779 3096 
Q 1206 3584 1959 3584 
z
" transform="scale(0.015625)"/>
      </defs>
      <use xlink:href="#DejaVuSans-41" transform="translate(0 0.015625)"/>
      <use xlink:href="#DejaVuSans-6c" transform="translate(68.408203 0.015625)"/>
      <use xlink:href="#DejaVuSans-62" transform="translate(96.191406 0.015625)"/>
      <use xlink:href="#DejaVuSans-65" transform="translate(159.667969 0.015625)"/>
      <use xlink:href="#DejaVuSans-64" transform="translate(221.191406 0.015625)"/>
      <use xlink:href="#DejaVuSans-6f" transform="translate(284.667969 0.015625)"/>
      <use xlink:href="#DejaVuSans-30" transform="translate(346.806641 -16.390625) scale(0.7)"/>
     </g>
    </g>
    <g id="line2d_14">
     <path d="M 206.978608 35.798906 
L 215.978608 35.798906 
L 224.978608 35.798906 
" style="fill: none; stroke: #5ea04b; stroke-opacity: 0.7; stroke-width: 2; stroke-linecap: square"/>
    </g>
    <g id="text_13">
     <!-- Albedo$_{1}$ -->
     <g transform="translate(232.178608 38.948906) scale(0.09 -0.09)">
      <use xlink:href="#DejaVuSans-41" transform="translate(0 0.015625)"/>
      <use xlink:href="#DejaVuSans-6c" transform="translate(68.408203 0.015625)"/>
      <use xlink:href="#DejaVuSans-62" transform="translate(96.191406 0.015625)"/>
      <use xlink:href="#DejaVuSans-65" transform="translate(159.667969 0.015625)"/>
      <use xlink:href="#DejaVuSans-64" transform="translate(221.191406 0.015625)"/>
      <use xlink:href="#DejaVuSans-6f" transform="translate(284.667969 0.015625)"/>
      <use xlink:href="#DejaVuSans-31" transform="translate(346.806641 -16.390625) scale(0.7)"/>
     </g>
    </g>
    <g id="line2d_15">
     <path d="M 206.978608 49.009219 
L 215.978608 49.009219 
L 224.978608 49.009219 
" style="fill: none; stroke: #bdab62; stroke-opacity: 0.7; stroke-width: 2; stroke-linecap: square"/>
    </g>
    <g id="text_14">
     <!-- Albedo$_{2}$ -->
     <g transform="translate(232.178608 52.159219) scale(0.09 -0.09)">
      <use xlink:href="#DejaVuSans-41" transform="translate(0 0.015625)"/>
      <use xlink:href="#DejaVuSans-6c" transform="translate(68.408203 0.015625)"/>
      <use xlink:href="#DejaVuSans-62" transform="translate(96.191406 0.015625)"/>
      <use xlink:href="#DejaVuSans-65" transform="translate(159.667969 0.015625)"/>
      <use xlink:href="#DejaVuSans-64" transform="translate(221.191406 0.015625)"/>
      <use xlink:href="#DejaVuSans-6f" transform="translate(284.667969 0.015625)"/>
      <use xlink:href="#DejaVuSans-32" transform="translate(346.806641 -16.390625) scale(0.7)"/>
     </g>
    </g>
   </g>
  </g>
 </g>
 <defs>
  <clipPath id="p323ea52ba5">
   <rect x="77.283125" y="10.8" width="320.140966" height="230.236875"/>
  </clipPath>
 </defs>
</svg>
