<?xml version="1.0" encoding="utf-8" standalone="no"?>
<!DOCTYPE svg PUBLIC "-//W3C//DTD SVG 1.1//EN"
  "http://www.w3.org/Graphics/SVG/1.1/DTD/svg11.dtd">
<svg xmlns:xlink="http://www.w3.org/1999/xlink" width="414pt" height="180pt" viewBox="0 0 414 180" xmlns="http://www.w3.org/2000/svg" version="1.1">
 <metadata>
  <rdf:RDF xmlns:dc="http://purl.org/dc/elements/1.1/" xmlns:cc="http://creativecommons.org/ns#" xmlns:rdf="http://www.w3.org/1999/02/22-rdf-syntax-ns#">
   <cc:Work>
    <dc:type rdf:resource="http://purl.org/dc/dcmitype/StillImage"/>
    <dc:date>2026-04-03T00:27:18.187331</dc:date>
    <dc:format>image/svg+xml</dc:format>
    <dc:creator>
     <cc:Agent>
      <dc:title>Matplotlib v3.10.7, https://matplotlib.org/</dc:title>
     </cc:Agent>
    </dc:creator>
   </cc:Work>
  </rdf:RDF>
 </metadata>
 <defs>
  <style type="text/css">*{stroke-linejoin: round; stroke-linecap: butt}</style>
 </defs>
 <g id="figure_1">
  <g id="patch_1">
   <path d="M 0 180 
L 414 180 
L 414 0 
L 0 0 
L 0 180 
z
" style="fill: none"/>
  </g>
  <g id="axes_1">
   <g id="patch_2">
    <path d="M 53.554531 139.811563 
L 403.2 139.811563 
L 403.2 10.8 
L 53.554531 10.8 
L 53.554531 139.811563 
z
" style="fill: none"/>
   </g>
   <g id="matplotlib.axis_1">
    <g id="xtick_1">
     <g id="line2d_1">
      <defs>
       <path id="m47f46070c2" d="M 0 0 
L 0 3.5 
" style="stroke: #000000; stroke-width: 0.8"/>
      </defs>
      <g>
       <use xlink:href="#m47f46070c2" x="69.447507" y="139.811563" style="stroke: #000000; stroke-width: 0.8"/>
      </g>
     </g>
     <g id="text_1">
      <!-- 0 -->
      <g transform="translate(66.584382 153.650156) scale(0.09 -0.09)">
       <defs>
        <path id="DejaVuSans-30" d="M 2034 4250 
Q 1547 4250 1301 3770 
Q 1056 3291 1056 2328 
Q 1056 1369 1301 889 
Q 1547 409 2034 409 
Q 2525 409 2770 889 
Q 3016 1369 3016 2328 
Q 3016 3291 2770 3770 
Q 2525 4250 2034 4250 
z
M 2034 4750 
Q 2819 4750 3233 4129 
Q 3647 3509 3647 2328 
Q 3647 1150 3233 529 
Q 2819 -91 2034 -91 
Q 1250 -91 836 529 
Q 422 1150 422 2328 
Q 422 3509 836 4129 
Q 1250 4750 2034 4750 
z
" transform="scale(0.015625)"/>
       </defs>
       <use xlink:href="#DejaVuSans-30"/>
      </g>
     </g>
    </g>
    <g id="xtick_2">
     <g id="line2d_2">
      <g>
       <use xlink:href="#m47f46070c2" x="133.253365" y="139.811563" style="stroke: #000000; stroke-width: 0.8"/>
      </g>
     </g>
     <g id="text_2">
      <!-- 2 -->
      <g transform="translate(130.39024 153.650156) scale(0.09 -0.09)">
       <defs>
        <path id="DejaVuSans-32" d="M 1228 531 
L 3431 531 
L 3431 0 
L 469 0 
L 469 531 
Q 828 903 1448 1529 
Q 2069 2156 2228 2338 
Q 2531 2678 2651 2914 
Q 2772 3150 2772 3378 
Q 2772 3750 2511 3984 
Q 2250 4219 1831 4219 
Q 1534 4219 1204 4116 
Q 875 4013 500 3803 
L 500 4441 
Q 881 4594 1212 4672 
Q 1544 4750 1819 4750 
Q 2544 4750 2975 4387 
Q 3406 4025 3406 3419 
Q 3406 3131 3298 2873 
Q 3191 2616 2906 2266 
Q 2828 2175 2409 1742 
Q 1991 1309 1228 531 
z
" transform="scale(0.015625)"/>
       </defs>
       <use xlink:href="#DejaVuSans-32"/>
      </g>
     </g>
    </g>
    <g id="xtick_3">
     <g id="line2d_3">
      <g>
       <use xlink:href="#m47f46070c2" x="197.059224" y="139.811563" style="stroke: #000000; stroke-width: 0.8"/>
      </g>
     </g>
     <g id="text_3">
      <!-- 4 -->
      <g transform="translate(194.196099 153.650156) scale(0.09 -0.09)">
       <defs>
        <path id="DejaVuSans-34" d="M 2419 4116 
L 825 1625 
L 2419 1625 
L 2419 4116 
z
M 2253 4666 
L 3047 4666 
L 3047 1625 
L 3713 1625 
L 3713 1100 
L 3047 1100 
L 3047 0 
L 2419 0 
L 2419 1100 
L 313 1100 
L 313 1709 
L 2253 4666 
z
" transform="scale(0.015625)"/>
       </defs>
       <use xlink:href="#DejaVuSans-34"/>
      </g>
     </g>
    </g>
    <g id="xtick_4">
     <g id="line2d_4">
      <g>
       <use xlink:href="#m47f46070c2" x="260.865082" y="139.811563" style="stroke: #000000; stroke-width: 0.8"/>
      </g>
     </g>
     <g id="text_4">
      <!-- 6 -->
      <g transform="translate(258.001957 153.650156) scale(0.09 -0.09)">
       <defs>
        <path id="DejaVuSans-36" d="M 2113 2584 
Q 1688 2584 1439 2293 
Q 1191 2003 1191 1497 
Q 1191 994 1439 701 
Q 1688 409 2113 409 
Q 2538 409 2786 701 
Q 3034 994 3034 1497 
Q 3034 2003 2786 2293 
Q 2538 2584 2113 2584 
z
M 3366 4563 
L 3366 3988 
Q 3128 4100 2886 4159 
Q 2644 4219 2406 4219 
Q 1781 4219 1451 3797 
Q 1122 3375 1075 2522 
Q 1259 2794 1537 2939 
Q 1816 3084 2150 3084 
Q 2853 3084 3261 2657 
Q 3669 2231 3669 1497 
Q 3669 778 3244 343 
Q 2819 -91 2113 -91 
Q 1303 -91 875 529 
Q 447 1150 447 2328 
Q 447 3434 972 4092 
Q 1497 4750 2381 4750 
Q 2619 4750 2861 4703 
Q 3103 4656 3366 4563 
z
" transform="scale(0.015625)"/>
       </defs>
       <use xlink:href="#DejaVuSans-36"/>
      </g>
     </g>
    </g>
    <g id="xtick_5">
     <g id="line2d_5">
      <g>
       <use xlink:href="#m47f46070c2" x="324.67094" y="139.811563" style="stroke: #000000; stroke-width: 0.8"/>
      </g>
     </g>
     <g id="text_5">
      <!-- 8 -->
      <g transform="translate(321.807815 153.650156) scale(0.09 -0.09)">
       <defs>
        <path id="DejaVuSans-38" d="M 2034 2216 
Q 1584 2216 1326 1975 
Q 1069 1734 1069 1313 
Q 1069 891 1326 650 
Q 1584 409 2034 409 
Q 2484 409 2743 651 
Q 3003 894 3003 1313 
Q 3003 1734 2745 1975 
Q 2488 2216 2034 2216 
z
M 1403 2484 
Q 997 2584 770 2862 
Q 544 3141 544 3541 
Q 544 4100 942 4425 
Q 1341 4750 2034 4750 
Q 2731 4750 3128 4425 
Q 3525 4100 3525 3541 
Q 3525 3141 3298 2862 
Q 3072 2584 2669 2484 
Q 3125 2378 3379 2068 
Q 3634 1759 3634 1313 
Q 3634 634 3220 271 
Q 2806 -91 2034 -91 
Q 1263 -91 848 271 
Q 434 634 434 1313 
Q 434 1759 690 2068 
Q 947 2378 1403 2484 
z
M 1172 3481 
Q 1172 3119 1398 2916 
Q 1625 2713 2034 2713 
Q 2441 2713 2670 2916 
Q 2900 3119 2900 3481 
Q 2900 3844 2670 4047 
Q 2441 4250 2034 4250 
Q 1625 4250 1398 4047 
Q 1172 3844 1172 3481 
z
" transform="scale(0.015625)"/>
       </defs>
       <use xlink:href="#DejaVuSans-38"/>
      </g>
     </g>
    </g>
    <g id="xtick_6">
     <g id="line2d_6">
      <g>
       <use xlink:href="#m47f46070c2" x="388.476798" y="139.811563" style="stroke: #000000; stroke-width: 0.8"/>
      </g>
     </g>
     <g id="text_6">
      <!-- 10 -->
      <g transform="translate(382.750548 153.650156) scale(0.09 -0.09)">
       <defs>
        <path id="DejaVuSans-31" d="M 794 531 
L 1825 531 
L 1825 4091 
L 703 3866 
L 703 4441 
L 1819 4666 
L 2450 4666 
L 2450 531 
L 3481 531 
L 3481 0 
L 794 0 
L 794 531 
z
" transform="scale(0.015625)"/>
       </defs>
       <use xlink:href="#DejaVuSans-31"/>
       <use xlink:href="#DejaVuSans-30" transform="translate(63.623047 0)"/>
      </g>
     </g>
    </g>
    <g id="text_7">
     <!-- Time [min] -->
     <g transform="translate(201.224922 167.120313) scale(0.1 -0.1)">
      <defs>
       <path id="DejaVuSans-54" d="M -19 4666 
L 3928 4666 
L 3928 4134 
L 2272 4134 
L 2272 0 
L 1638 0 
L 1638 4134 
L -19 4134 
L -19 4666 
z
" transform="scale(0.015625)"/>
       <path id="DejaVuSans-69" d="M 603 3500 
L 1178 3500 
L 1178 0 
L 603 0 
L 603 3500 
z
M 603 4863 
L 1178 4863 
L 1178 4134 
L 603 4134 
L 603 4863 
z
" transform="scale(0.015625)"/>
       <path id="DejaVuSans-6d" d="M 3328 2828 
Q 3544 3216 3844 3400 
Q 4144 3584 4550 3584 
Q 5097 3584 5394 3201 
Q 5691 2819 5691 2113 
L 5691 0 
L 5113 0 
L 5113 2094 
Q 5113 2597 4934 2840 
Q 4756 3084 4391 3084 
Q 3944 3084 3684 2787 
Q 3425 2491 3425 1978 
L 3425 0 
L 2847 0 
L 2847 2094 
Q 2847 2600 2669 2842 
Q 2491 3084 2119 3084 
Q 1678 3084 1418 2786 
Q 1159 2488 1159 1978 
L 1159 0 
L 581 0 
L 581 3500 
L 1159 3500 
L 1159 2956 
Q 1356 3278 1631 3431 
Q 1906 3584 2284 3584 
Q 2666 3584 2933 3390 
Q 3200 3197 3328 2828 
z
" transform="scale(0.015625)"/>
       <path id="DejaVuSans-65" d="M 3597 1894 
L 3597 1613 
L 953 1613 
Q 991 1019 1311 708 
Q 1631 397 2203 397 
Q 2534 397 2845 478 
Q 3156 559 3463 722 
L 3463 178 
Q 3153 47 2828 -22 
Q 2503 -91 2169 -91 
Q 1331 -91 842 396 
Q 353 884 353 1716 
Q 353 2575 817 3079 
Q 1281 3584 2069 3584 
Q 2775 3584 3186 3129 
Q 3597 2675 3597 1894 
z
M 3022 2063 
Q 3016 2534 2758 2815 
Q 2500 3097 2075 3097 
Q 1594 3097 1305 2825 
Q 1016 2553 972 2059 
L 3022 2063 
z
" transform="scale(0.015625)"/>
       <path id="DejaVuSans-20" transform="scale(0.015625)"/>
       <path id="DejaVuSans-5b" d="M 550 4863 
L 1875 4863 
L 1875 4416 
L 1125 4416 
L 1125 -397 
L 1875 -397 
L 1875 -844 
L 550 -844 
L 550 4863 
z
" transform="scale(0.015625)"/>
       <path id="DejaVuSans-6e" d="M 3513 2113 
L 3513 0 
L 2938 0 
L 2938 2094 
Q 2938 2591 2744 2837 
Q 2550 3084 2163 3084 
Q 1697 3084 1428 2787 
Q 1159 2491 1159 1978 
L 1159 0 
L 581 0 
L 581 3500 
L 1159 3500 
L 1159 2956 
Q 1366 3272 1645 3428 
Q 1925 3584 2291 3584 
Q 2894 3584 3203 3211 
Q 3513 2838 3513 2113 
z
" transform="scale(0.015625)"/>
       <path id="DejaVuSans-5d" d="M 1947 4863 
L 1947 -844 
L 622 -844 
L 622 -397 
L 1369 -397 
L 1369 4416 
L 622 4416 
L 622 4863 
L 1947 4863 
z
" transform="scale(0.015625)"/>
      </defs>
      <use xlink:href="#DejaVuSans-54"/>
      <use xlink:href="#DejaVuSans-69" transform="translate(57.958984 0)"/>
      <use xlink:href="#DejaVuSans-6d" transform="translate(85.742188 0)"/>
      <use xlink:href="#DejaVuSans-65" transform="translate(183.154297 0)"/>
      <use xlink:href="#DejaVuSans-20" transform="translate(244.677734 0)"/>
      <use xlink:href="#DejaVuSans-5b" transform="translate(276.464844 0)"/>
      <use xlink:href="#DejaVuSans-6d" transform="translate(315.478516 0)"/>
      <use xlink:href="#DejaVuSans-69" transform="translate(412.890625 0)"/>
      <use xlink:href="#DejaVuSans-6e" transform="translate(440.673828 0)"/>
      <use xlink:href="#DejaVuSans-5d" transform="translate(504.052734 0)"/>
     </g>
    </g>
   </g>
   <g id="matplotlib.axis_2">
    <g id="ytick_1">
     <g id="line2d_7">
      <defs>
       <path id="m9ac9cf3863" d="M 0 0 
L -3.5 0 
" style="stroke: #000000; stroke-width: 0.8"/>
      </defs>
      <g>
       <use xlink:href="#m9ac9cf3863" x="53.554531" y="133.947401" style="stroke: #000000; stroke-width: 0.8"/>
      </g>
     </g>
     <g id="text_8">
      <!-- −0.3 -->
      <g transform="translate(24.7 137.366697) scale(0.09 -0.09)">
       <defs>
        <path id="DejaVuSans-2212" d="M 678 2272 
L 4684 2272 
L 4684 1741 
L 678 1741 
L 678 2272 
z
" transform="scale(0.015625)"/>
        <path id="DejaVuSans-2e" d="M 684 794 
L 1344 794 
L 1344 0 
L 684 0 
L 684 794 
z
" transform="scale(0.015625)"/>
        <path id="DejaVuSans-33" d="M 2597 2516 
Q 3050 2419 3304 2112 
Q 3559 1806 3559 1356 
Q 3559 666 3084 287 
Q 2609 -91 1734 -91 
Q 1441 -91 1130 -33 
Q 819 25 488 141 
L 488 750 
Q 750 597 1062 519 
Q 1375 441 1716 441 
Q 2309 441 2620 675 
Q 2931 909 2931 1356 
Q 2931 1769 2642 2001 
Q 2353 2234 1838 2234 
L 1294 2234 
L 1294 2753 
L 1863 2753 
Q 2328 2753 2575 2939 
Q 2822 3125 2822 3475 
Q 2822 3834 2567 4026 
Q 2313 4219 1838 4219 
Q 1578 4219 1281 4162 
Q 984 4106 628 3988 
L 628 4550 
Q 988 4650 1302 4700 
Q 1616 4750 1894 4750 
Q 2613 4750 3031 4423 
Q 3450 4097 3450 3541 
Q 3450 3153 3228 2886 
Q 3006 2619 2597 2516 
z
" transform="scale(0.015625)"/>
       </defs>
       <use xlink:href="#DejaVuSans-2212"/>
       <use xlink:href="#DejaVuSans-30" transform="translate(83.789062 0)"/>
       <use xlink:href="#DejaVuSans-2e" transform="translate(147.412109 0)"/>
       <use xlink:href="#DejaVuSans-33" transform="translate(179.199219 0)"/>
      </g>
     </g>
    </g>
    <g id="ytick_2">
     <g id="line2d_8">
      <g>
       <use xlink:href="#m9ac9cf3863" x="53.554531" y="110.490753" style="stroke: #000000; stroke-width: 0.8"/>
      </g>
     </g>
     <g id="text_9">
      <!-- −0.2 -->
      <g transform="translate(24.7 113.91005) scale(0.09 -0.09)">
       <use xlink:href="#DejaVuSans-2212"/>
       <use xlink:href="#DejaVuSans-30" transform="translate(83.789062 0)"/>
       <use xlink:href="#DejaVuSans-2e" transform="translate(147.412109 0)"/>
       <use xlink:href="#DejaVuSans-32" transform="translate(179.199219 0)"/>
      </g>
     </g>
    </g>
    <g id="ytick_3">
     <g id="line2d_9">
      <g>
       <use xlink:href="#m9ac9cf3863" x="53.554531" y="87.034105" style="stroke: #000000; stroke-width: 0.8"/>
      </g>
     </g>
     <g id="text_10">
      <!-- −0.1 -->
      <g transform="translate(24.7 90.453402) scale(0.09 -0.09)">
       <use xlink:href="#DejaVuSans-2212"/>
       <use xlink:href="#DejaVuSans-30" transform="translate(83.789062 0)"/>
       <use xlink:href="#DejaVuSans-2e" transform="translate(147.412109 0)"/>
       <use xlink:href="#DejaVuSans-31" transform="translate(179.199219 0)"/>
      </g>
     </g>
    </g>
    <g id="ytick_4">
     <g id="line2d_10">
      <g>
       <use xlink:href="#m9ac9cf3863" x="53.554531" y="63.577457" style="stroke: #000000; stroke-width: 0.8"/>
      </g>
     </g>
     <g id="text_11">
      <!-- 0.0 -->
      <g transform="translate(32.241719 66.996754) scale(0.09 -0.09)">
       <use xlink:href="#DejaVuSans-30"/>
       <use xlink:href="#DejaVuSans-2e" transform="translate(63.623047 0)"/>
       <use xlink:href="#DejaVuSans-30" transform="translate(95.410156 0)"/>
      </g>
     </g>
    </g>
    <g id="ytick_5">
     <g id="line2d_11">
      <g>
       <use xlink:href="#m9ac9cf3863" x="53.554531" y="40.12081" style="stroke: #000000; stroke-width: 0.8"/>
      </g>
     </g>
     <g id="text_12">
      <!-- 0.1 -->
      <g transform="translate(32.241719 43.540107) scale(0.09 -0.09)">
       <use xlink:href="#DejaVuSans-30"/>
       <use xlink:href="#DejaVuSans-2e" transform="translate(63.623047 0)"/>
       <use xlink:href="#DejaVuSans-31" transform="translate(95.410156 0)"/>
      </g>
     </g>
    </g>
    <g id="ytick_6">
     <g id="line2d_12">
      <g>
       <use xlink:href="#m9ac9cf3863" x="53.554531" y="16.664162" style="stroke: #000000; stroke-width: 0.8"/>
      </g>
     </g>
     <g id="text_13">
      <!-- 0.2 -->
      <g transform="translate(32.241719 20.083459) scale(0.09 -0.09)">
       <use xlink:href="#DejaVuSans-30"/>
       <use xlink:href="#DejaVuSans-2e" transform="translate(63.623047 0)"/>
       <use xlink:href="#DejaVuSans-32" transform="translate(95.410156 0)"/>
      </g>
     </g>
    </g>
    <g id="text_14">
     <!-- Attitude Error $\sigma_{B/R}$ -->
     <g transform="translate(18.4 120.255781) rotate(-90) scale(0.1 -0.1)">
      <defs>
       <path id="DejaVuSans-41" d="M 2188 4044 
L 1331 1722 
L 3047 1722 
L 2188 4044 
z
M 1831 4666 
L 2547 4666 
L 4325 0 
L 3669 0 
L 3244 1197 
L 1141 1197 
L 716 0 
L 50 0 
L 1831 4666 
z
" transform="scale(0.015625)"/>
       <path id="DejaVuSans-74" d="M 1172 4494 
L 1172 3500 
L 2356 3500 
L 2356 3053 
L 1172 3053 
L 1172 1153 
Q 1172 725 1289 603 
Q 1406 481 1766 481 
L 2356 481 
L 2356 0 
L 1766 0 
Q 1100 0 847 248 
Q 594 497 594 1153 
L 594 3053 
L 172 3053 
L 172 3500 
L 594 3500 
L 594 4494 
L 1172 4494 
z
" transform="scale(0.015625)"/>
       <path id="DejaVuSans-75" d="M 544 1381 
L 544 3500 
L 1119 3500 
L 1119 1403 
Q 1119 906 1312 657 
Q 1506 409 1894 409 
Q 2359 409 2629 706 
Q 2900 1003 2900 1516 
L 2900 3500 
L 3475 3500 
L 3475 0 
L 2900 0 
L 2900 538 
Q 2691 219 2414 64 
Q 2138 -91 1772 -91 
Q 1169 -91 856 284 
Q 544 659 544 1381 
z
M 1991 3584 
L 1991 3584 
z
" transform="scale(0.015625)"/>
       <path id="DejaVuSans-64" d="M 2906 2969 
L 2906 4863 
L 3481 4863 
L 3481 0 
L 2906 0 
L 2906 525 
Q 2725 213 2448 61 
Q 2172 -91 1784 -91 
Q 1150 -91 751 415 
Q 353 922 353 1747 
Q 353 2572 751 3078 
Q 1150 3584 1784 3584 
Q 2172 3584 2448 3432 
Q 2725 3281 2906 2969 
z
M 947 1747 
Q 947 1113 1208 752 
Q 1469 391 1925 391 
Q 2381 391 2643 752 
Q 2906 1113 2906 1747 
Q 2906 2381 2643 2742 
Q 2381 3103 1925 3103 
Q 1469 3103 1208 2742 
Q 947 2381 947 1747 
z
" transform="scale(0.015625)"/>
       <path id="DejaVuSans-45" d="M 628 4666 
L 3578 4666 
L 3578 4134 
L 1259 4134 
L 1259 2753 
L 3481 2753 
L 3481 2222 
L 1259 2222 
L 1259 531 
L 3634 531 
L 3634 0 
L 628 0 
L 628 4666 
z
" transform="scale(0.015625)"/>
       <path id="DejaVuSans-72" d="M 2631 2963 
Q 2534 3019 2420 3045 
Q 2306 3072 2169 3072 
Q 1681 3072 1420 2755 
Q 1159 2438 1159 1844 
L 1159 0 
L 581 0 
L 581 3500 
L 1159 3500 
L 1159 2956 
Q 1341 3275 1631 3429 
Q 1922 3584 2338 3584 
Q 2397 3584 2469 3576 
Q 2541 3569 2628 3553 
L 2631 2963 
z
" transform="scale(0.015625)"/>
       <path id="DejaVuSans-6f" d="M 1959 3097 
Q 1497 3097 1228 2736 
Q 959 2375 959 1747 
Q 959 1119 1226 758 
Q 1494 397 1959 397 
Q 2419 397 2687 759 
Q 2956 1122 2956 1747 
Q 2956 2369 2687 2733 
Q 2419 3097 1959 3097 
z
M 1959 3584 
Q 2709 3584 3137 3096 
Q 3566 2609 3566 1747 
Q 3566 888 3137 398 
Q 2709 -91 1959 -91 
Q 1206 -91 779 398 
Q 353 888 353 1747 
Q 353 2609 779 3096 
Q 1206 3584 1959 3584 
z
" transform="scale(0.015625)"/>
       <path id="DejaVuSans-Oblique-3c3" d="M 2219 3044 
Q 1744 3044 1422 2700 
Q 1081 2341 969 1747 
Q 844 1119 1044 756 
Q 1241 397 1706 397 
Q 2166 397 2503 759 
Q 2844 1122 2966 1747 
Q 3075 2319 2881 2700 
Q 2700 3044 2219 3044 
z
M 2309 3503 
L 4219 3500 
L 4106 2925 
L 3463 2925 
Q 3706 2438 3575 1747 
Q 3406 888 2884 400 
Q 2359 -91 1609 -91 
Q 856 -91 525 400 
Q 194 888 363 1747 
Q 528 2609 1050 3097 
Q 1484 3503 2309 3503 
z
" transform="scale(0.015625)"/>
       <path id="DejaVuSans-Oblique-42" d="M 1081 4666 
L 2694 4666 
Q 3350 4666 3675 4422 
Q 4000 4178 4000 3688 
Q 4000 3238 3720 2911 
Q 3441 2584 2988 2516 
Q 3375 2428 3569 2181 
Q 3763 1934 3763 1522 
Q 3763 819 3242 409 
Q 2722 0 1819 0 
L 172 0 
L 1081 4666 
z
M 1234 2228 
L 903 519 
L 1919 519 
Q 2491 519 2800 781 
Q 3109 1044 3109 1522 
Q 3109 1891 2904 2059 
Q 2700 2228 2247 2228 
L 1234 2228 
z
M 1606 4147 
L 1331 2741 
L 2272 2741 
Q 2775 2741 3058 2959 
Q 3341 3178 3341 3566 
Q 3341 3869 3150 4008 
Q 2959 4147 2541 4147 
L 1606 4147 
z
" transform="scale(0.015625)"/>
       <path id="DejaVuSans-2f" d="M 1625 4666 
L 2156 4666 
L 531 -594 
L 0 -594 
L 1625 4666 
z
" transform="scale(0.015625)"/>
       <path id="DejaVuSans-Oblique-52" d="M 1613 4147 
L 1294 2491 
L 2106 2491 
Q 2584 2491 2879 2755 
Q 3175 3019 3175 3444 
Q 3175 3784 2976 3965 
Q 2778 4147 2406 4147 
L 1613 4147 
z
M 2772 2241 
Q 2972 2194 3105 2009 
Q 3238 1825 3413 1275 
L 3809 0 
L 3144 0 
L 2778 1197 
Q 2638 1659 2453 1815 
Q 2269 1972 1888 1972 
L 1191 1972 
L 806 0 
L 172 0 
L 1081 4666 
L 2503 4666 
Q 3150 4666 3495 4373 
Q 3841 4081 3841 3531 
Q 3841 3044 3547 2687 
Q 3253 2331 2772 2241 
z
" transform="scale(0.015625)"/>
      </defs>
      <use xlink:href="#DejaVuSans-41" transform="translate(0 0.015625)"/>
      <use xlink:href="#DejaVuSans-74" transform="translate(68.408203 0.015625)"/>
      <use xlink:href="#DejaVuSans-74" transform="translate(107.617188 0.015625)"/>
      <use xlink:href="#DejaVuSans-69" transform="translate(146.826172 0.015625)"/>
      <use xlink:href="#DejaVuSans-74" transform="translate(174.609375 0.015625)"/>
      <use xlink:href="#DejaVuSans-75" transform="translate(213.818359 0.015625)"/>
      <use xlink:href="#DejaVuSans-64" transform="translate(277.197266 0.015625)"/>
      <use xlink:href="#DejaVuSans-65" transform="translate(340.673828 0.015625)"/>
      <use xlink:href="#DejaVuSans-20" transform="translate(402.197266 0.015625)"/>
      <use xlink:href="#DejaVuSans-45" transform="translate(433.984375 0.015625)"/>
      <use xlink:href="#DejaVuSans-72" transform="translate(497.167969 0.015625)"/>
      <use xlink:href="#DejaVuSans-72" transform="translate(538.28125 0.015625)"/>
      <use xlink:href="#DejaVuSans-6f" transform="translate(579.394531 0.015625)"/>
      <use xlink:href="#DejaVuSans-72" transform="translate(640.576172 0.015625)"/>
      <use xlink:href="#DejaVuSans-20" transform="translate(681.689453 0.015625)"/>
      <use xlink:href="#DejaVuSans-Oblique-3c3" transform="translate(713.476562 0.015625)"/>
      <use xlink:href="#DejaVuSans-Oblique-42" transform="translate(776.855469 -16.390625) scale(0.7)"/>
      <use xlink:href="#DejaVuSans-2f" transform="translate(824.87793 -16.390625) scale(0.7)"/>
      <use xlink:href="#DejaVuSans-Oblique-52" transform="translate(847.236914 -16.390625) scale(0.7)"/>
     </g>
    </g>
   </g>
   <g id="line2d_13">
    <path d="M 69.447507 40.12081 
L 75.934436 39.670948 
L 82.421365 43.266622 
L 88.908294 48.674843 
L 95.395223 54.373255 
L 101.882152 59.415681 
L 108.369081 63.318769 
L 114.85601 65.951954 
L 121.342938 67.416214 
L 127.829867 67.933475 
L 134.316796 67.765545 
L 140.803725 67.164331 
L 147.290654 66.345454 
L 153.777583 65.47672 
L 160.264512 64.675735 
L 166.751441 64.013379 
L 173.23837 63.521049 
L 179.725299 63.199917 
L 186.212228 63.030689 
L 192.699157 62.982603 
L 199.186085 63.020855 
L 205.673014 63.112063 
L 212.159943 63.227743 
L 218.646872 63.346046 
L 225.133801 63.452121 
L 231.62073 63.537531 
L 238.107659 63.599101 
L 244.594588 63.637533 
L 251.081517 63.656026 
L 257.568446 63.659063 
L 264.055375 63.651452 
L 270.542304 63.637651 
L 277.029233 63.621358 
L 283.516161 63.60533 
L 290.00309 63.59137 
L 296.490019 63.580435 
L 302.976948 63.572804 
L 309.463877 63.568273 
L 315.950806 63.566341 
L 322.437735 63.566367 
L 328.924664 63.567694 
L 335.411593 63.569729 
L 341.898522 63.571997 
L 348.385451 63.574151 
L 354.87238 63.575975 
L 361.359308 63.577364 
L 367.846237 63.5783 
L 374.333166 63.578824 
L 380.820095 63.579011 
L 387.307024 63.578952 
" clip-path="url(#pe1850e359c)" style="fill: none; stroke: #2b737e; stroke-width: 1.5; stroke-linecap: square"/>
   </g>
   <g id="line2d_14">
    <path d="M 69.447507 16.664162 
L 75.934436 30.746741 
L 82.421365 43.178567 
L 88.908294 52.832151 
L 95.395223 59.725032 
L 101.882152 64.256996 
L 108.369081 66.904384 
L 114.85601 68.119657 
L 121.342938 68.308577 
L 127.829867 67.826921 
L 134.316796 66.975897 
L 140.803725 65.99478 
L 147.290654 65.055847 
L 153.777583 64.265738 
L 160.264512 63.673865 
L 166.751441 63.285695 
L 173.23837 63.077665 
L 179.725299 63.010939 
L 186.212228 63.042293 
L 192.699157 63.131545 
L 199.186085 63.245776 
L 205.673014 63.360966 
L 212.159943 63.461832 
L 218.646872 63.540583 
L 225.133801 63.595157 
L 231.62073 63.627377 
L 238.107659 63.64129 
L 244.594588 63.64182 
L 251.081517 63.633818 
L 257.568446 63.621454 
L 264.055375 63.607933 
L 270.542304 63.595432 
L 277.029233 63.585196 
L 283.516161 63.577719 
L 290.00309 63.572956 
L 296.490019 63.570526 
L 302.976948 63.569888 
L 309.463877 63.570464 
L 315.950806 63.571735 
L 322.437735 63.573281 
L 328.924664 63.574799 
L 335.411593 63.576104 
L 341.898522 63.577105 
L 348.385451 63.577783 
L 354.87238 63.57817 
L 361.359308 63.578323 
L 367.846237 63.578307 
L 374.333166 63.578187 
L 380.820095 63.578017 
L 387.307024 63.577836 
" clip-path="url(#pe1850e359c)" style="fill: none; stroke: #5ea04b; stroke-width: 1.5; stroke-linecap: square"/>
   </g>
   <g id="line2d_15">
    <path d="M 69.447507 133.947401 
L 75.934436 112.298052 
L 82.421365 92.897048 
L 88.908294 77.766112 
L 95.395223 67.281305 
L 101.882152 60.975045 
L 108.369081 57.961713 
L 114.85601 57.234054 
L 121.342938 57.869274 
L 127.829867 59.140788 
L 134.316796 60.549552 
L 140.803725 61.802935 
L 147.290654 62.768398 
L 153.777583 63.421585 
L 160.264512 63.800325 
L 166.751441 63.969612 
L 173.23837 63.998393 
L 179.725299 63.946521 
L 186.212228 63.859288 
L 192.699157 63.766858 
L 199.186085 63.686396 
L 205.673014 63.625298 
L 212.159943 63.584487 
L 218.646872 63.56122 
L 225.133801 63.551206 
L 231.62073 63.549991 
L 238.107659 63.553746 
L 244.594588 63.559595 
L 251.081517 63.565639 
L 257.568446 63.570818 
L 264.055375 63.574694 
L 270.542304 63.577241 
L 277.029233 63.578656 
L 283.516161 63.579232 
L 290.00309 63.579258 
L 296.490019 63.578984 
L 302.976948 63.57859 
L 309.463877 63.578194 
L 315.950806 63.577861 
L 322.437735 63.577616 
L 328.924664 63.577457 
L 335.411593 63.577371 
L 341.898522 63.577339 
L 348.385451 63.57734 
L 354.87238 63.577359 
L 361.359308 63.577386 
L 367.846237 63.577412 
L 374.333166 63.577433 
L 380.820095 63.577448 
L 387.307024 63.577458 
" clip-path="url(#pe1850e359c)" style="fill: none; stroke: #bdab62; stroke-width: 1.5; stroke-linecap: square"/>
   </g>
   <g id="patch_3">
    <path d="M 53.554531 139.811562 
L 53.554531 10.8 
" style="fill: none; stroke: #000000; stroke-width: 0.8; stroke-linejoin: miter; stroke-linecap: square"/>
   </g>
   <g id="patch_4">
    <path d="M 403.2 139.811562 
L 403.2 10.8 
" style="fill: none; stroke: #000000; stroke-width: 0.8; stroke-linejoin: miter; stroke-linecap: square"/>
   </g>
   <g id="patch_5">
    <path d="M 53.554531 139.811563 
L 403.2 139.811563 
" style="fill: none; stroke: #000000; stroke-width: 0.8; stroke-linejoin: miter; stroke-linecap: square"/>
   </g>
   <g id="patch_6">
    <path d="M 53.554531 10.8 
L 403.2 10.8 
" style="fill: none; stroke: #000000; stroke-width: 0.8; stroke-linejoin: miter; stroke-linecap: square"/>
   </g>
   <g id="legend_1">
    <g id="patch_7">
     <path d="M 358.11 135.311562 
L 396.9 135.311562 
Q 398.7 135.311562 398.7 133.511562 
L 398.7 94.780625 
Q 398.7 92.980625 396.9 92.980625 
L 358.11 92.980625 
Q 356.31 92.980625 356.31 94.780625 
L 356.31 133.511562 
Q 356.31 135.311562 358.11 135.311562 
z
" style="fill: #ffffff; opacity: 0.8; stroke: #cccccc; stroke-linejoin: miter"/>
    </g>
    <g id="line2d_16">
     <path d="M 359.91 100.269219 
L 368.91 100.269219 
L 377.91 100.269219 
" style="fill: none; stroke: #2b737e; stroke-width: 1.5; stroke-linecap: square"/>
    </g>
    <g id="text_15">
     <!-- $\sigma_0$ -->
     <g transform="translate(385.11 103.419219) scale(0.09 -0.09)">
      <use xlink:href="#DejaVuSans-Oblique-3c3" transform="translate(0 0.265625)"/>
      <use xlink:href="#DejaVuSans-30" transform="translate(63.378906 -16.140625) scale(0.7)"/>
     </g>
    </g>
    <g id="line2d_17">
     <path d="M 359.91 113.479531 
L 368.91 113.479531 
L 377.91 113.479531 
" style="fill: none; stroke: #5ea04b; stroke-width: 1.5; stroke-linecap: square"/>
    </g>
    <g id="text_16">
     <!-- $\sigma_1$ -->
     <g transform="translate(385.11 116.629531) scale(0.09 -0.09)">
      <use xlink:href="#DejaVuSans-Oblique-3c3" transform="translate(0 0.265625)"/>
      <use xlink:href="#DejaVuSans-31" transform="translate(63.378906 -16.140625) scale(0.7)"/>
     </g>
    </g>
    <g id="line2d_18">
     <path d="M 359.91 126.689844 
L 368.91 126.689844 
L 377.91 126.689844 
" style="fill: none; stroke: #bdab62; stroke-width: 1.5; stroke-linecap: square"/>
    </g>
    <g id="text_17">
     <!-- $\sigma_2$ -->
     <g transform="translate(385.11 129.839844) scale(0.09 -0.09)">
      <use xlink:href="#DejaVuSans-Oblique-3c3" transform="translate(0 0.265625)"/>
      <use xlink:href="#DejaVuSans-32" transform="translate(63.378906 -16.140625) scale(0.7)"/>
     </g>
    </g>
   </g>
  </g>
 </g>
 <defs>
  <clipPath id="pe1850e359c">
   <rect x="53.554531" y="10.8" width="349.645469" height="129.011562"/>
  </clipPath>
 </defs>
</svg>
