<?xml version="1.0" encoding="utf-8" standalone="no"?>
<!DOCTYPE svg PUBLIC "-//W3C//DTD SVG 1.1//EN"
  "http://www.w3.org/Graphics/SVG/1.1/DTD/svg11.dtd">
<svg xmlns:xlink="http://www.w3.org/1999/xlink" width="504pt" height="432pt" viewBox="0 0 504 432" xmlns="http://www.w3.org/2000/svg" version="1.1">
 <metadata>
  <rdf:RDF xmlns:dc="http://purl.org/dc/elements/1.1/" xmlns:cc="http://creativecommons.org/ns#" xmlns:rdf="http://www.w3.org/1999/02/22-rdf-syntax-ns#">
   <cc:Work>
    <dc:type rdf:resource="http://purl.org/dc/dcmitype/StillImage"/>
    <dc:date>2026-01-09T21:00:50.728912</dc:date>
    <dc:format>image/svg+xml</dc:format>
    <dc:creator>
     <cc:Agent>
      <dc:title>Matplotlib v3.10.7, https://matplotlib.org/</dc:title>
     </cc:Agent>
    </dc:creator>
   </cc:Work>
  </rdf:RDF>
 </metadata>
 <defs>
  <style type="text/css">*{stroke-linejoin: round; stroke-linecap: butt}</style>
 </defs>
 <g id="figure_1">
  <g id="patch_1">
   <path d="M 0 432 
L 504 432 
L 504 0 
L 0 0 
L 0 432 
z
" style="fill: none"/>
  </g>
  <g id="axes_1">
   <g id="patch_2">
    <path d="M 119.014063 362.623125 
L 482.4 362.623125 
L 482.4 21.6 
L 119.014063 21.6 
L 119.014063 362.623125 
z
" style="fill: none"/>
   </g>
   <g id="matplotlib.axis_1">
    <g id="xtick_1">
     <g id="line2d_1">
      <defs>
       <path id="m40b754c1c1" d="M 0 0 
L 0 3.5 
" style="stroke: #000000; stroke-width: 0.8"/>
      </defs>
      <g>
       <use xlink:href="#m40b754c1c1" x="135.531605" y="362.623125" style="stroke: #000000; stroke-width: 0.8"/>
      </g>
     </g>
     <g id="text_1">
      <!-- 0 -->
      <g transform="translate(129.805355 383.300313) scale(0.18 -0.18)">
       <defs>
        <path id="DejaVuSerif-30" d="M 2034 219 
Q 2513 219 2750 744 
Q 2988 1269 2988 2328 
Q 2988 3391 2750 3916 
Q 2513 4441 2034 4441 
Q 1556 4441 1318 3916 
Q 1081 3391 1081 2328 
Q 1081 1269 1318 744 
Q 1556 219 2034 219 
z
M 2034 -91 
Q 1275 -91 848 546 
Q 422 1184 422 2328 
Q 422 3475 848 4112 
Q 1275 4750 2034 4750 
Q 2797 4750 3222 4112 
Q 3647 3475 3647 2328 
Q 3647 1184 3222 546 
Q 2797 -91 2034 -91 
z
" transform="scale(0.015625)"/>
       </defs>
       <use xlink:href="#DejaVuSerif-30"/>
      </g>
     </g>
    </g>
    <g id="xtick_2">
     <g id="line2d_2">
      <g>
       <use xlink:href="#m40b754c1c1" x="245.648556" y="362.623125" style="stroke: #000000; stroke-width: 0.8"/>
      </g>
     </g>
     <g id="text_2">
      <!-- 100 -->
      <g transform="translate(228.469806 383.300313) scale(0.18 -0.18)">
       <defs>
        <path id="DejaVuSerif-31" d="M 909 0 
L 909 331 
L 1722 331 
L 1722 4213 
L 781 3603 
L 781 4013 
L 1919 4750 
L 2350 4750 
L 2350 331 
L 3163 331 
L 3163 0 
L 909 0 
z
" transform="scale(0.015625)"/>
       </defs>
       <use xlink:href="#DejaVuSerif-31"/>
       <use xlink:href="#DejaVuSerif-30" transform="translate(63.623047 0)"/>
       <use xlink:href="#DejaVuSerif-30" transform="translate(127.246094 0)"/>
      </g>
     </g>
    </g>
    <g id="xtick_3">
     <g id="line2d_3">
      <g>
       <use xlink:href="#m40b754c1c1" x="355.765507" y="362.623125" style="stroke: #000000; stroke-width: 0.8"/>
      </g>
     </g>
     <g id="text_3">
      <!-- 200 -->
      <g transform="translate(338.586757 383.300313) scale(0.18 -0.18)">
       <defs>
        <path id="DejaVuSerif-32" d="M 819 3553 
L 469 3553 
L 469 4384 
Q 803 4563 1142 4656 
Q 1481 4750 1806 4750 
Q 2534 4750 2956 4397 
Q 3378 4044 3378 3438 
Q 3378 2753 2422 1800 
Q 2347 1728 2309 1691 
L 1131 513 
L 3078 513 
L 3078 1088 
L 3444 1088 
L 3444 0 
L 434 0 
L 434 341 
L 1850 1753 
Q 2319 2222 2519 2614 
Q 2719 3006 2719 3438 
Q 2719 3909 2473 4175 
Q 2228 4441 1797 4441 
Q 1350 4441 1106 4219 
Q 863 3997 819 3553 
z
" transform="scale(0.015625)"/>
       </defs>
       <use xlink:href="#DejaVuSerif-32"/>
       <use xlink:href="#DejaVuSerif-30" transform="translate(63.623047 0)"/>
       <use xlink:href="#DejaVuSerif-30" transform="translate(127.246094 0)"/>
      </g>
     </g>
    </g>
    <g id="xtick_4">
     <g id="line2d_4">
      <g>
       <use xlink:href="#m40b754c1c1" x="465.882457" y="362.623125" style="stroke: #000000; stroke-width: 0.8"/>
      </g>
     </g>
     <g id="text_4">
      <!-- 300 -->
      <g transform="translate(448.703707 383.300313) scale(0.18 -0.18)">
       <defs>
        <path id="DejaVuSerif-33" d="M 622 4469 
Q 988 4606 1323 4678 
Q 1659 4750 1953 4750 
Q 2638 4750 3022 4454 
Q 3406 4159 3406 3634 
Q 3406 3213 3140 2930 
Q 2875 2647 2388 2547 
Q 2963 2466 3280 2130 
Q 3597 1794 3597 1259 
Q 3597 606 3158 257 
Q 2719 -91 1894 -91 
Q 1528 -91 1179 -12 
Q 831 66 488 225 
L 488 1131 
L 838 1131 
Q 869 681 1141 450 
Q 1413 219 1906 219 
Q 2384 219 2661 495 
Q 2938 772 2938 1253 
Q 2938 1803 2653 2086 
Q 2369 2369 1819 2369 
L 1522 2369 
L 1522 2688 
L 1678 2688 
Q 2225 2688 2498 2914 
Q 2772 3141 2772 3597 
Q 2772 4006 2547 4223 
Q 2322 4441 1900 4441 
Q 1478 4441 1245 4241 
Q 1013 4041 972 3647 
L 622 3647 
L 622 4469 
z
" transform="scale(0.015625)"/>
       </defs>
       <use xlink:href="#DejaVuSerif-33"/>
       <use xlink:href="#DejaVuSerif-30" transform="translate(63.623047 0)"/>
       <use xlink:href="#DejaVuSerif-30" transform="translate(127.246094 0)"/>
      </g>
     </g>
    </g>
    <g id="text_5">
     <!-- Time [min] -->
     <g transform="translate(245.333594 406.240625) scale(0.2 -0.2)">
      <defs>
       <path id="DejaVuSerif-54" d="M 1222 0 
L 1222 331 
L 1819 331 
L 1819 4294 
L 447 4294 
L 447 3566 
L 63 3566 
L 63 4666 
L 4206 4666 
L 4206 3566 
L 3822 3566 
L 3822 4294 
L 2450 4294 
L 2450 331 
L 3047 331 
L 3047 0 
L 1222 0 
z
" transform="scale(0.015625)"/>
       <path id="DejaVuSerif-69" d="M 622 4353 
Q 622 4497 726 4603 
Q 831 4709 978 4709 
Q 1122 4709 1226 4603 
Q 1331 4497 1331 4353 
Q 1331 4206 1228 4103 
Q 1125 4000 978 4000 
Q 831 4000 726 4103 
Q 622 4206 622 4353 
z
M 1356 331 
L 1900 331 
L 1900 0 
L 231 0 
L 231 331 
L 781 331 
L 781 2988 
L 231 2988 
L 231 3322 
L 1356 3322 
L 1356 331 
z
" transform="scale(0.015625)"/>
       <path id="DejaVuSerif-6d" d="M 3316 2675 
Q 3481 3041 3739 3227 
Q 3997 3413 4341 3413 
Q 4863 3413 5119 3089 
Q 5375 2766 5375 2113 
L 5375 331 
L 5894 331 
L 5894 0 
L 4300 0 
L 4300 331 
L 4800 331 
L 4800 2047 
Q 4800 2556 4650 2772 
Q 4500 2988 4153 2988 
Q 3769 2988 3567 2697 
Q 3366 2406 3366 1850 
L 3366 331 
L 3866 331 
L 3866 0 
L 2291 0 
L 2291 331 
L 2791 331 
L 2791 2069 
Q 2791 2566 2641 2777 
Q 2491 2988 2144 2988 
Q 1759 2988 1557 2697 
Q 1356 2406 1356 1850 
L 1356 331 
L 1856 331 
L 1856 0 
L 263 0 
L 263 331 
L 781 331 
L 781 2994 
L 231 2994 
L 231 3322 
L 1356 3322 
L 1356 2731 
Q 1516 3063 1762 3238 
Q 2009 3413 2322 3413 
Q 2709 3413 2968 3220 
Q 3228 3028 3316 2675 
z
" transform="scale(0.015625)"/>
       <path id="DejaVuSerif-65" d="M 3469 1600 
L 991 1600 
L 991 1575 
Q 991 903 1244 561 
Q 1497 219 1991 219 
Q 2369 219 2611 417 
Q 2853 616 2950 1006 
L 3413 1006 
Q 3275 459 2904 184 
Q 2534 -91 1931 -91 
Q 1203 -91 761 389 
Q 319 869 319 1663 
Q 319 2450 753 2931 
Q 1188 3413 1894 3413 
Q 2647 3413 3050 2948 
Q 3453 2484 3469 1600 
z
M 2791 1931 
Q 2772 2513 2545 2808 
Q 2319 3103 1894 3103 
Q 1497 3103 1269 2806 
Q 1041 2509 991 1931 
L 2791 1931 
z
" transform="scale(0.015625)"/>
       <path id="DejaVuSerif-20" transform="scale(0.015625)"/>
       <path id="DejaVuSerif-5b" d="M 550 4863 
L 2003 4863 
L 2003 4531 
L 1147 4531 
L 1147 -513 
L 2003 -513 
L 2003 -844 
L 550 -844 
L 550 4863 
z
" transform="scale(0.015625)"/>
       <path id="DejaVuSerif-6e" d="M 263 0 
L 263 331 
L 781 331 
L 781 2988 
L 231 2988 
L 231 3322 
L 1356 3322 
L 1356 2731 
Q 1516 3069 1770 3241 
Q 2025 3413 2363 3413 
Q 2913 3413 3172 3097 
Q 3431 2781 3431 2113 
L 3431 331 
L 3944 331 
L 3944 0 
L 2356 0 
L 2356 331 
L 2853 331 
L 2853 1931 
Q 2853 2541 2703 2767 
Q 2553 2994 2175 2994 
Q 1775 2994 1565 2701 
Q 1356 2409 1356 1850 
L 1356 331 
L 1856 331 
L 1856 0 
L 263 0 
z
" transform="scale(0.015625)"/>
       <path id="DejaVuSerif-5d" d="M 1947 4863 
L 1947 -844 
L 494 -844 
L 494 -513 
L 1350 -513 
L 1350 4531 
L 494 4531 
L 494 4863 
L 1947 4863 
z
" transform="scale(0.015625)"/>
      </defs>
      <use xlink:href="#DejaVuSerif-54"/>
      <use xlink:href="#DejaVuSerif-69" transform="translate(66.699219 0)"/>
      <use xlink:href="#DejaVuSerif-6d" transform="translate(98.681641 0)"/>
      <use xlink:href="#DejaVuSerif-65" transform="translate(193.505859 0)"/>
      <use xlink:href="#DejaVuSerif-20" transform="translate(252.685547 0)"/>
      <use xlink:href="#DejaVuSerif-5b" transform="translate(284.472656 0)"/>
      <use xlink:href="#DejaVuSerif-6d" transform="translate(323.486328 0)"/>
      <use xlink:href="#DejaVuSerif-69" transform="translate(418.310547 0)"/>
      <use xlink:href="#DejaVuSerif-6e" transform="translate(450.292969 0)"/>
      <use xlink:href="#DejaVuSerif-5d" transform="translate(514.697266 0)"/>
     </g>
    </g>
   </g>
   <g id="matplotlib.axis_2">
    <g id="ytick_1">
     <g id="line2d_5">
      <defs>
       <path id="m44b05712cb" d="M 0 0 
L -3.5 0 
" style="stroke: #000000; stroke-width: 0.8"/>
      </defs>
      <g>
       <use xlink:href="#m44b05712cb" x="119.014063" y="340.471336" style="stroke: #000000; stroke-width: 0.8"/>
      </g>
     </g>
     <g id="text_6">
      <!-- −0.035 -->
      <g transform="translate(45.4 347.309929) scale(0.18 -0.18)">
       <defs>
        <path id="DejaVuSerif-2212" d="M 678 2259 
L 4684 2259 
L 4684 1753 
L 678 1753 
L 678 2259 
z
" transform="scale(0.015625)"/>
        <path id="DejaVuSerif-2e" d="M 603 325 
Q 603 500 722 622 
Q 841 744 1019 744 
Q 1191 744 1312 622 
Q 1434 500 1434 325 
Q 1434 153 1312 31 
Q 1191 -91 1019 -91 
Q 841 -91 722 29 
Q 603 150 603 325 
z
" transform="scale(0.015625)"/>
        <path id="DejaVuSerif-35" d="M 3219 4666 
L 3219 4153 
L 1081 4153 
L 1081 2816 
Q 1244 2928 1461 2984 
Q 1678 3041 1947 3041 
Q 2703 3041 3140 2622 
Q 3578 2203 3578 1478 
Q 3578 738 3136 323 
Q 2694 -91 1894 -91 
Q 1572 -91 1234 -12 
Q 897 66 544 225 
L 544 1131 
L 897 1131 
Q 925 688 1179 453 
Q 1434 219 1894 219 
Q 2388 219 2653 544 
Q 2919 869 2919 1478 
Q 2919 2084 2655 2407 
Q 2391 2731 1894 2731 
Q 1613 2731 1398 2631 
Q 1184 2531 1019 2322 
L 750 2322 
L 750 4666 
L 3219 4666 
z
" transform="scale(0.015625)"/>
       </defs>
       <use xlink:href="#DejaVuSerif-2212"/>
       <use xlink:href="#DejaVuSerif-30" transform="translate(83.789062 0)"/>
       <use xlink:href="#DejaVuSerif-2e" transform="translate(147.412109 0)"/>
       <use xlink:href="#DejaVuSerif-30" transform="translate(179.199219 0)"/>
       <use xlink:href="#DejaVuSerif-33" transform="translate(242.822266 0)"/>
       <use xlink:href="#DejaVuSerif-35" transform="translate(306.445312 0)"/>
      </g>
     </g>
    </g>
    <g id="ytick_2">
     <g id="line2d_6">
      <g>
       <use xlink:href="#m44b05712cb" x="119.014063" y="299.825871" style="stroke: #000000; stroke-width: 0.8"/>
      </g>
     </g>
     <g id="text_7">
      <!-- −0.030 -->
      <g transform="translate(45.4 306.664464) scale(0.18 -0.18)">
       <use xlink:href="#DejaVuSerif-2212"/>
       <use xlink:href="#DejaVuSerif-30" transform="translate(83.789062 0)"/>
       <use xlink:href="#DejaVuSerif-2e" transform="translate(147.412109 0)"/>
       <use xlink:href="#DejaVuSerif-30" transform="translate(179.199219 0)"/>
       <use xlink:href="#DejaVuSerif-33" transform="translate(242.822266 0)"/>
       <use xlink:href="#DejaVuSerif-30" transform="translate(306.445312 0)"/>
      </g>
     </g>
    </g>
    <g id="ytick_3">
     <g id="line2d_7">
      <g>
       <use xlink:href="#m44b05712cb" x="119.014063" y="259.180406" style="stroke: #000000; stroke-width: 0.8"/>
      </g>
     </g>
     <g id="text_8">
      <!-- −0.025 -->
      <g transform="translate(45.4 266.018999) scale(0.18 -0.18)">
       <use xlink:href="#DejaVuSerif-2212"/>
       <use xlink:href="#DejaVuSerif-30" transform="translate(83.789062 0)"/>
       <use xlink:href="#DejaVuSerif-2e" transform="translate(147.412109 0)"/>
       <use xlink:href="#DejaVuSerif-30" transform="translate(179.199219 0)"/>
       <use xlink:href="#DejaVuSerif-32" transform="translate(242.822266 0)"/>
       <use xlink:href="#DejaVuSerif-35" transform="translate(306.445312 0)"/>
      </g>
     </g>
    </g>
    <g id="ytick_4">
     <g id="line2d_8">
      <g>
       <use xlink:href="#m44b05712cb" x="119.014063" y="218.534941" style="stroke: #000000; stroke-width: 0.8"/>
      </g>
     </g>
     <g id="text_9">
      <!-- −0.020 -->
      <g transform="translate(45.4 225.373534) scale(0.18 -0.18)">
       <use xlink:href="#DejaVuSerif-2212"/>
       <use xlink:href="#DejaVuSerif-30" transform="translate(83.789062 0)"/>
       <use xlink:href="#DejaVuSerif-2e" transform="translate(147.412109 0)"/>
       <use xlink:href="#DejaVuSerif-30" transform="translate(179.199219 0)"/>
       <use xlink:href="#DejaVuSerif-32" transform="translate(242.822266 0)"/>
       <use xlink:href="#DejaVuSerif-30" transform="translate(306.445312 0)"/>
      </g>
     </g>
    </g>
    <g id="ytick_5">
     <g id="line2d_9">
      <g>
       <use xlink:href="#m44b05712cb" x="119.014063" y="177.889476" style="stroke: #000000; stroke-width: 0.8"/>
      </g>
     </g>
     <g id="text_10">
      <!-- −0.015 -->
      <g transform="translate(45.4 184.728069) scale(0.18 -0.18)">
       <use xlink:href="#DejaVuSerif-2212"/>
       <use xlink:href="#DejaVuSerif-30" transform="translate(83.789062 0)"/>
       <use xlink:href="#DejaVuSerif-2e" transform="translate(147.412109 0)"/>
       <use xlink:href="#DejaVuSerif-30" transform="translate(179.199219 0)"/>
       <use xlink:href="#DejaVuSerif-31" transform="translate(242.822266 0)"/>
       <use xlink:href="#DejaVuSerif-35" transform="translate(306.445312 0)"/>
      </g>
     </g>
    </g>
    <g id="ytick_6">
     <g id="line2d_10">
      <g>
       <use xlink:href="#m44b05712cb" x="119.014063" y="137.244011" style="stroke: #000000; stroke-width: 0.8"/>
      </g>
     </g>
     <g id="text_11">
      <!-- −0.010 -->
      <g transform="translate(45.4 144.082604) scale(0.18 -0.18)">
       <use xlink:href="#DejaVuSerif-2212"/>
       <use xlink:href="#DejaVuSerif-30" transform="translate(83.789062 0)"/>
       <use xlink:href="#DejaVuSerif-2e" transform="translate(147.412109 0)"/>
       <use xlink:href="#DejaVuSerif-30" transform="translate(179.199219 0)"/>
       <use xlink:href="#DejaVuSerif-31" transform="translate(242.822266 0)"/>
       <use xlink:href="#DejaVuSerif-30" transform="translate(306.445312 0)"/>
      </g>
     </g>
    </g>
    <g id="ytick_7">
     <g id="line2d_11">
      <g>
       <use xlink:href="#m44b05712cb" x="119.014063" y="96.598546" style="stroke: #000000; stroke-width: 0.8"/>
      </g>
     </g>
     <g id="text_12">
      <!-- −0.005 -->
      <g transform="translate(45.4 103.437139) scale(0.18 -0.18)">
       <use xlink:href="#DejaVuSerif-2212"/>
       <use xlink:href="#DejaVuSerif-30" transform="translate(83.789062 0)"/>
       <use xlink:href="#DejaVuSerif-2e" transform="translate(147.412109 0)"/>
       <use xlink:href="#DejaVuSerif-30" transform="translate(179.199219 0)"/>
       <use xlink:href="#DejaVuSerif-30" transform="translate(242.822266 0)"/>
       <use xlink:href="#DejaVuSerif-35" transform="translate(306.445312 0)"/>
      </g>
     </g>
    </g>
    <g id="ytick_8">
     <g id="line2d_12">
      <g>
       <use xlink:href="#m44b05712cb" x="119.014063" y="55.953081" style="stroke: #000000; stroke-width: 0.8"/>
      </g>
     </g>
     <g id="text_13">
      <!-- 0.000 -->
      <g transform="translate(60.483438 62.791674) scale(0.18 -0.18)">
       <use xlink:href="#DejaVuSerif-30"/>
       <use xlink:href="#DejaVuSerif-2e" transform="translate(63.623047 0)"/>
       <use xlink:href="#DejaVuSerif-30" transform="translate(95.410156 0)"/>
       <use xlink:href="#DejaVuSerif-30" transform="translate(159.033203 0)"/>
       <use xlink:href="#DejaVuSerif-30" transform="translate(222.65625 0)"/>
      </g>
     </g>
    </g>
    <g id="text_14">
     <!-- Attitude Error $\sigma_{B/R}$ -->
     <g transform="translate(36.8 285.911563) rotate(-90) scale(0.2 -0.2)">
      <defs>
       <path id="DejaVuSerif-41" d="M 1281 1691 
L 2994 1691 
L 2138 3909 
L 1281 1691 
z
M -38 0 
L -38 331 
L 372 331 
L 2034 4666 
L 2559 4666 
L 4225 331 
L 4684 331 
L 4684 0 
L 2988 0 
L 2988 331 
L 3506 331 
L 3116 1356 
L 1153 1356 
L 763 331 
L 1275 331 
L 1275 0 
L -38 0 
z
" transform="scale(0.015625)"/>
       <path id="DejaVuSerif-74" d="M 691 2988 
L 184 2988 
L 184 3322 
L 691 3322 
L 691 4353 
L 1269 4353 
L 1269 3322 
L 2350 3322 
L 2350 2988 
L 1269 2988 
L 1269 878 
Q 1269 456 1350 337 
Q 1431 219 1650 219 
Q 1875 219 1978 351 
Q 2081 484 2088 781 
L 2522 781 
Q 2497 328 2275 118 
Q 2053 -91 1600 -91 
Q 1103 -91 897 129 
Q 691 350 691 878 
L 691 2988 
z
" transform="scale(0.015625)"/>
       <path id="DejaVuSerif-75" d="M 2266 3322 
L 3341 3322 
L 3341 331 
L 3884 331 
L 3884 0 
L 2766 0 
L 2766 588 
Q 2606 256 2353 82 
Q 2100 -91 1766 -91 
Q 1213 -91 952 223 
Q 691 538 691 1209 
L 691 2988 
L 172 2988 
L 172 3322 
L 1269 3322 
L 1269 1388 
Q 1269 781 1417 556 
Q 1566 331 1947 331 
Q 2347 331 2556 625 
Q 2766 919 2766 1478 
L 2766 2988 
L 2266 2988 
L 2266 3322 
z
" transform="scale(0.015625)"/>
       <path id="DejaVuSerif-64" d="M 3359 331 
L 3909 331 
L 3909 0 
L 2784 0 
L 2784 519 
Q 2616 206 2355 57 
Q 2094 -91 1709 -91 
Q 1097 -91 708 395 
Q 319 881 319 1663 
Q 319 2444 706 2928 
Q 1094 3413 1709 3413 
Q 2094 3413 2355 3264 
Q 2616 3116 2784 2803 
L 2784 4531 
L 2241 4531 
L 2241 4863 
L 3359 4863 
L 3359 331 
z
M 2784 1497 
L 2784 1825 
Q 2784 2422 2554 2737 
Q 2325 3053 1888 3053 
Q 1444 3053 1217 2703 
Q 991 2353 991 1663 
Q 991 975 1217 622 
Q 1444 269 1888 269 
Q 2325 269 2554 583 
Q 2784 897 2784 1497 
z
" transform="scale(0.015625)"/>
       <path id="DejaVuSerif-45" d="M 353 0 
L 353 331 
L 947 331 
L 947 4331 
L 353 4331 
L 353 4666 
L 4109 4666 
L 4109 3628 
L 3725 3628 
L 3725 4281 
L 1581 4281 
L 1581 2719 
L 3109 2719 
L 3109 3303 
L 3494 3303 
L 3494 1753 
L 3109 1753 
L 3109 2338 
L 1581 2338 
L 1581 384 
L 3775 384 
L 3775 1038 
L 4159 1038 
L 4159 0 
L 353 0 
z
" transform="scale(0.015625)"/>
       <path id="DejaVuSerif-72" d="M 3059 3328 
L 3059 2497 
L 2728 2497 
Q 2713 2744 2591 2866 
Q 2469 2988 2234 2988 
Q 1809 2988 1582 2694 
Q 1356 2400 1356 1850 
L 1356 331 
L 2022 331 
L 2022 0 
L 263 0 
L 263 331 
L 781 331 
L 781 2994 
L 231 2994 
L 231 3322 
L 1356 3322 
L 1356 2731 
Q 1525 3078 1790 3245 
Q 2056 3413 2438 3413 
Q 2578 3413 2733 3391 
Q 2888 3369 3059 3328 
z
" transform="scale(0.015625)"/>
       <path id="DejaVuSerif-6f" d="M 1925 219 
Q 2388 219 2623 584 
Q 2859 950 2859 1663 
Q 2859 2375 2623 2739 
Q 2388 3103 1925 3103 
Q 1463 3103 1227 2739 
Q 991 2375 991 1663 
Q 991 950 1228 584 
Q 1466 219 1925 219 
z
M 1925 -91 
Q 1200 -91 759 389 
Q 319 869 319 1663 
Q 319 2456 758 2934 
Q 1197 3413 1925 3413 
Q 2653 3413 3092 2934 
Q 3531 2456 3531 1663 
Q 3531 869 3092 389 
Q 2653 -91 1925 -91 
z
" transform="scale(0.015625)"/>
       <path id="DejaVuSans-Oblique-3c3" d="M 2219 3044 
Q 1744 3044 1422 2700 
Q 1081 2341 969 1747 
Q 844 1119 1044 756 
Q 1241 397 1706 397 
Q 2166 397 2503 759 
Q 2844 1122 2966 1747 
Q 3075 2319 2881 2700 
Q 2700 3044 2219 3044 
z
M 2309 3503 
L 4219 3500 
L 4106 2925 
L 3463 2925 
Q 3706 2438 3575 1747 
Q 3406 888 2884 400 
Q 2359 -91 1609 -91 
Q 856 -91 525 400 
Q 194 888 363 1747 
Q 528 2609 1050 3097 
Q 1484 3503 2309 3503 
z
" transform="scale(0.015625)"/>
       <path id="DejaVuSans-Oblique-42" d="M 1081 4666 
L 2694 4666 
Q 3350 4666 3675 4422 
Q 4000 4178 4000 3688 
Q 4000 3238 3720 2911 
Q 3441 2584 2988 2516 
Q 3375 2428 3569 2181 
Q 3763 1934 3763 1522 
Q 3763 819 3242 409 
Q 2722 0 1819 0 
L 172 0 
L 1081 4666 
z
M 1234 2228 
L 903 519 
L 1919 519 
Q 2491 519 2800 781 
Q 3109 1044 3109 1522 
Q 3109 1891 2904 2059 
Q 2700 2228 2247 2228 
L 1234 2228 
z
M 1606 4147 
L 1331 2741 
L 2272 2741 
Q 2775 2741 3058 2959 
Q 3341 3178 3341 3566 
Q 3341 3869 3150 4008 
Q 2959 4147 2541 4147 
L 1606 4147 
z
" transform="scale(0.015625)"/>
       <path id="DejaVuSans-2f" d="M 1625 4666 
L 2156 4666 
L 531 -594 
L 0 -594 
L 1625 4666 
z
" transform="scale(0.015625)"/>
       <path id="DejaVuSans-Oblique-52" d="M 1613 4147 
L 1294 2491 
L 2106 2491 
Q 2584 2491 2879 2755 
Q 3175 3019 3175 3444 
Q 3175 3784 2976 3965 
Q 2778 4147 2406 4147 
L 1613 4147 
z
M 2772 2241 
Q 2972 2194 3105 2009 
Q 3238 1825 3413 1275 
L 3809 0 
L 3144 0 
L 2778 1197 
Q 2638 1659 2453 1815 
Q 2269 1972 1888 1972 
L 1191 1972 
L 806 0 
L 172 0 
L 1081 4666 
L 2503 4666 
Q 3150 4666 3495 4373 
Q 3841 4081 3841 3531 
Q 3841 3044 3547 2687 
Q 3253 2331 2772 2241 
z
" transform="scale(0.015625)"/>
      </defs>
      <use xlink:href="#DejaVuSerif-41" transform="translate(0 0.015625)"/>
      <use xlink:href="#DejaVuSerif-74" transform="translate(72.216797 0.015625)"/>
      <use xlink:href="#DejaVuSerif-74" transform="translate(112.402344 0.015625)"/>
      <use xlink:href="#DejaVuSerif-69" transform="translate(152.587891 0.015625)"/>
      <use xlink:href="#DejaVuSerif-74" transform="translate(184.570312 0.015625)"/>
      <use xlink:href="#DejaVuSerif-75" transform="translate(224.755859 0.015625)"/>
      <use xlink:href="#DejaVuSerif-64" transform="translate(289.160156 0.015625)"/>
      <use xlink:href="#DejaVuSerif-65" transform="translate(353.173828 0.015625)"/>
      <use xlink:href="#DejaVuSerif-20" transform="translate(412.353516 0.015625)"/>
      <use xlink:href="#DejaVuSerif-45" transform="translate(444.140625 0.015625)"/>
      <use xlink:href="#DejaVuSerif-72" transform="translate(517.138672 0.015625)"/>
      <use xlink:href="#DejaVuSerif-72" transform="translate(564.941406 0.015625)"/>
      <use xlink:href="#DejaVuSerif-6f" transform="translate(612.744141 0.015625)"/>
      <use xlink:href="#DejaVuSerif-72" transform="translate(672.949219 0.015625)"/>
      <use xlink:href="#DejaVuSerif-20" transform="translate(720.751953 0.015625)"/>
      <use xlink:href="#DejaVuSans-Oblique-3c3" transform="translate(752.539062 0.015625)"/>
      <use xlink:href="#DejaVuSans-Oblique-42" transform="translate(815.917969 -16.390625) scale(0.7)"/>
      <use xlink:href="#DejaVuSans-2f" transform="translate(863.94043 -16.390625) scale(0.7)"/>
      <use xlink:href="#DejaVuSans-Oblique-52" transform="translate(886.299414 -16.390625) scale(0.7)"/>
     </g>
    </g>
   </g>
   <g id="line2d_13">
    <path d="M 135.531605 55.953081 
L 149.846809 55.974016 
L 150.067043 56.166241 
L 150.947978 56.166241 
L 151.168212 56.576397 
L 152.049148 56.576397 
L 152.269382 57.197214 
L 153.150317 57.197214 
L 153.370551 58.020466 
L 154.251487 58.020466 
L 154.471721 59.037012 
L 155.352656 59.037012 
L 155.57289 60.236849 
L 156.453826 60.236849 
L 156.67406 61.609157 
L 157.554995 61.609157 
L 157.775229 63.142362 
L 158.656165 63.142362 
L 158.876399 64.824182 
L 159.757334 64.824182 
L 159.977568 66.641692 
L 160.858504 66.641692 
L 161.078738 68.581378 
L 161.959673 68.581378 
L 162.179907 70.629202 
L 163.060843 70.629202 
L 163.281077 72.770659 
L 164.162012 72.770659 
L 164.382246 74.990842 
L 165.263182 74.990842 
L 165.483416 77.274502 
L 166.364351 77.274502 
L 166.584585 79.606113 
L 167.465521 79.606113 
L 167.685755 81.969932 
L 168.56669 81.969932 
L 168.786924 84.350062 
L 169.66786 84.350062 
L 169.888094 86.730514 
L 170.769029 86.730514 
L 170.989263 89.095265 
L 171.870199 89.095265 
L 172.090433 91.42832 
L 172.971368 91.42832 
L 173.191602 93.713769 
L 174.072538 93.713769 
L 174.292772 95.93584 
L 175.173707 95.93584 
L 175.393941 98.078959 
L 176.274877 98.078959 
L 176.495111 100.1278 
L 177.376046 100.1278 
L 177.59628 102.067333 
L 178.477216 102.067333 
L 178.69745 103.882876 
L 179.578385 103.882876 
L 179.798619 105.560137 
L 180.679555 105.560137 
L 180.899789 107.085262 
L 181.780724 107.085262 
L 182.000958 108.415352 
L 182.881894 108.415352 
L 183.102128 109.48602 
L 183.983063 109.48602 
L 184.203297 110.246044 
L 185.084233 110.246044 
L 185.304467 110.662875 
L 187.286572 110.725888 
L 187.506806 110.440581 
L 188.387741 110.440581 
L 188.607975 109.8228 
L 189.488911 109.8228 
L 189.709145 108.894458 
L 190.59008 108.894458 
L 190.810314 107.680398 
L 191.69125 107.680398 
L 191.911484 106.206173 
L 192.79242 106.206173 
L 193.012653 104.496497 
L 193.893589 104.496497 
L 194.113823 102.574246 
L 194.994759 102.574246 
L 195.214992 100.459841 
L 196.095928 100.459841 
L 196.316162 98.170931 
L 197.197098 98.170931 
L 197.417331 95.722293 
L 198.298267 95.722293 
L 198.518501 93.12811 
L 199.399437 93.12811 
L 199.61967 90.456634 
L 200.500606 90.456634 
L 200.72084 87.810364 
L 201.601776 87.810364 
L 201.822009 85.255747 
L 202.702945 85.255747 
L 202.923179 82.831902 
L 203.804115 82.831902 
L 204.024348 80.559345 
L 204.905284 80.559345 
L 205.125518 78.446919 
L 206.006454 78.446919 
L 206.226688 76.495391 
L 207.107623 76.495391 
L 207.327857 74.699121 
L 208.208793 74.699121 
L 208.429027 73.050209 
L 209.309962 73.050209 
L 209.530196 71.541639 
L 210.411132 71.541639 
L 210.631366 70.166551 
L 211.512301 70.166551 
L 211.732535 68.915413 
L 212.613471 68.915413 
L 212.833705 67.776478 
L 213.71464 67.776478 
L 213.934874 66.738474 
L 214.81581 66.738474 
L 215.036044 65.790814 
L 215.916979 65.790814 
L 216.137213 64.923729 
L 217.018149 64.923729 
L 217.238383 64.128335 
L 218.119318 64.128335 
L 218.339552 63.396641 
L 219.220488 63.396641 
L 219.440722 62.721634 
L 220.321657 62.721634 
L 220.541891 62.09769 
L 221.422827 62.09769 
L 221.643061 61.520679 
L 222.523996 61.520679 
L 222.74423 60.987494 
L 223.625166 60.987494 
L 223.8454 60.495606 
L 224.726335 60.495606 
L 224.946569 60.042786 
L 225.827505 60.042786 
L 226.047739 59.62694 
L 226.928674 59.62694 
L 227.148908 59.246027 
L 228.029844 59.246027 
L 228.250078 58.898014 
L 229.131013 58.898014 
L 229.351247 58.580874 
L 230.232183 58.580874 
L 230.452417 58.292585 
L 231.333352 58.292585 
L 231.553586 58.031151 
L 232.434522 58.031151 
L 232.654756 57.794615 
L 233.535691 57.794615 
L 233.755925 57.581079 
L 234.636861 57.581079 
L 234.857095 57.388714 
L 235.73803 57.388714 
L 235.958264 57.215777 
L 236.8392 57.215777 
L 237.059434 57.060614 
L 237.940369 57.060614 
L 238.160603 56.921671 
L 239.041539 56.921671 
L 239.261773 56.79749 
L 241.243878 56.686716 
L 241.464112 56.588093 
L 243.446217 56.500459 
L 243.666451 56.422748 
L 245.648556 56.353978 
L 245.978907 56.293255 
L 248.952064 56.192743 
L 249.282415 56.151532 
L 253.356742 56.056856 
L 253.907327 56.033264 
L 261.064929 56.085131 
L 261.285163 58.184311 
L 262.166098 58.184311 
L 262.386332 60.234372 
L 263.267268 60.234372 
L 263.487502 62.225831 
L 264.368438 62.225831 
L 264.588671 64.149332 
L 265.469607 64.149332 
L 265.689841 65.995666 
L 266.570777 65.995666 
L 266.79101 67.755796 
L 267.671946 67.755796 
L 267.89218 69.420879 
L 268.773116 69.420879 
L 268.993349 70.982288 
L 269.874285 70.982288 
L 270.094519 72.431632 
L 270.975455 72.431632 
L 271.195688 73.760773 
L 272.076624 73.760773 
L 272.296858 74.961848 
L 273.177794 74.961848 
L 273.398027 76.02728 
L 274.278963 76.02728 
L 274.499197 76.949798 
L 275.380133 76.949798 
L 275.600366 77.722347 
L 276.481302 77.722347 
L 276.701536 78.336912 
L 277.582472 78.336912 
L 277.802705 78.786973 
L 278.683641 78.786973 
L 278.903875 79.069667 
L 279.784811 79.069667 
L 280.005045 79.185184 
L 281.98715 79.136223 
L 282.207384 78.927522 
L 283.088319 78.927522 
L 283.308553 78.565442 
L 284.189489 78.565442 
L 284.409723 78.057614 
L 285.290658 78.057614 
L 285.510892 77.412629 
L 286.391828 77.412629 
L 286.612062 76.639777 
L 287.492997 76.639777 
L 287.713231 75.748825 
L 288.594167 75.748825 
L 288.814401 74.749835 
L 289.695336 74.749835 
L 289.91557 73.653007 
L 290.796506 73.653007 
L 291.01674 72.468556 
L 291.897675 72.468556 
L 292.117909 71.206616 
L 292.998845 71.206616 
L 293.219079 69.877155 
L 294.100014 69.877155 
L 294.320248 68.489918 
L 295.201184 68.489918 
L 295.421418 67.054386 
L 296.302353 67.054386 
L 296.522587 65.579739 
L 297.403523 65.579739 
L 297.623757 64.074839 
L 298.504692 64.074839 
L 298.724926 62.54822 
L 299.605862 62.54822 
L 299.826096 61.008085 
L 300.707031 61.008085 
L 300.927265 59.462309 
L 301.808201 59.462309 
L 302.028435 57.918446 
L 302.90937 57.918446 
L 303.129604 56.383743 
L 304.01054 56.383743 
L 304.230774 54.865153 
L 305.111709 54.865153 
L 305.331943 53.369351 
L 306.212879 53.369351 
L 306.433113 51.902758 
L 307.314048 51.902758 
L 307.534282 50.47155 
L 308.415218 50.47155 
L 308.635452 49.081687 
L 309.516387 49.081687 
L 309.736621 47.738927 
L 310.617557 47.738927 
L 310.837791 46.448846 
L 311.718726 46.448846 
L 311.93896 45.216857 
L 312.819896 45.216857 
L 313.04013 44.04823 
L 313.921065 44.04823 
L 314.141299 42.948105 
L 315.022235 42.948105 
L 315.242469 41.921513 
L 316.123404 41.921513 
L 316.343638 40.973387 
L 317.224574 40.973387 
L 317.444808 40.10858 
L 318.325743 40.10858 
L 318.545977 39.331879 
L 319.426913 39.331879 
L 319.647147 38.648015 
L 320.528082 38.648015 
L 320.748316 38.061677 
L 321.629252 38.061677 
L 321.849486 37.577525 
L 322.730421 37.577525 
L 322.950655 37.233914 
L 323.831591 37.233914 
L 324.051825 37.101051 
L 324.93276 37.101051 
L 325.152994 37.239475 
L 326.03393 37.239475 
L 326.254164 37.695635 
L 327.135099 37.695635 
L 327.355333 38.504121 
L 328.236269 38.504121 
L 328.456503 39.613047 
L 329.337438 39.613047 
L 329.557672 40.903819 
L 330.438608 40.903819 
L 330.658842 42.285813 
L 331.539777 42.285813 
L 331.760011 43.716059 
L 332.640947 43.716059 
L 332.861181 45.188186 
L 333.742116 45.188186 
L 333.96235 46.696705 
L 334.843286 46.696705 
L 335.06352 48.233916 
L 335.944455 48.233916 
L 336.164689 49.790493 
L 337.045625 49.790493 
L 337.265859 51.355971 
L 338.146795 51.355971 
L 338.367028 52.919153 
L 339.247964 52.919153 
L 339.468198 54.468442 
L 340.349134 54.468442 
L 340.569367 55.992112 
L 341.450303 55.992112 
L 341.670537 57.478526 
L 342.551473 57.478526 
L 342.771706 58.916312 
L 343.652642 58.916312 
L 343.872876 60.29449 
L 344.753812 60.29449 
L 344.974045 61.602583 
L 345.854981 61.602583 
L 346.075215 62.830682 
L 346.956151 62.830682 
L 347.176384 63.969506 
L 348.05732 63.969506 
L 348.277554 65.010426 
L 349.15849 65.010426 
L 349.378723 65.945487 
L 350.259659 65.945487 
L 350.479893 66.76741 
L 351.360829 66.76741 
L 351.581063 67.469585 
L 352.461998 67.469585 
L 352.682232 68.046057 
L 353.563168 68.046057 
L 353.783402 68.491503 
L 354.664337 68.491503 
L 354.884571 68.801211 
L 355.765507 68.801211 
L 355.985741 68.971044 
L 359.069015 68.877234 
L 359.289249 68.607914 
L 360.170185 68.607914 
L 360.390419 68.187293 
L 361.271354 68.187293 
L 361.491588 67.626685 
L 362.372524 67.626685 
L 362.592758 66.964182 
L 363.473693 66.964182 
L 363.693927 66.244955 
L 364.574863 66.244955 
L 364.795097 65.502404 
L 365.676032 65.502404 
L 365.896266 64.760675 
L 366.777202 64.760675 
L 366.997436 64.036727 
L 367.878371 64.036727 
L 368.098605 63.342016 
L 368.979541 63.342016 
L 369.199775 62.683844 
L 370.08071 62.683844 
L 370.300944 62.066418 
L 371.18188 62.066418 
L 371.402114 61.460759 
L 372.283049 61.460759 
L 372.503283 60.833696 
L 373.384219 60.833696 
L 373.604453 60.218018 
L 374.485388 60.218018 
L 374.705622 59.641169 
L 375.586558 59.641169 
L 375.806792 59.11985 
L 376.687727 59.11985 
L 376.907961 58.662314 
L 377.788897 58.662314 
L 378.009131 58.270736 
L 378.890066 58.270736 
L 379.1103 57.942569 
L 379.991236 57.942569 
L 380.21147 57.671963 
L 381.092405 57.671963 
L 381.312639 57.45145 
L 382.193575 57.45145 
L 382.413809 57.273179 
L 383.294744 57.273179 
L 383.514978 57.129644 
L 384.395914 57.129644 
L 384.616148 57.014069 
L 386.598253 56.920586 
L 386.818487 56.844265 
L 388.800592 56.781073 
L 389.130943 56.72778 
L 392.1041 56.641352 
L 392.544568 56.604811 
L 396.508778 56.509649 
L 396.949246 56.480903 
L 402.014626 56.374814 
L 402.565211 56.350256 
L 408.621643 56.23999 
L 409.282345 56.220618 
L 417.430999 56.110666 
L 418.642286 56.086996 
L 440.555559 55.976194 
L 446.501874 55.96537 
L 465.882457 55.954641 
L 465.882457 55.954641 
" clip-path="url(#pc3075b889f)" style="fill: none; stroke: #2b737e; stroke-width: 1.5; stroke-linecap: square"/>
   </g>
   <g id="line2d_14">
    <path d="M 135.531605 55.953081 
L 150.947978 55.90652 
L 151.168212 55.8298 
L 153.150317 55.733197 
L 153.370551 55.631371 
L 155.352656 55.538369 
L 155.57289 55.467573 
L 159.757334 55.511358 
L 159.977568 55.648425 
L 160.858504 55.648425 
L 161.078738 55.863201 
L 161.959673 55.863201 
L 162.179907 56.16427 
L 163.060843 56.16427 
L 163.281077 56.559315 
L 164.162012 56.559315 
L 164.382246 57.055103 
L 165.263182 57.055103 
L 165.483416 57.657472 
L 166.364351 57.657472 
L 166.584585 58.371314 
L 167.465521 58.371314 
L 167.685755 59.20058 
L 168.56669 59.20058 
L 168.786924 60.148268 
L 169.66786 60.148268 
L 169.888094 61.21643 
L 170.769029 61.21643 
L 170.989263 62.406178 
L 171.870199 62.406178 
L 172.090433 63.717689 
L 172.971368 63.717689 
L 173.191602 65.150222 
L 174.072538 65.150222 
L 174.292772 66.702131 
L 175.173707 66.702131 
L 175.393941 68.370883 
L 176.274877 68.370883 
L 176.495111 70.153086 
L 177.376046 70.153086 
L 177.59628 72.044506 
L 178.477216 72.044506 
L 178.69745 74.0401 
L 179.578385 74.0401 
L 179.798619 76.134046 
L 180.679555 76.134046 
L 180.899789 78.319772 
L 181.780724 78.319772 
L 182.000958 80.591168 
L 182.881894 80.591168 
L 183.102128 82.939933 
L 183.983063 82.939933 
L 184.203297 85.309696 
L 185.084233 85.309696 
L 185.304467 87.600064 
L 186.185402 87.600064 
L 186.405636 89.72269 
L 187.286572 89.72269 
L 187.506806 91.608125 
L 188.387741 91.608125 
L 188.607975 93.202883 
L 189.488911 93.202883 
L 189.709145 94.466892 
L 190.59008 94.466892 
L 190.810314 95.371302 
L 191.69125 95.371302 
L 191.911484 95.896573 
L 192.79242 95.896573 
L 193.012653 96.030835 
L 193.893589 96.030835 
L 194.113823 95.76847 
L 194.994759 95.76847 
L 195.214992 95.1089 
L 196.095928 95.1089 
L 196.316162 94.055541 
L 197.197098 94.055541 
L 197.417331 92.614921 
L 198.298267 92.614921 
L 198.518501 90.795924 
L 199.399437 90.795924 
L 199.61967 88.629939 
L 200.500606 88.629939 
L 200.72084 86.221302 
L 201.601776 86.221302 
L 201.822009 83.704573 
L 202.702945 83.704573 
L 202.923179 81.178285 
L 203.804115 81.178285 
L 204.024348 78.699159 
L 204.905284 78.699159 
L 205.125518 76.290775 
L 206.006454 76.290775 
L 206.226688 73.969288 
L 207.107623 73.969288 
L 207.327857 71.750108 
L 208.208793 71.750108 
L 208.429027 69.647065 
L 209.309962 69.647065 
L 209.530196 67.672226 
L 210.411132 67.672226 
L 210.631366 65.836037 
L 211.512301 65.836037 
L 211.732535 64.147335 
L 212.613471 64.147335 
L 212.833705 62.613 
L 213.71464 62.613 
L 213.934874 61.237816 
L 214.81581 61.237816 
L 215.036044 60.024618 
L 215.916979 60.024618 
L 216.137213 58.974462 
L 217.018149 58.974462 
L 217.238383 58.086795 
L 218.119318 58.086795 
L 218.339552 57.359633 
L 219.220488 57.359633 
L 219.440722 56.781871 
L 220.321657 56.781871 
L 220.541891 56.329499 
L 221.422827 56.329499 
L 221.643061 55.977003 
L 222.523996 55.977003 
L 222.74423 55.704194 
L 223.625166 55.704194 
L 223.8454 55.495089 
L 224.726335 55.495089 
L 224.946569 55.337014 
L 225.827505 55.337014 
L 226.047739 55.219899 
L 228.029844 55.135713 
L 228.360195 55.07803 
L 240.142708 55.183655 
L 240.583176 55.220403 
L 243.446217 55.295536 
L 243.886685 55.333008 
L 247.850895 55.441212 
L 248.291363 55.475161 
L 252.255573 55.568883 
L 252.806158 55.597212 
L 257.76142 55.695643 
L 258.422122 55.716637 
L 259.963759 55.736261 
L 260.183993 56.510837 
L 261.064929 56.510837 
L 261.285163 61.631549 
L 262.166098 61.631549 
L 262.386332 66.809208 
L 263.267268 66.809208 
L 263.487502 72.042311 
L 264.368438 72.042311 
L 264.588671 77.32888 
L 265.469607 77.32888 
L 265.689841 82.666474 
L 266.570777 82.666474 
L 266.79101 88.052205 
L 267.671946 88.052205 
L 267.89218 93.48275 
L 268.773116 93.48275 
L 268.993349 98.954368 
L 269.874285 98.954368 
L 270.094519 104.462922 
L 270.975455 104.462922 
L 271.195688 110.003889 
L 272.076624 110.003889 
L 272.296858 115.572386 
L 273.177794 115.572386 
L 273.398027 121.163182 
L 274.278963 121.163182 
L 274.499197 126.770728 
L 275.380133 126.770728 
L 275.600366 132.386941 
L 276.481302 132.386941 
L 276.701536 137.973357 
L 277.582472 137.973357 
L 277.802705 143.469313 
L 278.683641 143.469313 
L 278.903875 148.825094 
L 279.784811 148.825094 
L 280.005045 154.000431 
L 280.88598 154.000431 
L 281.106214 158.96316 
L 281.98715 158.96316 
L 282.207384 163.688021 
L 283.088319 163.688021 
L 283.308553 168.155596 
L 284.189489 168.155596 
L 284.409723 172.351376 
L 285.290658 172.351376 
L 285.510892 176.264941 
L 286.391828 176.264941 
L 286.612062 179.889248 
L 287.492997 179.889248 
L 287.713231 183.220017 
L 288.594167 183.220017 
L 288.814401 186.255195 
L 289.695336 186.255195 
L 289.91557 188.994511 
L 290.796506 188.994511 
L 291.01674 191.439085 
L 291.897675 191.439085 
L 292.117909 193.591106 
L 292.998845 193.591106 
L 293.219079 195.453563 
L 294.100014 195.453563 
L 294.320248 197.030017 
L 295.201184 197.030017 
L 295.421418 198.32442 
L 296.302353 198.32442 
L 296.522587 199.34096 
L 297.403523 199.34096 
L 297.623757 200.083948 
L 298.504692 200.083948 
L 298.724926 200.557717 
L 299.605862 200.557717 
L 299.826096 200.766553 
L 301.808201 200.71464 
L 302.028435 200.406017 
L 302.90937 200.406017 
L 303.129604 199.844556 
L 304.01054 199.844556 
L 304.230774 199.033941 
L 305.111709 199.033941 
L 305.331943 197.97766 
L 306.212879 197.97766 
L 306.433113 196.679004 
L 307.314048 196.679004 
L 307.534282 195.141072 
L 308.415218 195.141072 
L 308.635452 193.366774 
L 309.516387 193.366774 
L 309.736621 191.358842 
L 310.617557 191.358842 
L 310.837791 189.119845 
L 311.718726 189.119845 
L 311.93896 186.652202 
L 312.819896 186.652202 
L 313.04013 183.958194 
L 313.921065 183.958194 
L 314.141299 181.03998 
L 315.022235 181.03998 
L 315.242469 177.899613 
L 316.123404 177.899613 
L 316.343638 174.539054 
L 317.224574 174.539054 
L 317.444808 170.960187 
L 318.325743 170.960187 
L 318.545977 167.164832 
L 319.426913 167.164832 
L 319.647147 163.154756 
L 320.528082 163.154756 
L 320.748316 158.931689 
L 321.629252 158.931689 
L 321.849486 154.497334 
L 322.730421 154.497334 
L 322.950655 149.852155 
L 323.831591 149.852155 
L 324.051825 145.000255 
L 324.93276 145.000255 
L 325.152994 139.953545 
L 326.03393 139.953545 
L 326.254164 134.729266 
L 327.135099 134.729266 
L 327.355333 129.360567 
L 328.236269 129.360567 
L 328.456503 123.962022 
L 329.337438 123.962022 
L 329.557672 118.682494 
L 330.438608 118.682494 
L 330.658842 113.598983 
L 331.539777 113.598983 
L 331.760011 108.729022 
L 332.640947 108.729022 
L 332.861181 104.071905 
L 333.742116 104.071905 
L 333.96235 99.627428 
L 334.843286 99.627428 
L 335.06352 95.395324 
L 335.944455 95.395324 
L 336.164689 91.37499 
L 337.045625 91.37499 
L 337.265859 87.565322 
L 338.146795 87.565322 
L 338.367028 83.964654 
L 339.247964 83.964654 
L 339.468198 80.570749 
L 340.349134 80.570749 
L 340.569367 77.380848 
L 341.450303 77.380848 
L 341.670537 74.391726 
L 342.551473 74.391726 
L 342.771706 71.599783 
L 343.652642 71.599783 
L 343.872876 69.001129 
L 344.753812 69.001129 
L 344.974045 66.591673 
L 345.854981 66.591673 
L 346.075215 64.367212 
L 346.956151 64.367212 
L 347.176384 62.323504 
L 348.05732 62.323504 
L 348.277554 60.456343 
L 349.15849 60.456343 
L 349.378723 58.761619 
L 350.259659 58.761619 
L 350.479893 57.235366 
L 351.360829 57.235366 
L 351.581063 55.873804 
L 352.461998 55.873804 
L 352.682232 54.673375 
L 353.563168 54.673375 
L 353.783402 53.63076 
L 354.664337 53.63076 
L 354.884571 52.742902 
L 355.765507 52.742902 
L 355.985741 52.007008 
L 356.866676 52.007008 
L 357.08691 51.420558 
L 357.967846 51.420558 
L 358.18808 50.9813 
L 359.069015 50.9813 
L 359.289249 50.687243 
L 360.170185 50.687243 
L 360.390419 50.536651 
L 363.473693 50.607653 
L 363.693927 50.760327 
L 364.574863 50.760327 
L 364.795097 50.952569 
L 365.676032 50.952569 
L 365.896266 51.166996 
L 366.777202 51.166996 
L 366.997436 51.392102 
L 367.878371 51.392102 
L 368.098605 51.620404 
L 368.979541 51.620404 
L 369.199775 51.847135 
L 370.08071 51.847135 
L 370.300944 52.069336 
L 371.18188 52.069336 
L 371.402114 53.789935 
L 372.283049 53.789935 
L 372.503283 55.600366 
L 373.384219 55.600366 
L 373.604453 57.039409 
L 374.485388 57.039409 
L 374.705622 58.121908 
L 375.586558 58.121908 
L 375.806792 58.882094 
L 376.687727 58.882094 
L 376.907961 59.357104 
L 377.788897 59.357104 
L 378.009131 59.59326 
L 381.092405 59.588929 
L 381.312639 59.446079 
L 382.193575 59.446079 
L 382.413809 59.253546 
L 383.294744 59.253546 
L 383.514978 59.033119 
L 384.395914 59.033119 
L 384.616148 58.800209 
L 385.497083 58.800209 
L 385.717317 58.56548 
L 386.598253 58.56548 
L 386.818487 58.336096 
L 387.699422 58.336096 
L 387.919656 58.116669 
L 388.800592 58.116669 
L 389.020826 57.909977 
L 389.901761 57.909977 
L 390.121995 57.717493 
L 391.002931 57.717493 
L 391.223165 57.539787 
L 392.1041 57.539787 
L 392.324334 57.376815 
L 393.20527 57.376815 
L 393.425504 57.228126 
L 394.306439 57.228126 
L 394.526673 57.093022 
L 395.407609 57.093022 
L 395.627843 56.970658 
L 397.609948 56.860122 
L 397.830182 56.760483 
L 399.812287 56.670824 
L 400.032521 56.590267 
L 402.014626 56.517982 
L 402.23486 56.453195 
L 405.318134 56.343315 
L 405.648485 56.296963 
L 408.621643 56.2187 
L 409.062111 56.18584 
L 414.127491 56.087111 
L 414.898309 56.069012 
L 430.645033 55.959895 
L 436.481232 55.950931 
L 465.882457 55.951065 
L 465.882457 55.951065 
" clip-path="url(#pc3075b889f)" style="fill: none; stroke: #5ea04b; stroke-width: 1.5; stroke-linecap: square"/>
   </g>
   <g id="line2d_15">
    <path d="M 135.531605 55.953081 
L 148.745639 55.953081 
L 148.965873 61.778022 
L 149.846809 61.778022 
L 150.067043 77.548986 
L 150.947978 77.548986 
L 151.168212 92.677154 
L 152.049148 92.677154 
L 152.269382 107.159708 
L 153.150317 107.159708 
L 153.370551 120.993956 
L 154.251487 120.993956 
L 154.471721 134.177343 
L 155.352656 134.177343 
L 155.57289 146.707468 
L 156.453826 146.707468 
L 156.67406 158.582088 
L 157.554995 158.582088 
L 157.775229 169.799137 
L 158.656165 169.799137 
L 158.876399 180.356727 
L 159.757334 180.356727 
L 159.977568 190.253161 
L 160.858504 190.253161 
L 161.078738 199.486941 
L 161.959673 199.486941 
L 162.179907 208.05677 
L 163.060843 208.05677 
L 163.281077 215.961564 
L 164.162012 215.961564 
L 164.382246 223.20045 
L 165.263182 223.20045 
L 165.483416 229.772773 
L 166.364351 229.772773 
L 166.584585 235.678098 
L 167.465521 235.678098 
L 167.685755 240.916212 
L 168.56669 240.916212 
L 168.786924 245.487123 
L 169.66786 245.487123 
L 169.888094 249.391061 
L 170.769029 249.391061 
L 170.989263 252.628475 
L 171.870199 252.628475 
L 172.090433 255.200033 
L 172.971368 255.200033 
L 173.191602 257.106618 
L 174.072538 257.106618 
L 174.292772 258.349325 
L 175.173707 258.349325 
L 175.393941 258.929451 
L 177.376046 258.848499 
L 177.59628 258.108163 
L 178.477216 258.108163 
L 178.69745 256.710326 
L 179.578385 256.710326 
L 179.798619 254.657049 
L 180.679555 254.657049 
L 180.899789 251.950567 
L 181.780724 251.950567 
L 182.000958 248.621085 
L 182.881894 248.621085 
L 183.102128 244.720553 
L 183.983063 244.720553 
L 184.203297 240.33166 
L 185.084233 240.33166 
L 185.304467 235.563123 
L 186.185402 235.563123 
L 186.405636 230.49633 
L 187.286572 230.49633 
L 187.506806 225.184292 
L 188.387741 225.184292 
L 188.607975 219.659345 
L 189.488911 219.659345 
L 189.709145 213.939036 
L 190.59008 213.939036 
L 190.810314 208.030593 
L 191.69125 208.030593 
L 191.911484 201.934274 
L 192.79242 201.934274 
L 193.012653 195.645855 
L 193.893589 195.645855 
L 194.113823 189.158435 
L 194.994759 189.158435 
L 195.214992 182.463731 
L 196.095928 182.463731 
L 196.316162 175.552976 
L 197.197098 175.552976 
L 197.417331 168.417515 
L 198.298267 168.417515 
L 198.518501 161.051318 
L 199.399437 161.051318 
L 199.61967 153.522154 
L 200.500606 153.522154 
L 200.72084 145.997682 
L 201.601776 145.997682 
L 201.822009 138.644675 
L 202.702945 138.644675 
L 202.923179 131.577593 
L 203.804115 131.577593 
L 204.024348 124.85886 
L 204.905284 124.85886 
L 205.125518 118.510579 
L 206.006454 118.510579 
L 206.226688 112.540485 
L 207.107623 112.540485 
L 207.327857 106.950028 
L 208.208793 106.950028 
L 208.429027 101.737813 
L 209.309962 101.737813 
L 209.530196 96.902288 
L 210.411132 96.902288 
L 210.631366 92.441002 
L 211.512301 92.441002 
L 211.732535 88.347903 
L 212.613471 88.347903 
L 212.833705 84.613538 
L 213.71464 84.613538 
L 213.934874 81.227329 
L 214.81581 81.227329 
L 215.036044 78.177732 
L 215.916979 78.177732 
L 216.137213 75.452388 
L 217.018149 75.452388 
L 217.238383 73.038246 
L 218.119318 73.038246 
L 218.339552 70.921686 
L 219.220488 70.921686 
L 219.440722 69.081216 
L 220.321657 69.081216 
L 220.541891 67.48363 
L 221.422827 67.48363 
L 221.643061 66.09447 
L 222.523996 66.09447 
L 222.74423 64.884507 
L 223.625166 64.884507 
L 223.8454 63.828899 
L 224.726335 63.828899 
L 224.946569 62.906489 
L 225.827505 62.906489 
L 226.047739 62.099222 
L 226.928674 62.099222 
L 227.148908 61.391664 
L 228.029844 61.391664 
L 228.250078 60.770596 
L 229.131013 60.770596 
L 229.351247 60.224679 
L 230.232183 60.224679 
L 230.452417 59.744167 
L 231.333352 59.744167 
L 231.553586 59.320672 
L 232.434522 59.320672 
L 232.654756 58.946959 
L 233.535691 58.946959 
L 233.755925 58.616781 
L 234.636861 58.616781 
L 234.857095 58.324731 
L 235.73803 58.324731 
L 235.958264 58.066125 
L 236.8392 58.066125 
L 237.059434 57.836896 
L 237.940369 57.836896 
L 238.160603 57.633507 
L 239.041539 57.633507 
L 239.261773 57.452878 
L 240.142708 57.452878 
L 240.362942 57.292321 
L 241.243878 57.292321 
L 241.464112 57.149489 
L 242.345047 57.149489 
L 242.565281 57.022328 
L 243.446217 57.022328 
L 243.666451 56.909036 
L 245.648556 56.808032 
L 245.86879 56.717927 
L 247.850895 56.637499 
L 248.071129 56.565668 
L 250.053234 56.501485 
L 250.383585 56.444107 
L 253.356742 56.346883 
L 253.687093 56.305794 
L 257.76142 56.206554 
L 258.312005 56.180115 
L 259.963759 56.156421 
L 260.183993 64.962183 
L 261.064929 64.962183 
L 261.285163 82.686053 
L 262.166098 82.686053 
L 262.386332 99.761019 
L 263.267268 99.761019 
L 263.487502 116.188005 
L 264.368438 116.188005 
L 264.588671 131.968011 
L 265.469607 131.968011 
L 265.689841 147.102112 
L 266.570777 147.102112 
L 266.79101 161.591458 
L 267.671946 161.591458 
L 267.89218 175.437274 
L 268.773116 175.437274 
L 268.993349 188.640857 
L 269.874285 188.640857 
L 270.094519 201.203578 
L 270.975455 201.203578 
L 271.195688 213.126878 
L 272.076624 213.126878 
L 272.296858 224.412269 
L 273.177794 224.412269 
L 273.398027 235.061329 
L 274.278963 235.061329 
L 274.499197 245.0757 
L 275.380133 245.0757 
L 275.600366 254.45921 
L 276.481302 254.45921 
L 276.701536 263.244429 
L 277.582472 263.244429 
L 277.802705 271.484676 
L 278.683641 271.484676 
L 278.903875 279.222447 
L 279.784811 279.222447 
L 280.005045 286.490996 
L 280.88598 286.490996 
L 281.106214 293.315749 
L 281.98715 293.315749 
L 282.207384 299.715554 
L 283.088319 299.715554 
L 283.308553 305.703794 
L 284.189489 305.703794 
L 284.409723 311.289349 
L 285.290658 311.289349 
L 285.510892 316.477443 
L 286.391828 316.477443 
L 286.612062 321.270377 
L 287.492997 321.270377 
L 287.713231 325.668151 
L 288.594167 325.668151 
L 288.814401 329.669003 
L 289.695336 329.669003 
L 289.91557 333.26986 
L 290.796506 333.26986 
L 291.01674 336.466713 
L 291.897675 336.466713 
L 292.117909 339.254938 
L 292.998845 339.254938 
L 293.219079 341.629553 
L 294.100014 341.629553 
L 294.320248 343.585425 
L 295.201184 343.585425 
L 295.421418 345.117441 
L 296.302353 345.117441 
L 296.522587 346.220639 
L 297.403523 346.220639 
L 297.623757 346.890311 
L 298.504692 346.890311 
L 298.724926 347.122074 
L 299.605862 347.122074 
L 299.826096 346.91193 
L 300.707031 346.91193 
L 300.927265 346.256299 
L 301.808201 346.256299 
L 302.028435 345.152038 
L 302.90937 345.152038 
L 303.129604 343.596458 
L 304.01054 343.596458 
L 304.230774 341.587315 
L 305.111709 341.587315 
L 305.331943 339.122811 
L 306.212879 339.122811 
L 306.433113 336.201576 
L 307.314048 336.201576 
L 307.534282 332.822655 
L 308.415218 332.822655 
L 308.635452 328.985483 
L 309.516387 328.985483 
L 309.736621 324.68987 
L 310.617557 324.68987 
L 310.837791 319.935973 
L 311.718726 319.935973 
L 311.93896 314.724274 
L 312.819896 314.724274 
L 313.04013 309.055558 
L 313.921065 309.055558 
L 314.141299 302.930889 
L 315.022235 302.930889 
L 315.242469 296.351589 
L 316.123404 296.351589 
L 316.343638 289.319218 
L 317.224574 289.319218 
L 317.444808 281.835552 
L 318.325743 281.835552 
L 318.545977 273.902567 
L 319.426913 273.902567 
L 319.647147 265.52242 
L 320.528082 265.52242 
L 320.748316 256.697435 
L 321.629252 256.697435 
L 321.849486 247.43009 
L 322.730421 247.43009 
L 322.950655 237.756168 
L 323.831591 237.756168 
L 324.051825 227.739196 
L 324.93276 227.739196 
L 325.152994 217.427784 
L 326.03393 217.427784 
L 326.254164 206.85406 
L 327.135099 206.85406 
L 327.355333 196.050969 
L 328.236269 196.050969 
L 328.456503 185.18958 
L 329.337438 185.18958 
L 329.557672 174.52846 
L 330.438608 174.52846 
L 330.658842 164.231927 
L 331.539777 164.231927 
L 331.760011 154.362357 
L 332.640947 154.362357 
L 332.861181 144.926089 
L 333.742116 144.926089 
L 333.96235 135.923168 
L 334.843286 135.923168 
L 335.06352 127.351451 
L 335.944455 127.351451 
L 336.164689 119.207375 
L 337.045625 119.207375 
L 337.265859 111.486505 
L 338.146795 111.486505 
L 338.367028 104.183931 
L 339.247964 104.183931 
L 339.468198 97.294536 
L 340.349134 97.294536 
L 340.569367 90.813175 
L 341.450303 90.813175 
L 341.670537 84.73479 
L 342.551473 84.73479 
L 342.771706 79.054475 
L 343.652642 79.054475 
L 343.872876 73.767508 
L 344.753812 73.767508 
L 344.974045 68.869362 
L 345.854981 68.869362 
L 346.075215 64.355698 
L 346.956151 64.355698 
L 347.176384 60.222354 
L 348.05732 60.222354 
L 348.277554 56.465324 
L 349.15849 56.465324 
L 349.378723 53.080742 
L 350.259659 53.080742 
L 350.479893 50.06486 
L 351.360829 50.06486 
L 351.581063 47.414029 
L 352.461998 47.414029 
L 352.682232 45.124691 
L 353.563168 45.124691 
L 353.783402 43.193359 
L 354.664337 43.193359 
L 354.884571 41.616615 
L 355.765507 41.616615 
L 355.985741 40.391096 
L 356.866676 40.391096 
L 357.08691 39.513499 
L 357.967846 39.513499 
L 358.18808 38.98057 
L 359.069015 38.98057 
L 359.289249 38.78911 
L 360.170185 38.78911 
L 360.390419 38.935976 
L 361.271354 38.935976 
L 361.491588 39.398357 
L 362.372524 39.398357 
L 362.592758 40.106322 
L 363.473693 40.106322 
L 363.693927 40.974058 
L 364.574863 40.974058 
L 364.795097 41.936445 
L 365.676032 41.936445 
L 365.896266 42.944689 
L 366.777202 42.944689 
L 366.997436 43.962801 
L 367.878371 43.962801 
L 368.098605 44.964791 
L 368.979541 44.964791 
L 369.199775 45.932422 
L 370.08071 45.932422 
L 370.300944 46.853428 
L 371.18188 46.853428 
L 371.402114 48.274463 
L 372.283049 48.274463 
L 372.503283 49.708104 
L 373.384219 49.708104 
L 373.604453 51.015017 
L 374.485388 51.015017 
L 374.705622 52.185187 
L 375.586558 52.185187 
L 375.806792 53.194093 
L 376.687727 53.194093 
L 376.907961 54.020391 
L 377.788897 54.020391 
L 378.009131 54.665725 
L 378.890066 54.665725 
L 379.1103 55.157573 
L 379.991236 55.157573 
L 380.21147 55.52824 
L 381.092405 55.52824 
L 381.312639 55.803609 
L 382.193575 55.803609 
L 382.413809 56.004395 
L 383.294744 56.004395 
L 383.514978 56.147146 
L 385.497083 56.245052 
L 385.827434 56.308597 
L 398.711117 56.211284 
L 399.371819 56.188894 
L 406.419304 56.082858 
L 407.410357 56.069963 
L 440.555559 55.958993 
L 465.77234 55.953857 
L 465.882457 55.953857 
L 465.882457 55.953857 
" clip-path="url(#pc3075b889f)" style="fill: none; stroke: #bdab62; stroke-width: 1.5; stroke-linecap: square"/>
   </g>
   <g id="patch_3">
    <path d="M 119.014063 362.623125 
L 119.014063 21.6 
" style="fill: none; stroke: #000000; stroke-width: 0.8; stroke-linejoin: miter; stroke-linecap: square"/>
   </g>
   <g id="patch_4">
    <path d="M 482.4 362.623125 
L 482.4 21.6 
" style="fill: none; stroke: #000000; stroke-width: 0.8; stroke-linejoin: miter; stroke-linecap: square"/>
   </g>
   <g id="patch_5">
    <path d="M 119.014063 362.623125 
L 482.4 362.623125 
" style="fill: none; stroke: #000000; stroke-width: 0.8; stroke-linejoin: miter; stroke-linecap: square"/>
   </g>
   <g id="patch_6">
    <path d="M 119.014063 21.6 
L 482.4 21.6 
" style="fill: none; stroke: #000000; stroke-width: 0.8; stroke-linejoin: miter; stroke-linecap: square"/>
   </g>
   <g id="legend_1">
    <g id="patch_7">
     <path d="M 392.22 353.623125 
L 469.8 353.623125 
Q 473.4 353.623125 473.4 350.023125 
L 473.4 272.56125 
Q 473.4 268.96125 469.8 268.96125 
L 392.22 268.96125 
Q 388.62 268.96125 388.62 272.56125 
L 388.62 350.023125 
Q 388.62 353.623125 392.22 353.623125 
z
" style="fill: #ffffff; opacity: 0.8; stroke: #cccccc; stroke-linejoin: miter"/>
    </g>
    <g id="line2d_16">
     <path d="M 395.82 283.538438 
L 413.82 283.538438 
L 431.82 283.538438 
" style="fill: none; stroke: #2b737e; stroke-width: 1.5; stroke-linecap: square"/>
    </g>
    <g id="text_15">
     <!-- $\sigma_0$ -->
     <g transform="translate(446.22 289.838438) scale(0.18 -0.18)">
      <defs>
       <path id="DejaVuSans-30" d="M 2034 4250 
Q 1547 4250 1301 3770 
Q 1056 3291 1056 2328 
Q 1056 1369 1301 889 
Q 1547 409 2034 409 
Q 2525 409 2770 889 
Q 3016 1369 3016 2328 
Q 3016 3291 2770 3770 
Q 2525 4250 2034 4250 
z
M 2034 4750 
Q 2819 4750 3233 4129 
Q 3647 3509 3647 2328 
Q 3647 1150 3233 529 
Q 2819 -91 2034 -91 
Q 1250 -91 836 529 
Q 422 1150 422 2328 
Q 422 3509 836 4129 
Q 1250 4750 2034 4750 
z
" transform="scale(0.015625)"/>
      </defs>
      <use xlink:href="#DejaVuSans-Oblique-3c3" transform="translate(0 0.265625)"/>
      <use xlink:href="#DejaVuSans-30" transform="translate(63.378906 -16.140625) scale(0.7)"/>
     </g>
    </g>
    <g id="line2d_17">
     <path d="M 395.82 309.959063 
L 413.82 309.959063 
L 431.82 309.959063 
" style="fill: none; stroke: #5ea04b; stroke-width: 1.5; stroke-linecap: square"/>
    </g>
    <g id="text_16">
     <!-- $\sigma_1$ -->
     <g transform="translate(446.22 316.259063) scale(0.18 -0.18)">
      <defs>
       <path id="DejaVuSans-31" d="M 794 531 
L 1825 531 
L 1825 4091 
L 703 3866 
L 703 4441 
L 1819 4666 
L 2450 4666 
L 2450 531 
L 3481 531 
L 3481 0 
L 794 0 
L 794 531 
z
" transform="scale(0.015625)"/>
      </defs>
      <use xlink:href="#DejaVuSans-Oblique-3c3" transform="translate(0 0.265625)"/>
      <use xlink:href="#DejaVuSans-31" transform="translate(63.378906 -16.140625) scale(0.7)"/>
     </g>
    </g>
    <g id="line2d_18">
     <path d="M 395.82 336.379687 
L 413.82 336.379687 
L 431.82 336.379687 
" style="fill: none; stroke: #bdab62; stroke-width: 1.5; stroke-linecap: square"/>
    </g>
    <g id="text_17">
     <!-- $\sigma_2$ -->
     <g transform="translate(446.22 342.679688) scale(0.18 -0.18)">
      <defs>
       <path id="DejaVuSans-32" d="M 1228 531 
L 3431 531 
L 3431 0 
L 469 0 
L 469 531 
Q 828 903 1448 1529 
Q 2069 2156 2228 2338 
Q 2531 2678 2651 2914 
Q 2772 3150 2772 3378 
Q 2772 3750 2511 3984 
Q 2250 4219 1831 4219 
Q 1534 4219 1204 4116 
Q 875 4013 500 3803 
L 500 4441 
Q 881 4594 1212 4672 
Q 1544 4750 1819 4750 
Q 2544 4750 2975 4387 
Q 3406 4025 3406 3419 
Q 3406 3131 3298 2873 
Q 3191 2616 2906 2266 
Q 2828 2175 2409 1742 
Q 1991 1309 1228 531 
z
" transform="scale(0.015625)"/>
      </defs>
      <use xlink:href="#DejaVuSans-Oblique-3c3" transform="translate(0 0.265625)"/>
      <use xlink:href="#DejaVuSans-32" transform="translate(63.378906 -16.140625) scale(0.7)"/>
     </g>
    </g>
   </g>
  </g>
 </g>
 <defs>
  <clipPath id="pc3075b889f">
   <rect x="119.014063" y="21.6" width="363.385938" height="341.023125"/>
  </clipPath>
 </defs>
</svg>
