<?xml version="1.0" encoding="utf-8" standalone="no"?>
<!DOCTYPE svg PUBLIC "-//W3C//DTD SVG 1.1//EN"
  "http://www.w3.org/Graphics/SVG/1.1/DTD/svg11.dtd">
<svg xmlns:xlink="http://www.w3.org/1999/xlink" width="414pt" height="288pt" viewBox="0 0 414 288" xmlns="http://www.w3.org/2000/svg" version="1.1">
 <metadata>
  <rdf:RDF xmlns:dc="http://purl.org/dc/elements/1.1/" xmlns:cc="http://creativecommons.org/ns#" xmlns:rdf="http://www.w3.org/1999/02/22-rdf-syntax-ns#">
   <cc:Work>
    <dc:type rdf:resource="http://purl.org/dc/dcmitype/StillImage"/>
    <dc:date>2026-01-13T05:18:41.481428</dc:date>
    <dc:format>image/svg+xml</dc:format>
    <dc:creator>
     <cc:Agent>
      <dc:title>Matplotlib v3.10.7, https://matplotlib.org/</dc:title>
     </cc:Agent>
    </dc:creator>
   </cc:Work>
  </rdf:RDF>
 </metadata>
 <defs>
  <style type="text/css">*{stroke-linejoin: round; stroke-linecap: butt}</style>
 </defs>
 <g id="figure_1">
  <g id="patch_1">
   <path d="M 0 288 
L 414 288 
L 414 0 
L 0 0 
L 0 288 
z
" style="fill: none"/>
  </g>
  <g id="axes_1">
   <g id="patch_2">
    <path d="M 68.6675 241.036875 
L 403.2 241.036875 
L 403.2 15.197277 
L 68.6675 15.197277 
L 68.6675 241.036875 
z
" style="fill: none"/>
   </g>
   <g id="matplotlib.axis_1">
    <g id="xtick_1">
     <g id="line2d_1">
      <defs>
       <path id="m94940cc09a" d="M 0 0 
L 0 3.5 
" style="stroke: #000000; stroke-width: 0.8"/>
      </defs>
      <g>
       <use xlink:href="#m94940cc09a" x="83.873523" y="241.036875" style="stroke: #000000; stroke-width: 0.8"/>
      </g>
     </g>
     <g id="text_1">
      <!-- 0 -->
      <g transform="translate(78.783523 260.194375) scale(0.16 -0.16)">
       <defs>
        <path id="DejaVuSans-30" d="M 2034 4250 
Q 1547 4250 1301 3770 
Q 1056 3291 1056 2328 
Q 1056 1369 1301 889 
Q 1547 409 2034 409 
Q 2525 409 2770 889 
Q 3016 1369 3016 2328 
Q 3016 3291 2770 3770 
Q 2525 4250 2034 4250 
z
M 2034 4750 
Q 2819 4750 3233 4129 
Q 3647 3509 3647 2328 
Q 3647 1150 3233 529 
Q 2819 -91 2034 -91 
Q 1250 -91 836 529 
Q 422 1150 422 2328 
Q 422 3509 836 4129 
Q 1250 4750 2034 4750 
z
" transform="scale(0.015625)"/>
       </defs>
       <use xlink:href="#DejaVuSans-30"/>
      </g>
     </g>
    </g>
    <g id="xtick_2">
     <g id="line2d_2">
      <g>
       <use xlink:href="#m94940cc09a" x="185.247008" y="241.036875" style="stroke: #000000; stroke-width: 0.8"/>
      </g>
     </g>
     <g id="text_2">
      <!-- 20 -->
      <g transform="translate(175.067008 260.194375) scale(0.16 -0.16)">
       <defs>
        <path id="DejaVuSans-32" d="M 1228 531 
L 3431 531 
L 3431 0 
L 469 0 
L 469 531 
Q 828 903 1448 1529 
Q 2069 2156 2228 2338 
Q 2531 2678 2651 2914 
Q 2772 3150 2772 3378 
Q 2772 3750 2511 3984 
Q 2250 4219 1831 4219 
Q 1534 4219 1204 4116 
Q 875 4013 500 3803 
L 500 4441 
Q 881 4594 1212 4672 
Q 1544 4750 1819 4750 
Q 2544 4750 2975 4387 
Q 3406 4025 3406 3419 
Q 3406 3131 3298 2873 
Q 3191 2616 2906 2266 
Q 2828 2175 2409 1742 
Q 1991 1309 1228 531 
z
" transform="scale(0.015625)"/>
       </defs>
       <use xlink:href="#DejaVuSans-32"/>
       <use xlink:href="#DejaVuSans-30" transform="translate(63.623047 0)"/>
      </g>
     </g>
    </g>
    <g id="xtick_3">
     <g id="line2d_3">
      <g>
       <use xlink:href="#m94940cc09a" x="286.620492" y="241.036875" style="stroke: #000000; stroke-width: 0.8"/>
      </g>
     </g>
     <g id="text_3">
      <!-- 40 -->
      <g transform="translate(276.440492 260.194375) scale(0.16 -0.16)">
       <defs>
        <path id="DejaVuSans-34" d="M 2419 4116 
L 825 1625 
L 2419 1625 
L 2419 4116 
z
M 2253 4666 
L 3047 4666 
L 3047 1625 
L 3713 1625 
L 3713 1100 
L 3047 1100 
L 3047 0 
L 2419 0 
L 2419 1100 
L 313 1100 
L 313 1709 
L 2253 4666 
z
" transform="scale(0.015625)"/>
       </defs>
       <use xlink:href="#DejaVuSans-34"/>
       <use xlink:href="#DejaVuSans-30" transform="translate(63.623047 0)"/>
      </g>
     </g>
    </g>
    <g id="xtick_4">
     <g id="line2d_4">
      <g>
       <use xlink:href="#m94940cc09a" x="387.993977" y="241.036875" style="stroke: #000000; stroke-width: 0.8"/>
      </g>
     </g>
     <g id="text_4">
      <!-- 60 -->
      <g transform="translate(377.813977 260.194375) scale(0.16 -0.16)">
       <defs>
        <path id="DejaVuSans-36" d="M 2113 2584 
Q 1688 2584 1439 2293 
Q 1191 2003 1191 1497 
Q 1191 994 1439 701 
Q 1688 409 2113 409 
Q 2538 409 2786 701 
Q 3034 994 3034 1497 
Q 3034 2003 2786 2293 
Q 2538 2584 2113 2584 
z
M 3366 4563 
L 3366 3988 
Q 3128 4100 2886 4159 
Q 2644 4219 2406 4219 
Q 1781 4219 1451 3797 
Q 1122 3375 1075 2522 
Q 1259 2794 1537 2939 
Q 1816 3084 2150 3084 
Q 2853 3084 3261 2657 
Q 3669 2231 3669 1497 
Q 3669 778 3244 343 
Q 2819 -91 2113 -91 
Q 1303 -91 875 529 
Q 447 1150 447 2328 
Q 447 3434 972 4092 
Q 1497 4750 2381 4750 
Q 2619 4750 2861 4703 
Q 3103 4656 3366 4563 
z
" transform="scale(0.015625)"/>
       </defs>
       <use xlink:href="#DejaVuSans-36"/>
       <use xlink:href="#DejaVuSans-30" transform="translate(63.623047 0)"/>
      </g>
     </g>
    </g>
    <g id="text_5">
     <!-- time [s] -->
     <g transform="translate(216.542344 275.120313) scale(0.1 -0.1)">
      <defs>
       <path id="DejaVuSans-74" d="M 1172 4494 
L 1172 3500 
L 2356 3500 
L 2356 3053 
L 1172 3053 
L 1172 1153 
Q 1172 725 1289 603 
Q 1406 481 1766 481 
L 2356 481 
L 2356 0 
L 1766 0 
Q 1100 0 847 248 
Q 594 497 594 1153 
L 594 3053 
L 172 3053 
L 172 3500 
L 594 3500 
L 594 4494 
L 1172 4494 
z
" transform="scale(0.015625)"/>
       <path id="DejaVuSans-69" d="M 603 3500 
L 1178 3500 
L 1178 0 
L 603 0 
L 603 3500 
z
M 603 4863 
L 1178 4863 
L 1178 4134 
L 603 4134 
L 603 4863 
z
" transform="scale(0.015625)"/>
       <path id="DejaVuSans-6d" d="M 3328 2828 
Q 3544 3216 3844 3400 
Q 4144 3584 4550 3584 
Q 5097 3584 5394 3201 
Q 5691 2819 5691 2113 
L 5691 0 
L 5113 0 
L 5113 2094 
Q 5113 2597 4934 2840 
Q 4756 3084 4391 3084 
Q 3944 3084 3684 2787 
Q 3425 2491 3425 1978 
L 3425 0 
L 2847 0 
L 2847 2094 
Q 2847 2600 2669 2842 
Q 2491 3084 2119 3084 
Q 1678 3084 1418 2786 
Q 1159 2488 1159 1978 
L 1159 0 
L 581 0 
L 581 3500 
L 1159 3500 
L 1159 2956 
Q 1356 3278 1631 3431 
Q 1906 3584 2284 3584 
Q 2666 3584 2933 3390 
Q 3200 3197 3328 2828 
z
" transform="scale(0.015625)"/>
       <path id="DejaVuSans-65" d="M 3597 1894 
L 3597 1613 
L 953 1613 
Q 991 1019 1311 708 
Q 1631 397 2203 397 
Q 2534 397 2845 478 
Q 3156 559 3463 722 
L 3463 178 
Q 3153 47 2828 -22 
Q 2503 -91 2169 -91 
Q 1331 -91 842 396 
Q 353 884 353 1716 
Q 353 2575 817 3079 
Q 1281 3584 2069 3584 
Q 2775 3584 3186 3129 
Q 3597 2675 3597 1894 
z
M 3022 2063 
Q 3016 2534 2758 2815 
Q 2500 3097 2075 3097 
Q 1594 3097 1305 2825 
Q 1016 2553 972 2059 
L 3022 2063 
z
" transform="scale(0.015625)"/>
       <path id="DejaVuSans-20" transform="scale(0.015625)"/>
       <path id="DejaVuSans-5b" d="M 550 4863 
L 1875 4863 
L 1875 4416 
L 1125 4416 
L 1125 -397 
L 1875 -397 
L 1875 -844 
L 550 -844 
L 550 4863 
z
" transform="scale(0.015625)"/>
       <path id="DejaVuSans-73" d="M 2834 3397 
L 2834 2853 
Q 2591 2978 2328 3040 
Q 2066 3103 1784 3103 
Q 1356 3103 1142 2972 
Q 928 2841 928 2578 
Q 928 2378 1081 2264 
Q 1234 2150 1697 2047 
L 1894 2003 
Q 2506 1872 2764 1633 
Q 3022 1394 3022 966 
Q 3022 478 2636 193 
Q 2250 -91 1575 -91 
Q 1294 -91 989 -36 
Q 684 19 347 128 
L 347 722 
Q 666 556 975 473 
Q 1284 391 1588 391 
Q 1994 391 2212 530 
Q 2431 669 2431 922 
Q 2431 1156 2273 1281 
Q 2116 1406 1581 1522 
L 1381 1569 
Q 847 1681 609 1914 
Q 372 2147 372 2553 
Q 372 3047 722 3315 
Q 1072 3584 1716 3584 
Q 2034 3584 2315 3537 
Q 2597 3491 2834 3397 
z
" transform="scale(0.015625)"/>
       <path id="DejaVuSans-5d" d="M 1947 4863 
L 1947 -844 
L 622 -844 
L 622 -397 
L 1369 -397 
L 1369 4416 
L 622 4416 
L 622 4863 
L 1947 4863 
z
" transform="scale(0.015625)"/>
      </defs>
      <use xlink:href="#DejaVuSans-74"/>
      <use xlink:href="#DejaVuSans-69" transform="translate(39.208984 0)"/>
      <use xlink:href="#DejaVuSans-6d" transform="translate(66.992188 0)"/>
      <use xlink:href="#DejaVuSans-65" transform="translate(164.404297 0)"/>
      <use xlink:href="#DejaVuSans-20" transform="translate(225.927734 0)"/>
      <use xlink:href="#DejaVuSans-5b" transform="translate(257.714844 0)"/>
      <use xlink:href="#DejaVuSans-73" transform="translate(296.728516 0)"/>
      <use xlink:href="#DejaVuSans-5d" transform="translate(348.828125 0)"/>
     </g>
    </g>
   </g>
   <g id="matplotlib.axis_2">
    <g id="ytick_1">
     <g id="line2d_5">
      <defs>
       <path id="m0c8bac9438" d="M 0 0 
L -3.5 0 
" style="stroke: #000000; stroke-width: 0.8"/>
      </defs>
      <g>
       <use xlink:href="#m0c8bac9438" x="68.6675" y="199.987048" style="stroke: #000000; stroke-width: 0.8"/>
      </g>
     </g>
     <g id="text_6">
      <!-- −40 -->
      <g transform="translate(27.9 206.065798) scale(0.16 -0.16)">
       <defs>
        <path id="DejaVuSans-2212" d="M 678 2272 
L 4684 2272 
L 4684 1741 
L 678 1741 
L 678 2272 
z
" transform="scale(0.015625)"/>
       </defs>
       <use xlink:href="#DejaVuSans-2212"/>
       <use xlink:href="#DejaVuSans-34" transform="translate(83.789062 0)"/>
       <use xlink:href="#DejaVuSans-30" transform="translate(147.412109 0)"/>
      </g>
     </g>
    </g>
    <g id="ytick_2">
     <g id="line2d_6">
      <g>
       <use xlink:href="#m0c8bac9438" x="68.6675" y="138.96126" style="stroke: #000000; stroke-width: 0.8"/>
      </g>
     </g>
     <g id="text_7">
      <!-- −20 -->
      <g transform="translate(27.9 145.04001) scale(0.16 -0.16)">
       <use xlink:href="#DejaVuSans-2212"/>
       <use xlink:href="#DejaVuSans-32" transform="translate(83.789062 0)"/>
       <use xlink:href="#DejaVuSans-30" transform="translate(147.412109 0)"/>
      </g>
     </g>
    </g>
    <g id="ytick_3">
     <g id="line2d_7">
      <g>
       <use xlink:href="#m0c8bac9438" x="68.6675" y="77.935472" style="stroke: #000000; stroke-width: 0.8"/>
      </g>
     </g>
     <g id="text_8">
      <!-- 0 -->
      <g transform="translate(51.4875 84.014222) scale(0.16 -0.16)">
       <use xlink:href="#DejaVuSans-30"/>
      </g>
     </g>
    </g>
    <g id="ytick_4">
     <g id="line2d_8">
      <g>
       <use xlink:href="#m0c8bac9438" x="68.6675" y="16.909683" style="stroke: #000000; stroke-width: 0.8"/>
      </g>
     </g>
     <g id="text_9">
      <!-- 20 -->
      <g transform="translate(41.3075 22.988433) scale(0.16 -0.16)">
       <use xlink:href="#DejaVuSans-32"/>
       <use xlink:href="#DejaVuSans-30" transform="translate(63.623047 0)"/>
      </g>
     </g>
    </g>
    <g id="text_10">
     <!-- $\dot{\theta}$ [deg/s] -->
     <g transform="translate(21.8 150.417076) rotate(-90) scale(0.1 -0.1)">
      <defs>
       <path id="DejaVuSans-307" d="M -1894 4863 
L -1319 4863 
L -1319 4134 
L -1894 4134 
L -1894 4863 
z
M -1600 3584 
L -1600 3584 
z
" transform="scale(0.015625)"/>
       <path id="DejaVuSans-Oblique-3b8" d="M 2913 2219 
L 925 2219 
Q 791 1284 928 888 
Q 1100 400 1566 400 
Q 2034 400 2391 891 
Q 2703 1322 2913 2219 
z
M 3009 2750 
Q 3094 3638 2984 3950 
Q 2813 4444 2353 4444 
Q 1875 4444 1525 3956 
Q 1250 3563 1034 2750 
L 3009 2750 
z
M 2444 4913 
Q 3194 4913 3494 4250 
Q 3794 3591 3566 2422 
Q 3341 1256 2781 594 
Q 2225 -72 1475 -72 
Q 722 -72 425 594 
Q 128 1256 353 2422 
Q 581 3591 1134 4250 
Q 1691 4913 2444 4913 
z
" transform="scale(0.015625)"/>
       <path id="DejaVuSans-64" d="M 2906 2969 
L 2906 4863 
L 3481 4863 
L 3481 0 
L 2906 0 
L 2906 525 
Q 2725 213 2448 61 
Q 2172 -91 1784 -91 
Q 1150 -91 751 415 
Q 353 922 353 1747 
Q 353 2572 751 3078 
Q 1150 3584 1784 3584 
Q 2172 3584 2448 3432 
Q 2725 3281 2906 2969 
z
M 947 1747 
Q 947 1113 1208 752 
Q 1469 391 1925 391 
Q 2381 391 2643 752 
Q 2906 1113 2906 1747 
Q 2906 2381 2643 2742 
Q 2381 3103 1925 3103 
Q 1469 3103 1208 2742 
Q 947 2381 947 1747 
z
" transform="scale(0.015625)"/>
       <path id="DejaVuSans-67" d="M 2906 1791 
Q 2906 2416 2648 2759 
Q 2391 3103 1925 3103 
Q 1463 3103 1205 2759 
Q 947 2416 947 1791 
Q 947 1169 1205 825 
Q 1463 481 1925 481 
Q 2391 481 2648 825 
Q 2906 1169 2906 1791 
z
M 3481 434 
Q 3481 -459 3084 -895 
Q 2688 -1331 1869 -1331 
Q 1566 -1331 1297 -1286 
Q 1028 -1241 775 -1147 
L 775 -588 
Q 1028 -725 1275 -790 
Q 1522 -856 1778 -856 
Q 2344 -856 2625 -561 
Q 2906 -266 2906 331 
L 2906 616 
Q 2728 306 2450 153 
Q 2172 0 1784 0 
Q 1141 0 747 490 
Q 353 981 353 1791 
Q 353 2603 747 3093 
Q 1141 3584 1784 3584 
Q 2172 3584 2450 3431 
Q 2728 3278 2906 2969 
L 2906 3500 
L 3481 3500 
L 3481 434 
z
" transform="scale(0.015625)"/>
       <path id="DejaVuSans-2f" d="M 1625 4666 
L 2156 4666 
L 531 -594 
L 0 -594 
L 1625 4666 
z
" transform="scale(0.015625)"/>
      </defs>
      <use xlink:href="#DejaVuSans-307" transform="translate(62.88916 34.015625)"/>
      <use xlink:href="#DejaVuSans-Oblique-3b8" transform="translate(0 0.75)"/>
      <use xlink:href="#DejaVuSans-20" transform="translate(61.181641 0.75)"/>
      <use xlink:href="#DejaVuSans-5b" transform="translate(92.96875 0.75)"/>
      <use xlink:href="#DejaVuSans-64" transform="translate(131.982422 0.75)"/>
      <use xlink:href="#DejaVuSans-65" transform="translate(195.458984 0.75)"/>
      <use xlink:href="#DejaVuSans-67" transform="translate(256.982422 0.75)"/>
      <use xlink:href="#DejaVuSans-2f" transform="translate(320.458984 0.75)"/>
      <use xlink:href="#DejaVuSans-73" transform="translate(354.150391 0.75)"/>
      <use xlink:href="#DejaVuSans-5d" transform="translate(406.25 0.75)"/>
     </g>
    </g>
   </g>
   <g id="line2d_9">
    <path d="M 83.873523 77.935472 
L 86.610607 109.786087 
L 88.43533 133.08145 
L 90.310739 156.534606 
L 91.273787 165.804424 
L 92.034088 171.180226 
L 92.693016 174.401002 
L 93.25057 176.119443 
L 93.706751 176.878823 
L 94.061558 177.09192 
L 94.365678 177.026874 
L 94.720486 176.678678 
L 95.12598 175.944965 
L 95.683534 174.401303 
L 96.342461 171.868368 
L 97.204136 167.577127 
L 98.268558 161.066291 
L 99.738473 150.547171 
L 102.070063 132.004736 
L 106.935991 93.1643 
L 109.470328 74.829088 
L 111.599171 60.959419 
L 113.423894 50.449342 
L 114.995183 42.60976 
L 116.363725 36.825331 
L 117.580206 32.588006 
L 118.644628 29.637028 
L 119.556989 27.706126 
L 120.367977 26.476765 
L 121.077592 25.79141 
L 121.685833 25.502199 
L 122.243387 25.483927 
L 122.800941 25.705221 
L 123.358495 26.16838 
L 124.017423 27.028942 
L 124.727037 28.334007 
L 125.538025 30.2989 
L 126.501073 33.26605 
L 127.565495 37.295067 
L 128.832663 43.000293 
L 130.403952 51.166656 
L 132.836916 65.17617 
L 135.979494 83.033754 
L 137.652156 91.287234 
L 139.020698 97.011325 
L 140.23718 101.196903 
L 141.301602 104.117265 
L 142.26465 106.152691 
L 143.126325 107.490814 
L 143.886626 108.303443 
L 144.59624 108.762746 
L 145.255168 108.942497 
L 145.914095 108.897054 
L 146.62371 108.611393 
L 147.384011 108.052228 
L 148.245686 107.129334 
L 149.25942 105.692788 
L 150.425216 103.636932 
L 151.844444 100.658345 
L 153.61848 96.388837 
L 156.254191 89.393425 
L 161.069431 76.565532 
L 163.147588 71.700033 
L 164.870937 68.210163 
L 166.340853 65.707837 
L 167.658708 63.88121 
L 168.824503 62.618172 
L 169.888925 61.766941 
L 170.902659 61.230376 
L 171.865708 60.970078 
L 172.778069 60.946192 
L 173.741117 61.151442 
L 174.704165 61.585445 
L 175.768587 62.317528 
L 176.934382 63.400379 
L 178.252237 64.938448 
L 179.823526 67.132623 
L 181.850996 70.375088 
L 188.389586 81.138811 
L 190.112935 83.394512 
L 191.633537 85.026011 
L 193.002079 86.17561 
L 194.269248 86.958977 
L 195.48573 87.455315 
L 196.702211 87.706589 
L 197.918693 87.723732 
L 199.185862 87.509446 
L 200.503717 87.058578 
L 201.973633 86.315888 
L 203.646295 85.216543 
L 205.724452 83.571334 
L 208.968403 80.67581 
L 213.023342 77.119199 
L 215.304246 75.415306 
L 217.230342 74.241915 
L 219.004378 73.416132 
L 220.677041 72.880915 
L 222.299016 72.594502 
L 223.920992 72.534637 
L 225.593655 72.698515 
L 227.367691 73.099597 
L 229.344473 73.78072 
L 231.72675 74.84854 
L 235.578943 76.861885 
L 239.532509 78.846441 
L 242.066846 79.870712 
L 244.297062 80.536389 
L 246.425906 80.93947 
L 248.504062 81.109267 
L 250.683592 81.061717 
L 253.015182 80.785339 
L 255.752266 80.22601 
L 259.503085 79.207772 
L 266.295109 77.342981 
L 269.437687 76.736 
L 272.326831 76.405156 
L 275.165289 76.306689 
L 278.155806 76.430364 
L 281.602505 76.805708 
L 286.721866 77.618477 
L 293.108395 78.58562 
L 297.061961 78.949034 
L 300.81278 79.068056 
L 304.817033 78.967347 
L 309.936394 78.598371 
L 321.543658 77.689212 
L 326.561645 77.572732 
L 331.985127 77.676973 
L 340.855307 78.116499 
L 349.015872 78.425961 
L 355.757209 78.450738 
L 365.032883 78.232662 
L 377.147014 77.989832 
L 387.081616 78.042685 
L 387.993977 78.055176 
L 387.993977 78.055176 
" clip-path="url(#p373b1fb1e4)" style="fill: none; stroke: #1f77b4; stroke-width: 1.5; stroke-linecap: square"/>
   </g>
   <g id="line2d_10">
    <path d="M 83.873523 77.935472 
L 84.735197 142.990769 
L 85.495498 184.751006 
L 86.154426 209.638354 
L 86.71198 222.955818 
L 87.168161 228.913947 
L 87.472281 230.584927 
L 87.624342 230.771439 
L 87.725715 230.665894 
L 87.928462 229.925333 
L 88.232583 227.5705 
L 88.638077 222.350506 
L 89.195631 211.973749 
L 90.057305 191.001186 
L 92.895763 118.118486 
L 93.858811 100.387876 
L 94.669799 89.145881 
L 95.4301 81.484066 
L 96.089028 76.85751 
L 96.697269 74.029804 
L 97.204136 72.58326 
L 97.660317 71.885532 
L 98.015124 71.682868 
L 98.369931 71.735848 
L 98.775425 72.062254 
L 99.282292 72.792603 
L 99.991907 74.247557 
L 101.309762 77.579925 
L 102.779678 81.113006 
L 103.692039 82.782644 
L 104.45234 83.75974 
L 105.111268 84.284075 
L 105.719509 84.507637 
L 106.32775 84.497001 
L 106.986677 84.247664 
L 107.746978 83.697465 
L 108.65934 82.745053 
L 109.926508 81.069815 
L 113.373207 75.940874 
L 115.603423 72.931414 
L 117.52952 70.694751 
L 119.202182 69.078398 
L 120.570724 68.04542 
L 121.736519 67.427225 
L 122.750254 67.124244 
L 123.713302 67.06479 
L 124.625664 67.228849 
L 125.588712 67.640468 
L 126.602447 68.331013 
L 127.717555 69.366227 
L 129.136784 71.014223 
L 131.569747 74.26524 
L 133.850651 77.165999 
L 135.42194 78.815025 
L 136.841169 79.997785 
L 138.260397 80.901169 
L 139.781 81.608038 
L 141.504349 82.162917 
L 143.531819 82.580856 
L 145.762035 82.814688 
L 147.840192 82.815984 
L 149.816975 82.593261 
L 151.743071 82.151787 
L 153.871914 81.426323 
L 156.507625 80.275838 
L 164.82025 76.473745 
L 167.405274 75.625972 
L 169.686178 75.105968 
L 171.815021 74.845923 
L 173.893177 74.819281 
L 175.971334 75.015688 
L 178.252237 75.458425 
L 181.141381 76.262488 
L 189.200573 78.637299 
L 192.140405 79.196965 
L 195.029549 79.52077 
L 197.96938 79.625687 
L 201.111958 79.511012 
L 204.710717 79.1467 
L 209.931451 78.363589 
L 216.672788 77.391893 
L 220.626354 77.056013 
L 224.326486 76.964331 
L 228.280052 77.094909 
L 233.4501 77.5096 
L 243.384701 78.337547 
L 248.402689 78.497056 
L 253.724797 78.437119 
L 261.226434 78.102077 
L 271.161036 77.696555 
L 277.800999 77.665889 
L 286.519119 77.874361 
L 298.988058 78.146893 
L 308.517165 78.10007 
L 330.464525 77.906698 
L 371.064605 78.01011 
L 387.993977 78.012744 
L 387.993977 78.012744 
" clip-path="url(#p373b1fb1e4)" style="fill: none; stroke: #ff7f0e; stroke-width: 1.5; stroke-linecap: square"/>
   </g>
   <g id="patch_3">
    <path d="M 68.6675 241.036875 
L 68.6675 15.197277 
" style="fill: none; stroke: #000000; stroke-width: 0.8; stroke-linejoin: miter; stroke-linecap: square"/>
   </g>
   <g id="patch_4">
    <path d="M 403.2 241.036875 
L 403.2 15.197277 
" style="fill: none; stroke: #000000; stroke-width: 0.8; stroke-linejoin: miter; stroke-linecap: square"/>
   </g>
   <g id="patch_5">
    <path d="M 68.6675 241.036875 
L 403.2 241.036875 
" style="fill: none; stroke: #000000; stroke-width: 0.8; stroke-linejoin: miter; stroke-linecap: square"/>
   </g>
   <g id="patch_6">
    <path d="M 68.6675 15.197277 
L 403.2 15.197277 
" style="fill: none; stroke: #000000; stroke-width: 0.8; stroke-linejoin: miter; stroke-linecap: square"/>
   </g>
   <g id="legend_1">
    <g id="patch_7">
     <path d="M 358.2 236.536875 
L 396.9 236.536875 
Q 398.7 236.536875 398.7 234.736875 
L 398.7 203.776875 
Q 398.7 201.976875 396.9 201.976875 
L 358.2 201.976875 
Q 356.4 201.976875 356.4 203.776875 
L 356.4 234.736875 
Q 356.4 236.536875 358.2 236.536875 
z
" style="fill: #ffffff; opacity: 0.8; stroke: #cccccc; stroke-linejoin: miter"/>
    </g>
    <g id="line2d_11">
     <path d="M 360 211.985156 
L 369 211.985156 
L 378 211.985156 
" style="fill: none; stroke: #1f77b4; stroke-width: 1.5; stroke-linecap: square"/>
    </g>
    <g id="text_11">
     <!-- $\dot{\theta}_1$ -->
     <g transform="translate(385.2 215.135156) scale(0.09 -0.09)">
      <defs>
       <path id="DejaVuSans-31" d="M 794 531 
L 1825 531 
L 1825 4091 
L 703 3866 
L 703 4441 
L 1819 4666 
L 2450 4666 
L 2450 531 
L 3481 531 
L 3481 0 
L 794 0 
L 794 531 
z
" transform="scale(0.015625)"/>
      </defs>
      <use xlink:href="#DejaVuSans-307" transform="translate(62.88916 34.015625)"/>
      <use xlink:href="#DejaVuSans-Oblique-3b8" transform="translate(0 0.75)"/>
      <use xlink:href="#DejaVuSans-31" transform="translate(62.138672 -15.65625) scale(0.7)"/>
     </g>
    </g>
    <g id="line2d_12">
     <path d="M 360 227.915156 
L 369 227.915156 
L 378 227.915156 
" style="fill: none; stroke: #ff7f0e; stroke-width: 1.5; stroke-linecap: square"/>
    </g>
    <g id="text_12">
     <!-- $\dot{\theta}_2$ -->
     <g transform="translate(385.2 231.065156) scale(0.09 -0.09)">
      <use xlink:href="#DejaVuSans-307" transform="translate(62.88916 34.015625)"/>
      <use xlink:href="#DejaVuSans-Oblique-3b8" transform="translate(0 0.75)"/>
      <use xlink:href="#DejaVuSans-32" transform="translate(62.138672 -15.65625) scale(0.7)"/>
     </g>
    </g>
   </g>
  </g>
 </g>
 <defs>
  <clipPath id="p373b1fb1e4">
   <rect x="68.6675" y="15.197277" width="334.5325" height="225.839598"/>
  </clipPath>
 </defs>
</svg>
