<?xml version="1.0" encoding="utf-8" standalone="no"?>
<!DOCTYPE svg PUBLIC "-//W3C//DTD SVG 1.1//EN"
  "http://www.w3.org/Graphics/SVG/1.1/DTD/svg11.dtd">
<svg xmlns:xlink="http://www.w3.org/1999/xlink" width="414pt" height="180pt" viewBox="0 0 414 180" xmlns="http://www.w3.org/2000/svg" version="1.1">
 <metadata>
  <rdf:RDF xmlns:dc="http://purl.org/dc/elements/1.1/" xmlns:cc="http://creativecommons.org/ns#" xmlns:rdf="http://www.w3.org/1999/02/22-rdf-syntax-ns#">
   <cc:Work>
    <dc:type rdf:resource="http://purl.org/dc/dcmitype/StillImage"/>
    <dc:date>2026-04-03T00:27:02.157782</dc:date>
    <dc:format>image/svg+xml</dc:format>
    <dc:creator>
     <cc:Agent>
      <dc:title>Matplotlib v3.10.7, https://matplotlib.org/</dc:title>
     </cc:Agent>
    </dc:creator>
   </cc:Work>
  </rdf:RDF>
 </metadata>
 <defs>
  <style type="text/css">*{stroke-linejoin: round; stroke-linecap: butt}</style>
 </defs>
 <g id="figure_1">
  <g id="patch_1">
   <path d="M 0 180 
L 414 180 
L 414 0 
L 0 0 
L 0 180 
z
" style="fill: none"/>
  </g>
  <g id="axes_1">
   <g id="patch_2">
    <path d="M 59.058906 139.811563 
L 403.2 139.811563 
L 403.2 10.8 
L 59.058906 10.8 
L 59.058906 139.811563 
z
" style="fill: none"/>
   </g>
   <g id="matplotlib.axis_1">
    <g id="xtick_1">
     <g id="line2d_1">
      <defs>
       <path id="m284adc00fd" d="M 0 0 
L 0 3.5 
" style="stroke: #000000; stroke-width: 0.8"/>
      </defs>
      <g>
       <use xlink:href="#m284adc00fd" x="74.701683" y="139.811563" style="stroke: #000000; stroke-width: 0.8"/>
      </g>
     </g>
     <g id="text_1">
      <!-- 0 -->
      <g transform="translate(71.838558 153.650156) scale(0.09 -0.09)">
       <defs>
        <path id="DejaVuSans-30" d="M 2034 4250 
Q 1547 4250 1301 3770 
Q 1056 3291 1056 2328 
Q 1056 1369 1301 889 
Q 1547 409 2034 409 
Q 2525 409 2770 889 
Q 3016 1369 3016 2328 
Q 3016 3291 2770 3770 
Q 2525 4250 2034 4250 
z
M 2034 4750 
Q 2819 4750 3233 4129 
Q 3647 3509 3647 2328 
Q 3647 1150 3233 529 
Q 2819 -91 2034 -91 
Q 1250 -91 836 529 
Q 422 1150 422 2328 
Q 422 3509 836 4129 
Q 1250 4750 2034 4750 
z
" transform="scale(0.015625)"/>
       </defs>
       <use xlink:href="#DejaVuSans-30"/>
      </g>
     </g>
    </g>
    <g id="xtick_2">
     <g id="line2d_2">
      <g>
       <use xlink:href="#m284adc00fd" x="126.844273" y="139.811563" style="stroke: #000000; stroke-width: 0.8"/>
      </g>
     </g>
     <g id="text_2">
      <!-- 10 -->
      <g transform="translate(121.118023 153.650156) scale(0.09 -0.09)">
       <defs>
        <path id="DejaVuSans-31" d="M 794 531 
L 1825 531 
L 1825 4091 
L 703 3866 
L 703 4441 
L 1819 4666 
L 2450 4666 
L 2450 531 
L 3481 531 
L 3481 0 
L 794 0 
L 794 531 
z
" transform="scale(0.015625)"/>
       </defs>
       <use xlink:href="#DejaVuSans-31"/>
       <use xlink:href="#DejaVuSans-30" transform="translate(63.623047 0)"/>
      </g>
     </g>
    </g>
    <g id="xtick_3">
     <g id="line2d_3">
      <g>
       <use xlink:href="#m284adc00fd" x="178.986863" y="139.811563" style="stroke: #000000; stroke-width: 0.8"/>
      </g>
     </g>
     <g id="text_3">
      <!-- 20 -->
      <g transform="translate(173.260613 153.650156) scale(0.09 -0.09)">
       <defs>
        <path id="DejaVuSans-32" d="M 1228 531 
L 3431 531 
L 3431 0 
L 469 0 
L 469 531 
Q 828 903 1448 1529 
Q 2069 2156 2228 2338 
Q 2531 2678 2651 2914 
Q 2772 3150 2772 3378 
Q 2772 3750 2511 3984 
Q 2250 4219 1831 4219 
Q 1534 4219 1204 4116 
Q 875 4013 500 3803 
L 500 4441 
Q 881 4594 1212 4672 
Q 1544 4750 1819 4750 
Q 2544 4750 2975 4387 
Q 3406 4025 3406 3419 
Q 3406 3131 3298 2873 
Q 3191 2616 2906 2266 
Q 2828 2175 2409 1742 
Q 1991 1309 1228 531 
z
" transform="scale(0.015625)"/>
       </defs>
       <use xlink:href="#DejaVuSans-32"/>
       <use xlink:href="#DejaVuSans-30" transform="translate(63.623047 0)"/>
      </g>
     </g>
    </g>
    <g id="xtick_4">
     <g id="line2d_4">
      <g>
       <use xlink:href="#m284adc00fd" x="231.129453" y="139.811563" style="stroke: #000000; stroke-width: 0.8"/>
      </g>
     </g>
     <g id="text_4">
      <!-- 30 -->
      <g transform="translate(225.403203 153.650156) scale(0.09 -0.09)">
       <defs>
        <path id="DejaVuSans-33" d="M 2597 2516 
Q 3050 2419 3304 2112 
Q 3559 1806 3559 1356 
Q 3559 666 3084 287 
Q 2609 -91 1734 -91 
Q 1441 -91 1130 -33 
Q 819 25 488 141 
L 488 750 
Q 750 597 1062 519 
Q 1375 441 1716 441 
Q 2309 441 2620 675 
Q 2931 909 2931 1356 
Q 2931 1769 2642 2001 
Q 2353 2234 1838 2234 
L 1294 2234 
L 1294 2753 
L 1863 2753 
Q 2328 2753 2575 2939 
Q 2822 3125 2822 3475 
Q 2822 3834 2567 4026 
Q 2313 4219 1838 4219 
Q 1578 4219 1281 4162 
Q 984 4106 628 3988 
L 628 4550 
Q 988 4650 1302 4700 
Q 1616 4750 1894 4750 
Q 2613 4750 3031 4423 
Q 3450 4097 3450 3541 
Q 3450 3153 3228 2886 
Q 3006 2619 2597 2516 
z
" transform="scale(0.015625)"/>
       </defs>
       <use xlink:href="#DejaVuSans-33"/>
       <use xlink:href="#DejaVuSans-30" transform="translate(63.623047 0)"/>
      </g>
     </g>
    </g>
    <g id="xtick_5">
     <g id="line2d_5">
      <g>
       <use xlink:href="#m284adc00fd" x="283.272043" y="139.811563" style="stroke: #000000; stroke-width: 0.8"/>
      </g>
     </g>
     <g id="text_5">
      <!-- 40 -->
      <g transform="translate(277.545793 153.650156) scale(0.09 -0.09)">
       <defs>
        <path id="DejaVuSans-34" d="M 2419 4116 
L 825 1625 
L 2419 1625 
L 2419 4116 
z
M 2253 4666 
L 3047 4666 
L 3047 1625 
L 3713 1625 
L 3713 1100 
L 3047 1100 
L 3047 0 
L 2419 0 
L 2419 1100 
L 313 1100 
L 313 1709 
L 2253 4666 
z
" transform="scale(0.015625)"/>
       </defs>
       <use xlink:href="#DejaVuSans-34"/>
       <use xlink:href="#DejaVuSans-30" transform="translate(63.623047 0)"/>
      </g>
     </g>
    </g>
    <g id="xtick_6">
     <g id="line2d_6">
      <g>
       <use xlink:href="#m284adc00fd" x="335.414633" y="139.811563" style="stroke: #000000; stroke-width: 0.8"/>
      </g>
     </g>
     <g id="text_6">
      <!-- 50 -->
      <g transform="translate(329.688383 153.650156) scale(0.09 -0.09)">
       <defs>
        <path id="DejaVuSans-35" d="M 691 4666 
L 3169 4666 
L 3169 4134 
L 1269 4134 
L 1269 2991 
Q 1406 3038 1543 3061 
Q 1681 3084 1819 3084 
Q 2600 3084 3056 2656 
Q 3513 2228 3513 1497 
Q 3513 744 3044 326 
Q 2575 -91 1722 -91 
Q 1428 -91 1123 -41 
Q 819 9 494 109 
L 494 744 
Q 775 591 1075 516 
Q 1375 441 1709 441 
Q 2250 441 2565 725 
Q 2881 1009 2881 1497 
Q 2881 1984 2565 2268 
Q 2250 2553 1709 2553 
Q 1456 2553 1204 2497 
Q 953 2441 691 2322 
L 691 4666 
z
" transform="scale(0.015625)"/>
       </defs>
       <use xlink:href="#DejaVuSans-35"/>
       <use xlink:href="#DejaVuSans-30" transform="translate(63.623047 0)"/>
      </g>
     </g>
    </g>
    <g id="xtick_7">
     <g id="line2d_7">
      <g>
       <use xlink:href="#m284adc00fd" x="387.557223" y="139.811563" style="stroke: #000000; stroke-width: 0.8"/>
      </g>
     </g>
     <g id="text_7">
      <!-- 60 -->
      <g transform="translate(381.830973 153.650156) scale(0.09 -0.09)">
       <defs>
        <path id="DejaVuSans-36" d="M 2113 2584 
Q 1688 2584 1439 2293 
Q 1191 2003 1191 1497 
Q 1191 994 1439 701 
Q 1688 409 2113 409 
Q 2538 409 2786 701 
Q 3034 994 3034 1497 
Q 3034 2003 2786 2293 
Q 2538 2584 2113 2584 
z
M 3366 4563 
L 3366 3988 
Q 3128 4100 2886 4159 
Q 2644 4219 2406 4219 
Q 1781 4219 1451 3797 
Q 1122 3375 1075 2522 
Q 1259 2794 1537 2939 
Q 1816 3084 2150 3084 
Q 2853 3084 3261 2657 
Q 3669 2231 3669 1497 
Q 3669 778 3244 343 
Q 2819 -91 2113 -91 
Q 1303 -91 875 529 
Q 447 1150 447 2328 
Q 447 3434 972 4092 
Q 1497 4750 2381 4750 
Q 2619 4750 2861 4703 
Q 3103 4656 3366 4563 
z
" transform="scale(0.015625)"/>
       </defs>
       <use xlink:href="#DejaVuSans-36"/>
       <use xlink:href="#DejaVuSans-30" transform="translate(63.623047 0)"/>
      </g>
     </g>
    </g>
    <g id="text_8">
     <!-- time [s] -->
     <g transform="translate(211.738047 167.120313) scale(0.1 -0.1)">
      <defs>
       <path id="DejaVuSans-74" d="M 1172 4494 
L 1172 3500 
L 2356 3500 
L 2356 3053 
L 1172 3053 
L 1172 1153 
Q 1172 725 1289 603 
Q 1406 481 1766 481 
L 2356 481 
L 2356 0 
L 1766 0 
Q 1100 0 847 248 
Q 594 497 594 1153 
L 594 3053 
L 172 3053 
L 172 3500 
L 594 3500 
L 594 4494 
L 1172 4494 
z
" transform="scale(0.015625)"/>
       <path id="DejaVuSans-69" d="M 603 3500 
L 1178 3500 
L 1178 0 
L 603 0 
L 603 3500 
z
M 603 4863 
L 1178 4863 
L 1178 4134 
L 603 4134 
L 603 4863 
z
" transform="scale(0.015625)"/>
       <path id="DejaVuSans-6d" d="M 3328 2828 
Q 3544 3216 3844 3400 
Q 4144 3584 4550 3584 
Q 5097 3584 5394 3201 
Q 5691 2819 5691 2113 
L 5691 0 
L 5113 0 
L 5113 2094 
Q 5113 2597 4934 2840 
Q 4756 3084 4391 3084 
Q 3944 3084 3684 2787 
Q 3425 2491 3425 1978 
L 3425 0 
L 2847 0 
L 2847 2094 
Q 2847 2600 2669 2842 
Q 2491 3084 2119 3084 
Q 1678 3084 1418 2786 
Q 1159 2488 1159 1978 
L 1159 0 
L 581 0 
L 581 3500 
L 1159 3500 
L 1159 2956 
Q 1356 3278 1631 3431 
Q 1906 3584 2284 3584 
Q 2666 3584 2933 3390 
Q 3200 3197 3328 2828 
z
" transform="scale(0.015625)"/>
       <path id="DejaVuSans-65" d="M 3597 1894 
L 3597 1613 
L 953 1613 
Q 991 1019 1311 708 
Q 1631 397 2203 397 
Q 2534 397 2845 478 
Q 3156 559 3463 722 
L 3463 178 
Q 3153 47 2828 -22 
Q 2503 -91 2169 -91 
Q 1331 -91 842 396 
Q 353 884 353 1716 
Q 353 2575 817 3079 
Q 1281 3584 2069 3584 
Q 2775 3584 3186 3129 
Q 3597 2675 3597 1894 
z
M 3022 2063 
Q 3016 2534 2758 2815 
Q 2500 3097 2075 3097 
Q 1594 3097 1305 2825 
Q 1016 2553 972 2059 
L 3022 2063 
z
" transform="scale(0.015625)"/>
       <path id="DejaVuSans-20" transform="scale(0.015625)"/>
       <path id="DejaVuSans-5b" d="M 550 4863 
L 1875 4863 
L 1875 4416 
L 1125 4416 
L 1125 -397 
L 1875 -397 
L 1875 -844 
L 550 -844 
L 550 4863 
z
" transform="scale(0.015625)"/>
       <path id="DejaVuSans-73" d="M 2834 3397 
L 2834 2853 
Q 2591 2978 2328 3040 
Q 2066 3103 1784 3103 
Q 1356 3103 1142 2972 
Q 928 2841 928 2578 
Q 928 2378 1081 2264 
Q 1234 2150 1697 2047 
L 1894 2003 
Q 2506 1872 2764 1633 
Q 3022 1394 3022 966 
Q 3022 478 2636 193 
Q 2250 -91 1575 -91 
Q 1294 -91 989 -36 
Q 684 19 347 128 
L 347 722 
Q 666 556 975 473 
Q 1284 391 1588 391 
Q 1994 391 2212 530 
Q 2431 669 2431 922 
Q 2431 1156 2273 1281 
Q 2116 1406 1581 1522 
L 1381 1569 
Q 847 1681 609 1914 
Q 372 2147 372 2553 
Q 372 3047 722 3315 
Q 1072 3584 1716 3584 
Q 2034 3584 2315 3537 
Q 2597 3491 2834 3397 
z
" transform="scale(0.015625)"/>
       <path id="DejaVuSans-5d" d="M 1947 4863 
L 1947 -844 
L 622 -844 
L 622 -397 
L 1369 -397 
L 1369 4416 
L 622 4416 
L 622 4863 
L 1947 4863 
z
" transform="scale(0.015625)"/>
      </defs>
      <use xlink:href="#DejaVuSans-74"/>
      <use xlink:href="#DejaVuSans-69" transform="translate(39.208984 0)"/>
      <use xlink:href="#DejaVuSans-6d" transform="translate(66.992188 0)"/>
      <use xlink:href="#DejaVuSans-65" transform="translate(164.404297 0)"/>
      <use xlink:href="#DejaVuSans-20" transform="translate(225.927734 0)"/>
      <use xlink:href="#DejaVuSans-5b" transform="translate(257.714844 0)"/>
      <use xlink:href="#DejaVuSans-73" transform="translate(296.728516 0)"/>
      <use xlink:href="#DejaVuSans-5d" transform="translate(348.828125 0)"/>
     </g>
    </g>
   </g>
   <g id="matplotlib.axis_2">
    <g id="ytick_1">
     <g id="line2d_8">
      <defs>
       <path id="mb654886133" d="M 0 0 
L -3.5 0 
" style="stroke: #000000; stroke-width: 0.8"/>
      </defs>
      <g>
       <use xlink:href="#mb654886133" x="59.058906" y="110.295919" style="stroke: #000000; stroke-width: 0.8"/>
      </g>
     </g>
     <g id="text_9">
      <!-- −0.02 -->
      <g transform="translate(24.478125 113.715216) scale(0.09 -0.09)">
       <defs>
        <path id="DejaVuSans-2212" d="M 678 2272 
L 4684 2272 
L 4684 1741 
L 678 1741 
L 678 2272 
z
" transform="scale(0.015625)"/>
        <path id="DejaVuSans-2e" d="M 684 794 
L 1344 794 
L 1344 0 
L 684 0 
L 684 794 
z
" transform="scale(0.015625)"/>
       </defs>
       <use xlink:href="#DejaVuSans-2212"/>
       <use xlink:href="#DejaVuSans-30" transform="translate(83.789062 0)"/>
       <use xlink:href="#DejaVuSans-2e" transform="translate(147.412109 0)"/>
       <use xlink:href="#DejaVuSans-30" transform="translate(179.199219 0)"/>
       <use xlink:href="#DejaVuSans-32" transform="translate(242.822266 0)"/>
      </g>
     </g>
    </g>
    <g id="ytick_2">
     <g id="line2d_9">
      <g>
       <use xlink:href="#mb654886133" x="59.058906" y="79.096445" style="stroke: #000000; stroke-width: 0.8"/>
      </g>
     </g>
     <g id="text_10">
      <!-- 0.00 -->
      <g transform="translate(32.019844 82.515742) scale(0.09 -0.09)">
       <use xlink:href="#DejaVuSans-30"/>
       <use xlink:href="#DejaVuSans-2e" transform="translate(63.623047 0)"/>
       <use xlink:href="#DejaVuSans-30" transform="translate(95.410156 0)"/>
       <use xlink:href="#DejaVuSans-30" transform="translate(159.033203 0)"/>
      </g>
     </g>
    </g>
    <g id="ytick_3">
     <g id="line2d_10">
      <g>
       <use xlink:href="#mb654886133" x="59.058906" y="47.896972" style="stroke: #000000; stroke-width: 0.8"/>
      </g>
     </g>
     <g id="text_11">
      <!-- 0.02 -->
      <g transform="translate(32.019844 51.316269) scale(0.09 -0.09)">
       <use xlink:href="#DejaVuSans-30"/>
       <use xlink:href="#DejaVuSans-2e" transform="translate(63.623047 0)"/>
       <use xlink:href="#DejaVuSans-30" transform="translate(95.410156 0)"/>
       <use xlink:href="#DejaVuSans-32" transform="translate(159.033203 0)"/>
      </g>
     </g>
    </g>
    <g id="ytick_4">
     <g id="line2d_11">
      <g>
       <use xlink:href="#mb654886133" x="59.058906" y="16.697499" style="stroke: #000000; stroke-width: 0.8"/>
      </g>
     </g>
     <g id="text_12">
      <!-- 0.04 -->
      <g transform="translate(32.019844 20.116795) scale(0.09 -0.09)">
       <use xlink:href="#DejaVuSans-30"/>
       <use xlink:href="#DejaVuSans-2e" transform="translate(63.623047 0)"/>
       <use xlink:href="#DejaVuSans-30" transform="translate(95.410156 0)"/>
       <use xlink:href="#DejaVuSans-34" transform="translate(159.033203 0)"/>
      </g>
     </g>
    </g>
    <g id="text_13">
     <!-- Velocity [m/s] -->
     <g transform="translate(18.398438 109.571406) rotate(-90) scale(0.1 -0.1)">
      <defs>
       <path id="DejaVuSans-56" d="M 1831 0 
L 50 4666 
L 709 4666 
L 2188 738 
L 3669 4666 
L 4325 4666 
L 2547 0 
L 1831 0 
z
" transform="scale(0.015625)"/>
       <path id="DejaVuSans-6c" d="M 603 4863 
L 1178 4863 
L 1178 0 
L 603 0 
L 603 4863 
z
" transform="scale(0.015625)"/>
       <path id="DejaVuSans-6f" d="M 1959 3097 
Q 1497 3097 1228 2736 
Q 959 2375 959 1747 
Q 959 1119 1226 758 
Q 1494 397 1959 397 
Q 2419 397 2687 759 
Q 2956 1122 2956 1747 
Q 2956 2369 2687 2733 
Q 2419 3097 1959 3097 
z
M 1959 3584 
Q 2709 3584 3137 3096 
Q 3566 2609 3566 1747 
Q 3566 888 3137 398 
Q 2709 -91 1959 -91 
Q 1206 -91 779 398 
Q 353 888 353 1747 
Q 353 2609 779 3096 
Q 1206 3584 1959 3584 
z
" transform="scale(0.015625)"/>
       <path id="DejaVuSans-63" d="M 3122 3366 
L 3122 2828 
Q 2878 2963 2633 3030 
Q 2388 3097 2138 3097 
Q 1578 3097 1268 2742 
Q 959 2388 959 1747 
Q 959 1106 1268 751 
Q 1578 397 2138 397 
Q 2388 397 2633 464 
Q 2878 531 3122 666 
L 3122 134 
Q 2881 22 2623 -34 
Q 2366 -91 2075 -91 
Q 1284 -91 818 406 
Q 353 903 353 1747 
Q 353 2603 823 3093 
Q 1294 3584 2113 3584 
Q 2378 3584 2631 3529 
Q 2884 3475 3122 3366 
z
" transform="scale(0.015625)"/>
       <path id="DejaVuSans-79" d="M 2059 -325 
Q 1816 -950 1584 -1140 
Q 1353 -1331 966 -1331 
L 506 -1331 
L 506 -850 
L 844 -850 
Q 1081 -850 1212 -737 
Q 1344 -625 1503 -206 
L 1606 56 
L 191 3500 
L 800 3500 
L 1894 763 
L 2988 3500 
L 3597 3500 
L 2059 -325 
z
" transform="scale(0.015625)"/>
       <path id="DejaVuSans-2f" d="M 1625 4666 
L 2156 4666 
L 531 -594 
L 0 -594 
L 1625 4666 
z
" transform="scale(0.015625)"/>
      </defs>
      <use xlink:href="#DejaVuSans-56"/>
      <use xlink:href="#DejaVuSans-65" transform="translate(60.658203 0)"/>
      <use xlink:href="#DejaVuSans-6c" transform="translate(122.181641 0)"/>
      <use xlink:href="#DejaVuSans-6f" transform="translate(149.964844 0)"/>
      <use xlink:href="#DejaVuSans-63" transform="translate(211.146484 0)"/>
      <use xlink:href="#DejaVuSans-69" transform="translate(266.126953 0)"/>
      <use xlink:href="#DejaVuSans-74" transform="translate(293.910156 0)"/>
      <use xlink:href="#DejaVuSans-79" transform="translate(333.119141 0)"/>
      <use xlink:href="#DejaVuSans-20" transform="translate(392.298828 0)"/>
      <use xlink:href="#DejaVuSans-5b" transform="translate(424.085938 0)"/>
      <use xlink:href="#DejaVuSans-6d" transform="translate(463.099609 0)"/>
      <use xlink:href="#DejaVuSans-2f" transform="translate(560.511719 0)"/>
      <use xlink:href="#DejaVuSans-73" transform="translate(594.203125 0)"/>
      <use xlink:href="#DejaVuSans-5d" transform="translate(646.302734 0)"/>
     </g>
    </g>
   </g>
   <g id="line2d_12">
    <path d="M 74.701683 29.852836 
L 75.64025 28.378863 
L 76.370246 27.59915 
L 76.995957 27.22622 
L 77.569526 27.13447 
L 78.143094 27.276945 
L 78.768805 27.676916 
L 79.550944 28.470585 
L 80.750224 30.065112 
L 82.523072 32.379486 
L 83.461638 33.236378 
L 84.243777 33.666917 
L 84.973773 33.823322 
L 85.70377 33.750372 
L 86.485909 33.439594 
L 87.372333 32.836237 
L 88.467327 31.796305 
L 89.875177 30.118685 
L 91.908738 27.304049 
L 97.435852 19.462101 
L 98.739417 18.073494 
L 99.782269 17.258994 
L 100.668693 16.825438 
L 101.450832 16.668468 
L 102.232971 16.740841 
L 103.01511 17.052953 
L 103.797248 17.607907 
L 104.683672 18.524532 
L 105.674382 19.889188 
L 106.821519 21.866765 
L 108.229369 24.762535 
L 110.158644 29.282759 
L 116.415755 44.314689 
L 118.292888 48.07972 
L 119.857166 50.73557 
L 121.212873 52.615465 
L 122.412153 53.917447 
L 123.507147 54.795999 
L 124.549999 55.355995 
L 125.540708 55.645584 
L 126.58356 55.712206 
L 127.678555 55.547887 
L 128.929977 55.117248 
L 130.494254 54.321291 
L 135.23923 51.729074 
L 136.542795 51.363324 
L 137.689932 51.268737 
L 138.784926 51.403851 
L 139.879921 51.773278 
L 140.974915 52.381036 
L 142.174195 53.313736 
L 143.477759 54.623203 
L 144.989895 56.480856 
L 146.814885 59.107658 
L 149.317729 63.144139 
L 155.1577 72.686762 
L 157.451974 75.931596 
L 159.485535 78.425797 
L 161.362668 80.38825 
L 163.239801 82.035299 
L 165.169077 83.437071 
L 167.359066 84.747748 
L 170.331193 86.243366 
L 175.389024 88.777032 
L 178.100439 90.419402 
L 180.811854 92.330977 
L 184.044694 94.902052 
L 194.473212 103.423719 
L 197.601768 105.561919 
L 200.730323 107.432049 
L 204.119592 109.194741 
L 208.134571 111.02208 
L 213.296687 113.115029 
L 218.823802 115.124323 
L 223.308065 116.526228 
L 227.218759 117.517974 
L 230.973025 118.240805 
L 234.88372 118.763644 
L 239.211555 119.110919 
L 244.165101 119.277974 
L 249.431502 119.233828 
L 254.385048 118.973663 
L 258.921454 118.513505 
L 263.301431 117.843646 
L 267.785694 116.930288 
L 272.73924 115.688895 
L 278.527067 114.002281 
L 285.201319 111.822812 
L 291.771285 109.447146 
L 297.819826 107.024514 
L 303.711938 104.42336 
L 309.864764 101.459715 
L 316.486873 98.018983 
L 323.47398 94.135778 
L 330.461087 89.998155 
L 337.500337 85.568183 
L 344.956727 80.606311 
L 353.66454 74.532707 
L 369.7766 62.949288 
L 379.214409 56.330089 
L 385.784375 51.986625 
L 387.557223 50.868583 
L 387.557223 50.868583 
" clip-path="url(#pc9dbe87736)" style="fill: none; stroke: #2b737e; stroke-width: 1.5; stroke-linecap: square"/>
   </g>
   <g id="line2d_13">
    <path d="M 74.701683 53.53021 
L 76.109533 55.638686 
L 76.839529 56.344595 
L 77.413098 56.601437 
L 77.882381 56.585302 
L 78.351665 56.352558 
L 78.87309 55.837811 
L 79.498802 54.880988 
L 80.28094 53.233206 
L 81.375935 50.331698 
L 84.400205 42.022325 
L 85.390914 40.05599 
L 86.225196 38.853478 
L 86.955192 38.154969 
L 87.633046 37.794415 
L 88.310899 37.692576 
L 88.988753 37.822063 
L 89.770892 38.213292 
L 90.761601 38.986137 
L 92.638734 40.821919 
L 94.046584 42.040455 
L 94.985151 42.582448 
L 95.819432 42.809952 
L 96.549428 42.784439 
L 97.279425 42.537567 
L 98.061564 42.02783 
L 98.947988 41.161435 
L 99.990839 39.80414 
L 101.398689 37.563875 
L 104.683672 32.200757 
L 105.778667 30.893758 
L 106.717233 30.111016 
L 107.499372 29.725814 
L 108.229369 29.593692 
L 108.959365 29.678815 
L 109.741504 29.999119 
L 110.627928 30.621405 
L 111.67078 31.649501 
L 113.026487 33.331524 
L 118.292888 40.242019 
L 119.596453 41.414538 
L 120.74359 42.165991 
L 121.838585 42.631894 
L 122.933579 42.858088 
L 124.028573 42.858286 
L 125.17571 42.636819 
L 126.427132 42.166285 
L 127.834982 41.395423 
L 129.555688 40.182588 
L 131.902104 38.227092 
L 136.125654 34.683342 
L 137.794217 33.59524 
L 139.202067 32.936546 
L 140.453489 32.597222 
L 141.600626 32.516016 
L 142.695621 32.657736 
L 143.790615 33.019354 
L 144.937752 33.631914 
L 146.189174 34.559931 
L 147.597024 35.896279 
L 149.265587 37.810986 
L 151.455576 40.694723 
L 157.243403 48.488599 
L 159.224822 50.689886 
L 160.99767 52.330034 
L 162.666233 53.575863 
L 164.334795 54.54639 
L 166.107643 55.313711 
L 168.089062 55.921447 
L 170.904762 56.524533 
L 174.919741 57.404743 
L 177.057587 58.117012 
L 178.986863 58.993089 
L 180.916139 60.120317 
L 182.897557 61.542151 
L 185.087546 63.397107 
L 187.694676 65.910033 
L 191.970368 70.395074 
L 196.506773 75.047709 
L 199.583186 77.88181 
L 202.503171 80.268551 
L 205.579584 82.492464 
L 209.438136 84.988989 
L 222.369498 93.14377 
L 233.423727 100.403048 
L 237.699419 102.885516 
L 241.870827 105.048881 
L 246.250804 107.068053 
L 251.100065 109.056556 
L 256.314324 110.953492 
L 261.372155 112.559076 
L 266.064988 113.819894 
L 270.601394 114.81171 
L 275.189942 115.587859 
L 279.98706 116.171669 
L 284.992749 116.555536 
L 290.05058 116.722036 
L 295.004126 116.664312 
L 299.801244 116.386306 
L 304.494077 115.892387 
L 309.239053 115.168459 
L 314.088314 114.202689 
L 319.094002 112.976518 
L 324.099691 111.522185 
L 329.053237 109.853178 
L 333.902498 107.985652 
L 338.647474 105.921819 
L 343.392449 103.615683 
L 348.189568 101.035901 
L 353.090971 98.14644 
L 358.148802 94.905137 
L 363.415204 91.262639 
L 368.890176 87.203241 
L 374.730146 82.592204 
L 381.143684 77.238982 
L 387.557223 71.650377 
L 387.557223 71.650377 
" clip-path="url(#pc9dbe87736)" style="fill: none; stroke: #5ea04b; stroke-width: 1.5; stroke-linecap: square"/>
   </g>
   <g id="line2d_14">
    <path d="M 74.701683 102.77382 
L 76.526674 78.758817 
L 78.195237 59.469441 
L 79.446659 47.365028 
L 80.437368 39.761274 
L 81.27165 34.919193 
L 82.001646 31.898416 
L 82.627357 30.20013 
L 83.148783 29.3896 
L 83.565924 29.119091 
L 83.930922 29.145407 
L 84.29592 29.406146 
L 84.765203 30.068213 
L 85.338772 31.344512 
L 86.016625 33.459156 
L 86.850907 36.862753 
L 87.893758 42.170633 
L 89.197323 50.085476 
L 91.074456 63.035384 
L 94.77658 88.798335 
L 96.236573 97.318038 
L 97.435852 103.082252 
L 98.426562 106.847024 
L 99.260843 109.249689 
L 99.990839 110.747432 
L 100.61655 111.572177 
L 101.137976 111.934391 
L 101.60726 112.009497 
L 102.076543 111.850515 
L 102.597969 111.405787 
L 103.171537 110.601959 
L 103.849391 109.248872 
L 104.683672 107.030464 
L 105.674382 103.696987 
L 106.873661 98.830679 
L 108.490082 91.258925 
L 115.007905 59.606022 
L 116.572183 53.599767 
L 117.92789 49.215072 
L 119.179312 45.890354 
L 120.326449 43.463121 
L 121.369301 41.76338 
L 122.307868 40.62944 
L 123.194292 39.881911 
L 124.080716 39.423617 
L 124.96714 39.225495 
L 125.853564 39.254848 
L 126.844273 39.51331 
L 128.043553 40.073174 
L 129.659973 41.100692 
L 133.62281 43.718381 
L 135.03066 44.332912 
L 136.282082 44.641335 
L 137.429219 44.703691 
L 138.576356 44.54722 
L 139.775636 44.153431 
L 141.0792 43.4762 
L 142.539193 42.448577 
L 144.259898 40.950856 
L 146.7106 38.492603 
L 151.455576 33.698624 
L 153.645564 31.835461 
L 155.626983 30.437761 
L 157.556259 29.348608 
L 159.537677 28.487793 
L 161.675523 27.803057 
L 164.282653 27.214174 
L 168.193347 26.588882 
L 177.631156 25.346055 
L 180.655426 25.183395 
L 183.210413 25.267248 
L 185.608972 25.570235 
L 188.007531 26.098228 
L 190.614661 26.904642 
L 193.743216 28.118184 
L 198.905333 30.404775 
L 205.788154 33.387103 
L 215.017393 37.316434 
L 218.406661 39.053904 
L 221.587359 40.936427 
L 224.872342 43.143887 
L 228.678751 45.98209 
L 234.362294 50.536864 
L 243.852245 58.121274 
L 264.604996 74.358905 
L 281.290625 87.912772 
L 289.268441 94.006429 
L 298.758392 100.967141 
L 307.57049 107.169436 
L 314.870453 112.040646 
L 321.440419 116.161641 
L 327.593245 119.763452 
L 333.328929 122.86789 
L 338.595331 125.470746 
L 343.444592 127.625711 
L 347.980997 129.403497 
L 352.25669 130.844699 
L 356.323812 131.984733 
L 360.234506 132.851603 
L 363.988772 133.457328 
L 367.586611 133.816549 
L 371.132307 133.946883 
L 374.573718 133.850779 
L 377.962986 133.533084 
L 381.300112 132.996952 
L 384.637238 132.233742 
L 387.557223 131.376583 
L 387.557223 131.376583 
" clip-path="url(#pc9dbe87736)" style="fill: none; stroke: #bdab62; stroke-width: 1.5; stroke-linecap: square"/>
   </g>
   <g id="patch_3">
    <path d="M 59.058906 139.811563 
L 59.058906 10.8 
" style="fill: none; stroke: #000000; stroke-width: 0.8; stroke-linejoin: miter; stroke-linecap: square"/>
   </g>
   <g id="patch_4">
    <path d="M 403.2 139.811563 
L 403.2 10.8 
" style="fill: none; stroke: #000000; stroke-width: 0.8; stroke-linejoin: miter; stroke-linecap: square"/>
   </g>
   <g id="patch_5">
    <path d="M 59.058906 139.811563 
L 403.2 139.811563 
" style="fill: none; stroke: #000000; stroke-width: 0.8; stroke-linejoin: miter; stroke-linecap: square"/>
   </g>
   <g id="patch_6">
    <path d="M 59.058906 10.8 
L 403.2 10.8 
" style="fill: none; stroke: #000000; stroke-width: 0.8; stroke-linejoin: miter; stroke-linecap: square"/>
   </g>
   <g id="legend_1">
    <g id="patch_7">
     <path d="M 346.23 135.311563 
L 396.9 135.311563 
Q 398.7 135.311563 398.7 133.511563 
L 398.7 93.645781 
Q 398.7 91.845781 396.9 91.845781 
L 346.23 91.845781 
Q 344.43 91.845781 344.43 93.645781 
L 344.43 133.511563 
Q 344.43 135.311563 346.23 135.311563 
z
" style="fill: #ffffff; opacity: 0.8; stroke: #cccccc; stroke-linejoin: miter"/>
    </g>
    <g id="line2d_15">
     <path d="M 348.03 99.134375 
L 357.03 99.134375 
L 366.03 99.134375 
" style="fill: none; stroke: #2b737e; stroke-width: 1.5; stroke-linecap: square"/>
    </g>
    <g id="text_14">
     <!-- $v_{BN,0}$ -->
     <g transform="translate(373.23 102.284375) scale(0.09 -0.09)">
      <defs>
       <path id="DejaVuSans-Oblique-76" d="M 459 3500 
L 1069 3500 
L 1581 525 
L 3256 3500 
L 3866 3500 
L 1875 0 
L 1100 0 
L 459 3500 
z
" transform="scale(0.015625)"/>
       <path id="DejaVuSans-Oblique-42" d="M 1081 4666 
L 2694 4666 
Q 3350 4666 3675 4422 
Q 4000 4178 4000 3688 
Q 4000 3238 3720 2911 
Q 3441 2584 2988 2516 
Q 3375 2428 3569 2181 
Q 3763 1934 3763 1522 
Q 3763 819 3242 409 
Q 2722 0 1819 0 
L 172 0 
L 1081 4666 
z
M 1234 2228 
L 903 519 
L 1919 519 
Q 2491 519 2800 781 
Q 3109 1044 3109 1522 
Q 3109 1891 2904 2059 
Q 2700 2228 2247 2228 
L 1234 2228 
z
M 1606 4147 
L 1331 2741 
L 2272 2741 
Q 2775 2741 3058 2959 
Q 3341 3178 3341 3566 
Q 3341 3869 3150 4008 
Q 2959 4147 2541 4147 
L 1606 4147 
z
" transform="scale(0.015625)"/>
       <path id="DejaVuSans-Oblique-4e" d="M 1081 4666 
L 1931 4666 
L 3219 666 
L 4000 4666 
L 4616 4666 
L 3706 0 
L 2853 0 
L 1569 4025 
L 788 0 
L 172 0 
L 1081 4666 
z
" transform="scale(0.015625)"/>
       <path id="DejaVuSans-2c" d="M 750 794 
L 1409 794 
L 1409 256 
L 897 -744 
L 494 -744 
L 750 256 
L 750 794 
z
" transform="scale(0.015625)"/>
      </defs>
      <use xlink:href="#DejaVuSans-Oblique-76" transform="translate(0 0.3125)"/>
      <use xlink:href="#DejaVuSans-Oblique-42" transform="translate(59.179688 -16.09375) scale(0.7)"/>
      <use xlink:href="#DejaVuSans-Oblique-4e" transform="translate(107.202148 -16.09375) scale(0.7)"/>
      <use xlink:href="#DejaVuSans-2c" transform="translate(159.56543 -16.09375) scale(0.7)"/>
      <use xlink:href="#DejaVuSans-30" transform="translate(195.454102 -16.09375) scale(0.7)"/>
     </g>
    </g>
    <g id="line2d_16">
     <path d="M 348.03 112.722969 
L 357.03 112.722969 
L 366.03 112.722969 
" style="fill: none; stroke: #5ea04b; stroke-width: 1.5; stroke-linecap: square"/>
    </g>
    <g id="text_15">
     <!-- $v_{BN,1}$ -->
     <g transform="translate(373.23 115.872969) scale(0.09 -0.09)">
      <use xlink:href="#DejaVuSans-Oblique-76" transform="translate(0 0.3125)"/>
      <use xlink:href="#DejaVuSans-Oblique-42" transform="translate(59.179688 -16.09375) scale(0.7)"/>
      <use xlink:href="#DejaVuSans-Oblique-4e" transform="translate(107.202148 -16.09375) scale(0.7)"/>
      <use xlink:href="#DejaVuSans-2c" transform="translate(159.56543 -16.09375) scale(0.7)"/>
      <use xlink:href="#DejaVuSans-31" transform="translate(195.454102 -16.09375) scale(0.7)"/>
     </g>
    </g>
    <g id="line2d_17">
     <path d="M 348.03 126.311563 
L 357.03 126.311563 
L 366.03 126.311563 
" style="fill: none; stroke: #bdab62; stroke-width: 1.5; stroke-linecap: square"/>
    </g>
    <g id="text_16">
     <!-- $v_{BN,2}$ -->
     <g transform="translate(373.23 129.461563) scale(0.09 -0.09)">
      <use xlink:href="#DejaVuSans-Oblique-76" transform="translate(0 0.3125)"/>
      <use xlink:href="#DejaVuSans-Oblique-42" transform="translate(59.179688 -16.09375) scale(0.7)"/>
      <use xlink:href="#DejaVuSans-Oblique-4e" transform="translate(107.202148 -16.09375) scale(0.7)"/>
      <use xlink:href="#DejaVuSans-2c" transform="translate(159.56543 -16.09375) scale(0.7)"/>
      <use xlink:href="#DejaVuSans-32" transform="translate(195.454102 -16.09375) scale(0.7)"/>
     </g>
    </g>
   </g>
  </g>
 </g>
 <defs>
  <clipPath id="pc9dbe87736">
   <rect x="59.058906" y="10.8" width="344.141094" height="129.011562"/>
  </clipPath>
 </defs>
</svg>
