<?xml version="1.0" encoding="utf-8" standalone="no"?>
<!DOCTYPE svg PUBLIC "-//W3C//DTD SVG 1.1//EN"
  "http://www.w3.org/Graphics/SVG/1.1/DTD/svg11.dtd">
<svg xmlns:xlink="http://www.w3.org/1999/xlink" width="414pt" height="288pt" viewBox="0 0 414 288" xmlns="http://www.w3.org/2000/svg" version="1.1">
 <metadata>
  <rdf:RDF xmlns:dc="http://purl.org/dc/elements/1.1/" xmlns:cc="http://creativecommons.org/ns#" xmlns:rdf="http://www.w3.org/1999/02/22-rdf-syntax-ns#">
   <cc:Work>
    <dc:type rdf:resource="http://purl.org/dc/dcmitype/StillImage"/>
    <dc:date>2026-01-30T00:54:57.129150</dc:date>
    <dc:format>image/svg+xml</dc:format>
    <dc:creator>
     <cc:Agent>
      <dc:title>Matplotlib v3.10.7, https://matplotlib.org/</dc:title>
     </cc:Agent>
    </dc:creator>
   </cc:Work>
  </rdf:RDF>
 </metadata>
 <defs>
  <style type="text/css">*{stroke-linejoin: round; stroke-linecap: butt}</style>
 </defs>
 <g id="figure_1">
  <g id="patch_1">
   <path d="M 0 288 
L 414 288 
L 414 0 
L 0 0 
L 0 288 
z
" style="fill: none"/>
  </g>
  <g id="axes_1">
   <g id="patch_2">
    <path d="M 85.605625 241.036875 
L 390.360682 241.036875 
L 390.360682 10.8 
L 85.605625 10.8 
L 85.605625 241.036875 
z
" style="fill: none"/>
   </g>
   <g id="matplotlib.axis_1">
    <g id="xtick_1">
     <g id="line2d_1">
      <defs>
       <path id="m8878fa8462" d="M 0 0 
L 0 3.5 
" style="stroke: #000000; stroke-width: 0.8"/>
      </defs>
      <g>
       <use xlink:href="#m8878fa8462" x="99.458128" y="241.036875" style="stroke: #000000; stroke-width: 0.8"/>
      </g>
     </g>
     <g id="text_1">
      <!-- 0 -->
      <g transform="translate(94.368128 260.194375) scale(0.16 -0.16)">
       <defs>
        <path id="DejaVuSans-30" d="M 2034 4250 
Q 1547 4250 1301 3770 
Q 1056 3291 1056 2328 
Q 1056 1369 1301 889 
Q 1547 409 2034 409 
Q 2525 409 2770 889 
Q 3016 1369 3016 2328 
Q 3016 3291 2770 3770 
Q 2525 4250 2034 4250 
z
M 2034 4750 
Q 2819 4750 3233 4129 
Q 3647 3509 3647 2328 
Q 3647 1150 3233 529 
Q 2819 -91 2034 -91 
Q 1250 -91 836 529 
Q 422 1150 422 2328 
Q 422 3509 836 4129 
Q 1250 4750 2034 4750 
z
" transform="scale(0.015625)"/>
       </defs>
       <use xlink:href="#DejaVuSans-30"/>
      </g>
     </g>
    </g>
    <g id="xtick_2">
     <g id="line2d_2">
      <g>
       <use xlink:href="#m8878fa8462" x="157.176888" y="241.036875" style="stroke: #000000; stroke-width: 0.8"/>
      </g>
     </g>
     <g id="text_2">
      <!-- 50 -->
      <g transform="translate(146.996888 260.194375) scale(0.16 -0.16)">
       <defs>
        <path id="DejaVuSans-35" d="M 691 4666 
L 3169 4666 
L 3169 4134 
L 1269 4134 
L 1269 2991 
Q 1406 3038 1543 3061 
Q 1681 3084 1819 3084 
Q 2600 3084 3056 2656 
Q 3513 2228 3513 1497 
Q 3513 744 3044 326 
Q 2575 -91 1722 -91 
Q 1428 -91 1123 -41 
Q 819 9 494 109 
L 494 744 
Q 775 591 1075 516 
Q 1375 441 1709 441 
Q 2250 441 2565 725 
Q 2881 1009 2881 1497 
Q 2881 1984 2565 2268 
Q 2250 2553 1709 2553 
Q 1456 2553 1204 2497 
Q 953 2441 691 2322 
L 691 4666 
z
" transform="scale(0.015625)"/>
       </defs>
       <use xlink:href="#DejaVuSans-35"/>
       <use xlink:href="#DejaVuSans-30" transform="translate(63.623047 0)"/>
      </g>
     </g>
    </g>
    <g id="xtick_3">
     <g id="line2d_3">
      <g>
       <use xlink:href="#m8878fa8462" x="214.895649" y="241.036875" style="stroke: #000000; stroke-width: 0.8"/>
      </g>
     </g>
     <g id="text_3">
      <!-- 100 -->
      <g transform="translate(199.625649 260.194375) scale(0.16 -0.16)">
       <defs>
        <path id="DejaVuSans-31" d="M 794 531 
L 1825 531 
L 1825 4091 
L 703 3866 
L 703 4441 
L 1819 4666 
L 2450 4666 
L 2450 531 
L 3481 531 
L 3481 0 
L 794 0 
L 794 531 
z
" transform="scale(0.015625)"/>
       </defs>
       <use xlink:href="#DejaVuSans-31"/>
       <use xlink:href="#DejaVuSans-30" transform="translate(63.623047 0)"/>
       <use xlink:href="#DejaVuSans-30" transform="translate(127.246094 0)"/>
      </g>
     </g>
    </g>
    <g id="xtick_4">
     <g id="line2d_4">
      <g>
       <use xlink:href="#m8878fa8462" x="272.61441" y="241.036875" style="stroke: #000000; stroke-width: 0.8"/>
      </g>
     </g>
     <g id="text_4">
      <!-- 150 -->
      <g transform="translate(257.34441 260.194375) scale(0.16 -0.16)">
       <use xlink:href="#DejaVuSans-31"/>
       <use xlink:href="#DejaVuSans-35" transform="translate(63.623047 0)"/>
       <use xlink:href="#DejaVuSans-30" transform="translate(127.246094 0)"/>
      </g>
     </g>
    </g>
    <g id="xtick_5">
     <g id="line2d_5">
      <g>
       <use xlink:href="#m8878fa8462" x="330.333171" y="241.036875" style="stroke: #000000; stroke-width: 0.8"/>
      </g>
     </g>
     <g id="text_5">
      <!-- 200 -->
      <g transform="translate(315.063171 260.194375) scale(0.16 -0.16)">
       <defs>
        <path id="DejaVuSans-32" d="M 1228 531 
L 3431 531 
L 3431 0 
L 469 0 
L 469 531 
Q 828 903 1448 1529 
Q 2069 2156 2228 2338 
Q 2531 2678 2651 2914 
Q 2772 3150 2772 3378 
Q 2772 3750 2511 3984 
Q 2250 4219 1831 4219 
Q 1534 4219 1204 4116 
Q 875 4013 500 3803 
L 500 4441 
Q 881 4594 1212 4672 
Q 1544 4750 1819 4750 
Q 2544 4750 2975 4387 
Q 3406 4025 3406 3419 
Q 3406 3131 3298 2873 
Q 3191 2616 2906 2266 
Q 2828 2175 2409 1742 
Q 1991 1309 1228 531 
z
" transform="scale(0.015625)"/>
       </defs>
       <use xlink:href="#DejaVuSans-32"/>
       <use xlink:href="#DejaVuSans-30" transform="translate(63.623047 0)"/>
       <use xlink:href="#DejaVuSans-30" transform="translate(127.246094 0)"/>
      </g>
     </g>
    </g>
    <g id="xtick_6">
     <g id="line2d_6">
      <g>
       <use xlink:href="#m8878fa8462" x="388.051931" y="241.036875" style="stroke: #000000; stroke-width: 0.8"/>
      </g>
     </g>
     <g id="text_6">
      <!-- 250 -->
      <g transform="translate(372.781931 260.194375) scale(0.16 -0.16)">
       <use xlink:href="#DejaVuSans-32"/>
       <use xlink:href="#DejaVuSans-35" transform="translate(63.623047 0)"/>
       <use xlink:href="#DejaVuSans-30" transform="translate(127.246094 0)"/>
      </g>
     </g>
    </g>
    <g id="text_7">
     <!-- Time [min] -->
     <g transform="translate(210.83081 275.120313) scale(0.1 -0.1)">
      <defs>
       <path id="DejaVuSans-54" d="M -19 4666 
L 3928 4666 
L 3928 4134 
L 2272 4134 
L 2272 0 
L 1638 0 
L 1638 4134 
L -19 4134 
L -19 4666 
z
" transform="scale(0.015625)"/>
       <path id="DejaVuSans-69" d="M 603 3500 
L 1178 3500 
L 1178 0 
L 603 0 
L 603 3500 
z
M 603 4863 
L 1178 4863 
L 1178 4134 
L 603 4134 
L 603 4863 
z
" transform="scale(0.015625)"/>
       <path id="DejaVuSans-6d" d="M 3328 2828 
Q 3544 3216 3844 3400 
Q 4144 3584 4550 3584 
Q 5097 3584 5394 3201 
Q 5691 2819 5691 2113 
L 5691 0 
L 5113 0 
L 5113 2094 
Q 5113 2597 4934 2840 
Q 4756 3084 4391 3084 
Q 3944 3084 3684 2787 
Q 3425 2491 3425 1978 
L 3425 0 
L 2847 0 
L 2847 2094 
Q 2847 2600 2669 2842 
Q 2491 3084 2119 3084 
Q 1678 3084 1418 2786 
Q 1159 2488 1159 1978 
L 1159 0 
L 581 0 
L 581 3500 
L 1159 3500 
L 1159 2956 
Q 1356 3278 1631 3431 
Q 1906 3584 2284 3584 
Q 2666 3584 2933 3390 
Q 3200 3197 3328 2828 
z
" transform="scale(0.015625)"/>
       <path id="DejaVuSans-65" d="M 3597 1894 
L 3597 1613 
L 953 1613 
Q 991 1019 1311 708 
Q 1631 397 2203 397 
Q 2534 397 2845 478 
Q 3156 559 3463 722 
L 3463 178 
Q 3153 47 2828 -22 
Q 2503 -91 2169 -91 
Q 1331 -91 842 396 
Q 353 884 353 1716 
Q 353 2575 817 3079 
Q 1281 3584 2069 3584 
Q 2775 3584 3186 3129 
Q 3597 2675 3597 1894 
z
M 3022 2063 
Q 3016 2534 2758 2815 
Q 2500 3097 2075 3097 
Q 1594 3097 1305 2825 
Q 1016 2553 972 2059 
L 3022 2063 
z
" transform="scale(0.015625)"/>
       <path id="DejaVuSans-20" transform="scale(0.015625)"/>
       <path id="DejaVuSans-5b" d="M 550 4863 
L 1875 4863 
L 1875 4416 
L 1125 4416 
L 1125 -397 
L 1875 -397 
L 1875 -844 
L 550 -844 
L 550 4863 
z
" transform="scale(0.015625)"/>
       <path id="DejaVuSans-6e" d="M 3513 2113 
L 3513 0 
L 2938 0 
L 2938 2094 
Q 2938 2591 2744 2837 
Q 2550 3084 2163 3084 
Q 1697 3084 1428 2787 
Q 1159 2491 1159 1978 
L 1159 0 
L 581 0 
L 581 3500 
L 1159 3500 
L 1159 2956 
Q 1366 3272 1645 3428 
Q 1925 3584 2291 3584 
Q 2894 3584 3203 3211 
Q 3513 2838 3513 2113 
z
" transform="scale(0.015625)"/>
       <path id="DejaVuSans-5d" d="M 1947 4863 
L 1947 -844 
L 622 -844 
L 622 -397 
L 1369 -397 
L 1369 4416 
L 622 4416 
L 622 4863 
L 1947 4863 
z
" transform="scale(0.015625)"/>
      </defs>
      <use xlink:href="#DejaVuSans-54"/>
      <use xlink:href="#DejaVuSans-69" transform="translate(57.958984 0)"/>
      <use xlink:href="#DejaVuSans-6d" transform="translate(85.742188 0)"/>
      <use xlink:href="#DejaVuSans-65" transform="translate(183.154297 0)"/>
      <use xlink:href="#DejaVuSans-20" transform="translate(244.677734 0)"/>
      <use xlink:href="#DejaVuSans-5b" transform="translate(276.464844 0)"/>
      <use xlink:href="#DejaVuSans-6d" transform="translate(315.478516 0)"/>
      <use xlink:href="#DejaVuSans-69" transform="translate(412.890625 0)"/>
      <use xlink:href="#DejaVuSans-6e" transform="translate(440.673828 0)"/>
      <use xlink:href="#DejaVuSans-5d" transform="translate(504.052734 0)"/>
     </g>
    </g>
   </g>
   <g id="matplotlib.axis_2">
    <g id="ytick_1">
     <g id="line2d_7">
      <defs>
       <path id="m3f7222ee3a" d="M 0 0 
L -3.5 0 
" style="stroke: #000000; stroke-width: 0.8"/>
      </defs>
      <g>
       <use xlink:href="#m3f7222ee3a" x="85.605625" y="206.562189" style="stroke: #000000; stroke-width: 0.8"/>
      </g>
     </g>
     <g id="text_8">
      <!-- −1000 -->
      <g transform="translate(24.478125 212.640939) scale(0.16 -0.16)">
       <defs>
        <path id="DejaVuSans-2212" d="M 678 2272 
L 4684 2272 
L 4684 1741 
L 678 1741 
L 678 2272 
z
" transform="scale(0.015625)"/>
       </defs>
       <use xlink:href="#DejaVuSans-2212"/>
       <use xlink:href="#DejaVuSans-31" transform="translate(83.789062 0)"/>
       <use xlink:href="#DejaVuSans-30" transform="translate(147.412109 0)"/>
       <use xlink:href="#DejaVuSans-30" transform="translate(211.035156 0)"/>
       <use xlink:href="#DejaVuSans-30" transform="translate(274.658203 0)"/>
      </g>
     </g>
    </g>
    <g id="ytick_2">
     <g id="line2d_8">
      <g>
       <use xlink:href="#m3f7222ee3a" x="85.605625" y="163.442932" style="stroke: #000000; stroke-width: 0.8"/>
      </g>
     </g>
     <g id="text_9">
      <!-- −500 -->
      <g transform="translate(34.658125 169.521682) scale(0.16 -0.16)">
       <use xlink:href="#DejaVuSans-2212"/>
       <use xlink:href="#DejaVuSans-35" transform="translate(83.789062 0)"/>
       <use xlink:href="#DejaVuSans-30" transform="translate(147.412109 0)"/>
       <use xlink:href="#DejaVuSans-30" transform="translate(211.035156 0)"/>
      </g>
     </g>
    </g>
    <g id="ytick_3">
     <g id="line2d_9">
      <g>
       <use xlink:href="#m3f7222ee3a" x="85.605625" y="120.323675" style="stroke: #000000; stroke-width: 0.8"/>
      </g>
     </g>
     <g id="text_10">
      <!-- 0 -->
      <g transform="translate(68.425625 126.402425) scale(0.16 -0.16)">
       <use xlink:href="#DejaVuSans-30"/>
      </g>
     </g>
    </g>
    <g id="ytick_4">
     <g id="line2d_10">
      <g>
       <use xlink:href="#m3f7222ee3a" x="85.605625" y="77.204418" style="stroke: #000000; stroke-width: 0.8"/>
      </g>
     </g>
     <g id="text_11">
      <!-- 500 -->
      <g transform="translate(48.065625 83.283168) scale(0.16 -0.16)">
       <use xlink:href="#DejaVuSans-35"/>
       <use xlink:href="#DejaVuSans-30" transform="translate(63.623047 0)"/>
       <use xlink:href="#DejaVuSans-30" transform="translate(127.246094 0)"/>
      </g>
     </g>
    </g>
    <g id="ytick_5">
     <g id="line2d_11">
      <g>
       <use xlink:href="#m3f7222ee3a" x="85.605625" y="34.085161" style="stroke: #000000; stroke-width: 0.8"/>
      </g>
     </g>
     <g id="text_12">
      <!-- 1000 -->
      <g transform="translate(37.885625 40.163911) scale(0.16 -0.16)">
       <use xlink:href="#DejaVuSans-31"/>
       <use xlink:href="#DejaVuSans-30" transform="translate(63.623047 0)"/>
       <use xlink:href="#DejaVuSans-30" transform="translate(127.246094 0)"/>
       <use xlink:href="#DejaVuSans-30" transform="translate(190.869141 0)"/>
      </g>
     </g>
    </g>
    <g id="text_13">
     <!-- RW Speed (RPM)  -->
     <g transform="translate(18.398438 169.284062) rotate(-90) scale(0.1 -0.1)">
      <defs>
       <path id="DejaVuSans-52" d="M 2841 2188 
Q 3044 2119 3236 1894 
Q 3428 1669 3622 1275 
L 4263 0 
L 3584 0 
L 2988 1197 
Q 2756 1666 2539 1819 
Q 2322 1972 1947 1972 
L 1259 1972 
L 1259 0 
L 628 0 
L 628 4666 
L 2053 4666 
Q 2853 4666 3247 4331 
Q 3641 3997 3641 3322 
Q 3641 2881 3436 2590 
Q 3231 2300 2841 2188 
z
M 1259 4147 
L 1259 2491 
L 2053 2491 
Q 2509 2491 2742 2702 
Q 2975 2913 2975 3322 
Q 2975 3731 2742 3939 
Q 2509 4147 2053 4147 
L 1259 4147 
z
" transform="scale(0.015625)"/>
       <path id="DejaVuSans-57" d="M 213 4666 
L 850 4666 
L 1831 722 
L 2809 4666 
L 3519 4666 
L 4500 722 
L 5478 4666 
L 6119 4666 
L 4947 0 
L 4153 0 
L 3169 4050 
L 2175 0 
L 1381 0 
L 213 4666 
z
" transform="scale(0.015625)"/>
       <path id="DejaVuSans-53" d="M 3425 4513 
L 3425 3897 
Q 3066 4069 2747 4153 
Q 2428 4238 2131 4238 
Q 1616 4238 1336 4038 
Q 1056 3838 1056 3469 
Q 1056 3159 1242 3001 
Q 1428 2844 1947 2747 
L 2328 2669 
Q 3034 2534 3370 2195 
Q 3706 1856 3706 1288 
Q 3706 609 3251 259 
Q 2797 -91 1919 -91 
Q 1588 -91 1214 -16 
Q 841 59 441 206 
L 441 856 
Q 825 641 1194 531 
Q 1563 422 1919 422 
Q 2459 422 2753 634 
Q 3047 847 3047 1241 
Q 3047 1584 2836 1778 
Q 2625 1972 2144 2069 
L 1759 2144 
Q 1053 2284 737 2584 
Q 422 2884 422 3419 
Q 422 4038 858 4394 
Q 1294 4750 2059 4750 
Q 2388 4750 2728 4690 
Q 3069 4631 3425 4513 
z
" transform="scale(0.015625)"/>
       <path id="DejaVuSans-70" d="M 1159 525 
L 1159 -1331 
L 581 -1331 
L 581 3500 
L 1159 3500 
L 1159 2969 
Q 1341 3281 1617 3432 
Q 1894 3584 2278 3584 
Q 2916 3584 3314 3078 
Q 3713 2572 3713 1747 
Q 3713 922 3314 415 
Q 2916 -91 2278 -91 
Q 1894 -91 1617 61 
Q 1341 213 1159 525 
z
M 3116 1747 
Q 3116 2381 2855 2742 
Q 2594 3103 2138 3103 
Q 1681 3103 1420 2742 
Q 1159 2381 1159 1747 
Q 1159 1113 1420 752 
Q 1681 391 2138 391 
Q 2594 391 2855 752 
Q 3116 1113 3116 1747 
z
" transform="scale(0.015625)"/>
       <path id="DejaVuSans-64" d="M 2906 2969 
L 2906 4863 
L 3481 4863 
L 3481 0 
L 2906 0 
L 2906 525 
Q 2725 213 2448 61 
Q 2172 -91 1784 -91 
Q 1150 -91 751 415 
Q 353 922 353 1747 
Q 353 2572 751 3078 
Q 1150 3584 1784 3584 
Q 2172 3584 2448 3432 
Q 2725 3281 2906 2969 
z
M 947 1747 
Q 947 1113 1208 752 
Q 1469 391 1925 391 
Q 2381 391 2643 752 
Q 2906 1113 2906 1747 
Q 2906 2381 2643 2742 
Q 2381 3103 1925 3103 
Q 1469 3103 1208 2742 
Q 947 2381 947 1747 
z
" transform="scale(0.015625)"/>
       <path id="DejaVuSans-28" d="M 1984 4856 
Q 1566 4138 1362 3434 
Q 1159 2731 1159 2009 
Q 1159 1288 1364 580 
Q 1569 -128 1984 -844 
L 1484 -844 
Q 1016 -109 783 600 
Q 550 1309 550 2009 
Q 550 2706 781 3412 
Q 1013 4119 1484 4856 
L 1984 4856 
z
" transform="scale(0.015625)"/>
       <path id="DejaVuSans-50" d="M 1259 4147 
L 1259 2394 
L 2053 2394 
Q 2494 2394 2734 2622 
Q 2975 2850 2975 3272 
Q 2975 3691 2734 3919 
Q 2494 4147 2053 4147 
L 1259 4147 
z
M 628 4666 
L 2053 4666 
Q 2838 4666 3239 4311 
Q 3641 3956 3641 3272 
Q 3641 2581 3239 2228 
Q 2838 1875 2053 1875 
L 1259 1875 
L 1259 0 
L 628 0 
L 628 4666 
z
" transform="scale(0.015625)"/>
       <path id="DejaVuSans-4d" d="M 628 4666 
L 1569 4666 
L 2759 1491 
L 3956 4666 
L 4897 4666 
L 4897 0 
L 4281 0 
L 4281 4097 
L 3078 897 
L 2444 897 
L 1241 4097 
L 1241 0 
L 628 0 
L 628 4666 
z
" transform="scale(0.015625)"/>
       <path id="DejaVuSans-29" d="M 513 4856 
L 1013 4856 
Q 1481 4119 1714 3412 
Q 1947 2706 1947 2009 
Q 1947 1309 1714 600 
Q 1481 -109 1013 -844 
L 513 -844 
Q 928 -128 1133 580 
Q 1338 1288 1338 2009 
Q 1338 2731 1133 3434 
Q 928 4138 513 4856 
z
" transform="scale(0.015625)"/>
      </defs>
      <use xlink:href="#DejaVuSans-52"/>
      <use xlink:href="#DejaVuSans-57" transform="translate(65.482422 0)"/>
      <use xlink:href="#DejaVuSans-20" transform="translate(164.359375 0)"/>
      <use xlink:href="#DejaVuSans-53" transform="translate(196.146484 0)"/>
      <use xlink:href="#DejaVuSans-70" transform="translate(259.623047 0)"/>
      <use xlink:href="#DejaVuSans-65" transform="translate(323.099609 0)"/>
      <use xlink:href="#DejaVuSans-65" transform="translate(384.623047 0)"/>
      <use xlink:href="#DejaVuSans-64" transform="translate(446.146484 0)"/>
      <use xlink:href="#DejaVuSans-20" transform="translate(509.623047 0)"/>
      <use xlink:href="#DejaVuSans-28" transform="translate(541.410156 0)"/>
      <use xlink:href="#DejaVuSans-52" transform="translate(580.423828 0)"/>
      <use xlink:href="#DejaVuSans-50" transform="translate(649.90625 0)"/>
      <use xlink:href="#DejaVuSans-4d" transform="translate(710.208984 0)"/>
      <use xlink:href="#DejaVuSans-29" transform="translate(796.488281 0)"/>
      <use xlink:href="#DejaVuSans-20" transform="translate(835.501953 0)"/>
     </g>
    </g>
   </g>
   <g id="line2d_12">
    <path d="M 99.458128 120.323675 
L 99.650523 126.109634 
L 99.842919 127.82035 
L 100.035315 126.296222 
L 100.804899 116.487223 
L 101.18969 114.986676 
L 101.382086 114.903967 
L 101.574482 115.090171 
L 102.15167 116.322802 
L 102.921253 117.805537 
L 103.498441 118.371802 
L 104.075628 118.58139 
L 104.845212 118.574885 
L 108.693129 118.196309 
L 114.465005 118.167551 
L 144.286365 118.167418 
L 145.055949 160.519994 
L 145.248344 161.908927 
L 145.44074 160.953927 
L 145.825532 155.065568 
L 146.979907 133.147371 
L 147.557095 126.135313 
L 148.134282 121.861848 
L 148.71147 119.503923 
L 149.288658 118.323415 
L 149.865845 117.797707 
L 150.443033 117.602756 
L 151.405012 117.56121 
L 153.906159 117.643816 
L 154.483346 80.325604 
L 154.675742 75.738891 
L 154.868138 74.480958 
L 155.060534 75.51603 
L 155.445326 81.436543 
L 156.599701 103.055807 
L 157.176888 109.928206 
L 157.754076 114.109091 
L 158.331264 116.413079 
L 158.908451 117.565393 
L 159.485639 118.077906 
L 160.062826 118.267463 
L 161.024806 118.306898 
L 166.989078 118.211437 
L 225.09263 118.211483 
L 225.477422 83.020194 
L 226.05461 25.587534 
L 226.247005 21.265312 
L 226.439401 24.484258 
L 226.824193 41.839908 
L 227.786172 90.262318 
L 228.36336 108.995152 
L 228.940548 120.49521 
L 229.517735 127.063549 
L 230.094923 130.604793 
L 230.67211 132.415839 
L 231.249298 133.293956 
L 231.826486 133.695303 
L 232.596069 133.895693 
L 234.135236 133.958947 
L 234.520028 133.959136 
L 234.712424 136.028994 
L 235.674403 229.671952 
L 235.866799 230.571562 
L 236.059195 225.271446 
L 236.636382 195.400546 
L 237.405966 158.44807 
L 237.983153 140.672107 
L 238.945133 54.369352 
L 239.137529 52.094846 
L 239.329924 54.343781 
L 239.714716 65.68937 
L 240.676696 97.914448 
L 241.253883 110.640955 
L 241.831071 118.508192 
L 242.408258 123.007286 
L 242.985446 125.422441 
L 243.562634 126.643918 
L 244.139821 127.223794 
L 244.717009 127.478947 
L 245.678988 127.606484 
L 248.757322 127.608737 
L 296.471498 127.607593 
L 305.898895 127.604797 
L 306.476083 77.070032 
L 306.668479 72.488974 
L 306.860875 72.285038 
L 307.245666 78.227449 
L 308.400042 101.509265 
L 308.977229 108.663975 
L 309.554417 113.094128 
L 310.131604 115.686494 
L 310.708792 117.142415 
L 311.28598 117.934332 
L 311.863167 118.354441 
L 312.632751 118.619548 
L 313.59473 118.744655 
L 314.171918 137.183218 
L 314.364313 139.023509 
L 314.556709 139.277264 
L 314.749105 138.507695 
L 315.326293 133.543927 
L 316.095876 126.776068 
L 316.673064 123.311235 
L 317.250252 121.149541 
L 317.827439 119.908044 
L 318.404627 119.241079 
L 318.981814 118.904278 
L 319.751398 118.714675 
L 321.290565 118.638895 
L 341.876923 118.641335 
L 376.508179 118.641306 
L 376.508179 118.641306 
" clip-path="url(#p97b55722cf)" style="fill: none; stroke: #225e7c; stroke-width: 1.5; stroke-linecap: square"/>
   </g>
   <g id="line2d_13">
    <path d="M 99.458128 120.323675 
L 99.842919 135.05759 
L 100.035315 136.759842 
L 100.227711 136.229864 
L 101.382086 127.650233 
L 101.959274 125.618988 
L 102.536461 124.504063 
L 103.113649 123.840777 
L 103.883233 123.301586 
L 104.845212 122.913658 
L 106.191983 122.647452 
L 108.308338 122.512681 
L 114.080214 122.480138 
L 144.286365 122.479931 
L 144.478761 110.060318 
L 144.863553 72.228351 
L 145.055949 63.394202 
L 145.248344 60.419752 
L 145.44074 61.357042 
L 145.825532 69.603487 
L 146.979907 100.848167 
L 147.557095 110.711322 
L 148.134282 116.715908 
L 148.71147 120.059734 
L 149.288658 121.775792 
L 149.865845 122.581297 
L 150.443033 122.917422 
L 151.212616 123.045634 
L 153.328971 123.012397 
L 153.906159 123.002758 
L 154.098554 135.421407 
L 154.483346 173.311144 
L 154.675742 182.203253 
L 154.868138 185.207089 
L 155.060534 184.273712 
L 155.445326 175.992612 
L 156.599701 144.647512 
L 157.176888 134.772866 
L 157.754076 128.763773 
L 158.331264 125.414589 
L 158.908451 123.690888 
L 159.485639 122.876621 
L 160.062826 122.532101 
L 160.83241 122.394781 
L 162.756369 122.412892 
L 169.490224 122.435849 
L 225.09263 122.435824 
L 225.862214 70.744959 
L 226.05461 69.233496 
L 226.247005 70.93175 
L 227.786172 96.731364 
L 228.36336 101.050895 
L 228.940548 103.421088 
L 229.517735 104.726107 
L 230.094923 105.472677 
L 230.864506 106.031265 
L 231.826486 106.387631 
L 233.173257 106.596973 
L 234.520028 106.664484 
L 234.712424 108.738458 
L 235.097215 145.583901 
L 235.482007 158.674804 
L 235.674403 158.34876 
L 236.059195 151.710721 
L 236.828778 137.51822 
L 237.405966 131.46425 
L 237.983153 128.165857 
L 238.752737 160.450929 
L 238.945133 163.194103 
L 239.137529 163.953042 
L 239.329924 163.234736 
L 239.714716 159.046168 
L 241.061487 140.713966 
L 241.638675 136.169349 
L 242.215863 133.515767 
L 242.79305 132.113619 
L 243.370238 131.444947 
L 243.947425 131.165851 
L 244.717009 131.064431 
L 247.410551 131.12115 
L 256.453157 131.134183 
L 305.898895 131.133147 
L 306.283687 108.612501 
L 306.476083 106.030006 
L 306.668479 106.30557 
L 307.245666 111.811128 
L 307.822854 116.289742 
L 308.207646 118.030188 
L 308.784833 119.469309 
L 309.362021 120.198797 
L 310.131604 120.751979 
L 311.28598 121.266456 
L 312.632751 121.604843 
L 313.59473 121.724733 
L 314.364313 118.50951 
L 314.556709 118.247927 
L 314.749105 118.184758 
L 315.133897 118.464749 
L 316.095876 119.955381 
L 316.86546 120.893655 
L 317.442647 121.308026 
L 318.212231 121.579677 
L 319.366606 121.685146 
L 325.71567 121.654605 
L 376.508179 121.654857 
L 376.508179 121.654857 
" clip-path="url(#p97b55722cf)" style="fill: none; stroke: #3e915b; stroke-width: 1.5; stroke-linecap: square"/>
   </g>
   <g id="line2d_14">
    <path d="M 99.458128 120.323675 
L 100.227711 187.895249 
L 100.420107 189.325974 
L 100.612503 186.28829 
L 101.18969 167.588631 
L 101.959274 144.567785 
L 102.536461 133.539791 
L 103.113649 126.796425 
L 103.690837 122.886668 
L 104.268024 120.701014 
L 104.845212 119.511491 
L 105.4224 118.876687 
L 105.999587 118.54233 
L 106.961566 118.299955 
L 108.693129 118.19079 
L 115.234589 118.167486 
L 144.286365 118.167418 
L 145.055949 72.321824 
L 145.248344 70.910708 
L 145.44074 72.032528 
L 145.825532 78.436178 
L 146.979907 101.53666 
L 147.557095 108.82547 
L 148.134282 113.254096 
L 148.71147 115.697728 
L 149.288658 116.925757 
L 149.865845 117.478156 
L 150.443033 117.688323 
L 151.405012 117.742347 
L 153.906159 117.667534 
L 154.675742 163.92724 
L 154.868138 165.422379 
L 155.060534 164.324401 
L 155.445326 157.87464 
L 156.599701 134.593627 
L 157.176888 127.250664 
L 157.754076 122.77404 
L 158.331264 120.287636 
L 158.908451 119.024159 
L 159.485639 118.444532 
L 160.062826 118.214739 
L 161.024806 118.140986 
L 174.107725 118.211638 
L 225.09263 118.211638 
L 225.477422 153.398792 
L 226.05461 207.516152 
L 226.247005 212.593211 
L 226.439401 212.133407 
L 226.824193 201.994696 
L 227.978568 161.619972 
L 228.555756 149.122836 
L 229.132943 141.643852 
L 229.710131 137.53638 
L 230.287319 135.447093 
L 230.67211 134.711002 
L 231.249298 134.153531 
L 231.826486 133.942755 
L 232.788465 133.882418 
L 234.520028 133.931775 
L 234.712424 131.865653 
L 235.482007 52.45476 
L 235.674403 44.149442 
L 235.866799 42.402298 
L 236.059195 44.950609 
L 236.443986 56.612914 
L 237.405966 89.152137 
L 237.983153 101.855327 
L 238.560341 160.142713 
L 238.945133 190.256521 
L 239.137529 194.266283 
L 239.329924 193.71909 
L 239.714716 185.242161 
L 240.869091 151.868754 
L 241.446279 141.310451 
L 242.023467 134.854271 
L 242.600654 131.208549 
L 243.177842 129.280793 
L 243.755029 128.323153 
L 244.332217 127.878505 
L 245.101801 127.656017 
L 246.448572 127.593159 
L 305.898895 127.608112 
L 306.283687 106.323377 
L 306.476083 104.322421 
L 306.668479 105.094037 
L 307.630458 114.274559 
L 308.01525 116.00267 
L 308.400042 116.868429 
L 308.784833 117.279586 
L 309.554417 117.638346 
L 312.440355 118.546128 
L 313.59473 118.705563 
L 314.171918 100.188194 
L 314.364313 98.298276 
L 314.556709 98.006897 
L 314.749105 98.752017 
L 315.133897 101.842194 
L 316.095876 110.485375 
L 316.673064 113.961535 
L 317.250252 116.128764 
L 317.827439 117.372489 
L 318.404627 118.040245 
L 318.981814 118.377301 
L 319.751398 118.566991 
L 321.290565 118.642789 
L 341.876923 118.64035 
L 376.508179 118.640379 
L 376.508179 118.640379 
" clip-path="url(#p97b55722cf)" style="fill: none; stroke: #8eac56; stroke-width: 1.5; stroke-linecap: square"/>
   </g>
   <g id="line2d_15">
    <path d="M 99.458128 120.323675 
L 100.035315 176.976365 
L 100.227711 183.726872 
L 100.420107 183.740651 
L 100.804899 174.621517 
L 101.766878 147.338418 
L 102.344066 137.241886 
L 102.921253 131.064761 
L 103.498441 127.41279 
L 104.075628 125.291914 
L 104.652816 124.073842 
L 105.230004 123.379666 
L 105.807191 122.9863 
L 106.576775 122.714527 
L 107.73115 122.553782 
L 110.232296 122.486175 
L 131.395842 122.479931 
L 144.286365 122.479931 
L 144.478761 134.899541 
L 144.863553 171.695915 
L 145.055949 180.117735 
L 145.248344 183.070001 
L 145.44074 182.299531 
L 145.825532 174.568377 
L 146.979907 144.505983 
L 147.557095 134.91958 
L 148.134282 129.070155 
L 148.71147 125.812036 
L 149.288658 124.143498 
L 149.865845 123.364684 
L 150.443033 123.043775 
L 151.212616 122.926358 
L 153.521367 122.972408 
L 153.906159 122.978711 
L 154.098554 110.560126 
L 154.483346 74.06139 
L 154.675742 65.911067 
L 154.868138 63.144437 
L 155.060534 64.014909 
L 155.445326 71.766761 
L 156.599701 101.450111 
L 157.176888 110.854193 
L 157.754076 116.567546 
L 158.331264 119.734316 
L 158.908451 121.346854 
L 159.485639 122.094006 
L 160.062826 122.398291 
L 160.83241 122.506003 
L 163.525952 122.448455 
L 172.95335 122.435487 
L 225.09263 122.435486 
L 225.285026 120.324229 
L 225.862214 111.125574 
L 226.247005 108.389386 
L 226.631797 107.463718 
L 227.401381 106.398908 
L 227.786172 106.127445 
L 228.170964 106.04494 
L 228.748152 106.153827 
L 230.479715 106.644229 
L 231.826486 106.713039 
L 234.520028 106.689038 
L 234.712424 106.975665 
L 235.097215 114.405274 
L 235.674403 126.491045 
L 236.059195 129.529746 
L 236.251591 129.988306 
L 236.443986 129.988025 
L 236.828778 129.150788 
L 237.983153 125.379988 
L 238.560341 93.984543 
L 238.752737 89.673419 
L 238.945133 88.486593 
L 239.137529 89.462911 
L 239.52232 95.185578 
L 240.676696 116.394806 
L 241.253883 123.058596 
L 241.831071 127.086891 
L 242.408258 129.30959 
L 242.985446 130.433125 
L 243.562634 130.945427 
L 244.139821 131.14614 
L 245.101801 131.20628 
L 255.683573 131.133322 
L 305.898895 131.134585 
L 306.476083 81.393661 
L 306.668479 77.308654 
L 306.860875 77.470209 
L 307.245666 83.684989 
L 308.207646 102.893186 
L 308.784833 110.468309 
L 309.362021 115.264398 
L 309.939208 118.144736 
L 310.516396 119.809269 
L 311.093584 120.741424 
L 311.670771 121.250003 
L 312.440355 121.580217 
L 313.59473 121.756698 
L 314.364313 124.843489 
L 314.556709 125.067448 
L 314.749105 125.106167 
L 315.133897 124.808041 
L 317.250252 122.115152 
L 318.019835 121.77811 
L 318.981814 121.641048 
L 321.290565 121.642546 
L 332.257129 121.658333 
L 376.508179 121.658042 
L 376.508179 121.658042 
" clip-path="url(#p97b55722cf)" style="fill: none; stroke: #c4a46f; stroke-width: 1.5; stroke-linecap: square"/>
   </g>
   <g id="patch_3">
    <path d="M 85.605625 241.036875 
L 85.605625 10.8 
" style="fill: none; stroke: #000000; stroke-width: 0.8; stroke-linejoin: miter; stroke-linecap: square"/>
   </g>
   <g id="patch_4">
    <path d="M 390.360682 241.036875 
L 390.360682 10.8 
" style="fill: none; stroke: #000000; stroke-width: 0.8; stroke-linejoin: miter; stroke-linecap: square"/>
   </g>
   <g id="patch_5">
    <path d="M 85.605625 241.036875 
L 390.360682 241.036875 
" style="fill: none; stroke: #000000; stroke-width: 0.8; stroke-linejoin: miter; stroke-linecap: square"/>
   </g>
   <g id="patch_6">
    <path d="M 85.605625 10.8 
L 390.360682 10.8 
" style="fill: none; stroke: #000000; stroke-width: 0.8; stroke-linejoin: miter; stroke-linecap: square"/>
   </g>
   <g id="legend_1">
    <g id="patch_7">
     <path d="M 344.010682 236.536875 
L 384.060682 236.536875 
Q 385.860682 236.536875 385.860682 234.736875 
L 385.860682 182.795625 
Q 385.860682 180.995625 384.060682 180.995625 
L 344.010682 180.995625 
Q 342.210682 180.995625 342.210682 182.795625 
L 342.210682 234.736875 
Q 342.210682 236.536875 344.010682 236.536875 
z
" style="fill: #ffffff; opacity: 0.8; stroke: #cccccc; stroke-linejoin: miter"/>
    </g>
    <g id="line2d_16">
     <path d="M 345.810682 188.284219 
L 354.810682 188.284219 
L 363.810682 188.284219 
" style="fill: none; stroke: #225e7c; stroke-width: 1.5; stroke-linecap: square"/>
    </g>
    <g id="text_14">
     <!-- $\Omega_{1}$ -->
     <g transform="translate(371.010682 191.434219) scale(0.09 -0.09)">
      <defs>
       <path id="DejaVuSans-3a9" d="M 4647 556 
L 4647 0 
L 2772 0 
L 2772 556 
Q 3325 859 3634 1378 
Q 3944 1897 3944 2528 
Q 3944 3278 3531 3731 
Q 3119 4184 2444 4184 
Q 1769 4184 1355 3729 
Q 941 3275 941 2528 
Q 941 1897 1250 1378 
Q 1563 859 2119 556 
L 2119 0 
L 244 0 
L 244 556 
L 1241 556 
Q 747 991 519 1456 
Q 294 1922 294 2497 
Q 294 3491 894 4106 
Q 1491 4722 2444 4722 
Q 3391 4722 3994 4106 
Q 4594 3494 4594 2528 
Q 4594 1922 4372 1459 
Q 4150 997 3647 556 
L 4647 556 
z
" transform="scale(0.015625)"/>
      </defs>
      <use xlink:href="#DejaVuSans-3a9" transform="translate(0 0.21875)"/>
      <use xlink:href="#DejaVuSans-31" transform="translate(77.373047 -16.1875) scale(0.7)"/>
     </g>
    </g>
    <g id="line2d_17">
     <path d="M 345.810682 201.494531 
L 354.810682 201.494531 
L 363.810682 201.494531 
" style="fill: none; stroke: #3e915b; stroke-width: 1.5; stroke-linecap: square"/>
    </g>
    <g id="text_15">
     <!-- $\Omega_{2}$ -->
     <g transform="translate(371.010682 204.644531) scale(0.09 -0.09)">
      <use xlink:href="#DejaVuSans-3a9" transform="translate(0 0.21875)"/>
      <use xlink:href="#DejaVuSans-32" transform="translate(77.373047 -16.1875) scale(0.7)"/>
     </g>
    </g>
    <g id="line2d_18">
     <path d="M 345.810682 214.704844 
L 354.810682 214.704844 
L 363.810682 214.704844 
" style="fill: none; stroke: #8eac56; stroke-width: 1.5; stroke-linecap: square"/>
    </g>
    <g id="text_16">
     <!-- $\Omega_{3}$ -->
     <g transform="translate(371.010682 217.854844) scale(0.09 -0.09)">
      <defs>
       <path id="DejaVuSans-33" d="M 2597 2516 
Q 3050 2419 3304 2112 
Q 3559 1806 3559 1356 
Q 3559 666 3084 287 
Q 2609 -91 1734 -91 
Q 1441 -91 1130 -33 
Q 819 25 488 141 
L 488 750 
Q 750 597 1062 519 
Q 1375 441 1716 441 
Q 2309 441 2620 675 
Q 2931 909 2931 1356 
Q 2931 1769 2642 2001 
Q 2353 2234 1838 2234 
L 1294 2234 
L 1294 2753 
L 1863 2753 
Q 2328 2753 2575 2939 
Q 2822 3125 2822 3475 
Q 2822 3834 2567 4026 
Q 2313 4219 1838 4219 
Q 1578 4219 1281 4162 
Q 984 4106 628 3988 
L 628 4550 
Q 988 4650 1302 4700 
Q 1616 4750 1894 4750 
Q 2613 4750 3031 4423 
Q 3450 4097 3450 3541 
Q 3450 3153 3228 2886 
Q 3006 2619 2597 2516 
z
" transform="scale(0.015625)"/>
      </defs>
      <use xlink:href="#DejaVuSans-3a9" transform="translate(0 0.21875)"/>
      <use xlink:href="#DejaVuSans-33" transform="translate(77.373047 -16.1875) scale(0.7)"/>
     </g>
    </g>
    <g id="line2d_19">
     <path d="M 345.810682 227.915156 
L 354.810682 227.915156 
L 363.810682 227.915156 
" style="fill: none; stroke: #c4a46f; stroke-width: 1.5; stroke-linecap: square"/>
    </g>
    <g id="text_17">
     <!-- $\Omega_{4}$ -->
     <g transform="translate(371.010682 231.065156) scale(0.09 -0.09)">
      <defs>
       <path id="DejaVuSans-34" d="M 2419 4116 
L 825 1625 
L 2419 1625 
L 2419 4116 
z
M 2253 4666 
L 3047 4666 
L 3047 1625 
L 3713 1625 
L 3713 1100 
L 3047 1100 
L 3047 0 
L 2419 0 
L 2419 1100 
L 313 1100 
L 313 1709 
L 2253 4666 
z
" transform="scale(0.015625)"/>
      </defs>
      <use xlink:href="#DejaVuSans-3a9" transform="translate(0 0.21875)"/>
      <use xlink:href="#DejaVuSans-34" transform="translate(77.373047 -16.1875) scale(0.7)"/>
     </g>
    </g>
   </g>
  </g>
 </g>
 <defs>
  <clipPath id="p97b55722cf">
   <rect x="85.605625" y="10.8" width="304.755057" height="230.236875"/>
  </clipPath>
 </defs>
</svg>
