<?xml version="1.0" encoding="utf-8" standalone="no"?>
<!DOCTYPE svg PUBLIC "-//W3C//DTD SVG 1.1//EN"
  "http://www.w3.org/Graphics/SVG/1.1/DTD/svg11.dtd">
<svg xmlns:xlink="http://www.w3.org/1999/xlink" width="414pt" height="288pt" viewBox="0 0 414 288" xmlns="http://www.w3.org/2000/svg" version="1.1">
 <metadata>
  <rdf:RDF xmlns:dc="http://purl.org/dc/elements/1.1/" xmlns:cc="http://creativecommons.org/ns#" xmlns:rdf="http://www.w3.org/1999/02/22-rdf-syntax-ns#">
   <cc:Work>
    <dc:type rdf:resource="http://purl.org/dc/dcmitype/StillImage"/>
    <dc:date>2026-01-21T21:03:04.169801</dc:date>
    <dc:format>image/svg+xml</dc:format>
    <dc:creator>
     <cc:Agent>
      <dc:title>Matplotlib v3.10.7, https://matplotlib.org/</dc:title>
     </cc:Agent>
    </dc:creator>
   </cc:Work>
  </rdf:RDF>
 </metadata>
 <defs>
  <style type="text/css">*{stroke-linejoin: round; stroke-linecap: butt}</style>
 </defs>
 <g id="figure_1">
  <g id="patch_1">
   <path d="M 0 288 
L 414 288 
L 414 0 
L 0 0 
L 0 288 
z
" style="fill: none"/>
  </g>
  <g id="axes_1">
   <g id="patch_2">
    <path d="M 56.923125 241.036875 
L 403.2 241.036875 
L 403.2 10.8 
L 56.923125 10.8 
L 56.923125 241.036875 
z
" style="fill: none"/>
   </g>
   <g id="matplotlib.axis_1">
    <g id="xtick_1">
     <g id="line2d_1">
      <defs>
       <path id="mbf89ff9a47" d="M 0 0 
L 0 3.5 
" style="stroke: #000000; stroke-width: 0.8"/>
      </defs>
      <g>
       <use xlink:href="#mbf89ff9a47" x="72.662983" y="241.036875" style="stroke: #000000; stroke-width: 0.8"/>
      </g>
     </g>
     <g id="text_1">
      <!-- 0 -->
      <g transform="translate(67.572983 260.194375) scale(0.16 -0.16)">
       <defs>
        <path id="DejaVuSans-30" d="M 2034 4250 
Q 1547 4250 1301 3770 
Q 1056 3291 1056 2328 
Q 1056 1369 1301 889 
Q 1547 409 2034 409 
Q 2525 409 2770 889 
Q 3016 1369 3016 2328 
Q 3016 3291 2770 3770 
Q 2525 4250 2034 4250 
z
M 2034 4750 
Q 2819 4750 3233 4129 
Q 3647 3509 3647 2328 
Q 3647 1150 3233 529 
Q 2819 -91 2034 -91 
Q 1250 -91 836 529 
Q 422 1150 422 2328 
Q 422 3509 836 4129 
Q 1250 4750 2034 4750 
z
" transform="scale(0.015625)"/>
       </defs>
       <use xlink:href="#DejaVuSans-30"/>
      </g>
     </g>
    </g>
    <g id="xtick_2">
     <g id="line2d_2">
      <g>
       <use xlink:href="#mbf89ff9a47" x="135.622415" y="241.036875" style="stroke: #000000; stroke-width: 0.8"/>
      </g>
     </g>
     <g id="text_2">
      <!-- 2 -->
      <g transform="translate(130.532415 260.194375) scale(0.16 -0.16)">
       <defs>
        <path id="DejaVuSans-32" d="M 1228 531 
L 3431 531 
L 3431 0 
L 469 0 
L 469 531 
Q 828 903 1448 1529 
Q 2069 2156 2228 2338 
Q 2531 2678 2651 2914 
Q 2772 3150 2772 3378 
Q 2772 3750 2511 3984 
Q 2250 4219 1831 4219 
Q 1534 4219 1204 4116 
Q 875 4013 500 3803 
L 500 4441 
Q 881 4594 1212 4672 
Q 1544 4750 1819 4750 
Q 2544 4750 2975 4387 
Q 3406 4025 3406 3419 
Q 3406 3131 3298 2873 
Q 3191 2616 2906 2266 
Q 2828 2175 2409 1742 
Q 1991 1309 1228 531 
z
" transform="scale(0.015625)"/>
       </defs>
       <use xlink:href="#DejaVuSans-32"/>
      </g>
     </g>
    </g>
    <g id="xtick_3">
     <g id="line2d_3">
      <g>
       <use xlink:href="#mbf89ff9a47" x="198.581847" y="241.036875" style="stroke: #000000; stroke-width: 0.8"/>
      </g>
     </g>
     <g id="text_3">
      <!-- 4 -->
      <g transform="translate(193.491847 260.194375) scale(0.16 -0.16)">
       <defs>
        <path id="DejaVuSans-34" d="M 2419 4116 
L 825 1625 
L 2419 1625 
L 2419 4116 
z
M 2253 4666 
L 3047 4666 
L 3047 1625 
L 3713 1625 
L 3713 1100 
L 3047 1100 
L 3047 0 
L 2419 0 
L 2419 1100 
L 313 1100 
L 313 1709 
L 2253 4666 
z
" transform="scale(0.015625)"/>
       </defs>
       <use xlink:href="#DejaVuSans-34"/>
      </g>
     </g>
    </g>
    <g id="xtick_4">
     <g id="line2d_4">
      <g>
       <use xlink:href="#mbf89ff9a47" x="261.541278" y="241.036875" style="stroke: #000000; stroke-width: 0.8"/>
      </g>
     </g>
     <g id="text_4">
      <!-- 6 -->
      <g transform="translate(256.451278 260.194375) scale(0.16 -0.16)">
       <defs>
        <path id="DejaVuSans-36" d="M 2113 2584 
Q 1688 2584 1439 2293 
Q 1191 2003 1191 1497 
Q 1191 994 1439 701 
Q 1688 409 2113 409 
Q 2538 409 2786 701 
Q 3034 994 3034 1497 
Q 3034 2003 2786 2293 
Q 2538 2584 2113 2584 
z
M 3366 4563 
L 3366 3988 
Q 3128 4100 2886 4159 
Q 2644 4219 2406 4219 
Q 1781 4219 1451 3797 
Q 1122 3375 1075 2522 
Q 1259 2794 1537 2939 
Q 1816 3084 2150 3084 
Q 2853 3084 3261 2657 
Q 3669 2231 3669 1497 
Q 3669 778 3244 343 
Q 2819 -91 2113 -91 
Q 1303 -91 875 529 
Q 447 1150 447 2328 
Q 447 3434 972 4092 
Q 1497 4750 2381 4750 
Q 2619 4750 2861 4703 
Q 3103 4656 3366 4563 
z
" transform="scale(0.015625)"/>
       </defs>
       <use xlink:href="#DejaVuSans-36"/>
      </g>
     </g>
    </g>
    <g id="xtick_5">
     <g id="line2d_5">
      <g>
       <use xlink:href="#mbf89ff9a47" x="324.50071" y="241.036875" style="stroke: #000000; stroke-width: 0.8"/>
      </g>
     </g>
     <g id="text_5">
      <!-- 8 -->
      <g transform="translate(319.41071 260.194375) scale(0.16 -0.16)">
       <defs>
        <path id="DejaVuSans-38" d="M 2034 2216 
Q 1584 2216 1326 1975 
Q 1069 1734 1069 1313 
Q 1069 891 1326 650 
Q 1584 409 2034 409 
Q 2484 409 2743 651 
Q 3003 894 3003 1313 
Q 3003 1734 2745 1975 
Q 2488 2216 2034 2216 
z
M 1403 2484 
Q 997 2584 770 2862 
Q 544 3141 544 3541 
Q 544 4100 942 4425 
Q 1341 4750 2034 4750 
Q 2731 4750 3128 4425 
Q 3525 4100 3525 3541 
Q 3525 3141 3298 2862 
Q 3072 2584 2669 2484 
Q 3125 2378 3379 2068 
Q 3634 1759 3634 1313 
Q 3634 634 3220 271 
Q 2806 -91 2034 -91 
Q 1263 -91 848 271 
Q 434 634 434 1313 
Q 434 1759 690 2068 
Q 947 2378 1403 2484 
z
M 1172 3481 
Q 1172 3119 1398 2916 
Q 1625 2713 2034 2713 
Q 2441 2713 2670 2916 
Q 2900 3119 2900 3481 
Q 2900 3844 2670 4047 
Q 2441 4250 2034 4250 
Q 1625 4250 1398 4047 
Q 1172 3844 1172 3481 
z
" transform="scale(0.015625)"/>
       </defs>
       <use xlink:href="#DejaVuSans-38"/>
      </g>
     </g>
    </g>
    <g id="xtick_6">
     <g id="line2d_6">
      <g>
       <use xlink:href="#mbf89ff9a47" x="387.460142" y="241.036875" style="stroke: #000000; stroke-width: 0.8"/>
      </g>
     </g>
     <g id="text_6">
      <!-- 10 -->
      <g transform="translate(377.280142 260.194375) scale(0.16 -0.16)">
       <defs>
        <path id="DejaVuSans-31" d="M 794 531 
L 1825 531 
L 1825 4091 
L 703 3866 
L 703 4441 
L 1819 4666 
L 2450 4666 
L 2450 531 
L 3481 531 
L 3481 0 
L 794 0 
L 794 531 
z
" transform="scale(0.015625)"/>
       </defs>
       <use xlink:href="#DejaVuSans-31"/>
       <use xlink:href="#DejaVuSans-30" transform="translate(63.623047 0)"/>
      </g>
     </g>
    </g>
    <g id="text_7">
     <!-- Time [min] -->
     <g transform="translate(202.909219 275.120313) scale(0.1 -0.1)">
      <defs>
       <path id="DejaVuSans-54" d="M -19 4666 
L 3928 4666 
L 3928 4134 
L 2272 4134 
L 2272 0 
L 1638 0 
L 1638 4134 
L -19 4134 
L -19 4666 
z
" transform="scale(0.015625)"/>
       <path id="DejaVuSans-69" d="M 603 3500 
L 1178 3500 
L 1178 0 
L 603 0 
L 603 3500 
z
M 603 4863 
L 1178 4863 
L 1178 4134 
L 603 4134 
L 603 4863 
z
" transform="scale(0.015625)"/>
       <path id="DejaVuSans-6d" d="M 3328 2828 
Q 3544 3216 3844 3400 
Q 4144 3584 4550 3584 
Q 5097 3584 5394 3201 
Q 5691 2819 5691 2113 
L 5691 0 
L 5113 0 
L 5113 2094 
Q 5113 2597 4934 2840 
Q 4756 3084 4391 3084 
Q 3944 3084 3684 2787 
Q 3425 2491 3425 1978 
L 3425 0 
L 2847 0 
L 2847 2094 
Q 2847 2600 2669 2842 
Q 2491 3084 2119 3084 
Q 1678 3084 1418 2786 
Q 1159 2488 1159 1978 
L 1159 0 
L 581 0 
L 581 3500 
L 1159 3500 
L 1159 2956 
Q 1356 3278 1631 3431 
Q 1906 3584 2284 3584 
Q 2666 3584 2933 3390 
Q 3200 3197 3328 2828 
z
" transform="scale(0.015625)"/>
       <path id="DejaVuSans-65" d="M 3597 1894 
L 3597 1613 
L 953 1613 
Q 991 1019 1311 708 
Q 1631 397 2203 397 
Q 2534 397 2845 478 
Q 3156 559 3463 722 
L 3463 178 
Q 3153 47 2828 -22 
Q 2503 -91 2169 -91 
Q 1331 -91 842 396 
Q 353 884 353 1716 
Q 353 2575 817 3079 
Q 1281 3584 2069 3584 
Q 2775 3584 3186 3129 
Q 3597 2675 3597 1894 
z
M 3022 2063 
Q 3016 2534 2758 2815 
Q 2500 3097 2075 3097 
Q 1594 3097 1305 2825 
Q 1016 2553 972 2059 
L 3022 2063 
z
" transform="scale(0.015625)"/>
       <path id="DejaVuSans-20" transform="scale(0.015625)"/>
       <path id="DejaVuSans-5b" d="M 550 4863 
L 1875 4863 
L 1875 4416 
L 1125 4416 
L 1125 -397 
L 1875 -397 
L 1875 -844 
L 550 -844 
L 550 4863 
z
" transform="scale(0.015625)"/>
       <path id="DejaVuSans-6e" d="M 3513 2113 
L 3513 0 
L 2938 0 
L 2938 2094 
Q 2938 2591 2744 2837 
Q 2550 3084 2163 3084 
Q 1697 3084 1428 2787 
Q 1159 2491 1159 1978 
L 1159 0 
L 581 0 
L 581 3500 
L 1159 3500 
L 1159 2956 
Q 1366 3272 1645 3428 
Q 1925 3584 2291 3584 
Q 2894 3584 3203 3211 
Q 3513 2838 3513 2113 
z
" transform="scale(0.015625)"/>
       <path id="DejaVuSans-5d" d="M 1947 4863 
L 1947 -844 
L 622 -844 
L 622 -397 
L 1369 -397 
L 1369 4416 
L 622 4416 
L 622 4863 
L 1947 4863 
z
" transform="scale(0.015625)"/>
      </defs>
      <use xlink:href="#DejaVuSans-54"/>
      <use xlink:href="#DejaVuSans-69" transform="translate(57.958984 0)"/>
      <use xlink:href="#DejaVuSans-6d" transform="translate(85.742188 0)"/>
      <use xlink:href="#DejaVuSans-65" transform="translate(183.154297 0)"/>
      <use xlink:href="#DejaVuSans-20" transform="translate(244.677734 0)"/>
      <use xlink:href="#DejaVuSans-5b" transform="translate(276.464844 0)"/>
      <use xlink:href="#DejaVuSans-6d" transform="translate(315.478516 0)"/>
      <use xlink:href="#DejaVuSans-69" transform="translate(412.890625 0)"/>
      <use xlink:href="#DejaVuSans-6e" transform="translate(440.673828 0)"/>
      <use xlink:href="#DejaVuSans-5d" transform="translate(504.052734 0)"/>
     </g>
    </g>
   </g>
   <g id="matplotlib.axis_2">
    <g id="ytick_1">
     <g id="line2d_7">
      <defs>
       <path id="m969cb64f22" d="M 0 0 
L -3.5 0 
" style="stroke: #000000; stroke-width: 0.8"/>
      </defs>
      <g>
       <use xlink:href="#m969cb64f22" x="56.923125" y="230.571562" style="stroke: #000000; stroke-width: 0.8"/>
      </g>
     </g>
     <g id="text_8">
      <!-- 0.0 -->
      <g transform="translate(24.478125 236.650312) scale(0.16 -0.16)">
       <defs>
        <path id="DejaVuSans-2e" d="M 684 794 
L 1344 794 
L 1344 0 
L 684 0 
L 684 794 
z
" transform="scale(0.015625)"/>
       </defs>
       <use xlink:href="#DejaVuSans-30"/>
       <use xlink:href="#DejaVuSans-2e" transform="translate(63.623047 0)"/>
       <use xlink:href="#DejaVuSans-30" transform="translate(95.410156 0)"/>
      </g>
     </g>
    </g>
    <g id="ytick_2">
     <g id="line2d_8">
      <g>
       <use xlink:href="#m969cb64f22" x="56.923125" y="179.500146" style="stroke: #000000; stroke-width: 0.8"/>
      </g>
     </g>
     <g id="text_9">
      <!-- 0.2 -->
      <g transform="translate(24.478125 185.578896) scale(0.16 -0.16)">
       <use xlink:href="#DejaVuSans-30"/>
       <use xlink:href="#DejaVuSans-2e" transform="translate(63.623047 0)"/>
       <use xlink:href="#DejaVuSans-32" transform="translate(95.410156 0)"/>
      </g>
     </g>
    </g>
    <g id="ytick_3">
     <g id="line2d_9">
      <g>
       <use xlink:href="#m969cb64f22" x="56.923125" y="128.428729" style="stroke: #000000; stroke-width: 0.8"/>
      </g>
     </g>
     <g id="text_10">
      <!-- 0.4 -->
      <g transform="translate(24.478125 134.507479) scale(0.16 -0.16)">
       <use xlink:href="#DejaVuSans-30"/>
       <use xlink:href="#DejaVuSans-2e" transform="translate(63.623047 0)"/>
       <use xlink:href="#DejaVuSans-34" transform="translate(95.410156 0)"/>
      </g>
     </g>
    </g>
    <g id="ytick_4">
     <g id="line2d_10">
      <g>
       <use xlink:href="#m969cb64f22" x="56.923125" y="77.357312" style="stroke: #000000; stroke-width: 0.8"/>
      </g>
     </g>
     <g id="text_11">
      <!-- 0.6 -->
      <g transform="translate(24.478125 83.436062) scale(0.16 -0.16)">
       <use xlink:href="#DejaVuSans-30"/>
       <use xlink:href="#DejaVuSans-2e" transform="translate(63.623047 0)"/>
       <use xlink:href="#DejaVuSans-36" transform="translate(95.410156 0)"/>
      </g>
     </g>
    </g>
    <g id="ytick_5">
     <g id="line2d_11">
      <g>
       <use xlink:href="#m969cb64f22" x="56.923125" y="26.285895" style="stroke: #000000; stroke-width: 0.8"/>
      </g>
     </g>
     <g id="text_12">
      <!-- 0.8 -->
      <g transform="translate(24.478125 32.364645) scale(0.16 -0.16)">
       <use xlink:href="#DejaVuSans-30"/>
       <use xlink:href="#DejaVuSans-2e" transform="translate(63.623047 0)"/>
       <use xlink:href="#DejaVuSans-38" transform="translate(95.410156 0)"/>
      </g>
     </g>
    </g>
    <g id="text_13">
     <!-- Force implemented[N] -->
     <g transform="translate(18.398438 181.898125) rotate(-90) scale(0.1 -0.1)">
      <defs>
       <path id="DejaVuSans-46" d="M 628 4666 
L 3309 4666 
L 3309 4134 
L 1259 4134 
L 1259 2759 
L 3109 2759 
L 3109 2228 
L 1259 2228 
L 1259 0 
L 628 0 
L 628 4666 
z
" transform="scale(0.015625)"/>
       <path id="DejaVuSans-6f" d="M 1959 3097 
Q 1497 3097 1228 2736 
Q 959 2375 959 1747 
Q 959 1119 1226 758 
Q 1494 397 1959 397 
Q 2419 397 2687 759 
Q 2956 1122 2956 1747 
Q 2956 2369 2687 2733 
Q 2419 3097 1959 3097 
z
M 1959 3584 
Q 2709 3584 3137 3096 
Q 3566 2609 3566 1747 
Q 3566 888 3137 398 
Q 2709 -91 1959 -91 
Q 1206 -91 779 398 
Q 353 888 353 1747 
Q 353 2609 779 3096 
Q 1206 3584 1959 3584 
z
" transform="scale(0.015625)"/>
       <path id="DejaVuSans-72" d="M 2631 2963 
Q 2534 3019 2420 3045 
Q 2306 3072 2169 3072 
Q 1681 3072 1420 2755 
Q 1159 2438 1159 1844 
L 1159 0 
L 581 0 
L 581 3500 
L 1159 3500 
L 1159 2956 
Q 1341 3275 1631 3429 
Q 1922 3584 2338 3584 
Q 2397 3584 2469 3576 
Q 2541 3569 2628 3553 
L 2631 2963 
z
" transform="scale(0.015625)"/>
       <path id="DejaVuSans-63" d="M 3122 3366 
L 3122 2828 
Q 2878 2963 2633 3030 
Q 2388 3097 2138 3097 
Q 1578 3097 1268 2742 
Q 959 2388 959 1747 
Q 959 1106 1268 751 
Q 1578 397 2138 397 
Q 2388 397 2633 464 
Q 2878 531 3122 666 
L 3122 134 
Q 2881 22 2623 -34 
Q 2366 -91 2075 -91 
Q 1284 -91 818 406 
Q 353 903 353 1747 
Q 353 2603 823 3093 
Q 1294 3584 2113 3584 
Q 2378 3584 2631 3529 
Q 2884 3475 3122 3366 
z
" transform="scale(0.015625)"/>
       <path id="DejaVuSans-70" d="M 1159 525 
L 1159 -1331 
L 581 -1331 
L 581 3500 
L 1159 3500 
L 1159 2969 
Q 1341 3281 1617 3432 
Q 1894 3584 2278 3584 
Q 2916 3584 3314 3078 
Q 3713 2572 3713 1747 
Q 3713 922 3314 415 
Q 2916 -91 2278 -91 
Q 1894 -91 1617 61 
Q 1341 213 1159 525 
z
M 3116 1747 
Q 3116 2381 2855 2742 
Q 2594 3103 2138 3103 
Q 1681 3103 1420 2742 
Q 1159 2381 1159 1747 
Q 1159 1113 1420 752 
Q 1681 391 2138 391 
Q 2594 391 2855 752 
Q 3116 1113 3116 1747 
z
" transform="scale(0.015625)"/>
       <path id="DejaVuSans-6c" d="M 603 4863 
L 1178 4863 
L 1178 0 
L 603 0 
L 603 4863 
z
" transform="scale(0.015625)"/>
       <path id="DejaVuSans-74" d="M 1172 4494 
L 1172 3500 
L 2356 3500 
L 2356 3053 
L 1172 3053 
L 1172 1153 
Q 1172 725 1289 603 
Q 1406 481 1766 481 
L 2356 481 
L 2356 0 
L 1766 0 
Q 1100 0 847 248 
Q 594 497 594 1153 
L 594 3053 
L 172 3053 
L 172 3500 
L 594 3500 
L 594 4494 
L 1172 4494 
z
" transform="scale(0.015625)"/>
       <path id="DejaVuSans-64" d="M 2906 2969 
L 2906 4863 
L 3481 4863 
L 3481 0 
L 2906 0 
L 2906 525 
Q 2725 213 2448 61 
Q 2172 -91 1784 -91 
Q 1150 -91 751 415 
Q 353 922 353 1747 
Q 353 2572 751 3078 
Q 1150 3584 1784 3584 
Q 2172 3584 2448 3432 
Q 2725 3281 2906 2969 
z
M 947 1747 
Q 947 1113 1208 752 
Q 1469 391 1925 391 
Q 2381 391 2643 752 
Q 2906 1113 2906 1747 
Q 2906 2381 2643 2742 
Q 2381 3103 1925 3103 
Q 1469 3103 1208 2742 
Q 947 2381 947 1747 
z
" transform="scale(0.015625)"/>
       <path id="DejaVuSans-4e" d="M 628 4666 
L 1478 4666 
L 3547 763 
L 3547 4666 
L 4159 4666 
L 4159 0 
L 3309 0 
L 1241 3903 
L 1241 0 
L 628 0 
L 628 4666 
z
" transform="scale(0.015625)"/>
      </defs>
      <use xlink:href="#DejaVuSans-46"/>
      <use xlink:href="#DejaVuSans-6f" transform="translate(53.894531 0)"/>
      <use xlink:href="#DejaVuSans-72" transform="translate(115.076172 0)"/>
      <use xlink:href="#DejaVuSans-63" transform="translate(153.939453 0)"/>
      <use xlink:href="#DejaVuSans-65" transform="translate(208.919922 0)"/>
      <use xlink:href="#DejaVuSans-20" transform="translate(270.443359 0)"/>
      <use xlink:href="#DejaVuSans-69" transform="translate(302.230469 0)"/>
      <use xlink:href="#DejaVuSans-6d" transform="translate(330.013672 0)"/>
      <use xlink:href="#DejaVuSans-70" transform="translate(427.425781 0)"/>
      <use xlink:href="#DejaVuSans-6c" transform="translate(490.902344 0)"/>
      <use xlink:href="#DejaVuSans-65" transform="translate(518.685547 0)"/>
      <use xlink:href="#DejaVuSans-6d" transform="translate(580.208984 0)"/>
      <use xlink:href="#DejaVuSans-65" transform="translate(677.621094 0)"/>
      <use xlink:href="#DejaVuSans-6e" transform="translate(739.144531 0)"/>
      <use xlink:href="#DejaVuSans-74" transform="translate(802.523438 0)"/>
      <use xlink:href="#DejaVuSans-65" transform="translate(841.732422 0)"/>
      <use xlink:href="#DejaVuSans-64" transform="translate(903.255859 0)"/>
      <use xlink:href="#DejaVuSans-5b" transform="translate(966.732422 0)"/>
      <use xlink:href="#DejaVuSans-4e" transform="translate(1005.746094 0)"/>
      <use xlink:href="#DejaVuSans-5d" transform="translate(1080.550781 0)"/>
     </g>
    </g>
   </g>
   <g id="line2d_12">
    <path d="M 72.662983 230.571562 
L 75.810955 29.568907 
L 78.958926 51.099247 
L 82.106898 216.971963 
L 85.254869 203.500862 
L 88.402841 202.452013 
L 91.550813 200.534907 
L 94.698784 194.531281 
L 97.846756 192.526821 
L 100.994727 193.24047 
L 104.142699 196.477971 
L 107.29067 196.033296 
L 110.438642 199.896696 
L 113.586614 195.239996 
L 116.734585 201.495374 
L 119.882557 200.863037 
L 123.030528 202.445474 
L 126.1785 203.6828 
L 129.326472 203.792834 
L 132.474443 209.038432 
L 135.622415 217.104096 
L 138.770386 217.124045 
L 141.918358 193.298368 
L 145.06633 191.510758 
L 148.214301 194.051079 
L 151.362273 199.657355 
L 154.510244 202.394653 
L 157.658216 203.682674 
L 160.806188 203.788753 
L 163.954159 200.998865 
L 167.102131 194.283484 
L 170.250102 193.504551 
L 173.398074 200.403629 
L 176.546045 196.421791 
L 179.694017 199.162699 
L 182.841989 199.505504 
L 185.98996 197.130068 
L 189.137932 199.682583 
L 192.285903 195.075297 
L 195.433875 197.189196 
L 198.581847 199.6159 
L 201.729818 197.754161 
L 204.87779 197.923112 
L 208.025761 202.093792 
L 211.173733 199.689323 
L 214.321705 200.728537 
L 217.469676 200.782273 
L 220.617648 201.354504 
L 223.765619 201.785107 
L 226.913591 201.482586 
L 230.061562 199.708732 
L 233.209534 199.622145 
L 236.357506 201.856991 
L 239.505477 199.273855 
L 242.653449 200.425228 
L 245.80142 195.165045 
L 248.949392 197.557769 
L 252.097364 198.009727 
L 255.245335 200.422095 
L 258.393307 197.051168 
L 261.541278 201.452031 
L 264.68925 195.079683 
L 267.837222 199.106811 
L 270.985193 198.118839 
L 274.133165 201.423647 
L 277.281136 199.825267 
L 280.429108 201.458907 
L 283.57708 199.825355 
L 286.725051 200.426595 
L 289.873023 197.10103 
L 293.020994 195.309911 
L 296.168966 200.633333 
L 299.316937 199.752533 
L 302.464909 197.792556 
L 305.612881 199.425009 
L 308.760852 201.476736 
L 311.908824 201.327213 
L 315.056795 197.492702 
L 318.204767 200.48208 
L 321.352739 201.847707 
L 324.50071 200.807985 
L 327.648682 200.599129 
L 330.796653 199.85346 
L 333.944625 197.985181 
L 337.092597 197.788176 
L 340.240568 201.484094 
L 343.38854 201.787446 
L 346.536511 200.857687 
L 349.684483 199.823864 
L 352.832455 201.458904 
L 355.980426 199.175802 
L 359.128398 198.11901 
L 362.276369 200.422366 
L 365.424341 199.740595 
L 368.572312 195.316454 
L 371.720284 197.413209 
L 374.868256 200.62095 
L 378.016227 201.714532 
L 381.164199 200.857506 
L 384.31217 200.73476 
L 387.460142 197.101794 
" clip-path="url(#p4e65ac911f)" style="fill: none; stroke: #133078; stroke-width: 1.5; stroke-linecap: square"/>
   </g>
   <g id="line2d_13">
    <path d="M 72.662983 230.571562 
L 75.810955 230.571562 
L 78.958926 230.571562 
L 82.106898 230.571562 
L 85.254869 174.372073 
L 88.402841 147.265887 
L 91.550813 127.983588 
L 94.698784 105.312907 
L 97.846756 85.690906 
L 100.994727 83.052125 
L 104.142699 94.274189 
L 107.29067 107.194896 
L 110.438642 121.33116 
L 113.586614 133.937193 
L 116.734585 158.639365 
L 119.882557 175.651292 
L 123.030528 197.73449 
L 126.1785 203.4816 
L 129.326472 217.889514 
L 132.474443 226.374983 
L 135.622415 230.56116 
L 138.770386 230.571537 
L 141.918358 230.571562 
L 145.06633 230.571562 
L 148.214301 230.571562 
L 151.362273 230.571562 
L 154.510244 230.571562 
L 157.658216 230.571562 
L 160.806188 230.571562 
L 163.954159 217.372028 
L 167.102131 194.137334 
L 170.250102 191.642861 
L 173.398074 187.85457 
L 176.546045 187.284005 
L 179.694017 182.830377 
L 182.841989 174.621141 
L 185.98996 175.497581 
L 189.137932 175.949565 
L 192.285903 175.967295 
L 195.433875 189.226561 
L 198.581847 190.852057 
L 201.729818 191.504695 
L 204.87779 196.818353 
L 208.025761 197.839814 
L 211.173733 202.084541 
L 214.321705 202.448502 
L 217.469676 202.449404 
L 220.617648 203.784054 
L 223.765619 215.319982 
L 226.913591 217.119627 
L 230.061562 217.124085 
L 233.209534 217.124138 
L 236.357506 217.12411 
L 239.505477 203.928115 
L 242.653449 202.453072 
L 245.80142 202.449415 
L 248.949392 199.57562 
L 252.097364 197.53969 
L 255.245335 200.491241 
L 258.393307 196.647964 
L 261.541278 196.359303 
L 264.68925 196.912577 
L 267.837222 194.544604 
L 270.985193 197.569956 
L 274.133165 198.126552 
L 277.281136 201.222728 
L 280.429108 194.637478 
L 283.57708 200.054429 
L 286.725051 198.092176 
L 289.873023 199.230201 
L 293.020994 199.73764 
L 296.168966 201.45869 
L 299.316937 198.014484 
L 302.464909 197.532323 
L 305.612881 201.346448 
L 308.760852 197.758451 
L 311.908824 200.723751 
L 315.056795 201.814573 
L 318.204767 200.63186 
L 321.352739 197.508575 
L 324.50071 201.346389 
L 327.648682 201.861265 
L 330.796653 201.243817 
L 333.944625 198.173987 
L 337.092597 197.788644 
L 340.240568 201.484095 
L 343.38854 199.825417 
L 346.536511 200.650012 
L 349.684483 200.805017 
L 352.832455 199.143151 
L 355.980426 197.538618 
L 359.128398 197.177705 
L 362.276369 197.978548 
L 365.424341 195.312086 
L 368.572312 199.475738 
L 371.720284 197.394507 
L 374.868256 201.244161 
L 378.016227 200.806489 
L 381.164199 201.222382 
L 384.31217 199.824768 
L 387.460142 195.316662 
" clip-path="url(#p4e65ac911f)" style="fill: none; stroke: #25677d; stroke-width: 1.5; stroke-linecap: square"/>
   </g>
   <g id="line2d_14">
    <path d="M 72.662983 230.571562 
L 75.810955 94.631674 
L 78.958926 21.265312 
L 82.106898 216.246055 
L 85.254869 217.739877 
L 88.402841 217.125597 
L 91.550813 192.120552 
L 94.698784 187.630841 
L 97.846756 175.624692 
L 100.994727 174.535305 
L 104.142699 174.532602 
L 107.29067 174.532636 
L 110.438642 174.532611 
L 113.586614 174.532673 
L 116.734585 175.143521 
L 119.882557 175.965297 
L 123.030528 191.083367 
L 126.1785 191.505268 
L 129.326472 195.812084 
L 132.474443 192.500984 
L 135.622415 194.130378 
L 138.770386 196.027477 
L 141.918358 183.267156 
L 145.06633 174.566735 
L 148.214301 175.647313 
L 151.362273 184.757037 
L 154.510244 191.482795 
L 157.658216 200.968362 
L 160.806188 189.025202 
L 163.954159 176.535011 
L 167.102131 174.728267 
L 170.250102 174.543527 
L 173.398074 174.53273 
L 176.546045 174.532702 
L 179.694017 174.538932 
L 182.841989 174.532703 
L 185.98996 174.74035 
L 189.137932 174.53315 
L 192.285903 174.535011 
L 195.433875 175.350007 
L 198.581847 175.803174 
L 201.729818 175.966932 
L 204.87779 175.967338 
L 208.025761 180.419536 
L 211.173733 187.265605 
L 214.321705 187.28257 
L 217.469676 187.282616 
L 220.617648 187.282615 
L 223.765619 187.282615 
L 226.913591 187.282603 
L 230.061562 187.282608 
L 233.209534 187.282601 
L 236.357506 187.282587 
L 239.505477 187.282575 
L 242.653449 187.282571 
L 245.80142 187.28257 
L 248.949392 187.28257 
L 252.097364 187.28257 
L 255.245335 178.492109 
L 258.393307 175.973598 
L 261.541278 175.402869 
L 264.68925 175.293152 
L 267.837222 175.705399 
L 270.985193 175.72712 
L 274.133165 175.886546 
L 277.281136 175.39885 
L 280.429108 175.96593 
L 283.57708 175.967336 
L 286.725051 175.967339 
L 289.873023 175.967339 
L 293.020994 183.119929 
L 296.168966 187.272263 
L 299.316937 187.282553 
L 302.464909 187.282593 
L 305.612881 187.28258 
L 308.760852 187.282576 
L 311.908824 187.282593 
L 315.056795 187.282583 
L 318.204767 187.282583 
L 321.352739 187.282577 
L 324.50071 187.28257 
L 327.648682 187.282577 
L 330.796653 187.28257 
L 333.944625 187.28257 
L 337.092597 187.28257 
L 340.240568 187.28257 
L 343.38854 177.498689 
L 346.536511 175.971135 
L 349.684483 175.967349 
L 352.832455 175.967339 
L 355.980426 175.967339 
L 359.128398 175.967339 
L 362.276369 175.967339 
L 365.424341 175.967339 
L 368.572312 175.967339 
L 371.720284 175.967339 
L 374.868256 187.206356 
L 378.016227 187.282388 
L 381.164199 187.28259 
L 384.31217 187.282574 
L 387.460142 187.282575 
" clip-path="url(#p4e65ac911f)" style="fill: none; stroke: #368770; stroke-width: 1.5; stroke-linecap: square"/>
   </g>
   <g id="line2d_15">
    <path d="M 72.662983 230.571562 
L 75.810955 147.851716 
L 78.958926 139.006959 
L 82.106898 227.503804 
L 85.254869 230.563958 
L 88.402841 230.571544 
L 91.550813 230.571562 
L 94.698784 230.571562 
L 97.846756 230.571562 
L 100.994727 230.571562 
L 104.142699 230.571562 
L 107.29067 230.571562 
L 110.438642 230.571562 
L 113.586614 230.571562 
L 116.734585 230.571562 
L 119.882557 230.571562 
L 123.030528 230.571562 
L 126.1785 230.571562 
L 129.326472 230.571562 
L 132.474443 230.571562 
L 135.622415 230.571562 
L 138.770386 230.571562 
L 141.918358 230.571562 
L 145.06633 222.345705 
L 148.214301 217.63214 
L 151.362273 218.420381 
L 154.510244 230.472016 
L 157.658216 230.571316 
L 160.806188 230.571562 
L 163.954159 230.571562 
L 167.102131 230.571562 
L 170.250102 230.571562 
L 173.398074 230.571562 
L 176.546045 230.571562 
L 179.694017 230.571562 
L 182.841989 230.571562 
L 185.98996 230.571562 
L 189.137932 230.571562 
L 192.285903 230.571562 
L 195.433875 230.571562 
L 198.581847 230.571562 
L 201.729818 230.571562 
L 204.87779 230.571562 
L 208.025761 230.571562 
L 211.173733 230.571562 
L 214.321705 230.571562 
L 217.469676 230.571562 
L 220.617648 230.571562 
L 223.765619 230.571562 
L 226.913591 230.571562 
L 230.061562 230.571562 
L 233.209534 230.571562 
L 236.357506 230.571562 
L 239.505477 230.571562 
L 242.653449 230.571562 
L 245.80142 230.571562 
L 248.949392 230.571562 
L 252.097364 230.571562 
L 255.245335 230.571562 
L 258.393307 230.571562 
L 261.541278 230.571562 
L 264.68925 230.571562 
L 267.837222 230.571562 
L 270.985193 230.571562 
L 274.133165 230.571562 
L 277.281136 230.571562 
L 280.429108 230.571562 
L 283.57708 230.571562 
L 286.725051 230.571562 
L 289.873023 230.571562 
L 293.020994 230.571562 
L 296.168966 230.571562 
L 299.316937 230.571562 
L 302.464909 230.571562 
L 305.612881 230.571562 
L 308.760852 230.571562 
L 311.908824 230.571562 
L 315.056795 230.571562 
L 318.204767 230.571562 
L 321.352739 230.571562 
L 324.50071 230.571562 
L 327.648682 230.571562 
L 330.796653 230.571562 
L 333.944625 230.571562 
L 337.092597 230.571562 
L 340.240568 230.571562 
L 343.38854 230.571562 
L 346.536511 230.571562 
L 349.684483 230.571562 
L 352.832455 230.571562 
L 355.980426 230.571562 
L 359.128398 230.571562 
L 362.276369 230.571562 
L 365.424341 230.571562 
L 368.572312 230.571562 
L 371.720284 230.571562 
L 374.868256 230.571562 
L 378.016227 230.571562 
L 381.164199 230.571562 
L 384.31217 230.571562 
L 387.460142 230.571562 
" clip-path="url(#p4e65ac911f)" style="fill: none; stroke: #43984d; stroke-width: 1.5; stroke-linecap: square"/>
   </g>
   <g id="line2d_16">
    <path d="M 72.662983 230.571562 
L 75.810955 230.571562 
L 78.958926 230.571562 
L 82.106898 230.571562 
L 85.254869 174.372073 
L 88.402841 147.265887 
L 91.550813 127.983588 
L 94.698784 105.312907 
L 97.846756 85.690906 
L 100.994727 83.052125 
L 104.142699 94.274189 
L 107.29067 107.194896 
L 110.438642 121.33116 
L 113.586614 133.937193 
L 116.734585 158.639365 
L 119.882557 175.651292 
L 123.030528 197.73449 
L 126.1785 203.4816 
L 129.326472 217.889514 
L 132.474443 226.374983 
L 135.622415 230.56116 
L 138.770386 230.571537 
L 141.918358 230.571562 
L 145.06633 230.571562 
L 148.214301 230.571562 
L 151.362273 230.571562 
L 154.510244 230.571562 
L 157.658216 230.571562 
L 160.806188 230.571562 
L 163.954159 217.372028 
L 167.102131 194.137334 
L 170.250102 191.642861 
L 173.398074 187.85457 
L 176.546045 187.284005 
L 179.694017 182.830377 
L 182.841989 174.621141 
L 185.98996 175.497581 
L 189.137932 175.949565 
L 192.285903 175.967295 
L 195.433875 189.226561 
L 198.581847 190.852057 
L 201.729818 191.504695 
L 204.87779 196.818353 
L 208.025761 197.839814 
L 211.173733 202.084541 
L 214.321705 202.448502 
L 217.469676 202.449404 
L 220.617648 203.784054 
L 223.765619 215.319982 
L 226.913591 217.119627 
L 230.061562 217.124085 
L 233.209534 217.124138 
L 236.357506 217.12411 
L 239.505477 203.928115 
L 242.653449 202.453072 
L 245.80142 202.449415 
L 248.949392 199.57562 
L 252.097364 197.53969 
L 255.245335 200.491241 
L 258.393307 196.647964 
L 261.541278 196.359303 
L 264.68925 196.912577 
L 267.837222 194.544604 
L 270.985193 197.569956 
L 274.133165 198.126552 
L 277.281136 201.222728 
L 280.429108 194.637478 
L 283.57708 200.054429 
L 286.725051 198.092176 
L 289.873023 199.230201 
L 293.020994 199.73764 
L 296.168966 201.45869 
L 299.316937 198.014484 
L 302.464909 197.532323 
L 305.612881 201.346448 
L 308.760852 197.758451 
L 311.908824 200.723751 
L 315.056795 201.814573 
L 318.204767 200.63186 
L 321.352739 197.508575 
L 324.50071 201.346389 
L 327.648682 201.861265 
L 330.796653 201.243817 
L 333.944625 198.173987 
L 337.092597 197.788644 
L 340.240568 201.484095 
L 343.38854 199.825417 
L 346.536511 200.650012 
L 349.684483 200.805017 
L 352.832455 199.143151 
L 355.980426 197.538618 
L 359.128398 197.177705 
L 362.276369 197.978548 
L 365.424341 195.312086 
L 368.572312 199.475738 
L 371.720284 197.394507 
L 374.868256 201.244161 
L 378.016227 200.806489 
L 381.164199 201.222382 
L 384.31217 199.824768 
L 387.460142 195.316662 
" clip-path="url(#p4e65ac911f)" style="fill: none; stroke: #7ca753; stroke-width: 1.5; stroke-linecap: square"/>
   </g>
   <g id="line2d_17">
    <path d="M 72.662983 230.571562 
L 75.810955 29.568907 
L 78.958926 51.099247 
L 82.106898 216.971963 
L 85.254869 203.500862 
L 88.402841 202.452013 
L 91.550813 200.534907 
L 94.698784 194.531281 
L 97.846756 192.526821 
L 100.994727 193.24047 
L 104.142699 196.477971 
L 107.29067 196.033296 
L 110.438642 199.896696 
L 113.586614 195.239996 
L 116.734585 201.495374 
L 119.882557 200.863037 
L 123.030528 202.445474 
L 126.1785 203.6828 
L 129.326472 203.792834 
L 132.474443 209.038432 
L 135.622415 217.104096 
L 138.770386 217.124045 
L 141.918358 193.298368 
L 145.06633 191.510758 
L 148.214301 194.051079 
L 151.362273 199.657355 
L 154.510244 202.394653 
L 157.658216 203.682674 
L 160.806188 203.788753 
L 163.954159 200.998865 
L 167.102131 194.283484 
L 170.250102 193.504551 
L 173.398074 200.403629 
L 176.546045 196.421791 
L 179.694017 199.162699 
L 182.841989 199.505504 
L 185.98996 197.130068 
L 189.137932 199.682583 
L 192.285903 195.075297 
L 195.433875 197.189196 
L 198.581847 199.6159 
L 201.729818 197.754161 
L 204.87779 197.923112 
L 208.025761 202.093792 
L 211.173733 199.689323 
L 214.321705 200.728537 
L 217.469676 200.782273 
L 220.617648 201.354504 
L 223.765619 201.785107 
L 226.913591 201.482586 
L 230.061562 199.708732 
L 233.209534 199.622145 
L 236.357506 201.856991 
L 239.505477 199.273855 
L 242.653449 200.425228 
L 245.80142 195.165045 
L 248.949392 197.557769 
L 252.097364 198.009727 
L 255.245335 200.422095 
L 258.393307 197.051168 
L 261.541278 201.452031 
L 264.68925 195.079683 
L 267.837222 199.106811 
L 270.985193 198.118839 
L 274.133165 201.423647 
L 277.281136 199.825267 
L 280.429108 201.458907 
L 283.57708 199.825355 
L 286.725051 200.426595 
L 289.873023 197.10103 
L 293.020994 195.309911 
L 296.168966 200.633333 
L 299.316937 199.752533 
L 302.464909 197.792556 
L 305.612881 199.425009 
L 308.760852 201.476736 
L 311.908824 201.327213 
L 315.056795 197.492702 
L 318.204767 200.48208 
L 321.352739 201.847707 
L 324.50071 200.807985 
L 327.648682 200.599129 
L 330.796653 199.85346 
L 333.944625 197.985181 
L 337.092597 197.788176 
L 340.240568 201.484094 
L 343.38854 201.787446 
L 346.536511 200.857687 
L 349.684483 199.823864 
L 352.832455 201.458904 
L 355.980426 199.175802 
L 359.128398 198.11901 
L 362.276369 200.422366 
L 365.424341 199.740595 
L 368.572312 195.316454 
L 371.720284 197.413209 
L 374.868256 200.62095 
L 378.016227 201.714532 
L 381.164199 200.857506 
L 384.31217 200.73476 
L 387.460142 197.101794 
" clip-path="url(#p4e65ac911f)" style="fill: none; stroke: #aab35c; stroke-width: 1.5; stroke-linecap: square"/>
   </g>
   <g id="line2d_18">
    <path d="M 72.662983 230.571562 
L 75.810955 147.851716 
L 78.958926 139.006959 
L 82.106898 227.503804 
L 85.254869 230.563958 
L 88.402841 230.571544 
L 91.550813 230.571562 
L 94.698784 230.571562 
L 97.846756 230.571562 
L 100.994727 230.571562 
L 104.142699 230.571562 
L 107.29067 230.571562 
L 110.438642 230.571562 
L 113.586614 230.571562 
L 116.734585 230.571562 
L 119.882557 230.571562 
L 123.030528 230.571562 
L 126.1785 230.571562 
L 129.326472 230.571562 
L 132.474443 230.571562 
L 135.622415 230.571562 
L 138.770386 230.571562 
L 141.918358 230.571562 
L 145.06633 222.345705 
L 148.214301 217.63214 
L 151.362273 218.420381 
L 154.510244 230.472016 
L 157.658216 230.571316 
L 160.806188 230.571562 
L 163.954159 230.571562 
L 167.102131 230.571562 
L 170.250102 230.571562 
L 173.398074 230.571562 
L 176.546045 230.571562 
L 179.694017 230.571562 
L 182.841989 230.571562 
L 185.98996 230.571562 
L 189.137932 230.571562 
L 192.285903 230.571562 
L 195.433875 230.571562 
L 198.581847 230.571562 
L 201.729818 230.571562 
L 204.87779 230.571562 
L 208.025761 230.571562 
L 211.173733 230.571562 
L 214.321705 230.571562 
L 217.469676 230.571562 
L 220.617648 230.571562 
L 223.765619 230.571562 
L 226.913591 230.571562 
L 230.061562 230.571562 
L 233.209534 230.571562 
L 236.357506 230.571562 
L 239.505477 230.571562 
L 242.653449 230.571562 
L 245.80142 230.571562 
L 248.949392 230.571562 
L 252.097364 230.571562 
L 255.245335 230.571562 
L 258.393307 230.571562 
L 261.541278 230.571562 
L 264.68925 230.571562 
L 267.837222 230.571562 
L 270.985193 230.571562 
L 274.133165 230.571562 
L 277.281136 230.571562 
L 280.429108 230.571562 
L 283.57708 230.571562 
L 286.725051 230.571562 
L 289.873023 230.571562 
L 293.020994 230.571562 
L 296.168966 230.571562 
L 299.316937 230.571562 
L 302.464909 230.571562 
L 305.612881 230.571562 
L 308.760852 230.571562 
L 311.908824 230.571562 
L 315.056795 230.571562 
L 318.204767 230.571562 
L 321.352739 230.571562 
L 324.50071 230.571562 
L 327.648682 230.571562 
L 330.796653 230.571562 
L 333.944625 230.571562 
L 337.092597 230.571562 
L 340.240568 230.571562 
L 343.38854 230.571562 
L 346.536511 230.571562 
L 349.684483 230.571562 
L 352.832455 230.571562 
L 355.980426 230.571562 
L 359.128398 230.571562 
L 362.276369 230.571562 
L 365.424341 230.571562 
L 368.572312 230.571562 
L 371.720284 230.571562 
L 374.868256 230.571562 
L 378.016227 230.571562 
L 381.164199 230.571562 
L 384.31217 230.571562 
L 387.460142 230.571562 
" clip-path="url(#p4e65ac911f)" style="fill: none; stroke: #c0a565; stroke-width: 1.5; stroke-linecap: square"/>
   </g>
   <g id="line2d_19">
    <path d="M 72.662983 230.571562 
L 75.810955 94.631674 
L 78.958926 21.265312 
L 82.106898 216.246055 
L 85.254869 217.739877 
L 88.402841 217.125597 
L 91.550813 192.120552 
L 94.698784 187.630841 
L 97.846756 175.624692 
L 100.994727 174.535305 
L 104.142699 174.532602 
L 107.29067 174.532636 
L 110.438642 174.532611 
L 113.586614 174.532673 
L 116.734585 175.143521 
L 119.882557 175.965297 
L 123.030528 191.083367 
L 126.1785 191.505268 
L 129.326472 195.812084 
L 132.474443 192.500984 
L 135.622415 194.130378 
L 138.770386 196.027477 
L 141.918358 183.267156 
L 145.06633 174.566735 
L 148.214301 175.647313 
L 151.362273 184.757037 
L 154.510244 191.482795 
L 157.658216 200.968362 
L 160.806188 189.025202 
L 163.954159 176.535011 
L 167.102131 174.728267 
L 170.250102 174.543527 
L 173.398074 174.53273 
L 176.546045 174.532702 
L 179.694017 174.538932 
L 182.841989 174.532703 
L 185.98996 174.74035 
L 189.137932 174.53315 
L 192.285903 174.535011 
L 195.433875 175.350007 
L 198.581847 175.803174 
L 201.729818 175.966932 
L 204.87779 175.967338 
L 208.025761 180.419536 
L 211.173733 187.265605 
L 214.321705 187.28257 
L 217.469676 187.282616 
L 220.617648 187.282615 
L 223.765619 187.282615 
L 226.913591 187.282603 
L 230.061562 187.282608 
L 233.209534 187.282601 
L 236.357506 187.282587 
L 239.505477 187.282575 
L 242.653449 187.282571 
L 245.80142 187.28257 
L 248.949392 187.28257 
L 252.097364 187.28257 
L 255.245335 178.492109 
L 258.393307 175.973598 
L 261.541278 175.402869 
L 264.68925 175.293152 
L 267.837222 175.705399 
L 270.985193 175.72712 
L 274.133165 175.886546 
L 277.281136 175.39885 
L 280.429108 175.96593 
L 283.57708 175.967336 
L 286.725051 175.967339 
L 289.873023 175.967339 
L 293.020994 183.119929 
L 296.168966 187.272263 
L 299.316937 187.282553 
L 302.464909 187.282593 
L 305.612881 187.28258 
L 308.760852 187.282576 
L 311.908824 187.282593 
L 315.056795 187.282583 
L 318.204767 187.282583 
L 321.352739 187.282577 
L 324.50071 187.28257 
L 327.648682 187.282577 
L 330.796653 187.28257 
L 333.944625 187.28257 
L 337.092597 187.28257 
L 340.240568 187.28257 
L 343.38854 177.498689 
L 346.536511 175.971135 
L 349.684483 175.967349 
L 352.832455 175.967339 
L 355.980426 175.967339 
L 359.128398 175.967339 
L 362.276369 175.967339 
L 365.424341 175.967339 
L 368.572312 175.967339 
L 371.720284 175.967339 
L 374.868256 187.206356 
L 378.016227 187.282388 
L 381.164199 187.28259 
L 384.31217 187.282574 
L 387.460142 187.282575 
" clip-path="url(#p4e65ac911f)" style="fill: none; stroke: #debba7; stroke-width: 1.5; stroke-linecap: square"/>
   </g>
   <g id="patch_3">
    <path d="M 56.923125 241.036875 
L 56.923125 10.8 
" style="fill: none; stroke: #000000; stroke-width: 0.8; stroke-linejoin: miter; stroke-linecap: square"/>
   </g>
   <g id="patch_4">
    <path d="M 403.2 241.036875 
L 403.2 10.8 
" style="fill: none; stroke: #000000; stroke-width: 0.8; stroke-linejoin: miter; stroke-linecap: square"/>
   </g>
   <g id="patch_5">
    <path d="M 56.923125 241.036875 
L 403.2 241.036875 
" style="fill: none; stroke: #000000; stroke-width: 0.8; stroke-linejoin: miter; stroke-linecap: square"/>
   </g>
   <g id="patch_6">
    <path d="M 56.923125 10.8 
L 403.2 10.8 
" style="fill: none; stroke: #000000; stroke-width: 0.8; stroke-linejoin: miter; stroke-linecap: square"/>
   </g>
   <g id="legend_1">
    <g id="patch_7">
     <path d="M 325.98 236.536875 
L 396.9 236.536875 
Q 398.7 236.536875 398.7 234.736875 
L 398.7 129.954375 
Q 398.7 128.154375 396.9 128.154375 
L 325.98 128.154375 
Q 324.18 128.154375 324.18 129.954375 
L 324.18 234.736875 
Q 324.18 236.536875 325.98 236.536875 
z
" style="fill: #ffffff; opacity: 0.8; stroke: #cccccc; stroke-linejoin: miter"/>
    </g>
    <g id="line2d_20">
     <path d="M 327.78 135.442969 
L 336.78 135.442969 
L 345.78 135.442969 
" style="fill: none; stroke: #133078; stroke-width: 1.5; stroke-linecap: square"/>
    </g>
    <g id="text_14">
     <!-- $thrForce_{0}$ -->
     <g transform="translate(352.98 138.592969) scale(0.09 -0.09)">
      <defs>
       <path id="DejaVuSans-Oblique-74" d="M 2706 3500 
L 2619 3053 
L 1472 3053 
L 1100 1153 
Q 1081 1047 1072 975 
Q 1063 903 1063 863 
Q 1063 663 1183 572 
Q 1303 481 1569 481 
L 2150 481 
L 2053 0 
L 1503 0 
Q 991 0 739 200 
Q 488 400 488 806 
Q 488 878 497 964 
Q 506 1050 525 1153 
L 897 3053 
L 409 3053 
L 500 3500 
L 978 3500 
L 1172 4494 
L 1747 4494 
L 1556 3500 
L 2706 3500 
z
" transform="scale(0.015625)"/>
       <path id="DejaVuSans-Oblique-68" d="M 3566 2113 
L 3156 0 
L 2578 0 
L 2988 2091 
Q 3016 2238 3031 2350 
Q 3047 2463 3047 2528 
Q 3047 2791 2881 2937 
Q 2716 3084 2419 3084 
Q 1956 3084 1617 2771 
Q 1278 2459 1178 1941 
L 800 0 
L 225 0 
L 1172 4863 
L 1747 4863 
L 1375 2950 
Q 1594 3244 1934 3414 
Q 2275 3584 2650 3584 
Q 3113 3584 3367 3334 
Q 3622 3084 3622 2631 
Q 3622 2519 3608 2391 
Q 3594 2263 3566 2113 
z
" transform="scale(0.015625)"/>
       <path id="DejaVuSans-Oblique-72" d="M 2853 2969 
Q 2766 3016 2653 3041 
Q 2541 3066 2413 3066 
Q 1953 3066 1609 2717 
Q 1266 2369 1153 1784 
L 800 0 
L 225 0 
L 909 3500 
L 1484 3500 
L 1375 2956 
Q 1603 3259 1920 3421 
Q 2238 3584 2597 3584 
Q 2691 3584 2781 3573 
Q 2872 3563 2963 3538 
L 2853 2969 
z
" transform="scale(0.015625)"/>
       <path id="DejaVuSans-Oblique-46" d="M 1081 4666 
L 3756 4666 
L 3653 4134 
L 1606 4134 
L 1338 2759 
L 3188 2759 
L 3084 2228 
L 1234 2228 
L 800 0 
L 172 0 
L 1081 4666 
z
" transform="scale(0.015625)"/>
       <path id="DejaVuSans-Oblique-6f" d="M 1625 -91 
Q 1009 -91 651 289 
Q 294 669 294 1325 
Q 294 1706 417 2101 
Q 541 2497 738 2766 
Q 1047 3184 1428 3384 
Q 1809 3584 2291 3584 
Q 2888 3584 3255 3212 
Q 3622 2841 3622 2241 
Q 3622 1825 3500 1412 
Q 3378 1000 3181 728 
Q 2875 309 2494 109 
Q 2113 -91 1625 -91 
z
M 891 1344 
Q 891 869 1089 633 
Q 1288 397 1691 397 
Q 2269 397 2648 901 
Q 3028 1406 3028 2181 
Q 3028 2634 2825 2865 
Q 2622 3097 2228 3097 
Q 1903 3097 1650 2945 
Q 1397 2794 1197 2484 
Q 1050 2253 970 1956 
Q 891 1659 891 1344 
z
" transform="scale(0.015625)"/>
       <path id="DejaVuSans-Oblique-63" d="M 3431 3366 
L 3316 2797 
Q 3109 2947 2876 3022 
Q 2644 3097 2394 3097 
Q 2119 3097 1870 3000 
Q 1622 2903 1453 2725 
Q 1184 2453 1037 2087 
Q 891 1722 891 1331 
Q 891 859 1127 628 
Q 1363 397 1844 397 
Q 2081 397 2348 469 
Q 2616 541 2906 684 
L 2797 116 
Q 2547 13 2283 -39 
Q 2019 -91 1741 -91 
Q 1044 -91 669 257 
Q 294 606 294 1253 
Q 294 1797 489 2255 
Q 684 2713 1069 3078 
Q 1331 3328 1684 3456 
Q 2038 3584 2456 3584 
Q 2700 3584 2940 3529 
Q 3181 3475 3431 3366 
z
" transform="scale(0.015625)"/>
       <path id="DejaVuSans-Oblique-65" d="M 3078 2063 
Q 3088 2113 3092 2166 
Q 3097 2219 3097 2272 
Q 3097 2653 2873 2875 
Q 2650 3097 2266 3097 
Q 1838 3097 1509 2826 
Q 1181 2556 1013 2059 
L 3078 2063 
z
M 3578 1613 
L 903 1613 
Q 884 1494 878 1425 
Q 872 1356 872 1306 
Q 872 872 1139 634 
Q 1406 397 1894 397 
Q 2269 397 2603 481 
Q 2938 566 3225 728 
L 3116 159 
Q 2806 34 2476 -28 
Q 2147 -91 1806 -91 
Q 1078 -91 686 257 
Q 294 606 294 1247 
Q 294 1794 489 2264 
Q 684 2734 1063 3103 
Q 1306 3334 1642 3459 
Q 1978 3584 2356 3584 
Q 2950 3584 3301 3228 
Q 3653 2872 3653 2272 
Q 3653 2128 3634 1964 
Q 3616 1800 3578 1613 
z
" transform="scale(0.015625)"/>
      </defs>
      <use xlink:href="#DejaVuSans-Oblique-74" transform="translate(0 0.015625)"/>
      <use xlink:href="#DejaVuSans-Oblique-68" transform="translate(39.208984 0.015625)"/>
      <use xlink:href="#DejaVuSans-Oblique-72" transform="translate(102.587891 0.015625)"/>
      <use xlink:href="#DejaVuSans-Oblique-46" transform="translate(143.701172 0.015625)"/>
      <use xlink:href="#DejaVuSans-Oblique-6f" transform="translate(201.220703 0.015625)"/>
      <use xlink:href="#DejaVuSans-Oblique-72" transform="translate(262.402344 0.015625)"/>
      <use xlink:href="#DejaVuSans-Oblique-63" transform="translate(303.515625 0.015625)"/>
      <use xlink:href="#DejaVuSans-Oblique-65" transform="translate(358.496094 0.015625)"/>
      <use xlink:href="#DejaVuSans-30" transform="translate(420.019531 -16.390625) scale(0.7)"/>
     </g>
    </g>
    <g id="line2d_21">
     <path d="M 327.78 148.653281 
L 336.78 148.653281 
L 345.78 148.653281 
" style="fill: none; stroke: #25677d; stroke-width: 1.5; stroke-linecap: square"/>
    </g>
    <g id="text_15">
     <!-- $thrForce_{1}$ -->
     <g transform="translate(352.98 151.803281) scale(0.09 -0.09)">
      <use xlink:href="#DejaVuSans-Oblique-74" transform="translate(0 0.015625)"/>
      <use xlink:href="#DejaVuSans-Oblique-68" transform="translate(39.208984 0.015625)"/>
      <use xlink:href="#DejaVuSans-Oblique-72" transform="translate(102.587891 0.015625)"/>
      <use xlink:href="#DejaVuSans-Oblique-46" transform="translate(143.701172 0.015625)"/>
      <use xlink:href="#DejaVuSans-Oblique-6f" transform="translate(201.220703 0.015625)"/>
      <use xlink:href="#DejaVuSans-Oblique-72" transform="translate(262.402344 0.015625)"/>
      <use xlink:href="#DejaVuSans-Oblique-63" transform="translate(303.515625 0.015625)"/>
      <use xlink:href="#DejaVuSans-Oblique-65" transform="translate(358.496094 0.015625)"/>
      <use xlink:href="#DejaVuSans-31" transform="translate(420.019531 -16.390625) scale(0.7)"/>
     </g>
    </g>
    <g id="line2d_22">
     <path d="M 327.78 161.863594 
L 336.78 161.863594 
L 345.78 161.863594 
" style="fill: none; stroke: #368770; stroke-width: 1.5; stroke-linecap: square"/>
    </g>
    <g id="text_16">
     <!-- $thrForce_{2}$ -->
     <g transform="translate(352.98 165.013594) scale(0.09 -0.09)">
      <use xlink:href="#DejaVuSans-Oblique-74" transform="translate(0 0.015625)"/>
      <use xlink:href="#DejaVuSans-Oblique-68" transform="translate(39.208984 0.015625)"/>
      <use xlink:href="#DejaVuSans-Oblique-72" transform="translate(102.587891 0.015625)"/>
      <use xlink:href="#DejaVuSans-Oblique-46" transform="translate(143.701172 0.015625)"/>
      <use xlink:href="#DejaVuSans-Oblique-6f" transform="translate(201.220703 0.015625)"/>
      <use xlink:href="#DejaVuSans-Oblique-72" transform="translate(262.402344 0.015625)"/>
      <use xlink:href="#DejaVuSans-Oblique-63" transform="translate(303.515625 0.015625)"/>
      <use xlink:href="#DejaVuSans-Oblique-65" transform="translate(358.496094 0.015625)"/>
      <use xlink:href="#DejaVuSans-32" transform="translate(420.019531 -16.390625) scale(0.7)"/>
     </g>
    </g>
    <g id="line2d_23">
     <path d="M 327.78 175.073906 
L 336.78 175.073906 
L 345.78 175.073906 
" style="fill: none; stroke: #43984d; stroke-width: 1.5; stroke-linecap: square"/>
    </g>
    <g id="text_17">
     <!-- $thrForce_{3}$ -->
     <g transform="translate(352.98 178.223906) scale(0.09 -0.09)">
      <defs>
       <path id="DejaVuSans-33" d="M 2597 2516 
Q 3050 2419 3304 2112 
Q 3559 1806 3559 1356 
Q 3559 666 3084 287 
Q 2609 -91 1734 -91 
Q 1441 -91 1130 -33 
Q 819 25 488 141 
L 488 750 
Q 750 597 1062 519 
Q 1375 441 1716 441 
Q 2309 441 2620 675 
Q 2931 909 2931 1356 
Q 2931 1769 2642 2001 
Q 2353 2234 1838 2234 
L 1294 2234 
L 1294 2753 
L 1863 2753 
Q 2328 2753 2575 2939 
Q 2822 3125 2822 3475 
Q 2822 3834 2567 4026 
Q 2313 4219 1838 4219 
Q 1578 4219 1281 4162 
Q 984 4106 628 3988 
L 628 4550 
Q 988 4650 1302 4700 
Q 1616 4750 1894 4750 
Q 2613 4750 3031 4423 
Q 3450 4097 3450 3541 
Q 3450 3153 3228 2886 
Q 3006 2619 2597 2516 
z
" transform="scale(0.015625)"/>
      </defs>
      <use xlink:href="#DejaVuSans-Oblique-74" transform="translate(0 0.015625)"/>
      <use xlink:href="#DejaVuSans-Oblique-68" transform="translate(39.208984 0.015625)"/>
      <use xlink:href="#DejaVuSans-Oblique-72" transform="translate(102.587891 0.015625)"/>
      <use xlink:href="#DejaVuSans-Oblique-46" transform="translate(143.701172 0.015625)"/>
      <use xlink:href="#DejaVuSans-Oblique-6f" transform="translate(201.220703 0.015625)"/>
      <use xlink:href="#DejaVuSans-Oblique-72" transform="translate(262.402344 0.015625)"/>
      <use xlink:href="#DejaVuSans-Oblique-63" transform="translate(303.515625 0.015625)"/>
      <use xlink:href="#DejaVuSans-Oblique-65" transform="translate(358.496094 0.015625)"/>
      <use xlink:href="#DejaVuSans-33" transform="translate(420.019531 -16.390625) scale(0.7)"/>
     </g>
    </g>
    <g id="line2d_24">
     <path d="M 327.78 188.284219 
L 336.78 188.284219 
L 345.78 188.284219 
" style="fill: none; stroke: #7ca753; stroke-width: 1.5; stroke-linecap: square"/>
    </g>
    <g id="text_18">
     <!-- $thrForce_{4}$ -->
     <g transform="translate(352.98 191.434219) scale(0.09 -0.09)">
      <use xlink:href="#DejaVuSans-Oblique-74" transform="translate(0 0.015625)"/>
      <use xlink:href="#DejaVuSans-Oblique-68" transform="translate(39.208984 0.015625)"/>
      <use xlink:href="#DejaVuSans-Oblique-72" transform="translate(102.587891 0.015625)"/>
      <use xlink:href="#DejaVuSans-Oblique-46" transform="translate(143.701172 0.015625)"/>
      <use xlink:href="#DejaVuSans-Oblique-6f" transform="translate(201.220703 0.015625)"/>
      <use xlink:href="#DejaVuSans-Oblique-72" transform="translate(262.402344 0.015625)"/>
      <use xlink:href="#DejaVuSans-Oblique-63" transform="translate(303.515625 0.015625)"/>
      <use xlink:href="#DejaVuSans-Oblique-65" transform="translate(358.496094 0.015625)"/>
      <use xlink:href="#DejaVuSans-34" transform="translate(420.019531 -16.390625) scale(0.7)"/>
     </g>
    </g>
    <g id="line2d_25">
     <path d="M 327.78 201.494531 
L 336.78 201.494531 
L 345.78 201.494531 
" style="fill: none; stroke: #aab35c; stroke-width: 1.5; stroke-linecap: square"/>
    </g>
    <g id="text_19">
     <!-- $thrForce_{5}$ -->
     <g transform="translate(352.98 204.644531) scale(0.09 -0.09)">
      <defs>
       <path id="DejaVuSans-35" d="M 691 4666 
L 3169 4666 
L 3169 4134 
L 1269 4134 
L 1269 2991 
Q 1406 3038 1543 3061 
Q 1681 3084 1819 3084 
Q 2600 3084 3056 2656 
Q 3513 2228 3513 1497 
Q 3513 744 3044 326 
Q 2575 -91 1722 -91 
Q 1428 -91 1123 -41 
Q 819 9 494 109 
L 494 744 
Q 775 591 1075 516 
Q 1375 441 1709 441 
Q 2250 441 2565 725 
Q 2881 1009 2881 1497 
Q 2881 1984 2565 2268 
Q 2250 2553 1709 2553 
Q 1456 2553 1204 2497 
Q 953 2441 691 2322 
L 691 4666 
z
" transform="scale(0.015625)"/>
      </defs>
      <use xlink:href="#DejaVuSans-Oblique-74" transform="translate(0 0.015625)"/>
      <use xlink:href="#DejaVuSans-Oblique-68" transform="translate(39.208984 0.015625)"/>
      <use xlink:href="#DejaVuSans-Oblique-72" transform="translate(102.587891 0.015625)"/>
      <use xlink:href="#DejaVuSans-Oblique-46" transform="translate(143.701172 0.015625)"/>
      <use xlink:href="#DejaVuSans-Oblique-6f" transform="translate(201.220703 0.015625)"/>
      <use xlink:href="#DejaVuSans-Oblique-72" transform="translate(262.402344 0.015625)"/>
      <use xlink:href="#DejaVuSans-Oblique-63" transform="translate(303.515625 0.015625)"/>
      <use xlink:href="#DejaVuSans-Oblique-65" transform="translate(358.496094 0.015625)"/>
      <use xlink:href="#DejaVuSans-35" transform="translate(420.019531 -16.390625) scale(0.7)"/>
     </g>
    </g>
    <g id="line2d_26">
     <path d="M 327.78 214.704844 
L 336.78 214.704844 
L 345.78 214.704844 
" style="fill: none; stroke: #c0a565; stroke-width: 1.5; stroke-linecap: square"/>
    </g>
    <g id="text_20">
     <!-- $thrForce_{6}$ -->
     <g transform="translate(352.98 217.854844) scale(0.09 -0.09)">
      <use xlink:href="#DejaVuSans-Oblique-74" transform="translate(0 0.015625)"/>
      <use xlink:href="#DejaVuSans-Oblique-68" transform="translate(39.208984 0.015625)"/>
      <use xlink:href="#DejaVuSans-Oblique-72" transform="translate(102.587891 0.015625)"/>
      <use xlink:href="#DejaVuSans-Oblique-46" transform="translate(143.701172 0.015625)"/>
      <use xlink:href="#DejaVuSans-Oblique-6f" transform="translate(201.220703 0.015625)"/>
      <use xlink:href="#DejaVuSans-Oblique-72" transform="translate(262.402344 0.015625)"/>
      <use xlink:href="#DejaVuSans-Oblique-63" transform="translate(303.515625 0.015625)"/>
      <use xlink:href="#DejaVuSans-Oblique-65" transform="translate(358.496094 0.015625)"/>
      <use xlink:href="#DejaVuSans-36" transform="translate(420.019531 -16.390625) scale(0.7)"/>
     </g>
    </g>
    <g id="line2d_27">
     <path d="M 327.78 227.915156 
L 336.78 227.915156 
L 345.78 227.915156 
" style="fill: none; stroke: #debba7; stroke-width: 1.5; stroke-linecap: square"/>
    </g>
    <g id="text_21">
     <!-- $thrForce_{7}$ -->
     <g transform="translate(352.98 231.065156) scale(0.09 -0.09)">
      <defs>
       <path id="DejaVuSans-37" d="M 525 4666 
L 3525 4666 
L 3525 4397 
L 1831 0 
L 1172 0 
L 2766 4134 
L 525 4134 
L 525 4666 
z
" transform="scale(0.015625)"/>
      </defs>
      <use xlink:href="#DejaVuSans-Oblique-74" transform="translate(0 0.015625)"/>
      <use xlink:href="#DejaVuSans-Oblique-68" transform="translate(39.208984 0.015625)"/>
      <use xlink:href="#DejaVuSans-Oblique-72" transform="translate(102.587891 0.015625)"/>
      <use xlink:href="#DejaVuSans-Oblique-46" transform="translate(143.701172 0.015625)"/>
      <use xlink:href="#DejaVuSans-Oblique-6f" transform="translate(201.220703 0.015625)"/>
      <use xlink:href="#DejaVuSans-Oblique-72" transform="translate(262.402344 0.015625)"/>
      <use xlink:href="#DejaVuSans-Oblique-63" transform="translate(303.515625 0.015625)"/>
      <use xlink:href="#DejaVuSans-Oblique-65" transform="translate(358.496094 0.015625)"/>
      <use xlink:href="#DejaVuSans-37" transform="translate(420.019531 -16.390625) scale(0.7)"/>
     </g>
    </g>
   </g>
  </g>
 </g>
 <defs>
  <clipPath id="p4e65ac911f">
   <rect x="56.923125" y="10.8" width="346.276875" height="230.236875"/>
  </clipPath>
 </defs>
</svg>
