<?xml version="1.0" encoding="utf-8" standalone="no"?>
<!DOCTYPE svg PUBLIC "-//W3C//DTD SVG 1.1//EN"
  "http://www.w3.org/Graphics/SVG/1.1/DTD/svg11.dtd">
<svg xmlns:xlink="http://www.w3.org/1999/xlink" width="414pt" height="288pt" viewBox="0 0 414 288" xmlns="http://www.w3.org/2000/svg" version="1.1">
 <metadata>
  <rdf:RDF xmlns:dc="http://purl.org/dc/elements/1.1/" xmlns:cc="http://creativecommons.org/ns#" xmlns:rdf="http://www.w3.org/1999/02/22-rdf-syntax-ns#">
   <cc:Work>
    <dc:type rdf:resource="http://purl.org/dc/dcmitype/StillImage"/>
    <dc:date>2026-01-13T03:11:35.916171</dc:date>
    <dc:format>image/svg+xml</dc:format>
    <dc:creator>
     <cc:Agent>
      <dc:title>Matplotlib v3.10.7, https://matplotlib.org/</dc:title>
     </cc:Agent>
    </dc:creator>
   </cc:Work>
  </rdf:RDF>
 </metadata>
 <defs>
  <style type="text/css">*{stroke-linejoin: round; stroke-linecap: butt}</style>
 </defs>
 <g id="figure_1">
  <g id="patch_1">
   <path d="M 0 288 
L 414 288 
L 414 0 
L 0 0 
L 0 288 
z
" style="fill: none"/>
  </g>
  <g id="axes_1">
   <g id="patch_2">
    <path d="M 70.330625 241.036875 
L 403.2 241.036875 
L 403.2 10.8 
L 70.330625 10.8 
L 70.330625 241.036875 
z
" style="fill: none"/>
   </g>
   <g id="matplotlib.axis_1">
    <g id="xtick_1">
     <g id="line2d_1">
      <defs>
       <path id="mb2947077fa" d="M 0 0 
L 0 3.5 
" style="stroke: #000000; stroke-width: 0.8"/>
      </defs>
      <g>
       <use xlink:href="#mb2947077fa" x="85.461051" y="241.036875" style="stroke: #000000; stroke-width: 0.8"/>
      </g>
     </g>
     <g id="text_1">
      <!-- 0 -->
      <g transform="translate(80.371051 260.194375) scale(0.16 -0.16)">
       <defs>
        <path id="DejaVuSans-30" d="M 2034 4250 
Q 1547 4250 1301 3770 
Q 1056 3291 1056 2328 
Q 1056 1369 1301 889 
Q 1547 409 2034 409 
Q 2525 409 2770 889 
Q 3016 1369 3016 2328 
Q 3016 3291 2770 3770 
Q 2525 4250 2034 4250 
z
M 2034 4750 
Q 2819 4750 3233 4129 
Q 3647 3509 3647 2328 
Q 3647 1150 3233 529 
Q 2819 -91 2034 -91 
Q 1250 -91 836 529 
Q 422 1150 422 2328 
Q 422 3509 836 4129 
Q 1250 4750 2034 4750 
z
" transform="scale(0.015625)"/>
       </defs>
       <use xlink:href="#DejaVuSans-30"/>
      </g>
     </g>
    </g>
    <g id="xtick_2">
     <g id="line2d_2">
      <g>
       <use xlink:href="#mb2947077fa" x="145.982756" y="241.036875" style="stroke: #000000; stroke-width: 0.8"/>
      </g>
     </g>
     <g id="text_2">
      <!-- 2 -->
      <g transform="translate(140.892756 260.194375) scale(0.16 -0.16)">
       <defs>
        <path id="DejaVuSans-32" d="M 1228 531 
L 3431 531 
L 3431 0 
L 469 0 
L 469 531 
Q 828 903 1448 1529 
Q 2069 2156 2228 2338 
Q 2531 2678 2651 2914 
Q 2772 3150 2772 3378 
Q 2772 3750 2511 3984 
Q 2250 4219 1831 4219 
Q 1534 4219 1204 4116 
Q 875 4013 500 3803 
L 500 4441 
Q 881 4594 1212 4672 
Q 1544 4750 1819 4750 
Q 2544 4750 2975 4387 
Q 3406 4025 3406 3419 
Q 3406 3131 3298 2873 
Q 3191 2616 2906 2266 
Q 2828 2175 2409 1742 
Q 1991 1309 1228 531 
z
" transform="scale(0.015625)"/>
       </defs>
       <use xlink:href="#DejaVuSans-32"/>
      </g>
     </g>
    </g>
    <g id="xtick_3">
     <g id="line2d_3">
      <g>
       <use xlink:href="#mb2947077fa" x="206.50446" y="241.036875" style="stroke: #000000; stroke-width: 0.8"/>
      </g>
     </g>
     <g id="text_3">
      <!-- 4 -->
      <g transform="translate(201.41446 260.194375) scale(0.16 -0.16)">
       <defs>
        <path id="DejaVuSans-34" d="M 2419 4116 
L 825 1625 
L 2419 1625 
L 2419 4116 
z
M 2253 4666 
L 3047 4666 
L 3047 1625 
L 3713 1625 
L 3713 1100 
L 3047 1100 
L 3047 0 
L 2419 0 
L 2419 1100 
L 313 1100 
L 313 1709 
L 2253 4666 
z
" transform="scale(0.015625)"/>
       </defs>
       <use xlink:href="#DejaVuSans-34"/>
      </g>
     </g>
    </g>
    <g id="xtick_4">
     <g id="line2d_4">
      <g>
       <use xlink:href="#mb2947077fa" x="267.026165" y="241.036875" style="stroke: #000000; stroke-width: 0.8"/>
      </g>
     </g>
     <g id="text_4">
      <!-- 6 -->
      <g transform="translate(261.936165 260.194375) scale(0.16 -0.16)">
       <defs>
        <path id="DejaVuSans-36" d="M 2113 2584 
Q 1688 2584 1439 2293 
Q 1191 2003 1191 1497 
Q 1191 994 1439 701 
Q 1688 409 2113 409 
Q 2538 409 2786 701 
Q 3034 994 3034 1497 
Q 3034 2003 2786 2293 
Q 2538 2584 2113 2584 
z
M 3366 4563 
L 3366 3988 
Q 3128 4100 2886 4159 
Q 2644 4219 2406 4219 
Q 1781 4219 1451 3797 
Q 1122 3375 1075 2522 
Q 1259 2794 1537 2939 
Q 1816 3084 2150 3084 
Q 2853 3084 3261 2657 
Q 3669 2231 3669 1497 
Q 3669 778 3244 343 
Q 2819 -91 2113 -91 
Q 1303 -91 875 529 
Q 447 1150 447 2328 
Q 447 3434 972 4092 
Q 1497 4750 2381 4750 
Q 2619 4750 2861 4703 
Q 3103 4656 3366 4563 
z
" transform="scale(0.015625)"/>
       </defs>
       <use xlink:href="#DejaVuSans-36"/>
      </g>
     </g>
    </g>
    <g id="xtick_5">
     <g id="line2d_5">
      <g>
       <use xlink:href="#mb2947077fa" x="327.547869" y="241.036875" style="stroke: #000000; stroke-width: 0.8"/>
      </g>
     </g>
     <g id="text_5">
      <!-- 8 -->
      <g transform="translate(322.457869 260.194375) scale(0.16 -0.16)">
       <defs>
        <path id="DejaVuSans-38" d="M 2034 2216 
Q 1584 2216 1326 1975 
Q 1069 1734 1069 1313 
Q 1069 891 1326 650 
Q 1584 409 2034 409 
Q 2484 409 2743 651 
Q 3003 894 3003 1313 
Q 3003 1734 2745 1975 
Q 2488 2216 2034 2216 
z
M 1403 2484 
Q 997 2584 770 2862 
Q 544 3141 544 3541 
Q 544 4100 942 4425 
Q 1341 4750 2034 4750 
Q 2731 4750 3128 4425 
Q 3525 4100 3525 3541 
Q 3525 3141 3298 2862 
Q 3072 2584 2669 2484 
Q 3125 2378 3379 2068 
Q 3634 1759 3634 1313 
Q 3634 634 3220 271 
Q 2806 -91 2034 -91 
Q 1263 -91 848 271 
Q 434 634 434 1313 
Q 434 1759 690 2068 
Q 947 2378 1403 2484 
z
M 1172 3481 
Q 1172 3119 1398 2916 
Q 1625 2713 2034 2713 
Q 2441 2713 2670 2916 
Q 2900 3119 2900 3481 
Q 2900 3844 2670 4047 
Q 2441 4250 2034 4250 
Q 1625 4250 1398 4047 
Q 1172 3844 1172 3481 
z
" transform="scale(0.015625)"/>
       </defs>
       <use xlink:href="#DejaVuSans-38"/>
      </g>
     </g>
    </g>
    <g id="xtick_6">
     <g id="line2d_6">
      <g>
       <use xlink:href="#mb2947077fa" x="388.069574" y="241.036875" style="stroke: #000000; stroke-width: 0.8"/>
      </g>
     </g>
     <g id="text_6">
      <!-- 10 -->
      <g transform="translate(377.889574 260.194375) scale(0.16 -0.16)">
       <defs>
        <path id="DejaVuSans-31" d="M 794 531 
L 1825 531 
L 1825 4091 
L 703 3866 
L 703 4441 
L 1819 4666 
L 2450 4666 
L 2450 531 
L 3481 531 
L 3481 0 
L 794 0 
L 794 531 
z
" transform="scale(0.015625)"/>
       </defs>
       <use xlink:href="#DejaVuSans-31"/>
       <use xlink:href="#DejaVuSans-30" transform="translate(63.623047 0)"/>
      </g>
     </g>
    </g>
    <g id="text_7">
     <!-- Time [min] -->
     <g transform="translate(209.612969 275.120313) scale(0.1 -0.1)">
      <defs>
       <path id="DejaVuSans-54" d="M -19 4666 
L 3928 4666 
L 3928 4134 
L 2272 4134 
L 2272 0 
L 1638 0 
L 1638 4134 
L -19 4134 
L -19 4666 
z
" transform="scale(0.015625)"/>
       <path id="DejaVuSans-69" d="M 603 3500 
L 1178 3500 
L 1178 0 
L 603 0 
L 603 3500 
z
M 603 4863 
L 1178 4863 
L 1178 4134 
L 603 4134 
L 603 4863 
z
" transform="scale(0.015625)"/>
       <path id="DejaVuSans-6d" d="M 3328 2828 
Q 3544 3216 3844 3400 
Q 4144 3584 4550 3584 
Q 5097 3584 5394 3201 
Q 5691 2819 5691 2113 
L 5691 0 
L 5113 0 
L 5113 2094 
Q 5113 2597 4934 2840 
Q 4756 3084 4391 3084 
Q 3944 3084 3684 2787 
Q 3425 2491 3425 1978 
L 3425 0 
L 2847 0 
L 2847 2094 
Q 2847 2600 2669 2842 
Q 2491 3084 2119 3084 
Q 1678 3084 1418 2786 
Q 1159 2488 1159 1978 
L 1159 0 
L 581 0 
L 581 3500 
L 1159 3500 
L 1159 2956 
Q 1356 3278 1631 3431 
Q 1906 3584 2284 3584 
Q 2666 3584 2933 3390 
Q 3200 3197 3328 2828 
z
" transform="scale(0.015625)"/>
       <path id="DejaVuSans-65" d="M 3597 1894 
L 3597 1613 
L 953 1613 
Q 991 1019 1311 708 
Q 1631 397 2203 397 
Q 2534 397 2845 478 
Q 3156 559 3463 722 
L 3463 178 
Q 3153 47 2828 -22 
Q 2503 -91 2169 -91 
Q 1331 -91 842 396 
Q 353 884 353 1716 
Q 353 2575 817 3079 
Q 1281 3584 2069 3584 
Q 2775 3584 3186 3129 
Q 3597 2675 3597 1894 
z
M 3022 2063 
Q 3016 2534 2758 2815 
Q 2500 3097 2075 3097 
Q 1594 3097 1305 2825 
Q 1016 2553 972 2059 
L 3022 2063 
z
" transform="scale(0.015625)"/>
       <path id="DejaVuSans-20" transform="scale(0.015625)"/>
       <path id="DejaVuSans-5b" d="M 550 4863 
L 1875 4863 
L 1875 4416 
L 1125 4416 
L 1125 -397 
L 1875 -397 
L 1875 -844 
L 550 -844 
L 550 4863 
z
" transform="scale(0.015625)"/>
       <path id="DejaVuSans-6e" d="M 3513 2113 
L 3513 0 
L 2938 0 
L 2938 2094 
Q 2938 2591 2744 2837 
Q 2550 3084 2163 3084 
Q 1697 3084 1428 2787 
Q 1159 2491 1159 1978 
L 1159 0 
L 581 0 
L 581 3500 
L 1159 3500 
L 1159 2956 
Q 1366 3272 1645 3428 
Q 1925 3584 2291 3584 
Q 2894 3584 3203 3211 
Q 3513 2838 3513 2113 
z
" transform="scale(0.015625)"/>
       <path id="DejaVuSans-5d" d="M 1947 4863 
L 1947 -844 
L 622 -844 
L 622 -397 
L 1369 -397 
L 1369 4416 
L 622 4416 
L 622 4863 
L 1947 4863 
z
" transform="scale(0.015625)"/>
      </defs>
      <use xlink:href="#DejaVuSans-54"/>
      <use xlink:href="#DejaVuSans-69" transform="translate(57.958984 0)"/>
      <use xlink:href="#DejaVuSans-6d" transform="translate(85.742188 0)"/>
      <use xlink:href="#DejaVuSans-65" transform="translate(183.154297 0)"/>
      <use xlink:href="#DejaVuSans-20" transform="translate(244.677734 0)"/>
      <use xlink:href="#DejaVuSans-5b" transform="translate(276.464844 0)"/>
      <use xlink:href="#DejaVuSans-6d" transform="translate(315.478516 0)"/>
      <use xlink:href="#DejaVuSans-69" transform="translate(412.890625 0)"/>
      <use xlink:href="#DejaVuSans-6e" transform="translate(440.673828 0)"/>
      <use xlink:href="#DejaVuSans-5d" transform="translate(504.052734 0)"/>
     </g>
    </g>
   </g>
   <g id="matplotlib.axis_2">
    <g id="ytick_1">
     <g id="line2d_7">
      <defs>
       <path id="mb195669394" d="M 0 0 
L -3.5 0 
" style="stroke: #000000; stroke-width: 0.8"/>
      </defs>
      <g>
       <use xlink:href="#mb195669394" x="70.330625" y="217.300261" style="stroke: #000000; stroke-width: 0.8"/>
      </g>
     </g>
     <g id="text_8">
      <!-- −0.6 -->
      <g transform="translate(24.478125 223.379011) scale(0.16 -0.16)">
       <defs>
        <path id="DejaVuSans-2212" d="M 678 2272 
L 4684 2272 
L 4684 1741 
L 678 1741 
L 678 2272 
z
" transform="scale(0.015625)"/>
        <path id="DejaVuSans-2e" d="M 684 794 
L 1344 794 
L 1344 0 
L 684 0 
L 684 794 
z
" transform="scale(0.015625)"/>
       </defs>
       <use xlink:href="#DejaVuSans-2212"/>
       <use xlink:href="#DejaVuSans-30" transform="translate(83.789062 0)"/>
       <use xlink:href="#DejaVuSans-2e" transform="translate(147.412109 0)"/>
       <use xlink:href="#DejaVuSans-36" transform="translate(179.199219 0)"/>
      </g>
     </g>
    </g>
    <g id="ytick_2">
     <g id="line2d_8">
      <g>
       <use xlink:href="#mb195669394" x="70.330625" y="178.093271" style="stroke: #000000; stroke-width: 0.8"/>
      </g>
     </g>
     <g id="text_9">
      <!-- −0.4 -->
      <g transform="translate(24.478125 184.172021) scale(0.16 -0.16)">
       <use xlink:href="#DejaVuSans-2212"/>
       <use xlink:href="#DejaVuSans-30" transform="translate(83.789062 0)"/>
       <use xlink:href="#DejaVuSans-2e" transform="translate(147.412109 0)"/>
       <use xlink:href="#DejaVuSans-34" transform="translate(179.199219 0)"/>
      </g>
     </g>
    </g>
    <g id="ytick_3">
     <g id="line2d_9">
      <g>
       <use xlink:href="#mb195669394" x="70.330625" y="138.886281" style="stroke: #000000; stroke-width: 0.8"/>
      </g>
     </g>
     <g id="text_10">
      <!-- −0.2 -->
      <g transform="translate(24.478125 144.965031) scale(0.16 -0.16)">
       <use xlink:href="#DejaVuSans-2212"/>
       <use xlink:href="#DejaVuSans-30" transform="translate(83.789062 0)"/>
       <use xlink:href="#DejaVuSans-2e" transform="translate(147.412109 0)"/>
       <use xlink:href="#DejaVuSans-32" transform="translate(179.199219 0)"/>
      </g>
     </g>
    </g>
    <g id="ytick_4">
     <g id="line2d_10">
      <g>
       <use xlink:href="#mb195669394" x="70.330625" y="99.679292" style="stroke: #000000; stroke-width: 0.8"/>
      </g>
     </g>
     <g id="text_11">
      <!-- 0.0 -->
      <g transform="translate(37.885625 105.758042) scale(0.16 -0.16)">
       <use xlink:href="#DejaVuSans-30"/>
       <use xlink:href="#DejaVuSans-2e" transform="translate(63.623047 0)"/>
       <use xlink:href="#DejaVuSans-30" transform="translate(95.410156 0)"/>
      </g>
     </g>
    </g>
    <g id="ytick_5">
     <g id="line2d_11">
      <g>
       <use xlink:href="#mb195669394" x="70.330625" y="60.472302" style="stroke: #000000; stroke-width: 0.8"/>
      </g>
     </g>
     <g id="text_12">
      <!-- 0.2 -->
      <g transform="translate(37.885625 66.551052) scale(0.16 -0.16)">
       <use xlink:href="#DejaVuSans-30"/>
       <use xlink:href="#DejaVuSans-2e" transform="translate(63.623047 0)"/>
       <use xlink:href="#DejaVuSans-32" transform="translate(95.410156 0)"/>
      </g>
     </g>
    </g>
    <g id="ytick_6">
     <g id="line2d_12">
      <g>
       <use xlink:href="#mb195669394" x="70.330625" y="21.265313" style="stroke: #000000; stroke-width: 0.8"/>
      </g>
     </g>
     <g id="text_13">
      <!-- 0.4 -->
      <g transform="translate(37.885625 27.344063) scale(0.16 -0.16)">
       <use xlink:href="#DejaVuSans-30"/>
       <use xlink:href="#DejaVuSans-2e" transform="translate(63.623047 0)"/>
       <use xlink:href="#DejaVuSans-34" transform="translate(95.410156 0)"/>
      </g>
     </g>
    </g>
    <g id="text_14">
     <!-- RW Motor Torque (Nm) -->
     <g transform="translate(18.398438 182.515312) rotate(-90) scale(0.1 -0.1)">
      <defs>
       <path id="DejaVuSans-52" d="M 2841 2188 
Q 3044 2119 3236 1894 
Q 3428 1669 3622 1275 
L 4263 0 
L 3584 0 
L 2988 1197 
Q 2756 1666 2539 1819 
Q 2322 1972 1947 1972 
L 1259 1972 
L 1259 0 
L 628 0 
L 628 4666 
L 2053 4666 
Q 2853 4666 3247 4331 
Q 3641 3997 3641 3322 
Q 3641 2881 3436 2590 
Q 3231 2300 2841 2188 
z
M 1259 4147 
L 1259 2491 
L 2053 2491 
Q 2509 2491 2742 2702 
Q 2975 2913 2975 3322 
Q 2975 3731 2742 3939 
Q 2509 4147 2053 4147 
L 1259 4147 
z
" transform="scale(0.015625)"/>
       <path id="DejaVuSans-57" d="M 213 4666 
L 850 4666 
L 1831 722 
L 2809 4666 
L 3519 4666 
L 4500 722 
L 5478 4666 
L 6119 4666 
L 4947 0 
L 4153 0 
L 3169 4050 
L 2175 0 
L 1381 0 
L 213 4666 
z
" transform="scale(0.015625)"/>
       <path id="DejaVuSans-4d" d="M 628 4666 
L 1569 4666 
L 2759 1491 
L 3956 4666 
L 4897 4666 
L 4897 0 
L 4281 0 
L 4281 4097 
L 3078 897 
L 2444 897 
L 1241 4097 
L 1241 0 
L 628 0 
L 628 4666 
z
" transform="scale(0.015625)"/>
       <path id="DejaVuSans-6f" d="M 1959 3097 
Q 1497 3097 1228 2736 
Q 959 2375 959 1747 
Q 959 1119 1226 758 
Q 1494 397 1959 397 
Q 2419 397 2687 759 
Q 2956 1122 2956 1747 
Q 2956 2369 2687 2733 
Q 2419 3097 1959 3097 
z
M 1959 3584 
Q 2709 3584 3137 3096 
Q 3566 2609 3566 1747 
Q 3566 888 3137 398 
Q 2709 -91 1959 -91 
Q 1206 -91 779 398 
Q 353 888 353 1747 
Q 353 2609 779 3096 
Q 1206 3584 1959 3584 
z
" transform="scale(0.015625)"/>
       <path id="DejaVuSans-74" d="M 1172 4494 
L 1172 3500 
L 2356 3500 
L 2356 3053 
L 1172 3053 
L 1172 1153 
Q 1172 725 1289 603 
Q 1406 481 1766 481 
L 2356 481 
L 2356 0 
L 1766 0 
Q 1100 0 847 248 
Q 594 497 594 1153 
L 594 3053 
L 172 3053 
L 172 3500 
L 594 3500 
L 594 4494 
L 1172 4494 
z
" transform="scale(0.015625)"/>
       <path id="DejaVuSans-72" d="M 2631 2963 
Q 2534 3019 2420 3045 
Q 2306 3072 2169 3072 
Q 1681 3072 1420 2755 
Q 1159 2438 1159 1844 
L 1159 0 
L 581 0 
L 581 3500 
L 1159 3500 
L 1159 2956 
Q 1341 3275 1631 3429 
Q 1922 3584 2338 3584 
Q 2397 3584 2469 3576 
Q 2541 3569 2628 3553 
L 2631 2963 
z
" transform="scale(0.015625)"/>
       <path id="DejaVuSans-71" d="M 947 1747 
Q 947 1113 1208 752 
Q 1469 391 1925 391 
Q 2381 391 2643 752 
Q 2906 1113 2906 1747 
Q 2906 2381 2643 2742 
Q 2381 3103 1925 3103 
Q 1469 3103 1208 2742 
Q 947 2381 947 1747 
z
M 2906 525 
Q 2725 213 2448 61 
Q 2172 -91 1784 -91 
Q 1150 -91 751 415 
Q 353 922 353 1747 
Q 353 2572 751 3078 
Q 1150 3584 1784 3584 
Q 2172 3584 2448 3432 
Q 2725 3281 2906 2969 
L 2906 3500 
L 3481 3500 
L 3481 -1331 
L 2906 -1331 
L 2906 525 
z
" transform="scale(0.015625)"/>
       <path id="DejaVuSans-75" d="M 544 1381 
L 544 3500 
L 1119 3500 
L 1119 1403 
Q 1119 906 1312 657 
Q 1506 409 1894 409 
Q 2359 409 2629 706 
Q 2900 1003 2900 1516 
L 2900 3500 
L 3475 3500 
L 3475 0 
L 2900 0 
L 2900 538 
Q 2691 219 2414 64 
Q 2138 -91 1772 -91 
Q 1169 -91 856 284 
Q 544 659 544 1381 
z
M 1991 3584 
L 1991 3584 
z
" transform="scale(0.015625)"/>
       <path id="DejaVuSans-28" d="M 1984 4856 
Q 1566 4138 1362 3434 
Q 1159 2731 1159 2009 
Q 1159 1288 1364 580 
Q 1569 -128 1984 -844 
L 1484 -844 
Q 1016 -109 783 600 
Q 550 1309 550 2009 
Q 550 2706 781 3412 
Q 1013 4119 1484 4856 
L 1984 4856 
z
" transform="scale(0.015625)"/>
       <path id="DejaVuSans-4e" d="M 628 4666 
L 1478 4666 
L 3547 763 
L 3547 4666 
L 4159 4666 
L 4159 0 
L 3309 0 
L 1241 3903 
L 1241 0 
L 628 0 
L 628 4666 
z
" transform="scale(0.015625)"/>
       <path id="DejaVuSans-29" d="M 513 4856 
L 1013 4856 
Q 1481 4119 1714 3412 
Q 1947 2706 1947 2009 
Q 1947 1309 1714 600 
Q 1481 -109 1013 -844 
L 513 -844 
Q 928 -128 1133 580 
Q 1338 1288 1338 2009 
Q 1338 2731 1133 3434 
Q 928 4138 513 4856 
z
" transform="scale(0.015625)"/>
      </defs>
      <use xlink:href="#DejaVuSans-52"/>
      <use xlink:href="#DejaVuSans-57" transform="translate(65.482422 0)"/>
      <use xlink:href="#DejaVuSans-20" transform="translate(164.359375 0)"/>
      <use xlink:href="#DejaVuSans-4d" transform="translate(196.146484 0)"/>
      <use xlink:href="#DejaVuSans-6f" transform="translate(282.425781 0)"/>
      <use xlink:href="#DejaVuSans-74" transform="translate(343.607422 0)"/>
      <use xlink:href="#DejaVuSans-6f" transform="translate(382.816406 0)"/>
      <use xlink:href="#DejaVuSans-72" transform="translate(443.998047 0)"/>
      <use xlink:href="#DejaVuSans-20" transform="translate(485.111328 0)"/>
      <use xlink:href="#DejaVuSans-54" transform="translate(516.898438 0)"/>
      <use xlink:href="#DejaVuSans-6f" transform="translate(560.982422 0)"/>
      <use xlink:href="#DejaVuSans-72" transform="translate(622.164062 0)"/>
      <use xlink:href="#DejaVuSans-71" transform="translate(661.527344 0)"/>
      <use xlink:href="#DejaVuSans-75" transform="translate(725.003906 0)"/>
      <use xlink:href="#DejaVuSans-65" transform="translate(788.382812 0)"/>
      <use xlink:href="#DejaVuSans-20" transform="translate(849.90625 0)"/>
      <use xlink:href="#DejaVuSans-28" transform="translate(881.693359 0)"/>
      <use xlink:href="#DejaVuSans-4e" transform="translate(920.707031 0)"/>
      <use xlink:href="#DejaVuSans-6d" transform="translate(995.511719 0)"/>
      <use xlink:href="#DejaVuSans-29" transform="translate(1092.923828 0)"/>
     </g>
    </g>
   </g>
   <g id="line2d_13">
    <path d="M 85.461051 25.186011 
L 86.116703 25.619081 
L 87.327137 26.864052 
L 88.537571 28.371309 
L 90.353222 31.095326 
L 92.168873 34.348297 
L 93.984525 38.122986 
L 95.800176 42.416888 
L 97.615827 47.241926 
L 99.431478 52.617707 
L 101.852346 60.632989 
L 104.878431 70.75163 
L 107.2993 77.938659 
L 109.114951 82.649822 
L 110.981037 86.791399 
L 112.191471 89.065058 
L 113.401905 90.996567 
L 114.612339 92.587195 
L 115.822773 93.853992 
L 117.033207 94.819011 
L 118.243641 95.508049 
L 119.454075 95.949805 
L 120.664509 96.175035 
L 121.874943 96.215739 
L 123.690595 96.001815 
L 125.506246 95.553768 
L 129.742765 94.156302 
L 132.163633 93.458232 
L 133.979284 93.103488 
L 135.794935 92.946155 
L 137.661021 93.025008 
L 139.476672 93.357186 
L 141.292324 93.95136 
L 143.107975 94.807952 
L 144.923626 95.919412 
L 146.739277 97.271705 
L 149.160145 99.415807 
L 151.581013 101.898564 
L 154.607099 105.383392 
L 158.238401 109.957583 
L 168.577525 123.309353 
L 170.998394 125.832315 
L 172.814045 127.405078 
L 174.629696 128.666745 
L 176.445347 129.597156 
L 178.260998 130.188133 
L 180.076649 130.44247 
L 181.8923 130.372499 
L 183.707952 129.998384 
L 185.523603 129.346321 
L 187.389689 128.418547 
L 189.20534 127.299028 
L 191.626208 125.533175 
L 194.652293 122.998825 
L 198.888812 119.096666 
L 207.361851 111.19798 
L 210.993153 108.105324 
L 214.67489 105.260816 
L 218.306193 102.776233 
L 221.332278 100.958211 
L 224.358363 99.368482 
L 227.384448 98.000476 
L 230.410534 96.844206 
L 234.041836 95.71894 
L 237.723573 94.847392 
L 241.354875 94.22853 
L 244.986177 93.823665 
L 249.222697 93.58873 
L 253.459216 93.572798 
L 258.300952 93.775059 
L 263.798341 94.225668 
L 271.060945 95.064747 
L 284.980937 96.975128 
L 295.925279 98.369535 
L 304.398317 99.239755 
L 312.921791 99.89024 
L 321.394829 100.314905 
L 330.473085 100.552732 
L 341.417427 100.605819 
L 355.942636 100.427577 
L 388.069574 99.807666 
L 388.069574 99.807666 
" clip-path="url(#pa5007bcd9b)" style="fill: none; stroke-dasharray: 5.55,2.4; stroke-dashoffset: 0; stroke: #1f77b4; stroke-width: 1.5"/>
   </g>
   <g id="line2d_14">
    <path d="M 85.461051 99.679292 
L 86.116703 60.472302 
L 101.852346 60.472302 
L 104.273214 68.488657 
L 106.694082 75.941796 
L 108.509734 80.893452 
L 110.325385 85.202723 
L 112.191471 88.888496 
L 113.401905 90.848814 
L 114.612339 92.467285 
L 115.822773 93.760284 
L 117.033207 94.749511 
L 118.243641 95.460486 
L 119.454075 95.921697 
L 120.664509 96.16376 
L 121.874943 96.218603 
L 123.690595 96.020821 
L 125.506246 95.583024 
L 129.137548 94.390099 
L 132.163633 93.482862 
L 133.979284 93.118385 
L 135.794935 92.949095 
L 137.661021 93.014087 
L 139.476672 93.331904 
L 141.292324 93.911432 
L 143.107975 94.753575 
L 144.923626 95.851191 
L 146.739277 97.190565 
L 149.160145 99.319296 
L 151.581013 101.789149 
L 154.607099 105.261605 
L 158.238401 109.826494 
L 168.577525 123.19501 
L 170.998394 125.736413 
L 172.814045 127.325619 
L 174.629696 128.605212 
L 176.445347 129.554347 
L 178.260998 130.164204 
L 180.076649 130.437001 
L 181.8923 130.384581 
L 183.707952 130.026724 
L 185.523603 129.389336 
L 187.389689 128.474794 
L 189.20534 127.366246 
L 191.626208 125.612067 
L 194.652293 123.087742 
L 198.888812 119.192071 
L 207.361851 111.287426 
L 210.993153 108.187601 
L 214.67489 105.334482 
L 218.306193 102.8408 
L 221.332278 101.01511 
L 224.358363 99.417853 
L 227.384448 98.042602 
L 230.410534 96.879462 
L 234.041836 95.746522 
L 237.723573 94.867879 
L 241.354875 94.242716 
L 244.986177 93.832243 
L 249.222697 93.591628 
L 253.459216 93.57092 
L 258.300952 93.768785 
L 263.798341 94.215694 
L 271.060945 95.051793 
L 284.37572 96.878108 
L 295.925279 98.357925 
L 304.398317 99.230679 
L 312.921791 99.883882 
L 321.394829 100.31107 
L 330.473085 100.551169 
L 341.417427 100.606245 
L 355.942636 100.429397 
L 388.069574 99.809227 
L 388.069574 99.809227 
" clip-path="url(#pa5007bcd9b)" style="fill: none; stroke: #ff7f0e; stroke-width: 1.5; stroke-linecap: square"/>
   </g>
   <g id="line2d_15">
    <path d="M 85.461051 21.265313 
L 87.932354 46.55861 
L 91.563656 84.227889 
L 93.379307 100.468975 
L 95.194959 114.773373 
L 97.01061 127.23042 
L 98.826261 137.947111 
L 102.457563 156.767722 
L 106.088865 174.346062 
L 109.114951 187.782735 
L 111.586254 197.709009 
L 113.401905 204.282513 
L 115.217556 210.174303 
L 117.033207 215.349823 
L 118.848858 219.783068 
L 120.664509 223.456272 
L 121.874943 225.478237 
L 123.085377 227.158275 
L 124.295812 228.498078 
L 125.506246 229.501082 
L 126.71668 230.172322 
L 127.927114 230.518245 
L 129.137548 230.546502 
L 130.347982 230.265724 
L 131.558416 229.685297 
L 132.76885 228.815131 
L 133.979284 227.665449 
L 135.189718 226.246581 
L 136.450587 224.49341 
L 138.266238 221.497984 
L 140.081889 217.975472 
L 141.897541 213.955275 
L 143.713192 209.463524 
L 146.13406 202.779366 
L 148.554928 195.339416 
L 150.975796 187.174851 
L 153.396664 178.305847 
L 156.42275 166.24393 
L 159.448835 153.099103 
L 162.525355 138.610947 
L 164.946223 127.456216 
L 166.761874 120.026952 
L 168.577525 113.384597 
L 170.393177 107.502235 
L 172.208828 102.344697 
L 174.024479 97.871056 
L 175.84013 94.036631 
L 177.655781 90.794557 
L 179.471432 88.097016 
L 181.287083 85.896173 
L 183.102734 84.144908 
L 184.918386 82.797378 
L 186.784471 81.786731 
L 188.600123 81.12457 
L 190.415774 80.739091 
L 192.231425 80.593095 
L 194.047076 80.65202 
L 196.467944 80.99471 
L 198.888812 81.577549 
L 201.914898 82.554387 
L 205.5462 83.964834 
L 212.859239 87.119346 
L 220.121844 90.155316 
L 225.568797 92.180894 
L 230.410534 93.759148 
L 235.25227 95.12608 
L 240.749658 96.437178 
L 246.196611 97.509058 
L 252.248782 98.470496 
L 258.906169 99.293686 
L 266.219209 99.966613 
L 274.08703 100.47204 
L 283.165286 100.82718 
L 292.899193 100.986195 
L 304.398317 100.940689 
L 318.973961 100.639606 
L 361.994806 99.604787 
L 380.806969 99.466676 
L 388.069574 99.46214 
L 388.069574 99.46214 
" clip-path="url(#pa5007bcd9b)" style="fill: none; stroke-dasharray: 5.55,2.4; stroke-dashoffset: 0; stroke: #2ca02c; stroke-width: 1.5"/>
   </g>
   <g id="line2d_16">
    <path d="M 85.461051 99.679292 
L 86.116703 60.472302 
L 89.142788 60.472302 
L 89.748005 64.935112 
L 91.563656 83.267782 
L 93.379307 99.618066 
L 95.194959 114.028142 
L 97.01061 126.585001 
L 98.826261 137.39559 
L 99.431478 138.886281 
L 162.525355 138.886281 
L 166.156657 122.821459 
L 167.972308 115.875734 
L 169.787959 109.701605 
L 171.603611 104.266787 
L 173.419262 99.532328 
L 175.234913 95.454798 
L 177.050564 91.988019 
L 178.866215 89.084416 
L 180.681866 86.696065 
L 182.497517 84.775492 
L 184.313169 83.276301 
L 186.12882 82.153648 
L 187.994906 81.347069 
L 189.810557 80.858554 
L 191.626208 80.62368 
L 193.441859 80.606847 
L 195.25751 80.77515 
L 197.678378 81.235807 
L 200.704464 82.103005 
L 204.335766 83.433641 
L 209.782719 85.731446 
L 219.516627 89.874769 
L 224.96358 91.932916 
L 229.805316 93.542301 
L 234.647053 94.939539 
L 240.144441 96.282287 
L 245.591394 97.381838 
L 251.643565 98.369558 
L 258.300952 99.21667 
L 265.613992 99.910868 
L 273.481813 100.434773 
L 282.560069 100.807264 
L 292.293976 100.981397 
L 303.187883 100.956391 
L 317.15831 100.689216 
L 365.676543 99.561894 
L 385.043489 99.461477 
L 388.069574 99.462063 
L 388.069574 99.462063 
" clip-path="url(#pa5007bcd9b)" style="fill: none; stroke: #d62728; stroke-width: 1.5; stroke-linecap: square"/>
   </g>
   <g id="line2d_17">
    <path d="M 85.461051 129.084534 
L 87.327137 107.152634 
L 88.537571 95.063243 
L 89.748005 84.647244 
L 90.958439 75.816669 
L 92.168873 68.466217 
L 93.379307 62.485729 
L 94.589742 57.68108 
L 95.800176 53.561406 
L 97.01061 50.05697 
L 98.221044 47.160866 
L 99.431478 44.867023 
L 100.641912 43.176061 
L 101.852346 42.099765 
L 102.457563 41.796481 
L 103.06278 41.65118 
L 103.667997 41.664305 
L 104.273214 41.836146 
L 104.878431 42.166831 
L 105.483648 42.656324 
L 106.694082 44.110736 
L 107.904517 46.195646 
L 109.114951 48.90451 
L 110.325385 52.227998 
L 111.586254 56.330511 
L 113.401905 63.273729 
L 117.033207 77.287914 
L 119.454075 85.824715 
L 121.269726 91.607642 
L 123.085377 96.772252 
L 124.901029 101.269169 
L 126.71668 105.073474 
L 128.532331 108.181948 
L 129.742765 109.874643 
L 130.953199 111.273149 
L 132.163633 112.388627 
L 133.374067 113.234465 
L 134.584501 113.825879 
L 135.794935 114.179539 
L 137.055804 114.314284 
L 138.266238 114.238541 
L 139.476672 113.981181 
L 141.292324 113.296669 
L 143.107975 112.311273 
L 144.923626 111.087755 
L 147.344494 109.188792 
L 151.581013 105.486425 
L 156.42275 101.292771 
L 159.448835 98.969531 
L 161.920138 97.340501 
L 164.341006 96.034742 
L 166.156657 95.304507 
L 167.972308 94.824434 
L 169.787959 94.599342 
L 171.603611 94.612817 
L 173.419262 94.832454 
L 175.84013 95.370618 
L 179.471432 96.466258 
L 183.707952 97.7364 
L 186.784471 98.405992 
L 189.20534 98.705216 
L 191.626208 98.782468 
L 194.047076 98.641397 
L 196.467944 98.30283 
L 199.494029 97.653065 
L 203.730549 96.466092 
L 212.859239 93.788129 
L 216.490541 92.982188 
L 220.121844 92.423951 
L 223.147929 92.165112 
L 226.779231 92.100707 
L 230.410534 92.284903 
L 234.041836 92.683137 
L 238.32879 93.370267 
L 244.38096 94.601783 
L 261.932255 98.374026 
L 268.03486 99.392296 
L 274.08703 100.174984 
L 280.139201 100.732224 
L 286.796588 101.108277 
L 294.109628 101.281892 
L 302.582666 101.246968 
L 313.527008 100.967269 
L 357.15307 99.626801 
L 374.149582 99.455688 
L 388.069574 99.442853 
L 388.069574 99.442853 
" clip-path="url(#pa5007bcd9b)" style="fill: none; stroke-dasharray: 5.55,2.4; stroke-dashoffset: 0; stroke: #9467bd; stroke-width: 1.5"/>
   </g>
   <g id="line2d_18">
    <path d="M 85.461051 99.679292 
L 86.116703 122.222854 
L 87.327137 108.237978 
L 88.537571 96.005714 
L 89.748005 85.453305 
L 90.958439 76.494519 
L 92.168873 69.024894 
L 93.379307 62.9345 
L 93.984525 60.472302 
L 112.796688 60.472302 
L 117.033207 76.914869 
L 119.454075 85.486709 
L 121.269726 91.302011 
L 123.085377 96.502504 
L 124.901029 101.037384 
L 126.71668 104.880438 
L 128.532331 108.027323 
L 129.742765 109.744958 
L 130.953199 111.167586 
L 132.163633 112.306167 
L 133.374067 113.173916 
L 134.584501 113.785913 
L 135.794935 114.158721 
L 137.055804 114.311799 
L 138.266238 114.252055 
L 139.476672 114.009096 
L 141.292324 113.343181 
L 143.107975 112.372832 
L 144.923626 111.160942 
L 147.344494 109.272503 
L 150.975796 106.116945 
L 156.42275 101.375345 
L 159.448835 99.041581 
L 161.920138 97.401575 
L 164.341006 96.082162 
L 166.156657 95.338672 
L 167.972308 94.844355 
L 169.787959 94.605356 
L 171.603611 94.606303 
L 173.419262 94.815542 
L 175.84013 95.343906 
L 179.471432 96.434052 
L 184.313169 97.865426 
L 186.784471 98.388888 
L 189.20534 98.697134 
L 191.626208 98.783698 
L 194.047076 98.651411 
L 196.467944 98.32048 
L 199.494029 97.678039 
L 203.730549 96.496573 
L 212.859239 93.813611 
L 216.490541 93.001405 
L 220.121844 92.435847 
L 223.147929 92.170689 
L 226.779231 92.099007 
L 230.410534 92.276713 
L 234.041836 92.669552 
L 238.32879 93.351926 
L 243.775743 94.447941 
L 263.193123 98.584453 
L 269.245294 99.553024 
L 275.297464 100.293645 
L 281.349635 100.811252 
L 288.057457 101.151141 
L 295.320062 101.289948 
L 303.7931 101.228224 
L 315.342659 100.909497 
L 353.521768 99.694079 
L 370.51828 99.476117 
L 388.069574 99.442661 
L 388.069574 99.442661 
" clip-path="url(#pa5007bcd9b)" style="fill: none; stroke: #8c564b; stroke-width: 1.5; stroke-linecap: square"/>
   </g>
   <g id="line2d_19">
    <path d="M 85.461051 25.186011 
L 86.116703 25.619081 
L 87.327137 26.864052 
L 88.537571 28.371309 
L 90.353222 31.095326 
L 92.168873 34.348297 
L 93.984525 38.122986 
L 95.800176 42.416888 
L 97.615827 47.241926 
L 99.431478 52.617707 
L 101.852346 60.632989 
L 104.878431 70.75163 
L 107.2993 77.938659 
L 109.114951 82.649822 
L 110.981037 86.791399 
L 112.191471 89.065058 
L 113.401905 90.996567 
L 114.612339 92.587195 
L 115.822773 93.853992 
L 117.033207 94.819011 
L 118.243641 95.508049 
L 119.454075 95.949805 
L 120.664509 96.175035 
L 121.874943 96.215739 
L 123.690595 96.001815 
L 125.506246 95.553768 
L 129.742765 94.156302 
L 132.163633 93.458232 
L 133.979284 93.103488 
L 135.794935 92.946155 
L 137.661021 93.025008 
L 139.476672 93.357186 
L 141.292324 93.95136 
L 143.107975 94.807952 
L 144.923626 95.919412 
L 146.739277 97.271705 
L 149.160145 99.415807 
L 151.581013 101.898564 
L 154.607099 105.383392 
L 158.238401 109.957583 
L 168.577525 123.309353 
L 170.998394 125.832315 
L 172.814045 127.405078 
L 174.629696 128.666745 
L 176.445347 129.597156 
L 178.260998 130.188133 
L 180.076649 130.44247 
L 181.8923 130.372499 
L 183.707952 129.998384 
L 185.523603 129.346321 
L 187.389689 128.418547 
L 189.20534 127.299028 
L 191.626208 125.533175 
L 194.652293 122.998825 
L 198.888812 119.096666 
L 207.361851 111.19798 
L 210.993153 108.105324 
L 214.67489 105.260816 
L 218.306193 102.776233 
L 221.332278 100.958211 
L 224.358363 99.368482 
L 227.384448 98.000476 
L 230.410534 96.844206 
L 234.041836 95.71894 
L 237.723573 94.847392 
L 241.354875 94.22853 
L 244.986177 93.823665 
L 249.222697 93.58873 
L 253.459216 93.572798 
L 258.300952 93.775059 
L 263.798341 94.225668 
L 271.060945 95.064747 
L 284.980937 96.975128 
L 295.925279 98.369535 
L 304.398317 99.239755 
L 312.921791 99.89024 
L 321.394829 100.314905 
L 330.473085 100.552732 
L 341.417427 100.605819 
L 355.942636 100.427577 
L 388.069574 99.807666 
L 388.069574 99.807666 
" clip-path="url(#pa5007bcd9b)" style="fill: none; stroke-dasharray: 5.55,2.4; stroke-dashoffset: 0; stroke: #e377c2; stroke-width: 1.5"/>
   </g>
   <g id="line2d_20">
    <path d="M 85.461051 99.679292 
L 86.116703 60.472302 
L 101.852346 60.472302 
L 104.273214 68.488657 
L 106.694082 75.941796 
L 108.509734 80.893452 
L 110.325385 85.202723 
L 112.191471 88.888496 
L 113.401905 90.848814 
L 114.612339 92.467285 
L 115.822773 93.760284 
L 117.033207 94.749511 
L 118.243641 95.460486 
L 119.454075 95.921697 
L 120.664509 96.16376 
L 121.874943 96.218603 
L 123.690595 96.020821 
L 125.506246 95.583024 
L 129.137548 94.390099 
L 132.163633 93.482862 
L 133.979284 93.118385 
L 135.794935 92.949095 
L 137.661021 93.014087 
L 139.476672 93.331904 
L 141.292324 93.911432 
L 143.107975 94.753575 
L 144.923626 95.851191 
L 146.739277 97.190565 
L 149.160145 99.319296 
L 151.581013 101.789149 
L 154.607099 105.261605 
L 158.238401 109.826494 
L 168.577525 123.19501 
L 170.998394 125.736413 
L 172.814045 127.325619 
L 174.629696 128.605212 
L 176.445347 129.554347 
L 178.260998 130.164204 
L 180.076649 130.437001 
L 181.8923 130.384581 
L 183.707952 130.026724 
L 185.523603 129.389336 
L 187.389689 128.474794 
L 189.20534 127.366246 
L 191.626208 125.612067 
L 194.652293 123.087742 
L 198.888812 119.192071 
L 207.361851 111.287426 
L 210.993153 108.187601 
L 214.67489 105.334482 
L 218.306193 102.8408 
L 221.332278 101.01511 
L 224.358363 99.417853 
L 227.384448 98.042602 
L 230.410534 96.879462 
L 234.041836 95.746522 
L 237.723573 94.867879 
L 241.354875 94.242716 
L 244.986177 93.832243 
L 249.222697 93.591628 
L 253.459216 93.57092 
L 258.300952 93.768785 
L 263.798341 94.215694 
L 271.060945 95.051793 
L 284.37572 96.878108 
L 295.925279 98.357925 
L 304.398317 99.230679 
L 312.921791 99.883882 
L 321.394829 100.31107 
L 330.473085 100.551169 
L 341.417427 100.606245 
L 355.942636 100.429397 
L 388.069574 99.809227 
L 388.069574 99.809227 
" clip-path="url(#pa5007bcd9b)" style="fill: none; stroke: #7f7f7f; stroke-width: 1.5; stroke-linecap: square"/>
   </g>
   <g id="line2d_21">
    <path d="M 85.461051 21.265313 
L 87.932354 46.55861 
L 91.563656 84.227889 
L 93.379307 100.468975 
L 95.194959 114.773373 
L 97.01061 127.23042 
L 98.826261 137.947111 
L 102.457563 156.767722 
L 106.088865 174.346062 
L 109.114951 187.782735 
L 111.586254 197.709009 
L 113.401905 204.282513 
L 115.217556 210.174303 
L 117.033207 215.349823 
L 118.848858 219.783068 
L 120.664509 223.456272 
L 121.874943 225.478237 
L 123.085377 227.158275 
L 124.295812 228.498078 
L 125.506246 229.501082 
L 126.71668 230.172322 
L 127.927114 230.518245 
L 129.137548 230.546502 
L 130.347982 230.265724 
L 131.558416 229.685297 
L 132.76885 228.815131 
L 133.979284 227.665449 
L 135.189718 226.246581 
L 136.450587 224.49341 
L 138.266238 221.497984 
L 140.081889 217.975472 
L 141.897541 213.955275 
L 143.713192 209.463524 
L 146.13406 202.779366 
L 148.554928 195.339416 
L 150.975796 187.174851 
L 153.396664 178.305847 
L 156.42275 166.24393 
L 159.448835 153.099103 
L 162.525355 138.610947 
L 164.946223 127.456216 
L 166.761874 120.026952 
L 168.577525 113.384597 
L 170.393177 107.502235 
L 172.208828 102.344697 
L 174.024479 97.871056 
L 175.84013 94.036631 
L 177.655781 90.794557 
L 179.471432 88.097016 
L 181.287083 85.896173 
L 183.102734 84.144908 
L 184.918386 82.797378 
L 186.784471 81.786731 
L 188.600123 81.12457 
L 190.415774 80.739091 
L 192.231425 80.593095 
L 194.047076 80.65202 
L 196.467944 80.99471 
L 198.888812 81.577549 
L 201.914898 82.554387 
L 205.5462 83.964834 
L 212.859239 87.119346 
L 220.121844 90.155316 
L 225.568797 92.180894 
L 230.410534 93.759148 
L 235.25227 95.12608 
L 240.749658 96.437178 
L 246.196611 97.509058 
L 252.248782 98.470496 
L 258.906169 99.293686 
L 266.219209 99.966613 
L 274.08703 100.47204 
L 283.165286 100.82718 
L 292.899193 100.986195 
L 304.398317 100.940689 
L 318.973961 100.639606 
L 361.994806 99.604787 
L 380.806969 99.466676 
L 388.069574 99.46214 
L 388.069574 99.46214 
" clip-path="url(#pa5007bcd9b)" style="fill: none; stroke-dasharray: 5.55,2.4; stroke-dashoffset: 0; stroke: #bcbd22; stroke-width: 1.5"/>
   </g>
   <g id="line2d_22">
    <path d="M 85.461051 99.679292 
L 86.116703 60.472302 
L 89.142788 60.472302 
L 89.748005 64.935112 
L 91.563656 83.267782 
L 93.379307 99.618066 
L 95.194959 114.028142 
L 97.01061 126.585001 
L 98.826261 137.39559 
L 99.431478 138.886281 
L 162.525355 138.886281 
L 166.156657 122.821459 
L 167.972308 115.875734 
L 169.787959 109.701605 
L 171.603611 104.266787 
L 173.419262 99.532328 
L 175.234913 95.454798 
L 177.050564 91.988019 
L 178.866215 89.084416 
L 180.681866 86.696065 
L 182.497517 84.775492 
L 184.313169 83.276301 
L 186.12882 82.153648 
L 187.994906 81.347069 
L 189.810557 80.858554 
L 191.626208 80.62368 
L 193.441859 80.606847 
L 195.25751 80.77515 
L 197.678378 81.235807 
L 200.704464 82.103005 
L 204.335766 83.433641 
L 209.782719 85.731446 
L 219.516627 89.874769 
L 224.96358 91.932916 
L 229.805316 93.542301 
L 234.647053 94.939539 
L 240.144441 96.282287 
L 245.591394 97.381838 
L 251.643565 98.369558 
L 258.300952 99.21667 
L 265.613992 99.910868 
L 273.481813 100.434773 
L 282.560069 100.807264 
L 292.293976 100.981397 
L 303.187883 100.956391 
L 317.15831 100.689216 
L 365.676543 99.561894 
L 385.043489 99.461477 
L 388.069574 99.462063 
L 388.069574 99.462063 
" clip-path="url(#pa5007bcd9b)" style="fill: none; stroke: #17becf; stroke-width: 1.5; stroke-linecap: square"/>
   </g>
   <g id="line2d_23">
    <path d="M 85.461051 129.084534 
L 87.327137 107.152634 
L 88.537571 95.063243 
L 89.748005 84.647244 
L 90.958439 75.816669 
L 92.168873 68.466217 
L 93.379307 62.485729 
L 94.589742 57.68108 
L 95.800176 53.561406 
L 97.01061 50.05697 
L 98.221044 47.160866 
L 99.431478 44.867023 
L 100.641912 43.176061 
L 101.852346 42.099765 
L 102.457563 41.796481 
L 103.06278 41.65118 
L 103.667997 41.664305 
L 104.273214 41.836146 
L 104.878431 42.166831 
L 105.483648 42.656324 
L 106.694082 44.110736 
L 107.904517 46.195646 
L 109.114951 48.90451 
L 110.325385 52.227998 
L 111.586254 56.330511 
L 113.401905 63.273729 
L 117.033207 77.287914 
L 119.454075 85.824715 
L 121.269726 91.607642 
L 123.085377 96.772252 
L 124.901029 101.269169 
L 126.71668 105.073474 
L 128.532331 108.181948 
L 129.742765 109.874643 
L 130.953199 111.273149 
L 132.163633 112.388627 
L 133.374067 113.234465 
L 134.584501 113.825879 
L 135.794935 114.179539 
L 137.055804 114.314284 
L 138.266238 114.238541 
L 139.476672 113.981181 
L 141.292324 113.296669 
L 143.107975 112.311273 
L 144.923626 111.087755 
L 147.344494 109.188792 
L 151.581013 105.486425 
L 156.42275 101.292771 
L 159.448835 98.969531 
L 161.920138 97.340501 
L 164.341006 96.034742 
L 166.156657 95.304507 
L 167.972308 94.824434 
L 169.787959 94.599342 
L 171.603611 94.612817 
L 173.419262 94.832454 
L 175.84013 95.370618 
L 179.471432 96.466258 
L 183.707952 97.7364 
L 186.784471 98.405992 
L 189.20534 98.705216 
L 191.626208 98.782468 
L 194.047076 98.641397 
L 196.467944 98.30283 
L 199.494029 97.653065 
L 203.730549 96.466092 
L 212.859239 93.788129 
L 216.490541 92.982188 
L 220.121844 92.423951 
L 223.147929 92.165112 
L 226.779231 92.100707 
L 230.410534 92.284903 
L 234.041836 92.683137 
L 238.32879 93.370267 
L 244.38096 94.601783 
L 261.932255 98.374026 
L 268.03486 99.392296 
L 274.08703 100.174984 
L 280.139201 100.732224 
L 286.796588 101.108277 
L 294.109628 101.281892 
L 302.582666 101.246968 
L 313.527008 100.967269 
L 357.15307 99.626801 
L 374.149582 99.455688 
L 388.069574 99.442853 
L 388.069574 99.442853 
" clip-path="url(#pa5007bcd9b)" style="fill: none; stroke-dasharray: 5.55,2.4; stroke-dashoffset: 0; stroke: #1f77b4; stroke-width: 1.5"/>
   </g>
   <g id="line2d_24">
    <path d="M 85.461051 99.679292 
L 86.116703 122.222854 
L 87.327137 108.237978 
L 88.537571 96.005714 
L 89.748005 85.453305 
L 90.958439 76.494519 
L 92.168873 69.024894 
L 93.379307 62.9345 
L 93.984525 60.472302 
L 112.796688 60.472302 
L 117.033207 76.914869 
L 119.454075 85.486709 
L 121.269726 91.302011 
L 123.085377 96.502504 
L 124.901029 101.037384 
L 126.71668 104.880438 
L 128.532331 108.027323 
L 129.742765 109.744958 
L 130.953199 111.167586 
L 132.163633 112.306167 
L 133.374067 113.173916 
L 134.584501 113.785913 
L 135.794935 114.158721 
L 137.055804 114.311799 
L 138.266238 114.252055 
L 139.476672 114.009096 
L 141.292324 113.343181 
L 143.107975 112.372832 
L 144.923626 111.160942 
L 147.344494 109.272503 
L 150.975796 106.116945 
L 156.42275 101.375345 
L 159.448835 99.041581 
L 161.920138 97.401575 
L 164.341006 96.082162 
L 166.156657 95.338672 
L 167.972308 94.844355 
L 169.787959 94.605356 
L 171.603611 94.606303 
L 173.419262 94.815542 
L 175.84013 95.343906 
L 179.471432 96.434052 
L 184.313169 97.865426 
L 186.784471 98.388888 
L 189.20534 98.697134 
L 191.626208 98.783698 
L 194.047076 98.651411 
L 196.467944 98.32048 
L 199.494029 97.678039 
L 203.730549 96.496573 
L 212.859239 93.813611 
L 216.490541 93.001405 
L 220.121844 92.435847 
L 223.147929 92.170689 
L 226.779231 92.099007 
L 230.410534 92.276713 
L 234.041836 92.669552 
L 238.32879 93.351926 
L 243.775743 94.447941 
L 263.193123 98.584453 
L 269.245294 99.553024 
L 275.297464 100.293645 
L 281.349635 100.811252 
L 288.057457 101.151141 
L 295.320062 101.289948 
L 303.7931 101.228224 
L 315.342659 100.909497 
L 353.521768 99.694079 
L 370.51828 99.476117 
L 388.069574 99.442661 
L 388.069574 99.442661 
" clip-path="url(#pa5007bcd9b)" style="fill: none; stroke: #ff7f0e; stroke-width: 1.5; stroke-linecap: square"/>
   </g>
   <g id="line2d_25">
    <path d="M 85.461051 25.186011 
L 86.116703 25.619081 
L 87.327137 26.864052 
L 88.537571 28.371309 
L 90.353222 31.095326 
L 92.168873 34.348297 
L 93.984525 38.122986 
L 95.800176 42.416888 
L 97.615827 47.241926 
L 99.431478 52.617707 
L 101.852346 60.632989 
L 104.878431 70.75163 
L 107.2993 77.938659 
L 109.114951 82.649822 
L 110.981037 86.791399 
L 112.191471 89.065058 
L 113.401905 90.996567 
L 114.612339 92.587195 
L 115.822773 93.853992 
L 117.033207 94.819011 
L 118.243641 95.508049 
L 119.454075 95.949805 
L 120.664509 96.175035 
L 121.874943 96.215739 
L 123.690595 96.001815 
L 125.506246 95.553768 
L 129.742765 94.156302 
L 132.163633 93.458232 
L 133.979284 93.103488 
L 135.794935 92.946155 
L 137.661021 93.025008 
L 139.476672 93.357186 
L 141.292324 93.95136 
L 143.107975 94.807952 
L 144.923626 95.919412 
L 146.739277 97.271705 
L 149.160145 99.415807 
L 151.581013 101.898564 
L 154.607099 105.383392 
L 158.238401 109.957583 
L 168.577525 123.309353 
L 170.998394 125.832315 
L 172.814045 127.405078 
L 174.629696 128.666745 
L 176.445347 129.597156 
L 178.260998 130.188133 
L 180.076649 130.44247 
L 181.8923 130.372499 
L 183.707952 129.998384 
L 185.523603 129.346321 
L 187.389689 128.418547 
L 189.20534 127.299028 
L 191.626208 125.533175 
L 194.652293 122.998825 
L 198.888812 119.096666 
L 207.361851 111.19798 
L 210.993153 108.105324 
L 214.67489 105.260816 
L 218.306193 102.776233 
L 221.332278 100.958211 
L 224.358363 99.368482 
L 227.384448 98.000476 
L 230.410534 96.844206 
L 234.041836 95.71894 
L 237.723573 94.847392 
L 241.354875 94.22853 
L 244.986177 93.823665 
L 249.222697 93.58873 
L 253.459216 93.572798 
L 258.300952 93.775059 
L 263.798341 94.225668 
L 271.060945 95.064747 
L 284.980937 96.975128 
L 295.925279 98.369535 
L 304.398317 99.239755 
L 312.921791 99.89024 
L 321.394829 100.314905 
L 330.473085 100.552732 
L 341.417427 100.605819 
L 355.942636 100.427577 
L 388.069574 99.807666 
L 388.069574 99.807666 
" clip-path="url(#pa5007bcd9b)" style="fill: none; stroke-dasharray: 5.55,2.4; stroke-dashoffset: 0; stroke: #2ca02c; stroke-width: 1.5"/>
   </g>
   <g id="line2d_26">
    <path d="M 85.461051 99.679292 
L 86.116703 60.472302 
L 101.852346 60.472302 
L 104.273214 68.488657 
L 106.694082 75.941796 
L 108.509734 80.893452 
L 110.325385 85.202723 
L 112.191471 88.888496 
L 113.401905 90.848814 
L 114.612339 92.467285 
L 115.822773 93.760284 
L 117.033207 94.749511 
L 118.243641 95.460486 
L 119.454075 95.921697 
L 120.664509 96.16376 
L 121.874943 96.218603 
L 123.690595 96.020821 
L 125.506246 95.583024 
L 129.137548 94.390099 
L 132.163633 93.482862 
L 133.979284 93.118385 
L 135.794935 92.949095 
L 137.661021 93.014087 
L 139.476672 93.331904 
L 141.292324 93.911432 
L 143.107975 94.753575 
L 144.923626 95.851191 
L 146.739277 97.190565 
L 149.160145 99.319296 
L 151.581013 101.789149 
L 154.607099 105.261605 
L 158.238401 109.826494 
L 168.577525 123.19501 
L 170.998394 125.736413 
L 172.814045 127.325619 
L 174.629696 128.605212 
L 176.445347 129.554347 
L 178.260998 130.164204 
L 180.076649 130.437001 
L 181.8923 130.384581 
L 183.707952 130.026724 
L 185.523603 129.389336 
L 187.389689 128.474794 
L 189.20534 127.366246 
L 191.626208 125.612067 
L 194.652293 123.087742 
L 198.888812 119.192071 
L 207.361851 111.287426 
L 210.993153 108.187601 
L 214.67489 105.334482 
L 218.306193 102.8408 
L 221.332278 101.01511 
L 224.358363 99.417853 
L 227.384448 98.042602 
L 230.410534 96.879462 
L 234.041836 95.746522 
L 237.723573 94.867879 
L 241.354875 94.242716 
L 244.986177 93.832243 
L 249.222697 93.591628 
L 253.459216 93.57092 
L 258.300952 93.768785 
L 263.798341 94.215694 
L 271.060945 95.051793 
L 284.37572 96.878108 
L 295.925279 98.357925 
L 304.398317 99.230679 
L 312.921791 99.883882 
L 321.394829 100.31107 
L 330.473085 100.551169 
L 341.417427 100.606245 
L 355.942636 100.429397 
L 388.069574 99.809227 
L 388.069574 99.809227 
" clip-path="url(#pa5007bcd9b)" style="fill: none; stroke: #d62728; stroke-width: 1.5; stroke-linecap: square"/>
   </g>
   <g id="line2d_27">
    <path d="M 85.461051 21.265313 
L 87.932354 46.55861 
L 91.563656 84.227889 
L 93.379307 100.468975 
L 95.194959 114.773373 
L 97.01061 127.23042 
L 98.826261 137.947111 
L 102.457563 156.767722 
L 106.088865 174.346062 
L 109.114951 187.782735 
L 111.586254 197.709009 
L 113.401905 204.282513 
L 115.217556 210.174303 
L 117.033207 215.349823 
L 118.848858 219.783068 
L 120.664509 223.456272 
L 121.874943 225.478237 
L 123.085377 227.158275 
L 124.295812 228.498078 
L 125.506246 229.501082 
L 126.71668 230.172322 
L 127.927114 230.518245 
L 129.137548 230.546502 
L 130.347982 230.265724 
L 131.558416 229.685297 
L 132.76885 228.815131 
L 133.979284 227.665449 
L 135.189718 226.246581 
L 136.450587 224.49341 
L 138.266238 221.497984 
L 140.081889 217.975472 
L 141.897541 213.955275 
L 143.713192 209.463524 
L 146.13406 202.779366 
L 148.554928 195.339416 
L 150.975796 187.174851 
L 153.396664 178.305847 
L 156.42275 166.24393 
L 159.448835 153.099103 
L 162.525355 138.610947 
L 164.946223 127.456216 
L 166.761874 120.026952 
L 168.577525 113.384597 
L 170.393177 107.502235 
L 172.208828 102.344697 
L 174.024479 97.871056 
L 175.84013 94.036631 
L 177.655781 90.794557 
L 179.471432 88.097016 
L 181.287083 85.896173 
L 183.102734 84.144908 
L 184.918386 82.797378 
L 186.784471 81.786731 
L 188.600123 81.12457 
L 190.415774 80.739091 
L 192.231425 80.593095 
L 194.047076 80.65202 
L 196.467944 80.99471 
L 198.888812 81.577549 
L 201.914898 82.554387 
L 205.5462 83.964834 
L 212.859239 87.119346 
L 220.121844 90.155316 
L 225.568797 92.180894 
L 230.410534 93.759148 
L 235.25227 95.12608 
L 240.749658 96.437178 
L 246.196611 97.509058 
L 252.248782 98.470496 
L 258.906169 99.293686 
L 266.219209 99.966613 
L 274.08703 100.47204 
L 283.165286 100.82718 
L 292.899193 100.986195 
L 304.398317 100.940689 
L 318.973961 100.639606 
L 361.994806 99.604787 
L 380.806969 99.466676 
L 388.069574 99.46214 
L 388.069574 99.46214 
" clip-path="url(#pa5007bcd9b)" style="fill: none; stroke-dasharray: 5.55,2.4; stroke-dashoffset: 0; stroke: #9467bd; stroke-width: 1.5"/>
   </g>
   <g id="line2d_28">
    <path d="M 85.461051 99.679292 
L 86.116703 60.472302 
L 89.142788 60.472302 
L 89.748005 64.935112 
L 91.563656 83.267782 
L 93.379307 99.618066 
L 95.194959 114.028142 
L 97.01061 126.585001 
L 98.826261 137.39559 
L 99.431478 138.886281 
L 162.525355 138.886281 
L 166.156657 122.821459 
L 167.972308 115.875734 
L 169.787959 109.701605 
L 171.603611 104.266787 
L 173.419262 99.532328 
L 175.234913 95.454798 
L 177.050564 91.988019 
L 178.866215 89.084416 
L 180.681866 86.696065 
L 182.497517 84.775492 
L 184.313169 83.276301 
L 186.12882 82.153648 
L 187.994906 81.347069 
L 189.810557 80.858554 
L 191.626208 80.62368 
L 193.441859 80.606847 
L 195.25751 80.77515 
L 197.678378 81.235807 
L 200.704464 82.103005 
L 204.335766 83.433641 
L 209.782719 85.731446 
L 219.516627 89.874769 
L 224.96358 91.932916 
L 229.805316 93.542301 
L 234.647053 94.939539 
L 240.144441 96.282287 
L 245.591394 97.381838 
L 251.643565 98.369558 
L 258.300952 99.21667 
L 265.613992 99.910868 
L 273.481813 100.434773 
L 282.560069 100.807264 
L 292.293976 100.981397 
L 303.187883 100.956391 
L 317.15831 100.689216 
L 365.676543 99.561894 
L 385.043489 99.461477 
L 388.069574 99.462063 
L 388.069574 99.462063 
" clip-path="url(#pa5007bcd9b)" style="fill: none; stroke: #8c564b; stroke-width: 1.5; stroke-linecap: square"/>
   </g>
   <g id="line2d_29">
    <path d="M 85.461051 129.084534 
L 87.327137 107.152634 
L 88.537571 95.063243 
L 89.748005 84.647244 
L 90.958439 75.816669 
L 92.168873 68.466217 
L 93.379307 62.485729 
L 94.589742 57.68108 
L 95.800176 53.561406 
L 97.01061 50.05697 
L 98.221044 47.160866 
L 99.431478 44.867023 
L 100.641912 43.176061 
L 101.852346 42.099765 
L 102.457563 41.796481 
L 103.06278 41.65118 
L 103.667997 41.664305 
L 104.273214 41.836146 
L 104.878431 42.166831 
L 105.483648 42.656324 
L 106.694082 44.110736 
L 107.904517 46.195646 
L 109.114951 48.90451 
L 110.325385 52.227998 
L 111.586254 56.330511 
L 113.401905 63.273729 
L 117.033207 77.287914 
L 119.454075 85.824715 
L 121.269726 91.607642 
L 123.085377 96.772252 
L 124.901029 101.269169 
L 126.71668 105.073474 
L 128.532331 108.181948 
L 129.742765 109.874643 
L 130.953199 111.273149 
L 132.163633 112.388627 
L 133.374067 113.234465 
L 134.584501 113.825879 
L 135.794935 114.179539 
L 137.055804 114.314284 
L 138.266238 114.238541 
L 139.476672 113.981181 
L 141.292324 113.296669 
L 143.107975 112.311273 
L 144.923626 111.087755 
L 147.344494 109.188792 
L 151.581013 105.486425 
L 156.42275 101.292771 
L 159.448835 98.969531 
L 161.920138 97.340501 
L 164.341006 96.034742 
L 166.156657 95.304507 
L 167.972308 94.824434 
L 169.787959 94.599342 
L 171.603611 94.612817 
L 173.419262 94.832454 
L 175.84013 95.370618 
L 179.471432 96.466258 
L 183.707952 97.7364 
L 186.784471 98.405992 
L 189.20534 98.705216 
L 191.626208 98.782468 
L 194.047076 98.641397 
L 196.467944 98.30283 
L 199.494029 97.653065 
L 203.730549 96.466092 
L 212.859239 93.788129 
L 216.490541 92.982188 
L 220.121844 92.423951 
L 223.147929 92.165112 
L 226.779231 92.100707 
L 230.410534 92.284903 
L 234.041836 92.683137 
L 238.32879 93.370267 
L 244.38096 94.601783 
L 261.932255 98.374026 
L 268.03486 99.392296 
L 274.08703 100.174984 
L 280.139201 100.732224 
L 286.796588 101.108277 
L 294.109628 101.281892 
L 302.582666 101.246968 
L 313.527008 100.967269 
L 357.15307 99.626801 
L 374.149582 99.455688 
L 388.069574 99.442853 
L 388.069574 99.442853 
" clip-path="url(#pa5007bcd9b)" style="fill: none; stroke-dasharray: 5.55,2.4; stroke-dashoffset: 0; stroke: #e377c2; stroke-width: 1.5"/>
   </g>
   <g id="line2d_30">
    <path d="M 85.461051 99.679292 
L 86.116703 122.222854 
L 87.327137 108.237978 
L 88.537571 96.005714 
L 89.748005 85.453305 
L 90.958439 76.494519 
L 92.168873 69.024894 
L 93.379307 62.9345 
L 93.984525 60.472302 
L 112.796688 60.472302 
L 117.033207 76.914869 
L 119.454075 85.486709 
L 121.269726 91.302011 
L 123.085377 96.502504 
L 124.901029 101.037384 
L 126.71668 104.880438 
L 128.532331 108.027323 
L 129.742765 109.744958 
L 130.953199 111.167586 
L 132.163633 112.306167 
L 133.374067 113.173916 
L 134.584501 113.785913 
L 135.794935 114.158721 
L 137.055804 114.311799 
L 138.266238 114.252055 
L 139.476672 114.009096 
L 141.292324 113.343181 
L 143.107975 112.372832 
L 144.923626 111.160942 
L 147.344494 109.272503 
L 150.975796 106.116945 
L 156.42275 101.375345 
L 159.448835 99.041581 
L 161.920138 97.401575 
L 164.341006 96.082162 
L 166.156657 95.338672 
L 167.972308 94.844355 
L 169.787959 94.605356 
L 171.603611 94.606303 
L 173.419262 94.815542 
L 175.84013 95.343906 
L 179.471432 96.434052 
L 184.313169 97.865426 
L 186.784471 98.388888 
L 189.20534 98.697134 
L 191.626208 98.783698 
L 194.047076 98.651411 
L 196.467944 98.32048 
L 199.494029 97.678039 
L 203.730549 96.496573 
L 212.859239 93.813611 
L 216.490541 93.001405 
L 220.121844 92.435847 
L 223.147929 92.170689 
L 226.779231 92.099007 
L 230.410534 92.276713 
L 234.041836 92.669552 
L 238.32879 93.351926 
L 243.775743 94.447941 
L 263.193123 98.584453 
L 269.245294 99.553024 
L 275.297464 100.293645 
L 281.349635 100.811252 
L 288.057457 101.151141 
L 295.320062 101.289948 
L 303.7931 101.228224 
L 315.342659 100.909497 
L 353.521768 99.694079 
L 370.51828 99.476117 
L 388.069574 99.442661 
L 388.069574 99.442661 
" clip-path="url(#pa5007bcd9b)" style="fill: none; stroke: #7f7f7f; stroke-width: 1.5; stroke-linecap: square"/>
   </g>
   <g id="patch_3">
    <path d="M 70.330625 241.036875 
L 70.330625 10.8 
" style="fill: none; stroke: #000000; stroke-width: 0.8; stroke-linejoin: miter; stroke-linecap: square"/>
   </g>
   <g id="patch_4">
    <path d="M 403.2 241.036875 
L 403.2 10.8 
" style="fill: none; stroke: #000000; stroke-width: 0.8; stroke-linejoin: miter; stroke-linecap: square"/>
   </g>
   <g id="patch_5">
    <path d="M 70.330625 241.036875 
L 403.2 241.036875 
" style="fill: none; stroke: #000000; stroke-width: 0.8; stroke-linejoin: miter; stroke-linecap: square"/>
   </g>
   <g id="patch_6">
    <path d="M 70.330625 10.8 
L 403.2 10.8 
" style="fill: none; stroke: #000000; stroke-width: 0.8; stroke-linejoin: miter; stroke-linecap: square"/>
   </g>
  </g>
 </g>
 <defs>
  <clipPath id="pa5007bcd9b">
   <rect x="70.330625" y="10.8" width="332.869375" height="230.236875"/>
  </clipPath>
 </defs>
</svg>
