<?xml version="1.0" encoding="utf-8" standalone="no"?>
<!DOCTYPE svg PUBLIC "-//W3C//DTD SVG 1.1//EN"
  "http://www.w3.org/Graphics/SVG/1.1/DTD/svg11.dtd">
<svg xmlns:xlink="http://www.w3.org/1999/xlink" width="414pt" height="288pt" viewBox="0 0 414 288" xmlns="http://www.w3.org/2000/svg" version="1.1">
 <metadata>
  <rdf:RDF xmlns:dc="http://purl.org/dc/elements/1.1/" xmlns:cc="http://creativecommons.org/ns#" xmlns:rdf="http://www.w3.org/1999/02/22-rdf-syntax-ns#">
   <cc:Work>
    <dc:type rdf:resource="http://purl.org/dc/dcmitype/StillImage"/>
    <dc:date>2026-01-14T20:44:10.712043</dc:date>
    <dc:format>image/svg+xml</dc:format>
    <dc:creator>
     <cc:Agent>
      <dc:title>Matplotlib v3.10.7, https://matplotlib.org/</dc:title>
     </cc:Agent>
    </dc:creator>
   </cc:Work>
  </rdf:RDF>
 </metadata>
 <defs>
  <style type="text/css">*{stroke-linejoin: round; stroke-linecap: butt}</style>
 </defs>
 <g id="figure_1">
  <g id="patch_1">
   <path d="M 0 288 
L 414 288 
L 414 0 
L 0 0 
L 0 288 
z
" style="fill: none"/>
  </g>
  <g id="axes_1">
   <g id="patch_2">
    <path d="M 67.103125 241.036875 
L 403.2 241.036875 
L 403.2 10.8 
L 67.103125 10.8 
L 67.103125 241.036875 
z
" style="fill: none"/>
   </g>
   <g id="matplotlib.axis_1">
    <g id="xtick_1">
     <g id="line2d_1">
      <defs>
       <path id="m7512bf3497" d="M 0 0 
L 0 3.5 
" style="stroke: #000000; stroke-width: 0.8"/>
      </defs>
      <g>
       <use xlink:href="#m7512bf3497" x="82.36328" y="241.036875" style="stroke: #000000; stroke-width: 0.8"/>
      </g>
     </g>
     <g id="text_1">
      <!-- 0 -->
      <g transform="translate(77.27328 260.194375) scale(0.16 -0.16)">
       <defs>
        <path id="DejaVuSans-30" d="M 2034 4250 
Q 1547 4250 1301 3770 
Q 1056 3291 1056 2328 
Q 1056 1369 1301 889 
Q 1547 409 2034 409 
Q 2525 409 2770 889 
Q 3016 1369 3016 2328 
Q 3016 3291 2770 3770 
Q 2525 4250 2034 4250 
z
M 2034 4750 
Q 2819 4750 3233 4129 
Q 3647 3509 3647 2328 
Q 3647 1150 3233 529 
Q 2819 -91 2034 -91 
Q 1250 -91 836 529 
Q 422 1150 422 2328 
Q 422 3509 836 4129 
Q 1250 4750 2034 4750 
z
" transform="scale(0.015625)"/>
       </defs>
       <use xlink:href="#DejaVuSans-30"/>
      </g>
     </g>
    </g>
    <g id="xtick_2">
     <g id="line2d_2">
      <g>
       <use xlink:href="#m7512bf3497" x="133.289878" y="241.036875" style="stroke: #000000; stroke-width: 0.8"/>
      </g>
     </g>
     <g id="text_2">
      <!-- 5 -->
      <g transform="translate(128.199878 260.194375) scale(0.16 -0.16)">
       <defs>
        <path id="DejaVuSans-35" d="M 691 4666 
L 3169 4666 
L 3169 4134 
L 1269 4134 
L 1269 2991 
Q 1406 3038 1543 3061 
Q 1681 3084 1819 3084 
Q 2600 3084 3056 2656 
Q 3513 2228 3513 1497 
Q 3513 744 3044 326 
Q 2575 -91 1722 -91 
Q 1428 -91 1123 -41 
Q 819 9 494 109 
L 494 744 
Q 775 591 1075 516 
Q 1375 441 1709 441 
Q 2250 441 2565 725 
Q 2881 1009 2881 1497 
Q 2881 1984 2565 2268 
Q 2250 2553 1709 2553 
Q 1456 2553 1204 2497 
Q 953 2441 691 2322 
L 691 4666 
z
" transform="scale(0.015625)"/>
       </defs>
       <use xlink:href="#DejaVuSans-35"/>
      </g>
     </g>
    </g>
    <g id="xtick_3">
     <g id="line2d_3">
      <g>
       <use xlink:href="#m7512bf3497" x="184.216477" y="241.036875" style="stroke: #000000; stroke-width: 0.8"/>
      </g>
     </g>
     <g id="text_3">
      <!-- 10 -->
      <g transform="translate(174.036477 260.194375) scale(0.16 -0.16)">
       <defs>
        <path id="DejaVuSans-31" d="M 794 531 
L 1825 531 
L 1825 4091 
L 703 3866 
L 703 4441 
L 1819 4666 
L 2450 4666 
L 2450 531 
L 3481 531 
L 3481 0 
L 794 0 
L 794 531 
z
" transform="scale(0.015625)"/>
       </defs>
       <use xlink:href="#DejaVuSans-31"/>
       <use xlink:href="#DejaVuSans-30" transform="translate(63.623047 0)"/>
      </g>
     </g>
    </g>
    <g id="xtick_4">
     <g id="line2d_4">
      <g>
       <use xlink:href="#m7512bf3497" x="235.143075" y="241.036875" style="stroke: #000000; stroke-width: 0.8"/>
      </g>
     </g>
     <g id="text_4">
      <!-- 15 -->
      <g transform="translate(224.963075 260.194375) scale(0.16 -0.16)">
       <use xlink:href="#DejaVuSans-31"/>
       <use xlink:href="#DejaVuSans-35" transform="translate(63.623047 0)"/>
      </g>
     </g>
    </g>
    <g id="xtick_5">
     <g id="line2d_5">
      <g>
       <use xlink:href="#m7512bf3497" x="286.069673" y="241.036875" style="stroke: #000000; stroke-width: 0.8"/>
      </g>
     </g>
     <g id="text_5">
      <!-- 20 -->
      <g transform="translate(275.889673 260.194375) scale(0.16 -0.16)">
       <defs>
        <path id="DejaVuSans-32" d="M 1228 531 
L 3431 531 
L 3431 0 
L 469 0 
L 469 531 
Q 828 903 1448 1529 
Q 2069 2156 2228 2338 
Q 2531 2678 2651 2914 
Q 2772 3150 2772 3378 
Q 2772 3750 2511 3984 
Q 2250 4219 1831 4219 
Q 1534 4219 1204 4116 
Q 875 4013 500 3803 
L 500 4441 
Q 881 4594 1212 4672 
Q 1544 4750 1819 4750 
Q 2544 4750 2975 4387 
Q 3406 4025 3406 3419 
Q 3406 3131 3298 2873 
Q 3191 2616 2906 2266 
Q 2828 2175 2409 1742 
Q 1991 1309 1228 531 
z
" transform="scale(0.015625)"/>
       </defs>
       <use xlink:href="#DejaVuSans-32"/>
       <use xlink:href="#DejaVuSans-30" transform="translate(63.623047 0)"/>
      </g>
     </g>
    </g>
    <g id="xtick_6">
     <g id="line2d_6">
      <g>
       <use xlink:href="#m7512bf3497" x="336.996271" y="241.036875" style="stroke: #000000; stroke-width: 0.8"/>
      </g>
     </g>
     <g id="text_6">
      <!-- 25 -->
      <g transform="translate(326.816271 260.194375) scale(0.16 -0.16)">
       <use xlink:href="#DejaVuSans-32"/>
       <use xlink:href="#DejaVuSans-35" transform="translate(63.623047 0)"/>
      </g>
     </g>
    </g>
    <g id="xtick_7">
     <g id="line2d_7">
      <g>
       <use xlink:href="#m7512bf3497" x="387.922869" y="241.036875" style="stroke: #000000; stroke-width: 0.8"/>
      </g>
     </g>
     <g id="text_7">
      <!-- 30 -->
      <g transform="translate(377.742869 260.194375) scale(0.16 -0.16)">
       <defs>
        <path id="DejaVuSans-33" d="M 2597 2516 
Q 3050 2419 3304 2112 
Q 3559 1806 3559 1356 
Q 3559 666 3084 287 
Q 2609 -91 1734 -91 
Q 1441 -91 1130 -33 
Q 819 25 488 141 
L 488 750 
Q 750 597 1062 519 
Q 1375 441 1716 441 
Q 2309 441 2620 675 
Q 2931 909 2931 1356 
Q 2931 1769 2642 2001 
Q 2353 2234 1838 2234 
L 1294 2234 
L 1294 2753 
L 1863 2753 
Q 2328 2753 2575 2939 
Q 2822 3125 2822 3475 
Q 2822 3834 2567 4026 
Q 2313 4219 1838 4219 
Q 1578 4219 1281 4162 
Q 984 4106 628 3988 
L 628 4550 
Q 988 4650 1302 4700 
Q 1616 4750 1894 4750 
Q 2613 4750 3031 4423 
Q 3450 4097 3450 3541 
Q 3450 3153 3228 2886 
Q 3006 2619 2597 2516 
z
" transform="scale(0.015625)"/>
       </defs>
       <use xlink:href="#DejaVuSans-33"/>
       <use xlink:href="#DejaVuSans-30" transform="translate(63.623047 0)"/>
      </g>
     </g>
    </g>
    <g id="text_8">
     <!-- Time [min] -->
     <g transform="translate(207.999219 275.120313) scale(0.1 -0.1)">
      <defs>
       <path id="DejaVuSans-54" d="M -19 4666 
L 3928 4666 
L 3928 4134 
L 2272 4134 
L 2272 0 
L 1638 0 
L 1638 4134 
L -19 4134 
L -19 4666 
z
" transform="scale(0.015625)"/>
       <path id="DejaVuSans-69" d="M 603 3500 
L 1178 3500 
L 1178 0 
L 603 0 
L 603 3500 
z
M 603 4863 
L 1178 4863 
L 1178 4134 
L 603 4134 
L 603 4863 
z
" transform="scale(0.015625)"/>
       <path id="DejaVuSans-6d" d="M 3328 2828 
Q 3544 3216 3844 3400 
Q 4144 3584 4550 3584 
Q 5097 3584 5394 3201 
Q 5691 2819 5691 2113 
L 5691 0 
L 5113 0 
L 5113 2094 
Q 5113 2597 4934 2840 
Q 4756 3084 4391 3084 
Q 3944 3084 3684 2787 
Q 3425 2491 3425 1978 
L 3425 0 
L 2847 0 
L 2847 2094 
Q 2847 2600 2669 2842 
Q 2491 3084 2119 3084 
Q 1678 3084 1418 2786 
Q 1159 2488 1159 1978 
L 1159 0 
L 581 0 
L 581 3500 
L 1159 3500 
L 1159 2956 
Q 1356 3278 1631 3431 
Q 1906 3584 2284 3584 
Q 2666 3584 2933 3390 
Q 3200 3197 3328 2828 
z
" transform="scale(0.015625)"/>
       <path id="DejaVuSans-65" d="M 3597 1894 
L 3597 1613 
L 953 1613 
Q 991 1019 1311 708 
Q 1631 397 2203 397 
Q 2534 397 2845 478 
Q 3156 559 3463 722 
L 3463 178 
Q 3153 47 2828 -22 
Q 2503 -91 2169 -91 
Q 1331 -91 842 396 
Q 353 884 353 1716 
Q 353 2575 817 3079 
Q 1281 3584 2069 3584 
Q 2775 3584 3186 3129 
Q 3597 2675 3597 1894 
z
M 3022 2063 
Q 3016 2534 2758 2815 
Q 2500 3097 2075 3097 
Q 1594 3097 1305 2825 
Q 1016 2553 972 2059 
L 3022 2063 
z
" transform="scale(0.015625)"/>
       <path id="DejaVuSans-20" transform="scale(0.015625)"/>
       <path id="DejaVuSans-5b" d="M 550 4863 
L 1875 4863 
L 1875 4416 
L 1125 4416 
L 1125 -397 
L 1875 -397 
L 1875 -844 
L 550 -844 
L 550 4863 
z
" transform="scale(0.015625)"/>
       <path id="DejaVuSans-6e" d="M 3513 2113 
L 3513 0 
L 2938 0 
L 2938 2094 
Q 2938 2591 2744 2837 
Q 2550 3084 2163 3084 
Q 1697 3084 1428 2787 
Q 1159 2491 1159 1978 
L 1159 0 
L 581 0 
L 581 3500 
L 1159 3500 
L 1159 2956 
Q 1366 3272 1645 3428 
Q 1925 3584 2291 3584 
Q 2894 3584 3203 3211 
Q 3513 2838 3513 2113 
z
" transform="scale(0.015625)"/>
       <path id="DejaVuSans-5d" d="M 1947 4863 
L 1947 -844 
L 622 -844 
L 622 -397 
L 1369 -397 
L 1369 4416 
L 622 4416 
L 622 4863 
L 1947 4863 
z
" transform="scale(0.015625)"/>
      </defs>
      <use xlink:href="#DejaVuSans-54"/>
      <use xlink:href="#DejaVuSans-69" transform="translate(57.958984 0)"/>
      <use xlink:href="#DejaVuSans-6d" transform="translate(85.742188 0)"/>
      <use xlink:href="#DejaVuSans-65" transform="translate(183.154297 0)"/>
      <use xlink:href="#DejaVuSans-20" transform="translate(244.677734 0)"/>
      <use xlink:href="#DejaVuSans-5b" transform="translate(276.464844 0)"/>
      <use xlink:href="#DejaVuSans-6d" transform="translate(315.478516 0)"/>
      <use xlink:href="#DejaVuSans-69" transform="translate(412.890625 0)"/>
      <use xlink:href="#DejaVuSans-6e" transform="translate(440.673828 0)"/>
      <use xlink:href="#DejaVuSans-5d" transform="translate(504.052734 0)"/>
     </g>
    </g>
   </g>
   <g id="matplotlib.axis_2">
    <g id="ytick_1">
     <g id="line2d_8">
      <defs>
       <path id="m513c2c9be7" d="M 0 0 
L -3.5 0 
" style="stroke: #000000; stroke-width: 0.8"/>
      </defs>
      <g>
       <use xlink:href="#m513c2c9be7" x="67.103125" y="184.595114" style="stroke: #000000; stroke-width: 0.8"/>
      </g>
     </g>
     <g id="text_9">
      <!-- 0.00 -->
      <g transform="translate(24.478125 190.673864) scale(0.16 -0.16)">
       <defs>
        <path id="DejaVuSans-2e" d="M 684 794 
L 1344 794 
L 1344 0 
L 684 0 
L 684 794 
z
" transform="scale(0.015625)"/>
       </defs>
       <use xlink:href="#DejaVuSans-30"/>
       <use xlink:href="#DejaVuSans-2e" transform="translate(63.623047 0)"/>
       <use xlink:href="#DejaVuSans-30" transform="translate(95.410156 0)"/>
       <use xlink:href="#DejaVuSans-30" transform="translate(159.033203 0)"/>
      </g>
     </g>
    </g>
    <g id="ytick_2">
     <g id="line2d_9">
      <g>
       <use xlink:href="#m513c2c9be7" x="67.103125" y="119.321866" style="stroke: #000000; stroke-width: 0.8"/>
      </g>
     </g>
     <g id="text_10">
      <!-- 0.02 -->
      <g transform="translate(24.478125 125.400616) scale(0.16 -0.16)">
       <use xlink:href="#DejaVuSans-30"/>
       <use xlink:href="#DejaVuSans-2e" transform="translate(63.623047 0)"/>
       <use xlink:href="#DejaVuSans-30" transform="translate(95.410156 0)"/>
       <use xlink:href="#DejaVuSans-32" transform="translate(159.033203 0)"/>
      </g>
     </g>
    </g>
    <g id="ytick_3">
     <g id="line2d_10">
      <g>
       <use xlink:href="#m513c2c9be7" x="67.103125" y="54.048618" style="stroke: #000000; stroke-width: 0.8"/>
      </g>
     </g>
     <g id="text_11">
      <!-- 0.04 -->
      <g transform="translate(24.478125 60.127368) scale(0.16 -0.16)">
       <defs>
        <path id="DejaVuSans-34" d="M 2419 4116 
L 825 1625 
L 2419 1625 
L 2419 4116 
z
M 2253 4666 
L 3047 4666 
L 3047 1625 
L 3713 1625 
L 3713 1100 
L 3047 1100 
L 3047 0 
L 2419 0 
L 2419 1100 
L 313 1100 
L 313 1709 
L 2253 4666 
z
" transform="scale(0.015625)"/>
       </defs>
       <use xlink:href="#DejaVuSans-30"/>
       <use xlink:href="#DejaVuSans-2e" transform="translate(63.623047 0)"/>
       <use xlink:href="#DejaVuSans-30" transform="translate(95.410156 0)"/>
       <use xlink:href="#DejaVuSans-34" transform="translate(159.033203 0)"/>
      </g>
     </g>
    </g>
    <g id="text_12">
     <!-- Rate Tracking Error [rad/s]  -->
     <g transform="translate(18.398438 193.219219) rotate(-90) scale(0.1 -0.1)">
      <defs>
       <path id="DejaVuSans-52" d="M 2841 2188 
Q 3044 2119 3236 1894 
Q 3428 1669 3622 1275 
L 4263 0 
L 3584 0 
L 2988 1197 
Q 2756 1666 2539 1819 
Q 2322 1972 1947 1972 
L 1259 1972 
L 1259 0 
L 628 0 
L 628 4666 
L 2053 4666 
Q 2853 4666 3247 4331 
Q 3641 3997 3641 3322 
Q 3641 2881 3436 2590 
Q 3231 2300 2841 2188 
z
M 1259 4147 
L 1259 2491 
L 2053 2491 
Q 2509 2491 2742 2702 
Q 2975 2913 2975 3322 
Q 2975 3731 2742 3939 
Q 2509 4147 2053 4147 
L 1259 4147 
z
" transform="scale(0.015625)"/>
       <path id="DejaVuSans-61" d="M 2194 1759 
Q 1497 1759 1228 1600 
Q 959 1441 959 1056 
Q 959 750 1161 570 
Q 1363 391 1709 391 
Q 2188 391 2477 730 
Q 2766 1069 2766 1631 
L 2766 1759 
L 2194 1759 
z
M 3341 1997 
L 3341 0 
L 2766 0 
L 2766 531 
Q 2569 213 2275 61 
Q 1981 -91 1556 -91 
Q 1019 -91 701 211 
Q 384 513 384 1019 
Q 384 1609 779 1909 
Q 1175 2209 1959 2209 
L 2766 2209 
L 2766 2266 
Q 2766 2663 2505 2880 
Q 2244 3097 1772 3097 
Q 1472 3097 1187 3025 
Q 903 2953 641 2809 
L 641 3341 
Q 956 3463 1253 3523 
Q 1550 3584 1831 3584 
Q 2591 3584 2966 3190 
Q 3341 2797 3341 1997 
z
" transform="scale(0.015625)"/>
       <path id="DejaVuSans-74" d="M 1172 4494 
L 1172 3500 
L 2356 3500 
L 2356 3053 
L 1172 3053 
L 1172 1153 
Q 1172 725 1289 603 
Q 1406 481 1766 481 
L 2356 481 
L 2356 0 
L 1766 0 
Q 1100 0 847 248 
Q 594 497 594 1153 
L 594 3053 
L 172 3053 
L 172 3500 
L 594 3500 
L 594 4494 
L 1172 4494 
z
" transform="scale(0.015625)"/>
       <path id="DejaVuSans-72" d="M 2631 2963 
Q 2534 3019 2420 3045 
Q 2306 3072 2169 3072 
Q 1681 3072 1420 2755 
Q 1159 2438 1159 1844 
L 1159 0 
L 581 0 
L 581 3500 
L 1159 3500 
L 1159 2956 
Q 1341 3275 1631 3429 
Q 1922 3584 2338 3584 
Q 2397 3584 2469 3576 
Q 2541 3569 2628 3553 
L 2631 2963 
z
" transform="scale(0.015625)"/>
       <path id="DejaVuSans-63" d="M 3122 3366 
L 3122 2828 
Q 2878 2963 2633 3030 
Q 2388 3097 2138 3097 
Q 1578 3097 1268 2742 
Q 959 2388 959 1747 
Q 959 1106 1268 751 
Q 1578 397 2138 397 
Q 2388 397 2633 464 
Q 2878 531 3122 666 
L 3122 134 
Q 2881 22 2623 -34 
Q 2366 -91 2075 -91 
Q 1284 -91 818 406 
Q 353 903 353 1747 
Q 353 2603 823 3093 
Q 1294 3584 2113 3584 
Q 2378 3584 2631 3529 
Q 2884 3475 3122 3366 
z
" transform="scale(0.015625)"/>
       <path id="DejaVuSans-6b" d="M 581 4863 
L 1159 4863 
L 1159 1991 
L 2875 3500 
L 3609 3500 
L 1753 1863 
L 3688 0 
L 2938 0 
L 1159 1709 
L 1159 0 
L 581 0 
L 581 4863 
z
" transform="scale(0.015625)"/>
       <path id="DejaVuSans-67" d="M 2906 1791 
Q 2906 2416 2648 2759 
Q 2391 3103 1925 3103 
Q 1463 3103 1205 2759 
Q 947 2416 947 1791 
Q 947 1169 1205 825 
Q 1463 481 1925 481 
Q 2391 481 2648 825 
Q 2906 1169 2906 1791 
z
M 3481 434 
Q 3481 -459 3084 -895 
Q 2688 -1331 1869 -1331 
Q 1566 -1331 1297 -1286 
Q 1028 -1241 775 -1147 
L 775 -588 
Q 1028 -725 1275 -790 
Q 1522 -856 1778 -856 
Q 2344 -856 2625 -561 
Q 2906 -266 2906 331 
L 2906 616 
Q 2728 306 2450 153 
Q 2172 0 1784 0 
Q 1141 0 747 490 
Q 353 981 353 1791 
Q 353 2603 747 3093 
Q 1141 3584 1784 3584 
Q 2172 3584 2450 3431 
Q 2728 3278 2906 2969 
L 2906 3500 
L 3481 3500 
L 3481 434 
z
" transform="scale(0.015625)"/>
       <path id="DejaVuSans-45" d="M 628 4666 
L 3578 4666 
L 3578 4134 
L 1259 4134 
L 1259 2753 
L 3481 2753 
L 3481 2222 
L 1259 2222 
L 1259 531 
L 3634 531 
L 3634 0 
L 628 0 
L 628 4666 
z
" transform="scale(0.015625)"/>
       <path id="DejaVuSans-6f" d="M 1959 3097 
Q 1497 3097 1228 2736 
Q 959 2375 959 1747 
Q 959 1119 1226 758 
Q 1494 397 1959 397 
Q 2419 397 2687 759 
Q 2956 1122 2956 1747 
Q 2956 2369 2687 2733 
Q 2419 3097 1959 3097 
z
M 1959 3584 
Q 2709 3584 3137 3096 
Q 3566 2609 3566 1747 
Q 3566 888 3137 398 
Q 2709 -91 1959 -91 
Q 1206 -91 779 398 
Q 353 888 353 1747 
Q 353 2609 779 3096 
Q 1206 3584 1959 3584 
z
" transform="scale(0.015625)"/>
       <path id="DejaVuSans-64" d="M 2906 2969 
L 2906 4863 
L 3481 4863 
L 3481 0 
L 2906 0 
L 2906 525 
Q 2725 213 2448 61 
Q 2172 -91 1784 -91 
Q 1150 -91 751 415 
Q 353 922 353 1747 
Q 353 2572 751 3078 
Q 1150 3584 1784 3584 
Q 2172 3584 2448 3432 
Q 2725 3281 2906 2969 
z
M 947 1747 
Q 947 1113 1208 752 
Q 1469 391 1925 391 
Q 2381 391 2643 752 
Q 2906 1113 2906 1747 
Q 2906 2381 2643 2742 
Q 2381 3103 1925 3103 
Q 1469 3103 1208 2742 
Q 947 2381 947 1747 
z
" transform="scale(0.015625)"/>
       <path id="DejaVuSans-2f" d="M 1625 4666 
L 2156 4666 
L 531 -594 
L 0 -594 
L 1625 4666 
z
" transform="scale(0.015625)"/>
       <path id="DejaVuSans-73" d="M 2834 3397 
L 2834 2853 
Q 2591 2978 2328 3040 
Q 2066 3103 1784 3103 
Q 1356 3103 1142 2972 
Q 928 2841 928 2578 
Q 928 2378 1081 2264 
Q 1234 2150 1697 2047 
L 1894 2003 
Q 2506 1872 2764 1633 
Q 3022 1394 3022 966 
Q 3022 478 2636 193 
Q 2250 -91 1575 -91 
Q 1294 -91 989 -36 
Q 684 19 347 128 
L 347 722 
Q 666 556 975 473 
Q 1284 391 1588 391 
Q 1994 391 2212 530 
Q 2431 669 2431 922 
Q 2431 1156 2273 1281 
Q 2116 1406 1581 1522 
L 1381 1569 
Q 847 1681 609 1914 
Q 372 2147 372 2553 
Q 372 3047 722 3315 
Q 1072 3584 1716 3584 
Q 2034 3584 2315 3537 
Q 2597 3491 2834 3397 
z
" transform="scale(0.015625)"/>
      </defs>
      <use xlink:href="#DejaVuSans-52"/>
      <use xlink:href="#DejaVuSans-61" transform="translate(67.232422 0)"/>
      <use xlink:href="#DejaVuSans-74" transform="translate(128.511719 0)"/>
      <use xlink:href="#DejaVuSans-65" transform="translate(167.720703 0)"/>
      <use xlink:href="#DejaVuSans-20" transform="translate(229.244141 0)"/>
      <use xlink:href="#DejaVuSans-54" transform="translate(261.03125 0)"/>
      <use xlink:href="#DejaVuSans-72" transform="translate(307.365234 0)"/>
      <use xlink:href="#DejaVuSans-61" transform="translate(348.478516 0)"/>
      <use xlink:href="#DejaVuSans-63" transform="translate(409.757812 0)"/>
      <use xlink:href="#DejaVuSans-6b" transform="translate(464.738281 0)"/>
      <use xlink:href="#DejaVuSans-69" transform="translate(522.648438 0)"/>
      <use xlink:href="#DejaVuSans-6e" transform="translate(550.431641 0)"/>
      <use xlink:href="#DejaVuSans-67" transform="translate(613.810547 0)"/>
      <use xlink:href="#DejaVuSans-20" transform="translate(677.287109 0)"/>
      <use xlink:href="#DejaVuSans-45" transform="translate(709.074219 0)"/>
      <use xlink:href="#DejaVuSans-72" transform="translate(772.257812 0)"/>
      <use xlink:href="#DejaVuSans-72" transform="translate(811.621094 0)"/>
      <use xlink:href="#DejaVuSans-6f" transform="translate(850.484375 0)"/>
      <use xlink:href="#DejaVuSans-72" transform="translate(911.666016 0)"/>
      <use xlink:href="#DejaVuSans-20" transform="translate(952.779297 0)"/>
      <use xlink:href="#DejaVuSans-5b" transform="translate(984.566406 0)"/>
      <use xlink:href="#DejaVuSans-72" transform="translate(1023.580078 0)"/>
      <use xlink:href="#DejaVuSans-61" transform="translate(1064.693359 0)"/>
      <use xlink:href="#DejaVuSans-64" transform="translate(1125.972656 0)"/>
      <use xlink:href="#DejaVuSans-2f" transform="translate(1189.449219 0)"/>
      <use xlink:href="#DejaVuSans-73" transform="translate(1223.140625 0)"/>
      <use xlink:href="#DejaVuSans-5d" transform="translate(1275.240234 0)"/>
      <use xlink:href="#DejaVuSans-20" transform="translate(1314.253906 0)"/>
     </g>
    </g>
   </g>
   <g id="line2d_11">
    <path d="M 82.380256 180.775094 
L 83.059277 181.564808 
L 83.789225 182.337435 
L 84.434295 183.411988 
L 85.181219 185.121203 
L 86.029995 187.656952 
L 86.946674 190.349012 
L 87.676622 191.687983 
L 88.712129 193.192924 
L 89.119542 193.433671 
L 89.459053 193.385249 
L 89.798563 193.096323 
L 90.205976 192.41771 
L 91.258459 190.418859 
L 92.175138 189.283396 
L 93.804789 187.343555 
L 94.500786 185.900495 
L 95.417465 183.429787 
L 97.301749 178.160606 
L 98.43911 175.701585 
L 99.474617 173.971872 
L 100.442223 172.770986 
L 101.358901 171.973133 
L 102.241629 171.489191 
L 103.107381 171.261692 
L 103.990109 171.260907 
L 104.906788 171.487971 
L 105.891369 171.970375 
L 106.960827 172.749649 
L 108.183065 173.926502 
L 109.676912 175.694373 
L 110.950077 177.498725 
L 111.730952 179.143268 
L 113.954747 184.144774 
L 114.803523 185.317257 
L 115.635324 186.097045 
L 116.518052 186.61936 
L 117.587511 186.983062 
L 122.748073 188.399274 
L 127.229613 190.120658 
L 128.757411 190.398575 
L 130.183356 190.432675 
L 131.626276 190.243457 
L 133.01827 189.845273 
L 135.004407 188.96143 
L 138.365563 187.176015 
L 141.879498 185.398861 
L 144.273048 184.438303 
L 146.496843 183.783903 
L 149.637316 183.140344 
L 151.810185 182.96391 
L 154.356514 182.988496 
L 159.975416 183.365163 
L 175.23642 184.711554 
L 181.347612 184.824002 
L 184.386232 184.731243 
L 185.931005 183.976897 
L 187.390901 183.509428 
L 188.918699 183.257886 
L 190.650203 183.205004 
L 192.975851 183.374964 
L 202.091713 184.244883 
L 209.068656 184.47202 
L 222.598156 184.722653 
L 234.871466 184.648307 
L 255.123277 184.574 
L 264.374942 184.472514 
L 273.08339 184.343218 
L 283.370563 184.468414 
L 288.548101 184.435124 
L 314.979005 184.815044 
L 315.199687 184.861781 
L 315.420369 184.911226 
L 317.796944 185.372188 
L 319.409619 185.630514 
L 319.681228 185.67567 
L 319.918885 185.706917 
L 320.496053 185.778335 
L 320.801613 185.819143 
L 321.259952 185.866972 
L 321.599463 185.90604 
L 322.006876 185.944042 
L 322.363362 185.980326 
L 322.736824 186.004984 
L 323.144236 186.041693 
L 323.466772 186.061757 
L 323.942086 186.097081 
L 324.247646 186.105767 
L 324.790863 186.142008 
L 325.062472 186.147668 
L 325.741493 186.17788 
L 325.97915 186.183227 
L 326.861878 186.205862 
L 327.099536 186.205685 
L 328.559431 186.211121 
L 332.378926 186.097285 
L 333.312581 186.047474 
L 333.567214 186.036096 
L 334.280186 185.990938 
L 334.551794 185.978091 
L 335.179889 185.934403 
L 335.468473 185.920662 
L 336.079592 185.86687 
L 336.385152 185.852398 
L 336.945345 185.801432 
L 337.250904 185.781501 
L 337.777146 185.732123 
L 338.06573 185.713259 
L 338.574996 185.662765 
L 338.86358 185.640655 
L 339.338895 185.5965 
L 339.627479 185.571876 
L 340.102794 185.524238 
L 340.408353 185.502508 
L 340.900644 185.448899 
L 341.206203 185.425864 
L 341.698494 185.36834 
L 342.021029 185.345282 
L 342.513319 185.287413 
L 342.818879 185.263932 
L 343.294194 185.212703 
L 343.582778 185.185365 
L 344.058093 185.135758 
L 344.380628 185.108478 
L 344.872918 185.055625 
L 345.178478 185.025663 
L 345.670768 184.976426 
L 345.976328 184.948964 
L 346.502569 184.893216 
L 346.808129 184.868931 
L 347.351346 184.812092 
L 347.656906 184.791514 
L 348.200123 184.733083 
L 348.488707 184.711259 
L 349.031924 184.660481 
L 349.320508 184.642898 
L 349.931627 184.582593 
L 350.203236 184.563995 
L 350.848306 184.506202 
L 351.119914 184.492785 
L 351.849862 184.428568 
L 352.104495 184.414324 
L 352.902345 184.352826 
L 353.156978 184.344774 
L 354.02273 184.280664 
L 354.260388 184.27174 
L 355.295895 184.206206 
L 355.516577 184.196488 
L 356.704865 184.137318 
L 356.942522 184.134576 
L 358.691002 184.067648 
L 361.491965 184.012444 
L 372.033771 184.147435 
L 372.899523 184.178364 
L 373.13718 184.184876 
L 374.019908 184.220371 
L 374.257565 184.225899 
L 375.157269 184.263166 
L 375.394926 184.269271 
L 376.294629 184.307819 
L 376.532287 184.314043 
L 377.43199 184.352205 
L 377.669648 184.355572 
L 378.620277 184.401674 
L 378.857935 184.406852 
L 379.740663 184.446008 
L 379.97832 184.45009 
L 380.894999 184.492331 
L 381.132656 184.494997 
L 382.100262 184.537859 
L 382.337919 184.538676 
L 383.390402 184.585083 
L 383.62806 184.583583 
L 384.799371 184.633963 
L 385.020053 184.638755 
L 386.225316 184.678496 
L 386.445998 184.680386 
L 387.871943 184.725441 
L 387.922869 184.719113 
L 387.922869 184.719113 
" clip-path="url(#p091515341b)" style="fill: none; stroke: #2b737e; stroke-width: 1.5; stroke-linecap: square"/>
   </g>
   <g id="line2d_12">
    <path d="M 82.380256 217.5357 
L 83.534592 217.79515 
L 85.130292 217.979426 
L 85.877215 217.839914 
L 86.369506 217.54807 
L 86.675065 217.014535 
L 87.065503 215.824564 
L 87.523842 213.64429 
L 88.067059 209.826696 
L 88.932811 201.780578 
L 91.377288 179.844773 
L 92.667429 170.042787 
L 93.668985 164.081994 
L 94.94215 157.727865 
L 95.960682 153.677223 
L 96.622728 151.88362 
L 97.18292 150.945009 
L 97.64126 150.557706 
L 98.031697 150.487923 
L 98.422134 150.648388 
L 98.863498 151.095415 
L 99.389739 151.977828 
L 100.017834 153.495178 
L 100.781733 155.96016 
L 101.715387 159.783265 
L 102.852748 165.440223 
L 104.312644 173.91716 
L 106.383659 187.39289 
L 111.764903 222.980521 
L 112.698557 227.236197 
L 113.326652 229.134613 
L 113.852893 230.101926 
L 114.294257 230.501623 
L 114.667719 230.564543 
L 115.041181 230.390964 
L 115.465569 229.926711 
L 115.99181 228.991525 
L 116.653856 227.318667 
L 117.502633 224.50865 
L 118.639994 219.892673 
L 120.575204 210.932501 
L 123.070608 199.639339 
L 124.58143 193.817209 
L 125.888546 189.627936 
L 127.076833 186.536832 
L 128.180243 184.25985 
L 129.232726 182.581443 
L 130.234282 181.386296 
L 131.218863 180.546266 
L 132.203444 179.990364 
L 133.442658 179.571631 
L 134.563043 179.428914 
L 135.853184 179.496534 
L 137.431908 179.814363 
L 139.672679 180.51427 
L 146.972158 182.934929 
L 148.584833 183.254438 
L 153.541689 184.03576 
L 157.344208 184.451857 
L 169.651469 184.948872 
L 175.643833 184.916352 
L 184.301354 184.636032 
L 186.015883 183.616828 
L 187.526705 182.971933 
L 188.986601 182.590442 
L 190.480448 182.433591 
L 192.110099 182.492237 
L 194.079261 182.797549 
L 197.287637 183.559054 
L 201.259911 184.439786 
L 204.111801 184.833513 
L 207.11647 185.018004 
L 210.935965 185.014669 
L 236.331362 184.546606 
L 264.595624 184.460478 
L 273.287097 184.273213 
L 284.660704 184.497182 
L 291.128382 184.497929 
L 309.428006 184.621526 
L 314.418813 184.70035 
L 314.605543 184.748412 
L 314.979005 184.833626 
L 315.182712 184.887307 
L 315.522222 184.963998 
L 315.742904 185.027866 
L 316.116366 185.101923 
L 316.337048 185.158168 
L 321.124148 186.108597 
L 321.514585 186.160521 
L 321.820145 186.206331 
L 322.176631 186.248917 
L 322.516142 186.286916 
L 322.872628 186.334128 
L 323.178187 186.362708 
L 323.568625 186.402255 
L 323.857209 186.419186 
L 324.349499 186.46689 
L 324.604132 186.479616 
L 325.096423 186.508943 
L 325.33408 186.51449 
L 325.996126 186.543381 
L 326.216808 186.541471 
L 327.099536 186.555809 
L 328.321774 186.537582 
L 330.817177 186.402598 
L 332.226146 186.280343 
L 332.446828 186.263923 
L 333.244678 186.177716 
L 333.482336 186.158932 
L 334.161357 186.076745 
L 334.41599 186.056501 
L 335.027109 185.975803 
L 335.264767 185.95448 
L 335.824959 185.877083 
L 336.062617 185.850818 
L 336.571883 185.781629 
L 336.826516 185.756747 
L 337.318806 185.686279 
L 337.573439 185.657956 
L 338.048754 185.58829 
L 338.320363 185.562298 
L 338.795678 185.488226 
L 339.067286 185.460083 
L 339.50865 185.396783 
L 339.780258 185.367209 
L 340.238598 185.295235 
L 340.510206 185.264968 
L 340.900644 185.211485 
L 341.172252 185.181097 
L 341.613616 185.115692 
L 341.9022 185.086049 
L 342.343564 185.021833 
L 342.615172 184.992889 
L 343.056536 184.93071 
L 343.328145 184.903208 
L 343.769509 184.84389 
L 344.041117 184.818444 
L 344.482481 184.762706 
L 344.737114 184.734452 
L 345.144527 184.684078 
L 345.39916 184.658318 
L 345.806573 184.612193 
L 346.061206 184.589234 
L 346.502569 184.535647 
L 346.757202 184.515982 
L 347.198566 184.466396 
L 347.470175 184.444516 
L 347.94549 184.392312 
L 348.217098 184.374911 
L 348.709389 184.325434 
L 348.964022 184.306119 
L 349.473288 184.260375 
L 349.727921 184.245836 
L 350.288113 184.196025 
L 350.542746 184.186781 
L 351.170841 184.131937 
L 351.408498 184.120977 
L 352.053569 184.076997 
L 352.291226 184.071795 
L 352.987223 184.033617 
L 353.751122 183.985222 
L 353.971804 183.982479 
L 354.837556 183.940582 
L 355.041262 183.935214 
L 356.093745 183.900826 
L 356.297452 183.902717 
L 357.706421 183.868544 
L 357.910127 183.867779 
L 359.91324 183.862656 
L 364.615463 183.943973 
L 366.296041 184.001009 
L 366.499747 184.003238 
L 367.738961 184.055033 
L 367.942667 184.061345 
L 368.99515 184.105773 
L 369.215832 184.105978 
L 370.166462 184.158499 
L 370.387144 184.161079 
L 371.252896 184.207398 
L 371.473578 184.211705 
L 372.305379 184.25753 
L 372.526061 184.263044 
L 373.323911 184.306241 
L 373.544593 184.312496 
L 374.359419 184.355045 
L 374.580101 184.359461 
L 375.411902 184.405198 
L 375.632584 184.409642 
L 376.379507 184.451111 
L 376.600189 184.455236 
L 377.347112 184.495028 
L 377.567794 184.495625 
L 378.433547 184.544534 
L 378.654228 184.5461 
L 379.452078 184.585981 
L 379.67276 184.587131 
L 380.504562 184.630464 
L 380.725243 184.629999 
L 381.590996 184.671684 
L 381.811678 184.669255 
L 382.728356 184.71069 
L 382.932063 184.716075 
L 383.848741 184.747888 
L 384.052448 184.751026 
L 385.037029 184.781104 
L 385.240735 184.781744 
L 386.378096 184.816461 
L 386.581802 184.814049 
L 387.871943 184.846898 
L 387.922869 184.839217 
L 387.922869 184.839217 
" clip-path="url(#p091515341b)" style="fill: none; stroke: #5ea04b; stroke-width: 1.5; stroke-linecap: square"/>
   </g>
   <g id="line2d_13">
    <path d="M 82.380256 88.649669 
L 83.144155 101.281632 
L 83.195081 100.444746 
L 87.15038 37.239339 
L 87.897304 29.316036 
L 88.593301 24.171608 
L 89.068616 22.100626 
L 89.425102 21.378032 
L 89.679735 21.269984 
L 89.900417 21.437675 
L 90.189001 22.006193 
L 90.49456 23.13428 
L 91.003826 26.085179 
L 91.631921 31.154714 
L 92.412796 39.410154 
L 93.414352 52.56378 
L 97.895893 113.720536 
L 99.389739 129.89195 
L 100.866611 143.516892 
L 102.360458 155.262544 
L 103.939182 165.929583 
L 105.77254 176.768761 
L 108.505601 191.4294 
L 111.442368 206.279986 
L 112.274169 209.055213 
L 112.766459 210.127414 
L 113.190848 210.571317 
L 113.547334 210.654079 
L 113.920795 210.500997 
L 114.362159 210.058077 
L 114.956303 209.113309 
L 115.80508 207.293264 
L 117.349853 203.340993 
L 119.845256 197.064127 
L 121.54281 193.408296 
L 123.13851 190.479912 
L 124.649332 188.156465 
L 126.041326 186.408202 
L 127.331466 185.129994 
L 128.553705 184.220644 
L 129.741992 183.605852 
L 130.947255 183.230922 
L 132.22042 183.071431 
L 134.359337 183.096052 
L 136.022939 183.402373 
L 138.925755 184.208529 
L 142.168082 185.02949 
L 144.544657 185.39716 
L 146.955182 185.542099 
L 148.177421 185.4512 
L 163.845837 184.179227 
L 169.702396 184.232819 
L 184.352281 184.439392 
L 185.302911 183.666726 
L 186.287492 183.149214 
L 187.35695 182.842116 
L 188.579188 182.728875 
L 190.140937 182.82178 
L 192.670292 183.229834 
L 197.593196 184.0227 
L 201.259911 184.356719 
L 205.860281 184.538937 
L 212.8542 184.568661 
L 230.882216 184.589115 
L 251.57539 184.605692 
L 263.237581 184.473321 
L 269.314822 184.232321 
L 273.983094 184.353034 
L 281.927643 184.527097 
L 284.983239 184.403627 
L 290.26263 184.452533 
L 303.775154 184.59224 
L 314.35091 184.717714 
L 314.520666 184.792435 
L 314.792274 184.872962 
L 314.96203 184.938451 
L 315.199687 185.009158 
L 315.386418 185.091032 
L 315.641051 185.154745 
L 317.185824 185.572817 
L 317.35558 185.605724 
L 317.542311 185.664569 
L 317.746017 185.692369 
L 317.915772 185.731752 
L 318.64572 185.870321 
L 318.832451 185.908272 
L 319.273815 185.982473 
L 319.460546 186.024544 
L 319.613326 186.030426 
L 319.800056 186.074316 
L 319.952836 186.083259 
L 320.156543 186.124955 
L 320.343274 186.136141 
L 320.54698 186.177495 
L 320.818588 186.203 
L 321.03927 186.238166 
L 321.327854 186.257396 
L 321.531561 186.293513 
L 321.684341 186.298715 
L 321.921998 186.330425 
L 322.14268 186.341516 
L 322.363362 186.368552 
L 322.584044 186.371508 
L 322.838677 186.406665 
L 323.042383 186.407064 
L 323.313992 186.437623 
L 323.517698 186.445911 
L 323.806282 186.469801 
L 324.009989 186.466813 
L 324.349499 186.495531 
L 324.53623 186.492776 
L 324.892716 186.507868 
L 325.232227 186.522975 
L 325.401982 186.51667 
L 325.826371 186.534493 
L 325.97915 186.532704 
L 326.488416 186.540656 
L 326.658172 186.531412 
L 327.320217 186.539182 
L 327.472997 186.533674 
L 328.593382 186.508249 
L 331.750832 186.321864 
L 332.311024 186.276242 
L 332.463804 186.267092 
L 332.956094 186.220755 
L 333.12585 186.218563 
L 333.584189 186.165572 
L 333.753944 186.15761 
L 334.161357 186.109904 
L 334.348088 186.108681 
L 334.738525 186.05664 
L 334.925256 186.050435 
L 335.298718 185.996165 
L 335.485449 185.985534 
L 335.824959 185.939128 
L 335.994715 185.933062 
L 336.31725 185.888734 
L 336.487005 185.879679 
L 336.80954 185.830106 
L 336.979296 185.818518 
L 337.26788 185.782037 
L 337.437635 185.768247 
L 337.726219 185.728376 
L 337.895974 185.712773 
L 338.184558 185.669841 
L 338.371289 185.66207 
L 338.659873 185.616512 
L 338.846604 185.607234 
L 339.135188 185.559417 
L 339.321919 185.548721 
L 339.593528 185.508578 
L 339.780258 185.496889 
L 340.068843 185.445988 
L 340.255573 185.433684 
L 340.527182 185.391528 
L 340.713913 185.378735 
L 340.985521 185.340376 
L 341.172252 185.327338 
L 341.443861 185.284449 
L 341.630592 185.271387 
L 341.919176 185.230664 
L 342.105906 185.217787 
L 342.377515 185.175645 
L 342.564246 185.163269 
L 342.835854 185.121887 
L 343.022585 185.110178 
L 343.294194 185.069869 
L 343.480925 185.058961 
L 343.769509 185.010698 
L 343.95624 185.000964 
L 344.227848 184.963846 
L 344.414579 184.955278 
L 344.703163 184.910935 
L 344.889894 184.903856 
L 345.195453 184.852936 
L 345.382184 184.847635 
L 345.670768 184.808542 
L 345.840524 184.795134 
L 346.129108 184.758927 
L 346.298863 184.747266 
L 346.587447 184.714241 
L 346.757202 184.704549 
L 347.062762 184.663435 
L 347.232517 184.655725 
L 347.538077 184.621556 
L 347.724808 184.608141 
L 348.047343 184.570578 
L 348.234074 184.560084 
L 348.556609 184.527389 
L 348.74334 184.51961 
L 349.08285 184.484632 
L 349.269581 184.48006 
L 349.643043 184.436975 
L 349.829774 184.435878 
L 350.237187 184.386674 
L 350.423918 184.389414 
L 350.848306 184.342304 
L 351.018061 184.336502 
L 351.425474 184.304472 
L 351.595229 184.302132 
L 352.053569 184.262202 
L 352.223324 184.263984 
L 352.664688 184.221373 
L 352.834443 184.227084 
L 353.309758 184.185406 
L 353.462538 184.181193 
L 353.937853 184.151104 
L 354.090633 184.15062 
L 354.616874 184.120705 
L 354.769654 184.124215 
L 355.414724 184.085279 
L 355.584479 184.090465 
L 356.38233 184.050988 
L 356.535109 184.046451 
L 357.485739 184.017958 
L 357.638519 184.019865 
L 358.96261 183.987352 
L 359.11539 183.99761 
L 361.390112 183.991055 
L 381.26846 184.591698 
L 381.794702 184.614538 
L 381.947482 184.609753 
L 382.52465 184.639935 
L 382.67743 184.63385 
L 383.271573 184.662462 
L 383.424353 184.654956 
L 384.069423 184.68789 
L 384.222203 184.678756 
L 384.9182 184.714268 
L 385.07098 184.703265 
L 385.817903 184.739065 
L 385.970683 184.725952 
L 386.802484 184.765106 
L 386.938288 184.766832 
L 387.719163 184.785592 
L 387.888918 184.771687 
L 387.922869 184.776586 
L 387.922869 184.776586 
" clip-path="url(#p091515341b)" style="fill: none; stroke: #bdab62; stroke-width: 1.5; stroke-linecap: square"/>
   </g>
   <g id="patch_3">
    <path d="M 67.103125 241.036875 
L 67.103125 10.8 
" style="fill: none; stroke: #000000; stroke-width: 0.8; stroke-linejoin: miter; stroke-linecap: square"/>
   </g>
   <g id="patch_4">
    <path d="M 403.2 241.036875 
L 403.2 10.8 
" style="fill: none; stroke: #000000; stroke-width: 0.8; stroke-linejoin: miter; stroke-linecap: square"/>
   </g>
   <g id="patch_5">
    <path d="M 67.103125 241.036875 
L 403.2 241.036875 
" style="fill: none; stroke: #000000; stroke-width: 0.8; stroke-linejoin: miter; stroke-linecap: square"/>
   </g>
   <g id="patch_6">
    <path d="M 67.103125 10.8 
L 403.2 10.8 
" style="fill: none; stroke: #000000; stroke-width: 0.8; stroke-linejoin: miter; stroke-linecap: square"/>
   </g>
   <g id="legend_1">
    <g id="patch_7">
     <path d="M 344.34 236.536875 
L 396.9 236.536875 
Q 398.7 236.536875 398.7 234.736875 
L 398.7 194.871094 
Q 398.7 193.071094 396.9 193.071094 
L 344.34 193.071094 
Q 342.54 193.071094 342.54 194.871094 
L 342.54 234.736875 
Q 342.54 236.536875 344.34 236.536875 
z
" style="fill: #ffffff; opacity: 0.8; stroke: #cccccc; stroke-linejoin: miter"/>
    </g>
    <g id="line2d_14">
     <path d="M 346.14 200.359687 
L 355.14 200.359687 
L 364.14 200.359687 
" style="fill: none; stroke: #2b737e; stroke-width: 1.5; stroke-linecap: square"/>
    </g>
    <g id="text_13">
     <!-- $\omega_{BR,0}$ -->
     <g transform="translate(371.34 203.509687) scale(0.09 -0.09)">
      <defs>
       <path id="DejaVuSans-Oblique-3c9" d="M 1369 -91 
Q 72 -91 434 1766 
Q 575 2500 1256 3500 
L 1875 3500 
Q 1231 2500 1088 1750 
Q 819 397 1519 397 
Q 2166 397 2478 2078 
L 3009 2078 
Q 2669 388 3316 397 
Q 4013 403 4275 1750 
Q 4419 2500 4169 3500 
L 4788 3500 
Q 5075 2500 4934 1766 
Q 4578 -94 3278 -91 
Q 2428 -88 2503 844 
Q 2194 -91 1369 -91 
z
" transform="scale(0.015625)"/>
       <path id="DejaVuSans-Oblique-42" d="M 1081 4666 
L 2694 4666 
Q 3350 4666 3675 4422 
Q 4000 4178 4000 3688 
Q 4000 3238 3720 2911 
Q 3441 2584 2988 2516 
Q 3375 2428 3569 2181 
Q 3763 1934 3763 1522 
Q 3763 819 3242 409 
Q 2722 0 1819 0 
L 172 0 
L 1081 4666 
z
M 1234 2228 
L 903 519 
L 1919 519 
Q 2491 519 2800 781 
Q 3109 1044 3109 1522 
Q 3109 1891 2904 2059 
Q 2700 2228 2247 2228 
L 1234 2228 
z
M 1606 4147 
L 1331 2741 
L 2272 2741 
Q 2775 2741 3058 2959 
Q 3341 3178 3341 3566 
Q 3341 3869 3150 4008 
Q 2959 4147 2541 4147 
L 1606 4147 
z
" transform="scale(0.015625)"/>
       <path id="DejaVuSans-Oblique-52" d="M 1613 4147 
L 1294 2491 
L 2106 2491 
Q 2584 2491 2879 2755 
Q 3175 3019 3175 3444 
Q 3175 3784 2976 3965 
Q 2778 4147 2406 4147 
L 1613 4147 
z
M 2772 2241 
Q 2972 2194 3105 2009 
Q 3238 1825 3413 1275 
L 3809 0 
L 3144 0 
L 2778 1197 
Q 2638 1659 2453 1815 
Q 2269 1972 1888 1972 
L 1191 1972 
L 806 0 
L 172 0 
L 1081 4666 
L 2503 4666 
Q 3150 4666 3495 4373 
Q 3841 4081 3841 3531 
Q 3841 3044 3547 2687 
Q 3253 2331 2772 2241 
z
" transform="scale(0.015625)"/>
       <path id="DejaVuSans-2c" d="M 750 794 
L 1409 794 
L 1409 256 
L 897 -744 
L 494 -744 
L 750 256 
L 750 794 
z
" transform="scale(0.015625)"/>
      </defs>
      <use xlink:href="#DejaVuSans-Oblique-3c9" transform="translate(0 0.3125)"/>
      <use xlink:href="#DejaVuSans-Oblique-42" transform="translate(83.740234 -16.09375) scale(0.7)"/>
      <use xlink:href="#DejaVuSans-Oblique-52" transform="translate(131.762695 -16.09375) scale(0.7)"/>
      <use xlink:href="#DejaVuSans-2c" transform="translate(180.400391 -16.09375) scale(0.7)"/>
      <use xlink:href="#DejaVuSans-30" transform="translate(216.289062 -16.09375) scale(0.7)"/>
     </g>
    </g>
    <g id="line2d_15">
     <path d="M 346.14 213.948281 
L 355.14 213.948281 
L 364.14 213.948281 
" style="fill: none; stroke: #5ea04b; stroke-width: 1.5; stroke-linecap: square"/>
    </g>
    <g id="text_14">
     <!-- $\omega_{BR,1}$ -->
     <g transform="translate(371.34 217.098281) scale(0.09 -0.09)">
      <use xlink:href="#DejaVuSans-Oblique-3c9" transform="translate(0 0.3125)"/>
      <use xlink:href="#DejaVuSans-Oblique-42" transform="translate(83.740234 -16.09375) scale(0.7)"/>
      <use xlink:href="#DejaVuSans-Oblique-52" transform="translate(131.762695 -16.09375) scale(0.7)"/>
      <use xlink:href="#DejaVuSans-2c" transform="translate(180.400391 -16.09375) scale(0.7)"/>
      <use xlink:href="#DejaVuSans-31" transform="translate(216.289062 -16.09375) scale(0.7)"/>
     </g>
    </g>
    <g id="line2d_16">
     <path d="M 346.14 227.536875 
L 355.14 227.536875 
L 364.14 227.536875 
" style="fill: none; stroke: #bdab62; stroke-width: 1.5; stroke-linecap: square"/>
    </g>
    <g id="text_15">
     <!-- $\omega_{BR,2}$ -->
     <g transform="translate(371.34 230.686875) scale(0.09 -0.09)">
      <use xlink:href="#DejaVuSans-Oblique-3c9" transform="translate(0 0.3125)"/>
      <use xlink:href="#DejaVuSans-Oblique-42" transform="translate(83.740234 -16.09375) scale(0.7)"/>
      <use xlink:href="#DejaVuSans-Oblique-52" transform="translate(131.762695 -16.09375) scale(0.7)"/>
      <use xlink:href="#DejaVuSans-2c" transform="translate(180.400391 -16.09375) scale(0.7)"/>
      <use xlink:href="#DejaVuSans-32" transform="translate(216.289062 -16.09375) scale(0.7)"/>
     </g>
    </g>
   </g>
  </g>
 </g>
 <defs>
  <clipPath id="p091515341b">
   <rect x="67.103125" y="10.8" width="336.096875" height="230.236875"/>
  </clipPath>
 </defs>
</svg>
