<?xml version="1.0" encoding="utf-8" standalone="no"?>
<!DOCTYPE svg PUBLIC "-//W3C//DTD SVG 1.1//EN"
  "http://www.w3.org/Graphics/SVG/1.1/DTD/svg11.dtd">
<svg xmlns:xlink="http://www.w3.org/1999/xlink" width="504pt" height="432pt" viewBox="0 0 504 432" xmlns="http://www.w3.org/2000/svg" version="1.1">
 <metadata>
  <rdf:RDF xmlns:dc="http://purl.org/dc/elements/1.1/" xmlns:cc="http://creativecommons.org/ns#" xmlns:rdf="http://www.w3.org/1999/02/22-rdf-syntax-ns#">
   <cc:Work>
    <dc:type rdf:resource="http://purl.org/dc/dcmitype/StillImage"/>
    <dc:date>2026-01-12T23:16:59.461468</dc:date>
    <dc:format>image/svg+xml</dc:format>
    <dc:creator>
     <cc:Agent>
      <dc:title>Matplotlib v3.10.7, https://matplotlib.org/</dc:title>
     </cc:Agent>
    </dc:creator>
   </cc:Work>
  </rdf:RDF>
 </metadata>
 <defs>
  <style type="text/css">*{stroke-linejoin: round; stroke-linecap: butt}</style>
 </defs>
 <g id="figure_1">
  <g id="patch_1">
   <path d="M 0 432 
L 504 432 
L 504 0 
L 0 0 
L 0 432 
z
" style="fill: none"/>
  </g>
  <g id="axes_1">
   <g id="patch_2">
    <path d="M 119.014063 362.623125 
L 465.22125 362.623125 
L 465.22125 21.6 
L 119.014063 21.6 
L 119.014063 362.623125 
z
" style="fill: none"/>
   </g>
   <g id="matplotlib.axis_1">
    <g id="xtick_1">
     <g id="line2d_1">
      <defs>
       <path id="m42b22b27a8" d="M 0 0 
L 0 3.5 
" style="stroke: #000000; stroke-width: 0.8"/>
      </defs>
      <g>
       <use xlink:href="#m42b22b27a8" x="119.014063" y="362.623125" style="stroke: #000000; stroke-width: 0.8"/>
      </g>
     </g>
     <g id="text_1">
      <!-- 0 -->
      <g transform="translate(113.287813 383.300313) scale(0.18 -0.18)">
       <defs>
        <path id="DejaVuSerif-30" d="M 2034 219 
Q 2513 219 2750 744 
Q 2988 1269 2988 2328 
Q 2988 3391 2750 3916 
Q 2513 4441 2034 4441 
Q 1556 4441 1318 3916 
Q 1081 3391 1081 2328 
Q 1081 1269 1318 744 
Q 1556 219 2034 219 
z
M 2034 -91 
Q 1275 -91 848 546 
Q 422 1184 422 2328 
Q 422 3475 848 4112 
Q 1275 4750 2034 4750 
Q 2797 4750 3222 4112 
Q 3647 3475 3647 2328 
Q 3647 1184 3222 546 
Q 2797 -91 2034 -91 
z
" transform="scale(0.015625)"/>
       </defs>
       <use xlink:href="#DejaVuSerif-30"/>
      </g>
     </g>
    </g>
    <g id="xtick_2">
     <g id="line2d_2">
      <g>
       <use xlink:href="#m42b22b27a8" x="176.71526" y="362.623125" style="stroke: #000000; stroke-width: 0.8"/>
      </g>
     </g>
     <g id="text_2">
      <!-- 50 -->
      <g transform="translate(165.26276 383.300313) scale(0.18 -0.18)">
       <defs>
        <path id="DejaVuSerif-35" d="M 3219 4666 
L 3219 4153 
L 1081 4153 
L 1081 2816 
Q 1244 2928 1461 2984 
Q 1678 3041 1947 3041 
Q 2703 3041 3140 2622 
Q 3578 2203 3578 1478 
Q 3578 738 3136 323 
Q 2694 -91 1894 -91 
Q 1572 -91 1234 -12 
Q 897 66 544 225 
L 544 1131 
L 897 1131 
Q 925 688 1179 453 
Q 1434 219 1894 219 
Q 2388 219 2653 544 
Q 2919 869 2919 1478 
Q 2919 2084 2655 2407 
Q 2391 2731 1894 2731 
Q 1613 2731 1398 2631 
Q 1184 2531 1019 2322 
L 750 2322 
L 750 4666 
L 3219 4666 
z
" transform="scale(0.015625)"/>
       </defs>
       <use xlink:href="#DejaVuSerif-35"/>
       <use xlink:href="#DejaVuSerif-30" transform="translate(63.623047 0)"/>
      </g>
     </g>
    </g>
    <g id="xtick_3">
     <g id="line2d_3">
      <g>
       <use xlink:href="#m42b22b27a8" x="234.416458" y="362.623125" style="stroke: #000000; stroke-width: 0.8"/>
      </g>
     </g>
     <g id="text_3">
      <!-- 100 -->
      <g transform="translate(217.237708 383.300313) scale(0.18 -0.18)">
       <defs>
        <path id="DejaVuSerif-31" d="M 909 0 
L 909 331 
L 1722 331 
L 1722 4213 
L 781 3603 
L 781 4013 
L 1919 4750 
L 2350 4750 
L 2350 331 
L 3163 331 
L 3163 0 
L 909 0 
z
" transform="scale(0.015625)"/>
       </defs>
       <use xlink:href="#DejaVuSerif-31"/>
       <use xlink:href="#DejaVuSerif-30" transform="translate(63.623047 0)"/>
       <use xlink:href="#DejaVuSerif-30" transform="translate(127.246094 0)"/>
      </g>
     </g>
    </g>
    <g id="xtick_4">
     <g id="line2d_4">
      <g>
       <use xlink:href="#m42b22b27a8" x="292.117656" y="362.623125" style="stroke: #000000; stroke-width: 0.8"/>
      </g>
     </g>
     <g id="text_4">
      <!-- 150 -->
      <g transform="translate(274.938906 383.300313) scale(0.18 -0.18)">
       <use xlink:href="#DejaVuSerif-31"/>
       <use xlink:href="#DejaVuSerif-35" transform="translate(63.623047 0)"/>
       <use xlink:href="#DejaVuSerif-30" transform="translate(127.246094 0)"/>
      </g>
     </g>
    </g>
    <g id="xtick_5">
     <g id="line2d_5">
      <g>
       <use xlink:href="#m42b22b27a8" x="349.818854" y="362.623125" style="stroke: #000000; stroke-width: 0.8"/>
      </g>
     </g>
     <g id="text_5">
      <!-- 200 -->
      <g transform="translate(332.640104 383.300313) scale(0.18 -0.18)">
       <defs>
        <path id="DejaVuSerif-32" d="M 819 3553 
L 469 3553 
L 469 4384 
Q 803 4563 1142 4656 
Q 1481 4750 1806 4750 
Q 2534 4750 2956 4397 
Q 3378 4044 3378 3438 
Q 3378 2753 2422 1800 
Q 2347 1728 2309 1691 
L 1131 513 
L 3078 513 
L 3078 1088 
L 3444 1088 
L 3444 0 
L 434 0 
L 434 341 
L 1850 1753 
Q 2319 2222 2519 2614 
Q 2719 3006 2719 3438 
Q 2719 3909 2473 4175 
Q 2228 4441 1797 4441 
Q 1350 4441 1106 4219 
Q 863 3997 819 3553 
z
" transform="scale(0.015625)"/>
       </defs>
       <use xlink:href="#DejaVuSerif-32"/>
       <use xlink:href="#DejaVuSerif-30" transform="translate(63.623047 0)"/>
       <use xlink:href="#DejaVuSerif-30" transform="translate(127.246094 0)"/>
      </g>
     </g>
    </g>
    <g id="xtick_6">
     <g id="line2d_6">
      <g>
       <use xlink:href="#m42b22b27a8" x="407.520052" y="362.623125" style="stroke: #000000; stroke-width: 0.8"/>
      </g>
     </g>
     <g id="text_6">
      <!-- 250 -->
      <g transform="translate(390.341302 383.300313) scale(0.18 -0.18)">
       <use xlink:href="#DejaVuSerif-32"/>
       <use xlink:href="#DejaVuSerif-35" transform="translate(63.623047 0)"/>
       <use xlink:href="#DejaVuSerif-30" transform="translate(127.246094 0)"/>
      </g>
     </g>
    </g>
    <g id="xtick_7">
     <g id="line2d_7">
      <g>
       <use xlink:href="#m42b22b27a8" x="465.22125" y="362.623125" style="stroke: #000000; stroke-width: 0.8"/>
      </g>
     </g>
     <g id="text_7">
      <!-- 300 -->
      <g transform="translate(448.0425 383.300313) scale(0.18 -0.18)">
       <defs>
        <path id="DejaVuSerif-33" d="M 622 4469 
Q 988 4606 1323 4678 
Q 1659 4750 1953 4750 
Q 2638 4750 3022 4454 
Q 3406 4159 3406 3634 
Q 3406 3213 3140 2930 
Q 2875 2647 2388 2547 
Q 2963 2466 3280 2130 
Q 3597 1794 3597 1259 
Q 3597 606 3158 257 
Q 2719 -91 1894 -91 
Q 1528 -91 1179 -12 
Q 831 66 488 225 
L 488 1131 
L 838 1131 
Q 869 681 1141 450 
Q 1413 219 1906 219 
Q 2384 219 2661 495 
Q 2938 772 2938 1253 
Q 2938 1803 2653 2086 
Q 2369 2369 1819 2369 
L 1522 2369 
L 1522 2688 
L 1678 2688 
Q 2225 2688 2498 2914 
Q 2772 3141 2772 3597 
Q 2772 4006 2547 4223 
Q 2322 4441 1900 4441 
Q 1478 4441 1245 4241 
Q 1013 4041 972 3647 
L 622 3647 
L 622 4469 
z
" transform="scale(0.015625)"/>
       </defs>
       <use xlink:href="#DejaVuSerif-33"/>
       <use xlink:href="#DejaVuSerif-30" transform="translate(63.623047 0)"/>
       <use xlink:href="#DejaVuSerif-30" transform="translate(127.246094 0)"/>
      </g>
     </g>
    </g>
    <g id="text_8">
     <!-- Time [min] -->
     <g transform="translate(236.744219 406.240625) scale(0.2 -0.2)">
      <defs>
       <path id="DejaVuSerif-54" d="M 1222 0 
L 1222 331 
L 1819 331 
L 1819 4294 
L 447 4294 
L 447 3566 
L 63 3566 
L 63 4666 
L 4206 4666 
L 4206 3566 
L 3822 3566 
L 3822 4294 
L 2450 4294 
L 2450 331 
L 3047 331 
L 3047 0 
L 1222 0 
z
" transform="scale(0.015625)"/>
       <path id="DejaVuSerif-69" d="M 622 4353 
Q 622 4497 726 4603 
Q 831 4709 978 4709 
Q 1122 4709 1226 4603 
Q 1331 4497 1331 4353 
Q 1331 4206 1228 4103 
Q 1125 4000 978 4000 
Q 831 4000 726 4103 
Q 622 4206 622 4353 
z
M 1356 331 
L 1900 331 
L 1900 0 
L 231 0 
L 231 331 
L 781 331 
L 781 2988 
L 231 2988 
L 231 3322 
L 1356 3322 
L 1356 331 
z
" transform="scale(0.015625)"/>
       <path id="DejaVuSerif-6d" d="M 3316 2675 
Q 3481 3041 3739 3227 
Q 3997 3413 4341 3413 
Q 4863 3413 5119 3089 
Q 5375 2766 5375 2113 
L 5375 331 
L 5894 331 
L 5894 0 
L 4300 0 
L 4300 331 
L 4800 331 
L 4800 2047 
Q 4800 2556 4650 2772 
Q 4500 2988 4153 2988 
Q 3769 2988 3567 2697 
Q 3366 2406 3366 1850 
L 3366 331 
L 3866 331 
L 3866 0 
L 2291 0 
L 2291 331 
L 2791 331 
L 2791 2069 
Q 2791 2566 2641 2777 
Q 2491 2988 2144 2988 
Q 1759 2988 1557 2697 
Q 1356 2406 1356 1850 
L 1356 331 
L 1856 331 
L 1856 0 
L 263 0 
L 263 331 
L 781 331 
L 781 2994 
L 231 2994 
L 231 3322 
L 1356 3322 
L 1356 2731 
Q 1516 3063 1762 3238 
Q 2009 3413 2322 3413 
Q 2709 3413 2968 3220 
Q 3228 3028 3316 2675 
z
" transform="scale(0.015625)"/>
       <path id="DejaVuSerif-65" d="M 3469 1600 
L 991 1600 
L 991 1575 
Q 991 903 1244 561 
Q 1497 219 1991 219 
Q 2369 219 2611 417 
Q 2853 616 2950 1006 
L 3413 1006 
Q 3275 459 2904 184 
Q 2534 -91 1931 -91 
Q 1203 -91 761 389 
Q 319 869 319 1663 
Q 319 2450 753 2931 
Q 1188 3413 1894 3413 
Q 2647 3413 3050 2948 
Q 3453 2484 3469 1600 
z
M 2791 1931 
Q 2772 2513 2545 2808 
Q 2319 3103 1894 3103 
Q 1497 3103 1269 2806 
Q 1041 2509 991 1931 
L 2791 1931 
z
" transform="scale(0.015625)"/>
       <path id="DejaVuSerif-20" transform="scale(0.015625)"/>
       <path id="DejaVuSerif-5b" d="M 550 4863 
L 2003 4863 
L 2003 4531 
L 1147 4531 
L 1147 -513 
L 2003 -513 
L 2003 -844 
L 550 -844 
L 550 4863 
z
" transform="scale(0.015625)"/>
       <path id="DejaVuSerif-6e" d="M 263 0 
L 263 331 
L 781 331 
L 781 2988 
L 231 2988 
L 231 3322 
L 1356 3322 
L 1356 2731 
Q 1516 3069 1770 3241 
Q 2025 3413 2363 3413 
Q 2913 3413 3172 3097 
Q 3431 2781 3431 2113 
L 3431 331 
L 3944 331 
L 3944 0 
L 2356 0 
L 2356 331 
L 2853 331 
L 2853 1931 
Q 2853 2541 2703 2767 
Q 2553 2994 2175 2994 
Q 1775 2994 1565 2701 
Q 1356 2409 1356 1850 
L 1356 331 
L 1856 331 
L 1856 0 
L 263 0 
z
" transform="scale(0.015625)"/>
       <path id="DejaVuSerif-5d" d="M 1947 4863 
L 1947 -844 
L 494 -844 
L 494 -513 
L 1350 -513 
L 1350 4531 
L 494 4531 
L 494 4863 
L 1947 4863 
z
" transform="scale(0.015625)"/>
      </defs>
      <use xlink:href="#DejaVuSerif-54"/>
      <use xlink:href="#DejaVuSerif-69" transform="translate(66.699219 0)"/>
      <use xlink:href="#DejaVuSerif-6d" transform="translate(98.681641 0)"/>
      <use xlink:href="#DejaVuSerif-65" transform="translate(193.505859 0)"/>
      <use xlink:href="#DejaVuSerif-20" transform="translate(252.685547 0)"/>
      <use xlink:href="#DejaVuSerif-5b" transform="translate(284.472656 0)"/>
      <use xlink:href="#DejaVuSerif-6d" transform="translate(323.486328 0)"/>
      <use xlink:href="#DejaVuSerif-69" transform="translate(418.310547 0)"/>
      <use xlink:href="#DejaVuSerif-6e" transform="translate(450.292969 0)"/>
      <use xlink:href="#DejaVuSerif-5d" transform="translate(514.697266 0)"/>
     </g>
    </g>
   </g>
   <g id="matplotlib.axis_2">
    <g id="ytick_1">
     <g id="line2d_8">
      <defs>
       <path id="m4a9d23d913" d="M 0 0 
L -3.5 0 
" style="stroke: #000000; stroke-width: 0.8"/>
      </defs>
      <g>
       <use xlink:href="#m4a9d23d913" x="119.014063" y="340.471336" style="stroke: #000000; stroke-width: 0.8"/>
      </g>
     </g>
     <g id="text_9">
      <!-- −0.035 -->
      <g transform="translate(45.4 347.309929) scale(0.18 -0.18)">
       <defs>
        <path id="DejaVuSerif-2212" d="M 678 2259 
L 4684 2259 
L 4684 1753 
L 678 1753 
L 678 2259 
z
" transform="scale(0.015625)"/>
        <path id="DejaVuSerif-2e" d="M 603 325 
Q 603 500 722 622 
Q 841 744 1019 744 
Q 1191 744 1312 622 
Q 1434 500 1434 325 
Q 1434 153 1312 31 
Q 1191 -91 1019 -91 
Q 841 -91 722 29 
Q 603 150 603 325 
z
" transform="scale(0.015625)"/>
       </defs>
       <use xlink:href="#DejaVuSerif-2212"/>
       <use xlink:href="#DejaVuSerif-30" transform="translate(83.789062 0)"/>
       <use xlink:href="#DejaVuSerif-2e" transform="translate(147.412109 0)"/>
       <use xlink:href="#DejaVuSerif-30" transform="translate(179.199219 0)"/>
       <use xlink:href="#DejaVuSerif-33" transform="translate(242.822266 0)"/>
       <use xlink:href="#DejaVuSerif-35" transform="translate(306.445312 0)"/>
      </g>
     </g>
    </g>
    <g id="ytick_2">
     <g id="line2d_9">
      <g>
       <use xlink:href="#m4a9d23d913" x="119.014063" y="299.825871" style="stroke: #000000; stroke-width: 0.8"/>
      </g>
     </g>
     <g id="text_10">
      <!-- −0.030 -->
      <g transform="translate(45.4 306.664464) scale(0.18 -0.18)">
       <use xlink:href="#DejaVuSerif-2212"/>
       <use xlink:href="#DejaVuSerif-30" transform="translate(83.789062 0)"/>
       <use xlink:href="#DejaVuSerif-2e" transform="translate(147.412109 0)"/>
       <use xlink:href="#DejaVuSerif-30" transform="translate(179.199219 0)"/>
       <use xlink:href="#DejaVuSerif-33" transform="translate(242.822266 0)"/>
       <use xlink:href="#DejaVuSerif-30" transform="translate(306.445312 0)"/>
      </g>
     </g>
    </g>
    <g id="ytick_3">
     <g id="line2d_10">
      <g>
       <use xlink:href="#m4a9d23d913" x="119.014063" y="259.180406" style="stroke: #000000; stroke-width: 0.8"/>
      </g>
     </g>
     <g id="text_11">
      <!-- −0.025 -->
      <g transform="translate(45.4 266.018999) scale(0.18 -0.18)">
       <use xlink:href="#DejaVuSerif-2212"/>
       <use xlink:href="#DejaVuSerif-30" transform="translate(83.789062 0)"/>
       <use xlink:href="#DejaVuSerif-2e" transform="translate(147.412109 0)"/>
       <use xlink:href="#DejaVuSerif-30" transform="translate(179.199219 0)"/>
       <use xlink:href="#DejaVuSerif-32" transform="translate(242.822266 0)"/>
       <use xlink:href="#DejaVuSerif-35" transform="translate(306.445312 0)"/>
      </g>
     </g>
    </g>
    <g id="ytick_4">
     <g id="line2d_11">
      <g>
       <use xlink:href="#m4a9d23d913" x="119.014063" y="218.534941" style="stroke: #000000; stroke-width: 0.8"/>
      </g>
     </g>
     <g id="text_12">
      <!-- −0.020 -->
      <g transform="translate(45.4 225.373534) scale(0.18 -0.18)">
       <use xlink:href="#DejaVuSerif-2212"/>
       <use xlink:href="#DejaVuSerif-30" transform="translate(83.789062 0)"/>
       <use xlink:href="#DejaVuSerif-2e" transform="translate(147.412109 0)"/>
       <use xlink:href="#DejaVuSerif-30" transform="translate(179.199219 0)"/>
       <use xlink:href="#DejaVuSerif-32" transform="translate(242.822266 0)"/>
       <use xlink:href="#DejaVuSerif-30" transform="translate(306.445312 0)"/>
      </g>
     </g>
    </g>
    <g id="ytick_5">
     <g id="line2d_12">
      <g>
       <use xlink:href="#m4a9d23d913" x="119.014063" y="177.889476" style="stroke: #000000; stroke-width: 0.8"/>
      </g>
     </g>
     <g id="text_13">
      <!-- −0.015 -->
      <g transform="translate(45.4 184.728069) scale(0.18 -0.18)">
       <use xlink:href="#DejaVuSerif-2212"/>
       <use xlink:href="#DejaVuSerif-30" transform="translate(83.789062 0)"/>
       <use xlink:href="#DejaVuSerif-2e" transform="translate(147.412109 0)"/>
       <use xlink:href="#DejaVuSerif-30" transform="translate(179.199219 0)"/>
       <use xlink:href="#DejaVuSerif-31" transform="translate(242.822266 0)"/>
       <use xlink:href="#DejaVuSerif-35" transform="translate(306.445312 0)"/>
      </g>
     </g>
    </g>
    <g id="ytick_6">
     <g id="line2d_13">
      <g>
       <use xlink:href="#m4a9d23d913" x="119.014063" y="137.244011" style="stroke: #000000; stroke-width: 0.8"/>
      </g>
     </g>
     <g id="text_14">
      <!-- −0.010 -->
      <g transform="translate(45.4 144.082604) scale(0.18 -0.18)">
       <use xlink:href="#DejaVuSerif-2212"/>
       <use xlink:href="#DejaVuSerif-30" transform="translate(83.789062 0)"/>
       <use xlink:href="#DejaVuSerif-2e" transform="translate(147.412109 0)"/>
       <use xlink:href="#DejaVuSerif-30" transform="translate(179.199219 0)"/>
       <use xlink:href="#DejaVuSerif-31" transform="translate(242.822266 0)"/>
       <use xlink:href="#DejaVuSerif-30" transform="translate(306.445312 0)"/>
      </g>
     </g>
    </g>
    <g id="ytick_7">
     <g id="line2d_14">
      <g>
       <use xlink:href="#m4a9d23d913" x="119.014063" y="96.598546" style="stroke: #000000; stroke-width: 0.8"/>
      </g>
     </g>
     <g id="text_15">
      <!-- −0.005 -->
      <g transform="translate(45.4 103.437139) scale(0.18 -0.18)">
       <use xlink:href="#DejaVuSerif-2212"/>
       <use xlink:href="#DejaVuSerif-30" transform="translate(83.789062 0)"/>
       <use xlink:href="#DejaVuSerif-2e" transform="translate(147.412109 0)"/>
       <use xlink:href="#DejaVuSerif-30" transform="translate(179.199219 0)"/>
       <use xlink:href="#DejaVuSerif-30" transform="translate(242.822266 0)"/>
       <use xlink:href="#DejaVuSerif-35" transform="translate(306.445312 0)"/>
      </g>
     </g>
    </g>
    <g id="ytick_8">
     <g id="line2d_15">
      <g>
       <use xlink:href="#m4a9d23d913" x="119.014063" y="55.953081" style="stroke: #000000; stroke-width: 0.8"/>
      </g>
     </g>
     <g id="text_16">
      <!-- 0.000 -->
      <g transform="translate(60.483438 62.791674) scale(0.18 -0.18)">
       <use xlink:href="#DejaVuSerif-30"/>
       <use xlink:href="#DejaVuSerif-2e" transform="translate(63.623047 0)"/>
       <use xlink:href="#DejaVuSerif-30" transform="translate(95.410156 0)"/>
       <use xlink:href="#DejaVuSerif-30" transform="translate(159.033203 0)"/>
       <use xlink:href="#DejaVuSerif-30" transform="translate(222.65625 0)"/>
      </g>
     </g>
    </g>
    <g id="text_17">
     <!-- Attitude Error $\sigma_{B/R}$ -->
     <g transform="translate(36.8 285.911563) rotate(-90) scale(0.2 -0.2)">
      <defs>
       <path id="DejaVuSerif-41" d="M 1281 1691 
L 2994 1691 
L 2138 3909 
L 1281 1691 
z
M -38 0 
L -38 331 
L 372 331 
L 2034 4666 
L 2559 4666 
L 4225 331 
L 4684 331 
L 4684 0 
L 2988 0 
L 2988 331 
L 3506 331 
L 3116 1356 
L 1153 1356 
L 763 331 
L 1275 331 
L 1275 0 
L -38 0 
z
" transform="scale(0.015625)"/>
       <path id="DejaVuSerif-74" d="M 691 2988 
L 184 2988 
L 184 3322 
L 691 3322 
L 691 4353 
L 1269 4353 
L 1269 3322 
L 2350 3322 
L 2350 2988 
L 1269 2988 
L 1269 878 
Q 1269 456 1350 337 
Q 1431 219 1650 219 
Q 1875 219 1978 351 
Q 2081 484 2088 781 
L 2522 781 
Q 2497 328 2275 118 
Q 2053 -91 1600 -91 
Q 1103 -91 897 129 
Q 691 350 691 878 
L 691 2988 
z
" transform="scale(0.015625)"/>
       <path id="DejaVuSerif-75" d="M 2266 3322 
L 3341 3322 
L 3341 331 
L 3884 331 
L 3884 0 
L 2766 0 
L 2766 588 
Q 2606 256 2353 82 
Q 2100 -91 1766 -91 
Q 1213 -91 952 223 
Q 691 538 691 1209 
L 691 2988 
L 172 2988 
L 172 3322 
L 1269 3322 
L 1269 1388 
Q 1269 781 1417 556 
Q 1566 331 1947 331 
Q 2347 331 2556 625 
Q 2766 919 2766 1478 
L 2766 2988 
L 2266 2988 
L 2266 3322 
z
" transform="scale(0.015625)"/>
       <path id="DejaVuSerif-64" d="M 3359 331 
L 3909 331 
L 3909 0 
L 2784 0 
L 2784 519 
Q 2616 206 2355 57 
Q 2094 -91 1709 -91 
Q 1097 -91 708 395 
Q 319 881 319 1663 
Q 319 2444 706 2928 
Q 1094 3413 1709 3413 
Q 2094 3413 2355 3264 
Q 2616 3116 2784 2803 
L 2784 4531 
L 2241 4531 
L 2241 4863 
L 3359 4863 
L 3359 331 
z
M 2784 1497 
L 2784 1825 
Q 2784 2422 2554 2737 
Q 2325 3053 1888 3053 
Q 1444 3053 1217 2703 
Q 991 2353 991 1663 
Q 991 975 1217 622 
Q 1444 269 1888 269 
Q 2325 269 2554 583 
Q 2784 897 2784 1497 
z
" transform="scale(0.015625)"/>
       <path id="DejaVuSerif-45" d="M 353 0 
L 353 331 
L 947 331 
L 947 4331 
L 353 4331 
L 353 4666 
L 4109 4666 
L 4109 3628 
L 3725 3628 
L 3725 4281 
L 1581 4281 
L 1581 2719 
L 3109 2719 
L 3109 3303 
L 3494 3303 
L 3494 1753 
L 3109 1753 
L 3109 2338 
L 1581 2338 
L 1581 384 
L 3775 384 
L 3775 1038 
L 4159 1038 
L 4159 0 
L 353 0 
z
" transform="scale(0.015625)"/>
       <path id="DejaVuSerif-72" d="M 3059 3328 
L 3059 2497 
L 2728 2497 
Q 2713 2744 2591 2866 
Q 2469 2988 2234 2988 
Q 1809 2988 1582 2694 
Q 1356 2400 1356 1850 
L 1356 331 
L 2022 331 
L 2022 0 
L 263 0 
L 263 331 
L 781 331 
L 781 2994 
L 231 2994 
L 231 3322 
L 1356 3322 
L 1356 2731 
Q 1525 3078 1790 3245 
Q 2056 3413 2438 3413 
Q 2578 3413 2733 3391 
Q 2888 3369 3059 3328 
z
" transform="scale(0.015625)"/>
       <path id="DejaVuSerif-6f" d="M 1925 219 
Q 2388 219 2623 584 
Q 2859 950 2859 1663 
Q 2859 2375 2623 2739 
Q 2388 3103 1925 3103 
Q 1463 3103 1227 2739 
Q 991 2375 991 1663 
Q 991 950 1228 584 
Q 1466 219 1925 219 
z
M 1925 -91 
Q 1200 -91 759 389 
Q 319 869 319 1663 
Q 319 2456 758 2934 
Q 1197 3413 1925 3413 
Q 2653 3413 3092 2934 
Q 3531 2456 3531 1663 
Q 3531 869 3092 389 
Q 2653 -91 1925 -91 
z
" transform="scale(0.015625)"/>
       <path id="DejaVuSans-Oblique-3c3" d="M 2219 3044 
Q 1744 3044 1422 2700 
Q 1081 2341 969 1747 
Q 844 1119 1044 756 
Q 1241 397 1706 397 
Q 2166 397 2503 759 
Q 2844 1122 2966 1747 
Q 3075 2319 2881 2700 
Q 2700 3044 2219 3044 
z
M 2309 3503 
L 4219 3500 
L 4106 2925 
L 3463 2925 
Q 3706 2438 3575 1747 
Q 3406 888 2884 400 
Q 2359 -91 1609 -91 
Q 856 -91 525 400 
Q 194 888 363 1747 
Q 528 2609 1050 3097 
Q 1484 3503 2309 3503 
z
" transform="scale(0.015625)"/>
       <path id="DejaVuSans-Oblique-42" d="M 1081 4666 
L 2694 4666 
Q 3350 4666 3675 4422 
Q 4000 4178 4000 3688 
Q 4000 3238 3720 2911 
Q 3441 2584 2988 2516 
Q 3375 2428 3569 2181 
Q 3763 1934 3763 1522 
Q 3763 819 3242 409 
Q 2722 0 1819 0 
L 172 0 
L 1081 4666 
z
M 1234 2228 
L 903 519 
L 1919 519 
Q 2491 519 2800 781 
Q 3109 1044 3109 1522 
Q 3109 1891 2904 2059 
Q 2700 2228 2247 2228 
L 1234 2228 
z
M 1606 4147 
L 1331 2741 
L 2272 2741 
Q 2775 2741 3058 2959 
Q 3341 3178 3341 3566 
Q 3341 3869 3150 4008 
Q 2959 4147 2541 4147 
L 1606 4147 
z
" transform="scale(0.015625)"/>
       <path id="DejaVuSans-2f" d="M 1625 4666 
L 2156 4666 
L 531 -594 
L 0 -594 
L 1625 4666 
z
" transform="scale(0.015625)"/>
       <path id="DejaVuSans-Oblique-52" d="M 1613 4147 
L 1294 2491 
L 2106 2491 
Q 2584 2491 2879 2755 
Q 3175 3019 3175 3444 
Q 3175 3784 2976 3965 
Q 2778 4147 2406 4147 
L 1613 4147 
z
M 2772 2241 
Q 2972 2194 3105 2009 
Q 3238 1825 3413 1275 
L 3809 0 
L 3144 0 
L 2778 1197 
Q 2638 1659 2453 1815 
Q 2269 1972 1888 1972 
L 1191 1972 
L 806 0 
L 172 0 
L 1081 4666 
L 2503 4666 
Q 3150 4666 3495 4373 
Q 3841 4081 3841 3531 
Q 3841 3044 3547 2687 
Q 3253 2331 2772 2241 
z
" transform="scale(0.015625)"/>
      </defs>
      <use xlink:href="#DejaVuSerif-41" transform="translate(0 0.015625)"/>
      <use xlink:href="#DejaVuSerif-74" transform="translate(72.216797 0.015625)"/>
      <use xlink:href="#DejaVuSerif-74" transform="translate(112.402344 0.015625)"/>
      <use xlink:href="#DejaVuSerif-69" transform="translate(152.587891 0.015625)"/>
      <use xlink:href="#DejaVuSerif-74" transform="translate(184.570312 0.015625)"/>
      <use xlink:href="#DejaVuSerif-75" transform="translate(224.755859 0.015625)"/>
      <use xlink:href="#DejaVuSerif-64" transform="translate(289.160156 0.015625)"/>
      <use xlink:href="#DejaVuSerif-65" transform="translate(353.173828 0.015625)"/>
      <use xlink:href="#DejaVuSerif-20" transform="translate(412.353516 0.015625)"/>
      <use xlink:href="#DejaVuSerif-45" transform="translate(444.140625 0.015625)"/>
      <use xlink:href="#DejaVuSerif-72" transform="translate(517.138672 0.015625)"/>
      <use xlink:href="#DejaVuSerif-72" transform="translate(564.941406 0.015625)"/>
      <use xlink:href="#DejaVuSerif-6f" transform="translate(612.744141 0.015625)"/>
      <use xlink:href="#DejaVuSerif-72" transform="translate(672.949219 0.015625)"/>
      <use xlink:href="#DejaVuSerif-20" transform="translate(720.751953 0.015625)"/>
      <use xlink:href="#DejaVuSans-Oblique-3c3" transform="translate(752.539062 0.015625)"/>
      <use xlink:href="#DejaVuSans-Oblique-42" transform="translate(815.917969 -16.390625) scale(0.7)"/>
      <use xlink:href="#DejaVuSans-2f" transform="translate(863.94043 -16.390625) scale(0.7)"/>
      <use xlink:href="#DejaVuSans-Oblique-52" transform="translate(886.299414 -16.390625) scale(0.7)"/>
     </g>
    </g>
   </g>
   <g id="line2d_16">
    <path d="M 119.014063 55.953081 
L 134.016374 55.974016 
L 134.247179 56.166241 
L 135.170398 56.166241 
L 135.401203 56.576397 
L 136.324422 56.576397 
L 136.439824 57.197214 
L 137.478446 57.197214 
L 137.593848 58.020466 
L 138.63247 58.020466 
L 138.747872 59.037012 
L 139.786494 59.037012 
L 139.901896 60.236849 
L 140.940518 60.236849 
L 141.05592 61.609157 
L 142.094542 61.609157 
L 142.209944 63.142362 
L 143.248566 63.142362 
L 143.363968 64.824182 
L 144.40259 64.824182 
L 144.517992 66.641692 
L 145.556614 66.641692 
L 145.672016 68.581378 
L 146.710638 68.581378 
L 146.82604 70.629202 
L 147.864661 70.629202 
L 147.980064 72.770659 
L 149.018685 72.770659 
L 149.134088 74.990842 
L 150.172709 74.990842 
L 150.288112 77.274502 
L 151.326733 77.274502 
L 151.442136 79.606113 
L 152.480757 79.606113 
L 152.59616 81.969932 
L 153.634781 81.969932 
L 153.750184 84.350062 
L 154.788805 84.350062 
L 154.904208 86.730514 
L 155.942829 86.730514 
L 156.058232 89.095265 
L 157.096853 89.095265 
L 157.212256 91.42832 
L 158.250877 91.42832 
L 158.366279 93.713769 
L 159.404901 93.713769 
L 159.520303 95.93584 
L 160.558925 95.93584 
L 160.674327 98.078959 
L 161.712949 98.078959 
L 161.828351 100.1278 
L 162.866973 100.1278 
L 162.982375 102.067333 
L 164.020997 102.067333 
L 164.136399 103.882876 
L 165.175021 103.882876 
L 165.290423 105.560137 
L 166.329045 105.560137 
L 166.444447 107.085262 
L 167.483069 107.085262 
L 167.598471 108.415352 
L 168.637093 108.415352 
L 168.752495 109.48602 
L 169.791117 109.48602 
L 169.906519 110.246044 
L 170.945141 110.246044 
L 171.060543 110.662875 
L 173.253189 110.725888 
L 173.483993 110.440581 
L 174.407213 110.440581 
L 174.522615 109.8228 
L 175.561236 109.8228 
L 175.676639 108.894458 
L 176.71526 108.894458 
L 176.830663 107.680398 
L 177.869284 107.680398 
L 177.984687 106.206173 
L 179.023308 106.206173 
L 179.138711 104.496497 
L 180.177332 104.496497 
L 180.292735 102.574246 
L 181.331356 102.574246 
L 181.446759 100.459841 
L 182.48538 100.459841 
L 182.600783 98.170931 
L 183.639404 98.170931 
L 183.754807 95.722293 
L 184.793428 95.722293 
L 184.908831 93.12811 
L 185.947452 93.12811 
L 186.062854 90.456634 
L 187.101476 90.456634 
L 187.216878 87.810364 
L 188.2555 87.810364 
L 188.370902 85.255747 
L 189.409524 85.255747 
L 189.524926 82.831902 
L 190.563548 82.831902 
L 190.67895 80.559345 
L 191.717572 80.559345 
L 191.832974 78.446919 
L 192.871596 78.446919 
L 192.986998 76.495391 
L 194.02562 76.495391 
L 194.141022 74.699121 
L 195.179644 74.699121 
L 195.295046 73.050209 
L 196.333668 73.050209 
L 196.44907 71.541639 
L 197.487692 71.541639 
L 197.603094 70.166551 
L 198.641716 70.166551 
L 198.757118 68.915413 
L 199.79574 68.915413 
L 199.911142 67.776478 
L 200.949764 67.776478 
L 201.065166 66.738474 
L 202.103788 66.738474 
L 202.21919 65.790814 
L 203.257811 65.790814 
L 203.373214 64.923729 
L 204.411835 64.923729 
L 204.527238 64.128335 
L 205.565859 64.128335 
L 205.681262 63.396641 
L 206.719883 63.396641 
L 206.835286 62.721634 
L 207.873907 62.721634 
L 207.98931 62.09769 
L 209.027931 62.09769 
L 209.143334 61.520679 
L 210.181955 61.520679 
L 210.297358 60.987494 
L 211.335979 60.987494 
L 211.451382 60.495606 
L 212.490003 60.495606 
L 212.605406 60.042786 
L 213.644027 60.042786 
L 213.759429 59.62694 
L 214.798051 59.62694 
L 215.028856 59.246027 
L 215.952075 59.246027 
L 216.18288 58.898014 
L 217.106099 58.898014 
L 217.336904 58.580874 
L 218.260123 58.580874 
L 218.490928 58.292585 
L 219.414147 58.292585 
L 219.644952 58.031151 
L 220.568171 58.031151 
L 220.798976 57.794615 
L 221.722195 57.794615 
L 221.953 57.581079 
L 222.876219 57.581079 
L 223.107024 57.388714 
L 224.030243 57.388714 
L 224.261048 57.215777 
L 225.184267 57.215777 
L 225.415071 57.060614 
L 226.338291 57.060614 
L 226.569095 56.921671 
L 227.492315 56.921671 
L 227.723119 56.79749 
L 229.800363 56.686716 
L 230.031167 56.588093 
L 232.10841 56.500459 
L 232.339215 56.422748 
L 234.416458 56.353978 
L 234.762666 56.293255 
L 237.87853 56.192743 
L 238.224737 56.151532 
L 242.494626 56.056856 
L 243.071638 56.033264 
L 250.572794 56.085131 
L 250.688196 58.184311 
L 251.726818 58.184311 
L 251.84222 60.234372 
L 252.880842 60.234372 
L 252.996244 62.225831 
L 254.034866 62.225831 
L 254.150268 64.149332 
L 255.18889 64.149332 
L 255.304292 65.995666 
L 256.342914 65.995666 
L 256.458316 67.755796 
L 257.496938 67.755796 
L 257.61234 69.420879 
L 258.650961 69.420879 
L 258.766364 70.982288 
L 259.804985 70.982288 
L 259.920388 72.431632 
L 260.959009 72.431632 
L 261.074412 73.760773 
L 262.113033 73.760773 
L 262.228436 74.961848 
L 263.267057 74.961848 
L 263.38246 76.02728 
L 264.421081 76.02728 
L 264.536484 76.949798 
L 265.575105 76.949798 
L 265.690508 77.722347 
L 266.729129 77.722347 
L 266.844532 78.336912 
L 267.883153 78.336912 
L 267.998556 78.786973 
L 269.037177 78.786973 
L 269.267982 79.069667 
L 270.191201 79.069667 
L 270.422006 79.185184 
L 272.499249 79.136223 
L 272.730054 78.927522 
L 273.653273 78.927522 
L 273.884078 78.565442 
L 274.807297 78.565442 
L 274.922699 78.057614 
L 275.961321 78.057614 
L 276.076723 77.412629 
L 277.115345 77.412629 
L 277.230747 76.639777 
L 278.269369 76.639777 
L 278.384771 75.748825 
L 279.423393 75.748825 
L 279.538795 74.749835 
L 280.577417 74.749835 
L 280.692819 73.653007 
L 281.731441 73.653007 
L 281.846843 72.468556 
L 282.885465 72.468556 
L 283.000867 71.206616 
L 284.039489 71.206616 
L 284.154891 69.877155 
L 285.193512 69.877155 
L 285.308915 68.489918 
L 286.347536 68.489918 
L 286.462939 67.054386 
L 287.50156 67.054386 
L 287.616963 65.579739 
L 288.655584 65.579739 
L 288.770987 64.074839 
L 289.809608 64.074839 
L 289.925011 62.54822 
L 290.963632 62.54822 
L 291.079035 61.008085 
L 292.117656 61.008085 
L 292.233059 59.462309 
L 293.27168 59.462309 
L 293.387083 57.918446 
L 294.425704 57.918446 
L 294.541107 56.383743 
L 295.579728 56.383743 
L 295.695131 54.865153 
L 296.733752 54.865153 
L 296.849154 53.369351 
L 297.887776 53.369351 
L 298.003178 51.902758 
L 299.0418 51.902758 
L 299.157202 50.47155 
L 300.195824 50.47155 
L 300.311226 49.081687 
L 301.349848 49.081687 
L 301.46525 47.738927 
L 302.503872 47.738927 
L 302.619274 46.448846 
L 303.657896 46.448846 
L 303.773298 45.216857 
L 304.81192 45.216857 
L 304.927322 44.04823 
L 305.965944 44.04823 
L 306.081346 42.948105 
L 307.119968 42.948105 
L 307.23537 41.921513 
L 308.273992 41.921513 
L 308.389394 40.973387 
L 309.428016 40.973387 
L 309.543418 40.10858 
L 310.58204 40.10858 
L 310.697442 39.331879 
L 311.736064 39.331879 
L 311.851466 38.648015 
L 312.890088 38.648015 
L 313.00549 38.061677 
L 314.044111 38.061677 
L 314.159514 37.577525 
L 315.198135 37.577525 
L 315.42894 37.233914 
L 316.352159 37.233914 
L 316.582964 37.101051 
L 317.506183 37.101051 
L 317.736988 37.239475 
L 318.660207 37.239475 
L 318.77561 37.695635 
L 319.814231 37.695635 
L 319.929634 38.504121 
L 320.968255 38.504121 
L 321.083658 39.613047 
L 322.122279 39.613047 
L 322.237682 40.903819 
L 323.276303 40.903819 
L 323.391706 42.285813 
L 324.430327 42.285813 
L 324.545729 43.716059 
L 325.584351 43.716059 
L 325.699753 45.188186 
L 326.738375 45.188186 
L 326.853777 46.696705 
L 327.892399 46.696705 
L 328.007801 48.233916 
L 329.046423 48.233916 
L 329.161825 49.790493 
L 330.200447 49.790493 
L 330.315849 51.355971 
L 331.354471 51.355971 
L 331.469873 52.919153 
L 332.508495 52.919153 
L 332.623897 54.468442 
L 333.662519 54.468442 
L 333.777921 55.992112 
L 334.816543 55.992112 
L 334.931945 57.478526 
L 335.970567 57.478526 
L 336.085969 58.916312 
L 337.124591 58.916312 
L 337.239993 60.29449 
L 338.278615 60.29449 
L 338.394017 61.602583 
L 339.432639 61.602583 
L 339.548041 62.830682 
L 340.586663 62.830682 
L 340.702065 63.969506 
L 341.740686 63.969506 
L 341.856089 65.010426 
L 342.89471 65.010426 
L 343.010113 65.945487 
L 344.048734 65.945487 
L 344.164137 66.76741 
L 345.202758 66.76741 
L 345.318161 67.469585 
L 346.356782 67.469585 
L 346.472185 68.046057 
L 347.510806 68.046057 
L 347.626209 68.491503 
L 348.66483 68.491503 
L 348.895635 68.801211 
L 349.818854 68.801211 
L 350.049659 68.971044 
L 353.280926 68.877234 
L 353.511731 68.607914 
L 354.43495 68.607914 
L 354.550352 68.187293 
L 355.588974 68.187293 
L 355.704376 67.626685 
L 356.742998 67.626685 
L 356.8584 66.964182 
L 357.897022 66.964182 
L 358.012424 66.244955 
L 359.051046 66.244955 
L 359.166448 65.502404 
L 360.20507 65.502404 
L 360.320472 64.760675 
L 361.359094 64.760675 
L 361.474496 64.036727 
L 362.513118 64.036727 
L 362.62852 63.342016 
L 363.667142 63.342016 
L 363.782544 62.683844 
L 364.821166 62.683844 
L 364.936568 62.066418 
L 365.97519 62.066418 
L 366.090592 61.460759 
L 367.129214 61.460759 
L 367.244616 60.833696 
L 368.283238 60.833696 
L 368.39864 60.218018 
L 369.437261 60.218018 
L 369.552664 59.641169 
L 370.591285 59.641169 
L 370.706688 59.11985 
L 371.745309 59.11985 
L 371.860712 58.662314 
L 372.899333 58.662314 
L 373.130138 58.270736 
L 374.053357 58.270736 
L 374.284162 57.942569 
L 375.207381 57.942569 
L 375.438186 57.671963 
L 376.361405 57.671963 
L 376.59221 57.45145 
L 377.515429 57.45145 
L 377.746234 57.273179 
L 378.669453 57.273179 
L 378.900258 57.129644 
L 379.823477 57.129644 
L 380.054282 57.014069 
L 382.131525 56.920586 
L 382.36233 56.844265 
L 384.439573 56.781073 
L 384.78578 56.72778 
L 387.901645 56.641352 
L 388.363254 56.604811 
L 392.517741 56.509649 
L 392.97935 56.480903 
L 398.28786 56.374814 
L 398.864872 56.350256 
L 405.212004 56.23999 
L 405.904419 56.220618 
L 414.444196 56.110666 
L 415.713622 56.086996 
L 438.678699 55.976194 
L 444.910428 55.96537 
L 465.22125 55.954641 
L 465.22125 55.954641 
" clip-path="url(#pafb1dbbfac)" style="fill: none; stroke: #2b737e; stroke-width: 1.5; stroke-linecap: square"/>
   </g>
   <g id="line2d_17">
    <path d="M 119.014063 55.953081 
L 135.170398 55.90652 
L 135.401203 55.8298 
L 137.478446 55.733197 
L 137.709251 55.631371 
L 139.786494 55.538369 
L 140.017299 55.467573 
L 144.40259 55.511358 
L 144.633394 55.648425 
L 145.556614 55.648425 
L 145.787418 55.863201 
L 146.710638 55.863201 
L 146.941442 56.16427 
L 147.864661 56.16427 
L 148.095466 56.559315 
L 149.018685 56.559315 
L 149.134088 57.055103 
L 150.172709 57.055103 
L 150.288112 57.657472 
L 151.326733 57.657472 
L 151.442136 58.371314 
L 152.480757 58.371314 
L 152.59616 59.20058 
L 153.634781 59.20058 
L 153.750184 60.148268 
L 154.788805 60.148268 
L 154.904208 61.21643 
L 155.942829 61.21643 
L 156.058232 62.406178 
L 157.096853 62.406178 
L 157.212256 63.717689 
L 158.250877 63.717689 
L 158.366279 65.150222 
L 159.404901 65.150222 
L 159.520303 66.702131 
L 160.558925 66.702131 
L 160.674327 68.370883 
L 161.712949 68.370883 
L 161.828351 70.153086 
L 162.866973 70.153086 
L 162.982375 72.044506 
L 164.020997 72.044506 
L 164.136399 74.0401 
L 165.175021 74.0401 
L 165.290423 76.134046 
L 166.329045 76.134046 
L 166.444447 78.319772 
L 167.483069 78.319772 
L 167.598471 80.591168 
L 168.637093 80.591168 
L 168.752495 82.939933 
L 169.791117 82.939933 
L 169.906519 85.309696 
L 170.945141 85.309696 
L 171.060543 87.600064 
L 172.099165 87.600064 
L 172.214567 89.72269 
L 173.253189 89.72269 
L 173.368591 91.608125 
L 174.407213 91.608125 
L 174.522615 93.202883 
L 175.561236 93.202883 
L 175.676639 94.466892 
L 176.71526 94.466892 
L 176.830663 95.371302 
L 177.869284 95.371302 
L 177.984687 95.896573 
L 179.023308 95.896573 
L 179.254113 96.030835 
L 180.177332 96.030835 
L 180.408137 95.76847 
L 181.331356 95.76847 
L 181.446759 95.1089 
L 182.48538 95.1089 
L 182.600783 94.055541 
L 183.639404 94.055541 
L 183.754807 92.614921 
L 184.793428 92.614921 
L 184.908831 90.795924 
L 185.947452 90.795924 
L 186.062854 88.629939 
L 187.101476 88.629939 
L 187.216878 86.221302 
L 188.2555 86.221302 
L 188.370902 83.704573 
L 189.409524 83.704573 
L 189.524926 81.178285 
L 190.563548 81.178285 
L 190.67895 78.699159 
L 191.717572 78.699159 
L 191.832974 76.290775 
L 192.871596 76.290775 
L 192.986998 73.969288 
L 194.02562 73.969288 
L 194.141022 71.750108 
L 195.179644 71.750108 
L 195.295046 69.647065 
L 196.333668 69.647065 
L 196.44907 67.672226 
L 197.487692 67.672226 
L 197.603094 65.836037 
L 198.641716 65.836037 
L 198.757118 64.147335 
L 199.79574 64.147335 
L 199.911142 62.613 
L 200.949764 62.613 
L 201.065166 61.237816 
L 202.103788 61.237816 
L 202.21919 60.024618 
L 203.257811 60.024618 
L 203.373214 58.974462 
L 204.411835 58.974462 
L 204.527238 58.086795 
L 205.565859 58.086795 
L 205.681262 57.359633 
L 206.719883 57.359633 
L 206.835286 56.781871 
L 207.873907 56.781871 
L 207.98931 56.329499 
L 209.027931 56.329499 
L 209.258736 55.977003 
L 210.181955 55.977003 
L 210.41276 55.704194 
L 211.335979 55.704194 
L 211.566784 55.495089 
L 212.490003 55.495089 
L 212.720808 55.337014 
L 213.644027 55.337014 
L 213.874832 55.219899 
L 215.952075 55.135713 
L 216.298282 55.07803 
L 228.646339 55.183655 
L 229.107948 55.220403 
L 232.10841 55.295536 
L 232.57002 55.333008 
L 236.724506 55.441212 
L 237.186116 55.475161 
L 241.340602 55.568883 
L 241.917614 55.597212 
L 247.110722 55.695643 
L 247.803136 55.716637 
L 249.41877 55.736261 
L 249.534172 56.510837 
L 250.572794 56.510837 
L 250.688196 61.631549 
L 251.726818 61.631549 
L 251.84222 66.809208 
L 252.880842 66.809208 
L 252.996244 72.042311 
L 254.034866 72.042311 
L 254.150268 77.32888 
L 255.18889 77.32888 
L 255.304292 82.666474 
L 256.342914 82.666474 
L 256.458316 88.052205 
L 257.496938 88.052205 
L 257.61234 93.48275 
L 258.650961 93.48275 
L 258.766364 98.954368 
L 259.804985 98.954368 
L 259.920388 104.462922 
L 260.959009 104.462922 
L 261.074412 110.003889 
L 262.113033 110.003889 
L 262.228436 115.572386 
L 263.267057 115.572386 
L 263.38246 121.163182 
L 264.421081 121.163182 
L 264.536484 126.770728 
L 265.575105 126.770728 
L 265.690508 132.386941 
L 266.729129 132.386941 
L 266.844532 137.973357 
L 267.883153 137.973357 
L 267.998556 143.469313 
L 269.037177 143.469313 
L 269.152579 148.825094 
L 270.191201 148.825094 
L 270.306603 154.000431 
L 271.345225 154.000431 
L 271.460627 158.96316 
L 272.499249 158.96316 
L 272.614651 163.688021 
L 273.653273 163.688021 
L 273.768675 168.155596 
L 274.807297 168.155596 
L 274.922699 172.351376 
L 275.961321 172.351376 
L 276.076723 176.264941 
L 277.115345 176.264941 
L 277.230747 179.889248 
L 278.269369 179.889248 
L 278.384771 183.220017 
L 279.423393 183.220017 
L 279.538795 186.255195 
L 280.577417 186.255195 
L 280.692819 188.994511 
L 281.731441 188.994511 
L 281.846843 191.439085 
L 282.885465 191.439085 
L 283.000867 193.591106 
L 284.039489 193.591106 
L 284.154891 195.453563 
L 285.193512 195.453563 
L 285.308915 197.030017 
L 286.347536 197.030017 
L 286.462939 198.32442 
L 287.50156 198.32442 
L 287.616963 199.34096 
L 288.655584 199.34096 
L 288.770987 200.083948 
L 289.809608 200.083948 
L 289.925011 200.557717 
L 290.963632 200.557717 
L 291.194437 200.766553 
L 293.27168 200.71464 
L 293.502485 200.406017 
L 294.425704 200.406017 
L 294.541107 199.844556 
L 295.579728 199.844556 
L 295.695131 199.033941 
L 296.733752 199.033941 
L 296.849154 197.97766 
L 297.887776 197.97766 
L 298.003178 196.679004 
L 299.0418 196.679004 
L 299.157202 195.141072 
L 300.195824 195.141072 
L 300.311226 193.366774 
L 301.349848 193.366774 
L 301.46525 191.358842 
L 302.503872 191.358842 
L 302.619274 189.119845 
L 303.657896 189.119845 
L 303.773298 186.652202 
L 304.81192 186.652202 
L 304.927322 183.958194 
L 305.965944 183.958194 
L 306.081346 181.03998 
L 307.119968 181.03998 
L 307.23537 177.899613 
L 308.273992 177.899613 
L 308.389394 174.539054 
L 309.428016 174.539054 
L 309.543418 170.960187 
L 310.58204 170.960187 
L 310.697442 167.164832 
L 311.736064 167.164832 
L 311.851466 163.154756 
L 312.890088 163.154756 
L 313.00549 158.931689 
L 314.044111 158.931689 
L 314.159514 154.497334 
L 315.198135 154.497334 
L 315.313538 149.852155 
L 316.352159 149.852155 
L 316.467562 145.000255 
L 317.506183 145.000255 
L 317.621586 139.953545 
L 318.660207 139.953545 
L 318.77561 134.729266 
L 319.814231 134.729266 
L 319.929634 129.360567 
L 320.968255 129.360567 
L 321.083658 123.962022 
L 322.122279 123.962022 
L 322.237682 118.682494 
L 323.276303 118.682494 
L 323.391706 113.598983 
L 324.430327 113.598983 
L 324.545729 108.729022 
L 325.584351 108.729022 
L 325.699753 104.071905 
L 326.738375 104.071905 
L 326.853777 99.627428 
L 327.892399 99.627428 
L 328.007801 95.395324 
L 329.046423 95.395324 
L 329.161825 91.37499 
L 330.200447 91.37499 
L 330.315849 87.565322 
L 331.354471 87.565322 
L 331.469873 83.964654 
L 332.508495 83.964654 
L 332.623897 80.570749 
L 333.662519 80.570749 
L 333.777921 77.380848 
L 334.816543 77.380848 
L 334.931945 74.391726 
L 335.970567 74.391726 
L 336.085969 71.599783 
L 337.124591 71.599783 
L 337.239993 69.001129 
L 338.278615 69.001129 
L 338.394017 66.591673 
L 339.432639 66.591673 
L 339.548041 64.367212 
L 340.586663 64.367212 
L 340.702065 62.323504 
L 341.740686 62.323504 
L 341.856089 60.456343 
L 342.89471 60.456343 
L 343.010113 58.761619 
L 344.048734 58.761619 
L 344.164137 57.235366 
L 345.202758 57.235366 
L 345.318161 55.873804 
L 346.356782 55.873804 
L 346.472185 54.673375 
L 347.510806 54.673375 
L 347.626209 53.63076 
L 348.66483 53.63076 
L 348.780233 52.742902 
L 349.818854 52.742902 
L 349.934257 52.007008 
L 350.972878 52.007008 
L 351.088281 51.420558 
L 352.126902 51.420558 
L 352.242304 50.9813 
L 353.280926 50.9813 
L 353.511731 50.687243 
L 354.43495 50.687243 
L 354.665755 50.536651 
L 357.897022 50.607653 
L 358.127827 50.760327 
L 359.051046 50.760327 
L 359.281851 50.952569 
L 360.20507 50.952569 
L 360.435875 51.166996 
L 361.359094 51.166996 
L 361.589899 51.392102 
L 362.513118 51.392102 
L 362.743923 51.620404 
L 363.667142 51.620404 
L 363.897946 51.847135 
L 364.821166 51.847135 
L 365.05197 52.069336 
L 365.97519 52.069336 
L 366.090592 53.789935 
L 367.129214 53.789935 
L 367.244616 55.600366 
L 368.283238 55.600366 
L 368.39864 57.039409 
L 369.437261 57.039409 
L 369.552664 58.121908 
L 370.591285 58.121908 
L 370.706688 58.882094 
L 371.745309 58.882094 
L 371.860712 59.357104 
L 372.899333 59.357104 
L 373.130138 59.59326 
L 376.361405 59.588929 
L 376.59221 59.446079 
L 377.515429 59.446079 
L 377.746234 59.253546 
L 378.669453 59.253546 
L 378.900258 59.033119 
L 379.823477 59.033119 
L 380.054282 58.800209 
L 380.977501 58.800209 
L 381.208306 58.56548 
L 382.131525 58.56548 
L 382.36233 58.336096 
L 383.285549 58.336096 
L 383.516354 58.116669 
L 384.439573 58.116669 
L 384.670378 57.909977 
L 385.593597 57.909977 
L 385.824402 57.717493 
L 386.747621 57.717493 
L 386.978426 57.539787 
L 387.901645 57.539787 
L 388.13245 57.376815 
L 389.055669 57.376815 
L 389.286474 57.228126 
L 390.209693 57.228126 
L 390.440498 57.093022 
L 391.363717 57.093022 
L 391.594521 56.970658 
L 393.671765 56.860122 
L 393.902569 56.760483 
L 395.979813 56.670824 
L 396.210617 56.590267 
L 398.28786 56.517982 
L 398.518665 56.453195 
L 401.749932 56.343315 
L 402.096139 56.296963 
L 405.212004 56.2187 
L 405.673614 56.18584 
L 410.982124 56.087111 
L 411.789941 56.069012 
L 428.292483 55.959895 
L 434.40881 55.950931 
L 465.22125 55.951065 
L 465.22125 55.951065 
" clip-path="url(#pafb1dbbfac)" style="fill: none; stroke: #5ea04b; stroke-width: 1.5; stroke-linecap: square"/>
   </g>
   <g id="line2d_18">
    <path d="M 119.014063 55.953081 
L 132.86235 55.953081 
L 132.977752 61.778022 
L 134.016374 61.778022 
L 134.131776 77.548986 
L 135.170398 77.548986 
L 135.2858 92.677154 
L 136.324422 92.677154 
L 136.439824 107.159708 
L 137.478446 107.159708 
L 137.593848 120.993956 
L 138.63247 120.993956 
L 138.747872 134.177343 
L 139.786494 134.177343 
L 139.901896 146.707468 
L 140.940518 146.707468 
L 141.05592 158.582088 
L 142.094542 158.582088 
L 142.209944 169.799137 
L 143.248566 169.799137 
L 143.363968 180.356727 
L 144.40259 180.356727 
L 144.517992 190.253161 
L 145.556614 190.253161 
L 145.672016 199.486941 
L 146.710638 199.486941 
L 146.82604 208.05677 
L 147.864661 208.05677 
L 147.980064 215.961564 
L 149.018685 215.961564 
L 149.134088 223.20045 
L 150.172709 223.20045 
L 150.288112 229.772773 
L 151.326733 229.772773 
L 151.442136 235.678098 
L 152.480757 235.678098 
L 152.59616 240.916212 
L 153.634781 240.916212 
L 153.750184 245.487123 
L 154.788805 245.487123 
L 154.904208 249.391061 
L 155.942829 249.391061 
L 156.058232 252.628475 
L 157.096853 252.628475 
L 157.212256 255.200033 
L 158.250877 255.200033 
L 158.366279 257.106618 
L 159.404901 257.106618 
L 159.520303 258.349325 
L 160.558925 258.349325 
L 160.674327 258.929451 
L 162.866973 258.848499 
L 162.982375 258.108163 
L 164.020997 258.108163 
L 164.136399 256.710326 
L 165.175021 256.710326 
L 165.290423 254.657049 
L 166.329045 254.657049 
L 166.444447 251.950567 
L 167.483069 251.950567 
L 167.598471 248.621085 
L 168.637093 248.621085 
L 168.752495 244.720553 
L 169.791117 244.720553 
L 169.906519 240.33166 
L 170.945141 240.33166 
L 171.060543 235.563123 
L 172.099165 235.563123 
L 172.214567 230.49633 
L 173.253189 230.49633 
L 173.368591 225.184292 
L 174.407213 225.184292 
L 174.522615 219.659345 
L 175.561236 219.659345 
L 175.676639 213.939036 
L 176.71526 213.939036 
L 176.830663 208.030593 
L 177.869284 208.030593 
L 177.984687 201.934274 
L 179.023308 201.934274 
L 179.138711 195.645855 
L 180.177332 195.645855 
L 180.292735 189.158435 
L 181.331356 189.158435 
L 181.446759 182.463731 
L 182.48538 182.463731 
L 182.600783 175.552976 
L 183.639404 175.552976 
L 183.754807 168.417515 
L 184.793428 168.417515 
L 184.908831 161.051318 
L 185.947452 161.051318 
L 186.062854 153.522154 
L 187.101476 153.522154 
L 187.216878 145.997682 
L 188.2555 145.997682 
L 188.370902 138.644675 
L 189.409524 138.644675 
L 189.524926 131.577593 
L 190.563548 131.577593 
L 190.67895 124.85886 
L 191.717572 124.85886 
L 191.832974 118.510579 
L 192.871596 118.510579 
L 192.986998 112.540485 
L 194.02562 112.540485 
L 194.141022 106.950028 
L 195.179644 106.950028 
L 195.295046 101.737813 
L 196.333668 101.737813 
L 196.44907 96.902288 
L 197.487692 96.902288 
L 197.603094 92.441002 
L 198.641716 92.441002 
L 198.757118 88.347903 
L 199.79574 88.347903 
L 199.911142 84.613538 
L 200.949764 84.613538 
L 201.065166 81.227329 
L 202.103788 81.227329 
L 202.21919 78.177732 
L 203.257811 78.177732 
L 203.373214 75.452388 
L 204.411835 75.452388 
L 204.527238 73.038246 
L 205.565859 73.038246 
L 205.681262 70.921686 
L 206.719883 70.921686 
L 206.835286 69.081216 
L 207.873907 69.081216 
L 207.98931 67.48363 
L 209.027931 67.48363 
L 209.143334 66.09447 
L 210.181955 66.09447 
L 210.297358 64.884507 
L 211.335979 64.884507 
L 211.451382 63.828899 
L 212.490003 63.828899 
L 212.605406 62.906489 
L 213.644027 62.906489 
L 213.759429 62.099222 
L 214.798051 62.099222 
L 214.913453 61.391664 
L 215.952075 61.391664 
L 216.067477 60.770596 
L 217.106099 60.770596 
L 217.221501 60.224679 
L 218.260123 60.224679 
L 218.375525 59.744167 
L 219.414147 59.744167 
L 219.529549 59.320672 
L 220.568171 59.320672 
L 220.798976 58.946959 
L 221.722195 58.946959 
L 221.953 58.616781 
L 222.876219 58.616781 
L 223.107024 58.324731 
L 224.030243 58.324731 
L 224.261048 58.066125 
L 225.184267 58.066125 
L 225.415071 57.836896 
L 226.338291 57.836896 
L 226.569095 57.633507 
L 227.492315 57.633507 
L 227.723119 57.452878 
L 228.646339 57.452878 
L 228.877143 57.292321 
L 229.800363 57.292321 
L 230.031167 57.149489 
L 230.954386 57.149489 
L 231.185191 57.022328 
L 232.10841 57.022328 
L 232.339215 56.909036 
L 234.416458 56.808032 
L 234.647263 56.717927 
L 236.724506 56.637499 
L 236.955311 56.565668 
L 239.032554 56.501485 
L 239.378761 56.444107 
L 242.494626 56.346883 
L 242.840833 56.305794 
L 247.110722 56.206554 
L 247.687734 56.180115 
L 249.41877 56.156421 
L 249.534172 64.962183 
L 250.572794 64.962183 
L 250.688196 82.686053 
L 251.726818 82.686053 
L 251.84222 99.761019 
L 252.880842 99.761019 
L 252.996244 116.188005 
L 254.034866 116.188005 
L 254.150268 131.968011 
L 255.18889 131.968011 
L 255.304292 147.102112 
L 256.342914 147.102112 
L 256.458316 161.591458 
L 257.496938 161.591458 
L 257.61234 175.437274 
L 258.650961 175.437274 
L 258.766364 188.640857 
L 259.804985 188.640857 
L 259.920388 201.203578 
L 260.959009 201.203578 
L 261.074412 213.126878 
L 262.113033 213.126878 
L 262.228436 224.412269 
L 263.267057 224.412269 
L 263.38246 235.061329 
L 264.421081 235.061329 
L 264.536484 245.0757 
L 265.575105 245.0757 
L 265.690508 254.45921 
L 266.729129 254.45921 
L 266.844532 263.244429 
L 267.883153 263.244429 
L 267.998556 271.484676 
L 269.037177 271.484676 
L 269.152579 279.222447 
L 270.191201 279.222447 
L 270.306603 286.490996 
L 271.345225 286.490996 
L 271.460627 293.315749 
L 272.499249 293.315749 
L 272.614651 299.715554 
L 273.653273 299.715554 
L 273.768675 305.703794 
L 274.807297 305.703794 
L 274.922699 311.289349 
L 275.961321 311.289349 
L 276.076723 316.477443 
L 277.115345 316.477443 
L 277.230747 321.270377 
L 278.269369 321.270377 
L 278.384771 325.668151 
L 279.423393 325.668151 
L 279.538795 329.669003 
L 280.577417 329.669003 
L 280.692819 333.26986 
L 281.731441 333.26986 
L 281.846843 336.466713 
L 282.885465 336.466713 
L 283.000867 339.254938 
L 284.039489 339.254938 
L 284.154891 341.629553 
L 285.193512 341.629553 
L 285.308915 343.585425 
L 286.347536 343.585425 
L 286.462939 345.117441 
L 287.50156 345.117441 
L 287.616963 346.220639 
L 288.655584 346.220639 
L 288.770987 346.890311 
L 289.809608 346.890311 
L 290.040413 347.122074 
L 290.963632 347.122074 
L 291.194437 346.91193 
L 292.117656 346.91193 
L 292.233059 346.256299 
L 293.27168 346.256299 
L 293.387083 345.152038 
L 294.425704 345.152038 
L 294.541107 343.596458 
L 295.579728 343.596458 
L 295.695131 341.587315 
L 296.733752 341.587315 
L 296.849154 339.122811 
L 297.887776 339.122811 
L 298.003178 336.201576 
L 299.0418 336.201576 
L 299.157202 332.822655 
L 300.195824 332.822655 
L 300.311226 328.985483 
L 301.349848 328.985483 
L 301.46525 324.68987 
L 302.503872 324.68987 
L 302.619274 319.935973 
L 303.657896 319.935973 
L 303.773298 314.724274 
L 304.81192 314.724274 
L 304.927322 309.055558 
L 305.965944 309.055558 
L 306.081346 302.930889 
L 307.119968 302.930889 
L 307.23537 296.351589 
L 308.273992 296.351589 
L 308.389394 289.319218 
L 309.428016 289.319218 
L 309.543418 281.835552 
L 310.58204 281.835552 
L 310.697442 273.902567 
L 311.736064 273.902567 
L 311.851466 265.52242 
L 312.890088 265.52242 
L 313.00549 256.697435 
L 314.044111 256.697435 
L 314.159514 247.43009 
L 315.198135 247.43009 
L 315.313538 237.756168 
L 316.352159 237.756168 
L 316.467562 227.739196 
L 317.506183 227.739196 
L 317.621586 217.427784 
L 318.660207 217.427784 
L 318.77561 206.85406 
L 319.814231 206.85406 
L 319.929634 196.050969 
L 320.968255 196.050969 
L 321.083658 185.18958 
L 322.122279 185.18958 
L 322.237682 174.52846 
L 323.276303 174.52846 
L 323.391706 164.231927 
L 324.430327 164.231927 
L 324.545729 154.362357 
L 325.584351 154.362357 
L 325.699753 144.926089 
L 326.738375 144.926089 
L 326.853777 135.923168 
L 327.892399 135.923168 
L 328.007801 127.351451 
L 329.046423 127.351451 
L 329.161825 119.207375 
L 330.200447 119.207375 
L 330.315849 111.486505 
L 331.354471 111.486505 
L 331.469873 104.183931 
L 332.508495 104.183931 
L 332.623897 97.294536 
L 333.662519 97.294536 
L 333.777921 90.813175 
L 334.816543 90.813175 
L 334.931945 84.73479 
L 335.970567 84.73479 
L 336.085969 79.054475 
L 337.124591 79.054475 
L 337.239993 73.767508 
L 338.278615 73.767508 
L 338.394017 68.869362 
L 339.432639 68.869362 
L 339.548041 64.355698 
L 340.586663 64.355698 
L 340.702065 60.222354 
L 341.740686 60.222354 
L 341.856089 56.465324 
L 342.89471 56.465324 
L 343.010113 53.080742 
L 344.048734 53.080742 
L 344.164137 50.06486 
L 345.202758 50.06486 
L 345.318161 47.414029 
L 346.356782 47.414029 
L 346.472185 45.124691 
L 347.510806 45.124691 
L 347.626209 43.193359 
L 348.66483 43.193359 
L 348.780233 41.616615 
L 349.818854 41.616615 
L 349.934257 40.391096 
L 350.972878 40.391096 
L 351.088281 39.513499 
L 352.126902 39.513499 
L 352.242304 38.98057 
L 353.280926 38.98057 
L 353.511731 38.78911 
L 354.43495 38.78911 
L 354.665755 38.935976 
L 355.588974 38.935976 
L 355.704376 39.398357 
L 356.742998 39.398357 
L 356.8584 40.106322 
L 357.897022 40.106322 
L 358.012424 40.974058 
L 359.051046 40.974058 
L 359.166448 41.936445 
L 360.20507 41.936445 
L 360.320472 42.944689 
L 361.359094 42.944689 
L 361.474496 43.962801 
L 362.513118 43.962801 
L 362.62852 44.964791 
L 363.667142 44.964791 
L 363.782544 45.932422 
L 364.821166 45.932422 
L 364.936568 46.853428 
L 365.97519 46.853428 
L 366.090592 48.274463 
L 367.129214 48.274463 
L 367.244616 49.708104 
L 368.283238 49.708104 
L 368.39864 51.015017 
L 369.437261 51.015017 
L 369.552664 52.185187 
L 370.591285 52.185187 
L 370.706688 53.194093 
L 371.745309 53.194093 
L 371.860712 54.020391 
L 372.899333 54.020391 
L 373.014736 54.665725 
L 374.053357 54.665725 
L 374.16876 55.157573 
L 375.207381 55.157573 
L 375.438186 55.52824 
L 376.361405 55.52824 
L 376.59221 55.803609 
L 377.515429 55.803609 
L 377.746234 56.004395 
L 378.669453 56.004395 
L 378.900258 56.147146 
L 380.977501 56.245052 
L 381.208306 56.308597 
L 394.825789 56.211284 
L 395.518203 56.188894 
L 402.903956 56.082858 
L 403.942578 56.069963 
L 438.678699 55.958993 
L 465.105848 55.953857 
L 465.22125 55.953857 
L 465.22125 55.953857 
" clip-path="url(#pafb1dbbfac)" style="fill: none; stroke: #bdab62; stroke-width: 1.5; stroke-linecap: square"/>
   </g>
   <g id="patch_3">
    <path d="M 119.014063 362.623125 
L 119.014063 21.6 
" style="fill: none; stroke: #000000; stroke-width: 0.8; stroke-linejoin: miter; stroke-linecap: square"/>
   </g>
   <g id="patch_4">
    <path d="M 465.22125 362.623125 
L 465.22125 21.6 
" style="fill: none; stroke: #000000; stroke-width: 0.8; stroke-linejoin: miter; stroke-linecap: square"/>
   </g>
   <g id="patch_5">
    <path d="M 119.014063 362.623125 
L 465.22125 362.623125 
" style="fill: none; stroke: #000000; stroke-width: 0.8; stroke-linejoin: miter; stroke-linecap: square"/>
   </g>
   <g id="patch_6">
    <path d="M 119.014063 21.6 
L 465.22125 21.6 
" style="fill: none; stroke: #000000; stroke-width: 0.8; stroke-linejoin: miter; stroke-linecap: square"/>
   </g>
   <g id="legend_1">
    <g id="patch_7">
     <path d="M 375.04125 353.623125 
L 452.62125 353.623125 
Q 456.22125 353.623125 456.22125 350.023125 
L 456.22125 272.56125 
Q 456.22125 268.96125 452.62125 268.96125 
L 375.04125 268.96125 
Q 371.44125 268.96125 371.44125 272.56125 
L 371.44125 350.023125 
Q 371.44125 353.623125 375.04125 353.623125 
z
" style="fill: #ffffff; opacity: 0.8; stroke: #cccccc; stroke-linejoin: miter"/>
    </g>
    <g id="line2d_19">
     <path d="M 378.64125 283.538438 
L 396.64125 283.538438 
L 414.64125 283.538438 
" style="fill: none; stroke: #2b737e; stroke-width: 1.5; stroke-linecap: square"/>
    </g>
    <g id="text_18">
     <!-- $\sigma_0$ -->
     <g transform="translate(429.04125 289.838438) scale(0.18 -0.18)">
      <defs>
       <path id="DejaVuSans-30" d="M 2034 4250 
Q 1547 4250 1301 3770 
Q 1056 3291 1056 2328 
Q 1056 1369 1301 889 
Q 1547 409 2034 409 
Q 2525 409 2770 889 
Q 3016 1369 3016 2328 
Q 3016 3291 2770 3770 
Q 2525 4250 2034 4250 
z
M 2034 4750 
Q 2819 4750 3233 4129 
Q 3647 3509 3647 2328 
Q 3647 1150 3233 529 
Q 2819 -91 2034 -91 
Q 1250 -91 836 529 
Q 422 1150 422 2328 
Q 422 3509 836 4129 
Q 1250 4750 2034 4750 
z
" transform="scale(0.015625)"/>
      </defs>
      <use xlink:href="#DejaVuSans-Oblique-3c3" transform="translate(0 0.265625)"/>
      <use xlink:href="#DejaVuSans-30" transform="translate(63.378906 -16.140625) scale(0.7)"/>
     </g>
    </g>
    <g id="line2d_20">
     <path d="M 378.64125 309.959063 
L 396.64125 309.959063 
L 414.64125 309.959063 
" style="fill: none; stroke: #5ea04b; stroke-width: 1.5; stroke-linecap: square"/>
    </g>
    <g id="text_19">
     <!-- $\sigma_1$ -->
     <g transform="translate(429.04125 316.259063) scale(0.18 -0.18)">
      <defs>
       <path id="DejaVuSans-31" d="M 794 531 
L 1825 531 
L 1825 4091 
L 703 3866 
L 703 4441 
L 1819 4666 
L 2450 4666 
L 2450 531 
L 3481 531 
L 3481 0 
L 794 0 
L 794 531 
z
" transform="scale(0.015625)"/>
      </defs>
      <use xlink:href="#DejaVuSans-Oblique-3c3" transform="translate(0 0.265625)"/>
      <use xlink:href="#DejaVuSans-31" transform="translate(63.378906 -16.140625) scale(0.7)"/>
     </g>
    </g>
    <g id="line2d_21">
     <path d="M 378.64125 336.379687 
L 396.64125 336.379687 
L 414.64125 336.379687 
" style="fill: none; stroke: #bdab62; stroke-width: 1.5; stroke-linecap: square"/>
    </g>
    <g id="text_20">
     <!-- $\sigma_2$ -->
     <g transform="translate(429.04125 342.679688) scale(0.18 -0.18)">
      <defs>
       <path id="DejaVuSans-32" d="M 1228 531 
L 3431 531 
L 3431 0 
L 469 0 
L 469 531 
Q 828 903 1448 1529 
Q 2069 2156 2228 2338 
Q 2531 2678 2651 2914 
Q 2772 3150 2772 3378 
Q 2772 3750 2511 3984 
Q 2250 4219 1831 4219 
Q 1534 4219 1204 4116 
Q 875 4013 500 3803 
L 500 4441 
Q 881 4594 1212 4672 
Q 1544 4750 1819 4750 
Q 2544 4750 2975 4387 
Q 3406 4025 3406 3419 
Q 3406 3131 3298 2873 
Q 3191 2616 2906 2266 
Q 2828 2175 2409 1742 
Q 1991 1309 1228 531 
z
" transform="scale(0.015625)"/>
      </defs>
      <use xlink:href="#DejaVuSans-Oblique-3c3" transform="translate(0 0.265625)"/>
      <use xlink:href="#DejaVuSans-32" transform="translate(63.378906 -16.140625) scale(0.7)"/>
     </g>
    </g>
   </g>
  </g>
 </g>
 <defs>
  <clipPath id="pafb1dbbfac">
   <rect x="119.014063" y="21.6" width="346.207187" height="341.023125"/>
  </clipPath>
 </defs>
</svg>
