<?xml version="1.0" encoding="utf-8" standalone="no"?>
<!DOCTYPE svg PUBLIC "-//W3C//DTD SVG 1.1//EN"
  "http://www.w3.org/Graphics/SVG/1.1/DTD/svg11.dtd">
<svg xmlns:xlink="http://www.w3.org/1999/xlink" width="414pt" height="180pt" viewBox="0 0 414 180" xmlns="http://www.w3.org/2000/svg" version="1.1">
 <metadata>
  <rdf:RDF xmlns:dc="http://purl.org/dc/elements/1.1/" xmlns:cc="http://creativecommons.org/ns#" xmlns:rdf="http://www.w3.org/1999/02/22-rdf-syntax-ns#">
   <cc:Work>
    <dc:type rdf:resource="http://purl.org/dc/dcmitype/StillImage"/>
    <dc:date>2026-04-03T00:25:04.013251</dc:date>
    <dc:format>image/svg+xml</dc:format>
    <dc:creator>
     <cc:Agent>
      <dc:title>Matplotlib v3.10.7, https://matplotlib.org/</dc:title>
     </cc:Agent>
    </dc:creator>
   </cc:Work>
  </rdf:RDF>
 </metadata>
 <defs>
  <style type="text/css">*{stroke-linejoin: round; stroke-linecap: butt}</style>
 </defs>
 <g id="figure_1">
  <g id="patch_1">
   <path d="M 0 180 
L 414 180 
L 414 0 
L 0 0 
L 0 180 
z
" style="fill: none"/>
  </g>
  <g id="axes_1">
   <g id="patch_2">
    <path d="M 66.216719 139.811563 
L 403.2 139.811563 
L 403.2 25.918125 
L 66.216719 25.918125 
L 66.216719 139.811563 
z
" style="fill: none"/>
   </g>
   <g id="matplotlib.axis_1">
    <g id="xtick_1">
     <g id="line2d_1">
      <defs>
       <path id="m9e4d274d3c" d="M 0 0 
L 0 3.5 
" style="stroke: #000000; stroke-width: 0.8"/>
      </defs>
      <g>
       <use xlink:href="#m9e4d274d3c" x="81.534141" y="139.811563" style="stroke: #000000; stroke-width: 0.8"/>
      </g>
     </g>
     <g id="text_1">
      <!-- 0.0 -->
      <g transform="translate(74.377734 153.650156) scale(0.09 -0.09)">
       <defs>
        <path id="DejaVuSans-30" d="M 2034 4250 
Q 1547 4250 1301 3770 
Q 1056 3291 1056 2328 
Q 1056 1369 1301 889 
Q 1547 409 2034 409 
Q 2525 409 2770 889 
Q 3016 1369 3016 2328 
Q 3016 3291 2770 3770 
Q 2525 4250 2034 4250 
z
M 2034 4750 
Q 2819 4750 3233 4129 
Q 3647 3509 3647 2328 
Q 3647 1150 3233 529 
Q 2819 -91 2034 -91 
Q 1250 -91 836 529 
Q 422 1150 422 2328 
Q 422 3509 836 4129 
Q 1250 4750 2034 4750 
z
" transform="scale(0.015625)"/>
        <path id="DejaVuSans-2e" d="M 684 794 
L 1344 794 
L 1344 0 
L 684 0 
L 684 794 
z
" transform="scale(0.015625)"/>
       </defs>
       <use xlink:href="#DejaVuSans-30"/>
       <use xlink:href="#DejaVuSans-2e" transform="translate(63.623047 0)"/>
       <use xlink:href="#DejaVuSans-30" transform="translate(95.410156 0)"/>
      </g>
     </g>
    </g>
    <g id="xtick_2">
     <g id="line2d_2">
      <g>
       <use xlink:href="#m9e4d274d3c" x="143.315635" y="139.811563" style="stroke: #000000; stroke-width: 0.8"/>
      </g>
     </g>
     <g id="text_2">
      <!-- 0.2 -->
      <g transform="translate(136.159229 153.650156) scale(0.09 -0.09)">
       <defs>
        <path id="DejaVuSans-32" d="M 1228 531 
L 3431 531 
L 3431 0 
L 469 0 
L 469 531 
Q 828 903 1448 1529 
Q 2069 2156 2228 2338 
Q 2531 2678 2651 2914 
Q 2772 3150 2772 3378 
Q 2772 3750 2511 3984 
Q 2250 4219 1831 4219 
Q 1534 4219 1204 4116 
Q 875 4013 500 3803 
L 500 4441 
Q 881 4594 1212 4672 
Q 1544 4750 1819 4750 
Q 2544 4750 2975 4387 
Q 3406 4025 3406 3419 
Q 3406 3131 3298 2873 
Q 3191 2616 2906 2266 
Q 2828 2175 2409 1742 
Q 1991 1309 1228 531 
z
" transform="scale(0.015625)"/>
       </defs>
       <use xlink:href="#DejaVuSans-30"/>
       <use xlink:href="#DejaVuSans-2e" transform="translate(63.623047 0)"/>
       <use xlink:href="#DejaVuSans-32" transform="translate(95.410156 0)"/>
      </g>
     </g>
    </g>
    <g id="xtick_3">
     <g id="line2d_3">
      <g>
       <use xlink:href="#m9e4d274d3c" x="205.097129" y="139.811563" style="stroke: #000000; stroke-width: 0.8"/>
      </g>
     </g>
     <g id="text_3">
      <!-- 0.4 -->
      <g transform="translate(197.940723 153.650156) scale(0.09 -0.09)">
       <defs>
        <path id="DejaVuSans-34" d="M 2419 4116 
L 825 1625 
L 2419 1625 
L 2419 4116 
z
M 2253 4666 
L 3047 4666 
L 3047 1625 
L 3713 1625 
L 3713 1100 
L 3047 1100 
L 3047 0 
L 2419 0 
L 2419 1100 
L 313 1100 
L 313 1709 
L 2253 4666 
z
" transform="scale(0.015625)"/>
       </defs>
       <use xlink:href="#DejaVuSans-30"/>
       <use xlink:href="#DejaVuSans-2e" transform="translate(63.623047 0)"/>
       <use xlink:href="#DejaVuSans-34" transform="translate(95.410156 0)"/>
      </g>
     </g>
    </g>
    <g id="xtick_4">
     <g id="line2d_4">
      <g>
       <use xlink:href="#m9e4d274d3c" x="266.878623" y="139.811563" style="stroke: #000000; stroke-width: 0.8"/>
      </g>
     </g>
     <g id="text_4">
      <!-- 0.6 -->
      <g transform="translate(259.722217 153.650156) scale(0.09 -0.09)">
       <defs>
        <path id="DejaVuSans-36" d="M 2113 2584 
Q 1688 2584 1439 2293 
Q 1191 2003 1191 1497 
Q 1191 994 1439 701 
Q 1688 409 2113 409 
Q 2538 409 2786 701 
Q 3034 994 3034 1497 
Q 3034 2003 2786 2293 
Q 2538 2584 2113 2584 
z
M 3366 4563 
L 3366 3988 
Q 3128 4100 2886 4159 
Q 2644 4219 2406 4219 
Q 1781 4219 1451 3797 
Q 1122 3375 1075 2522 
Q 1259 2794 1537 2939 
Q 1816 3084 2150 3084 
Q 2853 3084 3261 2657 
Q 3669 2231 3669 1497 
Q 3669 778 3244 343 
Q 2819 -91 2113 -91 
Q 1303 -91 875 529 
Q 447 1150 447 2328 
Q 447 3434 972 4092 
Q 1497 4750 2381 4750 
Q 2619 4750 2861 4703 
Q 3103 4656 3366 4563 
z
" transform="scale(0.015625)"/>
       </defs>
       <use xlink:href="#DejaVuSans-30"/>
       <use xlink:href="#DejaVuSans-2e" transform="translate(63.623047 0)"/>
       <use xlink:href="#DejaVuSans-36" transform="translate(95.410156 0)"/>
      </g>
     </g>
    </g>
    <g id="xtick_5">
     <g id="line2d_5">
      <g>
       <use xlink:href="#m9e4d274d3c" x="328.660117" y="139.811563" style="stroke: #000000; stroke-width: 0.8"/>
      </g>
     </g>
     <g id="text_5">
      <!-- 0.8 -->
      <g transform="translate(321.503711 153.650156) scale(0.09 -0.09)">
       <defs>
        <path id="DejaVuSans-38" d="M 2034 2216 
Q 1584 2216 1326 1975 
Q 1069 1734 1069 1313 
Q 1069 891 1326 650 
Q 1584 409 2034 409 
Q 2484 409 2743 651 
Q 3003 894 3003 1313 
Q 3003 1734 2745 1975 
Q 2488 2216 2034 2216 
z
M 1403 2484 
Q 997 2584 770 2862 
Q 544 3141 544 3541 
Q 544 4100 942 4425 
Q 1341 4750 2034 4750 
Q 2731 4750 3128 4425 
Q 3525 4100 3525 3541 
Q 3525 3141 3298 2862 
Q 3072 2584 2669 2484 
Q 3125 2378 3379 2068 
Q 3634 1759 3634 1313 
Q 3634 634 3220 271 
Q 2806 -91 2034 -91 
Q 1263 -91 848 271 
Q 434 634 434 1313 
Q 434 1759 690 2068 
Q 947 2378 1403 2484 
z
M 1172 3481 
Q 1172 3119 1398 2916 
Q 1625 2713 2034 2713 
Q 2441 2713 2670 2916 
Q 2900 3119 2900 3481 
Q 2900 3844 2670 4047 
Q 2441 4250 2034 4250 
Q 1625 4250 1398 4047 
Q 1172 3844 1172 3481 
z
" transform="scale(0.015625)"/>
       </defs>
       <use xlink:href="#DejaVuSans-30"/>
       <use xlink:href="#DejaVuSans-2e" transform="translate(63.623047 0)"/>
       <use xlink:href="#DejaVuSans-38" transform="translate(95.410156 0)"/>
      </g>
     </g>
    </g>
    <g id="xtick_6">
     <g id="line2d_6">
      <g>
       <use xlink:href="#m9e4d274d3c" x="390.441612" y="139.811563" style="stroke: #000000; stroke-width: 0.8"/>
      </g>
     </g>
     <g id="text_6">
      <!-- 1.0 -->
      <g transform="translate(383.285205 153.650156) scale(0.09 -0.09)">
       <defs>
        <path id="DejaVuSans-31" d="M 794 531 
L 1825 531 
L 1825 4091 
L 703 3866 
L 703 4441 
L 1819 4666 
L 2450 4666 
L 2450 531 
L 3481 531 
L 3481 0 
L 794 0 
L 794 531 
z
" transform="scale(0.015625)"/>
       </defs>
       <use xlink:href="#DejaVuSans-31"/>
       <use xlink:href="#DejaVuSans-2e" transform="translate(63.623047 0)"/>
       <use xlink:href="#DejaVuSans-30" transform="translate(95.410156 0)"/>
      </g>
     </g>
    </g>
    <g id="text_7">
     <!-- Time [orbits] -->
     <g transform="translate(202.741172 167.120313) scale(0.1 -0.1)">
      <defs>
       <path id="DejaVuSans-54" d="M -19 4666 
L 3928 4666 
L 3928 4134 
L 2272 4134 
L 2272 0 
L 1638 0 
L 1638 4134 
L -19 4134 
L -19 4666 
z
" transform="scale(0.015625)"/>
       <path id="DejaVuSans-69" d="M 603 3500 
L 1178 3500 
L 1178 0 
L 603 0 
L 603 3500 
z
M 603 4863 
L 1178 4863 
L 1178 4134 
L 603 4134 
L 603 4863 
z
" transform="scale(0.015625)"/>
       <path id="DejaVuSans-6d" d="M 3328 2828 
Q 3544 3216 3844 3400 
Q 4144 3584 4550 3584 
Q 5097 3584 5394 3201 
Q 5691 2819 5691 2113 
L 5691 0 
L 5113 0 
L 5113 2094 
Q 5113 2597 4934 2840 
Q 4756 3084 4391 3084 
Q 3944 3084 3684 2787 
Q 3425 2491 3425 1978 
L 3425 0 
L 2847 0 
L 2847 2094 
Q 2847 2600 2669 2842 
Q 2491 3084 2119 3084 
Q 1678 3084 1418 2786 
Q 1159 2488 1159 1978 
L 1159 0 
L 581 0 
L 581 3500 
L 1159 3500 
L 1159 2956 
Q 1356 3278 1631 3431 
Q 1906 3584 2284 3584 
Q 2666 3584 2933 3390 
Q 3200 3197 3328 2828 
z
" transform="scale(0.015625)"/>
       <path id="DejaVuSans-65" d="M 3597 1894 
L 3597 1613 
L 953 1613 
Q 991 1019 1311 708 
Q 1631 397 2203 397 
Q 2534 397 2845 478 
Q 3156 559 3463 722 
L 3463 178 
Q 3153 47 2828 -22 
Q 2503 -91 2169 -91 
Q 1331 -91 842 396 
Q 353 884 353 1716 
Q 353 2575 817 3079 
Q 1281 3584 2069 3584 
Q 2775 3584 3186 3129 
Q 3597 2675 3597 1894 
z
M 3022 2063 
Q 3016 2534 2758 2815 
Q 2500 3097 2075 3097 
Q 1594 3097 1305 2825 
Q 1016 2553 972 2059 
L 3022 2063 
z
" transform="scale(0.015625)"/>
       <path id="DejaVuSans-20" transform="scale(0.015625)"/>
       <path id="DejaVuSans-5b" d="M 550 4863 
L 1875 4863 
L 1875 4416 
L 1125 4416 
L 1125 -397 
L 1875 -397 
L 1875 -844 
L 550 -844 
L 550 4863 
z
" transform="scale(0.015625)"/>
       <path id="DejaVuSans-6f" d="M 1959 3097 
Q 1497 3097 1228 2736 
Q 959 2375 959 1747 
Q 959 1119 1226 758 
Q 1494 397 1959 397 
Q 2419 397 2687 759 
Q 2956 1122 2956 1747 
Q 2956 2369 2687 2733 
Q 2419 3097 1959 3097 
z
M 1959 3584 
Q 2709 3584 3137 3096 
Q 3566 2609 3566 1747 
Q 3566 888 3137 398 
Q 2709 -91 1959 -91 
Q 1206 -91 779 398 
Q 353 888 353 1747 
Q 353 2609 779 3096 
Q 1206 3584 1959 3584 
z
" transform="scale(0.015625)"/>
       <path id="DejaVuSans-72" d="M 2631 2963 
Q 2534 3019 2420 3045 
Q 2306 3072 2169 3072 
Q 1681 3072 1420 2755 
Q 1159 2438 1159 1844 
L 1159 0 
L 581 0 
L 581 3500 
L 1159 3500 
L 1159 2956 
Q 1341 3275 1631 3429 
Q 1922 3584 2338 3584 
Q 2397 3584 2469 3576 
Q 2541 3569 2628 3553 
L 2631 2963 
z
" transform="scale(0.015625)"/>
       <path id="DejaVuSans-62" d="M 3116 1747 
Q 3116 2381 2855 2742 
Q 2594 3103 2138 3103 
Q 1681 3103 1420 2742 
Q 1159 2381 1159 1747 
Q 1159 1113 1420 752 
Q 1681 391 2138 391 
Q 2594 391 2855 752 
Q 3116 1113 3116 1747 
z
M 1159 2969 
Q 1341 3281 1617 3432 
Q 1894 3584 2278 3584 
Q 2916 3584 3314 3078 
Q 3713 2572 3713 1747 
Q 3713 922 3314 415 
Q 2916 -91 2278 -91 
Q 1894 -91 1617 61 
Q 1341 213 1159 525 
L 1159 0 
L 581 0 
L 581 4863 
L 1159 4863 
L 1159 2969 
z
" transform="scale(0.015625)"/>
       <path id="DejaVuSans-74" d="M 1172 4494 
L 1172 3500 
L 2356 3500 
L 2356 3053 
L 1172 3053 
L 1172 1153 
Q 1172 725 1289 603 
Q 1406 481 1766 481 
L 2356 481 
L 2356 0 
L 1766 0 
Q 1100 0 847 248 
Q 594 497 594 1153 
L 594 3053 
L 172 3053 
L 172 3500 
L 594 3500 
L 594 4494 
L 1172 4494 
z
" transform="scale(0.015625)"/>
       <path id="DejaVuSans-73" d="M 2834 3397 
L 2834 2853 
Q 2591 2978 2328 3040 
Q 2066 3103 1784 3103 
Q 1356 3103 1142 2972 
Q 928 2841 928 2578 
Q 928 2378 1081 2264 
Q 1234 2150 1697 2047 
L 1894 2003 
Q 2506 1872 2764 1633 
Q 3022 1394 3022 966 
Q 3022 478 2636 193 
Q 2250 -91 1575 -91 
Q 1294 -91 989 -36 
Q 684 19 347 128 
L 347 722 
Q 666 556 975 473 
Q 1284 391 1588 391 
Q 1994 391 2212 530 
Q 2431 669 2431 922 
Q 2431 1156 2273 1281 
Q 2116 1406 1581 1522 
L 1381 1569 
Q 847 1681 609 1914 
Q 372 2147 372 2553 
Q 372 3047 722 3315 
Q 1072 3584 1716 3584 
Q 2034 3584 2315 3537 
Q 2597 3491 2834 3397 
z
" transform="scale(0.015625)"/>
       <path id="DejaVuSans-5d" d="M 1947 4863 
L 1947 -844 
L 622 -844 
L 622 -397 
L 1369 -397 
L 1369 4416 
L 622 4416 
L 622 4863 
L 1947 4863 
z
" transform="scale(0.015625)"/>
      </defs>
      <use xlink:href="#DejaVuSans-54"/>
      <use xlink:href="#DejaVuSans-69" transform="translate(57.958984 0)"/>
      <use xlink:href="#DejaVuSans-6d" transform="translate(85.742188 0)"/>
      <use xlink:href="#DejaVuSans-65" transform="translate(183.154297 0)"/>
      <use xlink:href="#DejaVuSans-20" transform="translate(244.677734 0)"/>
      <use xlink:href="#DejaVuSans-5b" transform="translate(276.464844 0)"/>
      <use xlink:href="#DejaVuSans-6f" transform="translate(315.478516 0)"/>
      <use xlink:href="#DejaVuSans-72" transform="translate(376.660156 0)"/>
      <use xlink:href="#DejaVuSans-62" transform="translate(417.773438 0)"/>
      <use xlink:href="#DejaVuSans-69" transform="translate(481.25 0)"/>
      <use xlink:href="#DejaVuSans-74" transform="translate(509.033203 0)"/>
      <use xlink:href="#DejaVuSans-73" transform="translate(548.242188 0)"/>
      <use xlink:href="#DejaVuSans-5d" transform="translate(600.341797 0)"/>
     </g>
    </g>
   </g>
   <g id="matplotlib.axis_2">
    <g id="ytick_1">
     <g id="line2d_7">
      <defs>
       <path id="m9c7f4d8f85" d="M 0 0 
L -3.5 0 
" style="stroke: #000000; stroke-width: 0.8"/>
      </defs>
      <g>
       <use xlink:href="#m9c7f4d8f85" x="66.216719" y="124.280639" style="stroke: #000000; stroke-width: 0.8"/>
      </g>
     </g>
     <g id="text_8">
      <!-- -20,000 -->
      <g transform="translate(24.478125 127.699936) scale(0.09 -0.09)">
       <defs>
        <path id="DejaVuSans-2d" d="M 313 2009 
L 1997 2009 
L 1997 1497 
L 313 1497 
L 313 2009 
z
" transform="scale(0.015625)"/>
        <path id="DejaVuSans-2c" d="M 750 794 
L 1409 794 
L 1409 256 
L 897 -744 
L 494 -744 
L 750 256 
L 750 794 
z
" transform="scale(0.015625)"/>
       </defs>
       <use xlink:href="#DejaVuSans-2d"/>
       <use xlink:href="#DejaVuSans-32" transform="translate(36.083984 0)"/>
       <use xlink:href="#DejaVuSans-30" transform="translate(99.707031 0)"/>
       <use xlink:href="#DejaVuSans-2c" transform="translate(163.330078 0)"/>
       <use xlink:href="#DejaVuSans-30" transform="translate(195.117188 0)"/>
       <use xlink:href="#DejaVuSans-30" transform="translate(258.740234 0)"/>
       <use xlink:href="#DejaVuSans-30" transform="translate(322.363281 0)"/>
      </g>
     </g>
    </g>
    <g id="ytick_2">
     <g id="line2d_8">
      <g>
       <use xlink:href="#m9c7f4d8f85" x="66.216719" y="103.572741" style="stroke: #000000; stroke-width: 0.8"/>
      </g>
     </g>
     <g id="text_9">
      <!-- -10,000 -->
      <g transform="translate(24.478125 106.992038) scale(0.09 -0.09)">
       <use xlink:href="#DejaVuSans-2d"/>
       <use xlink:href="#DejaVuSans-31" transform="translate(36.083984 0)"/>
       <use xlink:href="#DejaVuSans-30" transform="translate(99.707031 0)"/>
       <use xlink:href="#DejaVuSans-2c" transform="translate(163.330078 0)"/>
       <use xlink:href="#DejaVuSans-30" transform="translate(195.117188 0)"/>
       <use xlink:href="#DejaVuSans-30" transform="translate(258.740234 0)"/>
       <use xlink:href="#DejaVuSans-30" transform="translate(322.363281 0)"/>
      </g>
     </g>
    </g>
    <g id="ytick_3">
     <g id="line2d_9">
      <g>
       <use xlink:href="#m9c7f4d8f85" x="66.216719" y="82.864844" style="stroke: #000000; stroke-width: 0.8"/>
      </g>
     </g>
     <g id="text_10">
      <!-- 0 -->
      <g transform="translate(53.490469 86.284141) scale(0.09 -0.09)">
       <use xlink:href="#DejaVuSans-30"/>
      </g>
     </g>
    </g>
    <g id="ytick_4">
     <g id="line2d_10">
      <g>
       <use xlink:href="#m9c7f4d8f85" x="66.216719" y="62.156946" style="stroke: #000000; stroke-width: 0.8"/>
      </g>
     </g>
     <g id="text_11">
      <!-- 10,000 -->
      <g transform="translate(27.725156 65.576243) scale(0.09 -0.09)">
       <use xlink:href="#DejaVuSans-31"/>
       <use xlink:href="#DejaVuSans-30" transform="translate(63.623047 0)"/>
       <use xlink:href="#DejaVuSans-2c" transform="translate(127.246094 0)"/>
       <use xlink:href="#DejaVuSans-30" transform="translate(159.033203 0)"/>
       <use xlink:href="#DejaVuSans-30" transform="translate(222.65625 0)"/>
       <use xlink:href="#DejaVuSans-30" transform="translate(286.279297 0)"/>
      </g>
     </g>
    </g>
    <g id="ytick_5">
     <g id="line2d_11">
      <g>
       <use xlink:href="#m9c7f4d8f85" x="66.216719" y="41.449048" style="stroke: #000000; stroke-width: 0.8"/>
      </g>
     </g>
     <g id="text_12">
      <!-- 20,000 -->
      <g transform="translate(27.725156 44.868345) scale(0.09 -0.09)">
       <use xlink:href="#DejaVuSans-32"/>
       <use xlink:href="#DejaVuSans-30" transform="translate(63.623047 0)"/>
       <use xlink:href="#DejaVuSans-2c" transform="translate(127.246094 0)"/>
       <use xlink:href="#DejaVuSans-30" transform="translate(159.033203 0)"/>
       <use xlink:href="#DejaVuSans-30" transform="translate(222.65625 0)"/>
       <use xlink:href="#DejaVuSans-30" transform="translate(286.279297 0)"/>
      </g>
     </g>
    </g>
    <g id="text_13">
     <!-- Magnetic Field [nT]  -->
     <g transform="translate(18.398438 132.194531) rotate(-90) scale(0.1 -0.1)">
      <defs>
       <path id="DejaVuSans-4d" d="M 628 4666 
L 1569 4666 
L 2759 1491 
L 3956 4666 
L 4897 4666 
L 4897 0 
L 4281 0 
L 4281 4097 
L 3078 897 
L 2444 897 
L 1241 4097 
L 1241 0 
L 628 0 
L 628 4666 
z
" transform="scale(0.015625)"/>
       <path id="DejaVuSans-61" d="M 2194 1759 
Q 1497 1759 1228 1600 
Q 959 1441 959 1056 
Q 959 750 1161 570 
Q 1363 391 1709 391 
Q 2188 391 2477 730 
Q 2766 1069 2766 1631 
L 2766 1759 
L 2194 1759 
z
M 3341 1997 
L 3341 0 
L 2766 0 
L 2766 531 
Q 2569 213 2275 61 
Q 1981 -91 1556 -91 
Q 1019 -91 701 211 
Q 384 513 384 1019 
Q 384 1609 779 1909 
Q 1175 2209 1959 2209 
L 2766 2209 
L 2766 2266 
Q 2766 2663 2505 2880 
Q 2244 3097 1772 3097 
Q 1472 3097 1187 3025 
Q 903 2953 641 2809 
L 641 3341 
Q 956 3463 1253 3523 
Q 1550 3584 1831 3584 
Q 2591 3584 2966 3190 
Q 3341 2797 3341 1997 
z
" transform="scale(0.015625)"/>
       <path id="DejaVuSans-67" d="M 2906 1791 
Q 2906 2416 2648 2759 
Q 2391 3103 1925 3103 
Q 1463 3103 1205 2759 
Q 947 2416 947 1791 
Q 947 1169 1205 825 
Q 1463 481 1925 481 
Q 2391 481 2648 825 
Q 2906 1169 2906 1791 
z
M 3481 434 
Q 3481 -459 3084 -895 
Q 2688 -1331 1869 -1331 
Q 1566 -1331 1297 -1286 
Q 1028 -1241 775 -1147 
L 775 -588 
Q 1028 -725 1275 -790 
Q 1522 -856 1778 -856 
Q 2344 -856 2625 -561 
Q 2906 -266 2906 331 
L 2906 616 
Q 2728 306 2450 153 
Q 2172 0 1784 0 
Q 1141 0 747 490 
Q 353 981 353 1791 
Q 353 2603 747 3093 
Q 1141 3584 1784 3584 
Q 2172 3584 2450 3431 
Q 2728 3278 2906 2969 
L 2906 3500 
L 3481 3500 
L 3481 434 
z
" transform="scale(0.015625)"/>
       <path id="DejaVuSans-6e" d="M 3513 2113 
L 3513 0 
L 2938 0 
L 2938 2094 
Q 2938 2591 2744 2837 
Q 2550 3084 2163 3084 
Q 1697 3084 1428 2787 
Q 1159 2491 1159 1978 
L 1159 0 
L 581 0 
L 581 3500 
L 1159 3500 
L 1159 2956 
Q 1366 3272 1645 3428 
Q 1925 3584 2291 3584 
Q 2894 3584 3203 3211 
Q 3513 2838 3513 2113 
z
" transform="scale(0.015625)"/>
       <path id="DejaVuSans-63" d="M 3122 3366 
L 3122 2828 
Q 2878 2963 2633 3030 
Q 2388 3097 2138 3097 
Q 1578 3097 1268 2742 
Q 959 2388 959 1747 
Q 959 1106 1268 751 
Q 1578 397 2138 397 
Q 2388 397 2633 464 
Q 2878 531 3122 666 
L 3122 134 
Q 2881 22 2623 -34 
Q 2366 -91 2075 -91 
Q 1284 -91 818 406 
Q 353 903 353 1747 
Q 353 2603 823 3093 
Q 1294 3584 2113 3584 
Q 2378 3584 2631 3529 
Q 2884 3475 3122 3366 
z
" transform="scale(0.015625)"/>
       <path id="DejaVuSans-46" d="M 628 4666 
L 3309 4666 
L 3309 4134 
L 1259 4134 
L 1259 2759 
L 3109 2759 
L 3109 2228 
L 1259 2228 
L 1259 0 
L 628 0 
L 628 4666 
z
" transform="scale(0.015625)"/>
       <path id="DejaVuSans-6c" d="M 603 4863 
L 1178 4863 
L 1178 0 
L 603 0 
L 603 4863 
z
" transform="scale(0.015625)"/>
       <path id="DejaVuSans-64" d="M 2906 2969 
L 2906 4863 
L 3481 4863 
L 3481 0 
L 2906 0 
L 2906 525 
Q 2725 213 2448 61 
Q 2172 -91 1784 -91 
Q 1150 -91 751 415 
Q 353 922 353 1747 
Q 353 2572 751 3078 
Q 1150 3584 1784 3584 
Q 2172 3584 2448 3432 
Q 2725 3281 2906 2969 
z
M 947 1747 
Q 947 1113 1208 752 
Q 1469 391 1925 391 
Q 2381 391 2643 752 
Q 2906 1113 2906 1747 
Q 2906 2381 2643 2742 
Q 2381 3103 1925 3103 
Q 1469 3103 1208 2742 
Q 947 2381 947 1747 
z
" transform="scale(0.015625)"/>
      </defs>
      <use xlink:href="#DejaVuSans-4d"/>
      <use xlink:href="#DejaVuSans-61" transform="translate(86.279297 0)"/>
      <use xlink:href="#DejaVuSans-67" transform="translate(147.558594 0)"/>
      <use xlink:href="#DejaVuSans-6e" transform="translate(211.035156 0)"/>
      <use xlink:href="#DejaVuSans-65" transform="translate(274.414062 0)"/>
      <use xlink:href="#DejaVuSans-74" transform="translate(335.9375 0)"/>
      <use xlink:href="#DejaVuSans-69" transform="translate(375.146484 0)"/>
      <use xlink:href="#DejaVuSans-63" transform="translate(402.929688 0)"/>
      <use xlink:href="#DejaVuSans-20" transform="translate(457.910156 0)"/>
      <use xlink:href="#DejaVuSans-46" transform="translate(489.697266 0)"/>
      <use xlink:href="#DejaVuSans-69" transform="translate(539.966797 0)"/>
      <use xlink:href="#DejaVuSans-65" transform="translate(567.75 0)"/>
      <use xlink:href="#DejaVuSans-6c" transform="translate(629.273438 0)"/>
      <use xlink:href="#DejaVuSans-64" transform="translate(657.056641 0)"/>
      <use xlink:href="#DejaVuSans-20" transform="translate(720.533203 0)"/>
      <use xlink:href="#DejaVuSans-5b" transform="translate(752.320312 0)"/>
      <use xlink:href="#DejaVuSans-6e" transform="translate(791.333984 0)"/>
      <use xlink:href="#DejaVuSans-54" transform="translate(854.712891 0)"/>
      <use xlink:href="#DejaVuSans-5d" transform="translate(915.796875 0)"/>
      <use xlink:href="#DejaVuSans-20" transform="translate(954.810547 0)"/>
     </g>
    </g>
   </g>
   <g id="line2d_12">
    <path d="M 81.534141 96.550192 
L 84.175075 92.16894 
L 86.81601 87.273373 
L 89.456945 83.526421 
L 92.09788 78.743395 
L 94.738815 73.418341 
L 97.379749 68.174902 
L 100.020684 63.635142 
L 102.661619 58.327401 
L 105.302554 53.207391 
L 107.943489 48.431001 
L 110.584423 44.638083 
L 113.225358 40.491951 
L 115.866293 36.706414 
L 118.507228 33.056106 
L 121.148163 31.095099 
L 123.789098 31.095099 
L 126.430032 31.095099 
L 129.070967 31.095099 
L 131.711902 31.095099 
L 134.352837 31.095099 
L 136.993772 31.095099 
L 139.634706 31.095099 
L 142.275641 31.095099 
L 144.916576 31.095099 
L 147.557511 31.095099 
L 150.198446 31.277241 
L 152.83938 34.265203 
L 155.480315 37.520081 
L 158.12125 41.306171 
L 160.762185 45.088538 
L 163.40312 50.078688 
L 166.044054 54.674362 
L 168.684989 58.882406 
L 171.325924 63.108444 
L 173.966859 68.130777 
L 176.607794 73.637342 
L 179.248728 78.712374 
L 181.889663 83.769829 
L 184.530598 88.21235 
L 187.171533 93.33629 
L 189.812468 97.466694 
L 192.453402 100.95167 
L 195.094337 103.964486 
L 197.735272 107.014463 
L 200.376207 109.350308 
L 203.017142 112.137042 
L 205.658077 113.566986 
L 208.299011 114.681363 
L 210.939946 114.870819 
L 213.580881 115.616878 
L 216.221816 115.150262 
L 218.862751 113.126974 
L 221.503685 111.447308 
L 224.14462 109.160385 
L 226.785555 105.717555 
L 229.42649 102.740449 
L 232.067425 99.280116 
L 234.708359 94.784334 
L 237.349294 90.551313 
L 239.990229 86.546343 
L 242.631164 82.204782 
L 245.272099 77.037947 
L 247.913033 71.938397 
L 250.553968 67.682259 
L 253.194903 63.023326 
L 255.835838 58.181656 
L 258.476773 53.296663 
L 261.117707 49.15832 
L 263.758642 44.976196 
L 266.399577 40.998945 
L 269.040512 37.189895 
L 271.681447 32.767694 
L 274.322381 31.095099 
L 276.963316 31.095099 
L 279.604251 31.095099 
L 282.245186 31.095099 
L 284.886121 31.095099 
L 287.527055 31.095099 
L 290.16799 31.095099 
L 292.808925 31.095099 
L 295.44986 31.095099 
L 298.090795 31.095099 
L 300.73173 31.095099 
L 303.372664 31.095099 
L 306.013599 31.585688 
L 308.654534 34.903609 
L 311.295469 37.736543 
L 313.936404 41.572176 
L 316.577338 46.015338 
L 319.218273 51.385936 
L 321.859208 55.560047 
L 324.500143 60.96861 
L 327.141078 66.720894 
L 329.782012 71.975675 
L 332.422947 76.37528 
L 335.063882 80.996551 
L 337.704817 86.923541 
L 340.345752 91.225539 
L 342.986686 95.217555 
L 345.627621 99.615097 
L 348.268556 103.681674 
L 350.909491 106.891034 
L 353.550426 109.420207 
L 356.19136 112.08593 
L 358.832295 113.219239 
L 361.47323 114.923135 
L 364.114165 115.603916 
L 366.7551 116.249424 
L 369.396034 115.765991 
L 372.036969 115.443387 
L 374.677904 114.305711 
L 377.318839 111.628958 
L 379.959774 108.846505 
L 382.600709 106.415485 
L 385.241643 103.593743 
L 387.882578 100.000025 
" clip-path="url(#p53cc6d3054)" style="fill: none; stroke: #2b737e; stroke-width: 1.5; stroke-linecap: square"/>
   </g>
   <g id="line2d_13">
    <path d="M 81.534141 127.728213 
L 84.175075 123.406549 
L 86.81601 119.300765 
L 89.456945 114.37057 
L 92.09788 109.833187 
L 94.738815 104.813658 
L 97.379749 98.676742 
L 100.020684 92.635078 
L 102.661619 86.655655 
L 105.302554 80.975995 
L 107.943489 76.879619 
L 110.584423 70.767182 
L 113.225358 65.757968 
L 115.866293 60.981136 
L 118.507228 56.992097 
L 121.148163 53.255103 
L 123.789098 49.827536 
L 126.430032 47.426845 
L 129.070967 44.697833 
L 131.711902 43.247911 
L 134.352837 41.293099 
L 136.993772 40.818871 
L 139.634706 40.887271 
L 142.275641 41.713683 
L 144.916576 43.026934 
L 147.557511 44.650561 
L 150.198446 46.711638 
L 152.83938 50.037791 
L 155.480315 53.189647 
L 158.12125 56.763834 
L 160.762185 61.342878 
L 163.40312 65.557721 
L 166.044054 71.371014 
L 168.684989 76.612695 
L 171.325924 82.327688 
L 173.966859 87.816496 
L 176.607794 93.277571 
L 179.248728 99.377933 
L 181.889663 104.941502 
L 184.530598 110.386281 
L 187.171533 115.739946 
L 189.812468 119.779891 
L 192.453402 125.277608 
L 195.094337 130.266561 
L 197.735272 133.718685 
L 200.376207 134.634588 
L 203.017142 134.634588 
L 205.658077 134.634588 
L 208.299011 134.634588 
L 210.939946 134.634588 
L 213.580881 134.634588 
L 216.221816 134.634588 
L 218.862751 134.634588 
L 221.503685 134.634588 
L 224.14462 134.634588 
L 226.785555 134.634588 
L 229.42649 134.634588 
L 232.067425 134.634588 
L 234.708359 133.23298 
L 237.349294 129.321279 
L 239.990229 125.436912 
L 242.631164 120.650214 
L 245.272099 115.154656 
L 247.913033 109.736121 
L 250.553968 104.394885 
L 253.194903 98.867926 
L 255.835838 93.855442 
L 258.476773 88.973129 
L 261.117707 84.034852 
L 263.758642 77.560554 
L 266.399577 72.348441 
L 269.040512 67.274003 
L 271.681447 62.640265 
L 274.322381 58.388485 
L 276.963316 55.904485 
L 279.604251 52.592889 
L 282.245186 50.516813 
L 284.886121 47.421216 
L 287.527055 46.630606 
L 290.16799 46.01828 
L 292.808925 46.188141 
L 295.44986 46.143838 
L 298.090795 47.389351 
L 300.73173 49.139748 
L 303.372664 51.650919 
L 306.013599 53.889968 
L 308.654534 57.097056 
L 311.295469 60.924639 
L 313.936404 64.597156 
L 316.577338 68.357368 
L 319.218273 73.914257 
L 321.859208 78.409363 
L 324.500143 84.118084 
L 327.141078 89.606741 
L 329.782012 95.614895 
L 332.422947 100.62359 
L 335.063882 106.100997 
L 337.704817 111.781592 
L 340.345752 117.475375 
L 342.986686 122.880294 
L 345.627621 127.796678 
L 348.268556 132.928878 
L 350.909491 134.634588 
L 353.550426 134.634588 
L 356.19136 134.634588 
L 358.832295 134.634588 
L 361.47323 134.634588 
L 364.114165 134.634588 
L 366.7551 134.634588 
L 369.396034 134.634588 
L 372.036969 134.634588 
L 374.677904 134.634588 
L 377.318839 134.634588 
L 379.959774 134.634588 
L 382.600709 134.634588 
L 385.241643 134.634588 
L 387.882578 134.634588 
" clip-path="url(#p53cc6d3054)" style="fill: none; stroke: #5ea04b; stroke-width: 1.5; stroke-linecap: square"/>
   </g>
   <g id="line2d_14">
    <path d="M 81.534141 134.634588 
L 84.175075 134.634588 
L 86.81601 134.634588 
L 89.456945 134.634588 
L 92.09788 134.634588 
L 94.738815 134.634588 
L 97.379749 134.634588 
L 100.020684 134.634588 
L 102.661619 134.634588 
L 105.302554 134.634588 
L 107.943489 134.634588 
L 110.584423 134.634588 
L 113.225358 134.634588 
L 115.866293 134.634588 
L 118.507228 134.634588 
L 121.148163 134.634588 
L 123.789098 134.634588 
L 126.430032 134.634588 
L 129.070967 127.709648 
L 131.711902 120.557686 
L 134.352837 112.579208 
L 136.993772 104.851521 
L 139.634706 97.556743 
L 142.275641 90.310436 
L 144.916576 82.829513 
L 147.557511 75.811674 
L 150.198446 68.795486 
L 152.83938 62.764403 
L 155.480315 57.135754 
L 158.12125 51.575366 
L 160.762185 46.583668 
L 163.40312 42.441138 
L 166.044054 39.29663 
L 168.684989 36.931944 
L 171.325924 35.622699 
L 173.966859 34.102303 
L 176.607794 33.053476 
L 179.248728 33.863409 
L 181.889663 35.461166 
L 184.530598 36.648064 
L 187.171533 39.264931 
L 189.812468 42.847446 
L 192.453402 48.537683 
L 195.094337 54.107651 
L 197.735272 59.85 
L 200.376207 65.941513 
L 203.017142 72.570807 
L 205.658077 80.289534 
L 208.299011 87.681032 
L 210.939946 95.283273 
L 213.580881 102.539014 
L 216.221816 110.003303 
L 218.862751 117.268435 
L 221.503685 124.517015 
L 224.14462 130.758667 
L 226.785555 134.634588 
L 229.42649 134.634588 
L 232.067425 134.634588 
L 234.708359 134.634588 
L 237.349294 134.634588 
L 239.990229 134.634588 
L 242.631164 134.634588 
L 245.272099 134.634588 
L 247.913033 134.634588 
L 250.553968 134.634588 
L 253.194903 134.634588 
L 255.835838 134.634588 
L 258.476773 134.634588 
L 261.117707 134.634588 
L 263.758642 134.634588 
L 266.399577 134.634588 
L 269.040512 134.634588 
L 271.681447 134.634588 
L 274.322381 134.634588 
L 276.963316 134.634588 
L 279.604251 134.634588 
L 282.245186 130.342654 
L 284.886121 123.446635 
L 287.527055 116.77223 
L 290.16799 108.981026 
L 292.808925 101.382522 
L 295.44986 94.153239 
L 298.090795 87.084517 
L 300.73173 79.811806 
L 303.372664 73.692162 
L 306.013599 66.743644 
L 308.654534 61.248345 
L 311.295469 56.41195 
L 313.936404 51.812916 
L 316.577338 47.855668 
L 319.218273 43.496744 
L 321.859208 41.055767 
L 324.500143 39.061416 
L 327.141078 37.397644 
L 329.782012 36.27161 
L 332.422947 35.710805 
L 335.063882 36.429502 
L 337.704817 37.809898 
L 340.345752 40.341569 
L 342.986686 43.836849 
L 345.627621 48.037944 
L 348.268556 52.3043 
L 350.909491 57.498915 
L 353.550426 63.140275 
L 356.19136 69.663651 
L 358.832295 76.632376 
L 361.47323 83.998595 
L 364.114165 91.9652 
L 366.7551 98.590575 
L 369.396034 105.636095 
L 372.036969 113.117102 
L 374.677904 120.573664 
L 377.318839 127.433074 
L 379.959774 134.634588 
L 382.600709 134.634588 
L 385.241643 134.634588 
L 387.882578 134.634588 
" clip-path="url(#p53cc6d3054)" style="fill: none; stroke: #bdab62; stroke-width: 1.5; stroke-linecap: square"/>
   </g>
   <g id="patch_3">
    <path d="M 66.216719 139.811562 
L 66.216719 25.918125 
" style="fill: none; stroke: #000000; stroke-width: 0.8; stroke-linejoin: miter; stroke-linecap: square"/>
   </g>
   <g id="patch_4">
    <path d="M 403.2 139.811562 
L 403.2 25.918125 
" style="fill: none; stroke: #000000; stroke-width: 0.8; stroke-linejoin: miter; stroke-linecap: square"/>
   </g>
   <g id="patch_5">
    <path d="M 66.216719 139.811563 
L 403.2 139.811563 
" style="fill: none; stroke: #000000; stroke-width: 0.8; stroke-linejoin: miter; stroke-linecap: square"/>
   </g>
   <g id="patch_6">
    <path d="M 66.216719 25.918125 
L 403.2 25.918125 
" style="fill: none; stroke: #000000; stroke-width: 0.8; stroke-linejoin: miter; stroke-linecap: square"/>
   </g>
   <g id="text_14">
    <!-- Centered Dipole Model -->
    <g transform="translate(166.192109 19.918125) scale(0.12 -0.12)">
     <defs>
      <path id="DejaVuSans-43" d="M 4122 4306 
L 4122 3641 
Q 3803 3938 3442 4084 
Q 3081 4231 2675 4231 
Q 1875 4231 1450 3742 
Q 1025 3253 1025 2328 
Q 1025 1406 1450 917 
Q 1875 428 2675 428 
Q 3081 428 3442 575 
Q 3803 722 4122 1019 
L 4122 359 
Q 3791 134 3420 21 
Q 3050 -91 2638 -91 
Q 1578 -91 968 557 
Q 359 1206 359 2328 
Q 359 3453 968 4101 
Q 1578 4750 2638 4750 
Q 3056 4750 3426 4639 
Q 3797 4528 4122 4306 
z
" transform="scale(0.015625)"/>
      <path id="DejaVuSans-44" d="M 1259 4147 
L 1259 519 
L 2022 519 
Q 2988 519 3436 956 
Q 3884 1394 3884 2338 
Q 3884 3275 3436 3711 
Q 2988 4147 2022 4147 
L 1259 4147 
z
M 628 4666 
L 1925 4666 
Q 3281 4666 3915 4102 
Q 4550 3538 4550 2338 
Q 4550 1131 3912 565 
Q 3275 0 1925 0 
L 628 0 
L 628 4666 
z
" transform="scale(0.015625)"/>
      <path id="DejaVuSans-70" d="M 1159 525 
L 1159 -1331 
L 581 -1331 
L 581 3500 
L 1159 3500 
L 1159 2969 
Q 1341 3281 1617 3432 
Q 1894 3584 2278 3584 
Q 2916 3584 3314 3078 
Q 3713 2572 3713 1747 
Q 3713 922 3314 415 
Q 2916 -91 2278 -91 
Q 1894 -91 1617 61 
Q 1341 213 1159 525 
z
M 3116 1747 
Q 3116 2381 2855 2742 
Q 2594 3103 2138 3103 
Q 1681 3103 1420 2742 
Q 1159 2381 1159 1747 
Q 1159 1113 1420 752 
Q 1681 391 2138 391 
Q 2594 391 2855 752 
Q 3116 1113 3116 1747 
z
" transform="scale(0.015625)"/>
     </defs>
     <use xlink:href="#DejaVuSans-43"/>
     <use xlink:href="#DejaVuSans-65" transform="translate(69.824219 0)"/>
     <use xlink:href="#DejaVuSans-6e" transform="translate(131.347656 0)"/>
     <use xlink:href="#DejaVuSans-74" transform="translate(194.726562 0)"/>
     <use xlink:href="#DejaVuSans-65" transform="translate(233.935547 0)"/>
     <use xlink:href="#DejaVuSans-72" transform="translate(295.458984 0)"/>
     <use xlink:href="#DejaVuSans-65" transform="translate(334.322266 0)"/>
     <use xlink:href="#DejaVuSans-64" transform="translate(395.845703 0)"/>
     <use xlink:href="#DejaVuSans-20" transform="translate(459.322266 0)"/>
     <use xlink:href="#DejaVuSans-44" transform="translate(491.109375 0)"/>
     <use xlink:href="#DejaVuSans-69" transform="translate(568.111328 0)"/>
     <use xlink:href="#DejaVuSans-70" transform="translate(595.894531 0)"/>
     <use xlink:href="#DejaVuSans-6f" transform="translate(659.371094 0)"/>
     <use xlink:href="#DejaVuSans-6c" transform="translate(720.552734 0)"/>
     <use xlink:href="#DejaVuSans-65" transform="translate(748.335938 0)"/>
     <use xlink:href="#DejaVuSans-20" transform="translate(809.859375 0)"/>
     <use xlink:href="#DejaVuSans-4d" transform="translate(841.646484 0)"/>
     <use xlink:href="#DejaVuSans-6f" transform="translate(927.925781 0)"/>
     <use xlink:href="#DejaVuSans-64" transform="translate(989.107422 0)"/>
     <use xlink:href="#DejaVuSans-65" transform="translate(1052.583984 0)"/>
     <use xlink:href="#DejaVuSans-6c" transform="translate(1114.107422 0)"/>
    </g>
   </g>
   <g id="legend_1">
    <g id="patch_7">
     <path d="M 344.34 135.311562 
L 396.9 135.311562 
Q 398.7 135.311562 398.7 133.511562 
L 398.7 94.780625 
Q 398.7 92.980625 396.9 92.980625 
L 344.34 92.980625 
Q 342.54 92.980625 342.54 94.780625 
L 342.54 133.511562 
Q 342.54 135.311562 344.34 135.311562 
z
" style="fill: #ffffff; opacity: 0.8; stroke: #cccccc; stroke-linejoin: miter"/>
    </g>
    <g id="line2d_15">
     <path d="M 346.14 100.269219 
L 355.14 100.269219 
L 364.14 100.269219 
" style="fill: none; stroke: #2b737e; stroke-width: 1.5; stroke-linecap: square"/>
    </g>
    <g id="text_15">
     <!-- $TAM_{0}$ -->
     <g transform="translate(371.34 103.419219) scale(0.09 -0.09)">
      <defs>
       <path id="DejaVuSans-Oblique-54" d="M 378 4666 
L 4325 4666 
L 4225 4134 
L 2559 4134 
L 1759 0 
L 1125 0 
L 1925 4134 
L 275 4134 
L 378 4666 
z
" transform="scale(0.015625)"/>
       <path id="DejaVuSans-Oblique-41" d="M 2356 4666 
L 3072 4666 
L 3938 0 
L 3278 0 
L 3084 1197 
L 984 1197 
L 325 0 
L -341 0 
L 2356 4666 
z
M 2584 4044 
L 1275 1722 
L 2988 1722 
L 2584 4044 
z
" transform="scale(0.015625)"/>
       <path id="DejaVuSans-Oblique-4d" d="M 1081 4666 
L 2028 4666 
L 2572 1522 
L 4378 4666 
L 5350 4666 
L 4441 0 
L 3828 0 
L 4622 4091 
L 2791 897 
L 2175 897 
L 1581 4103 
L 788 0 
L 172 0 
L 1081 4666 
z
" transform="scale(0.015625)"/>
      </defs>
      <use xlink:href="#DejaVuSans-Oblique-54" transform="translate(0 0.09375)"/>
      <use xlink:href="#DejaVuSans-Oblique-41" transform="translate(61.083984 0.09375)"/>
      <use xlink:href="#DejaVuSans-Oblique-4d" transform="translate(129.492188 0.09375)"/>
      <use xlink:href="#DejaVuSans-30" transform="translate(215.771484 -16.3125) scale(0.7)"/>
     </g>
    </g>
    <g id="line2d_16">
     <path d="M 346.14 113.479531 
L 355.14 113.479531 
L 364.14 113.479531 
" style="fill: none; stroke: #5ea04b; stroke-width: 1.5; stroke-linecap: square"/>
    </g>
    <g id="text_16">
     <!-- $TAM_{1}$ -->
     <g transform="translate(371.34 116.629531) scale(0.09 -0.09)">
      <use xlink:href="#DejaVuSans-Oblique-54" transform="translate(0 0.09375)"/>
      <use xlink:href="#DejaVuSans-Oblique-41" transform="translate(61.083984 0.09375)"/>
      <use xlink:href="#DejaVuSans-Oblique-4d" transform="translate(129.492188 0.09375)"/>
      <use xlink:href="#DejaVuSans-31" transform="translate(215.771484 -16.3125) scale(0.7)"/>
     </g>
    </g>
    <g id="line2d_17">
     <path d="M 346.14 126.689844 
L 355.14 126.689844 
L 364.14 126.689844 
" style="fill: none; stroke: #bdab62; stroke-width: 1.5; stroke-linecap: square"/>
    </g>
    <g id="text_17">
     <!-- $TAM_{2}$ -->
     <g transform="translate(371.34 129.839844) scale(0.09 -0.09)">
      <use xlink:href="#DejaVuSans-Oblique-54" transform="translate(0 0.09375)"/>
      <use xlink:href="#DejaVuSans-Oblique-41" transform="translate(61.083984 0.09375)"/>
      <use xlink:href="#DejaVuSans-Oblique-4d" transform="translate(129.492188 0.09375)"/>
      <use xlink:href="#DejaVuSans-32" transform="translate(215.771484 -16.3125) scale(0.7)"/>
     </g>
    </g>
   </g>
  </g>
 </g>
 <defs>
  <clipPath id="p53cc6d3054">
   <rect x="66.216719" y="25.918125" width="336.983281" height="113.893437"/>
  </clipPath>
 </defs>
</svg>
