<?xml version="1.0" encoding="utf-8" standalone="no"?>
<!DOCTYPE svg PUBLIC "-//W3C//DTD SVG 1.1//EN"
  "http://www.w3.org/Graphics/SVG/1.1/DTD/svg11.dtd">
<svg xmlns:xlink="http://www.w3.org/1999/xlink" width="414pt" height="288pt" viewBox="0 0 414 288" xmlns="http://www.w3.org/2000/svg" version="1.1">
 <metadata>
  <rdf:RDF xmlns:dc="http://purl.org/dc/elements/1.1/" xmlns:cc="http://creativecommons.org/ns#" xmlns:rdf="http://www.w3.org/1999/02/22-rdf-syntax-ns#">
   <cc:Work>
    <dc:type rdf:resource="http://purl.org/dc/dcmitype/StillImage"/>
    <dc:date>2026-01-28T20:15:46.798439</dc:date>
    <dc:format>image/svg+xml</dc:format>
    <dc:creator>
     <cc:Agent>
      <dc:title>Matplotlib v3.10.7, https://matplotlib.org/</dc:title>
     </cc:Agent>
    </dc:creator>
   </cc:Work>
  </rdf:RDF>
 </metadata>
 <defs>
  <style type="text/css">*{stroke-linejoin: round; stroke-linecap: butt}</style>
 </defs>
 <g id="figure_1">
  <g id="patch_1">
   <path d="M 0 288 
L 414 288 
L 414 0 
L 0 0 
L 0 288 
z
" style="fill: none"/>
  </g>
  <g id="axes_1">
   <g id="patch_2">
    <path d="M 85.605625 241.036875 
L 403.2 241.036875 
L 403.2 10.8 
L 85.605625 10.8 
L 85.605625 241.036875 
z
" style="fill: none"/>
   </g>
   <g id="matplotlib.axis_1">
    <g id="xtick_1">
     <g id="line2d_1">
      <defs>
       <path id="m0c21a9618f" d="M 0 0 
L 0 3.5 
" style="stroke: #000000; stroke-width: 0.8"/>
      </defs>
      <g>
       <use xlink:href="#m0c21a9618f" x="100.025692" y="241.036875" style="stroke: #000000; stroke-width: 0.8"/>
      </g>
     </g>
     <g id="text_1">
      <!-- 0 -->
      <g transform="translate(94.935692 260.194375) scale(0.16 -0.16)">
       <defs>
        <path id="DejaVuSans-30" d="M 2034 4250 
Q 1547 4250 1301 3770 
Q 1056 3291 1056 2328 
Q 1056 1369 1301 889 
Q 1547 409 2034 409 
Q 2525 409 2770 889 
Q 3016 1369 3016 2328 
Q 3016 3291 2770 3770 
Q 2525 4250 2034 4250 
z
M 2034 4750 
Q 2819 4750 3233 4129 
Q 3647 3509 3647 2328 
Q 3647 1150 3233 529 
Q 2819 -91 2034 -91 
Q 1250 -91 836 529 
Q 422 1150 422 2328 
Q 422 3509 836 4129 
Q 1250 4750 2034 4750 
z
" transform="scale(0.015625)"/>
       </defs>
       <use xlink:href="#DejaVuSans-30"/>
      </g>
     </g>
    </g>
    <g id="xtick_2">
     <g id="line2d_2">
      <g>
       <use xlink:href="#m0c21a9618f" x="196.271759" y="241.036875" style="stroke: #000000; stroke-width: 0.8"/>
      </g>
     </g>
     <g id="text_2">
      <!-- 10 -->
      <g transform="translate(186.091759 260.194375) scale(0.16 -0.16)">
       <defs>
        <path id="DejaVuSans-31" d="M 794 531 
L 1825 531 
L 1825 4091 
L 703 3866 
L 703 4441 
L 1819 4666 
L 2450 4666 
L 2450 531 
L 3481 531 
L 3481 0 
L 794 0 
L 794 531 
z
" transform="scale(0.015625)"/>
       </defs>
       <use xlink:href="#DejaVuSans-31"/>
       <use xlink:href="#DejaVuSans-30" transform="translate(63.623047 0)"/>
      </g>
     </g>
    </g>
    <g id="xtick_3">
     <g id="line2d_3">
      <g>
       <use xlink:href="#m0c21a9618f" x="292.517825" y="241.036875" style="stroke: #000000; stroke-width: 0.8"/>
      </g>
     </g>
     <g id="text_3">
      <!-- 20 -->
      <g transform="translate(282.337825 260.194375) scale(0.16 -0.16)">
       <defs>
        <path id="DejaVuSans-32" d="M 1228 531 
L 3431 531 
L 3431 0 
L 469 0 
L 469 531 
Q 828 903 1448 1529 
Q 2069 2156 2228 2338 
Q 2531 2678 2651 2914 
Q 2772 3150 2772 3378 
Q 2772 3750 2511 3984 
Q 2250 4219 1831 4219 
Q 1534 4219 1204 4116 
Q 875 4013 500 3803 
L 500 4441 
Q 881 4594 1212 4672 
Q 1544 4750 1819 4750 
Q 2544 4750 2975 4387 
Q 3406 4025 3406 3419 
Q 3406 3131 3298 2873 
Q 3191 2616 2906 2266 
Q 2828 2175 2409 1742 
Q 1991 1309 1228 531 
z
" transform="scale(0.015625)"/>
       </defs>
       <use xlink:href="#DejaVuSans-32"/>
       <use xlink:href="#DejaVuSans-30" transform="translate(63.623047 0)"/>
      </g>
     </g>
    </g>
    <g id="xtick_4">
     <g id="line2d_4">
      <g>
       <use xlink:href="#m0c21a9618f" x="388.763892" y="241.036875" style="stroke: #000000; stroke-width: 0.8"/>
      </g>
     </g>
     <g id="text_4">
      <!-- 30 -->
      <g transform="translate(378.583892 260.194375) scale(0.16 -0.16)">
       <defs>
        <path id="DejaVuSans-33" d="M 2597 2516 
Q 3050 2419 3304 2112 
Q 3559 1806 3559 1356 
Q 3559 666 3084 287 
Q 2609 -91 1734 -91 
Q 1441 -91 1130 -33 
Q 819 25 488 141 
L 488 750 
Q 750 597 1062 519 
Q 1375 441 1716 441 
Q 2309 441 2620 675 
Q 2931 909 2931 1356 
Q 2931 1769 2642 2001 
Q 2353 2234 1838 2234 
L 1294 2234 
L 1294 2753 
L 1863 2753 
Q 2328 2753 2575 2939 
Q 2822 3125 2822 3475 
Q 2822 3834 2567 4026 
Q 2313 4219 1838 4219 
Q 1578 4219 1281 4162 
Q 984 4106 628 3988 
L 628 4550 
Q 988 4650 1302 4700 
Q 1616 4750 1894 4750 
Q 2613 4750 3031 4423 
Q 3450 4097 3450 3541 
Q 3450 3153 3228 2886 
Q 3006 2619 2597 2516 
z
" transform="scale(0.015625)"/>
       </defs>
       <use xlink:href="#DejaVuSans-33"/>
       <use xlink:href="#DejaVuSans-30" transform="translate(63.623047 0)"/>
      </g>
     </g>
    </g>
    <g id="text_5">
     <!-- Time [min] -->
     <g transform="translate(217.250469 275.120313) scale(0.1 -0.1)">
      <defs>
       <path id="DejaVuSans-54" d="M -19 4666 
L 3928 4666 
L 3928 4134 
L 2272 4134 
L 2272 0 
L 1638 0 
L 1638 4134 
L -19 4134 
L -19 4666 
z
" transform="scale(0.015625)"/>
       <path id="DejaVuSans-69" d="M 603 3500 
L 1178 3500 
L 1178 0 
L 603 0 
L 603 3500 
z
M 603 4863 
L 1178 4863 
L 1178 4134 
L 603 4134 
L 603 4863 
z
" transform="scale(0.015625)"/>
       <path id="DejaVuSans-6d" d="M 3328 2828 
Q 3544 3216 3844 3400 
Q 4144 3584 4550 3584 
Q 5097 3584 5394 3201 
Q 5691 2819 5691 2113 
L 5691 0 
L 5113 0 
L 5113 2094 
Q 5113 2597 4934 2840 
Q 4756 3084 4391 3084 
Q 3944 3084 3684 2787 
Q 3425 2491 3425 1978 
L 3425 0 
L 2847 0 
L 2847 2094 
Q 2847 2600 2669 2842 
Q 2491 3084 2119 3084 
Q 1678 3084 1418 2786 
Q 1159 2488 1159 1978 
L 1159 0 
L 581 0 
L 581 3500 
L 1159 3500 
L 1159 2956 
Q 1356 3278 1631 3431 
Q 1906 3584 2284 3584 
Q 2666 3584 2933 3390 
Q 3200 3197 3328 2828 
z
" transform="scale(0.015625)"/>
       <path id="DejaVuSans-65" d="M 3597 1894 
L 3597 1613 
L 953 1613 
Q 991 1019 1311 708 
Q 1631 397 2203 397 
Q 2534 397 2845 478 
Q 3156 559 3463 722 
L 3463 178 
Q 3153 47 2828 -22 
Q 2503 -91 2169 -91 
Q 1331 -91 842 396 
Q 353 884 353 1716 
Q 353 2575 817 3079 
Q 1281 3584 2069 3584 
Q 2775 3584 3186 3129 
Q 3597 2675 3597 1894 
z
M 3022 2063 
Q 3016 2534 2758 2815 
Q 2500 3097 2075 3097 
Q 1594 3097 1305 2825 
Q 1016 2553 972 2059 
L 3022 2063 
z
" transform="scale(0.015625)"/>
       <path id="DejaVuSans-20" transform="scale(0.015625)"/>
       <path id="DejaVuSans-5b" d="M 550 4863 
L 1875 4863 
L 1875 4416 
L 1125 4416 
L 1125 -397 
L 1875 -397 
L 1875 -844 
L 550 -844 
L 550 4863 
z
" transform="scale(0.015625)"/>
       <path id="DejaVuSans-6e" d="M 3513 2113 
L 3513 0 
L 2938 0 
L 2938 2094 
Q 2938 2591 2744 2837 
Q 2550 3084 2163 3084 
Q 1697 3084 1428 2787 
Q 1159 2491 1159 1978 
L 1159 0 
L 581 0 
L 581 3500 
L 1159 3500 
L 1159 2956 
Q 1366 3272 1645 3428 
Q 1925 3584 2291 3584 
Q 2894 3584 3203 3211 
Q 3513 2838 3513 2113 
z
" transform="scale(0.015625)"/>
       <path id="DejaVuSans-5d" d="M 1947 4863 
L 1947 -844 
L 622 -844 
L 622 -397 
L 1369 -397 
L 1369 4416 
L 622 4416 
L 622 4863 
L 1947 4863 
z
" transform="scale(0.015625)"/>
      </defs>
      <use xlink:href="#DejaVuSans-54"/>
      <use xlink:href="#DejaVuSans-69" transform="translate(57.958984 0)"/>
      <use xlink:href="#DejaVuSans-6d" transform="translate(85.742188 0)"/>
      <use xlink:href="#DejaVuSans-65" transform="translate(183.154297 0)"/>
      <use xlink:href="#DejaVuSans-20" transform="translate(244.677734 0)"/>
      <use xlink:href="#DejaVuSans-5b" transform="translate(276.464844 0)"/>
      <use xlink:href="#DejaVuSans-6d" transform="translate(315.478516 0)"/>
      <use xlink:href="#DejaVuSans-69" transform="translate(412.890625 0)"/>
      <use xlink:href="#DejaVuSans-6e" transform="translate(440.673828 0)"/>
      <use xlink:href="#DejaVuSans-5d" transform="translate(504.052734 0)"/>
     </g>
    </g>
   </g>
   <g id="matplotlib.axis_2">
    <g id="ytick_1">
     <g id="line2d_5">
      <defs>
       <path id="m2b1fbc261a" d="M 0 0 
L -3.5 0 
" style="stroke: #000000; stroke-width: 0.8"/>
      </defs>
      <g>
       <use xlink:href="#m2b1fbc261a" x="85.605625" y="232.761438" style="stroke: #000000; stroke-width: 0.8"/>
      </g>
     </g>
     <g id="text_6">
      <!-- −2000 -->
      <g transform="translate(24.478125 238.840188) scale(0.16 -0.16)">
       <defs>
        <path id="DejaVuSans-2212" d="M 678 2272 
L 4684 2272 
L 4684 1741 
L 678 1741 
L 678 2272 
z
" transform="scale(0.015625)"/>
       </defs>
       <use xlink:href="#DejaVuSans-2212"/>
       <use xlink:href="#DejaVuSans-32" transform="translate(83.789062 0)"/>
       <use xlink:href="#DejaVuSans-30" transform="translate(147.412109 0)"/>
       <use xlink:href="#DejaVuSans-30" transform="translate(211.035156 0)"/>
       <use xlink:href="#DejaVuSans-30" transform="translate(274.658203 0)"/>
      </g>
     </g>
    </g>
    <g id="ytick_2">
     <g id="line2d_6">
      <g>
       <use xlink:href="#m2b1fbc261a" x="85.605625" y="186.133423" style="stroke: #000000; stroke-width: 0.8"/>
      </g>
     </g>
     <g id="text_7">
      <!-- −1000 -->
      <g transform="translate(24.478125 192.212173) scale(0.16 -0.16)">
       <use xlink:href="#DejaVuSans-2212"/>
       <use xlink:href="#DejaVuSans-31" transform="translate(83.789062 0)"/>
       <use xlink:href="#DejaVuSans-30" transform="translate(147.412109 0)"/>
       <use xlink:href="#DejaVuSans-30" transform="translate(211.035156 0)"/>
       <use xlink:href="#DejaVuSans-30" transform="translate(274.658203 0)"/>
      </g>
     </g>
    </g>
    <g id="ytick_3">
     <g id="line2d_7">
      <g>
       <use xlink:href="#m2b1fbc261a" x="85.605625" y="139.505408" style="stroke: #000000; stroke-width: 0.8"/>
      </g>
     </g>
     <g id="text_8">
      <!-- 0 -->
      <g transform="translate(68.425625 145.584158) scale(0.16 -0.16)">
       <use xlink:href="#DejaVuSans-30"/>
      </g>
     </g>
    </g>
    <g id="ytick_4">
     <g id="line2d_8">
      <g>
       <use xlink:href="#m2b1fbc261a" x="85.605625" y="92.877393" style="stroke: #000000; stroke-width: 0.8"/>
      </g>
     </g>
     <g id="text_9">
      <!-- 1000 -->
      <g transform="translate(37.885625 98.956143) scale(0.16 -0.16)">
       <use xlink:href="#DejaVuSans-31"/>
       <use xlink:href="#DejaVuSans-30" transform="translate(63.623047 0)"/>
       <use xlink:href="#DejaVuSans-30" transform="translate(127.246094 0)"/>
       <use xlink:href="#DejaVuSans-30" transform="translate(190.869141 0)"/>
      </g>
     </g>
    </g>
    <g id="ytick_5">
     <g id="line2d_9">
      <g>
       <use xlink:href="#m2b1fbc261a" x="85.605625" y="46.249378" style="stroke: #000000; stroke-width: 0.8"/>
      </g>
     </g>
     <g id="text_10">
      <!-- 2000 -->
      <g transform="translate(37.885625 52.328128) scale(0.16 -0.16)">
       <use xlink:href="#DejaVuSans-32"/>
       <use xlink:href="#DejaVuSans-30" transform="translate(63.623047 0)"/>
       <use xlink:href="#DejaVuSans-30" transform="translate(127.246094 0)"/>
       <use xlink:href="#DejaVuSans-30" transform="translate(190.869141 0)"/>
      </g>
     </g>
    </g>
    <g id="text_11">
     <!-- RW Speed (RPM)  -->
     <g transform="translate(18.398438 169.284062) rotate(-90) scale(0.1 -0.1)">
      <defs>
       <path id="DejaVuSans-52" d="M 2841 2188 
Q 3044 2119 3236 1894 
Q 3428 1669 3622 1275 
L 4263 0 
L 3584 0 
L 2988 1197 
Q 2756 1666 2539 1819 
Q 2322 1972 1947 1972 
L 1259 1972 
L 1259 0 
L 628 0 
L 628 4666 
L 2053 4666 
Q 2853 4666 3247 4331 
Q 3641 3997 3641 3322 
Q 3641 2881 3436 2590 
Q 3231 2300 2841 2188 
z
M 1259 4147 
L 1259 2491 
L 2053 2491 
Q 2509 2491 2742 2702 
Q 2975 2913 2975 3322 
Q 2975 3731 2742 3939 
Q 2509 4147 2053 4147 
L 1259 4147 
z
" transform="scale(0.015625)"/>
       <path id="DejaVuSans-57" d="M 213 4666 
L 850 4666 
L 1831 722 
L 2809 4666 
L 3519 4666 
L 4500 722 
L 5478 4666 
L 6119 4666 
L 4947 0 
L 4153 0 
L 3169 4050 
L 2175 0 
L 1381 0 
L 213 4666 
z
" transform="scale(0.015625)"/>
       <path id="DejaVuSans-53" d="M 3425 4513 
L 3425 3897 
Q 3066 4069 2747 4153 
Q 2428 4238 2131 4238 
Q 1616 4238 1336 4038 
Q 1056 3838 1056 3469 
Q 1056 3159 1242 3001 
Q 1428 2844 1947 2747 
L 2328 2669 
Q 3034 2534 3370 2195 
Q 3706 1856 3706 1288 
Q 3706 609 3251 259 
Q 2797 -91 1919 -91 
Q 1588 -91 1214 -16 
Q 841 59 441 206 
L 441 856 
Q 825 641 1194 531 
Q 1563 422 1919 422 
Q 2459 422 2753 634 
Q 3047 847 3047 1241 
Q 3047 1584 2836 1778 
Q 2625 1972 2144 2069 
L 1759 2144 
Q 1053 2284 737 2584 
Q 422 2884 422 3419 
Q 422 4038 858 4394 
Q 1294 4750 2059 4750 
Q 2388 4750 2728 4690 
Q 3069 4631 3425 4513 
z
" transform="scale(0.015625)"/>
       <path id="DejaVuSans-70" d="M 1159 525 
L 1159 -1331 
L 581 -1331 
L 581 3500 
L 1159 3500 
L 1159 2969 
Q 1341 3281 1617 3432 
Q 1894 3584 2278 3584 
Q 2916 3584 3314 3078 
Q 3713 2572 3713 1747 
Q 3713 922 3314 415 
Q 2916 -91 2278 -91 
Q 1894 -91 1617 61 
Q 1341 213 1159 525 
z
M 3116 1747 
Q 3116 2381 2855 2742 
Q 2594 3103 2138 3103 
Q 1681 3103 1420 2742 
Q 1159 2381 1159 1747 
Q 1159 1113 1420 752 
Q 1681 391 2138 391 
Q 2594 391 2855 752 
Q 3116 1113 3116 1747 
z
" transform="scale(0.015625)"/>
       <path id="DejaVuSans-64" d="M 2906 2969 
L 2906 4863 
L 3481 4863 
L 3481 0 
L 2906 0 
L 2906 525 
Q 2725 213 2448 61 
Q 2172 -91 1784 -91 
Q 1150 -91 751 415 
Q 353 922 353 1747 
Q 353 2572 751 3078 
Q 1150 3584 1784 3584 
Q 2172 3584 2448 3432 
Q 2725 3281 2906 2969 
z
M 947 1747 
Q 947 1113 1208 752 
Q 1469 391 1925 391 
Q 2381 391 2643 752 
Q 2906 1113 2906 1747 
Q 2906 2381 2643 2742 
Q 2381 3103 1925 3103 
Q 1469 3103 1208 2742 
Q 947 2381 947 1747 
z
" transform="scale(0.015625)"/>
       <path id="DejaVuSans-28" d="M 1984 4856 
Q 1566 4138 1362 3434 
Q 1159 2731 1159 2009 
Q 1159 1288 1364 580 
Q 1569 -128 1984 -844 
L 1484 -844 
Q 1016 -109 783 600 
Q 550 1309 550 2009 
Q 550 2706 781 3412 
Q 1013 4119 1484 4856 
L 1984 4856 
z
" transform="scale(0.015625)"/>
       <path id="DejaVuSans-50" d="M 1259 4147 
L 1259 2394 
L 2053 2394 
Q 2494 2394 2734 2622 
Q 2975 2850 2975 3272 
Q 2975 3691 2734 3919 
Q 2494 4147 2053 4147 
L 1259 4147 
z
M 628 4666 
L 2053 4666 
Q 2838 4666 3239 4311 
Q 3641 3956 3641 3272 
Q 3641 2581 3239 2228 
Q 2838 1875 2053 1875 
L 1259 1875 
L 1259 0 
L 628 0 
L 628 4666 
z
" transform="scale(0.015625)"/>
       <path id="DejaVuSans-4d" d="M 628 4666 
L 1569 4666 
L 2759 1491 
L 3956 4666 
L 4897 4666 
L 4897 0 
L 4281 0 
L 4281 4097 
L 3078 897 
L 2444 897 
L 1241 4097 
L 1241 0 
L 628 0 
L 628 4666 
z
" transform="scale(0.015625)"/>
       <path id="DejaVuSans-29" d="M 513 4856 
L 1013 4856 
Q 1481 4119 1714 3412 
Q 1947 2706 1947 2009 
Q 1947 1309 1714 600 
Q 1481 -109 1013 -844 
L 513 -844 
Q 928 -128 1133 580 
Q 1338 1288 1338 2009 
Q 1338 2731 1133 3434 
Q 928 4138 513 4856 
z
" transform="scale(0.015625)"/>
      </defs>
      <use xlink:href="#DejaVuSans-52"/>
      <use xlink:href="#DejaVuSans-57" transform="translate(65.482422 0)"/>
      <use xlink:href="#DejaVuSans-20" transform="translate(164.359375 0)"/>
      <use xlink:href="#DejaVuSans-53" transform="translate(196.146484 0)"/>
      <use xlink:href="#DejaVuSans-70" transform="translate(259.623047 0)"/>
      <use xlink:href="#DejaVuSans-65" transform="translate(323.099609 0)"/>
      <use xlink:href="#DejaVuSans-65" transform="translate(384.623047 0)"/>
      <use xlink:href="#DejaVuSans-64" transform="translate(446.146484 0)"/>
      <use xlink:href="#DejaVuSans-20" transform="translate(509.623047 0)"/>
      <use xlink:href="#DejaVuSans-28" transform="translate(541.410156 0)"/>
      <use xlink:href="#DejaVuSans-52" transform="translate(580.423828 0)"/>
      <use xlink:href="#DejaVuSans-50" transform="translate(649.90625 0)"/>
      <use xlink:href="#DejaVuSans-4d" transform="translate(710.208984 0)"/>
      <use xlink:href="#DejaVuSans-29" transform="translate(796.488281 0)"/>
      <use xlink:href="#DejaVuSans-20" transform="translate(835.501953 0)"/>
     </g>
    </g>
   </g>
   <g id="line2d_10">
    <path d="M 100.041733 139.393474 
L 100.747537 134.468414 
L 100.79566 134.804206 
L 107.93391 183.875566 
L 108.334936 185.032869 
L 108.623674 185.321923 
L 108.832207 185.261156 
L 109.072822 184.922161 
L 109.393642 184.043217 
L 109.82675 182.132852 
L 110.404226 178.453221 
L 129.011799 49.39428 
L 129.66948 46.738392 
L 130.262998 45.201571 
L 130.77631 44.434227 
L 131.225459 44.12964 
L 131.642525 44.111585 
L 132.075632 44.325586 
L 132.604986 44.859278 
L 133.278708 45.887072 
L 134.177005 47.701799 
L 135.52445 50.986365 
L 139.66303 61.360618 
L 141.219008 64.517279 
L 142.646658 66.925463 
L 144.042226 68.850891 
L 145.437794 70.404625 
L 146.897526 71.701647 
L 148.485587 72.815796 
L 150.28218 73.801832 
L 152.367511 74.688549 
L 154.741581 75.453818 
L 157.227938 76.023195 
L 159.682212 76.359383 
L 162.120446 76.468484 
L 164.622844 76.35524 
L 167.333775 76.005178 
L 170.541977 75.357023 
L 175.418444 74.113547 
L 182.49253 72.343344 
L 187.080259 71.440451 
L 191.956727 70.71374 
L 196.2878 70.241509 
L 197.442752 71.920794 
L 199.1431 73.911411 
L 200.26597 74.829846 
L 201.436964 75.49967 
L 202.720245 75.973768 
L 204.244141 76.290641 
L 206.377596 76.485773 
L 212.216524 76.924684 
L 215.039742 77.424584 
L 218.151698 78.20899 
L 222.033622 79.430275 
L 227.615894 81.440697 
L 237.240501 85.172982 
L 279.524606 102.026516 
L 298.003851 109.665768 
L 318.087197 118.207075 
L 321.47185 119.786151 
L 324.567766 121.46995 
L 328.738428 123.463547 
L 343.656569 130.415579 
L 350.794819 134.020872 
L 353.890734 135.922108 
L 357.997233 138.162447 
L 360.788369 139.501901 
L 360.916697 139.474593 
L 361.141271 139.503706 
L 361.253558 139.495953 
L 361.430009 139.503673 
L 361.526255 139.477296 
L 361.558337 139.497084 
L 362.360388 139.493609 
L 362.55288 139.498407 
L 366.547092 139.493369 
L 366.787707 139.502586 
L 366.948117 139.494814 
L 367.15665 139.503155 
L 367.31706 139.488437 
L 367.525593 139.49447 
L 367.702044 139.486362 
L 367.910578 139.504407 
L 368.087029 139.481444 
L 368.231398 139.5 
L 368.407849 139.484906 
L 368.5843 139.498435 
L 368.760751 139.491866 
L 368.921161 139.500734 
L 369.113653 139.491676 
L 369.290105 139.497969 
L 369.498638 139.488806 
L 369.675089 139.504387 
L 369.915704 139.488213 
L 370.076114 139.497978 
L 370.33277 139.486782 
L 370.49318 139.505491 
L 370.749837 139.484256 
L 370.910247 139.494148 
L 371.166903 139.486973 
L 371.311272 139.504924 
L 371.680215 139.485165 
L 371.840625 139.507694 
L 372.257692 139.489149 
L 372.402061 139.497671 
L 372.931414 139.48842 
L 373.059742 139.491921 
L 373.749506 139.48679 
L 373.893875 139.501514 
L 375.610263 139.5157 
L 376.396272 139.522167 
L 376.540642 139.503471 
L 377.134159 139.52471 
L 377.278528 139.515597 
L 377.63143 139.522276 
L 377.775799 139.519201 
L 378.09662 139.52714 
L 378.224948 139.519945 
L 378.529727 139.527476 
L 378.674096 139.504546 
L 378.978875 139.522328 
L 379.123244 139.504141 
L 379.411983 139.524267 
L 379.556352 139.510298 
L 379.813008 139.523566 
L 379.957377 139.513278 
L 380.197992 139.525048 
L 380.342361 139.518116 
L 380.566935 139.527119 
L 380.727345 139.505415 
L 382.941005 139.522044 
L 383.101415 139.51727 
L 383.325989 139.527677 
L 383.470358 139.51472 
L 383.694933 139.527641 
L 383.839302 139.516212 
L 384.047835 139.52101 
L 384.192204 139.510907 
L 384.416778 139.528108 
L 384.561147 139.519176 
L 384.76968 139.527398 
L 384.914049 139.519485 
L 385.122583 139.529026 
L 385.282993 139.506719 
L 385.507567 139.528431 
L 385.667977 139.506993 
L 385.892551 139.529747 
L 386.052961 139.508933 
L 386.261494 139.521474 
L 386.405863 139.516295 
L 386.614397 139.529266 
L 386.774807 139.50923 
L 386.967299 139.523487 
L 387.111668 139.518738 
L 387.30416 139.521024 
L 387.448529 139.516275 
L 387.657062 139.529573 
L 387.817472 139.50956 
L 388.026006 139.522699 
L 388.170375 139.517548 
L 388.378908 139.530184 
L 388.539318 139.509477 
L 388.747851 139.521483 
L 388.763892 139.506305 
L 388.763892 139.506305 
" clip-path="url(#p52d09b2a0e)" style="fill: none; stroke: #225e7c; stroke-width: 1.5; stroke-linecap: square"/>
   </g>
   <g id="line2d_11">
    <path d="M 100.041733 139.393477 
L 100.747537 134.468521 
L 100.79566 134.804319 
L 106.169399 171.550003 
L 106.474178 172.207757 
L 106.666671 172.248583 
L 106.859163 172.014079 
L 107.13186 171.234249 
L 107.500803 169.399252 
L 108.431182 162.97028 
L 127.263329 32.340537 
L 127.888928 29.84173 
L 128.418282 28.537308 
L 128.851389 27.981412 
L 129.220332 27.837127 
L 129.557193 27.947037 
L 129.942178 28.330947 
L 130.423408 29.160689 
L 131.032966 30.701037 
L 131.802935 33.300819 
L 132.813519 37.5688 
L 134.241169 44.672123 
L 138.796816 68.024153 
L 140.176343 73.618652 
L 141.379419 77.609732 
L 142.454166 80.446499 
L 143.448709 82.471695 
L 144.363047 83.853329 
L 145.21322 84.758007 
L 146.031312 85.316313 
L 146.833362 85.599863 
L 147.651454 85.65512 
L 148.549751 85.486013 
L 149.576375 85.055722 
L 150.843615 84.267919 
L 152.640208 82.861239 
L 157.516676 78.92886 
L 159.425556 77.740722 
L 161.222149 76.881911 
L 163.002702 76.276732 
L 164.847418 75.885836 
L 166.836503 75.695402 
L 169.066204 75.710938 
L 171.712971 75.960742 
L 175.145747 76.52208 
L 181.369659 77.811566 
L 188.84477 79.284568 
L 194.908273 80.241203 
L 197.458793 80.489305 
L 198.790197 80.342114 
L 200.26597 79.946881 
L 202.014441 79.238564 
L 204.292264 78.059047 
L 213.211066 73.194915 
L 216.050325 72.05274 
L 219.29061 70.999318 
L 224.568102 69.560034 
L 231.305327 67.657232 
L 237.38487 65.686141 
L 249.094808 61.589171 
L 263.162775 56.774879 
L 285.363534 49.474196 
L 327.920337 35.453688 
L 345.629613 28.875119 
L 354.917359 25.443895 
L 363.900325 21.929319 
L 365.985656 21.487208 
L 367.990783 21.284452 
L 370.027991 21.303983 
L 372.113323 21.548432 
L 374.343023 22.035302 
L 376.941667 22.842191 
L 380.069664 24.056209 
L 386.133166 26.710022 
L 388.763892 27.827673 
L 388.763892 27.827673 
" clip-path="url(#p52d09b2a0e)" style="fill: none; stroke: #3e915b; stroke-width: 1.5; stroke-linecap: square"/>
   </g>
   <g id="line2d_12">
    <path d="M 100.041733 139.393478 
L 100.747537 134.468539 
L 100.79566 134.804337 
L 104.068027 156.862078 
L 104.388847 157.557997 
L 104.59738 157.603829 
L 104.789872 157.38065 
L 105.062569 156.659678 
L 105.447554 154.913284 
L 106.041071 150.984597 
L 113.339731 100.824359 
L 114.045536 97.819328 
L 114.655094 96.112661 
L 115.168406 95.275955 
L 115.585473 94.975774 
L 115.938375 94.97221 
L 116.307318 95.199949 
L 116.740426 95.750195 
L 117.28582 96.843046 
L 117.959542 98.742663 
L 118.793675 101.811624 
L 119.868423 106.687008 
L 121.360237 114.600047 
L 126.316909 141.708094 
L 127.60019 147.170758 
L 128.54661 150.312512 
L 129.332619 152.210975 
L 130.022383 153.335258 
L 130.631941 153.930597 
L 131.177336 154.174925 
L 131.72273 154.177554 
L 132.300206 153.952711 
L 132.98997 153.43068 
L 133.856184 152.476682 
L 135.075301 150.768958 
L 137.529576 146.84631 
L 140.705696 141.92757 
L 143.849734 137.496311 
L 147.218347 133.118254 
L 149.752826 130.163577 
L 151.773994 128.135709 
L 153.522464 126.687017 
L 155.110524 125.65159 
L 156.618379 124.928992 
L 158.094152 124.467035 
L 159.569925 124.236472 
L 161.109862 124.220966 
L 162.778127 124.428957 
L 164.687008 124.897935 
L 167.045036 125.718204 
L 170.862797 127.319311 
L 175.947798 129.39864 
L 179.268287 130.506966 
L 182.49253 131.347277 
L 185.909265 132.004305 
L 189.887436 132.534973 
L 195.421585 133.02832 
L 198.068352 133.339947 
L 199.528084 133.768047 
L 201.003857 134.435594 
L 202.656081 135.437528 
L 204.693289 136.951299 
L 208.061902 139.780952 
L 212.858164 143.747162 
L 216.483433 146.43926 
L 220.541808 149.168494 
L 225.386194 152.150337 
L 231.257204 155.493302 
L 241.748025 161.150621 
L 254.19585 167.972781 
L 282.540316 183.633213 
L 301.78953 193.91377 
L 331.641851 209.811021 
L 344.859645 217.21724 
L 358.895529 225.037347 
L 363.98053 227.886794 
L 366.434805 228.975099 
L 368.680546 229.730619 
L 370.862124 230.230776 
L 373.059742 230.506079 
L 375.353607 230.566359 
L 377.823922 230.404843 
L 380.599017 229.993354 
L 383.96763 229.25831 
L 388.763892 227.990886 
L 388.763892 227.990886 
" clip-path="url(#p52d09b2a0e)" style="fill: none; stroke: #8eac56; stroke-width: 1.5; stroke-linecap: square"/>
   </g>
   <g id="line2d_13">
    <path d="M 100.041733 139.393475 
L 100.747537 134.468431 
L 100.79566 134.804224 
L 105.287144 165.378402 
L 105.992948 168.320528 
L 106.65063 170.199582 
L 107.228106 171.243193 
L 107.741418 171.7455 
L 108.23869 171.923206 
L 108.816166 171.879035 
L 109.971119 171.493264 
L 110.821292 171.339575 
L 111.543138 171.433293 
L 112.21686 171.745647 
L 112.890583 172.311123 
L 113.64451 173.253235 
L 114.526766 174.729767 
L 115.601514 176.987977 
L 117.029164 180.55063 
L 121.119622 191.078124 
L 122.226451 193.172185 
L 123.140789 194.455471 
L 123.910757 195.180213 
L 124.58448 195.529265 
L 125.210079 195.607333 
L 125.819638 195.452861 
L 126.445237 195.058589 
L 127.151042 194.335347 
L 127.985174 193.141308 
L 128.963676 191.331578 
L 129.942178 189.041137 
L 131.000884 185.961888 
L 132.220001 181.682761 
L 133.808061 175.220987 
L 138.716611 154.671829 
L 140.208425 149.662373 
L 141.539829 145.940544 
L 142.758946 143.164987 
L 143.897857 141.098759 
L 144.988646 139.564909 
L 146.031312 138.470156 
L 147.041896 137.719786 
L 148.052479 137.239401 
L 149.095145 136.98908 
L 150.201975 136.954019 
L 151.437133 137.143709 
L 152.880824 137.600552 
L 154.709499 138.428462 
L 157.628963 140.032383 
L 161.895872 142.338438 
L 164.414311 143.436884 
L 166.692134 144.191189 
L 168.905794 144.691357 
L 171.151535 144.969712 
L 173.509564 145.035843 
L 176.108208 144.882199 
L 179.172041 144.47035 
L 183.374786 143.661766 
L 195.630118 141.189576 
L 197.779614 140.715506 
L 199.640371 140.017865 
L 204.821618 137.710291 
L 212.232565 134.369848 
L 215.408685 132.626105 
L 218.953748 130.414139 
L 224.231241 126.824339 
L 234.866431 119.57861 
L 242.854855 114.451961 
L 286.534528 86.879027 
L 323.268444 63.154817 
L 333.165748 56.357513 
L 352.527248 42.878741 
L 364.670293 34.244363 
L 367.268937 32.866966 
L 369.947786 31.700784 
L 372.658717 30.76435 
L 375.449853 30.037429 
L 378.337235 29.511168 
L 381.545437 29.157207 
L 385.299034 28.97407 
L 388.763892 28.938903 
L 388.763892 28.938903 
" clip-path="url(#p52d09b2a0e)" style="fill: none; stroke: #c4a46f; stroke-width: 1.5; stroke-linecap: square"/>
   </g>
   <g id="patch_3">
    <path d="M 85.605625 241.036875 
L 85.605625 10.8 
" style="fill: none; stroke: #000000; stroke-width: 0.8; stroke-linejoin: miter; stroke-linecap: square"/>
   </g>
   <g id="patch_4">
    <path d="M 403.2 241.036875 
L 403.2 10.8 
" style="fill: none; stroke: #000000; stroke-width: 0.8; stroke-linejoin: miter; stroke-linecap: square"/>
   </g>
   <g id="patch_5">
    <path d="M 85.605625 241.036875 
L 403.2 241.036875 
" style="fill: none; stroke: #000000; stroke-width: 0.8; stroke-linejoin: miter; stroke-linecap: square"/>
   </g>
   <g id="patch_6">
    <path d="M 85.605625 10.8 
L 403.2 10.8 
" style="fill: none; stroke: #000000; stroke-width: 0.8; stroke-linejoin: miter; stroke-linecap: square"/>
   </g>
   <g id="legend_1">
    <g id="patch_7">
     <path d="M 356.85 70.84125 
L 396.9 70.84125 
Q 398.7 70.84125 398.7 69.04125 
L 398.7 17.1 
Q 398.7 15.3 396.9 15.3 
L 356.85 15.3 
Q 355.05 15.3 355.05 17.1 
L 355.05 69.04125 
Q 355.05 70.84125 356.85 70.84125 
z
" style="fill: #ffffff; opacity: 0.8; stroke: #cccccc; stroke-linejoin: miter"/>
    </g>
    <g id="line2d_14">
     <path d="M 358.65 22.588594 
L 367.65 22.588594 
L 376.65 22.588594 
" style="fill: none; stroke: #225e7c; stroke-width: 1.5; stroke-linecap: square"/>
    </g>
    <g id="text_12">
     <!-- $\Omega_{0}$ -->
     <g transform="translate(383.85 25.738594) scale(0.09 -0.09)">
      <defs>
       <path id="DejaVuSans-3a9" d="M 4647 556 
L 4647 0 
L 2772 0 
L 2772 556 
Q 3325 859 3634 1378 
Q 3944 1897 3944 2528 
Q 3944 3278 3531 3731 
Q 3119 4184 2444 4184 
Q 1769 4184 1355 3729 
Q 941 3275 941 2528 
Q 941 1897 1250 1378 
Q 1563 859 2119 556 
L 2119 0 
L 244 0 
L 244 556 
L 1241 556 
Q 747 991 519 1456 
Q 294 1922 294 2497 
Q 294 3491 894 4106 
Q 1491 4722 2444 4722 
Q 3391 4722 3994 4106 
Q 4594 3494 4594 2528 
Q 4594 1922 4372 1459 
Q 4150 997 3647 556 
L 4647 556 
z
" transform="scale(0.015625)"/>
      </defs>
      <use xlink:href="#DejaVuSans-3a9" transform="translate(0 0.21875)"/>
      <use xlink:href="#DejaVuSans-30" transform="translate(77.373047 -16.1875) scale(0.7)"/>
     </g>
    </g>
    <g id="line2d_15">
     <path d="M 358.65 35.798906 
L 367.65 35.798906 
L 376.65 35.798906 
" style="fill: none; stroke: #3e915b; stroke-width: 1.5; stroke-linecap: square"/>
    </g>
    <g id="text_13">
     <!-- $\Omega_{1}$ -->
     <g transform="translate(383.85 38.948906) scale(0.09 -0.09)">
      <use xlink:href="#DejaVuSans-3a9" transform="translate(0 0.21875)"/>
      <use xlink:href="#DejaVuSans-31" transform="translate(77.373047 -16.1875) scale(0.7)"/>
     </g>
    </g>
    <g id="line2d_16">
     <path d="M 358.65 49.009219 
L 367.65 49.009219 
L 376.65 49.009219 
" style="fill: none; stroke: #8eac56; stroke-width: 1.5; stroke-linecap: square"/>
    </g>
    <g id="text_14">
     <!-- $\Omega_{2}$ -->
     <g transform="translate(383.85 52.159219) scale(0.09 -0.09)">
      <use xlink:href="#DejaVuSans-3a9" transform="translate(0 0.21875)"/>
      <use xlink:href="#DejaVuSans-32" transform="translate(77.373047 -16.1875) scale(0.7)"/>
     </g>
    </g>
    <g id="line2d_17">
     <path d="M 358.65 62.219531 
L 367.65 62.219531 
L 376.65 62.219531 
" style="fill: none; stroke: #c4a46f; stroke-width: 1.5; stroke-linecap: square"/>
    </g>
    <g id="text_15">
     <!-- $\Omega_{3}$ -->
     <g transform="translate(383.85 65.369531) scale(0.09 -0.09)">
      <use xlink:href="#DejaVuSans-3a9" transform="translate(0 0.21875)"/>
      <use xlink:href="#DejaVuSans-33" transform="translate(77.373047 -16.1875) scale(0.7)"/>
     </g>
    </g>
   </g>
  </g>
 </g>
 <defs>
  <clipPath id="p52d09b2a0e">
   <rect x="85.605625" y="10.8" width="317.594375" height="230.236875"/>
  </clipPath>
 </defs>
</svg>
