<?xml version="1.0" encoding="utf-8" standalone="no"?>
<!DOCTYPE svg PUBLIC "-//W3C//DTD SVG 1.1//EN"
  "http://www.w3.org/Graphics/SVG/1.1/DTD/svg11.dtd">
<svg xmlns:xlink="http://www.w3.org/1999/xlink" width="432pt" height="360pt" viewBox="0 0 432 360" xmlns="http://www.w3.org/2000/svg" version="1.1">
 <metadata>
  <rdf:RDF xmlns:dc="http://purl.org/dc/elements/1.1/" xmlns:cc="http://creativecommons.org/ns#" xmlns:rdf="http://www.w3.org/1999/02/22-rdf-syntax-ns#">
   <cc:Work>
    <dc:type rdf:resource="http://purl.org/dc/dcmitype/StillImage"/>
    <dc:date>2026-07-24T15:20:24.375163</dc:date>
    <dc:format>image/svg+xml</dc:format>
    <dc:creator>
     <cc:Agent>
      <dc:title>Matplotlib v3.10.9, https://matplotlib.org/</dc:title>
     </cc:Agent>
    </dc:creator>
   </cc:Work>
  </rdf:RDF>
 </metadata>
 <defs>
  <style type="text/css">*{stroke-linejoin: round; stroke-linecap: butt}</style>
 </defs>
 <g id="figure_1">
  <g id="patch_1">
   <path d="M 0 360 
L 432 360 
L 432 0 
L 0 0 
L 0 360 
z
" style="fill: none"/>
  </g>
  <g id="axes_1">
   <g id="patch_2">
    <path d="M 84.373033 316.744 
L 374.229241 316.744 
L 374.229241 26.88 
L 84.373033 26.88 
L 84.373033 316.744 
z
" style="fill: none"/>
   </g>
   <g id="patch_3">
    <path d="M 229.431337 290.447338 
C 260.886414 290.447338 291.057407 277.950103 313.299505 255.708005 
C 335.541603 233.465907 348.038838 203.294914 348.038838 171.839837 
C 348.038838 140.38476 335.541603 110.213767 313.299505 87.971668 
C 291.057407 65.72957 260.886414 53.232336 229.431337 53.232336 
C 197.97626 53.232336 167.805266 65.72957 145.563168 87.971668 
C 123.32107 110.213767 110.823835 140.38476 110.823835 171.839837 
C 110.823835 203.294914 123.32107 233.465907 145.563168 255.708005 
C 167.805266 277.950103 197.97626 290.447338 229.431337 290.447338 
z
" clip-path="url(#p9d0e4385d5)" style="fill: #2a6fbb; opacity: 0.8; stroke: #2a6fbb; stroke-linejoin: miter"/>
   </g>
   <g id="patch_4">
    <path d="M 229.431337 297.885718 
C 262.859095 297.885718 294.922239 284.604728 318.559234 260.967734 
C 342.196228 237.330739 355.477217 205.267595 355.477217 171.839837 
C 355.477217 138.412078 342.196228 106.348934 318.559234 82.71194 
C 294.922239 59.074945 262.859095 45.793956 229.431337 45.793956 
C 196.003578 45.793956 163.940434 59.074945 140.30344 82.71194 
C 116.666445 106.348934 103.385456 138.412078 103.385456 171.839837 
C 103.385456 205.267595 116.666445 237.330739 140.30344 260.967734 
C 163.940434 284.604728 196.003578 297.885718 229.431337 297.885718 
L 229.431337 297.885718 
z
" clip-path="url(#p9d0e4385d5)" style="fill: none; stroke-dasharray: 7.4,3.2; stroke-dashoffset: 0; stroke: #e9c46a; stroke-width: 2; stroke-linejoin: miter"/>
   </g>
   <g id="matplotlib.axis_1">
    <g id="xtick_1">
     <g id="line2d_1">
      <path d="M 117.855644 316.744 
L 117.855644 26.88 
" clip-path="url(#p9d0e4385d5)" style="fill: none; stroke: #b0b0b0; stroke-opacity: 0.3; stroke-width: 0.8; stroke-linecap: square"/>
     </g>
     <g id="line2d_2">
      <defs>
       <path id="m6f44cfc7db" d="M 0 0 
L 0 3.5 
" style="stroke: #000000; stroke-width: 0.8"/>
      </defs>
      <g>
       <use xlink:href="#m6f44cfc7db" x="117.855644" y="316.744" style="stroke: #000000; stroke-width: 0.8"/>
      </g>
     </g>
     <g id="text_1">
      <!-- −6000 -->
      <g transform="translate(102.632285 330.582594) scale(0.09 -0.09)">
       <defs>
        <path id="DejaVuSans-2212" d="M 678 2272 
L 4684 2272 
L 4684 1741 
L 678 1741 
L 678 2272 
z
" transform="scale(0.015625)"/>
        <path id="DejaVuSans-36" d="M 2113 2584 
Q 1688 2584 1439 2293 
Q 1191 2003 1191 1497 
Q 1191 994 1439 701 
Q 1688 409 2113 409 
Q 2538 409 2786 701 
Q 3034 994 3034 1497 
Q 3034 2003 2786 2293 
Q 2538 2584 2113 2584 
z
M 3366 4563 
L 3366 3988 
Q 3128 4100 2886 4159 
Q 2644 4219 2406 4219 
Q 1781 4219 1451 3797 
Q 1122 3375 1075 2522 
Q 1259 2794 1537 2939 
Q 1816 3084 2150 3084 
Q 2853 3084 3261 2657 
Q 3669 2231 3669 1497 
Q 3669 778 3244 343 
Q 2819 -91 2113 -91 
Q 1303 -91 875 529 
Q 447 1150 447 2328 
Q 447 3434 972 4092 
Q 1497 4750 2381 4750 
Q 2619 4750 2861 4703 
Q 3103 4656 3366 4563 
z
" transform="scale(0.015625)"/>
        <path id="DejaVuSans-30" d="M 2034 4250 
Q 1547 4250 1301 3770 
Q 1056 3291 1056 2328 
Q 1056 1369 1301 889 
Q 1547 409 2034 409 
Q 2525 409 2770 889 
Q 3016 1369 3016 2328 
Q 3016 3291 2770 3770 
Q 2525 4250 2034 4250 
z
M 2034 4750 
Q 2819 4750 3233 4129 
Q 3647 3509 3647 2328 
Q 3647 1150 3233 529 
Q 2819 -91 2034 -91 
Q 1250 -91 836 529 
Q 422 1150 422 2328 
Q 422 3509 836 4129 
Q 1250 4750 2034 4750 
z
" transform="scale(0.015625)"/>
       </defs>
       <use xlink:href="#DejaVuSans-2212"/>
       <use xlink:href="#DejaVuSans-36" transform="translate(83.789062 0)"/>
       <use xlink:href="#DejaVuSans-30" transform="translate(147.412109 0)"/>
       <use xlink:href="#DejaVuSans-30" transform="translate(211.035156 0)"/>
       <use xlink:href="#DejaVuSans-30" transform="translate(274.658203 0)"/>
      </g>
     </g>
    </g>
    <g id="xtick_2">
     <g id="line2d_3">
      <path d="M 155.047542 316.744 
L 155.047542 26.88 
" clip-path="url(#p9d0e4385d5)" style="fill: none; stroke: #b0b0b0; stroke-opacity: 0.3; stroke-width: 0.8; stroke-linecap: square"/>
     </g>
     <g id="line2d_4">
      <g>
       <use xlink:href="#m6f44cfc7db" x="155.047542" y="316.744" style="stroke: #000000; stroke-width: 0.8"/>
      </g>
     </g>
     <g id="text_2">
      <!-- −4000 -->
      <g transform="translate(139.824182 330.582594) scale(0.09 -0.09)">
       <defs>
        <path id="DejaVuSans-34" d="M 2419 4116 
L 825 1625 
L 2419 1625 
L 2419 4116 
z
M 2253 4666 
L 3047 4666 
L 3047 1625 
L 3713 1625 
L 3713 1100 
L 3047 1100 
L 3047 0 
L 2419 0 
L 2419 1100 
L 313 1100 
L 313 1709 
L 2253 4666 
z
" transform="scale(0.015625)"/>
       </defs>
       <use xlink:href="#DejaVuSans-2212"/>
       <use xlink:href="#DejaVuSans-34" transform="translate(83.789062 0)"/>
       <use xlink:href="#DejaVuSans-30" transform="translate(147.412109 0)"/>
       <use xlink:href="#DejaVuSans-30" transform="translate(211.035156 0)"/>
       <use xlink:href="#DejaVuSans-30" transform="translate(274.658203 0)"/>
      </g>
     </g>
    </g>
    <g id="xtick_3">
     <g id="line2d_5">
      <path d="M 192.239439 316.744 
L 192.239439 26.88 
" clip-path="url(#p9d0e4385d5)" style="fill: none; stroke: #b0b0b0; stroke-opacity: 0.3; stroke-width: 0.8; stroke-linecap: square"/>
     </g>
     <g id="line2d_6">
      <g>
       <use xlink:href="#m6f44cfc7db" x="192.239439" y="316.744" style="stroke: #000000; stroke-width: 0.8"/>
      </g>
     </g>
     <g id="text_3">
      <!-- −2000 -->
      <g transform="translate(177.01608 330.582594) scale(0.09 -0.09)">
       <defs>
        <path id="DejaVuSans-32" d="M 1228 531 
L 3431 531 
L 3431 0 
L 469 0 
L 469 531 
Q 828 903 1448 1529 
Q 2069 2156 2228 2338 
Q 2531 2678 2651 2914 
Q 2772 3150 2772 3378 
Q 2772 3750 2511 3984 
Q 2250 4219 1831 4219 
Q 1534 4219 1204 4116 
Q 875 4013 500 3803 
L 500 4441 
Q 881 4594 1212 4672 
Q 1544 4750 1819 4750 
Q 2544 4750 2975 4387 
Q 3406 4025 3406 3419 
Q 3406 3131 3298 2873 
Q 3191 2616 2906 2266 
Q 2828 2175 2409 1742 
Q 1991 1309 1228 531 
z
" transform="scale(0.015625)"/>
       </defs>
       <use xlink:href="#DejaVuSans-2212"/>
       <use xlink:href="#DejaVuSans-32" transform="translate(83.789062 0)"/>
       <use xlink:href="#DejaVuSans-30" transform="translate(147.412109 0)"/>
       <use xlink:href="#DejaVuSans-30" transform="translate(211.035156 0)"/>
       <use xlink:href="#DejaVuSans-30" transform="translate(274.658203 0)"/>
      </g>
     </g>
    </g>
    <g id="xtick_4">
     <g id="line2d_7">
      <path d="M 229.431337 316.744 
L 229.431337 26.88 
" clip-path="url(#p9d0e4385d5)" style="fill: none; stroke: #b0b0b0; stroke-opacity: 0.3; stroke-width: 0.8; stroke-linecap: square"/>
     </g>
     <g id="line2d_8">
      <g>
       <use xlink:href="#m6f44cfc7db" x="229.431337" y="316.744" style="stroke: #000000; stroke-width: 0.8"/>
      </g>
     </g>
     <g id="text_4">
      <!-- 0 -->
      <g transform="translate(226.568212 330.582594) scale(0.09 -0.09)">
       <use xlink:href="#DejaVuSans-30"/>
      </g>
     </g>
    </g>
    <g id="xtick_5">
     <g id="line2d_9">
      <path d="M 266.623234 316.744 
L 266.623234 26.88 
" clip-path="url(#p9d0e4385d5)" style="fill: none; stroke: #b0b0b0; stroke-opacity: 0.3; stroke-width: 0.8; stroke-linecap: square"/>
     </g>
     <g id="line2d_10">
      <g>
       <use xlink:href="#m6f44cfc7db" x="266.623234" y="316.744" style="stroke: #000000; stroke-width: 0.8"/>
      </g>
     </g>
     <g id="text_5">
      <!-- 2000 -->
      <g transform="translate(255.170734 330.582594) scale(0.09 -0.09)">
       <use xlink:href="#DejaVuSans-32"/>
       <use xlink:href="#DejaVuSans-30" transform="translate(63.623047 0)"/>
       <use xlink:href="#DejaVuSans-30" transform="translate(127.246094 0)"/>
       <use xlink:href="#DejaVuSans-30" transform="translate(190.869141 0)"/>
      </g>
     </g>
    </g>
    <g id="xtick_6">
     <g id="line2d_11">
      <path d="M 303.815131 316.744 
L 303.815131 26.88 
" clip-path="url(#p9d0e4385d5)" style="fill: none; stroke: #b0b0b0; stroke-opacity: 0.3; stroke-width: 0.8; stroke-linecap: square"/>
     </g>
     <g id="line2d_12">
      <g>
       <use xlink:href="#m6f44cfc7db" x="303.815131" y="316.744" style="stroke: #000000; stroke-width: 0.8"/>
      </g>
     </g>
     <g id="text_6">
      <!-- 4000 -->
      <g transform="translate(292.362631 330.582594) scale(0.09 -0.09)">
       <use xlink:href="#DejaVuSans-34"/>
       <use xlink:href="#DejaVuSans-30" transform="translate(63.623047 0)"/>
       <use xlink:href="#DejaVuSans-30" transform="translate(127.246094 0)"/>
       <use xlink:href="#DejaVuSans-30" transform="translate(190.869141 0)"/>
      </g>
     </g>
    </g>
    <g id="xtick_7">
     <g id="line2d_13">
      <path d="M 341.007029 316.744 
L 341.007029 26.88 
" clip-path="url(#p9d0e4385d5)" style="fill: none; stroke: #b0b0b0; stroke-opacity: 0.3; stroke-width: 0.8; stroke-linecap: square"/>
     </g>
     <g id="line2d_14">
      <g>
       <use xlink:href="#m6f44cfc7db" x="341.007029" y="316.744" style="stroke: #000000; stroke-width: 0.8"/>
      </g>
     </g>
     <g id="text_7">
      <!-- 6000 -->
      <g transform="translate(329.554529 330.582594) scale(0.09 -0.09)">
       <use xlink:href="#DejaVuSans-36"/>
       <use xlink:href="#DejaVuSans-30" transform="translate(63.623047 0)"/>
       <use xlink:href="#DejaVuSans-30" transform="translate(127.246094 0)"/>
       <use xlink:href="#DejaVuSans-30" transform="translate(190.869141 0)"/>
      </g>
     </g>
    </g>
    <g id="text_8">
     <!-- $r_x$ [km] -->
     <g transform="translate(211.751137 344.05275) scale(0.1 -0.1)">
      <defs>
       <path id="DejaVuSans-Oblique-72" d="M 2853 2969 
Q 2766 3016 2653 3041 
Q 2541 3066 2413 3066 
Q 1953 3066 1609 2717 
Q 1266 2369 1153 1784 
L 800 0 
L 225 0 
L 909 3500 
L 1484 3500 
L 1375 2956 
Q 1603 3259 1920 3421 
Q 2238 3584 2597 3584 
Q 2691 3584 2781 3573 
Q 2872 3563 2963 3538 
L 2853 2969 
z
" transform="scale(0.015625)"/>
       <path id="DejaVuSans-Oblique-78" d="M 3841 3500 
L 2234 1784 
L 3219 0 
L 2559 0 
L 1819 1388 
L 531 0 
L -166 0 
L 1556 1844 
L 641 3500 
L 1300 3500 
L 1972 2234 
L 3144 3500 
L 3841 3500 
z
" transform="scale(0.015625)"/>
       <path id="DejaVuSans-20" transform="scale(0.015625)"/>
       <path id="DejaVuSans-5b" d="M 550 4863 
L 1875 4863 
L 1875 4416 
L 1125 4416 
L 1125 -397 
L 1875 -397 
L 1875 -844 
L 550 -844 
L 550 4863 
z
" transform="scale(0.015625)"/>
       <path id="DejaVuSans-6b" d="M 581 4863 
L 1159 4863 
L 1159 1991 
L 2875 3500 
L 3609 3500 
L 1753 1863 
L 3688 0 
L 2938 0 
L 1159 1709 
L 1159 0 
L 581 0 
L 581 4863 
z
" transform="scale(0.015625)"/>
       <path id="DejaVuSans-6d" d="M 3328 2828 
Q 3544 3216 3844 3400 
Q 4144 3584 4550 3584 
Q 5097 3584 5394 3201 
Q 5691 2819 5691 2113 
L 5691 0 
L 5113 0 
L 5113 2094 
Q 5113 2597 4934 2840 
Q 4756 3084 4391 3084 
Q 3944 3084 3684 2787 
Q 3425 2491 3425 1978 
L 3425 0 
L 2847 0 
L 2847 2094 
Q 2847 2600 2669 2842 
Q 2491 3084 2119 3084 
Q 1678 3084 1418 2786 
Q 1159 2488 1159 1978 
L 1159 0 
L 581 0 
L 581 3500 
L 1159 3500 
L 1159 2956 
Q 1356 3278 1631 3431 
Q 1906 3584 2284 3584 
Q 2666 3584 2933 3390 
Q 3200 3197 3328 2828 
z
" transform="scale(0.015625)"/>
       <path id="DejaVuSans-5d" d="M 1947 4863 
L 1947 -844 
L 622 -844 
L 622 -397 
L 1369 -397 
L 1369 4416 
L 622 4416 
L 622 4863 
L 1947 4863 
z
" transform="scale(0.015625)"/>
      </defs>
      <use xlink:href="#DejaVuSans-Oblique-72" transform="translate(0 0.015625)"/>
      <use xlink:href="#DejaVuSans-Oblique-78" transform="translate(41.113281 -16.390625) scale(0.7)"/>
      <use xlink:href="#DejaVuSans-20" transform="translate(85.273438 0.015625)"/>
      <use xlink:href="#DejaVuSans-5b" transform="translate(117.060547 0.015625)"/>
      <use xlink:href="#DejaVuSans-6b" transform="translate(156.074219 0.015625)"/>
      <use xlink:href="#DejaVuSans-6d" transform="translate(213.984375 0.015625)"/>
      <use xlink:href="#DejaVuSans-5d" transform="translate(311.396484 0.015625)"/>
     </g>
    </g>
   </g>
   <g id="matplotlib.axis_2">
    <g id="ytick_1">
     <g id="line2d_15">
      <path d="M 84.373033 283.415529 
L 374.229241 283.415529 
" clip-path="url(#p9d0e4385d5)" style="fill: none; stroke: #b0b0b0; stroke-opacity: 0.3; stroke-width: 0.8; stroke-linecap: square"/>
     </g>
     <g id="line2d_16">
      <defs>
       <path id="md2ef0d860c" d="M 0 0 
L -3.5 0 
" style="stroke: #000000; stroke-width: 0.8"/>
      </defs>
      <g>
       <use xlink:href="#md2ef0d860c" x="84.373033" y="283.415529" style="stroke: #000000; stroke-width: 0.8"/>
      </g>
     </g>
     <g id="text_9">
      <!-- −6000 -->
      <g transform="translate(46.926315 286.834826) scale(0.09 -0.09)">
       <use xlink:href="#DejaVuSans-2212"/>
       <use xlink:href="#DejaVuSans-36" transform="translate(83.789062 0)"/>
       <use xlink:href="#DejaVuSans-30" transform="translate(147.412109 0)"/>
       <use xlink:href="#DejaVuSans-30" transform="translate(211.035156 0)"/>
       <use xlink:href="#DejaVuSans-30" transform="translate(274.658203 0)"/>
      </g>
     </g>
    </g>
    <g id="ytick_2">
     <g id="line2d_17">
      <path d="M 84.373033 246.223632 
L 374.229241 246.223632 
" clip-path="url(#p9d0e4385d5)" style="fill: none; stroke: #b0b0b0; stroke-opacity: 0.3; stroke-width: 0.8; stroke-linecap: square"/>
     </g>
     <g id="line2d_18">
      <g>
       <use xlink:href="#md2ef0d860c" x="84.373033" y="246.223632" style="stroke: #000000; stroke-width: 0.8"/>
      </g>
     </g>
     <g id="text_10">
      <!-- −4000 -->
      <g transform="translate(46.926315 249.642929) scale(0.09 -0.09)">
       <use xlink:href="#DejaVuSans-2212"/>
       <use xlink:href="#DejaVuSans-34" transform="translate(83.789062 0)"/>
       <use xlink:href="#DejaVuSans-30" transform="translate(147.412109 0)"/>
       <use xlink:href="#DejaVuSans-30" transform="translate(211.035156 0)"/>
       <use xlink:href="#DejaVuSans-30" transform="translate(274.658203 0)"/>
      </g>
     </g>
    </g>
    <g id="ytick_3">
     <g id="line2d_19">
      <path d="M 84.373033 209.031734 
L 374.229241 209.031734 
" clip-path="url(#p9d0e4385d5)" style="fill: none; stroke: #b0b0b0; stroke-opacity: 0.3; stroke-width: 0.8; stroke-linecap: square"/>
     </g>
     <g id="line2d_20">
      <g>
       <use xlink:href="#md2ef0d860c" x="84.373033" y="209.031734" style="stroke: #000000; stroke-width: 0.8"/>
      </g>
     </g>
     <g id="text_11">
      <!-- −2000 -->
      <g transform="translate(46.926315 212.451031) scale(0.09 -0.09)">
       <use xlink:href="#DejaVuSans-2212"/>
       <use xlink:href="#DejaVuSans-32" transform="translate(83.789062 0)"/>
       <use xlink:href="#DejaVuSans-30" transform="translate(147.412109 0)"/>
       <use xlink:href="#DejaVuSans-30" transform="translate(211.035156 0)"/>
       <use xlink:href="#DejaVuSans-30" transform="translate(274.658203 0)"/>
      </g>
     </g>
    </g>
    <g id="ytick_4">
     <g id="line2d_21">
      <path d="M 84.373033 171.839837 
L 374.229241 171.839837 
" clip-path="url(#p9d0e4385d5)" style="fill: none; stroke: #b0b0b0; stroke-opacity: 0.3; stroke-width: 0.8; stroke-linecap: square"/>
     </g>
     <g id="line2d_22">
      <g>
       <use xlink:href="#md2ef0d860c" x="84.373033" y="171.839837" style="stroke: #000000; stroke-width: 0.8"/>
      </g>
     </g>
     <g id="text_12">
      <!-- 0 -->
      <g transform="translate(71.646783 175.259134) scale(0.09 -0.09)">
       <use xlink:href="#DejaVuSans-30"/>
      </g>
     </g>
    </g>
    <g id="ytick_5">
     <g id="line2d_23">
      <path d="M 84.373033 134.647939 
L 374.229241 134.647939 
" clip-path="url(#p9d0e4385d5)" style="fill: none; stroke: #b0b0b0; stroke-opacity: 0.3; stroke-width: 0.8; stroke-linecap: square"/>
     </g>
     <g id="line2d_24">
      <g>
       <use xlink:href="#md2ef0d860c" x="84.373033" y="134.647939" style="stroke: #000000; stroke-width: 0.8"/>
      </g>
     </g>
     <g id="text_13">
      <!-- 2000 -->
      <g transform="translate(54.468033 138.067236) scale(0.09 -0.09)">
       <use xlink:href="#DejaVuSans-32"/>
       <use xlink:href="#DejaVuSans-30" transform="translate(63.623047 0)"/>
       <use xlink:href="#DejaVuSans-30" transform="translate(127.246094 0)"/>
       <use xlink:href="#DejaVuSans-30" transform="translate(190.869141 0)"/>
      </g>
     </g>
    </g>
    <g id="ytick_6">
     <g id="line2d_25">
      <path d="M 84.373033 97.456042 
L 374.229241 97.456042 
" clip-path="url(#p9d0e4385d5)" style="fill: none; stroke: #b0b0b0; stroke-opacity: 0.3; stroke-width: 0.8; stroke-linecap: square"/>
     </g>
     <g id="line2d_26">
      <g>
       <use xlink:href="#md2ef0d860c" x="84.373033" y="97.456042" style="stroke: #000000; stroke-width: 0.8"/>
      </g>
     </g>
     <g id="text_14">
      <!-- 4000 -->
      <g transform="translate(54.468033 100.875339) scale(0.09 -0.09)">
       <use xlink:href="#DejaVuSans-34"/>
       <use xlink:href="#DejaVuSans-30" transform="translate(63.623047 0)"/>
       <use xlink:href="#DejaVuSans-30" transform="translate(127.246094 0)"/>
       <use xlink:href="#DejaVuSans-30" transform="translate(190.869141 0)"/>
      </g>
     </g>
    </g>
    <g id="ytick_7">
     <g id="line2d_27">
      <path d="M 84.373033 60.264144 
L 374.229241 60.264144 
" clip-path="url(#p9d0e4385d5)" style="fill: none; stroke: #b0b0b0; stroke-opacity: 0.3; stroke-width: 0.8; stroke-linecap: square"/>
     </g>
     <g id="line2d_28">
      <g>
       <use xlink:href="#md2ef0d860c" x="84.373033" y="60.264144" style="stroke: #000000; stroke-width: 0.8"/>
      </g>
     </g>
     <g id="text_15">
      <!-- 6000 -->
      <g transform="translate(54.468033 63.683441) scale(0.09 -0.09)">
       <use xlink:href="#DejaVuSans-36"/>
       <use xlink:href="#DejaVuSans-30" transform="translate(63.623047 0)"/>
       <use xlink:href="#DejaVuSans-30" transform="translate(127.246094 0)"/>
       <use xlink:href="#DejaVuSans-30" transform="translate(190.869141 0)"/>
      </g>
     </g>
    </g>
    <g id="text_16">
     <!-- $r_y$ [km] -->
     <g transform="translate(39.826315 189.362) rotate(-90) scale(0.1 -0.1)">
      <defs>
       <path id="DejaVuSans-Oblique-79" d="M 1588 -325 
Q 1188 -997 936 -1164 
Q 684 -1331 294 -1331 
L -159 -1331 
L -63 -850 
L 269 -850 
Q 509 -850 678 -719 
Q 847 -588 1056 -206 
L 1234 128 
L 459 3500 
L 1069 3500 
L 1650 819 
L 3256 3500 
L 3859 3500 
L 1588 -325 
z
" transform="scale(0.015625)"/>
      </defs>
      <use xlink:href="#DejaVuSans-Oblique-72" transform="translate(0 0.015625)"/>
      <use xlink:href="#DejaVuSans-Oblique-79" transform="translate(41.113281 -16.390625) scale(0.7)"/>
      <use xlink:href="#DejaVuSans-20" transform="translate(85.273438 0.015625)"/>
      <use xlink:href="#DejaVuSans-5b" transform="translate(117.060547 0.015625)"/>
      <use xlink:href="#DejaVuSans-6b" transform="translate(156.074219 0.015625)"/>
      <use xlink:href="#DejaVuSans-6d" transform="translate(213.984375 0.015625)"/>
      <use xlink:href="#DejaVuSans-5d" transform="translate(311.396484 0.015625)"/>
     </g>
    </g>
   </g>
   <g id="line2d_29">
    <path d="M 267.730041 45.783958 
L 263.708602 44.627241 
L 259.652588 43.598839 
L 255.566094 42.699779 
L 251.453243 41.930954 
L 247.318185 41.293127 
L 243.165093 40.786929 
L 238.998154 40.412857 
L 234.82157 40.171277 
L 230.639553 40.062419 
L 226.456319 40.08638 
L 222.276082 40.243125 
L 218.103056 40.532482 
L 213.941445 40.954149 
L 209.79544 41.507688 
L 205.669217 42.19253 
L 201.566931 43.007974 
L 197.492712 43.953186 
L 193.450661 45.027204 
L 189.444846 46.228934 
L 185.479298 47.557157 
L 181.558007 49.010524 
L 177.684917 50.587562 
L 173.863923 52.286674 
L 170.09887 54.106139 
L 166.393541 56.044117 
L 162.751663 58.098649 
L 159.176896 60.267659 
L 155.672834 62.548956 
L 152.242998 64.940237 
L 148.890834 67.439087 
L 145.619711 70.042987 
L 142.432914 72.74931 
L 139.333647 75.555327 
L 136.32502 78.458209 
L 133.410057 81.455032 
L 130.591685 84.542775 
L 127.872734 87.71833 
L 125.255934 90.978497 
L 122.743913 94.319994 
L 120.339194 97.739456 
L 118.044191 101.233443 
L 115.861208 104.798438 
L 113.792437 108.430853 
L 111.839955 112.127033 
L 110.005723 115.883261 
L 108.291582 119.695757 
L 106.699254 123.560687 
L 105.230337 127.474163 
L 103.886307 131.43225 
L 102.668515 135.430967 
L 101.578183 139.466293 
L 100.616408 143.534171 
L 99.784156 147.630511 
L 99.082263 151.751192 
L 98.511438 155.892073 
L 98.072253 160.04899 
L 97.765153 164.217762 
L 97.590448 168.394199 
L 97.548315 172.5741 
L 97.6388 176.753263 
L 97.861815 180.927485 
L 98.217138 185.092569 
L 98.704416 189.244324 
L 99.323163 193.378577 
L 100.072761 197.491167 
L 100.95246 201.577959 
L 101.961382 205.634841 
L 103.098517 209.65773 
L 104.362727 213.64258 
L 105.752746 217.585379 
L 107.267181 221.48216 
L 108.904517 225.328999 
L 110.663112 229.122024 
L 112.541204 232.857415 
L 114.53691 236.531411 
L 116.64823 240.14031 
L 118.873046 243.680476 
L 121.209127 247.148343 
L 123.654129 250.540415 
L 126.205599 253.853272 
L 128.860977 257.083574 
L 131.617596 260.228064 
L 134.47269 263.283567 
L 137.423392 266.247002 
L 140.466737 269.115378 
L 143.59967 271.885796 
L 146.819042 274.555461 
L 150.121618 277.121674 
L 153.504079 279.581841 
L 156.963025 281.933476 
L 160.494977 284.174199 
L 164.096384 286.301743 
L 167.763623 288.313955 
L 171.493004 290.208795 
L 175.280776 291.984343 
L 179.123125 293.6388 
L 183.016183 295.170485 
L 186.956032 296.577843 
L 190.938703 297.859444 
L 194.960185 299.013984 
L 199.016427 300.040285 
L 203.10334 300.937302 
L 207.216807 301.704117 
L 211.352681 302.339944 
L 215.506791 302.844129 
L 219.674949 303.216152 
L 223.85295 303.455623 
L 228.03658 303.56229 
L 232.221618 303.536033 
L 236.403839 303.376864 
L 240.579023 303.084933 
L 244.742955 302.660522 
L 248.891429 302.104048 
L 253.020257 301.416061 
L 257.125267 300.597243 
L 261.202313 299.64841 
L 265.247275 298.570509 
L 269.256064 297.364618 
L 273.22463 296.031943 
L 277.14896 294.573821 
L 281.025086 292.991715 
L 284.849088 291.287213 
L 288.617099 289.462028 
L 292.325308 287.517994 
L 295.969962 285.457069 
L 299.547375 283.281325 
L 303.053926 280.992955 
L 306.486065 278.594263 
L 309.840321 276.087666 
L 313.113295 273.475693 
L 316.301677 270.760976 
L 319.402236 267.946255 
L 322.411834 265.034369 
L 325.327422 262.028257 
L 328.146049 258.930955 
L 330.864859 255.745589 
L 333.481098 252.475378 
L 335.992117 249.123623 
L 338.395371 245.693712 
L 340.688427 242.18911 
L 342.868962 238.61336 
L 344.934767 234.970075 
L 346.883748 231.262939 
L 348.713932 227.4957 
L 350.423465 223.672166 
L 352.010615 219.796204 
L 353.473775 215.871733 
L 354.811463 211.902724 
L 356.022325 207.893189 
L 357.105134 203.847185 
L 358.058795 199.768804 
L 358.882344 195.662172 
L 359.574947 191.531442 
L 360.135904 187.380793 
L 360.564648 183.214424 
L 360.860748 179.03655 
L 361.023906 174.851396 
L 361.053959 170.663195 
L 360.950878 166.476185 
L 360.714772 162.2946 
L 360.345883 158.12267 
L 359.844587 153.964612 
L 359.211395 149.824633 
L 358.446953 145.706919 
L 357.552038 141.615633 
L 356.527561 137.554911 
L 355.374562 133.528859 
L 354.094214 129.541545 
L 352.687817 125.597 
L 351.1568 121.699209 
L 349.502716 117.852111 
L 347.727246 114.059593 
L 345.83219 110.325484 
L 343.819472 106.653556 
L 341.691133 103.047517 
L 339.449332 99.511007 
L 337.096343 96.047595 
L 334.63455 92.660777 
L 332.066449 89.353969 
L 329.394644 86.130507 
L 326.62184 82.993642 
L 323.750847 79.946535 
L 320.784573 76.992258 
L 317.726022 74.133788 
L 314.578291 71.374004 
L 311.344566 68.715684 
L 308.028121 66.161506 
L 304.63231 63.714039 
L 301.16057 61.375744 
L 297.616412 59.148974 
L 294.003421 57.035965 
L 290.32525 55.038841 
L 286.585618 53.159606 
L 282.788303 51.400147 
L 278.937145 49.762228 
L 275.036033 48.247489 
L 271.088908 46.857449 
L 267.099757 45.593497 
L 263.072608 44.456896 
L 259.011526 43.448781 
L 254.920611 42.570156 
L 250.80399 41.821895 
L 246.665818 41.204741 
L 242.510269 40.719302 
L 238.341533 40.366056 
L 234.163816 40.145346 
L 229.981328 40.057383 
L 225.798285 40.102243 
L 221.618904 40.279868 
L 217.447395 40.590067 
L 213.287962 41.032515 
L 209.144793 41.606755 
L 205.022062 42.312196 
L 200.923919 43.148116 
L 196.85449 44.113662 
L 192.817872 45.20785 
L 188.818127 46.429567 
L 184.859279 47.777573 
L 180.945311 49.250499 
L 177.080161 50.846854 
L 173.267716 52.565019 
L 169.51181 54.403256 
L 165.81622 56.359707 
L 162.18466 58.432391 
L 158.620782 60.619217 
L 155.128167 62.917974 
L 151.710325 65.326343 
L 148.370691 67.841892 
L 145.112621 70.462084 
L 141.939386 73.184276 
L 138.854176 76.005724 
L 135.860089 78.923584 
L 132.960132 81.934915 
L 130.157218 85.036683 
L 127.454161 88.225765 
L 124.853676 91.498948 
L 122.358374 94.852937 
L 119.97076 98.284356 
L 117.693233 101.78975 
L 115.528078 105.365593 
L 113.477469 109.008285 
L 111.543466 112.714161 
L 109.72801 116.479494 
L 108.032924 120.300495 
L 106.459911 124.173323 
L 105.01055 128.09408 
L 103.686296 132.058825 
L 102.488481 136.06357 
L 101.418307 140.104288 
L 100.47685 144.176916 
L 99.665057 148.277359 
L 98.983743 152.401494 
L 98.433596 156.545175 
L 98.015168 160.704234 
L 97.728882 164.87449 
L 97.575027 169.051751 
L 97.553762 173.231815 
L 97.665108 177.410479 
L 97.908958 181.583541 
L 98.28507 185.746805 
L 98.793069 189.896083 
L 99.432449 194.027202 
L 100.20257 198.136007 
L 101.102664 202.218365 
L 102.131829 206.270168 
L 103.289037 210.28734 
L 104.573129 214.265838 
L 105.982819 218.201658 
L 107.516696 222.09084 
L 109.173223 225.929467 
L 110.950739 229.713676 
L 112.847465 233.439655 
L 114.861498 237.103651 
L 116.990819 240.701975 
L 119.233292 244.231001 
L 121.586669 247.687172 
L 124.048589 251.067004 
L 126.61658 254.367092 
L 129.288066 257.584106 
L 132.060366 260.714802 
L 134.930695 263.756021 
L 137.896173 266.704695 
L 140.953819 269.557847 
L 144.100563 272.312596 
L 147.333243 274.96616 
L 150.648611 277.515856 
L 154.043334 279.959109 
L 157.513999 282.293448 
L 161.057116 284.516511 
L 164.669123 286.626048 
L 168.346386 288.619924 
L 172.085205 290.496119 
L 175.881818 292.252731 
L 179.732403 293.887978 
L 183.633085 295.400202 
L 187.579936 296.787865 
L 191.568981 298.049557 
L 195.596201 299.183994 
L 199.65754 300.19002 
L 203.748906 301.066608 
L 207.866174 301.812861 
L 212.005193 302.428016 
L 216.161792 302.911437 
L 220.331778 303.262626 
L 224.510944 303.481216 
L 228.695076 303.566973 
L 232.87995 303.519798 
L 237.061344 303.339727 
L 241.235037 303.026929 
L 245.396815 302.581709 
L 249.542475 302.004502 
L 253.667831 301.295881 
L 257.768716 300.456549 
L 261.840986 299.487342 
L 265.880526 298.389228 
L 269.883255 297.163305 
L 273.845125 295.810801 
L 277.762132 294.333071 
L 281.630315 292.731598 
L 285.445763 291.00799 
L 289.204616 289.163981 
L 292.903072 287.201423 
L 296.537389 285.122291 
L 300.10389 282.928678 
L 303.598966 280.622794 
L 307.01908 278.206961 
L 310.36077 275.683614 
L 313.620652 273.055297 
L 316.795427 270.324662 
L 319.88188 267.494461 
L 322.876886 264.567553 
L 325.777411 261.546889 
L 328.580519 258.435521 
L 331.28337 255.23659 
L 333.883227 251.953327 
L 336.377456 248.589049 
L 338.76353 245.147154 
L 341.039033 241.631121 
L 343.20166 238.044504 
L 345.249218 234.390927 
L 347.179636 230.674084 
L 348.990956 226.897732 
L 350.681345 223.065692 
L 352.249089 219.181836 
L 353.692602 215.250093 
L 355.010422 211.27444 
L 356.201214 207.258898 
L 357.263772 203.207527 
L 358.197022 199.124427 
L 359.000019 195.013727 
L 359.671951 190.879585 
L 360.21214 186.726184 
L 360.620039 182.557725 
L 360.895238 178.378425 
L 361.03746 174.192511 
L 361.046564 170.004217 
L 360.922542 165.81778 
L 360.665524 161.637433 
L 360.275774 157.467406 
L 359.753688 153.311915 
L 359.099799 149.175162 
L 358.314773 145.061331 
L 357.399408 140.974581 
L 356.354637 136.919042 
L 355.18152 132.898816 
L 353.881249 128.917966 
L 352.455146 124.980514 
L 350.904659 121.090439 
L 349.231362 117.251673 
L 347.436953 113.468092 
L 345.523254 109.743518 
L 343.492205 106.081714 
L 341.345868 102.486375 
L 339.086419 98.961131 
L 336.71615 95.509541 
L 334.237462 92.135088 
L 331.652869 88.841175 
L 328.96499 85.631125 
L 326.176548 82.508174 
L 323.290368 79.475472 
L 320.309374 76.536075 
L 317.236583 73.692944 
L 314.075108 70.948943 
L 310.828149 68.306835 
L 307.498991 65.769279 
L 304.091004 63.338828 
L 300.607635 61.017928 
L 297.052407 58.808912 
L 293.428917 56.713999 
L 289.740827 54.735294 
L 285.991867 52.874783 
L 282.185825 51.134333 
L 278.326547 49.51569 
L 274.417933 48.020474 
L 270.463931 46.650184 
L 266.468533 45.406189 
L 262.435774 44.289732 
L 258.369726 43.301928 
L 254.274491 42.443761 
L 250.154204 41.716082 
L 246.01302 41.119615 
L 241.855118 40.654948 
L 237.684691 40.322536 
L 233.505943 40.122702 
L 229.323088 40.055636 
L 225.140343 40.121393 
L 220.961921 40.319893 
L 216.792034 40.650925 
L 212.634882 41.114144 
L 208.494653 41.709069 
L 204.375516 42.435091 
L 200.281618 43.291467 
L 196.217081 44.277322 
L 192.185996 45.391653 
L 188.19242 46.633326 
L 184.240371 48.001081 
L 180.333824 49.49353 
L 176.476711 51.109161 
L 172.672909 52.846337 
L 168.926245 54.703301 
L 165.240484 56.678173 
L 161.619333 58.768959 
L 158.066432 60.973546 
L 154.585351 63.289706 
L 151.179589 65.715103 
L 147.852568 68.247287 
L 144.607631 70.883706 
L 141.448038 73.6217 
L 138.376962 76.458508 
L 135.397488 79.391272 
L 132.51261 82.417036 
L 129.725223 85.532752 
L 127.038128 88.735282 
L 124.454022 92.0214 
L 121.9755 95.387798 
L 119.605052 98.831087 
L 117.345056 102.347801 
L 115.197783 105.934402 
L 113.165388 109.58728 
L 111.249911 113.30276 
L 109.453277 117.077105 
L 107.777289 120.906517 
L 106.223629 124.787145 
L 104.79386 128.715086 
L 103.489415 132.68639 
L 102.311607 136.697063 
L 101.261617 140.743072 
L 100.340503 144.820349 
L 99.549189 148.924794 
L 98.888471 153.052279 
L 98.359015 157.198656 
L 97.961354 161.359755 
L 97.695889 165.531392 
L 97.562889 169.709372 
L 97.562491 173.889494 
L 97.694697 178.067555 
L 97.959377 182.239354 
L 98.356268 186.400694 
L 98.884976 190.547391 
L 99.544972 194.675275 
L 100.335598 198.780192 
L 101.256063 202.858013 
L 102.305446 206.904637 
L 103.482698 210.915991 
L 104.786641 214.888038 
L 106.215967 218.816782 
L 107.769247 222.698268 
L 109.444924 226.528588 
L 111.241318 230.303885 
L 113.15663 234.020359 
L 115.188939 237.674266 
L 117.336209 241.261925 
L 119.596284 244.779721 
L 121.966898 248.22411 
L 124.445674 251.591619 
L 127.030123 254.878854 
L 129.717652 258.0825 
L 132.505563 261.199324 
L 135.391056 264.226184 
L 138.371236 267.160023 
L 141.443107 269.997881 
L 144.603584 272.736891 
L 147.849492 275.374287 
L 151.177568 277.907404 
L 154.584468 280.333681 
L 158.066766 282.650665 
L 161.620961 284.856011 
L 165.243478 286.947489 
L 168.930673 288.92298 
L 172.678836 290.780482 
L 176.484196 292.518114 
L 180.342922 294.134111 
L 184.25113 295.626835 
L 188.204884 296.994767 
L 192.200203 298.236519 
L 196.233062 299.350825 
L 200.299397 300.336549 
L 204.395112 301.192686 
L 208.516078 301.91836 
L 212.658141 302.512826 
L 216.817124 302.975471 
L 220.988834 303.305818 
L 225.169061 303.503519 
L 229.35359 303.568364 
L 233.538196 303.500273 
L 237.718658 303.299304 
L 241.890755 302.965647 
L 246.050275 302.499627 
L 250.193018 301.901702 
L 254.314799 301.172465 
L 258.411456 300.312639 
L 262.478848 299.323083 
L 266.512866 298.204783 
L 270.509433 296.958859 
L 274.464509 295.586558 
L 278.374095 294.089256 
L 282.234239 292.468457 
L 286.041036 290.725787 
L 289.790637 288.862999 
L 293.479248 286.881965 
L 297.103137 284.784679 
L 300.658637 282.573252 
L 304.142151 280.249911 
L 307.550153 277.816998 
L 310.879193 275.276963 
L 314.125901 272.632369 
L 317.28699 269.885882 
L 320.359259 267.040274 
L 323.339598 264.098415 
L 326.224988 261.063276 
L 329.012507 257.93792 
L 331.699332 254.725504 
L 334.282741 251.429271 
L 336.760117 248.052553 
L 339.128951 244.598761 
L 341.386844 241.071385 
L 343.531508 237.473989 
L 345.56077 233.810211 
L 347.472575 230.083755 
L 349.264986 226.298387 
L 350.936188 222.457935 
L 352.484488 218.566283 
L 353.908318 214.627367 
L 355.206236 210.645169 
L 356.376928 206.623719 
L 357.419208 202.567084 
L 358.332023 198.479366 
L 359.114449 194.364702 
L 359.765694 190.227252 
L 360.285101 186.071203 
L 360.672144 181.900758 
L 360.926435 177.720137 
L 361.047718 173.533567 
L 361.035873 169.345285 
L 360.890914 165.159525 
L 360.61299 160.980522 
L 360.202388 156.812503 
L 359.659525 152.659682 
L 358.984955 148.526259 
L 358.179365 144.416414 
L 357.243575 140.334301 
L 356.178535 136.284048 
L 354.985329 132.269749 
L 353.665169 128.295461 
L 352.219396 124.365201 
L 350.649479 120.48294 
L 348.95701 116.652601 
L 347.143708 112.878053 
L 345.211413 109.163107 
L 343.162085 105.511517 
L 340.997803 101.926968 
L 338.720763 98.41308 
L 336.333272 94.973397 
L 333.837752 91.611392 
L 331.236731 88.330456 
L 328.532846 85.133898 
L 325.728836 82.024942 
L 322.827542 79.00672 
L 319.831902 76.082276 
L 316.744949 73.254555 
L 313.569809 70.526405 
L 310.309697 67.900573 
L 306.96791 65.379703 
L 303.547831 62.96633 
L 300.052921 60.662882 
L 296.486712 58.471675 
L 292.852813 56.39491 
L 289.154898 54.434673 
L 285.396703 52.592932 
L 281.582029 50.871535 
L 277.714729 49.272208 
L 273.79871 47.796552 
L 269.837928 46.446046 
L 265.836384 45.222039 
L 261.798116 44.125754 
L 257.727203 43.158285 
L 253.627752 42.320596 
L 249.503901 41.613518 
L 245.359809 41.037753 
L 241.199658 40.593868 
L 237.027642 40.282298 
L 232.847969 40.103346 
L 228.664852 40.057178 
L 224.482507 40.143829 
L 220.30515 40.3632 
L 216.136988 40.715057 
L 211.982222 41.199033 
L 207.845036 41.81463 
L 203.729595 42.561215 
L 199.640045 43.438024 
L 195.580501 44.444164 
L 191.55505 45.578609 
L 187.567742 46.840207 
L 183.62259 48.227677 
L 179.723562 49.739611 
L 175.874581 51.374477 
L 172.079517 53.130621 
L 168.342187 55.006264 
L 164.666348 56.99951 
L 161.055697 59.108345 
L 157.513861 61.330637 
L 154.044401 63.664142 
L 150.650803 66.106506 
L 147.336478 68.655263 
L 144.104755 71.307843 
L 140.958881 74.06157 
L 137.902015 76.913668 
L 134.93723 79.861263 
L 132.067501 82.901385 
L 129.295711 86.03097 
L 126.624644 89.246868 
L 124.056982 92.545839 
L 121.595303 95.924562 
L 119.242078 99.379635 
L 116.999671 102.907582 
L 114.870333 106.504852 
L 112.856202 110.167826 
L 110.9593 113.892817 
L 109.181531 117.676079 
L 107.524682 121.513806 
L 105.990416 125.402139 
L 104.580273 129.337165 
L 103.29567 133.314929 
L 102.137897 137.331431 
L 101.108119 141.38263 
L 100.207369 145.464454 
L 99.436554 149.572798 
L 98.796448 153.703532 
L 98.287697 157.852502 
L 97.910813 162.015537 
L 97.666176 166.18845 
L 97.554035 170.367046 
L 97.574503 174.547122 
L 97.727565 178.724476 
L 98.013068 182.894907 
L 98.430729 187.054221 
L 98.980133 191.198234 
L 99.660729 195.322778 
L 100.47184 199.423705 
L 101.412654 203.49689 
L 102.482229 207.538233 
L 103.679496 211.543669 
L 105.003256 215.509167 
L 106.452184 219.430736 
L 108.024828 223.304429 
L 109.719613 227.126346 
L 111.534841 230.892638 
L 113.468692 234.599514 
L 115.519227 238.24324 
L 117.684391 241.820144 
L 119.962012 245.326624 
L 122.349805 248.759144 
L 124.845375 252.114246 
L 127.446218 255.388547 
L 130.149722 258.578744 
L 132.953175 261.681619 
L 135.853761 264.694043 
L 138.848568 267.612974 
L 141.934588 270.435467 
L 145.10872 273.158669 
L 148.367774 275.779832 
L 151.708477 278.296305 
L 155.127469 280.705546 
L 158.621314 283.005117 
L 162.186497 285.192693 
L 165.819434 287.266058 
L 169.516469 289.223114 
L 173.273883 291.061878 
L 177.087895 292.780485 
L 180.954666 294.377192 
L 184.870302 295.850378 
L 188.830861 297.198546 
L 192.832354 298.420325 
L 196.870751 299.514472 
L 200.941981 300.479871 
L 205.041944 301.315535 
L 209.166505 302.02061 
L 213.311508 302.594372 
L 217.472772 303.03623 
L 221.6461 303.345725 
L 225.827284 303.522533 
L 230.012105 303.566463 
L 234.19634 303.477458 
L 238.375765 303.255596 
L 242.546162 302.901088 
L 246.70332 302.41428 
L 250.843042 301.795652 
L 254.961145 301.045816 
L 259.053471 300.165518 
L 263.115884 299.155636 
L 267.144278 298.017178 
L 271.134584 296.751283 
L 275.082766 295.35922 
L 278.984834 293.842385 
L 282.836842 292.202299 
L 286.634894 290.44061 
L 290.375148 288.55909 
L 294.053821 286.559629 
L 297.667191 284.444241 
L 301.211602 282.215055 
L 301.211602 282.215055 
" clip-path="url(#p9d0e4385d5)" style="fill: none; stroke: #bb3e03; stroke-linecap: square"/>
   </g>
   <g id="patch_5">
    <path d="M 84.373033 316.744 
L 84.373033 26.88 
" style="fill: none; stroke: #000000; stroke-width: 0.8; stroke-linejoin: miter; stroke-linecap: square"/>
   </g>
   <g id="patch_6">
    <path d="M 374.229241 316.744 
L 374.229241 26.88 
" style="fill: none; stroke: #000000; stroke-width: 0.8; stroke-linejoin: miter; stroke-linecap: square"/>
   </g>
   <g id="patch_7">
    <path d="M 84.373033 316.744 
L 374.229241 316.744 
" style="fill: none; stroke: #000000; stroke-width: 0.8; stroke-linejoin: miter; stroke-linecap: square"/>
   </g>
   <g id="patch_8">
    <path d="M 84.373033 26.88 
L 374.229241 26.88 
" style="fill: none; stroke: #000000; stroke-width: 0.8; stroke-linejoin: miter; stroke-linecap: square"/>
   </g>
   <g id="text_17">
    <!-- MuJoCo trajectory in the orbital plane (SPICE) -->
    <g transform="translate(93.251137 20.88) scale(0.12 -0.12)">
     <defs>
      <path id="DejaVuSans-4d" d="M 628 4666 
L 1569 4666 
L 2759 1491 
L 3956 4666 
L 4897 4666 
L 4897 0 
L 4281 0 
L 4281 4097 
L 3078 897 
L 2444 897 
L 1241 4097 
L 1241 0 
L 628 0 
L 628 4666 
z
" transform="scale(0.015625)"/>
      <path id="DejaVuSans-75" d="M 544 1381 
L 544 3500 
L 1119 3500 
L 1119 1403 
Q 1119 906 1312 657 
Q 1506 409 1894 409 
Q 2359 409 2629 706 
Q 2900 1003 2900 1516 
L 2900 3500 
L 3475 3500 
L 3475 0 
L 2900 0 
L 2900 538 
Q 2691 219 2414 64 
Q 2138 -91 1772 -91 
Q 1169 -91 856 284 
Q 544 659 544 1381 
z
M 1991 3584 
L 1991 3584 
z
" transform="scale(0.015625)"/>
      <path id="DejaVuSans-4a" d="M 628 4666 
L 1259 4666 
L 1259 325 
Q 1259 -519 939 -900 
Q 619 -1281 -91 -1281 
L -331 -1281 
L -331 -750 
L -134 -750 
Q 284 -750 456 -515 
Q 628 -281 628 325 
L 628 4666 
z
" transform="scale(0.015625)"/>
      <path id="DejaVuSans-6f" d="M 1959 3097 
Q 1497 3097 1228 2736 
Q 959 2375 959 1747 
Q 959 1119 1226 758 
Q 1494 397 1959 397 
Q 2419 397 2687 759 
Q 2956 1122 2956 1747 
Q 2956 2369 2687 2733 
Q 2419 3097 1959 3097 
z
M 1959 3584 
Q 2709 3584 3137 3096 
Q 3566 2609 3566 1747 
Q 3566 888 3137 398 
Q 2709 -91 1959 -91 
Q 1206 -91 779 398 
Q 353 888 353 1747 
Q 353 2609 779 3096 
Q 1206 3584 1959 3584 
z
" transform="scale(0.015625)"/>
      <path id="DejaVuSans-43" d="M 4122 4306 
L 4122 3641 
Q 3803 3938 3442 4084 
Q 3081 4231 2675 4231 
Q 1875 4231 1450 3742 
Q 1025 3253 1025 2328 
Q 1025 1406 1450 917 
Q 1875 428 2675 428 
Q 3081 428 3442 575 
Q 3803 722 4122 1019 
L 4122 359 
Q 3791 134 3420 21 
Q 3050 -91 2638 -91 
Q 1578 -91 968 557 
Q 359 1206 359 2328 
Q 359 3453 968 4101 
Q 1578 4750 2638 4750 
Q 3056 4750 3426 4639 
Q 3797 4528 4122 4306 
z
" transform="scale(0.015625)"/>
      <path id="DejaVuSans-74" d="M 1172 4494 
L 1172 3500 
L 2356 3500 
L 2356 3053 
L 1172 3053 
L 1172 1153 
Q 1172 725 1289 603 
Q 1406 481 1766 481 
L 2356 481 
L 2356 0 
L 1766 0 
Q 1100 0 847 248 
Q 594 497 594 1153 
L 594 3053 
L 172 3053 
L 172 3500 
L 594 3500 
L 594 4494 
L 1172 4494 
z
" transform="scale(0.015625)"/>
      <path id="DejaVuSans-72" d="M 2631 2963 
Q 2534 3019 2420 3045 
Q 2306 3072 2169 3072 
Q 1681 3072 1420 2755 
Q 1159 2438 1159 1844 
L 1159 0 
L 581 0 
L 581 3500 
L 1159 3500 
L 1159 2956 
Q 1341 3275 1631 3429 
Q 1922 3584 2338 3584 
Q 2397 3584 2469 3576 
Q 2541 3569 2628 3553 
L 2631 2963 
z
" transform="scale(0.015625)"/>
      <path id="DejaVuSans-61" d="M 2194 1759 
Q 1497 1759 1228 1600 
Q 959 1441 959 1056 
Q 959 750 1161 570 
Q 1363 391 1709 391 
Q 2188 391 2477 730 
Q 2766 1069 2766 1631 
L 2766 1759 
L 2194 1759 
z
M 3341 1997 
L 3341 0 
L 2766 0 
L 2766 531 
Q 2569 213 2275 61 
Q 1981 -91 1556 -91 
Q 1019 -91 701 211 
Q 384 513 384 1019 
Q 384 1609 779 1909 
Q 1175 2209 1959 2209 
L 2766 2209 
L 2766 2266 
Q 2766 2663 2505 2880 
Q 2244 3097 1772 3097 
Q 1472 3097 1187 3025 
Q 903 2953 641 2809 
L 641 3341 
Q 956 3463 1253 3523 
Q 1550 3584 1831 3584 
Q 2591 3584 2966 3190 
Q 3341 2797 3341 1997 
z
" transform="scale(0.015625)"/>
      <path id="DejaVuSans-6a" d="M 603 3500 
L 1178 3500 
L 1178 -63 
Q 1178 -731 923 -1031 
Q 669 -1331 103 -1331 
L -116 -1331 
L -116 -844 
L 38 -844 
Q 366 -844 484 -692 
Q 603 -541 603 -63 
L 603 3500 
z
M 603 4863 
L 1178 4863 
L 1178 4134 
L 603 4134 
L 603 4863 
z
" transform="scale(0.015625)"/>
      <path id="DejaVuSans-65" d="M 3597 1894 
L 3597 1613 
L 953 1613 
Q 991 1019 1311 708 
Q 1631 397 2203 397 
Q 2534 397 2845 478 
Q 3156 559 3463 722 
L 3463 178 
Q 3153 47 2828 -22 
Q 2503 -91 2169 -91 
Q 1331 -91 842 396 
Q 353 884 353 1716 
Q 353 2575 817 3079 
Q 1281 3584 2069 3584 
Q 2775 3584 3186 3129 
Q 3597 2675 3597 1894 
z
M 3022 2063 
Q 3016 2534 2758 2815 
Q 2500 3097 2075 3097 
Q 1594 3097 1305 2825 
Q 1016 2553 972 2059 
L 3022 2063 
z
" transform="scale(0.015625)"/>
      <path id="DejaVuSans-63" d="M 3122 3366 
L 3122 2828 
Q 2878 2963 2633 3030 
Q 2388 3097 2138 3097 
Q 1578 3097 1268 2742 
Q 959 2388 959 1747 
Q 959 1106 1268 751 
Q 1578 397 2138 397 
Q 2388 397 2633 464 
Q 2878 531 3122 666 
L 3122 134 
Q 2881 22 2623 -34 
Q 2366 -91 2075 -91 
Q 1284 -91 818 406 
Q 353 903 353 1747 
Q 353 2603 823 3093 
Q 1294 3584 2113 3584 
Q 2378 3584 2631 3529 
Q 2884 3475 3122 3366 
z
" transform="scale(0.015625)"/>
      <path id="DejaVuSans-79" d="M 2059 -325 
Q 1816 -950 1584 -1140 
Q 1353 -1331 966 -1331 
L 506 -1331 
L 506 -850 
L 844 -850 
Q 1081 -850 1212 -737 
Q 1344 -625 1503 -206 
L 1606 56 
L 191 3500 
L 800 3500 
L 1894 763 
L 2988 3500 
L 3597 3500 
L 2059 -325 
z
" transform="scale(0.015625)"/>
      <path id="DejaVuSans-69" d="M 603 3500 
L 1178 3500 
L 1178 0 
L 603 0 
L 603 3500 
z
M 603 4863 
L 1178 4863 
L 1178 4134 
L 603 4134 
L 603 4863 
z
" transform="scale(0.015625)"/>
      <path id="DejaVuSans-6e" d="M 3513 2113 
L 3513 0 
L 2938 0 
L 2938 2094 
Q 2938 2591 2744 2837 
Q 2550 3084 2163 3084 
Q 1697 3084 1428 2787 
Q 1159 2491 1159 1978 
L 1159 0 
L 581 0 
L 581 3500 
L 1159 3500 
L 1159 2956 
Q 1366 3272 1645 3428 
Q 1925 3584 2291 3584 
Q 2894 3584 3203 3211 
Q 3513 2838 3513 2113 
z
" transform="scale(0.015625)"/>
      <path id="DejaVuSans-68" d="M 3513 2113 
L 3513 0 
L 2938 0 
L 2938 2094 
Q 2938 2591 2744 2837 
Q 2550 3084 2163 3084 
Q 1697 3084 1428 2787 
Q 1159 2491 1159 1978 
L 1159 0 
L 581 0 
L 581 4863 
L 1159 4863 
L 1159 2956 
Q 1366 3272 1645 3428 
Q 1925 3584 2291 3584 
Q 2894 3584 3203 3211 
Q 3513 2838 3513 2113 
z
" transform="scale(0.015625)"/>
      <path id="DejaVuSans-62" d="M 3116 1747 
Q 3116 2381 2855 2742 
Q 2594 3103 2138 3103 
Q 1681 3103 1420 2742 
Q 1159 2381 1159 1747 
Q 1159 1113 1420 752 
Q 1681 391 2138 391 
Q 2594 391 2855 752 
Q 3116 1113 3116 1747 
z
M 1159 2969 
Q 1341 3281 1617 3432 
Q 1894 3584 2278 3584 
Q 2916 3584 3314 3078 
Q 3713 2572 3713 1747 
Q 3713 922 3314 415 
Q 2916 -91 2278 -91 
Q 1894 -91 1617 61 
Q 1341 213 1159 525 
L 1159 0 
L 581 0 
L 581 4863 
L 1159 4863 
L 1159 2969 
z
" transform="scale(0.015625)"/>
      <path id="DejaVuSans-6c" d="M 603 4863 
L 1178 4863 
L 1178 0 
L 603 0 
L 603 4863 
z
" transform="scale(0.015625)"/>
      <path id="DejaVuSans-70" d="M 1159 525 
L 1159 -1331 
L 581 -1331 
L 581 3500 
L 1159 3500 
L 1159 2969 
Q 1341 3281 1617 3432 
Q 1894 3584 2278 3584 
Q 2916 3584 3314 3078 
Q 3713 2572 3713 1747 
Q 3713 922 3314 415 
Q 2916 -91 2278 -91 
Q 1894 -91 1617 61 
Q 1341 213 1159 525 
z
M 3116 1747 
Q 3116 2381 2855 2742 
Q 2594 3103 2138 3103 
Q 1681 3103 1420 2742 
Q 1159 2381 1159 1747 
Q 1159 1113 1420 752 
Q 1681 391 2138 391 
Q 2594 391 2855 752 
Q 3116 1113 3116 1747 
z
" transform="scale(0.015625)"/>
      <path id="DejaVuSans-28" d="M 1984 4856 
Q 1566 4138 1362 3434 
Q 1159 2731 1159 2009 
Q 1159 1288 1364 580 
Q 1569 -128 1984 -844 
L 1484 -844 
Q 1016 -109 783 600 
Q 550 1309 550 2009 
Q 550 2706 781 3412 
Q 1013 4119 1484 4856 
L 1984 4856 
z
" transform="scale(0.015625)"/>
      <path id="DejaVuSans-53" d="M 3425 4513 
L 3425 3897 
Q 3066 4069 2747 4153 
Q 2428 4238 2131 4238 
Q 1616 4238 1336 4038 
Q 1056 3838 1056 3469 
Q 1056 3159 1242 3001 
Q 1428 2844 1947 2747 
L 2328 2669 
Q 3034 2534 3370 2195 
Q 3706 1856 3706 1288 
Q 3706 609 3251 259 
Q 2797 -91 1919 -91 
Q 1588 -91 1214 -16 
Q 841 59 441 206 
L 441 856 
Q 825 641 1194 531 
Q 1563 422 1919 422 
Q 2459 422 2753 634 
Q 3047 847 3047 1241 
Q 3047 1584 2836 1778 
Q 2625 1972 2144 2069 
L 1759 2144 
Q 1053 2284 737 2584 
Q 422 2884 422 3419 
Q 422 4038 858 4394 
Q 1294 4750 2059 4750 
Q 2388 4750 2728 4690 
Q 3069 4631 3425 4513 
z
" transform="scale(0.015625)"/>
      <path id="DejaVuSans-50" d="M 1259 4147 
L 1259 2394 
L 2053 2394 
Q 2494 2394 2734 2622 
Q 2975 2850 2975 3272 
Q 2975 3691 2734 3919 
Q 2494 4147 2053 4147 
L 1259 4147 
z
M 628 4666 
L 2053 4666 
Q 2838 4666 3239 4311 
Q 3641 3956 3641 3272 
Q 3641 2581 3239 2228 
Q 2838 1875 2053 1875 
L 1259 1875 
L 1259 0 
L 628 0 
L 628 4666 
z
" transform="scale(0.015625)"/>
      <path id="DejaVuSans-49" d="M 628 4666 
L 1259 4666 
L 1259 0 
L 628 0 
L 628 4666 
z
" transform="scale(0.015625)"/>
      <path id="DejaVuSans-45" d="M 628 4666 
L 3578 4666 
L 3578 4134 
L 1259 4134 
L 1259 2753 
L 3481 2753 
L 3481 2222 
L 1259 2222 
L 1259 531 
L 3634 531 
L 3634 0 
L 628 0 
L 628 4666 
z
" transform="scale(0.015625)"/>
      <path id="DejaVuSans-29" d="M 513 4856 
L 1013 4856 
Q 1481 4119 1714 3412 
Q 1947 2706 1947 2009 
Q 1947 1309 1714 600 
Q 1481 -109 1013 -844 
L 513 -844 
Q 928 -128 1133 580 
Q 1338 1288 1338 2009 
Q 1338 2731 1133 3434 
Q 928 4138 513 4856 
z
" transform="scale(0.015625)"/>
     </defs>
     <use xlink:href="#DejaVuSans-4d"/>
     <use xlink:href="#DejaVuSans-75" transform="translate(86.279297 0)"/>
     <use xlink:href="#DejaVuSans-4a" transform="translate(149.658203 0)"/>
     <use xlink:href="#DejaVuSans-6f" transform="translate(179.150391 0)"/>
     <use xlink:href="#DejaVuSans-43" transform="translate(240.332031 0)"/>
     <use xlink:href="#DejaVuSans-6f" transform="translate(310.15625 0)"/>
     <use xlink:href="#DejaVuSans-20" transform="translate(371.337891 0)"/>
     <use xlink:href="#DejaVuSans-74" transform="translate(403.125 0)"/>
     <use xlink:href="#DejaVuSans-72" transform="translate(442.333984 0)"/>
     <use xlink:href="#DejaVuSans-61" transform="translate(483.447266 0)"/>
     <use xlink:href="#DejaVuSans-6a" transform="translate(544.726562 0)"/>
     <use xlink:href="#DejaVuSans-65" transform="translate(572.509766 0)"/>
     <use xlink:href="#DejaVuSans-63" transform="translate(634.033203 0)"/>
     <use xlink:href="#DejaVuSans-74" transform="translate(689.013672 0)"/>
     <use xlink:href="#DejaVuSans-6f" transform="translate(728.222656 0)"/>
     <use xlink:href="#DejaVuSans-72" transform="translate(789.404297 0)"/>
     <use xlink:href="#DejaVuSans-79" transform="translate(830.517578 0)"/>
     <use xlink:href="#DejaVuSans-20" transform="translate(889.697266 0)"/>
     <use xlink:href="#DejaVuSans-69" transform="translate(921.484375 0)"/>
     <use xlink:href="#DejaVuSans-6e" transform="translate(949.267578 0)"/>
     <use xlink:href="#DejaVuSans-20" transform="translate(1012.646484 0)"/>
     <use xlink:href="#DejaVuSans-74" transform="translate(1044.433594 0)"/>
     <use xlink:href="#DejaVuSans-68" transform="translate(1083.642578 0)"/>
     <use xlink:href="#DejaVuSans-65" transform="translate(1147.021484 0)"/>
     <use xlink:href="#DejaVuSans-20" transform="translate(1208.544922 0)"/>
     <use xlink:href="#DejaVuSans-6f" transform="translate(1240.332031 0)"/>
     <use xlink:href="#DejaVuSans-72" transform="translate(1301.513672 0)"/>
     <use xlink:href="#DejaVuSans-62" transform="translate(1342.626953 0)"/>
     <use xlink:href="#DejaVuSans-69" transform="translate(1406.103516 0)"/>
     <use xlink:href="#DejaVuSans-74" transform="translate(1433.886719 0)"/>
     <use xlink:href="#DejaVuSans-61" transform="translate(1473.095703 0)"/>
     <use xlink:href="#DejaVuSans-6c" transform="translate(1534.375 0)"/>
     <use xlink:href="#DejaVuSans-20" transform="translate(1562.158203 0)"/>
     <use xlink:href="#DejaVuSans-70" transform="translate(1593.945312 0)"/>
     <use xlink:href="#DejaVuSans-6c" transform="translate(1657.421875 0)"/>
     <use xlink:href="#DejaVuSans-61" transform="translate(1685.205078 0)"/>
     <use xlink:href="#DejaVuSans-6e" transform="translate(1746.484375 0)"/>
     <use xlink:href="#DejaVuSans-65" transform="translate(1809.863281 0)"/>
     <use xlink:href="#DejaVuSans-20" transform="translate(1871.386719 0)"/>
     <use xlink:href="#DejaVuSans-28" transform="translate(1903.173828 0)"/>
     <use xlink:href="#DejaVuSans-53" transform="translate(1942.1875 0)"/>
     <use xlink:href="#DejaVuSans-50" transform="translate(2005.664062 0)"/>
     <use xlink:href="#DejaVuSans-49" transform="translate(2065.966797 0)"/>
     <use xlink:href="#DejaVuSans-43" transform="translate(2095.458984 0)"/>
     <use xlink:href="#DejaVuSans-45" transform="translate(2165.283203 0)"/>
     <use xlink:href="#DejaVuSans-29" transform="translate(2228.466797 0)"/>
    </g>
   </g>
   <g id="legend_1">
    <g id="patch_9">
     <path d="M 145.961137 192.977469 
L 312.641137 192.977469 
Q 314.441137 192.977469 314.441137 191.177469 
L 314.441137 152.446531 
Q 314.441137 150.646531 312.641137 150.646531 
L 145.961137 150.646531 
Q 144.161137 150.646531 144.161137 152.446531 
L 144.161137 191.177469 
Q 144.161137 192.977469 145.961137 192.977469 
z
" style="fill: #ffffff; opacity: 0.8; stroke: #cccccc; stroke-linejoin: miter"/>
    </g>
    <g id="patch_10">
     <path d="M 147.761137 161.085125 
L 165.761137 161.085125 
L 165.761137 154.785125 
L 147.761137 154.785125 
z
" style="fill: #2a6fbb; opacity: 0.8; stroke: #2a6fbb; stroke-linejoin: miter"/>
    </g>
    <g id="text_18">
     <!-- Earth -->
     <g transform="translate(172.961137 161.085125) scale(0.09 -0.09)">
      <use xlink:href="#DejaVuSans-45"/>
      <use xlink:href="#DejaVuSans-61" transform="translate(63.183594 0)"/>
      <use xlink:href="#DejaVuSans-72" transform="translate(124.462891 0)"/>
      <use xlink:href="#DejaVuSans-74" transform="translate(165.576172 0)"/>
      <use xlink:href="#DejaVuSans-68" transform="translate(204.785156 0)"/>
     </g>
    </g>
    <g id="patch_11">
     <path d="M 147.761137 174.295437 
L 165.761137 174.295437 
L 165.761137 167.995437 
L 147.761137 167.995437 
L 147.761137 174.295437 
z
" style="fill: none; stroke-dasharray: 7.4,3.2; stroke-dashoffset: 0; stroke: #e9c46a; stroke-width: 2; stroke-linejoin: miter"/>
    </g>
    <g id="text_19">
     <!-- Minimum radius ($R_E+400$ km) -->
     <g transform="translate(172.961137 174.295437) scale(0.09 -0.09)">
      <defs>
       <path id="DejaVuSans-64" d="M 2906 2969 
L 2906 4863 
L 3481 4863 
L 3481 0 
L 2906 0 
L 2906 525 
Q 2725 213 2448 61 
Q 2172 -91 1784 -91 
Q 1150 -91 751 415 
Q 353 922 353 1747 
Q 353 2572 751 3078 
Q 1150 3584 1784 3584 
Q 2172 3584 2448 3432 
Q 2725 3281 2906 2969 
z
M 947 1747 
Q 947 1113 1208 752 
Q 1469 391 1925 391 
Q 2381 391 2643 752 
Q 2906 1113 2906 1747 
Q 2906 2381 2643 2742 
Q 2381 3103 1925 3103 
Q 1469 3103 1208 2742 
Q 947 2381 947 1747 
z
" transform="scale(0.015625)"/>
       <path id="DejaVuSans-73" d="M 2834 3397 
L 2834 2853 
Q 2591 2978 2328 3040 
Q 2066 3103 1784 3103 
Q 1356 3103 1142 2972 
Q 928 2841 928 2578 
Q 928 2378 1081 2264 
Q 1234 2150 1697 2047 
L 1894 2003 
Q 2506 1872 2764 1633 
Q 3022 1394 3022 966 
Q 3022 478 2636 193 
Q 2250 -91 1575 -91 
Q 1294 -91 989 -36 
Q 684 19 347 128 
L 347 722 
Q 666 556 975 473 
Q 1284 391 1588 391 
Q 1994 391 2212 530 
Q 2431 669 2431 922 
Q 2431 1156 2273 1281 
Q 2116 1406 1581 1522 
L 1381 1569 
Q 847 1681 609 1914 
Q 372 2147 372 2553 
Q 372 3047 722 3315 
Q 1072 3584 1716 3584 
Q 2034 3584 2315 3537 
Q 2597 3491 2834 3397 
z
" transform="scale(0.015625)"/>
       <path id="DejaVuSans-Oblique-52" d="M 1613 4147 
L 1294 2491 
L 2106 2491 
Q 2584 2491 2879 2755 
Q 3175 3019 3175 3444 
Q 3175 3784 2976 3965 
Q 2778 4147 2406 4147 
L 1613 4147 
z
M 2772 2241 
Q 2972 2194 3105 2009 
Q 3238 1825 3413 1275 
L 3809 0 
L 3144 0 
L 2778 1197 
Q 2638 1659 2453 1815 
Q 2269 1972 1888 1972 
L 1191 1972 
L 806 0 
L 172 0 
L 1081 4666 
L 2503 4666 
Q 3150 4666 3495 4373 
Q 3841 4081 3841 3531 
Q 3841 3044 3547 2687 
Q 3253 2331 2772 2241 
z
" transform="scale(0.015625)"/>
       <path id="DejaVuSans-Oblique-45" d="M 1081 4666 
L 4031 4666 
L 3928 4134 
L 1606 4134 
L 1338 2753 
L 3566 2753 
L 3463 2222 
L 1234 2222 
L 909 531 
L 3284 531 
L 3181 0 
L 172 0 
L 1081 4666 
z
" transform="scale(0.015625)"/>
       <path id="DejaVuSans-2b" d="M 2944 4013 
L 2944 2272 
L 4684 2272 
L 4684 1741 
L 2944 1741 
L 2944 0 
L 2419 0 
L 2419 1741 
L 678 1741 
L 678 2272 
L 2419 2272 
L 2419 4013 
L 2944 4013 
z
" transform="scale(0.015625)"/>
      </defs>
      <use xlink:href="#DejaVuSans-4d" transform="translate(0 0.015625)"/>
      <use xlink:href="#DejaVuSans-69" transform="translate(86.279297 0.015625)"/>
      <use xlink:href="#DejaVuSans-6e" transform="translate(114.0625 0.015625)"/>
      <use xlink:href="#DejaVuSans-69" transform="translate(177.441406 0.015625)"/>
      <use xlink:href="#DejaVuSans-6d" transform="translate(205.224609 0.015625)"/>
      <use xlink:href="#DejaVuSans-75" transform="translate(302.636719 0.015625)"/>
      <use xlink:href="#DejaVuSans-6d" transform="translate(366.015625 0.015625)"/>
      <use xlink:href="#DejaVuSans-20" transform="translate(463.427734 0.015625)"/>
      <use xlink:href="#DejaVuSans-72" transform="translate(495.214844 0.015625)"/>
      <use xlink:href="#DejaVuSans-61" transform="translate(536.328125 0.015625)"/>
      <use xlink:href="#DejaVuSans-64" transform="translate(597.607422 0.015625)"/>
      <use xlink:href="#DejaVuSans-69" transform="translate(661.083984 0.015625)"/>
      <use xlink:href="#DejaVuSans-75" transform="translate(688.867188 0.015625)"/>
      <use xlink:href="#DejaVuSans-73" transform="translate(752.246094 0.015625)"/>
      <use xlink:href="#DejaVuSans-20" transform="translate(804.345703 0.015625)"/>
      <use xlink:href="#DejaVuSans-28" transform="translate(836.132812 0.015625)"/>
      <use xlink:href="#DejaVuSans-Oblique-52" transform="translate(875.146484 0.015625)"/>
      <use xlink:href="#DejaVuSans-Oblique-45" transform="translate(944.628906 -16.390625) scale(0.7)"/>
      <use xlink:href="#DejaVuSans-2b" transform="translate(1011.074219 0.015625)"/>
      <use xlink:href="#DejaVuSans-34" transform="translate(1114.345703 0.015625)"/>
      <use xlink:href="#DejaVuSans-30" transform="translate(1177.96875 0.015625)"/>
      <use xlink:href="#DejaVuSans-30" transform="translate(1241.591797 0.015625)"/>
      <use xlink:href="#DejaVuSans-20" transform="translate(1305.214844 0.015625)"/>
      <use xlink:href="#DejaVuSans-6b" transform="translate(1337.001953 0.015625)"/>
      <use xlink:href="#DejaVuSans-6d" transform="translate(1394.912109 0.015625)"/>
      <use xlink:href="#DejaVuSans-29" transform="translate(1492.324219 0.015625)"/>
     </g>
    </g>
    <g id="line2d_30">
     <path d="M 147.761137 184.35575 
L 156.761137 184.35575 
L 165.761137 184.35575 
" style="fill: none; stroke: #bb3e03; stroke-linecap: square"/>
    </g>
    <g id="text_20">
     <!-- MuJoCo hub -->
     <g transform="translate(172.961137 187.50575) scale(0.09 -0.09)">
      <use xlink:href="#DejaVuSans-4d"/>
      <use xlink:href="#DejaVuSans-75" transform="translate(86.279297 0)"/>
      <use xlink:href="#DejaVuSans-4a" transform="translate(149.658203 0)"/>
      <use xlink:href="#DejaVuSans-6f" transform="translate(179.150391 0)"/>
      <use xlink:href="#DejaVuSans-43" transform="translate(240.332031 0)"/>
      <use xlink:href="#DejaVuSans-6f" transform="translate(310.15625 0)"/>
      <use xlink:href="#DejaVuSans-20" transform="translate(371.337891 0)"/>
      <use xlink:href="#DejaVuSans-68" transform="translate(403.125 0)"/>
      <use xlink:href="#DejaVuSans-75" transform="translate(466.503906 0)"/>
      <use xlink:href="#DejaVuSans-62" transform="translate(529.882812 0)"/>
     </g>
    </g>
   </g>
  </g>
 </g>
 <defs>
  <clipPath id="p9d0e4385d5">
   <rect x="84.373033" y="26.88" width="289.856207" height="289.864"/>
  </clipPath>
 </defs>
</svg>
