<?xml version="1.0" encoding="utf-8" standalone="no"?>
<!DOCTYPE svg PUBLIC "-//W3C//DTD SVG 1.1//EN"
  "http://www.w3.org/Graphics/SVG/1.1/DTD/svg11.dtd">
<svg xmlns:xlink="http://www.w3.org/1999/xlink" width="414pt" height="180pt" viewBox="0 0 414 180" xmlns="http://www.w3.org/2000/svg" version="1.1">
 <metadata>
  <rdf:RDF xmlns:dc="http://purl.org/dc/elements/1.1/" xmlns:cc="http://creativecommons.org/ns#" xmlns:rdf="http://www.w3.org/1999/02/22-rdf-syntax-ns#">
   <cc:Work>
    <dc:type rdf:resource="http://purl.org/dc/dcmitype/StillImage"/>
    <dc:date>2026-09-05T12:40:11.078910</dc:date>
    <dc:format>image/svg+xml</dc:format>
    <dc:creator>
     <cc:Agent>
      <dc:title>Matplotlib v3.10.9, https://matplotlib.org/</dc:title>
     </cc:Agent>
    </dc:creator>
   </cc:Work>
  </rdf:RDF>
 </metadata>
 <defs>
  <style type="text/css">*{stroke-linejoin: round; stroke-linecap: butt}</style>
 </defs>
 <g id="figure_1">
  <g id="patch_1">
   <path d="M 0 180 
L 414 180 
L 414 0 
L 0 0 
L 0 180 
z
" style="fill: none"/>
  </g>
  <g id="axes_1">
   <g id="patch_2">
    <path d="M 62.946719 139.811563 
L 403.2 139.811563 
L 403.2 10.8 
L 62.946719 10.8 
L 62.946719 139.811563 
z
" style="fill: none"/>
   </g>
   <g id="patch_3">
    <path d="M 233.078157 131.73753 
C 248.043775 131.73753 262.398455 125.791627 272.980745 115.209337 
C 283.563035 104.627047 289.508939 90.272367 289.508939 75.306749 
C 289.508939 60.341131 283.563035 45.986451 272.980745 35.404161 
C 262.398455 24.821871 248.043775 18.875968 233.078157 18.875968 
C 218.112539 18.875968 203.757859 24.821871 193.175569 35.404161 
C 182.593279 45.986451 176.647376 60.341131 176.647376 75.306749 
C 176.647376 90.272367 182.593279 104.627047 193.175569 115.209337 
C 203.757859 125.791627 218.112539 131.73753 233.078157 131.73753 
z
" clip-path="url(#pa17185fc74)" style="fill: #008800; stroke: #008800; stroke-linejoin: miter"/>
   </g>
   <g id="matplotlib.axis_1">
    <g id="xtick_1">
     <g id="line2d_1">
      <defs>
       <path id="m71d127c292" d="M 0 0 
L 0 3.5 
" style="stroke: #000000; stroke-width: 0.8"/>
      </defs>
      <g>
       <use xlink:href="#m71d127c292" x="100.365145" y="139.811563" style="stroke: #000000; stroke-width: 0.8"/>
      </g>
     </g>
     <g id="text_1">
      <!-- −15000 -->
      <g transform="translate(82.278661 153.650156) scale(0.09 -0.09)">
       <defs>
        <path id="DejaVuSans-2212" d="M 678 2272 
L 4684 2272 
L 4684 1741 
L 678 1741 
L 678 2272 
z
" transform="scale(0.015625)"/>
        <path id="DejaVuSans-31" d="M 794 531 
L 1825 531 
L 1825 4091 
L 703 3866 
L 703 4441 
L 1819 4666 
L 2450 4666 
L 2450 531 
L 3481 531 
L 3481 0 
L 794 0 
L 794 531 
z
" transform="scale(0.015625)"/>
        <path id="DejaVuSans-35" d="M 691 4666 
L 3169 4666 
L 3169 4134 
L 1269 4134 
L 1269 2991 
Q 1406 3038 1543 3061 
Q 1681 3084 1819 3084 
Q 2600 3084 3056 2656 
Q 3513 2228 3513 1497 
Q 3513 744 3044 326 
Q 2575 -91 1722 -91 
Q 1428 -91 1123 -41 
Q 819 9 494 109 
L 494 744 
Q 775 591 1075 516 
Q 1375 441 1709 441 
Q 2250 441 2565 725 
Q 2881 1009 2881 1497 
Q 2881 1984 2565 2268 
Q 2250 2553 1709 2553 
Q 1456 2553 1204 2497 
Q 953 2441 691 2322 
L 691 4666 
z
" transform="scale(0.015625)"/>
        <path id="DejaVuSans-30" d="M 2034 4250 
Q 1547 4250 1301 3770 
Q 1056 3291 1056 2328 
Q 1056 1369 1301 889 
Q 1547 409 2034 409 
Q 2525 409 2770 889 
Q 3016 1369 3016 2328 
Q 3016 3291 2770 3770 
Q 2525 4250 2034 4250 
z
M 2034 4750 
Q 2819 4750 3233 4129 
Q 3647 3509 3647 2328 
Q 3647 1150 3233 529 
Q 2819 -91 2034 -91 
Q 1250 -91 836 529 
Q 422 1150 422 2328 
Q 422 3509 836 4129 
Q 1250 4750 2034 4750 
z
" transform="scale(0.015625)"/>
       </defs>
       <use xlink:href="#DejaVuSans-2212"/>
       <use xlink:href="#DejaVuSans-31" transform="translate(83.789062 0)"/>
       <use xlink:href="#DejaVuSans-35" transform="translate(147.412109 0)"/>
       <use xlink:href="#DejaVuSans-30" transform="translate(211.035156 0)"/>
       <use xlink:href="#DejaVuSans-30" transform="translate(274.658203 0)"/>
       <use xlink:href="#DejaVuSans-30" transform="translate(338.28125 0)"/>
      </g>
     </g>
    </g>
    <g id="xtick_2">
     <g id="line2d_2">
      <g>
       <use xlink:href="#m71d127c292" x="144.602816" y="139.811563" style="stroke: #000000; stroke-width: 0.8"/>
      </g>
     </g>
     <g id="text_2">
      <!-- −10000 -->
      <g transform="translate(126.516332 153.650156) scale(0.09 -0.09)">
       <use xlink:href="#DejaVuSans-2212"/>
       <use xlink:href="#DejaVuSans-31" transform="translate(83.789062 0)"/>
       <use xlink:href="#DejaVuSans-30" transform="translate(147.412109 0)"/>
       <use xlink:href="#DejaVuSans-30" transform="translate(211.035156 0)"/>
       <use xlink:href="#DejaVuSans-30" transform="translate(274.658203 0)"/>
       <use xlink:href="#DejaVuSans-30" transform="translate(338.28125 0)"/>
      </g>
     </g>
    </g>
    <g id="xtick_3">
     <g id="line2d_3">
      <g>
       <use xlink:href="#m71d127c292" x="188.840487" y="139.811563" style="stroke: #000000; stroke-width: 0.8"/>
      </g>
     </g>
     <g id="text_3">
      <!-- −5000 -->
      <g transform="translate(173.617127 153.650156) scale(0.09 -0.09)">
       <use xlink:href="#DejaVuSans-2212"/>
       <use xlink:href="#DejaVuSans-35" transform="translate(83.789062 0)"/>
       <use xlink:href="#DejaVuSans-30" transform="translate(147.412109 0)"/>
       <use xlink:href="#DejaVuSans-30" transform="translate(211.035156 0)"/>
       <use xlink:href="#DejaVuSans-30" transform="translate(274.658203 0)"/>
      </g>
     </g>
    </g>
    <g id="xtick_4">
     <g id="line2d_4">
      <g>
       <use xlink:href="#m71d127c292" x="233.078157" y="139.811563" style="stroke: #000000; stroke-width: 0.8"/>
      </g>
     </g>
     <g id="text_4">
      <!-- 0 -->
      <g transform="translate(230.215032 153.650156) scale(0.09 -0.09)">
       <use xlink:href="#DejaVuSans-30"/>
      </g>
     </g>
    </g>
    <g id="xtick_5">
     <g id="line2d_5">
      <g>
       <use xlink:href="#m71d127c292" x="277.315828" y="139.811563" style="stroke: #000000; stroke-width: 0.8"/>
      </g>
     </g>
     <g id="text_5">
      <!-- 5000 -->
      <g transform="translate(265.863328 153.650156) scale(0.09 -0.09)">
       <use xlink:href="#DejaVuSans-35"/>
       <use xlink:href="#DejaVuSans-30" transform="translate(63.623047 0)"/>
       <use xlink:href="#DejaVuSans-30" transform="translate(127.246094 0)"/>
       <use xlink:href="#DejaVuSans-30" transform="translate(190.869141 0)"/>
      </g>
     </g>
    </g>
    <g id="xtick_6">
     <g id="line2d_6">
      <g>
       <use xlink:href="#m71d127c292" x="321.553499" y="139.811563" style="stroke: #000000; stroke-width: 0.8"/>
      </g>
     </g>
     <g id="text_6">
      <!-- 10000 -->
      <g transform="translate(307.237874 153.650156) scale(0.09 -0.09)">
       <use xlink:href="#DejaVuSans-31"/>
       <use xlink:href="#DejaVuSans-30" transform="translate(63.623047 0)"/>
       <use xlink:href="#DejaVuSans-30" transform="translate(127.246094 0)"/>
       <use xlink:href="#DejaVuSans-30" transform="translate(190.869141 0)"/>
       <use xlink:href="#DejaVuSans-30" transform="translate(254.492188 0)"/>
      </g>
     </g>
    </g>
    <g id="xtick_7">
     <g id="line2d_7">
      <g>
       <use xlink:href="#m71d127c292" x="365.791169" y="139.811563" style="stroke: #000000; stroke-width: 0.8"/>
      </g>
     </g>
     <g id="text_7">
      <!-- 15000 -->
      <g transform="translate(351.475544 153.650156) scale(0.09 -0.09)">
       <use xlink:href="#DejaVuSans-31"/>
       <use xlink:href="#DejaVuSans-35" transform="translate(63.623047 0)"/>
       <use xlink:href="#DejaVuSans-30" transform="translate(127.246094 0)"/>
       <use xlink:href="#DejaVuSans-30" transform="translate(190.869141 0)"/>
       <use xlink:href="#DejaVuSans-30" transform="translate(254.492188 0)"/>
      </g>
     </g>
    </g>
    <g id="text_8">
     <!-- $i_e$ Cord. [km] -->
     <g transform="translate(201.173359 167.120313) scale(0.1 -0.1)">
      <defs>
       <path id="DejaVuSans-Oblique-69" d="M 1172 4863 
L 1747 4863 
L 1606 4134 
L 1031 4134 
L 1172 4863 
z
M 909 3500 
L 1484 3500 
L 800 0 
L 225 0 
L 909 3500 
z
" transform="scale(0.015625)"/>
       <path id="DejaVuSans-Oblique-65" d="M 3078 2063 
Q 3088 2113 3092 2166 
Q 3097 2219 3097 2272 
Q 3097 2653 2873 2875 
Q 2650 3097 2266 3097 
Q 1838 3097 1509 2826 
Q 1181 2556 1013 2059 
L 3078 2063 
z
M 3578 1613 
L 903 1613 
Q 884 1494 878 1425 
Q 872 1356 872 1306 
Q 872 872 1139 634 
Q 1406 397 1894 397 
Q 2269 397 2603 481 
Q 2938 566 3225 728 
L 3116 159 
Q 2806 34 2476 -28 
Q 2147 -91 1806 -91 
Q 1078 -91 686 257 
Q 294 606 294 1247 
Q 294 1794 489 2264 
Q 684 2734 1063 3103 
Q 1306 3334 1642 3459 
Q 1978 3584 2356 3584 
Q 2950 3584 3301 3228 
Q 3653 2872 3653 2272 
Q 3653 2128 3634 1964 
Q 3616 1800 3578 1613 
z
" transform="scale(0.015625)"/>
       <path id="DejaVuSans-20" transform="scale(0.015625)"/>
       <path id="DejaVuSans-43" d="M 4122 4306 
L 4122 3641 
Q 3803 3938 3442 4084 
Q 3081 4231 2675 4231 
Q 1875 4231 1450 3742 
Q 1025 3253 1025 2328 
Q 1025 1406 1450 917 
Q 1875 428 2675 428 
Q 3081 428 3442 575 
Q 3803 722 4122 1019 
L 4122 359 
Q 3791 134 3420 21 
Q 3050 -91 2638 -91 
Q 1578 -91 968 557 
Q 359 1206 359 2328 
Q 359 3453 968 4101 
Q 1578 4750 2638 4750 
Q 3056 4750 3426 4639 
Q 3797 4528 4122 4306 
z
" transform="scale(0.015625)"/>
       <path id="DejaVuSans-6f" d="M 1959 3097 
Q 1497 3097 1228 2736 
Q 959 2375 959 1747 
Q 959 1119 1226 758 
Q 1494 397 1959 397 
Q 2419 397 2687 759 
Q 2956 1122 2956 1747 
Q 2956 2369 2687 2733 
Q 2419 3097 1959 3097 
z
M 1959 3584 
Q 2709 3584 3137 3096 
Q 3566 2609 3566 1747 
Q 3566 888 3137 398 
Q 2709 -91 1959 -91 
Q 1206 -91 779 398 
Q 353 888 353 1747 
Q 353 2609 779 3096 
Q 1206 3584 1959 3584 
z
" transform="scale(0.015625)"/>
       <path id="DejaVuSans-72" d="M 2631 2963 
Q 2534 3019 2420 3045 
Q 2306 3072 2169 3072 
Q 1681 3072 1420 2755 
Q 1159 2438 1159 1844 
L 1159 0 
L 581 0 
L 581 3500 
L 1159 3500 
L 1159 2956 
Q 1341 3275 1631 3429 
Q 1922 3584 2338 3584 
Q 2397 3584 2469 3576 
Q 2541 3569 2628 3553 
L 2631 2963 
z
" transform="scale(0.015625)"/>
       <path id="DejaVuSans-64" d="M 2906 2969 
L 2906 4863 
L 3481 4863 
L 3481 0 
L 2906 0 
L 2906 525 
Q 2725 213 2448 61 
Q 2172 -91 1784 -91 
Q 1150 -91 751 415 
Q 353 922 353 1747 
Q 353 2572 751 3078 
Q 1150 3584 1784 3584 
Q 2172 3584 2448 3432 
Q 2725 3281 2906 2969 
z
M 947 1747 
Q 947 1113 1208 752 
Q 1469 391 1925 391 
Q 2381 391 2643 752 
Q 2906 1113 2906 1747 
Q 2906 2381 2643 2742 
Q 2381 3103 1925 3103 
Q 1469 3103 1208 2742 
Q 947 2381 947 1747 
z
" transform="scale(0.015625)"/>
       <path id="DejaVuSans-2e" d="M 684 794 
L 1344 794 
L 1344 0 
L 684 0 
L 684 794 
z
" transform="scale(0.015625)"/>
       <path id="DejaVuSans-5b" d="M 550 4863 
L 1875 4863 
L 1875 4416 
L 1125 4416 
L 1125 -397 
L 1875 -397 
L 1875 -844 
L 550 -844 
L 550 4863 
z
" transform="scale(0.015625)"/>
       <path id="DejaVuSans-6b" d="M 581 4863 
L 1159 4863 
L 1159 1991 
L 2875 3500 
L 3609 3500 
L 1753 1863 
L 3688 0 
L 2938 0 
L 1159 1709 
L 1159 0 
L 581 0 
L 581 4863 
z
" transform="scale(0.015625)"/>
       <path id="DejaVuSans-6d" d="M 3328 2828 
Q 3544 3216 3844 3400 
Q 4144 3584 4550 3584 
Q 5097 3584 5394 3201 
Q 5691 2819 5691 2113 
L 5691 0 
L 5113 0 
L 5113 2094 
Q 5113 2597 4934 2840 
Q 4756 3084 4391 3084 
Q 3944 3084 3684 2787 
Q 3425 2491 3425 1978 
L 3425 0 
L 2847 0 
L 2847 2094 
Q 2847 2600 2669 2842 
Q 2491 3084 2119 3084 
Q 1678 3084 1418 2786 
Q 1159 2488 1159 1978 
L 1159 0 
L 581 0 
L 581 3500 
L 1159 3500 
L 1159 2956 
Q 1356 3278 1631 3431 
Q 1906 3584 2284 3584 
Q 2666 3584 2933 3390 
Q 3200 3197 3328 2828 
z
" transform="scale(0.015625)"/>
       <path id="DejaVuSans-5d" d="M 1947 4863 
L 1947 -844 
L 622 -844 
L 622 -397 
L 1369 -397 
L 1369 4416 
L 622 4416 
L 622 4863 
L 1947 4863 
z
" transform="scale(0.015625)"/>
      </defs>
      <use xlink:href="#DejaVuSans-Oblique-69" transform="translate(0 0.015625)"/>
      <use xlink:href="#DejaVuSans-Oblique-65" transform="translate(27.783203 -16.390625) scale(0.7)"/>
      <use xlink:href="#DejaVuSans-20" transform="translate(73.583984 0.015625)"/>
      <use xlink:href="#DejaVuSans-43" transform="translate(105.371094 0.015625)"/>
      <use xlink:href="#DejaVuSans-6f" transform="translate(175.195312 0.015625)"/>
      <use xlink:href="#DejaVuSans-72" transform="translate(236.376953 0.015625)"/>
      <use xlink:href="#DejaVuSans-64" transform="translate(277.490234 0.015625)"/>
      <use xlink:href="#DejaVuSans-2e" transform="translate(340.966797 0.015625)"/>
      <use xlink:href="#DejaVuSans-20" transform="translate(372.753906 0.015625)"/>
      <use xlink:href="#DejaVuSans-5b" transform="translate(404.541016 0.015625)"/>
      <use xlink:href="#DejaVuSans-6b" transform="translate(443.554688 0.015625)"/>
      <use xlink:href="#DejaVuSans-6d" transform="translate(501.464844 0.015625)"/>
      <use xlink:href="#DejaVuSans-5d" transform="translate(598.876953 0.015625)"/>
     </g>
    </g>
   </g>
   <g id="matplotlib.axis_2">
    <g id="ytick_1">
     <g id="line2d_8">
      <defs>
       <path id="m8e6311e6cc" d="M 0 0 
L -3.5 0 
" style="stroke: #000000; stroke-width: 0.8"/>
      </defs>
      <g>
       <use xlink:href="#m8e6311e6cc" x="62.946719" y="119.54442" style="stroke: #000000; stroke-width: 0.8"/>
      </g>
     </g>
     <g id="text_9">
      <!-- −5000 -->
      <g transform="translate(25.5 122.963716) scale(0.09 -0.09)">
       <use xlink:href="#DejaVuSans-2212"/>
       <use xlink:href="#DejaVuSans-35" transform="translate(83.789062 0)"/>
       <use xlink:href="#DejaVuSans-30" transform="translate(147.412109 0)"/>
       <use xlink:href="#DejaVuSans-30" transform="translate(211.035156 0)"/>
       <use xlink:href="#DejaVuSans-30" transform="translate(274.658203 0)"/>
      </g>
     </g>
    </g>
    <g id="ytick_2">
     <g id="line2d_9">
      <g>
       <use xlink:href="#m8e6311e6cc" x="62.946719" y="97.425584" style="stroke: #000000; stroke-width: 0.8"/>
      </g>
     </g>
     <g id="text_10">
      <!-- −2500 -->
      <g transform="translate(25.5 100.844881) scale(0.09 -0.09)">
       <defs>
        <path id="DejaVuSans-32" d="M 1228 531 
L 3431 531 
L 3431 0 
L 469 0 
L 469 531 
Q 828 903 1448 1529 
Q 2069 2156 2228 2338 
Q 2531 2678 2651 2914 
Q 2772 3150 2772 3378 
Q 2772 3750 2511 3984 
Q 2250 4219 1831 4219 
Q 1534 4219 1204 4116 
Q 875 4013 500 3803 
L 500 4441 
Q 881 4594 1212 4672 
Q 1544 4750 1819 4750 
Q 2544 4750 2975 4387 
Q 3406 4025 3406 3419 
Q 3406 3131 3298 2873 
Q 3191 2616 2906 2266 
Q 2828 2175 2409 1742 
Q 1991 1309 1228 531 
z
" transform="scale(0.015625)"/>
       </defs>
       <use xlink:href="#DejaVuSans-2212"/>
       <use xlink:href="#DejaVuSans-32" transform="translate(83.789062 0)"/>
       <use xlink:href="#DejaVuSans-35" transform="translate(147.412109 0)"/>
       <use xlink:href="#DejaVuSans-30" transform="translate(211.035156 0)"/>
       <use xlink:href="#DejaVuSans-30" transform="translate(274.658203 0)"/>
      </g>
     </g>
    </g>
    <g id="ytick_3">
     <g id="line2d_10">
      <g>
       <use xlink:href="#m8e6311e6cc" x="62.946719" y="75.306749" style="stroke: #000000; stroke-width: 0.8"/>
      </g>
     </g>
     <g id="text_11">
      <!-- 0 -->
      <g transform="translate(50.220469 78.726046) scale(0.09 -0.09)">
       <use xlink:href="#DejaVuSans-30"/>
      </g>
     </g>
    </g>
    <g id="ytick_4">
     <g id="line2d_11">
      <g>
       <use xlink:href="#m8e6311e6cc" x="62.946719" y="53.187914" style="stroke: #000000; stroke-width: 0.8"/>
      </g>
     </g>
     <g id="text_12">
      <!-- 2500 -->
      <g transform="translate(33.041719 56.60721) scale(0.09 -0.09)">
       <use xlink:href="#DejaVuSans-32"/>
       <use xlink:href="#DejaVuSans-35" transform="translate(63.623047 0)"/>
       <use xlink:href="#DejaVuSans-30" transform="translate(127.246094 0)"/>
       <use xlink:href="#DejaVuSans-30" transform="translate(190.869141 0)"/>
      </g>
     </g>
    </g>
    <g id="ytick_5">
     <g id="line2d_12">
      <g>
       <use xlink:href="#m8e6311e6cc" x="62.946719" y="31.069078" style="stroke: #000000; stroke-width: 0.8"/>
      </g>
     </g>
     <g id="text_13">
      <!-- 5000 -->
      <g transform="translate(33.041719 34.488375) scale(0.09 -0.09)">
       <use xlink:href="#DejaVuSans-35"/>
       <use xlink:href="#DejaVuSans-30" transform="translate(63.623047 0)"/>
       <use xlink:href="#DejaVuSans-30" transform="translate(127.246094 0)"/>
       <use xlink:href="#DejaVuSans-30" transform="translate(190.869141 0)"/>
      </g>
     </g>
    </g>
    <g id="text_14">
     <!-- $i_p$ Cord. [km] -->
     <g transform="translate(18.4 107.305781) rotate(-90) scale(0.1 -0.1)">
      <defs>
       <path id="DejaVuSans-Oblique-70" d="M 3175 2156 
Q 3175 2616 2975 2859 
Q 2775 3103 2400 3103 
Q 2144 3103 1911 2972 
Q 1678 2841 1497 2591 
Q 1319 2344 1212 1994 
Q 1106 1644 1106 1300 
Q 1106 863 1306 627 
Q 1506 391 1875 391 
Q 2147 391 2380 519 
Q 2613 647 2778 891 
Q 2956 1147 3065 1494 
Q 3175 1841 3175 2156 
z
M 1394 2969 
Q 1625 3272 1939 3428 
Q 2253 3584 2638 3584 
Q 3175 3584 3472 3232 
Q 3769 2881 3769 2247 
Q 3769 1728 3584 1258 
Q 3400 788 3053 416 
Q 2822 169 2531 39 
Q 2241 -91 1919 -91 
Q 1547 -91 1294 64 
Q 1041 219 916 525 
L 556 -1331 
L -19 -1331 
L 922 3500 
L 1497 3500 
L 1394 2969 
z
" transform="scale(0.015625)"/>
      </defs>
      <use xlink:href="#DejaVuSans-Oblique-69" transform="translate(0 0.015625)"/>
      <use xlink:href="#DejaVuSans-Oblique-70" transform="translate(27.783203 -16.390625) scale(0.7)"/>
      <use xlink:href="#DejaVuSans-20" transform="translate(74.951172 0.015625)"/>
      <use xlink:href="#DejaVuSans-43" transform="translate(106.738281 0.015625)"/>
      <use xlink:href="#DejaVuSans-6f" transform="translate(176.5625 0.015625)"/>
      <use xlink:href="#DejaVuSans-72" transform="translate(237.744141 0.015625)"/>
      <use xlink:href="#DejaVuSans-64" transform="translate(278.857422 0.015625)"/>
      <use xlink:href="#DejaVuSans-2e" transform="translate(342.333984 0.015625)"/>
      <use xlink:href="#DejaVuSans-20" transform="translate(374.121094 0.015625)"/>
      <use xlink:href="#DejaVuSans-5b" transform="translate(405.908203 0.015625)"/>
      <use xlink:href="#DejaVuSans-6b" transform="translate(444.921875 0.015625)"/>
      <use xlink:href="#DejaVuSans-6d" transform="translate(502.832031 0.015625)"/>
      <use xlink:href="#DejaVuSans-5d" transform="translate(600.244141 0.015625)"/>
     </g>
    </g>
   </g>
   <g id="line2d_13">
    <path d="M 250.125709 19.196651 
L 246.815969 18.295915 
L 243.459233 17.590223 
L 240.066984 17.081988 
L 236.650828 16.772949 
L 233.222453 16.664162 
L 229.793587 16.755999 
L 226.37596 17.048146 
L 222.981266 17.539601 
L 219.621117 18.228684 
L 216.307009 19.113036 
L 213.05028 20.18963 
L 209.86207 21.454783 
L 206.753287 22.904165 
L 203.734565 24.532819 
L 200.816232 26.33517 
L 198.008269 28.305052 
L 195.320283 30.435726 
L 192.761469 32.719902 
L 190.34058 35.149764 
L 188.065898 37.716999 
L 185.945203 40.412824 
L 183.985748 43.228017 
L 182.194237 46.152947 
L 180.576798 49.177606 
L 179.138962 52.291648 
L 177.885648 55.48442 
L 176.821142 58.744998 
L 175.949085 62.06223 
L 175.272461 65.424767 
L 174.793582 68.821105 
L 174.514088 72.239627 
L 174.434933 75.668638 
L 174.556388 79.096409 
L 174.878037 82.511213 
L 175.39878 85.901368 
L 176.116836 89.255277 
L 177.029748 92.561467 
L 178.134393 95.808627 
L 179.426993 98.98565 
L 180.903126 102.081666 
L 182.557744 105.086085 
L 184.385185 107.988629 
L 186.3792 110.779368 
L 188.532968 113.448755 
L 190.839121 115.987657 
L 193.289771 118.387387 
L 195.876535 120.639736 
L 198.590565 122.736998 
L 201.422577 124.671997 
L 204.362884 126.438111 
L 207.401426 128.029297 
L 210.52781 129.440111 
L 213.73134 130.665723 
L 217.001057 131.701939 
L 220.325775 132.545212 
L 223.69412 133.192654 
L 227.094568 133.642049 
L 230.515485 133.891856 
L 233.945166 133.94122 
L 237.371879 133.789967 
L 240.783898 133.438614 
L 244.169549 132.88836 
L 247.517247 132.141086 
L 250.815537 131.199345 
L 254.053132 130.066357 
L 257.218953 128.745998 
L 260.302167 127.242781 
L 263.292222 125.561849 
L 266.178884 123.708951 
L 268.952276 121.690425 
L 271.602905 119.513176 
L 274.121698 117.184653 
L 276.500035 114.712821 
L 278.729775 112.106138 
L 280.803284 109.373523 
L 282.713464 106.524326 
L 284.453777 103.568296 
L 286.018264 100.515547 
L 287.401569 97.376527 
L 288.598954 94.161979 
L 289.60632 90.882902 
L 290.420217 87.550519 
L 291.037857 84.176234 
L 291.457125 80.771596 
L 291.676582 77.348256 
L 291.695475 73.917932 
L 291.513739 70.492364 
L 291.131994 67.083279 
L 290.551544 63.702344 
L 289.774374 60.361131 
L 288.803143 57.071078 
L 287.641174 53.843447 
L 286.292443 50.689285 
L 284.761565 47.619389 
L 283.05378 44.644269 
L 281.174932 41.774107 
L 279.131451 39.018729 
L 276.930332 36.387567 
L 274.579109 33.889628 
L 272.085829 31.533463 
L 269.459027 29.327138 
L 266.707694 27.278205 
L 263.841247 25.393677 
L 260.8695 23.680007 
L 257.802623 22.14306 
L 254.651117 20.788098 
L 251.425768 19.619758 
L 248.137617 18.642039 
L 244.79792 17.858289 
L 241.418109 17.271189 
L 238.009753 16.882749 
L 234.584519 16.694298 
L 231.154132 16.70648 
L 227.730333 16.919254 
L 224.324843 17.33189 
L 220.94932 17.942974 
L 217.615317 18.750415 
L 214.334247 19.751448 
L 211.117341 20.942646 
L 207.975609 22.319929 
L 204.919805 23.878584 
L 201.960389 25.613274 
L 199.10749 27.51806 
L 196.370874 29.586422 
L 193.759907 31.811278 
L 191.283527 34.185012 
L 188.950208 36.6995 
L 186.767937 39.346133 
L 184.744183 42.115851 
L 182.885872 44.999175 
L 181.199364 47.986234 
L 179.690432 51.066804 
L 178.36424 54.230339 
L 177.225325 57.466013 
L 176.277588 60.76275 
L 175.52427 64.109265 
L 174.96795 67.494103 
L 174.610532 70.905679 
L 174.45324 74.332315 
L 174.496611 77.762283 
L 174.740498 81.183843 
L 175.184065 84.585283 
L 175.825795 87.95496 
L 176.663492 91.281341 
L 177.694288 94.553039 
L 178.914657 97.758855 
L 180.320421 100.887816 
L 181.906769 103.929213 
L 183.668273 106.872633 
L 185.598905 109.708002 
L 187.692056 112.425614 
L 189.940563 115.016164 
L 192.336729 117.470785 
L 194.872354 119.781072 
L 197.538758 121.939116 
L 200.326817 123.937529 
L 203.226986 125.769468 
L 206.229339 127.428661 
L 209.3236 128.909425 
L 212.499175 130.20669 
L 215.745195 131.316012 
L 219.050549 132.233593 
L 222.403922 132.956288 
L 225.793834 133.481621 
L 229.208681 133.807791 
L 232.636772 133.933679 
L 236.06637 133.85885 
L 239.485733 133.583559 
L 242.883156 133.108746 
L 246.247007 132.436032 
L 249.565767 131.567718 
L 252.828073 130.506775 
L 256.022754 129.256831 
L 259.138869 127.822165 
L 262.165749 126.207687 
L 265.093026 124.418921 
L 267.910676 122.46199 
L 270.60905 120.343592 
L 273.178905 118.07098 
L 275.61144 115.651934 
L 277.898324 113.094733 
L 280.031723 110.408132 
L 282.00433 107.601331 
L 283.809387 104.68394 
L 285.440709 101.665948 
L 286.892709 98.557688 
L 288.160411 95.369805 
L 289.239472 92.113215 
L 290.126193 88.79907 
L 290.817535 85.438721 
L 291.311129 82.043675 
L 291.605281 78.62556 
L 291.698983 75.196082 
L 291.591911 71.766986 
L 291.28443 68.350018 
L 290.777591 64.956881 
L 290.07313 61.599198 
L 289.173456 58.28847 
L 288.081652 55.036036 
L 286.801454 51.853036 
L 285.337246 48.750374 
L 283.694042 45.738676 
L 281.877471 42.828259 
L 279.893752 40.029092 
L 277.749682 37.350764 
L 275.452601 34.802449 
L 273.01038 32.392876 
L 270.431382 30.1303 
L 267.724442 28.022469 
L 264.898831 26.076606 
L 261.964227 24.299375 
L 258.930683 22.696864 
L 255.808588 21.274561 
L 252.608637 20.037339 
L 249.341792 18.989435 
L 246.019241 18.13444 
L 242.652366 17.475281 
L 239.2527 17.014215 
L 235.831887 16.752824 
L 232.401647 16.692 
L 228.973727 16.831953 
L 225.559871 17.172202 
L 222.171772 17.711581 
L 218.821035 18.448243 
L 215.51914 19.379664 
L 212.277394 20.502652 
L 209.106903 21.813361 
L 206.018524 23.307301 
L 203.022838 24.979354 
L 200.130104 26.823792 
L 197.350231 28.834297 
L 194.692741 31.003983 
L 192.166736 33.325417 
L 189.780868 35.790646 
L 187.54331 38.391227 
L 185.461727 41.118251 
L 183.543246 43.962377 
L 181.794441 46.913864 
L 180.221301 49.962601 
L 178.829214 53.098146 
L 177.622948 56.30976 
L 176.606635 59.586441 
L 175.783757 62.916967 
L 175.157133 66.289928 
L 174.728909 69.69377 
L 174.500553 73.116835 
L 174.472848 76.547397 
L 174.645888 79.973705 
L 175.019083 83.384023 
L 175.591154 86.766667 
L 176.360143 90.110053 
L 177.323417 93.402726 
L 178.477677 96.633407 
L 179.818969 99.791029 
L 181.342701 102.864774 
L 183.043655 105.844113 
L 184.916003 108.718838 
L 186.953335 111.479102 
L 189.148672 114.115448 
L 191.494495 116.618843 
L 193.98277 118.980711 
L 196.604973 121.192958 
L 199.352123 123.248004 
L 202.21481 125.138808 
L 205.183227 126.858889 
L 208.247206 128.402353 
L 211.396252 129.76391 
L 214.619577 130.938893 
L 217.906137 131.923273 
L 221.244675 132.713676 
L 224.623752 133.307391 
L 228.03179 133.70238 
L 231.457114 133.897289 
L 234.887987 133.891445 
L 238.312655 133.684867 
L 241.719382 133.278258 
L 245.096496 132.67301 
L 248.432422 131.871192 
L 251.715731 130.875551 
L 254.935169 129.689493 
L 258.079705 128.317081 
L 261.138561 126.763014 
L 264.101254 125.032616 
L 266.957631 123.131812 
L 269.697901 121.067114 
L 272.31267 118.845595 
L 274.792976 116.474868 
L 277.130314 113.963054 
L 279.316674 111.31876 
L 281.344558 108.551048 
L 283.207014 105.669402 
L 284.897656 102.683696 
L 286.410689 99.604162 
L 287.740922 96.441355 
L 288.883795 93.206113 
L 289.835388 89.909524 
L 290.592437 86.562887 
L 291.152345 83.177672 
L 291.51319 79.765482 
L 291.673732 76.338015 
L 291.63342 72.907019 
L 291.39239 69.484255 
L 290.951466 66.081456 
L 290.312156 62.710285 
L 289.476652 59.3823 
L 288.447815 56.108908 
L 287.22917 52.901331 
L 285.824894 49.770565 
L 284.239799 46.727345 
L 282.479319 43.782103 
L 280.549487 40.944937 
L 278.456918 38.225573 
L 276.208784 35.633334 
L 273.812792 33.177108 
L 271.277156 30.865315 
L 268.610566 28.705882 
L 265.822167 26.706214 
L 262.921515 24.873165 
L 259.918557 23.213021 
L 256.823585 21.731473 
L 253.647212 20.433602 
L 250.400327 19.323857 
L 247.094061 18.406043 
L 243.739749 17.683306 
L 240.348891 17.158125 
L 236.933112 16.8323 
L 233.504123 16.706949 
L 230.07368 16.7825 
L 226.653543 17.058695 
L 223.255437 17.534588 
L 219.891014 18.208545 
L 216.571806 19.078257 
L 213.309193 20.140743 
L 210.114362 21.392358 
L 206.998267 22.828812 
L 203.971589 24.44518 
L 201.044707 26.235921 
L 198.227653 28.194895 
L 195.530087 30.315385 
L 192.961256 32.590124 
L 190.529967 35.011311 
L 188.244555 37.570645 
L 186.112858 40.259353 
L 184.142184 43.068215 
L 182.33929 45.987601 
L 180.710357 49.007503 
L 179.260971 52.117565 
L 177.996101 55.307127 
L 176.920083 58.565254 
L 176.036608 61.880776 
L 175.348704 65.242326 
L 174.858732 68.638379 
L 174.568373 72.05729 
L 174.478622 75.487336 
L 174.589789 78.916759 
L 174.901495 82.333799 
L 175.41267 85.72674 
L 176.121564 89.083949 
L 177.025748 92.393913 
L 178.122123 95.645284 
L 179.406932 98.826913 
L 180.87577 101.927889 
L 182.523602 104.937581 
L 184.344781 107.845665 
L 186.333063 110.64217 
L 188.48163 113.317504 
L 190.783119 115.862492 
L 193.229637 118.268406 
L 195.812799 120.526995 
L 198.523747 122.630511 
L 201.353185 124.571738 
L 204.291414 126.344019 
L 207.328358 127.941273 
L 210.453602 129.35802 
L 213.656431 130.589398 
L 216.92586 131.631181 
L 220.250678 132.479795 
L 223.619483 133.132327 
L 227.020721 133.586535 
L 230.442728 133.840858 
L 233.873767 133.894422 
L 237.302072 133.747039 
L 240.715884 133.399213 
L 244.103493 132.852132 
L 247.453279 132.107671 
L 250.753751 131.168379 
L 253.993589 130.037476 
L 257.161676 128.718838 
L 260.247144 127.216985 
L 263.239409 125.537066 
L 266.128205 123.68484 
L 268.903621 121.666658 
L 271.556133 119.489442 
L 274.076639 117.160658 
L 276.456491 114.688293 
L 278.687521 112.080826 
L 280.762073 109.347203 
L 282.673028 106.496798 
L 284.413826 103.53939 
L 285.978494 100.485122 
L 287.36166 97.344475 
L 288.558574 94.128224 
L 289.565129 90.847401 
L 290.377867 87.513265 
L 290.993998 84.137254 
L 291.411405 80.730952 
L 291.628654 77.306046 
L 291.644997 73.874287 
L 291.460376 70.447449 
L 291.075421 67.037292 
L 290.491451 63.655518 
L 289.710469 60.313731 
L 288.735152 57.0234 
L 287.568845 53.795815 
L 286.215548 50.642052 
L 284.679903 47.572935 
L 282.967178 44.598997 
L 281.08325 41.730444 
L 279.034582 38.977121 
L 276.828203 36.348479 
L 274.471685 33.85354 
L 271.973114 31.500867 
L 269.341063 29.298535 
L 266.584566 27.254104 
L 263.713081 25.374593 
L 260.736464 23.66645 
L 257.66493 22.135542 
L 254.509021 20.787122 
L 251.279566 19.625819 
L 247.98765 18.655619 
L 244.644571 17.879854 
L 241.261802 17.301186 
L 237.850953 16.921602 
L 234.42373 16.742405 
L 230.991896 16.764212 
L 227.56723 16.986947 
L 224.161485 17.409848 
L 220.786351 18.031462 
L 217.453411 18.849658 
L 214.174108 19.861627 
L 210.959695 21.063897 
L 207.821205 22.452342 
L 204.769412 24.022196 
L 201.81479 25.768071 
L 198.967481 27.683977 
L 196.237256 29.763338 
L 193.633487 31.999019 
L 191.165113 34.383345 
L 188.840606 36.908132 
L 186.667945 39.564717 
L 184.654589 42.34398 
L 182.80745 45.236382 
L 181.132869 48.231995 
L 179.636595 51.320535 
L 178.323765 54.491402 
L 177.198888 57.733712 
L 176.265824 61.036334 
L 175.527779 64.387933 
L 174.987286 67.777004 
L 174.646202 71.191915 
L 174.5057 74.620942 
L 174.566262 78.052316 
L 174.827684 81.474257 
L 175.289069 84.875017 
L 175.948834 88.242922 
L 176.804717 91.56641 
L 177.853781 94.834071 
L 179.092428 98.034688 
L 180.516407 101.157273 
L 182.120832 104.191105 
L 183.900197 107.125768 
L 185.848395 109.951185 
L 187.958741 112.657656 
L 190.22399 115.235884 
L 192.636366 117.677017 
L 195.187589 119.972669 
L 197.8689 122.114957 
L 200.671094 124.096523 
L 203.584551 125.910559 
L 206.599271 127.550836 
L 209.704904 129.011718 
L 212.890787 130.288187 
L 216.145981 131.375856 
L 219.459311 132.270986 
L 222.819398 132.970501 
L 226.214707 133.471996 
L 229.633576 133.773743 
L 233.064265 133.874704 
L 236.494993 133.774527 
L 239.913975 133.473554 
L 243.30947 132.972813 
L 246.669817 132.274021 
L 249.983471 131.379574 
L 253.239052 130.292541 
L 256.425377 129.01665 
L 259.531499 127.556281 
L 262.54675 125.916445 
L 265.46077 124.102771 
L 268.263549 122.121486 
L 270.945455 119.979391 
L 273.497272 117.683843 
L 275.91023 115.242726 
L 278.176038 112.664421 
L 280.286909 109.957782 
L 282.235588 107.132107 
L 284.015375 104.197102 
L 285.620152 101.162849 
L 287.044402 98.039771 
L 288.283229 94.838594 
L 289.332372 91.570317 
L 290.188222 88.246167 
L 290.847836 84.877565 
L 291.308942 81.476085 
L 291.569952 78.053413 
L 291.629966 74.621311 
L 291.488774 71.191572 
L 291.146856 67.775985 
L 290.605383 64.386286 
L 289.866214 61.034125 
L 288.931884 57.731021 
L 287.805602 54.48833 
L 286.491235 51.317197 
L 284.993298 48.228522 
L 283.316935 45.232921 
L 281.467906 42.340693 
L 279.452563 39.561779 
L 277.277831 36.905735 
L 274.951183 34.381689 
L 272.480614 31.998321 
L 269.874614 29.763823 
L 267.142138 27.685879 
L 264.292577 25.771632 
L 261.335726 24.027666 
L 258.281749 22.459978 
L 255.141143 21.073959 
L 251.924699 19.874374 
L 248.643473 18.865348 
L 245.308748 18.050354 
L 241.931986 17.432194 
L 238.524798 17.012997 
L 235.098898 16.794205 
L 231.666062 16.776572 
L 228.23809 16.960159 
L 224.826768 17.344338 
L 221.443824 17.927789 
L 218.100889 18.708508 
L 214.809456 19.683812 
L 211.580843 20.850349 
L 208.426152 22.204109 
L 205.35623 23.740439 
L 202.381631 25.454057 
L 199.512585 27.339074 
L 196.758956 29.389007 
L 194.130212 31.596812 
L 191.635392 33.954898 
L 189.283077 36.455157 
L 187.081353 39.088994 
L 185.037793 41.847353 
L 183.159425 44.720753 
L 181.452708 47.699312 
L 179.923513 50.772789 
L 178.577098 53.930618 
L 177.418097 57.161939 
L 176.450496 60.45564 
L 175.677625 63.800394 
L 175.102142 67.184701 
L 174.726029 70.596927 
L 174.55058 74.025338 
L 174.576401 77.458146 
L 174.803407 80.883544 
L 175.230818 84.28975 
L 175.857167 87.665047 
L 176.680303 90.99783 
L 177.697398 94.276636 
L 178.904956 97.490186 
L 180.298828 100.627426 
L 181.87422 103.677564 
L 183.625719 106.630109 
L 185.547303 109.474903 
L 187.632366 112.202161 
L 189.87374 114.8025 
L 192.263719 117.266972 
L 194.794083 119.587098 
L 197.456133 121.754893 
L 200.240714 123.762897 
L 203.13825 125.604199 
L 206.138774 127.272459 
L 209.231963 128.761932 
L 212.40718 130.06749 
L 215.653503 131.184636 
L 218.959765 132.109523 
L 222.314593 132.838962 
L 225.706442 133.370439 
L 229.123643 133.702117 
L 232.554436 133.83285 
L 235.987015 133.762183 
L 239.409569 133.490351 
L 242.810321 133.018285 
L 246.177566 132.347602 
L 249.499713 131.480605 
L 252.765326 130.420271 
L 255.963166 129.170242 
L 259.082222 127.734816 
L 262.111754 126.118927 
L 265.041329 124.328132 
L 267.860859 122.368591 
L 270.560635 120.247043 
L 273.131359 117.970784 
L 275.564177 115.547648 
L 277.850706 112.985971 
L 279.983067 110.294572 
L 281.953914 107.482711 
L 283.756456 104.560066 
L 285.384478 101.5367 
L 286.83237 98.423018 
L 288.09514 95.229741 
L 289.168432 91.967864 
L 290.048544 88.648617 
L 290.732437 85.283435 
L 291.217751 81.883906 
L 291.502808 78.461738 
L 291.58662 75.02872 
L 291.468892 71.596679 
L 291.150025 68.177435 
L 290.631111 64.782767 
L 289.913933 61.424371 
L 289.000957 58.113819 
L 287.895324 54.862519 
L 286.600837 51.681673 
L 285.121953 48.582243 
L 283.463765 45.574911 
L 281.631979 42.67004 
L 279.632906 39.877643 
L 277.473431 37.207343 
L 275.160991 34.668346 
L 272.703553 32.269403 
L 270.109581 30.018784 
L 267.38801 27.924245 
L 264.548216 25.993007 
L 261.599981 24.231728 
L 258.553463 22.646481 
L 255.419159 21.242732 
L 252.207871 20.025324 
L 248.930667 18.998457 
L 245.598842 18.165675 
L 242.223875 17.52985 
L 238.817395 17.093177 
L 235.391148 16.857167 
L 231.956945 16.822636 
L 228.526627 16.989708 
L 225.112018 17.357811 
L 221.724891 17.925678 
L 218.376923 18.691357 
L 215.079653 19.652211 
L 211.844449 20.804933 
L 208.682469 22.14555 
L 205.604614 23.669446 
L 202.621501 25.371367 
L 199.743417 27.245449 
L 196.980287 29.285235 
L 194.341642 31.483692 
L 191.836582 33.833245 
L 189.473751 36.325789 
L 187.261303 38.952731 
L 185.206867 41.705017 
L 183.31753 44.573159 
L 181.599809 47.547271 
L 180.059633 50.617099 
L 178.702318 53.772055 
L 177.532549 57.001261 
L 176.554365 60.293579 
L 175.771146 63.637656 
L 175.185597 67.02196 
L 174.799743 70.434816 
L 174.614921 73.864455 
L 174.631773 77.299045 
L 174.850248 80.726731 
L 175.269596 84.135689 
L 175.888378 87.514162 
L 176.704467 90.850498 
L 177.715052 94.133184 
L 178.916654 97.350891 
L 180.305131 100.49251 
L 181.875699 103.547195 
L 183.622942 106.504401 
L 185.54084 109.353922 
L 187.622779 112.085918 
L 189.86158 114.690956 
L 192.249521 117.160038 
L 194.778368 119.484639 
L 197.439397 121.656726 
L 200.223427 123.668796 
L 203.120846 125.51389 
L 206.121657 127.185632 
L 209.215504 128.678243 
L 212.391713 129.986562 
L 215.639319 131.106063 
L 218.947114 132.03287 
L 222.303675 132.763773 
L 225.697414 133.296239 
L 229.11661 133.628417 
L 232.549455 133.759148 
L 235.984089 133.687972 
L 239.40865 133.415121 
L 242.811302 132.941528 
L 246.180285 132.268818 
L 249.503953 131.399304 
L 252.770819 130.33598 
L 255.969594 129.082508 
L 259.08922 127.643207 
L 262.118912 126.02304 
L 265.048196 124.227592 
L 267.86694 122.263058 
L 270.565389 120.13622 
L 273.134206 117.85442 
L 275.5645 115.425537 
L 277.847858 112.857959 
L 279.976368 110.160561 
L 281.942657 107.342665 
L 283.739912 104.414011 
L 285.361905 101.384718 
L 286.803011 98.265262 
L 288.058235 95.066423 
L 289.123218 91.799265 
L 289.994262 88.475086 
L 290.668337 85.105392 
L 291.143093 81.701855 
L 291.416872 78.276263 
L 291.488711 74.840467 
L 291.358347 71.40635 
L 291.026218 67.985814 
L 290.493459 64.590708 
L 289.7619 61.23279 
L 288.83406 57.923694 
L 287.713135 54.67488 
L 286.402991 51.4976 
L 284.908154 48.402874 
L 283.233791 45.401441 
L 281.385687 42.503703 
L 279.370226 39.719706 
L 277.19438 37.059111 
L 274.865682 34.531158 
L 272.392196 32.144631 
L 269.782488 29.907819 
L 267.045589 27.82849 
L 264.190977 25.913871 
L 261.228541 24.17062 
L 258.168554 22.604806 
L 255.021622 21.221884 
L 251.798661 20.026673 
L 248.510862 19.023351 
L 245.169639 18.215422 
L 241.786589 17.605718 
L 238.373461 17.196379 
L 234.942109 16.988853 
L 231.504452 16.983887 
L 228.072417 17.181526 
L 224.657918 17.581115 
L 221.272818 18.181296 
L 217.928892 18.980015 
L 214.637837 19.974513 
L 211.4111 21.161365 
L 210.140936 21.689071 
L 210.140936 21.689071 
" clip-path="url(#pa17185fc74)" style="fill: none; stroke: #aa0000; stroke-linecap: square"/>
   </g>
   <g id="patch_4">
    <path d="M 62.946719 139.811562 
L 62.946719 10.8 
" style="fill: none; stroke: #000000; stroke-width: 0.8; stroke-linejoin: miter; stroke-linecap: square"/>
   </g>
   <g id="patch_5">
    <path d="M 403.2 139.811562 
L 403.2 10.8 
" style="fill: none; stroke: #000000; stroke-width: 0.8; stroke-linejoin: miter; stroke-linecap: square"/>
   </g>
   <g id="patch_6">
    <path d="M 62.946719 139.811563 
L 403.2 139.811563 
" style="fill: none; stroke: #000000; stroke-width: 0.8; stroke-linejoin: miter; stroke-linecap: square"/>
   </g>
   <g id="patch_7">
    <path d="M 62.946719 10.8 
L 403.2 10.8 
" style="fill: none; stroke: #000000; stroke-width: 0.8; stroke-linejoin: miter; stroke-linecap: square"/>
   </g>
  </g>
 </g>
 <defs>
  <clipPath id="pa17185fc74">
   <rect x="62.946719" y="10.8" width="340.253281" height="129.011562"/>
  </clipPath>
 </defs>
</svg>
