<?xml version="1.0" encoding="utf-8" standalone="no"?>
<!DOCTYPE svg PUBLIC "-//W3C//DTD SVG 1.1//EN"
  "http://www.w3.org/Graphics/SVG/1.1/DTD/svg11.dtd">
<svg xmlns:xlink="http://www.w3.org/1999/xlink" width="360pt" height="288pt" viewBox="0 0 360 288" xmlns="http://www.w3.org/2000/svg" version="1.1">
 <metadata>
  <rdf:RDF xmlns:dc="http://purl.org/dc/elements/1.1/" xmlns:cc="http://creativecommons.org/ns#" xmlns:rdf="http://www.w3.org/1999/02/22-rdf-syntax-ns#">
   <cc:Work>
    <dc:type rdf:resource="http://purl.org/dc/dcmitype/StillImage"/>
    <dc:date>2026-01-30T03:11:21.375490</dc:date>
    <dc:format>image/svg+xml</dc:format>
    <dc:creator>
     <cc:Agent>
      <dc:title>Matplotlib v3.10.7, https://matplotlib.org/</dc:title>
     </cc:Agent>
    </dc:creator>
   </cc:Work>
  </rdf:RDF>
 </metadata>
 <defs>
  <style type="text/css">*{stroke-linejoin: round; stroke-linecap: butt}</style>
 </defs>
 <g id="figure_1">
  <g id="patch_1">
   <path d="M 0 288 
L 360 288 
L 360 0 
L 0 0 
L 0 288 
z
" style="fill: none"/>
  </g>
  <g id="axes_1">
   <g id="patch_2">
    <path d="M 56.923125 241.036875 
L 349.2 241.036875 
L 349.2 25.9575 
L 56.923125 25.9575 
L 56.923125 241.036875 
z
" style="fill: none"/>
   </g>
   <g id="matplotlib.axis_1">
    <g id="xtick_1">
     <g id="line2d_1">
      <defs>
       <path id="mbf02395ac8" d="M 0 0 
L 0 3.5 
" style="stroke: #000000; stroke-width: 0.8"/>
      </defs>
      <g>
       <use xlink:href="#mbf02395ac8" x="70.208438" y="241.036875" style="stroke: #000000; stroke-width: 0.8"/>
      </g>
     </g>
     <g id="text_1">
      <!-- 0 -->
      <g transform="translate(65.118437 260.194375) scale(0.16 -0.16)">
       <defs>
        <path id="DejaVuSans-30" d="M 2034 4250 
Q 1547 4250 1301 3770 
Q 1056 3291 1056 2328 
Q 1056 1369 1301 889 
Q 1547 409 2034 409 
Q 2525 409 2770 889 
Q 3016 1369 3016 2328 
Q 3016 3291 2770 3770 
Q 2525 4250 2034 4250 
z
M 2034 4750 
Q 2819 4750 3233 4129 
Q 3647 3509 3647 2328 
Q 3647 1150 3233 529 
Q 2819 -91 2034 -91 
Q 1250 -91 836 529 
Q 422 1150 422 2328 
Q 422 3509 836 4129 
Q 1250 4750 2034 4750 
z
" transform="scale(0.015625)"/>
       </defs>
       <use xlink:href="#DejaVuSans-30"/>
      </g>
     </g>
    </g>
    <g id="xtick_2">
     <g id="line2d_2">
      <g>
       <use xlink:href="#mbf02395ac8" x="167.590241" y="241.036875" style="stroke: #000000; stroke-width: 0.8"/>
      </g>
     </g>
     <g id="text_2">
      <!-- 500 -->
      <g transform="translate(152.320241 260.194375) scale(0.16 -0.16)">
       <defs>
        <path id="DejaVuSans-35" d="M 691 4666 
L 3169 4666 
L 3169 4134 
L 1269 4134 
L 1269 2991 
Q 1406 3038 1543 3061 
Q 1681 3084 1819 3084 
Q 2600 3084 3056 2656 
Q 3513 2228 3513 1497 
Q 3513 744 3044 326 
Q 2575 -91 1722 -91 
Q 1428 -91 1123 -41 
Q 819 9 494 109 
L 494 744 
Q 775 591 1075 516 
Q 1375 441 1709 441 
Q 2250 441 2565 725 
Q 2881 1009 2881 1497 
Q 2881 1984 2565 2268 
Q 2250 2553 1709 2553 
Q 1456 2553 1204 2497 
Q 953 2441 691 2322 
L 691 4666 
z
" transform="scale(0.015625)"/>
       </defs>
       <use xlink:href="#DejaVuSans-35"/>
       <use xlink:href="#DejaVuSans-30" transform="translate(63.623047 0)"/>
       <use xlink:href="#DejaVuSans-30" transform="translate(127.246094 0)"/>
      </g>
     </g>
    </g>
    <g id="xtick_3">
     <g id="line2d_3">
      <g>
       <use xlink:href="#mbf02395ac8" x="264.972044" y="241.036875" style="stroke: #000000; stroke-width: 0.8"/>
      </g>
     </g>
     <g id="text_3">
      <!-- 1000 -->
      <g transform="translate(244.612044 260.194375) scale(0.16 -0.16)">
       <defs>
        <path id="DejaVuSans-31" d="M 794 531 
L 1825 531 
L 1825 4091 
L 703 3866 
L 703 4441 
L 1819 4666 
L 2450 4666 
L 2450 531 
L 3481 531 
L 3481 0 
L 794 0 
L 794 531 
z
" transform="scale(0.015625)"/>
       </defs>
       <use xlink:href="#DejaVuSans-31"/>
       <use xlink:href="#DejaVuSans-30" transform="translate(63.623047 0)"/>
       <use xlink:href="#DejaVuSans-30" transform="translate(127.246094 0)"/>
       <use xlink:href="#DejaVuSans-30" transform="translate(190.869141 0)"/>
      </g>
     </g>
    </g>
    <g id="text_4">
     <!-- Time (s) -->
     <g transform="translate(182.732656 275.120313) scale(0.1 -0.1)">
      <defs>
       <path id="DejaVuSans-54" d="M -19 4666 
L 3928 4666 
L 3928 4134 
L 2272 4134 
L 2272 0 
L 1638 0 
L 1638 4134 
L -19 4134 
L -19 4666 
z
" transform="scale(0.015625)"/>
       <path id="DejaVuSans-69" d="M 603 3500 
L 1178 3500 
L 1178 0 
L 603 0 
L 603 3500 
z
M 603 4863 
L 1178 4863 
L 1178 4134 
L 603 4134 
L 603 4863 
z
" transform="scale(0.015625)"/>
       <path id="DejaVuSans-6d" d="M 3328 2828 
Q 3544 3216 3844 3400 
Q 4144 3584 4550 3584 
Q 5097 3584 5394 3201 
Q 5691 2819 5691 2113 
L 5691 0 
L 5113 0 
L 5113 2094 
Q 5113 2597 4934 2840 
Q 4756 3084 4391 3084 
Q 3944 3084 3684 2787 
Q 3425 2491 3425 1978 
L 3425 0 
L 2847 0 
L 2847 2094 
Q 2847 2600 2669 2842 
Q 2491 3084 2119 3084 
Q 1678 3084 1418 2786 
Q 1159 2488 1159 1978 
L 1159 0 
L 581 0 
L 581 3500 
L 1159 3500 
L 1159 2956 
Q 1356 3278 1631 3431 
Q 1906 3584 2284 3584 
Q 2666 3584 2933 3390 
Q 3200 3197 3328 2828 
z
" transform="scale(0.015625)"/>
       <path id="DejaVuSans-65" d="M 3597 1894 
L 3597 1613 
L 953 1613 
Q 991 1019 1311 708 
Q 1631 397 2203 397 
Q 2534 397 2845 478 
Q 3156 559 3463 722 
L 3463 178 
Q 3153 47 2828 -22 
Q 2503 -91 2169 -91 
Q 1331 -91 842 396 
Q 353 884 353 1716 
Q 353 2575 817 3079 
Q 1281 3584 2069 3584 
Q 2775 3584 3186 3129 
Q 3597 2675 3597 1894 
z
M 3022 2063 
Q 3016 2534 2758 2815 
Q 2500 3097 2075 3097 
Q 1594 3097 1305 2825 
Q 1016 2553 972 2059 
L 3022 2063 
z
" transform="scale(0.015625)"/>
       <path id="DejaVuSans-20" transform="scale(0.015625)"/>
       <path id="DejaVuSans-28" d="M 1984 4856 
Q 1566 4138 1362 3434 
Q 1159 2731 1159 2009 
Q 1159 1288 1364 580 
Q 1569 -128 1984 -844 
L 1484 -844 
Q 1016 -109 783 600 
Q 550 1309 550 2009 
Q 550 2706 781 3412 
Q 1013 4119 1484 4856 
L 1984 4856 
z
" transform="scale(0.015625)"/>
       <path id="DejaVuSans-73" d="M 2834 3397 
L 2834 2853 
Q 2591 2978 2328 3040 
Q 2066 3103 1784 3103 
Q 1356 3103 1142 2972 
Q 928 2841 928 2578 
Q 928 2378 1081 2264 
Q 1234 2150 1697 2047 
L 1894 2003 
Q 2506 1872 2764 1633 
Q 3022 1394 3022 966 
Q 3022 478 2636 193 
Q 2250 -91 1575 -91 
Q 1294 -91 989 -36 
Q 684 19 347 128 
L 347 722 
Q 666 556 975 473 
Q 1284 391 1588 391 
Q 1994 391 2212 530 
Q 2431 669 2431 922 
Q 2431 1156 2273 1281 
Q 2116 1406 1581 1522 
L 1381 1569 
Q 847 1681 609 1914 
Q 372 2147 372 2553 
Q 372 3047 722 3315 
Q 1072 3584 1716 3584 
Q 2034 3584 2315 3537 
Q 2597 3491 2834 3397 
z
" transform="scale(0.015625)"/>
       <path id="DejaVuSans-29" d="M 513 4856 
L 1013 4856 
Q 1481 4119 1714 3412 
Q 1947 2706 1947 2009 
Q 1947 1309 1714 600 
Q 1481 -109 1013 -844 
L 513 -844 
Q 928 -128 1133 580 
Q 1338 1288 1338 2009 
Q 1338 2731 1133 3434 
Q 928 4138 513 4856 
z
" transform="scale(0.015625)"/>
      </defs>
      <use xlink:href="#DejaVuSans-54"/>
      <use xlink:href="#DejaVuSans-69" transform="translate(57.958984 0)"/>
      <use xlink:href="#DejaVuSans-6d" transform="translate(85.742188 0)"/>
      <use xlink:href="#DejaVuSans-65" transform="translate(183.154297 0)"/>
      <use xlink:href="#DejaVuSans-20" transform="translate(244.677734 0)"/>
      <use xlink:href="#DejaVuSans-28" transform="translate(276.464844 0)"/>
      <use xlink:href="#DejaVuSans-73" transform="translate(315.478516 0)"/>
      <use xlink:href="#DejaVuSans-29" transform="translate(367.578125 0)"/>
     </g>
    </g>
   </g>
   <g id="matplotlib.axis_2">
    <g id="ytick_1">
     <g id="line2d_4">
      <defs>
       <path id="mb05f2628d1" d="M 0 0 
L -3.5 0 
" style="stroke: #000000; stroke-width: 0.8"/>
      </defs>
      <g>
       <use xlink:href="#mb05f2628d1" x="56.923125" y="219.61787" style="stroke: #000000; stroke-width: 0.8"/>
      </g>
     </g>
     <g id="text_5">
      <!-- 0.0 -->
      <g transform="translate(24.478125 225.69662) scale(0.16 -0.16)">
       <defs>
        <path id="DejaVuSans-2e" d="M 684 794 
L 1344 794 
L 1344 0 
L 684 0 
L 684 794 
z
" transform="scale(0.015625)"/>
       </defs>
       <use xlink:href="#DejaVuSans-30"/>
       <use xlink:href="#DejaVuSans-2e" transform="translate(63.623047 0)"/>
       <use xlink:href="#DejaVuSans-30" transform="translate(95.410156 0)"/>
      </g>
     </g>
    </g>
    <g id="ytick_2">
     <g id="line2d_5">
      <g>
       <use xlink:href="#mb05f2628d1" x="56.923125" y="182.507055" style="stroke: #000000; stroke-width: 0.8"/>
      </g>
     </g>
     <g id="text_6">
      <!-- 0.5 -->
      <g transform="translate(24.478125 188.585805) scale(0.16 -0.16)">
       <use xlink:href="#DejaVuSans-30"/>
       <use xlink:href="#DejaVuSans-2e" transform="translate(63.623047 0)"/>
       <use xlink:href="#DejaVuSans-35" transform="translate(95.410156 0)"/>
      </g>
     </g>
    </g>
    <g id="ytick_3">
     <g id="line2d_6">
      <g>
       <use xlink:href="#mb05f2628d1" x="56.923125" y="145.39624" style="stroke: #000000; stroke-width: 0.8"/>
      </g>
     </g>
     <g id="text_7">
      <!-- 1.0 -->
      <g transform="translate(24.478125 151.47499) scale(0.16 -0.16)">
       <use xlink:href="#DejaVuSans-31"/>
       <use xlink:href="#DejaVuSans-2e" transform="translate(63.623047 0)"/>
       <use xlink:href="#DejaVuSans-30" transform="translate(95.410156 0)"/>
      </g>
     </g>
    </g>
    <g id="ytick_4">
     <g id="line2d_7">
      <g>
       <use xlink:href="#mb05f2628d1" x="56.923125" y="108.285425" style="stroke: #000000; stroke-width: 0.8"/>
      </g>
     </g>
     <g id="text_8">
      <!-- 1.5 -->
      <g transform="translate(24.478125 114.364175) scale(0.16 -0.16)">
       <use xlink:href="#DejaVuSans-31"/>
       <use xlink:href="#DejaVuSans-2e" transform="translate(63.623047 0)"/>
       <use xlink:href="#DejaVuSans-35" transform="translate(95.410156 0)"/>
      </g>
     </g>
    </g>
    <g id="ytick_5">
     <g id="line2d_8">
      <g>
       <use xlink:href="#mb05f2628d1" x="56.923125" y="71.174609" style="stroke: #000000; stroke-width: 0.8"/>
      </g>
     </g>
     <g id="text_9">
      <!-- 2.0 -->
      <g transform="translate(24.478125 77.253359) scale(0.16 -0.16)">
       <defs>
        <path id="DejaVuSans-32" d="M 1228 531 
L 3431 531 
L 3431 0 
L 469 0 
L 469 531 
Q 828 903 1448 1529 
Q 2069 2156 2228 2338 
Q 2531 2678 2651 2914 
Q 2772 3150 2772 3378 
Q 2772 3750 2511 3984 
Q 2250 4219 1831 4219 
Q 1534 4219 1204 4116 
Q 875 4013 500 3803 
L 500 4441 
Q 881 4594 1212 4672 
Q 1544 4750 1819 4750 
Q 2544 4750 2975 4387 
Q 3406 4025 3406 3419 
Q 3406 3131 3298 2873 
Q 3191 2616 2906 2266 
Q 2828 2175 2409 1742 
Q 1991 1309 1228 531 
z
" transform="scale(0.015625)"/>
       </defs>
       <use xlink:href="#DejaVuSans-32"/>
       <use xlink:href="#DejaVuSans-2e" transform="translate(63.623047 0)"/>
       <use xlink:href="#DejaVuSans-30" transform="translate(95.410156 0)"/>
      </g>
     </g>
    </g>
    <g id="ytick_6">
     <g id="line2d_9">
      <g>
       <use xlink:href="#mb05f2628d1" x="56.923125" y="34.063794" style="stroke: #000000; stroke-width: 0.8"/>
      </g>
     </g>
     <g id="text_10">
      <!-- 2.5 -->
      <g transform="translate(24.478125 40.142544) scale(0.16 -0.16)">
       <use xlink:href="#DejaVuSans-32"/>
       <use xlink:href="#DejaVuSans-2e" transform="translate(63.623047 0)"/>
       <use xlink:href="#DejaVuSans-35" transform="translate(95.410156 0)"/>
      </g>
     </g>
    </g>
    <g id="text_11">
     <!-- Relative Rotational Angular Momentum Variation -->
     <g transform="translate(18.398438 255.4925) rotate(-90) scale(0.1 -0.1)">
      <defs>
       <path id="DejaVuSans-52" d="M 2841 2188 
Q 3044 2119 3236 1894 
Q 3428 1669 3622 1275 
L 4263 0 
L 3584 0 
L 2988 1197 
Q 2756 1666 2539 1819 
Q 2322 1972 1947 1972 
L 1259 1972 
L 1259 0 
L 628 0 
L 628 4666 
L 2053 4666 
Q 2853 4666 3247 4331 
Q 3641 3997 3641 3322 
Q 3641 2881 3436 2590 
Q 3231 2300 2841 2188 
z
M 1259 4147 
L 1259 2491 
L 2053 2491 
Q 2509 2491 2742 2702 
Q 2975 2913 2975 3322 
Q 2975 3731 2742 3939 
Q 2509 4147 2053 4147 
L 1259 4147 
z
" transform="scale(0.015625)"/>
       <path id="DejaVuSans-6c" d="M 603 4863 
L 1178 4863 
L 1178 0 
L 603 0 
L 603 4863 
z
" transform="scale(0.015625)"/>
       <path id="DejaVuSans-61" d="M 2194 1759 
Q 1497 1759 1228 1600 
Q 959 1441 959 1056 
Q 959 750 1161 570 
Q 1363 391 1709 391 
Q 2188 391 2477 730 
Q 2766 1069 2766 1631 
L 2766 1759 
L 2194 1759 
z
M 3341 1997 
L 3341 0 
L 2766 0 
L 2766 531 
Q 2569 213 2275 61 
Q 1981 -91 1556 -91 
Q 1019 -91 701 211 
Q 384 513 384 1019 
Q 384 1609 779 1909 
Q 1175 2209 1959 2209 
L 2766 2209 
L 2766 2266 
Q 2766 2663 2505 2880 
Q 2244 3097 1772 3097 
Q 1472 3097 1187 3025 
Q 903 2953 641 2809 
L 641 3341 
Q 956 3463 1253 3523 
Q 1550 3584 1831 3584 
Q 2591 3584 2966 3190 
Q 3341 2797 3341 1997 
z
" transform="scale(0.015625)"/>
       <path id="DejaVuSans-74" d="M 1172 4494 
L 1172 3500 
L 2356 3500 
L 2356 3053 
L 1172 3053 
L 1172 1153 
Q 1172 725 1289 603 
Q 1406 481 1766 481 
L 2356 481 
L 2356 0 
L 1766 0 
Q 1100 0 847 248 
Q 594 497 594 1153 
L 594 3053 
L 172 3053 
L 172 3500 
L 594 3500 
L 594 4494 
L 1172 4494 
z
" transform="scale(0.015625)"/>
       <path id="DejaVuSans-76" d="M 191 3500 
L 800 3500 
L 1894 563 
L 2988 3500 
L 3597 3500 
L 2284 0 
L 1503 0 
L 191 3500 
z
" transform="scale(0.015625)"/>
       <path id="DejaVuSans-6f" d="M 1959 3097 
Q 1497 3097 1228 2736 
Q 959 2375 959 1747 
Q 959 1119 1226 758 
Q 1494 397 1959 397 
Q 2419 397 2687 759 
Q 2956 1122 2956 1747 
Q 2956 2369 2687 2733 
Q 2419 3097 1959 3097 
z
M 1959 3584 
Q 2709 3584 3137 3096 
Q 3566 2609 3566 1747 
Q 3566 888 3137 398 
Q 2709 -91 1959 -91 
Q 1206 -91 779 398 
Q 353 888 353 1747 
Q 353 2609 779 3096 
Q 1206 3584 1959 3584 
z
" transform="scale(0.015625)"/>
       <path id="DejaVuSans-6e" d="M 3513 2113 
L 3513 0 
L 2938 0 
L 2938 2094 
Q 2938 2591 2744 2837 
Q 2550 3084 2163 3084 
Q 1697 3084 1428 2787 
Q 1159 2491 1159 1978 
L 1159 0 
L 581 0 
L 581 3500 
L 1159 3500 
L 1159 2956 
Q 1366 3272 1645 3428 
Q 1925 3584 2291 3584 
Q 2894 3584 3203 3211 
Q 3513 2838 3513 2113 
z
" transform="scale(0.015625)"/>
       <path id="DejaVuSans-41" d="M 2188 4044 
L 1331 1722 
L 3047 1722 
L 2188 4044 
z
M 1831 4666 
L 2547 4666 
L 4325 0 
L 3669 0 
L 3244 1197 
L 1141 1197 
L 716 0 
L 50 0 
L 1831 4666 
z
" transform="scale(0.015625)"/>
       <path id="DejaVuSans-67" d="M 2906 1791 
Q 2906 2416 2648 2759 
Q 2391 3103 1925 3103 
Q 1463 3103 1205 2759 
Q 947 2416 947 1791 
Q 947 1169 1205 825 
Q 1463 481 1925 481 
Q 2391 481 2648 825 
Q 2906 1169 2906 1791 
z
M 3481 434 
Q 3481 -459 3084 -895 
Q 2688 -1331 1869 -1331 
Q 1566 -1331 1297 -1286 
Q 1028 -1241 775 -1147 
L 775 -588 
Q 1028 -725 1275 -790 
Q 1522 -856 1778 -856 
Q 2344 -856 2625 -561 
Q 2906 -266 2906 331 
L 2906 616 
Q 2728 306 2450 153 
Q 2172 0 1784 0 
Q 1141 0 747 490 
Q 353 981 353 1791 
Q 353 2603 747 3093 
Q 1141 3584 1784 3584 
Q 2172 3584 2450 3431 
Q 2728 3278 2906 2969 
L 2906 3500 
L 3481 3500 
L 3481 434 
z
" transform="scale(0.015625)"/>
       <path id="DejaVuSans-75" d="M 544 1381 
L 544 3500 
L 1119 3500 
L 1119 1403 
Q 1119 906 1312 657 
Q 1506 409 1894 409 
Q 2359 409 2629 706 
Q 2900 1003 2900 1516 
L 2900 3500 
L 3475 3500 
L 3475 0 
L 2900 0 
L 2900 538 
Q 2691 219 2414 64 
Q 2138 -91 1772 -91 
Q 1169 -91 856 284 
Q 544 659 544 1381 
z
M 1991 3584 
L 1991 3584 
z
" transform="scale(0.015625)"/>
       <path id="DejaVuSans-72" d="M 2631 2963 
Q 2534 3019 2420 3045 
Q 2306 3072 2169 3072 
Q 1681 3072 1420 2755 
Q 1159 2438 1159 1844 
L 1159 0 
L 581 0 
L 581 3500 
L 1159 3500 
L 1159 2956 
Q 1341 3275 1631 3429 
Q 1922 3584 2338 3584 
Q 2397 3584 2469 3576 
Q 2541 3569 2628 3553 
L 2631 2963 
z
" transform="scale(0.015625)"/>
       <path id="DejaVuSans-4d" d="M 628 4666 
L 1569 4666 
L 2759 1491 
L 3956 4666 
L 4897 4666 
L 4897 0 
L 4281 0 
L 4281 4097 
L 3078 897 
L 2444 897 
L 1241 4097 
L 1241 0 
L 628 0 
L 628 4666 
z
" transform="scale(0.015625)"/>
       <path id="DejaVuSans-56" d="M 1831 0 
L 50 4666 
L 709 4666 
L 2188 738 
L 3669 4666 
L 4325 4666 
L 2547 0 
L 1831 0 
z
" transform="scale(0.015625)"/>
      </defs>
      <use xlink:href="#DejaVuSans-52"/>
      <use xlink:href="#DejaVuSans-65" transform="translate(64.982422 0)"/>
      <use xlink:href="#DejaVuSans-6c" transform="translate(126.505859 0)"/>
      <use xlink:href="#DejaVuSans-61" transform="translate(154.289062 0)"/>
      <use xlink:href="#DejaVuSans-74" transform="translate(215.568359 0)"/>
      <use xlink:href="#DejaVuSans-69" transform="translate(254.777344 0)"/>
      <use xlink:href="#DejaVuSans-76" transform="translate(282.560547 0)"/>
      <use xlink:href="#DejaVuSans-65" transform="translate(341.740234 0)"/>
      <use xlink:href="#DejaVuSans-20" transform="translate(403.263672 0)"/>
      <use xlink:href="#DejaVuSans-52" transform="translate(435.050781 0)"/>
      <use xlink:href="#DejaVuSans-6f" transform="translate(500.033203 0)"/>
      <use xlink:href="#DejaVuSans-74" transform="translate(561.214844 0)"/>
      <use xlink:href="#DejaVuSans-61" transform="translate(600.423828 0)"/>
      <use xlink:href="#DejaVuSans-74" transform="translate(661.703125 0)"/>
      <use xlink:href="#DejaVuSans-69" transform="translate(700.912109 0)"/>
      <use xlink:href="#DejaVuSans-6f" transform="translate(728.695312 0)"/>
      <use xlink:href="#DejaVuSans-6e" transform="translate(789.876953 0)"/>
      <use xlink:href="#DejaVuSans-61" transform="translate(853.255859 0)"/>
      <use xlink:href="#DejaVuSans-6c" transform="translate(914.535156 0)"/>
      <use xlink:href="#DejaVuSans-20" transform="translate(942.318359 0)"/>
      <use xlink:href="#DejaVuSans-41" transform="translate(974.105469 0)"/>
      <use xlink:href="#DejaVuSans-6e" transform="translate(1042.513672 0)"/>
      <use xlink:href="#DejaVuSans-67" transform="translate(1105.892578 0)"/>
      <use xlink:href="#DejaVuSans-75" transform="translate(1169.369141 0)"/>
      <use xlink:href="#DejaVuSans-6c" transform="translate(1232.748047 0)"/>
      <use xlink:href="#DejaVuSans-61" transform="translate(1260.53125 0)"/>
      <use xlink:href="#DejaVuSans-72" transform="translate(1321.810547 0)"/>
      <use xlink:href="#DejaVuSans-20" transform="translate(1362.923828 0)"/>
      <use xlink:href="#DejaVuSans-4d" transform="translate(1394.710938 0)"/>
      <use xlink:href="#DejaVuSans-6f" transform="translate(1480.990234 0)"/>
      <use xlink:href="#DejaVuSans-6d" transform="translate(1542.171875 0)"/>
      <use xlink:href="#DejaVuSans-65" transform="translate(1639.583984 0)"/>
      <use xlink:href="#DejaVuSans-6e" transform="translate(1701.107422 0)"/>
      <use xlink:href="#DejaVuSans-74" transform="translate(1764.486328 0)"/>
      <use xlink:href="#DejaVuSans-75" transform="translate(1803.695312 0)"/>
      <use xlink:href="#DejaVuSans-6d" transform="translate(1867.074219 0)"/>
      <use xlink:href="#DejaVuSans-20" transform="translate(1964.486328 0)"/>
      <use xlink:href="#DejaVuSans-56" transform="translate(1996.273438 0)"/>
      <use xlink:href="#DejaVuSans-61" transform="translate(2056.931641 0)"/>
      <use xlink:href="#DejaVuSans-72" transform="translate(2118.210938 0)"/>
      <use xlink:href="#DejaVuSans-69" transform="translate(2159.324219 0)"/>
      <use xlink:href="#DejaVuSans-61" transform="translate(2187.107422 0)"/>
      <use xlink:href="#DejaVuSans-74" transform="translate(2248.386719 0)"/>
      <use xlink:href="#DejaVuSans-69" transform="translate(2287.595703 0)"/>
      <use xlink:href="#DejaVuSans-6f" transform="translate(2315.378906 0)"/>
      <use xlink:href="#DejaVuSans-6e" transform="translate(2376.560547 0)"/>
     </g>
    </g>
    <g id="text_12">
     <!-- 1e−6 -->
     <g transform="translate(56.923125 22.9575) scale(0.16 -0.16)">
      <defs>
       <path id="DejaVuSans-2212" d="M 678 2272 
L 4684 2272 
L 4684 1741 
L 678 1741 
L 678 2272 
z
" transform="scale(0.015625)"/>
       <path id="DejaVuSans-36" d="M 2113 2584 
Q 1688 2584 1439 2293 
Q 1191 2003 1191 1497 
Q 1191 994 1439 701 
Q 1688 409 2113 409 
Q 2538 409 2786 701 
Q 3034 994 3034 1497 
Q 3034 2003 2786 2293 
Q 2538 2584 2113 2584 
z
M 3366 4563 
L 3366 3988 
Q 3128 4100 2886 4159 
Q 2644 4219 2406 4219 
Q 1781 4219 1451 3797 
Q 1122 3375 1075 2522 
Q 1259 2794 1537 2939 
Q 1816 3084 2150 3084 
Q 2853 3084 3261 2657 
Q 3669 2231 3669 1497 
Q 3669 778 3244 343 
Q 2819 -91 2113 -91 
Q 1303 -91 875 529 
Q 447 1150 447 2328 
Q 447 3434 972 4092 
Q 1497 4750 2381 4750 
Q 2619 4750 2861 4703 
Q 3103 4656 3366 4563 
z
" transform="scale(0.015625)"/>
      </defs>
      <use xlink:href="#DejaVuSans-31"/>
      <use xlink:href="#DejaVuSans-65" transform="translate(63.623047 0)"/>
      <use xlink:href="#DejaVuSans-2212" transform="translate(125.146484 0)"/>
      <use xlink:href="#DejaVuSans-36" transform="translate(208.935547 0)"/>
     </g>
    </g>
   </g>
   <g id="line2d_10">
    <path d="M 70.208438 219.61787 
L 70.500583 218.661147 
L 70.646656 218.909644 
L 70.938801 220.533989 
L 71.230946 222.172219 
L 71.377019 222.033143 
L 71.523092 220.61369 
L 71.815237 212.712323 
L 72.399528 190.593828 
L 72.545601 189.911775 
L 72.691673 192.050495 
L 73.275964 206.065039 
L 73.422037 205.77402 
L 73.714182 199.7681 
L 74.882764 165.251421 
L 75.320982 158.862708 
L 75.7592 155.113756 
L 76.197418 152.945993 
L 76.635637 151.690231 
L 77.073855 150.956351 
L 77.658145 150.420565 
L 78.388509 150.102855 
L 79.557091 149.910114 
L 82.040327 149.807636 
L 86.276435 149.846572 
L 87.445017 150.025364 
L 88.17538 150.354452 
L 88.613598 150.744275 
L 89.051816 151.405043 
L 89.490035 152.524446 
L 89.928253 154.407714 
L 90.366471 157.507055 
L 90.804689 162.330757 
L 91.973271 177.377143 
L 92.119343 177.003037 
L 92.411489 173.220909 
L 93.141852 159.553028 
L 93.287925 158.693537 
L 93.433998 158.579549 
L 93.58007 159.104127 
L 93.872216 161.919849 
L 94.310434 170.462076 
L 95.332943 193.454499 
L 95.771161 197.696497 
L 96.063306 198.418283 
L 96.209379 198.288211 
L 96.501524 197.345611 
L 97.377961 192.632052 
L 98.108324 189.543048 
L 98.692615 188.030283 
L 99.276906 187.127606 
L 99.861197 186.605417 
L 100.59156 186.2526 
L 101.614069 186.026266 
L 103.513014 185.88413 
L 106.872686 185.875899 
L 108.333413 186.029922 
L 109.063777 186.273608 
L 109.648068 186.688574 
L 110.086286 187.251794 
L 110.524504 188.189321 
L 110.962722 189.715138 
L 111.40094 192.064985 
L 112.715595 200.218771 
L 112.861667 200.041962 
L 113.153813 198.381927 
L 113.445958 194.960038 
L 114.030249 183.87556 
L 114.61454 172.985652 
L 114.906685 170.138847 
L 115.198831 169.12706 
L 115.344903 169.062704 
L 115.637049 169.323189 
L 115.929194 169.98535 
L 116.22134 171.667728 
L 116.513485 175.243108 
L 116.951703 184.262936 
L 117.682067 200.528598 
L 117.974212 204.128081 
L 118.266357 205.72043 
L 118.41243 205.908695 
L 118.558503 205.791913 
L 118.850648 204.932809 
L 120.457448 198.443833 
L 121.041739 197.245545 
L 121.62603 196.527643 
L 122.356393 196.029853 
L 123.232829 195.732435 
L 124.693556 195.521787 
L 127.322865 195.407638 
L 129.806101 195.269666 
L 133.019701 194.648404 
L 133.457919 194.072694 
L 134.188282 193.030639 
L 134.480428 193.028259 
L 134.772573 193.439886 
L 135.210791 194.714896 
L 136.087227 197.487271 
L 136.525445 198.177752 
L 136.963664 198.47137 
L 137.401882 198.521807 
L 137.8401 198.242802 
L 138.424391 197.866885 
L 138.862609 197.890447 
L 141.63799 198.739267 
L 143.829081 198.859965 
L 148.503407 198.87379 
L 149.818062 198.688048 
L 152.44737 198.150416 
L 153.177734 198.341475 
L 153.615952 198.632264 
L 154.05417 199.273054 
L 154.492388 200.381603 
L 155.222752 202.394822 
L 155.514897 202.610922 
L 155.66097 202.474189 
L 155.953115 201.638285 
L 156.391333 199.144159 
L 156.975624 195.525284 
L 157.26777 194.867271 
L 157.413842 195.007807 
L 157.705988 196.195367 
L 159.45886 208.163751 
L 160.189224 212.675597 
L 160.481369 213.573498 
L 160.773514 213.861016 
L 161.06566 213.672924 
L 161.503878 212.879596 
L 162.67246 210.492127 
L 163.25675 209.743616 
L 163.987114 209.194005 
L 164.717477 208.923116 
L 165.739986 208.808101 
L 166.908568 208.920777 
L 167.931077 209.238092 
L 169.391804 209.81777 
L 169.830022 209.671089 
L 170.26824 209.138283 
L 171.290749 207.431036 
L 171.728967 207.195817 
L 172.167185 207.173348 
L 172.459331 207.305841 
L 172.751476 207.649987 
L 173.189694 208.575611 
L 173.920058 210.24295 
L 174.358276 210.741719 
L 174.650421 210.817589 
L 174.942567 210.712852 
L 175.380785 210.275912 
L 175.965076 209.324483 
L 177.27973 207.06302 
L 178.010094 206.350463 
L 179.178675 205.329499 
L 180.201184 204.278775 
L 180.785475 204.010361 
L 182.246202 203.715016 
L 183.853002 203.528755 
L 185.021583 203.605012 
L 186.044092 203.886476 
L 186.920529 204.344728 
L 187.943038 205.163265 
L 188.819474 205.852249 
L 189.257692 205.912735 
L 189.549837 205.709423 
L 189.841983 205.225078 
L 190.280201 203.84995 
L 190.864492 200.887695 
L 191.594855 197.070703 
L 192.033073 195.781051 
L 192.325219 195.608966 
L 192.617364 195.843658 
L 193.347728 196.695546 
L 193.639873 196.738698 
L 194.370237 196.624096 
L 194.662382 196.933916 
L 195.1006 198.023556 
L 197.145618 205.367704 
L 197.583836 207.672285 
L 198.022054 211.229488 
L 198.606345 218.485998 
L 199.044563 224.014968 
L 199.190636 224.923447 
L 199.336709 224.976577 
L 199.628854 222.722075 
L 199.920999 220.775977 
L 200.067072 221.51507 
L 200.797436 230.905481 
L 200.943508 230.706301 
L 201.235654 228.789937 
L 201.819945 224.739383 
L 202.258163 223.298659 
L 202.696381 222.750459 
L 203.134599 222.60016 
L 204.011035 222.640551 
L 206.640344 222.828036 
L 209.561798 223.040711 
L 211.606816 223.245864 
L 212.191107 223.066519 
L 212.92147 222.551121 
L 213.797906 221.924232 
L 214.236124 221.866722 
L 214.674343 222.021756 
L 216.427215 222.949347 
L 218.618306 223.47059 
L 219.202596 223.657781 
L 219.494742 223.593128 
L 219.786887 223.30167 
L 220.079033 222.687776 
L 220.517251 221.075242 
L 221.393687 217.253657 
L 221.685832 216.74537 
L 221.977978 216.681389 
L 222.854414 216.919105 
L 223.438705 216.964991 
L 223.876923 217.266905 
L 224.607286 218.193324 
L 225.629795 219.48353 
L 226.506232 220.207535 
L 227.528741 220.73825 
L 229.719831 221.564176 
L 230.74234 221.748518 
L 231.472704 221.635997 
L 232.34914 221.224777 
L 233.517721 220.653943 
L 234.248085 220.584988 
L 235.270594 220.77664 
L 238.338121 221.422278 
L 240.090993 221.623167 
L 240.529211 221.737439 
L 240.821357 221.991098 
L 241.259575 222.716082 
L 241.989938 224.073047 
L 242.428156 224.556549 
L 242.866375 224.695459 
L 243.450665 224.570942 
L 244.911392 224.163407 
L 246.226047 224.081458 
L 248.124992 224.189572 
L 249.293574 224.452082 
L 250.608228 224.769083 
L 251.192519 224.639161 
L 252.068955 224.397008 
L 252.507173 224.585183 
L 253.821827 225.531516 
L 254.406118 225.516671 
L 256.012918 225.197896 
L 256.597209 225.322649 
L 257.1815 225.638309 
L 257.911863 226.325909 
L 258.788299 227.557199 
L 259.664736 228.832449 
L 260.102954 229.099504 
L 260.395099 228.965277 
L 260.687245 228.502805 
L 261.125463 227.226712 
L 261.855826 224.885707 
L 262.294044 224.116614 
L 262.58619 223.882681 
L 262.878335 223.92831 
L 263.608699 224.522751 
L 263.754771 224.416925 
L 264.046917 223.794636 
L 264.485135 222.08744 
L 265.361571 218.44577 
L 265.945862 216.905564 
L 266.530153 216.022713 
L 267.114444 215.551782 
L 267.844807 215.269372 
L 269.013389 215.100867 
L 271.350552 215.017131 
L 277.777751 215.19407 
L 278.508115 215.491054 
L 279.092405 215.933617 
L 279.676696 216.684382 
L 280.260987 217.901701 
L 280.845278 219.721548 
L 282.159932 224.285696 
L 282.306005 224.343246 
L 282.452078 224.174982 
L 282.744223 223.031125 
L 283.182441 219.338745 
L 283.766732 214.0619 
L 283.912805 213.518034 
L 284.058877 213.454651 
L 284.20495 213.865492 
L 284.497095 215.814741 
L 285.227459 221.726394 
L 285.519604 222.740192 
L 285.665677 222.888732 
L 285.81175 222.838861 
L 286.103895 222.312651 
L 287.126404 219.756244 
L 287.564622 219.377719 
L 287.856768 219.39072 
L 288.441058 219.760481 
L 288.879277 219.969311 
L 289.171422 219.871679 
L 289.463567 219.479449 
L 289.901785 218.323924 
L 290.632149 216.069511 
L 290.924294 215.66619 
L 291.070367 215.646079 
L 291.362513 215.989784 
L 291.654658 216.805 
L 292.969312 221.387637 
L 293.261458 221.581913 
L 293.553603 221.453174 
L 293.991821 220.898614 
L 295.306476 219.025151 
L 296.036839 218.431963 
L 296.913275 218.05074 
L 298.081857 217.826519 
L 300.272948 217.693597 
L 305.385492 217.655294 
L 306.408001 217.797064 
L 307.284437 218.124226 
L 308.014801 218.611836 
L 309.767673 219.984864 
L 310.059819 219.720275 
L 310.351964 219.094648 
L 311.520546 215.712712 
L 311.666619 215.791744 
L 311.958764 216.457525 
L 313.127346 220.313904 
L 313.419491 220.577287 
L 313.711636 220.585618 
L 314.149854 220.33474 
L 315.610582 219.32503 
L 316.487018 219.032346 
L 317.801672 218.847026 
L 319.992763 218.787374 
L 321.745635 218.959812 
L 322.475999 219.013055 
L 322.914217 218.829751 
L 323.206362 218.487814 
L 323.64458 217.457403 
L 324.228871 215.098356 
L 324.813162 212.969691 
L 324.959235 212.791691 
L 325.105307 212.829765 
L 325.397453 213.580405 
L 325.835671 215.948286 
L 326.419962 219.100111 
L 326.712107 219.935841 
L 327.004253 220.213674 
L 327.296398 220.055687 
L 327.734616 219.325972 
L 329.04927 216.682223 
L 329.341416 216.472245 
L 329.633561 216.523378 
L 330.363925 216.956293 
L 330.65607 216.703189 
L 331.532506 215.346267 
L 331.824652 215.277344 
L 332.26287 215.513467 
L 333.577524 216.477932 
L 334.45396 216.747302 
L 335.914687 216.922252 
L 335.914687 216.922252 
" clip-path="url(#p9478379b2f)" style="fill: none; stroke: #1f77b4; stroke-width: 1.5; stroke-linecap: square"/>
   </g>
   <g id="line2d_11">
    <path d="M 70.208438 219.61787 
L 70.792728 229.094628 
L 71.084874 231.26054 
L 71.230946 231.237938 
L 71.377019 230.38535 
L 71.669165 226.47221 
L 72.253455 217.306517 
L 72.545601 216.168158 
L 72.983819 216.969846 
L 73.129892 216.74605 
L 73.275964 215.924426 
L 73.56811 212.356243 
L 74.298473 197.537977 
L 74.882764 187.493956 
L 75.467055 181.382674 
L 75.905273 178.721928 
L 76.343491 177.095586 
L 76.781709 176.111015 
L 77.366 175.374496 
L 77.950291 174.994363 
L 78.826727 174.732617 
L 80.287454 174.589364 
L 83.647126 174.540665 
L 86.422508 174.678914 
L 87.445017 174.934395 
L 88.029307 175.268261 
L 88.467526 175.705219 
L 88.905744 176.41807 
L 89.343962 177.582035 
L 89.78218 179.471936 
L 90.220398 182.487854 
L 90.658616 187.113381 
L 91.242907 196.124814 
L 91.827198 204.870331 
L 91.973271 205.568748 
L 92.119343 205.018433 
L 92.265416 202.891728 
L 92.557561 193.289895 
L 93.287925 159.575982 
L 93.433998 158.0978 
L 93.58007 159.615544 
L 93.872216 169.765411 
L 94.602579 201.638014 
L 95.040797 212.919493 
L 95.479015 219.541967 
L 95.771161 221.849262 
L 96.063306 222.80594 
L 96.209379 222.908283 
L 96.355452 222.834238 
L 96.647597 222.353887 
L 97.816179 219.946998 
L 98.40047 219.311526 
L 99.130833 218.908016 
L 100.153342 218.678809 
L 102.19836 218.538435 
L 106.288396 218.491899 
L 107.895195 218.638979 
L 108.771632 218.902766 
L 109.501995 219.355231 
L 110.232359 220.137009 
L 111.254868 221.40317 
L 111.547013 221.408284 
L 111.839158 220.982468 
L 112.131304 220.023015 
L 113.299885 215.040944 
L 114.030249 213.834864 
L 114.322394 212.222152 
L 114.61454 209.23963 
L 115.052758 202.060653 
L 115.637049 191.991046 
L 115.929194 190.149006 
L 116.075267 190.403412 
L 116.367412 192.81031 
L 117.097776 200.303662 
L 117.243848 200.777723 
L 117.389921 200.704205 
L 117.682067 199.235771 
L 119.142794 187.859965 
L 119.581012 186.285141 
L 120.01923 185.355982 
L 120.603521 184.698262 
L 121.187811 184.380358 
L 122.064248 184.169034 
L 123.81712 184.029975 
L 130.536465 183.829723 
L 131.120755 184.073234 
L 131.997192 184.75827 
L 132.43541 185.003991 
L 132.727555 184.978175 
L 133.019701 184.724485 
L 133.457919 183.865867 
L 134.042209 182.016537 
L 135.356864 177.584997 
L 135.795082 176.7225 
L 136.087227 176.434361 
L 136.379373 176.38505 
L 136.817591 176.448248 
L 136.963664 176.32828 
L 137.255809 175.621266 
L 138.132245 172.314917 
L 138.424391 171.978306 
L 138.716536 171.968679 
L 140.469409 172.566091 
L 142.076208 172.563324 
L 147.188753 172.511136 
L 149.379843 172.633831 
L 150.402352 172.899967 
L 151.424861 173.446898 
L 152.155225 173.812923 
L 152.593443 173.829696 
L 153.031661 173.591047 
L 153.469879 173.050453 
L 153.908097 172.13079 
L 154.346315 170.685935 
L 154.930606 167.829788 
L 156.099188 161.795085 
L 156.975624 158.227542 
L 157.26777 155.944323 
L 157.705988 150.146747 
L 158.728497 134.21887 
L 158.874569 133.564522 
L 159.020642 133.440571 
L 159.166715 133.738365 
L 160.043151 136.899453 
L 160.189224 136.879248 
L 160.481369 136.300165 
L 161.06566 134.036027 
L 161.796023 131.377013 
L 162.380314 130.049635 
L 162.964605 129.294151 
L 163.548896 128.880685 
L 164.425332 128.553864 
L 166.47035 127.878081 
L 167.200713 127.391601 
L 167.931077 126.601912 
L 168.515368 125.653154 
L 169.391804 123.707042 
L 169.976095 122.563637 
L 170.26824 122.348439 
L 170.560386 122.497627 
L 170.998604 123.254999 
L 171.436822 123.916356 
L 171.728967 123.955464 
L 172.751476 123.420602 
L 173.335767 123.486074 
L 173.627912 123.313824 
L 174.066131 122.761026 
L 174.942567 121.537839 
L 175.380785 121.26141 
L 175.819003 121.303258 
L 176.257221 121.653484 
L 176.987585 122.693324 
L 177.571876 123.395725 
L 177.864021 123.468325 
L 178.156166 123.279083 
L 179.178675 122.08199 
L 179.470821 122.398725 
L 179.909039 123.604701 
L 180.639402 125.741033 
L 180.931548 126.12947 
L 181.223693 126.216836 
L 181.515839 126.07932 
L 182.246202 125.314159 
L 183.122638 124.496779 
L 183.853002 124.128535 
L 184.729438 123.941335 
L 188.235183 123.458574 
L 189.69591 122.998005 
L 189.988055 123.103448 
L 190.280201 123.396709 
L 190.718419 124.293891 
L 192.033073 128.092874 
L 192.179146 128.144963 
L 192.325219 128.038164 
L 192.617364 127.374106 
L 193.785946 123.623449 
L 193.932018 123.635887 
L 194.224164 124.124137 
L 194.662382 125.674336 
L 195.392745 128.368219 
L 195.684891 128.950229 
L 195.977036 129.147918 
L 196.269182 128.96013 
L 196.561327 128.389227 
L 196.999545 126.767659 
L 197.437763 124.053613 
L 197.875981 119.978638 
L 198.606345 110.407973 
L 199.044563 105.489581 
L 199.190636 104.732009 
L 199.336709 104.61553 
L 199.482781 105.132399 
L 199.920999 107.495342 
L 200.067072 106.83431 
L 200.359217 102.098528 
L 200.797436 95.238334 
L 200.943508 94.99057 
L 201.089581 95.72037 
L 201.527799 100.740368 
L 202.11209 106.869037 
L 202.550308 109.453651 
L 202.988526 110.840995 
L 203.426744 111.551495 
L 203.864962 111.90543 
L 204.449253 112.111092 
L 205.471762 112.204269 
L 209.853943 112.205727 
L 211.606816 112.021098 
L 212.92147 111.94047 
L 213.797906 111.923998 
L 214.382197 111.65784 
L 215.258633 110.882654 
L 216.573288 109.743086 
L 217.741869 109.024054 
L 218.618306 108.752366 
L 219.640814 108.507067 
L 220.225105 108.117478 
L 220.809396 107.757697 
L 221.101542 107.826369 
L 221.53976 108.344772 
L 222.416196 109.635118 
L 222.854414 109.960553 
L 223.292632 109.978533 
L 223.73085 109.666514 
L 224.461214 108.682792 
L 225.483723 107.306491 
L 226.214086 106.666412 
L 226.94445 106.293668 
L 227.966959 106.038083 
L 229.719831 105.655062 
L 230.74234 105.162106 
L 234.54023 102.922249 
L 235.270594 102.822735 
L 235.854885 102.954368 
L 236.585248 103.362077 
L 237.461684 104.149694 
L 238.922412 105.67777 
L 239.36063 105.746838 
L 239.798848 105.491957 
L 240.821357 104.365516 
L 241.55172 103.721856 
L 242.428156 103.592602 
L 243.15852 103.75182 
L 245.933901 104.755212 
L 248.709283 105.389836 
L 250.900373 106.066091 
L 251.338591 105.888084 
L 251.77681 105.415588 
L 253.091464 103.575609 
L 253.529682 103.411671 
L 256.158991 103.079619 
L 256.889354 102.616679 
L 257.473645 101.992807 
L 258.057936 101.077962 
L 258.788299 99.517417 
L 260.249026 96.263836 
L 261.125463 94.689092 
L 261.417608 93.627975 
L 261.855826 90.764777 
L 262.878335 81.970316 
L 263.316553 80.61244 
L 263.900844 79.256209 
L 264.485135 76.803024 
L 265.653716 71.494801 
L 266.238007 69.746967 
L 266.822298 68.602055 
L 267.406589 67.884905 
L 268.136952 67.361219 
L 269.013389 67.028889 
L 270.328043 66.798061 
L 272.373061 66.688414 
L 275.878806 66.736939 
L 277.485606 66.930229 
L 278.362042 67.237581 
L 278.946333 67.641826 
L 279.530623 68.3361 
L 280.114914 69.473946 
L 280.699205 71.153913 
L 281.575641 73.848596 
L 281.867787 74.1211 
L 282.013859 73.999282 
L 282.306005 73.159746 
L 283.036368 69.883732 
L 283.182441 69.940424 
L 283.328514 70.529709 
L 283.620659 73.411706 
L 284.789241 89.090717 
L 285.227459 90.78081 
L 285.665677 91.437458 
L 286.103895 91.66371 
L 286.542113 91.600478 
L 287.856768 91.112056 
L 288.294986 91.246231 
L 289.317495 91.714681 
L 289.60964 91.417669 
L 289.901785 90.678219 
L 290.340004 88.767612 
L 290.924294 86.207465 
L 291.21644 85.754501 
L 291.362513 85.790873 
L 291.654658 86.233909 
L 292.238949 87.213696 
L 292.531094 87.218504 
L 292.82324 86.881236 
L 294.430039 84.283131 
L 295.01433 83.929436 
L 295.744694 83.750038 
L 297.205421 83.68484 
L 302.02582 83.569353 
L 303.486547 83.542317 
L 305.385492 83.774808 
L 307.576583 83.488438 
L 308.745164 83.385421 
L 310.351964 83.05878 
L 310.790182 83.433344 
L 311.2284 83.884972 
L 311.520546 83.910558 
L 311.812691 83.554864 
L 312.396982 82.093543 
L 312.8352 81.156699 
L 313.273418 80.759872 
L 313.565564 80.753746 
L 314.149854 81.069534 
L 315.610582 82.040324 
L 316.779163 82.482588 
L 319.262399 83.284096 
L 319.992763 83.792494 
L 320.577053 84.457375 
L 321.161344 85.472306 
L 321.891708 87.271618 
L 322.622071 89.02569 
L 322.914217 89.209148 
L 323.060289 89.060549 
L 323.352435 88.093894 
L 323.64458 86.051616 
L 324.228871 79.246106 
L 324.667089 74.658343 
L 324.959235 73.743341 
L 325.105307 74.122936 
L 325.397453 76.325991 
L 326.419962 86.262859 
L 326.712107 87.208604 
L 327.004253 87.387048 
L 327.296398 87.112171 
L 328.903198 84.823318 
L 329.487488 83.969414 
L 330.363925 82.281061 
L 330.65607 82.221486 
L 330.948216 82.521194 
L 331.532506 83.265596 
L 331.824652 83.364472 
L 332.26287 83.192618 
L 333.723597 82.309916 
L 334.600033 82.120905 
L 335.914687 82.083225 
L 335.914687 82.083225 
" clip-path="url(#p9478379b2f)" style="fill: none; stroke: #ff7f0e; stroke-width: 1.5; stroke-linecap: square"/>
   </g>
   <g id="line2d_12">
    <path d="M 70.208438 219.61787 
L 71.523092 199.299516 
L 71.815237 195.568948 
L 72.107383 188.361445 
L 72.545601 175.435254 
L 72.691673 173.923451 
L 72.837746 174.576635 
L 73.422037 184.083557 
L 73.56811 184.053399 
L 73.714182 182.490996 
L 74.006328 175.975904 
L 74.882764 152.731624 
L 75.320982 145.645408 
L 75.7592 141.342659 
L 76.197418 138.837752 
L 76.635637 137.404529 
L 77.073855 136.589748 
L 77.658145 136.023289 
L 78.388509 135.717219 
L 79.411018 135.574213 
L 82.040327 135.519495 
L 85.838217 135.627967 
L 87.006799 135.832923 
L 87.737162 136.146164 
L 88.321453 136.631653 
L 88.759671 137.242899 
L 89.197889 138.195029 
L 89.636107 139.651868 
L 90.074325 141.796768 
L 90.804689 146.919278 
L 91.242907 149.573043 
L 91.38898 149.811522 
L 91.535052 149.415864 
L 91.681125 148.144681 
L 91.973271 142.018802 
L 92.411489 123.050926 
L 92.849707 103.63547 
L 92.995779 100.855332 
L 93.141852 100.473259 
L 93.726143 106.319023 
L 93.872216 104.954735 
L 94.602579 90.352291 
L 94.748652 90.258714 
L 94.894725 91.48903 
L 95.332943 99.863929 
L 95.917234 110.889265 
L 96.355452 115.068444 
L 96.647597 116.249126 
L 96.939742 116.634002 
L 97.231888 116.559511 
L 97.670106 116.063055 
L 98.838688 114.603691 
L 99.569051 114.043664 
L 100.445487 113.659119 
L 101.614069 113.416131 
L 103.513014 113.286877 
L 108.917704 113.06482 
L 109.501995 112.810815 
L 110.086286 112.285062 
L 110.524504 111.597561 
L 111.254868 109.877724 
L 111.547013 109.319491 
L 111.693086 109.234881 
L 111.839158 109.378844 
L 111.985231 109.839005 
L 112.277376 112.031948 
L 112.715595 118.710672 
L 113.299885 127.739984 
L 113.445958 128.533943 
L 113.592031 128.48842 
L 113.738104 127.611186 
L 114.030249 123.673483 
L 115.198831 101.41693 
L 115.344903 100.881518 
L 115.490976 101.151894 
L 115.783121 103.463244 
L 116.22134 107.537802 
L 116.367412 108.173493 
L 116.513485 108.308416 
L 116.659558 108.002765 
L 116.951703 106.615521 
L 117.389921 103.271044 
L 117.682067 102.386956 
L 117.828139 102.368051 
L 118.120285 102.895863 
L 118.996721 105.202625 
L 119.434939 105.679196 
L 119.873157 105.759531 
L 120.457448 105.572924 
L 122.21032 104.894367 
L 123.524975 104.680176 
L 125.569993 104.595434 
L 127.761083 104.700945 
L 129.075738 104.982118 
L 130.974683 105.523765 
L 131.412901 105.39276 
L 132.727555 104.719973 
L 133.750064 104.939975 
L 134.042209 104.675385 
L 134.772573 103.693334 
L 134.918646 103.676961 
L 135.064718 103.79525 
L 135.356864 104.496909 
L 135.795082 106.562538 
L 136.379373 109.272976 
L 136.525445 109.505338 
L 136.671518 109.4824 
L 136.963664 108.884534 
L 137.255809 108.35999 
L 137.401882 108.414774 
L 137.694027 109.201972 
L 138.278318 111.019965 
L 138.570463 111.167412 
L 138.862609 110.90189 
L 140.323336 108.852326 
L 141.053699 108.379123 
L 141.930136 108.112271 
L 143.390863 107.956891 
L 146.750535 107.901059 
L 149.525916 108.026424 
L 151.278789 108.119271 
L 151.863079 107.91126 
L 152.301298 107.497185 
L 152.739516 106.704767 
L 153.177734 105.38433 
L 153.908097 102.096539 
L 154.492388 99.878533 
L 154.638461 99.679361 
L 154.784534 99.697486 
L 154.930606 99.958181 
L 155.222752 101.239363 
L 155.66097 104.709797 
L 156.245261 109.309922 
L 156.391333 109.77055 
L 156.537406 109.736285 
L 156.683479 109.115629 
L 156.975624 105.879527 
L 157.413842 96.25694 
L 158.144206 77.700925 
L 158.436351 74.139131 
L 158.582424 73.458967 
L 158.728497 73.348353 
L 159.020642 74.059917 
L 159.312787 74.801987 
L 159.45886 74.888162 
L 159.604933 74.733502 
L 159.897078 73.797179 
L 161.211733 68.08349 
L 161.649951 67.203842 
L 162.088169 66.712447 
L 162.67246 66.39303 
L 163.548896 66.224094 
L 165.155696 66.186779 
L 166.324277 66.315704 
L 167.054641 66.582802 
L 167.638932 67.014844 
L 168.223222 67.744643 
L 168.953586 69.096086 
L 169.683949 70.375737 
L 169.976095 70.606872 
L 170.414313 70.637106 
L 170.706458 70.681908 
L 170.998604 70.967954 
L 171.436822 71.627306 
L 171.582895 71.684181 
L 171.728967 71.544919 
L 172.021113 70.558015 
L 172.897549 65.972565 
L 173.189694 65.659331 
L 173.48184 65.84324 
L 173.920058 66.144321 
L 174.212203 66.056006 
L 174.650421 65.553152 
L 175.526858 64.437495 
L 176.257221 63.949657 
L 177.717948 63.339757 
L 178.010094 63.384308 
L 178.302239 63.641043 
L 178.594384 64.199252 
L 179.032603 65.605449 
L 179.762966 68.106199 
L 180.201184 68.862951 
L 180.931548 69.428357 
L 181.515839 70.044808 
L 183.706929 72.789049 
L 184.583365 73.346898 
L 185.89802 73.844307 
L 186.920529 74.294459 
L 187.504819 74.755609 
L 188.08911 75.524753 
L 188.673401 76.772924 
L 189.257692 78.640462 
L 190.718419 83.824151 
L 190.864492 83.895516 
L 191.010564 83.787457 
L 191.30271 82.984877 
L 191.740928 80.438745 
L 192.617364 74.214616 
L 192.90951 73.395016 
L 193.055582 73.373888 
L 193.201655 73.605545 
L 193.4938 74.715059 
L 194.954527 82.10605 
L 195.246673 82.574527 
L 195.538818 82.695233 
L 195.830964 82.510019 
L 196.123109 82.043328 
L 196.561327 80.884426 
L 197.583836 77.89591 
L 197.729909 77.810072 
L 197.875981 77.912604 
L 198.168127 78.784862 
L 199.044563 83.089779 
L 199.190636 82.527393 
L 199.920999 76.881006 
L 200.067072 76.749645 
L 200.213145 77.063626 
L 200.50529 79.50291 
L 200.943508 84.558385 
L 201.089581 84.813588 
L 201.235654 84.035635 
L 201.527799 80.155469 
L 202.404235 66.166208 
L 202.842453 62.055335 
L 203.280672 59.582033 
L 203.71889 58.135628 
L 204.157108 57.294959 
L 204.741399 56.692141 
L 205.471762 56.349094 
L 206.494271 56.173393 
L 209.12358 56.059258 
L 211.168598 56.109122 
L 212.045034 56.360096 
L 214.52827 57.38396 
L 215.842924 57.591995 
L 216.427215 57.878379 
L 217.011506 58.453516 
L 217.449724 59.174539 
L 218.034015 60.61247 
L 219.202596 63.912012 
L 219.494742 64.08149 
L 219.786887 63.697353 
L 220.225105 62.262686 
L 220.809396 60.434069 
L 221.101542 60.156482 
L 221.393687 60.252744 
L 221.831905 60.816331 
L 222.270123 61.901582 
L 223.146559 64.476141 
L 223.438705 64.753701 
L 223.73085 64.658201 
L 224.169068 64.062857 
L 225.191577 62.44798 
L 225.775868 61.938526 
L 226.360159 61.69498 
L 227.382668 61.570764 
L 230.596267 61.548712 
L 232.203067 61.582465 
L 233.079503 61.535517 
L 233.809867 61.633657 
L 234.394158 61.977651 
L 234.978448 62.610711 
L 236.877394 64.965209 
L 237.461684 65.219432 
L 237.899903 65.150503 
L 238.338121 64.803565 
L 238.922412 63.900367 
L 239.798848 62.384921 
L 240.090993 62.161768 
L 240.383139 62.158389 
L 240.821357 62.492765 
L 241.697793 63.34618 
L 242.282084 63.435677 
L 243.15852 63.284471 
L 244.911392 62.96988 
L 246.810338 62.899143 
L 248.709283 63.013131 
L 249.439646 63.245172 
L 250.17001 63.739624 
L 250.900373 64.274695 
L 251.338591 64.312955 
L 251.77681 64.049873 
L 252.507173 63.563116 
L 252.945391 63.557408 
L 253.529682 63.590288 
L 253.9679 63.391219 
L 254.698264 62.702011 
L 255.720773 61.789438 
L 256.451136 61.449985 
L 257.035427 61.408879 
L 257.473645 61.54922 
L 257.911863 61.884369 
L 258.350081 62.468987 
L 258.934372 63.699683 
L 260.102954 66.618139 
L 260.395099 66.812905 
L 260.687245 66.608725 
L 261.417608 65.685097 
L 261.709753 65.890042 
L 262.147972 66.419093 
L 262.294044 66.398017 
L 262.58619 65.909532 
L 263.024408 65.051692 
L 263.170481 65.105198 
L 263.462626 65.965421 
L 264.339062 69.847057 
L 264.485135 69.968627 
L 264.631208 69.891497 
L 264.923353 69.251212 
L 265.507644 66.980607 
L 266.238007 64.260099 
L 266.822298 62.815309 
L 267.406589 61.947618 
L 267.99088 61.466871 
L 268.721243 61.18073 
L 269.743752 61.060262 
L 274.272006 61.03394 
L 276.609169 61.218235 
L 277.631678 61.487753 
L 278.362042 61.896193 
L 278.946333 62.463404 
L 279.530623 63.343314 
L 280.260987 64.90123 
L 280.845278 66.113578 
L 281.137423 66.371102 
L 281.283496 66.321739 
L 281.575641 65.717721 
L 281.867787 64.288219 
L 282.306005 60.63167 
L 284.058877 42.13999 
L 284.497095 36.770543 
L 284.789241 35.733835 
L 284.935314 36.125215 
L 285.227459 38.21641 
L 285.81175 43.224587 
L 286.103895 44.430624 
L 286.249968 44.61704 
L 286.396041 44.563439 
L 286.688186 43.914631 
L 288.148913 39.063715 
L 288.587131 38.486622 
L 289.025349 38.309148 
L 289.317495 38.407755 
L 289.60964 38.746991 
L 289.901785 39.449179 
L 290.340004 41.438029 
L 291.21644 46.70195 
L 291.508585 47.193522 
L 291.654658 47.048271 
L 291.946803 46.14691 
L 292.82324 42.836685 
L 293.115385 42.459775 
L 293.40753 42.427546 
L 293.845749 42.732115 
L 295.01433 43.724517 
L 295.890766 44.09025 
L 297.059348 44.288885 
L 299.542584 44.416514 
L 304.655129 44.394272 
L 309.03731 43.663014 
L 309.475528 43.817711 
L 310.205891 44.409129 
L 310.64411 44.651479 
L 310.936255 44.581627 
L 311.374473 44.156517 
L 311.958764 43.649749 
L 312.396982 43.584706 
L 313.857709 43.584391 
L 315.464509 43.311454 
L 317.509527 42.993576 
L 319.116326 42.968995 
L 321.307417 43.013609 
L 321.891708 42.774134 
L 322.329926 42.387299 
L 322.914217 41.519809 
L 323.936726 39.731779 
L 324.228871 39.620314 
L 324.521017 39.921914 
L 324.813162 40.681989 
L 326.273889 45.773745 
L 326.712107 46.316305 
L 327.296398 46.656289 
L 328.172834 46.871724 
L 328.757125 46.791516 
L 329.341416 46.400709 
L 329.779634 46.126516 
L 330.071779 46.139462 
L 330.65607 46.318516 
L 330.948216 46.144196 
L 331.824652 45.378821 
L 332.26287 45.441428 
L 333.139306 45.994029 
L 334.161815 46.514745 
L 335.184324 46.771347 
L 335.914687 46.86659 
L 335.914687 46.86659 
" clip-path="url(#p9478379b2f)" style="fill: none; stroke: #2ca02c; stroke-width: 1.5; stroke-linecap: square"/>
   </g>
   <g id="patch_3">
    <path d="M 56.923125 241.036875 
L 56.923125 25.9575 
" style="fill: none; stroke: #000000; stroke-width: 0.8; stroke-linejoin: miter; stroke-linecap: square"/>
   </g>
   <g id="patch_4">
    <path d="M 349.2 241.036875 
L 349.2 25.9575 
" style="fill: none; stroke: #000000; stroke-width: 0.8; stroke-linejoin: miter; stroke-linecap: square"/>
   </g>
   <g id="patch_5">
    <path d="M 56.923125 241.036875 
L 349.2 241.036875 
" style="fill: none; stroke: #000000; stroke-width: 0.8; stroke-linejoin: miter; stroke-linecap: square"/>
   </g>
   <g id="patch_6">
    <path d="M 56.923125 25.9575 
L 349.2 25.9575 
" style="fill: none; stroke: #000000; stroke-width: 0.8; stroke-linejoin: miter; stroke-linecap: square"/>
   </g>
  </g>
 </g>
 <defs>
  <clipPath id="p9478379b2f">
   <rect x="56.923125" y="25.9575" width="292.276875" height="215.079375"/>
  </clipPath>
 </defs>
</svg>
