<?xml version="1.0" encoding="utf-8" standalone="no"?>
<!DOCTYPE svg PUBLIC "-//W3C//DTD SVG 1.1//EN"
  "http://www.w3.org/Graphics/SVG/1.1/DTD/svg11.dtd">
<svg xmlns:xlink="http://www.w3.org/1999/xlink" width="414pt" height="180pt" viewBox="0 0 414 180" xmlns="http://www.w3.org/2000/svg" version="1.1">
 <metadata>
  <rdf:RDF xmlns:dc="http://purl.org/dc/elements/1.1/" xmlns:cc="http://creativecommons.org/ns#" xmlns:rdf="http://www.w3.org/1999/02/22-rdf-syntax-ns#">
   <cc:Work>
    <dc:type rdf:resource="http://purl.org/dc/dcmitype/StillImage"/>
    <dc:date>2026-04-03T00:24:34.515523</dc:date>
    <dc:format>image/svg+xml</dc:format>
    <dc:creator>
     <cc:Agent>
      <dc:title>Matplotlib v3.10.7, https://matplotlib.org/</dc:title>
     </cc:Agent>
    </dc:creator>
   </cc:Work>
  </rdf:RDF>
 </metadata>
 <defs>
  <style type="text/css">*{stroke-linejoin: round; stroke-linecap: butt}</style>
 </defs>
 <g id="figure_1">
  <g id="patch_1">
   <path d="M 0 180 
L 414 180 
L 414 0 
L 0 0 
L 0 180 
z
" style="fill: none"/>
  </g>
  <g id="axes_1">
   <g id="patch_2">
    <path d="M 57.243438 139.811563 
L 403.2 139.811563 
L 403.2 10.8 
L 57.243438 10.8 
L 57.243438 139.811563 
z
" style="fill: none"/>
   </g>
   <g id="matplotlib.axis_1">
    <g id="xtick_1">
     <g id="line2d_1">
      <defs>
       <path id="m9d7337b6fd" d="M 0 0 
L 0 3.5 
" style="stroke: #000000; stroke-width: 0.8"/>
      </defs>
      <g>
       <use xlink:href="#m9d7337b6fd" x="72.968736" y="139.811563" style="stroke: #000000; stroke-width: 0.8"/>
      </g>
     </g>
     <g id="text_1">
      <!-- 0.0 -->
      <g transform="translate(65.81233 153.650156) scale(0.09 -0.09)">
       <defs>
        <path id="DejaVuSans-30" d="M 2034 4250 
Q 1547 4250 1301 3770 
Q 1056 3291 1056 2328 
Q 1056 1369 1301 889 
Q 1547 409 2034 409 
Q 2525 409 2770 889 
Q 3016 1369 3016 2328 
Q 3016 3291 2770 3770 
Q 2525 4250 2034 4250 
z
M 2034 4750 
Q 2819 4750 3233 4129 
Q 3647 3509 3647 2328 
Q 3647 1150 3233 529 
Q 2819 -91 2034 -91 
Q 1250 -91 836 529 
Q 422 1150 422 2328 
Q 422 3509 836 4129 
Q 1250 4750 2034 4750 
z
" transform="scale(0.015625)"/>
        <path id="DejaVuSans-2e" d="M 684 794 
L 1344 794 
L 1344 0 
L 684 0 
L 684 794 
z
" transform="scale(0.015625)"/>
       </defs>
       <use xlink:href="#DejaVuSans-30"/>
       <use xlink:href="#DejaVuSans-2e" transform="translate(63.623047 0)"/>
       <use xlink:href="#DejaVuSans-30" transform="translate(95.410156 0)"/>
      </g>
     </g>
    </g>
    <g id="xtick_2">
     <g id="line2d_2">
      <g>
       <use xlink:href="#m9d7337b6fd" x="114.995969" y="139.811563" style="stroke: #000000; stroke-width: 0.8"/>
      </g>
     </g>
     <g id="text_2">
      <!-- 0.1 -->
      <g transform="translate(107.839562 153.650156) scale(0.09 -0.09)">
       <defs>
        <path id="DejaVuSans-31" d="M 794 531 
L 1825 531 
L 1825 4091 
L 703 3866 
L 703 4441 
L 1819 4666 
L 2450 4666 
L 2450 531 
L 3481 531 
L 3481 0 
L 794 0 
L 794 531 
z
" transform="scale(0.015625)"/>
       </defs>
       <use xlink:href="#DejaVuSans-30"/>
       <use xlink:href="#DejaVuSans-2e" transform="translate(63.623047 0)"/>
       <use xlink:href="#DejaVuSans-31" transform="translate(95.410156 0)"/>
      </g>
     </g>
    </g>
    <g id="xtick_3">
     <g id="line2d_3">
      <g>
       <use xlink:href="#m9d7337b6fd" x="157.023201" y="139.811563" style="stroke: #000000; stroke-width: 0.8"/>
      </g>
     </g>
     <g id="text_3">
      <!-- 0.2 -->
      <g transform="translate(149.866795 153.650156) scale(0.09 -0.09)">
       <defs>
        <path id="DejaVuSans-32" d="M 1228 531 
L 3431 531 
L 3431 0 
L 469 0 
L 469 531 
Q 828 903 1448 1529 
Q 2069 2156 2228 2338 
Q 2531 2678 2651 2914 
Q 2772 3150 2772 3378 
Q 2772 3750 2511 3984 
Q 2250 4219 1831 4219 
Q 1534 4219 1204 4116 
Q 875 4013 500 3803 
L 500 4441 
Q 881 4594 1212 4672 
Q 1544 4750 1819 4750 
Q 2544 4750 2975 4387 
Q 3406 4025 3406 3419 
Q 3406 3131 3298 2873 
Q 3191 2616 2906 2266 
Q 2828 2175 2409 1742 
Q 1991 1309 1228 531 
z
" transform="scale(0.015625)"/>
       </defs>
       <use xlink:href="#DejaVuSans-30"/>
       <use xlink:href="#DejaVuSans-2e" transform="translate(63.623047 0)"/>
       <use xlink:href="#DejaVuSans-32" transform="translate(95.410156 0)"/>
      </g>
     </g>
    </g>
    <g id="xtick_4">
     <g id="line2d_4">
      <g>
       <use xlink:href="#m9d7337b6fd" x="199.050434" y="139.811563" style="stroke: #000000; stroke-width: 0.8"/>
      </g>
     </g>
     <g id="text_4">
      <!-- 0.3 -->
      <g transform="translate(191.894028 153.650156) scale(0.09 -0.09)">
       <defs>
        <path id="DejaVuSans-33" d="M 2597 2516 
Q 3050 2419 3304 2112 
Q 3559 1806 3559 1356 
Q 3559 666 3084 287 
Q 2609 -91 1734 -91 
Q 1441 -91 1130 -33 
Q 819 25 488 141 
L 488 750 
Q 750 597 1062 519 
Q 1375 441 1716 441 
Q 2309 441 2620 675 
Q 2931 909 2931 1356 
Q 2931 1769 2642 2001 
Q 2353 2234 1838 2234 
L 1294 2234 
L 1294 2753 
L 1863 2753 
Q 2328 2753 2575 2939 
Q 2822 3125 2822 3475 
Q 2822 3834 2567 4026 
Q 2313 4219 1838 4219 
Q 1578 4219 1281 4162 
Q 984 4106 628 3988 
L 628 4550 
Q 988 4650 1302 4700 
Q 1616 4750 1894 4750 
Q 2613 4750 3031 4423 
Q 3450 4097 3450 3541 
Q 3450 3153 3228 2886 
Q 3006 2619 2597 2516 
z
" transform="scale(0.015625)"/>
       </defs>
       <use xlink:href="#DejaVuSans-30"/>
       <use xlink:href="#DejaVuSans-2e" transform="translate(63.623047 0)"/>
       <use xlink:href="#DejaVuSans-33" transform="translate(95.410156 0)"/>
      </g>
     </g>
    </g>
    <g id="xtick_5">
     <g id="line2d_5">
      <g>
       <use xlink:href="#m9d7337b6fd" x="241.077667" y="139.811563" style="stroke: #000000; stroke-width: 0.8"/>
      </g>
     </g>
     <g id="text_5">
      <!-- 0.4 -->
      <g transform="translate(233.921261 153.650156) scale(0.09 -0.09)">
       <defs>
        <path id="DejaVuSans-34" d="M 2419 4116 
L 825 1625 
L 2419 1625 
L 2419 4116 
z
M 2253 4666 
L 3047 4666 
L 3047 1625 
L 3713 1625 
L 3713 1100 
L 3047 1100 
L 3047 0 
L 2419 0 
L 2419 1100 
L 313 1100 
L 313 1709 
L 2253 4666 
z
" transform="scale(0.015625)"/>
       </defs>
       <use xlink:href="#DejaVuSans-30"/>
       <use xlink:href="#DejaVuSans-2e" transform="translate(63.623047 0)"/>
       <use xlink:href="#DejaVuSans-34" transform="translate(95.410156 0)"/>
      </g>
     </g>
    </g>
    <g id="xtick_6">
     <g id="line2d_6">
      <g>
       <use xlink:href="#m9d7337b6fd" x="283.1049" y="139.811563" style="stroke: #000000; stroke-width: 0.8"/>
      </g>
     </g>
     <g id="text_6">
      <!-- 0.5 -->
      <g transform="translate(275.948493 153.650156) scale(0.09 -0.09)">
       <defs>
        <path id="DejaVuSans-35" d="M 691 4666 
L 3169 4666 
L 3169 4134 
L 1269 4134 
L 1269 2991 
Q 1406 3038 1543 3061 
Q 1681 3084 1819 3084 
Q 2600 3084 3056 2656 
Q 3513 2228 3513 1497 
Q 3513 744 3044 326 
Q 2575 -91 1722 -91 
Q 1428 -91 1123 -41 
Q 819 9 494 109 
L 494 744 
Q 775 591 1075 516 
Q 1375 441 1709 441 
Q 2250 441 2565 725 
Q 2881 1009 2881 1497 
Q 2881 1984 2565 2268 
Q 2250 2553 1709 2553 
Q 1456 2553 1204 2497 
Q 953 2441 691 2322 
L 691 4666 
z
" transform="scale(0.015625)"/>
       </defs>
       <use xlink:href="#DejaVuSans-30"/>
       <use xlink:href="#DejaVuSans-2e" transform="translate(63.623047 0)"/>
       <use xlink:href="#DejaVuSans-35" transform="translate(95.410156 0)"/>
      </g>
     </g>
    </g>
    <g id="xtick_7">
     <g id="line2d_7">
      <g>
       <use xlink:href="#m9d7337b6fd" x="325.132132" y="139.811563" style="stroke: #000000; stroke-width: 0.8"/>
      </g>
     </g>
     <g id="text_7">
      <!-- 0.6 -->
      <g transform="translate(317.975726 153.650156) scale(0.09 -0.09)">
       <defs>
        <path id="DejaVuSans-36" d="M 2113 2584 
Q 1688 2584 1439 2293 
Q 1191 2003 1191 1497 
Q 1191 994 1439 701 
Q 1688 409 2113 409 
Q 2538 409 2786 701 
Q 3034 994 3034 1497 
Q 3034 2003 2786 2293 
Q 2538 2584 2113 2584 
z
M 3366 4563 
L 3366 3988 
Q 3128 4100 2886 4159 
Q 2644 4219 2406 4219 
Q 1781 4219 1451 3797 
Q 1122 3375 1075 2522 
Q 1259 2794 1537 2939 
Q 1816 3084 2150 3084 
Q 2853 3084 3261 2657 
Q 3669 2231 3669 1497 
Q 3669 778 3244 343 
Q 2819 -91 2113 -91 
Q 1303 -91 875 529 
Q 447 1150 447 2328 
Q 447 3434 972 4092 
Q 1497 4750 2381 4750 
Q 2619 4750 2861 4703 
Q 3103 4656 3366 4563 
z
" transform="scale(0.015625)"/>
       </defs>
       <use xlink:href="#DejaVuSans-30"/>
       <use xlink:href="#DejaVuSans-2e" transform="translate(63.623047 0)"/>
       <use xlink:href="#DejaVuSans-36" transform="translate(95.410156 0)"/>
      </g>
     </g>
    </g>
    <g id="xtick_8">
     <g id="line2d_8">
      <g>
       <use xlink:href="#m9d7337b6fd" x="367.159365" y="139.811563" style="stroke: #000000; stroke-width: 0.8"/>
      </g>
     </g>
     <g id="text_8">
      <!-- 0.7 -->
      <g transform="translate(360.002959 153.650156) scale(0.09 -0.09)">
       <defs>
        <path id="DejaVuSans-37" d="M 525 4666 
L 3525 4666 
L 3525 4397 
L 1831 0 
L 1172 0 
L 2766 4134 
L 525 4134 
L 525 4666 
z
" transform="scale(0.015625)"/>
       </defs>
       <use xlink:href="#DejaVuSans-30"/>
       <use xlink:href="#DejaVuSans-2e" transform="translate(63.623047 0)"/>
       <use xlink:href="#DejaVuSans-37" transform="translate(95.410156 0)"/>
      </g>
     </g>
    </g>
    <g id="text_9">
     <!-- Time [orbits] -->
     <g transform="translate(198.254531 167.120313) scale(0.1 -0.1)">
      <defs>
       <path id="DejaVuSans-54" d="M -19 4666 
L 3928 4666 
L 3928 4134 
L 2272 4134 
L 2272 0 
L 1638 0 
L 1638 4134 
L -19 4134 
L -19 4666 
z
" transform="scale(0.015625)"/>
       <path id="DejaVuSans-69" d="M 603 3500 
L 1178 3500 
L 1178 0 
L 603 0 
L 603 3500 
z
M 603 4863 
L 1178 4863 
L 1178 4134 
L 603 4134 
L 603 4863 
z
" transform="scale(0.015625)"/>
       <path id="DejaVuSans-6d" d="M 3328 2828 
Q 3544 3216 3844 3400 
Q 4144 3584 4550 3584 
Q 5097 3584 5394 3201 
Q 5691 2819 5691 2113 
L 5691 0 
L 5113 0 
L 5113 2094 
Q 5113 2597 4934 2840 
Q 4756 3084 4391 3084 
Q 3944 3084 3684 2787 
Q 3425 2491 3425 1978 
L 3425 0 
L 2847 0 
L 2847 2094 
Q 2847 2600 2669 2842 
Q 2491 3084 2119 3084 
Q 1678 3084 1418 2786 
Q 1159 2488 1159 1978 
L 1159 0 
L 581 0 
L 581 3500 
L 1159 3500 
L 1159 2956 
Q 1356 3278 1631 3431 
Q 1906 3584 2284 3584 
Q 2666 3584 2933 3390 
Q 3200 3197 3328 2828 
z
" transform="scale(0.015625)"/>
       <path id="DejaVuSans-65" d="M 3597 1894 
L 3597 1613 
L 953 1613 
Q 991 1019 1311 708 
Q 1631 397 2203 397 
Q 2534 397 2845 478 
Q 3156 559 3463 722 
L 3463 178 
Q 3153 47 2828 -22 
Q 2503 -91 2169 -91 
Q 1331 -91 842 396 
Q 353 884 353 1716 
Q 353 2575 817 3079 
Q 1281 3584 2069 3584 
Q 2775 3584 3186 3129 
Q 3597 2675 3597 1894 
z
M 3022 2063 
Q 3016 2534 2758 2815 
Q 2500 3097 2075 3097 
Q 1594 3097 1305 2825 
Q 1016 2553 972 2059 
L 3022 2063 
z
" transform="scale(0.015625)"/>
       <path id="DejaVuSans-20" transform="scale(0.015625)"/>
       <path id="DejaVuSans-5b" d="M 550 4863 
L 1875 4863 
L 1875 4416 
L 1125 4416 
L 1125 -397 
L 1875 -397 
L 1875 -844 
L 550 -844 
L 550 4863 
z
" transform="scale(0.015625)"/>
       <path id="DejaVuSans-6f" d="M 1959 3097 
Q 1497 3097 1228 2736 
Q 959 2375 959 1747 
Q 959 1119 1226 758 
Q 1494 397 1959 397 
Q 2419 397 2687 759 
Q 2956 1122 2956 1747 
Q 2956 2369 2687 2733 
Q 2419 3097 1959 3097 
z
M 1959 3584 
Q 2709 3584 3137 3096 
Q 3566 2609 3566 1747 
Q 3566 888 3137 398 
Q 2709 -91 1959 -91 
Q 1206 -91 779 398 
Q 353 888 353 1747 
Q 353 2609 779 3096 
Q 1206 3584 1959 3584 
z
" transform="scale(0.015625)"/>
       <path id="DejaVuSans-72" d="M 2631 2963 
Q 2534 3019 2420 3045 
Q 2306 3072 2169 3072 
Q 1681 3072 1420 2755 
Q 1159 2438 1159 1844 
L 1159 0 
L 581 0 
L 581 3500 
L 1159 3500 
L 1159 2956 
Q 1341 3275 1631 3429 
Q 1922 3584 2338 3584 
Q 2397 3584 2469 3576 
Q 2541 3569 2628 3553 
L 2631 2963 
z
" transform="scale(0.015625)"/>
       <path id="DejaVuSans-62" d="M 3116 1747 
Q 3116 2381 2855 2742 
Q 2594 3103 2138 3103 
Q 1681 3103 1420 2742 
Q 1159 2381 1159 1747 
Q 1159 1113 1420 752 
Q 1681 391 2138 391 
Q 2594 391 2855 752 
Q 3116 1113 3116 1747 
z
M 1159 2969 
Q 1341 3281 1617 3432 
Q 1894 3584 2278 3584 
Q 2916 3584 3314 3078 
Q 3713 2572 3713 1747 
Q 3713 922 3314 415 
Q 2916 -91 2278 -91 
Q 1894 -91 1617 61 
Q 1341 213 1159 525 
L 1159 0 
L 581 0 
L 581 4863 
L 1159 4863 
L 1159 2969 
z
" transform="scale(0.015625)"/>
       <path id="DejaVuSans-74" d="M 1172 4494 
L 1172 3500 
L 2356 3500 
L 2356 3053 
L 1172 3053 
L 1172 1153 
Q 1172 725 1289 603 
Q 1406 481 1766 481 
L 2356 481 
L 2356 0 
L 1766 0 
Q 1100 0 847 248 
Q 594 497 594 1153 
L 594 3053 
L 172 3053 
L 172 3500 
L 594 3500 
L 594 4494 
L 1172 4494 
z
" transform="scale(0.015625)"/>
       <path id="DejaVuSans-73" d="M 2834 3397 
L 2834 2853 
Q 2591 2978 2328 3040 
Q 2066 3103 1784 3103 
Q 1356 3103 1142 2972 
Q 928 2841 928 2578 
Q 928 2378 1081 2264 
Q 1234 2150 1697 2047 
L 1894 2003 
Q 2506 1872 2764 1633 
Q 3022 1394 3022 966 
Q 3022 478 2636 193 
Q 2250 -91 1575 -91 
Q 1294 -91 989 -36 
Q 684 19 347 128 
L 347 722 
Q 666 556 975 473 
Q 1284 391 1588 391 
Q 1994 391 2212 530 
Q 2431 669 2431 922 
Q 2431 1156 2273 1281 
Q 2116 1406 1581 1522 
L 1381 1569 
Q 847 1681 609 1914 
Q 372 2147 372 2553 
Q 372 3047 722 3315 
Q 1072 3584 1716 3584 
Q 2034 3584 2315 3537 
Q 2597 3491 2834 3397 
z
" transform="scale(0.015625)"/>
       <path id="DejaVuSans-5d" d="M 1947 4863 
L 1947 -844 
L 622 -844 
L 622 -397 
L 1369 -397 
L 1369 4416 
L 622 4416 
L 622 4863 
L 1947 4863 
z
" transform="scale(0.015625)"/>
      </defs>
      <use xlink:href="#DejaVuSans-54"/>
      <use xlink:href="#DejaVuSans-69" transform="translate(57.958984 0)"/>
      <use xlink:href="#DejaVuSans-6d" transform="translate(85.742188 0)"/>
      <use xlink:href="#DejaVuSans-65" transform="translate(183.154297 0)"/>
      <use xlink:href="#DejaVuSans-20" transform="translate(244.677734 0)"/>
      <use xlink:href="#DejaVuSans-5b" transform="translate(276.464844 0)"/>
      <use xlink:href="#DejaVuSans-6f" transform="translate(315.478516 0)"/>
      <use xlink:href="#DejaVuSans-72" transform="translate(376.660156 0)"/>
      <use xlink:href="#DejaVuSans-62" transform="translate(417.773438 0)"/>
      <use xlink:href="#DejaVuSans-69" transform="translate(481.25 0)"/>
      <use xlink:href="#DejaVuSans-74" transform="translate(509.033203 0)"/>
      <use xlink:href="#DejaVuSans-73" transform="translate(548.242188 0)"/>
      <use xlink:href="#DejaVuSans-5d" transform="translate(600.341797 0)"/>
     </g>
    </g>
   </g>
   <g id="matplotlib.axis_2">
    <g id="ytick_1">
     <g id="line2d_9">
      <defs>
       <path id="md965c8e55c" d="M 0 0 
L -3.5 0 
" style="stroke: #000000; stroke-width: 0.8"/>
      </defs>
      <g>
       <use xlink:href="#md965c8e55c" x="57.243438" y="117.320384" style="stroke: #000000; stroke-width: 0.8"/>
      </g>
     </g>
     <g id="text_10">
      <!-- 0.000 -->
      <g transform="translate(24.478125 120.739681) scale(0.09 -0.09)">
       <use xlink:href="#DejaVuSans-30"/>
       <use xlink:href="#DejaVuSans-2e" transform="translate(63.623047 0)"/>
       <use xlink:href="#DejaVuSans-30" transform="translate(95.410156 0)"/>
       <use xlink:href="#DejaVuSans-30" transform="translate(159.033203 0)"/>
       <use xlink:href="#DejaVuSans-30" transform="translate(222.65625 0)"/>
      </g>
     </g>
    </g>
    <g id="ytick_2">
     <g id="line2d_10">
      <g>
       <use xlink:href="#md965c8e55c" x="57.243438" y="81.470595" style="stroke: #000000; stroke-width: 0.8"/>
      </g>
     </g>
     <g id="text_11">
      <!-- 0.001 -->
      <g transform="translate(24.478125 84.889892) scale(0.09 -0.09)">
       <use xlink:href="#DejaVuSans-30"/>
       <use xlink:href="#DejaVuSans-2e" transform="translate(63.623047 0)"/>
       <use xlink:href="#DejaVuSans-30" transform="translate(95.410156 0)"/>
       <use xlink:href="#DejaVuSans-30" transform="translate(159.033203 0)"/>
       <use xlink:href="#DejaVuSans-31" transform="translate(222.65625 0)"/>
      </g>
     </g>
    </g>
    <g id="ytick_3">
     <g id="line2d_11">
      <g>
       <use xlink:href="#md965c8e55c" x="57.243438" y="45.620807" style="stroke: #000000; stroke-width: 0.8"/>
      </g>
     </g>
     <g id="text_12">
      <!-- 0.002 -->
      <g transform="translate(24.478125 49.040104) scale(0.09 -0.09)">
       <use xlink:href="#DejaVuSans-30"/>
       <use xlink:href="#DejaVuSans-2e" transform="translate(63.623047 0)"/>
       <use xlink:href="#DejaVuSans-30" transform="translate(95.410156 0)"/>
       <use xlink:href="#DejaVuSans-30" transform="translate(159.033203 0)"/>
       <use xlink:href="#DejaVuSans-32" transform="translate(222.65625 0)"/>
      </g>
     </g>
    </g>
    <g id="text_13">
     <!-- Trajectory Differences [m] -->
     <g transform="translate(18.398438 140.395625) rotate(-90) scale(0.1 -0.1)">
      <defs>
       <path id="DejaVuSans-61" d="M 2194 1759 
Q 1497 1759 1228 1600 
Q 959 1441 959 1056 
Q 959 750 1161 570 
Q 1363 391 1709 391 
Q 2188 391 2477 730 
Q 2766 1069 2766 1631 
L 2766 1759 
L 2194 1759 
z
M 3341 1997 
L 3341 0 
L 2766 0 
L 2766 531 
Q 2569 213 2275 61 
Q 1981 -91 1556 -91 
Q 1019 -91 701 211 
Q 384 513 384 1019 
Q 384 1609 779 1909 
Q 1175 2209 1959 2209 
L 2766 2209 
L 2766 2266 
Q 2766 2663 2505 2880 
Q 2244 3097 1772 3097 
Q 1472 3097 1187 3025 
Q 903 2953 641 2809 
L 641 3341 
Q 956 3463 1253 3523 
Q 1550 3584 1831 3584 
Q 2591 3584 2966 3190 
Q 3341 2797 3341 1997 
z
" transform="scale(0.015625)"/>
       <path id="DejaVuSans-6a" d="M 603 3500 
L 1178 3500 
L 1178 -63 
Q 1178 -731 923 -1031 
Q 669 -1331 103 -1331 
L -116 -1331 
L -116 -844 
L 38 -844 
Q 366 -844 484 -692 
Q 603 -541 603 -63 
L 603 3500 
z
M 603 4863 
L 1178 4863 
L 1178 4134 
L 603 4134 
L 603 4863 
z
" transform="scale(0.015625)"/>
       <path id="DejaVuSans-63" d="M 3122 3366 
L 3122 2828 
Q 2878 2963 2633 3030 
Q 2388 3097 2138 3097 
Q 1578 3097 1268 2742 
Q 959 2388 959 1747 
Q 959 1106 1268 751 
Q 1578 397 2138 397 
Q 2388 397 2633 464 
Q 2878 531 3122 666 
L 3122 134 
Q 2881 22 2623 -34 
Q 2366 -91 2075 -91 
Q 1284 -91 818 406 
Q 353 903 353 1747 
Q 353 2603 823 3093 
Q 1294 3584 2113 3584 
Q 2378 3584 2631 3529 
Q 2884 3475 3122 3366 
z
" transform="scale(0.015625)"/>
       <path id="DejaVuSans-79" d="M 2059 -325 
Q 1816 -950 1584 -1140 
Q 1353 -1331 966 -1331 
L 506 -1331 
L 506 -850 
L 844 -850 
Q 1081 -850 1212 -737 
Q 1344 -625 1503 -206 
L 1606 56 
L 191 3500 
L 800 3500 
L 1894 763 
L 2988 3500 
L 3597 3500 
L 2059 -325 
z
" transform="scale(0.015625)"/>
       <path id="DejaVuSans-44" d="M 1259 4147 
L 1259 519 
L 2022 519 
Q 2988 519 3436 956 
Q 3884 1394 3884 2338 
Q 3884 3275 3436 3711 
Q 2988 4147 2022 4147 
L 1259 4147 
z
M 628 4666 
L 1925 4666 
Q 3281 4666 3915 4102 
Q 4550 3538 4550 2338 
Q 4550 1131 3912 565 
Q 3275 0 1925 0 
L 628 0 
L 628 4666 
z
" transform="scale(0.015625)"/>
       <path id="DejaVuSans-66" d="M 2375 4863 
L 2375 4384 
L 1825 4384 
Q 1516 4384 1395 4259 
Q 1275 4134 1275 3809 
L 1275 3500 
L 2222 3500 
L 2222 3053 
L 1275 3053 
L 1275 0 
L 697 0 
L 697 3053 
L 147 3053 
L 147 3500 
L 697 3500 
L 697 3744 
Q 697 4328 969 4595 
Q 1241 4863 1831 4863 
L 2375 4863 
z
" transform="scale(0.015625)"/>
       <path id="DejaVuSans-6e" d="M 3513 2113 
L 3513 0 
L 2938 0 
L 2938 2094 
Q 2938 2591 2744 2837 
Q 2550 3084 2163 3084 
Q 1697 3084 1428 2787 
Q 1159 2491 1159 1978 
L 1159 0 
L 581 0 
L 581 3500 
L 1159 3500 
L 1159 2956 
Q 1366 3272 1645 3428 
Q 1925 3584 2291 3584 
Q 2894 3584 3203 3211 
Q 3513 2838 3513 2113 
z
" transform="scale(0.015625)"/>
      </defs>
      <use xlink:href="#DejaVuSans-54"/>
      <use xlink:href="#DejaVuSans-72" transform="translate(46.333984 0)"/>
      <use xlink:href="#DejaVuSans-61" transform="translate(87.447266 0)"/>
      <use xlink:href="#DejaVuSans-6a" transform="translate(148.726562 0)"/>
      <use xlink:href="#DejaVuSans-65" transform="translate(176.509766 0)"/>
      <use xlink:href="#DejaVuSans-63" transform="translate(238.033203 0)"/>
      <use xlink:href="#DejaVuSans-74" transform="translate(293.013672 0)"/>
      <use xlink:href="#DejaVuSans-6f" transform="translate(332.222656 0)"/>
      <use xlink:href="#DejaVuSans-72" transform="translate(393.404297 0)"/>
      <use xlink:href="#DejaVuSans-79" transform="translate(434.517578 0)"/>
      <use xlink:href="#DejaVuSans-20" transform="translate(493.697266 0)"/>
      <use xlink:href="#DejaVuSans-44" transform="translate(525.484375 0)"/>
      <use xlink:href="#DejaVuSans-69" transform="translate(602.486328 0)"/>
      <use xlink:href="#DejaVuSans-66" transform="translate(630.269531 0)"/>
      <use xlink:href="#DejaVuSans-66" transform="translate(665.474609 0)"/>
      <use xlink:href="#DejaVuSans-65" transform="translate(700.679688 0)"/>
      <use xlink:href="#DejaVuSans-72" transform="translate(762.203125 0)"/>
      <use xlink:href="#DejaVuSans-65" transform="translate(801.066406 0)"/>
      <use xlink:href="#DejaVuSans-6e" transform="translate(862.589844 0)"/>
      <use xlink:href="#DejaVuSans-63" transform="translate(925.96875 0)"/>
      <use xlink:href="#DejaVuSans-65" transform="translate(980.949219 0)"/>
      <use xlink:href="#DejaVuSans-73" transform="translate(1042.472656 0)"/>
      <use xlink:href="#DejaVuSans-20" transform="translate(1094.572266 0)"/>
      <use xlink:href="#DejaVuSans-5b" transform="translate(1126.359375 0)"/>
      <use xlink:href="#DejaVuSans-6d" transform="translate(1165.373047 0)"/>
      <use xlink:href="#DejaVuSans-5d" transform="translate(1262.785156 0)"/>
     </g>
    </g>
   </g>
   <g id="line2d_12">
    <path d="M 72.968736 117.32015 
L 76.052128 117.437742 
L 79.135519 117.384689 
L 82.218911 117.234845 
L 85.302303 117.023567 
L 88.385695 116.768552 
L 91.469087 116.477077 
L 94.552479 116.152882 
L 97.63587 115.798038 
L 100.719262 115.415281 
L 103.802654 115.005013 
L 106.886046 114.567901 
L 109.969438 114.106883 
L 113.052829 113.62236 
L 116.136221 113.115134 
L 119.219613 112.586273 
L 122.303005 112.036444 
L 125.386397 111.466849 
L 128.469789 110.879226 
L 131.55318 110.272103 
L 134.636572 109.647619 
L 137.719964 109.006709 
L 140.803356 108.348971 
L 143.886748 107.675607 
L 146.97014 106.986485 
L 150.053531 106.282538 
L 153.136923 105.564569 
L 156.220315 104.831909 
L 159.303707 104.084959 
L 162.387099 103.324253 
L 165.47049 102.550993 
L 168.553882 101.763845 
L 171.637274 100.96521 
L 174.720666 100.152954 
L 177.804058 99.328411 
L 180.88745 98.492382 
L 183.970841 97.642465 
L 187.054233 96.782664 
L 190.137625 95.909776 
L 193.221017 95.026203 
L 196.304409 94.130344 
L 199.387801 93.223266 
L 202.471192 92.306306 
L 205.554584 91.377059 
L 208.637976 90.436594 
L 211.721368 89.48491 
L 214.80476 88.522009 
L 217.888151 87.548156 
L 220.971543 86.563886 
L 224.054935 85.568665 
L 227.138327 84.562493 
L 230.221719 83.545369 
L 233.305111 82.517562 
L 236.388502 81.478536 
L 239.471894 80.428826 
L 242.555286 79.368165 
L 245.638678 78.296553 
L 248.72207 77.213989 
L 251.805462 76.120742 
L 254.888853 75.017078 
L 257.972245 73.901661 
L 261.055637 72.77556 
L 264.139029 71.637172 
L 267.222421 70.488635 
L 270.305812 69.328612 
L 273.389204 68.157638 
L 276.472596 66.974911 
L 279.555988 65.780833 
L 282.63938 64.576605 
L 285.722772 63.359823 
L 288.806163 62.131689 
L 291.889555 60.891135 
L 294.972947 59.63963 
L 298.056339 58.376239 
L 301.139731 57.099893 
L 304.223122 55.812062 
L 307.306514 54.513146 
L 310.389906 53.201142 
L 313.473298 51.877119 
L 316.55669 50.540809 
L 319.640082 49.192346 
L 322.723473 47.831997 
L 325.806865 46.458426 
L 328.890257 45.071901 
L 331.973649 43.674959 
L 335.057041 42.263994 
L 338.140433 40.840609 
L 341.223824 39.406139 
L 344.307216 37.958715 
L 347.390608 36.499538 
L 350.474 35.028742 
L 353.557392 33.54566 
L 356.640783 32.052561 
L 359.724175 30.548511 
L 362.807567 29.032976 
L 365.890959 27.508626 
L 368.974351 25.975863 
L 372.057743 24.435153 
L 375.141134 22.887031 
L 378.224526 21.333568 
L 381.307918 19.778234 
L 384.39131 18.220497 
L 387.474702 16.664162 
" clip-path="url(#p48850389e0)" style="fill: none; stroke: #2b737e; stroke-width: 1.5; stroke-linecap: square"/>
   </g>
   <g id="line2d_13">
    <path d="M 72.968736 117.320584 
L 76.052128 118.230466 
L 79.135519 119.075443 
L 82.218911 119.844295 
L 85.302303 120.553784 
L 88.385695 121.221071 
L 91.469087 121.857174 
L 94.552479 122.469872 
L 97.63587 123.062938 
L 100.719262 123.639243 
L 103.802654 124.199389 
L 106.886046 124.743809 
L 109.969438 125.273772 
L 113.052829 125.789412 
L 116.136221 126.289777 
L 119.219613 126.774951 
L 122.303005 127.245609 
L 125.386397 127.700872 
L 128.469789 128.141558 
L 131.55318 128.566957 
L 134.636572 128.976616 
L 137.719964 129.370988 
L 140.803356 129.749446 
L 143.886748 130.113339 
L 146.97014 130.461022 
L 150.053531 130.792629 
L 153.136923 131.10881 
L 156.220315 131.409634 
L 159.303707 131.693429 
L 162.387099 131.961132 
L 165.47049 132.213042 
L 168.553882 132.448058 
L 171.637274 132.667583 
L 174.720666 132.869845 
L 177.804058 133.054212 
L 180.88745 133.223154 
L 183.970841 133.374601 
L 187.054233 133.50922 
L 190.137625 133.625743 
L 193.221017 133.725639 
L 196.304409 133.806304 
L 199.387801 133.868672 
L 202.471192 133.91408 
L 205.554584 133.939855 
L 208.637976 133.947401 
L 211.721368 133.936316 
L 214.80476 133.904865 
L 217.888151 133.853848 
L 220.971543 133.783868 
L 224.054935 133.693186 
L 227.138327 133.581805 
L 230.221719 133.449456 
L 233.305111 133.295205 
L 236.388502 133.12052 
L 239.471894 132.922598 
L 242.555286 132.701972 
L 245.638678 132.458108 
L 248.72207 132.190339 
L 251.805462 131.899465 
L 254.888853 131.583083 
L 257.972245 131.242261 
L 261.055637 130.874328 
L 264.139029 130.480754 
L 267.222421 130.0586 
L 270.305812 129.609735 
L 273.389204 129.131222 
L 276.472596 128.623863 
L 279.555988 128.085786 
L 282.63938 127.516058 
L 285.722772 126.913877 
L 288.806163 126.27911 
L 291.889555 125.610154 
L 294.972947 124.905406 
L 298.056339 124.164465 
L 301.139731 123.385463 
L 304.223122 122.567331 
L 307.306514 121.708866 
L 310.389906 120.808065 
L 313.473298 119.862926 
L 316.55669 118.872779 
L 319.640082 117.835356 
L 322.723473 116.748252 
L 325.806865 115.610933 
L 328.890257 114.418858 
L 331.973649 113.171626 
L 335.057041 111.865632 
L 338.140433 110.498205 
L 341.223824 109.066005 
L 344.307216 107.566763 
L 347.390608 105.996472 
L 350.474 104.351393 
L 353.557392 102.627518 
L 356.640783 100.819773 
L 359.724175 98.923885 
L 362.807567 96.935046 
L 365.890959 94.846577 
L 368.974351 92.653405 
L 372.057743 90.347115 
L 375.141134 87.921297 
L 378.224526 85.366602 
L 381.307918 82.674885 
L 384.39131 79.834525 
L 387.474702 76.834705 
" clip-path="url(#p48850389e0)" style="fill: none; stroke: #5ea04b; stroke-width: 1.5; stroke-linecap: square"/>
   </g>
   <g id="line2d_14">
    <path d="M 72.968736 117.320384 
L 76.052128 117.320384 
L 79.135519 117.320384 
L 82.218911 117.320384 
L 85.302303 117.320384 
L 88.385695 117.320384 
L 91.469087 117.320384 
L 94.552479 117.320384 
L 97.63587 117.320384 
L 100.719262 117.320384 
L 103.802654 117.320384 
L 106.886046 117.320384 
L 109.969438 117.320384 
L 113.052829 117.320384 
L 116.136221 117.320384 
L 119.219613 117.320384 
L 122.303005 117.320384 
L 125.386397 117.320384 
L 128.469789 117.320384 
L 131.55318 117.320384 
L 134.636572 117.320384 
L 137.719964 117.320384 
L 140.803356 117.320384 
L 143.886748 117.320384 
L 146.97014 117.320384 
L 150.053531 117.320384 
L 153.136923 117.320384 
L 156.220315 117.320384 
L 159.303707 117.320384 
L 162.387099 117.320384 
L 165.47049 117.320384 
L 168.553882 117.320384 
L 171.637274 117.320384 
L 174.720666 117.320384 
L 177.804058 117.320384 
L 180.88745 117.320384 
L 183.970841 117.320384 
L 187.054233 117.320384 
L 190.137625 117.320384 
L 193.221017 117.320384 
L 196.304409 117.320384 
L 199.387801 117.320384 
L 202.471192 117.320384 
L 205.554584 117.320384 
L 208.637976 117.320384 
L 211.721368 117.320384 
L 214.80476 117.320384 
L 217.888151 117.320384 
L 220.971543 117.320384 
L 224.054935 117.320384 
L 227.138327 117.320384 
L 230.221719 117.320384 
L 233.305111 117.320384 
L 236.388502 117.320384 
L 239.471894 117.320384 
L 242.555286 117.320384 
L 245.638678 117.320384 
L 248.72207 117.320384 
L 251.805462 117.320384 
L 254.888853 117.320384 
L 257.972245 117.320384 
L 261.055637 117.320384 
L 264.139029 117.320384 
L 267.222421 117.320384 
L 270.305812 117.320384 
L 273.389204 117.320384 
L 276.472596 117.320384 
L 279.555988 117.320384 
L 282.63938 117.320384 
L 285.722772 117.320384 
L 288.806163 117.320384 
L 291.889555 117.320384 
L 294.972947 117.320384 
L 298.056339 117.320384 
L 301.139731 117.320384 
L 304.223122 117.320384 
L 307.306514 117.320384 
L 310.389906 117.320384 
L 313.473298 117.320384 
L 316.55669 117.320384 
L 319.640082 117.320384 
L 322.723473 117.320384 
L 325.806865 117.320384 
L 328.890257 117.320384 
L 331.973649 117.320384 
L 335.057041 117.320384 
L 338.140433 117.320384 
L 341.223824 117.320384 
L 344.307216 117.320384 
L 347.390608 117.320384 
L 350.474 117.320384 
L 353.557392 117.320384 
L 356.640783 117.320384 
L 359.724175 117.320384 
L 362.807567 117.320384 
L 365.890959 117.320384 
L 368.974351 117.320384 
L 372.057743 117.320384 
L 375.141134 117.320384 
L 378.224526 117.320384 
L 381.307918 117.320384 
L 384.39131 117.320384 
L 387.474702 117.320384 
" clip-path="url(#p48850389e0)" style="fill: none; stroke: #bdab62; stroke-width: 1.5; stroke-linecap: square"/>
   </g>
   <g id="patch_3">
    <path d="M 57.243438 139.811563 
L 57.243438 10.8 
" style="fill: none; stroke: #000000; stroke-width: 0.8; stroke-linejoin: miter; stroke-linecap: square"/>
   </g>
   <g id="patch_4">
    <path d="M 403.2 139.811563 
L 403.2 10.8 
" style="fill: none; stroke: #000000; stroke-width: 0.8; stroke-linejoin: miter; stroke-linecap: square"/>
   </g>
   <g id="patch_5">
    <path d="M 57.243438 139.811563 
L 403.2 139.811563 
" style="fill: none; stroke: #000000; stroke-width: 0.8; stroke-linejoin: miter; stroke-linecap: square"/>
   </g>
   <g id="patch_6">
    <path d="M 57.243438 10.8 
L 403.2 10.8 
" style="fill: none; stroke: #000000; stroke-width: 0.8; stroke-linejoin: miter; stroke-linecap: square"/>
   </g>
   <g id="legend_1">
    <g id="patch_7">
     <path d="M 341.64 135.311563 
L 396.9 135.311563 
Q 398.7 135.311563 398.7 133.511563 
L 398.7 93.645781 
Q 398.7 91.845781 396.9 91.845781 
L 341.64 91.845781 
Q 339.84 91.845781 339.84 93.645781 
L 339.84 133.511563 
Q 339.84 135.311563 341.64 135.311563 
z
" style="fill: #ffffff; opacity: 0.8; stroke: #cccccc; stroke-linejoin: miter"/>
    </g>
    <g id="line2d_15">
     <path d="M 343.44 99.134375 
L 352.44 99.134375 
L 361.44 99.134375 
" style="fill: none; stroke: #2b737e; stroke-width: 1.5; stroke-linecap: square"/>
    </g>
    <g id="text_14">
     <!-- $\Delta r_{BN,0}$ -->
     <g transform="translate(368.64 102.284375) scale(0.09 -0.09)">
      <defs>
       <path id="DejaVuSans-394" d="M 2188 4044 
L 906 525 
L 3472 525 
L 2188 4044 
z
M 50 0 
L 1831 4666 
L 2547 4666 
L 4325 0 
L 50 0 
z
" transform="scale(0.015625)"/>
       <path id="DejaVuSans-Oblique-72" d="M 2853 2969 
Q 2766 3016 2653 3041 
Q 2541 3066 2413 3066 
Q 1953 3066 1609 2717 
Q 1266 2369 1153 1784 
L 800 0 
L 225 0 
L 909 3500 
L 1484 3500 
L 1375 2956 
Q 1603 3259 1920 3421 
Q 2238 3584 2597 3584 
Q 2691 3584 2781 3573 
Q 2872 3563 2963 3538 
L 2853 2969 
z
" transform="scale(0.015625)"/>
       <path id="DejaVuSans-Oblique-42" d="M 1081 4666 
L 2694 4666 
Q 3350 4666 3675 4422 
Q 4000 4178 4000 3688 
Q 4000 3238 3720 2911 
Q 3441 2584 2988 2516 
Q 3375 2428 3569 2181 
Q 3763 1934 3763 1522 
Q 3763 819 3242 409 
Q 2722 0 1819 0 
L 172 0 
L 1081 4666 
z
M 1234 2228 
L 903 519 
L 1919 519 
Q 2491 519 2800 781 
Q 3109 1044 3109 1522 
Q 3109 1891 2904 2059 
Q 2700 2228 2247 2228 
L 1234 2228 
z
M 1606 4147 
L 1331 2741 
L 2272 2741 
Q 2775 2741 3058 2959 
Q 3341 3178 3341 3566 
Q 3341 3869 3150 4008 
Q 2959 4147 2541 4147 
L 1606 4147 
z
" transform="scale(0.015625)"/>
       <path id="DejaVuSans-Oblique-4e" d="M 1081 4666 
L 1931 4666 
L 3219 666 
L 4000 4666 
L 4616 4666 
L 3706 0 
L 2853 0 
L 1569 4025 
L 788 0 
L 172 0 
L 1081 4666 
z
" transform="scale(0.015625)"/>
       <path id="DejaVuSans-2c" d="M 750 794 
L 1409 794 
L 1409 256 
L 897 -744 
L 494 -744 
L 750 256 
L 750 794 
z
" transform="scale(0.015625)"/>
      </defs>
      <use xlink:href="#DejaVuSans-394" transform="translate(0 0.09375)"/>
      <use xlink:href="#DejaVuSans-Oblique-72" transform="translate(68.408203 0.09375)"/>
      <use xlink:href="#DejaVuSans-Oblique-42" transform="translate(109.521484 -16.3125) scale(0.7)"/>
      <use xlink:href="#DejaVuSans-Oblique-4e" transform="translate(157.543945 -16.3125) scale(0.7)"/>
      <use xlink:href="#DejaVuSans-2c" transform="translate(209.907227 -16.3125) scale(0.7)"/>
      <use xlink:href="#DejaVuSans-30" transform="translate(245.795898 -16.3125) scale(0.7)"/>
     </g>
    </g>
    <g id="line2d_16">
     <path d="M 343.44 112.722969 
L 352.44 112.722969 
L 361.44 112.722969 
" style="fill: none; stroke: #5ea04b; stroke-width: 1.5; stroke-linecap: square"/>
    </g>
    <g id="text_15">
     <!-- $\Delta r_{BN,1}$ -->
     <g transform="translate(368.64 115.872969) scale(0.09 -0.09)">
      <use xlink:href="#DejaVuSans-394" transform="translate(0 0.09375)"/>
      <use xlink:href="#DejaVuSans-Oblique-72" transform="translate(68.408203 0.09375)"/>
      <use xlink:href="#DejaVuSans-Oblique-42" transform="translate(109.521484 -16.3125) scale(0.7)"/>
      <use xlink:href="#DejaVuSans-Oblique-4e" transform="translate(157.543945 -16.3125) scale(0.7)"/>
      <use xlink:href="#DejaVuSans-2c" transform="translate(209.907227 -16.3125) scale(0.7)"/>
      <use xlink:href="#DejaVuSans-31" transform="translate(245.795898 -16.3125) scale(0.7)"/>
     </g>
    </g>
    <g id="line2d_17">
     <path d="M 343.44 126.311563 
L 352.44 126.311563 
L 361.44 126.311563 
" style="fill: none; stroke: #bdab62; stroke-width: 1.5; stroke-linecap: square"/>
    </g>
    <g id="text_16">
     <!-- $\Delta r_{BN,2}$ -->
     <g transform="translate(368.64 129.461563) scale(0.09 -0.09)">
      <use xlink:href="#DejaVuSans-394" transform="translate(0 0.09375)"/>
      <use xlink:href="#DejaVuSans-Oblique-72" transform="translate(68.408203 0.09375)"/>
      <use xlink:href="#DejaVuSans-Oblique-42" transform="translate(109.521484 -16.3125) scale(0.7)"/>
      <use xlink:href="#DejaVuSans-Oblique-4e" transform="translate(157.543945 -16.3125) scale(0.7)"/>
      <use xlink:href="#DejaVuSans-2c" transform="translate(209.907227 -16.3125) scale(0.7)"/>
      <use xlink:href="#DejaVuSans-32" transform="translate(245.795898 -16.3125) scale(0.7)"/>
     </g>
    </g>
   </g>
  </g>
 </g>
 <defs>
  <clipPath id="p48850389e0">
   <rect x="57.243438" y="10.8" width="345.956562" height="129.011562"/>
  </clipPath>
 </defs>
</svg>
