<?xml version="1.0" encoding="utf-8" standalone="no"?>
<!DOCTYPE svg PUBLIC "-//W3C//DTD SVG 1.1//EN"
  "http://www.w3.org/Graphics/SVG/1.1/DTD/svg11.dtd">
<svg xmlns:xlink="http://www.w3.org/1999/xlink" width="414pt" height="288pt" viewBox="0 0 414 288" xmlns="http://www.w3.org/2000/svg" version="1.1">
 <metadata>
  <rdf:RDF xmlns:dc="http://purl.org/dc/elements/1.1/" xmlns:cc="http://creativecommons.org/ns#" xmlns:rdf="http://www.w3.org/1999/02/22-rdf-syntax-ns#">
   <cc:Work>
    <dc:type rdf:resource="http://purl.org/dc/dcmitype/StillImage"/>
    <dc:date>2026-01-13T05:16:17.552965</dc:date>
    <dc:format>image/svg+xml</dc:format>
    <dc:creator>
     <cc:Agent>
      <dc:title>Matplotlib v3.10.7, https://matplotlib.org/</dc:title>
     </cc:Agent>
    </dc:creator>
   </cc:Work>
  </rdf:RDF>
 </metadata>
 <defs>
  <style type="text/css">*{stroke-linejoin: round; stroke-linecap: butt}</style>
 </defs>
 <g id="figure_1">
  <g id="patch_1">
   <path d="M 0 288 
L 414 288 
L 414 0 
L 0 0 
L 0 288 
z
" style="fill: none"/>
  </g>
  <g id="axes_1">
   <g id="patch_2">
    <path d="M 85.605625 241.036875 
L 403.2 241.036875 
L 403.2 10.8 
L 85.605625 10.8 
L 85.605625 241.036875 
z
" style="fill: none"/>
   </g>
   <g id="matplotlib.axis_1">
    <g id="xtick_1">
     <g id="line2d_1">
      <defs>
       <path id="m83db2d1394" d="M 0 0 
L 0 3.5 
" style="stroke: #000000; stroke-width: 0.8"/>
      </defs>
      <g>
       <use xlink:href="#m83db2d1394" x="100.025692" y="241.036875" style="stroke: #000000; stroke-width: 0.8"/>
      </g>
     </g>
     <g id="text_1">
      <!-- 0 -->
      <g transform="translate(94.935692 260.194375) scale(0.16 -0.16)">
       <defs>
        <path id="DejaVuSans-30" d="M 2034 4250 
Q 1547 4250 1301 3770 
Q 1056 3291 1056 2328 
Q 1056 1369 1301 889 
Q 1547 409 2034 409 
Q 2525 409 2770 889 
Q 3016 1369 3016 2328 
Q 3016 3291 2770 3770 
Q 2525 4250 2034 4250 
z
M 2034 4750 
Q 2819 4750 3233 4129 
Q 3647 3509 3647 2328 
Q 3647 1150 3233 529 
Q 2819 -91 2034 -91 
Q 1250 -91 836 529 
Q 422 1150 422 2328 
Q 422 3509 836 4129 
Q 1250 4750 2034 4750 
z
" transform="scale(0.015625)"/>
       </defs>
       <use xlink:href="#DejaVuSans-30"/>
      </g>
     </g>
    </g>
    <g id="xtick_2">
     <g id="line2d_2">
      <g>
       <use xlink:href="#m83db2d1394" x="196.271759" y="241.036875" style="stroke: #000000; stroke-width: 0.8"/>
      </g>
     </g>
     <g id="text_2">
      <!-- 10 -->
      <g transform="translate(186.091759 260.194375) scale(0.16 -0.16)">
       <defs>
        <path id="DejaVuSans-31" d="M 794 531 
L 1825 531 
L 1825 4091 
L 703 3866 
L 703 4441 
L 1819 4666 
L 2450 4666 
L 2450 531 
L 3481 531 
L 3481 0 
L 794 0 
L 794 531 
z
" transform="scale(0.015625)"/>
       </defs>
       <use xlink:href="#DejaVuSans-31"/>
       <use xlink:href="#DejaVuSans-30" transform="translate(63.623047 0)"/>
      </g>
     </g>
    </g>
    <g id="xtick_3">
     <g id="line2d_3">
      <g>
       <use xlink:href="#m83db2d1394" x="292.517825" y="241.036875" style="stroke: #000000; stroke-width: 0.8"/>
      </g>
     </g>
     <g id="text_3">
      <!-- 20 -->
      <g transform="translate(282.337825 260.194375) scale(0.16 -0.16)">
       <defs>
        <path id="DejaVuSans-32" d="M 1228 531 
L 3431 531 
L 3431 0 
L 469 0 
L 469 531 
Q 828 903 1448 1529 
Q 2069 2156 2228 2338 
Q 2531 2678 2651 2914 
Q 2772 3150 2772 3378 
Q 2772 3750 2511 3984 
Q 2250 4219 1831 4219 
Q 1534 4219 1204 4116 
Q 875 4013 500 3803 
L 500 4441 
Q 881 4594 1212 4672 
Q 1544 4750 1819 4750 
Q 2544 4750 2975 4387 
Q 3406 4025 3406 3419 
Q 3406 3131 3298 2873 
Q 3191 2616 2906 2266 
Q 2828 2175 2409 1742 
Q 1991 1309 1228 531 
z
" transform="scale(0.015625)"/>
       </defs>
       <use xlink:href="#DejaVuSans-32"/>
       <use xlink:href="#DejaVuSans-30" transform="translate(63.623047 0)"/>
      </g>
     </g>
    </g>
    <g id="xtick_4">
     <g id="line2d_4">
      <g>
       <use xlink:href="#m83db2d1394" x="388.763892" y="241.036875" style="stroke: #000000; stroke-width: 0.8"/>
      </g>
     </g>
     <g id="text_4">
      <!-- 30 -->
      <g transform="translate(378.583892 260.194375) scale(0.16 -0.16)">
       <defs>
        <path id="DejaVuSans-33" d="M 2597 2516 
Q 3050 2419 3304 2112 
Q 3559 1806 3559 1356 
Q 3559 666 3084 287 
Q 2609 -91 1734 -91 
Q 1441 -91 1130 -33 
Q 819 25 488 141 
L 488 750 
Q 750 597 1062 519 
Q 1375 441 1716 441 
Q 2309 441 2620 675 
Q 2931 909 2931 1356 
Q 2931 1769 2642 2001 
Q 2353 2234 1838 2234 
L 1294 2234 
L 1294 2753 
L 1863 2753 
Q 2328 2753 2575 2939 
Q 2822 3125 2822 3475 
Q 2822 3834 2567 4026 
Q 2313 4219 1838 4219 
Q 1578 4219 1281 4162 
Q 984 4106 628 3988 
L 628 4550 
Q 988 4650 1302 4700 
Q 1616 4750 1894 4750 
Q 2613 4750 3031 4423 
Q 3450 4097 3450 3541 
Q 3450 3153 3228 2886 
Q 3006 2619 2597 2516 
z
" transform="scale(0.015625)"/>
       </defs>
       <use xlink:href="#DejaVuSans-33"/>
       <use xlink:href="#DejaVuSans-30" transform="translate(63.623047 0)"/>
      </g>
     </g>
    </g>
    <g id="text_5">
     <!-- Time [min] -->
     <g transform="translate(217.250469 275.120313) scale(0.1 -0.1)">
      <defs>
       <path id="DejaVuSans-54" d="M -19 4666 
L 3928 4666 
L 3928 4134 
L 2272 4134 
L 2272 0 
L 1638 0 
L 1638 4134 
L -19 4134 
L -19 4666 
z
" transform="scale(0.015625)"/>
       <path id="DejaVuSans-69" d="M 603 3500 
L 1178 3500 
L 1178 0 
L 603 0 
L 603 3500 
z
M 603 4863 
L 1178 4863 
L 1178 4134 
L 603 4134 
L 603 4863 
z
" transform="scale(0.015625)"/>
       <path id="DejaVuSans-6d" d="M 3328 2828 
Q 3544 3216 3844 3400 
Q 4144 3584 4550 3584 
Q 5097 3584 5394 3201 
Q 5691 2819 5691 2113 
L 5691 0 
L 5113 0 
L 5113 2094 
Q 5113 2597 4934 2840 
Q 4756 3084 4391 3084 
Q 3944 3084 3684 2787 
Q 3425 2491 3425 1978 
L 3425 0 
L 2847 0 
L 2847 2094 
Q 2847 2600 2669 2842 
Q 2491 3084 2119 3084 
Q 1678 3084 1418 2786 
Q 1159 2488 1159 1978 
L 1159 0 
L 581 0 
L 581 3500 
L 1159 3500 
L 1159 2956 
Q 1356 3278 1631 3431 
Q 1906 3584 2284 3584 
Q 2666 3584 2933 3390 
Q 3200 3197 3328 2828 
z
" transform="scale(0.015625)"/>
       <path id="DejaVuSans-65" d="M 3597 1894 
L 3597 1613 
L 953 1613 
Q 991 1019 1311 708 
Q 1631 397 2203 397 
Q 2534 397 2845 478 
Q 3156 559 3463 722 
L 3463 178 
Q 3153 47 2828 -22 
Q 2503 -91 2169 -91 
Q 1331 -91 842 396 
Q 353 884 353 1716 
Q 353 2575 817 3079 
Q 1281 3584 2069 3584 
Q 2775 3584 3186 3129 
Q 3597 2675 3597 1894 
z
M 3022 2063 
Q 3016 2534 2758 2815 
Q 2500 3097 2075 3097 
Q 1594 3097 1305 2825 
Q 1016 2553 972 2059 
L 3022 2063 
z
" transform="scale(0.015625)"/>
       <path id="DejaVuSans-20" transform="scale(0.015625)"/>
       <path id="DejaVuSans-5b" d="M 550 4863 
L 1875 4863 
L 1875 4416 
L 1125 4416 
L 1125 -397 
L 1875 -397 
L 1875 -844 
L 550 -844 
L 550 4863 
z
" transform="scale(0.015625)"/>
       <path id="DejaVuSans-6e" d="M 3513 2113 
L 3513 0 
L 2938 0 
L 2938 2094 
Q 2938 2591 2744 2837 
Q 2550 3084 2163 3084 
Q 1697 3084 1428 2787 
Q 1159 2491 1159 1978 
L 1159 0 
L 581 0 
L 581 3500 
L 1159 3500 
L 1159 2956 
Q 1366 3272 1645 3428 
Q 1925 3584 2291 3584 
Q 2894 3584 3203 3211 
Q 3513 2838 3513 2113 
z
" transform="scale(0.015625)"/>
       <path id="DejaVuSans-5d" d="M 1947 4863 
L 1947 -844 
L 622 -844 
L 622 -397 
L 1369 -397 
L 1369 4416 
L 622 4416 
L 622 4863 
L 1947 4863 
z
" transform="scale(0.015625)"/>
      </defs>
      <use xlink:href="#DejaVuSans-54"/>
      <use xlink:href="#DejaVuSans-69" transform="translate(57.958984 0)"/>
      <use xlink:href="#DejaVuSans-6d" transform="translate(85.742188 0)"/>
      <use xlink:href="#DejaVuSans-65" transform="translate(183.154297 0)"/>
      <use xlink:href="#DejaVuSans-20" transform="translate(244.677734 0)"/>
      <use xlink:href="#DejaVuSans-5b" transform="translate(276.464844 0)"/>
      <use xlink:href="#DejaVuSans-6d" transform="translate(315.478516 0)"/>
      <use xlink:href="#DejaVuSans-69" transform="translate(412.890625 0)"/>
      <use xlink:href="#DejaVuSans-6e" transform="translate(440.673828 0)"/>
      <use xlink:href="#DejaVuSans-5d" transform="translate(504.052734 0)"/>
     </g>
    </g>
   </g>
   <g id="matplotlib.axis_2">
    <g id="ytick_1">
     <g id="line2d_5">
      <defs>
       <path id="m0992f32f5b" d="M 0 0 
L -3.5 0 
" style="stroke: #000000; stroke-width: 0.8"/>
      </defs>
      <g>
       <use xlink:href="#m0992f32f5b" x="85.605625" y="234.212047" style="stroke: #000000; stroke-width: 0.8"/>
      </g>
     </g>
     <g id="text_6">
      <!-- −2000 -->
      <g transform="translate(24.478125 240.290797) scale(0.16 -0.16)">
       <defs>
        <path id="DejaVuSans-2212" d="M 678 2272 
L 4684 2272 
L 4684 1741 
L 678 1741 
L 678 2272 
z
" transform="scale(0.015625)"/>
       </defs>
       <use xlink:href="#DejaVuSans-2212"/>
       <use xlink:href="#DejaVuSans-32" transform="translate(83.789062 0)"/>
       <use xlink:href="#DejaVuSans-30" transform="translate(147.412109 0)"/>
       <use xlink:href="#DejaVuSans-30" transform="translate(211.035156 0)"/>
       <use xlink:href="#DejaVuSans-30" transform="translate(274.658203 0)"/>
      </g>
     </g>
    </g>
    <g id="ytick_2">
     <g id="line2d_6">
      <g>
       <use xlink:href="#m0992f32f5b" x="85.605625" y="188.813792" style="stroke: #000000; stroke-width: 0.8"/>
      </g>
     </g>
     <g id="text_7">
      <!-- −1000 -->
      <g transform="translate(24.478125 194.892542) scale(0.16 -0.16)">
       <use xlink:href="#DejaVuSans-2212"/>
       <use xlink:href="#DejaVuSans-31" transform="translate(83.789062 0)"/>
       <use xlink:href="#DejaVuSans-30" transform="translate(147.412109 0)"/>
       <use xlink:href="#DejaVuSans-30" transform="translate(211.035156 0)"/>
       <use xlink:href="#DejaVuSans-30" transform="translate(274.658203 0)"/>
      </g>
     </g>
    </g>
    <g id="ytick_3">
     <g id="line2d_7">
      <g>
       <use xlink:href="#m0992f32f5b" x="85.605625" y="143.415536" style="stroke: #000000; stroke-width: 0.8"/>
      </g>
     </g>
     <g id="text_8">
      <!-- 0 -->
      <g transform="translate(68.425625 149.494286) scale(0.16 -0.16)">
       <use xlink:href="#DejaVuSans-30"/>
      </g>
     </g>
    </g>
    <g id="ytick_4">
     <g id="line2d_8">
      <g>
       <use xlink:href="#m0992f32f5b" x="85.605625" y="98.01728" style="stroke: #000000; stroke-width: 0.8"/>
      </g>
     </g>
     <g id="text_9">
      <!-- 1000 -->
      <g transform="translate(37.885625 104.09603) scale(0.16 -0.16)">
       <use xlink:href="#DejaVuSans-31"/>
       <use xlink:href="#DejaVuSans-30" transform="translate(63.623047 0)"/>
       <use xlink:href="#DejaVuSans-30" transform="translate(127.246094 0)"/>
       <use xlink:href="#DejaVuSans-30" transform="translate(190.869141 0)"/>
      </g>
     </g>
    </g>
    <g id="ytick_5">
     <g id="line2d_9">
      <g>
       <use xlink:href="#m0992f32f5b" x="85.605625" y="52.619025" style="stroke: #000000; stroke-width: 0.8"/>
      </g>
     </g>
     <g id="text_10">
      <!-- 2000 -->
      <g transform="translate(37.885625 58.697775) scale(0.16 -0.16)">
       <use xlink:href="#DejaVuSans-32"/>
       <use xlink:href="#DejaVuSans-30" transform="translate(63.623047 0)"/>
       <use xlink:href="#DejaVuSans-30" transform="translate(127.246094 0)"/>
       <use xlink:href="#DejaVuSans-30" transform="translate(190.869141 0)"/>
      </g>
     </g>
    </g>
    <g id="text_11">
     <!-- RW Speed (RPM)  -->
     <g transform="translate(18.398438 169.284062) rotate(-90) scale(0.1 -0.1)">
      <defs>
       <path id="DejaVuSans-52" d="M 2841 2188 
Q 3044 2119 3236 1894 
Q 3428 1669 3622 1275 
L 4263 0 
L 3584 0 
L 2988 1197 
Q 2756 1666 2539 1819 
Q 2322 1972 1947 1972 
L 1259 1972 
L 1259 0 
L 628 0 
L 628 4666 
L 2053 4666 
Q 2853 4666 3247 4331 
Q 3641 3997 3641 3322 
Q 3641 2881 3436 2590 
Q 3231 2300 2841 2188 
z
M 1259 4147 
L 1259 2491 
L 2053 2491 
Q 2509 2491 2742 2702 
Q 2975 2913 2975 3322 
Q 2975 3731 2742 3939 
Q 2509 4147 2053 4147 
L 1259 4147 
z
" transform="scale(0.015625)"/>
       <path id="DejaVuSans-57" d="M 213 4666 
L 850 4666 
L 1831 722 
L 2809 4666 
L 3519 4666 
L 4500 722 
L 5478 4666 
L 6119 4666 
L 4947 0 
L 4153 0 
L 3169 4050 
L 2175 0 
L 1381 0 
L 213 4666 
z
" transform="scale(0.015625)"/>
       <path id="DejaVuSans-53" d="M 3425 4513 
L 3425 3897 
Q 3066 4069 2747 4153 
Q 2428 4238 2131 4238 
Q 1616 4238 1336 4038 
Q 1056 3838 1056 3469 
Q 1056 3159 1242 3001 
Q 1428 2844 1947 2747 
L 2328 2669 
Q 3034 2534 3370 2195 
Q 3706 1856 3706 1288 
Q 3706 609 3251 259 
Q 2797 -91 1919 -91 
Q 1588 -91 1214 -16 
Q 841 59 441 206 
L 441 856 
Q 825 641 1194 531 
Q 1563 422 1919 422 
Q 2459 422 2753 634 
Q 3047 847 3047 1241 
Q 3047 1584 2836 1778 
Q 2625 1972 2144 2069 
L 1759 2144 
Q 1053 2284 737 2584 
Q 422 2884 422 3419 
Q 422 4038 858 4394 
Q 1294 4750 2059 4750 
Q 2388 4750 2728 4690 
Q 3069 4631 3425 4513 
z
" transform="scale(0.015625)"/>
       <path id="DejaVuSans-70" d="M 1159 525 
L 1159 -1331 
L 581 -1331 
L 581 3500 
L 1159 3500 
L 1159 2969 
Q 1341 3281 1617 3432 
Q 1894 3584 2278 3584 
Q 2916 3584 3314 3078 
Q 3713 2572 3713 1747 
Q 3713 922 3314 415 
Q 2916 -91 2278 -91 
Q 1894 -91 1617 61 
Q 1341 213 1159 525 
z
M 3116 1747 
Q 3116 2381 2855 2742 
Q 2594 3103 2138 3103 
Q 1681 3103 1420 2742 
Q 1159 2381 1159 1747 
Q 1159 1113 1420 752 
Q 1681 391 2138 391 
Q 2594 391 2855 752 
Q 3116 1113 3116 1747 
z
" transform="scale(0.015625)"/>
       <path id="DejaVuSans-64" d="M 2906 2969 
L 2906 4863 
L 3481 4863 
L 3481 0 
L 2906 0 
L 2906 525 
Q 2725 213 2448 61 
Q 2172 -91 1784 -91 
Q 1150 -91 751 415 
Q 353 922 353 1747 
Q 353 2572 751 3078 
Q 1150 3584 1784 3584 
Q 2172 3584 2448 3432 
Q 2725 3281 2906 2969 
z
M 947 1747 
Q 947 1113 1208 752 
Q 1469 391 1925 391 
Q 2381 391 2643 752 
Q 2906 1113 2906 1747 
Q 2906 2381 2643 2742 
Q 2381 3103 1925 3103 
Q 1469 3103 1208 2742 
Q 947 2381 947 1747 
z
" transform="scale(0.015625)"/>
       <path id="DejaVuSans-28" d="M 1984 4856 
Q 1566 4138 1362 3434 
Q 1159 2731 1159 2009 
Q 1159 1288 1364 580 
Q 1569 -128 1984 -844 
L 1484 -844 
Q 1016 -109 783 600 
Q 550 1309 550 2009 
Q 550 2706 781 3412 
Q 1013 4119 1484 4856 
L 1984 4856 
z
" transform="scale(0.015625)"/>
       <path id="DejaVuSans-50" d="M 1259 4147 
L 1259 2394 
L 2053 2394 
Q 2494 2394 2734 2622 
Q 2975 2850 2975 3272 
Q 2975 3691 2734 3919 
Q 2494 4147 2053 4147 
L 1259 4147 
z
M 628 4666 
L 2053 4666 
Q 2838 4666 3239 4311 
Q 3641 3956 3641 3272 
Q 3641 2581 3239 2228 
Q 2838 1875 2053 1875 
L 1259 1875 
L 1259 0 
L 628 0 
L 628 4666 
z
" transform="scale(0.015625)"/>
       <path id="DejaVuSans-4d" d="M 628 4666 
L 1569 4666 
L 2759 1491 
L 3956 4666 
L 4897 4666 
L 4897 0 
L 4281 0 
L 4281 4097 
L 3078 897 
L 2444 897 
L 1241 4097 
L 1241 0 
L 628 0 
L 628 4666 
z
" transform="scale(0.015625)"/>
       <path id="DejaVuSans-29" d="M 513 4856 
L 1013 4856 
Q 1481 4119 1714 3412 
Q 1947 2706 1947 2009 
Q 1947 1309 1714 600 
Q 1481 -109 1013 -844 
L 513 -844 
Q 928 -128 1133 580 
Q 1338 1288 1338 2009 
Q 1338 2731 1133 3434 
Q 928 4138 513 4856 
z
" transform="scale(0.015625)"/>
      </defs>
      <use xlink:href="#DejaVuSans-52"/>
      <use xlink:href="#DejaVuSans-57" transform="translate(65.482422 0)"/>
      <use xlink:href="#DejaVuSans-20" transform="translate(164.359375 0)"/>
      <use xlink:href="#DejaVuSans-53" transform="translate(196.146484 0)"/>
      <use xlink:href="#DejaVuSans-70" transform="translate(259.623047 0)"/>
      <use xlink:href="#DejaVuSans-65" transform="translate(323.099609 0)"/>
      <use xlink:href="#DejaVuSans-65" transform="translate(384.623047 0)"/>
      <use xlink:href="#DejaVuSans-64" transform="translate(446.146484 0)"/>
      <use xlink:href="#DejaVuSans-20" transform="translate(509.623047 0)"/>
      <use xlink:href="#DejaVuSans-28" transform="translate(541.410156 0)"/>
      <use xlink:href="#DejaVuSans-52" transform="translate(580.423828 0)"/>
      <use xlink:href="#DejaVuSans-50" transform="translate(649.90625 0)"/>
      <use xlink:href="#DejaVuSans-4d" transform="translate(710.208984 0)"/>
      <use xlink:href="#DejaVuSans-29" transform="translate(796.488281 0)"/>
      <use xlink:href="#DejaVuSans-20" transform="translate(835.501953 0)"/>
     </g>
    </g>
   </g>
   <g id="line2d_10">
    <path d="M 100.041733 143.306554 
L 100.747537 138.511387 
L 100.79566 138.838323 
L 107.93391 186.615484 
L 108.334936 187.742263 
L 108.623674 188.023694 
L 108.832207 187.96453 
L 109.056781 187.63283 
L 109.393642 186.693172 
L 109.842791 184.684004 
L 110.436308 180.88189 
L 118.103911 128.270411 
L 129.02784 56.6436 
L 129.685521 54.122997 
L 130.279039 52.667677 
L 130.792351 51.944151 
L 131.2415 51.6604 
L 131.658566 51.648999 
L 132.107714 51.870368 
L 132.653109 52.413218 
L 133.342872 53.443648 
L 134.273251 55.273071 
L 135.700901 58.640211 
L 139.50262 67.793415 
L 141.09068 70.939746 
L 142.550412 73.352256 
L 143.962021 75.267888 
L 145.389671 76.839243 
L 146.897526 78.170692 
L 148.549751 79.331393 
L 150.44259 80.384309 
L 152.656249 81.356464 
L 155.158647 82.212173 
L 157.74125 82.862718 
L 160.259689 83.269013 
L 162.746045 83.444469 
L 165.312607 83.400423 
L 168.135825 83.123884 
L 169.16245 83.096819 
L 171.39215 82.964791 
L 174.215368 82.560764 
L 185.02701 80.792604 
L 189.117468 80.780693 
L 196.319882 80.719314 
L 197.506917 82.497687 
L 198.67791 83.862777 
L 199.897027 84.940774 
L 201.084062 85.879885 
L 202.367343 86.610382 
L 203.827075 87.180056 
L 205.703873 87.66046 
L 214.38206 89.58639 
L 217.461934 90.676135 
L 221.183449 92.241481 
L 226.380737 94.689594 
L 235.235375 99.138475 
L 242.758609 103.110017 
L 245.886606 105.062674 
L 250.041228 107.373732 
L 270.268943 118.314002 
L 272.225946 119.535185 
L 275.482272 121.702705 
L 280.070001 124.462659 
L 293.22363 132.271866 
L 307.131186 140.928691 
L 311.237685 143.410738 
L 311.366013 143.378914 
L 311.606629 143.412205 
L 311.686834 143.381245 
L 311.718916 143.404037 
L 311.895367 143.415063 
L 312.007654 143.381873 
L 312.023695 143.393934 
L 312.184105 143.414143 
L 312.312433 143.383314 
L 312.472843 143.409744 
L 312.601171 143.38399 
L 312.793663 143.415052 
L 312.90595 143.381059 
L 312.921991 143.395086 
L 313.098443 143.405794 
L 324.439437 143.393405 
L 324.567766 143.411923 
L 325.947293 143.422814 
L 327.054122 143.438198 
L 327.198491 143.411616 
L 327.759927 143.438183 
L 327.888255 143.416985 
L 328.321362 143.436737 
L 328.44969 143.422247 
L 328.818634 143.439232 
L 328.946962 143.430248 
L 329.251741 143.436058 
L 329.380069 143.431563 
L 329.668807 143.440746 
L 329.813176 143.418524 
L 330.101914 143.437105 
L 330.246283 143.419466 
L 330.518981 143.438648 
L 330.66335 143.42519 
L 330.903965 143.434839 
L 331.048334 143.424895 
L 331.288949 143.440236 
L 331.401236 143.41555 
L 331.417277 143.429561 
L 331.641851 143.440795 
L 331.802262 143.417184 
L 332.026836 143.433138 
L 332.171205 143.432241 
L 332.379738 143.438818 
L 332.508066 143.430369 
L 332.700558 143.43363 
L 332.828886 143.427112 
L 333.021378 143.432996 
L 333.149707 143.428166 
L 333.326158 143.438515 
L 333.470527 143.416536 
L 333.67906 143.437838 
L 333.823429 143.417607 
L 334.031962 143.441221 
L 334.176331 143.416971 
L 334.384864 143.442706 
L 334.529233 143.42544 
L 334.721726 143.442452 
L 334.866095 143.426339 
L 335.042546 143.433061 
L 335.186915 143.417883 
L 335.379407 143.437088 
L 335.523776 143.42273 
L 335.716268 143.442948 
L 335.860637 143.429295 
L 336.037089 143.438845 
L 336.181458 143.425818 
L 336.357909 143.435854 
L 336.502278 143.423113 
L 336.678729 143.433622 
L 336.823098 143.421193 
L 336.999549 143.431991 
L 337.143918 143.419726 
L 337.33641 143.442008 
L 337.48078 143.429636 
L 337.657231 143.440308 
L 337.8016 143.427846 
L 337.978051 143.438337 
L 338.12242 143.425672 
L 338.298871 143.435673 
L 338.44324 143.422528 
L 338.619691 143.432102 
L 338.76406 143.418474 
L 338.956553 143.438692 
L 339.100922 143.424423 
L 339.277373 143.432419 
L 339.421742 143.417424 
L 339.614234 143.435635 
L 339.758603 143.41977 
L 339.951095 143.43675 
L 340.095464 143.41987 
L 340.287956 143.435378 
L 340.432326 143.418168 
L 340.624818 143.432212 
L 340.753146 143.431379 
L 340.929597 143.433047 
L 341.057925 143.431148 
L 341.250417 143.441873 
L 341.394786 143.420137 
L 341.603319 143.439361 
L 341.747688 143.416045 
L 341.956222 143.432852 
L 342.08455 143.42691 
L 342.293083 143.441298 
L 342.437452 143.414588 
L 342.662026 143.436303 
L 342.790354 143.427066 
L 342.998887 143.436143 
L 343.159297 143.415156 
L 343.399913 143.43986 
L 343.560323 143.416202 
L 343.800938 143.436964 
L 343.945307 143.430846 
L 344.169881 143.438742 
L 344.31425 143.430277 
L 344.538824 143.434501 
L 344.683193 143.423599 
L 344.93985 143.440504 
L 345.084219 143.426865 
L 345.308793 143.438443 
L 345.453162 143.422253 
L 345.725859 143.437421 
L 345.870228 143.418251 
L 346.158967 143.435121 
L 346.303336 143.412906 
L 346.624156 143.437145 
L 346.752484 143.433766 
L 347.041222 143.437386 
L 347.16955 143.431225 
L 347.442247 143.439856 
L 347.570575 143.430925 
L 347.891396 143.43367 
L 348.180134 143.419723 
L 348.484913 143.435738 
L 348.613241 143.419535 
L 348.950102 143.438087 
L 349.078431 143.418566 
L 349.447374 143.437287 
L 349.591743 143.418542 
L 350.008809 143.438716 
L 350.153178 143.415462 
L 350.618368 143.436096 
L 350.746696 143.433783 
L 351.227926 143.438491 
L 351.356254 143.431809 
L 351.965813 143.438245 
L 352.094141 143.426389 
L 353.04056 143.437549 
L 353.168888 143.41829 
L 354.901318 143.432386 
L 361.028984 143.393215 
L 361.173353 143.412251 
L 361.654583 143.393629 
L 361.782911 143.41463 
L 362.23206 143.395575 
L 362.360388 143.41453 
L 362.793495 143.395634 
L 362.921823 143.412801 
L 363.338889 143.39336 
L 363.467218 143.40891 
L 363.852202 143.39551 
L 363.98053 143.409739 
L 364.365514 143.392412 
L 364.493842 143.4054 
L 364.846744 143.395998 
L 364.975073 143.407869 
L 365.327975 143.395683 
L 365.456303 143.406643 
L 365.809205 143.392219 
L 365.937533 143.402459 
L 366.274394 143.391978 
L 366.418764 143.408062 
L 366.755625 143.395938 
L 366.883953 143.404835 
L 367.220814 143.391423 
L 367.349142 143.399882 
L 367.669962 143.391587 
L 367.798291 143.399694 
L 368.119111 143.390673 
L 368.247439 143.398548 
L 368.552218 143.395267 
L 368.680546 143.402961 
L 369.001366 143.39304 
L 369.145735 143.418738 
L 369.498638 143.39613 
L 369.626966 143.403744 
L 369.947786 143.393942 
L 370.076114 143.401714 
L 370.396934 143.392312 
L 370.525262 143.400226 
L 370.846083 143.391392 
L 370.974411 143.399598 
L 371.295231 143.391565 
L 371.423559 143.400118 
L 371.744379 143.393008 
L 371.872707 143.40204 
L 372.193528 143.39613 
L 372.321856 143.405588 
L 372.658717 143.395041 
L 372.787045 143.405118 
L 373.123906 143.396311 
L 373.252234 143.407024 
L 373.605137 143.394088 
L 373.733465 143.40562 
L 374.086367 143.394934 
L 374.214695 143.407282 
L 374.583638 143.393413 
L 374.711966 143.406733 
L 375.08091 143.395717 
L 375.209238 143.413227 
L 375.530058 143.392229 
L 375.658386 143.407548 
L 375.963165 143.394353 
L 376.091493 143.410685 
L 376.412313 143.394728 
L 376.540642 143.412111 
L 376.877503 143.393864 
L 377.005831 143.412413 
L 377.358733 143.392535 
L 377.487061 143.412348 
L 377.839963 143.39585 
L 377.968292 143.416944 
L 378.369317 143.393714 
L 378.513686 143.411854 
L 378.89867 143.394572 
L 379.043039 143.414363 
L 379.460106 143.393538 
L 379.604475 143.415178 
L 380.053623 143.391977 
L 380.197992 143.41563 
L 380.663181 143.395062 
L 380.807551 143.420785 
L 381.336904 143.39343 
L 381.465232 143.395741 
L 381.91438 143.392493 
L 382.042708 143.396617 
L 382.523939 143.393896 
L 382.652267 143.399891 
L 383.197661 143.393892 
L 383.325989 143.402001 
L 383.951589 143.393377 
L 384.079917 143.403865 
L 384.914049 143.394662 
L 385.042377 143.406334 
L 385.972756 143.393656 
L 386.101084 143.410399 
L 387.30416 143.408905 
L 388.763892 143.409663 
L 388.763892 143.409663 
" clip-path="url(#p9b34609717)" style="fill: none; stroke: #225e7c; stroke-width: 1.5; stroke-linecap: square"/>
   </g>
   <g id="line2d_11">
    <path d="M 100.041733 143.306558 
L 100.747537 138.511492 
L 100.79566 138.838433 
L 106.169399 174.614992 
L 106.474178 175.255399 
L 106.666671 175.295149 
L 106.859163 175.066829 
L 107.13186 174.307566 
L 107.500803 172.520965 
L 108.431182 166.26155 
L 127.231247 39.312202 
L 127.872887 36.829203 
L 128.402241 35.568035 
L 128.851389 35.014835 
L 129.220332 34.882275 
L 129.557193 34.992421 
L 129.942178 35.36528 
L 130.423408 36.16567 
L 131.032966 37.646706 
L 131.818976 40.199578 
L 132.82956 44.300685 
L 134.273251 51.185964 
L 138.716611 72.971364 
L 140.096138 78.354825 
L 141.299214 82.202387 
L 142.390002 84.976699 
L 143.384545 86.924558 
L 144.298883 88.252113 
L 145.165097 89.13226 
L 145.983189 89.658428 
L 146.785239 89.918644 
L 147.619372 89.955557 
L 148.53371 89.764871 
L 149.576375 89.310322 
L 150.875697 88.484515 
L 152.720413 87.020241 
L 157.548758 83.085636 
L 159.505761 81.837762 
L 161.334436 80.93002 
L 163.163112 80.268952 
L 165.055951 79.821087 
L 167.1092 79.56697 
L 169.515352 79.504006 
L 173.076457 79.642169 
L 178.353949 80.092931 
L 188.957058 81.035276 
L 193.961853 81.136796 
L 197.394629 81.035568 
L 198.806238 80.704702 
L 200.426381 80.090791 
L 202.255056 79.148887 
L 204.70933 77.613563 
L 213.082738 72.178667 
L 216.082407 70.620339 
L 219.483102 69.113744 
L 225.370153 66.80112 
L 231.914885 64.136789 
L 238.379413 61.2422 
L 245.694114 57.737688 
L 254.644998 53.055137 
L 263.210898 48.709213 
L 278.305489 41.140977 
L 300.746864 29.097766 
L 313.403222 22.58733 
L 315.44043 21.893306 
L 317.397434 21.464412 
L 319.306314 21.277412 
L 321.199153 21.313051 
L 323.188239 21.571724 
L 325.385857 22.087711 
L 327.920337 22.918478 
L 331.208744 24.246793 
L 341.651442 28.627867 
L 345.132342 29.743678 
L 348.388667 30.554849 
L 351.77332 31.165505 
L 355.350466 31.585864 
L 359.777785 31.875844 
L 366.899994 32.086867 
L 374.198654 32.393774 
L 379.315736 32.833325 
L 384.44886 33.501095 
L 388.763892 34.221896 
L 388.763892 34.221896 
" clip-path="url(#p9b34609717)" style="fill: none; stroke: #3e915b; stroke-width: 1.5; stroke-linecap: square"/>
   </g>
   <g id="line2d_12">
    <path d="M 100.041733 143.306558 
L 100.747537 138.511509 
L 100.79566 138.83845 
L 104.068027 160.314445 
L 104.388847 160.99201 
L 104.59738 161.036632 
L 104.789872 160.81934 
L 105.062569 160.117383 
L 105.447554 158.417047 
L 106.041071 154.591975 
L 113.371813 105.54499 
L 114.077618 102.613871 
L 114.687176 100.936825 
L 115.200488 100.100908 
L 115.633596 99.77962 
L 116.002539 99.766457 
L 116.371482 99.979983 
L 116.820631 100.52673 
L 117.366025 101.580484 
L 118.039747 103.409809 
L 118.87388 106.365071 
L 119.948628 111.063829 
L 121.424401 118.617669 
L 126.589606 145.93313 
L 127.824764 150.945043 
L 128.755143 153.854946 
L 129.541152 155.62672 
L 130.230916 156.666007 
L 130.840474 157.210476 
L 131.40191 157.432375 
L 131.963345 157.418869 
L 132.572903 157.177117 
L 133.31079 156.628407 
L 134.25721 155.621952 
L 135.620696 153.811065 
L 143.320381 143.055021 
L 146.881485 138.703469 
L 149.528252 135.791829 
L 151.597543 133.83181 
L 153.378095 132.442939 
L 154.982196 131.46488 
L 156.506092 130.791082 
L 157.997906 130.373605 
L 159.48972 130.185771 
L 161.045698 130.214035 
L 162.746045 130.472477 
L 164.670967 130.99679 
L 167.061077 131.891059 
L 170.509895 133.440538 
L 179.348492 137.537058 
L 182.604817 138.717146 
L 186.101758 139.73915 
L 192.758777 141.412925 
L 198.437295 142.877979 
L 200.025355 143.619386 
L 201.645497 144.626726 
L 203.490214 146.047066 
L 205.944488 148.241751 
L 215.055783 156.638567 
L 218.969789 159.790479 
L 223.589601 163.216906 
L 229.236036 167.11893 
L 237.432993 172.482103 
L 246.993436 178.786296 
L 253.217348 183.263776 
L 268.327981 194.184187 
L 279.155663 201.992514 
L 297.811359 215.826391 
L 312.649294 226.464004 
L 315.135651 227.99128 
L 317.237023 229.027576 
L 319.226109 229.762968 
L 321.183112 230.249354 
L 323.172198 230.513528 
L 325.257529 230.563966 
L 327.519312 230.393416 
L 330.069832 229.972945 
L 333.213871 229.217534 
L 338.715937 227.620191 
L 343.528241 226.33023 
L 346.928935 225.648618 
L 350.040891 225.249373 
L 353.104724 225.080347 
L 356.264804 225.128953 
L 359.793826 225.410958 
L 364.076776 225.99125 
L 372.771004 227.469073 
L 378.465563 228.29316 
L 383.197661 228.751666 
L 387.865595 228.97479 
L 388.763892 228.992779 
L 388.763892 228.992779 
" clip-path="url(#p9b34609717)" style="fill: none; stroke: #8eac56; stroke-width: 1.5; stroke-linecap: square"/>
   </g>
   <g id="line2d_13">
    <path d="M 100.041733 143.306555 
L 100.747537 138.511404 
L 100.79566 138.838341 
L 105.287144 168.606161 
L 106.008989 171.52446 
L 106.666671 173.335563 
L 107.244147 174.337206 
L 107.757459 174.815005 
L 108.254731 174.980118 
L 108.848248 174.927881 
L 111.238359 174.460083 
L 111.928122 174.684689 
L 112.601845 175.138982 
L 113.32369 175.911346 
L 114.157823 177.148673 
L 115.152365 179.043007 
L 116.435646 182.007508 
L 118.825757 188.223706 
L 120.686514 192.759492 
L 121.88959 195.139392 
L 122.852051 196.588483 
L 123.670142 197.447197 
L 124.375947 197.888762 
L 125.017587 198.039034 
L 125.627146 197.956014 
L 126.252745 197.641506 
L 126.942509 197.029863 
L 127.744559 195.999793 
L 128.690979 194.403145 
L 129.66948 192.314207 
L 130.696105 189.575339 
L 131.851058 185.828523 
L 133.294749 180.330882 
L 135.941516 169.153207 
L 138.203298 160.052289 
L 139.791359 154.545321 
L 141.170885 150.521713 
L 142.438125 147.480849 
L 143.62516 145.189534 
L 144.748031 143.488675 
L 145.822779 142.250266 
L 146.865444 141.376348 
L 147.90811 140.787619 
L 148.966817 140.443149 
L 150.089688 140.314242 
L 151.324845 140.402746 
L 152.752495 140.73799 
L 154.517007 141.393838 
L 157.147733 142.636814 
L 162.200651 145.040828 
L 164.71909 145.966676 
L 167.012954 146.57572 
L 169.210573 146.932945 
L 171.311945 147.044704 
L 173.653933 146.942265 
L 176.332782 146.59684 
L 179.508902 145.955301 
L 183.631442 144.881162 
L 188.443745 143.410322 
L 196.095308 141.076393 
L 197.779614 140.483421 
L 199.864945 139.471554 
L 203.778952 137.285215 
L 212.810041 132.064772 
L 216.194694 129.753767 
L 220.156824 126.762792 
L 227.840469 120.606497 
L 235.973261 114.225961 
L 269.146072 88.701236 
L 277.054291 82.254489 
L 303.85882 59.752944 
L 313.53155 51.712251 
L 316.06603 49.997141 
L 318.680714 48.501192 
L 321.327481 47.246221 
L 323.958207 46.24367 
L 326.653097 45.459014 
L 329.347987 44.905836 
L 332.25141 44.541274 
L 335.555858 44.360401 
L 339.951095 44.367849 
L 350.377752 44.460554 
L 354.532374 44.209502 
L 358.59075 43.731201 
L 362.71329 43.015546 
L 367.397265 41.975129 
L 374.824253 40.062252 
L 383.887425 37.789651 
L 388.763892 36.747875 
L 388.763892 36.747875 
" clip-path="url(#p9b34609717)" style="fill: none; stroke: #c4a46f; stroke-width: 1.5; stroke-linecap: square"/>
   </g>
   <g id="patch_3">
    <path d="M 85.605625 241.036875 
L 85.605625 10.8 
" style="fill: none; stroke: #000000; stroke-width: 0.8; stroke-linejoin: miter; stroke-linecap: square"/>
   </g>
   <g id="patch_4">
    <path d="M 403.2 241.036875 
L 403.2 10.8 
" style="fill: none; stroke: #000000; stroke-width: 0.8; stroke-linejoin: miter; stroke-linecap: square"/>
   </g>
   <g id="patch_5">
    <path d="M 85.605625 241.036875 
L 403.2 241.036875 
" style="fill: none; stroke: #000000; stroke-width: 0.8; stroke-linejoin: miter; stroke-linecap: square"/>
   </g>
   <g id="patch_6">
    <path d="M 85.605625 10.8 
L 403.2 10.8 
" style="fill: none; stroke: #000000; stroke-width: 0.8; stroke-linejoin: miter; stroke-linecap: square"/>
   </g>
   <g id="legend_1">
    <g id="patch_7">
     <path d="M 356.85 70.84125 
L 396.9 70.84125 
Q 398.7 70.84125 398.7 69.04125 
L 398.7 17.1 
Q 398.7 15.3 396.9 15.3 
L 356.85 15.3 
Q 355.05 15.3 355.05 17.1 
L 355.05 69.04125 
Q 355.05 70.84125 356.85 70.84125 
z
" style="fill: #ffffff; opacity: 0.8; stroke: #cccccc; stroke-linejoin: miter"/>
    </g>
    <g id="line2d_14">
     <path d="M 358.65 22.588594 
L 367.65 22.588594 
L 376.65 22.588594 
" style="fill: none; stroke: #225e7c; stroke-width: 1.5; stroke-linecap: square"/>
    </g>
    <g id="text_12">
     <!-- $\Omega_{0}$ -->
     <g transform="translate(383.85 25.738594) scale(0.09 -0.09)">
      <defs>
       <path id="DejaVuSans-3a9" d="M 4647 556 
L 4647 0 
L 2772 0 
L 2772 556 
Q 3325 859 3634 1378 
Q 3944 1897 3944 2528 
Q 3944 3278 3531 3731 
Q 3119 4184 2444 4184 
Q 1769 4184 1355 3729 
Q 941 3275 941 2528 
Q 941 1897 1250 1378 
Q 1563 859 2119 556 
L 2119 0 
L 244 0 
L 244 556 
L 1241 556 
Q 747 991 519 1456 
Q 294 1922 294 2497 
Q 294 3491 894 4106 
Q 1491 4722 2444 4722 
Q 3391 4722 3994 4106 
Q 4594 3494 4594 2528 
Q 4594 1922 4372 1459 
Q 4150 997 3647 556 
L 4647 556 
z
" transform="scale(0.015625)"/>
      </defs>
      <use xlink:href="#DejaVuSans-3a9" transform="translate(0 0.21875)"/>
      <use xlink:href="#DejaVuSans-30" transform="translate(77.373047 -16.1875) scale(0.7)"/>
     </g>
    </g>
    <g id="line2d_15">
     <path d="M 358.65 35.798906 
L 367.65 35.798906 
L 376.65 35.798906 
" style="fill: none; stroke: #3e915b; stroke-width: 1.5; stroke-linecap: square"/>
    </g>
    <g id="text_13">
     <!-- $\Omega_{1}$ -->
     <g transform="translate(383.85 38.948906) scale(0.09 -0.09)">
      <use xlink:href="#DejaVuSans-3a9" transform="translate(0 0.21875)"/>
      <use xlink:href="#DejaVuSans-31" transform="translate(77.373047 -16.1875) scale(0.7)"/>
     </g>
    </g>
    <g id="line2d_16">
     <path d="M 358.65 49.009219 
L 367.65 49.009219 
L 376.65 49.009219 
" style="fill: none; stroke: #8eac56; stroke-width: 1.5; stroke-linecap: square"/>
    </g>
    <g id="text_14">
     <!-- $\Omega_{2}$ -->
     <g transform="translate(383.85 52.159219) scale(0.09 -0.09)">
      <use xlink:href="#DejaVuSans-3a9" transform="translate(0 0.21875)"/>
      <use xlink:href="#DejaVuSans-32" transform="translate(77.373047 -16.1875) scale(0.7)"/>
     </g>
    </g>
    <g id="line2d_17">
     <path d="M 358.65 62.219531 
L 367.65 62.219531 
L 376.65 62.219531 
" style="fill: none; stroke: #c4a46f; stroke-width: 1.5; stroke-linecap: square"/>
    </g>
    <g id="text_15">
     <!-- $\Omega_{3}$ -->
     <g transform="translate(383.85 65.369531) scale(0.09 -0.09)">
      <use xlink:href="#DejaVuSans-3a9" transform="translate(0 0.21875)"/>
      <use xlink:href="#DejaVuSans-33" transform="translate(77.373047 -16.1875) scale(0.7)"/>
     </g>
    </g>
   </g>
  </g>
 </g>
 <defs>
  <clipPath id="p9b34609717">
   <rect x="85.605625" y="10.8" width="317.594375" height="230.236875"/>
  </clipPath>
 </defs>
</svg>
