<?xml version="1.0" encoding="utf-8" standalone="no"?>
<!DOCTYPE svg PUBLIC "-//W3C//DTD SVG 1.1//EN"
  "http://www.w3.org/Graphics/SVG/1.1/DTD/svg11.dtd">
<svg xmlns:xlink="http://www.w3.org/1999/xlink" width="504pt" height="288pt" viewBox="0 0 504 288" xmlns="http://www.w3.org/2000/svg" version="1.1">
 <metadata>
  <rdf:RDF xmlns:dc="http://purl.org/dc/elements/1.1/" xmlns:cc="http://creativecommons.org/ns#" xmlns:rdf="http://www.w3.org/1999/02/22-rdf-syntax-ns#">
   <cc:Work>
    <dc:type rdf:resource="http://purl.org/dc/dcmitype/StillImage"/>
    <dc:date>2026-01-09T21:00:27.923799</dc:date>
    <dc:format>image/svg+xml</dc:format>
    <dc:creator>
     <cc:Agent>
      <dc:title>Matplotlib v3.10.7, https://matplotlib.org/</dc:title>
     </cc:Agent>
    </dc:creator>
   </cc:Work>
  </rdf:RDF>
 </metadata>
 <defs>
  <style type="text/css">*{stroke-linejoin: round; stroke-linecap: butt}</style>
 </defs>
 <g id="figure_1">
  <g id="patch_1">
   <path d="M 0 288 
L 504 288 
L 504 0 
L 0 0 
L 0 288 
z
" style="fill: none"/>
  </g>
  <g id="axes_1">
   <g id="patch_2">
    <path d="M 94.12 218.623125 
L 470.9475 218.623125 
L 470.9475 45.83625 
L 94.12 45.83625 
L 94.12 218.623125 
z
" style="fill: none"/>
   </g>
   <g id="matplotlib.axis_1">
    <g id="xtick_1">
     <g id="line2d_1">
      <defs>
       <path id="m645375e3cd" d="M 0 0 
L 0 3.5 
" style="stroke: #000000; stroke-width: 0.8"/>
      </defs>
      <g>
       <use xlink:href="#m645375e3cd" x="94.12" y="218.623125" style="stroke: #000000; stroke-width: 0.8"/>
      </g>
     </g>
     <g id="text_1">
      <!-- 0 -->
      <g transform="translate(88.39375 239.300312) scale(0.18 -0.18)">
       <defs>
        <path id="DejaVuSerif-30" d="M 2034 219 
Q 2513 219 2750 744 
Q 2988 1269 2988 2328 
Q 2988 3391 2750 3916 
Q 2513 4441 2034 4441 
Q 1556 4441 1318 3916 
Q 1081 3391 1081 2328 
Q 1081 1269 1318 744 
Q 1556 219 2034 219 
z
M 2034 -91 
Q 1275 -91 848 546 
Q 422 1184 422 2328 
Q 422 3475 848 4112 
Q 1275 4750 2034 4750 
Q 2797 4750 3222 4112 
Q 3647 3475 3647 2328 
Q 3647 1184 3222 546 
Q 2797 -91 2034 -91 
z
" transform="scale(0.015625)"/>
       </defs>
       <use xlink:href="#DejaVuSerif-30"/>
      </g>
     </g>
    </g>
    <g id="xtick_2">
     <g id="line2d_2">
      <g>
       <use xlink:href="#m645375e3cd" x="219.729167" y="218.623125" style="stroke: #000000; stroke-width: 0.8"/>
      </g>
     </g>
     <g id="text_2">
      <!-- 20 -->
      <g transform="translate(208.276667 239.300312) scale(0.18 -0.18)">
       <defs>
        <path id="DejaVuSerif-32" d="M 819 3553 
L 469 3553 
L 469 4384 
Q 803 4563 1142 4656 
Q 1481 4750 1806 4750 
Q 2534 4750 2956 4397 
Q 3378 4044 3378 3438 
Q 3378 2753 2422 1800 
Q 2347 1728 2309 1691 
L 1131 513 
L 3078 513 
L 3078 1088 
L 3444 1088 
L 3444 0 
L 434 0 
L 434 341 
L 1850 1753 
Q 2319 2222 2519 2614 
Q 2719 3006 2719 3438 
Q 2719 3909 2473 4175 
Q 2228 4441 1797 4441 
Q 1350 4441 1106 4219 
Q 863 3997 819 3553 
z
" transform="scale(0.015625)"/>
       </defs>
       <use xlink:href="#DejaVuSerif-32"/>
       <use xlink:href="#DejaVuSerif-30" transform="translate(63.623047 0)"/>
      </g>
     </g>
    </g>
    <g id="xtick_3">
     <g id="line2d_3">
      <g>
       <use xlink:href="#m645375e3cd" x="345.338333" y="218.623125" style="stroke: #000000; stroke-width: 0.8"/>
      </g>
     </g>
     <g id="text_3">
      <!-- 40 -->
      <g transform="translate(333.885833 239.300312) scale(0.18 -0.18)">
       <defs>
        <path id="DejaVuSerif-34" d="M 2234 1581 
L 2234 4063 
L 641 1581 
L 2234 1581 
z
M 3609 0 
L 1484 0 
L 1484 331 
L 2234 331 
L 2234 1247 
L 197 1247 
L 197 1588 
L 2241 4750 
L 2859 4750 
L 2859 1581 
L 3750 1581 
L 3750 1247 
L 2859 1247 
L 2859 331 
L 3609 331 
L 3609 0 
z
" transform="scale(0.015625)"/>
       </defs>
       <use xlink:href="#DejaVuSerif-34"/>
       <use xlink:href="#DejaVuSerif-30" transform="translate(63.623047 0)"/>
      </g>
     </g>
    </g>
    <g id="xtick_4">
     <g id="line2d_4">
      <g>
       <use xlink:href="#m645375e3cd" x="470.9475" y="218.623125" style="stroke: #000000; stroke-width: 0.8"/>
      </g>
     </g>
     <g id="text_4">
      <!-- 60 -->
      <g transform="translate(459.495 239.300312) scale(0.18 -0.18)">
       <defs>
        <path id="DejaVuSerif-36" d="M 2094 219 
Q 2534 219 2771 542 
Q 3009 866 3009 1472 
Q 3009 2078 2771 2401 
Q 2534 2725 2094 2725 
Q 1647 2725 1412 2412 
Q 1178 2100 1178 1509 
Q 1178 888 1415 553 
Q 1653 219 2094 219 
z
M 1075 2569 
Q 1288 2803 1556 2918 
Q 1825 3034 2163 3034 
Q 2859 3034 3264 2615 
Q 3669 2197 3669 1472 
Q 3669 763 3233 336 
Q 2797 -91 2069 -91 
Q 1278 -91 853 498 
Q 428 1088 428 2181 
Q 428 3406 931 4078 
Q 1434 4750 2350 4750 
Q 2597 4750 2869 4703 
Q 3141 4656 3425 4563 
L 3425 3794 
L 3072 3794 
Q 3034 4109 2831 4275 
Q 2628 4441 2284 4441 
Q 1678 4441 1381 3981 
Q 1084 3522 1075 2569 
z
" transform="scale(0.015625)"/>
       </defs>
       <use xlink:href="#DejaVuSerif-36"/>
       <use xlink:href="#DejaVuSerif-30" transform="translate(63.623047 0)"/>
      </g>
     </g>
    </g>
    <g id="text_5">
     <!-- time (seconds) -->
     <g transform="translate(208.29 262.240625) scale(0.2 -0.2)">
      <defs>
       <path id="DejaVuSerif-74" d="M 691 2988 
L 184 2988 
L 184 3322 
L 691 3322 
L 691 4353 
L 1269 4353 
L 1269 3322 
L 2350 3322 
L 2350 2988 
L 1269 2988 
L 1269 878 
Q 1269 456 1350 337 
Q 1431 219 1650 219 
Q 1875 219 1978 351 
Q 2081 484 2088 781 
L 2522 781 
Q 2497 328 2275 118 
Q 2053 -91 1600 -91 
Q 1103 -91 897 129 
Q 691 350 691 878 
L 691 2988 
z
" transform="scale(0.015625)"/>
       <path id="DejaVuSerif-69" d="M 622 4353 
Q 622 4497 726 4603 
Q 831 4709 978 4709 
Q 1122 4709 1226 4603 
Q 1331 4497 1331 4353 
Q 1331 4206 1228 4103 
Q 1125 4000 978 4000 
Q 831 4000 726 4103 
Q 622 4206 622 4353 
z
M 1356 331 
L 1900 331 
L 1900 0 
L 231 0 
L 231 331 
L 781 331 
L 781 2988 
L 231 2988 
L 231 3322 
L 1356 3322 
L 1356 331 
z
" transform="scale(0.015625)"/>
       <path id="DejaVuSerif-6d" d="M 3316 2675 
Q 3481 3041 3739 3227 
Q 3997 3413 4341 3413 
Q 4863 3413 5119 3089 
Q 5375 2766 5375 2113 
L 5375 331 
L 5894 331 
L 5894 0 
L 4300 0 
L 4300 331 
L 4800 331 
L 4800 2047 
Q 4800 2556 4650 2772 
Q 4500 2988 4153 2988 
Q 3769 2988 3567 2697 
Q 3366 2406 3366 1850 
L 3366 331 
L 3866 331 
L 3866 0 
L 2291 0 
L 2291 331 
L 2791 331 
L 2791 2069 
Q 2791 2566 2641 2777 
Q 2491 2988 2144 2988 
Q 1759 2988 1557 2697 
Q 1356 2406 1356 1850 
L 1356 331 
L 1856 331 
L 1856 0 
L 263 0 
L 263 331 
L 781 331 
L 781 2994 
L 231 2994 
L 231 3322 
L 1356 3322 
L 1356 2731 
Q 1516 3063 1762 3238 
Q 2009 3413 2322 3413 
Q 2709 3413 2968 3220 
Q 3228 3028 3316 2675 
z
" transform="scale(0.015625)"/>
       <path id="DejaVuSerif-65" d="M 3469 1600 
L 991 1600 
L 991 1575 
Q 991 903 1244 561 
Q 1497 219 1991 219 
Q 2369 219 2611 417 
Q 2853 616 2950 1006 
L 3413 1006 
Q 3275 459 2904 184 
Q 2534 -91 1931 -91 
Q 1203 -91 761 389 
Q 319 869 319 1663 
Q 319 2450 753 2931 
Q 1188 3413 1894 3413 
Q 2647 3413 3050 2948 
Q 3453 2484 3469 1600 
z
M 2791 1931 
Q 2772 2513 2545 2808 
Q 2319 3103 1894 3103 
Q 1497 3103 1269 2806 
Q 1041 2509 991 1931 
L 2791 1931 
z
" transform="scale(0.015625)"/>
       <path id="DejaVuSerif-20" transform="scale(0.015625)"/>
       <path id="DejaVuSerif-28" d="M 2041 -997 
Q 1281 -656 893 83 
Q 506 822 506 1931 
Q 506 3044 893 3783 
Q 1281 4522 2041 4863 
L 2041 4556 
Q 1559 4225 1350 3623 
Q 1141 3022 1141 1931 
Q 1141 844 1350 242 
Q 1559 -359 2041 -691 
L 2041 -997 
z
" transform="scale(0.015625)"/>
       <path id="DejaVuSerif-73" d="M 359 184 
L 359 959 
L 691 959 
Q 703 588 923 403 
Q 1144 219 1575 219 
Q 1963 219 2166 364 
Q 2369 509 2369 788 
Q 2369 1006 2220 1140 
Q 2072 1275 1594 1428 
L 1178 1569 
Q 750 1706 558 1912 
Q 366 2119 366 2438 
Q 366 2894 700 3153 
Q 1034 3413 1625 3413 
Q 1888 3413 2178 3344 
Q 2469 3275 2778 3144 
L 2778 2419 
L 2447 2419 
Q 2434 2741 2221 2922 
Q 2009 3103 1644 3103 
Q 1281 3103 1095 2975 
Q 909 2847 909 2591 
Q 909 2381 1050 2254 
Q 1191 2128 1613 1997 
L 2069 1856 
Q 2541 1709 2748 1489 
Q 2956 1269 2956 922 
Q 2956 450 2595 179 
Q 2234 -91 1600 -91 
Q 1278 -91 972 -22 
Q 666 47 359 184 
z
" transform="scale(0.015625)"/>
       <path id="DejaVuSerif-63" d="M 3291 997 
Q 3169 466 2822 187 
Q 2475 -91 1925 -91 
Q 1200 -91 759 389 
Q 319 869 319 1663 
Q 319 2459 759 2936 
Q 1200 3413 1925 3413 
Q 2241 3413 2553 3339 
Q 2866 3266 3181 3116 
L 3181 2266 
L 2847 2266 
Q 2781 2703 2561 2903 
Q 2341 3103 1931 3103 
Q 1466 3103 1228 2742 
Q 991 2381 991 1663 
Q 991 944 1227 581 
Q 1463 219 1931 219 
Q 2303 219 2525 412 
Q 2747 606 2828 997 
L 3291 997 
z
" transform="scale(0.015625)"/>
       <path id="DejaVuSerif-6f" d="M 1925 219 
Q 2388 219 2623 584 
Q 2859 950 2859 1663 
Q 2859 2375 2623 2739 
Q 2388 3103 1925 3103 
Q 1463 3103 1227 2739 
Q 991 2375 991 1663 
Q 991 950 1228 584 
Q 1466 219 1925 219 
z
M 1925 -91 
Q 1200 -91 759 389 
Q 319 869 319 1663 
Q 319 2456 758 2934 
Q 1197 3413 1925 3413 
Q 2653 3413 3092 2934 
Q 3531 2456 3531 1663 
Q 3531 869 3092 389 
Q 2653 -91 1925 -91 
z
" transform="scale(0.015625)"/>
       <path id="DejaVuSerif-6e" d="M 263 0 
L 263 331 
L 781 331 
L 781 2988 
L 231 2988 
L 231 3322 
L 1356 3322 
L 1356 2731 
Q 1516 3069 1770 3241 
Q 2025 3413 2363 3413 
Q 2913 3413 3172 3097 
Q 3431 2781 3431 2113 
L 3431 331 
L 3944 331 
L 3944 0 
L 2356 0 
L 2356 331 
L 2853 331 
L 2853 1931 
Q 2853 2541 2703 2767 
Q 2553 2994 2175 2994 
Q 1775 2994 1565 2701 
Q 1356 2409 1356 1850 
L 1356 331 
L 1856 331 
L 1856 0 
L 263 0 
z
" transform="scale(0.015625)"/>
       <path id="DejaVuSerif-64" d="M 3359 331 
L 3909 331 
L 3909 0 
L 2784 0 
L 2784 519 
Q 2616 206 2355 57 
Q 2094 -91 1709 -91 
Q 1097 -91 708 395 
Q 319 881 319 1663 
Q 319 2444 706 2928 
Q 1094 3413 1709 3413 
Q 2094 3413 2355 3264 
Q 2616 3116 2784 2803 
L 2784 4531 
L 2241 4531 
L 2241 4863 
L 3359 4863 
L 3359 331 
z
M 2784 1497 
L 2784 1825 
Q 2784 2422 2554 2737 
Q 2325 3053 1888 3053 
Q 1444 3053 1217 2703 
Q 991 2353 991 1663 
Q 991 975 1217 622 
Q 1444 269 1888 269 
Q 2325 269 2554 583 
Q 2784 897 2784 1497 
z
" transform="scale(0.015625)"/>
       <path id="DejaVuSerif-29" d="M 453 -997 
L 453 -691 
Q 934 -359 1145 242 
Q 1356 844 1356 1931 
Q 1356 3022 1145 3623 
Q 934 4225 453 4556 
L 453 4863 
Q 1216 4522 1603 3783 
Q 1991 3044 1991 1931 
Q 1991 822 1603 83 
Q 1216 -656 453 -997 
z
" transform="scale(0.015625)"/>
      </defs>
      <use xlink:href="#DejaVuSerif-74"/>
      <use xlink:href="#DejaVuSerif-69" transform="translate(40.185547 0)"/>
      <use xlink:href="#DejaVuSerif-6d" transform="translate(72.167969 0)"/>
      <use xlink:href="#DejaVuSerif-65" transform="translate(166.992188 0)"/>
      <use xlink:href="#DejaVuSerif-20" transform="translate(226.171875 0)"/>
      <use xlink:href="#DejaVuSerif-28" transform="translate(257.958984 0)"/>
      <use xlink:href="#DejaVuSerif-73" transform="translate(296.972656 0)"/>
      <use xlink:href="#DejaVuSerif-65" transform="translate(348.291016 0)"/>
      <use xlink:href="#DejaVuSerif-63" transform="translate(407.470703 0)"/>
      <use xlink:href="#DejaVuSerif-6f" transform="translate(463.476562 0)"/>
      <use xlink:href="#DejaVuSerif-6e" transform="translate(523.681641 0)"/>
      <use xlink:href="#DejaVuSerif-64" transform="translate(588.085938 0)"/>
      <use xlink:href="#DejaVuSerif-73" transform="translate(652.099609 0)"/>
      <use xlink:href="#DejaVuSerif-29" transform="translate(703.417969 0)"/>
     </g>
    </g>
   </g>
   <g id="matplotlib.axis_2">
    <g id="ytick_1">
     <g id="line2d_5">
      <defs>
       <path id="mf453d4017b" d="M 0 0 
L -3.5 0 
" style="stroke: #000000; stroke-width: 0.8"/>
      </defs>
      <g>
       <use xlink:href="#mf453d4017b" x="94.12" y="200.554282" style="stroke: #000000; stroke-width: 0.8"/>
      </g>
     </g>
     <g id="text_6">
      <!-- $\mathdefault{10^{-7}}$ -->
      <g transform="translate(45 207.392875) scale(0.18 -0.18)">
       <defs>
        <path id="DejaVuSerif-31" d="M 909 0 
L 909 331 
L 1722 331 
L 1722 4213 
L 781 3603 
L 781 4013 
L 1919 4750 
L 2350 4750 
L 2350 331 
L 3163 331 
L 3163 0 
L 909 0 
z
" transform="scale(0.015625)"/>
        <path id="DejaVuSerif-2212" d="M 678 2259 
L 4684 2259 
L 4684 1753 
L 678 1753 
L 678 2259 
z
" transform="scale(0.015625)"/>
        <path id="DejaVuSerif-37" d="M 3609 4347 
L 1784 0 
L 1319 0 
L 3059 4153 
L 903 4153 
L 903 3578 
L 538 3578 
L 538 4666 
L 3609 4666 
L 3609 4347 
z
" transform="scale(0.015625)"/>
       </defs>
       <use xlink:href="#DejaVuSerif-31" transform="translate(0 0.63125)"/>
       <use xlink:href="#DejaVuSerif-30" transform="translate(63.623047 0.63125)"/>
       <use xlink:href="#DejaVuSerif-2212" transform="translate(128.154453 36.965625) scale(0.7)"/>
       <use xlink:href="#DejaVuSerif-37" transform="translate(186.806797 36.965625) scale(0.7)"/>
      </g>
     </g>
    </g>
    <g id="ytick_2">
     <g id="line2d_6">
      <g>
       <use xlink:href="#mf453d4017b" x="94.12" y="110.262352" style="stroke: #000000; stroke-width: 0.8"/>
      </g>
     </g>
     <g id="text_7">
      <!-- $\mathdefault{10^{-6}}$ -->
      <g transform="translate(45 117.100946) scale(0.18 -0.18)">
       <use xlink:href="#DejaVuSerif-31" transform="translate(0 0.7125)"/>
       <use xlink:href="#DejaVuSerif-30" transform="translate(63.623047 0.7125)"/>
       <use xlink:href="#DejaVuSerif-2212" transform="translate(128.154453 37.046875) scale(0.7)"/>
       <use xlink:href="#DejaVuSerif-36" transform="translate(186.806797 37.046875) scale(0.7)"/>
      </g>
     </g>
    </g>
    <g id="ytick_3">
     <g id="line2d_7">
      <defs>
       <path id="m79464abe47" d="M 0 0 
L -2 0 
" style="stroke: #000000; stroke-width: 0.6"/>
      </defs>
      <g>
       <use xlink:href="#m79464abe47" x="94.12" y="214.540678" style="stroke: #000000; stroke-width: 0.6"/>
      </g>
     </g>
    </g>
    <g id="ytick_4">
     <g id="line2d_8">
      <g>
       <use xlink:href="#m79464abe47" x="94.12" y="209.304474" style="stroke: #000000; stroke-width: 0.6"/>
      </g>
     </g>
    </g>
    <g id="ytick_5">
     <g id="line2d_9">
      <g>
       <use xlink:href="#m79464abe47" x="94.12" y="204.685814" style="stroke: #000000; stroke-width: 0.6"/>
      </g>
     </g>
    </g>
    <g id="ytick_6">
     <g id="line2d_10">
      <g>
       <use xlink:href="#m79464abe47" x="94.12" y="173.373702" style="stroke: #000000; stroke-width: 0.6"/>
      </g>
     </g>
    </g>
    <g id="ytick_7">
     <g id="line2d_11">
      <g>
       <use xlink:href="#m79464abe47" x="94.12" y="157.474083" style="stroke: #000000; stroke-width: 0.6"/>
      </g>
     </g>
    </g>
    <g id="ytick_8">
     <g id="line2d_12">
      <g>
       <use xlink:href="#m79464abe47" x="94.12" y="146.193123" style="stroke: #000000; stroke-width: 0.6"/>
      </g>
     </g>
    </g>
    <g id="ytick_9">
     <g id="line2d_13">
      <g>
       <use xlink:href="#m79464abe47" x="94.12" y="137.442931" style="stroke: #000000; stroke-width: 0.6"/>
      </g>
     </g>
    </g>
    <g id="ytick_10">
     <g id="line2d_14">
      <g>
       <use xlink:href="#m79464abe47" x="94.12" y="130.293504" style="stroke: #000000; stroke-width: 0.6"/>
      </g>
     </g>
    </g>
    <g id="ytick_11">
     <g id="line2d_15">
      <g>
       <use xlink:href="#m79464abe47" x="94.12" y="124.248749" style="stroke: #000000; stroke-width: 0.6"/>
      </g>
     </g>
    </g>
    <g id="ytick_12">
     <g id="line2d_16">
      <g>
       <use xlink:href="#m79464abe47" x="94.12" y="119.012544" style="stroke: #000000; stroke-width: 0.6"/>
      </g>
     </g>
    </g>
    <g id="ytick_13">
     <g id="line2d_17">
      <g>
       <use xlink:href="#m79464abe47" x="94.12" y="114.393884" style="stroke: #000000; stroke-width: 0.6"/>
      </g>
     </g>
    </g>
    <g id="ytick_14">
     <g id="line2d_18">
      <g>
       <use xlink:href="#m79464abe47" x="94.12" y="83.081773" style="stroke: #000000; stroke-width: 0.6"/>
      </g>
     </g>
    </g>
    <g id="ytick_15">
     <g id="line2d_19">
      <g>
       <use xlink:href="#m79464abe47" x="94.12" y="67.182153" style="stroke: #000000; stroke-width: 0.6"/>
      </g>
     </g>
    </g>
    <g id="ytick_16">
     <g id="line2d_20">
      <g>
       <use xlink:href="#m79464abe47" x="94.12" y="55.901194" style="stroke: #000000; stroke-width: 0.6"/>
      </g>
     </g>
    </g>
    <g id="ytick_17">
     <g id="line2d_21">
      <g>
       <use xlink:href="#m79464abe47" x="94.12" y="47.151001" style="stroke: #000000; stroke-width: 0.6"/>
      </g>
     </g>
    </g>
    <g id="text_8">
     <!-- relative connection position: $\psi$ (meters) -->
     <g transform="translate(36.8 332.829687) rotate(-90) scale(0.2 -0.2)">
      <defs>
       <path id="DejaVuSerif-72" d="M 3059 3328 
L 3059 2497 
L 2728 2497 
Q 2713 2744 2591 2866 
Q 2469 2988 2234 2988 
Q 1809 2988 1582 2694 
Q 1356 2400 1356 1850 
L 1356 331 
L 2022 331 
L 2022 0 
L 263 0 
L 263 331 
L 781 331 
L 781 2994 
L 231 2994 
L 231 3322 
L 1356 3322 
L 1356 2731 
Q 1525 3078 1790 3245 
Q 2056 3413 2438 3413 
Q 2578 3413 2733 3391 
Q 2888 3369 3059 3328 
z
" transform="scale(0.015625)"/>
       <path id="DejaVuSerif-6c" d="M 1313 331 
L 1856 331 
L 1856 0 
L 184 0 
L 184 331 
L 738 331 
L 738 4531 
L 184 4531 
L 184 4863 
L 1313 4863 
L 1313 331 
z
" transform="scale(0.015625)"/>
       <path id="DejaVuSerif-61" d="M 2547 1044 
L 2547 1747 
L 1806 1747 
Q 1378 1747 1168 1562 
Q 959 1378 959 997 
Q 959 650 1171 447 
Q 1384 244 1747 244 
Q 2106 244 2326 466 
Q 2547 688 2547 1044 
z
M 3122 2075 
L 3122 331 
L 3634 331 
L 3634 0 
L 2547 0 
L 2547 359 
Q 2356 128 2106 18 
Q 1856 -91 1522 -91 
Q 969 -91 644 203 
Q 319 497 319 997 
Q 319 1513 691 1797 
Q 1063 2081 1741 2081 
L 2547 2081 
L 2547 2309 
Q 2547 2688 2317 2895 
Q 2088 3103 1672 3103 
Q 1328 3103 1125 2947 
Q 922 2791 872 2484 
L 575 2484 
L 575 3156 
Q 875 3284 1158 3348 
Q 1441 3413 1709 3413 
Q 2400 3413 2761 3070 
Q 3122 2728 3122 2075 
z
" transform="scale(0.015625)"/>
       <path id="DejaVuSerif-76" d="M 1581 0 
L 359 2988 
L -19 2988 
L -19 3322 
L 1509 3322 
L 1509 2988 
L 978 2988 
L 1913 703 
L 2847 2988 
L 2350 2988 
L 2350 3322 
L 3597 3322 
L 3597 2988 
L 3225 2988 
L 2003 0 
L 1581 0 
z
" transform="scale(0.015625)"/>
       <path id="DejaVuSerif-70" d="M 1313 1825 
L 1313 1497 
Q 1313 897 1542 583 
Q 1772 269 2209 269 
Q 2650 269 2876 622 
Q 3103 975 3103 1663 
Q 3103 2353 2876 2703 
Q 2650 3053 2209 3053 
Q 1772 3053 1542 2737 
Q 1313 2422 1313 1825 
z
M 738 2988 
L 184 2988 
L 184 3322 
L 1313 3322 
L 1313 2803 
Q 1481 3116 1742 3264 
Q 2003 3413 2388 3413 
Q 3000 3413 3387 2928 
Q 3775 2444 3775 1663 
Q 3775 881 3387 395 
Q 3000 -91 2388 -91 
Q 2003 -91 1742 57 
Q 1481 206 1313 519 
L 1313 -997 
L 1856 -997 
L 1856 -1331 
L 184 -1331 
L 184 -997 
L 738 -997 
L 738 2988 
z
" transform="scale(0.015625)"/>
       <path id="DejaVuSerif-3a" d="M 666 325 
Q 666 500 786 622 
Q 906 744 1081 744 
Q 1256 744 1376 622 
Q 1497 500 1497 325 
Q 1497 150 1378 29 
Q 1259 -91 1081 -91 
Q 903 -91 784 29 
Q 666 150 666 325 
z
M 666 2363 
Q 666 2538 786 2658 
Q 906 2778 1081 2778 
Q 1259 2778 1378 2659 
Q 1497 2541 1497 2363 
Q 1497 2184 1378 2065 
Q 1259 1947 1081 1947 
Q 906 1947 786 2067 
Q 666 2188 666 2363 
z
" transform="scale(0.015625)"/>
       <path id="DejaVuSans-Oblique-3c8" d="M 1591 -78 
Q 891 38 616 341 
Q 278 713 425 1472 
L 819 3500 
L 1400 3500 
L 1009 1494 
Q 900 922 1119 684 
Q 1313 478 1691 434 
L 2284 3500 
L 2856 3500 
L 2263 438 
Q 2681 481 2928 688 
Q 3247 950 3353 1497 
L 3741 3500 
L 4322 3500 
L 3928 1475 
Q 3775 688 3300 344 
Q 2872 34 2163 -75 
L 1919 -1331 
L 1347 -1331 
L 1591 -78 
z
" transform="scale(0.015625)"/>
      </defs>
      <use xlink:href="#DejaVuSerif-72" transform="translate(0 0.015625)"/>
      <use xlink:href="#DejaVuSerif-65" transform="translate(47.802734 0.015625)"/>
      <use xlink:href="#DejaVuSerif-6c" transform="translate(106.982422 0.015625)"/>
      <use xlink:href="#DejaVuSerif-61" transform="translate(138.964844 0.015625)"/>
      <use xlink:href="#DejaVuSerif-74" transform="translate(198.583984 0.015625)"/>
      <use xlink:href="#DejaVuSerif-69" transform="translate(238.769531 0.015625)"/>
      <use xlink:href="#DejaVuSerif-76" transform="translate(270.751953 0.015625)"/>
      <use xlink:href="#DejaVuSerif-65" transform="translate(327.246094 0.015625)"/>
      <use xlink:href="#DejaVuSerif-20" transform="translate(386.425781 0.015625)"/>
      <use xlink:href="#DejaVuSerif-63" transform="translate(418.212891 0.015625)"/>
      <use xlink:href="#DejaVuSerif-6f" transform="translate(474.21875 0.015625)"/>
      <use xlink:href="#DejaVuSerif-6e" transform="translate(534.423828 0.015625)"/>
      <use xlink:href="#DejaVuSerif-6e" transform="translate(598.828125 0.015625)"/>
      <use xlink:href="#DejaVuSerif-65" transform="translate(663.232422 0.015625)"/>
      <use xlink:href="#DejaVuSerif-63" transform="translate(722.412109 0.015625)"/>
      <use xlink:href="#DejaVuSerif-74" transform="translate(778.417969 0.015625)"/>
      <use xlink:href="#DejaVuSerif-69" transform="translate(818.603516 0.015625)"/>
      <use xlink:href="#DejaVuSerif-6f" transform="translate(850.585938 0.015625)"/>
      <use xlink:href="#DejaVuSerif-6e" transform="translate(910.791016 0.015625)"/>
      <use xlink:href="#DejaVuSerif-20" transform="translate(975.195312 0.015625)"/>
      <use xlink:href="#DejaVuSerif-70" transform="translate(1006.982422 0.015625)"/>
      <use xlink:href="#DejaVuSerif-6f" transform="translate(1070.996094 0.015625)"/>
      <use xlink:href="#DejaVuSerif-73" transform="translate(1131.201172 0.015625)"/>
      <use xlink:href="#DejaVuSerif-69" transform="translate(1182.519531 0.015625)"/>
      <use xlink:href="#DejaVuSerif-74" transform="translate(1214.501953 0.015625)"/>
      <use xlink:href="#DejaVuSerif-69" transform="translate(1254.6875 0.015625)"/>
      <use xlink:href="#DejaVuSerif-6f" transform="translate(1286.669922 0.015625)"/>
      <use xlink:href="#DejaVuSerif-6e" transform="translate(1346.875 0.015625)"/>
      <use xlink:href="#DejaVuSerif-3a" transform="translate(1411.279297 0.015625)"/>
      <use xlink:href="#DejaVuSerif-20" transform="translate(1444.970703 0.015625)"/>
      <use xlink:href="#DejaVuSans-Oblique-3c8" transform="translate(1476.757812 0.015625)"/>
      <use xlink:href="#DejaVuSerif-20" transform="translate(1542.724609 0.015625)"/>
      <use xlink:href="#DejaVuSerif-28" transform="translate(1574.511719 0.015625)"/>
      <use xlink:href="#DejaVuSerif-6d" transform="translate(1613.525391 0.015625)"/>
      <use xlink:href="#DejaVuSerif-65" transform="translate(1708.349609 0.015625)"/>
      <use xlink:href="#DejaVuSerif-74" transform="translate(1767.529297 0.015625)"/>
      <use xlink:href="#DejaVuSerif-65" transform="translate(1807.714844 0.015625)"/>
      <use xlink:href="#DejaVuSerif-72" transform="translate(1866.894531 0.015625)"/>
      <use xlink:href="#DejaVuSerif-73" transform="translate(1914.697266 0.015625)"/>
      <use xlink:href="#DejaVuSerif-29" transform="translate(1966.015625 0.015625)"/>
     </g>
    </g>
   </g>
   <g id="line2d_22">
    <path d="M 94.747186 289 
L 94.748046 166.178353 
L 95.376092 126.42734 
L 96.004138 108.36405 
L 96.632183 98.025065 
L 97.260229 91.085585 
L 98.516321 81.04454 
L 99.772413 73.241829 
L 101.028504 67.258012 
L 101.65655 64.960441 
L 102.284596 63.106969 
L 102.912642 61.695376 
L 103.540688 60.702581 
L 104.168733 60.078104 
L 104.796779 59.835108 
L 105.424825 59.976672 
L 106.052871 60.4147 
L 106.680917 61.138404 
L 107.937008 63.41539 
L 109.1931 66.461163 
L 112.961375 76.422028 
L 113.589421 77.594995 
L 114.217467 78.478034 
L 114.845513 79.083467 
L 115.473558 79.31501 
L 116.101604 79.281848 
L 116.72965 78.918912 
L 117.357696 78.315995 
L 118.613788 76.576411 
L 122.382063 70.300309 
L 123.638154 68.825757 
L 124.894246 67.885044 
L 125.522292 67.625639 
L 126.150338 67.490442 
L 127.406429 67.625639 
L 128.662521 68.183624 
L 129.918613 69.080472 
L 134.314933 72.663597 
L 135.571025 73.256039 
L 136.827117 73.527018 
L 138.083208 73.469814 
L 139.3393 73.114168 
L 141.851483 71.983541 
L 144.363667 70.817764 
L 145.619758 70.405898 
L 147.503896 70.116208 
L 149.388033 70.181859 
L 152.528263 70.871225 
L 155.668492 71.668353 
L 157.552629 71.914806 
L 158.808721 71.942285 
L 160.692858 71.832483 
L 163.205042 71.518502 
L 166.345271 71.085799 
L 169.4855 70.924758 
L 171.369638 70.951553 
L 180.790325 71.491317 
L 195.863425 71.261009 
L 200.887792 71.369221 
L 210.936525 71.261009 
L 296.978804 71.369221 
L 300.747079 71.34214 
L 304.515354 71.369221 
L 424.472108 71.464152 
L 427.612338 71.491317 
L 470.9475 71.518502 
L 470.9475 71.518502 
" clip-path="url(#p2de4d86daf)" style="fill: none; stroke: #1f77b4; stroke-width: 1.5; stroke-linecap: square"/>
   </g>
   <g id="line2d_23">
    <path d="M 94.747498 289 
L 94.748046 210.769176 
L 95.376092 171.284497 
L 96.004138 153.114664 
L 96.632183 142.784627 
L 97.260229 135.823977 
L 98.516321 125.689765 
L 99.772413 117.83188 
L 101.028504 111.817195 
L 101.65655 109.511494 
L 102.284596 107.657175 
L 102.912642 106.24756 
L 103.540688 105.262801 
L 104.168733 104.680435 
L 104.796779 104.490846 
L 105.424825 104.672517 
L 106.052871 105.166474 
L 106.680917 105.976527 
L 107.308963 107.046839 
L 108.565054 109.943799 
L 109.821146 113.515845 
L 112.333329 120.882125 
L 113.589421 123.659447 
L 114.217467 124.582461 
L 114.845513 125.178923 
L 115.473558 125.393203 
L 116.101604 125.219011 
L 116.72965 124.780275 
L 117.357696 124.046806 
L 118.613788 121.986797 
L 121.754017 115.961394 
L 123.010108 114.095461 
L 124.2662 112.798299 
L 125.522292 112.122358 
L 126.150338 112.007643 
L 127.406429 112.237409 
L 128.662521 112.934897 
L 129.918613 114.004957 
L 133.686888 117.677148 
L 134.942979 118.502018 
L 136.199071 118.978023 
L 136.827117 119.08078 
L 138.083208 118.921052 
L 139.3393 118.423242 
L 140.595392 117.798671 
L 143.735621 115.919184 
L 144.991713 115.374547 
L 146.247804 114.981272 
L 147.503896 114.857895 
L 148.759988 114.898978 
L 150.644125 115.291423 
L 151.900217 115.687837 
L 153.784354 116.322028 
L 156.296538 116.966644 
L 158.180675 117.162114 
L 160.064813 117.053399 
L 167.601363 115.813857 
L 170.741592 115.813857 
L 178.278142 116.471493 
L 183.302508 116.407367 
L 186.442738 116.151905 
L 188.326875 116.130691 
L 189.582967 116.067119 
L 195.863425 116.151905 
L 199.003654 116.258145 
L 202.143883 116.279428 
L 209.052388 116.130691 
L 211.564571 116.130691 
L 214.7048 116.130691 
L 470.9475 116.236874 
L 470.9475 116.236874 
" clip-path="url(#p2de4d86daf)" style="fill: none; stroke: #ff7f0e; stroke-width: 1.5; stroke-linecap: square"/>
   </g>
   <g id="line2d_24">
    <path d="M 94.747237 289 
L 94.748046 173.510593 
L 95.376092 128.06029 
L 96.004138 105.919276 
L 96.632183 93.641742 
L 97.260229 86.824378 
L 97.888275 83.494491 
L 98.516321 82.375725 
L 99.144367 82.627612 
L 100.400458 84.722203 
L 101.028504 85.725007 
L 101.65655 86.374966 
L 102.284596 86.663996 
L 102.912642 86.643994 
L 104.168733 86.137369 
L 105.424825 85.598245 
L 106.680917 85.433095 
L 107.937008 85.530158 
L 114.845513 86.975334 
L 116.72965 87.056082 
L 119.241833 86.904815 
L 127.406429 86.216408 
L 130.546658 86.305518 
L 134.314933 86.56409 
L 138.083208 86.70403 
L 146.87585 86.454486 
L 150.644125 86.444537 
L 158.808721 86.594035 
L 163.833088 86.574069 
L 173.253775 86.534167 
L 183.930554 86.594035 
L 190.211013 86.584051 
L 193.351242 86.594035 
L 200.259746 86.594035 
L 204.656067 86.624003 
L 211.564571 86.624003 
L 219.101121 86.633997 
L 293.210529 86.741599 
L 296.978804 86.751624 
L 303.259263 86.747864 
L 308.911675 86.751624 
L 313.936042 86.774188 
L 403.11855 86.869604 
L 406.886825 86.894752 
L 470.9475 86.935022 
L 470.9475 86.935022 
" clip-path="url(#p2de4d86daf)" style="fill: none; stroke: #2ca02c; stroke-width: 1.5; stroke-linecap: square"/>
   </g>
   <g id="line2d_25">
    <path d="M 94.747106 289 
L 94.748046 154.753517 
L 95.376092 112.626703 
L 96.004138 92.597023 
L 96.632183 81.251877 
L 97.260229 74.376294 
L 97.888275 70.030644 
L 98.516321 67.095363 
L 99.772413 62.917079 
L 101.65655 57.830687 
L 102.912642 55.334744 
L 103.540688 54.496754 
L 104.168733 53.941162 
L 104.796779 53.690199 
L 105.424825 53.761224 
L 106.052871 54.088871 
L 106.680917 54.66458 
L 107.937008 56.477019 
L 109.1931 58.872434 
L 112.333329 65.197143 
L 113.589421 66.958516 
L 114.217467 67.552135 
L 114.845513 67.956024 
L 115.473558 68.117793 
L 116.101604 68.097326 
L 116.72965 67.871319 
L 117.357696 67.481863 
L 118.613788 66.326096 
L 123.010108 61.250176 
L 124.2662 60.314027 
L 125.522292 59.806607 
L 126.150338 59.700157 
L 127.406429 59.804284 
L 128.662521 60.222551 
L 130.546658 61.303272 
L 133.686888 63.264033 
L 134.942979 63.811816 
L 136.199071 64.128168 
L 137.455163 64.20974 
L 138.711254 64.048079 
L 140.595392 63.533587 
L 144.363667 62.213361 
L 146.247804 61.808915 
L 147.503896 61.686903 
L 149.388033 61.739138 
L 152.528263 62.259709 
L 156.296538 62.931241 
L 158.180675 63.077836 
L 162.576996 62.814994 
L 166.973317 62.379291 
L 170.113546 62.288939 
L 182.674463 62.695497 
L 193.351242 62.510043 
L 210.936525 62.560507 
L 234.174221 62.619998 
L 237.942496 62.596944 
L 241.082725 62.610099 
L 249.875367 62.633162 
L 260.552146 62.624482 
L 278.765475 62.644247 
L 284.417888 62.652279 
L 293.838575 62.653124 
L 323.356729 62.689319 
L 327.75305 62.6982 
L 335.2896 62.696777 
L 340.942013 62.700373 
L 344.082242 62.692408 
L 347.850517 62.710313 
L 357.89925 62.714533 
L 360.411433 62.718099 
L 365.4358 62.726436 
L 470.9475 62.828178 
L 470.9475 62.828178 
" clip-path="url(#p2de4d86daf)" style="fill: none; stroke: #d62728; stroke-width: 1.5; stroke-linecap: square"/>
   </g>
   <g id="patch_3">
    <path d="M 94.12 218.623125 
L 94.12 45.83625 
" style="fill: none; stroke: #000000; stroke-width: 0.8; stroke-linejoin: miter; stroke-linecap: square"/>
   </g>
   <g id="patch_4">
    <path d="M 470.9475 218.623125 
L 470.9475 45.83625 
" style="fill: none; stroke: #000000; stroke-width: 0.8; stroke-linejoin: miter; stroke-linecap: square"/>
   </g>
   <g id="patch_5">
    <path d="M 94.12 218.623125 
L 470.9475 218.623125 
" style="fill: none; stroke: #000000; stroke-width: 0.8; stroke-linejoin: miter; stroke-linecap: square"/>
   </g>
   <g id="patch_6">
    <path d="M 94.12 45.83625 
L 470.9475 45.83625 
" style="fill: none; stroke: #000000; stroke-width: 0.8; stroke-linejoin: miter; stroke-linecap: square"/>
   </g>
   <g id="text_9">
    <!-- Direction Constraint Violation Components -->
    <g transform="translate(19.709375 39.83625) scale(0.24 -0.24)">
     <defs>
      <path id="DejaVuSerif-44" d="M 1581 331 
L 2163 331 
Q 3072 331 3558 850 
Q 4044 1369 4044 2338 
Q 4044 3306 3559 3818 
Q 3075 4331 2163 4331 
L 1581 4331 
L 1581 331 
z
M 353 0 
L 353 331 
L 947 331 
L 947 4331 
L 353 4331 
L 353 4666 
L 2209 4666 
Q 3416 4666 4089 4050 
Q 4763 3434 4763 2338 
Q 4763 1238 4088 619 
Q 3413 0 2209 0 
L 353 0 
z
" transform="scale(0.015625)"/>
      <path id="DejaVuSerif-43" d="M 4513 1234 
Q 4306 581 3820 245 
Q 3334 -91 2591 -91 
Q 2134 -91 1743 65 
Q 1353 222 1050 525 
Q 700 875 529 1320 
Q 359 1766 359 2328 
Q 359 3416 987 4083 
Q 1616 4750 2644 4750 
Q 3025 4750 3456 4650 
Q 3888 4550 4384 4347 
L 4384 3272 
L 4031 3272 
Q 3916 3859 3567 4137 
Q 3219 4416 2591 4416 
Q 1844 4416 1459 3886 
Q 1075 3356 1075 2328 
Q 1075 1303 1459 773 
Q 1844 244 2591 244 
Q 3113 244 3450 492 
Q 3788 741 3938 1234 
L 4513 1234 
z
" transform="scale(0.015625)"/>
      <path id="DejaVuSerif-56" d="M 1119 4331 
L 2497 750 
L 3872 4331 
L 3347 4331 
L 3347 4666 
L 4716 4666 
L 4716 4331 
L 4263 4331 
L 2597 0 
L 2059 0 
L 403 4331 
L -63 4331 
L -63 4666 
L 1638 4666 
L 1638 4331 
L 1119 4331 
z
" transform="scale(0.015625)"/>
     </defs>
     <use xlink:href="#DejaVuSerif-44"/>
     <use xlink:href="#DejaVuSerif-69" transform="translate(80.175781 0)"/>
     <use xlink:href="#DejaVuSerif-72" transform="translate(112.158203 0)"/>
     <use xlink:href="#DejaVuSerif-65" transform="translate(159.960938 0)"/>
     <use xlink:href="#DejaVuSerif-63" transform="translate(219.140625 0)"/>
     <use xlink:href="#DejaVuSerif-74" transform="translate(275.146484 0)"/>
     <use xlink:href="#DejaVuSerif-69" transform="translate(315.332031 0)"/>
     <use xlink:href="#DejaVuSerif-6f" transform="translate(347.314453 0)"/>
     <use xlink:href="#DejaVuSerif-6e" transform="translate(407.519531 0)"/>
     <use xlink:href="#DejaVuSerif-20" transform="translate(471.923828 0)"/>
     <use xlink:href="#DejaVuSerif-43" transform="translate(503.710938 0)"/>
     <use xlink:href="#DejaVuSerif-6f" transform="translate(580.224609 0)"/>
     <use xlink:href="#DejaVuSerif-6e" transform="translate(640.429688 0)"/>
     <use xlink:href="#DejaVuSerif-73" transform="translate(704.833984 0)"/>
     <use xlink:href="#DejaVuSerif-74" transform="translate(756.152344 0)"/>
     <use xlink:href="#DejaVuSerif-72" transform="translate(796.337891 0)"/>
     <use xlink:href="#DejaVuSerif-61" transform="translate(844.140625 0)"/>
     <use xlink:href="#DejaVuSerif-69" transform="translate(903.759766 0)"/>
     <use xlink:href="#DejaVuSerif-6e" transform="translate(935.742188 0)"/>
     <use xlink:href="#DejaVuSerif-74" transform="translate(1000.146484 0)"/>
     <use xlink:href="#DejaVuSerif-20" transform="translate(1040.332031 0)"/>
     <use xlink:href="#DejaVuSerif-56" transform="translate(1072.119141 0)"/>
     <use xlink:href="#DejaVuSerif-69" transform="translate(1142.585938 0)"/>
     <use xlink:href="#DejaVuSerif-6f" transform="translate(1174.568359 0)"/>
     <use xlink:href="#DejaVuSerif-6c" transform="translate(1234.773438 0)"/>
     <use xlink:href="#DejaVuSerif-61" transform="translate(1266.755859 0)"/>
     <use xlink:href="#DejaVuSerif-74" transform="translate(1326.375 0)"/>
     <use xlink:href="#DejaVuSerif-69" transform="translate(1366.560547 0)"/>
     <use xlink:href="#DejaVuSerif-6f" transform="translate(1398.542969 0)"/>
     <use xlink:href="#DejaVuSerif-6e" transform="translate(1458.748047 0)"/>
     <use xlink:href="#DejaVuSerif-20" transform="translate(1523.152344 0)"/>
     <use xlink:href="#DejaVuSerif-43" transform="translate(1554.939453 0)"/>
     <use xlink:href="#DejaVuSerif-6f" transform="translate(1631.453125 0)"/>
     <use xlink:href="#DejaVuSerif-6d" transform="translate(1691.658203 0)"/>
     <use xlink:href="#DejaVuSerif-70" transform="translate(1786.482422 0)"/>
     <use xlink:href="#DejaVuSerif-6f" transform="translate(1850.496094 0)"/>
     <use xlink:href="#DejaVuSerif-6e" transform="translate(1910.701172 0)"/>
     <use xlink:href="#DejaVuSerif-65" transform="translate(1975.105469 0)"/>
     <use xlink:href="#DejaVuSerif-6e" transform="translate(2034.285156 0)"/>
     <use xlink:href="#DejaVuSerif-74" transform="translate(2098.689453 0)"/>
     <use xlink:href="#DejaVuSerif-73" transform="translate(2138.875 0)"/>
    </g>
   </g>
   <g id="legend_1">
    <g id="patch_7">
     <path d="M 285.3675 209.623125 
L 458.3475 209.623125 
Q 461.9475 209.623125 461.9475 206.023125 
L 461.9475 101.631563 
Q 461.9475 98.031563 458.3475 98.031563 
L 285.3675 98.031563 
Q 281.7675 98.031563 281.7675 101.631563 
L 281.7675 206.023125 
Q 281.7675 209.623125 285.3675 209.623125 
z
" style="fill: #ffffff; opacity: 0.8; stroke: #cccccc; stroke-linejoin: miter"/>
    </g>
    <g id="line2d_26">
     <path d="M 288.9675 112.60875 
L 306.9675 112.60875 
L 324.9675 112.60875 
" style="fill: none; stroke: #1f77b4; stroke-width: 1.5; stroke-linecap: square"/>
    </g>
    <g id="text_10">
     <!-- $\psi_1$ -->
     <g transform="translate(339.3675 118.90875) scale(0.18 -0.18)">
      <defs>
       <path id="DejaVuSans-31" d="M 794 531 
L 1825 531 
L 1825 4091 
L 703 3866 
L 703 4441 
L 1819 4666 
L 2450 4666 
L 2450 531 
L 3481 531 
L 3481 0 
L 794 0 
L 794 531 
z
" transform="scale(0.015625)"/>
      </defs>
      <use xlink:href="#DejaVuSans-Oblique-3c8" transform="translate(0 0.3125)"/>
      <use xlink:href="#DejaVuSans-31" transform="translate(65.966797 -16.09375) scale(0.7)"/>
     </g>
    </g>
    <g id="line2d_27">
     <path d="M 288.9675 139.065937 
L 306.9675 139.065937 
L 324.9675 139.065937 
" style="fill: none; stroke: #ff7f0e; stroke-width: 1.5; stroke-linecap: square"/>
    </g>
    <g id="text_11">
     <!-- $\psi_2$ -->
     <g transform="translate(339.3675 145.365938) scale(0.18 -0.18)">
      <defs>
       <path id="DejaVuSans-32" d="M 1228 531 
L 3431 531 
L 3431 0 
L 469 0 
L 469 531 
Q 828 903 1448 1529 
Q 2069 2156 2228 2338 
Q 2531 2678 2651 2914 
Q 2772 3150 2772 3378 
Q 2772 3750 2511 3984 
Q 2250 4219 1831 4219 
Q 1534 4219 1204 4116 
Q 875 4013 500 3803 
L 500 4441 
Q 881 4594 1212 4672 
Q 1544 4750 1819 4750 
Q 2544 4750 2975 4387 
Q 3406 4025 3406 3419 
Q 3406 3131 3298 2873 
Q 3191 2616 2906 2266 
Q 2828 2175 2409 1742 
Q 1991 1309 1228 531 
z
" transform="scale(0.015625)"/>
      </defs>
      <use xlink:href="#DejaVuSans-Oblique-3c8" transform="translate(0 0.3125)"/>
      <use xlink:href="#DejaVuSans-32" transform="translate(65.966797 -16.09375) scale(0.7)"/>
     </g>
    </g>
    <g id="line2d_28">
     <path d="M 288.9675 165.523125 
L 306.9675 165.523125 
L 324.9675 165.523125 
" style="fill: none; stroke: #2ca02c; stroke-width: 1.5; stroke-linecap: square"/>
    </g>
    <g id="text_12">
     <!-- $\psi_3$ -->
     <g transform="translate(339.3675 171.823125) scale(0.18 -0.18)">
      <defs>
       <path id="DejaVuSans-33" d="M 2597 2516 
Q 3050 2419 3304 2112 
Q 3559 1806 3559 1356 
Q 3559 666 3084 287 
Q 2609 -91 1734 -91 
Q 1441 -91 1130 -33 
Q 819 25 488 141 
L 488 750 
Q 750 597 1062 519 
Q 1375 441 1716 441 
Q 2309 441 2620 675 
Q 2931 909 2931 1356 
Q 2931 1769 2642 2001 
Q 2353 2234 1838 2234 
L 1294 2234 
L 1294 2753 
L 1863 2753 
Q 2328 2753 2575 2939 
Q 2822 3125 2822 3475 
Q 2822 3834 2567 4026 
Q 2313 4219 1838 4219 
Q 1578 4219 1281 4162 
Q 984 4106 628 3988 
L 628 4550 
Q 988 4650 1302 4700 
Q 1616 4750 1894 4750 
Q 2613 4750 3031 4423 
Q 3450 4097 3450 3541 
Q 3450 3153 3228 2886 
Q 3006 2619 2597 2516 
z
" transform="scale(0.015625)"/>
      </defs>
      <use xlink:href="#DejaVuSans-Oblique-3c8" transform="translate(0 0.3125)"/>
      <use xlink:href="#DejaVuSans-33" transform="translate(65.966797 -16.09375) scale(0.7)"/>
     </g>
    </g>
    <g id="line2d_29">
     <path d="M 288.9675 191.983125 
L 306.9675 191.983125 
L 324.9675 191.983125 
" style="fill: none; stroke: #d62728; stroke-width: 1.5; stroke-linecap: square"/>
    </g>
    <g id="text_13">
     <!-- $\psi$ magnitude -->
     <g transform="translate(339.3675 198.283125) scale(0.18 -0.18)">
      <defs>
       <path id="DejaVuSerif-67" d="M 3359 2988 
L 3359 72 
Q 3359 -644 2965 -1033 
Q 2572 -1422 1844 -1422 
Q 1516 -1422 1216 -1362 
Q 916 -1303 641 -1184 
L 641 -488 
L 941 -488 
Q 997 -813 1206 -963 
Q 1416 -1113 1806 -1113 
Q 2313 -1113 2548 -827 
Q 2784 -541 2784 72 
L 2784 519 
Q 2616 206 2355 57 
Q 2094 -91 1709 -91 
Q 1097 -91 708 395 
Q 319 881 319 1663 
Q 319 2444 706 2928 
Q 1094 3413 1709 3413 
Q 2094 3413 2355 3264 
Q 2616 3116 2784 2803 
L 2784 3322 
L 3909 3322 
L 3909 2988 
L 3359 2988 
z
M 2784 1825 
Q 2784 2422 2554 2737 
Q 2325 3053 1888 3053 
Q 1444 3053 1217 2703 
Q 991 2353 991 1663 
Q 991 975 1217 622 
Q 1444 269 1888 269 
Q 2325 269 2554 583 
Q 2784 897 2784 1497 
L 2784 1825 
z
" transform="scale(0.015625)"/>
       <path id="DejaVuSerif-75" d="M 2266 3322 
L 3341 3322 
L 3341 331 
L 3884 331 
L 3884 0 
L 2766 0 
L 2766 588 
Q 2606 256 2353 82 
Q 2100 -91 1766 -91 
Q 1213 -91 952 223 
Q 691 538 691 1209 
L 691 2988 
L 172 2988 
L 172 3322 
L 1269 3322 
L 1269 1388 
Q 1269 781 1417 556 
Q 1566 331 1947 331 
Q 2347 331 2556 625 
Q 2766 919 2766 1478 
L 2766 2988 
L 2266 2988 
L 2266 3322 
z
" transform="scale(0.015625)"/>
      </defs>
      <use xlink:href="#DejaVuSans-Oblique-3c8" transform="translate(0 0.015625)"/>
      <use xlink:href="#DejaVuSerif-20" transform="translate(65.966797 0.015625)"/>
      <use xlink:href="#DejaVuSerif-6d" transform="translate(97.753906 0.015625)"/>
      <use xlink:href="#DejaVuSerif-61" transform="translate(192.578125 0.015625)"/>
      <use xlink:href="#DejaVuSerif-67" transform="translate(252.197266 0.015625)"/>
      <use xlink:href="#DejaVuSerif-6e" transform="translate(316.210938 0.015625)"/>
      <use xlink:href="#DejaVuSerif-69" transform="translate(380.615234 0.015625)"/>
      <use xlink:href="#DejaVuSerif-74" transform="translate(412.597656 0.015625)"/>
      <use xlink:href="#DejaVuSerif-75" transform="translate(452.783203 0.015625)"/>
      <use xlink:href="#DejaVuSerif-64" transform="translate(517.1875 0.015625)"/>
      <use xlink:href="#DejaVuSerif-65" transform="translate(581.201172 0.015625)"/>
     </g>
    </g>
   </g>
  </g>
 </g>
 <defs>
  <clipPath id="p2de4d86daf">
   <rect x="94.12" y="45.83625" width="376.8275" height="172.786875"/>
  </clipPath>
 </defs>
</svg>
