<?xml version="1.0" encoding="utf-8" standalone="no"?>
<!DOCTYPE svg PUBLIC "-//W3C//DTD SVG 1.1//EN"
  "http://www.w3.org/Graphics/SVG/1.1/DTD/svg11.dtd">
<svg xmlns:xlink="http://www.w3.org/1999/xlink" width="414pt" height="288pt" viewBox="0 0 414 288" xmlns="http://www.w3.org/2000/svg" version="1.1">
 <metadata>
  <rdf:RDF xmlns:dc="http://purl.org/dc/elements/1.1/" xmlns:cc="http://creativecommons.org/ns#" xmlns:rdf="http://www.w3.org/1999/02/22-rdf-syntax-ns#">
   <cc:Work>
    <dc:type rdf:resource="http://purl.org/dc/dcmitype/StillImage"/>
    <dc:date>2026-01-14T17:03:45.141321</dc:date>
    <dc:format>image/svg+xml</dc:format>
    <dc:creator>
     <cc:Agent>
      <dc:title>Matplotlib v3.10.7, https://matplotlib.org/</dc:title>
     </cc:Agent>
    </dc:creator>
   </cc:Work>
  </rdf:RDF>
 </metadata>
 <defs>
  <style type="text/css">*{stroke-linejoin: round; stroke-linecap: butt}</style>
 </defs>
 <g id="figure_1">
  <g id="patch_1">
   <path d="M 0 288 
L 414 288 
L 414 0 
L 0 0 
L 0 288 
z
" style="fill: none"/>
  </g>
  <g id="axes_1">
   <g id="patch_2">
    <path d="M 85.605625 241.036875 
L 403.2 241.036875 
L 403.2 10.8 
L 85.605625 10.8 
L 85.605625 241.036875 
z
" style="fill: none"/>
   </g>
   <g id="matplotlib.axis_1">
    <g id="xtick_1">
     <g id="line2d_1">
      <defs>
       <path id="m33039caee7" d="M 0 0 
L 0 3.5 
" style="stroke: #000000; stroke-width: 0.8"/>
      </defs>
      <g>
       <use xlink:href="#m33039caee7" x="100.041733" y="241.036875" style="stroke: #000000; stroke-width: 0.8"/>
      </g>
     </g>
     <g id="text_1">
      <!-- 0.0 -->
      <g transform="translate(87.319233 260.194375) scale(0.16 -0.16)">
       <defs>
        <path id="DejaVuSans-30" d="M 2034 4250 
Q 1547 4250 1301 3770 
Q 1056 3291 1056 2328 
Q 1056 1369 1301 889 
Q 1547 409 2034 409 
Q 2525 409 2770 889 
Q 3016 1369 3016 2328 
Q 3016 3291 2770 3770 
Q 2525 4250 2034 4250 
z
M 2034 4750 
Q 2819 4750 3233 4129 
Q 3647 3509 3647 2328 
Q 3647 1150 3233 529 
Q 2819 -91 2034 -91 
Q 1250 -91 836 529 
Q 422 1150 422 2328 
Q 422 3509 836 4129 
Q 1250 4750 2034 4750 
z
" transform="scale(0.015625)"/>
        <path id="DejaVuSans-2e" d="M 684 794 
L 1344 794 
L 1344 0 
L 684 0 
L 684 794 
z
" transform="scale(0.015625)"/>
       </defs>
       <use xlink:href="#DejaVuSans-30"/>
       <use xlink:href="#DejaVuSans-2e" transform="translate(63.623047 0)"/>
       <use xlink:href="#DejaVuSans-30" transform="translate(95.410156 0)"/>
      </g>
     </g>
    </g>
    <g id="xtick_2">
     <g id="line2d_2">
      <g>
       <use xlink:href="#m33039caee7" x="177.235399" y="241.036875" style="stroke: #000000; stroke-width: 0.8"/>
      </g>
     </g>
     <g id="text_2">
      <!-- 0.2 -->
      <g transform="translate(164.512899 260.194375) scale(0.16 -0.16)">
       <defs>
        <path id="DejaVuSans-32" d="M 1228 531 
L 3431 531 
L 3431 0 
L 469 0 
L 469 531 
Q 828 903 1448 1529 
Q 2069 2156 2228 2338 
Q 2531 2678 2651 2914 
Q 2772 3150 2772 3378 
Q 2772 3750 2511 3984 
Q 2250 4219 1831 4219 
Q 1534 4219 1204 4116 
Q 875 4013 500 3803 
L 500 4441 
Q 881 4594 1212 4672 
Q 1544 4750 1819 4750 
Q 2544 4750 2975 4387 
Q 3406 4025 3406 3419 
Q 3406 3131 3298 2873 
Q 3191 2616 2906 2266 
Q 2828 2175 2409 1742 
Q 1991 1309 1228 531 
z
" transform="scale(0.015625)"/>
       </defs>
       <use xlink:href="#DejaVuSans-30"/>
       <use xlink:href="#DejaVuSans-2e" transform="translate(63.623047 0)"/>
       <use xlink:href="#DejaVuSans-32" transform="translate(95.410156 0)"/>
      </g>
     </g>
    </g>
    <g id="xtick_3">
     <g id="line2d_3">
      <g>
       <use xlink:href="#m33039caee7" x="254.429065" y="241.036875" style="stroke: #000000; stroke-width: 0.8"/>
      </g>
     </g>
     <g id="text_3">
      <!-- 0.4 -->
      <g transform="translate(241.706565 260.194375) scale(0.16 -0.16)">
       <defs>
        <path id="DejaVuSans-34" d="M 2419 4116 
L 825 1625 
L 2419 1625 
L 2419 4116 
z
M 2253 4666 
L 3047 4666 
L 3047 1625 
L 3713 1625 
L 3713 1100 
L 3047 1100 
L 3047 0 
L 2419 0 
L 2419 1100 
L 313 1100 
L 313 1709 
L 2253 4666 
z
" transform="scale(0.015625)"/>
       </defs>
       <use xlink:href="#DejaVuSans-30"/>
       <use xlink:href="#DejaVuSans-2e" transform="translate(63.623047 0)"/>
       <use xlink:href="#DejaVuSans-34" transform="translate(95.410156 0)"/>
      </g>
     </g>
    </g>
    <g id="xtick_4">
     <g id="line2d_4">
      <g>
       <use xlink:href="#m33039caee7" x="331.622731" y="241.036875" style="stroke: #000000; stroke-width: 0.8"/>
      </g>
     </g>
     <g id="text_4">
      <!-- 0.6 -->
      <g transform="translate(318.900231 260.194375) scale(0.16 -0.16)">
       <defs>
        <path id="DejaVuSans-36" d="M 2113 2584 
Q 1688 2584 1439 2293 
Q 1191 2003 1191 1497 
Q 1191 994 1439 701 
Q 1688 409 2113 409 
Q 2538 409 2786 701 
Q 3034 994 3034 1497 
Q 3034 2003 2786 2293 
Q 2538 2584 2113 2584 
z
M 3366 4563 
L 3366 3988 
Q 3128 4100 2886 4159 
Q 2644 4219 2406 4219 
Q 1781 4219 1451 3797 
Q 1122 3375 1075 2522 
Q 1259 2794 1537 2939 
Q 1816 3084 2150 3084 
Q 2853 3084 3261 2657 
Q 3669 2231 3669 1497 
Q 3669 778 3244 343 
Q 2819 -91 2113 -91 
Q 1303 -91 875 529 
Q 447 1150 447 2328 
Q 447 3434 972 4092 
Q 1497 4750 2381 4750 
Q 2619 4750 2861 4703 
Q 3103 4656 3366 4563 
z
" transform="scale(0.015625)"/>
       </defs>
       <use xlink:href="#DejaVuSans-30"/>
       <use xlink:href="#DejaVuSans-2e" transform="translate(63.623047 0)"/>
       <use xlink:href="#DejaVuSans-36" transform="translate(95.410156 0)"/>
      </g>
     </g>
    </g>
    <g id="text_5">
     <!-- Time [orbits] -->
     <g transform="translate(212.435625 275.120313) scale(0.1 -0.1)">
      <defs>
       <path id="DejaVuSans-54" d="M -19 4666 
L 3928 4666 
L 3928 4134 
L 2272 4134 
L 2272 0 
L 1638 0 
L 1638 4134 
L -19 4134 
L -19 4666 
z
" transform="scale(0.015625)"/>
       <path id="DejaVuSans-69" d="M 603 3500 
L 1178 3500 
L 1178 0 
L 603 0 
L 603 3500 
z
M 603 4863 
L 1178 4863 
L 1178 4134 
L 603 4134 
L 603 4863 
z
" transform="scale(0.015625)"/>
       <path id="DejaVuSans-6d" d="M 3328 2828 
Q 3544 3216 3844 3400 
Q 4144 3584 4550 3584 
Q 5097 3584 5394 3201 
Q 5691 2819 5691 2113 
L 5691 0 
L 5113 0 
L 5113 2094 
Q 5113 2597 4934 2840 
Q 4756 3084 4391 3084 
Q 3944 3084 3684 2787 
Q 3425 2491 3425 1978 
L 3425 0 
L 2847 0 
L 2847 2094 
Q 2847 2600 2669 2842 
Q 2491 3084 2119 3084 
Q 1678 3084 1418 2786 
Q 1159 2488 1159 1978 
L 1159 0 
L 581 0 
L 581 3500 
L 1159 3500 
L 1159 2956 
Q 1356 3278 1631 3431 
Q 1906 3584 2284 3584 
Q 2666 3584 2933 3390 
Q 3200 3197 3328 2828 
z
" transform="scale(0.015625)"/>
       <path id="DejaVuSans-65" d="M 3597 1894 
L 3597 1613 
L 953 1613 
Q 991 1019 1311 708 
Q 1631 397 2203 397 
Q 2534 397 2845 478 
Q 3156 559 3463 722 
L 3463 178 
Q 3153 47 2828 -22 
Q 2503 -91 2169 -91 
Q 1331 -91 842 396 
Q 353 884 353 1716 
Q 353 2575 817 3079 
Q 1281 3584 2069 3584 
Q 2775 3584 3186 3129 
Q 3597 2675 3597 1894 
z
M 3022 2063 
Q 3016 2534 2758 2815 
Q 2500 3097 2075 3097 
Q 1594 3097 1305 2825 
Q 1016 2553 972 2059 
L 3022 2063 
z
" transform="scale(0.015625)"/>
       <path id="DejaVuSans-20" transform="scale(0.015625)"/>
       <path id="DejaVuSans-5b" d="M 550 4863 
L 1875 4863 
L 1875 4416 
L 1125 4416 
L 1125 -397 
L 1875 -397 
L 1875 -844 
L 550 -844 
L 550 4863 
z
" transform="scale(0.015625)"/>
       <path id="DejaVuSans-6f" d="M 1959 3097 
Q 1497 3097 1228 2736 
Q 959 2375 959 1747 
Q 959 1119 1226 758 
Q 1494 397 1959 397 
Q 2419 397 2687 759 
Q 2956 1122 2956 1747 
Q 2956 2369 2687 2733 
Q 2419 3097 1959 3097 
z
M 1959 3584 
Q 2709 3584 3137 3096 
Q 3566 2609 3566 1747 
Q 3566 888 3137 398 
Q 2709 -91 1959 -91 
Q 1206 -91 779 398 
Q 353 888 353 1747 
Q 353 2609 779 3096 
Q 1206 3584 1959 3584 
z
" transform="scale(0.015625)"/>
       <path id="DejaVuSans-72" d="M 2631 2963 
Q 2534 3019 2420 3045 
Q 2306 3072 2169 3072 
Q 1681 3072 1420 2755 
Q 1159 2438 1159 1844 
L 1159 0 
L 581 0 
L 581 3500 
L 1159 3500 
L 1159 2956 
Q 1341 3275 1631 3429 
Q 1922 3584 2338 3584 
Q 2397 3584 2469 3576 
Q 2541 3569 2628 3553 
L 2631 2963 
z
" transform="scale(0.015625)"/>
       <path id="DejaVuSans-62" d="M 3116 1747 
Q 3116 2381 2855 2742 
Q 2594 3103 2138 3103 
Q 1681 3103 1420 2742 
Q 1159 2381 1159 1747 
Q 1159 1113 1420 752 
Q 1681 391 2138 391 
Q 2594 391 2855 752 
Q 3116 1113 3116 1747 
z
M 1159 2969 
Q 1341 3281 1617 3432 
Q 1894 3584 2278 3584 
Q 2916 3584 3314 3078 
Q 3713 2572 3713 1747 
Q 3713 922 3314 415 
Q 2916 -91 2278 -91 
Q 1894 -91 1617 61 
Q 1341 213 1159 525 
L 1159 0 
L 581 0 
L 581 4863 
L 1159 4863 
L 1159 2969 
z
" transform="scale(0.015625)"/>
       <path id="DejaVuSans-74" d="M 1172 4494 
L 1172 3500 
L 2356 3500 
L 2356 3053 
L 1172 3053 
L 1172 1153 
Q 1172 725 1289 603 
Q 1406 481 1766 481 
L 2356 481 
L 2356 0 
L 1766 0 
Q 1100 0 847 248 
Q 594 497 594 1153 
L 594 3053 
L 172 3053 
L 172 3500 
L 594 3500 
L 594 4494 
L 1172 4494 
z
" transform="scale(0.015625)"/>
       <path id="DejaVuSans-73" d="M 2834 3397 
L 2834 2853 
Q 2591 2978 2328 3040 
Q 2066 3103 1784 3103 
Q 1356 3103 1142 2972 
Q 928 2841 928 2578 
Q 928 2378 1081 2264 
Q 1234 2150 1697 2047 
L 1894 2003 
Q 2506 1872 2764 1633 
Q 3022 1394 3022 966 
Q 3022 478 2636 193 
Q 2250 -91 1575 -91 
Q 1294 -91 989 -36 
Q 684 19 347 128 
L 347 722 
Q 666 556 975 473 
Q 1284 391 1588 391 
Q 1994 391 2212 530 
Q 2431 669 2431 922 
Q 2431 1156 2273 1281 
Q 2116 1406 1581 1522 
L 1381 1569 
Q 847 1681 609 1914 
Q 372 2147 372 2553 
Q 372 3047 722 3315 
Q 1072 3584 1716 3584 
Q 2034 3584 2315 3537 
Q 2597 3491 2834 3397 
z
" transform="scale(0.015625)"/>
       <path id="DejaVuSans-5d" d="M 1947 4863 
L 1947 -844 
L 622 -844 
L 622 -397 
L 1369 -397 
L 1369 4416 
L 622 4416 
L 622 4863 
L 1947 4863 
z
" transform="scale(0.015625)"/>
      </defs>
      <use xlink:href="#DejaVuSans-54"/>
      <use xlink:href="#DejaVuSans-69" transform="translate(57.958984 0)"/>
      <use xlink:href="#DejaVuSans-6d" transform="translate(85.742188 0)"/>
      <use xlink:href="#DejaVuSans-65" transform="translate(183.154297 0)"/>
      <use xlink:href="#DejaVuSans-20" transform="translate(244.677734 0)"/>
      <use xlink:href="#DejaVuSans-5b" transform="translate(276.464844 0)"/>
      <use xlink:href="#DejaVuSans-6f" transform="translate(315.478516 0)"/>
      <use xlink:href="#DejaVuSans-72" transform="translate(376.660156 0)"/>
      <use xlink:href="#DejaVuSans-62" transform="translate(417.773438 0)"/>
      <use xlink:href="#DejaVuSans-69" transform="translate(481.25 0)"/>
      <use xlink:href="#DejaVuSans-74" transform="translate(509.033203 0)"/>
      <use xlink:href="#DejaVuSans-73" transform="translate(548.242188 0)"/>
      <use xlink:href="#DejaVuSans-5d" transform="translate(600.341797 0)"/>
     </g>
    </g>
   </g>
   <g id="matplotlib.axis_2">
    <g id="ytick_1">
     <g id="line2d_5">
      <defs>
       <path id="m289c11aa44" d="M 0 0 
L -3.5 0 
" style="stroke: #000000; stroke-width: 0.8"/>
      </defs>
      <g>
       <use xlink:href="#m289c11aa44" x="85.605625" y="205.995409" style="stroke: #000000; stroke-width: 0.8"/>
      </g>
     </g>
     <g id="text_6">
      <!-- −5000 -->
      <g transform="translate(24.478125 212.074159) scale(0.16 -0.16)">
       <defs>
        <path id="DejaVuSans-2212" d="M 678 2272 
L 4684 2272 
L 4684 1741 
L 678 1741 
L 678 2272 
z
" transform="scale(0.015625)"/>
        <path id="DejaVuSans-35" d="M 691 4666 
L 3169 4666 
L 3169 4134 
L 1269 4134 
L 1269 2991 
Q 1406 3038 1543 3061 
Q 1681 3084 1819 3084 
Q 2600 3084 3056 2656 
Q 3513 2228 3513 1497 
Q 3513 744 3044 326 
Q 2575 -91 1722 -91 
Q 1428 -91 1123 -41 
Q 819 9 494 109 
L 494 744 
Q 775 591 1075 516 
Q 1375 441 1709 441 
Q 2250 441 2565 725 
Q 2881 1009 2881 1497 
Q 2881 1984 2565 2268 
Q 2250 2553 1709 2553 
Q 1456 2553 1204 2497 
Q 953 2441 691 2322 
L 691 4666 
z
" transform="scale(0.015625)"/>
       </defs>
       <use xlink:href="#DejaVuSans-2212"/>
       <use xlink:href="#DejaVuSans-35" transform="translate(83.789062 0)"/>
       <use xlink:href="#DejaVuSans-30" transform="translate(147.412109 0)"/>
       <use xlink:href="#DejaVuSans-30" transform="translate(211.035156 0)"/>
       <use xlink:href="#DejaVuSans-30" transform="translate(274.658203 0)"/>
      </g>
     </g>
    </g>
    <g id="ytick_2">
     <g id="line2d_6">
      <g>
       <use xlink:href="#m289c11aa44" x="85.605625" y="165.433762" style="stroke: #000000; stroke-width: 0.8"/>
      </g>
     </g>
     <g id="text_7">
      <!-- −2500 -->
      <g transform="translate(24.478125 171.512512) scale(0.16 -0.16)">
       <use xlink:href="#DejaVuSans-2212"/>
       <use xlink:href="#DejaVuSans-32" transform="translate(83.789062 0)"/>
       <use xlink:href="#DejaVuSans-35" transform="translate(147.412109 0)"/>
       <use xlink:href="#DejaVuSans-30" transform="translate(211.035156 0)"/>
       <use xlink:href="#DejaVuSans-30" transform="translate(274.658203 0)"/>
      </g>
     </g>
    </g>
    <g id="ytick_3">
     <g id="line2d_7">
      <g>
       <use xlink:href="#m289c11aa44" x="85.605625" y="124.872115" style="stroke: #000000; stroke-width: 0.8"/>
      </g>
     </g>
     <g id="text_8">
      <!-- 0 -->
      <g transform="translate(68.425625 130.950865) scale(0.16 -0.16)">
       <use xlink:href="#DejaVuSans-30"/>
      </g>
     </g>
    </g>
    <g id="ytick_4">
     <g id="line2d_8">
      <g>
       <use xlink:href="#m289c11aa44" x="85.605625" y="84.310468" style="stroke: #000000; stroke-width: 0.8"/>
      </g>
     </g>
     <g id="text_9">
      <!-- 2500 -->
      <g transform="translate(37.885625 90.389218) scale(0.16 -0.16)">
       <use xlink:href="#DejaVuSans-32"/>
       <use xlink:href="#DejaVuSans-35" transform="translate(63.623047 0)"/>
       <use xlink:href="#DejaVuSans-30" transform="translate(127.246094 0)"/>
       <use xlink:href="#DejaVuSans-30" transform="translate(190.869141 0)"/>
      </g>
     </g>
    </g>
    <g id="ytick_5">
     <g id="line2d_9">
      <g>
       <use xlink:href="#m289c11aa44" x="85.605625" y="43.748821" style="stroke: #000000; stroke-width: 0.8"/>
      </g>
     </g>
     <g id="text_10">
      <!-- 5000 -->
      <g transform="translate(37.885625 49.827571) scale(0.16 -0.16)">
       <use xlink:href="#DejaVuSans-35"/>
       <use xlink:href="#DejaVuSans-30" transform="translate(63.623047 0)"/>
       <use xlink:href="#DejaVuSans-30" transform="translate(127.246094 0)"/>
       <use xlink:href="#DejaVuSans-30" transform="translate(190.869141 0)"/>
      </g>
     </g>
    </g>
    <g id="text_11">
     <!-- Inertial Position [km] -->
     <g transform="translate(18.398438 177.805937) rotate(-90) scale(0.1 -0.1)">
      <defs>
       <path id="DejaVuSans-49" d="M 628 4666 
L 1259 4666 
L 1259 0 
L 628 0 
L 628 4666 
z
" transform="scale(0.015625)"/>
       <path id="DejaVuSans-6e" d="M 3513 2113 
L 3513 0 
L 2938 0 
L 2938 2094 
Q 2938 2591 2744 2837 
Q 2550 3084 2163 3084 
Q 1697 3084 1428 2787 
Q 1159 2491 1159 1978 
L 1159 0 
L 581 0 
L 581 3500 
L 1159 3500 
L 1159 2956 
Q 1366 3272 1645 3428 
Q 1925 3584 2291 3584 
Q 2894 3584 3203 3211 
Q 3513 2838 3513 2113 
z
" transform="scale(0.015625)"/>
       <path id="DejaVuSans-61" d="M 2194 1759 
Q 1497 1759 1228 1600 
Q 959 1441 959 1056 
Q 959 750 1161 570 
Q 1363 391 1709 391 
Q 2188 391 2477 730 
Q 2766 1069 2766 1631 
L 2766 1759 
L 2194 1759 
z
M 3341 1997 
L 3341 0 
L 2766 0 
L 2766 531 
Q 2569 213 2275 61 
Q 1981 -91 1556 -91 
Q 1019 -91 701 211 
Q 384 513 384 1019 
Q 384 1609 779 1909 
Q 1175 2209 1959 2209 
L 2766 2209 
L 2766 2266 
Q 2766 2663 2505 2880 
Q 2244 3097 1772 3097 
Q 1472 3097 1187 3025 
Q 903 2953 641 2809 
L 641 3341 
Q 956 3463 1253 3523 
Q 1550 3584 1831 3584 
Q 2591 3584 2966 3190 
Q 3341 2797 3341 1997 
z
" transform="scale(0.015625)"/>
       <path id="DejaVuSans-6c" d="M 603 4863 
L 1178 4863 
L 1178 0 
L 603 0 
L 603 4863 
z
" transform="scale(0.015625)"/>
       <path id="DejaVuSans-50" d="M 1259 4147 
L 1259 2394 
L 2053 2394 
Q 2494 2394 2734 2622 
Q 2975 2850 2975 3272 
Q 2975 3691 2734 3919 
Q 2494 4147 2053 4147 
L 1259 4147 
z
M 628 4666 
L 2053 4666 
Q 2838 4666 3239 4311 
Q 3641 3956 3641 3272 
Q 3641 2581 3239 2228 
Q 2838 1875 2053 1875 
L 1259 1875 
L 1259 0 
L 628 0 
L 628 4666 
z
" transform="scale(0.015625)"/>
       <path id="DejaVuSans-6b" d="M 581 4863 
L 1159 4863 
L 1159 1991 
L 2875 3500 
L 3609 3500 
L 1753 1863 
L 3688 0 
L 2938 0 
L 1159 1709 
L 1159 0 
L 581 0 
L 581 4863 
z
" transform="scale(0.015625)"/>
      </defs>
      <use xlink:href="#DejaVuSans-49"/>
      <use xlink:href="#DejaVuSans-6e" transform="translate(29.492188 0)"/>
      <use xlink:href="#DejaVuSans-65" transform="translate(92.871094 0)"/>
      <use xlink:href="#DejaVuSans-72" transform="translate(154.394531 0)"/>
      <use xlink:href="#DejaVuSans-74" transform="translate(195.507812 0)"/>
      <use xlink:href="#DejaVuSans-69" transform="translate(234.716797 0)"/>
      <use xlink:href="#DejaVuSans-61" transform="translate(262.5 0)"/>
      <use xlink:href="#DejaVuSans-6c" transform="translate(323.779297 0)"/>
      <use xlink:href="#DejaVuSans-20" transform="translate(351.5625 0)"/>
      <use xlink:href="#DejaVuSans-50" transform="translate(383.349609 0)"/>
      <use xlink:href="#DejaVuSans-6f" transform="translate(440.027344 0)"/>
      <use xlink:href="#DejaVuSans-73" transform="translate(501.208984 0)"/>
      <use xlink:href="#DejaVuSans-69" transform="translate(553.308594 0)"/>
      <use xlink:href="#DejaVuSans-74" transform="translate(581.091797 0)"/>
      <use xlink:href="#DejaVuSans-69" transform="translate(620.300781 0)"/>
      <use xlink:href="#DejaVuSans-6f" transform="translate(648.083984 0)"/>
      <use xlink:href="#DejaVuSans-6e" transform="translate(709.265625 0)"/>
      <use xlink:href="#DejaVuSans-20" transform="translate(772.644531 0)"/>
      <use xlink:href="#DejaVuSans-5b" transform="translate(804.431641 0)"/>
      <use xlink:href="#DejaVuSans-6b" transform="translate(843.445312 0)"/>
      <use xlink:href="#DejaVuSans-6d" transform="translate(901.355469 0)"/>
      <use xlink:href="#DejaVuSans-5d" transform="translate(998.767578 0)"/>
     </g>
    </g>
   </g>
   <g id="line2d_10">
    <path d="M 100.041733 170.57376 
L 102.69056 174.540536 
L 105.339387 178.414973 
L 107.988214 182.189871 
L 110.637042 185.858212 
L 113.285869 189.413179 
L 115.934696 192.848164 
L 118.583523 196.156784 
L 121.23235 199.332888 
L 123.881177 202.370576 
L 126.530004 205.264201 
L 129.178832 208.008387 
L 131.827659 210.598035 
L 134.476486 213.028331 
L 137.125313 215.294762 
L 139.77414 217.393115 
L 142.422967 219.319493 
L 145.071794 221.070316 
L 147.720622 222.642333 
L 150.369449 224.032622 
L 153.018276 225.238602 
L 155.667103 226.258033 
L 158.31593 227.089021 
L 160.964757 227.730024 
L 163.613584 228.179852 
L 166.262412 228.437671 
L 168.911239 228.503002 
L 171.560066 228.375725 
L 174.208893 228.056079 
L 176.85772 227.544658 
L 179.506547 226.842414 
L 182.155375 225.950653 
L 184.804202 224.871034 
L 187.453029 223.605562 
L 190.101856 222.156592 
L 192.750683 220.526816 
L 195.39951 218.719264 
L 198.048337 216.737295 
L 200.697165 214.584594 
L 203.345992 212.26516 
L 205.994819 209.783305 
L 208.643646 207.143641 
L 211.292473 204.351074 
L 213.9413 201.410793 
L 216.590127 198.328264 
L 219.238955 195.109214 
L 221.887782 191.759625 
L 224.536609 188.285723 
L 227.185436 184.693964 
L 229.834263 180.991022 
L 232.48309 177.183778 
L 235.131917 173.279309 
L 237.780745 169.284871 
L 240.429572 165.207887 
L 243.078399 161.055934 
L 245.727226 156.836728 
L 248.376053 152.558111 
L 251.02488 148.228035 
L 253.673708 143.854548 
L 256.322535 139.445778 
L 258.971362 135.009919 
L 261.620189 130.555217 
L 264.269016 126.089952 
L 266.917843 121.622423 
L 269.56667 117.160934 
L 272.215498 112.713779 
L 274.864325 108.289225 
L 277.513152 103.895496 
L 280.161979 99.54076 
L 282.810806 95.233113 
L 285.459633 90.980563 
L 288.10846 86.791016 
L 290.757288 82.672261 
L 293.406115 78.631956 
L 296.054942 74.677613 
L 298.703769 70.816584 
L 301.352596 67.056049 
L 304.001423 63.403 
L 306.65025 59.864229 
L 309.299078 56.446318 
L 311.947905 53.155622 
L 314.596732 49.998262 
L 317.245559 46.980108 
L 319.894386 44.106775 
L 322.543213 41.383606 
L 325.192041 38.815666 
L 327.840868 36.407732 
L 330.489695 34.164283 
L 333.138522 32.089491 
L 335.787349 30.187218 
L 338.436176 28.461 
L 341.085003 26.914051 
L 343.733831 25.549248 
L 346.382658 24.369131 
L 349.031485 23.375896 
L 351.680312 22.571392 
L 354.329139 21.957115 
L 356.977966 21.534211 
L 359.626793 21.303467 
L 362.275621 21.265313 
L 364.924448 21.419821 
L 367.573275 21.766706 
L 370.222102 22.305323 
L 372.870929 23.034672 
L 375.519756 23.953398 
L 378.168583 25.059792 
L 380.817411 26.351798 
L 383.466238 27.827015 
L 386.115065 29.482698 
L 388.763892 31.31577 
" clip-path="url(#p5c141a6b2f)" style="fill: none; stroke: #2b737e; stroke-width: 1.5; stroke-linecap: square"/>
   </g>
   <g id="line2d_11">
    <path d="M 100.041733 39.722269 
L 102.69056 42.500277 
L 105.339387 45.431423 
L 107.988214 48.510254 
L 110.637042 51.731046 
L 113.285869 55.087809 
L 115.934696 58.5743 
L 118.583523 62.184038 
L 121.23235 65.910309 
L 123.881177 69.746187 
L 126.530004 73.684538 
L 129.178832 77.718041 
L 131.827659 81.839196 
L 134.476486 86.040343 
L 137.125313 90.313671 
L 139.77414 94.651236 
L 142.422967 99.044975 
L 145.071794 103.48672 
L 147.720622 107.968215 
L 150.369449 112.48113 
L 153.018276 117.017076 
L 155.667103 121.567621 
L 158.31593 126.124309 
L 160.964757 130.678669 
L 163.613584 135.222237 
L 166.262412 139.746568 
L 168.911239 144.243254 
L 171.560066 148.703936 
L 174.208893 153.120325 
L 176.85772 157.484213 
L 179.506547 161.787489 
L 182.155375 166.022156 
L 184.804202 170.180344 
L 187.453029 174.254325 
L 190.101856 178.236528 
L 192.750683 182.119552 
L 195.39951 185.89618 
L 198.048337 189.559394 
L 200.697165 193.102385 
L 203.345992 196.51857 
L 205.994819 199.801598 
L 208.643646 202.945369 
L 211.292473 205.944039 
L 213.9413 208.792035 
L 216.590127 211.484064 
L 219.238955 214.015122 
L 221.887782 216.380504 
L 224.536609 218.575813 
L 227.185436 220.59697 
L 229.834263 222.440215 
L 232.48309 224.102123 
L 235.131917 225.579604 
L 237.780745 226.869911 
L 240.429572 227.970643 
L 243.078399 228.879754 
L 245.727226 229.595552 
L 248.376053 230.116706 
L 251.02488 230.442245 
L 253.673708 230.571562 
L 256.322535 230.504416 
L 258.971362 230.240928 
L 261.620189 229.781587 
L 264.269016 229.127244 
L 266.917843 228.279114 
L 269.56667 227.238771 
L 272.215498 226.008146 
L 274.864325 224.589525 
L 277.513152 222.985543 
L 280.161979 221.199179 
L 282.810806 219.233751 
L 285.459633 217.092911 
L 288.10846 214.780637 
L 290.757288 212.301224 
L 293.406115 209.659279 
L 296.054942 206.859713 
L 298.703769 203.907728 
L 301.352596 200.808809 
L 304.001423 197.568716 
L 306.65025 194.193471 
L 309.299078 190.689347 
L 311.947905 187.062858 
L 314.596732 183.320743 
L 317.245559 179.46996 
L 319.894386 175.517666 
L 322.543213 171.471209 
L 325.192041 167.33811 
L 327.840868 163.126054 
L 330.489695 158.842871 
L 333.138522 154.496524 
L 335.787349 150.095095 
L 338.436176 145.646766 
L 341.085003 141.159809 
L 343.733831 136.642566 
L 346.382658 132.103436 
L 349.031485 127.55086 
L 351.680312 122.993302 
L 354.329139 118.439239 
L 356.977966 113.897137 
L 359.626793 109.375444 
L 362.275621 104.882568 
L 364.924448 100.426863 
L 367.573275 96.016615 
L 370.222102 91.660027 
L 372.870929 87.3652 
L 375.519756 83.14012 
L 378.168583 78.992645 
L 380.817411 74.930488 
L 383.466238 70.961204 
L 386.115065 67.092173 
L 388.763892 63.330591 
" clip-path="url(#p5c141a6b2f)" style="fill: none; stroke: #5ea04b; stroke-width: 1.5; stroke-linecap: square"/>
   </g>
   <g id="line2d_12">
    <path d="M 100.041733 65.211493 
L 102.69056 64.485313 
L 105.339387 63.871398 
L 107.988214 63.370887 
L 110.637042 62.98471 
L 113.285869 62.713583 
L 115.934696 62.558009 
L 118.583523 62.518275 
L 121.23235 62.594454 
L 123.881177 62.786403 
L 126.530004 63.093762 
L 129.178832 63.515961 
L 131.827659 64.052212 
L 134.476486 64.701517 
L 137.125313 65.462669 
L 139.77414 66.33425 
L 142.422967 67.31464 
L 145.071794 68.402015 
L 147.720622 69.594354 
L 150.369449 70.889438 
L 153.018276 72.284859 
L 155.667103 73.778023 
L 158.31593 75.366154 
L 160.964757 77.046299 
L 163.613584 78.815335 
L 166.262412 80.669973 
L 168.911239 82.606765 
L 171.560066 84.622111 
L 174.208893 86.712265 
L 176.85772 88.873342 
L 179.506547 91.101324 
L 182.155375 93.392072 
L 184.804202 95.741326 
L 187.453029 98.144721 
L 190.101856 100.597789 
L 192.750683 103.095972 
L 195.39951 105.634627 
L 198.048337 108.209035 
L 200.697165 110.814411 
L 203.345992 113.445914 
L 205.994819 116.098652 
L 208.643646 118.767696 
L 211.292473 121.448085 
L 213.9413 124.134838 
L 216.590127 126.822962 
L 219.238955 129.507459 
L 221.887782 132.183342 
L 224.536609 134.845636 
L 227.185436 137.489394 
L 229.834263 140.109702 
L 232.48309 142.701689 
L 235.131917 145.260539 
L 237.780745 147.781495 
L 240.429572 150.259872 
L 243.078399 152.691062 
L 245.727226 155.070547 
L 248.376053 157.393904 
L 251.02488 159.656813 
L 253.673708 161.855068 
L 256.322535 163.984583 
L 258.971362 166.041399 
L 261.620189 168.021692 
L 264.269016 169.92178 
L 266.917843 171.738131 
L 269.56667 173.467367 
L 272.215498 175.106273 
L 274.864325 176.651801 
L 277.513152 178.101078 
L 280.161979 179.451408 
L 282.810806 180.70028 
L 285.459633 181.845371 
L 288.10846 182.884551 
L 290.757288 183.815887 
L 293.406115 184.637647 
L 296.054942 185.3483 
L 298.703769 185.946525 
L 301.352596 186.431207 
L 304.001423 186.801445 
L 306.65025 187.056549 
L 309.299078 187.196042 
L 311.947905 187.219665 
L 314.596732 187.127371 
L 317.245559 186.91933 
L 319.894386 186.595929 
L 322.543213 186.157767 
L 325.192041 185.605657 
L 327.840868 184.940625 
L 330.489695 184.163905 
L 333.138522 183.276941 
L 335.787349 182.28138 
L 338.436176 181.179073 
L 341.085003 179.972068 
L 343.733831 178.662609 
L 346.382658 177.253129 
L 349.031485 175.746248 
L 351.680312 174.144767 
L 354.329139 172.451664 
L 356.977966 170.670086 
L 359.626793 168.803346 
L 362.275621 166.854913 
L 364.924448 164.828411 
L 367.573275 162.727608 
L 370.222102 160.55641 
L 372.870929 158.318853 
L 375.519756 156.019099 
L 378.168583 153.661424 
L 380.817411 151.250212 
L 383.466238 148.789947 
L 386.115065 146.285204 
L 388.763892 143.740641 
" clip-path="url(#p5c141a6b2f)" style="fill: none; stroke: #bdab62; stroke-width: 1.5; stroke-linecap: square"/>
   </g>
   <g id="patch_3">
    <path d="M 85.605625 241.036875 
L 85.605625 10.8 
" style="fill: none; stroke: #000000; stroke-width: 0.8; stroke-linejoin: miter; stroke-linecap: square"/>
   </g>
   <g id="patch_4">
    <path d="M 403.2 241.036875 
L 403.2 10.8 
" style="fill: none; stroke: #000000; stroke-width: 0.8; stroke-linejoin: miter; stroke-linecap: square"/>
   </g>
   <g id="patch_5">
    <path d="M 85.605625 241.036875 
L 403.2 241.036875 
" style="fill: none; stroke: #000000; stroke-width: 0.8; stroke-linejoin: miter; stroke-linecap: square"/>
   </g>
   <g id="patch_6">
    <path d="M 85.605625 10.8 
L 403.2 10.8 
" style="fill: none; stroke: #000000; stroke-width: 0.8; stroke-linejoin: miter; stroke-linecap: square"/>
   </g>
   <g id="legend_1">
    <g id="patch_7">
     <path d="M 347.85 236.536875 
L 396.9 236.536875 
Q 398.7 236.536875 398.7 234.736875 
L 398.7 194.871094 
Q 398.7 193.071094 396.9 193.071094 
L 347.85 193.071094 
Q 346.05 193.071094 346.05 194.871094 
L 346.05 234.736875 
Q 346.05 236.536875 347.85 236.536875 
z
" style="fill: #ffffff; opacity: 0.8; stroke: #cccccc; stroke-linejoin: miter"/>
    </g>
    <g id="line2d_13">
     <path d="M 349.65 200.359687 
L 358.65 200.359687 
L 367.65 200.359687 
" style="fill: none; stroke: #2b737e; stroke-width: 1.5; stroke-linecap: square"/>
    </g>
    <g id="text_12">
     <!-- $r_{BN,0}$ -->
     <g transform="translate(374.85 203.509687) scale(0.09 -0.09)">
      <defs>
       <path id="DejaVuSans-Oblique-72" d="M 2853 2969 
Q 2766 3016 2653 3041 
Q 2541 3066 2413 3066 
Q 1953 3066 1609 2717 
Q 1266 2369 1153 1784 
L 800 0 
L 225 0 
L 909 3500 
L 1484 3500 
L 1375 2956 
Q 1603 3259 1920 3421 
Q 2238 3584 2597 3584 
Q 2691 3584 2781 3573 
Q 2872 3563 2963 3538 
L 2853 2969 
z
" transform="scale(0.015625)"/>
       <path id="DejaVuSans-Oblique-42" d="M 1081 4666 
L 2694 4666 
Q 3350 4666 3675 4422 
Q 4000 4178 4000 3688 
Q 4000 3238 3720 2911 
Q 3441 2584 2988 2516 
Q 3375 2428 3569 2181 
Q 3763 1934 3763 1522 
Q 3763 819 3242 409 
Q 2722 0 1819 0 
L 172 0 
L 1081 4666 
z
M 1234 2228 
L 903 519 
L 1919 519 
Q 2491 519 2800 781 
Q 3109 1044 3109 1522 
Q 3109 1891 2904 2059 
Q 2700 2228 2247 2228 
L 1234 2228 
z
M 1606 4147 
L 1331 2741 
L 2272 2741 
Q 2775 2741 3058 2959 
Q 3341 3178 3341 3566 
Q 3341 3869 3150 4008 
Q 2959 4147 2541 4147 
L 1606 4147 
z
" transform="scale(0.015625)"/>
       <path id="DejaVuSans-Oblique-4e" d="M 1081 4666 
L 1931 4666 
L 3219 666 
L 4000 4666 
L 4616 4666 
L 3706 0 
L 2853 0 
L 1569 4025 
L 788 0 
L 172 0 
L 1081 4666 
z
" transform="scale(0.015625)"/>
       <path id="DejaVuSans-2c" d="M 750 794 
L 1409 794 
L 1409 256 
L 897 -744 
L 494 -744 
L 750 256 
L 750 794 
z
" transform="scale(0.015625)"/>
      </defs>
      <use xlink:href="#DejaVuSans-Oblique-72"/>
      <use xlink:href="#DejaVuSans-Oblique-42" transform="translate(41.113281 -16.40625) scale(0.7)"/>
      <use xlink:href="#DejaVuSans-Oblique-4e" transform="translate(89.135742 -16.40625) scale(0.7)"/>
      <use xlink:href="#DejaVuSans-2c" transform="translate(141.499023 -16.40625) scale(0.7)"/>
      <use xlink:href="#DejaVuSans-30" transform="translate(177.387695 -16.40625) scale(0.7)"/>
     </g>
    </g>
    <g id="line2d_14">
     <path d="M 349.65 213.948281 
L 358.65 213.948281 
L 367.65 213.948281 
" style="fill: none; stroke: #5ea04b; stroke-width: 1.5; stroke-linecap: square"/>
    </g>
    <g id="text_13">
     <!-- $r_{BN,1}$ -->
     <g transform="translate(374.85 217.098281) scale(0.09 -0.09)">
      <defs>
       <path id="DejaVuSans-31" d="M 794 531 
L 1825 531 
L 1825 4091 
L 703 3866 
L 703 4441 
L 1819 4666 
L 2450 4666 
L 2450 531 
L 3481 531 
L 3481 0 
L 794 0 
L 794 531 
z
" transform="scale(0.015625)"/>
      </defs>
      <use xlink:href="#DejaVuSans-Oblique-72"/>
      <use xlink:href="#DejaVuSans-Oblique-42" transform="translate(41.113281 -16.40625) scale(0.7)"/>
      <use xlink:href="#DejaVuSans-Oblique-4e" transform="translate(89.135742 -16.40625) scale(0.7)"/>
      <use xlink:href="#DejaVuSans-2c" transform="translate(141.499023 -16.40625) scale(0.7)"/>
      <use xlink:href="#DejaVuSans-31" transform="translate(177.387695 -16.40625) scale(0.7)"/>
     </g>
    </g>
    <g id="line2d_15">
     <path d="M 349.65 227.536875 
L 358.65 227.536875 
L 367.65 227.536875 
" style="fill: none; stroke: #bdab62; stroke-width: 1.5; stroke-linecap: square"/>
    </g>
    <g id="text_14">
     <!-- $r_{BN,2}$ -->
     <g transform="translate(374.85 230.686875) scale(0.09 -0.09)">
      <use xlink:href="#DejaVuSans-Oblique-72"/>
      <use xlink:href="#DejaVuSans-Oblique-42" transform="translate(41.113281 -16.40625) scale(0.7)"/>
      <use xlink:href="#DejaVuSans-Oblique-4e" transform="translate(89.135742 -16.40625) scale(0.7)"/>
      <use xlink:href="#DejaVuSans-2c" transform="translate(141.499023 -16.40625) scale(0.7)"/>
      <use xlink:href="#DejaVuSans-32" transform="translate(177.387695 -16.40625) scale(0.7)"/>
     </g>
    </g>
   </g>
  </g>
 </g>
 <defs>
  <clipPath id="p5c141a6b2f">
   <rect x="85.605625" y="10.8" width="317.594375" height="230.236875"/>
  </clipPath>
 </defs>
</svg>
