<?xml version="1.0" encoding="utf-8" standalone="no"?>
<!DOCTYPE svg PUBLIC "-//W3C//DTD SVG 1.1//EN"
  "http://www.w3.org/Graphics/SVG/1.1/DTD/svg11.dtd">
<svg xmlns:xlink="http://www.w3.org/1999/xlink" width="414pt" height="288pt" viewBox="0 0 414 288" xmlns="http://www.w3.org/2000/svg" version="1.1">
 <metadata>
  <rdf:RDF xmlns:dc="http://purl.org/dc/elements/1.1/" xmlns:cc="http://creativecommons.org/ns#" xmlns:rdf="http://www.w3.org/1999/02/22-rdf-syntax-ns#">
   <cc:Work>
    <dc:type rdf:resource="http://purl.org/dc/dcmitype/StillImage"/>
    <dc:date>2026-01-30T03:10:44.175352</dc:date>
    <dc:format>image/svg+xml</dc:format>
    <dc:creator>
     <cc:Agent>
      <dc:title>Matplotlib v3.10.7, https://matplotlib.org/</dc:title>
     </cc:Agent>
    </dc:creator>
   </cc:Work>
  </rdf:RDF>
 </metadata>
 <defs>
  <style type="text/css">*{stroke-linejoin: round; stroke-linecap: butt}</style>
 </defs>
 <g id="figure_1">
  <g id="patch_1">
   <path d="M 0 288 
L 414 288 
L 414 0 
L 0 0 
L 0 288 
z
" style="fill: none"/>
  </g>
  <g id="axes_1">
   <g id="patch_2">
    <path d="M 70.3525 241.036875 
L 403.2 241.036875 
L 403.2 10.8 
L 70.3525 10.8 
L 70.3525 241.036875 
z
" style="fill: none"/>
   </g>
   <g id="matplotlib.axis_1">
    <g id="xtick_1">
     <g id="line2d_1">
      <defs>
       <path id="m9d621fd764" d="M 0 0 
L 0 3.5 
" style="stroke: #000000; stroke-width: 0.8"/>
      </defs>
      <g>
       <use xlink:href="#m9d621fd764" x="85.481932" y="241.036875" style="stroke: #000000; stroke-width: 0.8"/>
      </g>
     </g>
     <g id="text_1">
      <!-- 0 -->
      <g transform="translate(80.391932 260.194375) scale(0.16 -0.16)">
       <defs>
        <path id="DejaVuSans-30" d="M 2034 4250 
Q 1547 4250 1301 3770 
Q 1056 3291 1056 2328 
Q 1056 1369 1301 889 
Q 1547 409 2034 409 
Q 2525 409 2770 889 
Q 3016 1369 3016 2328 
Q 3016 3291 2770 3770 
Q 2525 4250 2034 4250 
z
M 2034 4750 
Q 2819 4750 3233 4129 
Q 3647 3509 3647 2328 
Q 3647 1150 3233 529 
Q 2819 -91 2034 -91 
Q 1250 -91 836 529 
Q 422 1150 422 2328 
Q 422 3509 836 4129 
Q 1250 4750 2034 4750 
z
" transform="scale(0.015625)"/>
       </defs>
       <use xlink:href="#DejaVuSans-30"/>
      </g>
     </g>
    </g>
    <g id="xtick_2">
     <g id="line2d_2">
      <g>
       <use xlink:href="#m9d621fd764" x="145.999659" y="241.036875" style="stroke: #000000; stroke-width: 0.8"/>
      </g>
     </g>
     <g id="text_2">
      <!-- 2 -->
      <g transform="translate(140.909659 260.194375) scale(0.16 -0.16)">
       <defs>
        <path id="DejaVuSans-32" d="M 1228 531 
L 3431 531 
L 3431 0 
L 469 0 
L 469 531 
Q 828 903 1448 1529 
Q 2069 2156 2228 2338 
Q 2531 2678 2651 2914 
Q 2772 3150 2772 3378 
Q 2772 3750 2511 3984 
Q 2250 4219 1831 4219 
Q 1534 4219 1204 4116 
Q 875 4013 500 3803 
L 500 4441 
Q 881 4594 1212 4672 
Q 1544 4750 1819 4750 
Q 2544 4750 2975 4387 
Q 3406 4025 3406 3419 
Q 3406 3131 3298 2873 
Q 3191 2616 2906 2266 
Q 2828 2175 2409 1742 
Q 1991 1309 1228 531 
z
" transform="scale(0.015625)"/>
       </defs>
       <use xlink:href="#DejaVuSans-32"/>
      </g>
     </g>
    </g>
    <g id="xtick_3">
     <g id="line2d_3">
      <g>
       <use xlink:href="#m9d621fd764" x="206.517386" y="241.036875" style="stroke: #000000; stroke-width: 0.8"/>
      </g>
     </g>
     <g id="text_3">
      <!-- 4 -->
      <g transform="translate(201.427386 260.194375) scale(0.16 -0.16)">
       <defs>
        <path id="DejaVuSans-34" d="M 2419 4116 
L 825 1625 
L 2419 1625 
L 2419 4116 
z
M 2253 4666 
L 3047 4666 
L 3047 1625 
L 3713 1625 
L 3713 1100 
L 3047 1100 
L 3047 0 
L 2419 0 
L 2419 1100 
L 313 1100 
L 313 1709 
L 2253 4666 
z
" transform="scale(0.015625)"/>
       </defs>
       <use xlink:href="#DejaVuSans-34"/>
      </g>
     </g>
    </g>
    <g id="xtick_4">
     <g id="line2d_4">
      <g>
       <use xlink:href="#m9d621fd764" x="267.035114" y="241.036875" style="stroke: #000000; stroke-width: 0.8"/>
      </g>
     </g>
     <g id="text_4">
      <!-- 6 -->
      <g transform="translate(261.945114 260.194375) scale(0.16 -0.16)">
       <defs>
        <path id="DejaVuSans-36" d="M 2113 2584 
Q 1688 2584 1439 2293 
Q 1191 2003 1191 1497 
Q 1191 994 1439 701 
Q 1688 409 2113 409 
Q 2538 409 2786 701 
Q 3034 994 3034 1497 
Q 3034 2003 2786 2293 
Q 2538 2584 2113 2584 
z
M 3366 4563 
L 3366 3988 
Q 3128 4100 2886 4159 
Q 2644 4219 2406 4219 
Q 1781 4219 1451 3797 
Q 1122 3375 1075 2522 
Q 1259 2794 1537 2939 
Q 1816 3084 2150 3084 
Q 2853 3084 3261 2657 
Q 3669 2231 3669 1497 
Q 3669 778 3244 343 
Q 2819 -91 2113 -91 
Q 1303 -91 875 529 
Q 447 1150 447 2328 
Q 447 3434 972 4092 
Q 1497 4750 2381 4750 
Q 2619 4750 2861 4703 
Q 3103 4656 3366 4563 
z
" transform="scale(0.015625)"/>
       </defs>
       <use xlink:href="#DejaVuSans-36"/>
      </g>
     </g>
    </g>
    <g id="xtick_5">
     <g id="line2d_5">
      <g>
       <use xlink:href="#m9d621fd764" x="327.552841" y="241.036875" style="stroke: #000000; stroke-width: 0.8"/>
      </g>
     </g>
     <g id="text_5">
      <!-- 8 -->
      <g transform="translate(322.462841 260.194375) scale(0.16 -0.16)">
       <defs>
        <path id="DejaVuSans-38" d="M 2034 2216 
Q 1584 2216 1326 1975 
Q 1069 1734 1069 1313 
Q 1069 891 1326 650 
Q 1584 409 2034 409 
Q 2484 409 2743 651 
Q 3003 894 3003 1313 
Q 3003 1734 2745 1975 
Q 2488 2216 2034 2216 
z
M 1403 2484 
Q 997 2584 770 2862 
Q 544 3141 544 3541 
Q 544 4100 942 4425 
Q 1341 4750 2034 4750 
Q 2731 4750 3128 4425 
Q 3525 4100 3525 3541 
Q 3525 3141 3298 2862 
Q 3072 2584 2669 2484 
Q 3125 2378 3379 2068 
Q 3634 1759 3634 1313 
Q 3634 634 3220 271 
Q 2806 -91 2034 -91 
Q 1263 -91 848 271 
Q 434 634 434 1313 
Q 434 1759 690 2068 
Q 947 2378 1403 2484 
z
M 1172 3481 
Q 1172 3119 1398 2916 
Q 1625 2713 2034 2713 
Q 2441 2713 2670 2916 
Q 2900 3119 2900 3481 
Q 2900 3844 2670 4047 
Q 2441 4250 2034 4250 
Q 1625 4250 1398 4047 
Q 1172 3844 1172 3481 
z
" transform="scale(0.015625)"/>
       </defs>
       <use xlink:href="#DejaVuSans-38"/>
      </g>
     </g>
    </g>
    <g id="xtick_6">
     <g id="line2d_6">
      <g>
       <use xlink:href="#m9d621fd764" x="388.070568" y="241.036875" style="stroke: #000000; stroke-width: 0.8"/>
      </g>
     </g>
     <g id="text_6">
      <!-- 10 -->
      <g transform="translate(377.890568 260.194375) scale(0.16 -0.16)">
       <defs>
        <path id="DejaVuSans-31" d="M 794 531 
L 1825 531 
L 1825 4091 
L 703 3866 
L 703 4441 
L 1819 4666 
L 2450 4666 
L 2450 531 
L 3481 531 
L 3481 0 
L 794 0 
L 794 531 
z
" transform="scale(0.015625)"/>
       </defs>
       <use xlink:href="#DejaVuSans-31"/>
       <use xlink:href="#DejaVuSans-30" transform="translate(63.623047 0)"/>
      </g>
     </g>
    </g>
    <g id="text_7">
     <!-- Time [min] -->
     <g transform="translate(209.623906 275.120313) scale(0.1 -0.1)">
      <defs>
       <path id="DejaVuSans-54" d="M -19 4666 
L 3928 4666 
L 3928 4134 
L 2272 4134 
L 2272 0 
L 1638 0 
L 1638 4134 
L -19 4134 
L -19 4666 
z
" transform="scale(0.015625)"/>
       <path id="DejaVuSans-69" d="M 603 3500 
L 1178 3500 
L 1178 0 
L 603 0 
L 603 3500 
z
M 603 4863 
L 1178 4863 
L 1178 4134 
L 603 4134 
L 603 4863 
z
" transform="scale(0.015625)"/>
       <path id="DejaVuSans-6d" d="M 3328 2828 
Q 3544 3216 3844 3400 
Q 4144 3584 4550 3584 
Q 5097 3584 5394 3201 
Q 5691 2819 5691 2113 
L 5691 0 
L 5113 0 
L 5113 2094 
Q 5113 2597 4934 2840 
Q 4756 3084 4391 3084 
Q 3944 3084 3684 2787 
Q 3425 2491 3425 1978 
L 3425 0 
L 2847 0 
L 2847 2094 
Q 2847 2600 2669 2842 
Q 2491 3084 2119 3084 
Q 1678 3084 1418 2786 
Q 1159 2488 1159 1978 
L 1159 0 
L 581 0 
L 581 3500 
L 1159 3500 
L 1159 2956 
Q 1356 3278 1631 3431 
Q 1906 3584 2284 3584 
Q 2666 3584 2933 3390 
Q 3200 3197 3328 2828 
z
" transform="scale(0.015625)"/>
       <path id="DejaVuSans-65" d="M 3597 1894 
L 3597 1613 
L 953 1613 
Q 991 1019 1311 708 
Q 1631 397 2203 397 
Q 2534 397 2845 478 
Q 3156 559 3463 722 
L 3463 178 
Q 3153 47 2828 -22 
Q 2503 -91 2169 -91 
Q 1331 -91 842 396 
Q 353 884 353 1716 
Q 353 2575 817 3079 
Q 1281 3584 2069 3584 
Q 2775 3584 3186 3129 
Q 3597 2675 3597 1894 
z
M 3022 2063 
Q 3016 2534 2758 2815 
Q 2500 3097 2075 3097 
Q 1594 3097 1305 2825 
Q 1016 2553 972 2059 
L 3022 2063 
z
" transform="scale(0.015625)"/>
       <path id="DejaVuSans-20" transform="scale(0.015625)"/>
       <path id="DejaVuSans-5b" d="M 550 4863 
L 1875 4863 
L 1875 4416 
L 1125 4416 
L 1125 -397 
L 1875 -397 
L 1875 -844 
L 550 -844 
L 550 4863 
z
" transform="scale(0.015625)"/>
       <path id="DejaVuSans-6e" d="M 3513 2113 
L 3513 0 
L 2938 0 
L 2938 2094 
Q 2938 2591 2744 2837 
Q 2550 3084 2163 3084 
Q 1697 3084 1428 2787 
Q 1159 2491 1159 1978 
L 1159 0 
L 581 0 
L 581 3500 
L 1159 3500 
L 1159 2956 
Q 1366 3272 1645 3428 
Q 1925 3584 2291 3584 
Q 2894 3584 3203 3211 
Q 3513 2838 3513 2113 
z
" transform="scale(0.015625)"/>
       <path id="DejaVuSans-5d" d="M 1947 4863 
L 1947 -844 
L 622 -844 
L 622 -397 
L 1369 -397 
L 1369 4416 
L 622 4416 
L 622 4863 
L 1947 4863 
z
" transform="scale(0.015625)"/>
      </defs>
      <use xlink:href="#DejaVuSans-54"/>
      <use xlink:href="#DejaVuSans-69" transform="translate(57.958984 0)"/>
      <use xlink:href="#DejaVuSans-6d" transform="translate(85.742188 0)"/>
      <use xlink:href="#DejaVuSans-65" transform="translate(183.154297 0)"/>
      <use xlink:href="#DejaVuSans-20" transform="translate(244.677734 0)"/>
      <use xlink:href="#DejaVuSans-5b" transform="translate(276.464844 0)"/>
      <use xlink:href="#DejaVuSans-6d" transform="translate(315.478516 0)"/>
      <use xlink:href="#DejaVuSans-69" transform="translate(412.890625 0)"/>
      <use xlink:href="#DejaVuSans-6e" transform="translate(440.673828 0)"/>
      <use xlink:href="#DejaVuSans-5d" transform="translate(504.052734 0)"/>
     </g>
    </g>
   </g>
   <g id="matplotlib.axis_2">
    <g id="ytick_1">
     <g id="line2d_7">
      <defs>
       <path id="maad1a6775e" d="M 0 0 
L -3.5 0 
" style="stroke: #000000; stroke-width: 0.8"/>
      </defs>
      <g>
       <use xlink:href="#maad1a6775e" x="70.3525" y="230.571562" style="stroke: #000000; stroke-width: 0.8"/>
      </g>
     </g>
     <g id="text_8">
      <!-- −0.4 -->
      <g transform="translate(24.5 236.650312) scale(0.16 -0.16)">
       <defs>
        <path id="DejaVuSans-2212" d="M 678 2272 
L 4684 2272 
L 4684 1741 
L 678 1741 
L 678 2272 
z
" transform="scale(0.015625)"/>
        <path id="DejaVuSans-2e" d="M 684 794 
L 1344 794 
L 1344 0 
L 684 0 
L 684 794 
z
" transform="scale(0.015625)"/>
       </defs>
       <use xlink:href="#DejaVuSans-2212"/>
       <use xlink:href="#DejaVuSans-30" transform="translate(83.789062 0)"/>
       <use xlink:href="#DejaVuSans-2e" transform="translate(147.412109 0)"/>
       <use xlink:href="#DejaVuSans-34" transform="translate(179.199219 0)"/>
      </g>
     </g>
    </g>
    <g id="ytick_2">
     <g id="line2d_8">
      <g>
       <use xlink:href="#maad1a6775e" x="70.3525" y="193.064302" style="stroke: #000000; stroke-width: 0.8"/>
      </g>
     </g>
     <g id="text_9">
      <!-- −0.3 -->
      <g transform="translate(24.5 199.143052) scale(0.16 -0.16)">
       <defs>
        <path id="DejaVuSans-33" d="M 2597 2516 
Q 3050 2419 3304 2112 
Q 3559 1806 3559 1356 
Q 3559 666 3084 287 
Q 2609 -91 1734 -91 
Q 1441 -91 1130 -33 
Q 819 25 488 141 
L 488 750 
Q 750 597 1062 519 
Q 1375 441 1716 441 
Q 2309 441 2620 675 
Q 2931 909 2931 1356 
Q 2931 1769 2642 2001 
Q 2353 2234 1838 2234 
L 1294 2234 
L 1294 2753 
L 1863 2753 
Q 2328 2753 2575 2939 
Q 2822 3125 2822 3475 
Q 2822 3834 2567 4026 
Q 2313 4219 1838 4219 
Q 1578 4219 1281 4162 
Q 984 4106 628 3988 
L 628 4550 
Q 988 4650 1302 4700 
Q 1616 4750 1894 4750 
Q 2613 4750 3031 4423 
Q 3450 4097 3450 3541 
Q 3450 3153 3228 2886 
Q 3006 2619 2597 2516 
z
" transform="scale(0.015625)"/>
       </defs>
       <use xlink:href="#DejaVuSans-2212"/>
       <use xlink:href="#DejaVuSans-30" transform="translate(83.789062 0)"/>
       <use xlink:href="#DejaVuSans-2e" transform="translate(147.412109 0)"/>
       <use xlink:href="#DejaVuSans-33" transform="translate(179.199219 0)"/>
      </g>
     </g>
    </g>
    <g id="ytick_3">
     <g id="line2d_9">
      <g>
       <use xlink:href="#maad1a6775e" x="70.3525" y="155.557042" style="stroke: #000000; stroke-width: 0.8"/>
      </g>
     </g>
     <g id="text_10">
      <!-- −0.2 -->
      <g transform="translate(24.5 161.635792) scale(0.16 -0.16)">
       <use xlink:href="#DejaVuSans-2212"/>
       <use xlink:href="#DejaVuSans-30" transform="translate(83.789062 0)"/>
       <use xlink:href="#DejaVuSans-2e" transform="translate(147.412109 0)"/>
       <use xlink:href="#DejaVuSans-32" transform="translate(179.199219 0)"/>
      </g>
     </g>
    </g>
    <g id="ytick_4">
     <g id="line2d_10">
      <g>
       <use xlink:href="#maad1a6775e" x="70.3525" y="118.049782" style="stroke: #000000; stroke-width: 0.8"/>
      </g>
     </g>
     <g id="text_11">
      <!-- −0.1 -->
      <g transform="translate(24.5 124.128532) scale(0.16 -0.16)">
       <use xlink:href="#DejaVuSans-2212"/>
       <use xlink:href="#DejaVuSans-30" transform="translate(83.789062 0)"/>
       <use xlink:href="#DejaVuSans-2e" transform="translate(147.412109 0)"/>
       <use xlink:href="#DejaVuSans-31" transform="translate(179.199219 0)"/>
      </g>
     </g>
    </g>
    <g id="ytick_5">
     <g id="line2d_11">
      <g>
       <use xlink:href="#maad1a6775e" x="70.3525" y="80.542522" style="stroke: #000000; stroke-width: 0.8"/>
      </g>
     </g>
     <g id="text_12">
      <!-- 0.0 -->
      <g transform="translate(37.9075 86.621272) scale(0.16 -0.16)">
       <use xlink:href="#DejaVuSans-30"/>
       <use xlink:href="#DejaVuSans-2e" transform="translate(63.623047 0)"/>
       <use xlink:href="#DejaVuSans-30" transform="translate(95.410156 0)"/>
      </g>
     </g>
    </g>
    <g id="ytick_6">
     <g id="line2d_12">
      <g>
       <use xlink:href="#maad1a6775e" x="70.3525" y="43.035261" style="stroke: #000000; stroke-width: 0.8"/>
      </g>
     </g>
     <g id="text_13">
      <!-- 0.1 -->
      <g transform="translate(37.9075 49.114011) scale(0.16 -0.16)">
       <use xlink:href="#DejaVuSans-30"/>
       <use xlink:href="#DejaVuSans-2e" transform="translate(63.623047 0)"/>
       <use xlink:href="#DejaVuSans-31" transform="translate(95.410156 0)"/>
      </g>
     </g>
    </g>
    <g id="text_14">
     <!-- Control Torque $L_r$ [Nm] -->
     <g transform="translate(18.4 183.368437) rotate(-90) scale(0.1 -0.1)">
      <defs>
       <path id="DejaVuSans-43" d="M 4122 4306 
L 4122 3641 
Q 3803 3938 3442 4084 
Q 3081 4231 2675 4231 
Q 1875 4231 1450 3742 
Q 1025 3253 1025 2328 
Q 1025 1406 1450 917 
Q 1875 428 2675 428 
Q 3081 428 3442 575 
Q 3803 722 4122 1019 
L 4122 359 
Q 3791 134 3420 21 
Q 3050 -91 2638 -91 
Q 1578 -91 968 557 
Q 359 1206 359 2328 
Q 359 3453 968 4101 
Q 1578 4750 2638 4750 
Q 3056 4750 3426 4639 
Q 3797 4528 4122 4306 
z
" transform="scale(0.015625)"/>
       <path id="DejaVuSans-6f" d="M 1959 3097 
Q 1497 3097 1228 2736 
Q 959 2375 959 1747 
Q 959 1119 1226 758 
Q 1494 397 1959 397 
Q 2419 397 2687 759 
Q 2956 1122 2956 1747 
Q 2956 2369 2687 2733 
Q 2419 3097 1959 3097 
z
M 1959 3584 
Q 2709 3584 3137 3096 
Q 3566 2609 3566 1747 
Q 3566 888 3137 398 
Q 2709 -91 1959 -91 
Q 1206 -91 779 398 
Q 353 888 353 1747 
Q 353 2609 779 3096 
Q 1206 3584 1959 3584 
z
" transform="scale(0.015625)"/>
       <path id="DejaVuSans-74" d="M 1172 4494 
L 1172 3500 
L 2356 3500 
L 2356 3053 
L 1172 3053 
L 1172 1153 
Q 1172 725 1289 603 
Q 1406 481 1766 481 
L 2356 481 
L 2356 0 
L 1766 0 
Q 1100 0 847 248 
Q 594 497 594 1153 
L 594 3053 
L 172 3053 
L 172 3500 
L 594 3500 
L 594 4494 
L 1172 4494 
z
" transform="scale(0.015625)"/>
       <path id="DejaVuSans-72" d="M 2631 2963 
Q 2534 3019 2420 3045 
Q 2306 3072 2169 3072 
Q 1681 3072 1420 2755 
Q 1159 2438 1159 1844 
L 1159 0 
L 581 0 
L 581 3500 
L 1159 3500 
L 1159 2956 
Q 1341 3275 1631 3429 
Q 1922 3584 2338 3584 
Q 2397 3584 2469 3576 
Q 2541 3569 2628 3553 
L 2631 2963 
z
" transform="scale(0.015625)"/>
       <path id="DejaVuSans-6c" d="M 603 4863 
L 1178 4863 
L 1178 0 
L 603 0 
L 603 4863 
z
" transform="scale(0.015625)"/>
       <path id="DejaVuSans-71" d="M 947 1747 
Q 947 1113 1208 752 
Q 1469 391 1925 391 
Q 2381 391 2643 752 
Q 2906 1113 2906 1747 
Q 2906 2381 2643 2742 
Q 2381 3103 1925 3103 
Q 1469 3103 1208 2742 
Q 947 2381 947 1747 
z
M 2906 525 
Q 2725 213 2448 61 
Q 2172 -91 1784 -91 
Q 1150 -91 751 415 
Q 353 922 353 1747 
Q 353 2572 751 3078 
Q 1150 3584 1784 3584 
Q 2172 3584 2448 3432 
Q 2725 3281 2906 2969 
L 2906 3500 
L 3481 3500 
L 3481 -1331 
L 2906 -1331 
L 2906 525 
z
" transform="scale(0.015625)"/>
       <path id="DejaVuSans-75" d="M 544 1381 
L 544 3500 
L 1119 3500 
L 1119 1403 
Q 1119 906 1312 657 
Q 1506 409 1894 409 
Q 2359 409 2629 706 
Q 2900 1003 2900 1516 
L 2900 3500 
L 3475 3500 
L 3475 0 
L 2900 0 
L 2900 538 
Q 2691 219 2414 64 
Q 2138 -91 1772 -91 
Q 1169 -91 856 284 
Q 544 659 544 1381 
z
M 1991 3584 
L 1991 3584 
z
" transform="scale(0.015625)"/>
       <path id="DejaVuSans-Oblique-4c" d="M 1075 4666 
L 1709 4666 
L 909 525 
L 3181 525 
L 3078 0 
L 172 0 
L 1075 4666 
z
" transform="scale(0.015625)"/>
       <path id="DejaVuSans-Oblique-72" d="M 2853 2969 
Q 2766 3016 2653 3041 
Q 2541 3066 2413 3066 
Q 1953 3066 1609 2717 
Q 1266 2369 1153 1784 
L 800 0 
L 225 0 
L 909 3500 
L 1484 3500 
L 1375 2956 
Q 1603 3259 1920 3421 
Q 2238 3584 2597 3584 
Q 2691 3584 2781 3573 
Q 2872 3563 2963 3538 
L 2853 2969 
z
" transform="scale(0.015625)"/>
       <path id="DejaVuSans-4e" d="M 628 4666 
L 1478 4666 
L 3547 763 
L 3547 4666 
L 4159 4666 
L 4159 0 
L 3309 0 
L 1241 3903 
L 1241 0 
L 628 0 
L 628 4666 
z
" transform="scale(0.015625)"/>
      </defs>
      <use xlink:href="#DejaVuSans-43" transform="translate(0 0.015625)"/>
      <use xlink:href="#DejaVuSans-6f" transform="translate(69.824219 0.015625)"/>
      <use xlink:href="#DejaVuSans-6e" transform="translate(131.005859 0.015625)"/>
      <use xlink:href="#DejaVuSans-74" transform="translate(194.384766 0.015625)"/>
      <use xlink:href="#DejaVuSans-72" transform="translate(233.59375 0.015625)"/>
      <use xlink:href="#DejaVuSans-6f" transform="translate(274.707031 0.015625)"/>
      <use xlink:href="#DejaVuSans-6c" transform="translate(335.888672 0.015625)"/>
      <use xlink:href="#DejaVuSans-20" transform="translate(363.671875 0.015625)"/>
      <use xlink:href="#DejaVuSans-54" transform="translate(395.458984 0.015625)"/>
      <use xlink:href="#DejaVuSans-6f" transform="translate(456.542969 0.015625)"/>
      <use xlink:href="#DejaVuSans-72" transform="translate(517.724609 0.015625)"/>
      <use xlink:href="#DejaVuSans-71" transform="translate(558.837891 0.015625)"/>
      <use xlink:href="#DejaVuSans-75" transform="translate(622.314453 0.015625)"/>
      <use xlink:href="#DejaVuSans-65" transform="translate(685.693359 0.015625)"/>
      <use xlink:href="#DejaVuSans-20" transform="translate(747.216797 0.015625)"/>
      <use xlink:href="#DejaVuSans-Oblique-4c" transform="translate(779.003906 0.015625)"/>
      <use xlink:href="#DejaVuSans-Oblique-72" transform="translate(834.716797 -16.390625) scale(0.7)"/>
      <use xlink:href="#DejaVuSans-20" transform="translate(866.230469 0.015625)"/>
      <use xlink:href="#DejaVuSans-5b" transform="translate(898.017578 0.015625)"/>
      <use xlink:href="#DejaVuSans-4e" transform="translate(937.03125 0.015625)"/>
      <use xlink:href="#DejaVuSans-6d" transform="translate(1011.835938 0.015625)"/>
      <use xlink:href="#DejaVuSans-5d" transform="translate(1109.248047 0.015625)"/>
     </g>
    </g>
   </g>
   <g id="line2d_13">
    <path d="M 85.481932 223.07011 
L 88.507818 197.256356 
L 91.533705 168.468416 
L 94.559591 140.043315 
L 97.585477 113.878441 
L 100.611364 91.053549 
L 103.63725 72.047018 
L 106.663136 56.93535 
L 109.689023 45.545369 
L 112.714909 37.558825 
L 115.740795 32.5804 
L 118.766682 30.181266 
L 121.792568 29.927564 
L 124.818455 31.39964 
L 127.844341 34.205192 
L 130.870227 37.987902 
L 133.896114 42.432434 
L 136.922 47.266473 
L 139.947886 52.260483 
L 142.973773 57.225839 
L 145.999659 62.01194 
L 149.025545 66.502782 
L 152.051432 70.61331 
L 155.077318 74.285776 
L 158.103205 77.486191 
L 161.129091 80.200918 
L 164.154977 82.433421 
L 167.180864 84.201164 
L 170.20675 85.532689 
L 173.232636 86.464865 
L 176.258523 87.040361 
L 179.284409 87.305351 
L 182.310295 87.307496 
L 185.336182 87.094202 
L 188.362068 86.711179 
L 191.387955 86.201304 
L 194.413841 85.603758 
L 197.439727 84.953444 
L 200.465614 84.280634 
L 203.4915 83.610837 
L 206.517386 82.964844 
L 209.543273 82.358914 
L 212.569159 81.805077 
L 215.595045 81.311518 
L 218.620932 80.883011 
L 221.646818 80.521391 
L 224.672705 80.226028 
L 227.698591 79.994298 
L 230.724477 79.822025 
L 233.750364 79.703901 
L 236.77625 79.633859 
L 239.802136 79.605402 
L 242.828023 79.611893 
L 245.853909 79.646785 
L 248.879795 79.703819 
L 251.905682 79.777165 
L 254.931568 79.861534 
L 257.957455 79.952245 
L 260.983341 80.045266 
L 264.009227 80.137219 
L 267.035114 80.225378 
L 270.061 80.307627 
L 273.086886 80.382425 
L 276.112773 80.448746 
L 279.138659 80.506018 
L 282.164545 80.554064 
L 285.190432 80.593028 
L 288.216318 80.62332 
L 291.242205 80.64555 
L 294.268091 80.660473 
L 297.293977 80.66894 
L 300.319864 80.671853 
L 303.34575 80.670127 
L 306.371636 80.664657 
L 309.397523 80.656298 
L 312.423409 80.645838 
L 315.449295 80.633991 
L 318.475182 80.621385 
L 321.501068 80.608559 
L 324.526955 80.59596 
L 327.552841 80.583947 
L 330.578727 80.572797 
L 333.604614 80.562706 
L 336.6305 80.553804 
L 339.656386 80.546158 
L 342.682273 80.539783 
L 345.708159 80.534652 
L 348.734045 80.530701 
L 351.759932 80.527843 
L 354.785818 80.525969 
L 357.811705 80.524962 
L 360.837591 80.524695 
L 363.863477 80.525043 
L 366.889364 80.525884 
L 369.91525 80.527101 
L 372.941136 80.528588 
L 375.967023 80.530248 
L 378.992909 80.531997 
L 382.018795 80.533763 
L 385.044682 80.535487 
L 388.070568 80.537122 
" clip-path="url(#pa892356a6d)" style="fill: none; stroke: #2b737e; stroke-width: 1.5; stroke-linecap: square"/>
   </g>
   <g id="line2d_14">
    <path d="M 85.481932 230.571563 
L 88.507818 165.779072 
L 91.533705 115.96009 
L 94.559591 79.682749 
L 97.585477 54.483552 
L 100.611364 37.945993 
L 103.63725 27.966069 
L 106.663136 22.842807 
L 109.689023 21.265313 
L 112.714909 22.251164 
L 115.740795 25.071236 
L 118.766682 29.180054 
L 121.792568 34.159951 
L 124.818455 39.680775 
L 127.844341 45.473466 
L 130.870227 51.314429 
L 133.896114 57.017333 
L 136.922 62.429421 
L 139.947886 67.430027 
L 142.973773 71.929729 
L 145.999659 75.869187 
L 149.025545 79.217215 
L 152.051432 81.967987 
L 155.077318 84.137507 
L 158.103205 85.759579 
L 161.129091 86.881564 
L 164.154977 87.560201 
L 167.180864 87.857702 
L 170.20675 87.838308 
L 173.232636 87.565383 
L 176.258523 87.099122 
L 179.284409 86.494838 
L 182.310295 85.801812 
L 185.336182 85.062631 
L 188.362068 84.312942 
L 191.387955 83.581538 
L 194.413841 82.890699 
L 197.439727 82.256713 
L 200.465614 81.690521 
L 203.4915 81.198417 
L 206.517386 80.782785 
L 209.543273 80.442813 
L 212.569159 80.175181 
L 215.595045 79.974685 
L 218.620932 79.834815 
L 221.646818 79.748239 
L 224.672705 79.707237 
L 227.698591 79.704043 
L 230.724477 79.731132 
L 233.750364 79.781433 
L 236.77625 79.848482 
L 239.802136 79.926533 
L 242.828023 80.010609 
L 245.853909 80.096526 
L 248.879795 80.180877 
L 251.905682 80.260998 
L 254.931568 80.334911 
L 257.957455 80.401256 
L 260.983341 80.459216 
L 264.009227 80.508432 
L 267.035114 80.548928 
L 270.061 80.581032 
L 273.086886 80.6053 
L 276.112773 80.622457 
L 279.138659 80.633328 
L 282.164545 80.638799 
L 285.190432 80.639763 
L 288.216318 80.637098 
L 291.242205 80.631627 
L 294.268091 80.624112 
L 297.293977 80.615229 
L 300.319864 80.605568 
L 303.34575 80.595629 
L 306.371636 80.585817 
L 309.397523 80.576455 
L 312.423409 80.567782 
L 315.449295 80.559966 
L 318.475182 80.55311 
L 321.501068 80.547263 
L 324.526955 80.542427 
L 327.552841 80.538571 
L 330.578727 80.535632 
L 333.604614 80.533529 
L 336.6305 80.532168 
L 339.656386 80.531448 
L 342.682273 80.531264 
L 345.708159 80.531515 
L 348.734045 80.532104 
L 351.759932 80.532943 
L 354.785818 80.533951 
L 357.811705 80.535058 
L 360.837591 80.536206 
L 363.863477 80.537346 
L 366.889364 80.538438 
L 369.91525 80.539455 
L 372.941136 80.540375 
L 375.967023 80.541185 
L 378.992909 80.541879 
L 382.018795 80.542456 
L 385.044682 80.542918 
L 388.070568 80.543274 
" clip-path="url(#pa892356a6d)" style="fill: none; stroke: #5ea04b; stroke-width: 1.5; stroke-linecap: square"/>
   </g>
   <g id="line2d_15">
    <path d="M 85.481932 24.281631 
L 88.507818 90.886193 
L 91.533705 140.137323 
L 94.559591 173.957463 
L 97.585477 194.826109 
L 100.611364 205.195171 
L 103.63725 207.338452 
L 106.663136 203.286569 
L 109.689023 194.806297 
L 112.714909 183.400749 
L 115.740795 170.318856 
L 118.766682 156.569549 
L 121.792568 142.939312 
L 124.818455 130.012793 
L 127.844341 118.196166 
L 130.870227 107.742466 
L 133.896114 98.777794 
L 136.922 91.327186 
L 139.947886 85.339001 
L 142.973773 80.706968 
L 145.999659 77.289324 
L 149.025545 74.924771 
L 152.051432 73.44525 
L 155.077318 72.6857 
L 158.103205 72.491083 
L 161.129091 72.721071 
L 164.154977 73.25276 
L 167.180864 73.981817 
L 170.20675 74.822428 
L 173.232636 75.706375 
L 176.258523 76.581514 
L 179.284409 77.409914 
L 182.310295 78.165821 
L 185.336182 78.833605 
L 188.362068 79.405784 
L 191.387955 79.881211 
L 194.413841 80.263446 
L 197.439727 80.559358 
L 200.465614 80.777939 
L 203.4915 80.929342 
L 206.517386 81.024121 
L 209.543273 81.072649 
L 212.569159 81.084697 
L 215.595045 81.069156 
L 218.620932 81.033859 
L 221.646818 80.985508 
L 224.672705 80.929661 
L 227.698591 80.87078 
L 230.724477 80.812311 
L 233.750364 80.756792 
L 236.77625 80.705972 
L 239.802136 80.660935 
L 242.828023 80.622224 
L 245.853909 80.589955 
L 248.879795 80.563919 
L 251.905682 80.543683 
L 254.931568 80.528659 
L 257.957455 80.518176 
L 260.983341 80.51153 
L 264.009227 80.508027 
L 267.035114 80.507008 
L 270.061 80.507874 
L 273.086886 80.510094 
L 276.112773 80.513215 
L 279.138659 80.516861 
L 282.164545 80.520727 
L 285.190432 80.524581 
L 288.216318 80.528251 
L 291.242205 80.531616 
L 294.268091 80.534603 
L 297.293977 80.537175 
L 300.319864 80.539321 
L 303.34575 80.541055 
L 306.371636 80.542406 
L 309.397523 80.54341 
L 312.423409 80.544114 
L 315.449295 80.544562 
L 318.475182 80.544801 
L 321.501068 80.544875 
L 324.526955 80.544822 
L 327.552841 80.544679 
L 330.578727 80.544474 
L 333.604614 80.544235 
L 336.6305 80.543979 
L 339.656386 80.543724 
L 342.682273 80.54348 
L 345.708159 80.543256 
L 348.734045 80.543057 
L 351.759932 80.542886 
L 354.785818 80.542742 
L 357.811705 80.542626 
L 360.837591 80.542535 
L 363.863477 80.542467 
L 366.889364 80.542419 
L 369.91525 80.542389 
L 372.941136 80.542372 
L 375.967023 80.542367 
L 378.992909 80.54237 
L 382.018795 80.542379 
L 385.044682 80.542392 
L 388.070568 80.542408 
" clip-path="url(#pa892356a6d)" style="fill: none; stroke: #bdab62; stroke-width: 1.5; stroke-linecap: square"/>
   </g>
   <g id="patch_3">
    <path d="M 70.3525 241.036875 
L 70.3525 10.8 
" style="fill: none; stroke: #000000; stroke-width: 0.8; stroke-linejoin: miter; stroke-linecap: square"/>
   </g>
   <g id="patch_4">
    <path d="M 403.2 241.036875 
L 403.2 10.8 
" style="fill: none; stroke: #000000; stroke-width: 0.8; stroke-linejoin: miter; stroke-linecap: square"/>
   </g>
   <g id="patch_5">
    <path d="M 70.3525 241.036875 
L 403.2 241.036875 
" style="fill: none; stroke: #000000; stroke-width: 0.8; stroke-linejoin: miter; stroke-linecap: square"/>
   </g>
   <g id="patch_6">
    <path d="M 70.3525 10.8 
L 403.2 10.8 
" style="fill: none; stroke: #000000; stroke-width: 0.8; stroke-linejoin: miter; stroke-linecap: square"/>
   </g>
   <g id="legend_1">
    <g id="patch_7">
     <path d="M 352.98 236.536875 
L 396.9 236.536875 
Q 398.7 236.536875 398.7 234.736875 
L 398.7 194.871094 
Q 398.7 193.071094 396.9 193.071094 
L 352.98 193.071094 
Q 351.18 193.071094 351.18 194.871094 
L 351.18 234.736875 
Q 351.18 236.536875 352.98 236.536875 
z
" style="fill: #ffffff; opacity: 0.8; stroke: #cccccc; stroke-linejoin: miter"/>
    </g>
    <g id="line2d_16">
     <path d="M 354.78 200.359687 
L 363.78 200.359687 
L 372.78 200.359687 
" style="fill: none; stroke: #2b737e; stroke-width: 1.5; stroke-linecap: square"/>
    </g>
    <g id="text_15">
     <!-- $L_{r,0}$ -->
     <g transform="translate(379.98 203.509687) scale(0.09 -0.09)">
      <defs>
       <path id="DejaVuSans-2c" d="M 750 794 
L 1409 794 
L 1409 256 
L 897 -744 
L 494 -744 
L 750 256 
L 750 794 
z
" transform="scale(0.015625)"/>
      </defs>
      <use xlink:href="#DejaVuSans-Oblique-4c" transform="translate(0 0.09375)"/>
      <use xlink:href="#DejaVuSans-Oblique-72" transform="translate(55.712891 -16.3125) scale(0.7)"/>
      <use xlink:href="#DejaVuSans-2c" transform="translate(84.492188 -16.3125) scale(0.7)"/>
      <use xlink:href="#DejaVuSans-30" transform="translate(120.380859 -16.3125) scale(0.7)"/>
     </g>
    </g>
    <g id="line2d_17">
     <path d="M 354.78 213.948281 
L 363.78 213.948281 
L 372.78 213.948281 
" style="fill: none; stroke: #5ea04b; stroke-width: 1.5; stroke-linecap: square"/>
    </g>
    <g id="text_16">
     <!-- $L_{r,1}$ -->
     <g transform="translate(379.98 217.098281) scale(0.09 -0.09)">
      <use xlink:href="#DejaVuSans-Oblique-4c" transform="translate(0 0.09375)"/>
      <use xlink:href="#DejaVuSans-Oblique-72" transform="translate(55.712891 -16.3125) scale(0.7)"/>
      <use xlink:href="#DejaVuSans-2c" transform="translate(84.492188 -16.3125) scale(0.7)"/>
      <use xlink:href="#DejaVuSans-31" transform="translate(120.380859 -16.3125) scale(0.7)"/>
     </g>
    </g>
    <g id="line2d_18">
     <path d="M 354.78 227.536875 
L 363.78 227.536875 
L 372.78 227.536875 
" style="fill: none; stroke: #bdab62; stroke-width: 1.5; stroke-linecap: square"/>
    </g>
    <g id="text_17">
     <!-- $L_{r,2}$ -->
     <g transform="translate(379.98 230.686875) scale(0.09 -0.09)">
      <use xlink:href="#DejaVuSans-Oblique-4c" transform="translate(0 0.09375)"/>
      <use xlink:href="#DejaVuSans-Oblique-72" transform="translate(55.712891 -16.3125) scale(0.7)"/>
      <use xlink:href="#DejaVuSans-2c" transform="translate(84.492188 -16.3125) scale(0.7)"/>
      <use xlink:href="#DejaVuSans-32" transform="translate(120.380859 -16.3125) scale(0.7)"/>
     </g>
    </g>
   </g>
  </g>
 </g>
 <defs>
  <clipPath id="pa892356a6d">
   <rect x="70.3525" y="10.8" width="332.8475" height="230.236875"/>
  </clipPath>
 </defs>
</svg>
