<?xml version="1.0" encoding="utf-8" standalone="no"?>
<!DOCTYPE svg PUBLIC "-//W3C//DTD SVG 1.1//EN"
  "http://www.w3.org/Graphics/SVG/1.1/DTD/svg11.dtd">
<svg xmlns:xlink="http://www.w3.org/1999/xlink" width="414pt" height="180pt" viewBox="0 0 414 180" xmlns="http://www.w3.org/2000/svg" version="1.1">
 <metadata>
  <rdf:RDF xmlns:dc="http://purl.org/dc/elements/1.1/" xmlns:cc="http://creativecommons.org/ns#" xmlns:rdf="http://www.w3.org/1999/02/22-rdf-syntax-ns#">
   <cc:Work>
    <dc:type rdf:resource="http://purl.org/dc/dcmitype/StillImage"/>
    <dc:date>2026-07-24T00:47:48.820735</dc:date>
    <dc:format>image/svg+xml</dc:format>
    <dc:creator>
     <cc:Agent>
      <dc:title>Matplotlib v3.10.9, https://matplotlib.org/</dc:title>
     </cc:Agent>
    </dc:creator>
   </cc:Work>
  </rdf:RDF>
 </metadata>
 <defs>
  <style type="text/css">*{stroke-linejoin: round; stroke-linecap: butt}</style>
 </defs>
 <g id="figure_1">
  <g id="patch_1">
   <path d="M 0 180 
L 414 180 
L 414 0 
L 0 0 
L 0 180 
z
" style="fill: none"/>
  </g>
  <g id="axes_1">
   <g id="patch_2">
    <path d="M 60.080781 139.811563 
L 403.2 139.811563 
L 403.2 13.327396 
L 60.080781 13.327396 
L 60.080781 139.811563 
z
" style="fill: none"/>
   </g>
   <g id="matplotlib.axis_1">
    <g id="xtick_1">
     <g id="line2d_1">
      <defs>
       <path id="m10a406b310" d="M 0 0 
L 0 3.5 
" style="stroke: #000000; stroke-width: 0.8"/>
      </defs>
      <g>
       <use xlink:href="#m10a406b310" x="75.677109" y="139.811563" style="stroke: #000000; stroke-width: 0.8"/>
      </g>
     </g>
     <g id="text_1">
      <!-- 0 -->
      <g transform="translate(72.813984 153.650156) scale(0.09 -0.09)">
       <defs>
        <path id="DejaVuSans-30" d="M 2034 4250 
Q 1547 4250 1301 3770 
Q 1056 3291 1056 2328 
Q 1056 1369 1301 889 
Q 1547 409 2034 409 
Q 2525 409 2770 889 
Q 3016 1369 3016 2328 
Q 3016 3291 2770 3770 
Q 2525 4250 2034 4250 
z
M 2034 4750 
Q 2819 4750 3233 4129 
Q 3647 3509 3647 2328 
Q 3647 1150 3233 529 
Q 2819 -91 2034 -91 
Q 1250 -91 836 529 
Q 422 1150 422 2328 
Q 422 3509 836 4129 
Q 1250 4750 2034 4750 
z
" transform="scale(0.015625)"/>
       </defs>
       <use xlink:href="#DejaVuSans-30"/>
      </g>
     </g>
    </g>
    <g id="xtick_2">
     <g id="line2d_2">
      <g>
       <use xlink:href="#m10a406b310" x="134.592934" y="139.811563" style="stroke: #000000; stroke-width: 0.8"/>
      </g>
     </g>
     <g id="text_2">
      <!-- 2 -->
      <g transform="translate(131.729809 153.650156) scale(0.09 -0.09)">
       <defs>
        <path id="DejaVuSans-32" d="M 1228 531 
L 3431 531 
L 3431 0 
L 469 0 
L 469 531 
Q 828 903 1448 1529 
Q 2069 2156 2228 2338 
Q 2531 2678 2651 2914 
Q 2772 3150 2772 3378 
Q 2772 3750 2511 3984 
Q 2250 4219 1831 4219 
Q 1534 4219 1204 4116 
Q 875 4013 500 3803 
L 500 4441 
Q 881 4594 1212 4672 
Q 1544 4750 1819 4750 
Q 2544 4750 2975 4387 
Q 3406 4025 3406 3419 
Q 3406 3131 3298 2873 
Q 3191 2616 2906 2266 
Q 2828 2175 2409 1742 
Q 1991 1309 1228 531 
z
" transform="scale(0.015625)"/>
       </defs>
       <use xlink:href="#DejaVuSans-32"/>
      </g>
     </g>
    </g>
    <g id="xtick_3">
     <g id="line2d_3">
      <g>
       <use xlink:href="#m10a406b310" x="193.508759" y="139.811563" style="stroke: #000000; stroke-width: 0.8"/>
      </g>
     </g>
     <g id="text_3">
      <!-- 4 -->
      <g transform="translate(190.645634 153.650156) scale(0.09 -0.09)">
       <defs>
        <path id="DejaVuSans-34" d="M 2419 4116 
L 825 1625 
L 2419 1625 
L 2419 4116 
z
M 2253 4666 
L 3047 4666 
L 3047 1625 
L 3713 1625 
L 3713 1100 
L 3047 1100 
L 3047 0 
L 2419 0 
L 2419 1100 
L 313 1100 
L 313 1709 
L 2253 4666 
z
" transform="scale(0.015625)"/>
       </defs>
       <use xlink:href="#DejaVuSans-34"/>
      </g>
     </g>
    </g>
    <g id="xtick_4">
     <g id="line2d_4">
      <g>
       <use xlink:href="#m10a406b310" x="252.424584" y="139.811563" style="stroke: #000000; stroke-width: 0.8"/>
      </g>
     </g>
     <g id="text_4">
      <!-- 6 -->
      <g transform="translate(249.561459 153.650156) scale(0.09 -0.09)">
       <defs>
        <path id="DejaVuSans-36" d="M 2113 2584 
Q 1688 2584 1439 2293 
Q 1191 2003 1191 1497 
Q 1191 994 1439 701 
Q 1688 409 2113 409 
Q 2538 409 2786 701 
Q 3034 994 3034 1497 
Q 3034 2003 2786 2293 
Q 2538 2584 2113 2584 
z
M 3366 4563 
L 3366 3988 
Q 3128 4100 2886 4159 
Q 2644 4219 2406 4219 
Q 1781 4219 1451 3797 
Q 1122 3375 1075 2522 
Q 1259 2794 1537 2939 
Q 1816 3084 2150 3084 
Q 2853 3084 3261 2657 
Q 3669 2231 3669 1497 
Q 3669 778 3244 343 
Q 2819 -91 2113 -91 
Q 1303 -91 875 529 
Q 447 1150 447 2328 
Q 447 3434 972 4092 
Q 1497 4750 2381 4750 
Q 2619 4750 2861 4703 
Q 3103 4656 3366 4563 
z
" transform="scale(0.015625)"/>
       </defs>
       <use xlink:href="#DejaVuSans-36"/>
      </g>
     </g>
    </g>
    <g id="xtick_5">
     <g id="line2d_5">
      <g>
       <use xlink:href="#m10a406b310" x="311.340409" y="139.811563" style="stroke: #000000; stroke-width: 0.8"/>
      </g>
     </g>
     <g id="text_5">
      <!-- 8 -->
      <g transform="translate(308.477284 153.650156) scale(0.09 -0.09)">
       <defs>
        <path id="DejaVuSans-38" d="M 2034 2216 
Q 1584 2216 1326 1975 
Q 1069 1734 1069 1313 
Q 1069 891 1326 650 
Q 1584 409 2034 409 
Q 2484 409 2743 651 
Q 3003 894 3003 1313 
Q 3003 1734 2745 1975 
Q 2488 2216 2034 2216 
z
M 1403 2484 
Q 997 2584 770 2862 
Q 544 3141 544 3541 
Q 544 4100 942 4425 
Q 1341 4750 2034 4750 
Q 2731 4750 3128 4425 
Q 3525 4100 3525 3541 
Q 3525 3141 3298 2862 
Q 3072 2584 2669 2484 
Q 3125 2378 3379 2068 
Q 3634 1759 3634 1313 
Q 3634 634 3220 271 
Q 2806 -91 2034 -91 
Q 1263 -91 848 271 
Q 434 634 434 1313 
Q 434 1759 690 2068 
Q 947 2378 1403 2484 
z
M 1172 3481 
Q 1172 3119 1398 2916 
Q 1625 2713 2034 2713 
Q 2441 2713 2670 2916 
Q 2900 3119 2900 3481 
Q 2900 3844 2670 4047 
Q 2441 4250 2034 4250 
Q 1625 4250 1398 4047 
Q 1172 3844 1172 3481 
z
" transform="scale(0.015625)"/>
       </defs>
       <use xlink:href="#DejaVuSans-38"/>
      </g>
     </g>
    </g>
    <g id="xtick_6">
     <g id="line2d_6">
      <g>
       <use xlink:href="#m10a406b310" x="370.256235" y="139.811563" style="stroke: #000000; stroke-width: 0.8"/>
      </g>
     </g>
     <g id="text_6">
      <!-- 10 -->
      <g transform="translate(364.529985 153.650156) scale(0.09 -0.09)">
       <defs>
        <path id="DejaVuSans-31" d="M 794 531 
L 1825 531 
L 1825 4091 
L 703 3866 
L 703 4441 
L 1819 4666 
L 2450 4666 
L 2450 531 
L 3481 531 
L 3481 0 
L 794 0 
L 794 531 
z
" transform="scale(0.015625)"/>
       </defs>
       <use xlink:href="#DejaVuSans-31"/>
       <use xlink:href="#DejaVuSans-30" transform="translate(63.623047 0)"/>
      </g>
     </g>
    </g>
    <g id="text_7">
     <!-- Time [hr] -->
     <g transform="translate(208.691953 167.120313) scale(0.1 -0.1)">
      <defs>
       <path id="DejaVuSans-54" d="M -19 4666 
L 3928 4666 
L 3928 4134 
L 2272 4134 
L 2272 0 
L 1638 0 
L 1638 4134 
L -19 4134 
L -19 4666 
z
" transform="scale(0.015625)"/>
       <path id="DejaVuSans-69" d="M 603 3500 
L 1178 3500 
L 1178 0 
L 603 0 
L 603 3500 
z
M 603 4863 
L 1178 4863 
L 1178 4134 
L 603 4134 
L 603 4863 
z
" transform="scale(0.015625)"/>
       <path id="DejaVuSans-6d" d="M 3328 2828 
Q 3544 3216 3844 3400 
Q 4144 3584 4550 3584 
Q 5097 3584 5394 3201 
Q 5691 2819 5691 2113 
L 5691 0 
L 5113 0 
L 5113 2094 
Q 5113 2597 4934 2840 
Q 4756 3084 4391 3084 
Q 3944 3084 3684 2787 
Q 3425 2491 3425 1978 
L 3425 0 
L 2847 0 
L 2847 2094 
Q 2847 2600 2669 2842 
Q 2491 3084 2119 3084 
Q 1678 3084 1418 2786 
Q 1159 2488 1159 1978 
L 1159 0 
L 581 0 
L 581 3500 
L 1159 3500 
L 1159 2956 
Q 1356 3278 1631 3431 
Q 1906 3584 2284 3584 
Q 2666 3584 2933 3390 
Q 3200 3197 3328 2828 
z
" transform="scale(0.015625)"/>
       <path id="DejaVuSans-65" d="M 3597 1894 
L 3597 1613 
L 953 1613 
Q 991 1019 1311 708 
Q 1631 397 2203 397 
Q 2534 397 2845 478 
Q 3156 559 3463 722 
L 3463 178 
Q 3153 47 2828 -22 
Q 2503 -91 2169 -91 
Q 1331 -91 842 396 
Q 353 884 353 1716 
Q 353 2575 817 3079 
Q 1281 3584 2069 3584 
Q 2775 3584 3186 3129 
Q 3597 2675 3597 1894 
z
M 3022 2063 
Q 3016 2534 2758 2815 
Q 2500 3097 2075 3097 
Q 1594 3097 1305 2825 
Q 1016 2553 972 2059 
L 3022 2063 
z
" transform="scale(0.015625)"/>
       <path id="DejaVuSans-20" transform="scale(0.015625)"/>
       <path id="DejaVuSans-5b" d="M 550 4863 
L 1875 4863 
L 1875 4416 
L 1125 4416 
L 1125 -397 
L 1875 -397 
L 1875 -844 
L 550 -844 
L 550 4863 
z
" transform="scale(0.015625)"/>
       <path id="DejaVuSans-68" d="M 3513 2113 
L 3513 0 
L 2938 0 
L 2938 2094 
Q 2938 2591 2744 2837 
Q 2550 3084 2163 3084 
Q 1697 3084 1428 2787 
Q 1159 2491 1159 1978 
L 1159 0 
L 581 0 
L 581 4863 
L 1159 4863 
L 1159 2956 
Q 1366 3272 1645 3428 
Q 1925 3584 2291 3584 
Q 2894 3584 3203 3211 
Q 3513 2838 3513 2113 
z
" transform="scale(0.015625)"/>
       <path id="DejaVuSans-72" d="M 2631 2963 
Q 2534 3019 2420 3045 
Q 2306 3072 2169 3072 
Q 1681 3072 1420 2755 
Q 1159 2438 1159 1844 
L 1159 0 
L 581 0 
L 581 3500 
L 1159 3500 
L 1159 2956 
Q 1341 3275 1631 3429 
Q 1922 3584 2338 3584 
Q 2397 3584 2469 3576 
Q 2541 3569 2628 3553 
L 2631 2963 
z
" transform="scale(0.015625)"/>
       <path id="DejaVuSans-5d" d="M 1947 4863 
L 1947 -844 
L 622 -844 
L 622 -397 
L 1369 -397 
L 1369 4416 
L 622 4416 
L 622 4863 
L 1947 4863 
z
" transform="scale(0.015625)"/>
      </defs>
      <use xlink:href="#DejaVuSans-54"/>
      <use xlink:href="#DejaVuSans-69" transform="translate(57.958984 0)"/>
      <use xlink:href="#DejaVuSans-6d" transform="translate(85.742188 0)"/>
      <use xlink:href="#DejaVuSans-65" transform="translate(183.154297 0)"/>
      <use xlink:href="#DejaVuSans-20" transform="translate(244.677734 0)"/>
      <use xlink:href="#DejaVuSans-5b" transform="translate(276.464844 0)"/>
      <use xlink:href="#DejaVuSans-68" transform="translate(315.478516 0)"/>
      <use xlink:href="#DejaVuSans-72" transform="translate(378.857422 0)"/>
      <use xlink:href="#DejaVuSans-5d" transform="translate(419.970703 0)"/>
     </g>
    </g>
   </g>
   <g id="matplotlib.axis_2">
    <g id="ytick_1">
     <g id="line2d_7">
      <defs>
       <path id="m4d5f56c104" d="M 0 0 
L -3.5 0 
" style="stroke: #000000; stroke-width: 0.8"/>
      </defs>
      <g>
       <use xlink:href="#m4d5f56c104" x="60.080781" y="134.062282" style="stroke: #000000; stroke-width: 0.8"/>
      </g>
     </g>
     <g id="text_8">
      <!-- −1.00 -->
      <g transform="translate(25.5 137.481579) scale(0.09 -0.09)">
       <defs>
        <path id="DejaVuSans-2212" d="M 678 2272 
L 4684 2272 
L 4684 1741 
L 678 1741 
L 678 2272 
z
" transform="scale(0.015625)"/>
        <path id="DejaVuSans-2e" d="M 684 794 
L 1344 794 
L 1344 0 
L 684 0 
L 684 794 
z
" transform="scale(0.015625)"/>
       </defs>
       <use xlink:href="#DejaVuSans-2212"/>
       <use xlink:href="#DejaVuSans-31" transform="translate(83.789062 0)"/>
       <use xlink:href="#DejaVuSans-2e" transform="translate(147.412109 0)"/>
       <use xlink:href="#DejaVuSans-30" transform="translate(179.199219 0)"/>
       <use xlink:href="#DejaVuSans-30" transform="translate(242.822266 0)"/>
      </g>
     </g>
    </g>
    <g id="ytick_2">
     <g id="line2d_8">
      <g>
       <use xlink:href="#m4d5f56c104" x="60.080781" y="114.075457" style="stroke: #000000; stroke-width: 0.8"/>
      </g>
     </g>
     <g id="text_9">
      <!-- −0.75 -->
      <g transform="translate(25.5 117.494754) scale(0.09 -0.09)">
       <defs>
        <path id="DejaVuSans-37" d="M 525 4666 
L 3525 4666 
L 3525 4397 
L 1831 0 
L 1172 0 
L 2766 4134 
L 525 4134 
L 525 4666 
z
" transform="scale(0.015625)"/>
        <path id="DejaVuSans-35" d="M 691 4666 
L 3169 4666 
L 3169 4134 
L 1269 4134 
L 1269 2991 
Q 1406 3038 1543 3061 
Q 1681 3084 1819 3084 
Q 2600 3084 3056 2656 
Q 3513 2228 3513 1497 
Q 3513 744 3044 326 
Q 2575 -91 1722 -91 
Q 1428 -91 1123 -41 
Q 819 9 494 109 
L 494 744 
Q 775 591 1075 516 
Q 1375 441 1709 441 
Q 2250 441 2565 725 
Q 2881 1009 2881 1497 
Q 2881 1984 2565 2268 
Q 2250 2553 1709 2553 
Q 1456 2553 1204 2497 
Q 953 2441 691 2322 
L 691 4666 
z
" transform="scale(0.015625)"/>
       </defs>
       <use xlink:href="#DejaVuSans-2212"/>
       <use xlink:href="#DejaVuSans-30" transform="translate(83.789062 0)"/>
       <use xlink:href="#DejaVuSans-2e" transform="translate(147.412109 0)"/>
       <use xlink:href="#DejaVuSans-37" transform="translate(179.199219 0)"/>
       <use xlink:href="#DejaVuSans-35" transform="translate(242.822266 0)"/>
      </g>
     </g>
    </g>
    <g id="ytick_3">
     <g id="line2d_9">
      <g>
       <use xlink:href="#m4d5f56c104" x="60.080781" y="94.088632" style="stroke: #000000; stroke-width: 0.8"/>
      </g>
     </g>
     <g id="text_10">
      <!-- −0.50 -->
      <g transform="translate(25.5 97.507929) scale(0.09 -0.09)">
       <use xlink:href="#DejaVuSans-2212"/>
       <use xlink:href="#DejaVuSans-30" transform="translate(83.789062 0)"/>
       <use xlink:href="#DejaVuSans-2e" transform="translate(147.412109 0)"/>
       <use xlink:href="#DejaVuSans-35" transform="translate(179.199219 0)"/>
       <use xlink:href="#DejaVuSans-30" transform="translate(242.822266 0)"/>
      </g>
     </g>
    </g>
    <g id="ytick_4">
     <g id="line2d_10">
      <g>
       <use xlink:href="#m4d5f56c104" x="60.080781" y="74.101806" style="stroke: #000000; stroke-width: 0.8"/>
      </g>
     </g>
     <g id="text_11">
      <!-- −0.25 -->
      <g transform="translate(25.5 77.521103) scale(0.09 -0.09)">
       <use xlink:href="#DejaVuSans-2212"/>
       <use xlink:href="#DejaVuSans-30" transform="translate(83.789062 0)"/>
       <use xlink:href="#DejaVuSans-2e" transform="translate(147.412109 0)"/>
       <use xlink:href="#DejaVuSans-32" transform="translate(179.199219 0)"/>
       <use xlink:href="#DejaVuSans-35" transform="translate(242.822266 0)"/>
      </g>
     </g>
    </g>
    <g id="ytick_5">
     <g id="line2d_11">
      <g>
       <use xlink:href="#m4d5f56c104" x="60.080781" y="54.114981" style="stroke: #000000; stroke-width: 0.8"/>
      </g>
     </g>
     <g id="text_12">
      <!-- 0.00 -->
      <g transform="translate(33.041719 57.534278) scale(0.09 -0.09)">
       <use xlink:href="#DejaVuSans-30"/>
       <use xlink:href="#DejaVuSans-2e" transform="translate(63.623047 0)"/>
       <use xlink:href="#DejaVuSans-30" transform="translate(95.410156 0)"/>
       <use xlink:href="#DejaVuSans-30" transform="translate(159.033203 0)"/>
      </g>
     </g>
    </g>
    <g id="ytick_6">
     <g id="line2d_12">
      <g>
       <use xlink:href="#m4d5f56c104" x="60.080781" y="34.128156" style="stroke: #000000; stroke-width: 0.8"/>
      </g>
     </g>
     <g id="text_13">
      <!-- 0.25 -->
      <g transform="translate(33.041719 37.547453) scale(0.09 -0.09)">
       <use xlink:href="#DejaVuSans-30"/>
       <use xlink:href="#DejaVuSans-2e" transform="translate(63.623047 0)"/>
       <use xlink:href="#DejaVuSans-32" transform="translate(95.410156 0)"/>
       <use xlink:href="#DejaVuSans-35" transform="translate(159.033203 0)"/>
      </g>
     </g>
    </g>
    <g id="ytick_7">
     <g id="line2d_13">
      <g>
       <use xlink:href="#m4d5f56c104" x="60.080781" y="14.141331" style="stroke: #000000; stroke-width: 0.8"/>
      </g>
     </g>
     <g id="text_14">
      <!-- 0.50 -->
      <g transform="translate(33.041719 17.560627) scale(0.09 -0.09)">
       <use xlink:href="#DejaVuSans-30"/>
       <use xlink:href="#DejaVuSans-2e" transform="translate(63.623047 0)"/>
       <use xlink:href="#DejaVuSans-35" transform="translate(95.410156 0)"/>
       <use xlink:href="#DejaVuSans-30" transform="translate(159.033203 0)"/>
      </g>
     </g>
    </g>
    <g id="text_15">
     <!-- $(\rho_{stoch} / \rho_{exp}) - 1$ [-] -->
     <g transform="translate(18.4 121.319479) rotate(-90) scale(0.1 -0.1)">
      <defs>
       <path id="DejaVuSans-28" d="M 1984 4856 
Q 1566 4138 1362 3434 
Q 1159 2731 1159 2009 
Q 1159 1288 1364 580 
Q 1569 -128 1984 -844 
L 1484 -844 
Q 1016 -109 783 600 
Q 550 1309 550 2009 
Q 550 2706 781 3412 
Q 1013 4119 1484 4856 
L 1984 4856 
z
" transform="scale(0.015625)"/>
       <path id="DejaVuSans-Oblique-3c1" d="M 1203 2875 
Q 1453 3194 1981 3475 
Q 2188 3584 2756 3584 
Q 3394 3584 3694 3078 
Q 3994 2572 3834 1747 
Q 3672 922 3175 415 
Q 2678 -91 2041 -91 
Q 1656 -91 1409 63 
Q 1163 213 1044 525 
L 681 -1331 
L 103 -1331 
L 697 1716 
Q 838 2438 1203 2875 
z
M 3238 1747 
Q 3359 2381 3169 2744 
Q 2978 3103 2522 3103 
Q 2066 3103 1734 2744 
Q 1403 2381 1281 1747 
Q 1156 1113 1347 750 
Q 1538 391 1994 391 
Q 2450 391 2781 750 
Q 3113 1113 3238 1747 
z
" transform="scale(0.015625)"/>
       <path id="DejaVuSans-Oblique-73" d="M 3200 3397 
L 3091 2853 
Q 2863 2978 2609 3040 
Q 2356 3103 2088 3103 
Q 1634 3103 1373 2948 
Q 1113 2794 1113 2528 
Q 1113 2219 1719 2053 
Q 1766 2041 1788 2034 
L 1972 1978 
Q 2547 1819 2739 1644 
Q 2931 1469 2931 1166 
Q 2931 609 2489 259 
Q 2047 -91 1331 -91 
Q 1053 -91 747 -37 
Q 441 16 72 128 
L 184 722 
Q 500 559 806 475 
Q 1113 391 1394 391 
Q 1816 391 2080 572 
Q 2344 753 2344 1031 
Q 2344 1331 1650 1516 
L 1591 1531 
L 1394 1581 
Q 956 1697 753 1886 
Q 550 2075 550 2369 
Q 550 2928 970 3256 
Q 1391 3584 2113 3584 
Q 2397 3584 2667 3537 
Q 2938 3491 3200 3397 
z
" transform="scale(0.015625)"/>
       <path id="DejaVuSans-Oblique-74" d="M 2706 3500 
L 2619 3053 
L 1472 3053 
L 1100 1153 
Q 1081 1047 1072 975 
Q 1063 903 1063 863 
Q 1063 663 1183 572 
Q 1303 481 1569 481 
L 2150 481 
L 2053 0 
L 1503 0 
Q 991 0 739 200 
Q 488 400 488 806 
Q 488 878 497 964 
Q 506 1050 525 1153 
L 897 3053 
L 409 3053 
L 500 3500 
L 978 3500 
L 1172 4494 
L 1747 4494 
L 1556 3500 
L 2706 3500 
z
" transform="scale(0.015625)"/>
       <path id="DejaVuSans-Oblique-6f" d="M 1625 -91 
Q 1009 -91 651 289 
Q 294 669 294 1325 
Q 294 1706 417 2101 
Q 541 2497 738 2766 
Q 1047 3184 1428 3384 
Q 1809 3584 2291 3584 
Q 2888 3584 3255 3212 
Q 3622 2841 3622 2241 
Q 3622 1825 3500 1412 
Q 3378 1000 3181 728 
Q 2875 309 2494 109 
Q 2113 -91 1625 -91 
z
M 891 1344 
Q 891 869 1089 633 
Q 1288 397 1691 397 
Q 2269 397 2648 901 
Q 3028 1406 3028 2181 
Q 3028 2634 2825 2865 
Q 2622 3097 2228 3097 
Q 1903 3097 1650 2945 
Q 1397 2794 1197 2484 
Q 1050 2253 970 1956 
Q 891 1659 891 1344 
z
" transform="scale(0.015625)"/>
       <path id="DejaVuSans-Oblique-63" d="M 3431 3366 
L 3316 2797 
Q 3109 2947 2876 3022 
Q 2644 3097 2394 3097 
Q 2119 3097 1870 3000 
Q 1622 2903 1453 2725 
Q 1184 2453 1037 2087 
Q 891 1722 891 1331 
Q 891 859 1127 628 
Q 1363 397 1844 397 
Q 2081 397 2348 469 
Q 2616 541 2906 684 
L 2797 116 
Q 2547 13 2283 -39 
Q 2019 -91 1741 -91 
Q 1044 -91 669 257 
Q 294 606 294 1253 
Q 294 1797 489 2255 
Q 684 2713 1069 3078 
Q 1331 3328 1684 3456 
Q 2038 3584 2456 3584 
Q 2700 3584 2940 3529 
Q 3181 3475 3431 3366 
z
" transform="scale(0.015625)"/>
       <path id="DejaVuSans-Oblique-68" d="M 3566 2113 
L 3156 0 
L 2578 0 
L 2988 2091 
Q 3016 2238 3031 2350 
Q 3047 2463 3047 2528 
Q 3047 2791 2881 2937 
Q 2716 3084 2419 3084 
Q 1956 3084 1617 2771 
Q 1278 2459 1178 1941 
L 800 0 
L 225 0 
L 1172 4863 
L 1747 4863 
L 1375 2950 
Q 1594 3244 1934 3414 
Q 2275 3584 2650 3584 
Q 3113 3584 3367 3334 
Q 3622 3084 3622 2631 
Q 3622 2519 3608 2391 
Q 3594 2263 3566 2113 
z
" transform="scale(0.015625)"/>
       <path id="DejaVuSans-2f" d="M 1625 4666 
L 2156 4666 
L 531 -594 
L 0 -594 
L 1625 4666 
z
" transform="scale(0.015625)"/>
       <path id="DejaVuSans-Oblique-65" d="M 3078 2063 
Q 3088 2113 3092 2166 
Q 3097 2219 3097 2272 
Q 3097 2653 2873 2875 
Q 2650 3097 2266 3097 
Q 1838 3097 1509 2826 
Q 1181 2556 1013 2059 
L 3078 2063 
z
M 3578 1613 
L 903 1613 
Q 884 1494 878 1425 
Q 872 1356 872 1306 
Q 872 872 1139 634 
Q 1406 397 1894 397 
Q 2269 397 2603 481 
Q 2938 566 3225 728 
L 3116 159 
Q 2806 34 2476 -28 
Q 2147 -91 1806 -91 
Q 1078 -91 686 257 
Q 294 606 294 1247 
Q 294 1794 489 2264 
Q 684 2734 1063 3103 
Q 1306 3334 1642 3459 
Q 1978 3584 2356 3584 
Q 2950 3584 3301 3228 
Q 3653 2872 3653 2272 
Q 3653 2128 3634 1964 
Q 3616 1800 3578 1613 
z
" transform="scale(0.015625)"/>
       <path id="DejaVuSans-Oblique-78" d="M 3841 3500 
L 2234 1784 
L 3219 0 
L 2559 0 
L 1819 1388 
L 531 0 
L -166 0 
L 1556 1844 
L 641 3500 
L 1300 3500 
L 1972 2234 
L 3144 3500 
L 3841 3500 
z
" transform="scale(0.015625)"/>
       <path id="DejaVuSans-Oblique-70" d="M 3175 2156 
Q 3175 2616 2975 2859 
Q 2775 3103 2400 3103 
Q 2144 3103 1911 2972 
Q 1678 2841 1497 2591 
Q 1319 2344 1212 1994 
Q 1106 1644 1106 1300 
Q 1106 863 1306 627 
Q 1506 391 1875 391 
Q 2147 391 2380 519 
Q 2613 647 2778 891 
Q 2956 1147 3065 1494 
Q 3175 1841 3175 2156 
z
M 1394 2969 
Q 1625 3272 1939 3428 
Q 2253 3584 2638 3584 
Q 3175 3584 3472 3232 
Q 3769 2881 3769 2247 
Q 3769 1728 3584 1258 
Q 3400 788 3053 416 
Q 2822 169 2531 39 
Q 2241 -91 1919 -91 
Q 1547 -91 1294 64 
Q 1041 219 916 525 
L 556 -1331 
L -19 -1331 
L 922 3500 
L 1497 3500 
L 1394 2969 
z
" transform="scale(0.015625)"/>
       <path id="DejaVuSans-29" d="M 513 4856 
L 1013 4856 
Q 1481 4119 1714 3412 
Q 1947 2706 1947 2009 
Q 1947 1309 1714 600 
Q 1481 -109 1013 -844 
L 513 -844 
Q 928 -128 1133 580 
Q 1338 1288 1338 2009 
Q 1338 2731 1133 3434 
Q 928 4138 513 4856 
z
" transform="scale(0.015625)"/>
       <path id="DejaVuSans-2d" d="M 313 2009 
L 1997 2009 
L 1997 1497 
L 313 1497 
L 313 2009 
z
" transform="scale(0.015625)"/>
      </defs>
      <use xlink:href="#DejaVuSans-28" transform="translate(0 0.015625)"/>
      <use xlink:href="#DejaVuSans-Oblique-3c1" transform="translate(39.013672 0.015625)"/>
      <use xlink:href="#DejaVuSans-Oblique-73" transform="translate(102.490234 -16.390625) scale(0.7)"/>
      <use xlink:href="#DejaVuSans-Oblique-74" transform="translate(138.959961 -16.390625) scale(0.7)"/>
      <use xlink:href="#DejaVuSans-Oblique-6f" transform="translate(166.40625 -16.390625) scale(0.7)"/>
      <use xlink:href="#DejaVuSans-Oblique-63" transform="translate(209.233398 -16.390625) scale(0.7)"/>
      <use xlink:href="#DejaVuSans-Oblique-68" transform="translate(247.719727 -16.390625) scale(0.7)"/>
      <use xlink:href="#DejaVuSans-2f" transform="translate(294.819336 0.015625)"/>
      <use xlink:href="#DejaVuSans-Oblique-3c1" transform="translate(328.510742 0.015625)"/>
      <use xlink:href="#DejaVuSans-Oblique-65" transform="translate(391.987305 -16.390625) scale(0.7)"/>
      <use xlink:href="#DejaVuSans-Oblique-78" transform="translate(435.053711 -16.390625) scale(0.7)"/>
      <use xlink:href="#DejaVuSans-Oblique-70" transform="translate(476.479492 -16.390625) scale(0.7)"/>
      <use xlink:href="#DejaVuSans-29" transform="translate(523.647461 0.015625)"/>
      <use xlink:href="#DejaVuSans-2212" transform="translate(582.143555 0.015625)"/>
      <use xlink:href="#DejaVuSans-31" transform="translate(685.415039 0.015625)"/>
      <use xlink:href="#DejaVuSans-20" transform="translate(749.038086 0.015625)"/>
      <use xlink:href="#DejaVuSans-5b" transform="translate(780.825195 0.015625)"/>
      <use xlink:href="#DejaVuSans-2d" transform="translate(819.838867 0.015625)"/>
      <use xlink:href="#DejaVuSans-5d" transform="translate(855.922852 0.015625)"/>
     </g>
    </g>
   </g>
   <g id="line2d_14">
    <path d="M 75.677109 134.062282 
L 75.758937 61.444288 
L 75.840764 65.106927 
L 76.249902 79.553937 
L 76.33173 78.402321 
L 76.413557 69.161714 
L 76.495385 71.01176 
L 76.577212 72.423594 
L 76.65904 76.502171 
L 76.740867 69.162101 
L 76.822695 71.847442 
L 76.98635 61.272688 
L 77.068177 64.761662 
L 77.150005 64.733872 
L 77.231833 66.083287 
L 77.31366 66.052221 
L 77.395488 66.766321 
L 77.477315 65.0112 
L 77.722798 70.273091 
L 77.886453 65.956941 
L 77.96828 66.281044 
L 78.131935 72.569138 
L 78.213763 66.19523 
L 78.29559 67.766595 
L 78.622901 74.014301 
L 78.950211 60.338478 
L 79.032038 61.146249 
L 79.113866 66.001015 
L 79.195693 61.690118 
L 79.359348 67.892667 
L 79.523004 62.391424 
L 79.604831 63.356984 
L 79.686659 60.310118 
L 79.932141 66.895137 
L 80.013969 63.39586 
L 80.177624 70.01035 
L 80.259451 66.60008 
L 80.341279 68.985744 
L 80.504934 63.139492 
L 80.586761 59.733773 
L 80.750417 71.712628 
L 80.832244 74.800911 
L 80.914072 73.160351 
L 80.995899 77.373668 
L 81.077727 76.594414 
L 81.241382 69.892277 
L 81.323209 69.600997 
L 81.405037 71.461156 
L 81.568692 67.357244 
L 81.732347 59.018122 
L 81.814174 59.043234 
L 81.97783 65.102328 
L 82.059657 60.748777 
L 82.30514 70.447145 
L 82.386967 69.821033 
L 82.550622 73.150364 
L 82.877932 57.642937 
L 82.95976 57.94836 
L 83.123415 50.969911 
L 83.368898 65.628364 
L 83.450725 63.866037 
L 83.532553 63.135294 
L 83.778035 56.41951 
L 83.859863 59.720604 
L 84.023518 54.900408 
L 84.105345 55.978734 
L 84.269001 46.439187 
L 84.350828 47.947831 
L 84.432656 49.173693 
L 84.514483 48.782066 
L 84.596311 41.902888 
L 84.678138 46.73005 
L 84.759966 40.499387 
L 84.841793 47.591853 
L 84.923621 46.598238 
L 85.087276 52.488291 
L 85.169103 50.574363 
L 85.250931 44.679212 
L 85.414586 48.72824 
L 85.660069 38.425057 
L 85.823724 49.613038 
L 85.987379 52.385231 
L 86.069206 52.214963 
L 86.151034 44.35273 
L 86.232861 56.105687 
L 86.314689 52.84323 
L 86.478344 46.333186 
L 86.723827 63.628466 
L 86.805654 59.818328 
L 87.132964 66.515466 
L 87.214792 67.213343 
L 87.296619 69.087131 
L 87.378447 63.62776 
L 87.460274 70.133835 
L 87.542102 64.834741 
L 87.787585 72.984075 
L 87.869412 65.146476 
L 87.95124 66.998999 
L 88.196722 57.707775 
L 88.27855 60.158148 
L 88.442205 63.074408 
L 88.60586 62.552219 
L 88.687687 60.992392 
L 88.851342 65.115617 
L 88.93317 69.744913 
L 89.014998 68.689898 
L 89.096825 62.901799 
L 89.178653 64.760547 
L 89.26048 67.006793 
L 89.505963 60.214163 
L 89.669618 65.879327 
L 89.751445 61.946138 
L 89.9151 64.947879 
L 90.078755 61.758335 
L 90.324238 69.022437 
L 90.406066 65.71148 
L 90.487893 68.855712 
L 90.651548 57.917013 
L 90.897031 64.840604 
L 90.978858 58.421774 
L 91.142513 72.693016 
L 91.306169 64.906744 
L 91.387996 69.465393 
L 91.551651 63.52875 
L 91.633479 68.25774 
L 91.960789 55.058555 
L 92.042616 57.73504 
L 92.124444 56.562358 
L 92.206271 51.870796 
L 92.369926 64.029257 
L 92.615409 47.90603 
L 92.697237 51.019486 
L 92.779064 50.437113 
L 92.942719 36.178661 
L 93.024547 37.232295 
L 93.188202 51.314688 
L 93.351857 61.410864 
L 93.515512 53.207664 
L 93.597339 56.340689 
L 93.760995 66.962743 
L 93.842822 65.528403 
L 93.92465 72.508668 
L 94.006477 63.415851 
L 94.088305 66.36812 
L 94.170132 61.842271 
L 94.25196 66.468825 
L 94.333787 65.168381 
L 94.497442 59.301128 
L 94.57927 61.520905 
L 94.661097 56.04941 
L 94.90658 64.72401 
L 94.988408 64.926564 
L 95.152063 63.34422 
L 95.23389 60.809503 
L 95.315718 63.377641 
L 95.397545 59.714065 
L 95.5612 61.735373 
L 95.643028 60.670212 
L 95.724855 65.920949 
L 95.806683 64.335322 
L 95.970338 61.844884 
L 96.052166 63.40725 
L 96.133993 62.928852 
L 96.215821 60.90841 
L 96.379476 68.206927 
L 96.461303 67.997906 
L 96.624958 66.112214 
L 96.870441 47.293937 
L 97.115923 63.818624 
L 97.197751 62.870496 
L 97.279579 63.240205 
L 97.443234 53.588855 
L 97.525061 51.682303 
L 97.770544 64.002775 
L 97.934199 56.781285 
L 98.016026 55.84218 
L 98.261509 39.781954 
L 98.343337 42.291564 
L 98.425164 42.835575 
L 98.506992 37.524638 
L 98.670647 53.108228 
L 98.752474 52.532853 
L 98.916129 44.102626 
L 98.997957 44.311247 
L 99.079784 39.937106 
L 99.325267 52.320084 
L 99.488922 44.455714 
L 99.57075 48.020723 
L 99.652577 52.161715 
L 99.816232 70.538387 
L 99.89806 70.839453 
L 99.979887 63.31891 
L 100.061715 65.886848 
L 100.22537 60.075462 
L 100.55268 76.876423 
L 100.716335 68.053355 
L 100.798163 72.701672 
L 100.87999 66.914887 
L 100.961818 74.411992 
L 101.043645 70.475242 
L 101.125473 72.713087 
L 101.2073 72.040214 
L 101.289128 69.428151 
L 101.53461 74.59377 
L 101.616438 68.572084 
L 101.780093 77.123185 
L 101.86192 70.787999 
L 101.943748 72.013556 
L 102.107403 79.203855 
L 102.271058 62.426018 
L 102.352886 68.385672 
L 102.516541 77.278688 
L 102.680196 67.287772 
L 102.843851 78.145028 
L 103.171161 58.687724 
L 103.334816 70.169299 
L 103.416644 68.373288 
L 103.498471 70.9455 
L 103.580299 66.802258 
L 103.662126 67.738413 
L 103.743954 66.383713 
L 103.907609 60.579342 
L 104.153091 72.192526 
L 104.234919 74.098774 
L 104.480402 61.838727 
L 104.562229 66.369063 
L 104.889539 53.3752 
L 104.971367 54.862683 
L 105.053194 51.879134 
L 105.216849 61.673343 
L 105.380504 58.413291 
L 105.54416 61.229377 
L 105.625987 74.403475 
L 105.707815 66.463984 
L 105.789642 67.133169 
L 105.87147 73.539655 
L 106.280607 47.284173 
L 106.444262 56.279714 
L 106.52609 53.373568 
L 106.607918 56.136833 
L 107.017055 36.62433 
L 107.18071 54.191285 
L 107.344365 49.826911 
L 107.426193 51.31466 
L 107.50802 60.500258 
L 107.589848 59.550815 
L 107.753503 63.518795 
L 107.835331 66.843676 
L 107.998986 62.628868 
L 108.080813 62.807964 
L 108.244468 55.810037 
L 108.571778 60.240523 
L 108.735433 57.343277 
L 108.899088 72.137212 
L 108.980916 72.014861 
L 109.062744 70.410501 
L 109.226399 81.271733 
L 109.471881 76.764928 
L 109.553709 78.404106 
L 109.635536 76.646834 
L 109.881019 83.409473 
L 110.126502 72.552921 
L 110.290157 69.411991 
L 110.371984 71.756664 
L 110.453812 68.353289 
L 110.535639 71.184322 
L 110.781122 61.504349 
L 110.862949 61.685127 
L 110.944777 56.197657 
L 111.026604 67.722353 
L 111.190259 52.820095 
L 111.272087 54.92773 
L 111.353915 61.176403 
L 111.435742 60.85621 
L 111.51757 56.69487 
L 111.763052 67.976396 
L 112.008535 57.636764 
L 112.090362 60.476379 
L 112.17219 60.168186 
L 112.417672 50.895818 
L 112.4995 48.040783 
L 112.581328 48.331751 
L 112.663155 54.391064 
L 112.744983 46.544865 
L 112.908638 62.52124 
L 112.990465 60.796161 
L 113.072293 61.170696 
L 113.15412 49.221199 
L 113.235948 53.071104 
L 113.317775 48.107089 
L 113.399603 55.173037 
L 113.48143 48.679801 
L 113.563258 50.617653 
L 113.645086 52.306143 
L 113.808741 61.025127 
L 113.890568 54.951773 
L 113.972396 60.133372 
L 114.054223 59.112375 
L 114.136051 56.624342 
L 114.299706 61.494138 
L 114.381533 54.340089 
L 114.463361 54.910298 
L 114.545188 50.22159 
L 114.627016 56.232342 
L 114.708843 55.32104 
L 114.954326 65.14188 
L 115.036154 61.664116 
L 115.117981 62.259956 
L 115.281636 57.425255 
L 115.363464 57.971558 
L 115.445291 58.206975 
L 115.608946 66.511076 
L 115.690774 58.958378 
L 115.772601 60.827173 
L 115.854429 59.059278 
L 116.018084 61.276197 
L 116.099912 61.268193 
L 116.181739 60.284748 
L 116.345394 66.754088 
L 116.427222 59.034028 
L 116.672704 70.155589 
L 116.754532 65.690423 
L 116.918187 73.07226 
L 117.000014 71.223949 
L 117.245497 57.745255 
L 117.327325 57.659864 
L 117.49098 71.320657 
L 117.572807 65.224937 
L 117.654635 66.217755 
L 117.736462 70.188325 
L 117.81829 68.373687 
L 117.900117 74.722035 
L 117.981945 72.474247 
L 118.1456 64.490765 
L 118.309255 58.488803 
L 118.391083 59.917595 
L 118.47291 64.127149 
L 118.636565 58.596219 
L 118.80022 66.714018 
L 118.963875 62.030992 
L 119.12753 65.807551 
L 119.209358 64.001509 
L 119.373013 66.086443 
L 119.45484 60.774329 
L 119.536668 61.912935 
L 119.782151 69.685172 
L 119.945806 63.813547 
L 120.109461 74.21244 
L 120.354943 68.179009 
L 120.436771 63.127002 
L 120.682253 75.952631 
L 120.764081 76.659922 
L 120.927736 70.301761 
L 121.255046 50.374359 
L 121.336874 56.483781 
L 121.418701 48.235133 
L 121.664184 56.50228 
L 121.746011 54.407008 
L 121.991494 68.052462 
L 122.073322 59.620142 
L 122.155149 59.809716 
L 122.236977 64.874096 
L 122.400632 61.484962 
L 122.482459 61.397976 
L 122.564287 57.803472 
L 122.727942 69.571281 
L 122.891597 63.315807 
L 122.973424 64.559735 
L 123.055252 62.256924 
L 123.13708 68.724821 
L 123.218907 68.178339 
L 123.300735 67.94203 
L 123.382562 71.342977 
L 123.546217 65.586817 
L 123.873527 50.031614 
L 123.955355 50.449177 
L 124.11901 60.426352 
L 124.200837 52.594175 
L 124.528148 74.22105 
L 124.691803 62.092752 
L 124.77363 64.354674 
L 124.937285 61.4753 
L 125.019113 65.019557 
L 125.10094 55.466015 
L 125.182768 57.145278 
L 125.346423 49.91692 
L 125.428251 50.30461 
L 125.510078 52.24423 
L 125.755561 66.891151 
L 125.837388 72.29574 
L 125.919216 70.031838 
L 126.001043 71.39276 
L 126.164698 65.932923 
L 126.328353 53.553568 
L 126.410181 61.891214 
L 126.492008 50.272286 
L 126.573836 52.424498 
L 126.655664 43.98803 
L 126.737491 44.711926 
L 126.901146 58.785826 
L 126.982974 53.825765 
L 127.146629 61.834761 
L 127.228456 62.085776 
L 127.310284 69.637902 
L 127.473939 53.573912 
L 127.555766 53.301558 
L 127.637594 52.64072 
L 127.719421 59.293125 
L 127.801249 53.721666 
L 127.883077 56.626325 
L 127.964904 52.747581 
L 128.046732 57.127191 
L 128.128559 55.868492 
L 128.210387 56.171286 
L 128.292214 52.646434 
L 128.455869 61.011271 
L 128.701352 55.136138 
L 128.783179 55.455739 
L 129.028662 65.626238 
L 129.192317 61.792362 
L 129.274145 65.886149 
L 129.355972 59.663805 
L 129.4378 61.45355 
L 129.683282 62.980115 
L 129.76511 62.504567 
L 129.928765 56.302328 
L 130.174248 69.141839 
L 130.256075 64.15789 
L 130.41973 54.791846 
L 130.501558 57.645763 
L 130.74704 72.705287 
L 130.828868 72.654463 
L 130.992523 67.256404 
L 131.07435 68.184286 
L 131.238005 76.373425 
L 131.319833 69.953855 
L 131.401661 71.843743 
L 131.565316 72.241223 
L 131.647143 77.872365 
L 131.728971 77.200826 
L 131.810798 75.192337 
L 131.892626 76.955848 
L 131.974453 73.148557 
L 132.138108 76.982415 
L 132.219936 76.395251 
L 132.465418 64.146435 
L 132.629074 60.855259 
L 132.710901 62.46711 
L 132.792729 69.825771 
L 132.874556 64.842598 
L 133.038211 71.228785 
L 133.120039 63.954174 
L 133.201866 67.457196 
L 133.283694 66.50712 
L 133.447349 62.271544 
L 133.529176 56.983478 
L 133.611004 57.732689 
L 133.692832 58.555144 
L 133.774659 57.960885 
L 133.856487 62.241055 
L 134.183797 46.573445 
L 134.592934 63.930854 
L 134.756589 52.229792 
L 134.920245 58.832684 
L 135.0839 54.690974 
L 135.165727 55.357211 
L 135.247555 51.697008 
L 135.329382 54.328808 
L 135.41121 52.879802 
L 135.656692 64.994027 
L 135.820347 56.162816 
L 135.902175 57.798743 
L 136.06583 48.513872 
L 136.229485 61.00654 
L 136.39314 55.203051 
L 136.638623 65.793557 
L 136.884105 47.625795 
L 137.04776 49.095622 
L 137.129588 53.952153 
L 137.211416 49.979765 
L 137.293243 59.417735 
L 137.538726 47.453822 
L 137.620553 49.010231 
L 137.702381 48.67136 
L 137.784208 46.63984 
L 137.866036 50.43907 
L 138.029691 40.968659 
L 138.111518 45.265163 
L 138.275173 40.781791 
L 138.357001 42.228546 
L 138.438829 38.894 
L 138.684311 48.001679 
L 138.766139 48.563015 
L 138.929794 43.171345 
L 139.011621 43.520017 
L 139.175276 49.201209 
L 139.257104 50.379197 
L 139.338931 47.671398 
L 139.420759 38.477646 
L 139.502586 46.79171 
L 139.584414 45.503697 
L 139.911724 62.307122 
L 140.402689 45.679189 
L 140.484517 47.154191 
L 140.566344 38.317976 
L 140.648172 38.338251 
L 140.811827 47.066625 
L 140.893655 46.646463 
L 140.975482 42.762708 
L 141.139137 45.54977 
L 141.302792 43.492565 
L 141.548275 59.770423 
L 142.03924 79.288446 
L 142.121068 79.085797 
L 142.202895 78.342409 
L 142.612033 55.311261 
L 142.775688 61.645562 
L 143.102998 48.849032 
L 143.184826 50.304122 
L 143.266653 43.271275 
L 143.430308 47.65166 
L 143.512136 49.561391 
L 143.593963 55.234956 
L 143.675791 53.735953 
L 143.839446 51.915195 
L 143.921273 62.177696 
L 144.003101 59.330634 
L 144.084928 61.916344 
L 144.248584 75.694464 
L 144.330411 72.037077 
L 144.412239 75.385681 
L 144.494066 75.054867 
L 144.821376 66.446594 
L 144.903204 66.864894 
L 144.985031 69.598996 
L 145.066859 77.307573 
L 145.312341 61.124133 
L 145.394169 62.667319 
L 145.557824 57.341374 
L 145.639652 57.574718 
L 145.721479 59.3058 
L 145.803307 54.251764 
L 145.966962 60.437107 
L 146.130617 56.756664 
L 146.212444 58.492288 
L 146.294272 58.310522 
L 146.457927 52.528569 
L 146.539754 53.185339 
L 147.112547 74.644655 
L 147.194375 74.022954 
L 147.35803 78.208708 
L 147.603512 73.696536 
L 147.68534 75.705964 
L 147.848995 73.867213 
L 148.01265 65.091416 
L 148.258133 69.756987 
L 148.33996 68.209209 
L 148.421788 74.395163 
L 148.503615 73.085473 
L 148.749098 64.384534 
L 148.830925 66.238135 
L 148.912753 64.687745 
L 148.994581 53.962485 
L 149.076408 62.118252 
L 149.158236 60.555302 
L 149.240063 56.969769 
L 149.321891 57.342665 
L 149.403718 57.574062 
L 149.567373 47.865761 
L 149.731028 64.409025 
L 149.812856 64.71805 
L 150.058338 67.517246 
L 150.140166 67.198398 
L 150.221994 65.599433 
L 150.303821 67.930738 
L 150.385649 67.894331 
L 150.549304 65.445386 
L 150.794786 53.634843 
L 150.876614 51.987215 
L 151.040269 56.571409 
L 151.203924 52.623518 
L 151.367579 39.008999 
L 151.449407 34.419302 
L 151.531234 35.990328 
L 151.776717 60.667129 
L 151.858544 55.256849 
L 151.940372 56.280772 
L 152.022199 53.993992 
L 152.594992 71.437792 
L 152.67682 72.108922 
L 152.758647 71.173198 
L 152.922302 62.709721 
L 153.00413 64.797315 
L 153.085957 64.522106 
L 153.167785 64.63687 
L 153.249612 70.754651 
L 153.33144 68.360301 
L 153.413267 73.634476 
L 153.495095 69.12973 
L 153.65875 71.220907 
L 153.740578 72.102413 
L 153.822405 78.136704 
L 153.904233 73.218054 
L 153.98606 75.83511 
L 154.067888 72.90979 
L 154.149715 64.62526 
L 154.231543 70.036625 
L 154.31337 67.046008 
L 154.395198 68.790147 
L 154.477025 68.320553 
L 154.804335 52.625718 
L 154.886163 58.091171 
L 154.967991 56.477788 
L 155.049818 53.28615 
L 155.213473 55.341415 
L 155.295301 52.63521 
L 155.377128 57.510148 
L 155.458956 55.215104 
L 155.622611 66.47733 
L 155.704438 66.930296 
L 155.786266 64.600589 
L 155.868093 67.667687 
L 155.949921 60.217576 
L 156.031749 64.615843 
L 156.113576 62.837322 
L 156.277231 53.89067 
L 156.359059 55.662895 
L 156.440886 53.441791 
L 156.522714 59.920846 
L 156.604541 56.379464 
L 156.768196 61.249465 
L 156.850024 59.762721 
L 156.931851 55.733614 
L 157.013679 56.534963 
L 157.095506 61.177079 
L 157.177334 58.443125 
L 157.259162 61.488496 
L 157.340989 60.039054 
L 157.422817 62.102459 
L 157.586472 72.812365 
L 157.831954 64.75997 
L 157.913782 65.855088 
L 157.995609 64.724009 
L 158.159264 67.829489 
L 158.241092 68.903293 
L 158.322919 71.854177 
L 158.404747 68.224488 
L 158.486575 75.069413 
L 158.732057 64.169662 
L 158.813885 69.960273 
L 158.97754 63.457472 
L 159.059367 57.096063 
L 159.223022 64.90837 
L 159.30485 62.593055 
L 159.468505 72.771348 
L 159.63216 69.675376 
L 159.713988 71.150203 
L 159.95947 56.285692 
L 160.041298 59.132509 
L 160.28678 74.567671 
L 160.368608 76.881829 
L 160.450435 74.577685 
L 160.532263 64.059193 
L 160.61409 67.59673 
L 160.695918 70.81818 
L 160.777746 67.825282 
L 160.859573 71.36756 
L 160.941401 70.963591 
L 161.186883 60.64344 
L 161.268711 59.195868 
L 161.514193 69.519386 
L 161.677848 63.112707 
L 161.841503 69.634173 
L 161.923331 68.485802 
L 162.005159 71.456113 
L 162.168814 63.788775 
L 162.332469 67.619369 
L 162.414296 67.702304 
L 162.659779 72.70456 
L 162.823434 66.955703 
L 162.905261 66.109354 
L 163.068916 59.645787 
L 163.150744 61.484082 
L 163.232572 61.32707 
L 163.396227 58.620065 
L 163.478054 59.89186 
L 163.559882 64.901403 
L 163.641709 61.860058 
L 163.723537 64.072324 
L 163.887192 74.527039 
L 163.969019 73.483045 
L 164.29633 83.593474 
L 164.378157 81.975356 
L 164.541812 72.610107 
L 164.705467 77.089647 
L 164.869122 69.406826 
L 164.95095 68.949678 
L 165.114605 65.95248 
L 165.196432 65.550645 
L 165.27826 64.478268 
L 165.360087 64.529837 
L 165.441915 71.892419 
L 165.60557 64.367357 
L 165.769225 61.426574 
L 165.851053 59.557804 
L 165.93288 60.175491 
L 166.014708 61.704117 
L 166.178363 68.448686 
L 166.26019 69.631523 
L 166.505673 58.399975 
L 166.669328 62.248179 
L 166.751156 53.34986 
L 166.832983 60.468424 
L 166.914811 53.602313 
L 166.996638 56.593943 
L 167.078466 50.434105 
L 167.242121 62.196077 
L 167.323948 59.142244 
L 167.569431 77.384026 
L 167.651258 76.228438 
L 167.733086 74.496499 
L 167.814914 67.790006 
L 167.896741 71.297931 
L 168.060396 68.839593 
L 168.142224 71.076053 
L 168.224051 78.596773 
L 168.305879 77.157522 
L 168.387706 80.073605 
L 168.633189 75.698927 
L 168.715016 74.426184 
L 168.796844 76.153358 
L 168.878671 69.497734 
L 168.960499 71.002326 
L 169.042327 78.41153 
L 169.124154 76.839725 
L 169.287809 71.013279 
L 169.369637 70.213629 
L 169.451464 68.222968 
L 169.533292 70.463789 
L 169.860602 57.60307 
L 170.024257 71.096326 
L 170.187912 71.985711 
L 170.26974 70.180516 
L 170.351567 74.929181 
L 170.515222 67.114136 
L 170.59705 68.734538 
L 170.760705 75.765915 
L 170.842532 75.690225 
L 171.006187 80.536535 
L 171.088015 80.662805 
L 171.25167 83.956924 
L 171.497153 77.347406 
L 171.57898 70.791613 
L 171.660808 73.129513 
L 171.90629 61.588845 
L 171.988118 61.908545 
L 172.069945 67.100134 
L 172.151773 64.194801 
L 172.2336 65.469788 
L 172.479083 61.895435 
L 172.642738 65.744269 
L 172.724566 65.120611 
L 172.888221 61.336243 
L 172.970048 61.939448 
L 173.133703 65.050232 
L 173.215531 63.844987 
L 173.542841 75.342858 
L 173.624668 74.271052 
L 173.706496 66.737244 
L 173.788324 68.305509 
L 173.870151 67.813947 
L 174.033806 70.184378 
L 174.115634 66.529886 
L 174.197461 70.927254 
L 174.442944 64.16694 
L 174.688426 73.024508 
L 174.770254 72.887812 
L 175.015737 57.857044 
L 175.097564 60.790206 
L 175.261219 53.449043 
L 175.343047 50.978739 
L 175.506702 38.989346 
L 175.588529 37.86269 
L 175.670357 37.968802 
L 175.752184 31.448392 
L 175.834012 44.351538 
L 175.997667 33.475345 
L 176.161322 45.529028 
L 176.24315 33.867993 
L 176.324977 35.022406 
L 176.406805 37.45196 
L 176.652287 65.064919 
L 176.89777 69.401512 
L 177.061425 69.262512 
L 177.306908 56.961702 
L 177.388735 56.931233 
L 177.470563 54.872688 
L 177.634218 60.200324 
L 177.797873 52.095194 
L 177.8797 54.602371 
L 177.961528 51.849234 
L 178.125183 57.197368 
L 178.20701 58.108408 
L 178.288838 55.740231 
L 178.370665 62.341503 
L 178.452493 62.014137 
L 178.779803 71.337444 
L 178.861631 70.819126 
L 178.943458 71.905401 
L 179.025286 69.452911 
L 179.107113 71.153499 
L 179.188941 70.6911 
L 179.352596 64.630787 
L 179.598079 74.313619 
L 179.679906 72.961847 
L 179.843561 66.12692 
L 179.925389 64.884046 
L 180.007216 66.444082 
L 180.089044 61.685724 
L 180.170871 62.112871 
L 180.334526 74.304184 
L 180.416354 73.343546 
L 180.498181 70.282124 
L 180.743664 77.676663 
L 180.825492 76.25992 
L 180.907319 71.163518 
L 180.989147 72.68669 
L 181.070974 68.134373 
L 181.152802 74.314462 
L 181.234629 72.549161 
L 181.643767 52.751487 
L 181.807422 56.264269 
L 181.889249 55.852648 
L 181.971077 55.38503 
L 182.21656 67.426665 
L 182.298387 58.363016 
L 182.380215 60.719639 
L 182.462042 58.025114 
L 182.625697 62.657341 
L 182.707525 68.347057 
L 182.789352 61.679003 
L 182.87118 69.709672 
L 183.034835 63.613762 
L 183.116663 64.269034 
L 183.607628 56.983232 
L 183.771283 68.059775 
L 183.85311 68.436178 
L 184.016765 51.53959 
L 184.098593 52.325524 
L 184.262248 62.280243 
L 184.344076 61.03805 
L 184.425903 65.748184 
L 184.507731 58.603731 
L 184.589558 67.4096 
L 184.835041 57.538082 
L 184.916868 54.075061 
L 184.998696 54.270092 
L 185.162351 67.274612 
L 185.244178 66.51354 
L 185.326006 65.877453 
L 185.407833 73.369908 
L 185.489661 70.86058 
L 185.653316 65.568582 
L 185.735144 65.748842 
L 185.980626 56.732228 
L 186.062454 57.015792 
L 186.144281 59.391093 
L 186.226109 58.784289 
L 186.389764 54.934198 
L 186.471591 56.103882 
L 186.553419 53.721346 
L 186.635247 54.260513 
L 186.798902 61.584884 
L 186.880729 55.957356 
L 186.962557 56.680208 
L 187.208039 69.426228 
L 187.289867 67.643161 
L 187.371694 61.7926 
L 187.453522 67.056442 
L 187.535349 61.999248 
L 187.617177 66.276782 
L 188.026315 49.091364 
L 188.18997 61.058491 
L 188.271797 57.88761 
L 188.353625 61.575474 
L 188.435452 58.295402 
L 188.599107 69.357322 
L 188.84459 59.312592 
L 189.090073 63.260332 
L 189.1719 63.974124 
L 189.253728 55.945149 
L 189.417383 67.116766 
L 189.49921 61.999766 
L 189.662865 74.976621 
L 189.744693 76.162491 
L 189.82652 73.407179 
L 189.908348 74.963122 
L 189.990175 73.379116 
L 190.072003 67.312229 
L 190.153831 70.48452 
L 190.235658 64.014993 
L 190.399313 70.733781 
L 190.481141 66.561752 
L 190.562968 73.199037 
L 190.808451 65.426844 
L 190.972106 73.833733 
L 191.053933 72.550361 
L 191.135761 76.497906 
L 191.381244 68.469486 
L 191.463071 77.845459 
L 191.544899 74.826572 
L 191.626726 66.321223 
L 191.790381 73.368583 
L 191.872209 67.26638 
L 191.954036 73.150441 
L 192.035864 71.615213 
L 192.117691 70.779233 
L 192.199519 78.386379 
L 192.281346 74.204976 
L 192.445001 76.595725 
L 192.526829 76.432055 
L 192.608657 77.759532 
L 192.772312 72.271735 
L 193.017794 75.676636 
L 193.263277 67.033088 
L 193.345104 67.432717 
L 193.426932 69.815281 
L 193.672414 59.655275 
L 193.83607 57.339636 
L 193.917897 58.142731 
L 194.081552 61.258242 
L 194.16338 55.733644 
L 194.245207 56.356408 
L 194.327035 65.311063 
L 194.572517 54.712399 
L 194.654345 58.879929 
L 194.736172 58.628896 
L 194.818 60.735562 
L 194.899828 60.375605 
L 194.981655 69.597863 
L 195.063483 69.152697 
L 195.14531 63.936147 
L 195.227138 64.343502 
L 195.308965 63.418381 
L 195.390793 69.452734 
L 195.47262 64.169413 
L 195.554448 69.172695 
L 195.636275 62.673622 
L 195.718103 65.644221 
L 196.045413 50.127549 
L 196.127241 52.847966 
L 196.209068 52.961255 
L 196.290896 54.223221 
L 196.536378 31.812233 
L 196.700033 51.877996 
L 196.863688 56.7194 
L 197.190998 72.708313 
L 197.354654 66.14648 
L 197.518309 74.132902 
L 197.681964 71.317558 
L 197.763791 75.758067 
L 198.091101 62.999918 
L 198.172929 59.50545 
L 198.254756 61.732226 
L 198.336584 57.344101 
L 198.500239 70.964629 
L 198.582067 70.649536 
L 198.745722 62.364703 
L 198.827549 69.797741 
L 198.909377 68.209059 
L 198.991204 65.597451 
L 199.073032 67.353249 
L 199.154859 65.388048 
L 199.236687 66.30185 
L 199.400342 63.309334 
L 199.563997 71.374106 
L 199.645825 62.924731 
L 199.80948 71.650545 
L 200.054962 62.449165 
L 200.300445 52.384332 
L 200.382272 61.161472 
L 200.4641 55.532849 
L 200.545927 62.784254 
L 200.627755 62.554917 
L 200.709582 57.667333 
L 200.79141 58.486198 
L 201.364203 73.505712 
L 201.77334 61.792955 
L 201.855168 65.179414 
L 201.936996 60.897726 
L 202.018823 65.752495 
L 202.509788 35.818221 
L 202.591616 39.730853 
L 202.673443 38.162821 
L 202.755271 33.176521 
L 202.837098 38.307099 
L 202.918926 51.75402 
L 203.000753 48.340749 
L 203.082581 44.041912 
L 203.164409 51.263398 
L 203.328064 39.848023 
L 203.409891 31.248825 
L 203.655374 50.825796 
L 203.737201 39.18634 
L 203.819029 52.040863 
L 203.982684 44.260275 
L 204.228166 67.117977 
L 204.391822 77.898518 
L 204.637304 69.181762 
L 204.719132 74.334139 
L 204.964614 57.951462 
L 205.046442 58.414485 
L 205.210097 54.327519 
L 205.373752 59.854818 
L 205.45558 61.973743 
L 205.537407 57.260735 
L 205.619235 63.868914 
L 205.701062 63.334064 
L 205.946545 43.769775 
L 206.028372 37.601966 
L 206.1102 43.784789 
L 206.192027 35.852407 
L 206.273855 38.808157 
L 206.355682 50.879589 
L 206.519337 35.347049 
L 206.601165 48.754701 
L 206.76482 38.747869 
L 206.928475 50.928887 
L 207.010303 56.879945 
L 207.173958 47.679062 
L 207.337613 51.27802 
L 207.41944 51.63826 
L 207.501268 48.635205 
L 207.828578 67.700124 
L 207.910406 69.518774 
L 208.319543 53.397858 
L 208.401371 54.878088 
L 208.565026 66.026723 
L 208.646853 65.802556 
L 208.892336 75.007115 
L 208.974163 73.2468 
L 209.055991 75.215313 
L 209.301474 68.03921 
L 209.383301 69.60609 
L 209.546956 68.595168 
L 209.628784 69.590941 
L 209.792439 61.817122 
L 209.874266 53.414235 
L 210.119749 59.831152 
L 210.201577 46.943646 
L 210.283404 50.487558 
L 210.365232 52.467403 
L 210.528887 45.927707 
L 210.610714 49.156215 
L 210.692542 47.386923 
L 210.856197 38.046843 
L 211.019852 48.515907 
L 211.265334 40.127878 
L 211.347162 41.060241 
L 211.42899 45.073946 
L 211.510817 42.014284 
L 211.592645 44.163435 
L 211.7563 40.789324 
L 211.919955 46.481371 
L 212.001782 45.416124 
L 212.08361 45.978766 
L 212.329092 61.393094 
L 212.41092 60.178264 
L 212.492747 59.144931 
L 212.574575 51.454764 
L 212.656403 59.164851 
L 212.901885 48.154748 
L 213.06554 57.103047 
L 213.311023 42.957637 
L 213.474678 47.374877 
L 213.556505 46.326414 
L 213.720161 38.213703 
L 213.883816 27.436536 
L 214.538436 66.864821 
L 214.702091 71.312937 
L 214.783918 67.983236 
L 215.029401 79.258315 
L 215.193056 77.578244 
L 215.274884 78.311702 
L 215.356711 76.847885 
L 215.438539 79.014963 
L 215.602194 75.462859 
L 215.684021 74.343552 
L 215.765849 79.132025 
L 215.847676 77.830503 
L 215.929504 73.912019 
L 216.174987 79.229019 
L 216.256814 74.755009 
L 216.338642 76.165351 
L 216.420469 76.724845 
L 216.665952 67.866456 
L 216.747779 73.379589 
L 216.829607 73.096988 
L 216.911434 75.971481 
L 216.993262 74.02901 
L 217.075089 76.179272 
L 217.4024 59.312842 
L 217.484227 63.15602 
L 217.566055 60.946732 
L 217.72971 66.450366 
L 217.811537 63.234075 
L 217.893365 65.931072 
L 217.975192 61.782054 
L 218.138847 67.922252 
L 218.220675 66.37533 
L 218.302502 55.251847 
L 218.38433 61.379902 
L 218.466158 61.211048 
L 218.547985 62.522145 
L 218.875295 75.577603 
L 218.957123 74.548672 
L 219.03895 69.224396 
L 219.120778 69.433507 
L 219.202605 75.102587 
L 219.284433 73.238921 
L 219.36626 73.229866 
L 219.448088 75.953692 
L 219.529915 73.096726 
L 219.611743 74.851854 
L 219.693571 73.668443 
L 219.775398 75.394716 
L 219.939053 70.077745 
L 220.102708 76.179896 
L 220.184536 75.796759 
L 220.348191 80.87123 
L 220.430018 76.441712 
L 220.511846 78.580405 
L 220.593673 76.812019 
L 220.757329 82.053932 
L 220.920984 78.065366 
L 221.002811 71.308899 
L 221.084639 73.472024 
L 221.166466 73.233252 
L 221.330121 61.978304 
L 221.493776 65.868137 
L 221.575604 64.193534 
L 221.657431 57.452927 
L 221.739259 59.429901 
L 221.821086 59.041527 
L 221.984742 61.417398 
L 222.148397 69.767612 
L 222.230224 70.464245 
L 222.312052 72.949783 
L 222.393879 69.166664 
L 222.475707 69.346987 
L 222.557534 69.44315 
L 222.721189 56.261851 
L 222.884844 64.107774 
L 223.048499 52.93202 
L 223.130327 62.755031 
L 223.212155 56.837033 
L 223.293982 65.385819 
L 223.37581 60.33456 
L 223.457637 62.278707 
L 223.539465 59.964457 
L 223.621292 60.329315 
L 223.70312 65.623652 
L 223.866775 55.750737 
L 223.948602 55.950617 
L 224.112257 60.658424 
L 224.275912 54.043838 
L 224.35774 55.209158 
L 224.439568 54.395328 
L 224.68505 39.919233 
L 224.848705 44.601722 
L 224.930533 52.716178 
L 225.01236 51.920566 
L 225.094188 49.224995 
L 225.176015 41.227631 
L 225.257843 47.205355 
L 225.421498 41.785801 
L 225.503326 44.196053 
L 225.585153 41.954377 
L 225.666981 48.068973 
L 225.748808 43.340736 
L 225.830636 49.241636 
L 225.912463 42.979054 
L 226.076118 54.935205 
L 226.157946 57.477641 
L 226.321601 66.446095 
L 226.403428 65.826302 
L 226.567083 56.357844 
L 226.648911 56.42319 
L 226.976221 70.026224 
L 227.058049 77.004205 
L 227.221704 65.612072 
L 227.303531 69.778077 
L 227.385359 71.012369 
L 227.467186 74.510337 
L 227.549014 72.239405 
L 227.630841 75.048786 
L 227.794496 60.401373 
L 228.039979 70.420423 
L 228.121807 70.111214 
L 228.285462 71.863151 
L 228.367289 71.689764 
L 228.449117 75.191653 
L 228.530944 73.962557 
L 228.612772 74.416521 
L 228.776427 59.200852 
L 228.858254 63.122908 
L 228.940082 61.025497 
L 229.02191 63.023029 
L 229.103737 61.530867 
L 229.267392 55.355094 
L 229.34922 66.746615 
L 229.594702 33.800932 
L 229.840185 51.872739 
L 229.922012 51.466407 
L 230.085667 56.837598 
L 230.167495 58.642846 
L 230.249323 65.068449 
L 230.33115 58.857069 
L 230.412978 60.698341 
L 230.494805 58.41197 
L 230.576633 62.238854 
L 230.65846 59.371825 
L 230.740288 59.936995 
L 230.822115 67.558989 
L 230.903943 64.23585 
L 230.98577 64.376766 
L 231.149425 69.584883 
L 231.31308 57.79401 
L 231.476736 64.162239 
L 231.558563 62.441345 
L 231.722218 70.438787 
L 231.804046 68.413649 
L 231.885873 69.878314 
L 232.131356 55.860946 
L 232.213183 57.065644 
L 232.295011 61.685888 
L 232.622321 38.670314 
L 232.867804 62.175349 
L 232.949631 60.907898 
L 233.031459 51.612154 
L 233.113286 52.143342 
L 233.195114 51.32893 
L 233.276941 51.846502 
L 233.440596 56.700599 
L 233.604251 51.039556 
L 233.849734 64.042148 
L 234.013389 69.352435 
L 234.340699 58.081248 
L 234.504354 56.909505 
L 234.913492 79.133507 
L 234.99532 79.929351 
L 235.158975 71.901262 
L 235.32263 77.964374 
L 235.404457 75.228577 
L 235.64994 57.215509 
L 235.731767 58.131924 
L 236.059078 65.685198 
L 236.140905 63.292335 
L 236.222733 70.805161 
L 236.386388 66.327907 
L 236.550043 68.856482 
L 236.713698 61.896906 
L 236.795525 61.94969 
L 236.877353 66.804176 
L 236.95918 64.559579 
L 237.122835 65.817892 
L 237.204663 72.124246 
L 237.450146 57.43714 
L 237.531973 57.249766 
L 237.613801 55.83416 
L 237.777456 62.777894 
L 237.859283 60.019217 
L 238.104766 68.030721 
L 238.186593 68.983399 
L 238.268421 67.655986 
L 238.432076 72.576483 
L 238.513904 69.486139 
L 238.595731 71.048864 
L 238.677559 69.784704 
L 238.759386 70.908442 
L 238.841214 73.987038 
L 238.923041 72.913627 
L 239.086696 61.670008 
L 239.168524 66.117511 
L 239.332179 60.451037 
L 239.659489 71.594145 
L 239.823144 61.58889 
L 239.904972 62.225419 
L 240.068627 65.531144 
L 240.314109 50.549824 
L 240.559592 61.396329 
L 240.641419 55.845155 
L 240.723247 57.688072 
L 240.805075 57.701054 
L 240.96873 62.930595 
L 241.050557 61.085126 
L 241.132385 66.107262 
L 241.29604 56.538379 
L 241.541522 70.600553 
L 241.705177 65.990152 
L 241.868832 69.844257 
L 241.95066 61.734567 
L 242.032488 65.557577 
L 242.27797 53.379667 
L 242.523453 61.125282 
L 242.768935 54.791868 
L 243.014418 65.880279 
L 243.096245 61.211962 
L 243.178073 62.817964 
L 243.259901 67.052276 
L 243.505383 58.064784 
L 243.587211 59.858055 
L 243.832693 51.234152 
L 244.241831 68.081408 
L 244.323659 67.994673 
L 244.405486 69.402535 
L 244.650969 62.243759 
L 244.814624 68.469913 
L 244.978279 60.185291 
L 245.141934 69.005033 
L 245.387416 58.934746 
L 245.469244 61.29408 
L 245.551072 58.037233 
L 245.714727 76.743778 
L 245.878382 69.857495 
L 245.960209 72.457333 
L 246.042037 73.238663 
L 246.205692 63.795879 
L 246.369347 74.341149 
L 246.451174 73.965749 
L 246.614829 65.875307 
L 246.696657 63.832073 
L 246.778485 68.254311 
L 247.023967 61.912398 
L 247.26945 64.978646 
L 247.59676 54.943047 
L 247.678587 58.376902 
L 247.842243 47.876413 
L 248.005898 62.810151 
L 248.087725 59.154869 
L 248.169553 59.448117 
L 248.333208 57.9978 
L 248.415035 63.975836 
L 248.496863 62.071628 
L 248.57869 62.576768 
L 248.742345 66.314453 
L 248.824173 67.119528 
L 249.069656 50.694759 
L 249.151483 57.419356 
L 249.315138 51.719374 
L 249.396966 53.053813 
L 249.560621 56.748453 
L 249.642448 58.09691 
L 249.806103 48.562789 
L 249.969758 43.273901 
L 250.133413 48.120501 
L 250.215241 47.34218 
L 250.460724 58.441636 
L 250.542551 59.296686 
L 250.706206 52.728688 
L 250.788034 64.682901 
L 250.869861 60.377272 
L 250.951689 62.95441 
L 251.033516 60.850364 
L 251.115344 61.129498 
L 251.197171 66.280552 
L 251.360827 63.011663 
L 251.442654 67.139204 
L 251.606309 57.152123 
L 251.769964 68.491263 
L 251.851792 64.210152 
L 252.015447 71.539116 
L 252.097274 68.444546 
L 252.179102 72.312938 
L 252.260929 70.399215 
L 252.424584 78.347376 
L 252.506412 77.18054 
L 252.58824 79.673031 
L 252.670067 79.206621 
L 252.751895 78.015892 
L 252.833722 74.697422 
L 252.91555 75.202105 
L 252.997377 77.639375 
L 253.079205 75.841377 
L 253.24286 78.916484 
L 253.324687 77.659037 
L 253.488342 64.181591 
L 253.57017 62.909034 
L 253.733825 50.243123 
L 253.815653 51.027183 
L 253.89748 40.604204 
L 254.142963 56.738501 
L 254.22479 61.705367 
L 254.306618 59.481442 
L 254.388445 63.588403 
L 254.5521 53.061642 
L 254.633928 54.352319 
L 254.715755 53.886675 
L 254.797583 48.23312 
L 254.87941 51.539982 
L 254.961238 47.7259 
L 255.043066 37.771125 
L 255.206721 46.20949 
L 255.370376 43.451519 
L 255.534031 42.728306 
L 255.697686 52.386509 
L 255.861341 50.208974 
L 255.943168 51.036694 
L 256.106824 36.417539 
L 256.188651 41.222899 
L 256.270479 40.131325 
L 256.352306 35.150247 
L 256.434134 19.076676 
L 256.515961 23.38245 
L 256.597789 22.627486 
L 256.679616 31.631814 
L 256.761444 28.61643 
L 256.843271 32.635048 
L 256.925099 30.27589 
L 257.006926 31.335589 
L 257.334237 55.816231 
L 257.416064 55.756355 
L 257.579719 59.652079 
L 257.661547 53.869254 
L 257.743374 65.319573 
L 257.988857 57.175288 
L 258.070684 58.106621 
L 258.316167 48.526442 
L 258.397994 51.298538 
L 258.479822 50.403001 
L 258.56165 40.85708 
L 258.643477 42.872529 
L 258.807132 39.896497 
L 259.052615 51.080887 
L 259.379925 24.431365 
L 259.461752 27.64179 
L 259.625408 35.24587 
L 259.707235 31.529583 
L 259.789063 35.874221 
L 259.87089 35.038538 
L 260.280028 48.657687 
L 260.361855 59.200978 
L 260.443683 55.21177 
L 260.52551 57.182296 
L 260.607338 64.385608 
L 260.689165 56.855412 
L 260.770993 57.942542 
L 260.852821 57.712594 
L 260.934648 56.803739 
L 261.098303 64.842386 
L 261.180131 60.767774 
L 261.261958 61.55299 
L 261.343786 62.241706 
L 261.425613 62.197604 
L 261.589268 72.20214 
L 261.752923 68.743675 
L 261.834751 68.099051 
L 261.916578 72.242569 
L 261.998406 67.717959 
L 262.080234 72.531866 
L 262.162061 71.734047 
L 262.243889 70.350332 
L 262.407544 75.346332 
L 262.653026 64.002005 
L 262.734854 65.406248 
L 263.225819 53.307552 
L 263.307647 53.366012 
L 263.553129 76.934835 
L 263.634957 76.589215 
L 263.716784 76.742479 
L 263.880439 67.053077 
L 264.125922 71.270174 
L 264.289577 66.538773 
L 264.371405 56.857962 
L 264.780542 73.515836 
L 264.86237 68.680181 
L 264.944197 69.5825 
L 265.026025 67.512485 
L 265.18968 58.234311 
L 265.271507 56.906146 
L 265.353335 58.574136 
L 265.435162 55.416045 
L 265.51699 61.044688 
L 265.598818 59.402129 
L 265.680645 57.537243 
L 265.762473 65.180139 
L 265.926128 57.401357 
L 266.007955 54.167282 
L 266.089783 55.531 
L 266.253438 46.228816 
L 266.335265 50.637005 
L 266.417093 45.52015 
L 266.49892 46.72673 
L 266.662576 64.226354 
L 266.744403 58.577615 
L 266.989886 66.136777 
L 267.071713 66.068888 
L 267.153541 72.454222 
L 267.235368 72.051819 
L 267.317196 68.870541 
L 267.480851 78.650576 
L 267.644506 71.184202 
L 267.726333 71.190808 
L 267.808161 70.299773 
L 268.135471 60.733253 
L 268.217299 62.988693 
L 268.299126 62.65735 
L 268.380954 58.170572 
L 268.462781 60.749331 
L 268.544609 48.497553 
L 268.626436 48.911119 
L 268.708264 60.558891 
L 268.790091 60.045057 
L 268.871919 58.224161 
L 268.953746 66.22864 
L 269.035574 60.71818 
L 269.199229 64.331418 
L 269.444712 55.590666 
L 269.608367 59.955044 
L 269.853849 43.676126 
L 269.935677 42.491645 
L 270.017504 45.336533 
L 270.099332 37.640977 
L 270.344815 51.241453 
L 270.426642 50.27986 
L 270.50847 52.533953 
L 270.83578 30.09453 
L 271.16309 52.62145 
L 271.408573 44.283167 
L 271.4904 47.897166 
L 271.572228 47.494965 
L 271.654055 48.452444 
L 271.735883 54.552447 
L 271.81771 46.101901 
L 271.899538 48.653592 
L 272.063193 43.056315 
L 272.226848 55.88555 
L 272.308675 50.657527 
L 272.390503 51.245967 
L 272.47233 50.858617 
L 272.717813 63.758453 
L 272.881468 61.346503 
L 273.208778 46.295123 
L 273.372433 54.647964 
L 273.454261 51.366771 
L 273.536088 53.157187 
L 273.617916 48.509486 
L 273.699743 55.701378 
L 273.781571 55.587464 
L 273.945226 46.798811 
L 274.027054 48.524507 
L 274.272536 40.77567 
L 274.599846 49.471286 
L 274.681674 49.693216 
L 274.763501 62.514703 
L 274.845329 59.675906 
L 274.927157 62.956287 
L 275.008984 71.241815 
L 275.090812 66.102219 
L 275.172639 66.48066 
L 275.254467 69.706874 
L 275.336294 67.195507 
L 275.499949 57.788626 
L 275.581777 59.150633 
L 275.745432 66.868872 
L 275.909087 65.715882 
L 276.072742 76.038247 
L 276.15457 70.374417 
L 276.236397 72.094346 
L 276.318225 71.73864 
L 276.48188 66.15501 
L 276.645535 74.476355 
L 276.80919 60.254524 
L 276.891017 62.40285 
L 277.054672 51.513629 
L 277.218327 34.469667 
L 277.300155 35.685065 
L 277.381983 35.633551 
L 277.709293 59.216086 
L 277.79112 61.57747 
L 277.872948 68.906812 
L 277.954775 66.299782 
L 278.036603 64.03729 
L 278.200258 69.634785 
L 278.609396 53.282909 
L 278.691223 56.262353 
L 278.773051 50.426258 
L 279.018533 68.478629 
L 279.100361 64.61617 
L 279.182188 67.225476 
L 279.264016 66.144192 
L 279.427671 67.559978 
L 279.509498 60.494204 
L 279.754981 77.30395 
L 279.836809 76.603397 
L 279.918636 77.890491 
L 280.000464 77.009934 
L 280.082291 77.57725 
L 280.245946 76.437469 
L 280.409601 80.627667 
L 280.491429 80.242503 
L 280.573256 74.337916 
L 280.736911 84.466518 
L 280.818739 82.286328 
L 281.064222 71.713257 
L 281.146049 72.074948 
L 281.309704 75.3378 
L 281.391532 73.693156 
L 281.473359 77.822613 
L 281.555187 72.566409 
L 281.637014 72.960426 
L 281.718842 72.732065 
L 281.964325 63.176317 
L 282.046152 72.099559 
L 282.12798 70.987323 
L 282.291635 73.798548 
L 282.373462 71.346759 
L 282.537117 78.026402 
L 282.946255 58.194357 
L 283.028082 58.784267 
L 283.10991 63.918153 
L 283.355393 48.886815 
L 283.600875 65.157576 
L 283.682703 63.252221 
L 283.928185 65.347439 
L 284.010013 58.664369 
L 284.09184 59.976809 
L 284.173668 69.215938 
L 284.500978 54.596583 
L 284.664633 60.853608 
L 284.746461 51.916272 
L 284.828288 54.725686 
L 284.910116 56.733512 
L 284.991943 54.619616 
L 285.237426 33.006213 
L 285.319253 38.746357 
L 285.401081 35.820927 
L 285.892046 54.28379 
L 285.973874 50.550858 
L 286.464839 72.782136 
L 286.546666 72.650821 
L 286.628494 72.363751 
L 286.792149 65.675675 
L 286.873977 66.408838 
L 286.955804 65.697281 
L 287.037632 70.077483 
L 287.119459 60.797389 
L 287.283114 68.55167 
L 287.364942 65.196765 
L 287.446769 65.361035 
L 287.528597 66.155743 
L 287.692252 71.407939 
L 287.774079 68.060125 
L 287.855907 71.043354 
L 287.937735 68.141622 
L 288.10139 75.600728 
L 288.183217 74.535384 
L 288.265045 71.454918 
L 288.510527 76.426031 
L 288.674182 73.665119 
L 288.75601 79.248279 
L 288.837837 77.487022 
L 289.165148 87.150964 
L 289.246975 83.963521 
L 289.328803 85.295936 
L 289.574285 80.509035 
L 289.656113 82.838391 
L 289.819768 73.746992 
L 289.901595 68.477404 
L 289.983423 71.550219 
L 290.06525 66.48239 
L 290.147078 70.933108 
L 290.310733 65.92403 
L 290.392561 67.105495 
L 290.556216 67.994366 
L 290.638043 70.41886 
L 290.719871 67.769725 
L 290.801698 71.381668 
L 290.883526 70.442741 
L 291.047181 67.643605 
L 291.292663 78.226673 
L 291.374491 73.895476 
L 291.538146 76.810159 
L 291.619974 74.073661 
L 291.701801 75.641694 
L 291.783629 71.163519 
L 291.865456 73.672074 
L 292.110939 59.791025 
L 292.274594 37.627389 
L 292.356421 50.48648 
L 292.520076 42.550067 
L 292.601904 46.657236 
L 292.683732 44.209311 
L 292.765559 46.579279 
L 292.847387 38.203492 
L 293.256524 60.31926 
L 293.338352 60.27843 
L 293.420179 61.215115 
L 293.502007 59.281082 
L 293.583834 61.719146 
L 293.665662 60.695291 
L 293.74749 61.875527 
L 293.992972 68.313378 
L 294.156627 58.731745 
L 294.238455 64.494453 
L 294.320282 63.008535 
L 294.40211 64.237057 
L 294.647592 51.733311 
L 294.72942 57.950774 
L 294.893075 44.880213 
L 294.974903 46.568118 
L 295.302213 65.453457 
L 295.38404 63.907803 
L 295.547695 69.24672 
L 295.793178 59.828914 
L 295.956833 63.020855 
L 296.03866 54.027203 
L 296.120488 55.159773 
L 296.365971 62.081731 
L 296.529626 59.126977 
L 296.856936 66.762217 
L 296.938763 63.833021 
L 297.102418 73.158834 
L 297.184246 68.453689 
L 297.266074 70.744849 
L 297.347901 67.560284 
L 297.429729 69.777877 
L 297.593384 62.682613 
L 297.675211 67.057719 
L 297.757039 63.459091 
L 297.920694 68.296243 
L 298.002521 63.797038 
L 298.084349 65.271329 
L 298.166176 65.009315 
L 298.248004 67.38114 
L 298.411659 58.463094 
L 298.738969 69.066491 
L 298.820797 67.354094 
L 298.902624 68.668664 
L 298.984452 71.975094 
L 299.148107 65.59345 
L 299.393589 72.363741 
L 299.475417 71.900723 
L 299.802727 62.095417 
L 299.966382 52.461511 
L 300.04821 52.550647 
L 300.539175 64.16381 
L 300.70283 72.015099 
L 301.03014 63.501323 
L 301.111968 65.170638 
L 301.193795 61.604253 
L 301.275623 63.20158 
L 301.439278 61.214628 
L 301.68476 47.798777 
L 301.930243 61.051196 
L 302.012071 62.310235 
L 302.257553 53.71974 
L 302.339381 63.142372 
L 302.421208 61.435438 
L 302.503036 59.838533 
L 302.584863 66.229092 
L 302.666691 65.059016 
L 302.748518 65.883281 
L 302.830346 68.044244 
L 302.912173 66.149018 
L 303.321311 37.517377 
L 303.566794 67.284549 
L 303.648621 68.272889 
L 303.812276 74.788521 
L 303.894104 75.073839 
L 303.975931 73.373839 
L 304.057759 74.359461 
L 304.139586 70.412843 
L 304.221414 70.997877 
L 304.303241 77.960403 
L 304.385069 77.186831 
L 304.548724 65.175909 
L 304.876034 79.26638 
L 305.039689 78.267775 
L 305.121517 79.584618 
L 305.285172 64.945629 
L 305.366999 72.441659 
L 305.448827 70.263873 
L 305.530655 72.137326 
L 305.776137 83.417698 
L 306.02162 77.844068 
L 306.103447 79.471774 
L 306.430757 65.30769 
L 306.512585 73.987525 
L 306.594412 68.960843 
L 306.758068 72.501298 
L 307.085378 80.807153 
L 307.167205 79.976546 
L 307.576343 56.245805 
L 307.739998 62.478935 
L 307.821825 61.809708 
L 307.985481 58.593404 
L 308.067308 62.726941 
L 308.149136 60.871489 
L 308.394618 48.000802 
L 308.558273 60.63779 
L 308.640101 60.049732 
L 308.721928 51.555863 
L 308.803756 52.995747 
L 308.885583 60.819131 
L 308.967411 57.138221 
L 309.049239 62.250503 
L 309.131066 53.453421 
L 309.294721 65.036977 
L 309.703859 41.54037 
L 309.867514 39.998101 
L 310.112996 54.35269 
L 310.194824 47.928004 
L 310.276652 49.186992 
L 310.358479 50.986033 
L 310.440307 46.846295 
L 310.522134 50.931844 
L 310.603962 50.809244 
L 310.685789 44.350514 
L 310.767617 45.656882 
L 310.849444 49.899741 
L 310.931272 44.705743 
L 311.013099 51.074065 
L 311.094927 49.698394 
L 311.176754 50.990062 
L 311.258582 49.351193 
L 311.585892 67.331764 
L 311.66772 69.066872 
L 311.749547 63.804855 
L 311.913202 70.25643 
L 311.99503 68.343959 
L 312.076857 69.406226 
L 312.158685 72.524865 
L 312.404167 68.337385 
L 312.485995 69.855466 
L 312.567823 68.985586 
L 312.64965 70.027223 
L 312.731478 75.462718 
L 313.058788 64.452704 
L 313.140615 66.139852 
L 313.30427 58.71113 
L 313.549753 66.696329 
L 313.713408 67.402884 
L 313.877063 61.947041 
L 313.958891 54.580466 
L 314.040718 54.976682 
L 314.122546 58.66819 
L 314.286201 47.949035 
L 314.368028 48.506954 
L 314.531683 54.873032 
L 314.695338 51.813408 
L 314.777166 56.235302 
L 314.858993 55.395028 
L 314.940821 56.196792 
L 315.022649 48.884263 
L 315.104476 49.398598 
L 315.349959 59.299549 
L 315.513614 51.491019 
L 315.677269 62.368797 
L 315.759096 60.21498 
L 315.840924 62.218422 
L 315.922751 59.729275 
L 316.004579 64.532116 
L 316.086406 60.411236 
L 316.250062 68.074883 
L 316.331889 67.559048 
L 316.413717 70.268102 
L 316.495544 67.405679 
L 316.577372 59.04128 
L 316.741027 63.096795 
L 316.822854 58.172141 
L 317.150164 67.390424 
L 317.395647 64.307285 
L 317.477475 55.086903 
L 317.559302 58.403149 
L 317.64113 58.108886 
L 317.804785 47.334125 
L 317.886612 56.937313 
L 317.96844 53.230469 
L 318.132095 58.192324 
L 318.29575 55.264923 
L 318.541233 63.785892 
L 318.62306 56.578518 
L 318.786715 62.493888 
L 318.868543 61.479919 
L 318.95037 66.726526 
L 319.032198 65.369312 
L 319.114025 64.173197 
L 319.359508 74.662165 
L 319.60499 60.175245 
L 319.686818 61.322193 
L 319.768646 61.806206 
L 319.932301 72.742592 
L 320.259611 45.592643 
L 320.341438 44.774626 
L 320.505093 51.217177 
L 320.668748 44.16565 
L 320.914231 53.375516 
L 320.996059 47.726916 
L 321.159714 50.177063 
L 321.241541 46.99839 
L 321.568851 57.530192 
L 321.650679 57.083549 
L 321.732506 54.811588 
L 321.814334 55.424231 
L 321.977989 70.11755 
L 322.059817 68.702524 
L 322.223472 65.649322 
L 322.387127 58.967841 
L 322.468954 55.615398 
L 322.550782 60.828755 
L 322.632609 54.111121 
L 322.714437 65.231035 
L 322.878092 49.469188 
L 323.041747 54.153888 
L 323.123574 50.668854 
L 323.28723 42.183467 
L 323.450885 49.796444 
L 323.532712 60.35928 
L 323.61454 51.540276 
L 323.696367 54.231617 
L 323.778195 55.085889 
L 323.860022 57.502419 
L 323.94185 46.583836 
L 324.105505 58.653438 
L 324.26916 61.899909 
L 324.350988 69.093524 
L 324.514643 57.824796 
L 324.59647 59.196804 
L 324.92378 74.512888 
L 325.087435 70.379876 
L 325.169263 75.90169 
L 325.25109 73.141618 
L 325.332918 75.769008 
L 325.496573 69.441318 
L 325.578401 70.936813 
L 325.905711 81.988385 
L 325.987538 79.35534 
L 326.069366 80.667907 
L 326.314848 67.356294 
L 326.396676 71.833487 
L 326.642158 64.488331 
L 326.723986 62.615863 
L 326.969469 80.455387 
L 327.133124 75.908481 
L 327.296779 84.088697 
L 327.378606 83.331807 
L 327.542261 74.400641 
L 327.624089 79.589945 
L 327.705916 77.081609 
L 327.869572 80.359951 
L 327.951399 78.676432 
L 328.033227 80.399926 
L 328.115054 79.567523 
L 328.196882 80.097474 
L 328.278709 78.803896 
L 328.442364 75.107121 
L 328.524192 75.795959 
L 328.687847 78.060551 
L 328.769674 78.217716 
L 328.851502 77.116293 
L 328.933329 73.12532 
L 329.015157 73.562187 
L 329.096985 76.527052 
L 329.342467 69.099877 
L 329.424295 73.508062 
L 329.506122 69.716372 
L 329.669777 73.311063 
L 329.833432 63.471261 
L 329.91526 64.826663 
L 329.997087 66.238513 
L 330.24257 59.533021 
L 330.56988 68.780382 
L 330.651708 62.892102 
L 330.733535 64.572069 
L 330.815363 64.832217 
L 330.979018 74.177959 
L 331.142673 68.852024 
L 331.2245 69.852545 
L 331.306328 69.927166 
L 331.469983 63.784341 
L 331.551811 61.790917 
L 331.715466 68.4219 
L 331.879121 72.877818 
L 331.960948 70.545063 
L 332.042776 71.101098 
L 332.206431 69.642518 
L 332.288258 71.258827 
L 332.697396 60.964488 
L 332.779224 62.097204 
L 332.942879 58.515026 
L 333.188361 69.398817 
L 333.433844 56.232165 
L 333.515671 56.23542 
L 333.597499 62.093383 
L 333.761154 54.269403 
L 333.924809 54.525545 
L 334.006637 56.416984 
L 334.170292 67.412997 
L 334.252119 61.420158 
L 334.333947 62.572206 
L 334.497602 59.477226 
L 334.579429 59.555258 
L 334.743084 56.885455 
L 334.906739 63.676748 
L 334.988567 62.805121 
L 335.152222 65.978686 
L 335.23405 61.965156 
L 335.397705 70.235746 
L 335.643187 59.759828 
L 335.725015 62.872623 
L 335.806842 63.217417 
L 335.970497 70.597621 
L 336.052325 71.239052 
L 336.134153 68.775747 
L 336.21598 69.066186 
L 336.379635 81.471034 
L 336.461463 85.985976 
L 336.8706 70.682292 
L 336.952428 69.094894 
L 337.034255 64.835866 
L 337.116083 69.664395 
L 337.525221 50.926898 
L 337.607048 53.890526 
L 337.770703 65.072105 
L 337.852531 60.64815 
L 338.016186 57.579906 
L 338.098013 53.970294 
L 338.179841 64.898944 
L 338.261668 61.552834 
L 338.588979 42.726818 
L 338.670806 39.500105 
L 338.834461 48.263062 
L 338.916289 41.639381 
L 339.079944 47.655023 
L 339.407254 57.363298 
L 339.489081 53.816045 
L 339.652737 58.101498 
L 339.816392 52.479038 
L 339.898219 53.880324 
L 339.980047 53.846238 
L 340.061874 54.444785 
L 340.307357 32.87623 
L 340.389184 29.861654 
L 340.552839 57.548588 
L 340.634667 57.841173 
L 340.961977 71.354069 
L 341.20746 65.345819 
L 341.289287 60.257033 
L 341.371115 63.297958 
L 341.452942 62.909935 
L 341.53477 57.694741 
L 341.616597 64.417156 
L 341.698425 63.436641 
L 341.780252 66.958702 
L 341.86208 64.554774 
L 342.107563 73.693891 
L 342.18939 77.197811 
L 342.5167 68.14257 
L 342.598528 56.713589 
L 342.680355 60.139229 
L 342.762183 60.594653 
L 342.84401 58.698706 
L 343.007665 65.317459 
L 343.089493 62.990952 
L 343.171321 56.058358 
L 343.253148 56.246097 
L 343.334976 58.296747 
L 343.498631 46.194729 
L 343.580458 47.550699 
L 343.744113 58.22195 
L 343.825941 52.189354 
L 343.907768 58.381868 
L 343.989596 56.583966 
L 344.398734 72.281369 
L 344.480561 72.024343 
L 344.726044 63.608355 
L 344.889699 69.682452 
L 344.971526 68.102075 
L 345.380664 81.72849 
L 345.462491 74.663018 
L 345.626147 83.23167 
L 345.707974 83.082532 
L 345.789802 81.895068 
L 345.953457 83.837494 
L 346.035284 80.387575 
L 346.117112 84.401974 
L 346.198939 83.732965 
L 346.280767 80.270493 
L 346.362594 82.148278 
L 346.444422 77.992155 
L 346.526249 80.028565 
L 346.608077 78.336372 
L 346.935387 60.406673 
L 347.017215 56.600914 
L 347.18087 65.954284 
L 347.262697 63.790181 
L 347.344525 65.897715 
L 347.426352 65.081164 
L 347.50818 65.463351 
L 347.590007 67.640398 
L 347.671835 63.333895 
L 347.753662 69.821674 
L 347.83549 63.904626 
L 347.917318 67.043022 
L 348.080973 58.35287 
L 348.244628 64.010452 
L 348.408283 60.149053 
L 348.49011 61.654698 
L 348.571938 60.791056 
L 348.653765 61.211628 
L 348.735593 60.819705 
L 348.81742 61.667558 
L 348.899248 52.095517 
L 349.062903 59.331455 
L 349.144731 59.109043 
L 349.226558 67.535718 
L 349.308386 66.575706 
L 349.390213 67.425545 
L 349.553868 62.183142 
L 349.635696 65.940408 
L 349.881178 48.060351 
L 349.963006 53.588101 
L 350.044833 49.99944 
L 350.208488 56.424005 
L 350.290316 56.094484 
L 350.372144 57.810637 
L 350.453971 63.248942 
L 350.535799 60.829921 
L 350.617626 61.706351 
L 350.699454 61.199887 
L 350.781281 75.226393 
L 350.863109 71.421934 
L 350.944936 74.5277 
L 351.190419 69.545271 
L 351.272246 70.570174 
L 351.354074 67.02498 
L 351.517729 74.317464 
L 351.599557 73.034097 
L 351.763212 54.669308 
L 351.845039 56.791799 
L 351.926867 57.168565 
L 352.008694 56.539397 
L 352.090522 58.97718 
L 352.172349 68.836651 
L 352.254177 66.511432 
L 352.417832 73.421037 
L 352.499659 68.189669 
L 352.581487 69.713306 
L 352.663315 69.357519 
L 352.82697 72.540449 
L 352.908797 70.510818 
L 352.990625 72.745063 
L 353.072452 71.267064 
L 353.15428 72.033401 
L 353.236107 71.879965 
L 353.317935 64.297368 
L 353.399762 64.903003 
L 353.727072 71.997137 
L 353.8089 70.618717 
L 353.972555 71.810648 
L 354.054383 75.295138 
L 354.218038 67.772021 
L 354.381693 69.113061 
L 354.46352 69.1655 
L 354.709003 61.723534 
L 354.872658 70.27908 
L 354.954486 70.104037 
L 355.036313 70.733483 
L 355.118141 65.724856 
L 355.199968 65.734322 
L 355.363623 62.222712 
L 355.445451 66.524561 
L 355.527278 63.59284 
L 355.609106 67.598244 
L 355.772761 62.533235 
L 356.018243 73.698384 
L 356.100071 71.41561 
L 356.263726 77.21842 
L 356.345554 76.270377 
L 356.427381 74.315005 
L 356.591036 82.708539 
L 356.672864 79.048758 
L 356.754691 80.395338 
L 356.918346 72.227073 
L 357.163829 81.719726 
L 357.327484 73.035436 
L 357.409312 73.183234 
L 357.572967 67.933132 
L 357.654794 62.925731 
L 357.736622 66.194006 
L 357.818449 61.613567 
L 357.982104 72.197984 
L 358.145759 65.621125 
L 358.227587 62.310366 
L 358.309414 63.034813 
L 358.47307 58.961162 
L 358.636725 60.588475 
L 359.045862 79.539703 
L 359.12769 77.144007 
L 359.209517 77.41572 
L 359.291345 67.356959 
L 359.373172 69.623633 
L 359.455 70.075718 
L 359.536827 73.867744 
L 359.618655 73.404482 
L 359.78231 69.431767 
L 359.945965 75.465755 
L 360.10962 74.457522 
L 360.191448 73.757284 
L 360.273275 66.647283 
L 360.43693 75.029936 
L 360.518758 64.978336 
L 360.600585 73.477806 
L 360.76424 63.958768 
L 360.846068 71.460188 
L 360.927896 69.162933 
L 361.009723 74.440011 
L 361.418861 60.398209 
L 361.500688 63.023982 
L 361.582516 62.534983 
L 361.664343 59.778122 
L 361.746171 64.538113 
L 361.827998 62.250983 
L 361.991653 54.062039 
L 362.073481 54.991099 
L 362.155309 59.233002 
L 362.237136 58.428415 
L 362.400791 51.654191 
L 362.646274 66.341407 
L 362.809929 69.538121 
L 362.891756 69.334654 
L 362.973584 72.380659 
L 363.055411 68.873068 
L 363.219067 79.027934 
L 363.382722 74.371255 
L 363.710032 53.375262 
L 363.791859 58.77316 
L 363.873687 51.160358 
L 363.955514 57.997298 
L 364.037342 56.099358 
L 364.119169 52.385476 
L 364.200997 55.806578 
L 364.364652 67.063496 
L 364.44648 66.499335 
L 364.691962 76.177343 
L 364.77379 74.221938 
L 364.855617 74.820128 
L 364.937445 78.037712 
L 365.019272 73.724897 
L 365.1011 76.497465 
L 365.264755 73.398258 
L 365.346582 72.736935 
L 365.592065 84.996568 
L 365.75572 73.43106 
L 365.919375 74.052847 
L 366.001203 75.350006 
L 366.246685 71.699603 
L 366.328513 69.19785 
L 366.41034 70.883684 
L 366.492168 64.803069 
L 366.655823 72.364982 
L 366.737651 71.561743 
L 366.983133 63.342347 
L 367.064961 59.011301 
L 367.146788 59.656592 
L 367.228616 67.685725 
L 367.310443 66.576958 
L 367.474098 70.545571 
L 367.555926 65.521485 
L 367.719581 72.776366 
L 367.801408 71.86053 
L 368.046891 67.53869 
L 368.128719 68.828161 
L 368.210546 63.672935 
L 368.374201 72.208753 
L 368.456029 72.005482 
L 368.537856 75.060989 
L 368.619684 71.430021 
L 368.701511 72.81043 
L 368.783339 77.999641 
L 368.946994 74.003155 
L 369.028821 73.08911 
L 369.110649 75.74185 
L 369.192477 74.332922 
L 369.274304 84.053558 
L 369.437959 74.763411 
L 369.519787 76.199124 
L 369.601614 76.142784 
L 369.683442 73.373165 
L 369.847097 75.636295 
L 369.928924 73.176373 
L 370.010752 77.033617 
L 370.092579 75.85212 
L 370.174407 71.433641 
L 370.338062 75.616221 
L 370.41989 71.069315 
L 370.501717 71.906661 
L 370.583545 72.054413 
L 370.665372 62.298859 
L 370.7472 63.569741 
L 370.829027 61.239839 
L 370.992682 63.43994 
L 371.156337 58.328851 
L 371.238165 58.522222 
L 371.319992 57.327086 
L 371.40182 52.765266 
L 371.483648 53.602709 
L 371.647303 64.974283 
L 371.72913 60.421123 
L 371.892785 47.836068 
L 372.138268 66.410319 
L 372.220095 61.442571 
L 372.301923 64.682068 
L 372.38375 73.409974 
L 372.547405 64.892118 
L 372.711061 70.548275 
L 372.792888 69.955058 
L 372.874716 61.187589 
L 372.956543 63.096674 
L 373.120198 58.27042 
L 373.202026 59.190198 
L 373.365681 66.335099 
L 373.447508 68.153317 
L 373.856646 48.753948 
L 373.938474 47.668064 
L 374.183956 59.348581 
L 374.347611 71.577247 
L 374.429439 69.620184 
L 374.674921 76.759992 
L 374.756749 76.136301 
L 374.838576 73.061266 
L 375.002232 75.750577 
L 375.084059 74.107008 
L 375.493197 48.227146 
L 375.575024 48.366582 
L 375.902334 54.546967 
L 375.984162 54.626661 
L 376.065989 46.25817 
L 376.147817 48.646923 
L 376.311472 45.554941 
L 376.3933 48.896019 
L 376.475127 46.780224 
L 376.638782 59.525811 
L 376.72061 55.377332 
L 376.802437 52.90921 
L 376.884265 45.106724 
L 377.04792 58.326204 
L 377.129747 44.423571 
L 377.211575 48.627854 
L 377.293402 43.435498 
L 377.538885 60.026921 
L 377.620713 50.687273 
L 377.866195 73.711104 
L 377.948023 73.495176 
L 378.111678 70.960459 
L 378.193505 73.74911 
L 378.520816 64.405015 
L 378.602643 68.803322 
L 378.684471 66.77389 
L 378.766298 56.699435 
L 378.848126 61.350226 
L 378.929953 57.84282 
L 379.011781 63.022065 
L 379.093608 60.835848 
L 379.175436 64.450583 
L 379.420918 53.998468 
L 379.584573 60.31692 
L 379.666401 58.087278 
L 379.748229 60.121649 
L 379.993711 69.863428 
L 380.157366 57.491262 
L 380.402849 66.33549 
L 380.484676 66.240792 
L 380.566504 68.015301 
L 380.730159 63.322742 
L 380.811986 68.242701 
L 380.893814 67.299424 
L 380.975642 70.963192 
L 381.139297 63.302238 
L 381.302952 66.025608 
L 381.384779 63.901145 
L 381.466607 65.649934 
L 381.712089 76.570184 
L 382.121227 59.396718 
L 382.203055 66.820132 
L 382.284882 66.206719 
L 382.36671 70.028622 
L 382.448537 79.243137 
L 382.530365 73.964115 
L 382.612192 74.755778 
L 382.775847 70.421558 
L 382.857675 76.441614 
L 382.939502 74.184114 
L 383.02133 76.624206 
L 383.103157 69.687744 
L 383.184985 71.701989 
L 383.266813 76.663141 
L 383.34864 72.350898 
L 383.430468 76.414379 
L 383.512295 75.619002 
L 383.594123 76.513723 
L 383.67595 72.816692 
L 383.757778 74.205109 
L 383.839605 72.061624 
L 383.921433 77.402191 
L 384.00326 76.163517 
L 384.166915 66.543381 
L 384.33057 58.416816 
L 384.576053 67.841137 
L 384.657881 65.634072 
L 384.739708 68.592585 
L 384.821536 66.034177 
L 384.903363 67.865728 
L 385.067018 76.2971 
L 385.148846 63.937441 
L 385.230673 64.408041 
L 385.312501 60.202326 
L 385.394328 62.760652 
L 385.557984 54.250137 
L 385.639811 60.132972 
L 385.721639 52.180528 
L 385.803466 53.531205 
L 386.048949 49.29044 
L 386.212604 55.189498 
L 386.294431 45.953776 
L 386.376259 46.674517 
L 386.458086 50.490103 
L 386.539914 42.48449 
L 386.703569 52.733104 
L 386.785397 45.428258 
L 386.867224 47.918465 
L 386.949052 51.265376 
L 387.030879 46.833515 
L 387.112707 49.126153 
L 387.276362 58.769709 
L 387.358189 53.891836 
L 387.521844 62.619478 
L 387.603672 61.245639 
" clip-path="url(#p9fec4c8188)" style="fill: none; stroke: #1f77b4; stroke-width: 1.5; stroke-linecap: square"/>
   </g>
   <g id="patch_3">
    <path d="M 60.080781 139.811562 
L 60.080781 13.327396 
" style="fill: none; stroke: #000000; stroke-width: 0.8; stroke-linejoin: miter; stroke-linecap: square"/>
   </g>
   <g id="patch_4">
    <path d="M 403.2 139.811562 
L 403.2 13.327396 
" style="fill: none; stroke: #000000; stroke-width: 0.8; stroke-linejoin: miter; stroke-linecap: square"/>
   </g>
   <g id="patch_5">
    <path d="M 60.080781 139.811563 
L 403.2 139.811563 
" style="fill: none; stroke: #000000; stroke-width: 0.8; stroke-linejoin: miter; stroke-linecap: square"/>
   </g>
   <g id="patch_6">
    <path d="M 60.080781 13.327396 
L 403.2 13.327396 
" style="fill: none; stroke: #000000; stroke-width: 0.8; stroke-linejoin: miter; stroke-linecap: square"/>
   </g>
  </g>
 </g>
 <defs>
  <clipPath id="p9fec4c8188">
   <rect x="60.080781" y="13.327396" width="343.119219" height="126.484166"/>
  </clipPath>
 </defs>
</svg>
