<?xml version="1.0" encoding="utf-8" standalone="no"?>
<!DOCTYPE svg PUBLIC "-//W3C//DTD SVG 1.1//EN"
  "http://www.w3.org/Graphics/SVG/1.1/DTD/svg11.dtd">
<svg xmlns:xlink="http://www.w3.org/1999/xlink" width="504pt" height="288pt" viewBox="0 0 504 288" xmlns="http://www.w3.org/2000/svg" version="1.1">
 <metadata>
  <rdf:RDF xmlns:dc="http://purl.org/dc/elements/1.1/" xmlns:cc="http://creativecommons.org/ns#" xmlns:rdf="http://www.w3.org/1999/02/22-rdf-syntax-ns#">
   <cc:Work>
    <dc:type rdf:resource="http://purl.org/dc/dcmitype/StillImage"/>
    <dc:date>2026-01-27T01:02:16.263063</dc:date>
    <dc:format>image/svg+xml</dc:format>
    <dc:creator>
     <cc:Agent>
      <dc:title>Matplotlib v3.10.7, https://matplotlib.org/</dc:title>
     </cc:Agent>
    </dc:creator>
   </cc:Work>
  </rdf:RDF>
 </metadata>
 <defs>
  <style type="text/css">*{stroke-linejoin: round; stroke-linecap: butt}</style>
 </defs>
 <g id="figure_1">
  <g id="patch_1">
   <path d="M 0 288 
L 504 288 
L 504 0 
L 0 0 
L 0 288 
z
" style="fill: none"/>
  </g>
  <g id="axes_1">
   <g id="patch_2">
    <path d="M 96.109063 218.623125 
L 477.18612 218.623125 
L 477.18612 21.6 
L 96.109063 21.6 
L 96.109063 218.623125 
z
" style="fill: none"/>
   </g>
   <g id="matplotlib.axis_1">
    <g id="xtick_1">
     <g id="line2d_1">
      <defs>
       <path id="mc5b3e29100" d="M 0 0 
L 0 3.5 
" style="stroke: #000000; stroke-width: 0.8"/>
      </defs>
      <g>
       <use xlink:href="#mc5b3e29100" x="96.109063" y="218.623125" style="stroke: #000000; stroke-width: 0.8"/>
      </g>
     </g>
     <g id="text_1">
      <!-- 0 -->
      <g transform="translate(90.382813 239.300312) scale(0.18 -0.18)">
       <defs>
        <path id="DejaVuSerif-30" d="M 2034 219 
Q 2513 219 2750 744 
Q 2988 1269 2988 2328 
Q 2988 3391 2750 3916 
Q 2513 4441 2034 4441 
Q 1556 4441 1318 3916 
Q 1081 3391 1081 2328 
Q 1081 1269 1318 744 
Q 1556 219 2034 219 
z
M 2034 -91 
Q 1275 -91 848 546 
Q 422 1184 422 2328 
Q 422 3475 848 4112 
Q 1275 4750 2034 4750 
Q 2797 4750 3222 4112 
Q 3647 3475 3647 2328 
Q 3647 1184 3222 546 
Q 2797 -91 2034 -91 
z
" transform="scale(0.015625)"/>
       </defs>
       <use xlink:href="#DejaVuSerif-30"/>
      </g>
     </g>
    </g>
    <g id="xtick_2">
     <g id="line2d_2">
      <g>
       <use xlink:href="#mc5b3e29100" x="169.989841" y="218.623125" style="stroke: #000000; stroke-width: 0.8"/>
      </g>
     </g>
     <g id="text_2">
      <!-- 100 -->
      <g transform="translate(152.811091 239.300312) scale(0.18 -0.18)">
       <defs>
        <path id="DejaVuSerif-31" d="M 909 0 
L 909 331 
L 1722 331 
L 1722 4213 
L 781 3603 
L 781 4013 
L 1919 4750 
L 2350 4750 
L 2350 331 
L 3163 331 
L 3163 0 
L 909 0 
z
" transform="scale(0.015625)"/>
       </defs>
       <use xlink:href="#DejaVuSerif-31"/>
       <use xlink:href="#DejaVuSerif-30" transform="translate(63.623047 0)"/>
       <use xlink:href="#DejaVuSerif-30" transform="translate(127.246094 0)"/>
      </g>
     </g>
    </g>
    <g id="xtick_3">
     <g id="line2d_3">
      <g>
       <use xlink:href="#mc5b3e29100" x="243.87062" y="218.623125" style="stroke: #000000; stroke-width: 0.8"/>
      </g>
     </g>
     <g id="text_3">
      <!-- 200 -->
      <g transform="translate(226.69187 239.300312) scale(0.18 -0.18)">
       <defs>
        <path id="DejaVuSerif-32" d="M 819 3553 
L 469 3553 
L 469 4384 
Q 803 4563 1142 4656 
Q 1481 4750 1806 4750 
Q 2534 4750 2956 4397 
Q 3378 4044 3378 3438 
Q 3378 2753 2422 1800 
Q 2347 1728 2309 1691 
L 1131 513 
L 3078 513 
L 3078 1088 
L 3444 1088 
L 3444 0 
L 434 0 
L 434 341 
L 1850 1753 
Q 2319 2222 2519 2614 
Q 2719 3006 2719 3438 
Q 2719 3909 2473 4175 
Q 2228 4441 1797 4441 
Q 1350 4441 1106 4219 
Q 863 3997 819 3553 
z
" transform="scale(0.015625)"/>
       </defs>
       <use xlink:href="#DejaVuSerif-32"/>
       <use xlink:href="#DejaVuSerif-30" transform="translate(63.623047 0)"/>
       <use xlink:href="#DejaVuSerif-30" transform="translate(127.246094 0)"/>
      </g>
     </g>
    </g>
    <g id="xtick_4">
     <g id="line2d_4">
      <g>
       <use xlink:href="#mc5b3e29100" x="317.751399" y="218.623125" style="stroke: #000000; stroke-width: 0.8"/>
      </g>
     </g>
     <g id="text_4">
      <!-- 300 -->
      <g transform="translate(300.572649 239.300312) scale(0.18 -0.18)">
       <defs>
        <path id="DejaVuSerif-33" d="M 622 4469 
Q 988 4606 1323 4678 
Q 1659 4750 1953 4750 
Q 2638 4750 3022 4454 
Q 3406 4159 3406 3634 
Q 3406 3213 3140 2930 
Q 2875 2647 2388 2547 
Q 2963 2466 3280 2130 
Q 3597 1794 3597 1259 
Q 3597 606 3158 257 
Q 2719 -91 1894 -91 
Q 1528 -91 1179 -12 
Q 831 66 488 225 
L 488 1131 
L 838 1131 
Q 869 681 1141 450 
Q 1413 219 1906 219 
Q 2384 219 2661 495 
Q 2938 772 2938 1253 
Q 2938 1803 2653 2086 
Q 2369 2369 1819 2369 
L 1522 2369 
L 1522 2688 
L 1678 2688 
Q 2225 2688 2498 2914 
Q 2772 3141 2772 3597 
Q 2772 4006 2547 4223 
Q 2322 4441 1900 4441 
Q 1478 4441 1245 4241 
Q 1013 4041 972 3647 
L 622 3647 
L 622 4469 
z
" transform="scale(0.015625)"/>
       </defs>
       <use xlink:href="#DejaVuSerif-33"/>
       <use xlink:href="#DejaVuSerif-30" transform="translate(63.623047 0)"/>
       <use xlink:href="#DejaVuSerif-30" transform="translate(127.246094 0)"/>
      </g>
     </g>
    </g>
    <g id="xtick_5">
     <g id="line2d_5">
      <g>
       <use xlink:href="#mc5b3e29100" x="391.632178" y="218.623125" style="stroke: #000000; stroke-width: 0.8"/>
      </g>
     </g>
     <g id="text_5">
      <!-- 400 -->
      <g transform="translate(374.453428 239.300312) scale(0.18 -0.18)">
       <defs>
        <path id="DejaVuSerif-34" d="M 2234 1581 
L 2234 4063 
L 641 1581 
L 2234 1581 
z
M 3609 0 
L 1484 0 
L 1484 331 
L 2234 331 
L 2234 1247 
L 197 1247 
L 197 1588 
L 2241 4750 
L 2859 4750 
L 2859 1581 
L 3750 1581 
L 3750 1247 
L 2859 1247 
L 2859 331 
L 3609 331 
L 3609 0 
z
" transform="scale(0.015625)"/>
       </defs>
       <use xlink:href="#DejaVuSerif-34"/>
       <use xlink:href="#DejaVuSerif-30" transform="translate(63.623047 0)"/>
       <use xlink:href="#DejaVuSerif-30" transform="translate(127.246094 0)"/>
      </g>
     </g>
    </g>
    <g id="xtick_6">
     <g id="line2d_6">
      <g>
       <use xlink:href="#mc5b3e29100" x="465.512957" y="218.623125" style="stroke: #000000; stroke-width: 0.8"/>
      </g>
     </g>
     <g id="text_6">
      <!-- 500 -->
      <g transform="translate(448.334207 239.300312) scale(0.18 -0.18)">
       <defs>
        <path id="DejaVuSerif-35" d="M 3219 4666 
L 3219 4153 
L 1081 4153 
L 1081 2816 
Q 1244 2928 1461 2984 
Q 1678 3041 1947 3041 
Q 2703 3041 3140 2622 
Q 3578 2203 3578 1478 
Q 3578 738 3136 323 
Q 2694 -91 1894 -91 
Q 1572 -91 1234 -12 
Q 897 66 544 225 
L 544 1131 
L 897 1131 
Q 925 688 1179 453 
Q 1434 219 1894 219 
Q 2388 219 2653 544 
Q 2919 869 2919 1478 
Q 2919 2084 2655 2407 
Q 2391 2731 1894 2731 
Q 1613 2731 1398 2631 
Q 1184 2531 1019 2322 
L 750 2322 
L 750 4666 
L 3219 4666 
z
" transform="scale(0.015625)"/>
       </defs>
       <use xlink:href="#DejaVuSerif-35"/>
       <use xlink:href="#DejaVuSerif-30" transform="translate(63.623047 0)"/>
       <use xlink:href="#DejaVuSerif-30" transform="translate(127.246094 0)"/>
      </g>
     </g>
    </g>
    <g id="text_7">
     <!-- Time [min] -->
     <g transform="translate(231.274154 262.240625) scale(0.2 -0.2)">
      <defs>
       <path id="DejaVuSerif-54" d="M 1222 0 
L 1222 331 
L 1819 331 
L 1819 4294 
L 447 4294 
L 447 3566 
L 63 3566 
L 63 4666 
L 4206 4666 
L 4206 3566 
L 3822 3566 
L 3822 4294 
L 2450 4294 
L 2450 331 
L 3047 331 
L 3047 0 
L 1222 0 
z
" transform="scale(0.015625)"/>
       <path id="DejaVuSerif-69" d="M 622 4353 
Q 622 4497 726 4603 
Q 831 4709 978 4709 
Q 1122 4709 1226 4603 
Q 1331 4497 1331 4353 
Q 1331 4206 1228 4103 
Q 1125 4000 978 4000 
Q 831 4000 726 4103 
Q 622 4206 622 4353 
z
M 1356 331 
L 1900 331 
L 1900 0 
L 231 0 
L 231 331 
L 781 331 
L 781 2988 
L 231 2988 
L 231 3322 
L 1356 3322 
L 1356 331 
z
" transform="scale(0.015625)"/>
       <path id="DejaVuSerif-6d" d="M 3316 2675 
Q 3481 3041 3739 3227 
Q 3997 3413 4341 3413 
Q 4863 3413 5119 3089 
Q 5375 2766 5375 2113 
L 5375 331 
L 5894 331 
L 5894 0 
L 4300 0 
L 4300 331 
L 4800 331 
L 4800 2047 
Q 4800 2556 4650 2772 
Q 4500 2988 4153 2988 
Q 3769 2988 3567 2697 
Q 3366 2406 3366 1850 
L 3366 331 
L 3866 331 
L 3866 0 
L 2291 0 
L 2291 331 
L 2791 331 
L 2791 2069 
Q 2791 2566 2641 2777 
Q 2491 2988 2144 2988 
Q 1759 2988 1557 2697 
Q 1356 2406 1356 1850 
L 1356 331 
L 1856 331 
L 1856 0 
L 263 0 
L 263 331 
L 781 331 
L 781 2994 
L 231 2994 
L 231 3322 
L 1356 3322 
L 1356 2731 
Q 1516 3063 1762 3238 
Q 2009 3413 2322 3413 
Q 2709 3413 2968 3220 
Q 3228 3028 3316 2675 
z
" transform="scale(0.015625)"/>
       <path id="DejaVuSerif-65" d="M 3469 1600 
L 991 1600 
L 991 1575 
Q 991 903 1244 561 
Q 1497 219 1991 219 
Q 2369 219 2611 417 
Q 2853 616 2950 1006 
L 3413 1006 
Q 3275 459 2904 184 
Q 2534 -91 1931 -91 
Q 1203 -91 761 389 
Q 319 869 319 1663 
Q 319 2450 753 2931 
Q 1188 3413 1894 3413 
Q 2647 3413 3050 2948 
Q 3453 2484 3469 1600 
z
M 2791 1931 
Q 2772 2513 2545 2808 
Q 2319 3103 1894 3103 
Q 1497 3103 1269 2806 
Q 1041 2509 991 1931 
L 2791 1931 
z
" transform="scale(0.015625)"/>
       <path id="DejaVuSerif-20" transform="scale(0.015625)"/>
       <path id="DejaVuSerif-5b" d="M 550 4863 
L 2003 4863 
L 2003 4531 
L 1147 4531 
L 1147 -513 
L 2003 -513 
L 2003 -844 
L 550 -844 
L 550 4863 
z
" transform="scale(0.015625)"/>
       <path id="DejaVuSerif-6e" d="M 263 0 
L 263 331 
L 781 331 
L 781 2988 
L 231 2988 
L 231 3322 
L 1356 3322 
L 1356 2731 
Q 1516 3069 1770 3241 
Q 2025 3413 2363 3413 
Q 2913 3413 3172 3097 
Q 3431 2781 3431 2113 
L 3431 331 
L 3944 331 
L 3944 0 
L 2356 0 
L 2356 331 
L 2853 331 
L 2853 1931 
Q 2853 2541 2703 2767 
Q 2553 2994 2175 2994 
Q 1775 2994 1565 2701 
Q 1356 2409 1356 1850 
L 1356 331 
L 1856 331 
L 1856 0 
L 263 0 
z
" transform="scale(0.015625)"/>
       <path id="DejaVuSerif-5d" d="M 1947 4863 
L 1947 -844 
L 494 -844 
L 494 -513 
L 1350 -513 
L 1350 4531 
L 494 4531 
L 494 4863 
L 1947 4863 
z
" transform="scale(0.015625)"/>
      </defs>
      <use xlink:href="#DejaVuSerif-54"/>
      <use xlink:href="#DejaVuSerif-69" transform="translate(66.699219 0)"/>
      <use xlink:href="#DejaVuSerif-6d" transform="translate(98.681641 0)"/>
      <use xlink:href="#DejaVuSerif-65" transform="translate(193.505859 0)"/>
      <use xlink:href="#DejaVuSerif-20" transform="translate(252.685547 0)"/>
      <use xlink:href="#DejaVuSerif-5b" transform="translate(284.472656 0)"/>
      <use xlink:href="#DejaVuSerif-6d" transform="translate(323.486328 0)"/>
      <use xlink:href="#DejaVuSerif-69" transform="translate(418.310547 0)"/>
      <use xlink:href="#DejaVuSerif-6e" transform="translate(450.292969 0)"/>
      <use xlink:href="#DejaVuSerif-5d" transform="translate(514.697266 0)"/>
     </g>
    </g>
   </g>
   <g id="matplotlib.axis_2">
    <g id="ytick_1">
     <g id="line2d_7">
      <defs>
       <path id="m9290062336" d="M 0 0 
L -3.5 0 
" style="stroke: #000000; stroke-width: 0.8"/>
      </defs>
      <g>
       <use xlink:href="#m9290062336" x="96.109063" y="171.745858" style="stroke: #000000; stroke-width: 0.8"/>
      </g>
     </g>
     <g id="text_8">
      <!-- −0.5 -->
      <g transform="translate(45.4 178.584452) scale(0.18 -0.18)">
       <defs>
        <path id="DejaVuSerif-2212" d="M 678 2259 
L 4684 2259 
L 4684 1753 
L 678 1753 
L 678 2259 
z
" transform="scale(0.015625)"/>
        <path id="DejaVuSerif-2e" d="M 603 325 
Q 603 500 722 622 
Q 841 744 1019 744 
Q 1191 744 1312 622 
Q 1434 500 1434 325 
Q 1434 153 1312 31 
Q 1191 -91 1019 -91 
Q 841 -91 722 29 
Q 603 150 603 325 
z
" transform="scale(0.015625)"/>
       </defs>
       <use xlink:href="#DejaVuSerif-2212"/>
       <use xlink:href="#DejaVuSerif-30" transform="translate(83.789062 0)"/>
       <use xlink:href="#DejaVuSerif-2e" transform="translate(147.412109 0)"/>
       <use xlink:href="#DejaVuSerif-35" transform="translate(179.199219 0)"/>
      </g>
     </g>
    </g>
    <g id="ytick_2">
     <g id="line2d_8">
      <g>
       <use xlink:href="#m9290062336" x="96.109063" y="120.093242" style="stroke: #000000; stroke-width: 0.8"/>
      </g>
     </g>
     <g id="text_9">
      <!-- 0.0 -->
      <g transform="translate(60.483438 126.931836) scale(0.18 -0.18)">
       <use xlink:href="#DejaVuSerif-30"/>
       <use xlink:href="#DejaVuSerif-2e" transform="translate(63.623047 0)"/>
       <use xlink:href="#DejaVuSerif-30" transform="translate(95.410156 0)"/>
      </g>
     </g>
    </g>
    <g id="ytick_3">
     <g id="line2d_9">
      <g>
       <use xlink:href="#m9290062336" x="96.109063" y="68.440626" style="stroke: #000000; stroke-width: 0.8"/>
      </g>
     </g>
     <g id="text_10">
      <!-- 0.5 -->
      <g transform="translate(60.483438 75.27922) scale(0.18 -0.18)">
       <use xlink:href="#DejaVuSerif-30"/>
       <use xlink:href="#DejaVuSerif-2e" transform="translate(63.623047 0)"/>
       <use xlink:href="#DejaVuSerif-35" transform="translate(95.410156 0)"/>
      </g>
     </g>
    </g>
    <g id="text_11">
     <!-- Attitude $\sigma_{B/N}$ -->
     <g transform="translate(36.8 183.611562) rotate(-90) scale(0.2 -0.2)">
      <defs>
       <path id="DejaVuSerif-41" d="M 1281 1691 
L 2994 1691 
L 2138 3909 
L 1281 1691 
z
M -38 0 
L -38 331 
L 372 331 
L 2034 4666 
L 2559 4666 
L 4225 331 
L 4684 331 
L 4684 0 
L 2988 0 
L 2988 331 
L 3506 331 
L 3116 1356 
L 1153 1356 
L 763 331 
L 1275 331 
L 1275 0 
L -38 0 
z
" transform="scale(0.015625)"/>
       <path id="DejaVuSerif-74" d="M 691 2988 
L 184 2988 
L 184 3322 
L 691 3322 
L 691 4353 
L 1269 4353 
L 1269 3322 
L 2350 3322 
L 2350 2988 
L 1269 2988 
L 1269 878 
Q 1269 456 1350 337 
Q 1431 219 1650 219 
Q 1875 219 1978 351 
Q 2081 484 2088 781 
L 2522 781 
Q 2497 328 2275 118 
Q 2053 -91 1600 -91 
Q 1103 -91 897 129 
Q 691 350 691 878 
L 691 2988 
z
" transform="scale(0.015625)"/>
       <path id="DejaVuSerif-75" d="M 2266 3322 
L 3341 3322 
L 3341 331 
L 3884 331 
L 3884 0 
L 2766 0 
L 2766 588 
Q 2606 256 2353 82 
Q 2100 -91 1766 -91 
Q 1213 -91 952 223 
Q 691 538 691 1209 
L 691 2988 
L 172 2988 
L 172 3322 
L 1269 3322 
L 1269 1388 
Q 1269 781 1417 556 
Q 1566 331 1947 331 
Q 2347 331 2556 625 
Q 2766 919 2766 1478 
L 2766 2988 
L 2266 2988 
L 2266 3322 
z
" transform="scale(0.015625)"/>
       <path id="DejaVuSerif-64" d="M 3359 331 
L 3909 331 
L 3909 0 
L 2784 0 
L 2784 519 
Q 2616 206 2355 57 
Q 2094 -91 1709 -91 
Q 1097 -91 708 395 
Q 319 881 319 1663 
Q 319 2444 706 2928 
Q 1094 3413 1709 3413 
Q 2094 3413 2355 3264 
Q 2616 3116 2784 2803 
L 2784 4531 
L 2241 4531 
L 2241 4863 
L 3359 4863 
L 3359 331 
z
M 2784 1497 
L 2784 1825 
Q 2784 2422 2554 2737 
Q 2325 3053 1888 3053 
Q 1444 3053 1217 2703 
Q 991 2353 991 1663 
Q 991 975 1217 622 
Q 1444 269 1888 269 
Q 2325 269 2554 583 
Q 2784 897 2784 1497 
z
" transform="scale(0.015625)"/>
       <path id="DejaVuSans-Oblique-3c3" d="M 2219 3044 
Q 1744 3044 1422 2700 
Q 1081 2341 969 1747 
Q 844 1119 1044 756 
Q 1241 397 1706 397 
Q 2166 397 2503 759 
Q 2844 1122 2966 1747 
Q 3075 2319 2881 2700 
Q 2700 3044 2219 3044 
z
M 2309 3503 
L 4219 3500 
L 4106 2925 
L 3463 2925 
Q 3706 2438 3575 1747 
Q 3406 888 2884 400 
Q 2359 -91 1609 -91 
Q 856 -91 525 400 
Q 194 888 363 1747 
Q 528 2609 1050 3097 
Q 1484 3503 2309 3503 
z
" transform="scale(0.015625)"/>
       <path id="DejaVuSans-Oblique-42" d="M 1081 4666 
L 2694 4666 
Q 3350 4666 3675 4422 
Q 4000 4178 4000 3688 
Q 4000 3238 3720 2911 
Q 3441 2584 2988 2516 
Q 3375 2428 3569 2181 
Q 3763 1934 3763 1522 
Q 3763 819 3242 409 
Q 2722 0 1819 0 
L 172 0 
L 1081 4666 
z
M 1234 2228 
L 903 519 
L 1919 519 
Q 2491 519 2800 781 
Q 3109 1044 3109 1522 
Q 3109 1891 2904 2059 
Q 2700 2228 2247 2228 
L 1234 2228 
z
M 1606 4147 
L 1331 2741 
L 2272 2741 
Q 2775 2741 3058 2959 
Q 3341 3178 3341 3566 
Q 3341 3869 3150 4008 
Q 2959 4147 2541 4147 
L 1606 4147 
z
" transform="scale(0.015625)"/>
       <path id="DejaVuSans-2f" d="M 1625 4666 
L 2156 4666 
L 531 -594 
L 0 -594 
L 1625 4666 
z
" transform="scale(0.015625)"/>
       <path id="DejaVuSans-Oblique-4e" d="M 1081 4666 
L 1931 4666 
L 3219 666 
L 4000 4666 
L 4616 4666 
L 3706 0 
L 2853 0 
L 1569 4025 
L 788 0 
L 172 0 
L 1081 4666 
z
" transform="scale(0.015625)"/>
      </defs>
      <use xlink:href="#DejaVuSerif-41" transform="translate(0 0.015625)"/>
      <use xlink:href="#DejaVuSerif-74" transform="translate(72.216797 0.015625)"/>
      <use xlink:href="#DejaVuSerif-74" transform="translate(112.402344 0.015625)"/>
      <use xlink:href="#DejaVuSerif-69" transform="translate(152.587891 0.015625)"/>
      <use xlink:href="#DejaVuSerif-74" transform="translate(184.570312 0.015625)"/>
      <use xlink:href="#DejaVuSerif-75" transform="translate(224.755859 0.015625)"/>
      <use xlink:href="#DejaVuSerif-64" transform="translate(289.160156 0.015625)"/>
      <use xlink:href="#DejaVuSerif-65" transform="translate(353.173828 0.015625)"/>
      <use xlink:href="#DejaVuSerif-20" transform="translate(412.353516 0.015625)"/>
      <use xlink:href="#DejaVuSans-Oblique-3c3" transform="translate(444.140625 0.015625)"/>
      <use xlink:href="#DejaVuSans-Oblique-42" transform="translate(507.519531 -16.390625) scale(0.7)"/>
      <use xlink:href="#DejaVuSans-2f" transform="translate(555.541992 -16.390625) scale(0.7)"/>
      <use xlink:href="#DejaVuSans-Oblique-4e" transform="translate(579.125977 -16.390625) scale(0.7)"/>
     </g>
    </g>
   </g>
   <g id="line2d_10">
    <path d="M 96.109063 109.762719 
L 96.478466 107.191474 
L 96.749363 106.563507 
L 96.897124 106.601441 
L 97.09414 106.989426 
L 97.549738 107.87625 
L 97.685186 107.754726 
L 97.943769 107.082544 
L 98.387053 106.08342 
L 98.657949 105.939939 
L 99.027353 106.041075 
L 100.837432 106.706638 
L 101.847136 106.762201 
L 103.792664 106.880987 
L 108.102376 107.490206 
L 111.63634 108.218613 
L 114.899407 109.115874 
L 117.891579 110.166638 
L 120.637481 111.363661 
L 123.174055 112.710414 
L 124.910253 113.845071 
L 125.61212 114.901382 
L 125.784509 114.820476 
L 125.919957 114.423286 
L 126.116972 112.966612 
L 126.449436 108.296931 
L 126.781899 104.69252 
L 126.81884 104.666182 
L 126.85578 104.7484 
L 126.954288 105.549273 
L 127.126676 109.139345 
L 127.865484 127.016085 
L 128.185634 129.430046 
L 128.444217 130.08075 
L 128.604292 130.081186 
L 128.788994 129.77137 
L 129.09683 128.700305 
L 130.6237 122.595071 
L 131.313254 121.195311 
L 132.002808 119.963968 
L 132.125942 120.443527 
L 133.874454 123.205024 
L 135.586025 125.757382 
L 137.420731 128.077672 
L 139.280064 130.080842 
L 141.188651 131.809994 
L 143.208059 133.339251 
L 145.387542 134.710133 
L 147.800981 135.963165 
L 150.522256 137.121864 
L 153.649876 138.207206 
L 157.306974 139.235334 
L 161.653627 140.220103 
L 162.884973 140.377376 
L 162.995794 139.593188 
L 163.242064 135.636027 
L 164.128633 117.953085 
L 164.731993 101.645188 
L 164.990575 99.485058 
L 165.064456 99.415599 
L 165.11371 99.47381 
L 165.273785 100.052162 
L 165.840204 103.431258 
L 166.554385 106.987532 
L 166.985356 108.166556 
L 167.31782 108.522847 
L 167.613343 108.532173 
L 168.007374 108.281501 
L 169.152526 107.450124 
L 169.755886 107.355841 
L 176.922321 107.263237 
L 191.132058 106.958709 
L 214.047413 106.705256 
L 251.591162 106.53305 
L 255.420649 106.424665 
L 255.543783 105.729715 
L 255.740799 103.012388 
L 256.048635 95.037994 
L 256.602741 73.685049 
L 257.021399 61.608661 
L 257.341549 57.955753 
L 257.957222 54.341233 
L 258.215805 53.73291 
L 258.314313 53.866892 
L 258.486701 54.624804 
L 258.917672 57.90882 
L 259.434838 61.090007 
L 259.804242 62.163601 
L 260.099765 62.458036 
L 260.358347 62.42878 
L 260.727751 62.115341 
L 261.786709 61.121426 
L 262.316188 60.981903 
L 263.165817 61.035185 
L 264.507985 61.066981 
L 273.903157 60.6417 
L 283.322956 60.46041 
L 294.922239 60.486807 
L 310.043171 60.725484 
L 325.11485 61.185236 
L 340.100335 61.864464 
L 349.901852 62.487687 
L 350.024986 63.108153 
L 350.246628 65.646926 
L 350.603719 72.687968 
L 351.120884 87.916058 
L 351.539542 97.749264 
L 351.822752 100.041069 
L 352.487679 103.421156 
L 352.91865 108.20633 
L 353.312681 111.496181 
L 353.509696 111.850835 
L 353.632831 111.689668 
L 353.866787 110.877457 
L 354.913431 106.760408 
L 355.282835 106.22225 
L 355.590671 106.112605 
L 355.947762 106.239458 
L 357.499258 107.049444 
L 358.311947 107.025906 
L 360.158966 106.944534 
L 370.66235 107.110933 
L 403.354595 107.714266 
L 433.596461 108.491467 
L 461.289439 109.422088 
L 477.18612 110.067285 
L 477.18612 110.067285 
" clip-path="url(#p5916c3b00e)" style="fill: none; stroke: #2b737e; stroke-width: 1.5; stroke-linecap: square"/>
   </g>
   <g id="line2d_11">
    <path d="M 96.109063 99.432196 
L 96.737049 120.958304 
L 97.069513 125.535331 
L 97.303468 126.440089 
L 97.401976 126.380072 
L 97.549738 125.884928 
L 97.845261 123.871187 
L 98.325486 121.03423 
L 98.571755 120.613416 
L 98.73183 120.673444 
L 98.990413 121.092798 
L 99.766161 122.430854 
L 100.2587 122.767881 
L 102.733706 124.042871 
L 113.323284 130.826386 
L 117.953146 134.123095 
L 121.942708 137.232933 
L 124.860999 139.751084 
L 124.97182 140.396993 
L 125.168836 143.232694 
L 125.464359 151.289884 
L 125.93227 171.115053 
L 126.597197 198.377337 
L 126.89272 202.202327 
L 127.13899 203.112007 
L 127.237497 203.048817 
L 127.397572 202.494333 
L 128.284142 198.615475 
L 128.45653 198.670266 
L 128.702799 199.056452 
L 129.318473 200.5818 
L 130.241982 203.355922 
L 132.002808 209.667528 
L 132.015121 30.555597 
L 132.125942 30.927429 
L 132.889377 33.031728 
L 136.928193 42.775343 
L 139.058422 47.215042 
L 141.127084 51.02107 
L 143.195746 54.368831 
L 145.325975 57.39629 
L 147.554712 60.177548 
L 149.918896 62.771038 
L 152.45547 65.222042 
L 155.213686 67.575529 
L 158.242798 69.864607 
L 161.604373 72.122306 
L 162.897287 73.047676 
L 163.032735 74.210633 
L 163.266691 78.577219 
L 164.498037 106.505346 
L 164.781246 108.015756 
L 165.027516 108.340041 
L 165.175277 108.647794 
L 165.43386 109.885442 
L 166.148041 113.475223 
L 166.455877 114.024897 
L 166.689833 114.066504 
L 166.948416 113.845145 
L 167.613343 112.832295 
L 168.105882 112.337585 
L 168.512226 112.227308 
L 169.017078 112.342888 
L 170.851784 112.935755 
L 178.129041 113.820538 
L 187.142496 114.749523 
L 198.557076 115.693983 
L 213.210097 116.673105 
L 232.591488 117.733488 
L 255.457589 118.95938 
L 255.839306 119.848639 
L 255.876247 119.82437 
L 256.011695 119.501792 
L 256.245651 118.194159 
L 256.52886 115.173637 
L 257.243041 105.524413 
L 257.304609 105.658502 
L 257.427743 106.825957 
L 257.637072 111.573958 
L 258.252745 126.376805 
L 258.585209 129.306381 
L 258.880732 130.275755 
L 259.090061 130.404077 
L 259.274763 130.229526 
L 259.570286 129.567266 
L 260.641557 126.9222 
L 261.060215 126.533917 
L 261.5035 126.429402 
L 263.670669 126.299299 
L 268.005008 125.078558 
L 287.841997 119.812486 
L 307.001746 116.55836 
L 349.951105 109.369197 
L 350.086553 109.942507 
L 350.308196 112.127842 
L 350.71454 118.922501 
L 351.933573 140.170235 
L 352.155215 140.897393 
L 352.24141 140.795734 
L 352.389171 140.120643 
L 352.623127 137.746131 
L 353.632831 125.284057 
L 354.026862 123.633463 
L 354.334698 123.120592 
L 354.568654 123.087496 
L 354.83955 123.323055 
L 355.566045 124.42054 
L 356.095523 124.95606 
L 356.563435 125.127428 
L 357.179108 125.092106 
L 358.632097 124.960993 
L 361.833597 125.227907 
L 378.407519 126.383895 
L 427.562864 129.960746 
L 466.929005 133.04242 
L 477.18612 133.887663 
L 477.18612 133.887663 
" clip-path="url(#p5916c3b00e)" style="fill: none; stroke: #5ea04b; stroke-width: 1.5; stroke-linecap: square"/>
   </g>
   <g id="line2d_12">
    <path d="M 96.109063 151.084812 
L 96.737049 118.29119 
L 97.143393 107.714827 
L 97.389663 105.558565 
L 97.438917 105.533518 
L 97.475857 105.603812 
L 97.598992 106.385326 
L 97.919142 110.691533 
L 98.288545 114.130581 
L 98.522501 114.74825 
L 98.670263 114.716597 
L 98.891905 114.328163 
L 111.919549 83.574569 
L 115.724409 73.788564 
L 119.135239 64.404749 
L 122.250545 55.183345 
L 125.131895 46.588317 
L 125.156522 46.599188 
L 125.316597 46.820682 
L 125.501299 47.538824 
L 125.710628 49.427709 
L 125.969211 54.265136 
L 126.449436 69.253429 
L 126.843467 77.745919 
L 127.17593 80.550676 
L 127.766976 83.754906 
L 127.865484 83.68315 
L 128.013246 83.126055 
L 128.296455 80.927014 
L 129.244592 72.957466 
L 129.638623 71.51261 
L 130.008027 70.908597 
L 130.488252 70.581186 
L 131.066984 70.138441 
L 131.58415 69.418694 
L 132.002808 68.63755 
L 132.015121 171.528543 
L 132.125942 171.32885 
L 132.82781 170.359883 
L 134.379306 168.211252 
L 136.805058 164.887506 
L 139.119989 162.100267 
L 141.373353 159.728544 
L 143.688284 157.614518 
L 146.12635 155.690476 
L 148.749117 153.905126 
L 151.642781 152.207395 
L 154.881222 150.569513 
L 158.562948 148.961848 
L 162.811092 147.35561 
L 162.897287 147.239361 
L 163.020421 146.420836 
L 163.22975 143.017683 
L 163.685348 135.997194 
L 163.931618 135.04509 
L 164.571918 134.19562 
L 164.608858 134.236949 
L 164.719679 134.628031 
L 164.892068 136.266923 
L 165.175277 141.82479 
L 165.667816 150.396828 
L 165.938712 152.030501 
L 166.111101 152.189439 
L 166.258862 151.991603 
L 166.603639 151.014894 
L 167.268566 149.273626 
L 167.773418 148.547419 
L 168.31521 148.143192 
L 169.214093 147.804978 
L 170.396186 147.282058 
L 175.173809 144.829825 
L 179.495835 142.925556 
L 184.371966 141.022978 
L 189.851457 139.127383 
L 196.045129 137.224304 
L 203.08843 135.297634 
L 211.153749 133.327171 
L 220.47504 131.2843 
L 231.409396 129.121801 
L 244.560174 126.755404 
L 255.383708 124.985338 
L 255.49453 125.557969 
L 256.282591 130.809262 
L 256.393412 130.711853 
L 256.565801 130.122007 
L 257.021399 128.55574 
L 257.13222 128.626679 
L 257.304609 129.149386 
L 257.649386 131.139045 
L 258.37588 134.967818 
L 258.535955 135.051447 
L 258.548268 135.042363 
L 258.708343 134.763399 
L 259.151628 133.318566 
L 259.594913 132.278798 
L 259.952003 131.948384 
L 260.382974 131.870697 
L 261.528126 131.765771 
L 262.46395 131.350493 
L 265.874779 129.721268 
L 279.715112 123.185171 
L 286.992368 119.835047 
L 289.565882 119.100881 
L 350.086553 101.215746 
L 350.345136 100.730469 
L 350.788421 99.920323 
L 350.899242 100.048786 
L 351.047004 100.706803 
L 351.268646 103.021029 
L 351.970513 111.201961 
L 352.069021 111.317307 
L 352.105961 111.284672 
L 352.229096 110.915193 
L 352.487679 109.213655 
L 353.103352 105.088798 
L 353.460442 104.375256 
L 353.854473 103.392459 
L 354.420892 102.057129 
L 354.728729 101.838637 
L 355.036566 101.899836 
L 356.4403 102.455413 
L 357.092914 102.301361 
L 359.727995 101.473133 
L 365.145919 100.081902 
L 393.873228 92.510881 
L 418.771051 85.725013 
L 440.935285 79.457376 
L 461.08011 73.533011 
L 477.18612 68.611755 
L 477.18612 68.611755 
" clip-path="url(#p5916c3b00e)" style="fill: none; stroke: #bdab62; stroke-width: 1.5; stroke-linecap: square"/>
   </g>
   <g id="patch_3">
    <path d="M 96.109063 218.623125 
L 96.109063 21.6 
" style="fill: none; stroke: #000000; stroke-width: 0.8; stroke-linejoin: miter; stroke-linecap: square"/>
   </g>
   <g id="patch_4">
    <path d="M 477.18612 218.623125 
L 477.18612 21.6 
" style="fill: none; stroke: #000000; stroke-width: 0.8; stroke-linejoin: miter; stroke-linecap: square"/>
   </g>
   <g id="patch_5">
    <path d="M 96.109063 218.623125 
L 477.18612 218.623125 
" style="fill: none; stroke: #000000; stroke-width: 0.8; stroke-linejoin: miter; stroke-linecap: square"/>
   </g>
   <g id="patch_6">
    <path d="M 96.109063 21.6 
L 477.18612 21.6 
" style="fill: none; stroke: #000000; stroke-width: 0.8; stroke-linejoin: miter; stroke-linecap: square"/>
   </g>
   <g id="legend_1">
    <g id="patch_7">
     <path d="M 247.857591 209.623125 
L 325.437591 209.623125 
Q 329.037591 209.623125 329.037591 206.023125 
L 329.037591 128.56125 
Q 329.037591 124.96125 325.437591 124.96125 
L 247.857591 124.96125 
Q 244.257591 124.96125 244.257591 128.56125 
L 244.257591 206.023125 
Q 244.257591 209.623125 247.857591 209.623125 
z
" style="fill: #ffffff; opacity: 0.8; stroke: #cccccc; stroke-linejoin: miter"/>
    </g>
    <g id="line2d_13">
     <path d="M 251.457591 139.538437 
L 269.457591 139.538437 
L 287.457591 139.538437 
" style="fill: none; stroke: #2b737e; stroke-width: 1.5; stroke-linecap: square"/>
    </g>
    <g id="text_12">
     <!-- $\sigma_0$ -->
     <g transform="translate(301.857591 145.838437) scale(0.18 -0.18)">
      <defs>
       <path id="DejaVuSans-30" d="M 2034 4250 
Q 1547 4250 1301 3770 
Q 1056 3291 1056 2328 
Q 1056 1369 1301 889 
Q 1547 409 2034 409 
Q 2525 409 2770 889 
Q 3016 1369 3016 2328 
Q 3016 3291 2770 3770 
Q 2525 4250 2034 4250 
z
M 2034 4750 
Q 2819 4750 3233 4129 
Q 3647 3509 3647 2328 
Q 3647 1150 3233 529 
Q 2819 -91 2034 -91 
Q 1250 -91 836 529 
Q 422 1150 422 2328 
Q 422 3509 836 4129 
Q 1250 4750 2034 4750 
z
" transform="scale(0.015625)"/>
      </defs>
      <use xlink:href="#DejaVuSans-Oblique-3c3" transform="translate(0 0.265625)"/>
      <use xlink:href="#DejaVuSans-30" transform="translate(63.378906 -16.140625) scale(0.7)"/>
     </g>
    </g>
    <g id="line2d_14">
     <path d="M 251.457591 165.959062 
L 269.457591 165.959062 
L 287.457591 165.959062 
" style="fill: none; stroke: #5ea04b; stroke-width: 1.5; stroke-linecap: square"/>
    </g>
    <g id="text_13">
     <!-- $\sigma_1$ -->
     <g transform="translate(301.857591 172.259062) scale(0.18 -0.18)">
      <defs>
       <path id="DejaVuSans-31" d="M 794 531 
L 1825 531 
L 1825 4091 
L 703 3866 
L 703 4441 
L 1819 4666 
L 2450 4666 
L 2450 531 
L 3481 531 
L 3481 0 
L 794 0 
L 794 531 
z
" transform="scale(0.015625)"/>
      </defs>
      <use xlink:href="#DejaVuSans-Oblique-3c3" transform="translate(0 0.265625)"/>
      <use xlink:href="#DejaVuSans-31" transform="translate(63.378906 -16.140625) scale(0.7)"/>
     </g>
    </g>
    <g id="line2d_15">
     <path d="M 251.457591 192.379687 
L 269.457591 192.379687 
L 287.457591 192.379687 
" style="fill: none; stroke: #bdab62; stroke-width: 1.5; stroke-linecap: square"/>
    </g>
    <g id="text_14">
     <!-- $\sigma_2$ -->
     <g transform="translate(301.857591 198.679688) scale(0.18 -0.18)">
      <defs>
       <path id="DejaVuSans-32" d="M 1228 531 
L 3431 531 
L 3431 0 
L 469 0 
L 469 531 
Q 828 903 1448 1529 
Q 2069 2156 2228 2338 
Q 2531 2678 2651 2914 
Q 2772 3150 2772 3378 
Q 2772 3750 2511 3984 
Q 2250 4219 1831 4219 
Q 1534 4219 1204 4116 
Q 875 4013 500 3803 
L 500 4441 
Q 881 4594 1212 4672 
Q 1544 4750 1819 4750 
Q 2544 4750 2975 4387 
Q 3406 4025 3406 3419 
Q 3406 3131 3298 2873 
Q 3191 2616 2906 2266 
Q 2828 2175 2409 1742 
Q 1991 1309 1228 531 
z
" transform="scale(0.015625)"/>
      </defs>
      <use xlink:href="#DejaVuSans-Oblique-3c3" transform="translate(0 0.265625)"/>
      <use xlink:href="#DejaVuSans-32" transform="translate(63.378906 -16.140625) scale(0.7)"/>
     </g>
    </g>
   </g>
  </g>
 </g>
 <defs>
  <clipPath id="p5916c3b00e">
   <rect x="96.109063" y="21.6" width="381.077058" height="197.023125"/>
  </clipPath>
 </defs>
</svg>
