<?xml version="1.0" encoding="utf-8" standalone="no"?>
<!DOCTYPE svg PUBLIC "-//W3C//DTD SVG 1.1//EN"
  "http://www.w3.org/Graphics/SVG/1.1/DTD/svg11.dtd">
<svg xmlns:xlink="http://www.w3.org/1999/xlink" width="414pt" height="288pt" viewBox="0 0 414 288" xmlns="http://www.w3.org/2000/svg" version="1.1">
 <metadata>
  <rdf:RDF xmlns:dc="http://purl.org/dc/elements/1.1/" xmlns:cc="http://creativecommons.org/ns#" xmlns:rdf="http://www.w3.org/1999/02/22-rdf-syntax-ns#">
   <cc:Work>
    <dc:type rdf:resource="http://purl.org/dc/dcmitype/StillImage"/>
    <dc:date>2026-01-30T00:54:37.724401</dc:date>
    <dc:format>image/svg+xml</dc:format>
    <dc:creator>
     <cc:Agent>
      <dc:title>Matplotlib v3.10.7, https://matplotlib.org/</dc:title>
     </cc:Agent>
    </dc:creator>
   </cc:Work>
  </rdf:RDF>
 </metadata>
 <defs>
  <style type="text/css">*{stroke-linejoin: round; stroke-linecap: butt}</style>
 </defs>
 <g id="figure_1">
  <g id="patch_1">
   <path d="M 0 288 
L 414 288 
L 414 0 
L 0 0 
L 0 288 
z
" style="fill: none"/>
  </g>
  <g id="axes_1">
   <g id="patch_2">
    <path d="M 70.330625 241.036875 
L 403.2 241.036875 
L 403.2 10.8 
L 70.330625 10.8 
L 70.330625 241.036875 
z
" style="fill: none"/>
   </g>
   <g id="matplotlib.axis_1">
    <g id="xtick_1">
     <g id="line2d_1">
      <defs>
       <path id="mbeb92f2de2" d="M 0 0 
L 0 3.5 
" style="stroke: #000000; stroke-width: 0.8"/>
      </defs>
      <g>
       <use xlink:href="#mbeb92f2de2" x="85.461051" y="241.036875" style="stroke: #000000; stroke-width: 0.8"/>
      </g>
     </g>
     <g id="text_1">
      <!-- 0.00 -->
      <g transform="translate(67.648551 260.194375) scale(0.16 -0.16)">
       <defs>
        <path id="DejaVuSans-30" d="M 2034 4250 
Q 1547 4250 1301 3770 
Q 1056 3291 1056 2328 
Q 1056 1369 1301 889 
Q 1547 409 2034 409 
Q 2525 409 2770 889 
Q 3016 1369 3016 2328 
Q 3016 3291 2770 3770 
Q 2525 4250 2034 4250 
z
M 2034 4750 
Q 2819 4750 3233 4129 
Q 3647 3509 3647 2328 
Q 3647 1150 3233 529 
Q 2819 -91 2034 -91 
Q 1250 -91 836 529 
Q 422 1150 422 2328 
Q 422 3509 836 4129 
Q 1250 4750 2034 4750 
z
" transform="scale(0.015625)"/>
        <path id="DejaVuSans-2e" d="M 684 794 
L 1344 794 
L 1344 0 
L 684 0 
L 684 794 
z
" transform="scale(0.015625)"/>
       </defs>
       <use xlink:href="#DejaVuSans-30"/>
       <use xlink:href="#DejaVuSans-2e" transform="translate(63.623047 0)"/>
       <use xlink:href="#DejaVuSans-30" transform="translate(95.410156 0)"/>
       <use xlink:href="#DejaVuSans-30" transform="translate(159.033203 0)"/>
      </g>
     </g>
    </g>
    <g id="xtick_2">
     <g id="line2d_2">
      <g>
       <use xlink:href="#mbeb92f2de2" x="154.29768" y="241.036875" style="stroke: #000000; stroke-width: 0.8"/>
      </g>
     </g>
     <g id="text_2">
      <!-- 0.25 -->
      <g transform="translate(136.48518 260.194375) scale(0.16 -0.16)">
       <defs>
        <path id="DejaVuSans-32" d="M 1228 531 
L 3431 531 
L 3431 0 
L 469 0 
L 469 531 
Q 828 903 1448 1529 
Q 2069 2156 2228 2338 
Q 2531 2678 2651 2914 
Q 2772 3150 2772 3378 
Q 2772 3750 2511 3984 
Q 2250 4219 1831 4219 
Q 1534 4219 1204 4116 
Q 875 4013 500 3803 
L 500 4441 
Q 881 4594 1212 4672 
Q 1544 4750 1819 4750 
Q 2544 4750 2975 4387 
Q 3406 4025 3406 3419 
Q 3406 3131 3298 2873 
Q 3191 2616 2906 2266 
Q 2828 2175 2409 1742 
Q 1991 1309 1228 531 
z
" transform="scale(0.015625)"/>
        <path id="DejaVuSans-35" d="M 691 4666 
L 3169 4666 
L 3169 4134 
L 1269 4134 
L 1269 2991 
Q 1406 3038 1543 3061 
Q 1681 3084 1819 3084 
Q 2600 3084 3056 2656 
Q 3513 2228 3513 1497 
Q 3513 744 3044 326 
Q 2575 -91 1722 -91 
Q 1428 -91 1123 -41 
Q 819 9 494 109 
L 494 744 
Q 775 591 1075 516 
Q 1375 441 1709 441 
Q 2250 441 2565 725 
Q 2881 1009 2881 1497 
Q 2881 1984 2565 2268 
Q 2250 2553 1709 2553 
Q 1456 2553 1204 2497 
Q 953 2441 691 2322 
L 691 4666 
z
" transform="scale(0.015625)"/>
       </defs>
       <use xlink:href="#DejaVuSans-30"/>
       <use xlink:href="#DejaVuSans-2e" transform="translate(63.623047 0)"/>
       <use xlink:href="#DejaVuSans-32" transform="translate(95.410156 0)"/>
       <use xlink:href="#DejaVuSans-35" transform="translate(159.033203 0)"/>
      </g>
     </g>
    </g>
    <g id="xtick_3">
     <g id="line2d_3">
      <g>
       <use xlink:href="#mbeb92f2de2" x="223.134309" y="241.036875" style="stroke: #000000; stroke-width: 0.8"/>
      </g>
     </g>
     <g id="text_3">
      <!-- 0.50 -->
      <g transform="translate(205.321809 260.194375) scale(0.16 -0.16)">
       <use xlink:href="#DejaVuSans-30"/>
       <use xlink:href="#DejaVuSans-2e" transform="translate(63.623047 0)"/>
       <use xlink:href="#DejaVuSans-35" transform="translate(95.410156 0)"/>
       <use xlink:href="#DejaVuSans-30" transform="translate(159.033203 0)"/>
      </g>
     </g>
    </g>
    <g id="xtick_4">
     <g id="line2d_4">
      <g>
       <use xlink:href="#mbeb92f2de2" x="291.970937" y="241.036875" style="stroke: #000000; stroke-width: 0.8"/>
      </g>
     </g>
     <g id="text_4">
      <!-- 0.75 -->
      <g transform="translate(274.158437 260.194375) scale(0.16 -0.16)">
       <defs>
        <path id="DejaVuSans-37" d="M 525 4666 
L 3525 4666 
L 3525 4397 
L 1831 0 
L 1172 0 
L 2766 4134 
L 525 4134 
L 525 4666 
z
" transform="scale(0.015625)"/>
       </defs>
       <use xlink:href="#DejaVuSans-30"/>
       <use xlink:href="#DejaVuSans-2e" transform="translate(63.623047 0)"/>
       <use xlink:href="#DejaVuSans-37" transform="translate(95.410156 0)"/>
       <use xlink:href="#DejaVuSans-35" transform="translate(159.033203 0)"/>
      </g>
     </g>
    </g>
    <g id="xtick_5">
     <g id="line2d_5">
      <g>
       <use xlink:href="#mbeb92f2de2" x="360.807566" y="241.036875" style="stroke: #000000; stroke-width: 0.8"/>
      </g>
     </g>
     <g id="text_5">
      <!-- 1.00 -->
      <g transform="translate(342.995066 260.194375) scale(0.16 -0.16)">
       <defs>
        <path id="DejaVuSans-31" d="M 794 531 
L 1825 531 
L 1825 4091 
L 703 3866 
L 703 4441 
L 1819 4666 
L 2450 4666 
L 2450 531 
L 3481 531 
L 3481 0 
L 794 0 
L 794 531 
z
" transform="scale(0.015625)"/>
       </defs>
       <use xlink:href="#DejaVuSans-31"/>
       <use xlink:href="#DejaVuSans-2e" transform="translate(63.623047 0)"/>
       <use xlink:href="#DejaVuSans-30" transform="translate(95.410156 0)"/>
       <use xlink:href="#DejaVuSans-30" transform="translate(159.033203 0)"/>
      </g>
     </g>
    </g>
    <g id="text_6">
     <!-- time [orbit] -->
     <g transform="translate(208.340312 275.120313) scale(0.1 -0.1)">
      <defs>
       <path id="DejaVuSans-74" d="M 1172 4494 
L 1172 3500 
L 2356 3500 
L 2356 3053 
L 1172 3053 
L 1172 1153 
Q 1172 725 1289 603 
Q 1406 481 1766 481 
L 2356 481 
L 2356 0 
L 1766 0 
Q 1100 0 847 248 
Q 594 497 594 1153 
L 594 3053 
L 172 3053 
L 172 3500 
L 594 3500 
L 594 4494 
L 1172 4494 
z
" transform="scale(0.015625)"/>
       <path id="DejaVuSans-69" d="M 603 3500 
L 1178 3500 
L 1178 0 
L 603 0 
L 603 3500 
z
M 603 4863 
L 1178 4863 
L 1178 4134 
L 603 4134 
L 603 4863 
z
" transform="scale(0.015625)"/>
       <path id="DejaVuSans-6d" d="M 3328 2828 
Q 3544 3216 3844 3400 
Q 4144 3584 4550 3584 
Q 5097 3584 5394 3201 
Q 5691 2819 5691 2113 
L 5691 0 
L 5113 0 
L 5113 2094 
Q 5113 2597 4934 2840 
Q 4756 3084 4391 3084 
Q 3944 3084 3684 2787 
Q 3425 2491 3425 1978 
L 3425 0 
L 2847 0 
L 2847 2094 
Q 2847 2600 2669 2842 
Q 2491 3084 2119 3084 
Q 1678 3084 1418 2786 
Q 1159 2488 1159 1978 
L 1159 0 
L 581 0 
L 581 3500 
L 1159 3500 
L 1159 2956 
Q 1356 3278 1631 3431 
Q 1906 3584 2284 3584 
Q 2666 3584 2933 3390 
Q 3200 3197 3328 2828 
z
" transform="scale(0.015625)"/>
       <path id="DejaVuSans-65" d="M 3597 1894 
L 3597 1613 
L 953 1613 
Q 991 1019 1311 708 
Q 1631 397 2203 397 
Q 2534 397 2845 478 
Q 3156 559 3463 722 
L 3463 178 
Q 3153 47 2828 -22 
Q 2503 -91 2169 -91 
Q 1331 -91 842 396 
Q 353 884 353 1716 
Q 353 2575 817 3079 
Q 1281 3584 2069 3584 
Q 2775 3584 3186 3129 
Q 3597 2675 3597 1894 
z
M 3022 2063 
Q 3016 2534 2758 2815 
Q 2500 3097 2075 3097 
Q 1594 3097 1305 2825 
Q 1016 2553 972 2059 
L 3022 2063 
z
" transform="scale(0.015625)"/>
       <path id="DejaVuSans-20" transform="scale(0.015625)"/>
       <path id="DejaVuSans-5b" d="M 550 4863 
L 1875 4863 
L 1875 4416 
L 1125 4416 
L 1125 -397 
L 1875 -397 
L 1875 -844 
L 550 -844 
L 550 4863 
z
" transform="scale(0.015625)"/>
       <path id="DejaVuSans-6f" d="M 1959 3097 
Q 1497 3097 1228 2736 
Q 959 2375 959 1747 
Q 959 1119 1226 758 
Q 1494 397 1959 397 
Q 2419 397 2687 759 
Q 2956 1122 2956 1747 
Q 2956 2369 2687 2733 
Q 2419 3097 1959 3097 
z
M 1959 3584 
Q 2709 3584 3137 3096 
Q 3566 2609 3566 1747 
Q 3566 888 3137 398 
Q 2709 -91 1959 -91 
Q 1206 -91 779 398 
Q 353 888 353 1747 
Q 353 2609 779 3096 
Q 1206 3584 1959 3584 
z
" transform="scale(0.015625)"/>
       <path id="DejaVuSans-72" d="M 2631 2963 
Q 2534 3019 2420 3045 
Q 2306 3072 2169 3072 
Q 1681 3072 1420 2755 
Q 1159 2438 1159 1844 
L 1159 0 
L 581 0 
L 581 3500 
L 1159 3500 
L 1159 2956 
Q 1341 3275 1631 3429 
Q 1922 3584 2338 3584 
Q 2397 3584 2469 3576 
Q 2541 3569 2628 3553 
L 2631 2963 
z
" transform="scale(0.015625)"/>
       <path id="DejaVuSans-62" d="M 3116 1747 
Q 3116 2381 2855 2742 
Q 2594 3103 2138 3103 
Q 1681 3103 1420 2742 
Q 1159 2381 1159 1747 
Q 1159 1113 1420 752 
Q 1681 391 2138 391 
Q 2594 391 2855 752 
Q 3116 1113 3116 1747 
z
M 1159 2969 
Q 1341 3281 1617 3432 
Q 1894 3584 2278 3584 
Q 2916 3584 3314 3078 
Q 3713 2572 3713 1747 
Q 3713 922 3314 415 
Q 2916 -91 2278 -91 
Q 1894 -91 1617 61 
Q 1341 213 1159 525 
L 1159 0 
L 581 0 
L 581 4863 
L 1159 4863 
L 1159 2969 
z
" transform="scale(0.015625)"/>
       <path id="DejaVuSans-5d" d="M 1947 4863 
L 1947 -844 
L 622 -844 
L 622 -397 
L 1369 -397 
L 1369 4416 
L 622 4416 
L 622 4863 
L 1947 4863 
z
" transform="scale(0.015625)"/>
      </defs>
      <use xlink:href="#DejaVuSans-74"/>
      <use xlink:href="#DejaVuSans-69" transform="translate(39.208984 0)"/>
      <use xlink:href="#DejaVuSans-6d" transform="translate(66.992188 0)"/>
      <use xlink:href="#DejaVuSans-65" transform="translate(164.404297 0)"/>
      <use xlink:href="#DejaVuSans-20" transform="translate(225.927734 0)"/>
      <use xlink:href="#DejaVuSans-5b" transform="translate(257.714844 0)"/>
      <use xlink:href="#DejaVuSans-6f" transform="translate(296.728516 0)"/>
      <use xlink:href="#DejaVuSans-72" transform="translate(357.910156 0)"/>
      <use xlink:href="#DejaVuSans-62" transform="translate(399.023438 0)"/>
      <use xlink:href="#DejaVuSans-69" transform="translate(462.5 0)"/>
      <use xlink:href="#DejaVuSans-74" transform="translate(490.283203 0)"/>
      <use xlink:href="#DejaVuSans-5d" transform="translate(529.492188 0)"/>
     </g>
    </g>
   </g>
   <g id="matplotlib.axis_2">
    <g id="ytick_1">
     <g id="line2d_6">
      <defs>
       <path id="m119b729f67" d="M 0 0 
L -3.5 0 
" style="stroke: #000000; stroke-width: 0.8"/>
      </defs>
      <g>
       <use xlink:href="#m119b729f67" x="70.330625" y="224.782722" style="stroke: #000000; stroke-width: 0.8"/>
      </g>
     </g>
     <g id="text_7">
      <!-- −0.75 -->
      <g transform="translate(14.298125 230.861472) scale(0.16 -0.16)">
       <defs>
        <path id="DejaVuSans-2212" d="M 678 2272 
L 4684 2272 
L 4684 1741 
L 678 1741 
L 678 2272 
z
" transform="scale(0.015625)"/>
       </defs>
       <use xlink:href="#DejaVuSans-2212"/>
       <use xlink:href="#DejaVuSans-30" transform="translate(83.789062 0)"/>
       <use xlink:href="#DejaVuSans-2e" transform="translate(147.412109 0)"/>
       <use xlink:href="#DejaVuSans-37" transform="translate(179.199219 0)"/>
       <use xlink:href="#DejaVuSans-35" transform="translate(242.822266 0)"/>
      </g>
     </g>
    </g>
    <g id="ytick_2">
     <g id="line2d_7">
      <g>
       <use xlink:href="#m119b729f67" x="70.330625" y="188.853896" style="stroke: #000000; stroke-width: 0.8"/>
      </g>
     </g>
     <g id="text_8">
      <!-- −0.50 -->
      <g transform="translate(14.298125 194.932646) scale(0.16 -0.16)">
       <use xlink:href="#DejaVuSans-2212"/>
       <use xlink:href="#DejaVuSans-30" transform="translate(83.789062 0)"/>
       <use xlink:href="#DejaVuSans-2e" transform="translate(147.412109 0)"/>
       <use xlink:href="#DejaVuSans-35" transform="translate(179.199219 0)"/>
       <use xlink:href="#DejaVuSans-30" transform="translate(242.822266 0)"/>
      </g>
     </g>
    </g>
    <g id="ytick_3">
     <g id="line2d_8">
      <g>
       <use xlink:href="#m119b729f67" x="70.330625" y="152.925071" style="stroke: #000000; stroke-width: 0.8"/>
      </g>
     </g>
     <g id="text_9">
      <!-- −0.25 -->
      <g transform="translate(14.298125 159.003821) scale(0.16 -0.16)">
       <use xlink:href="#DejaVuSans-2212"/>
       <use xlink:href="#DejaVuSans-30" transform="translate(83.789062 0)"/>
       <use xlink:href="#DejaVuSans-2e" transform="translate(147.412109 0)"/>
       <use xlink:href="#DejaVuSans-32" transform="translate(179.199219 0)"/>
       <use xlink:href="#DejaVuSans-35" transform="translate(242.822266 0)"/>
      </g>
     </g>
    </g>
    <g id="ytick_4">
     <g id="line2d_9">
      <g>
       <use xlink:href="#m119b729f67" x="70.330625" y="116.996246" style="stroke: #000000; stroke-width: 0.8"/>
      </g>
     </g>
     <g id="text_10">
      <!-- 0.00 -->
      <g transform="translate(27.705625 123.074996) scale(0.16 -0.16)">
       <use xlink:href="#DejaVuSans-30"/>
       <use xlink:href="#DejaVuSans-2e" transform="translate(63.623047 0)"/>
       <use xlink:href="#DejaVuSans-30" transform="translate(95.410156 0)"/>
       <use xlink:href="#DejaVuSans-30" transform="translate(159.033203 0)"/>
      </g>
     </g>
    </g>
    <g id="ytick_5">
     <g id="line2d_10">
      <g>
       <use xlink:href="#m119b729f67" x="70.330625" y="81.067421" style="stroke: #000000; stroke-width: 0.8"/>
      </g>
     </g>
     <g id="text_11">
      <!-- 0.25 -->
      <g transform="translate(27.705625 87.146171) scale(0.16 -0.16)">
       <use xlink:href="#DejaVuSans-30"/>
       <use xlink:href="#DejaVuSans-2e" transform="translate(63.623047 0)"/>
       <use xlink:href="#DejaVuSans-32" transform="translate(95.410156 0)"/>
       <use xlink:href="#DejaVuSans-35" transform="translate(159.033203 0)"/>
      </g>
     </g>
    </g>
    <g id="ytick_6">
     <g id="line2d_11">
      <g>
       <use xlink:href="#m119b729f67" x="70.330625" y="45.138595" style="stroke: #000000; stroke-width: 0.8"/>
      </g>
     </g>
     <g id="text_12">
      <!-- 0.50 -->
      <g transform="translate(27.705625 51.217345) scale(0.16 -0.16)">
       <use xlink:href="#DejaVuSans-30"/>
       <use xlink:href="#DejaVuSans-2e" transform="translate(63.623047 0)"/>
       <use xlink:href="#DejaVuSans-35" transform="translate(95.410156 0)"/>
       <use xlink:href="#DejaVuSans-30" transform="translate(159.033203 0)"/>
      </g>
     </g>
    </g>
    <g id="text_13">
     <!-- MRP Error -->
     <g transform="translate(8.218438 150.495781) rotate(-90) scale(0.1 -0.1)">
      <defs>
       <path id="DejaVuSans-4d" d="M 628 4666 
L 1569 4666 
L 2759 1491 
L 3956 4666 
L 4897 4666 
L 4897 0 
L 4281 0 
L 4281 4097 
L 3078 897 
L 2444 897 
L 1241 4097 
L 1241 0 
L 628 0 
L 628 4666 
z
" transform="scale(0.015625)"/>
       <path id="DejaVuSans-52" d="M 2841 2188 
Q 3044 2119 3236 1894 
Q 3428 1669 3622 1275 
L 4263 0 
L 3584 0 
L 2988 1197 
Q 2756 1666 2539 1819 
Q 2322 1972 1947 1972 
L 1259 1972 
L 1259 0 
L 628 0 
L 628 4666 
L 2053 4666 
Q 2853 4666 3247 4331 
Q 3641 3997 3641 3322 
Q 3641 2881 3436 2590 
Q 3231 2300 2841 2188 
z
M 1259 4147 
L 1259 2491 
L 2053 2491 
Q 2509 2491 2742 2702 
Q 2975 2913 2975 3322 
Q 2975 3731 2742 3939 
Q 2509 4147 2053 4147 
L 1259 4147 
z
" transform="scale(0.015625)"/>
       <path id="DejaVuSans-50" d="M 1259 4147 
L 1259 2394 
L 2053 2394 
Q 2494 2394 2734 2622 
Q 2975 2850 2975 3272 
Q 2975 3691 2734 3919 
Q 2494 4147 2053 4147 
L 1259 4147 
z
M 628 4666 
L 2053 4666 
Q 2838 4666 3239 4311 
Q 3641 3956 3641 3272 
Q 3641 2581 3239 2228 
Q 2838 1875 2053 1875 
L 1259 1875 
L 1259 0 
L 628 0 
L 628 4666 
z
" transform="scale(0.015625)"/>
       <path id="DejaVuSans-45" d="M 628 4666 
L 3578 4666 
L 3578 4134 
L 1259 4134 
L 1259 2753 
L 3481 2753 
L 3481 2222 
L 1259 2222 
L 1259 531 
L 3634 531 
L 3634 0 
L 628 0 
L 628 4666 
z
" transform="scale(0.015625)"/>
      </defs>
      <use xlink:href="#DejaVuSans-4d"/>
      <use xlink:href="#DejaVuSans-52" transform="translate(86.279297 0)"/>
      <use xlink:href="#DejaVuSans-50" transform="translate(155.761719 0)"/>
      <use xlink:href="#DejaVuSans-20" transform="translate(216.064453 0)"/>
      <use xlink:href="#DejaVuSans-45" transform="translate(247.851562 0)"/>
      <use xlink:href="#DejaVuSans-72" transform="translate(311.035156 0)"/>
      <use xlink:href="#DejaVuSans-72" transform="translate(350.398438 0)"/>
      <use xlink:href="#DejaVuSans-6f" transform="translate(389.261719 0)"/>
      <use xlink:href="#DejaVuSans-72" transform="translate(450.443359 0)"/>
     </g>
    </g>
   </g>
   <g id="line2d_12">
    <path d="M 85.461051 116.996246 
L 85.748702 230.571562 
L 86.324003 130.369403 
L 86.611654 101.743969 
L 86.899305 86.531547 
L 87.186955 82.762094 
L 87.474606 86.558607 
L 88.337558 106.961917 
L 88.625209 111.060288 
L 88.912859 113.427054 
L 89.20051 114.507022 
L 89.488161 114.80656 
L 90.638764 114.680066 
L 91.214065 115.153943 
L 92.077017 115.956061 
L 92.939969 116.410133 
L 94.090572 116.671919 
L 96.104127 116.887136 
L 99.555935 116.979807 
L 114.801421 116.996242 
L 182.974634 116.996246 
L 183.262285 68.731362 
L 183.837586 109.33841 
L 184.125237 123.758684 
L 184.412887 131.757053 
L 184.700538 133.99798 
L 184.988189 132.622816 
L 186.138792 121.449034 
L 186.426442 119.977087 
L 186.714093 119.098331 
L 187.001744 118.6457 
L 187.577045 118.371205 
L 188.439997 118.152446 
L 190.453552 117.355148 
L 191.891805 117.161996 
L 192.754757 117.101396 
L 193.042408 161.764985 
L 193.617709 124.761077 
L 194.193011 108.009734 
L 194.480662 104.627413 
L 194.768312 103.984113 
L 195.055963 105.184736 
L 196.206566 112.709561 
L 196.781867 114.323946 
L 197.357168 115.005333 
L 198.795422 115.925532 
L 199.946025 116.448062 
L 201.096627 116.710142 
L 203.110182 116.89967 
L 206.849641 116.98385 
L 226.409888 116.996246 
L 245.682484 116.996246 
L 245.970134 21.265312 
L 246.257785 43.384996 
L 246.833087 110.079195 
L 247.120737 130.944891 
L 247.408388 142.074419 
L 247.696039 144.856711 
L 247.983689 142.098493 
L 248.846641 126.487459 
L 249.421943 121.076923 
L 249.709593 120.009004 
L 249.997244 119.567672 
L 250.572545 119.397752 
L 251.147847 119.183637 
L 253.449052 117.572774 
L 254.599655 117.311042 
L 255.750258 117.16771 
L 256.037909 201.858349 
L 256.900861 108.7553 
L 257.188511 94.353798 
L 257.476162 89.100514 
L 257.763813 90.470536 
L 258.914415 110.000037 
L 259.202066 112.460166 
L 259.489717 113.806895 
L 259.777367 114.403494 
L 260.065018 114.592865 
L 260.92797 114.781924 
L 261.790922 115.468396 
L 262.653874 116.12873 
L 263.516826 116.487034 
L 264.95508 116.75345 
L 267.256285 116.928185 
L 272.146347 116.991559 
L 320.471662 116.996246 
L 320.759313 104.659374 
L 321.334614 113.337006 
L 321.909916 118.049775 
L 322.197567 119.335016 
L 322.485217 119.99151 
L 322.772868 120.11423 
L 323.060519 119.872911 
L 324.498772 117.921209 
L 325.074073 117.602475 
L 326.224676 117.349882 
L 328.525882 117.098028 
L 329.964135 117.042527 
L 330.251786 130.425888 
L 330.539436 128.339003 
L 331.402389 114.638089 
L 331.690039 112.612055 
L 331.97769 112.183379 
L 332.265341 112.753657 
L 333.128293 115.631814 
L 333.703594 116.579277 
L 334.278895 116.785544 
L 336.0048 116.763726 
L 338.306005 116.943739 
L 344.921971 116.994761 
L 388.069574 116.996246 
L 388.069574 116.996246 
" clip-path="url(#p743d7880f5)" style="fill: none; stroke: #1f77b4; stroke-width: 1.5; stroke-linecap: square"/>
   </g>
   <g id="line2d_13">
    <path d="M 85.461051 116.996246 
L 182.974634 116.996246 
L 183.262285 60.746583 
L 183.837586 110.068067 
L 184.125237 122.244338 
L 184.412887 129.323834 
L 184.700538 132.432632 
L 184.988189 132.414025 
L 185.56349 127.773616 
L 186.138792 123.257603 
L 186.714093 120.955867 
L 187.289394 119.934305 
L 188.439997 118.740584 
L 189.302949 118.075601 
L 190.165901 117.654005 
L 191.316504 117.34596 
L 192.754757 117.155599 
L 193.042408 177.200573 
L 193.617709 122.664313 
L 193.90536 105.375109 
L 194.193011 97.084203 
L 194.480662 96.042357 
L 194.768312 99.087271 
L 195.631264 110.661152 
L 195.918915 112.763934 
L 196.206566 114.010436 
L 196.494216 114.661203 
L 197.069518 115.109536 
L 197.93247 115.49047 
L 199.658374 116.425517 
L 200.808977 116.69703 
L 202.822531 116.895602 
L 206.56199 116.983381 
L 225.259285 116.996245 
L 245.682484 116.996246 
L 245.970134 107.231163 
L 246.257785 108.297819 
L 247.120737 121.049098 
L 247.408388 122.084164 
L 247.696039 121.347841 
L 248.27134 118.586883 
L 248.558991 117.639375 
L 248.846641 117.079581 
L 249.134292 116.813564 
L 249.709593 116.77482 
L 250.860196 117.034056 
L 252.5861 117.010575 
L 255.750258 116.998738 
L 256.037909 124.734419 
L 256.325559 120.303957 
L 256.61321 118.40253 
L 257.188511 117.118305 
L 257.763813 115.412124 
L 258.051463 115.111712 
L 258.339114 115.195951 
L 259.489717 116.127085 
L 260.352669 116.455158 
L 261.790922 116.748821 
L 263.804477 116.914752 
L 268.119237 116.988647 
L 298.61021 116.996246 
L 320.471662 116.996246 
L 320.759313 95.046832 
L 321.909916 122.500639 
L 322.197567 124.010849 
L 322.485217 123.700188 
L 323.63582 118.913359 
L 324.211121 117.978286 
L 324.786423 117.720543 
L 329.101183 117.08318 
L 329.964135 117.050854 
L 330.251786 140.305704 
L 330.539436 134.798527 
L 331.114738 119.654155 
L 331.402389 115.276704 
L 331.690039 112.748777 
L 331.97769 111.678776 
L 332.265341 111.653039 
L 332.840642 113.070606 
L 333.415943 114.589043 
L 333.991245 115.494618 
L 334.566546 115.947577 
L 335.717149 116.394395 
L 337.155402 116.720728 
L 339.168957 116.906029 
L 343.196067 116.986367 
L 367.071074 116.996246 
L 388.069574 116.996246 
L 388.069574 116.996246 
" clip-path="url(#p743d7880f5)" style="fill: none; stroke: #ff7f0e; stroke-width: 1.5; stroke-linecap: square"/>
   </g>
   <g id="line2d_14">
    <path d="M 85.461051 116.996246 
L 182.974634 116.996246 
L 183.262285 164.281879 
L 183.837586 114.829592 
L 184.125237 102.381657 
L 184.412887 98.730434 
L 184.700538 100.818104 
L 185.56349 112.428439 
L 185.851141 114.243709 
L 186.138792 115.158095 
L 186.426442 115.547963 
L 187.001744 115.763066 
L 187.864696 116.037215 
L 189.302949 116.562197 
L 190.741203 116.802939 
L 192.754757 116.93238 
L 193.042408 70.773147 
L 193.617709 117.734101 
L 193.90536 128.30996 
L 194.193011 131.797109 
L 194.480662 130.814877 
L 195.343614 122.384848 
L 195.631264 120.809247 
L 195.918915 119.909129 
L 196.494216 119.149442 
L 198.507771 117.820141 
L 199.658374 117.424422 
L 201.096627 117.190187 
L 203.685483 117.042578 
L 210.013799 116.997648 
L 245.682484 116.996246 
L 245.970134 96.575374 
L 246.257785 102.344866 
L 246.833087 118.287538 
L 247.120737 121.69706 
L 247.408388 122.656756 
L 247.696039 122.082143 
L 248.558991 118.584027 
L 248.846641 118.008441 
L 249.134292 117.727318 
L 249.709593 117.575792 
L 251.147847 117.348204 
L 252.873751 117.125259 
L 255.750258 117.022712 
L 256.037909 134.762451 
L 256.61321 117.270428 
L 256.900861 112.275042 
L 257.188511 110.491814 
L 257.476162 110.944366 
L 258.339114 115.376396 
L 258.626765 116.128788 
L 258.914415 116.488303 
L 259.489717 116.632246 
L 260.64032 116.669725 
L 263.229176 116.920865 
L 267.831587 116.990268 
L 306.089128 116.996246 
L 320.471662 116.996246 
L 320.759313 70.239806 
L 321.334614 108.996696 
L 321.622265 121.501384 
L 321.909916 127.476032 
L 322.197567 128.839463 
L 322.485217 127.736016 
L 323.348169 122.286883 
L 323.923471 120.400166 
L 324.498772 119.447856 
L 325.361724 118.578989 
L 326.224676 117.987133 
L 327.375279 117.517834 
L 328.813532 117.231809 
L 329.964135 117.12098 
L 330.251786 167.871943 
L 330.539436 154.92548 
L 331.114738 117.740792 
L 331.402389 108.501576 
L 331.690039 105.10215 
L 331.97769 105.324133 
L 333.128293 112.459499 
L 333.703594 114.011553 
L 334.278895 114.801734 
L 335.141847 115.572238 
L 336.0048 116.107221 
L 337.155402 116.528705 
L 338.593656 116.785001 
L 340.894861 116.937026 
L 346.360224 116.993358 
L 388.069574 116.996246 
L 388.069574 116.996246 
" clip-path="url(#p743d7880f5)" style="fill: none; stroke: #2ca02c; stroke-width: 1.5; stroke-linecap: square"/>
   </g>
   <g id="patch_3">
    <path d="M 70.330625 241.036875 
L 70.330625 10.8 
" style="fill: none; stroke: #000000; stroke-width: 0.8; stroke-linejoin: miter; stroke-linecap: square"/>
   </g>
   <g id="patch_4">
    <path d="M 403.2 241.036875 
L 403.2 10.8 
" style="fill: none; stroke: #000000; stroke-width: 0.8; stroke-linejoin: miter; stroke-linecap: square"/>
   </g>
   <g id="patch_5">
    <path d="M 70.330625 241.036875 
L 403.2 241.036875 
" style="fill: none; stroke: #000000; stroke-width: 0.8; stroke-linejoin: miter; stroke-linecap: square"/>
   </g>
   <g id="patch_6">
    <path d="M 70.330625 10.8 
L 403.2 10.8 
" style="fill: none; stroke: #000000; stroke-width: 0.8; stroke-linejoin: miter; stroke-linecap: square"/>
   </g>
  </g>
 </g>
 <defs>
  <clipPath id="p743d7880f5">
   <rect x="70.330625" y="10.8" width="332.869375" height="230.236875"/>
  </clipPath>
 </defs>
</svg>
